/* XPM */
static char * top_left_active_xpm[] = {
"12 43 2 1",
"       c None",
".      c #C0C0FF s active_mid_2",
"       .....",
"     .......",
"   .........",
"  ..........",
"  ..........",
" ...........",
" ...........",
"............",
"............",
"............",
"............",
"............",
"............",
"............",
"............",
"............",
"............",
"............",
"............",
"............",
"............",
"............",
"............",
"............",
"............",
"............",
"............",
"............",
"............",
"............",
"............",
"............",
"............",
"............",
"............",
"............",
"............",
"............",
"............",
"............",
"............",
"............",
"............"};
