<svg width="64" height="64" enable-background="new" version="1.1" viewBox="0 0 16.933 16.933" xmlns="http://www.w3.org/2000/svg" xmlns:osb="http://www.openswatchbook.org/uri/2009/osb" xmlns:xlink="http://www.w3.org/1999/xlink">
 <defs>
  <radialGradient id="e" cx="399.85" cy="191.95" r="49.762" gradientTransform="matrix(.26492 .05739 -.059889 .27646 -79.138 205.89)" gradientUnits="userSpaceOnUse">
   <stop stop-color="#36383b" offset="0"/>
   <stop stop-color="#17181a" offset="1"/>
  </radialGradient>
  <radialGradient id="d" cx="451.89" cy="300.02" r="20.151" gradientTransform="matrix(.33225 .052904 -.059098 .37115 -118.42 147.37)" gradientUnits="userSpaceOnUse">
   <stop stop-color="#919699" offset="0"/>
   <stop stop-color="#3d4043" offset="1"/>
  </radialGradient>
  <linearGradient id="f" x1="422.66" x2="567.48" y1="-296.76" y2="-251.7" gradientTransform="matrix(.19503 0 0 .19503 154.94 178.29)" gradientUnits="userSpaceOnUse">
   <stop stop-color="#fff" offset="0"/>
   <stop stop-color="#e5e5e5" offset="1"/>
  </linearGradient>
  <radialGradient id="c" cx="403.36" cy="328" r="33.477" gradientTransform="matrix(.17456 .037516 -.050218 .23366 -49.488 197.01)" gradientUnits="userSpaceOnUse">
   <stop stop-color="#909299" offset="0"/>
   <stop stop-color="#b5b7bf" offset="1"/>
  </radialGradient>
  <radialGradient id="b" cx="426.87" cy="312.58" r="50.458" gradientTransform="matrix(.15789 .024693 -.043137 .27583 -44.88 189.96)" gradientUnits="userSpaceOnUse">
   <stop stop-color="#9c9da5" offset="0"/>
   <stop stop-color="#84848c" offset="1"/>
  </radialGradient>
  <filter id="g" x="-.062327" y="-.057841" width="1.1247" height="1.1157" color-interpolation-filters="sRGB">
   <feGaussianBlur stdDeviation="0.76791763"/>
  </filter>
  <radialGradient id="a" cx="249.8" cy="130.23" r="17.762" gradientTransform="matrix(1.0135 .11917 -.087788 .7466 8.0597 1.0056)" gradientUnits="userSpaceOnUse">
   <stop stop-color="#fff" offset="0"/>
   <stop offset="1"/>
  </radialGradient>
 </defs>
 <g transform="translate(0 -280.07)">
  <g transform="matrix(.46436 0 0 .47779 .60377 154.57)" stroke-width="2.123">
   <path d="m13.458 264.45a17.762 8.8808 59.304 0 0-2.6619 0.65732 17.762 8.8808 59.304 0 0-2.481 3.7388c-0.53939 1.3484-1.5371 4.6023-1.6826 9.4976-0.0037 0.1241-0.0033 0.24839-0.0057 0.37259l-2.5254 1.7058s-3.826 2.6666-0.7705 8.6775c3.3596 6.6092 8.1633 4.9382 8.1633 4.9382l3.0861-1.5906c0.08207 0.0417 0.16072 0.0843 0.24443 0.12558 4.6574 2.2963 8.0867 3.183 9.9312 3.5254a17.762 8.8808 59.304 0 0 1.2857 0.19121c0.07858 8e-3 0.10708 0.0111 0.14728 0.014a17.762 8.8808 59.304 0 0 0.0894 7e-3c0.0015 7e-5 0.02119 2e-3 0.02119 2e-3l-0.0021-3e-3a17.762 8.8808 59.304 0 0 2.6324-0.65614 17.762 8.8808 59.304 0 0-1.4304-19.807 17.762 8.8808 59.304 0 0-14.042-11.397z" filter="url(#g)" opacity=".25"/>
   <path d="m7.3557 277.7-3.254 2.1979s-3.8262 2.6664-0.77068 8.6773c3.3596 6.6092 8.1635 4.9381 8.1635 4.9381l3.7107-1.9124z" fill="url(#c)"/>
   <path d="m7.4589 277.59s-0.69932 0.21408-1.156 0.95622c-0.4567 0.74214-1.4961 2.7437-0.21163 6.6827 1.2306 3.398 5.3483 8.3223 9.2458 6.7186 0.39961-0.37107-7.8781-14.358-7.8781-14.358z" fill="#1f1f1f"/>
   <path d="m8.6596 267.61c-0.04841-0.0968-1.8286 3.5398-2.0266 10.204-0.15572 5.2408 0.81854 10.594 8.1921 14.229 7.1872 3.5436 11.475 3.7392 11.475 3.7392z" fill="url(#b)"/>
   <g fill-rule="evenodd">
    <ellipse transform="rotate(59.304)" cx="250.78" cy="125.78" rx="17.762" ry="8.8808" fill="url(#f)"/>
    <ellipse transform="rotate(59.304)" cx="250.78" cy="125.78" rx="17.762" ry="8.8808" fill="url(#a)" opacity=".1"/>
    <path d="m17.005 287.97a6.0102 3.4786 59.348 0 0 0.08113-3e-3 6.0102 3.4786 59.348 0 0 0.35566-0.0673 6.0102 3.4786 59.348 0 0 0.23654-0.0802 6.0102 3.4786 59.348 0 0 0.31001-0.15853 6.0102 3.4786 59.348 0 0 0.27896-0.20993 6.0102 3.4786 59.348 0 0 0.2451-0.25921 6.0102 3.4786 59.348 0 0 0.20893-0.30598 6.0102 3.4786 59.348 0 0 0.17052-0.34961 6.0102 3.4786 59.348 0 0 0.13051-0.38983 6.0102 3.4786 59.348 0 0 0.08909-0.42601 6.0102 3.4786 59.348 0 0 0.04686-0.45815 6.0102 3.4786 59.348 0 0 0.0041-0.48547 6.0102 3.4786 59.348 0 0-0.0386-0.50815 6.0102 3.4786 59.348 0 0-0.08103-0.52568 6.0102 3.4786 59.348 0 0-0.12255-0.53788 6.0102 3.4786 59.348 0 0-0.16297-0.54483 6.0102 3.4786 59.348 0 0-0.20156-0.54624 6.0102 3.4786 59.348 0 0-0.23836-0.54221 6.0102 3.4786 59.348 0 0-0.18957-0.37844 6.0102 3.4786 59.348 0 0-0.29529-0.52296 6.0102 3.4786 59.348 0 0-0.32483-0.50442 6.0102 3.4786 59.348 0 0-0.35092-0.48093 6.0102 3.4786 59.348 0 0-0.3737-0.45272 6.0102 3.4786 59.348 0 0-0.39275-0.41986 6.0102 3.4786 59.348 0 0-0.40777-0.38297 6.0102 3.4786 59.348 0 0-0.41875-0.34206 6.0102 3.4786 59.348 0 0-0.4255-0.29771 6.0102 3.4786 59.348 0 0-0.42812-0.25065 6.0102 3.4786 59.348 0 0-0.42641-0.20086 6.0102 3.4786 59.348 0 0-0.42036-0.14916 6.0102 3.4786 59.348 0 0-0.41019-0.0958 6.0102 3.4786 59.348 0 0-0.39597-0.0418 6.0102 3.4786 59.348 0 0-0.37763 0.0129 6.0102 3.4786 59.348 0 0-0.35566 0.0673 6.0102 3.4786 59.348 0 0-0.23664 0.0803 6.0102 3.4786 59.348 0 0-0.3099 0.15843 6.0102 3.4786 59.348 0 0-0.27897 0.20993 6.0102 3.4786 59.348 0 0-0.1925 0.20359 15.345 6.9853 60.434 0 0 2.2744 5.1546 15.345 6.9853 60.434 0 0 3.4247 5.0313z" fill="url(#d)" stroke="#333" stroke-width=".1453"/>
    <path d="m13.844 266.08a15.345 6.9853 60.434 0 0-1.3937 0.3473 15.345 6.9853 60.434 0 0-1.1451 11.358 6.0102 3.4786 59.348 0 1 0.1925-0.20359 6.0102 3.4786 59.348 0 1 0.27897-0.20993 6.0102 3.4786 59.348 0 1 0.3099-0.15843 6.0102 3.4786 59.348 0 1 0.23664-0.0803 6.0102 3.4786 59.348 0 1 0.35566-0.0673 6.0102 3.4786 59.348 0 1 0.37763-0.0129 6.0102 3.4786 59.348 0 1 0.39597 0.0418 6.0102 3.4786 59.348 0 1 0.41019 0.0958 6.0102 3.4786 59.348 0 1 0.42036 0.14916 6.0102 3.4786 59.348 0 1 0.42641 0.20086 6.0102 3.4786 59.348 0 1 0.42812 0.25065 6.0102 3.4786 59.348 0 1 0.4255 0.29771 6.0102 3.4786 59.348 0 1 0.41875 0.34206 6.0102 3.4786 59.348 0 1 0.40777 0.38297 6.0102 3.4786 59.348 0 1 0.39275 0.41986 6.0102 3.4786 59.348 0 1 0.3737 0.45272 6.0102 3.4786 59.348 0 1 0.35092 0.48093 6.0102 3.4786 59.348 0 1 0.32483 0.50442 6.0102 3.4786 59.348 0 1 0.29529 0.52296 6.0102 3.4786 59.348 0 1 0.18957 0.37844 6.0102 3.4786 59.348 0 1 0.23836 0.54221 6.0102 3.4786 59.348 0 1 0.20156 0.54624 6.0102 3.4786 59.348 0 1 0.16297 0.54483 6.0102 3.4786 59.348 0 1 0.12255 0.53788 6.0102 3.4786 59.348 0 1 0.08103 0.52568 6.0102 3.4786 59.348 0 1 0.0386 0.50815 6.0102 3.4786 59.348 0 1-0.0041 0.48547 6.0102 3.4786 59.348 0 1-0.04686 0.45815 6.0102 3.4786 59.348 0 1-0.08909 0.42601 6.0102 3.4786 59.348 0 1-0.13051 0.38983 6.0102 3.4786 59.348 0 1-0.17052 0.34961 6.0102 3.4786 59.348 0 1-0.20893 0.30598 6.0102 3.4786 59.348 0 1-0.2451 0.25921 6.0102 3.4786 59.348 0 1-0.27896 0.20993 6.0102 3.4786 59.348 0 1-0.31001 0.15853 6.0102 3.4786 59.348 0 1-0.23654 0.0802 6.0102 3.4786 59.348 0 1-0.35566 0.0673 6.0102 3.4786 59.348 0 1-0.08113 3e-3 15.345 6.9853 60.434 0 0 10.251 5.3272 15.345 6.9853 60.434 0 0-1.0984-16.49l-0.03346-0.0607a15.345 6.9853 60.434 0 0-12.28-10.669z" fill="url(#e)"/>
   </g>
  </g>
 </g>
</svg>
