<svg width="64" height="64" version="1.1" viewBox="0 0 64 64" xmlns="http://www.w3.org/2000/svg" xmlns:xlink="http://www.w3.org/1999/xlink">
 <defs>
  <linearGradient id="linearGradient1034">
   <stop stop-opacity="0" offset="0"/>
   <stop offset=".14083"/>
   <stop stop-opacity="0" offset="1"/>
  </linearGradient>
  <filter id="filter943" x="-.058649" y="-.061414" width="1.1173" height="1.1228" color-interpolation-filters="sRGB">
   <feGaussianBlur stdDeviation="1.0747504"/>
  </filter>
  <linearGradient id="linearGradient893-7" x1="3" x2="45" y1="42" y2="42" gradientTransform="matrix(1.3333 0 0 1.3333 7.9783e-7 -2.6668)" gradientUnits="userSpaceOnUse">
   <stop stop-color="#1a1a1a" offset="0"/>
   <stop stop-color="#2c2c2e" offset=".11054"/>
   <stop stop-color="#2b2b2d" offset=".29001"/>
   <stop stop-color="#2a2b2d" offset=".51187"/>
   <stop stop-color="#2b2b2d" offset=".75173"/>
   <stop stop-color="#323232" offset=".89659"/>
   <stop stop-color="#171717" offset="1"/>
  </linearGradient>
  <linearGradient id="c-3" x1="450.06" x2="450.06" y1="544.2" y2="543.43" gradientTransform="matrix(1.1756 0 0 3.4682 -499.76 -1832.8)" gradientUnits="userSpaceOnUse">
   <stop stop-color="#24785a" offset="0"/>
   <stop stop-color="#67e5b8" offset="1"/>
  </linearGradient>
  <linearGradient id="b-2" x1="467.17" x2="467.17" y1="546.85" y2="544.72" gradientTransform="matrix(2.5125 0 0 2.5125 -1121.6 -1318.3)" gradientUnits="userSpaceOnUse">
   <stop stop-color="#040404" offset="0"/>
   <stop stop-color="#121212" stop-opacity=".90816" offset="1"/>
  </linearGradient>
  <linearGradient id="linearGradient975" x1="26" x2="26" y1="35" y2="7" gradientTransform="matrix(1.3333 0 0 1.3333 -.010911 -2.6668)" gradientUnits="userSpaceOnUse">
   <stop stop-color="#e78c09" offset="0"/>
   <stop stop-color="#fcb519" offset="1"/>
  </linearGradient>
  <linearGradient id="linearGradient1006" x1="26" x2="26" y1="35" y2="7" gradientTransform="matrix(-1.3333 0 0 1.3333 64.011 -2.6668)" gradientUnits="userSpaceOnUse">
   <stop stop-color="#b6b9bf" offset="0"/>
   <stop stop-color="#dddfe2" offset="1"/>
  </linearGradient>
  <linearGradient id="linearGradient1036" x1="7" x2="16.79" y1="30" y2="31.567" gradientUnits="userSpaceOnUse" xlink:href="#linearGradient1034"/>
  <linearGradient id="linearGradient1042" x1="7" x2="16.79" y1="30" y2="31.567" gradientTransform="matrix(-1 0 0 1 63.939 0)" gradientUnits="userSpaceOnUse" xlink:href="#linearGradient1034"/>
 </defs>
 <path transform="matrix(1.3333 0 0 1.3333 7.9783e-7 -21.333)" d="m12.507 20c-2.894 0-4.7904 2.1562-5.2238 4.7676l-5.2217 31.465c-0.06451 0.38874-0.050724 0.76596 0.016324 1.1289 0.19327 2.5991 2.4391 4.6387 5.2054 4.6387h33.432c2.6606 0 4.84-1.8872 5.1748-4.3438 0.1223-0.45134 0.14747-0.9294 0.04897-1.4238l-6.2685-31.465c-0.51769-2.5986-2.3298-4.7676-5.2238-4.7676z" filter="url(#filter943)" opacity=".15"/>
 <path d="m17.322 4c-3.6932 0-6.113 2.8737-6.666 6.3555l-6.6641 41.953c-0.55305 3.4816 2.9728 6.3555 6.666 6.3555h21.342 21.342c3.6932 0 7.2191-2.8738 6.666-6.3555l-6.6641-41.953c-0.55304-3.4818-2.9728-6.3555-6.666-6.3555h-14.678-14.678z" fill="url(#linearGradient1006)" stroke-width="1.3333"/>
 <rect x="3.9999" y="46.665" width="55.999" height="13.333" ry="6.6665" fill="url(#linearGradient893-7)" stroke-width="1.3333"/>
 <rect x="16" y="51.999" width="26.666" height="2.6666" ry="1.3333" fill="url(#c-3)" stroke-width="2.6733"/>
 <circle cx="51.999" cy="53.332" r="2.6666" fill="url(#b-2)" opacity=".452" stroke-width="2.3647"/>
 <g stroke-width="1.3333">
  <path d="m52.003 52.098c-0.05365 0-0.10142 0.01989-0.14062 0.05989-0.0392 0.0384-0.05729 0.08362-0.05729 0.13802v0.99216c0 0.0528 0.01809 0.09963 0.05729 0.13802 0.0392 0.0384 0.08698 0.05989 0.14062 0.05989 0.05362 0 0.09886-0.01989 0.13802-0.05989 0.0392-0.0384 0.05989-0.08523 0.05989-0.13802v-0.99216c0-0.0544-0.02068-0.09802-0.05989-0.13802-0.03917-0.0384-0.08437-0.05989-0.13802-0.05989zm-0.57029 0.29166c-0.05416 0-0.10149 6.63e-4 -0.14584 0.03907-0.15064 0.112-0.26851 0.25059-0.35155 0.41666-0.08304 0.16606-0.125 0.34356-0.125 0.53124 0 0.16096 0.03343 0.31436 0.09636 0.46092 0.06295 0.1472 0.14633 0.27382 0.25259 0.3802 0.10624 0.1056 0.23371 0.18972 0.3802 0.25259 0.14649 0.0624 0.30001 0.09374 0.46092 0.09374s0.31443-0.03135 0.46092-0.09374c0.14649-0.0624 0.27137-0.1462 0.37759-0.25259 0.10624-0.1056 0.19226-0.23366 0.25521-0.3802 0.06293-0.1472 0.09374-0.29997 0.09374-0.46092 0-0.18768-0.04194-0.36516-0.125-0.53124-0.08305-0.16608-0.19836-0.30435-0.34895-0.41666-0.04333-0.0336-0.09376-0.04707-0.14844-0.03907-0.05469 0-0.09822 0.03232-0.13021 0.07552-0.033 0.0432-0.04419 0.09302-0.03645 0.14584 0.0077 0.0544 0.03221 0.09921 0.07552 0.13281 0.10105 0.0768 0.17921 0.16825 0.23437 0.27863 0.0552 0.1104 0.08333 0.22938 0.08333 0.35415 0 0.1072-0.02073 0.2097-0.06249 0.30728-0.04177 0.0976-0.09808 0.1814-0.16926 0.25259-0.07118 0.0704-0.15509 0.12782-0.25259 0.16926-0.09748 0.0416-0.20001 0.06249-0.30728 0.06249-0.10728 0-0.2098-0.02091-0.30729-0.06249-0.09748-0.0416-0.18141-0.09742-0.25259-0.16926-0.07116-0.0704-0.13008-0.15484-0.17188-0.25259-0.04179-0.0976-0.06249-0.19994-0.06249-0.30728 0-0.1248 0.02815-0.24378 0.08333-0.35415 0.0552-0.1104 0.13326-0.20217 0.23437-0.27863 0.04332-0.0336 0.07037-0.07841 0.07812-0.13281 0.0077-0.0544-0.0061-0.10262-0.03907-0.14584-0.03199-0.0448-0.07604-0.06912-0.13021-0.07552z" fill="#fff"/>
  <path d="m10.666 46.665c-3.6932 0-6.6665 2.9733-6.6665 6.6665 0 0.0784 0.00776 0.15405 0.010413 0.23177 0.062236-3.446 2.8483-6.2029 6.3097-6.2029h43.359c3.4614 0 6.2474 2.757 6.3097 6.2029 0.0027-0.07772 0.0104-0.15337 0.0104-0.23177 0-3.6932-2.9733-6.6665-6.6665-6.6665h-42.666z" opacity=".15"/>
  <path d="m17.322 4c-3.6932 0-6.113 2.8737-6.666 6.3555l-5.4199 34.125c1.5212-2.6401 4.2015-4.4805 7.7637-4.4805h19 19c3.5622 0 6.2425 1.8404 7.7637 4.4805l-5.4199-34.125c-0.55304-3.4818-2.9728-6.3555-6.666-6.3555h-14.678-14.678z" fill="url(#linearGradient975)"/>
  <path d="m17.322 4c-3.6932 0-6.113 2.8737-6.666 6.3555l-6.6641 41.953c-0.086865 0.54684-0.062117 1.0759 0.037109 1.584-0.015317-0.1852-0.029297-0.37126-0.029297-0.56055 0-3.6932 2.9728-6.666 6.666-6.666h21.334v-42.666h-14.678z" fill="url(#linearGradient1036)" opacity=".1"/>
  <path d="m46.617 4c3.6932 0 6.113 2.8737 6.666 6.3555l6.6641 41.953c0.08686 0.54684 0.06212 1.0759-0.03711 1.584 0.01532-0.1852 0.0293-0.37126 0.0293-0.56055 0-3.6932-2.9728-6.666-6.666-6.666h-21.334v-42.666z" fill="url(#linearGradient1042)" opacity=".1"/>
 </g>
</svg>
