<svg width="64" height="64" version="1.1" viewBox="0 0 16.933 16.933" xmlns="http://www.w3.org/2000/svg" xmlns:osb="http://www.openswatchbook.org/uri/2009/osb" xmlns:xlink="http://www.w3.org/1999/xlink">
 <defs>
  <radialGradient id="a" cx="502.62" cy="372.05" r="74.884" gradientTransform="matrix(.19224 0 0 .047917 -79.69 275.86)" gradientUnits="userSpaceOnUse">
   <stop stop-color="#dfe5e8" offset="0"/>
   <stop stop-color="#c3cacc" offset="1"/>
  </radialGradient>
  <linearGradient id="b" x1="500.55" x2="504.38" y1="216.14" y2="349.1" gradientTransform="matrix(.20398 0 0 .20398 -85.589 219.91)" gradientUnits="userSpaceOnUse">
   <stop stop-color="#d7e1e5" offset="0"/>
   <stop stop-color="#a1a1a2" offset="1"/>
  </linearGradient>
  <linearGradient id="f" x1="63.721" x2="64.939" y1="168.65" y2="249.61" gradientTransform="matrix(.27192 0 0 .27192 -1.4468 218.36)" gradientUnits="userSpaceOnUse">
   <stop stop-color="#fff" offset="0"/>
   <stop stop-color="#e5e5e6" offset="1"/>
  </linearGradient>
  <linearGradient id="e" x1="-17.94" x2="-17.94" y1="351.1" y2="361.98" gradientTransform="matrix(.18197 0 0 .085108 19.129 264.03)" gradientUnits="userSpaceOnUse">
   <stop stop-color="#4c4c4c" offset="0"/>
   <stop stop-color="#828282" offset="1"/>
  </linearGradient>
  <linearGradient id="c" x1="-82.241" x2="-50.209" y1="32.694" y2="-.51548" gradientTransform="matrix(1.0481 0 0 1.0481 118.15 54.986)" gradientUnits="userSpaceOnUse">
   <stop stop-color="#dde1ed" offset="0"/>
   <stop stop-color="#bbbbb6" offset=".48509"/>
   <stop stop-color="#d9d7d6" offset="1"/>
  </linearGradient>
  <linearGradient id="d" x1="-53.607" x2="-12.256" y1="-8.0133" y2="24.827" gradientTransform="matrix(-1.0743 0 0 -1.0743 11.265 124.19)" gradientUnits="userSpaceOnUse">
   <stop stop-color="#fff" stop-opacity="0" offset="0"/>
   <stop stop-color="#fff" stop-opacity=".7" offset=".53114"/>
   <stop stop-color="#fff" stop-opacity="0" offset="1"/>
  </linearGradient>
  <filter id="h" x="-.022228" y="-.094622" width="1.0445" height="1.1892" color-interpolation-filters="sRGB">
   <feGaussianBlur stdDeviation="0.28293785"/>
  </filter>
  <filter id="g" x="-.03638" y="-.1453" width="1.0728" height="1.2906" color-interpolation-filters="sRGB">
   <feGaussianBlur stdDeviation="1.0061407"/>
  </filter>
 </defs>
 <g transform="translate(0 -280.07)">
  <g transform="matrix(.40926 0 0 .45464 1.9485 160.82)">
   <g transform="matrix(.98744 0 0 .98748 .21272 3.2946)" stroke-width="2.3477">
    <path d="m2.1494 289.98c-0.53375 0.0924-0.52136 0.9588-0.4635 1.8243 0.020882 1.1229 0.080718 2.426 0.18058 3.5949 0.054723 0.97142 0.65112 1.7573 1.4599 1.7573h27.214c0.80879 0 1.4052-0.78588 1.4599-1.7573 0.09986-1.1689 0.15969-2.472 0.18058-3.5949 0.05787-0.86551 0.07025-1.7318-0.4635-1.8243h-27.426z" filter="url(#h)" opacity=".5"/>
    <path d="m2.1494 289.45c-0.53375 0.0924-0.52136 0.9588-0.4635 1.8243 0.020882 1.1229 0.080718 2.426 0.18058 3.5949 0.054723 0.97142 0.65112 1.7573 1.4599 1.7573h27.214c0.80879 0 1.4052-0.78588 1.4599-1.7573 0.09986-1.1689 0.15969-2.472 0.18058-3.5949 0.05787-0.86551 0.07025-1.7318-0.4635-1.8243h-27.426z" fill="url(#a)"/>
    <path d="m5.4578 263.83c-0.30764-5.3e-4 -0.57372 0.0504-0.78992 0.1578-0.35175 0.13042-0.50074 0.37488-0.60219 0.77306l-2.4271 25.716c-0.011912 0.12627-0.00412 0.2488 0.020558 0.36576 0.00988 0.0468 0.022419 0.0927 0.037524 0.13755 0.00755 0.0225 0.015768 0.0446 0.02456 0.0665 0.026387 0.0657 0.058299 0.129 0.095077 0.18941 0.061297 0.10074 0.13614 0.19349 0.22188 0.27639 0.017155 0.0165 0.034712 0.0328 0.052706 0.0485 0.089978 0.0789 0.19029 0.1475 0.29809 0.20396 0.021557 0.0113 0.043321 0.0221 0.06546 0.0324 0.19924 0.0927 0.42108 0.14463 0.64941 0.14463h27.659c0.53269 0 1.0301-0.28298 1.2876-0.70593 0.03678-0.0604 0.06869-0.1237 0.09508-0.18941 0.0087-0.0219 0.017-0.0441 0.02456-0.0665 0.0151-0.0448 0.02766-0.0908 0.03752-0.13755 0.02468-0.11696 0.03248-0.23949 0.02056-0.36576l-2.4271-25.716c-0.10146-0.39818-0.25045-0.64264-0.60219-0.77307-0.2162-0.10737-0.48239-0.15833-0.79002-0.15779l-11.475 0.0189z" fill="#f3fdff" opacity=".5"/>
    <path d="m5.4578 263.5c-0.30764-5.4e-4 -0.57372 0.0504-0.78992 0.1578-0.35175 0.13041-0.50074 0.37487-0.60219 0.77305l-2.4271 25.716c-0.011912 0.12626-0.00412 0.24879 0.020558 0.36576 0.00988 0.0468 0.022419 0.0926 0.037524 0.13756 0.00755 0.0225 0.015768 0.0446 0.02456 0.0665 0.026387 0.0657 0.058299 0.12899 0.095077 0.18942 0.061297 0.10074 0.13614 0.19347 0.22188 0.27638 0.017155 0.0165 0.034712 0.0327 0.052706 0.0484 0.089978 0.0789 0.19029 0.14751 0.29809 0.20397 0.021557 0.0112 0.043321 0.0221 0.06546 0.0324 0.19924 0.0927 0.42108 0.14462 0.64941 0.14462h27.659c0.53269 0 1.0301-0.28297 1.2876-0.70591 0.03678-0.0604 0.06869-0.12371 0.09508-0.18943 0.0087-0.0219 0.017-0.0441 0.02456-0.0665 0.0151-0.0449 0.02766-0.0908 0.03752-0.13756 0.02468-0.11697 0.03248-0.2395 0.02056-0.36576l-2.4271-25.716c-0.10146-0.39818-0.25045-0.64264-0.60219-0.77305-0.2162-0.10738-0.48239-0.15834-0.79002-0.1578l-11.475 0.0188z" fill="url(#b)"/>
    <path d="m6.0408 264.03c-0.60074 4e-3 -1.3061 0.0918-1.4578 0.72213l-1.8353 20.042c-0.011039 0.0983-0.00386 0.19384 0.019035 0.28498 0.00916 0.0365 0.020801 0.0721 0.034808 0.10716 0.00699 0.0175 0.014657 0.0347 0.022815 0.0519 0.024472 0.0512 0.054008 0.10043 0.08812 0.14754 0.014603 0.0202 0.030147 0.04 0.046375 0.0594 0.00492 6e-3 0.010303 0.0114 0.015364 0.0172 0.011556 0.0132 0.023141 0.0263 0.035436 0.0391 0.00658 7e-3 0.013596 0.0134 0.020395 0.0201 0.011746 0.0117 0.023439 0.0232 0.035757 0.0344 0.00641 6e-3 0.013187 0.0114 0.019768 0.0172 0.01085 9e-3 0.021455 0.019 0.032703 0.0282 0.00288 2e-3 0.00593 4e-3 0.00884 7e-3 0.00384 3e-3 0.00778 6e-3 0.011693 9e-3 0.00944 7e-3 0.018707 0.0148 0.028394 0.0218 0.00492 4e-3 0.01023 7e-3 0.015254 0.0105 0.010168 7e-3 0.020475 0.0143 0.030917 0.0214 0.011639 8e-3 0.023386 0.0156 0.035335 0.0231 0.011095 7e-3 0.022378 0.0138 0.033753 0.0206 0.011992 7e-3 0.024092 0.0141 0.036387 0.0209 0.011693 6e-3 0.023495 0.0128 0.035439 0.019 0.0124 6e-3 0.024989 0.0127 0.037644 0.0188 0.012126 6e-3 0.024256 0.0118 0.036594 0.0174 0.00512 2e-3 0.010001 5e-3 0.015146 7e-3 0.014113 6e-3 0.028454 0.012 0.042802 0.0178 0.00288 1e-3 0.00571 2e-3 0.00865 3e-3 0.00313 1e-3 0.00611 3e-3 0.00924 4e-3 0.023085 9e-3 0.04652 0.0176 0.070247 0.0256h1.006e-4c0.02575 8e-3 0.05202 0.0167 0.078451 0.0242 0.00857 2e-3 0.01724 4e-3 0.025864 7e-3 0.018603 5e-3 0.037269 9e-3 0.056157 0.0139 0.0096 2e-3 0.019243 4e-3 0.028919 6e-3 0.018148 4e-3 0.036401 7e-3 0.05479 0.0105 0.00939 2e-3 0.018745 3e-3 0.028178 5e-3 0.019803 3e-3 0.039726 6e-3 0.059733 8e-3 0.00866 1e-3 0.017278 2e-3 0.025974 3e-3 0.021556 2e-3 0.04323 4e-3 0.064992 5e-3 0.00713 5.4e-4 0.01421 1e-3 0.021343 1e-3 0.029082 2e-3 0.058253 2e-3 0.0876 2e-3h25.653c0.02935 0 0.05851-1e-3 0.0876-2e-3 0.0072-5.4e-4 0.01422-1e-3 0.02134-1e-3 0.02174-1e-3 0.04343-3e-3 0.06499-5e-3 0.0086-8.1e-4 0.01732-2e-3 0.02597-3e-3 0.02-2e-3 0.03994-5e-3 0.05973-8e-3 0.0095-1e-3 0.01882-3e-3 0.02819-5e-3 0.01839-3e-3 0.03663-6e-3 0.05479-0.0105 0.0097-2e-3 0.01934-4e-3 0.02892-6e-3 0.01927-4e-3 0.03841-9e-3 0.05742-0.0142 8e-3 -2e-3 0.01611-4e-3 0.0241-6e-3 0.02665-7e-3 0.05301-0.0156 0.07897-0.0244h1.04e-4c0.02374-8e-3 0.04715-0.0165 0.07024-0.0256 0.0029-1e-3 0.0056-2e-3 0.0085-3e-3 0.0041-2e-3 8e-3 -3e-3 0.012-5e-3 0.01344-5e-3 0.02695-0.0109 0.04017-0.0167 0.0051-2e-3 0.01-5e-3 0.01504-7e-3 0.01256-5e-3 0.0249-0.0118 0.03723-0.0177 0.01221-6e-3 0.02439-0.012 0.03639-0.0182 0.01224-6e-3 0.02432-0.0129 0.03628-0.0195 0.01256-7e-3 0.02495-0.014 0.03723-0.0213 0.0109-6e-3 0.02169-0.0131 0.03239-0.0199 0.0121-7e-3 0.02398-0.0154 0.03575-0.0233 0.01044-7e-3 0.02075-0.0141 0.03091-0.0214 5e-3 -3e-3 0.01029-7e-3 0.01526-0.0105 0.0097-7e-3 0.01898-0.0146 0.02839-0.0218 0.0038-3e-3 0.0078-6e-3 0.0117-9e-3 0.0029-2e-3 0.0059-4e-3 0.0088-7e-3 0.01127-9e-3 0.02184-0.0187 0.03271-0.0282 0.0066-6e-3 0.01336-0.0113 0.01976-0.0172 0.01232-0.0112 0.02402-0.0228 0.03575-0.0344 0.0068-6e-3 0.01382-0.0133 0.02041-0.0201 0.01564-0.0162 0.03066-0.0328 0.04511-0.0498 0.0014-2e-3 0.0032-3e-3 0.0048-5e-3 8.3e-5 -1.1e-4 1.29e-4 -2.1e-4 2.06e-4 -5.5e-4 0.0165-0.0196 0.03227-0.0397 0.04712-0.0602 0.03411-0.0471 0.06376-0.0964 0.08822-0.14755 0.0082-0.017 0.01569-0.0344 0.02271-0.0519 0.01403-0.0349 0.02568-0.0707 0.03482-0.10716 0.01717-0.0683 0.02554-0.13917 0.02398-0.21179-5.36e-4 -0.0242-0.0022-0.0486-0.0049-0.0732l-1.8354-20.043c-0.17335-0.72041-1.0699-0.73126-1.7069-0.72034l-10.643 0.0146-10.643-0.0146c-0.079637-1e-3 -0.1633-2e-3 -0.24912-2e-3z" fill="url(#f)"/>
    <rect x="5.2509" y="293.78" width="23.365" height="1.0002" ry=".50009" fill="url(#e)"/>
   </g>
   <g stroke-width="9.2161">
    <path transform="matrix(.26458 0 0 .26458 0 263.37)" d="m32.182 114.43c7.5581 10.09 19.61 16.619 33.188 16.619 13.577 0 25.629-6.5288 33.188-16.619z" filter="url(#g)" opacity=".35"/>
    <path transform="matrix(.26458 0 0 .26458 0 263.13)" d="m33.764 114.43c7.4173 9.2645 18.815 15.205 31.605 15.205 12.791 0 24.188-5.9408 31.605-15.205z" fill="#e6e6e6"/>
    <path transform="matrix(.26458 0 0 .26458 0 263.13)" d="m35.037 114.43c7.2417 8.683 18.139 14.211 30.332 14.211 12.193 0 23.09-5.5279 30.332-14.211z" fill="url(#c)"/>
    <path transform="matrix(.26458 0 0 .26458 0 263.13)" d="m33.752 114.43c7.5057 9.3882 19.019 15.205 31.617 15.205v-15.205z" fill="url(#d)" opacity=".7"/>
   </g>
  </g>
 </g>
</svg>
