<svg id="Iterm" width="64" height="64" enable-background="new 0 0 1024 1024" image-rendering="optimizeSpeed" version="1.1" viewBox="0 0 64 64" xmlns="http://www.w3.org/2000/svg">
 <defs>
  <linearGradient id="a" x1="18.601" x2="18.601" y1=".85446" y2="49.956" gradientTransform="matrix(1.1117 0 0 .96015 24.948 10.068)" gradientUnits="userSpaceOnUse">
   <stop stop-color="#fafafa" offset="0"/>
   <stop stop-color="#d4d4d4" offset="1"/>
  </linearGradient>
  <filter id="c" x="-.083607" y="-.046789" width="1.1672" height="1.0936" color-interpolation-filters="sRGB">
   <feGaussianBlur stdDeviation="0.89678916"/>
  </filter>
  <linearGradient id="linearGradient862-3" x1="7.9373" x2="7.9373" y1="15.081" y2="1.852" gradientTransform="scale(3.7796)" gradientUnits="userSpaceOnUse">
   <stop stop-color="#676767" offset="0"/>
   <stop stop-color="#c6c6c6" offset="1"/>
  </linearGradient>
 </defs>
 <mask>
  <g id="g">
   <path d="m969.75 392.05c-1.1-4.35-2.35-9-3.65-13.6-1-3.4-2-6.85-3.15-10.5-1.6-5.15-3.4-10.5-5.3-15.85-6.45-18.25-14.15-36.05-23.15-53.65-3.8-7.4-7.95-14.95-12.3-22.4-20.3-34.5-45.8-67.2-76.35-97.75-72.6-72.6-157.15-116.65-253.65-132.05-16.25-2.6-32.8-4.4-50.05-5.35-9.7-0.55-19.85-0.85-30.1-0.85-9.35 0-18.6 0.25-27.9 0.75-118.35 6.1-220.3 51.95-305.85 137.5q-138.25 138.25-138.25 333.75c0 130.35 46.1 241.65 138.25 333.8 56.7 56.65 120.55 95.9 191.1 117.55 36.75 11.25 74.8 17.85 114.75 19.95h0.4c8.5 0.45 16.6 0.7 24.5 0.7h3c10.3 0 20.5-0.3 30.1-0.8 2.5-0.15 4.75-0.3 6.95-0.45 20.2-1.45 39.9-4.05 58.7-7.7 7.95-1.55 15.8-3.3 23.4-5.15 80.8-20.3 152.15-61.6 214.65-124.1 48.6-48.6 84.4-102.5 107.35-161.8 18.45-47.65 28.65-98.8 30.55-153.5 0.2-6.05 0.3-12.25 0.3-18.5v-3c-0.2-40.65-4.95-79.5-14.3-117z" fill="#fff"/>
  </g>
 </mask>
 <g transform="scale(3.7796)" shape-rendering="auto">
  <path d="m4.3693 0.52916c-2.1142 0-3.8402 1.7835-3.8402 3.9682v8.4675c0 2.1846 1.726 3.9682 3.8402 3.9682h8.1944c2.1142 0 3.8402-1.7835 3.8402-3.9682v-8.4675c0-2.1846-1.726-3.9682-3.8402-3.9682zm0.25704 0.52089h7.6808c1.8443 0 3.3291 1.5342 3.3291 3.44v7.9368c0 1.9058-1.4847 3.44-3.3291 3.44h-7.6808c-1.8443 0-3.3291-1.5342-3.3291-3.44v-7.9368c0-1.9058 1.4847-3.44 3.3291-3.44z" color="#000000" color-rendering="auto" dominant-baseline="auto" enable-background="accumulate" image-rendering="auto" opacity=".01" solid-color="#000000" stop-color="#000000" style="font-feature-settings:normal;font-variant-alternates:normal;font-variant-caps:normal;font-variant-east-asian:normal;font-variant-ligatures:normal;font-variant-numeric:normal;font-variant-position:normal;font-variation-settings:normal;inline-size:0;isolation:auto;mix-blend-mode:normal;shape-margin:0;shape-padding:0;text-decoration-color:#000000;text-decoration-line:none;text-decoration-style:solid;text-indent:0;text-orientation:mixed;text-transform:none;white-space:normal"/>
  <path d="m4.3587 0.79373c-1.9668 0-3.5639 1.6528-3.5639 3.6876v8.4996c0 2.0348 1.5971 3.6876 3.5639 3.6876h8.2162c1.9668 0 3.5644-1.6528 3.5644-3.6876v-8.4996c0-2.0348-1.5976-3.6876-3.5644-3.6876zm0.27222 0.25631h7.6718c1.8422 0 3.3251 1.5342 3.3251 3.44v7.9368c0 1.9058-1.483 3.44-3.3251 3.44h-7.6718c-1.8422 0-3.3251-1.5342-3.3251-3.44v-7.9368c0-1.9058 1.483-3.44 3.3251-3.44z" color="#000000" color-rendering="auto" dominant-baseline="auto" enable-background="accumulate" image-rendering="auto" opacity=".01" solid-color="#000000" stop-color="#000000" style="font-feature-settings:normal;font-variant-alternates:normal;font-variant-caps:normal;font-variant-east-asian:normal;font-variant-ligatures:normal;font-variant-numeric:normal;font-variant-position:normal;font-variation-settings:normal;inline-size:0;isolation:auto;mix-blend-mode:normal;shape-margin:0;shape-padding:0;text-decoration-color:#000000;text-decoration-line:none;text-decoration-style:solid;text-indent:0;text-orientation:mixed;text-transform:none;white-space:normal"/>
  <g>
   <path d="m4.3097 1.0583c-1.8657 0-3.3751 1.5383-3.3751 3.439v8.4675c0 1.9007 1.57 3.439 3.4357 3.439h8.1996c1.8657 0 3.4274-1.5383 3.4274-3.439v-8.4675c0-1.9007-1.51-3.439-3.3756-3.439h-0.09688c1.794 0.086515 3.2138 1.5819 3.2138 3.4318v7.9368c0 1.9058-1.5059 3.44-3.3766 3.44h-7.7905c-1.8707 0-3.3766-1.5342-3.3766-3.44v-7.9368c0-1.8498 1.4199-3.3451 3.2138-3.4318z" color="#000000" color-rendering="auto" dominant-baseline="auto" enable-background="accumulate" image-rendering="auto" opacity=".03" solid-color="#000000" stop-color="#000000" style="font-feature-settings:normal;font-variant-alternates:normal;font-variant-caps:normal;font-variant-east-asian:normal;font-variant-ligatures:normal;font-variant-numeric:normal;font-variant-position:normal;font-variation-settings:normal;inline-size:0;isolation:auto;mix-blend-mode:normal;shape-margin:0;shape-padding:0;text-decoration-color:#000000;text-decoration-line:none;text-decoration-style:solid;text-indent:0;text-orientation:mixed;text-transform:none;white-space:normal"/>
   <path transform="scale(.26458)" d="m4 46.969v2.0312c0 6.6479 5.8957 12 12.544 12h30.961c6.6479 0 12.495-5.3521 12.495-12v-1.9922c-0.021173 7.1849-5.81 12.963-13 12.963h-29.998c-7.2032 0-13.002-5.7987-13.002-13.002z" color="#000000" color-rendering="auto" dominant-baseline="auto" enable-background="accumulate" image-rendering="auto" opacity=".03" solid-color="#000000" stop-color="#000000" style="font-feature-settings:normal;font-variant-alternates:normal;font-variant-caps:normal;font-variant-east-asian:normal;font-variant-ligatures:normal;font-variant-numeric:normal;font-variant-position:normal;font-variation-settings:normal;inline-size:0;isolation:auto;mix-blend-mode:normal;shape-margin:0;shape-padding:0;text-decoration-color:#000000;text-decoration-line:none;text-decoration-style:solid;text-indent:0;text-orientation:mixed;text-transform:none;white-space:normal"/>
   <path d="m1.0583 11.906v0.59234c0 1.9386 1.5729 3.4993 3.3318 3.4993h8.1603c1.7589 0 3.3243-1.5608 3.3243-3.4993v-0.58095c-0.0056 2.0952-1.5372 3.7801-3.4395 3.7801h-7.9368c-1.9058 0-3.44-1.691-3.44-3.7915z" color="#000000" color-rendering="auto" dominant-baseline="auto" enable-background="accumulate" image-rendering="auto" opacity=".05" solid-color="#000000" stop-color="#000000" style="font-feature-settings:normal;font-variant-alternates:normal;font-variant-caps:normal;font-variant-east-asian:normal;font-variant-ligatures:normal;font-variant-numeric:normal;font-variant-position:normal;font-variation-settings:normal;inline-size:0;isolation:auto;mix-blend-mode:normal;shape-margin:0;shape-padding:0;text-decoration-color:#000000;text-decoration-line:none;text-decoration-style:solid;text-indent:0;text-orientation:mixed;text-transform:none;white-space:normal"/>
  </g>
 </g>
 <rect x="4" y="3.9686" width="56.002" height="56.002" rx="13.002" ry="13.002" fill="url(#linearGradient862-3)" stroke-width="3.7796"/>
 <g transform="translate(0 -2.4477)">
  <path d="m31.053 11.95c-2.9256 0.03249-6.0709 0.29912-8.2143 2.3085-3.2829 3.0776-2.8684 5.2064-3.1908 9.4186-0.65823 8.5986-0.40341 20.383 1.3449 28.849 0.51282 2.4834 2.8552 4.231 5.34 4.7093 1.9071 0.36711 3.8793 0.6452 5.8542 0.71233 1.9749-0.06713 3.9471-0.34522 5.8542-0.71233 2.4848-0.47832 4.8271-2.2259 5.34-4.7093 1.7483-8.4664 2.0031-20.251 1.3449-28.849-0.32245-4.2122 0.09208-6.341-3.1908-9.4186-2.1434-2.0094-5.2888-2.276-8.2143-2.3085-0.38236-0.0042-0.76171-4.91e-4 -1.1339 0-0.37221-4.91e-4 -0.75155-0.0042-1.1339 0z" color="#000000" enable-background="accumulate" filter="url(#c)" opacity=".35"/>
  <path d="m31.053 11.45c-2.9256 0.03249-6.0709 0.29912-8.2143 2.3085-3.2829 3.0776-2.8684 5.2064-3.1908 9.4186-0.65823 8.5986-0.40341 20.383 1.3449 28.849 0.51282 2.4834 2.8552 4.231 5.34 4.7093 1.9071 0.36711 3.8793 0.6452 5.8542 0.71233 1.9749-0.06713 3.9471-0.34522 5.8542-0.71233 2.4848-0.47832 4.8271-2.2259 5.34-4.7093 1.7483-8.4664 2.0031-20.251 1.3449-28.849-0.32245-4.2122 0.09208-6.341-3.1908-9.4186-2.1434-2.0094-5.2888-2.276-8.2143-2.3085-0.38236-0.0042-0.76171-4.91e-4 -1.1339 0-0.37221-4.91e-4 -0.75155-0.0042-1.1339 0z" color="#000000" enable-background="accumulate" fill="url(#a)"/>
  <path d="m32.187 17.448c0.554 0 1 0.54953 1 1.2321v3.5357c0 0.68261-0.446 1.2321-1 1.2321s-1-0.54954-1-1.2321v-3.5357c0-0.68261 0.446-1.2321 1-1.2321z" fill="#4d4d4d" fill-opacity=".58824"/>
  <path d="m32.187 18.448c0.554 0 1 0.54953 1 1.2321v3.5357c0 0.68261-0.446 1.2321-1 1.2321s-1-0.54954-1-1.2321v-3.5357c0-0.68261 0.446-1.2321 1-1.2321z" fill="#4d4d4d" fill-opacity=".58824"/>
 </g>
 <path d="m31.35 48.268c-0.02134-0.0046-0.03221-0.0085-0.02415-0.0098 0.0082-3.35e-4 -0.0027-7e-3 -0.02337-0.01107-0.08069-0.01888-0.20369-0.09455-0.30503-0.18747-0.0992-0.09103-0.30031-0.35293-0.41289-0.53761-0.19338-0.31751-0.34252-0.72024-0.40558-1.0952-0.04225-0.25122-0.04481-0.55326-0.0065-0.76948 0.11595-0.65446 0.60412-1.1119 1.1877-1.1128 0.1198-2.29e-4 0.20577 0.0172 0.37314 0.07604 0.38132 0.13383 0.3809 0.13369 0.44545 0.13357 0.05003-2.02e-4 0.08975-0.0095 0.19371-0.04614 0.47408-0.1667 0.50764-0.175 0.70238-0.1739 0.26354 6.44e-4 0.51555 0.08145 0.708 0.22466 0.07383 0.05495 0.17183 0.15176 0.21509 0.21253l0.02077 0.02917-0.08398 0.06365c-0.32009 0.23901-0.46736 0.56653-0.43722 0.97218 0.0099 0.13309 0.03247 0.23132 0.0799 0.34772 0.08704 0.21358 0.29533 0.44055 0.50264 0.54776 0.03585 0.01868 0.06538 0.03899 0.06538 0.04512 1.68e-4 0.0314-0.0807 0.22932-0.15145 0.37129-0.10906 0.21876-0.25451 0.43632-0.41952 0.62808-0.11889 0.1381-0.27382 0.23892-0.40819 0.26659-0.0342 0.0067-0.05568 0.01519-0.0478 0.01822 0.0076 0.0027-0.01876 0.0051-0.05825 0.0066-0.04267 1.66e-4 -0.06736-0.0031-0.05985-0.0075 0.0083-0.0057-0.0067-0.0104-0.04162-0.01466-0.05933-0.0068-0.16648-0.04049-0.32481-0.10133-0.15799-0.06083-0.27929-0.08238-0.42625-0.07586-0.12936 0.0058-0.21096 0.02301-0.34875 0.074-0.17287 0.06391-0.2719 0.09683-0.3095 0.10281-0.02119 0.0049-0.03694 0.0096-0.03417 0.01423 0.0027 0.0046-0.0049 9e-3 -0.01777 0.0089-0.01302-9.5e-5 -0.04251 0.0021-0.06595 0.0046-0.02336 0.0021-0.05993 6.02e-4 -0.08132-0.0047zm0.81581-3.8238c-0.01247-0.01234-0.0064-0.18827 0.0086-0.26124 0.05479-0.26515 0.24242-0.52936 0.48303-0.68018 0.10154-0.06366 0.23693-0.12287 0.332-0.1454 0.03936-0.0092 0.06848-0.01984 0.0647-0.02374-0.0032-0.0042 0.0067-0.0067 0.02313-0.0067 0.01615-3.83e-4 0.03577-0.0024 0.04312-0.0051 0.0288-0.01174 2.08e-4 0.26657-0.04151 0.39742-0.10011 0.31363-0.36046 0.59839-0.6286 0.68758-0.09717 0.03242-0.26721 0.0547-0.28465 0.03716z" fill="#999" stroke-width=".022545"/>
</svg>
