<svg width="64" height="64" version="1.1" viewBox="0 0 16.934 16.934" xmlns="http://www.w3.org/2000/svg" xmlns:xlink="http://www.w3.org/1999/xlink">
 <defs>
  <linearGradient id="linearGradient862-3" x1="7.9373" x2="7.9373" y1="15.081" y2="1.852" gradientTransform="scale(1.0001)" gradientUnits="userSpaceOnUse">
   <stop stop-color="#676767" offset="0"/>
   <stop stop-color="#c6c6c6" offset="1"/>
  </linearGradient>
  <filter id="filter970" x="-.10124" y="-.11573" width="1.2025" height="1.2315" color-interpolation-filters="sRGB">
   <feGaussianBlur stdDeviation="0.53580235"/>
  </filter>
 </defs>
 <linearGradient id="a">
  <stop stop-color="#31363b" offset="0"/>
  <stop stop-color="#31363b" stop-opacity="0" offset="1"/>
 </linearGradient>
 <linearGradient id="d" x1="16.001" x2="16.001" y1="27.001" y2="6" gradientTransform="matrix(1.9999 0 0 -1.9999 0 60.999)" gradientUnits="userSpaceOnUse">
  <stop stop-color="#232629" offset="0"/>
  <stop stop-color="#292c2f" offset="1"/>
 </linearGradient>
 <linearGradient id="e" x1="4.234" x2="4.234" y1="290.65" y2="291.18" gradientTransform="matrix(2 0 0 -3.9999 -1.588 1175.5)" gradientUnits="userSpaceOnUse">
  <stop stop-color="#fdbc4b" stop-opacity=".8" offset="0"/>
  <stop stop-color="#fdbc4b" stop-opacity="0" offset="1"/>
 </linearGradient>
 <linearGradient id="f" x1="4.233" x2="4.233" y1="295.15" y2="294.62" gradientTransform="matrix(2.5 0 0 -2 -2.116 592.15)" gradientUnits="userSpaceOnUse" xlink:href="#a"/>
 <linearGradient id="g" x1="4.587" x2="4.587" y1="295.15" y2="294.62" gradientTransform="matrix(.75 0 0 -2 1.852 593.74)" gradientUnits="userSpaceOnUse" xlink:href="#a"/>
 <linearGradient id="h" x1="3.88" x2="3.88" y1="295.15" y2="294.62" gradientTransform="matrix(.75 0 0 -2 8.732 593.74)" gradientUnits="userSpaceOnUse" xlink:href="#a"/>
 <linearGradient id="i" x1="7.41" x2="7.41" y1="295.41" y2="294.62" gradientTransform="matrix(.94484 0 0 15.118 50.999 -4426.8)" gradientUnits="userSpaceOnUse" xlink:href="#a"/>
 <linearGradient id="j" x1="1.062" x2="1.062" y1="295.41" y2="294.62" gradientTransform="matrix(.94484 0 0 15.118 4.9963 -4426.8)" gradientUnits="userSpaceOnUse" xlink:href="#a"/>
 <linearGradient id="k" x1="4.587" x2="4.587" y1="295.25" y2="294.62" gradientTransform="matrix(.75 0 0 -3.3333 .264 989.21)" gradientUnits="userSpaceOnUse" xlink:href="#a"/>
 <linearGradient id="l" x1="3.88" x2="3.88" y1="295.25" y2="294.62" gradientTransform="matrix(.75 0 0 -3.3333 10.32 989.21)" gradientUnits="userSpaceOnUse" xlink:href="#a"/>
 <g transform="scale(1.0001)" shape-rendering="auto">
  <path d="m4.3693 0.52916c-2.1142 0-3.8402 1.7835-3.8402 3.9682v8.4675c0 2.1846 1.726 3.9682 3.8402 3.9682h8.1944c2.1142 0 3.8402-1.7835 3.8402-3.9682v-8.4675c0-2.1846-1.726-3.9682-3.8402-3.9682zm0.25704 0.52089h7.6808c1.8443 0 3.3291 1.5342 3.3291 3.44v7.9368c0 1.9058-1.4847 3.44-3.3291 3.44h-7.6808c-1.8443 0-3.3291-1.5342-3.3291-3.44v-7.9368c0-1.9058 1.4847-3.44 3.3291-3.44z" color="#000000" color-rendering="auto" dominant-baseline="auto" image-rendering="auto" opacity=".01" solid-color="#000000" stop-color="#000000" style="font-feature-settings:normal;font-variant-alternates:normal;font-variant-caps:normal;font-variant-east-asian:normal;font-variant-ligatures:normal;font-variant-numeric:normal;font-variant-position:normal;font-variation-settings:normal;inline-size:0;isolation:auto;mix-blend-mode:normal;shape-margin:0;shape-padding:0;text-decoration-color:#000000;text-decoration-line:none;text-decoration-style:solid;text-indent:0;text-orientation:mixed;text-transform:none;white-space:normal"/>
  <path d="m4.3587 0.79373c-1.9668 0-3.5639 1.6528-3.5639 3.6876v8.4996c0 2.0348 1.5971 3.6876 3.5639 3.6876h8.2162c1.9668 0 3.5644-1.6528 3.5644-3.6876v-8.4996c0-2.0348-1.5976-3.6876-3.5644-3.6876zm0.27222 0.25631h7.6718c1.8422 0 3.3251 1.5342 3.3251 3.44v7.9368c0 1.9058-1.483 3.44-3.3251 3.44h-7.6718c-1.8422 0-3.3251-1.5342-3.3251-3.44v-7.9368c0-1.9058 1.483-3.44 3.3251-3.44z" color="#000000" color-rendering="auto" dominant-baseline="auto" image-rendering="auto" opacity=".01" solid-color="#000000" stop-color="#000000" style="font-feature-settings:normal;font-variant-alternates:normal;font-variant-caps:normal;font-variant-east-asian:normal;font-variant-ligatures:normal;font-variant-numeric:normal;font-variant-position:normal;font-variation-settings:normal;inline-size:0;isolation:auto;mix-blend-mode:normal;shape-margin:0;shape-padding:0;text-decoration-color:#000000;text-decoration-line:none;text-decoration-style:solid;text-indent:0;text-orientation:mixed;text-transform:none;white-space:normal"/>
  <path d="m4.3097 1.0583c-1.8657 0-3.3751 1.5383-3.3751 3.439v8.4675c0 1.9007 1.57 3.439 3.4357 3.439h8.1996c1.8657 0 3.4274-1.5383 3.4274-3.439v-8.4675c0-1.9007-1.51-3.439-3.3756-3.439h-0.09688c1.794 0.086515 3.2138 1.5819 3.2138 3.4318v7.9368c0 1.9058-1.5059 3.44-3.3766 3.44h-7.7905c-1.8707 0-3.3766-1.5342-3.3766-3.44v-7.9368c0-1.8498 1.4199-3.3451 3.2138-3.4318z" color="#000000" color-rendering="auto" dominant-baseline="auto" image-rendering="auto" opacity=".03" solid-color="#000000" stop-color="#000000" style="font-feature-settings:normal;font-variant-alternates:normal;font-variant-caps:normal;font-variant-east-asian:normal;font-variant-ligatures:normal;font-variant-numeric:normal;font-variant-position:normal;font-variation-settings:normal;inline-size:0;isolation:auto;mix-blend-mode:normal;shape-margin:0;shape-padding:0;text-decoration-color:#000000;text-decoration-line:none;text-decoration-style:solid;text-indent:0;text-orientation:mixed;text-transform:none;white-space:normal"/>
  <path transform="scale(.26458)" d="m4 46.969v2.0312c0 6.6479 5.8957 12 12.544 12h30.961c6.6479 0 12.495-5.3521 12.495-12v-1.9922c-0.02117 7.1849-5.81 12.963-13 12.963h-29.998c-7.2032 0-13.002-5.7987-13.002-13.002z" color="#000000" color-rendering="auto" dominant-baseline="auto" image-rendering="auto" opacity=".03" solid-color="#000000" stop-color="#000000" style="font-feature-settings:normal;font-variant-alternates:normal;font-variant-caps:normal;font-variant-east-asian:normal;font-variant-ligatures:normal;font-variant-numeric:normal;font-variant-position:normal;font-variation-settings:normal;inline-size:0;isolation:auto;mix-blend-mode:normal;shape-margin:0;shape-padding:0;text-decoration-color:#000000;text-decoration-line:none;text-decoration-style:solid;text-indent:0;text-orientation:mixed;text-transform:none;white-space:normal"/>
  <path d="m1.0583 11.906v0.59234c0 1.9386 1.5729 3.4993 3.3318 3.4993h8.1603c1.7589 0 3.3243-1.5608 3.3243-3.4993v-0.58095c-0.0056 2.0952-1.5372 3.7801-3.4395 3.7801h-7.9368c-1.9058 0-3.44-1.691-3.44-3.7915z" color="#000000" color-rendering="auto" dominant-baseline="auto" image-rendering="auto" opacity=".05" solid-color="#000000" stop-color="#000000" style="font-feature-settings:normal;font-variant-alternates:normal;font-variant-caps:normal;font-variant-east-asian:normal;font-variant-ligatures:normal;font-variant-numeric:normal;font-variant-position:normal;font-variation-settings:normal;inline-size:0;isolation:auto;mix-blend-mode:normal;shape-margin:0;shape-padding:0;text-decoration-color:#000000;text-decoration-line:none;text-decoration-style:solid;text-indent:0;text-orientation:mixed;text-transform:none;white-space:normal"/>
 </g>
 <rect x="1.0584" y="1.0501" width="14.818" height="14.818" rx="3.4402" ry="3.4402" fill="url(#linearGradient862-3)" stroke-width="1.0001"/>
 <path d="m5.8211 1.9787v1.5881h-1.5881v1.586h-1.587v2.1168h-0.5297v0.52919h0.5297v0.00103h0.52919v2.1168h-1.0584v-5.132e-4h-5.168e-4v0.52867h0.5297v2.6459h11.642v-2.6459h0.5297v-3.1741h-0.5297v-2.1178h-1.5881v-1.586h-1.587v-1.5881zm7.9388 5.8211h1.0573v2.1168h-1.0584z" filter="url(#filter970)" opacity=".35" stroke-width=".26459"/>
 <path transform="scale(.26459)" d="m22 7v6.002h-6.002v5.9941h-5.998v8h-2.002v2h2.002v0.003906h2v8h-4v-0.001953h-0.0019531v1.998h2.002v10h44v-10h2.002v-11.996h-2.002v-8.0039h-6.002v-5.9941h-5.998v-6.002h-20zm30.004 22h3.9961v8h-4l0.003906-8z" fill="url(#d)"/>
 <g stroke-width="2">
  <path d="m4.233 12.965h.53v-2.117h-.53zm1.588 0h.53v-2.117h-.53zm6.35 0h.53v-2.117h-.53zm-1.587 0h.529v-2.117h-.53zm-1.588 0h.53v-2.117h-.53zm-1.587 0h.529v-2.117h-.53z" fill="url(#e)"/>
  <path d="m5.821 2.9102h5.292v-1.058h-5.293z" fill="url(#f)"/>
  <path d="m4.233 4.4982h1.588v-1.058h-1.588z" fill="url(#g)"/>
  <path d="m11.113 4.4982h1.587v-1.058h-1.587z" fill="url(#h)"/>
 </g>
 <path transform="scale(.26459)" d="m56.002 26.996-2.002 0.003906v2h2 0.001953v-2.0039zm-0.001953 10.002v0.001953h-2v2h2.002v-2.002h-0.001953z" fill="url(#i)"/>
 <path transform="scale(.26459)" d="m10 26.996-2 0.003906v2h2v-2.0039zm-2 10.004v2h2v-2h-2z" fill="url(#j)"/>
 <path d="m2.646 7.1442h1.587v-2.118h-1.587z" fill="url(#k)" stroke-width="2"/>
 <path d="m12.7 7.1442h1.588v-2.118h-1.588z" fill="url(#l)" stroke-width="2"/>
</svg>
