<svg width="64" height="64" version="1.1" viewBox="0 0 16.933 16.933" xmlns="http://www.w3.org/2000/svg" xmlns:osb="http://www.openswatchbook.org/uri/2009/osb" xmlns:xlink="http://www.w3.org/1999/xlink">
 <defs>
  <linearGradient id="a">
   <stop stop-color="#929292" offset="0"/>
   <stop stop-color="#cecece" offset="1"/>
  </linearGradient>
  <linearGradient id="b">
   <stop stop-color="#1a1a1a" offset="0"/>
   <stop stop-color="#4d4d4d" offset="1"/>
  </linearGradient>
  <radialGradient id="c" cx="502.62" cy="372.05" r="74.884" gradientTransform="matrix(.20977 0 0 .033087 -88.503 282.3)" gradientUnits="userSpaceOnUse">
   <stop stop-color="#dfe5e8" offset="0"/>
   <stop stop-color="#c3cacc" offset="1"/>
  </radialGradient>
  <linearGradient id="f" x1="496.55" x2="504.38" y1="216.14" y2="349.1" gradientTransform="matrix(.22258 0 0 .10724 -94.94 254.99)" gradientUnits="userSpaceOnUse">
   <stop stop-color="#d5e3e8" offset="0"/>
   <stop stop-color="#a0a0a1" offset="1"/>
  </linearGradient>
  <linearGradient id="i" x1="-131.75" x2="-131.53" y1="253.74" y2="261.35" gradientTransform="matrix(.29217 0 0 .29217 54.155 219.57)" gradientUnits="userSpaceOnUse" xlink:href="#b"/>
  <linearGradient id="h" x1="-129.65" x2="-129.71" y1="210.32" y2="212.59" gradientTransform="matrix(.29217 0 0 .17799 54.416 241.39)" gradientUnits="userSpaceOnUse" xlink:href="#b"/>
  <linearGradient id="g" x1="-134.19" x2="-134.4" y1="203.68" y2="243.69" gradientTransform="matrix(.29217 0 0 .29217 54.155 219.57)" gradientUnits="userSpaceOnUse">
   <stop stop-color="#5cc3f5" offset="0"/>
   <stop stop-color="#2058c1" offset="1"/>
  </linearGradient>
  <filter id="k" x="-.028145" y="-.18933" width="1.0563" height="1.3787" color-interpolation-filters="sRGB">
   <feGaussianBlur stdDeviation="0.39092361"/>
  </filter>
  <filter id="j" x="-.028097" y="-.063478" width="1.0562" height="1.127" color-interpolation-filters="sRGB">
   <feGaussianBlur stdDeviation="0.39092361"/>
  </filter>
  <linearGradient id="e" x1="25.956" x2="28.025" y1="270.94" y2="270.94" gradientUnits="userSpaceOnUse" xlink:href="#a"/>
  <linearGradient id="d" x1="5.533" x2="7.8667" y1="271.1" y2="271.07" gradientUnits="userSpaceOnUse" xlink:href="#a"/>
 </defs>
 <g transform="translate(0 -280.07)">
  <g transform="matrix(.48529 0 0 .48511 .24912 152.7)" stroke-width="2.061">
   <path d="m0.80096 291.69c-0.58243 0.0638-0.56892 0.66206-0.50578 1.2597 0.022789 0.77539 0.088081 1.6752 0.19705 2.4823 0.059714 0.67076 0.71051 1.2134 1.5931 1.2134h29.696c0.88256 0 1.5334-0.54266 1.5931-1.2134 0.10897-0.80714 0.17425-1.7069 0.19704-2.4823 0.06314-0.59763 0.07665-1.1958-0.50578-1.2597h-29.928z" filter="url(#k)" opacity=".35"/>
   <path d="m4.4112 277.91c-0.3357-2.7e-4 -0.62605 0.0266-0.86197 0.0829-0.38383 0.0685-0.54641 0.1971-0.65712 0.40644l-2.6485 13.521c-0.013001 0.0663-0.004503 0.13081 0.022439 0.19231 0.010781 0.0246 0.024454 0.0487 0.040945 0.0723 0.008239 0.0119 0.017209 0.0235 0.026792 0.0349 0.028779 0.0345 0.063617 0.0678 0.10375 0.0996 0.066886 0.0529 0.14856 0.10171 0.24212 0.14531 0.018728 8e-3 0.037877 0.0172 0.057511 0.0255 0.098187 0.0415 0.20765 0.0776 0.32528 0.10724 0.02352 6e-3 0.047274 0.0116 0.071433 0.0171 0.21741 0.0487 0.45949 0.076 0.70865 0.076h30.182c0.58128 0 1.1241-0.14878 1.405-0.37114 0.04014-0.0318 0.07495-0.0651 0.10375-0.0996 0.0096-0.0115 0.01855-0.0232 0.02679-0.0349 0.01647-0.0236 0.03019-0.0478 0.04094-0.0723 0.02693-0.0615 0.03544-0.12592 0.02245-0.1923l-2.6485-13.521c-0.11071-0.20935-0.27329-0.33787-0.65712-0.40644-0.23592-0.0565-0.52639-0.0832-0.86209-0.0829l-12.522 9e-3z" filter="url(#j)" opacity=".35"/>
   <path d="m0.80096 291.69c-0.58243 0.0638-0.56892 0.66206-0.50578 1.2597 0.022789 0.77539 0.088081 1.6752 0.19705 2.4823 0.059714 0.67076 0.71051 1.2134 1.5931 1.2134h29.696c0.88256 0 1.5334-0.54266 1.5931-1.2134 0.10897-0.80714 0.17425-1.7069 0.19704-2.4823 0.06314-0.59763 0.07665-1.1958-0.50578-1.2597h-29.928z" fill="url(#c)"/>
   <path d="m4.4112 277.91c-0.3357-2.7e-4 -0.62605 0.0272-0.86197 0.0849-0.38383 0.0702-0.54641 0.20182-0.65712 0.41616l-2.6485 13.844c-0.013001 0.068-0.004503 0.13393 0.022439 0.19689 0.010781 0.0252 0.024454 0.0499 0.040945 0.0741 0.008239 0.0121 0.017209 0.024 0.026792 0.0358 0.028779 0.0354 0.063617 0.0695 0.10375 0.10192 0.066886 0.0542 0.14856 0.10412 0.24212 0.14878 0.018728 8e-3 0.037877 0.0176 0.057511 0.0261 0.098187 0.0425 0.20765 0.0795 0.32528 0.1098 0.02352 6e-3 0.047274 0.012 0.071433 0.0175 0.21741 0.05 0.45949 0.0779 0.70865 0.0779h30.182c0.58128 0 1.1241-0.15233 1.405-0.38002 0.04014-0.0325 0.07495-0.0665 0.10375-0.10191 0.0096-0.0118 0.01855-0.0237 0.02679-0.0358 0.01647-0.0241 0.03019-0.0489 0.04094-0.0741 0.02693-0.063 0.03544-0.12893 0.02245-0.1969l-2.6485-13.844c-0.11071-0.21435-0.27329-0.34595-0.65712-0.41615-0.23592-0.0578-0.52639-0.0852-0.86209-0.0849l-12.522 0.0105z" fill="#f3fdff" opacity=".35"/>
   <path d="m26.953 263.4c-0.2201 0.0232-0.39244 0.57444-0.40702 0.9213-0.20821 4.954-0.38644 13.862-0.38644 13.862h1.7615s-0.17824-8.9077-0.38644-13.862c-0.01647-0.39156-0.23405-1.0424-0.49433-0.90107-0.0297-0.0162-0.05898-0.0232-0.08732-0.0202z" fill="url(#e)"/>
   <path d="m6.63 263.4c-0.2201 0.0232-0.39243 0.57444-0.40701 0.9213-0.20821 4.954-0.38644 13.862-0.38644 13.862h1.7615s-0.17824-8.9077-0.38644-13.862c-0.016478-0.39156-0.23405-1.0424-0.49433-0.90107-0.029699-0.0162-0.058971-0.0232-0.087321-0.0202z" fill="url(#d)"/>
   <path d="m4.4112 277.91c-0.3357-2.7e-4 -0.62605 0.0266-0.86197 0.0829-0.38383 0.0685-0.54641 0.1971-0.65712 0.40644l-2.6485 13.521c-0.013001 0.0663-0.004503 0.13081 0.022439 0.19231 0.010781 0.0246 0.024454 0.0487 0.040945 0.0723 0.008239 0.0119 0.017209 0.0235 0.026792 0.0349 0.028779 0.0345 0.063617 0.0678 0.10375 0.0996 0.066886 0.0529 0.14856 0.10171 0.24212 0.14531 0.018728 8e-3 0.037877 0.0172 0.057511 0.0255 0.098187 0.0415 0.20765 0.0776 0.32528 0.10724 0.02352 6e-3 0.047274 0.0116 0.071433 0.0171 0.21741 0.0487 0.45949 0.076 0.70865 0.076h30.182c0.58128 0 1.1241-0.14878 1.405-0.37114 0.04014-0.0318 0.07495-0.0651 0.10375-0.0996 0.0096-0.0115 0.01855-0.0232 0.02679-0.0349 0.01647-0.0236 0.03019-0.0478 0.04094-0.0723 0.02693-0.0615 0.03544-0.12592 0.02245-0.1923l-2.6485-13.521c-0.11071-0.20935-0.27329-0.33787-0.65712-0.40644-0.23592-0.0565-0.52639-0.0832-0.86209-0.0829l-12.522 9e-3z" fill="url(#f)"/>
   <rect x="4.7886" y="293.58" width="24.29" height="2.4162" ry=".7412" fill="url(#i)"/>
   <g fill="#0f0">
    <circle cx="6.7155" cy="294.78" r=".73043"/>
    <circle cx="8.7503" cy="294.78" r=".73043"/>
    <circle cx="10.781" cy="294.78" r=".73043"/>
    <circle cx="25.06" cy="294.78" r=".73043"/>
    <circle cx="27.09" cy="294.78" r=".73043"/>
   </g>
   <path d="m5.8365 278.03c-0.29408-2.5e-4 -0.54855 0.0236-0.75522 0.0743-0.33624 0.0615-0.47856 0.17674-0.57555 0.36447l-2.3202 12.125c-0.011393 0.0595-0.00398 0.11728 0.019627 0.17243 0.00944 0.022 0.021484 0.0438 0.035934 0.065 0.00721 0.0106 0.014989 0.0209 0.023404 0.0313 0.025185 0.031 0.055739 0.0609 0.090893 0.0894 0.058598 0.0474 0.13017 0.0912 0.21213 0.1303 0.016419 7e-3 0.03322 0.0154 0.050429 0.0228 0.086015 0.0373 0.18186 0.0696 0.28491 0.0962 0.020569 5e-3 0.041342 0.0106 0.062506 0.0154 0.19046 0.0437 0.40257 0.0681 0.62084 0.0681h5.9874a7.5666 5.1216 0 0 1 7.2326-3.6182 7.5666 5.1216 0 0 1 7.2253 3.6182h5.9946c0.50922 0 0.98471-0.13336 1.2308-0.33277 0.03517-0.0285 0.06567-0.0582 0.09089-0.0892 0.0084-0.0105 0.01617-0.0208 0.02342-0.0314 0.01443-0.0212 0.02648-0.0428 0.03594-0.0649 0.02357-0.0551 0.03102-0.11291 0.01965-0.17243l-2.3202-12.125c-0.09698-0.18773-0.23946-0.30298-0.5757-0.36447-0.20667-0.0506-0.46114-0.0747-0.75522-0.0744l-10.97 8e-3z" fill="url(#g)"/>
   <rect x="7.0945" y="278.75" width="19.423" height=".43826" ry=".21913" fill="url(#h)" opacity=".8"/>
   <g transform="matrix(.31515 0 0 .22988 -1.2977 218.93)" fill="#4d4d4d" stroke-width=".5573" aria-label="Modem">
    <path d="m50.244 310.18h0.63586l0.80487 2.1463 0.80909-2.1463h0.63586v3.154h-0.41616v-2.7695l-0.81332 2.1632h-0.42884l-0.81332-2.1632v2.7695h-0.41405z"/>
    <path d="m54.879 311.24q-0.31265 0-0.49433 0.24505-0.18168 0.24294-0.18168 0.66755 0 0.42462 0.17956 0.66967 0.18168 0.24294 0.49644 0.24294 0.31054 0 0.49222-0.24505t0.18168-0.66756q0-0.42038-0.18168-0.66544-0.18168-0.24716-0.49222-0.24716zm0-0.32955q0.507 0 0.79642 0.32955t0.28941 0.9126q0 0.58094-0.28941 0.91261-0.28941 0.32955-0.79642 0.32955-0.50911 0-0.79853-0.32955-0.2873-0.33167-0.2873-0.91261 0-0.58305 0.2873-0.9126 0.28941-0.32955 0.79853-0.32955z"/>
    <path d="m58.164 311.33v-1.2802h0.3887v3.2871h-0.3887v-0.3549q-0.12252 0.21125-0.31054 0.31476-0.1859 0.1014-0.44785 0.1014-0.42884 0-0.69924-0.34223-0.26829-0.34222-0.26829-0.89993 0-0.5577 0.26829-0.89992 0.2704-0.34223 0.69924-0.34223 0.26195 0 0.44785 0.10351 0.18801 0.1014 0.31054 0.31265zm-1.3245 0.82599q0 0.42884 0.17534 0.6739 0.17745 0.24293 0.48588 0.24293t0.48588-0.24293q0.17745-0.24506 0.17745-0.6739 0-0.42883-0.17745-0.67177-0.17745-0.24505-0.48588-0.24505t-0.48588 0.24505q-0.17534 0.24294-0.17534 0.67177z"/>
    <path d="m61.377 312.06v0.19012h-1.7872q0.02535 0.40138 0.24083 0.61263 0.21759 0.20914 0.60418 0.20914 0.22393 0 0.43306-0.0549 0.21125-0.0549 0.41828-0.16477v0.36757q-0.20914 0.0887-0.42884 0.1352t-0.44574 0.0465q-0.56615 0-0.89782-0.32955-0.32955-0.32955-0.32955-0.89148 0-0.58094 0.31265-0.92105 0.31476-0.34223 0.84712-0.34223 0.47743 0 0.75416 0.30843 0.27885 0.30631 0.27885 0.83444zm-0.3887-0.11408q-0.0042-0.31899-0.17956-0.50911-0.17323-0.19013-0.46053-0.19013-0.32533 0-0.52179 0.18379-0.19435 0.18379-0.22393 0.51756z"/>
    <path d="m63.857 311.43q0.14576-0.26195 0.34856-0.38659t0.47743-0.12464q0.36969 0 0.57038 0.25984 0.20069 0.25772 0.20069 0.73515v1.4281h-0.39081v-1.4154q0-0.34012-0.12041-0.50489-0.12041-0.16478-0.36758-0.16478-0.30209 0-0.47743 0.20069t-0.17534 0.54714v1.3372h-0.39081v-1.4154q0-0.34223-0.12041-0.50489-0.12041-0.16478-0.3718-0.16478-0.29786 0-0.4732 0.2028-0.17534 0.20069-0.17534 0.54503v1.3372h-0.39081v-2.366h0.39081v0.36757q0.13309-0.21758 0.31899-0.3211 0.1859-0.10351 0.44151-0.10351 0.25773 0 0.43729 0.13098 0.18168 0.13097 0.26829 0.38025z"/>
   </g>
  </g>
 </g>
</svg>
