<svg width="64" height="64" version="1.1" viewBox="0 0 16.933 16.933" xmlns="http://www.w3.org/2000/svg" xmlns:xlink="http://www.w3.org/1999/xlink">
 <defs>
  <linearGradient id="a">
   <stop stop-color="#bebebe" offset="0"/>
   <stop stop-color="#464646" offset="1"/>
  </linearGradient>
  <radialGradient id="g" cx="32" cy="53.196" r="9.9092" gradientTransform="matrix(.3738 1.4135e-7 -4.447e-8 .1302 -3.4952 5.7248)" gradientUnits="userSpaceOnUse">
   <stop stop-color="#fdfdfd" offset="0"/>
   <stop stop-color="#f5f5f5" offset=".47277"/>
   <stop stop-color="#cecece" offset="1"/>
  </radialGradient>
  <filter id="l" x="-.054752" y="-.06636" width="1.1095" height="1.1327" color-interpolation-filters="sRGB">
   <feGaussianBlur stdDeviation="0.30190621"/>
  </filter>
  <clipPath id="o">
   <path d="m3.8141 1.3806c-0.14028-2.209e-4 -0.26185 0.020571-0.36044 0.064518-0.1604 0.053363-0.22836 0.15334-0.27462 0.31627l-1.6871 9.643c-0.00543 0.05166-0.00166 0.10148 0.00959 0.14934 0.0045 0.01915 0.010275 0.03801 0.017163 0.05639 0.00344 0.0092 0.0071 0.01811 0.011106 0.02707 0.012032 0.02688 0.026643 0.05287 0.043414 0.0776 0.027952 0.04121 0.061865 0.07932 0.10096 0.11325 0.00782 0.0067 0.016025 0.01344 0.024231 0.01985 0.04103 0.03229 0.086637 0.06037 0.13579 0.08347 0.00983 0.0045 0.019689 0.0088 0.029784 0.01308 0.090854 0.03794 0.19221 0.05911 0.29632 0.05911h3.7457a3.4959 5.0429 0 0 1 2.5604-1.6184 3.4959 5.0429 0 0 1 2.5619 1.6184h3.7442c0.24291 0 0.46967-0.11569 0.5871-0.28875 0.01678-0.02472 0.03138-0.05071 0.04341-0.0776 4e-3 -0.0089 0.0081-0.01791 0.01161-0.02707 0.0068-0.01837 0.01217-0.03727 0.01666-0.05639 0.01125-0.04786 0.01502-0.09813 0.0096-0.14979l-1.9456-9.6425c-0.046266-0.16293-0.11422-0.26291-0.27462-0.31627-0.098588-0.043939-0.22016-0.064739-0.36044-0.064518h-4.3939z" fill="#929292"/>
  </clipPath>
  <filter id="j" x="-.086731" y="-.42391" width="1.1735" height="1.8478" color-interpolation-filters="sRGB">
   <feGaussianBlur stdDeviation="0.70652346"/>
  </filter>
  <radialGradient id="d" cx="7.9373" cy="13.903" r="7.142" gradientTransform="matrix(1.1114 4.7498e-8 -5.5414e-8 1.2966 -.88353 -5.2248)" gradientUnits="userSpaceOnUse">
   <stop stop-color="#fff" offset="0"/>
   <stop stop-color="#fff" stop-opacity="0" offset="1"/>
  </radialGradient>
  <linearGradient id="h" x1="8.4665" x2="8.4665" y1="12.477" y2="15.356" gradientTransform="matrix(.99497 0 0 1 .042596 0)" gradientUnits="userSpaceOnUse">
   <stop stop-color="#f3f3f3" offset="0"/>
   <stop stop-color="#e4e4e4" offset="1"/>
  </linearGradient>
  <filter id="n" x="-.019841" y="-.23809" width="1.0397" height="1.4762" color-interpolation-filters="sRGB">
   <feGaussianBlur stdDeviation="0.1049892"/>
  </filter>
  <filter id="m" x="-.020048" y="-.17621" width="1.0401" height="1.3524" color-interpolation-filters="sRGB">
   <feGaussianBlur stdDeviation="0.43981933"/>
  </filter>
  <filter id="k" x="-.041258" y="-.10994" width="1.0825" height="1.2199" color-interpolation-filters="sRGB">
   <feGaussianBlur stdDeviation="0.34069824"/>
  </filter>
  <radialGradient id="f" cx="14.155" cy="14.42" r=".39687" gradientUnits="userSpaceOnUse" xlink:href="#a"/>
  <filter id="i" x="-.18" y="-.18" width="1.36" height="1.36" color-interpolation-filters="sRGB">
   <feGaussianBlur stdDeviation="0.040504485"/>
  </filter>
  <radialGradient id="c" cx="14.155" cy="14.42" r=".39687" gradientTransform="matrix(.66667 0 0 .66667 3.5277 4.8065)" gradientUnits="userSpaceOnUse" xlink:href="#a"/>
  <radialGradient id="b" cx="14.155" cy="14.42" r=".39687" gradientTransform="matrix(.66667 0 0 .66667 2.4694 4.8065)" gradientUnits="userSpaceOnUse" xlink:href="#a"/>
  <filter id="e" x="-.059473" y="-.060537" width="1.1189" height="1.1211" color-interpolation-filters="sRGB">
   <feGaussianBlur stdDeviation="1.3378352"/>
  </filter>
 </defs>
 <path transform="scale(.26458)" d="m14 5c-0.54275-9.566e-4 -1.0131 0.089051-1.3945 0.2793-0.62057 0.23101-0.88354 0.66383-1.0625 1.3691l-6.5273 41.746c-0.021015 0.22364-0.0064316 0.43929 0.037109 0.64648 0.0026425 0.01257 0.0068993 0.0246 0.0097656 0.037109-0.006706 0.41826 0.0069119 0.85899 0.037109 1.3125 0.036851 1.9891 0.14217 2.4666 0.31836 4.5371 0.096546 1.7208 1.1493 3.1125 2.5762 3.1113l48.012-0.039062c1.427-0.00116 2.4796-1.3515 2.5762-3.0723 0.17617-2.0706 0.28151-2.55 0.31836-4.5391 0.030049-0.45129 0.041538-0.88816 0.035156-1.3047 0.003281-0.014535 0.008652-0.028362 0.011719-0.042968 0.043541-0.2072 0.058199-0.4248 0.037109-0.64844l-7.5273-41.742c-0.179-0.70535-0.44193-1.1382-1.0625-1.3691-0.38144-0.19021-0.85178-0.28025-1.3945-0.2793h-17l-18-0.0019531zm18 38.982a13.526 21.831 0 0 1 6.9766 3.1758h-13.959a13.526 21.831 0 0 1 6.9824-3.1758z" filter="url(#e)" opacity=".35" stroke-width="3.7796"/>
 <path d="m1.6002 12.477c-0.2479 0.04331-0.24215 0.44936-0.21527 0.855 0.0097 0.52627 0.037489 0.65268 0.083869 1.2005 0.025415 0.45528 0.30241 0.8239 0.67804 0.82359l12.639-0.01034c0.37564-3.07e-4 0.65263-0.35798 0.67804-0.81326 0.04638-0.54783 0.07417-0.67424 0.08386-1.2005 0.02687-0.40564 0.03262-0.81164-0.21527-0.855h-12.738z" fill="url(#h)" stroke="#000" stroke-opacity=".19608" stroke-width=".26458"/>
 <path transform="scale(.26458)" d="m6.7715 45.307c-0.6077 0-1.0977 0.74583-1.0977 1.6719v2.6465c0 0.92605 0.48996 1.6719 1.0977 1.6719h15.867a9.8639 5.1132 0 0 1 9.3613-3.5117 9.8639 5.1132 0 0 1 9.3535 3.5117h15.875c0.6077 0 1.0977-0.74583 1.0977-1.6719v-2.6465c0-0.92605-0.48996-1.6719-1.0977-1.6719h-50.457z" fill-rule="evenodd" filter="url(#m)" opacity=".35" style="paint-order:stroke fill markers"/>
 <path transform="matrix(.26458 0 0 .26458 0 -.26458)" d="m31.855 47a10.294 5.7981 0 0 0-9.7715 4h2.502a10.294 5.7981 0 0 1 7.2695-1.6992 10.294 5.7981 0 0 1 7.2578 1.6992h2.5215a10.294 5.7981 0 0 0-9.7793-4z" fill-rule="evenodd" filter="url(#j)" opacity=".35" style="paint-order:stroke fill markers"/>
 <path d="m8.4665 11.522a3.5786 6.1316 0 0 0-2.621 1.9678h0.23202a2.7237 1.6285 0 0 1 2.389-0.847 2.7237 1.6285 0 0 1 2.3859 0.847h0.23667a3.5786 6.1316 0 0 0-2.6225-1.9678z" fill="url(#g)"/>
 <path d="m3.7041 1.3229c-0.1436-2.531e-4 -0.26805 0.023561-0.36896 0.073897-0.1642 0.061121-0.23376 0.17563-0.28112 0.36224l-1.727 11.045c-0.00556 0.05917-0.0017 0.11623 0.00982 0.17105 0.00461 0.02193 0.010519 0.04352 0.01757 0.06459 0.00352 0.01054 0.00726 0.02074 0.011369 0.03101 0.012317 0.03079 0.027273 0.06055 0.044441 0.08888 0.028614 0.04721 0.06333 0.09085 0.10335 0.1297 0.00801 0.0077 0.016404 0.01539 0.024804 0.02274 0.042002 0.03698 0.088687 0.06914 0.13901 0.0956 0.010063 0.0052 0.020155 0.01016 0.030488 0.01499 0.093002 0.04345 0.19675 0.0677 0.30334 0.0677h3.8343a3.5787 5.776 0 0 1 2.621-1.8536 3.5787 5.776 0 0 1 2.6225 1.8536h3.8327c0.24866 0 0.4808-0.1325 0.60099-0.33072 0.01717-0.02831 0.03212-0.05808 0.04444-0.08888 0.0041-0.01026 0.0083-0.0205 0.01189-0.03101 7e-3 -0.02104 0.01245-0.04268 0.01705-0.06459 0.01152-0.05482 0.01538-0.11239 0.0098-0.17156l-1.9916-11.044c-0.04736-0.18662-0.11693-0.30112-0.28112-0.36224-0.10092-0.050326-0.22536-0.074149-0.36896-0.073897h-9.2603z" fill="#b2b2b2"/>
 <path transform="matrix(1.0237 0 0 1.1453 -.20026 -.25842)" d="m4.0542 1.7809c-0.13304-2.271e-4 -0.24833 0.021144-0.34183 0.066315-0.15212 0.054849-0.21657 0.15761-0.26044 0.32508l-1.6 9.9116c-0.00516 0.0531-0.00158 0.1043 0.0091 0.1535 0.00427 0.01969 0.00975 0.03906 0.016278 0.05797 0.00326 0.0095 0.00672 0.0186 0.010533 0.02783 0.011411 0.02763 0.025267 0.05434 0.041173 0.07977 0.026509 0.04236 0.058673 0.08152 0.095752 0.1164 0.00743 0.0069 0.015198 0.01381 0.02298 0.0204 0.038913 0.03319 0.082165 0.06205 0.12879 0.08579 0.00932 0.0047 0.018673 0.0091 0.028246 0.01345 0.086165 0.03899 0.18229 0.06075 0.28103 0.06075h3.5524a3.3155 5.1834 0 0 1 2.4283-1.6634 3.3155 5.1834 0 0 1 2.4297 1.6634h3.551c0.23037 0 0.44544-0.11891 0.5568-0.2968 0.01591-0.0254 0.02976-0.05212 0.04118-0.07977 0.0038-0.0092 0.0077-0.0184 0.011-0.02783 0.0064-0.01888 0.01153-0.03831 0.01579-0.05797 0.01068-0.0492 0.01425-0.10086 9e-3 -0.15396l-1.845-9.9111c-0.04388-0.16747-0.10833-0.27023-0.26045-0.32508-0.0935-0.045163-0.20879-0.066542-0.34183-0.066315h-4.1671z" clip-path="url(#o)" fill="#d8d8d8" filter="url(#l)" stroke-width=".92354"/>
 <path transform="scale(.26458)" d="m32 43.549a13.526 23.175 0 0 0-9.9062 7.4375h0.29688a13.526 23.175 0 0 1 9.6094-6.9199 13.526 23.175 0 0 1 9.6035 6.9199h0.30859a13.526 23.175 0 0 0-9.9121-7.4375z" filter="url(#k)" opacity=".15" stroke-width="3.7796"/>
 <path d="m3.7045 1.3219c-0.1436-2.531e-4 -0.26804 0.023561-0.36896 0.073896-0.16419 0.061119-0.23376 0.17563-0.28111 0.36224l-1.727 11.045c-0.0056 0.05917-0.0017 0.11623 0.0098 0.17105 0.0046 0.02193 0.01052 0.04352 0.01757 0.06459 0.0035 0.01054 0.0073 0.02074 0.01137 0.03101 0.01232 0.03079 0.02727 0.06055 0.04444 0.08888 0.02861 0.04721 0.06333 0.09084 0.10335 0.1297 8e-3 0.0077 0.0164 0.01539 0.0248 0.02274 0.042 0.03698 0.08869 0.06914 0.13901 0.0956 0.01006 0.0052 0.02015 0.01017 0.03049 0.01499 0.093 0.04345 0.19675 0.06769 0.30333 0.06769h3.8343a3.5786 5.7759 0 0 1 2.621-1.8536 3.5786 5.7759 0 0 1 2.6225 1.8536h3.8328c0.24865 0 0.48079-0.1325 0.60098-0.33072 0.01717-0.02831 0.03212-0.05808 0.04444-0.08888 0.0041-0.01026 0.0083-0.0205 0.01188-0.03101 7e-3 -0.02104 0.01245-0.04268 0.01705-0.06459 0.01152-0.05482 0.01538-0.11239 0.0098-0.17156l-1.9916-11.044c-0.04736-0.18662-0.11693-0.30113-0.28112-0.36224-0.10092-0.050326-0.22536-0.074149-0.36896-0.073896h-4.4978z" fill="url(#d)"/>
 <g fill-rule="evenodd">
  <rect transform="matrix(1.0417 0 0 .96682 -.35277 .50035)" x="2.1166" y="14.023" width="12.7" height="1.0583" rx=".26458" ry=".29539" filter="url(#n)" opacity=".1" style="paint-order:stroke fill markers"/>
  <circle cx="14.155" cy="14.42" r=".39687" fill="url(#f)" style="paint-order:stroke fill markers"/>
  <circle cx="14.155" cy="14.328" r=".27003" fill="#fff" filter="url(#i)" opacity=".36" style="paint-order:stroke fill markers"/>
  <circle cx="12.964" cy="14.42" r=".26458" fill="url(#c)" style="paint-order:stroke fill markers"/>
  <circle cx="11.906" cy="14.42" r=".26458" fill="url(#b)" style="paint-order:stroke fill markers"/>
 </g>
</svg>
