<svg xmlns="http://www.w3.org/2000/svg" viewBox="0 0 48 48">
 <defs>
  <radialGradient r="24" cy="40.5" cx="24" gradientTransform="matrix(1.25,0,0,0.20833327,-6,1035.9247)" gradientUnits="userSpaceOnUse" id="radialGradient3166">
   <stop style="stop-color:#000;stop-opacity:1"/>
   <stop offset="1" style="stop-color:#000;stop-opacity:0.196"/>
  </radialGradient>
 </defs>
 <g transform="translate(0,-1004.3622)">
  <path d="m 24 1039.36 c -9.827 0 -18.528 0.783 -24 2 l 0 6 c 5.472 1.217 14.173 2 24 2 9.827 0 18.528 -0.783 24 -2 l 0 -6 c -5.472 -1.217 -14.173 -2 -24 -2 z" style="fill:url(#radialGradient3166);opacity:0.1;fill-opacity:1;stroke:none"/>
  <rect width="46" height="32" x="1" y="1014.36" rx="5" style="fill:#1976d2;fill-opacity:1;stroke:none"/>
  <path d="m 6 1014.36 c -2.77 0 -5 2.23 -5 5 l 0 2 c 0 -2.77 2.23 -5 5 -5 l 36 0 c 2.77 0 5 2.23 5 5 l 0 -2 c 0 -2.77 -2.23 -5 -5 -5 l -36 0 z" style="fill:#fff;opacity:0.2;fill-opacity:1;stroke:none"/>
  <path d="m 6 1022.36 8 0 c 11 -1 9 -12 16 -12 l 12 0 c 2.77 0 5 2.23 5 5 l 0 26 c 0 2.77 -2.23 5 -5 5 l -36 0 c -2.77 0 -5 -2.23 -5 -5 l 0 -14 c 0 -3 2 -5 5 -5 z" style="fill:#42a5f5;fill-opacity:1;stroke:none"/>
  <path d="m 1 1039.36 0 2 c 0 2.77 2.23 5 5 5 l 36 0 c 2.77 0 5 -2.23 5 -5 l 0 -2 c 0 2.77 -2.23 5 -5 5 l -36 0 c -2.77 0 -5 -2.23 -5 -5 z" style="fill:#000;opacity:0.15;fill-opacity:1;stroke:none"/>
  <path d="m 7.513 1028.34 c -0.451 0.01 -0.878 0.056 -1.308 0.205 -0.135 0.916 0.088 1.866 0.333 2.744 0.625 2.01 1.785 3.924 3.487 5.205 0.062 0.059 0.151 0.073 0.128 0.179 -0.009 0.446 -0.001 0.912 0 1.359 0.018 0.782 0.489 1.529 1.18 1.898 0.819 0.431 1.637 0.831 2.462 1.256 0.38 0.201 0.906 -0.03 1.026 -0.436 0.073 -0.267 0.022 -0.548 0.026 -0.821 -0.003 -0.575 -0.074 -1.151 -0.051 -1.718 0.751 -0.093 1.506 -0.457 1.949 -1.077 0.395 -0.529 0.536 -1.214 0.487 -1.872 0.803 -0.143 1.631 -0.265 2.436 -0.41 0.476 -0.095 0.683 -0.715 0.385 -1.103 -0.585 -0.742 -1.174 -1.468 -1.769 -2.205 -0.481 -0.574 -1.233 -0.893 -1.974 -0.795 -0.503 0.08 -1.017 0.188 -1.513 0.282 -1.6 -1.525 -3.752 -2.37 -5.923 -2.615 -0.446 -0.04 -0.908 -0.084 -1.359 -0.077 z m 2.718 1.667 c 0.525 -0.048 1.051 0.098 1.487 0.462 0.873 0.727 1.01 2.024 0.282 2.898 -0.727 0.873 -2.025 1.01 -2.897 0.282 -0.873 -0.727 -1.01 -2.024 -0.282 -2.897 0.363 -0.437 0.886 -0.696 1.41 -0.744 z m 0.051 0.692 c -0.35 0.032 -0.681 0.196 -0.923 0.487 -0.485 0.582 -0.403 1.438 0.179 1.923 0.582 0.485 1.438 0.403 1.923 -0.18 0.485 -0.582 0.403 -1.438 -0.179 -1.923 -0.291 -0.243 -0.65 -0.34 -1 -0.308 z m 8.333 5.59 c -0.18 -0.016 -0.359 0.12 -0.385 0.308 -0.229 1.04 -0.969 1.944 -1.949 2.359 -0.255 0.08 -0.312 0.422 -0.103 0.59 0.43 0.358 0.927 0.772 1.359 1.128 0.21 0.179 0.484 -0.01 0.487 -0.282 -0.007 -0.218 -0.032 -0.451 -0.051 -0.667 0.536 0.115 1.06 0.267 1.59 0.385 0.25 0.052 0.486 -0.249 0.385 -0.487 -0.209 -0.502 -0.426 -0.988 -0.641 -1.487 0.217 -0.025 0.425 -0.044 0.641 -0.077 0.267 -0.053 0.371 -0.441 0.154 -0.615 -0.433 -0.364 -0.869 -0.716 -1.308 -1.077 -0.051 -0.04 -0.12 -0.071 -0.179 -0.077 z" style="fill:#000;fill-opacity:0.098;stroke:none;fill-rule:nonzero"/>
  <path d="m 7.513 1027.34 c -0.451 0.01 -0.878 0.056 -1.308 0.205 -0.135 0.916 0.088 1.866 0.333 2.744 0.625 2.01 1.785 3.924 3.487 5.205 0.062 0.059 0.151 0.073 0.128 0.179 -0.009 0.446 -0.001 0.912 0 1.359 0.018 0.782 0.489 1.529 1.18 1.898 0.819 0.431 1.637 0.831 2.462 1.256 0.38 0.201 0.906 -0.03 1.026 -0.436 0.073 -0.267 0.022 -0.548 0.026 -0.821 -0.003 -0.575 -0.074 -1.151 -0.051 -1.718 0.751 -0.093 1.506 -0.457 1.949 -1.077 0.395 -0.529 0.536 -1.214 0.487 -1.872 0.803 -0.143 1.631 -0.265 2.436 -0.41 0.476 -0.095 0.683 -0.715 0.385 -1.103 -0.585 -0.742 -1.174 -1.468 -1.769 -2.205 -0.481 -0.574 -1.233 -0.893 -1.974 -0.795 -0.503 0.08 -1.017 0.188 -1.513 0.282 -1.6 -1.525 -3.752 -2.37 -5.923 -2.615 -0.446 -0.04 -0.908 -0.084 -1.359 -0.077 z m 2.718 1.667 c 0.525 -0.048 1.051 0.098 1.487 0.462 0.873 0.727 1.01 2.024 0.282 2.898 -0.727 0.873 -2.025 1.01 -2.897 0.282 -0.873 -0.727 -1.01 -2.024 -0.282 -2.897 0.363 -0.437 0.886 -0.696 1.41 -0.744 z m 0.051 0.692 c -0.35 0.032 -0.681 0.196 -0.923 0.487 -0.485 0.582 -0.403 1.438 0.179 1.923 0.582 0.485 1.438 0.403 1.923 -0.18 0.485 -0.582 0.403 -1.438 -0.179 -1.923 -0.291 -0.243 -0.65 -0.34 -1 -0.308 z m 8.333 5.59 c -0.18 -0.016 -0.359 0.12 -0.385 0.308 -0.229 1.04 -0.969 1.944 -1.949 2.359 -0.255 0.08 -0.312 0.422 -0.103 0.59 0.43 0.358 0.927 0.772 1.359 1.128 0.21 0.179 0.484 -0.01 0.487 -0.282 -0.007 -0.218 -0.032 -0.451 -0.051 -0.667 0.536 0.115 1.06 0.267 1.59 0.385 0.25 0.052 0.486 -0.249 0.385 -0.487 -0.209 -0.502 -0.426 -0.988 -0.641 -1.487 0.217 -0.025 0.425 -0.044 0.641 -0.077 0.267 -0.053 0.371 -0.441 0.154 -0.615 -0.433 -0.364 -0.869 -0.716 -1.308 -1.077 -0.051 -0.04 -0.12 -0.071 -0.179 -0.077 z" style="fill:#fff8e1;fill-opacity:1;stroke:none;fill-rule:nonzero"/>
 </g>
</svg>
