<svg version="1.1" viewBox="0 0 48 48" xmlns="http://www.w3.org/2000/svg">
 <defs>
  <radialGradient id="radialGradient3092" cx="24" cy="40.5" r="24" gradientTransform="matrix(1.25 0 0 .20833 -6 1035.9)" gradientUnits="userSpaceOnUse">
   <stop offset="0"/>
   <stop style="stop-opacity:.196" offset="1"/>
  </radialGradient>
 </defs>
 <g transform="translate(0 -1004.4)">
  <path d="m24 1039.4c-9.827 0-18.528 0.783-24 2v6c5.472 1.217 14.173 2 24 2s18.528-0.783 24-2v-6c-5.472-1.217-14.173-2-24-2z" style="fill:url(#radialGradient3092);opacity:.1"/>
  <rect x="1" y="1014.4" width="46" height="32" rx="5"/>
  <path d="m6 1014.4c-2.77 0-5 2.23-5 5v2c0-2.77 2.23-5 5-5h36c2.77 0 5 2.23 5 5v-2c0-2.77-2.23-5-5-5z" style="fill:#fff;opacity:.2"/>
  <path d="m6 1022.4h8c11-1 9-12 16-12h12c2.77 0 5 2.23 5 5v26c0 2.77-2.23 5-5 5h-36c-2.77 0-5-2.23-5-5v-14c0-3 2-5 5-5z"/>
  <path d="m1 1039.4v2c0 2.77 2.23 5 5 5h36c2.77 0 5-2.23 5-5v-2c0 2.77-2.23 5-5 5h-36c-2.77 0-5-2.23-5-5z" style="opacity:.15"/>
  <path d="m15.227 1041.2h-0.06364l-0.06364-0.065v-2c0-0.4516-0.06364-0.8387-0.25454-1.1613 1.4636-0.258 3.0545-1.0322 3.0545-3.9354 0-0.7742-0.25454-1.4839-0.7-2.0646 0.12727-0.3871 0.19091-1.0967-0.12727-2l-0.19091-0.1935s-0.12727-0.064-0.25454-0.064c-0.38182 0-0.95455 0.129-1.9091 0.7742-0.50909-0.064-1.0818-0.1936-1.7182-0.1936s-1.2091 0.064-1.7818 0.1936c-0.89091-0.5807-1.5273-0.7097-1.9091-0.7097-0.12727 0-0.19091 0.064-0.25454 0.064-0.06364 0-0.19091 0.129-0.19091 0.1936-0.31818 0.9032-0.25454 1.6129-0.12727 2-0.44546 0.5806-0.7 1.2903-0.7 2.0645 0 2.8387 1.6545 3.6129 3.0545 3.9355-0.06364 0.129-0.12727 0.3225-0.19091 0.5161-0.12727 0.064-0.31818 0.129-0.57273 0.129-0.25455 0-0.50909-0.064-0.7-0.258l-0.06364-0.065c-0.06364-0.064-0.06364-0.129-0.12727-0.129l-0.06364-0.064-0.06364-0.065c0-0.064-0.50909-0.8387-1.4-0.9032-0.31818 0-0.57273 0.129-0.63636 0.3225-0.12727 0.3226 0.25455 0.5807 0.44546 0.7097 0 0 0.38182 0.1936 0.63636 0.9032 0.12727 0.4516 0.7 1.2904 2.0364 1.2904h0.44546v0.9032l-0.06364 0.064s-0.06364 0 0 0c-2.8636-1.1613-4.7727-3.871-4.7727-6.9032 0-3.9355 3.1182-7.0968 7-7.0968s7 3.1613 7 7.0968c0 3.0322-1.9091 5.7419-4.7727 6.7097z" style="fill-opacity:.098;stroke-width:.64075"/>
  <path d="m15.227 1040.2h-0.06364l-0.06364-0.065v-2c0-0.4516-0.06364-0.8387-0.25454-1.1613 1.4636-0.258 3.0545-1.0322 3.0545-3.9354 0-0.7742-0.25454-1.4839-0.7-2.0646 0.12727-0.3871 0.19091-1.0967-0.12727-2l-0.19091-0.1935s-0.12727-0.064-0.25454-0.064c-0.38182 0-0.95455 0.129-1.9091 0.7742-0.50909-0.064-1.0818-0.1936-1.7182-0.1936s-1.2091 0.064-1.7818 0.1936c-0.89091-0.5807-1.5273-0.7097-1.9091-0.7097-0.12727 0-0.19091 0.064-0.25454 0.064-0.06364 0-0.19091 0.129-0.19091 0.1936-0.31818 0.9032-0.25454 1.6129-0.12727 2-0.44546 0.5806-0.7 1.2903-0.7 2.0645 0 2.8387 1.6545 3.6129 3.0545 3.9355-0.06364 0.129-0.12727 0.3225-0.19091 0.5161-0.12727 0.064-0.31818 0.129-0.57273 0.129-0.25455 0-0.50909-0.064-0.7-0.258l-0.06364-0.065c-0.06364-0.064-0.06364-0.129-0.12727-0.129l-0.06364-0.064-0.06364-0.065c0-0.064-0.50909-0.8387-1.4-0.9032-0.31818 0-0.57273 0.129-0.63636 0.3225-0.12727 0.3226 0.25455 0.5807 0.44546 0.7097 0 0 0.38182 0.1936 0.63636 0.9032 0.12727 0.4516 0.7 1.2904 2.0364 1.2904h0.44546v0.9032l-0.06364 0.064s-0.06364 0 0 0c-2.8636-1.1613-4.7727-3.871-4.7727-6.9032 0-3.9355 3.1182-7.0968 7-7.0968s7 3.1613 7 7.0968c0 3.0322-1.9091 5.7419-4.7727 6.7097z" style="stroke-width:.64075"/>
 </g>
</svg>
