<svg xmlns="http://www.w3.org/2000/svg" viewBox="0 0 48 48">
 <defs>
  <radialGradient r="24" cy="40.5" cx="24" gradientTransform="matrix(1.25,0,0,0.20833327,-6,1035.9247)" gradientUnits="userSpaceOnUse" id="radialGradient3092">
   <stop style="stop-color:#000;stop-opacity:1"/>
   <stop offset="1" style="stop-color:#000;stop-opacity:0.196"/>
  </radialGradient>
 </defs>
 <g transform="translate(0,-1004.3622)">
  <path d="m 24 1039.36 c -9.827 0 -18.528 0.783 -24 2 l 0 6 c 5.472 1.217 14.173 2 24 2 9.827 0 18.528 -0.783 24 -2 l 0 -6 c -5.472 -1.217 -14.173 -2 -24 -2 z" style="fill:url(#radialGradient3092);opacity:0.1;fill-opacity:1;stroke:none"/>
  <rect width="46" height="32" x="1" y="1014.36" rx="5" style="fill:#f57c00;fill-opacity:1;stroke:none"/>
  <path d="m 6 1014.36 c -2.77 0 -5 2.23 -5 5 l 0 2 c 0 -2.77 2.23 -5 5 -5 l 36 0 c 2.77 0 5 2.23 5 5 l 0 -2 c 0 -2.77 -2.23 -5 -5 -5 l -36 0 z" style="fill:#fff;opacity:0.2;fill-opacity:1;stroke:none"/>
  <path d="m 6 1022.36 8 0 c 11 -1 9 -12 16 -12 l 12 0 c 2.77 0 5 2.23 5 5 l 0 26 c 0 2.77 -2.23 5 -5 5 l -36 0 c -2.77 0 -5 -2.23 -5 -5 l 0 -14 c 0 -3 2 -5 5 -5 z" style="fill:#ffb300;fill-opacity:1;stroke:none"/>
  <path d="m 1 1039.36 0 2 c 0 2.77 2.23 5 5 5 l 36 0 c 2.77 0 5 -2.23 5 -5 l 0 -2 c 0 2.77 -2.23 5 -5 5 l -36 0 c -2.77 0 -5 -2.23 -5 -5 z" style="fill:#000;opacity:0.15;fill-opacity:1;stroke:none"/>
  <path d="m 11.898 1027.36 c -0.388 0 -0.713 0.309 -0.713 0.697 l 0 0.907 c -0.245 0.083 -0.484 0.178 -0.713 0.292 l -0.632 -0.632 c -0.275 -0.274 -0.714 -0.274 -0.988 0 l -1.588 1.572 c -0.275 0.275 -0.275 0.714 0 0.988 l 0.632 0.632 c -0.116 0.233 -0.208 0.479 -0.292 0.729 l -0.891 0 c -0.388 0 -0.713 0.309 -0.713 0.697 l 0 2.236 c 0 0.388 0.325 0.697 0.713 0.697 l 0.891 0 c 0.084 0.25 0.175 0.496 0.292 0.729 l -0.632 0.632 c -0.275 0.275 -0.275 0.714 0 0.988 l 1.588 1.572 c 0.275 0.274 0.714 0.274 0.988 0 l 0.632 -0.632 c 0.229 0.114 0.467 0.209 0.713 0.292 l 0 0.907 c 0 0.388 0.325 0.697 0.713 0.697 l 2.22 0 c 0.388 0 0.697 -0.309 0.697 -0.697 l 0 -0.907 c 0.25 -0.084 0.496 -0.175 0.729 -0.292 l 0.632 0.632 c 0.275 0.274 0.714 0.274 0.988 0 l 1.588 -1.572 c 0.275 -0.275 0.275 -0.714 0 -0.988 l -0.648 -0.648 c 0.114 -0.229 0.209 -0.467 0.292 -0.713 l 0.907 0 c 0.388 0 0.697 -0.309 0.697 -0.697 l 0 -2.236 c 0 -0.388 -0.309 -0.697 -0.697 -0.697 l -0.907 0 c -0.082 -0.245 -0.178 -0.484 -0.292 -0.713 l 0.648 -0.648 c 0.275 -0.275 0.275 -0.714 0 -0.988 l -1.588 -1.572 c -0.275 -0.274 -0.714 -0.274 -0.988 0 l -0.632 0.632 c -0.233 -0.117 -0.479 -0.208 -0.729 -0.292 l 0 -0.907 c 0 -0.388 -0.309 -0.697 -0.697 -0.697 l -2.22 0 z m 1.102 5.185 c 1 0 1.815 0.813 1.815 1.815 0 1 -0.813 1.815 -1.815 1.815 -1 0 -1.815 -0.813 -1.815 -1.815 0 -1 0.813 -1.815 1.815 -1.815 z" style="fill:#000;fill-opacity:0.098;display:block;color:#000"/>
  <path d="m 11.898 1026.36 c -0.388 0 -0.713 0.309 -0.713 0.697 l 0 0.907 c -0.245 0.083 -0.484 0.178 -0.713 0.292 l -0.632 -0.632 c -0.275 -0.274 -0.714 -0.274 -0.988 0 l -1.588 1.572 c -0.275 0.275 -0.275 0.714 0 0.988 l 0.632 0.632 c -0.116 0.233 -0.208 0.479 -0.292 0.729 l -0.891 0 c -0.388 0 -0.713 0.309 -0.713 0.697 l 0 2.236 c 0 0.388 0.325 0.697 0.713 0.697 l 0.891 0 c 0.084 0.25 0.175 0.496 0.292 0.729 l -0.632 0.632 c -0.275 0.275 -0.275 0.714 0 0.988 l 1.588 1.572 c 0.275 0.274 0.714 0.274 0.988 0 l 0.632 -0.632 c 0.229 0.114 0.467 0.209 0.713 0.292 l 0 0.907 c 0 0.388 0.325 0.697 0.713 0.697 l 2.22 0 c 0.388 0 0.697 -0.309 0.697 -0.697 l 0 -0.907 c 0.25 -0.084 0.496 -0.175 0.729 -0.292 l 0.632 0.632 c 0.275 0.274 0.714 0.274 0.988 0 l 1.588 -1.572 c 0.275 -0.275 0.275 -0.714 0 -0.988 l -0.648 -0.648 c 0.114 -0.229 0.209 -0.467 0.292 -0.713 l 0.907 0 c 0.388 0 0.697 -0.309 0.697 -0.697 l 0 -2.236 c 0 -0.388 -0.309 -0.697 -0.697 -0.697 l -0.907 0 c -0.082 -0.245 -0.178 -0.484 -0.292 -0.713 l 0.648 -0.648 c 0.275 -0.275 0.275 -0.714 0 -0.988 l -1.588 -1.572 c -0.275 -0.274 -0.714 -0.274 -0.988 0 l -0.632 0.632 c -0.233 -0.117 -0.479 -0.208 -0.729 -0.292 l 0 -0.907 c 0 -0.388 -0.309 -0.697 -0.697 -0.697 l -2.22 0 z m 1.102 5.185 c 1 0 1.815 0.813 1.815 1.815 0 1 -0.813 1.815 -1.815 1.815 -1 0 -1.815 -0.813 -1.815 -1.815 0 -1 0.813 -1.815 1.815 -1.815 z" style="fill:#fff8e1;opacity:1;fill-opacity:1;display:block;color:#000"/>
 </g>
</svg>
