<svg xmlns="http://www.w3.org/2000/svg" viewBox="0 0 48 48">
 <defs>
  <radialGradient r="24" cy="40.5" cx="24" gradientTransform="matrix(1.25,0,0,0.20833327,-6,1035.9247)" gradientUnits="userSpaceOnUse" id="radialGradient3036">
   <stop style="stop-color:#000;stop-opacity:1"/>
   <stop offset="1" style="stop-color:#000;stop-opacity:0.196"/>
  </radialGradient>
 </defs>
 <g transform="translate(0,-1004.3622)">
  <path d="m 24 1039.36 c -9.827 0 -18.528 0.783 -24 2 l 0 6 c 5.472 1.217 14.173 2 24 2 9.827 0 18.528 -0.783 24 -2 l 0 -6 c -5.472 -1.217 -14.173 -2 -24 -2 z" style="fill:url(#radialGradient3036);opacity:0.1;fill-opacity:1;stroke:none"/>
  <rect width="46" height="32" x="1" y="1014.36" rx="5" style="fill:#f57c00;fill-opacity:1;stroke:none"/>
  <path d="m 6 1014.36 c -2.77 0 -5 2.23 -5 5 l 0 2 c 0 -2.77 2.23 -5 5 -5 l 36 0 c 2.77 0 5 2.23 5 5 l 0 -2 c 0 -2.77 -2.23 -5 -5 -5 l -36 0 z" style="fill:#fff;opacity:0.2;fill-opacity:1;stroke:none"/>
  <path d="m 6 1022.36 8 0 c 11 -1 9 -12 16 -12 l 12 0 c 2.77 0 5 2.23 5 5 l 0 26 c 0 2.77 -2.23 5 -5 5 l -36 0 c -2.77 0 -5 -2.23 -5 -5 l 0 -14 c 0 -3 2 -5 5 -5 z" style="fill:#ffb300;fill-opacity:1;stroke:none"/>
  <path d="m 1 1039.36 0 2 c 0 2.77 2.23 5 5 5 l 36 0 c 2.77 0 5 -2.23 5 -5 l 0 -2 c 0 2.77 -2.23 5 -5 5 l -36 0 c -2.77 0 -5 -2.23 -5 -5 z" style="fill:#000;opacity:0.15;fill-opacity:1;stroke:none"/>
  <g transform="translate(-83.5,11.000015)" style="fill:#fff8e1;fill-opacity:1"/>
  <path d="m 14 23 c -1.108 0 -2 0.892 -2 2 l 0 3 l -2 0 c -0.75 0 -0.75 0 0 0.75 l 3.25 4.25 c 0.75 0.75 0.75 0.75 1.5 0 l 3.25 -4.25 c 0.75 -0.75 0.75 -0.75 0 -0.75 l -2 0 l 0 -3 c 0 -1.108 -0.892 -2 -2 -2 z m -6 7 c -0.554 0 -1 0.446 -1 1 l 0 5 c 0 0.288 0.112 0.537 0.281 0.719 c 0.157 0.169 0.361 0.281 0.594 0.281 l 0.125 0 l 12 0 l 0.125 0 c 0.233 0 0.437 -0.113 0.594 -0.281 c 0.169 -0.182 0.281 -0.431 0.281 -0.719 l 0 -5 c 0 -0.554 -0.446 -1 -1 -1 c -0.554 0 -1 0.446 -1 1 l 0 4 l -10 0 l 0 -4 c 0 -0.554 -0.446 -1 -1 -1 z" transform="translate(0,1004.3622)" style="fill:#000;fill-opacity:0.094;stroke:none"/>
  <g>
   <rect ry="1" rx="0.875" y="1038.36" x="7" height="2" width="14" style="fill:#fff8e1;fill-opacity:1;stroke:none"/>
   <rect transform="matrix(0,1,-1,0,0,0)" width="7" height="2" x="1033.36" y="-9" rx="1" style="fill:#fff8e1;fill-opacity:1;stroke:none"/>
   <rect rx="1" y="-21" x="1033.36" height="2" width="7" transform="matrix(0,1,-1,0,0,0)" style="fill:#fff8e1;fill-opacity:1;stroke:none"/>
   <path d="m 14.75 1036.36 c -0.75 0.75 -0.75 0.75 -1.5 0 l -3.25 -4.25 c -0.75 -0.75 -0.75 -0.75 0 -0.75 l 8 0 c 0.75 0 0.75 0 0 0.75 z" style="fill:#fff8e1;fill-opacity:1;stroke:none"/>
   <path d="m 14 1026.36 c -1.108 0 -2 0.892 -2 2 l 0 5 4 0 0 -5 c 0 -1.108 -0.892 -2 -2 -2 z" style="fill:#fff8e1;fill-opacity:1;stroke:none"/>
  </g>
 </g>
</svg>
