<svg xmlns="http://www.w3.org/2000/svg" viewBox="0 0 48 48">
 <defs>
  <radialGradient r="24" cy="40.5" cx="24" gradientTransform="matrix(1.25,0,0,0.20833327,-6,1035.9247)" gradientUnits="userSpaceOnUse" id="radialGradient3963">
   <stop style="stop-color:#000;stop-opacity:1"/>
   <stop offset="1" style="stop-color:#000;stop-opacity:0.196"/>
  </radialGradient>
 </defs>
 <g transform="translate(0,-1004.3622)">
  <path d="m 24 1039.36 c -9.827 0 -18.528 0.783 -24 2 l 0 6 c 5.472 1.217 14.173 2 24 2 9.827 0 18.528 -0.783 24 -2 l 0 -6 c -5.472 -1.217 -14.173 -2 -24 -2 z" style="fill:url(#radialGradient3963);opacity:0.1;fill-opacity:1;stroke:none"/>
  <rect width="46" height="32" x="1" y="1014.36" rx="5" style="fill:#f57c00;fill-opacity:1;stroke:none"/>
  <path d="m 6 1014.36 c -2.77 0 -5 2.23 -5 5 l 0 2 c 0 -2.77 2.23 -5 5 -5 l 36 0 c 2.77 0 5 2.23 5 5 l 0 -2 c 0 -2.77 -2.23 -5 -5 -5 l -36 0 z" style="fill:#fff;opacity:0.2;fill-opacity:1;stroke:none"/>
  <path d="m 6 1022.36 8 0 c 11 -1 9 -12 16 -12 l 12 0 c 2.77 0 5 2.23 5 5 l 0 26 c 0 2.77 -2.23 5 -5 5 l -36 0 c -2.77 0 -5 -2.23 -5 -5 l 0 -14 c 0 -3 2 -5 5 -5 z" style="fill:#ffb300;fill-opacity:1;stroke:none"/>
  <path d="m 1 1039.36 0 2 c 0 2.77 2.23 5 5 5 l 36 0 c 2.77 0 5 -2.23 5 -5 l 0 -2 c 0 2.77 -2.23 5 -5 5 l -36 0 c -2.77 0 -5 -2.23 -5 -5 z" style="fill:#000;opacity:0.15;fill-opacity:1;stroke:none"/>
  <path d="m 7 1027.36 0 4 4 0 -1.254 -1.129 c 0.895 -0.703 2.028 -1.121 3.254 -1.121 2.899 0 5.25 2.351 5.25 5.25 0 2.899 -2.351 5.25 -5.25 5.25 -2.899 0 -5.25 -2.351 -5.25 -5.25 0 -0.613 0.157 -1.453 0.35 -2 l -1.832 0 c -0.143 0.558 -0.268 1.397 -0.268 2 0 3.866 3.134 7 7 7 3.866 0 7 -3.134 7 -7 0 -3.866 -3.134 -7 -7 -7 -1.712 0 -3.295 0.592 -4.512 1.613 z m 5.918 2.598 c -0.037 0.01 -0.074 0.016 -0.109 0.027 -0.391 0.088 -0.693 0.474 -0.684 0.875 l 0 3.227 c -0.001 0.027 -0.001 0.055 0 0.082 -0.051 0.222 -0.011 0.463 0.109 0.656 0.009 0.01 0.018 0.018 0.027 0.027 0.008 0.018 0.018 0.036 0.027 0.054 0.009 0.01 0.018 0.018 0.027 0.027 0.009 0.01 0.018 0.018 0.027 0.027 0.009 0.01 0.018 0.018 0.027 0.027 0.009 0.01 0.018 0.018 0.027 0.027 0.018 0.01 0.036 0.019 0.055 0.027 0.009 0.01 0.018 0.018 0.027 0.027 0.009 0.01 0.018 0.018 0.027 0.027 0.018 0.01 0.036 0.019 0.055 0.027 0.035 0.021 0.072 0.039 0.109 0.054 l 2.16 1.258 c 0.401 0.233 0.978 0.078 1.208 -0.325 0.23 -0.403 0.071 -0.979 -0.333 -1.206 l -1.832 -1.066 0 -2.98 c 0.018 -0.496 -0.463 -0.949 -0.957 -0.902 z" style="fill:#000;fill-opacity:0.098;color:#000"/>
  <path d="m 7 1026.36 0 4 4 0 -1.254 -1.129 c 0.895 -0.703 2.028 -1.121 3.254 -1.121 2.899 0 5.25 2.351 5.25 5.25 0 2.899 -2.351 5.25 -5.25 5.25 -2.899 0 -5.25 -2.351 -5.25 -5.25 0 -0.613 0.157 -1.453 0.35 -2 l -1.832 0 c -0.143 0.558 -0.268 1.397 -0.268 2 0 3.866 3.134 7 7 7 3.866 0 7 -3.134 7 -7 0 -3.866 -3.134 -7 -7 -7 -1.712 0 -3.295 0.592 -4.512 1.613 z m 5.918 2.598 c -0.037 0.01 -0.074 0.016 -0.109 0.027 -0.391 0.088 -0.693 0.474 -0.684 0.875 l 0 3.227 c -0.001 0.027 -0.001 0.055 0 0.082 -0.051 0.222 -0.011 0.463 0.109 0.656 0.009 0.01 0.018 0.018 0.027 0.027 0.008 0.018 0.018 0.036 0.027 0.054 0.009 0.01 0.018 0.018 0.027 0.027 0.009 0.01 0.018 0.018 0.027 0.027 0.009 0.01 0.018 0.018 0.027 0.027 0.009 0.01 0.018 0.018 0.027 0.027 0.018 0.01 0.036 0.019 0.055 0.027 0.009 0.01 0.018 0.018 0.027 0.027 0.009 0.01 0.018 0.018 0.027 0.027 0.018 0.01 0.036 0.019 0.055 0.027 0.035 0.021 0.072 0.039 0.109 0.054 l 2.16 1.258 c 0.401 0.233 0.978 0.078 1.208 -0.325 0.23 -0.403 0.071 -0.979 -0.333 -1.206 l -1.832 -1.066 0 -2.98 c 0.018 -0.496 -0.463 -0.949 -0.957 -0.902 z" style="fill:#fff8e1;fill-opacity:1;color:#000"/>
 </g>
</svg>
