<svg xmlns="http://www.w3.org/2000/svg" viewBox="0 0 48 48">
 <defs>
  <radialGradient id="radialGradient3073" gradientUnits="userSpaceOnUse" gradientTransform="matrix(1.25,0,0,0.20833327,-6,31.562508)" cx="24" cy="40.5" r="24">
   <stop style="stop-color:#000;stop-opacity:1"/>
   <stop offset="1" style="stop-color:#000;stop-opacity:0.196"/>
  </radialGradient>
 </defs>
 <g transform="translate(0,-1004.3622)">
  <path d="m 24 35 c -9.827 0 -18.528 0.783 -24 2 l 0 6 c 5.472 1.217 14.173 2 24 2 c 9.827 0 18.528 -0.783 24 -2 l 0 -6 c -5.472 -1.217 -14.173 -2 -24 -2 z" transform="translate(0,1004.3622)" style="fill:url(#radialGradient3073);opacity:0.1;fill-opacity:1;stroke:none"/>
  <rect width="46" height="32" x="1" y="1014.36" rx="5" style="fill:#f57c00;fill-opacity:1;stroke:none"/>
  <path d="m 6 1014.36 c -2.77 0 -5 2.23 -5 5 l 0 2 c 0 -2.77 2.23 -5 5 -5 l 36 0 c 2.77 0 5 2.23 5 5 l 0 -2 c 0 -2.77 -2.23 -5 -5 -5 l -36 0 z" style="fill:#fff;opacity:0.2;fill-opacity:1;stroke:none"/>
  <path d="m 6 1022.36 8 0 c 11 -1 9 -12 16 -12 l 12 0 c 2.77 0 5 2.23 5 5 l 0 26 c 0 2.77 -2.23 5 -5 5 l -36 0 c -2.77 0 -5 -2.23 -5 -5 l 0 -14 c 0 -3 2 -5 5 -5 z" style="fill:#ffb300;fill-opacity:1;stroke:none"/>
  <path d="m 1 1039.36 0 2 c 0 2.77 2.23 5 5 5 l 36 0 c 2.77 0 5 -2.23 5 -5 l 0 -2 c 0 2.77 -2.23 5 -5 5 l -36 0 c -2.77 0 -5 -2.23 -5 -5 z" style="fill:#000;opacity:0.15;fill-opacity:1;stroke:none"/>
  <path d="m 14 1041.36 0 -9.25 -2 0 0 9.25 z m -3 -9.625 -5 -3.5 0 8.75 5 3.5 z m 9 5.25 0 -8.75 -5 3.5 0 8.75 z m -0.875 -9.625 c -2.625 0 -4.375 0.875 -6.125 2.333 -1.75 -1.458 -3.5 -2.333 -6.125 -2.333 l 5.125 3.5 1.875 0 z" style="fill:#000;fill-opacity:0.098;stroke:none;fill-rule:nonzero"/>
  <path d="m 14 1040.36 0 -9.25 -2 0 0 9.25 z m -3 -9.625 -5 -3.5 0 8.75 5 3.5 z m 9 5.25 0 -8.75 -5 3.5 0 8.75 z m -0.875 -9.625 c -2.625 0 -4.375 0.875 -6.125 2.333 -1.75 -1.458 -3.5 -2.333 -6.125 -2.333 l 5.125 3.5 1.875 0 z" style="fill:#fff8e1;fill-opacity:1;stroke:none;fill-rule:nonzero"/>
 </g>
</svg>
