<svg xmlns="http://www.w3.org/2000/svg" viewBox="0 0 48 48">
 <defs>
  <radialGradient r="24" cy="40.5" cx="24" gradientTransform="matrix(1.25,0,0,0.20833327,-6,1035.9247)" gradientUnits="userSpaceOnUse" id="radialGradient3097">
   <stop style="stop-color:#000;stop-opacity:1"/>
   <stop offset="1" style="stop-color:#000;stop-opacity:0.196"/>
  </radialGradient>
 </defs>
 <g transform="translate(0,-1004.3622)">
  <path d="m 24 1039.36 c -9.827 0 -18.528 0.783 -24 2 l 0 6 c 5.472 1.217 14.173 2 24 2 9.827 0 18.528 -0.783 24 -2 l 0 -6 c -5.472 -1.217 -14.173 -2 -24 -2 z" style="fill:url(#radialGradient3097);opacity:0.1;fill-opacity:1;stroke:none"/>
  <rect width="46" height="32" x="1" y="1014.36" rx="5" style="fill:#388e3c;fill-opacity:1;stroke:none"/>
  <path d="m 6 1014.36 c -2.77 0 -5 2.23 -5 5 l 0 2 c 0 -2.77 2.23 -5 5 -5 l 36 0 c 2.77 0 5 2.23 5 5 l 0 -2 c 0 -2.77 -2.23 -5 -5 -5 l -36 0 z" style="fill:#fff;opacity:0.2;fill-opacity:1;stroke:none"/>
  <path d="m 6 1022.36 8 0 c 11 -1 9 -12 16 -12 l 12 0 c 2.77 0 5 2.23 5 5 l 0 26 c 0 2.77 -2.23 5 -5 5 l -36 0 c -2.77 0 -5 -2.23 -5 -5 l 0 -14 c 0 -3 2 -5 5 -5 z" style="fill:#66bb6a;fill-opacity:1;stroke:none"/>
  <path d="m 1 1039.36 0 2 c 0 2.77 2.23 5 5 5 l 36 0 c 2.77 0 5 -2.23 5 -5 l 0 -2 c 0 2.77 -2.23 5 -5 5 l -36 0 c -2.77 0 -5 -2.23 -5 -5 z" style="fill:#000;opacity:0.15;fill-opacity:1;stroke:none"/>
  <path d="m 17.469 1028.46 c -1.777 0 -3.25 1.408 -3.25 3.125 0 0.568 0.19 1.07 0.469 1.531 l 0 3.406 c -0.352 0.07 -0.663 0.23 -0.938 0.438 l -3.219 -1.406 c -0.018 -1.21 -1.055 -2.188 -2.313 -2.188 -1.266 0 -2.281 0.994 -2.281 2.219 0 1.227 1.014 2.219 2.281 2.219 0.523 0 1.018 -0.182 1.406 -0.469 l 3.219 1.406 c 0.018 1.212 1.057 2.188 2.313 2.188 1.269 0 2.313 -0.992 2.313 -2.219 0 -0.501 -0.177 -0.97 -0.469 -1.344 l 1.719 -2.906 c 1.158 -0.477 1.969 -1.587 1.969 -2.875 0 -1.715 -1.444 -3.125 -3.219 -3.125 z m 0 1.031 c 1.194 0 2.125 0.94 2.125 2.094 0 1.156 -0.932 2.063 -2.125 2.063 -1.195 0 -2.156 -0.907 -2.156 -2.063 0 -1.153 0.961 -2.094 2.156 -2.094 z m -0.281 0.75 c -0.63 0.125 -1.125 0.664 -1.125 1.313 0 0.738 0.643 1.344 1.406 1.344 0.766 0 1.375 -0.605 1.375 -1.344 0 -0.741 -0.609 -1.313 -1.375 -1.313 -0.095 0 -0.191 -0.018 -0.281 0 z m -8.969 4 c 0.743 0 1.198 0.3 1.344 0.875 l -0.813 -0.344 c -0.524 -0.215 -1.122 0.023 -1.344 0.531 -0.222 0.506 0.008 1.1 0.531 1.313 l 0.594 0.25 c -0.102 0.014 -0.196 0.062 -0.313 0.062 -0.923 0 -1.375 -0.45 -1.375 -1.344 0 -0.892 0.452 -1.344 1.375 -1.344 z m 6.625 3 c 0.1 -0.02 0.206 0 0.313 0 0.854 0 1.531 0.644 1.531 1.469 0 0.825 -0.677 1.469 -1.531 1.469 -0.706 0 -1.288 -0.438 -1.469 -1.063 l 1.094 0.469 c 0.524 0.215 1.153 0.01 1.375 -0.5 0.222 -0.506 -0.039 -1.1 -0.563 -1.313 l -1 -0.438 c 0.083 -0.032 0.16 -0.076 0.25 -0.094 z" style="fill:#000;fill-opacity:0.098;stroke:none;fill-rule:nonzero"/>
  <g transform="matrix(0.56791489,0,0,0.56791489,-0.3197004,1020.6265)" style="fill:#fff8e1;fill-opacity:1">
   <g>
    <!-- color: #3d3d3d -->
    <g>
     <path d="m 31.31 12 c -3.129 0 -5.691 2.477 -5.691 5.5 0 3.02 2.566 5.504 5.691 5.504 3.125 0 5.688 -2.48 5.688 -5.504 0 -3.02 -2.563 -5.5 -5.688 -5.5 m 0 1.848 c 2.102 0 3.777 1.621 3.777 3.652 0 2.035 -1.676 3.656 -3.777 3.656 -2.105 0 -3.781 -1.621 -3.781 -3.656 0 -2.031 1.676 -3.652 3.781 -3.652 m 0 0" style="stroke:none;fill-rule:nonzero"/>
     <path d="m 33.746 17.496 c 0 1.301 -1.09 2.355 -2.438 2.355 -1.344 0 -2.438 -1.055 -2.438 -2.355 0 -1.305 1.094 -2.359 2.438 -2.359 1.348 0 2.438 1.055 2.438 2.359 m 0 0" style="stroke:none;fill-rule:nonzero"/>
     <path d="m 26.434 19.852 0 7.07 4.063 0.785 3.473 -5.867 -3.625 0 m -3.91 -1.992" style="stroke:none;fill-rule:nonzero"/>
     <path d="m 27.25 26.14 c -2.23 0 -4.063 1.77 -4.063 3.93 0 2.16 1.832 3.93 4.063 3.93 2.234 0 4.066 -1.77 4.066 -3.93 0 -2.16 -1.832 -3.93 -4.066 -3.93 m 0 1.32 c 1.504 0 2.699 1.156 2.699 2.609 0 1.453 -1.195 2.609 -2.699 2.609 -1.5 0 -2.699 -1.156 -2.699 -2.609 0 -1.453 1.199 -2.609 2.699 -2.609 m 0 0" style="stroke:none;fill-rule:nonzero"/>
     <path d="m 15.06 20.637 c -2.23 0 -4.063 1.773 -4.063 3.93 0 2.16 1.832 3.934 4.063 3.934 2.234 0 4.066 -1.773 4.066 -3.934 0 -2.156 -1.832 -3.93 -4.066 -3.93 m -0.008 1.574 c 1.629 0 2.441 0.785 2.441 2.355 0 1.574 -0.813 2.359 -2.441 2.359 -1.625 0 -2.438 -0.785 -2.438 -2.359 0 -1.57 0.813 -2.355 2.438 -2.355 m 0 0" style="stroke:none;fill-rule:nonzero"/>
     <path d="m 15.953 23.16 c -0.922 -0.379 -1.984 0.035 -2.375 0.93 -0.391 0.891 0.039 1.922 0.961 2.297 l 12.07 5.25 c 0.922 0.379 1.988 -0.035 2.379 -0.93 0.391 -0.891 -0.039 -1.922 -0.961 -2.297 m -12.08 -5.25" style="stroke:none;fill-rule:nonzero"/>
    </g>
   </g>
  </g>
 </g>
</svg>
