<svg xmlns="http://www.w3.org/2000/svg" viewBox="0 0 48 48">
 <rect rx="2.283" width="21" style="fill:#e65100;fill-opacity:1;stroke:none" ry="2.344" x="6" y="10.998" height="15"/>
 <path style="fill:#fff;opacity:0.1;fill-opacity:1;stroke:none" d="m 8.283 10.998 c -1.265 0 -2.283 1 -2.283 2.5 l 0 1 c 0 -1.385 1.018 -2.5 2.283 -2.5 l 16.435 0 c 1.265 0 2.283 1.115 2.283 2.5 l 0 -1 c 0 -1.385 -1.018 -2.5 -2.283 -2.5 z"/>
 <path style="fill:#f57c00;fill-opacity:1;stroke:none" d="m 8.283 14.998 3.652 0 c 5.02 -0.472 4.109 -6 7.304 -6 l 5.478 0 c 1.265 0 2.283 1.053 2.283 2.361 l 0 12.278 c 0 1.308 -1.018 2.361 -2.283 2.361 l -16.435 0 c -1.265 0 -2.283 -1.053 -2.283 -2.361 l 0 -6.611 c 0 -1.417 0.913 -2.028 2.283 -2.028 z"/>
 <path style="fill:#000;opacity:0.075;fill-opacity:1;stroke:none" d="m 6,22.8078 0,0.913 c 0,1.265 1.018,2.283 2.283,2.283 l 16.435,0 c 1.265,0 2.283,-1.018 2.283,-2.283 l 0,-0.913 c 0,1.265 -1.018,2.196 -2.283,2.196 l -16.435,0 C 7.018,25.0038 6,24.0728 6,22.8078 Z"/>
 <path style="fill:#fff;opacity:0.5;fill-opacity:1;stroke:none" d="m 19.238 8.998 c -1.284 0 -1.906 0.901 -2.516 2 l -8.439 0 c -0.58 0 -1.102 0.218 -1.504 0.59 c -0.037 0.033 -0.077 0.062 -0.111 0.098 c -0.412 0.424 -0.668 1.01 -0.668 1.656 l 0 0.156 l 0 1 l 0 2.506 c 0 0.008 -0.002 0.014 -0.002 0.021 l 0 6.611 c 0 0.006 0.002 0.012 0.002 0.018 c 0 0.001 0 0.001 0 0.002 l 0 0.064 c 0 1.265 1.018 2.283 2.283 2.283 l 16.436 0 c 1.265 0 2.283 -1.018 2.283 -2.283 l 0 -0.912 c 0 0.007 -0.002 0.013 -0.002 0.02 l 0 -8.352 c 0 0.007 0.002 0.014 0.002 0.021 l 0 -1 c 0 -0.007 -0.002 -0.014 -0.002 -0.021 l 0 -0.135 l 0 -1.982 c 0 -1.308 -1.018 -2.361 -2.283 -2.361 l -5.479 0 z"/>
 <rect rx="2.283" width="21" style="fill:#e65100;fill-opacity:1;stroke:none" ry="2.344" x="21" y="23.998" height="15"/>
 <path style="fill:#fff;opacity:0.2;fill-opacity:1;stroke:none" d="m 23.283 23.998 c -1.265 0 -2.283 1 -2.283 2.5 l 0 1 c 0 -1.385 1.018 -2.5 2.283 -2.5 l 16.435 0 c 1.265 0 2.283 1.115 2.283 2.5 l 0 -1 c 0 -1.385 -1.018 -2.5 -2.283 -2.5 z"/>
 <path style="fill:#f57c00;fill-opacity:1;stroke:none" d="m 23.283 27.998 3.652 0 c 5.02 -0.472 4.109 -6 7.304 -6 l 5.478 0 c 1.265 0 2.283 1.053 2.283 2.361 l 0 12.278 c 0 1.308 -1.018 2.361 -2.283 2.361 l -16.435 0 c -1.265 0 -2.283 -1.053 -2.283 -2.361 l 0 -6.611 c 0 -1.417 0.913 -2.028 2.283 -2.028 z"/>
 <path style="fill:#000;opacity:0.15;fill-opacity:1;stroke:none" d="m 21 35.808 0 0.913 c 0 1.265 1.018 2.283 2.283 2.283 l 16.435 0 c 1.265 0 2.283 -1.018 2.283 -2.283 l 0 -0.913 c 0 1.265 -1.018 2.196 -2.283 2.196 l -16.435 0 c -1.265 0 -2.283 -0.931 -2.283 -2.196 z"/>
</svg>
