<svg xmlns="http://www.w3.org/2000/svg" viewBox="0 0 48 48">
 <defs>
  <radialGradient r="24" cy="40.5" cx="24" gradientTransform="matrix(1.25,0,0,0.20833327,-6,1035.9247)" gradientUnits="userSpaceOnUse" id="radialGradient3063">
   <stop style="stop-color:#000;stop-opacity:1"/>
   <stop offset="1" style="stop-color:#000;stop-opacity:0.196"/>
  </radialGradient>
 </defs>
 <g transform="translate(0,-1004.3622)">
  <path d="m 24 1039.36 c -9.827 0 -18.528 0.783 -24 2 l 0 6 c 5.472 1.217 14.173 2 24 2 9.827 0 18.528 -0.783 24 -2 l 0 -6 c -5.472 -1.217 -14.173 -2 -24 -2 z" style="fill:url(#radialGradient3063);opacity:0.1;fill-opacity:1;stroke:none"/>
  <rect width="46" height="32" x="1" y="1014.36" rx="5" style="fill:#e65100;fill-opacity:1;stroke:none"/>
  <path d="m 6 1014.36 c -2.77 0 -5 2.23 -5 5 l 0 2 c 0 -2.77 2.23 -5 5 -5 l 36 0 c 2.77 0 5 2.23 5 5 l 0 -2 c 0 -2.77 -2.23 -5 -5 -5 l -36 0 z" style="fill:#fff;opacity:0.2;fill-opacity:1;stroke:none"/>
  <path d="m 6 1022.36 8 0 c 11 -1 9 -12 16 -12 l 12 0 c 2.77 0 5 2.23 5 5 l 0 26 c 0 2.77 -2.23 5 -5 5 l -36 0 c -2.77 0 -5 -2.23 -5 -5 l 0 -14 c 0 -3 2 -5 5 -5 z" style="fill:#f57c00;fill-opacity:1;stroke:none"/>
  <path d="m 1 1039.36 0 2 c 0 2.77 2.23 5 5 5 l 36 0 c 2.77 0 5 -2.23 5 -5 l 0 -2 c 0 2.77 -2.23 5 -5 5 l -36 0 c -2.77 0 -5 -2.23 -5 -5 z" style="fill:#000;opacity:0.15;fill-opacity:1;stroke:none"/>
  <path d="m 18.579 1028.78 c -1.895 -1.895 -4.958 -1.883 -6.852 0.014 -1.611 1.611 -1.852 4.064 -0.726 5.928 l -4.674 4.675 c -0.436 0.436 -0.436 1.134 0 1.57 l 0.07 0.07 c 0.436 0.436 1.134 0.436 1.57 0 l 4.674 -4.675 c 1.866 1.129 4.328 0.897 5.939 -0.715 1.895 -1.895 1.895 -4.971 0 -6.866 z m -1.066 1.066 c 1.303 1.303 1.303 3.43 0 4.734 -1.291 1.291 -3.38 1.291 -4.685 0.024 l -0.035 -0.035 c -0.012 -0.014 -0.024 -0.024 -0.035 -0.036 -1.268 -1.306 -1.256 -3.383 0.035 -4.675 1.303 -1.304 3.417 -1.315 4.72 -0.014 z" style="fill:#000;fill-opacity:0.098;color:#000"/>
  <path d="m 18.579 1027.78 c -1.895 -1.895 -4.958 -1.883 -6.852 0.014 -1.611 1.611 -1.852 4.064 -0.726 5.928 l -4.674 4.675 c -0.436 0.436 -0.436 1.134 0 1.57 l 0.07 0.07 c 0.436 0.436 1.134 0.436 1.57 0 l 4.674 -4.675 c 1.866 1.129 4.328 0.897 5.939 -0.715 1.895 -1.895 1.895 -4.971 0 -6.866 z m -1.066 1.066 c 1.303 1.303 1.303 3.43 0 4.734 -1.291 1.291 -3.38 1.291 -4.685 0.024 l -0.035 -0.035 c -0.012 -0.014 -0.024 -0.024 -0.035 -0.036 -1.268 -1.306 -1.256 -3.383 0.035 -4.675 1.303 -1.304 3.417 -1.315 4.72 -0.014 z" style="fill:#fff8e1;opacity:1;fill-opacity:1;color:#000"/>
 </g>
</svg>
