<svg xmlns="http://www.w3.org/2000/svg" viewBox="0 0 48 48">
 <defs>
  <radialGradient r="24" cy="40.5" cx="24" gradientTransform="matrix(1.25,0,0,0.20833327,-6,1035.9247)" gradientUnits="userSpaceOnUse" id="radialGradient3235">
   <stop style="stop-color:#000;stop-opacity:1"/>
   <stop offset="1" style="stop-color:#000;stop-opacity:0.196"/>
  </radialGradient>
 </defs>
 <g transform="translate(0,-1004.3622)">
  <path d="m 24 1039.36 c -9.827 0 -18.528 0.783 -24 2 l 0 6 c 5.472 1.217 14.173 2 24 2 9.827 0 18.528 -0.783 24 -2 l 0 -6 c -5.472 -1.217 -14.173 -2 -24 -2 z" style="fill:url(#radialGradient3235);opacity:0.1;fill-opacity:1;stroke:none"/>
  <rect width="46" height="32" x="1" y="1014.36" rx="5" style="fill:#ec407a;fill-opacity:1;stroke:none"/>
  <path d="m 6 1014.36 c -2.77 0 -5 2.23 -5 5 l 0 2 c 0 -2.77 2.23 -5 5 -5 l 36 0 c 2.77 0 5 2.23 5 5 l 0 -2 c 0 -2.77 -2.23 -5 -5 -5 l -36 0 z" style="fill:#fff;opacity:0.2;fill-opacity:1;stroke:none"/>
  <path d="m 6 1022.36 8 0 c 11 -1 9 -12 16 -12 l 12 0 c 2.77 0 5 2.23 5 5 l 0 26 c 0 2.77 -2.23 5 -5 5 l -36 0 c -2.77 0 -5 -2.23 -5 -5 l 0 -14 c 0 -3 2 -5 5 -5 z" style="fill:#f06292;fill-opacity:1;stroke:none"/>
  <path d="m 1 1039.36 0 2 c 0 2.77 2.23 5 5 5 l 36 0 c 2.77 0 5 -2.23 5 -5 l 0 -2 c 0 2.77 -2.23 5 -5 5 l -36 0 c -2.77 0 -5 -2.23 -5 -5 z" style="fill:#000;opacity:0.15;fill-opacity:1;stroke:none"/>
  <g transform="translate(5,1025.3622)" style="fill:#000;fill-opacity:0.098">
   <path d="m 3 2 c -1.108 0 -2 0.892 -2 2 l 0 10 c 0 1.108 0.892 2 2 2 l 10 0 c 1.108 0 2 -0.892 2 -2 l 0 -10 c 0 -1.108 -0.892 -2 -2 -2 z m 1 1 c 0.552 0 1 0.448 1 1 0 0.552 -0.448 1 -1 1 -0.552 0 -1 -0.448 -1 -1 0 -0.552 0.448 -1 1 -1 z m 8 0 c 0.552 0 1 0.448 1 1 0 0.552 -0.448 1 -1 1 c -0.552 0 -1 -0.448 -1 -1 0 -0.552 0.448 -1 1 -1 z m -4 1 c 1.657 0 3 1.343 3 3 0 1.657 -1.343 3 -3 3 c -1.657 0 -3 -1.343 -3 -3 0 -1.657 1.343 -3 3 -3 z m -4 5 c 0.552 0 1 0.448 1 1 0 0.552 -0.448 1 -1 1 -0.552 0 -1 -0.448 -1 -1 0 -0.552 0.448 -1 1 -1 z m 8 0 c 0.552 0 1 0.448 1 1 0 0.552 -0.448 1 -1 1 -0.552 0 -1 -0.448 -1 -1 0 -0.552 0.448 -1 1 -1 z m -8.5 5 9 0 c 0.277 0 0.5 0.223 0.5 0.5 0 0.277 -0.223 0.5 -0.5 0.5 l -9 0 c -0.277 0 -0.5 -0.223 -0.5 -0.5 0 -0.277 0.223 -0.5 0.5 -0.5 z" style="fill:#000;fill-opacity:0.098;stroke:none"/>
   <path transform="matrix(0.51179914,0,0,0.41337621,10.830688,4.5398266)" d="m -3.577 5.951 c 0 1.336 -0.875 2.419 -1.954 2.419 -1.079 0 -1.954 -1.083 -1.954 -2.419 0 -1.336 0.875 -2.419 1.954 -2.419 1.079 0 1.954 1.083 1.954 2.419 z" style="fill:#000;fill-opacity:0.098;stroke:none"/>
  </g>
  <g transform="translate(5,1024.3622)" style="fill:#fff8e1;opacity:1;fill-opacity:1">
   <path d="m 3 2 c -1.108 0 -2 0.892 -2 2 l 0 10 c 0 1.108 0.892 2 2 2 l 10 0 c 1.108 0 2 -0.892 2 -2 l 0 -10 c 0 -1.108 -0.892 -2 -2 -2 z m 1 1 c 0.552 0 1 0.448 1 1 0 0.552 -0.448 1 -1 1 -0.552 0 -1 -0.448 -1 -1 0 -0.552 0.448 -1 1 -1 z m 8 0 c 0.552 0 1 0.448 1 1 0 0.552 -0.448 1 -1 1 c -0.552 0 -1 -0.448 -1 -1 0 -0.552 0.448 -1 1 -1 z m -4 1 c 1.657 0 3 1.343 3 3 0 1.657 -1.343 3 -3 3 c -1.657 0 -3 -1.343 -3 -3 0 -1.657 1.343 -3 3 -3 z m -4 5 c 0.552 0 1 0.448 1 1 0 0.552 -0.448 1 -1 1 -0.552 0 -1 -0.448 -1 -1 0 -0.552 0.448 -1 1 -1 z m 8 0 c 0.552 0 1 0.448 1 1 0 0.552 -0.448 1 -1 1 -0.552 0 -1 -0.448 -1 -1 0 -0.552 0.448 -1 1 -1 z m -8.5 5 9 0 c 0.277 0 0.5 0.223 0.5 0.5 0 0.277 -0.223 0.5 -0.5 0.5 l -9 0 c -0.277 0 -0.5 -0.223 -0.5 -0.5 0 -0.277 0.223 -0.5 0.5 -0.5 z" style="stroke:none"/>
   <path d="m -3.577 5.951 a 1.954 2.419 0 1 1 -3.908 0 1.954 2.419 0 1 1 3.908 0 z" transform="matrix(0.51179914,0,0,0.41337621,10.830688,4.5398266)" style="stroke:none"/>
  </g>
 </g>
</svg>
