<svg xmlns="http://www.w3.org/2000/svg" viewBox="0 0 48 48">
 <defs>
  <radialGradient r="24" cy="40.5" cx="24" gradientTransform="matrix(1.25,0,0,0.20833327,-6,1035.9247)" gradientUnits="userSpaceOnUse" id="radialGradient3336">
   <stop style="stop-color:#000;stop-opacity:1"/>
   <stop offset="1" style="stop-color:#000;stop-opacity:0.196"/>
  </radialGradient>
 </defs>
 <g transform="translate(0,-1004.3622)">
  <path d="m 24 1039.36 c -9.827 0 -18.528 0.783 -24 2 l 0 6 c 5.472 1.217 14.173 2 24 2 9.827 0 18.528 -0.783 24 -2 l 0 -6 c -5.472 -1.217 -14.173 -2 -24 -2 z" style="fill:url(#radialGradient3336);opacity:0.1;fill-opacity:1;stroke:none"/>
  <rect width="46" height="32" x="1" y="1014.36" rx="5" style="fill:#ec407a;fill-opacity:1;stroke:none"/>
  <path d="m 6 1014.36 c -2.77 0 -5 2.23 -5 5 l 0 2 c 0 -2.77 2.23 -5 5 -5 l 36 0 c 2.77 0 5 2.23 5 5 l 0 -2 c 0 -2.77 -2.23 -5 -5 -5 l -36 0 z" style="fill:#fff;opacity:0.2;fill-opacity:1;stroke:none"/>
  <path d="m 6 1022.36 8 0 c 11 -1 9 -12 16 -12 l 12 0 c 2.77 0 5 2.23 5 5 l 0 26 c 0 2.77 -2.23 5 -5 5 l -36 0 c -2.77 0 -5 -2.23 -5 -5 l 0 -14 c 0 -3 2 -5 5 -5 z" style="fill:#f06292;fill-opacity:1;stroke:none"/>
  <path d="m 1 1039.36 0 2 c 0 2.77 2.23 5 5 5 l 36 0 c 2.77 0 5 -2.23 5 -5 l 0 -2 c 0 2.77 -2.23 5 -5 5 l -36 0 c -2.77 0 -5 -2.23 -5 -5 z" style="fill:#000;opacity:0.15;fill-opacity:1;stroke:none"/>
  <g transform="matrix(0.875,0,0,0.875,6,1027.3622)" style="fill:#000;fill-opacity:0.098;enable-background:new">
   <path d="m 4.571 4.571 0 3.429 c 0 1.154 1.143 1.143 1.143 1.143 l 2.286 0 c 1 0 1.143 -1.143 1.143 -1.143 l 0 -3.429 l -1.143 -1.143 l -2.286 0 c 0 0 -1.143 0.143 -1.143 1.143 z m 1.143 0 1.143 0 0 1.143 l 1.143 0 0 2.286 -2.286 0 z" style="fill:#000;fill-opacity:0.098"/>
   <path d="m 5.714 13.714 -2.286 2.286 l 9.143 0 -2.286 -2.286 0 -2.286 -4.571 0 z" style="fill:#000;fill-opacity:0.098;stroke:none"/>
   <path d="m 2.286 0 c -1.108 0 -2.286 1.178 -2.286 2.286 l 0 8 c 0 1.108 1.178 2.286 2.286 2.286 l 11.429 0 c 1.108 0 2.286 -1.178 2.286 -2.286 l 0 -8 c 0 -1.108 -1.178 -2.286 -2.286 -2.286 z m 0 2.286 11.429 0 0 8 -11.429 0 z" style="fill:#000;fill-opacity:0.098;stroke:none"/>
  </g>
  <g transform="matrix(0.875,0,0,0.875,6,1026.3622)" style="fill:#fff8e1;opacity:1;fill-opacity:1;enable-background:new">
   <path d="m 4.571 4.571 0 3.429 c 0 1.154 1.143 1.143 1.143 1.143 l 2.286 0 c 1 0 1.143 -1.143 1.143 -1.143 l 0 -3.429 l -1.143 -1.143 l -2.286 0 c 0 0 -1.143 0.143 -1.143 1.143 z m 1.143 0 1.143 0 0 1.143 l 1.143 0 0 2.286 -2.286 0 z"/>
   <path d="m 5.714 13.714 -2.286 2.286 l 9.143 0 -2.286 -2.286 0 -2.286 -4.571 0 z" style="stroke:none"/>
   <path d="m 2.286 0 c -1.108 0 -2.286 1.178 -2.286 2.286 l 0 8 c 0 1.108 1.178 2.286 2.286 2.286 l 11.429 0 c 1.108 0 2.286 -1.178 2.286 -2.286 l 0 -8 c 0 -1.108 -1.178 -2.286 -2.286 -2.286 z m 0 2.286 11.429 0 0 8 -11.429 0 z" style="stroke:none"/>
  </g>
 </g>
</svg>
