<svg xmlns="http://www.w3.org/2000/svg" viewBox="0 0 48 48">
 <defs>
  <radialGradient r="24" cy="40.5" cx="24" gradientTransform="matrix(1.25,0,0,0.20833327,-6,1035.9247)" gradientUnits="userSpaceOnUse" id="radialGradient3237">
   <stop style="stop-color:#000;stop-opacity:1"/>
   <stop offset="1" style="stop-color:#000;stop-opacity:0.196"/>
  </radialGradient>
 </defs>
 <g transform="translate(0,-1004.3622)">
  <path d="m 24 1039.36 c -9.827 0 -18.528 0.783 -24 2 l 0 6 c 5.472 1.217 14.173 2 24 2 9.827 0 18.528 -0.783 24 -2 l 0 -6 c -5.472 -1.217 -14.173 -2 -24 -2 z" style="fill:url(#radialGradient3237);opacity:0.1;fill-opacity:1;stroke:none"/>
  <rect width="46" height="32" x="1" y="1014.36" rx="5" style="fill:#ffb300;fill-opacity:1;stroke:none"/>
  <path d="m 6 1014.36 c -2.77 0 -5 2.23 -5 5 l 0 2 c 0 -2.77 2.23 -5 5 -5 l 36 0 c 2.77 0 5 2.23 5 5 l 0 -2 c 0 -2.77 -2.23 -5 -5 -5 l -36 0 z" style="fill:#fff;opacity:0.2;fill-opacity:1;stroke:none"/>
  <path d="m 6 1022.36 8 0 c 11 -1 9 -12 16 -12 l 12 0 c 2.77 0 5 2.23 5 5 l 0 26 c 0 2.77 -2.23 5 -5 5 l -36 0 c -2.77 0 -5 -2.23 -5 -5 l 0 -14 c 0 -3 2 -5 5 -5 z" style="fill:#ffca28;fill-opacity:1;stroke:none"/>
  <path d="m 1 1039.36 0 2 c 0 2.77 2.23 5 5 5 l 36 0 c 2.77 0 5 -2.23 5 -5 l 0 -2 c 0 2.77 -2.23 5 -5 5 l -36 0 c -2.77 0 -5 -2.23 -5 -5 z" style="fill:#000;opacity:0.15;fill-opacity:1;stroke:none"/>
  <path d="m 18.621 1027.36 c -0.568 0.01 -1.126 0.381 -1.216 1.074 -0.143 1.109 0.93 0.693 1.788 0.693 0.858 0 1.144 1.802 0.93 2.772 -0.215 0.97 -2.495 3.262 -7.651 0.97 -4.245 -1.887 -6.364 0.626 -6.471 0.676 0.402 3.749 3.677 7.814 7.651 7.814 4.245 0 7.687 -4.479 7.687 -8.594 0 -0.473 -0.056 -0.938 -0.143 -1.386 -0.079 -0.226 -0.157 -0.452 -0.215 -0.658 -0.104 -0.369 -0.221 -0.681 -0.322 -0.97 -0.004 -0.01 0.004 -0.025 0 -0.035 -0.406 -0.875 -0.976 -1.666 -1.68 -2.322 -0.003 -0.01 -0.015 0.01 -0.018 0 -0.11 -0.027 -0.226 -0.036 -0.34 -0.035 z" style="fill:#000;fill-opacity:0.098;color:#000"/>
  <path d="m 18.621 1026.36 c -0.568 0.01 -1.126 0.381 -1.216 1.074 -0.143 1.109 0.93 0.693 1.788 0.693 0.858 0 1.144 1.802 0.93 2.772 -0.215 0.97 -2.495 3.262 -7.651 0.97 -4.245 -1.887 -6.364 0.626 -6.471 0.676 0.402 3.749 3.677 7.814 7.651 7.814 4.245 0 7.687 -4.479 7.687 -8.594 0 -0.473 -0.056 -0.938 -0.143 -1.386 -0.079 -0.226 -0.157 -0.452 -0.215 -0.658 -0.104 -0.369 -0.221 -0.681 -0.322 -0.97 -0.004 -0.01 0.004 -0.025 0 -0.035 -0.406 -0.875 -0.976 -1.666 -1.68 -2.322 -0.003 -0.01 -0.015 0.01 -0.018 0 -0.11 -0.027 -0.226 -0.036 -0.34 -0.035 z" style="fill:#fff8e1;opacity:1;fill-opacity:1;color:#000"/>
  <path d="m 18.402 1031.29 c 0 0.428 -0.347 0.775 -0.775 0.775 -0.428 0 -0.775 -0.347 -0.775 -0.775 0 -0.428 0.347 -0.775 0.775 -0.775 0.428 0 0.775 0.347 0.775 0.775 z" style="fill:#000;fill-opacity:0.098;color:#000"/>
  <path d="m 18.402 1030.29 c 0 0.428 -0.347 0.775 -0.775 0.775 -0.428 0 -0.775 -0.347 -0.775 -0.775 0 -0.428 0.347 -0.775 0.775 -0.775 0.428 0 0.775 0.347 0.775 0.775 z" style="fill:#fff8e1;opacity:1;fill-opacity:1;color:#000"/>
  <path d="m 16.08 1028.57 c 0 0.214 -0.174 0.388 -0.388 0.388 -0.214 0 -0.388 -0.174 -0.388 -0.388 0 -0.214 0.174 -0.388 0.388 -0.388 0.214 0 0.388 0.173 0.388 0.388 z" style="fill:#000;fill-opacity:0.098;color:#000"/>
  <path d="m 16.08 1027.57 c 0 0.214 -0.174 0.388 -0.388 0.388 -0.214 0 -0.388 -0.174 -0.388 -0.388 0 -0.214 0.174 -0.388 0.388 -0.388 0.214 0 0.388 0.173 0.388 0.388 z" style="fill:#fff8e1;opacity:1;fill-opacity:1;color:#000"/>
 </g>
</svg>
