<svg xmlns="http://www.w3.org/2000/svg" viewBox="0 0 48 48">
 <g transform="translate(0,-1004.3622)">
  <rect width="21" height="15" x="6" y="1015.36" rx="2.283" ry="2.344" style="fill:#ffb300;fill-opacity:1;stroke:none"/>
  <path d="m 8.283 1015.36 c -1.265 0 -2.283 1 -2.283 2.5 l 0 1 c 0 -1.385 1.018 -2.5 2.283 -2.5 l 16.435 0 c 1.265 0 2.283 1.115 2.283 2.5 l 0 -1 c 0 -1.385 -1.018 -2.5 -2.283 -2.5 z" style="fill:#fff;opacity:0.2;fill-opacity:1;stroke:none"/>
  <path d="m 8.283 1019.36 3.652 0 c 5.02 -0.472 4.109 -6 7.304 -6 l 5.478 0 c 1.265 0 2.283 1.053 2.283 2.361 l 0 12.278 c 0 1.308 -1.018 2.361 -2.283 2.361 l -16.435 0 c -1.265 0 -2.283 -1.053 -2.283 -2.361 l 0 -6.611 c 0 -1.417 0.913 -2.028 2.283 -2.028 z" style="fill:#ffca28;fill-opacity:1;stroke:none"/>
  <path d="m 6 1027.17 0 0.913 c 0 1.265 1.018 2.283 2.283 2.283 l 16.435 0 c 1.265 0 2.283 -1.018 2.283 -2.283 l 0 -0.913 c 0 1.265 -1.018 2.196 -2.283 2.196 l -16.435 0 c -1.265 0 -2.283 -0.931 -2.283 -2.196 z" style="fill:#000;opacity:0.15;fill-opacity:1;stroke:none"/>
  <rect width="21" height="15" x="21" y="1028.36" rx="2.283" ry="2.344" style="fill:#ffb300;fill-opacity:1;stroke:none"/>
  <path d="m 23.283 1028.36 c -1.265 0 -2.283 1 -2.283 2.5 l 0 1 c 0 -1.385 1.018 -2.5 2.283 -2.5 l 16.435 0 c 1.265 0 2.283 1.115 2.283 2.5 l 0 -1 c 0 -1.385 -1.018 -2.5 -2.283 -2.5 z" style="fill:#fff;opacity:0.2;fill-opacity:1;stroke:none"/>
  <path d="m 23.283 1032.36 3.652 0 c 5.02 -0.472 4.109 -6 7.304 -6 l 5.478 0 c 1.265 0 2.283 1.053 2.283 2.361 l 0 12.278 c 0 1.308 -1.018 2.361 -2.283 2.361 l -16.435 0 c -1.265 0 -2.283 -1.053 -2.283 -2.361 l 0 -6.611 c 0 -1.417 0.913 -2.028 2.283 -2.028 z" style="fill:#ffca28;fill-opacity:1;stroke:none"/>
  <path d="m 21 1040.17 0 0.913 c 0 1.265 1.018 2.283 2.283 2.283 l 16.435 0 c 1.265 0 2.283 -1.018 2.283 -2.283 l 0 -0.913 c 0 1.265 -1.018 2.196 -2.283 2.196 l -16.435 0 c -1.265 0 -2.283 -0.931 -2.283 -2.196 z" style="fill:#000;opacity:0.15;fill-opacity:1;stroke:none"/>
 </g>
</svg>
