<svg version="1.1" viewBox="0 0 48 48" xmlns="http://www.w3.org/2000/svg">
 <defs>
  <radialGradient id="radialGradient3092" cx="24" cy="40.5" r="24" gradientTransform="matrix(1.25 0 0 .20833327 -6 1035.9247)" gradientUnits="userSpaceOnUse">
   <stop offset="0"/>
   <stop style="stop-opacity:.196" offset="1"/>
  </radialGradient>
 </defs>
 <g transform="translate(0,-1004.3622)">
  <path d="m24 1039.36c-9.827 0-18.528 0.783-24 2v6c5.472 1.217 14.173 2 24 2s18.528-0.783 24-2v-6c-5.472-1.217-14.173-2-24-2z" style="fill:url(#radialGradient3092);opacity:.1"/>
  <rect x="1" y="1014.36" width="46" height="32" rx="5" style="fill:#ffb300"/>
  <path d="m6 1014.36c-2.77 0-5 2.23-5 5v2c0-2.77 2.23-5 5-5h36c2.77 0 5 2.23 5 5v-2c0-2.77-2.23-5-5-5h-36z" style="fill:#fff;opacity:.2"/>
  <path d="m6 1022.36h8c11-1 9-12 16-12h12c2.77 0 5 2.23 5 5v26c0 2.77-2.23 5-5 5h-36c-2.77 0-5-2.23-5-5v-14c0-3 2-5 5-5z" style="fill:#ffca28"/>
  <path d="m1 1039.36v2c0 2.77 2.23 5 5 5h36c2.77 0 5-2.23 5-5v-2c0 2.77-2.23 5-5 5h-36c-2.77 0-5-2.23-5-5z" style="opacity:.15"/>
  <path d="m13.000322 1027.3622a6.9999996 6.9999996 0 0 0-6.0624998 3.5 6.9999996 6.9999996 0 0 0 0 7 6.9999996 6.9999996 0 0 0 6.0624998 3.5h7v-1h-7a5.9999995 5.9999995 0 0 1-5.1953123-3 5.9999995 5.9999995 0 0 1 0-6 5.9999995 5.9999995 0 0 1 5.1953123-3zm0.123047 2.002a4.9999991 4.9999991 0 0 0-3.658203 1.4628 4.9999991 4.9999991 0 0 0-1.0839844 5.4493 4.9999991 4.9999991 0 0 0 4.6191404 3.0859h7v-1h-7a3.9999991 3.9999991 0 0 1-3.6953123-2.4687 3.9999991 3.9999991 0 0 1 0.8671873-4.3594 3.9999991 3.9999991 0 0 1 4.359375-0.8672 3.9999991 3.9999991 0 0 1 0.46875 0.2383v-1.1192a4.9999991 4.9999991 0 0 0-0.08594-0.043 4.9999991 4.9999991 0 0 0-1.791015-0.3789zm-0.04883 1.998a3 3 0 0 0-2.195312 0.8789 3 3 0 0 0-0.650391 3.2695 3 3 0 0 0 2.771484 1.8516h7v-1h-7a1.9999999 1.9999999 0 0 1-1.847656-1.2344 1.9999999 1.9999999 0 0 1 0.433594-2.1797 1.9999999 1.9999999 0 0 1 2.179687-0.4336 1.9999999 1.9999999 0 0 1 0.966797 0.8477h1.095703a3 3 0 0 0-1.679687-1.7715 3 3 0 0 0-1.074219-0.2285z" style="-inkscape-stroke:none;fill-opacity:.098;font-variation-settings:normal;stop-color:#000000"/>
  <path d="m13.000322 1026.3622a6.9999996 6.9999996 0 0 0-6.0624998 3.5 6.9999996 6.9999996 0 0 0 0 7 6.9999996 6.9999996 0 0 0 6.0624998 3.5h7v-1h-7a5.9999995 5.9999995 0 0 1-5.1953123-3 5.9999995 5.9999995 0 0 1 0-6 5.9999995 5.9999995 0 0 1 5.1953123-3zm0.123047 2.002a4.9999991 4.9999991 0 0 0-3.658203 1.4628 4.9999991 4.9999991 0 0 0-1.0839844 5.4493 4.9999991 4.9999991 0 0 0 4.6191404 3.0859h7v-1h-7a3.9999991 3.9999991 0 0 1-3.6953123-2.4687 3.9999991 3.9999991 0 0 1 0.8671873-4.3594 3.9999991 3.9999991 0 0 1 4.359375-0.8672 3.9999991 3.9999991 0 0 1 0.46875 0.2383v-1.1192a4.9999991 4.9999991 0 0 0-0.08594-0.043 4.9999991 4.9999991 0 0 0-1.791015-0.3789zm-0.04883 1.998a3 3 0 0 0-2.195312 0.8789 3 3 0 0 0-0.650391 3.2695 3 3 0 0 0 2.771484 1.8516h7v-1h-7a1.9999999 1.9999999 0 0 1-1.847656-1.2344 1.9999999 1.9999999 0 0 1 0.433594-2.1797 1.9999999 1.9999999 0 0 1 2.179687-0.4336 1.9999999 1.9999999 0 0 1 0.966797 0.8477h1.095703a3 3 0 0 0-1.679687-1.7715 3 3 0 0 0-1.074219-0.2285z" style="-inkscape-stroke:none;fill:#fff8e1;font-variation-settings:normal;stop-color:#000000"/>
 </g>
</svg>
