<?xml version="1.0" encoding="UTF-8"?>
<svg width="32" height="32" version="1.1" xmlns="http://www.w3.org/2000/svg" xmlns:cc="http://creativecommons.org/ns#" xmlns:dc="http://purl.org/dc/elements/1.1/" xmlns:rdf="http://www.w3.org/1999/02/22-rdf-syntax-ns#" xmlns:xlink="http://www.w3.org/1999/xlink">
 <metadata>
  <rdf:RDF>
   <cc:Work rdf:about="">
    <dc:format>image/svg+xml</dc:format>
    <dc:type rdf:resource="http://purl.org/dc/dcmitype/StillImage"/>
    <dc:title/>
   </cc:Work>
  </rdf:RDF>
 </metadata>
 <defs>
  <radialGradient id="b" cx="417" cy="245.84" r="231.55" gradientTransform="matrix(.062425 0 0 .062425 -10.031 .65324)" gradientUnits="userSpaceOnUse">
   <stop stop-color="#00cef6" offset="0"/>
   <stop stop-color="#009ad5" offset=".6"/>
   <stop stop-color="#0a55da" offset="1"/>
  </radialGradient>
  <linearGradient id="c" x1="417" x2="417" y1="49.971" y2="576.63" gradientTransform="matrix(.058919 0 0 .058919 -8.7286 1.6757)" gradientUnits="userSpaceOnUse">
   <stop stop-color="#f3f3f3" offset="0"/>
   <stop stop-color="#b7b7b7" offset="1"/>
  </linearGradient>
  <linearGradient id="d" x1="417" x2="417" y1="51.538" y2="573.98" gradientTransform="matrix(.058324 0 0 .058324 -8.4802 1.8222)" gradientUnits="userSpaceOnUse">
   <stop stop-color="#f3f3f3" offset="0"/>
   <stop stop-color="#b7b7b7" offset="1"/>
  </linearGradient>
  <linearGradient id="linearGradient863" x1="399.57" x2="399.57" y1="545.8" y2="517.8" gradientTransform="translate(-384.57 -515.8)" gradientUnits="userSpaceOnUse">
   <stop stop-color="#e5e5e5" offset="0"/>
   <stop stop-color="#fdfdfd" offset="1"/>
  </linearGradient>
 </defs>
 <rect x="1" y=".99997" width="30" height="30" rx="8" ry="8" fill="url(#linearGradient863)"/>
 <path class="shp36" d="m16 29c7.1795 0 13-5.8205 13-13 0-7.1795-5.8205-13-13-13-7.1795 0-13 5.8205-13 13 0 7.1795 5.8205 13 13 13z" fill="url(#b)" stroke-width="1.9581"/>
 <path class="shp37" d="m15.84 4.6199v2.1564m2.2466-1.9355-0.41126 2.117m2.5894-1.4559-0.84254 1.9849m2.8328-0.91912-1.2061 1.7876m2.9513-0.35527-1.5248 1.5248m2.9571 0.21976-1.7876 1.2061m2.8604 0.80187-1.9997 0.8078m2.6537 1.3528-2.117 0.41125m2.3379 1.8359h-2.1564m1.9355 2.2466-2.117-0.41126m1.4559 2.5894-1.9849-0.84254m0.91912 2.8328-1.7876-1.2061m0.35527 2.9513-1.5248-1.5248m-0.22036 2.9571-1.2061-1.7876m-0.80128 2.8604-0.8078-1.9997m-1.3534 2.6537-0.41126-2.117m-1.8353 2.3379v-2.1564m-2.2466 1.9355 0.41126-2.117m-2.5894 1.4553 0.84254-1.9849m-2.8328 0.91975 1.2061-1.7876m-2.9513 0.35527 1.5248-1.5248m-2.9571-0.22036 1.7876-1.2061m-2.8535-0.7842 1.9849-0.84254m-2.6461-1.3357 2.117-0.41126m-2.3379-1.8353h2.1564m-1.9355-2.2471 2.117 0.41126m-1.4559-2.5889 1.9849 0.84254m-0.91912-2.8333 1.7876 1.2061m-0.35527-2.9507 1.5248 1.5248m0.22036-2.9571 1.2061 1.7876m0.80128-2.8604 0.8078 1.9997m1.3534-2.6537 0.41126 2.117" fill="none" stroke="url(#c)" stroke-linecap="round" stroke-width=".54194"/>
 <path class="shp38" d="m16.954 4.8281-0.08749 0.86319m2.2751-0.42869-0.25079 0.83051m2.3183 0.025662-0.41758 0.76053m2.2717 0.47885-0.55524 0.66663m2.1329 0.90982-0.67246 0.54822m1.9118 1.3058-0.76462 0.41001m1.6214 1.6575-0.83285 0.24204m1.2679 1.9456-0.86375 0.07874m0.86375 2.1515-0.86319-0.08749m0.42869 2.2751-0.83051-0.25079m-0.02567 2.3183-0.76053-0.41758m-0.47885 2.2717-0.66663-0.55524m-0.90982 2.1322-0.54822-0.67246m-1.3064 1.9124-0.41001-0.76462m-1.657 1.6214-0.24204-0.83285m-1.9456 1.2673-0.07874-0.86375m-2.1515 0.86434 0.08749-0.86319m-2.2751 0.42869 0.25079-0.83051m-2.3183-0.02566 0.41758-0.76053m-2.2717-0.47885 0.55524-0.66663m-2.1329-0.91045 0.67246-0.54822m-1.9118-1.3058 0.76462-0.41001m-1.619-1.6499 0.82876-0.25662m-1.2662-1.938 0.86375-0.078736m-0.86375-2.1515 0.86319 0.08749m-0.42869-2.2751 0.83051 0.25079m0.025663-2.3183 0.76053 0.41758m0.47885-2.2722 0.66663 0.55524m0.90982-2.1322 0.54822 0.67246m1.3064-1.9118 0.41001 0.76462m1.657-1.6214 0.24204 0.83285m1.9456-1.2679 0.07874 0.86375" fill="none" stroke="url(#d)" stroke-linecap="round" stroke-width=".54194"/>
 <g transform="matrix(.029416 0 0 .029416 .79385 1.0846)" stroke-width="76.886">
  <path class="shp40" d="m460.08 457.6 110.34 110.34 184.48-298.86zm-181.11 287.42 291.47-177.08-110.34-110.34z" fill="#fe504d"/>
  <path d="m460.1 457.61-181.13 287.41 291.47-177.08-110.34-110.34z" fill="#eee"/>
  <path d="m754.9 269.08-475.93 475.93 291.47-177.08-0.0117-0.0117z" fill-opacity=".251"/>
 </g>
</svg>
