<svg xmlns="http://www.w3.org/2000/svg" viewBox="0 0 22 22">
 <path style="fill:#000;opacity:0.015;fill-opacity:1;stroke:none" d="m 8 10.998 -0.5 1 -5.5 0 0 1 6.25 0 0.5 -1 3.75 0 c 0.25 0 0.5 0.265 0.5 0.531 l 0 -1 c 0 -0.267 -0.25 -0.531 -0.5 -0.531 z"/>
 <rect style="fill:#388e3c;fill-opacity:1;stroke:none" x="2" y="10.998" height="8" rx="1.196" ry="1.25" width="11"/>
 <path style="fill:#fff;opacity:0.1;fill-opacity:1;stroke:none" d="m 3.196 10.998 c -0.662 0 -1.196 0.557 -1.196 1.25 l 0 1 c 0 -0.693 0.533 -1.25 1.196 -1.25 l 8.609 0 c 0.662 0 1.196 0.557 1.196 1.25 l 0 -1 c 0 -0.693 -0.533 -1.25 -1.196 -1.25 z"/>
 <path style="fill:#66bb6a;fill-opacity:1;stroke:none" d="m 3.196,12.9978 1.913,0 c 2.63,-0.25 2.152,-3 3.826,-3 l 2.87,0 c 0.662,0 1.196,0.557 1.196,1.25 l 0,6.5 c 0,0.693 -0.533,1.25 -1.196,1.25 l -8.609,0 C 2.534,18.9978 2,18.4398 2,17.7478 l 0,-3.5 c 0,-0.75 0.478,-1.25 1.196,-1.25 z"/>
 <path style="fill:#000;opacity:0.075;fill-opacity:1;stroke:none" d="m 2,16.7478 0,1 c 0,0.693 0.533,1.25 1.196,1.25 l 8.609,0 c 0.662,0 1.196,-0.557 1.196,-1.25 l 0,-1 c 0,0.693 -0.533,1.25 -1.196,1.25 l -8.609,0 C 2.534,17.9978 2,17.4398 2,16.7478 Z"/>
 <path style="fill:#fff;opacity:0.5;fill-opacity:1;stroke:none" d="m 8.936 9.998 c -0.674 0 -1 0.451 -1.32 1 l -4.42 0 c -0.577 0 -1.033 0.432 -1.146 1 l -0.049 0 l 0 0.25 l 0 0.75 l 0 0.25 l 0 1 l 0 2.5 l 0 1 c 0 0.173 0.033 0.337 0.094 0.486 c 0 0 0 0.002 0 0.002 c 0.121 0.299 0.348 0.538 0.635 0.664 c 0 0 0.002 0 0.002 0 c 0.143 0.063 0.3 0.098 0.465 0.098 l 8.609 0 c 0.083 0 0.164 -0.009 0.242 -0.025 c 0.077 -0.017 0.154 -0.041 0.225 -0.072 c 0.143 -0.063 0.271 -0.155 0.379 -0.268 c 0 0 0.002 0 0.002 0 c 0.216 -0.226 0.35 -0.538 0.35 -0.885 l 0 -1 l 0 -3.5 l 0 -1 l 0 -1 c 0 -0.693 -0.535 -1.25 -1.197 -1.25 l -2.869 0 z"/>
 <path style="fill:#000;opacity:0.03;fill-opacity:1;stroke:none" d="m 15 3.998 -0.5 1 -5.5 0 0 1 6.25 0 0.5 -1 3.75 0 c 0.25 0 0.5 0.265 0.5 0.531 l 0 -1 c 0 -0.267 -0.25 -0.531 -0.5 -0.531 z"/>
 <rect style="fill:#388e3c;fill-opacity:1;stroke:none" x="9" y="3.998" height="8" rx="1.196" ry="1.25" width="11"/>
 <path style="fill:#fff;opacity:0.2;fill-opacity:1;stroke:none" d="M 10.196,3.9978 C 9.534,3.9978 9,4.5548 9,5.2478 l 0,1 c 0,-0.693 0.533,-1.25 1.196,-1.25 l 8.609,0 c 0.662,0 1.196,0.557 1.196,1.25 l 0,-1 c 0,-0.693 -0.533,-1.25 -1.196,-1.25 z"/>
 <path style="fill:#66bb6a;fill-opacity:1;stroke:none" d="m 10.196,5.9978 1.913,0 c 2.63,-0.25 2.152,-3 3.826,-3 l 2.87,0 c 0.662,0 1.196,0.557 1.196,1.25 l 0,6.5 c 0,0.693 -0.533,1.25 -1.196,1.25 l -8.609,0 C 9.534,11.9978 9,11.4398 9,10.7478 l 0,-3.5 c 0,-0.75 0.478,-1.25 1.196,-1.25 z"/>
 <path style="fill:#000;opacity:0.15;fill-opacity:1;stroke:none" d="m 9,9.7478 0,1 c 0,0.693 0.533,1.25 1.196,1.25 l 8.609,0 c 0.662,0 1.196,-0.557 1.196,-1.25 l 0,-1 c 0,0.693 -0.533,1.25 -1.196,1.25 l -8.609,0 C 9.534,10.9978 9,10.4398 9,9.7478 Z"/>
 <path style="fill:#4caf50;fill-opacity:1" d="m 20 10.998 -4 0 0 -4 -4 0 0 4 -4 0 0 4 4 0 0 4 4 0 0 -4 4 0 z"/>
</svg>
