<svg fill="#cacbc7" xmlns="http://www.w3.org/2000/svg"  viewBox="0 0 26 26" width="100px" height="100px"><path d="M 19 3 L 7 3 C 4.800781 3 3 4.800781 3 7 L 3 19 C 3 21.199219 4.800781 23 7 23 L 19 23 C 21.199219 23 23 21.199219 23 19 L 23 7 C 23 4.800781 21.199219 3 19 3 Z M 15.699219 15.898438 L 15.699219 17.398438 L 10.101563 17.398438 L 10.101563 16.800781 C 10.101563 14.101563 12.601563 13.898438 13.699219 12 C 13.898438 11.699219 14 10.398438 12.601563 10.398438 C 11.898438 10.398438 11.199219 10.699219 10.5 11.300781 L 10.5 9.601563 C 11.199219 9.101563 12.101563 8.898438 13 8.898438 C 13.800781 8.898438 15.699219 9.199219 15.699219 11.300781 C 15.699219 14 12.101563 14.898438 12.101563 15.898438 Z"/></svg>