<svg fill="#cacbc7" xmlns="http://www.w3.org/2000/svg"  viewBox="0 0 26 26" width="100px" height="100px"><path d="M 7 3 C 4.800781 3 3 4.800781 3 7 L 3 19 C 3 21.199219 4.800781 23 7 23 L 19 23 C 21.199219 23 23 21.199219 23 19 L 23 7 C 23 4.800781 21.199219 3 19 3 Z M 12.90625 8.90625 L 14.59375 8.90625 L 14.59375 14.1875 L 15.59375 14.1875 L 15.59375 15.5 L 14.59375 15.5 L 14.59375 17.1875 L 12.90625 17.1875 L 12.90625 15.5 L 9.3125 15.5 L 9.3125 14.09375 C 9.613281 13.695313 11.804688 11.207031 12.90625 8.90625 Z M 12.90625 11.1875 C 12.207031 12.585938 11.105469 13.894531 10.90625 14.09375 L 12.90625 14.09375 Z"/></svg>