<svg fill="#cacbc7" xmlns="http://www.w3.org/2000/svg"  viewBox="0 0 26 26" width="100px" height="100px"><path d="M 19 3 L 7 3 C 4.800781 3 3 4.800781 3 7 L 3 19 C 3 21.199219 4.800781 23 7 23 L 19 23 C 21.199219 23 23 21.199219 23 19 L 23 7 C 23 4.800781 21.199219 3 19 3 Z M 12.5 17.699219 C 11.699219 17.699219 11 17.601563 10.5 17.300781 L 10.5 15.699219 C 11.101563 16.101563 11.699219 16.199219 12.300781 16.199219 C 12.800781 16.199219 13.898438 16 13.898438 14.898438 C 13.898438 14.101563 13.300781 13.699219 12.101563 13.699219 C 11.699219 13.699219 11.199219 13.699219 10.601563 13.800781 L 11 9.101563 L 15.398438 9.101563 L 15.398438 10.601563 L 12.398438 10.601563 L 12.300781 12.300781 C 12.601563 12.300781 12.898438 12.300781 13.101563 12.300781 C 14 12.300781 15.898438 12.699219 15.898438 14.800781 C 15.800781 17.199219 13.5 17.699219 12.5 17.699219 Z"/></svg>