<svg fill="#cacbc7" xmlns="http://www.w3.org/2000/svg"  viewBox="0 0 24 24" width="100px" height="100px"><path d="M 11.873047 2.0078125 C 11.778219 2.020125 11.684 2.0476406 11.59375 2.0878906 C 11.23275 2.2478906 11 2.605 11 3 L 11 6.7578125 L 13 8.7578125 L 13 5.2441406 L 15.527344 7.5195312 L 13.595703 9.3535156 L 15.009766 10.767578 L 17.6875 8.2246094 C 17.8905 8.0336094 18.004 7.7663281 18 7.4863281 C 17.996 7.2083281 17.876922 6.9438125 17.669922 6.7578125 L 12.669922 2.2578125 C 12.449422 2.0590625 12.157531 1.970875 11.873047 2.0078125 z M 3.7070312 2.2929688 L 2.2929688 3.7070312 L 6.3105469 7.7246094 L 10.695312 12.109375 L 6.3125 16.275391 C 5.9125 16.655391 5.8943906 17.2875 6.2753906 17.6875 C 6.4713906 17.8955 6.735 18 7 18 C 7.247 18 7.4945 17.908609 7.6875 17.724609 L 11 14.578125 L 11 21 C 11 21.395 11.23275 21.752109 11.59375 21.912109 C 11.72475 21.971109 11.862 22 12 22 C 12.242 22 12.481922 21.911187 12.669922 21.742188 L 16.701172 18.115234 L 20.292969 21.707031 L 21.707031 20.292969 L 3.7070312 2.2929688 z M 13 14.414062 L 15.285156 16.699219 L 13 18.755859 L 13 14.414062 z"/></svg>