<svg width="252" height="252" viewBox="0 0 252 252" fill="none" xmlns="http://www.w3.org/2000/svg">
<path d="M222 86.28V54C222 40.8 211.2 30 198 30H165.72L142.92 7.2C133.56 -2.16 118.32 -2.16 108.96 7.2L86.28 30H54C40.8 30 30 40.8 30 54V86.28L7.2 109.08C-2.16 118.44 -2.16 133.68 7.2 143.04L30 165.84V198C30 211.2 40.8 222 54 222H86.28L109.08 244.8C118.44 254.16 133.68 254.16 143.04 244.8L165.84 222H198C211.2 222 222 211.2 222 198V165.72L244.8 142.92C254.16 133.56 254.16 118.32 244.8 108.96L222 86.28ZM126 198C86.28 198 54 165.72 54 126C54 86.28 86.28 54 126 54C165.72 54 198 86.28 198 126C198 165.72 165.72 198 126 198ZM126 78C99.48 78 78 99.48 78 126C78 152.52 99.48 174 126 174C152.52 174 174 152.52 174 126C174 99.48 152.52 78 126 78Z" fill="#E5C890"/>
</svg>
