<svg id="SvgjsSvg1016" width="288" height="288" xmlns="http://www.w3.org/2000/svg" version="1.1" xmlns:xlink="http://www.w3.org/1999/xlink" xmlns:svgjs="http://svgjs.com/svgjs"><defs id="SvgjsDefs1017"></defs><g id="SvgjsG1018"><svg xmlns="http://www.w3.org/2000/svg" viewBox="0 0 24 24" width="288" height="288"><path d="M12 24a5.01 5.01 0 004-2H8A5.01 5.01 0 0012 24zM21 12.05V9a9.661 9.661 0 00-.14-1.62L8.24 20H19.88a3.125 3.125 0 002.21-5.33A3.685 3.685 0 0121 12.05zM23.707.293a1 1 0 00-1.414 0L19.084 3.5A8.754 8.754 0 0012 0 9.014 9.014 0 003 9v3.05a3.685 3.685 0 01-1.09 2.62A3.151 3.151 0 001 16.88a3.009 3.009 0 00.39 1.49 3.116 3.116 0 001.469 1.357L.293 22.293a1 1 0 101.414 1.414l22-22A1 1 0 0023.707.293z" data-name="27. No notification" fill="#cacbc7" class="color000 svgShape"></path></svg></g></svg>