<?xml version="1.0" encoding="UTF-8"?>
<svg xmlns="http://www.w3.org/2000/svg" xmlns:xlink="http://www.w3.org/1999/xlink" viewBox="0 0 96 96" width="96px"
        height="96px">
        <g id="surface1609515">
                <path style=" stroke:none;fill-rule:nonzero;fill:rgb(40.392157%,69.01961%,90.980393%);fill-opacity:1;"
                        d="M 63 86 L 33 86 C 28.039062 86 24 81.960938 24 77 L 24 19 C 24 14.039062 28.039062 10 33 10 L 63 10 C 67.960938 10 72 14.039062 72 19 L 72 77 C 72 81.960938 67.960938 86 63 86 Z M 79 18 L 75.949219 18 C 75.972656 18.332031 76 18.660156 76 19 L 76 77 C 76 77.339844 75.972656 77.667969 75.949219 78 L 79 78 C 83.960938 78 88 73.960938 88 69 L 88 27 C 88 22.039062 83.960938 18 79 18 Z M 17 78 L 20.050781 78 C 20.027344 77.667969 20 77.339844 20 77 L 20 19 C 20 18.660156 20.027344 18.332031 20.050781 18 L 17 18 C 12.039062 18 8 22.039062 8 27 L 8 69 C 8 73.960938 12.039062 78 17 78 Z M 17 78 " />
        </g>
</svg>