<?xml version="1.0" encoding="UTF-8"?>
<svg xmlns="http://www.w3.org/2000/svg" xmlns:xlink="http://www.w3.org/1999/xlink" viewBox="0 0 100 100" width="100px" height="100px">
<g id="surface975966">
<path style=" stroke:none;fill-rule:nonzero;fill:rgb(79.215688%,79.607844%,78.039217%);fill-opacity:1;" d="M 37.417969 24.917969 C 35.492188 24.90625 33.660156 25.726562 32.390625 27.167969 L 28.351562 32.574219 L 71.648438 32.574219 L 67.609375 27.167969 C 66.339844 25.726562 64.507812 24.90625 62.582031 24.917969 Z M 25.550781 36.480469 C 16.574219 36.492188 8.792969 42.6875 6.769531 51.433594 C 4.746094 60.175781 9.019531 69.160156 17.078125 73.109375 C 25.136719 77.0625 34.851562 74.933594 40.527344 67.980469 C 40.898438 67.527344 41.453125 67.265625 42.035156 67.265625 L 57.964844 67.265625 C 58.546875 67.265625 59.101562 67.527344 59.472656 67.980469 C 65.144531 74.945312 74.871094 77.078125 82.9375 73.125 C 91.003906 69.175781 95.277344 60.183594 93.253906 51.433594 C 91.226562 42.683594 83.433594 36.484375 74.449219 36.480469 Z M 74.160156 40.871094 C 75.445312 40.820312 76.695312 41.292969 77.621094 42.179688 C 78.550781 43.070312 79.074219 44.300781 79.074219 45.585938 C 79.070312 48.1875 76.960938 50.296875 74.355469 50.300781 C 71.789062 50.300781 69.691406 48.25 69.640625 45.683594 C 69.585938 43.117188 71.59375 40.976562 74.160156 40.871094 Z M 74.355469 44.773438 C 73.90625 44.773438 73.542969 45.136719 73.542969 45.585938 C 73.542969 46.03125 73.90625 46.394531 74.355469 46.394531 C 74.804688 46.394531 75.164062 46.03125 75.164062 45.585938 C 75.164062 45.136719 74.804688 44.773438 74.355469 44.773438 Z M 24.460938 47.050781 C 25.519531 47.082031 26.359375 47.949219 26.359375 49.003906 L 26.359375 53.640625 L 30.992188 53.640625 C 32.074219 53.640625 32.945312 54.511719 32.945312 55.59375 C 32.945312 56.671875 32.074219 57.546875 30.992188 57.546875 L 30.992188 57.542969 L 26.359375 57.542969 L 26.359375 62.179688 C 26.359375 63.257812 25.484375 64.132812 24.40625 64.132812 C 23.328125 64.132812 22.453125 63.257812 22.453125 62.179688 L 22.453125 57.542969 L 17.816406 57.542969 C 16.738281 57.542969 15.863281 56.667969 15.863281 55.589844 C 15.863281 54.511719 16.738281 53.636719 17.816406 53.636719 L 22.453125 53.636719 L 22.453125 49.003906 C 22.453125 48.476562 22.667969 47.972656 23.042969 47.601562 C 23.421875 47.234375 23.933594 47.035156 24.460938 47.050781 Z M 64.628906 50.402344 C 65.914062 50.347656 67.164062 50.820312 68.089844 51.710938 C 69.019531 52.601562 69.542969 53.828125 69.542969 55.113281 C 69.539062 57.71875 67.429688 59.828125 64.824219 59.832031 C 62.257812 59.832031 60.160156 57.78125 60.109375 55.210938 C 60.054688 52.644531 62.0625 50.507812 64.628906 50.402344 Z M 83.691406 50.402344 C 84.976562 50.347656 86.226562 50.820312 87.152344 51.710938 C 88.078125 52.601562 88.605469 53.832031 88.605469 55.117188 C 88.601562 57.71875 86.492188 59.828125 83.886719 59.832031 C 81.320312 59.832031 79.222656 57.78125 79.171875 55.214844 C 79.117188 52.648438 81.125 50.507812 83.691406 50.402344 Z M 83.886719 54.304688 C 83.4375 54.304688 83.078125 54.667969 83.078125 55.113281 C 83.078125 55.5625 83.4375 55.925781 83.886719 55.925781 C 84.335938 55.925781 84.699219 55.5625 84.699219 55.113281 C 84.695312 54.667969 84.335938 54.304688 83.886719 54.304688 Z M 64.824219 54.304688 C 64.378906 54.304688 64.015625 54.667969 64.015625 55.113281 C 64.015625 55.5625 64.378906 55.925781 64.824219 55.925781 C 65.273438 55.925781 65.636719 55.5625 65.636719 55.113281 C 65.636719 54.667969 65.273438 54.304688 64.824219 54.304688 Z M 74.160156 59.933594 C 75.445312 59.878906 76.695312 60.351562 77.621094 61.242188 C 78.550781 62.128906 79.074219 63.359375 79.074219 64.644531 C 79.070312 67.25 76.960938 69.359375 74.355469 69.363281 C 71.789062 69.363281 69.691406 67.308594 69.640625 64.742188 C 69.585938 62.175781 71.59375 60.039062 74.160156 59.933594 Z M 74.355469 63.835938 C 73.90625 63.835938 73.542969 64.195312 73.542969 64.644531 C 73.542969 65.09375 73.90625 65.457031 74.355469 65.457031 C 74.804688 65.457031 75.164062 65.09375 75.164062 64.644531 C 75.164062 64.195312 74.804688 63.835938 74.355469 63.835938 Z M 74.355469 63.835938 "/>
</g>
</svg>
