<?xml version="1.0" encoding="UTF-8"?>
<svg xmlns="http://www.w3.org/2000/svg" xmlns:xlink="http://www.w3.org/1999/xlink" viewBox="0 0 96 96" width="96px" height="96px">
<g id="surface815012">
<path style="fill-rule:nonzero;fill:rgb(13.333334%,16.078432%,16.862746%);fill-opacity:1;stroke-width:15;stroke-linecap:butt;stroke-linejoin:round;stroke:rgb(13.333334%,16.078432%,16.862746%);stroke-opacity:1;stroke-miterlimit:10;" d="M 154.800241 85.999998 C 154.800241 123.929897 123.929897 154.800241 85.999998 154.800241 C 48.070099 154.800241 17.199756 123.929897 17.199756 85.999998 C 17.199756 48.070099 48.070099 17.199756 85.999998 17.199756 C 123.929897 17.199756 154.800241 48.070099 154.800241 85.999998 Z M 28.663927 85.999998 C 28.663927 117.729964 54.270033 143.336069 85.999998 143.336069 C 117.729964 143.336069 143.336069 117.729964 143.336069 85.999998 C 143.336069 54.270033 117.729964 28.663927 85.999998 28.663927 C 54.270033 28.663927 28.663927 54.270033 28.663927 85.999998 Z M 28.663927 85.999998 " transform="matrix(0.513488,0,0,0.513488,3.84,3.84)"/>
<path style=" stroke:none;fill-rule:nonzero;fill:rgb(13.333334%,16.078432%,16.862746%);fill-opacity:1;" d="M 48 12.671875 C 28.523438 12.671875 12.671875 28.523438 12.671875 48 C 12.671875 67.476562 28.523438 83.328125 48 83.328125 C 67.476562 83.328125 83.328125 67.476562 83.328125 48 C 83.328125 28.523438 67.476562 12.671875 48 12.671875 Z M 48 18.558594 C 64.292969 18.558594 77.441406 31.707031 77.441406 48 C 77.441406 64.292969 64.292969 77.441406 48 77.441406 C 31.707031 77.441406 18.558594 64.292969 18.558594 48 C 18.558594 31.707031 31.707031 18.558594 48 18.558594 Z M 48 18.558594 "/>
</g>
</svg>
