<svg fill="#cacbc7" xmlns="http://www.w3.org/2000/svg"  viewBox="0 0 26 26" width="100px" height="100px"><path d="M 16 5 C 15.449219 5 15 5.449219 15 6 L 15 10.875 L 7.90625 5.25 C 7.503906 5.046875 7.007813 5.078125 6.625 5.3125 C 6.238281 5.542969 6 5.960938 6 6.40625 L 6 19.59375 C 6 20.035156 6.238281 20.453125 6.625 20.6875 C 6.832031 20.8125 7.074219 20.875 7.3125 20.875 C 7.511719 20.875 7.722656 20.84375 7.90625 20.75 L 15 15.125 L 15 20 C 15 20.550781 15.449219 21 16 21 L 19 21 C 19.550781 21 20 20.550781 20 20 L 20 6 C 20 5.449219 19.550781 5 19 5 Z"/></svg>