<svg fill="#cacbc7" xmlns="http://www.w3.org/2000/svg"  viewBox="0 0 26 26" width="100px" height="100px"><path d="M 7 5 C 6.449219 5 6 5.449219 6 6 L 6 20 C 6 20.550781 6.449219 21 7 21 L 10 21 C 10.550781 21 11 20.550781 11 20 L 11 15.125 L 18.09375 20.75 C 18.496094 20.953125 18.992188 20.921875 19.375 20.6875 C 19.761719 20.457031 20 20.039063 20 19.59375 L 20 6.40625 C 20 5.964844 19.761719 5.546875 19.375 5.3125 C 19.167969 5.1875 18.925781 5.125 18.6875 5.125 C 18.488281 5.125 18.277344 5.15625 18.09375 5.25 L 11 10.875 L 11 6 C 11 5.449219 10.550781 5 10 5 Z"/></svg>