<svg fill="#CACBC7" xmlns="http://www.w3.org/2000/svg"  viewBox="0 0 26 26" width="100px" height="100px"><path d="M 9.5 3 C 8.789063 3 8.320313 3.289063 8.09375 3.6875 L 6.8125 6 L 4.9375 6 C 1.996094 6 0 8.058594 0 11 L 0 19.125 C 0 21.816406 2.183594 24 4.875 24 L 21.125 24 C 23.816406 24 26 21.816406 26 19.125 L 26 10.875 C 26 8.183594 23.816406 6 21.125 6 L 19.1875 6 L 17.90625 3.6875 C 17.679688 3.289063 17.179688 3 16.5 3 Z M 4 7.875 C 4.628906 7.875 5.125 8.371094 5.125 9 C 5.125 9.628906 4.628906 10.125 4 10.125 C 3.371094 10.125 2.875 9.628906 2.875 9 C 2.875 8.371094 3.371094 7.875 4 7.875 Z M 13 7.9375 C 16.898438 7.9375 20.0625 11.101563 20.0625 15 C 20.0625 18.898438 16.898438 22.0625 13 22.0625 C 9.101563 22.0625 5.9375 18.902344 5.9375 15 C 5.9375 11.097656 9.101563 7.9375 13 7.9375 Z M 13 10.1875 C 10.34375 10.1875 8.1875 12.34375 8.1875 15 C 8.1875 17.65625 10.34375 19.8125 13 19.8125 C 15.65625 19.8125 17.8125 17.65625 17.8125 15 C 17.8125 12.34375 15.65625 10.1875 13 10.1875 Z"/></svg>