<?xml version="1.0" encoding="UTF-8"?>
<svg xmlns="http://www.w3.org/2000/svg" xmlns:xlink="http://www.w3.org/1999/xlink" viewBox="0 0 96 96" width="96px" height="96px">
<g id="surface1023420">
<path style="fill-rule:nonzero;fill:rgb(13.333334%,16.078432%,16.862746%);fill-opacity:1;stroke-width:6;stroke-linecap:butt;stroke-linejoin:round;stroke:rgb(13.333334%,16.078432%,16.862746%);stroke-opacity:1;stroke-miterlimit:10;" d="M 125.4202 73.458853 C 125.4202 85.188555 121.449924 95.990893 114.849703 104.706662 L 148.401431 138.265636 C 150.270648 140.062403 151.024131 142.735818 150.372079 145.242598 C 149.720026 147.756623 147.756623 149.720026 145.242598 150.372079 C 142.735818 151.024131 140.062403 150.270648 138.265636 148.401431 L 104.706662 114.849703 C 95.990893 121.449924 85.188555 125.4202 73.458853 125.4202 C 44.848235 125.4202 21.497507 102.069472 21.497507 73.458853 C 21.497507 44.848235 44.848235 21.497507 73.458853 21.497507 C 102.069472 21.497507 125.4202 44.848235 125.4202 73.458853 Z M 35.835419 73.458853 C 35.835419 94.324536 52.593171 111.082288 73.458853 111.082288 C 83.485973 111.082288 92.535014 107.184462 99.265646 100.852307 C 99.707593 100.23648 100.25097 99.693102 100.866797 99.251156 C 107.191707 92.520524 111.082288 83.478728 111.082288 73.458853 C 111.082288 52.593171 94.324536 35.835419 73.458853 35.835419 C 52.593171 35.835419 35.835419 52.593171 35.835419 73.458853 Z M 35.835419 73.458853 " transform="matrix(0.539163,0,0,0.539163,1.632,1.632)"/>
<path style=" stroke:none;fill-rule:nonzero;fill:rgb(13.333334%,16.078432%,16.862746%);fill-opacity:1;" d="M 41.238281 13.222656 C 25.8125 13.222656 13.222656 25.8125 13.222656 41.238281 C 13.222656 56.664062 25.8125 69.253906 41.238281 69.253906 C 47.5625 69.253906 53.386719 67.113281 58.085938 63.554688 L 76.179688 81.644531 C 77.148438 82.652344 78.589844 83.058594 79.941406 82.707031 C 81.296875 82.355469 82.355469 81.296875 82.707031 79.941406 C 83.058594 78.589844 82.652344 77.148438 81.644531 76.179688 L 63.554688 58.085938 C 67.113281 53.386719 69.253906 47.5625 69.253906 41.238281 C 69.253906 25.8125 56.664062 13.222656 41.238281 13.222656 Z M 41.238281 20.953125 C 52.488281 20.953125 61.523438 29.988281 61.523438 41.238281 C 61.523438 46.640625 59.425781 51.515625 56.015625 55.144531 C 55.683594 55.382812 55.390625 55.675781 55.152344 56.007812 C 51.523438 59.421875 46.644531 61.523438 41.238281 61.523438 C 29.988281 61.523438 20.953125 52.488281 20.953125 41.238281 C 20.953125 29.988281 29.988281 20.953125 41.238281 20.953125 Z M 41.238281 20.953125 "/>
</g>
</svg>
