<svg xmlns="http://www.w3.org/2000/svg" version="1.1" xmlns:xlink="http://www.w3.org/1999/xlink"
        xmlns:svgjs="http://svgjs.com/svgjs" width="512" height="512" x="0" y="0" viewBox="0 0 512 512"
        style="enable-background:new 0 0 512 512" xml:space="preserve" class="">
        <g>
                <g xmlns="http://www.w3.org/2000/svg">
                        <circle cx="256" cy="256" fill="#8ccf7e" r="225" data-original="#1ed760" class=""></circle>
                        <path d="m256 131c-69 0-125 56-125 125s56 125 125 125 125-56 125-125-56-125-125-125zm55.8 179.9c-1.4 2.5-4 4-6.6 4-1.2 0-2.4-.3-3.6-.9-33-17.8-65.2-21.3-111.1-12-4.1.8-8-1.8-8.9-5.9-.8-4.1 1.8-8 5.9-8.9 49.1-9.9 85.3-5.9 121.2 13.5 3.7 2 5.1 6.5 3.1 10.2zm15.4-33c-1.8 3-5 4.7-8.3 4.7-1.7 0-3.4-.4-4.9-1.4-34.8-20.7-79.3-26.1-125.4-15.2-5.2 1.2-10.4-2-11.6-7.2s2-10.4 7.2-11.6c24.4-5.7 48.4-7.4 71.3-5 25 2.7 48 10.2 68.5 22.4 4.4 2.8 5.9 8.7 3.2 13.3zm7.2-34.2c-1.8 0-3.6-.4-5.3-1.3-44.7-22.5-100.1-27.7-148.2-14.1-6.3 1.8-12.8-1.9-14.6-8.2s1.9-12.8 8.2-14.6c26.5-7.5 55.6-10 84.1-7.3s56.6 10.7 81.2 23c5.8 2.9 8.2 10 5.3 15.9-2.2 4.2-6.4 6.6-10.7 6.6z"
                                fill="#181f21" data-original="#ffffff" class=""></path>
                </g>
        </g>
</svg>