<svg xmlns="http://www.w3.org/2000/svg" viewBox="0 0 64 64">
 <rect width="36" rx="3.914" x="6" y="25.996" ry="4.374" height="24" style="fill:#e65100;fill-opacity:1;stroke:none"/>
 <path d="m 9.914 25.996 c -2.168 0 -3.914 2.23 -3.914 5 l 0 2 c 0 -2.77 1.746 -5 3.914 -5 l 28.18 0 c 2.168 0 3.914 2.23 3.914 5 l 0 -2 c 0 -2.77 -1.746 -5 -3.914 -5 z" style="fill:#fff;opacity:0.1;fill-opacity:1;stroke:none"/>
 <path d="m 9.914 31.996 6.26 0 c 8.608 -0.888 7.04 -10 12.522 -10 l 9.392 0 c 2.168 0 3.914 1.982 3.914 4.444 l 0 19.11 c 0 2.462 -1.746 4.444 -3.914 4.444 l -28.18 0 c -2.168 0 -3.914 -1.982 -3.914 -4.444 l 0 -8.444 c 0 -2.666 1.566 -5.112 3.914 -5.112 z" style="fill:#f57c00;fill-opacity:1;stroke:none"/>
 <path d="m 6,43.7756 0,1.778 c 0,2.462 1.746,4.444 3.914,4.444 l 28.18,0 c 2.168,0 3.914,-1.982 3.914,-4.444 l 0,-1.778 c 0,2.462 -1.746,4.222 -3.914,4.222 l -28.18,0 C 7.746,47.9976 6,46.2376 6,43.7756 Z" style="fill:#000;opacity:0.075;fill-opacity:1;stroke:none"/>
 <path d="m 28.695 21.996 c -2.476 0 -3.519 1.877 -4.707 4 l -14.07 0 c -0.215 0 -0.424 0.028 -0.629 0.07 c -1.865 0.336 -3.285 2.12 -3.285 4.303 l 0 0.627 l 0 2 l 0 4.03 c 0 0.027 -0.006 0.053 -0.006 0.08 l 0 8.443 c 0 0.023 0.006 0.044 0.006 0.066 l 0 0.004 c 0 0.102 0.021 0.197 0.027 0.297 c 0.013 0.18 0.018 0.362 0.049 0.535 c 0.277 1.619 1.348 2.897 2.746 3.35 c 0.079 0.026 0.153 0.062 0.234 0.082 c 0.021 0.005 0.04 0.017 0.061 0.021 c 0.257 0.06 0.524 0.092 0.797 0.092 l 28.18 0 c 0.539 0 1.053 -0.124 1.52 -0.346 c 0.086 -0.041 0.161 -0.101 0.244 -0.148 c 1.051 -0.598 1.83 -1.693 2.064 -3.03 c 0.055 -0.298 0.086 -0.607 0.086 -0.924 l 0 -1.777 c 0 0.023 -0.006 0.044 -0.006 0.066 l 0 -10.922 c 0 0.026 0.006 0.05 0.006 0.076 l 0 -2 c 0 -0.026 -0.006 -0.05 -0.006 -0.076 l 0 -4.48 c 0 -2.462 -1.746 -4.443 -3.914 -4.443 l -9.393 0 z" style="fill:#fff;opacity:0.5;fill-opacity:1;stroke:none"/>
 <rect width="15.786" x="28.5" y="9.998" height="5.941" style="fill:#fffdf0;fill-opacity:1;stroke:none"/>
 <rect width="36" rx="3.913" x="22" y="7.998" ry="4.375" height="24" style="fill:#e65100;fill-opacity:1;stroke:none"/>
 <path d="m 25.913 7.998 c -2.168 0 -3.913 2.23 -3.913 5 l 0 2 c 0 -2.77 1.745 -5 3.913 -5 l 28.17 0 c 2.168 0 3.913 2.23 3.913 5 l 0 -2 c 0 -2.77 -1.745 -5 -3.913 -5 z" style="fill:#fff;opacity:0.2;fill-opacity:1;stroke:none"/>
 <path d="m 25.913 13.998 6.261 0 c 8.609 -0.889 7.04 -10 12.522 -10 l 9.391 0 c 2.168 0 3.913 1.982 3.913 4.444 l 0 19.11 c 0 2.462 -1.745 4.444 -3.913 4.444 l -28.17 0 c -2.168 0 -3.913 -1.982 -3.913 -4.444 l 0 -8.444 c 0 -2.667 1.565 -5.111 3.913 -5.111 z" style="fill:#f57c00;fill-opacity:1;stroke:none"/>
 <path d="m 22 25.778 0 1.778 c 0 2.462 1.745 4.444 3.913 4.444 l 28.17 0 c 2.168 0 3.913 -1.982 3.913 -4.444 l 0 -1.778 c 0 2.462 -1.745 4.222 -3.913 4.222 l -28.17 0 c -2.168 0 -3.913 -1.76 -3.913 -4.222 z" style="fill:#000;opacity:0.15;fill-opacity:1;stroke:none"/>
 <path d="m 56 33.998 -12 0 0 -12 -10 0 0 12 -12 0 0 10 12 0 0 12 10 0 0 -12 12 0 z" style="fill:#4caf50;fill-opacity:1"/>
</svg>
