<svg xmlns="http://www.w3.org/2000/svg" viewBox="0 0 64 64">
 <defs>
  <radialGradient r="24" cy="40.5" cx="24" gradientTransform="matrix(1.6666667,0,0,0.2777777,-8,1030.4456)" gradientUnits="userSpaceOnUse" id="radialGradient3098">
   <stop style="stop-color:#000;stop-opacity:1"/>
   <stop offset="1" style="stop-color:#000;stop-opacity:0.196"/>
  </radialGradient>
 </defs>
 <g transform="translate(0,-988.3622)">
  <path d="m 32 1035.03 c -13.1 0 -24.704 1.044 -32 2.667 l 0 8 c 7.296 1.622 18.898 2.667 32 2.667 13.1 0 24.704 -1.044 32 -2.667 l 0 -8 c -7.296 -1.623 -18.898 -2.667 -32 -2.667 z" style="fill:url(#radialGradient3098);opacity:0.1;fill-opacity:1;stroke:none"/>
  <rect width="60" height="42" x="2" y="1002.36" rx="6.522" ry="6.562" style="fill:#1976d2;fill-opacity:1;stroke:none"/>
  <path d="m 8.522 1001.7 c -3.613 0 -6.522 2.973 -6.522 6.667 l 0 2.667 c 0 -3.693 2.909 -6.667 6.522 -6.667 l 46.957 0 c 3.613 0 6.522 2.973 6.522 6.667 l 0 -2.667 c 0 -3.693 -2.909 -6.667 -6.522 -6.667 l -46.957 0 z" style="fill:#fff;opacity:0.2;fill-opacity:1;stroke:none"/>
  <path d="m 8.522 1012.36 10.435 0 c 14.348 -1.333 11.739 -16 20.87 -16 l 15.652 0 c 3.613 0 6.522 2.973 6.522 6.667 l 0 34.667 c 0 3.693 -2.909 6.667 -6.522 6.667 l -46.957 0 c -3.613 0 -6.522 -2.973 -6.522 -6.667 l 0 -18.667 c 0 -4 2.609 -6.667 6.522 -6.667 z" style="fill:#42a5f5;fill-opacity:1;stroke:none"/>
  <path d="m 2 1035.03 0 2.667 c 0 3.693 2.909 6.667 6.522 6.667 l 46.957 0 c 3.613 0 6.522 -2.973 6.522 -6.667 l 0 -2.667 c 0 3.693 -2.909 7.333 -6.522 7.333 l -46.957 0 c -3.613 0 -6.522 -3.64 -6.522 -7.333 z" style="fill:#000;opacity:0.15;fill-opacity:1;stroke:none"/>
  <path d="m 24.17 1022.18 c -2.436 -2.437 -6.374 -2.421 -8.81 0.02 -2.071 2.072 -2.382 5.225 -0.934 7.622 l -6.01 6.01 c -0.561 0.561 -0.561 1.458 0 2.02 l 0.09 0.088 c 0.561 0.561 1.457 0.561 2.02 0 l 6.01 -6.01 c 2.4 1.452 5.564 1.153 7.635 -0.919 2.436 -2.436 2.436 -6.391 0 -8.828 z m -1.37 1.371 c 1.675 1.676 1.675 4.41 0 6.086 -1.66 1.66 -4.345 1.66 -6.02 0.03 l -0.045 -0.044 c -0.015 -0.02 -0.031 -0.03 -0.045 -0.046 -1.631 -1.679 -1.615 -4.35 0.045 -6.01 1.675 -1.676 4.394 -1.691 6.069 -0.02 z" style="fill:#000;fill-opacity:0.098;color:#000"/>
  <path d="m 24.17 1020.18 c -2.436 -2.437 -6.374 -2.421 -8.81 0.02 -2.071 2.072 -2.382 5.225 -0.934 7.622 l -6.01 6.01 c -0.561 0.561 -0.561 1.458 0 2.02 l 0.09 0.088 c 0.561 0.561 1.457 0.561 2.02 0 l 6.01 -6.01 c 2.4 1.452 5.564 1.153 7.635 -0.919 2.436 -2.436 2.436 -6.391 0 -8.828 z m -1.37 1.371 c 1.675 1.676 1.675 4.41 0 6.086 -1.66 1.66 -4.345 1.66 -6.02 0.03 l -0.045 -0.044 c -0.015 -0.02 -0.031 -0.03 -0.045 -0.046 -1.631 -1.679 -1.615 -4.35 0.045 -6.01 1.675 -1.676 4.394 -1.691 6.069 -0.02 z" style="fill:#fff8e1;fill-opacity:1;color:#000"/>
 </g>
</svg>
