<svg xmlns="http://www.w3.org/2000/svg" viewBox="0 0 64 64">
 <defs>
  <radialGradient r="24" cy="40.5" cx="24" gradientTransform="matrix(1.6666667,0,0,0.2777777,-8,1030.4456)" gradientUnits="userSpaceOnUse" id="radialGradient3098">
   <stop style="stop-color:#000;stop-opacity:1"/>
   <stop offset="1" style="stop-color:#000;stop-opacity:0.196"/>
  </radialGradient>
 </defs>
 <g transform="translate(0,-988.3622)">
  <path d="m 32 1035.03 c -13.1 0 -24.704 1.044 -32 2.667 l 0 8 c 7.296 1.622 18.898 2.667 32 2.667 13.1 0 24.704 -1.044 32 -2.667 l 0 -8 c -7.296 -1.623 -18.898 -2.667 -32 -2.667 z" style="fill:url(#radialGradient3098);opacity:0.1;fill-opacity:1;stroke:none"/>
  <rect width="60" height="42" x="2" y="1002.36" rx="6.522" ry="6.562" style="fill:#5d4037;fill-opacity:1;stroke:none"/>
  <path d="m 8.522 1001.7 c -3.613 0 -6.522 2.973 -6.522 6.667 l 0 2.667 c 0 -3.693 2.909 -6.667 6.522 -6.667 l 46.957 0 c 3.613 0 6.522 2.973 6.522 6.667 l 0 -2.667 c 0 -3.693 -2.909 -6.667 -6.522 -6.667 l -46.957 0 z" style="fill:#fff;opacity:0.2;fill-opacity:1;stroke:none"/>
  <path d="m 8.522 1012.36 10.435 0 c 14.348 -1.333 11.739 -16 20.87 -16 l 15.652 0 c 3.613 0 6.522 2.973 6.522 6.667 l 0 34.667 c 0 3.693 -2.909 6.667 -6.522 6.667 l -46.957 0 c -3.613 0 -6.522 -2.973 -6.522 -6.667 l 0 -18.667 c 0 -4 2.609 -6.667 6.522 -6.667 z" style="fill:#8d6e63;fill-opacity:1;stroke:none"/>
  <path d="m 2 1035.03 0 2.667 c 0 3.693 2.909 6.667 6.522 6.667 l 46.957 0 c 3.613 0 6.522 -2.973 6.522 -6.667 l 0 -2.667 c 0 3.693 -2.909 7.333 -6.522 7.333 l -46.957 0 c -3.613 0 -6.522 -3.64 -6.522 -7.333 z" style="fill:#000;opacity:0.15;fill-opacity:1;stroke:none"/>
  <g transform="matrix(1.3846154,0,0,1.3846154,8,-418.75468)" style="fill:#000;fill-opacity:0.098">
   <path d="m 1 1039.36 c 0 0 -1 0.038 -1 1 l 0 1.889 1.444 0 0 -1.444 1.444 0 0 -1.445 -1.795 0 z m 3.333 0 0 1.445 1.444 0 0 -1.445 z m 2.889 0 0 1.445 1.444 0 0 -1.445 z m 2.889 0 0 1.445 1.444 0 0 1.444 1.444 0 0 -1.889 c 0 -1 -1 -1 -1 -1 z m -10.111 4.333 l 0 1.445 1.444 0 0 -1.445 z m 11.556 0 0 1.445 1.444 0 0 -1.445 z m -11.556 2.889 l 0 1.445 1.444 0 0 -1.445 z m 11.556 0 0 1.445 1.444 0 0 -1.445 z m -11.556 2.889 l 0 1.889 c 0 1 1 1 1 1 l 1.889 0 0 -1.444 -1.444 0 0 -1.445 z m 11.556 0 0 1.445 -1.444 0 0 1.444 1.889 0 c 0 0 1 0 1 -1 l 0 -1.889 z m -7.222 1.445 0 1.444 1.444 0 0 -1.444 z m 2.889 0 0 1.444 1.444 0 0 -1.444 z" style="fill:#000;fill-opacity:0.098;color:#000"/>
  </g>
  <g transform="matrix(1.3846154,0,0,1.3846154,8,-420.7547)" style="fill:#fff8e1;fill-opacity:1">
   <path d="m 1 1039.36 c 0 0 -1 0.038 -1 1 l 0 1.889 1.444 0 0 -1.444 1.444 0 0 -1.445 -1.795 0 z m 3.333 0 0 1.445 1.444 0 0 -1.445 z m 2.889 0 0 1.445 1.444 0 0 -1.445 z m 2.889 0 0 1.445 1.444 0 0 1.444 1.444 0 0 -1.889 c 0 -1 -1 -1 -1 -1 z m -10.111 4.333 l 0 1.445 1.444 0 0 -1.445 z m 11.556 0 0 1.445 1.444 0 0 -1.445 z m -11.556 2.889 l 0 1.445 1.444 0 0 -1.445 z m 11.556 0 0 1.445 1.444 0 0 -1.445 z m -11.556 2.889 l 0 1.889 c 0 1 1 1 1 1 l 1.889 0 0 -1.444 -1.444 0 0 -1.445 z m 11.556 0 0 1.445 -1.444 0 0 1.444 1.889 0 c 0 0 1 0 1 -1 l 0 -1.889 z m -7.222 1.445 0 1.444 1.444 0 0 -1.444 z m 2.889 0 0 1.444 1.444 0 0 -1.444 z" style="color:#000"/>
  </g>
 </g>
</svg>
