<svg version="1.1" viewBox="0 0 64 64" xmlns="http://www.w3.org/2000/svg">
 <defs>
  <radialGradient id="radialGradient3098" cx="24" cy="40.5" r="24" gradientTransform="matrix(1.6666667 0 0 .2777777 -8 1030.4456)" gradientUnits="userSpaceOnUse">
   <stop offset="0"/>
   <stop style="stop-opacity:.196" offset="1"/>
  </radialGradient>
 </defs>
 <g transform="translate(0,-988.3622)">
  <path d="m32 1035.03c-13.1 0-24.704 1.044-32 2.667v8c7.296 1.622 18.898 2.667 32 2.667 13.1 0 24.704-1.044 32-2.667v-8c-7.296-1.623-18.898-2.667-32-2.667z" style="fill:url(#radialGradient3098);opacity:.1"/>
  <rect x="2" y="1002.36" width="60" height="42" rx="6.522" ry="6.562" style="fill:#f57c00"/>
  <path d="m8.522 1001.7c-3.613 0-6.522 2.973-6.522 6.667v2.667c0-3.693 2.909-6.667 6.522-6.667h46.957c3.613 0 6.522 2.973 6.522 6.667v-2.667c0-3.693-2.909-6.667-6.522-6.667h-46.957z" style="fill:#fff;opacity:.2"/>
  <path d="m8.522 1012.36h10.435c14.348-1.333 11.739-16 20.87-16h15.652c3.613 0 6.522 2.973 6.522 6.667v34.667c0 3.693-2.909 6.667-6.522 6.667h-46.957c-3.613 0-6.522-2.973-6.522-6.667v-18.667c0-4 2.609-6.667 6.522-6.667z" style="fill:#ffb300"/>
  <path d="m2 1035.03v2.667c0 3.693 2.909 6.667 6.522 6.667h46.957c3.613 0 6.522-2.973 6.522-6.667v-2.667c0 3.693-2.909 7.333-6.522 7.333h-46.957c-3.613 0-6.522-3.64-6.522-7.333z" style="opacity:.15"/>
  <path d="m17.000693 1020.3622a8.9999992 8.9999992 0 0 0-7.7949215 4.5 8.9999992 8.9999992 0 0 0 0 9 8.9999992 8.9999992 0 0 0 7.7949215 4.5h9v-2h-9a6.9999996 6.9999996 0 0 1-6.0625-3.5 6.9999996 6.9999996 0 0 1 0-7 6.9999996 6.9999996 0 0 1 6.0625-3.5zm0.146485 3.002a5.9999992 5.9999992 0 0 0-4.388672 1.7558 5.9999992 5.9999992 0 0 0-1.300781 6.5391 5.9999992 5.9999992 0 0 0 5.542968 3.7031h9v-2h-9a3.9999991 3.9999991 0 0 1-3.695312-2.4687 3.9999991 3.9999991 0 0 1 0.867187-4.3594 3.9999991 3.9999991 0 0 1 4.359375-0.8672 3.9999991 3.9999991 0 0 1 0.46875 0.2363v-2.1855a5.9999992 5.9999992 0 0 0-1.853515-0.3535zm-0.07227 2.998a3 3 0 0 0-2.195312 0.8789 3 3 0 0 0-0.650391 3.2695 3 3 0 0 0 2.771484 1.8516h9v-2h-9a0.9999999 0.9999999 0 0 1-0.923828-0.6172 0.9999999 0.9999999 0 0 1 0.216797-1.0898 0.9999999 0.9999999 0 0 1 0.707031-0.2871v-0.01h2.828125a3 3 0 0 0-1.679687-1.7715 3 3 0 0 0-1.074219-0.2285z" style="-inkscape-stroke:none;fill-opacity:.098;font-variation-settings:normal;stop-color:#000000"/>
  <path d="m17.000693 1018.3622a8.9999992 8.9999992 0 0 0-7.7949215 4.5 8.9999992 8.9999992 0 0 0 0 9 8.9999992 8.9999992 0 0 0 7.7949215 4.5h9v-2h-9a6.9999996 6.9999996 0 0 1-6.0625-3.5 6.9999996 6.9999996 0 0 1 0-7 6.9999996 6.9999996 0 0 1 6.0625-3.5zm0.146485 3.002a5.9999992 5.9999992 0 0 0-4.388672 1.7558 5.9999992 5.9999992 0 0 0-1.300781 6.5391 5.9999992 5.9999992 0 0 0 5.542968 3.7031h9v-2h-9a3.9999991 3.9999991 0 0 1-3.695312-2.4687 3.9999991 3.9999991 0 0 1 0.867187-4.3594 3.9999991 3.9999991 0 0 1 4.359375-0.8672 3.9999991 3.9999991 0 0 1 0.46875 0.2363v-2.1855a5.9999992 5.9999992 0 0 0-1.853515-0.3535zm-0.07227 2.998a3 3 0 0 0-2.195312 0.8789 3 3 0 0 0-0.650391 3.2695 3 3 0 0 0 2.771484 1.8516h9v-2h-9a0.9999999 0.9999999 0 0 1-0.923828-0.6172 0.9999999 0.9999999 0 0 1 0.216797-1.0898 0.9999999 0.9999999 0 0 1 0.707031-0.2871v-0.01h2.828125a3 3 0 0 0-1.679687-1.7715 3 3 0 0 0-1.074219-0.2285z" style="-inkscape-stroke:none;fill:#fff8e1;font-variation-settings:normal;stop-color:#000000"/>
 </g>
</svg>
