<svg xmlns="http://www.w3.org/2000/svg" viewBox="0 0 64 64">
 <defs>
  <radialGradient r="24" cy="40.5" cx="24" gradientTransform="matrix(1.6666667,0,0,0.2777777,-8,1030.4456)" gradientUnits="userSpaceOnUse" id="radialGradient3078">
   <stop style="stop-color:#000;stop-opacity:1"/>
   <stop offset="1" style="stop-color:#000;stop-opacity:0.196"/>
  </radialGradient>
 </defs>
 <g transform="translate(0,-988.3622)">
  <path d="m 32 1035.03 c -13.1 0 -24.704 1.044 -32 2.667 l 0 8 c 7.296 1.622 18.898 2.667 32 2.667 13.1 0 24.704 -1.044 32 -2.667 l 0 -8 c -7.296 -1.623 -18.898 -2.667 -32 -2.667 z" style="fill:url(#radialGradient3078);opacity:0.1;fill-opacity:1;stroke:none"/>
  <rect width="60" height="42" x="2" y="1002.36" rx="6.522" ry="6.562" style="fill:#757575;fill-opacity:1;stroke:none"/>
  <path d="m 8.522 1001.7 c -3.613 0 -6.522 2.973 -6.522 6.667 l 0 2.667 c 0 -3.693 2.909 -6.667 6.522 -6.667 l 46.957 0 c 3.613 0 6.522 2.973 6.522 6.667 l 0 -2.667 c 0 -3.693 -2.909 -6.667 -6.522 -6.667 l -46.957 0 z" style="fill:#fff;opacity:0.2;fill-opacity:1;stroke:none"/>
  <path d="m 8.522 1012.36 10.435 0 c 14.348 -1.333 11.739 -16 20.87 -16 l 15.652 0 c 3.613 0 6.522 2.973 6.522 6.667 l 0 34.667 c 0 3.693 -2.909 6.667 -6.522 6.667 l -46.957 0 c -3.613 0 -6.522 -2.973 -6.522 -6.667 l 0 -18.667 c 0 -4 2.609 -6.667 6.522 -6.667 z" style="fill:#bdbdbd;fill-opacity:1;stroke:none"/>
  <path d="m 11.25 1019.36 c -1.163 0 -2.097 0.87 -2.219 2 l 15.938 0 c -0.122 -1.13 -1.056 -2 -2.219 -2 l -11.5 0 z m -2.25 3 0 12 16 0 0 -12 -16 0 z m 3 1 10 0 0 2 -10 0 0 -2 z m 0 3 10 0 0 2 -10 0 0 -2 z m 5 4 c 0.552 0 1 0.448 1 1 0 0.552 -0.448 1 -1 1 -0.552 0 -1 -0.448 -1 -1 0 -0.552 0.448 -1 1 -1 z m -7.969 5 c 0.122 1.13 1.056 2 2.219 2 l 11.5 0 c 1.163 0 2.097 -0.87 2.219 -2 l -15.938 0 z" style="fill:#000;fill-opacity:0.098"/>
  <path d="m 11.25 30 c -1.163 0 -2.097 0.871 -2.219 2 l 15.938 0 c -0.122 -1.129 -1.056 -2 -2.219 -2 l -11.5 0 z m -2.25 3 l 0 12 l 16 0 l 0 -12 l -16 0 z m 3 1 l 10 0 l 0 2 l -10 0 l 0 -2 z m 0 3 l 10 0 l 0 2 l -10 0 l 0 -2 z m 5 4 c 0.552 0 1 0.448 1 1 c 0 0.552 -0.448 1 -1 1 c -0.552 0 -1 -0.448 -1 -1 c 0 -0.552 0.448 -1 1 -1 z m -7.969 5 c 0.122 1.13 1.056 2 2.219 2 l 11.5 0 c 1.163 0 2.097 -0.87 2.219 -2 l -15.938 0 z" transform="translate(0,988.3622)" style="fill:#fff8e1;fill-opacity:1"/>
  <path d="m 2 1035.03 0 2.667 c 0 3.693 2.909 6.667 6.522 6.667 l 46.957 0 c 3.613 0 6.522 -2.973 6.522 -6.667 l 0 -2.667 c 0 3.693 -2.909 7.333 -6.522 7.333 l -46.957 0 c -3.613 0 -6.522 -3.64 -6.522 -7.333 z" style="fill:#000;opacity:0.15;fill-opacity:1;stroke:none"/>
 </g>
</svg>
