<svg xmlns="http://www.w3.org/2000/svg" viewBox="0 0 64 64">
 <defs>
  <radialGradient r="24" cy="40.5" cx="24" gradientTransform="matrix(1.6666667,0,0,0.2777777,-8,1030.4456)" gradientUnits="userSpaceOnUse" id="radialGradient3098">
   <stop style="stop-color:#000;stop-opacity:1"/>
   <stop offset="1" style="stop-color:#000;stop-opacity:0.196"/>
  </radialGradient>
 </defs>
 <g transform="translate(0,-988.3622)">
  <path d="m 32 1035.03 c -13.1 0 -24.704 1.044 -32 2.667 l 0 8 c 7.296 1.622 18.898 2.667 32 2.667 13.1 0 24.704 -1.044 32 -2.667 l 0 -8 c -7.296 -1.623 -18.898 -2.667 -32 -2.667 z" style="fill:url(#radialGradient3098);opacity:0.1;fill-opacity:1;stroke:none"/>
  <rect width="60" height="42" x="2" y="1002.36" rx="6.522" ry="6.562" style="fill:#757575;fill-opacity:1;stroke:none"/>
  <path d="m 8.522 1001.7 c -3.613 0 -6.522 2.973 -6.522 6.667 l 0 2.667 c 0 -3.693 2.909 -6.667 6.522 -6.667 l 46.957 0 c 3.613 0 6.522 2.973 6.522 6.667 l 0 -2.667 c 0 -3.693 -2.909 -6.667 -6.522 -6.667 l -46.957 0 z" style="fill:#fff;opacity:0.2;fill-opacity:1;stroke:none"/>
  <path d="m 8.522 1012.36 10.435 0 c 14.348 -1.333 11.739 -16 20.87 -16 l 15.652 0 c 3.613 0 6.522 2.973 6.522 6.667 l 0 34.667 c 0 3.693 -2.909 6.667 -6.522 6.667 l -46.957 0 c -3.613 0 -6.522 -2.973 -6.522 -6.667 l 0 -18.667 c 0 -4 2.609 -6.667 6.522 -6.667 z" style="fill:#bdbdbd;fill-opacity:1;stroke:none"/>
  <path d="m 23.16 1022.32 c -0.65 0.02 -1.29 0.437 -1.393 1.231 -0.164 1.271 1.065 0.794 2.048 0.794 0.983 0 1.311 2.064 1.065 3.176 -0.246 1.112 -2.859 3.737 -8.766 1.112 -4.863 -2.162 -7.292 0.717 -7.414 0.774 0.46 4.295 4.213 8.953 8.766 8.953 4.864 0 8.807 -5.132 8.807 -9.846 0 -0.541 -0.064 -1.075 -0.164 -1.588 -0.09 -0.259 -0.179 -0.518 -0.246 -0.754 -0.119 -0.423 -0.253 -0.78 -0.369 -1.112 -0.005 -0.02 0.005 -0.028 0 -0.04 -0.466 -1 -1.118 -1.908 -1.925 -2.66 -0.004 -0.02 -0.017 0.02 -0.02 0 -0.126 -0.03 -0.259 -0.042 -0.389 -0.04 z" style="fill:#000;fill-opacity:0.098;color:#000"/>
  <path d="m 2 1035.03 0 2.667 c 0 3.693 2.909 6.667 6.522 6.667 l 46.957 0 c 3.613 0 6.522 -2.973 6.522 -6.667 l 0 -2.667 c 0 3.693 -2.909 7.333 -6.522 7.333 l -46.957 0 c -3.613 0 -6.522 -3.64 -6.522 -7.333 z" style="fill:#000;opacity:0.15;fill-opacity:1;stroke:none"/>
  <path d="m 22.906 1026.82 c 0 0.49 -0.398 0.888 -0.888 0.888 -0.49 0 -0.888 -0.398 -0.888 -0.888 0 -0.491 0.398 -0.888 0.888 -0.888 0.49 0 0.888 0.398 0.888 0.888 z" style="fill:#000;fill-opacity:0.098;color:#000"/>
  <path d="m 23.16 1020.32 c -0.65 0.02 -1.29 0.437 -1.393 1.231 -0.164 1.271 1.065 0.794 2.048 0.794 0.983 0 1.311 2.064 1.065 3.176 -0.246 1.112 -2.859 3.737 -8.766 1.112 -4.863 -2.162 -7.292 0.717 -7.414 0.774 0.46 4.295 4.213 8.953 8.766 8.953 4.864 0 8.807 -5.132 8.807 -9.846 0 -0.541 -0.064 -1.075 -0.164 -1.588 -0.09 -0.259 -0.179 -0.518 -0.246 -0.754 -0.119 -0.423 -0.253 -0.78 -0.369 -1.112 -0.005 -0.02 0.005 -0.028 0 -0.04 -0.466 -1 -1.118 -1.908 -1.925 -2.66 -0.004 -0.02 -0.017 0.02 -0.02 0 -0.126 -0.03 -0.259 -0.042 -0.389 -0.04 z" style="fill:#fff8e1;fill-opacity:1;color:#000"/>
  <path d="m 20.242 1023.71 c 0 0.245 -0.199 0.444 -0.444 0.444 -0.245 0 -0.444 -0.198 -0.444 -0.444 0 -0.245 0.199 -0.444 0.444 -0.444 0.245 0 0.444 0.198 0.444 0.444 z" style="fill:#000;fill-opacity:0.098;color:#000"/>
  <path d="m 22.906 1024.82 c 0 0.49 -0.398 0.888 -0.888 0.888 -0.49 0 -0.888 -0.398 -0.888 -0.888 0 -0.491 0.398 -0.888 0.888 -0.888 0.49 0 0.888 0.398 0.888 0.888 z" style="fill:#fff8e1;fill-opacity:1;color:#000"/>
  <path d="m 20.242 1021.71 c 0 0.245 -0.199 0.444 -0.444 0.444 -0.245 0 -0.444 -0.198 -0.444 -0.444 0 -0.245 0.199 -0.444 0.444 -0.444 0.245 0 0.444 0.198 0.444 0.444 z" style="fill:#fff8e1;fill-opacity:1;color:#000"/>
 </g>
</svg>
