<svg xmlns="http://www.w3.org/2000/svg" viewBox="0 0 64 64">
 <defs>
  <radialGradient r="24" cy="40.5" cx="24" gradientTransform="matrix(1.6666667,0,0,0.2777777,-8,1030.4456)" gradientUnits="userSpaceOnUse" id="radialGradient3101">
   <stop style="stop-color:#000;stop-opacity:1"/>
   <stop offset="1" style="stop-color:#000;stop-opacity:0.196"/>
  </radialGradient>
 </defs>
 <g transform="translate(0,-988.3622)">
  <path d="m 32 1035.03 c -13.1 0 -24.704 1.044 -32 2.667 l 0 8 c 7.296 1.622 18.898 2.667 32 2.667 13.1 0 24.704 -1.044 32 -2.667 l 0 -8 c -7.296 -1.623 -18.898 -2.667 -32 -2.667 z" style="fill:url(#radialGradient3101);opacity:0.1;fill-opacity:1;stroke:none"/>
  <rect width="60" height="42" x="2" y="1002.36" rx="6.522" ry="6.562" style="fill:#e65100;fill-opacity:1;stroke:none"/>
  <path d="m 8.522 1001.7 c -3.613 0 -6.522 2.973 -6.522 6.667 l 0 2.667 c 0 -3.693 2.909 -6.667 6.522 -6.667 l 46.957 0 c 3.613 0 6.522 2.973 6.522 6.667 l 0 -2.667 c 0 -3.693 -2.909 -6.667 -6.522 -6.667 l -46.957 0 z" style="fill:#fff;opacity:0.2;fill-opacity:1;stroke:none"/>
  <path d="m 8.522 1012.36 10.435 0 c 14.348 -1.333 11.739 -16 20.87 -16 l 15.652 0 c 3.613 0 6.522 2.973 6.522 6.667 l 0 34.667 c 0 3.693 -2.909 6.667 -6.522 6.667 l -46.957 0 c -3.613 0 -6.522 -2.973 -6.522 -6.667 l 0 -18.667 c 0 -4 2.609 -6.667 6.522 -6.667 z" style="fill:#f57c00;fill-opacity:1;stroke:none"/>
  <path d="m 2 1035.03 0 2.667 c 0 3.693 2.909 6.667 6.522 6.667 l 46.957 0 c 3.613 0 6.522 -2.973 6.522 -6.667 l 0 -2.667 c 0 3.693 -2.909 7.333 -6.522 7.333 l -46.957 0 c -3.613 0 -6.522 -3.64 -6.522 -7.333 z" style="fill:#000;opacity:0.15;fill-opacity:1;stroke:none"/>
  <path d="m 23.16 1020.3 c -2.423 0 -4.406 2.02 -4.406 4.5 0 0.833 0.235 1.639 0.625 2.313 l 0 4.875 c -0.48 0.102 -0.938 0.325 -1.313 0.625 l -4.344 -2 c 0 -1.772 -1.426 -3.219 -3.156 -3.219 -1.727 0 -3.156 1.446 -3.156 3.219 0 1.775 1.429 3.25 3.156 3.25 0.701 0 1.35 -0.285 1.875 -0.688 l 4.406 2.063 c 0.045 1.735 1.457 3.125 3.156 3.125 1.73 0 3.156 -1.444 3.156 -3.219 0 -0.739 -0.275 -1.423 -0.688 -1.969 l 0.063 0 2.313 -4.188 c 0.017 -0.018 0.015 -0.057 0.031 -0.062 1.553 -0.701 2.688 -2.281 2.688 -4.125 0 -2.481 -1.986 -4.5 -4.406 -4.5 z m 0 1.5 c 1.628 0 2.906 1.331 2.906 3 0 1.672 -1.279 3 -2.906 3 -1.63 0 -2.906 -1.328 -2.906 -3 0 -1.669 1.276 -3 2.906 -3 z m 0 1.094 c -1.041 0 -1.906 0.834 -1.906 1.906 0 1.068 0.866 1.906 1.906 1.906 1.044 0 1.875 -0.837 1.875 -1.906 0 -1.071 -0.831 -1.906 -1.875 -1.906 z m -12.594 5.781 c 1.033 0 1.626 0.447 1.813 1.313 l -1.094 -0.5 c -0.714 -0.311 -1.541 0.017 -1.844 0.75 -0.303 0.732 0.005 1.567 0.719 1.875 l 0.844 0.406 c -0.138 0.023 -0.28 0.031 -0.438 0.031 -1.258 0 -1.875 -0.644 -1.875 -1.938 0 -1.29 0.617 -1.938 1.875 -1.938 z m 9.438 4.313 c 1.165 0 2.094 0.962 2.094 2.156 0 1.194 -0.929 2.125 -2.094 2.125 -0.946 0 -1.739 -0.621 -2 -1.5 l 1.5 0.688 c 0.714 0.311 1.541 -0.077 1.844 -0.813 0.303 -0.732 -0.036 -1.567 -0.75 -1.875 l -1.375 -0.625 c 0.241 -0.1 0.504 -0.156 0.781 -0.156 z" style="fill:#000;fill-opacity:0.098;stroke:none;fill-rule:nonzero"/>
  <path d="m 23.16 29.938 c -2.423 0 -4.406 2.02 -4.406 4.5 c 0 0.834 0.235 1.639 0.625 2.313 l 0 4.875 c -0.48 0.102 -0.938 0.325 -1.313 0.625 l -4.344 -2 c 0 -1.772 -1.426 -3.219 -3.156 -3.219 c -1.727 0 -3.156 1.446 -3.156 3.219 c 0 1.775 1.429 3.25 3.156 3.25 c 0.701 0 1.35 -0.285 1.875 -0.688 l 4.406 2.063 c 0.045 1.735 1.457 3.125 3.156 3.125 c 1.73 0 3.156 -1.444 3.156 -3.219 c 0 -0.739 -0.275 -1.423 -0.688 -1.969 l 0.063 0 l 2.313 -4.188 c 0.017 -0.018 0.015 -0.056 0.031 -0.063 c 1.553 -0.701 2.688 -2.281 2.688 -4.125 c 0 -2.481 -1.986 -4.5 -4.406 -4.5 z m 0 1.5 c 1.628 0 2.906 1.331 2.906 3 c 0 1.672 -1.279 3 -2.906 3 c -1.63 0 -2.906 -1.328 -2.906 -3 c 0 -1.669 1.276 -3 2.906 -3 z m 0 1.094 c -1.041 0 -1.906 0.834 -1.906 1.906 c 0 1.068 0.866 1.906 1.906 1.906 c 1.044 0 1.875 -0.837 1.875 -1.906 c 0 -1.071 -0.831 -1.906 -1.875 -1.906 z m -12.594 5.781 c 1.033 0 1.626 0.447 1.813 1.313 l -1.094 -0.5 c -0.714 -0.311 -1.541 0.017 -1.844 0.75 c -0.303 0.732 0.005 1.567 0.719 1.875 l 0.844 0.406 c -0.138 0.023 -0.28 0.031 -0.438 0.031 c -1.258 0 -1.875 -0.644 -1.875 -1.938 c 0 -1.29 0.617 -1.938 1.875 -1.938 z m 9.438 4.313 c 1.165 0 2.094 0.962 2.094 2.156 c 0 1.194 -0.929 2.125 -2.094 2.125 c -0.946 0 -1.739 -0.621 -2 -1.5 l 1.5 0.688 c 0.714 0.311 1.541 -0.078 1.844 -0.813 c 0.303 -0.732 -0.036 -1.567 -0.75 -1.875 l -1.375 -0.625 c 0.241 -0.1 0.504 -0.156 0.781 -0.156 z" transform="translate(0,988.3622)" style="fill:#fff8e1;opacity:1;fill-opacity:1;stroke:none;fill-rule:nonzero"/>
 </g>
</svg>
