<svg xmlns="http://www.w3.org/2000/svg" viewBox="0 0 64 64">
 <defs>
  <radialGradient r="24" cy="40.5" cx="24" gradientTransform="matrix(1.6666667,0,0,0.2777777,-8,1030.4456)" gradientUnits="userSpaceOnUse" id="radialGradient3239">
   <stop style="stop-color:#000;stop-opacity:1"/>
   <stop offset="1" style="stop-color:#000;stop-opacity:0.196"/>
  </radialGradient>
 </defs>
 <g transform="translate(0,-988.3622)">
  <path d="m 32 1035.03 c -13.1 0 -24.704 1.044 -32 2.667 l 0 8 c 7.296 1.622 18.898 2.667 32 2.667 13.1 0 24.704 -1.044 32 -2.667 l 0 -8 c -7.296 -1.623 -18.898 -2.667 -32 -2.667 z" style="fill:url(#radialGradient3239);opacity:0.1;fill-opacity:1;stroke:none"/>
  <rect width="60" height="42" x="2" y="1002.36" rx="6.522" ry="6.562" style="fill:#e65100;fill-opacity:1;stroke:none"/>
  <path d="m 8.522 1001.7 c -3.613 0 -6.522 2.973 -6.522 6.667 l 0 2.667 c 0 -3.693 2.909 -6.667 6.522 -6.667 l 46.957 0 c 3.613 0 6.522 2.973 6.522 6.667 l 0 -2.667 c 0 -3.693 -2.909 -6.667 -6.522 -6.667 l -46.957 0 z" style="fill:#fff;opacity:0.2;fill-opacity:1;stroke:none"/>
  <path d="m 8.522 1012.36 10.435 0 c 14.348 -1.333 11.739 -16 20.87 -16 l 15.652 0 c 3.613 0 6.522 2.973 6.522 6.667 l 0 34.667 c 0 3.693 -2.909 6.667 -6.522 6.667 l -46.957 0 c -3.613 0 -6.522 -2.973 -6.522 -6.667 l 0 -18.667 c 0 -4 2.609 -6.667 6.522 -6.667 z" style="fill:#f57c00;fill-opacity:1;stroke:none"/>
  <path d="m 2 1035.03 0 2.667 c 0 3.693 2.909 6.667 6.522 6.667 l 46.957 0 c 3.613 0 6.522 -2.973 6.522 -6.667 l 0 -2.667 c 0 3.693 -2.909 7.333 -6.522 7.333 l -46.957 0 c -3.613 0 -6.522 -3.64 -6.522 -7.333 z" style="fill:#000;opacity:0.15;fill-opacity:1;stroke:none"/>
  <path d="m 14.438 1022.21 a 4.958 4.958 0 0 0 -4.594 4.938 4.958 4.958 0 0 0 0.469 2.125 l -0.469 0 0 0.094 A 3.542 3.542 0 0 0 7 1032.83 a 3.542 3.542 0 0 0 2.844 3.469 l 0 0.062 0.688 0 0.25 0 13.219 0 0 -0.094 A 3.542 3.542 0 0 0 26.844 1032.83 3.542 3.542 0 0 0 24 1029.36 l 0 -0.094 -0.719 0 a 3.542 3.542 0 0 0 0.719 -2.125 3.542 3.542 0 0 0 -3.531 -3.531 3.542 3.542 0 0 0 -1.781 0.469 4.958 4.958 0 0 0 -3.906 -1.875 4.958 4.958 0 0 0 -0.344 0 z" style="fill:#000;fill-opacity:0.098;stroke:none"/>
  <path d="M 14.438 31.844 A 4.958 4.958 0 0 0 9.844 36.781 A 4.958 4.958 0 0 0 10.313 38.906 L 9.844 38.906 L 9.844 39 A 3.542 3.542 0 0 0 7 42.469 A 3.542 3.542 0 0 0 9.844 45.938 L 9.844 46 L 10.531 46 L 10.781 46 L 24 46 L 24 45.906 A 3.542 3.542 0 0 0 26.844 42.469 A 3.542 3.542 0 0 0 24 39 L 24 38.906 L 23.281 38.906 A 3.542 3.542 0 0 0 24 36.781 A 3.542 3.542 0 0 0 20.469 33.25 A 3.542 3.542 0 0 0 18.688 33.719 A 4.958 4.958 0 0 0 14.781 31.844 A 4.958 4.958 0 0 0 14.438 31.844 z" transform="translate(0,988.3622)" style="fill:#fff8e1;opacity:1;fill-opacity:1;stroke:none"/>
 </g>
</svg>
