<svg xmlns="http://www.w3.org/2000/svg" viewBox="0 0 64 64">
 <defs>
  <radialGradient r="24" cy="40.5" cx="24" gradientTransform="matrix(1.6666667,0,0,0.2777777,-8,1030.4456)" gradientUnits="userSpaceOnUse" id="radialGradient3098">
   <stop style="stop-color:#000;stop-opacity:1"/>
   <stop offset="1" style="stop-color:#000;stop-opacity:0.196"/>
  </radialGradient>
 </defs>
 <g transform="translate(0,-988.3622)">
  <path d="m 32 1035.03 c -13.1 0 -24.704 1.044 -32 2.667 l 0 8 c 7.296 1.622 18.898 2.667 32 2.667 13.1 0 24.704 -1.044 32 -2.667 l 0 -8 c -7.296 -1.623 -18.898 -2.667 -32 -2.667 z" style="fill:url(#radialGradient3098);opacity:0.1;fill-opacity:1;stroke:none"/>
  <rect width="60" height="42" x="2" y="1002.36" rx="6.522" ry="6.562" style="fill:#d32f2f;fill-opacity:1;stroke:none"/>
  <path d="m 8.522 1001.7 c -3.613 0 -6.522 2.973 -6.522 6.667 l 0 2.667 c 0 -3.693 2.909 -6.667 6.522 -6.667 l 46.957 0 c 3.613 0 6.522 2.973 6.522 6.667 l 0 -2.667 c 0 -3.693 -2.909 -6.667 -6.522 -6.667 l -46.957 0 z" style="fill:#fff;opacity:0.2;fill-opacity:1;stroke:none"/>
  <path d="m 8.522 1012.36 10.435 0 c 14.348 -1.333 11.739 -16 20.87 -16 l 15.652 0 c 3.613 0 6.522 2.973 6.522 6.667 l 0 34.667 c 0 3.693 -2.909 6.667 -6.522 6.667 l -46.957 0 c -3.613 0 -6.522 -2.973 -6.522 -6.667 l 0 -18.667 c 0 -4 2.609 -6.667 6.522 -6.667 z" style="fill:#ef5350;fill-opacity:1;stroke:none"/>
  <path d="m 2 1035.03 0 2.667 c 0 3.693 2.909 6.667 6.522 6.667 l 46.957 0 c 3.613 0 6.522 -2.973 6.522 -6.667 l 0 -2.667 c 0 3.693 -2.909 7.333 -6.522 7.333 l -46.957 0 c -3.613 0 -6.522 -3.64 -6.522 -7.333 z" style="fill:#000;opacity:0.15;fill-opacity:1;stroke:none"/>
  <path d="m 9.286 1020.36 0 5.143 5.143 0 -1.612 -1.451 c 1.15 -0.903 2.608 -1.441 4.184 -1.441 3.728 0 6.75 3.02 6.75 6.75 0 3.728 -3.02 6.75 -6.75 6.75 -3.728 0 -6.75 -3.02 -6.75 -6.75 0 -0.788 0.202 -1.868 0.45 -2.571 l -2.355 0 c -0.184 0.717 -0.345 1.797 -0.345 2.571 c 0 4.971 4.03 9 9 9 4.971 0 9 -4.03 9 -9 0 -4.971 -4.03 -9 -9 -9 -2.201 0 -4.237 0.762 -5.801 2.074 z m 7.609 3.34 c -0.048 0.02 -0.095 0.02 -0.141 0.034 -0.503 0.114 -0.891 0.61 -0.879 1.125 l 0 4.149 c -0.002 0.034 -0.002 0.07 0 0.106 -0.065 0.285 -0.014 0.595 0.141 0.844 0.011 0.02 0.023 0.024 0.035 0.034 0.011 0.024 0.023 0.046 0.035 0.07 0.011 0.02 0.023 0.024 0.035 0.034 0.011 0.02 0.023 0.024 0.035 0.034 0.011 0.02 0.023 0.024 0.035 0.034 0.011 0.02 0.023 0.024 0.035 0.034 0.023 0.02 0.046 0.024 0.07 0.034 0.011 0.02 0.023 0.024 0.035 0.034 0.011 0.02 0.023 0.024 0.035 0.034 0.023 0.02 0.046 0.024 0.07 0.034 0.045 0.028 0.092 0.05 0.141 0.07 l 2.777 1.617 c 0.516 0.299 1.258 0.1 1.554 -0.418 0.296 -0.518 0.091 -1.258 -0.429 -1.551 l -2.355 -1.371 0 -3.832 c 0.023 -0.638 -0.595 -1.22 -1.23 -1.16 z" style="fill:#000;fill-opacity:0.098;color:#000"/>
  <path d="m 9.286 1018.36 0 5.143 5.143 0 -1.612 -1.451 c 1.15 -0.903 2.608 -1.441 4.184 -1.441 3.728 0 6.75 3.02 6.75 6.75 0 3.728 -3.02 6.75 -6.75 6.75 -3.728 0 -6.75 -3.02 -6.75 -6.75 0 -0.788 0.202 -1.868 0.45 -2.571 l -2.355 0 c -0.184 0.717 -0.345 1.797 -0.345 2.571 c 0 4.971 4.03 9 9 9 4.971 0 9 -4.03 9 -9 0 -4.971 -4.03 -9 -9 -9 -2.201 0 -4.237 0.762 -5.801 2.074 z m 7.609 3.34 c -0.048 0.02 -0.095 0.02 -0.141 0.034 -0.503 0.114 -0.891 0.61 -0.879 1.125 l 0 4.149 c -0.002 0.034 -0.002 0.07 0 0.106 -0.065 0.285 -0.014 0.595 0.141 0.844 0.011 0.02 0.023 0.024 0.035 0.034 0.011 0.024 0.023 0.046 0.035 0.07 0.011 0.02 0.023 0.024 0.035 0.034 0.011 0.02 0.023 0.024 0.035 0.034 0.011 0.02 0.023 0.024 0.035 0.034 0.011 0.02 0.023 0.024 0.035 0.034 0.023 0.02 0.046 0.024 0.07 0.034 0.011 0.02 0.023 0.024 0.035 0.034 0.011 0.02 0.023 0.024 0.035 0.034 0.023 0.02 0.046 0.024 0.07 0.034 0.045 0.028 0.092 0.05 0.141 0.07 l 2.777 1.617 c 0.516 0.299 1.258 0.1 1.554 -0.418 0.296 -0.518 0.091 -1.258 -0.429 -1.551 l -2.355 -1.371 0 -3.832 c 0.023 -0.638 -0.595 -1.22 -1.23 -1.16 z" style="fill:#fff8e1;fill-opacity:1;color:#000"/>
 </g>
</svg>
