<svg xmlns="http://www.w3.org/2000/svg" viewBox="0 0 64 64">
 <defs>
  <radialGradient r="24" cy="40.5" cx="24" gradientTransform="matrix(1.6666667,0,0,0.2777777,-8,1030.4456)" gradientUnits="userSpaceOnUse" id="radialGradient3098">
   <stop style="stop-color:#000;stop-opacity:1"/>
   <stop offset="1" style="stop-color:#000;stop-opacity:0.196"/>
  </radialGradient>
 </defs>
 <g transform="translate(0,-988.3622)">
  <path d="m 32 1035.03 c -13.1 0 -24.704 1.044 -32 2.667 l 0 8 c 7.296 1.622 18.898 2.667 32 2.667 13.1 0 24.704 -1.044 32 -2.667 l 0 -8 c -7.296 -1.623 -18.898 -2.667 -32 -2.667 z" style="fill:url(#radialGradient3098);opacity:0.1;fill-opacity:1;stroke:none"/>
  <rect width="60" height="42" x="2" y="1002.36" rx="6.522" ry="6.562" style="fill:#d32f2f;fill-opacity:1;stroke:none"/>
  <path d="m 8.522 1001.7 c -3.613 0 -6.522 2.973 -6.522 6.667 l 0 2.667 c 0 -3.693 2.909 -6.667 6.522 -6.667 l 46.957 0 c 3.613 0 6.522 2.973 6.522 6.667 l 0 -2.667 c 0 -3.693 -2.909 -6.667 -6.522 -6.667 l -46.957 0 z" style="fill:#fff;opacity:0.2;fill-opacity:1;stroke:none"/>
  <path d="m 8.522 1012.36 10.435 0 c 14.348 -1.333 11.739 -16 20.87 -16 l 15.652 0 c 3.613 0 6.522 2.973 6.522 6.667 l 0 34.667 c 0 3.693 -2.909 6.667 -6.522 6.667 l -46.957 0 c -3.613 0 -6.522 -2.973 -6.522 -6.667 l 0 -18.667 c 0 -4 2.609 -6.667 6.522 -6.667 z" style="fill:#ef5350;fill-opacity:1;stroke:none"/>
  <path d="m 2 1035.03 0 2.667 c 0 3.693 2.909 6.667 6.522 6.667 l 46.957 0 c 3.613 0 6.522 -2.973 6.522 -6.667 l 0 -2.667 c 0 3.693 -2.909 7.333 -6.522 7.333 l -46.957 0 c -3.613 0 -6.522 -3.64 -6.522 -7.333 z" style="fill:#000;opacity:0.15;fill-opacity:1;stroke:none"/>
  <path d="m 14.375 1020.36 c -1.141 0 -2 0.859 -2.25 2 -0.07 0.176 -0.125 0.35 -0.125 0.563 l 0 9.625 c -0.309 -0.108 -0.655 -0.188 -1 -0.188 -1.657 0 -3 1.343 -3 3 0 1.657 1.343 3 3 3 1.657 0 3 -1.343 3 -3 0 -0.124 -0.048 -0.254 -0.063 -0.375 0.012 -0.038 -0.01 -0.086 0 -0.124 -0.006 -0.04 0.008 -0.086 0 -0.124 0.014 -0.086 0.063 -0.16 0.063 -0.25 l 0 -8.156 c 0.136 0.026 0.232 0.062 0.375 0.062 l 7.25 0 c 0.143 0 0.239 -0.036 0.375 -0.062 l 0 6.219 c -0.309 -0.108 -0.655 -0.188 -1 -0.188 -1.657 0 -3 1.343 -3 3 0 1.657 1.343 3 3 3 1.657 0 3 -1.343 3 -3 0 -0.124 -0.048 -0.254 -0.063 -0.375 0.012 -0.038 -0.009 -0.086 0 -0.124 -0.006 -0.04 0.008 -0.086 0 -0.124 0.013 -0.086 0.063 -0.16 0.063 -0.25 l 0 -11.562 c 0 -0.202 -0.084 -0.375 -0.125 -0.563 -0.246 -1.141 -1.109 -2 -2.25 -2 z" style="fill:#000;fill-opacity:0.098;stroke:none"/>
  <path d="m -5 8.259 c 0 0.962 -0.816 1.741 -1.823 1.741 -1.01 0 -1.823 -0.78 -1.823 -1.741 0 -0.962 0.816 -1.741 1.823 -1.741 1.01 0 1.823 0.78 1.823 1.741 z" transform="matrix(1.6457926,0,0,1.722675,22.228962,1019.1354)" style="fill:#fff8e1;fill-opacity:1;stroke:none"/>
  <path transform="matrix(1.6457926,0,0,1.7226535,32.228962,1019.1356)" d="m -5 8.259 c 0 0.962 -0.816 1.741 -1.823 1.741 -1.01 0 -1.823 -0.78 -1.823 -1.741 0 -0.962 0.816 -1.741 1.823 -1.741 1.01 0 1.823 0.78 1.823 1.741 z" style="fill:#fff8e1;fill-opacity:1;stroke:none"/>
  <rect width="2" height="14.14" x="12" y="1019.65" rx="1" ry="1.286" style="fill:#fff8e1;fill-opacity:1;stroke:none"/>
  <rect ry="1.286" rx="0.976" y="1019.65" x="22" height="14.14" width="2" style="fill:#fff8e1;fill-opacity:1;stroke:none"/>
  <rect width="12" height="6" x="12" y="1018.36" rx="2.4" ry="3" style="fill:#fff8e1;fill-opacity:1;stroke:none"/>
 </g>
</svg>
