<svg viewBox="0 0 16 16" xmlns="http://www.w3.org/2000/svg">
 <g>
  <g style="fill:#ececec;opacity:0.4;fill-opacity:1;stroke-width:0.727" transform="matrix(0.34783 0 0 0.34783 -0.357 -0.354)">
   <path transform="matrix(2.875 0 0 2.875 1.025 1.019)" d="m 8 0 c -4.418 0 -8 3.582 -8 8 c 0 4.418 3.582 8 8 8 c 4.418 0 8 -3.582 8 -8 c 0 -4.418 -3.582 -8 -8 -8 z m -0.002 2.5 l 0.002 0 c 0.846 0 1.659 0.178 2.395 0.5 l 1.605 0 l 0 1.061 c 0.531 0.493 0.975 1.078 1.281 1.752 l 1.219 -0.469 l -1 3.469 l -1.5 -0.834 l 0 1.533 l 1.346 0.52 c -0.309 0.74 -0.776 1.382 -1.346 1.912 l 0 1.057 l -1.613 0 c -0.734 0.32 -1.54 0.5 -2.385 0.5 c -0.831 0 -1.634 -0.18 -2.365 -0.5 l -1.637 0 l 0 -1.082 c -0.534 -0.498 -0.979 -1.088 -1.279 -1.762 l -1.219 0.438 l 1 -3.375 l 1.498 0.807 l 0 -1.506 l -1.346 -0.52 c 0.3 -0.746 0.769 -1.396 1.346 -1.934 l 0 -1.066 l 1.633 0 c 0.731 -0.318 1.532 -0.5 2.365 -0.5 z"/>
  </g>
 </g>
 <g style="fill:#ececec;fill-opacity:1" transform="matrix(0.72725 0 0 0.72725 0.182 0)">
  <rect style="stroke:none" y="5.5" x="12.13" width="2.75" height="11"/>
  <rect style="stroke:none" y="5.5" x="6.625" width="2.75" height="11"/>
 </g>
 <g style="fill:#ececec;fill-opacity:1;stroke:none" transform="matrix(0.72725 0 0 0.72725 0.182 0)">
  <rect y="5.5" width="2.75" x="12.13" height="11"/>
  <rect y="5.5" width="2.75" x="6.625" height="11"/>
 </g>
</svg>
