<svg width="16" viewBox="0 0 4.5155556 4.5155556" xmlns="http://www.w3.org/2000/svg" height="16">
 <path d="M 4.498047 0.996094 A 1.0001 1.0001 0 0 0 3.632813 1.494141 L 0.139 7.494 A 1.0001 1.0001 0 0 0 0.130859 8.492188 L 3.551 14.492 A 1.0001 1.0001 0 0 0 4.416016 14.996094 L 11.502 14.996 A 1.0001 1.0001 0 0 0 12.367188 14.505859 L 15.861 8.506 A 1.0001 1.0001 0 0 0 15.861328 7.494141 L 12.367 1.494 A 1.0001 1.0001 0 0 0 11.501953 0.996094 L 4.498 0.996 z M 5.08 2.996 L 10.928 2.996 L 11.301 3.639 L 8 6.939 L 4.703 3.643 L 5.08 2.996 z M 12.08 4.979 L 13.842 8 L 12.08 11.02 L 9.06 8 L 12.08 4.979 z M 3.92 4.98 L 6.939 8 L 3.887 11.05 L 2.152 8.01 L 3.92 4.98 z M 8 9.06 L 11.299 12.359 L 10.928 12.996 L 4.996 12.996 L 4.658 12.402 L 8 9.06 z" style="visibility:visible;shape-rendering:auto;color-interpolation-filters:linearRGB;fill:#ececec;opacity:1;image-rendering:auto;fill-opacity:1;text-rendering:auto;stroke:none;display:inline;color:#000;fill-rule:evenodd;color-rendering:auto;color-interpolation:sRGB" transform="matrix(0.28222 0 0 0.28222 0 0)"/>
</svg>
