<svg viewBox="0 0 16 16" xmlns="http://www.w3.org/2000/svg">
 <g transform="matrix(1 0 0 1 -0.19 -1037.04)" style="fill:#ececec;fill-opacity:1;stroke:none">
  <path d="M 4.594,1045.26 H 5.65 v -2.998 l -1.084,0.224 v -0.814 l 1.078,-0.224 h 1.137 v 3.813 h 1.056 v 0.826 H 4.593 v -0.826 z"/>
  <path d="m 10.03,1043.8 q -0.314,0 -0.472,0.205 -0.155,0.202 -0.155,0.609 0,0.407 0.155,0.612 0.158,0.202 0.472,0.202 0.317,0 0.472,-0.202 0.158,-0.205 0.158,-0.612 0,-0.407 -0.158,-0.609 -0.155,-0.205 -0.472,-0.205 z m 1.479,-2.228 v 0.858 q -0.295,-0.14 -0.556,-0.205 -0.261,-0.068 -0.51,-0.068 -0.534,0 -0.833,0.298 -0.298,0.295 -0.348,0.879 0.205,-0.152 0.444,-0.227 0.239,-0.078 0.522,-0.078 0.712,0 1.147,0.416 0.438,0.416 0.438,1.091 0,0.746 -0.488,1.196 -0.488,0.447 -1.308,0.447 -0.904,0 -1.401,-0.609 -0.494,-0.612 -0.494,-1.734 0,-1.15 0.578,-1.805 0.581,-0.659 1.591,-0.659 0.32,0 0.621,0.05 0.301,0.05 0.597,0.149 z"/>
 </g>
 <path d="M 1,1 C 0.446,1 0,1.446 0,2 v 9 c 0,0.554 0.453538,1.091077 1,1 h 6 v 2 l -2.998047,2 h 8 L 9,14 v -2 h 6 c 0.554,0 1,-0.446 1,-1 V 2 C 16,1.446 15.554,1 15,1 Z m 0.5,1 h 13 C 14.777,2 15,2.223 15,2.5 v 8 C 15,10.777 14.777,11 14.5,11 H 1.5 C 1.223,11 1,10.777 1,10.5 v -8 C 1,2.223 1.223,2 1.5,2 Z" style="fill:#ececec;fill-opacity:1;stroke-width:1"/>
</svg>
