<svg viewBox="0 0 16 16" xmlns="http://www.w3.org/2000/svg">
 <g style="fill:#ececec;fill-opacity:1;stroke:none" transform="matrix(1 0 0 1 -0.028 -1037.04)">
  <path d="m 8.09,1043.8 q -0.314,0 -0.472,0.205 -0.155,0.202 -0.155,0.609 0,0.407 0.155,0.612 0.158,0.202 0.472,0.202 0.317,0 0.472,-0.202 0.158,-0.205 0.158,-0.612 0,-0.407 -0.158,-0.609 Q 8.407,1043.8 8.09,1043.8 Z m 1.479,-2.228 v 0.858 q -0.295,-0.14 -0.556,-0.205 -0.261,-0.068 -0.51,-0.068 -0.534,0 -0.833,0.298 -0.298,0.295 -0.348,0.879 0.205,-0.152 0.444,-0.227 0.239,-0.078 0.522,-0.078 0.712,0 1.147,0.416 0.438,0.416 0.438,1.091 0,0.746 -0.488,1.196 -0.488,0.447 -1.308,0.447 -0.904,0 -1.401,-0.609 -0.494,-0.612 -0.494,-1.734 0,-1.15 0.578,-1.805 0.581,-0.659 1.591,-0.659 0.32,0 0.621,0.05 0.301,0.05 0.597,0.149 z"/>
 </g>
 <path style="fill:#ececec;fill-opacity:1;stroke-width:1" d="m 1 1 c -0.554 0 -1 0.446 -1 1 l 0 9 c 0 0.554 0.454 1.091 1 1 l 6 0 l 0 2 l -2.998 2 l 8 0 l -3 -2 l 0 -2 l 6 0 c 0.554 0 1 -0.446 1 -1 l 0 -9 c 0 -0.554 -0.446 -1 -1 -1 z m 0.5 1 l 13 0 c 0.277 0 0.5 0.223 0.5 0.5 l 0 8 c 0 0.277 -0.223 0.5 -0.5 0.5 l -13 0 c -0.277 0 -0.5 -0.223 -0.5 -0.5 l 0 -8 c 0 -0.277 0.223 -0.5 0.5 -0.5 z"/>
</svg>
