<svg xmlns="http://www.w3.org/2000/svg" viewBox="0 0 16 16">
 <g transform="matrix(1 0 0 1 -0.157 -1037.04)" style="fill:#ececec;fill-opacity:1;stroke:none">
  <path d="M 4.594,1045.26 H 5.65 v -2.998 l -1.084,0.224 v -0.814 l 1.078,-0.224 h 1.137 v 3.813 h 1.056 v 0.826 H 4.593 v -0.826 z"/>
  <path d="m 8.364,1045.99 v -0.858 q 0.286,0.134 0.547,0.202 0.261,0.065 0.516,0.065 0.534,0 0.833,-0.295 0.298,-0.298 0.351,-0.882 -0.211,0.155 -0.451,0.233 -0.239,0.078 -0.519,0.078 -0.712,0 -1.15,-0.413 -0.435,-0.416 -0.435,-1.094 0,-0.749 0.485,-1.199 0.488,-0.45 1.305,-0.45 0.907,0 1.404,0.612 0.497,0.612 0.497,1.731 0,1.15 -0.581,1.808 -0.581,0.656 -1.594,0.656 -0.326,0 -0.625,-0.05 -0.298,-0.047 -0.584,-0.143 z m 1.476,-2.234 q 0.314,0 0.472,-0.202 0.158,-0.205 0.158,-0.612 0,-0.404 -0.158,-0.609 -0.158,-0.205 -0.472,-0.205 -0.314,0 -0.472,0.205 -0.158,0.205 -0.158,0.609 0,0.407 0.158,0.612 0.158,0.202 0.472,0.202 z"/>
 </g>
 <path d="m 1 1 c -0.554 0 -1 0.446 -1 1 l 0 9 c 0 0.554 0.454 1.091 1 1 l 6 0 l 0 2 l -2.998 2 l 8 0 l -3 -2 l 0 -2 l 6 0 c 0.554 0 1 -0.446 1 -1 l 0 -9 c 0 -0.554 -0.446 -1 -1 -1 z m 0.5 1 l 13 0 c 0.277 0 0.5 0.223 0.5 0.5 l 0 8 c 0 0.277 -0.223 0.5 -0.5 0.5 l -13 0 c -0.277 0 -0.5 -0.223 -0.5 -0.5 l 0 -8 c 0 -0.277 0.223 -0.5 0.5 -0.5 z" style="fill:#ececec;fill-opacity:1;stroke-width:1"/>
</svg>
