<svg xmlns="http://www.w3.org/2000/svg" viewBox="0 0 16 16">
 <g style="fill:#ececec;fill-opacity:1;stroke:none" transform="matrix(1 0 0 1 -0.208 -1037.04)">
  <path d="M 4.594,1045.26 H 5.65 v -2.998 l -1.084,0.224 v -0.814 l 1.078,-0.224 h 1.137 v 3.813 h 1.056 v 0.826 H 4.593 v -0.826 z"/>
  <path d="m 10.655 1043.77 q 0 -0.87 -0.165 -1.224 -0.162 -0.357 -0.547 -0.357 -0.385 0 -0.55 0.357 -0.165 0.354 -0.165 1.224 0 0.879 0.165 1.24 0.165 0.36 0.55 0.36 0.382 0 0.547 -0.36 0.165 -0.361 0.165 -1.24 z m 1.196 0.01 q 0 1.153 -0.497 1.78 -0.497 0.625 -1.411 0.625 -0.917 0 -1.414 -0.625 -0.497 -0.628 -0.497 -1.78 0 -1.156 0.497 -1.781 0.497 -0.628 1.414 -0.628 0.914 0 1.411 0.628 0.497 0.625 0.497 1.781 z"/>
 </g>
 <path d="M 1,1 C 0.446,1 0,1.446 0,2 v 9 c 0,0.554 0.453538,1.091077 1,1 h 6 v 2 l -2.998047,2 h 8 L 9,14 v -2 h 6 c 0.554,0 1,-0.446 1,-1 V 2 C 16,1.446 15.554,1 15,1 Z m 0.5,1 h 13 C 14.777,2 15,2.223 15,2.5 v 8 C 15,10.777 14.777,11 14.5,11 H 1.5 C 1.223,11 1,10.777 1,10.5 v -8 C 1,2.223 1.223,2 1.5,2 Z" style="fill:#ececec;fill-opacity:1;stroke-width:1"/>
</svg>
