<svg viewBox="0 0 16 16" xmlns="http://www.w3.org/2000/svg">
 <g style="fill:#ececec;fill-opacity:1;stroke:none" transform="matrix(1 0 0 1 -0.101 -1037.04)">
  <path d="m 5.681,1045.21 h 2.041 v 0.879 H 4.351 v -0.879 l 1.693,-1.495 q 0.227,-0.205 0.336,-0.401 0.109,-0.196 0.109,-0.407 0,-0.326 -0.221,-0.525 -0.218,-0.199 -0.581,-0.199 -0.28,0 -0.612,0.121 -0.332,0.118 -0.712,0.354 v -1.019 q 0.404,-0.134 0.799,-0.202 0.395,-0.071 0.774,-0.071 0.833,0 1.293,0.367 0.463,0.367 0.463,1.022 0,0.379 -0.196,0.708 -0.196,0.326 -0.823,0.876 l -0.991,0.87 z"/>
  <path d="m 10.655 1043.77 q 0 -0.87 -0.165 -1.224 -0.162 -0.357 -0.547 -0.357 -0.385 0 -0.55 0.357 -0.165 0.354 -0.165 1.224 0 0.879 0.165 1.24 0.165 0.36 0.55 0.36 0.382 0 0.547 -0.36 0.165 -0.361 0.165 -1.24 z m 1.196 0.01 q 0 1.153 -0.497 1.78 -0.497 0.625 -1.411 0.625 -0.917 0 -1.414 -0.625 -0.497 -0.628 -0.497 -1.78 0 -1.156 0.497 -1.781 0.497 -0.628 1.414 -0.628 0.914 0 1.411 0.628 0.497 0.625 0.497 1.781 z"/>
 </g>
 <path d="m 1 1 c -0.554 0 -1 0.446 -1 1 l 0 9 c 0 0.554 0.454 1.091 1 1 l 6 0 l 0 2 l -2.998 2 l 8 0 l -3 -2 l 0 -2 l 6 0 c 0.554 0 1 -0.446 1 -1 l 0 -9 c 0 -0.554 -0.446 -1 -1 -1 z m 0.5 1 l 13 0 c 0.277 0 0.5 0.223 0.5 0.5 l 0 8 c 0 0.277 -0.223 0.5 -0.5 0.5 l -13 0 c -0.277 0 -0.5 -0.223 -0.5 -0.5 l 0 -8 c 0 -0.277 0.223 -0.5 0.5 -0.5 z" style="fill:#ececec;fill-opacity:1;stroke-width:1"/>
</svg>
