<svg xmlns="http://www.w3.org/2000/svg" viewBox="0 0 16 16">
 <g style="fill:#ececec;fill-opacity:1;stroke:none" transform="matrix(1 0 0 1 0.008 -1037.04)">
  <path d="m 6.812,1043.59 q 0.469,0.121 0.712,0.422 0.245,0.298 0.245,0.761 0,0.69 -0.528,1.05 -0.528,0.357 -1.541,0.357 -0.357,0 -0.718,-0.059 -0.357,-0.056 -0.708,-0.171 v -0.923 q 0.336,0.168 0.665,0.255 0.332,0.084 0.653,0.084 0.475,0 0.727,-0.165 0.255,-0.165 0.255,-0.472 0,-0.317 -0.261,-0.478 -0.258,-0.165 -0.764,-0.165 H 5.07 v -0.771 h 0.503 q 0.451,0 0.671,-0.14 0.221,-0.143 0.221,-0.432 0,-0.267 -0.214,-0.413 -0.214,-0.146 -0.606,-0.146 -0.289,0 -0.584,0.065 -0.295,0.065 -0.587,0.193 v -0.876 q 0.354,-0.099 0.702,-0.149 0.348,-0.05 0.684,-0.05 0.904,0 1.352,0.298 0.451,0.295 0.451,0.892 0,0.407 -0.214,0.668 -0.214,0.258 -0.634,0.364 z"/>
  <path d="m 8.402,1041.45 h 2.974 v 0.879 h -2.02 v 0.718 q 0.137,-0.037 0.273,-0.056 0.14,-0.022 0.289,-0.022 0.848,0 1.321,0.426 0.472,0.423 0.472,1.181 0,0.752 -0.516,1.178 -0.513,0.426 -1.426,0.426 -0.395,0 -0.783,-0.078 -0.385,-0.075 -0.767,-0.23 v -0.941 q 0.379,0.217 0.718,0.326 0.342,0.109 0.643,0.109 0.435,0 0.684,-0.211 0.252,-0.214 0.252,-0.578 0,-0.367 -0.252,-0.578 -0.249,-0.211 -0.684,-0.211 -0.258,0 -0.55,0.068 -0.292,0.065 -0.628,0.205 v -2.61 z"/>
 </g>
 <path d="m 1 1 c -0.554 0 -1 0.446 -1 1 l 0 9 c 0 0.554 0.454 1.091 1 1 l 6 0 l 0 2 l -2.998 2 l 8 0 l -3 -2 l 0 -2 l 6 0 c 0.554 0 1 -0.446 1 -1 l 0 -9 c 0 -0.554 -0.446 -1 -1 -1 z m 0.5 1 l 13 0 c 0.277 0 0.5 0.223 0.5 0.5 l 0 8 c 0 0.277 -0.223 0.5 -0.5 0.5 l -13 0 c -0.277 0 -0.5 -0.223 -0.5 -0.5 l 0 -8 c 0 -0.277 0.223 -0.5 0.5 -0.5 z" style="fill:#ececec;fill-opacity:1;stroke-width:1"/>
</svg>
