<svg viewBox="0 0 15.999999 15.999999" xmlns="http://www.w3.org/2000/svg">
 <path style="fill:#ececec;fill-opacity:1;stroke:none;fill-rule:evenodd" d="m 8 0 l -3 3 l 2 0 l 0 7.576 l -2 -1.334 l 0 -0.33 a 1.5 1.5 0 0 0 1 -1.412109 a 1.5 1.5 0 0 0 -1.5 -1.5 a 1.5 1.5 0 0 0 -1.5 1.5 a 1.5 1.5 0 0 0 1 1.412109 l 0 0.598 a 0.50005 0.50005 0 0 0 0.222656 0.416016 l 2.777 1.852 l 0 0.494 a 2 2 0 0 0 -1 1.728516 a 2 2 0 0 0 2 2 a 2 2 0 0 0 2 -2 a 2 2 0 0 0 -1 -1.730469 l 0 -1.336 l 3.777 -2.518 a 0.50005 0.50005 0 0 0 0.222656 -0.416016 l 0 -1 l 1 0 l 0 -3 l -3 0 l 0 3 l 1 0 l 0 0.732 l -3 2 l 0 -6.732 l 2 0 l -3 -3 z"/>
</svg>
