<svg viewBox="0 0 4.5155556 4.5155556" height="16" xmlns="http://www.w3.org/2000/svg" width="16">
 <path d="m 2.259 0 c -1.247 0 -2.259 1.01 -2.259 2.257 c 0 0.453 0.135 0.874 0.365 1.228 l 0.748 -1.495 0.016 -0.034 l 0 -0.023 l -0.235 -0.136 0.141 -0.244 c 0.029 -0.049 0.061 -0.096 0.095 -0.141 0.276 -0.367 0.716 -0.581 1.181 -0.564 0.361 0.014 0.637 0.252 0.885 0.499 l 0.956 -0.318 c -0.402 -0.619 -1.1 -1.028 -1.893 -1.028 m 1.893 1.029 -0.764 1.531 l 0 0.023 l 0.235 0.136 -0.141 0.244 c -0.029 0.049 -0.061 0.096 -0.095 0.141 c -0.276 0.367 -0.716 0.581 -1.181 0.564 -0.361 -0.014 -0.637 -0.252 -0.885 -0.499 l -0.956 0.318 c 0.402 0.618 1.099 1.028 1.892 1.028 1.247 0 2.259 -1.01 2.259 -2.257 0 -0.453 -0.135 -0.874 -0.365 -1.228 z" style="fill:#ececec;opacity:1;fill-opacity:1;stroke:none;fill-rule:nonzero"/>
 <g transform="matrix(0.2823 0 0 0.28209 -5.808 -0.599)" style="stroke-width:0.875">
  <path d="m 28.721,6.125 c 1.309,0.048 2.5,0.737 3.203,1.818 L 33.313,7.48 31.741,10.626 28.596,9.052 29.873,8.626 C 29.535,8.332 29.112,8.141 28.646,8.124 27.904,8.097 27.211,8.479 26.839,9.122 l -1.732,-1 C 25.847,6.84 27.241,6.069 28.72,6.124 Z m -3.313,3.498 3.145,1.574 -1.277,0.426 c 0.338,0.294 0.761,0.485 1.227,0.502 0.742,0.027 1.435,-0.355 1.807,-0.998 l 1.732,1 c -0.74,1.282 -2.134,2.053 -3.613,1.998 -1.309,-0.048 -2.5,-0.737 -3.203,-1.818 l -1.389,0.463 z" style="fill:#ececec;opacity:1;fill-opacity:1;stroke:none;fill-rule:nonzero"/>
 </g>
</svg>
