<svg xmlns="http://www.w3.org/2000/svg" viewBox="0 0 16 16">
 <g transform="matrix(1 0 0 1 14.02 0.122)" aria-label="µ">
  <path d="m -9 -0.122 l 0 6.309 c 0 1.437 0.439 2.378 0.814 3.02 0.341 0.581 1.424 0.914 2.714 0.862 0.227 -0.009 0.461 -0.008 0.704 -0.023 c 0.242 -0.015 0.469 -0.03 0.681 -0.045 0.212 -0.03 0.401 -0.053 0.567 -0.068 0.182 -0.03 0.421 -0.061 0.496 -0.091 l 0 -9.963 l 2 0 l 0 11.461 c -0.484 0.121 -1.112 0.25 -1.884 0.386 -0.757 0.136 -1.589 0.188 -2.496 0.204 -1.336 0.024 -1.943 -0.083 -2.442 -0.25 -0.484 -0.182 -0.852 -0.439 -1.155 -0.772 l 0 4.97 l -2 0 l 0 -16 z" style="fill:#ececec;opacity:0.4;fill-opacity:1;stroke-width:1"/>
 </g>
</svg>
