
<!-- Created with Inkscape (http://www.inkscape.org/) -->
<svg viewBox="0 0 16 16" xmlns="http://www.w3.org/2000/svg">
 <text style="font-size:12.666;font-family:Bitstream Vera Sans;fill:#ececec;opacity:0.4;fill-opacity:1" x="877.23" y="-20.687"><tspan x="877.23" y="-20.687"/>
 </text>
 <text style="font-size:12.666;font-family:Bitstream Vera Sans;fill:#ececec;opacity:0.4;fill-opacity:1" x="901.19" y="-61.43"><tspan x="901.19" y="-61.43"/>
 </text>
 <text style="font-size:12.666;font-family:Bitstream Vera Sans;fill:#ececec;opacity:0.4;fill-opacity:1" x="-569.37" y="-91.51"><tspan x="-569.37" y="-91.51"/>
 </text>
 <text style="font-size:12.666;font-family:Bitstream Vera Sans;fill:#ececec;opacity:0.4;fill-opacity:1" x="-2393.06" y="654.05"><tspan x="-2393.06" y="654.05"/>
 </text>
 <text style="font-size:12.666;font-family:Bitstream Vera Sans;fill:#ececec;opacity:0.4;fill-opacity:1" x="-454.88" y="-476.83"><tspan x="-454.88" y="-476.83"/>
 </text>
 <text style="font-size:12.666;font-family:Bitstream Vera Sans;fill:#ececec;opacity:0.4;fill-opacity:1" x="352.72" y="-890.3"><tspan x="352.72" y="-890.3"/>
 </text>
 <text style="font-size:12.666;font-family:Bitstream Vera Sans;fill:#ececec;opacity:0.4;fill-opacity:1" x="376.68" y="-931.04"><tspan x="376.68" y="-931.04"/>
 </text>
 <text style="font-size:12.666;font-family:Bitstream Vera Sans;fill:#ececec;opacity:0.4;fill-opacity:1" x="-1114.78" y="-938.25"><tspan x="-1114.78" y="-938.25"/>
 </text>
 <text style="font-size:12.666;font-family:Bitstream Vera Sans;fill:#ececec;opacity:0.4;fill-opacity:1" x="345.76" y="-1211.48"><tspan x="345.76" y="-1211.48"/>
 </text>
 <text style="font-size:12.666;font-family:Bitstream Vera Sans;fill:#ececec;opacity:0.4;fill-opacity:1" x="1831.89" y="-584.79"><tspan x="1831.89" y="-584.79"/>
 </text>
 <text style="font-size:12.666;font-family:Bitstream Vera Sans;fill:#ececec;opacity:0.4;fill-opacity:1" x="1855.85" y="-625.53"><tspan x="1855.85" y="-625.53"/>
 </text>
 <text style="font-size:12.666;font-family:Bitstream Vera Sans;fill:#ececec;opacity:0.4;fill-opacity:1" x="364.38" y="-632.74"><tspan x="364.38" y="-632.74"/>
 </text>
 <text style="font-size:12.666;font-family:Bitstream Vera Sans;fill:#ececec;opacity:0.4;fill-opacity:1" x="1824.93" y="-905.98"><tspan x="1824.93" y="-905.98"/>
 </text>
 <text style="font-size:12.666;font-family:Bitstream Vera Sans;fill:#ececec;opacity:0.4;fill-opacity:1" x="-573.43" y="-680.84"><tspan x="-573.43" y="-680.84"/>
 </text>
 <text style="font-size:12.666;font-family:Bitstream Vera Sans;fill:#ececec;opacity:0.4;fill-opacity:1" x="-2397.12" y="64.718"><tspan x="-2397.12" y="64.718"/>
 </text>
 <text style="font-size:12.666;font-family:Bitstream Vera Sans;fill:#ececec;opacity:0.4;fill-opacity:1" x="-682.36" y="157.59"><tspan x="-682.36" y="157.59"/>
 </text>
 <text style="font-size:12.666;font-family:Bitstream Vera Sans;fill:#ececec;opacity:0.4;fill-opacity:1" x="426.66" y="-21.592"><tspan x="426.66" y="-21.592"/>
 </text>
 <text style="font-size:12.666;font-family:Bitstream Vera Sans;fill:#ececec;opacity:0.4;fill-opacity:1" x="450.62" y="-62.33"><tspan x="450.62" y="-62.33"/>
 </text>
 <text style="font-size:12.666;font-family:Bitstream Vera Sans;fill:#ececec;opacity:0.4;fill-opacity:1" x="-1040.84" y="-69.54"><tspan x="-1040.84" y="-69.54"/>
 </text>
 <text style="font-size:12.666;font-family:Bitstream Vera Sans;fill:#ececec;opacity:0.4;fill-opacity:1" x="419.7" y="-342.78"><tspan x="419.7" y="-342.78"/>
 </text>
 <text style="font-size:12.666;font-family:Bitstream Vera Sans;fill:#ececec;opacity:0.4;fill-opacity:1" x="-608.03" y="-72.26"><tspan x="-608.03" y="-72.26"/>
 </text>
 <text style="font-size:12.666;font-family:Bitstream Vera Sans;fill:#ececec;opacity:0.4;fill-opacity:1" x="-2431.72" y="673.3"><tspan x="-2431.72" y="673.3"/>
 </text>
 <text style="font-size:12.666;font-family:Bitstream Vera Sans;fill:#ececec;opacity:0.4;fill-opacity:1" x="-456.94" y="-933.79"><tspan x="-456.94" y="-933.79"/>
 </text>
 <text style="font-size:12.666;font-family:Bitstream Vera Sans;fill:#ececec;opacity:0.4;fill-opacity:1" x="350.66" y="-1347.26"><tspan x="350.66" y="-1347.26"/>
 </text>
 <text style="font-size:12.666;font-family:Bitstream Vera Sans;fill:#ececec;opacity:0.4;fill-opacity:1" x="374.62" y="-1388"><tspan x="374.62" y="-1388"/>
 </text>
 <text style="font-size:12.666;font-family:Bitstream Vera Sans;fill:#ececec;opacity:0.4;fill-opacity:1" x="-1116.84" y="-1395.21"><tspan x="-1116.84" y="-1395.21"/>
 </text>
 <text style="font-size:12.666;font-family:Bitstream Vera Sans;fill:#ececec;opacity:0.4;fill-opacity:1" x="343.7" y="-1668.44"><tspan x="343.7" y="-1668.44"/>
 </text>
 <text style="font-size:12.666;font-family:Bitstream Vera Sans;fill:#ececec;opacity:0.4;fill-opacity:1" x="1829.83" y="-1041.75"><tspan x="1829.83" y="-1041.75"/>
 </text>
 <text style="font-size:12.666;font-family:Bitstream Vera Sans;fill:#ececec;opacity:0.4;fill-opacity:1" x="1853.79" y="-1082.49"><tspan x="1853.79" y="-1082.49"/>
 </text>
 <text style="font-size:12.666;font-family:Bitstream Vera Sans;fill:#ececec;opacity:0.4;fill-opacity:1" x="362.32" y="-1089.7"><tspan x="362.32" y="-1089.7"/>
 </text>
 <text style="font-size:12.666;font-family:Bitstream Vera Sans;fill:#ececec;opacity:0.4;fill-opacity:1" x="1822.87" y="-1362.94"><tspan x="1822.87" y="-1362.94"/>
 </text>
 <text style="font-size:12.666;font-family:Bitstream Vera Sans;fill:#ececec;opacity:0.4;fill-opacity:1" x="-575.49" y="-1137.8"><tspan x="-575.49" y="-1137.8"/>
 </text>
 <text style="font-size:12.666;font-family:Bitstream Vera Sans;fill:#ececec;opacity:0.4;fill-opacity:1" x="-2399.18" y="-392.24"><tspan x="-2399.18" y="-392.24"/>
 </text>
 <text style="font-size:12.666;font-family:Bitstream Vera Sans;fill:#ececec;opacity:0.4;fill-opacity:1" x="-684.42" y="-299.37"><tspan x="-684.42" y="-299.37"/>
 </text>
 <text style="font-size:12.666;font-family:Bitstream Vera Sans;fill:#ececec;opacity:0.4;fill-opacity:1" x="155.59" y="-58.46"><tspan x="155.59" y="-58.46"/>
 </text>
 <text style="font-size:12.666;font-family:Bitstream Vera Sans;fill:#ececec;opacity:0.4;fill-opacity:1" x="179.55" y="-99.2"><tspan x="179.55" y="-99.2"/>
 </text>
 <text style="font-size:12.666;font-family:Bitstream Vera Sans;fill:#ececec;opacity:0.4;fill-opacity:1" x="-1090.26" y="-293.23"><tspan x="-1090.26" y="-293.23"/>
 </text>
 <text style="font-size:12.666;font-family:Bitstream Vera Sans;fill:#ececec;opacity:0.4;fill-opacity:1" x="-282.66" y="-706.7"><tspan x="-282.66" y="-706.7"/>
 </text>
 <text style="font-size:12.666;font-family:Bitstream Vera Sans;fill:#ececec;opacity:0.4;fill-opacity:1" x="-258.7" y="-747.44"><tspan x="-258.7" y="-747.44"/>
 </text>
 <text style="font-size:12.666;font-family:Bitstream Vera Sans;fill:#ececec;opacity:0.4;fill-opacity:1" x="-1750.16" y="-754.65"><tspan x="-1750.16" y="-754.65"/>
 </text>
 <text style="font-size:12.666;font-family:Bitstream Vera Sans;fill:#ececec;opacity:0.4;fill-opacity:1" x="-289.62" y="-1027.88"><tspan x="-289.62" y="-1027.88"/>
 </text>
 <text style="font-size:12.666;font-family:Bitstream Vera Sans;fill:#ececec;opacity:0.4;fill-opacity:1" x="1196.5" y="-401.19"><tspan x="1196.5" y="-401.19"/>
 </text>
 <text style="font-size:12.666;font-family:Bitstream Vera Sans;fill:#ececec;opacity:0.4;fill-opacity:1" x="1220.46" y="-441.93"><tspan x="1220.46" y="-441.93"/>
 </text>
 <text style="font-size:12.666;font-family:Bitstream Vera Sans;fill:#ececec;opacity:0.4;fill-opacity:1" x="-271" y="-449.14"><tspan x="-271" y="-449.14"/>
 </text>
 <text style="font-size:12.666;font-family:Bitstream Vera Sans;fill:#ececec;opacity:0.4;fill-opacity:1" x="1189.54" y="-722.38"><tspan x="1189.54" y="-722.38"/>
 </text>
 <text style="font-size:12.666;font-family:Bitstream Vera Sans;fill:#ececec;opacity:0.4;fill-opacity:1" x="-1208.82" y="-497.23"><tspan x="-1208.82" y="-497.23"/>
 </text>
 <text style="font-size:12.666;font-family:Bitstream Vera Sans;fill:#ececec;opacity:0.4;fill-opacity:1" x="-3032.5" y="248.32"><tspan x="-3032.5" y="248.32"/>
 </text>
 <g style="fill:#ececec;opacity:0.4;fill-opacity:1" transform="matrix(0.90475 0 0 0.90475 -716.75 -707.79)">
  <text style="font-size:14;font-family:Bitstream Vera Sans;opacity:0.8" x="-664.27" y="1159.42"><tspan x="-664.27" y="1159.42"/>
  </text>
 </g>
 <text style="font-size:12.666;font-family:Bitstream Vera Sans;fill:#ececec;opacity:0.4;fill-opacity:1" x="877.23" y="-13.449"><tspan x="877.23" y="-13.449"/>
 </text>
 <text style="font-size:12.666;font-family:Bitstream Vera Sans;fill:#ececec;opacity:0.4;fill-opacity:1" x="901.19" y="-54.19"><tspan x="901.19" y="-54.19"/>
 </text>
 <text style="font-size:12.666;font-family:Bitstream Vera Sans;fill:#ececec;opacity:0.4;fill-opacity:1" x="-569.37" y="-84.27"><tspan x="-569.37" y="-84.27"/>
 </text>
 <text style="font-size:12.666;font-family:Bitstream Vera Sans;fill:#ececec;opacity:0.4;fill-opacity:1" x="-2393.06" y="661.28"><tspan x="-2393.06" y="661.28"/>
 </text>
 <text style="font-size:12.666;font-family:Bitstream Vera Sans;fill:#ececec;opacity:0.4;fill-opacity:1" x="-454.88" y="-469.59"><tspan x="-454.88" y="-469.59"/>
 </text>
 <text style="font-size:12.666;font-family:Bitstream Vera Sans;fill:#ececec;opacity:0.4;fill-opacity:1" x="352.72" y="-883.06"><tspan x="352.72" y="-883.06"/>
 </text>
 <text style="font-size:12.666;font-family:Bitstream Vera Sans;fill:#ececec;opacity:0.4;fill-opacity:1" x="376.68" y="-923.8"><tspan x="376.68" y="-923.8"/>
 </text>
 <text style="font-size:12.666;font-family:Bitstream Vera Sans;fill:#ececec;opacity:0.4;fill-opacity:1" x="-1114.78" y="-931.01"><tspan x="-1114.78" y="-931.01"/>
 </text>
 <text style="font-size:12.666;font-family:Bitstream Vera Sans;fill:#ececec;opacity:0.4;fill-opacity:1" x="345.76" y="-1204.25"><tspan x="345.76" y="-1204.25"/>
 </text>
 <text style="font-size:12.666;font-family:Bitstream Vera Sans;fill:#ececec;opacity:0.4;fill-opacity:1" x="1831.89" y="-577.55"><tspan x="1831.89" y="-577.55"/>
 </text>
 <text style="font-size:12.666;font-family:Bitstream Vera Sans;fill:#ececec;opacity:0.4;fill-opacity:1" x="1855.85" y="-618.3"><tspan x="1855.85" y="-618.3"/>
 </text>
 <text style="font-size:12.666;font-family:Bitstream Vera Sans;fill:#ececec;opacity:0.4;fill-opacity:1" x="364.38" y="-625.51"><tspan x="364.38" y="-625.51"/>
 </text>
 <text style="font-size:12.666;font-family:Bitstream Vera Sans;fill:#ececec;opacity:0.4;fill-opacity:1" x="1824.93" y="-898.74"><tspan x="1824.93" y="-898.74"/>
 </text>
 <text style="font-size:12.666;font-family:Bitstream Vera Sans;fill:#ececec;opacity:0.4;fill-opacity:1" x="-573.43" y="-673.6"><tspan x="-573.43" y="-673.6"/>
 </text>
 <text style="font-size:12.666;font-family:Bitstream Vera Sans;fill:#ececec;opacity:0.4;fill-opacity:1" x="-2397.12" y="71.956"><tspan x="-2397.12" y="71.956"/>
 </text>
 <text style="font-size:12.666;font-family:Bitstream Vera Sans;fill:#ececec;opacity:0.4;fill-opacity:1" x="-682.36" y="164.83"><tspan x="-682.36" y="164.83"/>
 </text>
 <text style="font-size:12.666;font-family:Bitstream Vera Sans;fill:#ececec;opacity:0.4;fill-opacity:1" x="426.66" y="-14.354"><tspan x="426.66" y="-14.354"/>
 </text>
 <text style="font-size:12.666;font-family:Bitstream Vera Sans;fill:#ececec;opacity:0.4;fill-opacity:1" x="450.62" y="-55.1"><tspan x="450.62" y="-55.1"/>
 </text>
 <text style="font-size:12.666;font-family:Bitstream Vera Sans;fill:#ececec;opacity:0.4;fill-opacity:1" x="-1040.84" y="-62.31"><tspan x="-1040.84" y="-62.31"/>
 </text>
 <text style="font-size:12.666;font-family:Bitstream Vera Sans;fill:#ececec;opacity:0.4;fill-opacity:1" x="419.7" y="-335.54"><tspan x="419.7" y="-335.54"/>
 </text>
 <text style="font-size:12.666;font-family:Bitstream Vera Sans;fill:#ececec;opacity:0.4;fill-opacity:1" x="-608.03" y="-65.02"><tspan x="-608.03" y="-65.02"/>
 </text>
 <text style="font-size:12.666;font-family:Bitstream Vera Sans;fill:#ececec;opacity:0.4;fill-opacity:1" x="-2431.72" y="680.53"><tspan x="-2431.72" y="680.53"/>
 </text>
 <text style="font-size:12.666;font-family:Bitstream Vera Sans;fill:#ececec;opacity:0.4;fill-opacity:1" x="-456.94" y="-926.55"><tspan x="-456.94" y="-926.55"/>
 </text>
 <text style="font-size:12.666;font-family:Bitstream Vera Sans;fill:#ececec;opacity:0.4;fill-opacity:1" x="350.66" y="-1340.02"><tspan x="350.66" y="-1340.02"/>
 </text>
 <text style="font-size:12.666;font-family:Bitstream Vera Sans;fill:#ececec;opacity:0.4;fill-opacity:1" x="374.62" y="-1380.76"><tspan x="374.62" y="-1380.76"/>
 </text>
 <text style="font-size:12.666;font-family:Bitstream Vera Sans;fill:#ececec;opacity:0.4;fill-opacity:1" x="-1116.84" y="-1387.97"><tspan x="-1116.84" y="-1387.97"/>
 </text>
 <text style="font-size:12.666;font-family:Bitstream Vera Sans;fill:#ececec;opacity:0.4;fill-opacity:1" x="343.7" y="-1661.21"><tspan x="343.7" y="-1661.21"/>
 </text>
 <text style="font-size:12.666;font-family:Bitstream Vera Sans;fill:#ececec;opacity:0.4;fill-opacity:1" x="1829.83" y="-1034.52"><tspan x="1829.83" y="-1034.52"/>
 </text>
 <text style="font-size:12.666;font-family:Bitstream Vera Sans;fill:#ececec;opacity:0.4;fill-opacity:1" x="1853.79" y="-1075.26"><tspan x="1853.79" y="-1075.26"/>
 </text>
 <text style="font-size:12.666;font-family:Bitstream Vera Sans;fill:#ececec;opacity:0.4;fill-opacity:1" x="362.32" y="-1082.47"><tspan x="362.32" y="-1082.47"/>
 </text>
 <text style="font-size:12.666;font-family:Bitstream Vera Sans;fill:#ececec;opacity:0.4;fill-opacity:1" x="1822.87" y="-1355.7"><tspan x="1822.87" y="-1355.7"/>
 </text>
 <text style="font-size:12.666;font-family:Bitstream Vera Sans;fill:#ececec;opacity:0.4;fill-opacity:1" x="-575.49" y="-1130.56"><tspan x="-575.49" y="-1130.56"/>
 </text>
 <text style="font-size:12.666;font-family:Bitstream Vera Sans;fill:#ececec;opacity:0.4;fill-opacity:1" x="-2399.18" y="-385"><tspan x="-2399.18" y="-385"/>
 </text>
 <text style="font-size:12.666;font-family:Bitstream Vera Sans;fill:#ececec;opacity:0.4;fill-opacity:1" x="-684.42" y="-292.13"><tspan x="-684.42" y="-292.13"/>
 </text>
 <text style="font-size:12.666;font-family:Bitstream Vera Sans;fill:#ececec;opacity:0.4;fill-opacity:1" x="155.59" y="-51.22"><tspan x="155.59" y="-51.22"/>
 </text>
 <text style="font-size:12.666;font-family:Bitstream Vera Sans;fill:#ececec;opacity:0.4;fill-opacity:1" x="179.55" y="-91.96"><tspan x="179.55" y="-91.96"/>
 </text>
 <text style="font-size:12.666;font-family:Bitstream Vera Sans;fill:#ececec;opacity:0.4;fill-opacity:1" x="-1090.26" y="-285.99"><tspan x="-1090.26" y="-285.99"/>
 </text>
 <text style="font-size:12.666;font-family:Bitstream Vera Sans;fill:#ececec;opacity:0.4;fill-opacity:1" x="-282.66" y="-699.46"><tspan x="-282.66" y="-699.46"/>
 </text>
 <text style="font-size:12.666;font-family:Bitstream Vera Sans;fill:#ececec;opacity:0.4;fill-opacity:1" x="-258.7" y="-740.2"><tspan x="-258.7" y="-740.2"/>
 </text>
 <text style="font-size:12.666;font-family:Bitstream Vera Sans;fill:#ececec;opacity:0.4;fill-opacity:1" x="-1750.16" y="-747.41"><tspan x="-1750.16" y="-747.41"/>
 </text>
 <text style="font-size:12.666;font-family:Bitstream Vera Sans;fill:#ececec;opacity:0.4;fill-opacity:1" x="-289.62" y="-1020.64"><tspan x="-289.62" y="-1020.64"/>
 </text>
 <text style="font-size:12.666;font-family:Bitstream Vera Sans;fill:#ececec;opacity:0.4;fill-opacity:1" x="1196.5" y="-393.95"><tspan x="1196.5" y="-393.95"/>
 </text>
 <text style="font-size:12.666;font-family:Bitstream Vera Sans;fill:#ececec;opacity:0.4;fill-opacity:1" x="1220.46" y="-434.69"><tspan x="1220.46" y="-434.69"/>
 </text>
 <text style="font-size:12.666;font-family:Bitstream Vera Sans;fill:#ececec;opacity:0.4;fill-opacity:1" x="-271" y="-441.9"><tspan x="-271" y="-441.9"/>
 </text>
 <text style="font-size:12.666;font-family:Bitstream Vera Sans;fill:#ececec;opacity:0.4;fill-opacity:1" x="1189.54" y="-715.14"><tspan x="1189.54" y="-715.14"/>
 </text>
 <text style="font-size:12.666;font-family:Bitstream Vera Sans;fill:#ececec;opacity:0.4;fill-opacity:1" x="-1208.82" y="-490"><tspan x="-1208.82" y="-490"/>
 </text>
 <text style="font-size:12.666;font-family:Bitstream Vera Sans;fill:#ececec;opacity:0.4;fill-opacity:1" x="-3032.5" y="255.56"><tspan x="-3032.5" y="255.56"/>
 </text>
 <g style="fill:#ececec;opacity:0.4;fill-opacity:1" transform="matrix(0.90475 0 0 0.90475 -716.75 -700.55)">
  <text style="font-size:14;font-family:Bitstream Vera Sans;opacity:0.8" x="-664.27" y="1159.42"><tspan x="-664.27" y="1159.42"/>
  </text>
 </g>
 <text style="font-size:12.666;font-family:Droid Sans;fill:#ececec;opacity:0.4;fill-opacity:1" x="435.9" y="-392.73"><tspan x="435.9" y="-392.73"/><tspan x="435.9" y="-376.89"/>
 </text>
 <text style="font-size:12.666;font-family:Bitstream Vera Sans;fill:#ececec;opacity:0.4;fill-opacity:1" x="901.09" y="-874.77"><tspan x="901.09" y="-874.77"/>
 </text>
 <text style="font-size:12.666;font-family:Bitstream Vera Sans;fill:#ececec;opacity:0.4;fill-opacity:1" x="-922.6" y="-129.22"><tspan x="-922.6" y="-129.22"/>
 </text>
 <text style="font-size:12.666;font-family:Bitstream Vera Sans;fill:#ececec;opacity:0.4;fill-opacity:1" x="1628.17" y="-1159.77"><tspan x="1628.17" y="-1159.77"/>
 </text>
 <text style="font-size:12.666;font-family:Bitstream Vera Sans;fill:#ececec;opacity:0.4;fill-opacity:1" x="1652.13" y="-1200.51"><tspan x="1652.13" y="-1200.51"/>
 </text>
 <text style="font-size:12.666;font-family:Bitstream Vera Sans;fill:#ececec;opacity:0.4;fill-opacity:1" x="160.67" y="-1207.72"><tspan x="160.67" y="-1207.72"/>
 </text>
 <text style="font-size:12.666;font-family:Bitstream Vera Sans;fill:#ececec;opacity:0.4;fill-opacity:1" x="1621.21" y="-1480.95"><tspan x="1621.21" y="-1480.95"/>
 </text>
 <path style="fill:#ececec;opacity:0.4;fill-opacity:1" d="m 1,2 h 2 v 8 H 1 Z M 5,2 H 15 V 14 H 13 V 6 h -2 v 8 H 9 V 6 H 7 v 8 H 5 Z M 1,12 h 2 v 2 H 1 Z"/>
</svg>
