<svg viewBox="0 0 16 16" xmlns="http://www.w3.org/2000/svg">
 <path d="m 10.695 1.838 c -1.246 -0.025 -2.716 0.305 -4.193 1.027 -2.049 1 -3.584 2.565 -4.284 4.262 -0.194 -0.086 -0.404 -0.202 -0.619 -0.344 -1.01 -0.662 -1.56 -1.65 -1.56 -1.65 c 0 0 -0.262 1.968 0.575 3.162 0.43 0.619 0.877 1.01 1.212 1.237 0.047 0.546 0.18 1.082 0.434 1.603 1.444 2.957 5.569 3.91 9.212 2.132 2.505 -1.22 3.098 -3.133 3.02 -5.544 0.163 -0.112 0.297 -0.219 0.412 -0.344 0.065 0.022 0.137 0.043 0.18 0.069 0.438 0.279 0.55 0.825 0.55 0.825 0 0 0.645 -1.35 0.207 -2.497 -0.305 -0.812 -1.087 -1.169 -1.693 -1.263 -0.022 -0.12 -0.025 -0.241 -0.047 -0.365 c -0.236 -1.478 -1.589 -2.281 -3.412 -2.312 m -6.644 0.709 c 0 0 -0.748 0.55 -1.053 1.375 0 0 0.365 0.687 0.365 0.687 0 0 0.09 -0.133 0.597 -0.438 -0.095 -0.843 0.09 -1.625 0.09 -1.625 m 6.677 0.155 c 0.615 0 0.94 0.426 0.94 0.976 0 0.55 -0.361 0.906 -0.94 0.906 -0.575 0 -0.984 -0.25 -0.984 -0.94 0 -0.692 0.374 -0.94 0.984 -0.94 m -8.782 0.464 c 0 0 -0.778 1.118 -0.803 2.38 0 0.009 0.847 0.757 0.847 0.757 0 0 0.069 -0.262 0.645 -0.937 c -0.55 -1.078 -0.687 -2.2 -0.687 -2.2 m 10.858 1.143 c 0.03 0 0.025 0 0.047 0 -0.172 0.052 -0.541 0.253 -0.778 0.94 -0.21 0.606 -0.137 1.053 -0.137 1.053 0 0 -0.838 0.516 -0.872 1.538 -0.022 0.489 0.159 1.031 1.307 0.962 0.39 0.034 1.74 -0.645 1.74 -0.645 0 0 -1.706 1.512 -3.01 1.181 c -0.997 -0.253 -1 -1.01 -1.032 -1.35 -0.069 -0.803 0.894 -1.675 0.894 -1.675 c 0 0 -0.077 -0.937 0.288 -1.371 0.713 -0.89 1.302 -0.597 1.555 -0.636 z" style="fill:#54cdee;fill-opacity:1;stroke-width:1"/>
</svg>
