<svg viewBox="0 0 16 16" xmlns="http://www.w3.org/2000/svg">
 <path style="fill:#54cdee;opacity:1;fill-opacity:1;stroke:none;fill-rule:nonzero" d="m 8 0 c -1.209 0 -2.418 0.313 -3.5 0.938 c -2.164 1.25 -3.5 3.563 -3.5 6.06 l 0 1.016 c 0.11 0.005 0.241 0.06 0.414 0.232 c 0.94 0.94 5.644 4.701 6.586 4.701 c 0.94 0 5.644 -3.762 6.586 -4.701 c 0.174 -0.174 0.306 -0.228 0.414 -0.232 l 0 -1.016 c 0 -2.499 -1.336 -4.813 -3.5 -6.06 c -1.082 -0.625 -2.291 -0.938 -3.5 -0.938 z m 0 2 c 0.863 0 1.726 0.223 2.5 0.67 c 1.548 0.894 2.5 2.542 2.5 4.33 l -10 0 c 0 -1.788 0.952 -3.436 2.5 -4.33 c 0.774 -0.447 1.637 -0.67 2.5 -0.67 z m -7 7.533 l 0 5.467 c 0 0.554 0.446 1 1 1 l 12 0 c 0.554 0 1 -0.446 1 -1 l 0 -5.467 c -0.11 0.213 -0.241 0.422 -0.414 0.596 c -0.94 0.94 -5.644 4.701 -6.586 4.701 c -0.94 0 -5.644 -3.764 -6.586 -4.701 c -0.174 -0.174 -0.306 -0.381 -0.414 -0.596 z"/>
</svg>
