<svg xmlns="http://www.w3.org/2000/svg" viewBox="0 0 4.5155557 4.5155556" height="16" width="16">
 <path d="m 1.976 0 c -0.191 0 -0.282 0.047 -0.282 0.226 l 0 3.161 c 0 0.18 0.293 0.377 0.485 0.377 l 0.158 0 c 0.191 0 0.485 -0.138 0.485 -0.318 l 0 -0.905 l -0.565 0 l 0 -0.282 l 0.565 0 l 0 -0.282 l -0.565 0 l 0.001 -0.282 l 0.565 0 l -0.001 -0.282 l -0.565 0 l 0 -0.282 l 0.565 0 l 0.001 -0.282 l -0.567 0 l 0 -0.282 l 0.565 0 l 0 -0.263 c 0 -0.18 -0.091 -0.303 -0.282 -0.303" style="fill:#ef555c;fill-opacity:1;stroke:none"/>
 <circle r="0.847" cy="3.669" cx="2.258" style="fill:#ef555c;fill-opacity:1;stroke:none"/>
</svg>
