<svg height="16" width="16" xmlns="http://www.w3.org/2000/svg" viewBox="0 0 4.5155557 4.5155557">
 <rect width="0.564" style="fill:#ececec;opacity:1;fill-opacity:1;stroke:none;fill-rule:nonzero" x="1.976" y="1.411" height="3.104" rx="0.212"/>
 <path d="m 0.701 0 c -0.934 0.934 -0.934 2.458 0 3.393 l 0.398 -0.398 c -0.719 -0.719 -0.719 -1.877 0 -2.596 z" style="visibility:visible;shape-rendering:auto;color-interpolation-filters:linearRGB;fill:#ececec;opacity:0.4;image-rendering:auto;fill-opacity:1;text-rendering:auto;stroke:none;display:inline;color:#000;fill-rule:nonzero;color-rendering:auto;color-interpolation:sRGB"/>
 <path d="m 1.459 0.895 c -0.44 0.44 -0.44 1.158 0 1.598 l 0.199 -0.199 c -0.332 -0.332 -0.332 -0.867 0 -1.199 z" style="visibility:visible;shape-rendering:auto;color-interpolation-filters:linearRGB;fill:#ececec;opacity:0.4;image-rendering:auto;fill-opacity:1;text-rendering:auto;stroke:none;display:inline;color:#000;fill-rule:nonzero;color-rendering:auto;color-interpolation:sRGB"/>
 <path d="m 3.815 0 c 0.934 0.934 0.934 2.458 0 3.393 l -0.398 -0.398 c 0.719 -0.719 0.719 -1.877 0 -2.596 z" style="visibility:visible;shape-rendering:auto;color-interpolation-filters:linearRGB;fill:#ececec;opacity:0.4;image-rendering:auto;fill-opacity:1;text-rendering:auto;stroke:none;display:inline;color:#000;fill-rule:nonzero;color-rendering:auto;color-interpolation:sRGB"/>
 <path d="m 3.057 0.895 c 0.44 0.44 0.44 1.158 0 1.598 l -0.199 -0.199 c 0.332 -0.332 0.332 -0.867 0 -1.199 z" style="visibility:visible;shape-rendering:auto;color-interpolation-filters:linearRGB;fill:#ececec;opacity:0.4;image-rendering:auto;fill-opacity:1;text-rendering:auto;stroke:none;display:inline;color:#000;fill-rule:nonzero;color-rendering:auto;color-interpolation:sRGB"/>
</svg>
