<svg height="16" width="16" xmlns="http://www.w3.org/2000/svg" viewBox="0 0 4.5155556 4.5155556">
 <path style="fill:#ececec;fill-opacity:1;stroke-width:1" d="m 2.057 0.026 c -0.426 0.036 -0.843 0.107 -1.093 0.199 -0.499 0.184 -0.58 0.195 -0.542 0.377 0.173 0.271 0.263 0.577 0.421 0.858 c 0.047 0.036 0.102 0.055 0.183 0.019 c 0.664 -0.272 1.35 -0.406 2.307 -0.173 0.265 -0.18 0.373 -0.642 0.447 -0.935 0.043 -0.166 -0.014 -0.217 -0.581 -0.327 -0.283 -0.055 -0.718 -0.055 -1.142 -0.019 m -0.999 0.583 c 0.052 -0.004 0.098 0.036 0.102 0.089 0.004 0.054 -0.034 0.1 -0.087 0.104 -0.052 0.004 -0.098 -0.036 -0.102 -0.089 -0.004 -0.054 0.034 -0.1 0.087 -0.104 z m 2.082 -0.165 c 0.052 -0.004 0.098 0.036 0.102 0.089 0.004 0.054 -0.034 0.1 -0.087 0.104 -0.052 0.004 -0.098 -0.036 -0.102 -0.089 -0.004 -0.054 0.034 -0.1 0.087 -0.104 z"/>
 <path style="fill:#ececec;fill-opacity:1;stroke-width:1" d="m 2.258 0.565 c -1.091 0 -1.975 0.884 -1.975 1.975 0 1.091 0.884 1.975 1.975 1.975 1.091 0 1.975 -0.884 1.975 -1.975 0 -1.091 -0.884 -1.975 -1.975 -1.975 z m 0 1.358 c 0.34 0 0.617 0.278 0.617 0.617 0 0.34 -0.278 0.617 -0.617 0.617 -0.34 0 -0.617 -0.278 -0.617 -0.617 0 -0.34 0.278 -0.617 0.617 -0.617 z m 0 0.124 c -0.274 0 -0.493 0.22 -0.493 0.493 0 0.274 0.22 0.493 0.493 0.493 0.274 0 0.493 -0.22 0.493 -0.493 0 -0.274 -0.22 -0.493 -0.493 -0.493 z m 0 0.186 c 0.17 0 0.308 0.139 0.308 0.308 0 0.17 -0.139 0.308 -0.308 0.308 -0.17 0 -0.308 -0.139 -0.308 -0.308 0 -0.17 0.139 -0.308 0.308 -0.308 z"/>
</svg>
