<svg viewBox="0 0 16 16" xmlns="http://www.w3.org/2000/svg">
 <path style="fill:#ececec;opacity:1;fill-opacity:1;stroke:none;fill-rule:nonzero" d="m 7.999 0 c -4.418 0 -7.999 3.582 -7.999 8 0 0.36 0.016 0.715 0.062 1.063 c 0.016 0.128 0.04 0.249 0.062 0.375 0.012 0.07 0.016 0.149 0.032 0.219 0.048 0.23 0.153 0.435 0.219 0.656 0.006 0.019 -0.006 0.043 0 0.062 0.01 0.032 0.021 0.062 0.032 0.094 0.07 0.219 0.131 0.447 0.219 0.656 0.005 0.012 0.026 0.019 0.032 0.032 0.047 0.109 0.104 0.206 0.157 0.312 0.051 0.106 0.07 0.21 0.125 0.312 0.007 0.012 0.025 0.019 0.032 0.032 0.107 0.197 0.221 0.408 0.344 0.594 0.015 0.023 0.047 0.039 0.062 0.062 0.124 0.183 0.236 0.359 0.375 0.531 0.102 0.127 0.203 0.254 0.312 0.375 0.04 0.044 0.085 0.082 0.125 0.125 0.051 0.054 0.104 0.105 0.157 0.157 0.151 0.151 0.307 0.3 0.469 0.437 0.102 0.087 0.206 0.168 0.312 0.25 0.041 0.032 0.084 0.063 0.125 0.094 0.091 0.067 0.187 0.124 0.282 0.187 0.103 0.07 0.205 0.154 0.312 0.219 0.111 0.067 0.228 0.125 0.344 0.187 0.164 0.089 0.33 0.172 0.5 0.25 0.106 0.048 0.205 0.113 0.312 0.157 0.04 0.017 0.085 0.017 0.125 0.032 0.161 0.062 0.334 0.105 0.5 0.157 0.201 0.062 0.386 0.14 0.594 0.187 0.052 0.012 0.103 0.021 0.157 0.032 0.173 0.036 0.353 0.07 0.531 0.094 0.092 0.012 0.188 0.022 0.282 0.032 0.021 0.003 0.043 -0.001 0.062 0 0.249 0.023 0.495 0.032 0.749 0.032 0.404 0 0.8 -0.036 1.188 -0.094 0.019 -0.003 0.043 0.003 0.062 0 0.021 -0.003 0.041 0.003 0.062 0 0.312 -0.051 0.608 -0.164 0.906 -0.25 0.124 -0.036 0.253 -0.052 0.375 -0.094 0.267 -0.091 0.528 -0.195 0.781 -0.312 0.107 -0.05 0.209 -0.102 0.312 -0.157 0.192 -0.1 0.379 -0.198 0.562 -0.312 0.095 -0.06 0.188 -0.124 0.282 -0.187 0.044 -0.03 0.082 -0.063 0.125 -0.094 0.242 -0.173 0.466 -0.363 0.687 -0.562 0.027 -0.025 0.067 -0.037 0.093 -0.062 0.074 -0.069 0.147 -0.147 0.219 -0.219 0.208 -0.208 0.41 -0.426 0.594 -0.656 0.139 -0.173 0.25 -0.347 0.375 -0.531 0.008 -0.012 0.023 -0.019 0.032 -0.032 0.136 -0.205 0.257 -0.407 0.375 -0.626 0.124 -0.227 0.242 -0.448 0.344 -0.688 0.018 -0.043 0.045 -0.081 0.062 -0.125 c 0.371 -0.923 0.562 -1.944 0.562 -3 0 -4.418 -3.582 -8 -7.999 -8 z m 0 1 c 3.866 0 7 3.134 7 7 0 0.776 -0.143 1.522 -0.375 2.219 c -2.933 -2.866 -6.07 -5 -8.969 -4.969 -1.673 0.019 -3.259 0.782 -4.655 2.5 0.132 -3.75 3.217 -6.75 7 -6.75"/>
</svg>
