<svg height="16" width="16" viewBox="0 0 4.5155556 4.5155556" xmlns="http://www.w3.org/2000/svg">
 <path d="M 3.5 4 A 3.5 3.5 0 0 0 0 7.5 A 3.5 3.5 0 0 0 3.5 11 A 3.5 3.5 0 0 0 6 9.949219 L 6 13.5 C 6 13.777 6.223 14 6.5 14 C 6.777 14 7 13.777 7 13.5 L 7 7.5 L 7 5.5 C 7 5.223 6.777 5 6.5 5 C 6.344 5 6.211 5.076 6.119 5.188 A 3.5 3.5 0 0 0 5 4.341797 L 5 7 L 6 7 L 4.5 9 L 3 7 L 4 7 L 4 4.04 A 3.5 3.5 0 0 0 3.5 4 z" style="fill:#ececec;opacity:1;fill-opacity:1;stroke:none;fill-rule:nonzero" transform="matrix(0.28222 0 0 0.28222 0 0)"/>
 <path d="M 3.527778 3.386667 A 0.987778 0.987778 0 0 0 4.515556 2.398889 0.987778 0.987778 0 0 0 3.527778 1.411111 0.987778 0.987778 0 0 0 2.822222 1.707665 L 2.822 0.706 c 0 -0.078 -0.063 -0.141 -0.141 -0.141 -0.078 0 -0.141 0.063 -0.141 0.141 L 2.54 2.399 2.54 2.963 c 0 0.078 0.063 0.141 0.141 0.141 0.044 0 0.082 -0.021 0.107 -0.053 A 0.987778 0.987778 0 0 0 3.104445 3.290204 L 3.104 2.54 L 2.822 2.54 L 3.246 1.976 3.669 2.54 L 3.387 2.54 l 0 0.835 a 0.987778 0.987778 0 0 0 0.141111 0.011575 z" style="fill:#ececec;opacity:1;fill-opacity:1;stroke:none;fill-rule:nonzero"/>
</svg>
