<svg xmlns="http://www.w3.org/2000/svg" viewBox="0 0 16 16">
 <path d="m 5.674 3.875 c -2.367 0 -4.287 1.92 -4.287 4.287 c 0 0.095 0.005 0.194 0.014 0.289 c -0.834 0.399 -1.4 1.207 -1.4 2.139 c 0 1.336 1.16 2.41 2.604 2.41 l 10.793 0 c 1.44 0 2.604 -1.075 2.604 -2.41 c 0 -0.992 -0.645 -1.844 -1.564 -2.211 c 0.022 -0.151 0.035 -0.304 0.035 -0.459 c 0 -1.697 -1.375 -3.072 -3.072 -3.072 c -0.85 0 -1.62 0.348 -2.178 0.906 c -0.769 -1.134 -2.071 -1.877 -3.545 -1.877 l -0.002 -0.002 z m -1.674 1.125 c 0.552 0 1 0.448 1 1 c 0 0.552 -0.448 1 -1 1 c -0.552 0 -1 -0.448 -1 -1 c 0 -0.552 0.448 -1 1 -1 z m 4 1 l 2 2 l -1 0 l 0 3 l -2 0 l 0 -3 l -1 0 l 2 -2 z" style="fill:#ececec;fill-opacity:1;stroke-width:1"/>
 <path d="m 13.11 4.79 -0.322 -0.305 -0.43 0.095 0.189 -0.399 -0.223 -0.383 0.438 0.056 0.297 -0.331 0.081 0.438 0.404 0.176 l -0.387 0.214 z" style="fill:#ececec;fill-opacity:1;stroke-width:1"/>
 <path d="m 13.464 3.982 0.018 -0.207 -0.163 -0.133 0.202 -0.047 0.077 -0.194 0.108 0.18 0.207 0.009 -0.137 0.159 0.056 0.202 -0.194 -0.081 z" style="fill:#ececec;fill-opacity:1;stroke-width:1"/>
 <path d="m 13.657 5.185 -0.043 -0.313 -0.279 -0.146 0.288 -0.133 0.052 -0.313 0.214 0.232 0.313 -0.047 -0.155 0.275 0.142 0.284 -0.309 -0.06 z" style="fill:#ececec;fill-opacity:1;stroke-width:1"/>
</svg>
