<svg xmlns="http://www.w3.org/2000/svg" viewBox="0 0 16 16">
 <path style="fill:#ececec;opacity:1;fill-opacity:1;stroke:none;fill-rule:nonzero" d="M 7.9998 15 A 7 7 0 0 0 14.9998 8 7 7 0 0 0 14.995894 7.916016 1.5 1.5 0 0 0 15.949019 6.111328 1.5 1.5 0 0 0 14.320113 5.01172 7 7 0 0 0 7.999801 1 7 7 0 0 0 4.158004 2.154297 1.5 1.5 0 0 0 2.439252 2.439452 1.5 1.5 0 0 0 2.154098 4.15625 7 7 0 0 0 0.9998 8 7 7 0 0 0 1.445111 10.433592 a 1.5 1.5 0 0 0 -0.39453 1.455079 1.5 1.5 0 0 0 1.541015 1.109376 1.5 1.5 0 0 0 0.296875 -0.04883 1.5 1.5 0 0 0 0.126953 -0.04297 7 7 0 0 0 4.984374 2.093751 z m -0.000001 -0.999999 A 6 6 0 0 1 3.788862 12.265624 1.5 1.5 0 0 0 3.949018 11.11133 1.5 1.5 0 0 0 3.853319 10.853514 L 5.855 8.852 A 1.5 1.5 0 0 0 7.560346 8.560547 1.5 1.5 0 0 0 7.964643 7.820312 L 13.16 7.172 a 1.5 1.5 0 0 0 0.835937 0.740234 6 6 0 0 1 0.0039 0.087892 6 6 0 0 1 -6 6 z M 3.146283 10.146485 A 1.5 1.5 0 0 0 2.353316 10.00781 6 6 0 0 1 1.9998 8 6 6 0 0 1 2.888472 4.871095 1.5 1.5 0 0 0 3.947066 4.929689 L 5.252 6.67 A 1.5 1.5 0 0 0 5.148238 8.144531 z M 7.839643 6.828125 A 1.5 1.5 0 0 0 7.560347 6.439453 1.5 1.5 0 0 0 6.05253 6.068359 L 4.748 4.328 A 1.5 1.5 0 0 0 4.866987 2.888672 6 6 0 0 1 7.9998 2 6 6 0 0 1 13.425581 5.455078 1.5 1.5 0 0 0 13.03691 6.177735 z"/>
</svg>
