<svg xmlns="http://www.w3.org/2000/svg" viewBox="0 0 16 16">
 <path d="M 14.9999 8.0001 A 7 7 0 0 0 7.9999 1.0001 7 7 0 0 0 7.915915 1.00401 1.5 1.5 0 0 0 6.111228 0.050881 1.5 1.5 0 0 0 5.01162 1.679787 7 7 0 0 0 0.9999 8.0001 7 7 0 0 0 2.154197 11.841896 a 1.5 1.5 0 0 0 0.285155 1.718752 1.5 1.5 0 0 0 1.716798 0.285154 7 7 0 0 0 3.84375 1.154298 7 7 0 0 0 2.433592 -0.445311 1.5 1.5 0 0 0 1.455079 0.39453 1.5 1.5 0 0 0 1.109375 -1.541016 1.5 1.5 0 0 0 -0.04883 -0.296875 1.5 1.5 0 0 0 -0.04297 -0.126953 7 7 0 0 0 2.093751 -4.984374 z m -1 0 a 6 6 0 0 1 -1.734376 4.210937 1.5 1.5 0 0 0 -1.154296 -0.160156 1.5 1.5 0 0 0 -0.257814 0.0957 L 8.851 10.145 A 1.5 1.5 0 0 0 8.560447 8.439554 1.5 1.5 0 0 0 7.820212 8.03526 L 7.172 2.84 A 1.5 1.5 0 0 0 7.912009 2.00401 6 6 0 0 1 7.999899 2.0001 6 6 0 0 1 13.9999 8.0001 z M 10.146384 12.853617 A 1.5 1.5 0 0 0 10.00771 13.646584 6 6 0 0 1 7.9999 14.0001 6 6 0 0 1 4.870994 13.11143 1.5 1.5 0 0 0 4.929588 12.05283 l 1.74 -1.305 a 1.5 1.5 0 0 0 1.474609 0.103515 z M 6.828025 8.160257 A 1.5 1.5 0 0 0 6.439353 8.439554 1.5 1.5 0 0 0 6.068259 9.947366 L 4.328 11.252 A 1.5 1.5 0 0 0 2.888572 11.132913 6 6 0 0 1 1.999899 8.0001 6 6 0 0 1 5.454978 2.574319 1.5 1.5 0 0 0 6.177634 2.962991 z" style="fill:#ececec;opacity:1;fill-opacity:1;stroke:none;fill-rule:nonzero"/>
</svg>
