<svg viewBox="0 0 16 16" xmlns="http://www.w3.org/2000/svg">
 <path style="fill:#ececec;opacity:1;fill-opacity:1;stroke:none;fill-rule:nonzero" d="m 6.5 1 c -1.385 0 -2.5 0.892 -2.5 2 l -2 0 c -1.108 0 -2 0.892 -2 2 l 0 7 c 0 1.108 0.892 2 2 2 l 12 0 c 1.108 0 2 -0.892 2 -2 l 0 -7 c 0 -1.108 -0.892 -2 -2 -2 l -2 0 c 0 -1.108 -1.115 -2 -2.5 -2 l -3 0 z m 1.5 3 a 4 4 0 0 1 4 4 a 4 4 0 0 1 -4 4 a 4 4 0 0 1 -4 -4 a 4 4 0 0 1 4 -4 z"/>
 <circle style="fill:#ececec;opacity:1;fill-opacity:1;stroke:none;fill-rule:nonzero" r="3" cy="8" cx="8"/>
</svg>
