<svg viewBox="0 0 16 16" xmlns="http://www.w3.org/2000/svg">
 <path style="fill:#ececec;opacity:1;fill-opacity:1;stroke:none;fill-rule:nonzero" d="M 8 0 A 8 8 0 0 0 5.707031 0.339844 C 3.829 -0.256 2.081 -0.081 1 1 C -0.081 2.081 -0.257 3.832 0.34 5.711 A 8 8 0 0 0 0 8 A 8 8 0 0 0 8 16 A 8 8 0 0 0 10.292969 15.660156 C 12.171 16.256 13.919 16.08 15 15 C 16.08 13.919 16.257 12.168 15.66 10.289 A 8 8 0 0 0 16 8 A 8 8 0 0 0 8 0 z M 8.176 3.707 L 8.178 3.707 L 8.18 3.707 C 8.692 3.707 9.144 3.767 9.537 3.885 C 9.941 3.996 10.256 4.118 10.484 4.252 L 10.02 5.461 C 9.755 5.311 9.458 5.196 9.135 5.117 C 8.818 5.04 8.492 4.998 8.152 4.998 C 7.749 4.998 7.432 5.082 7.203 5.248 C 6.981 5.414 6.871 5.646 6.871 5.945 C 6.871 6.127 6.908 6.287 6.979 6.422 C 7.06 6.549 7.165 6.663 7.299 6.766 C 7.441 6.868 7.601 6.962 7.783 7.05 C 7.973 7.136 8.181 7.22 8.402 7.299 C 8.79 7.441 9.132 7.585 9.432 7.736 C 9.74 7.878 9.997 8.05 10.203 8.26 C 10.417 8.457 10.579 8.694 10.689 8.971 C 10.8 9.239 10.855 9.567 10.855 9.953 C 10.855 10.696 10.59 11.274 10.06 11.686 C 9.539 12.09 8.773 12.291 7.764 12.291 C 7.424 12.291 7.111 12.267 6.826 12.219 C 6.55 12.179 6.303 12.13 6.082 12.06 C 5.868 12 5.681 11.938 5.523 11.875 C 5.366 11.804 5.239 11.74 5.145 11.686 L 5.584 10.465 C 5.798 10.584 6.086 10.701 6.449 10.82 C 6.813 10.939 7.252 10.998 7.766 10.998 C 8.303 10.998 8.695 10.908 8.939 10.727 C 9.184 10.545 9.305 10.286 9.305 9.953 C 9.305 9.755 9.263 9.587 9.176 9.445 C 9.1 9.304 8.977 9.175 8.818 9.06 C 8.669 8.946 8.482 8.841 8.262 8.746 C 8.04 8.643 7.788 8.544 7.504 8.449 C 7.219 8.346 6.942 8.236 6.672 8.117 C 6.411 7.99 6.179 7.836 5.975 7.654 C 5.777 7.473 5.615 7.256 5.488 7 C 5.369 6.751 5.309 6.445 5.309 6.09 C 5.309 5.347 5.568 4.766 6.082 4.348 C 6.596 3.922 7.292 3.708 8.176 3.707 z"/>
</svg>
