<svg xmlns="http://www.w3.org/2000/svg" viewBox="0 0 16 16">
 <path d="m 8 0 c -0.777 0.001 -1.549 0.116 -2.293 0.34 c -1.878 -0.596 -3.626 -0.421 -4.707 0.66 c -1.081 1.081 -1.257 2.832 -0.66 4.711 c -0.224 0.743 -0.338 1.514 -0.34 2.289 c 0 4.418 3.582 8 8 8 c 0.777 -0.001 1.549 -0.116 2.293 -0.34 c 1.878 0.596 3.626 0.421 4.707 -0.66 c 1.081 -1.081 1.257 -2.832 0.66 -4.711 c 0.224 -0.743 0.338 -1.514 0.34 -2.289 c 0 -4.418 -3.582 -8 -8 -8 z m -2.645 3.262 l 3.146 1.572 l -1.574 3.145 l -0.426 -1.277 c -0.294 0.338 -0.485 0.761 -0.502 1.227 c -0.027 0.743 0.355 1.435 0.998 1.807 l -1 1.732 c -1.282 -0.741 -2.053 -2.133 -1.998 -3.613 c 0.048 -1.309 0.737 -2.499 1.818 -3.203 l -0.463 -1.389 z m 4.646 1.271 c 1.282 0.741 2.053 2.133 1.998 3.613 c -0.048 1.309 -0.737 2.499 -1.818 3.203 l 0.463 1.389 l -3.146 -1.572 l 1.574 -3.145 l 0.426 1.279 c 0.294 -0.338 0.485 -0.761 0.502 -1.227 c 0.027 -0.743 -0.355 -1.435 -0.998 -1.807 l 1 -1.732 l 0 -0.002 z" style="fill:#ececec;opacity:1;fill-opacity:1;stroke:none;fill-rule:nonzero"/>
</svg>
