<svg viewBox="0 0 16 16" xmlns="http://www.w3.org/2000/svg">
 <path d="M 12.5 1 A 3.5 3.5 0 0 0 9 4.5 3.5 3.5 0 0 0 10 6.945313 L 10 10.05 A 2.5 2.5 0 0 0 9.5 10 2.5 2.5 0 0 0 8.00977 10.496094 L 4.982 8.766 A 2.5 2.5 0 0 0 5 8.5 2.5 2.5 0 0 0 2.5 6 2.5 2.5 0 0 0 0 8.5 2.5 2.5 0 0 0 2.5 11 2.5 2.5 0 0 0 3.990234 10.503906 l 3.03 1.73 A 2.5 2.5 0 0 0 7 12.5 2.5 2.5 0 0 0 9.5 15 2.5 2.5 0 0 0 12 12.5 2.5 2.5 0 0 0 11.667969 11.259766 L 13.539 7.842 A 3.5 3.5 0 0 0 16 4.5 3.5 3.5 0 0 0 12.5 1 z m 0 1 A 2.5 2.5 0 0 1 15 4.5 2.5 2.5 0 0 1 12.5 7 2.5 2.5 0 0 1 10 4.5 2.5 2.5 0 0 1 12.5 2 z m 0 1 A 1.5 1.5 0 0 0 11 4.5 1.5 1.5 0 0 0 12.5 6 1.5 1.5 0 0 0 14 4.5 1.5 1.5 0 0 0 12.5 3 z M 2.5 7 A 1.5 1.5 0 0 1 3.964844 8.183594 L 2.996 7.631 A 1.0001 1.0001 0 0 0 2.421875 7.494141 a 1.0001 1.0001 0 0 0 -0.417969 1.875 L 2.971 9.922 A 1.5 1.5 0 0 1 2.5 10 1.5 1.5 0 0 1 1 8.5 1.5 1.5 0 0 1 2.5 7 z m 6.970703 4 A 1.5 1.5 0 0 1 9.5 11 1.5 1.5 0 0 1 11 12.5 1.5 1.5 0 0 1 9.5 14 1.5 1.5 0 0 1 8.03516 12.816406 l 0.969 0.553 A 1.00076 1.00076 0 1 0 9.996094 11.630859 L 9.03 11.08 A 1.5 1.5 0 0 1 9.470703 11 z" style="fill:#ececec;fill-opacity:1;stroke-width:1"/>
</svg>
