<svg viewBox="0 0 4.5155557 4.5155557" height="16" xmlns="http://www.w3.org/2000/svg" width="16">
 <path style="fill:#ececec;fill-opacity:1;stroke-width:1" d="m 4.342 0.354 c -0.041 -0.004 -0.087 0.003 -0.132 0.025 l -3.999 1.551 c -0.274 0.11 -0.271 0.264 -0.049 0.331 l 1.026 0.323 2.376 -1.508 c 0.113 -0.069 0.214 -0.032 0.131 0.044 l -1.925 1.747 -0.055 0.455 -0.279 -0.894 -0.247 0.157 c 0.121 0.384 0.239 0.768 0.362 1.152 0.038 0.103 0.137 0.131 0.224 0.133 0.131 0.004 0.351 -0.179 0.351 -0.179 l 0.353 -0.298 0.966 0.718 c 0.191 0.106 0.329 0.051 0.377 -0.179 l 0.681 -3.228 c 0.052 -0.21 -0.034 -0.335 -0.157 -0.349 m -2.312 2.707 0.214 0.158 -0.26 0.22 0.045 -0.378"/>
</svg>
