<svg xmlns="http://www.w3.org/2000/svg" viewBox="0 0 16 16">
 <path style="fill:#ececec;opacity:1;fill-opacity:1;stroke-width:1" d="m 8 3 c -2.759 0 -4.998 2.24 -4.998 5 l 0 0.063 c -0.163 -0.034 -0.328 -0.063 -0.5 -0.063 c -1.38 0 -2.502 1.117 -2.502 2.502 c 0 1.38 1.122 2.498 2.502 2.498 l 10 0 c 1.928 0 3.498 -1.566 3.498 -3.5 c 0 -1.91 -1.537 -3.467 -3.438 -3.5 c -0.777 -1.757 -2.519 -2.998 -4.563 -2.998 l 0 -0.002 z m -0.019531 2 a 0.995293 0.996045 0 0 1 0.839844 0.417969 l 1.873 1.875 a 0.995293 0.996045 0 1 1 -1.40625 1.408203 l -0.291 -0.291 l 0 1.58 a 0.995293 0.996045 0 1 1 -1.992188 0 l 0 -1.58 l -0.291 0.291 a 0.995293 0.996045 0 1 1 -1.40625 -1.408203 l 1.969 -1.969 a 0.995293 0.996045 0 0 1 0.021484 -0.021484 a 0.995293 0.996045 0 0 1 0.683594 -0.302734 z"/>
</svg>
