<svg xmlns="http://www.w3.org/2000/svg" version="1.1" xmlns:xlink="http://www.w3.org/1999/xlink" xmlns:svgjs="http://svgjs.com/svgjs" width="512" height="512" x="0" y="0" viewBox="0 0 20 20" style="enable-background:new 0 0 512 512" xml:space="preserve" class=""><g><path xmlns="http://www.w3.org/2000/svg" clip-rule="evenodd" d="m2 5c0-.53043.21071-1.03914.58579-1.41421.37507-.37508.88378-.58579 1.41421-.58579h12c.5304 0 1.0391.21071 1.4142.58579.3751.37507.5858.88378.5858 1.41421v10c0 .5304-.2107 1.0391-.5858 1.4142s-.8838.5858-1.4142.5858h-12c-.53043 0-1.03914-.2107-1.41421-.5858-.37508-.3751-.58579-.8838-.58579-1.4142zm3.293 1.293c.18753-.18747.44184-.29279.707-.29279s.51947.10532.707.29279l3 3c.18747.18753.29279.44184.29279.707 0 .2652-.10532.5195-.29279.707l-3 3c-.1886.1822-.4412.283-.7034.2807s-.51301-.1075-.69842-.2929-.29058-.4362-.29285-.6984c-.00228-.2622.09851-.5148.28067-.7034l2.293-2.293-2.293-2.293c-.18747-.18753-.29279-.44184-.29279-.707s.10532-.51947.29279-.707zm5.707 5.707c-.2652 0-.5196.1054-.7071.2929s-.2929.4419-.2929.7071.1054.5196.2929.7071.4419.2929.7071.2929h3c.2652 0 .5196-.1054.7071-.2929s.2929-.4419.2929-.7071-.1054-.5196-.2929-.7071-.4419-.2929-.7071-.2929z" fill="#a6d189" fill-rule="evenodd" data-original="#000000" class=""></path></g></svg>