<?xml version="1.0" encoding="UTF-8"?>
<svg xmlns="http://www.w3.org/2000/svg" xmlns:xlink="http://www.w3.org/1999/xlink" viewBox="0 0 100 100" width="100px" height="100px">
<g id="surface367874">
<path style=" stroke:none;fill-rule:nonzero;fill:rgb(80.392158%,83.92157%,95.686275%);fill-opacity:1;" d="M 76.042969 12.5 L 62.332031 12.5 C 60.605469 12.5 59.207031 13.898438 59.207031 15.625 C 59.207031 22.503906 53.699219 25 50 25 C 46.300781 25 40.792969 22.503906 40.792969 15.625 C 40.792969 13.898438 39.394531 12.5 37.667969 12.5 L 23.957031 12.5 C 17.640625 12.5 12.5 17.640625 12.5 23.957031 L 12.5 76.042969 C 12.5 82.359375 17.640625 87.5 23.957031 87.5 L 76.042969 87.5 C 82.359375 87.5 87.5 82.359375 87.5 76.042969 L 87.5 23.957031 C 87.5 17.640625 82.359375 12.5 76.042969 12.5 Z M 64.710938 59.503906 L 52.210938 72.003906 C 51.921875 72.292969 51.574219 72.523438 51.191406 72.679688 C 51.171875 72.6875 51.15625 72.691406 51.140625 72.695312 C 50.785156 72.832031 50.402344 72.917969 50 72.917969 C 49.597656 72.917969 49.214844 72.832031 48.859375 72.695312 C 48.84375 72.691406 48.828125 72.6875 48.8125 72.679688 C 48.425781 72.523438 48.082031 72.292969 47.792969 72.003906 L 35.292969 59.503906 C 34.070312 58.28125 34.070312 56.304688 35.292969 55.082031 C 36.511719 53.863281 38.488281 53.863281 39.710938 55.082031 L 46.875 62.246094 L 46.875 42.707031 C 46.875 40.984375 48.273438 39.582031 50 39.582031 C 51.726562 39.582031 53.125 40.984375 53.125 42.707031 L 53.125 62.246094 L 60.289062 55.082031 C 61.511719 53.863281 63.488281 53.863281 64.707031 55.082031 C 65.929688 56.304688 65.929688 58.28125 64.710938 59.503906 Z M 64.710938 59.503906 "/>
</g>
</svg>
