<?xml version="1.0" encoding="UTF-8"?>
<svg xmlns="http://www.w3.org/2000/svg" xmlns:xlink="http://www.w3.org/1999/xlink" viewBox="0 0 90 90" width="90px" height="90px">
<g id="surface373363">
<path style=" stroke:none;fill-rule:nonzero;fill:rgb(79.215688%,61.960787%,90.196079%);fill-opacity:1;" d="M 18 12 C 14.683594 12 12 14.683594 12 18 L 12 72 C 12 75.316406 14.683594 78 18 78 L 30 78 L 30 12 Z M 36 12 L 36 78 L 72 78 C 75.316406 78 78 75.316406 78 72 L 78 24 C 78 20.683594 75.316406 18 72 18 L 54 18 C 54 14.683594 51.316406 12 48 12 Z M 21 18 C 22.65625 18 24 19.34375 24 21 C 24 22.65625 22.65625 24 21 24 C 19.34375 24 18 22.65625 18 21 C 18 19.34375 19.34375 18 21 18 Z M 45 27 L 54 27 C 55.660156 27 57 28.34375 57 30 C 57 31.65625 55.660156 33 54 33 L 45 33 C 43.339844 33 42 31.65625 42 30 C 42 28.34375 43.339844 27 45 27 Z M 21 30 C 22.65625 30 24 31.34375 24 33 C 24 34.65625 22.65625 36 21 36 C 19.34375 36 18 34.65625 18 33 C 18 31.34375 19.34375 30 21 30 Z M 51 39 L 60 39 C 61.660156 39 63 40.34375 63 42 C 63 43.65625 61.660156 45 60 45 L 51 45 C 49.339844 45 48 43.65625 48 42 C 48 40.34375 49.339844 39 51 39 Z M 21 42 C 22.65625 42 24 43.34375 24 45 C 24 46.65625 22.65625 48 21 48 C 19.34375 48 18 46.65625 18 45 C 18 43.34375 19.34375 42 21 42 Z M 60 51 L 69 51 C 70.660156 51 72 52.34375 72 54 C 72 55.65625 70.660156 57 69 57 L 60 57 C 58.339844 57 57 55.65625 57 54 C 57 52.34375 58.339844 51 60 51 Z M 45 63 L 54 63 C 55.660156 63 57 64.34375 57 66 C 57 67.65625 55.660156 69 54 69 L 45 69 C 43.339844 69 42 67.65625 42 66 C 42 64.34375 43.339844 63 45 63 Z M 45 63 "/>
</g>
</svg>
