<svg version="1.1" viewBox="0 0 32 32" xmlns="http://www.w3.org/2000/svg">
 <path d="m5.336 0c-0.687 0-1.336 0.676-1.336 1.394v29.21c0 0.676 0.687 1.394 1.336 1.394h21.327c0.648 0 1.336-0.717 1.336-1.394l1e-3 -21.606-9-9z" style="fill:#dbdbdb"/>
 <path d="m21 9 7 7v-7z" style="fill-opacity:.196"/>
 <path d="m19 0 8.992 9h-7.613c-0.673 0-1.378-0.713-1.378-1.386z" style="fill-opacity:.392;fill:#fff"/>
 <path d="m13 12c-1.6569 0-3 1.3431-3 3 0 1.3044 0.83731 2.4032 2 2.8164v8.1836h2v-8.1836c1.1627-0.41318 2-1.512 2-2.8164 0-1.6569-1.3431-3-3-3zm5 0v8.1836c-1.1627 0.41318-2 1.512-2 2.8164 0 1.6569 1.3431 3 3 3s3-1.3431 3-3c0-1.3044-0.83731-2.4032-2-2.8164v-8.1836zm-5 2c0.55228 0 1 0.44772 1 1s-0.44775 1.0064-1 1c-0.54322-0.0064-1.0001-0.45674-1-1 7.6e-5 -0.55228 0.44772-1 1-1zm6 8c0.55225-0.0064 1 0.44772 1 1s-0.44772 1-1 1-0.99992-0.44772-1-1c-7.4e-5 -0.54326 0.45678-0.99369 1-1z" style="fill:#878787;stroke-linejoin:round;stroke-opacity:.54328;stroke-width:3.6515"/>
</svg>
