<svg width="32" height="32" version="1.1" viewBox="0 0 32 32" xmlns="http://www.w3.org/2000/svg">
 <g transform="matrix(.5 0 0 .49968 2.5e-5 -31.979)">
  <path d="m10.672 64c-1.375 0-2.672 1.3559-2.672 2.7908v58.458c0 1.3559 1.375 2.7908 2.672 2.7908h42.656c1.297 0 2.672-1.4349 2.672-2.7908v-43.238l-18-18.012" style="fill:#a31d23;stroke-width:1.0003"/>
  <path d="m42 81.991 14 14.009v-14.009" style="fill-opacity:.196;stroke-width:1.0003"/>
  <path d="m38 63.999 17.999 18.012h-15.24c-1.3491 0-2.7603-1.4269-2.7603-2.7748" style="fill-opacity:.392;fill:#fff;stroke-width:1.0007"/>
  <path d="m42 90.433c0 7.3381-7.2727 15.593-10 15.593s-10-8.5816-10-15.593c0-4.2288 3.3941-6.4209 10-6.4209s10 2.2154 10 6.4209z" style="fill:#ffffff;paint-order:normal;stroke-width:.91317"/>
  <path d="m8.0003 112.04v13.336c0 1.297 1.375 2.664 2.664 2.664h42.672c1.289 0 2.664-1.367 2.664-2.664v-13.336" style="fill-opacity:.196"/>
  <path d="m37 114.03v1.809h-3.2654v9.1981h-2.4775v-9.1981h-3.2571v-1.809h9" style="fill:#fff;stroke-width:1.0003"/>
 </g>
 <path d="m10.127 25c0.75235 0 1.3361 0.14569 1.7489 0.43102 0.41278 0.28382 0.6241 0.7446 0.6241 1.3884 0 0.6478-0.2113 1.1227-0.63145 1.412-0.41671 0.28735-1.004 0.43304-1.77 0.43304h-0.42015v1.8355h-1.1784v-5.3665c0.11696-0.02168 0.24177-0.04335 0.38378-0.06302 0.14594-0.01764 0.29189-0.02974 0.43784-0.03327 0.14988-0.01159 0.29189-0.02168 0.4339-0.02571 0.13612-0.0081 0.2629-0.0116 0.37248-0.0116m0.13268 0.9432c-0.06732 0-0.16904 0-0.29582 0.0081-0.12088 0-0.21671 4e-3 -0.286 0.01764v1.7564h0.47813c0.37641 0 0.6585-0.07108 0.8501-0.20468 0.19017-0.13964 0.286-0.37608 0.286-0.7088 0-0.3171-0.09583-0.5394-0.286-0.6695-0.18231-0.13208-0.4339-0.19913-0.74695-0.19913" style="fill:#fff;stroke-width:.5"/>
 <path d="m24 28.808c0 0.32543-0.06066 0.5955-0.18197 0.8175-0.12326 0.21467-0.29018 0.3867-0.5003 0.52245-0.20866 0.12645-0.45663 0.2181-0.74485 0.27593-0.28048 0.05342-0.5857 0.07646-0.9157 0.07646-0.25962 0-0.5328-0.01128-0.8172-0.04019-0.28242-0.02499-0.5629-0.06126-0.8395-0.11468v-5.2185c0.22953-0.03235 0.47216-0.06127 0.74485-0.08626 0.26932-0.02891 0.5328-0.04019 0.79825-0.04019 0.45129 0 0.8133 0.04019 1.0977 0.12645 0.28048 0.08234 0.5042 0.1936 0.66335 0.33328 0.16305 0.13233 0.2732 0.28328 0.32998 0.44796 0.05678 0.1686 0.08541 0.3372 0.08541 0.5053 0 0.25486-0.06842 0.4803-0.21254 0.6778-0.13248 0.19702-0.31639 0.35435-0.54785 0.46904 0.4018 0.13037 0.6784 0.3122 0.8172 0.53815 0.15188 0.22594 0.2237 0.46316 0.2237 0.71015m-2.815-0.7273v1.459c0.08541 0.01323 0.17421 0.02107 0.2732 0.025 0.10044 0.0078 0.19896 0.0078 0.29552 0.0078 0.13442 0 0.26932-0.0078 0.39597-0.025 0.12908-0.02304 0.23875-0.06126 0.33726-0.1093 0.10044-0.06322 0.18585-0.13968 0.25233-0.23918 0.06066-0.10342 0.09269-0.23378 0.09269-0.39062 0-0.25829-0.09269-0.44404-0.2766-0.5553-0.18198-0.11468-0.42655-0.17252-0.73175-0.17252h-0.6386m0.4644-0.8866c0.2994 0 0.52895-0.05734 0.6823-0.17252 0.15529-0.12449 0.23293-0.28916 0.23293-0.49795 0-0.12841-0.02475-0.22594-0.07037-0.30044-0.04561-0.08234-0.10627-0.1436-0.18392-0.18379-0.0757-0.04607-0.16693-0.07449-0.26738-0.08626-0.10239-0.01715-0.20866-0.025-0.31833-0.025-0.08929 0-0.18198 0-0.28048 0.0078-0.09269 0.0039-0.18197 0.01127-0.25962 0.02499v1.2331h0.4644" style="fill:#fff;stroke-width:.5"/>
</svg>
