<svg width="32" height="32" version="1.1" viewBox="0 0 32 32" xmlns="http://www.w3.org/2000/svg">
 <g transform="matrix(.5 0 0 .49968 2.5e-5 -31.979)">
  <path d="m10.672 64c-1.375 0-2.672 1.3559-2.672 2.7908v58.458c0 1.3559 1.375 2.7908 2.672 2.7908h42.656c1.297 0 2.672-1.4349 2.672-2.7908v-43.238l-18-18.012" style="fill:#a31d23;stroke-width:1.0003"/>
  <path d="m42 81.991 14 14.009v-14.009" style="fill-opacity:.196;stroke-width:1.0003"/>
  <path d="m38 63.999 17.999 18.012h-15.24c-1.3491 0-2.7603-1.4269-2.7603-2.7748" style="fill-opacity:.392;fill:#fff;stroke-width:1.0007"/>
  <path d="m42 90.433c0 7.3381-7.2727 15.593-10 15.593s-10-8.5816-10-15.593c0-4.2288 3.3941-6.4209 10-6.4209s10 2.2154 10 6.4209z" style="fill:#ffffff;paint-order:normal;stroke-width:.91317"/>
  <path d="m8.0003 112.04v13.336c0 1.297 1.375 2.664 2.664 2.664h42.672c1.289 0 2.664-1.367 2.664-2.664v-13.336" style="fill-opacity:.196"/>
  <path d="m38.874 115.86c-0.60313 0-1.1092 0.0885-1.5287 0.26861-0.408 0.18497-0.75026 0.44177-1.0226 0.76449-0.26504 0.31878-0.45287 0.70742-0.5833 1.1571-0.10956 0.44178-0.15861 0.93373-0.15861 1.4837 0 1.2525 0.23687 2.1911 0.71791 2.7943 0.48522 0.58837 1.1864 0.88354 2.1235 0.88354 0.14713 0 0.31826-8e-3 0.49774-0.0226 0.17948-8e-3 0.34226-0.0266 0.49356-0.0502v-3.847h2.5273v5.2658c-0.29739 0.0885-0.77426 0.19186-1.4139 0.30796-0.6313 0.11117-1.4024 0.16922-2.3071 0.16922-0.80348 0-1.5203-0.11512-2.1683-0.34928-0.6313-0.23024-1.1697-0.57657-1.6226-1.0302-0.45287-0.46538-0.80348-1.038-1.0539-1.7218-0.24835-0.69168-0.37461-1.4916-0.37461-2.3988 0-0.89535 0.14713-1.6834 0.43617-2.3673 0.28904-0.69168 0.68035-1.2722 1.1697-1.7336 0.49356-0.46539 1.0842-0.81074 1.7572-1.038 0.66887-0.24204 1.3941-0.36109 2.16-0.36109 0.49774 0 0.93391 0.0384 1.3169 0.10331 0.39965 0.0581 0.74191 0.13086 1.0351 0.19973 0.28904 0.0807 0.51757 0.16923 0.69704 0.26172 0.18783 0.0885 0.33391 0.15742 0.42783 0.2076l-0.65635 1.6677c-0.30156-0.16136-0.66887-0.30796-1.1123-0.42701-0.432-0.13086-0.88487-0.18793-1.3576-0.18793" style="fill:#fff"/>
  <path d="m31 114.03v1.809h-3.2654v9.1981h-2.4775v-9.1981h-3.2571v-1.809h9" style="fill:#fff;stroke-width:1.0003"/>
 </g>
</svg>
