<svg version="1.1" viewBox="0 0 32 32" xmlns="http://www.w3.org/2000/svg">
 <path d="m5.336 0c-0.687 0-1.336 0.676-1.336 1.394v29.21c0 0.676 0.687 1.394 1.336 1.394h21.327c0.648 0 1.336-0.717 1.336-1.394l1e-3 -21.606-9-9z" style="fill:#38a34e"/>
 <path d="m21 9 7 7v-7z" style="fill-opacity:.196"/>
 <path d="m19 0 8.992 9h-7.613c-0.673 0-1.378-0.713-1.378-1.386z" style="fill-opacity:.392;fill:#fff"/>
 <path d="m11.645 11c-0.352 0.033-0.65153 0.40673-0.64453 0.80273v8.4141c4e-3 0.414 0.33312 0.78816 0.70312 0.78516h8.6113c0.363-7e-3 0.68155-0.37416 0.68555-0.78516v-8.4141c7e-3 -0.417-0.31555-0.79873-0.68555-0.80273h-8.6699zm0.35547 1h8v5.7012l-2.3516-2.6582-1.4922 1.3887-1.9629-2.4609-2.1934 2.8301v-4.8008z" style="fill:#fff"/>
 <path d="m4 24v6.668c0 0.648 0.688 1.332 1.332 1.332h21.336c0.645 0 1.332-0.684 1.332-1.332v-6.668z" style="fill-opacity:.196"/>
 <path d="m9 26v5h1v-2h1v2h1v-5h-1v2h-1v-2h-1zm4 0v5h3v-1h-2v-1h1.5v-1h-1.5v-1h2v-1h-3zm4 0v1h1v3h-1v1h3v-1h-1v-3h1v-1h-3zm4 0v5h1v-2h1.5v-1h-1.5v-1h2v-1h-3z" style="fill:#fff"/>
</svg>
