<svg version="1.1" viewBox="0 0 32 32" xmlns="http://www.w3.org/2000/svg">
 <path d="m5.336 0c-0.687 0-1.336 0.676-1.336 1.394v29.21c0 0.676 0.687 1.394 1.336 1.394h21.327c0.648 0 1.336-0.717 1.336-1.394l1e-3 -21.606-9-9z" style="fill:#38a34e"/>
 <path d="m21 9 7 7v-7z" style="fill-opacity:.196"/>
 <path d="m19 0 8.992 9h-7.613c-0.673 0-1.378-0.713-1.378-1.386z" style="fill-opacity:.392;fill:#fff"/>
 <path d="m11.645 11c-0.352 0.033-0.652 0.406-0.645 0.802v8.415c4e-3 0.414 0.333 0.787 0.703 0.784h8.612c0.363-7e-3 0.681-0.373 0.685-0.784v-8.415c7e-3 -0.417-0.315-0.798-0.685-0.802zm0.355 1h8v5.701l-2.352-2.658-1.491 1.388-1.963-2.461-2.194 2.83" style="fill:#fff"/>
 <path d="m4 24v6.668c0 0.648 0.688 1.332 1.332 1.332h21.336c0.645 0 1.332-0.684 1.332-1.332v-6.668z" style="fill-opacity:.196"/>
 <path d="m9.9004 26c-0.4856 1.5938-0.99407 3.2653-1.4004 5h1.0996l0.25-1h1.3008l0.25 1h1.0996c-0.3644-1.5908-0.86457-3.3036-1.4004-5h-1.1992zm2.5996 0c0.3308 1.5287 0.84326 3.3607 1.4004 5h1.1992c0.55809-1.6063 1.0205-3.1815 1.4004-5h-1.0996c-0.23617 1.3425-0.50807 2.4313-0.90039 3.75-0.37052-1.3081-0.71123-2.3887-0.90039-3.75h-1.0996zm4.5 0v1h1v3h-1v1h3v-1h-1v-3h1v-1h-3zm4 0v5h1v-2h1.5v-1h-1.5v-1h2v-1h-3zm-10.5 1c0.17565 0.6568 0.3563 1.3087 0.5 2h-1c0.14263-0.6385 0.29886-1.3367 0.5-2z" style="fill:#fff"/>
</svg>
