<svg version="1.1" viewBox="0 0 32 32" xmlns="http://www.w3.org/2000/svg">
 <path d="m5.34 0c-.687 0-1.34.676-1.34 1.39v29.2c0 .676.687 1.39 1.34 1.39h21.3c.648 0 1.34-.717 1.34-1.39l.001-21.6-9-9z" style="fill:#38a34e"/>
 <path d="m21 9 7 7v-7z" style="fill-opacity:.196"/>
 <path d="m19 0 8.99 9h-7.61c-.673 0-1.38-.713-1.38-1.39z" style="fill-opacity:.392;fill:#fff"/>
 <path d="m4 24v6.67c0 .648.688 1.33 1.33 1.33h21.3c.645 0 1.33-.684 1.33-1.33v-6.67" style="fill-opacity:.196"/>
 <g transform="matrix(.401 0 0 .401 6.38 6.37)" style="fill:#fff">
  <g style="fill:#fff">
   <path transform="matrix(2.5 0 0 2.5 -15.9 -15.9)" d="m16.1 10c-1.65.023-3.25.7-4.39 1.94l2.87 2.89 1.52-4.82zm1.47.318-1.18 3.76 3.2-.537 1.81-.352c-.806-1.42-2.18-2.47-3.83-2.87zm-6.86 2.74c-.732 1.38-.908 3.01-.428 4.54l4.14-.676-.652-.793-3.06-3.07zm11.1 1.63-3.81.639 3.18 3.78c.768-1.32 1.01-2.91.625-4.42zm-4.24 2.46-1.82 4.33-.205.508c1.7.073 3.37-.574 4.59-1.8l-2.57-3.05zm-2.1 1.12-4.72.77c.763 1.19 1.94 2.1 3.33 2.52l1.38-3.29z" style="fill:#fff"/>
  </g>
 </g>
 <path d="m11.4 31.1q-1.28 0-1.95-.78-.673-.78-.673-2.22 0-.715.205-1.27.205-.557.566-.938.371-.39.868-.585.507-.204 1.1-.204.322 0 .576.0557.263.0464.459.111.195.065.322.139.137.0743.205.111l-.312.91q-.224-.139-.546-.232-.312-.102-.722-.102-.283 0-.556.102-.263.0929-.478.325-.205.223-.341.604-.127.381-.127.947 0 .985.351 1.51.361.52 1.17.52.468 0 .771-.102.312-.102.498-.204l.302.901q-.254.149-.693.279-.429.121-.995.121z" style="fill:#ffffff"/>
 <path d="m15.6 25.2q.536 0 .971.111.435.111.749.344.314.232.475.594.172.353.172.836 0 .502-.223.91-.223.409-.738.622.172.241.364.539.192.288.374.613.182.316.344.641.172.316.293.604h-1.3q-.233-.557-.546-1.07-.303-.52-.657-1.05h-.647v2.12h-1.24v-5.67q.182-.0372.394-.065.223-.0372.445-.0464.223-.0186.425-.0279.202-.0093.354-.0093zm1.1 1.88q0-.455-.303-.669t-.799-.214q-.0708 0-.172.0093-.101 0-.202.0186v1.73h.273q.637 0 .92-.223.283-.232.283-.65z" style="fill:#ffffff"/>
 <path d="m22.7 26.8c0 .198-.0382.39-.115.576-.0764.18-.178.356-.305.529-.127.173-.27.341-.43.502s-.321.316-.487.464c-.0827.0743-.178.164-.286.269-.108.0991-.21.204-.305.316-.0955.105-.178.214-.248.325-.0636.111-.0955.214-.0955.307h2.54v.947h-3.86c-.0917-.423.0699-.907.153-1.28.121-.26.27-.498.449-.715.185-.223.379-.427.582-.613.21-.192.404-.375.582-.548.185-.173.334-.341.449-.502.121-.161.181-.325.181-.492 0-.235-.0732-.415-.22-.539-.146-.13-.331-.195-.554-.195-.185 0-.379.0433-.582.13-.204.0867-.404.232-.601.437l-.582-.799c.255-.26.547-.452.878-.576.337-.124.671-.186 1-.186.242 0 .474.0341.697.102.223.0681.42.17.592.307s.309.31.41.52c.102.204.153.443.153.715z" style="fill:#ffffff"/>
</svg>
