<svg version="1.1" viewBox="0 0 32 32" xmlns="http://www.w3.org/2000/svg">
 <path d="m5.34 0c-.687 0-1.34.676-1.34 1.39v29.2c0 .676.687 1.39 1.34 1.39h21.3c.648 0 1.34-.717 1.34-1.39l.001-21.6-9-9z" style="fill:#38a34e"/>
 <path d="m21 9 7 7v-7z" style="fill-opacity:.196"/>
 <path d="m19 0 8.99 9h-7.61c-.673 0-1.38-.713-1.38-1.39z" style="fill-opacity:.392;fill:#fff"/>
 <path d="m4 24v6.67c0 .648.688 1.33 1.33 1.33h21.3c.645 0 1.33-.684 1.33-1.33v-6.67" style="fill-opacity:.196"/>
 <g transform="matrix(.401 0 0 .401 6.38 6.37)" style="fill:#fff">
  <g style="fill:#fff">
   <path transform="matrix(2.5 0 0 2.5 -15.9 -15.9)" d="m16.1 10c-1.65.023-3.25.7-4.39 1.94l2.87 2.89 1.52-4.82zm1.47.318-1.18 3.76 3.2-.537 1.81-.352c-.806-1.42-2.18-2.47-3.83-2.87zm-6.86 2.74c-.732 1.38-.908 3.01-.428 4.54l4.14-.676-.652-.793-3.06-3.07zm11.1 1.63-3.81.639 3.18 3.78c.768-1.32 1.01-2.91.625-4.42zm-4.24 2.46-1.82 4.33-.205.508c1.7.073 3.37-.574 4.59-1.8l-2.57-3.05zm-2.1 1.12-4.72.77c.763 1.19 1.94 2.1 3.33 2.52l1.38-3.29z" style="fill:#fff"/>
  </g>
 </g>
 <path d="m11.4 31.1q-1.28 0-1.95-.78-.673-.78-.673-2.22 0-.715.205-1.27.205-.557.566-.938.371-.39.868-.585.507-.204 1.1-.204.322 0 .576.0557.263.0464.459.111.195.065.322.139.137.0743.205.111l-.312.91q-.224-.139-.546-.232-.312-.102-.722-.102-.283 0-.556.102-.263.0929-.478.325-.205.223-.341.604-.127.381-.127.947 0 .985.351 1.51.361.52 1.17.52.468 0 .771-.102.312-.102.498-.204l.302.901q-.254.149-.693.279-.429.121-.995.121z" style="fill:#ffffff"/>
 <path d="m15.6 25.2q.536 0 .971.111.435.111.749.344.314.232.475.594.172.353.172.836 0 .502-.223.91-.223.409-.738.622.172.241.364.539.192.288.374.613.182.316.344.641.172.316.293.604h-1.3q-.233-.557-.546-1.07-.303-.52-.657-1.05h-.647v2.12h-1.24v-5.67q.182-.0372.394-.065.223-.0372.445-.0464.223-.0186.425-.0279.202-.0093.354-.0093zm1.1 1.88q0-.455-.303-.669t-.799-.214q-.0708 0-.172.0093-.101 0-.202.0186v1.73h.273q.637 0 .92-.223.283-.232.283-.65z" style="fill:#ffffff"/>
 <g transform="matrix(.967 0 0 .983 .0761 .111)" style="fill:#ffffff;stroke-width:1.03" aria-label="3">
  <path d="m21.2 31.4q-.214 0-.455-.0372-.232-.0279-.455-.0743-.214-.0464-.399-.102-.186-.0557-.288-.102l.223-.957q.214.0929.548.195.344.102.817.102.585 0 .817-.251.241-.251.241-.622 0-.455-.362-.632-.362-.186-.92-.186h-.353v-.947h.427q.176 0 .353-.0372t.316-.121q.139-.0836.223-.223.0929-.139.0929-.353 0-.316-.195-.492-.186-.186-.52-.186-.325 0-.65.111-.316.102-.548.26l-.409-.836q.251-.167.659-.334.418-.176.938-.176.483 0 .836.121.362.121.594.344.232.214.344.511.111.297.111.641 0 .344-.195.659-.195.316-.52.483.446.186.687.548.251.362.251.864 0 .399-.13.734-.13.334-.399.585-.269.241-.687.381-.418.13-.994.13z" style="fill:#ffffff;stroke-width:1.03"/>
 </g>
</svg>
