<svg version="1.1" viewBox="0 0 32 32" xmlns="http://www.w3.org/2000/svg">
 <path d="m5.336 0c-0.687 0-1.336 0.676-1.336 1.394v29.21c0 0.676 0.687 1.394 1.336 1.394h21.327c0.648 0 1.336-0.717 1.336-1.394l1e-3 -21.606-9-9z" style="fill:#3161b3"/>
 <path d="m21 9 7 7v-7z" style="fill-opacity:.196"/>
 <path d="m19 0 8.992 9h-7.613c-0.673 0-1.378-0.713-1.378-1.386z" style="fill-opacity:.392;fill:#fff"/>
 <path d="m15 9c-1.6568 0-3 1.3431-3 3 0 0.55228 0.44772 0.99999 0.99999 0.99999 0.55228 0 0.99999-0.44772 0.99999-0.99999 0-0.55228 0.44772-0.99999 0.99999-0.99999s0.99999 0.44772 0.99999 0.99999v0.99999l-6.8046 11.762c-0.12962 0.22404-0.19524 0.47946-0.19532 0.73828-2.44e-4 0.82842 0.67158 1.5002 1.5 1.5 0.54034-1.48e-4 1.0497-0.2853 1.3047-0.76172l4.1954-7.8398v5.6016c0 1.6568 1.3431 3 3 3 1.6568 0 3-1.3431 3-3 0-0.55228-0.44772-0.99999-0.99999-0.99999-0.55228 0-0.99999 0.44772-0.99999 0.99999 0 0.55228-0.44772 0.99999-0.99999 0.99999-0.55228 0-0.99999-0.44772-0.99999-0.99999v-12c0-1.6568-1.3431-3-3-3z" style="fill:#fff"/>
</svg>
