<svg version="1.1" viewBox="0 0 32 32" xmlns="http://www.w3.org/2000/svg">
 <path d="m5.336 0c-0.687 0-1.336 0.676-1.336 1.394v29.21c0 0.676 0.687 1.394 1.336 1.394h21.327c0.648 0 1.336-0.717 1.336-1.394l1e-3 -21.606-9-9z" style="fill:#f68712"/>
 <path d="m21 9 7 7v-7z" style="fill-opacity:.196"/>
 <path d="m19 0 8.992 9h-7.613c-0.673 0-1.378-0.713-1.378-1.386z" style="fill-opacity:.392;fill:#fff"/>
 <g transform="matrix(.0095901 0 0 -.0095903 10 28.354)">
  <path d="m1094.9 1079.6 156.43-625.63v312.81l-156.43 312.82 156.43 625.64v-312.81l-156.43-312.83m-938.45 0-156.41 625.64v-312.81l156.41-312.83-156.41-625.63v312.81l156.41 312.82m469.24-469.22-625.64-156.41h312.81l312.83 156.41 625.64-156.41h-312.83l-312.81 156.41m0 938.45 625.64 156.41h-312.83l-312.81-156.41-625.64 156.41h312.81l312.83-156.41m-625.64-1094.9 156.41 625.63 469.24-469.22-625.64-156.41m1251.3 0-625.64 156.41 469.22 469.22 156.43-625.63m0 1251.3-156.43-625.64-469.22 469.23 625.64 156.41m-1251.3 0 625.64-156.41-469.24-469.23-156.41 625.64m625.64-156.41-469.24-469.23 469.24-469.22 469.22 469.22-469.22 469.23" style="fill:#fff"/>
 </g>
</svg>
