<svg version="1.1" viewBox="0 0 32 32" xmlns="http://www.w3.org/2000/svg">
 <path d="m5.336 0c-0.687 0-1.336 0.676-1.336 1.394v29.21c0 0.676 0.687 1.394 1.336 1.394h21.327c0.648 0 1.336-0.717 1.336-1.394l1e-3 -21.606-9-9z" style="fill:#37314a"/>
 <path d="m21 9 7 7v-7z" style="fill-opacity:.196"/>
 <path d="m19 0 8.992 9h-7.613c-0.673 0-1.378-0.713-1.378-1.386z" style="fill-opacity:.392;fill:#fff"/>
 <path d="m9 16.5c0 1.8286 1.4167 2.5 2.5 2.5-1.75-2.7692 0.36249-5.5296 2.5-6.5v13.5h3l6-15h-2l-4 11.5v-11.5h-1.6c-2.9167 0-6.4 2.6428-6.4 5.5z" style="fill:#fff"/>
</svg>
