<svg version="1.1" viewBox="0 0 32 32" xmlns="http://www.w3.org/2000/svg">
 <path d="m5.336 0c-0.687 0-1.336 0.676-1.336 1.394v29.21c0 0.676 0.687 1.394 1.336 1.394h21.327c0.648 0 1.336-0.717 1.336-1.394l1e-3 -21.606-9-9z" style="fill:#efc743"/>
 <path d="m21 9 7 7v-7z" style="fill-opacity:.196"/>
 <path d="m19 0 8.992 9h-7.613c-0.673 0-1.378-0.713-1.378-1.386z" style="fill-opacity:.392;fill:#fff"/>
 <path d="m15.524 23.99c-1.1303-0.09727-2.2527-0.41737-3.2228-0.91908-0.88038-0.4553-1.5526-1.022-1.9823-1.6712-0.73457-1.5752-0.86148-2.1838-1.5879-4.2284-0.023014-0.057341-0.65392-2.6673-0.64744-2.6784 0.37564 0.15116 0.65979 0.27142 1.0624 0.4391l0.1898-0.18494c0.26626-0.25945 0.54193-0.46015 0.93756-0.68262l0.12071-0.06788c0.2259-0.48808 0.48074-0.97823 0.72257-1.45 0.41623 0.31269 0.73834 0.56653 1.1737 0.90452 0.01003 0.0077 0.13459-0.01555 0.3403-0.06347 0.86518-0.20159 1.3258-0.26961 1.9054-0.28135l0.31316-0.0063c0.38178-0.36775 0.76534-0.73376 1.1486-1.0999 0.40618 0.38584 0.71342 0.68217 1.1486 1.0999l0.31315 0.0063c0.57487 0.01164 1.0324 0.07829 1.8612 0.27108 0.17616 0.041 0.33229 0.07687 0.34697 0.07977 0.45206-0.3093 0.72838-0.53976 1.2198-0.9166 0.25997 0.50847 0.44582 0.90204 0.71361 1.4551l0.08755 0.04863c0.40044 0.22234 0.70586 0.44336 0.97145 0.70299l0.18995 0.18568c0.37715-0.15736 0.73674-0.3066 1.0658-0.44342-0.22985 0.95437-0.45597 1.9056-0.64698 2.6684-0.49627 1.3876-0.87533 2.5094-1.422 3.9616-0.51056 0.94724-1.5264 1.7491-2.904 2.2924-0.70197 0.27683-1.4365 0.46037-2.2111 0.55249-0.27221 0.0324-0.9596 0.04694-1.2077 0.02556zm0.47413-5.542c1.0745 0.59522 1.913 1.0742 3.0509 1.712 0.60909-0.14132 0.9252-0.25316 1.6639-0.4735 0.43038-0.51575 0.81961-1.0581 1.1685-1.6208-0.04393-0.1294-0.18485-0.40283-0.28209-0.54744-0.55744-0.82903-1.6563-1.5425-3.0024-1.9495-1.3222-0.39974-2.8271-0.48175-4.2473-0.23147-1.8542 0.32677-3.4097 1.2216-4.0463 2.3278-0.07891 0.13713-0.17132 0.33438-0.1973 0.42116 0.32709 0.58814 0.75727 1.0568 1.1758 1.5994 0.5482 0.16874 1.102 0.32561 1.6531 0.48027 1.0721-0.59972 1.9712-1.1104 3.0631-1.7179z" style="fill:#fff"/>
</svg>
