<?xml version="1.0" encoding="UTF-8"?>
<svg xmlns="http://www.w3.org/2000/svg" xmlns:xlink="http://www.w3.org/1999/xlink" viewBox="0 0 96 96" width="96px" height="96px">
<g id="surface483814">
<path style=" stroke:none;fill-rule:nonzero;fill:rgb(54.901963%,81.176472%,49.411765%);fill-opacity:1;" d="M 25 12 C 17.855469 12 12 17.855469 12 25 L 12 71 C 12 78.144531 17.855469 84 25 84 L 71 84 C 78.144531 84 84 78.144531 84 71 L 84 25 C 84 17.855469 78.144531 12 71 12 Z M 18 32 L 78 32 L 78 71 C 78 74.898438 74.898438 78 71 78 L 25 78 C 21.101562 78 18 74.898438 18 71 Z M 34.96875 43.96875 C 33.746094 43.96875 32.648438 44.710938 32.1875 45.839844 C 31.730469 46.972656 32.003906 48.269531 32.878906 49.121094 L 38.757812 55 L 32.878906 60.878906 C 32.09375 61.632812 31.78125 62.75 32.054688 63.800781 C 32.328125 64.851562 33.148438 65.671875 34.199219 65.945312 C 35.25 66.21875 36.367188 65.90625 37.121094 65.121094 L 45.121094 57.121094 C 46.292969 55.949219 46.292969 54.050781 45.121094 52.878906 L 37.121094 44.878906 C 36.554688 44.296875 35.78125 43.96875 34.96875 43.96875 Z M 51 60 C 49.917969 59.984375 48.910156 60.554688 48.367188 61.488281 C 47.820312 62.421875 47.820312 63.578125 48.367188 64.511719 C 48.910156 65.445312 49.917969 66.015625 51 66 L 63 66 C 64.082031 66.015625 65.089844 65.445312 65.632812 64.511719 C 66.179688 63.578125 66.179688 62.421875 65.632812 61.488281 C 65.089844 60.554688 64.082031 59.984375 63 60 Z M 51 60 "/>
</g>
</svg>
