<?xml version="1.0" encoding="UTF-8"?>
<svg xmlns="http://www.w3.org/2000/svg" xmlns:xlink="http://www.w3.org/1999/xlink" viewBox="0 0 96 96" width="96px" height="96px">
<g id="surface479080">
<path style=" stroke:none;fill-rule:nonzero;fill:rgb(87.843138%,43.137255%,43.137255%);fill-opacity:1;" d="M 87.042969 68.515625 C 87.410156 67.992188 87.914062 66.316406 88.359375 65.566406 C 91.050781 61.21875 91.066406 57.757812 91.066406 57.679688 C 92.695312 49.558594 92.546875 46.242188 91.546875 40.117188 C 90.738281 35.179688 87.222656 28.105469 84.175781 24.699219 C 81.03125 21.191406 83.242188 22.332031 80.203125 19.773438 C 77.539062 16.816406 74.953125 13.886719 73.546875 12.710938 C 63.371094 4.207031 63.601562 2.398438 63.796875 2.09375 L 63.652344 2.253906 C 63.53125 1.773438 63.445312 1.371094 63.445312 1.371094 C 63.445312 1.371094 57.878906 6.933594 56.710938 16.199219 C 55.949219 22.253906 58.210938 28.554688 61.492188 32.59375 C 63.199219 34.679688 65.132812 36.578125 67.253906 38.253906 L 67.253906 38.242188 C 69.730469 41.800781 71.097656 46.191406 71.097656 50.921875 C 71.097656 62.746094 61.5 72.339844 49.667969 72.339844 C 48.050781 72.339844 46.449219 72.160156 44.875 71.804688 C 39.289062 70.738281 36.066406 67.925781 34.457031 66.011719 C 33.535156 64.914062 33.144531 64.117188 33.144531 64.117188 C 38.148438 65.910156 43.679688 65.53125 47.042969 63.675781 C 50.433594 61.796875 52.484375 60.402344 54.148438 60.953125 C 55.789062 61.496094 57.097656 59.910156 55.925781 58.265625 C 54.773438 56.621094 51.785156 54.265625 47.347656 54.921875 C 43.953125 55.414062 40.84375 57.824219 36.394531 55.488281 L 35.558594 54.996094 L 36.222656 55.0625 C 35.359375 54.644531 33.828125 53.722656 33.433594 53.398438 L 34.035156 53.558594 C 29.878906 50.488281 30.394531 48.421875 30.527344 47.117188 C 30.632812 46.074219 31.386719 44.742188 32.660156 44.203125 C 33.273438 44.507812 33.65625 44.734375 33.65625 44.734375 L 33.242188 44 L 33.386719 43.96875 C 33.890625 44.1875 35.007812 44.753906 35.59375 45.097656 C 36.355469 45.574219 36.597656 46.011719 36.597656 46.011719 C 36.597656 46.011719 36.800781 45.910156 36.648438 45.492188 C 36.597656 45.324219 36.367188 44.773438 35.609375 44.214844 L 35.652344 44.21875 C 36.105469 44.453125 36.53125 44.714844 36.933594 45.019531 C 37.144531 44.328125 37.527344 43.601562 37.449219 42.300781 C 37.398438 41.390625 37.421875 41.152344 37.238281 40.796875 L 37.609375 40.6875 L 37.367188 39.972656 L 37.371094 39.949219 C 37.71875 38.859375 44.742188 36.035156 45.253906 35.699219 C 46.078125 35.179688 46.78125 34.496094 47.316406 33.6875 C 47.707031 33.132812 48 32.351562 48.070312 31.164062 C 48.097656 30.628906 47.933594 30.207031 46.066406 29.804688 C 44.953125 29.558594 43.222656 29.324219 40.5625 29.070312 C 38.632812 28.902344 37.496094 27.644531 36.847656 26.480469 L 36.488281 25.777344 L 36.210938 24.960938 C 37.378906 21.910156 39.472656 19.316406 42.199219 17.53125 L 41.730469 17.441406 L 43.328125 16.765625 C 43.605469 16.648438 42.148438 16.101562 40.875 16.230469 C 39.570312 16.359375 39.296875 16.5 38.597656 16.769531 L 39.589844 16.175781 C 38.183594 16.371094 36.4375 17.101562 34.945312 17.933594 L 35.03125 17.511719 C 34.335938 17.78125 32.628906 18.847656 32.132812 19.753906 L 32.160156 19.226562 C 31.640625 19.621094 31.160156 20.066406 30.734375 20.558594 L 30.707031 20.585938 C 26.675781 19.128906 23.128906 19.035156 20.121094 19.6875 C 19.464844 19.097656 18.40625 18.199219 16.910156 15.265625 L 16.675781 15.453125 C 16.09375 14.105469 15.742188 11.890625 15.800781 10.375 C 15.800781 10.375 14.597656 10.921875 13.605469 13.210938 C 13.421875 13.621094 13.304688 13.847656 13.183594 14.074219 L 13.28125 13.367188 C 13.109375 13.660156 12.660156 14.070312 12.464844 14.597656 C 12.332031 14.988281 12.140625 15.210938 12.019531 15.699219 L 11.992188 15.742188 L 11.996094 15.242188 C 11.53125 16.183594 11.128906 17.160156 10.796875 18.15625 C 10.261719 19.921875 9.640625 22.3125 9.539062 25.433594 L 9.515625 26.144531 C 8.253906 27.59375 7.382812 28.816406 7.058594 29.457031 C 5.414062 31.980469 3.609375 35.929688 1.851562 42.171875 C 2.632812 40.46875 3.5625 38.832031 4.640625 37.296875 C 3.183594 40.609375 1.777344 45.816406 1.492188 53.835938 C 1.84375 52.179688 2.300781 50.539062 2.84375 48.9375 C 2.59375 54.285156 3.210938 60.910156 6.597656 68.390625 C 8.601562 72.792969 13.222656 81.71875 24.511719 88.691406 C 31.730469 93.148438 31.289062 93.074219 31.757812 93.003906 C 32.019531 92.964844 32.570312 92.921875 34.953125 93.691406 C 35.4375 93.867188 35.933594 94.042969 36.441406 94.210938 L 35.980469 94.011719 C 40.375 95.328125 44.9375 96 49.523438 96 C 66.617188 96.011719 71.65625 89.152344 71.65625 89.152344 L 71.605469 89.1875 L 72.304688 88.480469 C 69.609375 91.027344 63.457031 91.191406 61.148438 91.011719 C 65.066406 89.855469 67.652344 88.882812 72.675781 86.960938 C 73.261719 86.742188 73.867188 86.496094 74.480469 86.214844 L 74.679688 86.125 L 75.042969 85.953125 C 77.492188 84.796875 79.792969 83.359375 81.902344 81.660156 C 86.953125 77.632812 88.042969 73.699219 88.621094 71.117188 C 88.539062 71.363281 88.292969 71.941406 88.117188 72.320312 C 86.820312 75.097656 83.941406 76.808594 80.808594 78.269531 C 82.296875 76.316406 83.675781 74.285156 84.941406 72.179688 C 85.964844 71.167969 86.285156 69.578125 87.042969 68.515625 Z M 87.042969 68.515625 "/>
<path style=" stroke:none;fill-rule:nonzero;fill:rgb(87.843138%,43.137255%,43.137255%);fill-opacity:1;" d="M 15.800781 10.375 C 15.800781 10.375 14.597656 10.921875 13.605469 13.210938 C 13.421875 13.621094 13.304688 13.847656 13.183594 14.074219 L 13.28125 13.367188 C 13.109375 13.660156 12.660156 14.070312 12.464844 14.597656 C 12.332031 14.988281 12.140625 15.210938 12.019531 15.699219 L 11.992188 15.742188 L 11.996094 15.242188 C 11.53125 16.183594 11.128906 17.160156 10.796875 18.15625 C 10.261719 19.921875 9.640625 22.3125 9.539062 25.433594 L 9.515625 26.144531 C 8.253906 27.59375 7.382812 28.816406 7.058594 29.457031 C 5.414062 31.980469 3.609375 35.929688 1.851562 42.171875 C 2.632812 40.46875 3.5625 38.832031 4.640625 37.296875 C 3.183594 40.609375 1.777344 45.816406 1.492188 53.835938 C 1.84375 52.179688 2.300781 50.539062 2.84375 48.9375 C 2.59375 54.285156 3.210938 60.910156 6.597656 68.390625 C 8.601562 72.792969 13.222656 81.71875 24.511719 88.691406 C 30.8125 92.578125 31.277344 93.019531 31.605469 93.019531 C 31.652344 93.019531 31.695312 93.011719 31.757812 93 C 31.816406 92.992188 31.886719 92.980469 31.996094 92.980469 C 32.359375 92.980469 33.109375 93.089844 34.957031 93.6875 C 35.441406 93.863281 35.9375 94.039062 36.445312 94.207031 L 35.984375 94.007812 C 39.890625 95.179688 43.929688 95.839844 48 95.972656 L 48 72.273438 C 46.949219 72.191406 45.898438 72.03125 44.867188 71.800781 C 39.28125 70.734375 36.058594 67.921875 34.449219 66.007812 C 33.527344 64.910156 33.136719 64.113281 33.136719 64.113281 C 35.359375 64.90625 37.6875 65.28125 39.882812 65.28125 C 42.628906 65.28125 45.167969 64.703125 47.035156 63.671875 C 47.367188 63.488281 47.691406 63.308594 48 63.132812 L 48 54.839844 C 47.785156 54.859375 47.5625 54.882812 47.34375 54.914062 C 45.023438 55.257812 42.835938 56.488281 40.265625 56.488281 C 39.070312 56.488281 37.800781 56.222656 36.390625 55.484375 L 35.558594 54.996094 L 36.222656 55.0625 C 35.359375 54.644531 33.828125 53.722656 33.433594 53.398438 L 34.035156 53.558594 C 29.878906 50.488281 30.394531 48.421875 30.527344 47.117188 C 30.632812 46.074219 31.386719 44.742188 32.660156 44.203125 C 33.273438 44.507812 33.65625 44.734375 33.65625 44.734375 L 33.242188 44 L 33.386719 43.96875 C 33.890625 44.1875 35.007812 44.753906 35.59375 45.097656 C 36.355469 45.574219 36.597656 46.011719 36.597656 46.011719 C 36.597656 46.011719 36.800781 45.910156 36.648438 45.492188 C 36.597656 45.324219 36.367188 44.773438 35.609375 44.214844 L 35.652344 44.21875 C 36.105469 44.453125 36.53125 44.714844 36.933594 45.019531 C 37.144531 44.328125 37.527344 43.601562 37.449219 42.300781 C 37.398438 41.390625 37.421875 41.152344 37.238281 40.796875 L 37.609375 40.6875 L 37.367188 39.972656 L 37.371094 39.949219 C 37.71875 38.859375 44.742188 36.035156 45.253906 35.699219 C 46.078125 35.179688 46.78125 34.496094 47.316406 33.6875 C 47.628906 33.261719 47.871094 32.699219 48 31.921875 L 48 30.6875 C 47.832031 30.363281 47.351562 30.085938 46.078125 29.808594 C 44.964844 29.5625 43.234375 29.328125 40.574219 29.074219 C 38.632812 28.902344 37.496094 27.644531 36.847656 26.480469 L 36.488281 25.777344 L 36.210938 24.960938 C 37.378906 21.910156 39.472656 19.316406 42.199219 17.53125 L 41.730469 17.441406 L 43.328125 16.765625 C 43.574219 16.660156 42.445312 16.210938 41.292969 16.210938 C 41.152344 16.210938 41.015625 16.21875 40.875 16.230469 C 39.570312 16.359375 39.296875 16.5 38.597656 16.769531 L 39.589844 16.175781 C 38.183594 16.371094 36.4375 17.101562 34.945312 17.933594 L 35.03125 17.511719 C 34.335938 17.78125 32.628906 18.847656 32.132812 19.753906 L 32.160156 19.226562 C 31.640625 19.621094 31.160156 20.066406 30.734375 20.558594 L 30.707031 20.585938 C 28.203125 19.679688 25.882812 19.300781 23.765625 19.300781 C 22.472656 19.300781 21.261719 19.441406 20.121094 19.6875 C 19.464844 19.097656 18.40625 18.199219 16.910156 15.265625 L 16.675781 15.453125 C 16.09375 14.105469 15.742188 11.890625 15.800781 10.375 Z M 15.800781 10.375 "/>
<path style=" stroke:none;fill-rule:nonzero;fill:rgb(87.843138%,43.137255%,43.137255%);fill-opacity:1;" d="M 76.648438 8.933594 C 74.3125 11.652344 73.21875 17.777344 75.59375 23.980469 C 77.960938 30.1875 81.59375 28.839844 83.855469 35.171875 C 86.84375 43.519531 85.453125 54.742188 85.453125 54.742188 C 85.453125 54.742188 89.042969 65.144531 91.546875 54.097656 C 97.085938 33.34375 76.648438 14.042969 76.648438 8.933594 Z M 76.648438 8.933594 "/>
<path style=" stroke:none;fill-rule:nonzero;fill:rgb(87.843138%,43.137255%,43.137255%);fill-opacity:1;" d="M 48.089844 31.160156 C 48.128906 30.304688 47.683594 29.730469 40.609375 29.066406 C 37.695312 28.796875 36.578125 26.109375 36.242188 24.972656 C 35.203125 27.664062 34.785156 30.484375 35.011719 33.898438 C 35.167969 36.136719 36.671875 38.535156 37.386719 39.945312 C 37.386719 39.945312 37.542969 39.734375 37.625 39.660156 C 38.976562 38.253906 44.644531 36.109375 45.175781 35.800781 C 45.757812 35.433594 47.992188 33.800781 48.089844 31.160156 Z M 48.089844 31.160156 "/>
</g>
</svg>
