<svg id="SvgjsSvg1026" width="288" height="288" xmlns="http://www.w3.org/2000/svg" version="1.1" xmlns:xlink="http://www.w3.org/1999/xlink" xmlns:svgjs="http://svgjs.com/svgjs"><defs id="SvgjsDefs1027"></defs><g id="SvgjsG1028"><svg xmlns="http://www.w3.org/2000/svg" width="288" height="288" version="1.0" viewBox="0 0 100 100"><path d="M88.138 38.278C84.404 27.722 76.67 21.094 76.367 16.396c-.979 1.683-1.526 2.969-1.78 4.001-.336-.326-.632-.6-.889-.808-8.75-7.19-8.695-9.59-8.695-9.59s-2.396 1.758-4.505 4.88A36.532 36.532 0 0 0 50 13.332c-9.909 0-18.88 3.949-25.479 10.336-2.217-3.239-2.019-6.657-2.019-6.657s-5.225 3.809-5.901 14.323C12.497 36.462 10 42.923 10 50c0 22.09 17.91 39.997 40 40 22.093-.003 40-17.913 40-40 .003-5.104-.794-8.909-1.862-11.722zM50.003 70c-4.908 0-9.153-2.686-11.468-6.638 3.933 1.035 8.04.72 10.642-.696 2.916-1.589 4.681-2.767 6.116-2.302 1.409.463 2.532-.879 1.526-2.271-.989-1.391-3.561-3.379-7.376-2.826-2.92.417-5.593 2.455-9.421.482-.244-.127-5.296-2.692-5.045-7.08.045-.863.706-1.95 1.764-2.426.283.107 3.725 2.038 3.725 2.038 1.631-2.012 1.406-4.524.97-6.208 1.543-1.09 5.847-2.815 6.218-3.05a5.868 5.868 0 0 0 1.777-1.702c.335-.473.589-1.133.65-2.136.02-.452-.12-.811-1.719-1.152-.963-.205-2.447-.407-4.736-.615-1.67-.146-2.649-1.211-3.206-2.194-.091-.188-.183-.352-.273-.521 2.227-5.358 7.305-7.839 7.305-7.839s-7.708-2.044-12.562 3.308a20.722 20.722 0 0 0-2.236-.618C37.552 22.07 43.528 20 50 20c2.712 0 5.325.394 7.825 1.067-.11.488-.257.951-.322 1.469-.66 5.113-.729 9.547 4.108 13.857l4.485 4.18A13.28 13.28 0 0 1 70.002 50c.001 11.042-8.954 20-19.999 20z" fill="#e78284" class="color000 svgShape"></path></svg></g></svg>