<?xml version="1.0" encoding="UTF-8"?>
<svg xmlns="http://www.w3.org/2000/svg" xmlns:xlink="http://www.w3.org/1999/xlink" viewBox="0 0 90 90" width="90px" height="90px">
<g id="surface361886">
<path style=" stroke:none;fill-rule:nonzero;fill:rgb(89.803922%,78.431374%,56.470591%);fill-opacity:1;" d="M 15.9375 15 C 11.285156 15 7.5 18.785156 7.5 23.4375 L 7.5 66.5625 C 7.5 71.214844 11.285156 75 15.9375 75 L 20.625 75 L 20.625 77.8125 C 20.625 81.429688 23.570312 84.375 27.1875 84.375 L 32.8125 84.375 C 36.429688 84.375 39.375 81.429688 39.375 77.8125 L 39.375 75 L 50.625 75 L 50.625 77.8125 C 50.625 81.429688 53.570312 84.375 57.1875 84.375 L 62.8125 84.375 C 66.429688 84.375 69.375 81.429688 69.375 77.8125 L 69.375 75 L 74.0625 75 C 78.714844 75 82.5 71.214844 82.5 66.5625 L 82.5 32.8125 C 82.5 28.160156 78.714844 24.375 74.0625 24.375 L 45.082031 24.375 L 36.699219 17.386719 C 34.847656 15.847656 32.503906 15 30.097656 15 Z M 30.9375 52.5 L 59.0625 52.5 C 61.648438 52.5 63.75 54.605469 63.75 57.1875 L 63.75 77.8125 C 63.75 78.328125 63.328125 78.75 62.8125 78.75 L 57.1875 78.75 C 56.671875 78.75 56.25 78.328125 56.25 77.8125 L 56.25 64.6875 C 56.25 62.105469 54.148438 60 51.5625 60 L 38.4375 60 C 35.851562 60 33.75 62.105469 33.75 64.6875 L 33.75 77.8125 C 33.75 78.328125 33.328125 78.75 32.8125 78.75 L 27.1875 78.75 C 26.671875 78.75 26.25 78.328125 26.25 77.8125 L 26.25 57.1875 C 26.25 54.605469 28.351562 52.5 30.9375 52.5 Z M 30.9375 52.5 "/>
</g>
</svg>
