<?xml version="1.0" encoding="UTF-8"?>
<svg xmlns="http://www.w3.org/2000/svg" xmlns:xlink="http://www.w3.org/1999/xlink" viewBox="0 0 90 90" width="90px" height="90px">
<g id="surface513848">
<path style=" stroke:none;fill-rule:nonzero;fill:rgb(85.490197%,85.490197%,85.490197%);fill-opacity:1;" d="M 68.4375 11.25 L 56.097656 11.25 C 54.546875 11.25 53.285156 12.511719 53.285156 14.0625 C 53.285156 20.253906 48.328125 22.5 45 22.5 C 41.671875 22.5 36.714844 20.253906 36.714844 14.0625 C 36.714844 12.511719 35.453125 11.25 33.902344 11.25 L 21.5625 11.25 C 15.878906 11.25 11.25 15.878906 11.25 21.5625 L 11.25 68.4375 C 11.25 74.121094 15.878906 78.75 21.5625 78.75 L 68.4375 78.75 C 74.121094 78.75 78.75 74.121094 78.75 68.4375 L 78.75 21.5625 C 78.75 15.878906 74.121094 11.25 68.4375 11.25 Z M 58.238281 53.550781 L 46.988281 64.800781 C 46.730469 65.0625 46.414062 65.269531 46.070312 65.414062 C 46.054688 65.417969 46.039062 65.421875 46.027344 65.425781 C 45.707031 65.550781 45.363281 65.625 45 65.625 C 44.636719 65.625 44.292969 65.550781 43.972656 65.425781 C 43.960938 65.421875 43.945312 65.417969 43.929688 65.414062 C 43.585938 65.269531 43.273438 65.0625 43.011719 64.800781 L 31.761719 53.550781 C 30.664062 52.453125 30.664062 50.671875 31.761719 49.574219 C 32.859375 48.476562 34.640625 48.476562 35.738281 49.574219 L 42.1875 56.023438 L 42.1875 38.4375 C 42.1875 36.886719 43.449219 35.625 45 35.625 C 46.550781 35.625 47.8125 36.886719 47.8125 38.4375 L 47.8125 56.023438 L 54.261719 49.574219 C 55.359375 48.476562 57.140625 48.476562 58.238281 49.574219 C 59.335938 50.671875 59.335938 52.453125 58.238281 53.550781 Z M 58.238281 53.550781 "/>
</g>
</svg>
