<?xml version="1.0" encoding="UTF-8"?>
<svg xmlns="http://www.w3.org/2000/svg" xmlns:xlink="http://www.w3.org/1999/xlink" viewBox="0 0 144 144" width="144px" height="144px">
<g id="surface487650">
<path style=" stroke:none;fill-rule:nonzero;fill:rgb(40.392157%,69.01961%,90.980393%);fill-opacity:1;" d="M 72 12 C 38.917969 12 12 38.917969 12 72 C 12 105.082031 38.917969 132 72 132 C 105.082031 132 132 105.082031 132 72 C 132 38.917969 105.082031 12 72 12 Z M 65.167969 47.101562 C 80.582031 47.28125 95.832031 51.0625 109.757812 58.324219 C 111.960938 59.46875 112.816406 62.191406 111.667969 64.394531 C 110.863281 65.9375 109.296875 66.8125 107.671875 66.820312 C 106.96875 66.820312 106.257812 66.65625 105.589844 66.308594 C 85.332031 55.742188 62.007812 53.273438 39.890625 59.378906 C 37.503906 60.027344 35.015625 58.625 34.351562 56.230469 C 33.695312 53.835938 35.097656 51.359375 37.492188 50.695312 C 46.613281 48.183594 55.921875 46.996094 65.167969 47.101562 Z M 65.367188 66.113281 C 77.96875 66.324219 90.4375 69.394531 101.828125 75.234375 C 104.042969 76.367188 104.914062 79.082031 103.78125 81.292969 C 102.984375 82.847656 101.410156 83.738281 99.78125 83.734375 C 99.085938 83.734375 98.386719 83.582031 97.726562 83.242188 C 81.476562 74.917969 62.757812 72.894531 45.027344 77.554688 C 42.621094 78.183594 40.164062 76.75 39.53125 74.34375 C 38.902344 71.941406 40.339844 69.480469 42.742188 68.847656 C 50.199219 66.890625 57.804688 65.984375 65.367188 66.113281 Z M 65.640625 85.128906 C 75.269531 85.375 84.792969 87.679688 93.507812 91.957031 C 95.742188 93.050781 96.660156 95.75 95.566406 97.980469 C 94.785156 99.574219 93.1875 100.496094 91.523438 100.492188 C 90.859375 100.492188 90.183594 100.347656 89.542969 100.035156 C 77.472656 94.113281 63.582031 92.574219 50.441406 95.683594 C 48 96.269531 45.59375 94.757812 45.023438 92.34375 C 44.449219 89.921875 45.9375 87.5 48.355469 86.929688 C 54.050781 85.578125 59.867188 84.984375 65.640625 85.128906 Z M 65.640625 85.128906 "/>
</g>
</svg>
