<?xml version="1.0" encoding="UTF-8"?>
<svg xmlns="http://www.w3.org/2000/svg" xmlns:xlink="http://www.w3.org/1999/xlink" viewBox="0 0 90 90" width="90px" height="90px">
<g id="surface370637">
<path style=" stroke:none;fill-rule:nonzero;fill:rgb(54.901963%,66.666669%,93.333334%);fill-opacity:1;" d="M 45 7.5 C 24.324219 7.5 7.5 24.324219 7.5 45 C 7.5 65.675781 24.324219 82.5 45 82.5 C 65.675781 82.5 82.5 65.675781 82.5 45 C 82.5 24.324219 65.675781 7.5 45 7.5 Z M 40.730469 29.441406 C 50.363281 29.550781 59.894531 31.914062 68.597656 36.453125 C 69.976562 37.167969 70.511719 38.871094 69.792969 40.246094 C 69.289062 41.210938 68.3125 41.757812 67.292969 41.761719 C 66.855469 41.761719 66.410156 41.660156 65.996094 41.445312 C 53.332031 34.839844 38.753906 33.296875 24.929688 37.113281 C 23.441406 37.515625 21.886719 36.640625 21.472656 35.144531 C 21.058594 33.648438 21.9375 32.097656 23.433594 31.683594 C 29.132812 30.113281 34.949219 29.371094 40.730469 29.441406 Z M 40.855469 41.320312 C 48.730469 41.453125 56.523438 43.371094 63.644531 47.019531 C 65.027344 47.730469 65.570312 49.425781 64.863281 50.808594 C 64.363281 51.78125 63.382812 52.335938 62.363281 52.335938 C 61.929688 52.335938 61.492188 52.238281 61.082031 52.027344 C 50.921875 46.824219 39.222656 45.558594 28.144531 48.472656 C 26.636719 48.863281 25.101562 47.96875 24.707031 46.464844 C 24.316406 44.964844 25.210938 43.425781 26.714844 43.03125 C 31.375 41.804688 36.128906 41.242188 40.855469 41.320312 Z M 41.027344 53.207031 C 47.042969 53.359375 52.996094 54.800781 58.445312 57.472656 C 59.839844 58.15625 60.414062 59.84375 59.730469 61.238281 C 59.242188 62.234375 58.242188 62.8125 57.203125 62.808594 C 56.785156 62.808594 56.363281 62.71875 55.964844 62.523438 C 48.417969 58.820312 39.738281 57.859375 31.527344 59.800781 C 30 60.167969 28.496094 59.222656 28.140625 57.714844 C 27.78125 56.203125 28.710938 54.6875 30.222656 54.332031 C 33.78125 53.488281 37.417969 53.113281 41.027344 53.207031 Z M 41.027344 53.207031 "/>
</g>
</svg>
