#define close_width  14
#define close_height 14
static unsigned char close_bits[] = {
 0x00,0xc0,0x00,0xc0,0x00,0xc0,0x38,0xc7,0x9c,0xcf,0x3c,0xcf,
 0x7c,0xce,0x3c,0xcf,0x98,0xc7,0x30,0xc3,0x60,0xc1,0xc0,0xc0,
 0x00,0xc0,0x00,0xc0};
