<?xml version="1.0" encoding="UTF-8" standalone="no"?>
<svg
   xmlns:dc="http://purl.org/dc/elements/1.1/"
   xmlns:cc="http://creativecommons.org/ns#"
   xmlns:rdf="http://www.w3.org/1999/02/22-rdf-syntax-ns#"
   xmlns:svg="http://www.w3.org/2000/svg"
   xmlns="http://www.w3.org/2000/svg"
   xmlns:xlink="http://www.w3.org/1999/xlink"
   xmlns:sodipodi="http://sodipodi.sourceforge.net/DTD/sodipodi-0.dtd"
   xmlns:inkscape="http://www.inkscape.org/namespaces/inkscape"
   inkscape:version="1.0 (4035a4fb49, 2020-05-01)"
   sodipodi:docname="4chan.org.svg"
   id="svg72"
   viewBox="0 0 64 64"
   version="1.1"
   height="64"
   width="64">
  <sodipodi:namedview
     inkscape:current-layer="svg72"
     inkscape:window-maximized="1"
     inkscape:window-y="36"
     inkscape:window-x="0"
     inkscape:cy="19.809416"
     inkscape:cx="-5.7928598"
     inkscape:zoom="2.9804688"
     showgrid="false"
     id="namedview74"
     inkscape:window-height="932"
     inkscape:window-width="1920"
     inkscape:pageshadow="2"
     inkscape:pageopacity="0"
     guidetolerance="10"
     gridtolerance="10"
     objecttolerance="10"
     borderopacity="1"
     bordercolor="#666666"
     pagecolor="#ffffff" />
  <metadata
     id="metadata2">
    <rdf:RDF>
      <cc:Work
         rdf:about="">
        <dc:format>image/svg+xml</dc:format>
        <dc:type
           rdf:resource="http://purl.org/dc/dcmitype/StillImage" />
        <dc:title></dc:title>
      </cc:Work>
    </rdf:RDF>
  </metadata>
  <defs
     id="defs18">
    <style
       id="style4"
       type="text/css" />
    <style
       id="style6"
       type="text/css" />
    <style
       id="style8"
       type="text/css" />
    <filter
       color-interpolation-filters="sRGB"
       height="1.048"
       width="1.048"
       y="-.024"
       x="-.024"
       id="filter2761">
      <feGaussianBlur
         id="feGaussianBlur10"
         stdDeviation="0.14552168" />
    </filter>
    <linearGradient
       gradientUnits="userSpaceOnUse"
       gradientTransform="matrix(3.7796,0,0,3.7796,111.78704,0.53107)"
       y2="1.17"
       y1="15.576"
       x2="15.65"
       x1="1.3315"
       id="linearGradient1024-6">
      <stop
         id="stop13"
         offset="0"
         stop-color="#00dc96" />
      <stop
         id="stop15"
         offset="1"
         stop-color="#14d29b" />
    </linearGradient>
    <linearGradient
       gradientUnits="userSpaceOnUse"
       gradientTransform="matrix(0.27476,0,0,0.27476,-24.952118,-0.32515)"
       y2="12.461"
       y1="57.955"
       x2="45.628"
       x1="45.628"
       id="b">
      <stop
         id="stop2"
         offset="0" />
      <stop
         id="stop4"
         offset="1"
         stop-opacity="0" />
    </linearGradient>
    <filter
       inkscape:collect="always"
       style="color-interpolation-filters:sRGB"
       id="filter1057"
       x="-0.027000001"
       width="1.054"
       y="-0.027000001"
       height="1.054">
      <feGaussianBlur
         inkscape:collect="always"
         stdDeviation="0.61875"
         id="feGaussianBlur1059" />
    </filter>
    <linearGradient
       inkscape:collect="always"
       xlink:href="#linearGradient1051"
       id="linearGradient1053"
       x1="-127"
       y1="60"
       x2="-72"
       y2="5"
       gradientUnits="userSpaceOnUse"
       gradientTransform="translate(131.5,-0.50999901)" />
    <linearGradient
       inkscape:collect="always"
       id="linearGradient1051">
      <stop
         style="stop-color:#02db96;stop-opacity:1"
         offset="0"
         id="stop1047" />
      <stop
         style="stop-color:#13d39b;stop-opacity:1"
         offset="1"
         id="stop1049" />
    </linearGradient>
    <style
       type="text/css"
       id="style872" />
    <style
       type="text/css"
       id="style874" />
    <style
       type="text/css"
       id="style876" />
    <filter
       id="filter2761-3"
       x="-.024"
       y="-.024"
       width="1.048"
       height="1.048"
       color-interpolation-filters="sRGB">
      <feGaussianBlur
         stdDeviation="0.14552168"
         id="feGaussianBlur878" />
    </filter>
    <linearGradient
       id="linearGradient1024-6-6"
       x1="1.3315"
       x2="15.65"
       y1="15.576"
       y2="1.17"
       gradientTransform="matrix(3.7796,0,0,3.7796,-0.0020773,0.53047)"
       gradientUnits="userSpaceOnUse">
      <stop
         stop-color="#00dc96"
         offset="0"
         id="stop881" />
      <stop
         stop-color="#14d29b"
         offset="1"
         id="stop883" />
    </linearGradient>
  </defs>
  <g
     id="g64"
     fill="#5e4aa6">
    <circle
       id="circle20"
       r="0"
       cy="-1241.6"
       cx="-1248.7" />
    <circle
       id="circle22"
       fill-rule="evenodd"
       r="0"
       cy="23.855"
       cx="-149.15" />
    <circle
       id="circle24"
       r="0"
       cy="-1241.6"
       cx="-1248.7" />
    <circle
       id="circle26"
       fill-rule="evenodd"
       r="0"
       cy="23.855"
       cx="-149.15" />
    <circle
       id="circle28"
       r="0"
       cy="-1256.6"
       cx="-1150.9" />
    <circle
       id="circle30"
       fill-rule="evenodd"
       r="0"
       cy="8.8744"
       cx="-51.327" />
    <g
       id="g62"
       stroke-width=".26458"
       transform="matrix(3.7796,0,0,3.7796,167.86,4.61)">
      <g
         id="g40"
         transform="translate(-.0272 .0065001)">
        <circle
           id="circle32"
           r="0"
           cy="-328.38"
           cx="-330.35" />
        <circle
           id="circle34"
           r="0"
           cy="-326.25"
           cx="-312.11" />
        <circle
           id="circle36"
           r="0"
           cy="-333.07"
           cx="-306.02" />
        <circle
           id="circle38"
           r="0"
           cy="-326.01"
           cx="-308.84" />
      </g>
      <g
         id="g50"
         transform="translate(-.0272 .0065001)">
        <circle
           id="circle42"
           r="0"
           cy="-328.38"
           cx="-330.35" />
        <circle
           id="circle44"
           r="0"
           cy="-326.25"
           cx="-312.11" />
        <circle
           id="circle46"
           r="0"
           cy="-333.07"
           cx="-306.02" />
        <circle
           id="circle48"
           r="0"
           cy="-326.01"
           cx="-308.84" />
      </g>
      <g
         id="g60"
         transform="translate(-.02705 .0064503)">
        <circle
           id="circle52"
           r="0"
           cy="-328.38"
           cx="-330.35" />
        <circle
           id="circle54"
           r="0"
           cy="-326.25"
           cx="-312.11" />
        <circle
           id="circle56"
           r="0"
           cy="-333.07"
           cx="-306.02" />
        <circle
           id="circle58"
           r="0"
           cy="-326.01"
           cx="-308.84" />
      </g>
    </g>
  </g>
  <rect
     style="opacity:0.3;fill:#141414;fill-opacity:1;stroke-width:2.74436;stroke-linecap:round;filter:url(#filter1057)"
     id="rect1055"
     width="55"
     height="55"
     x="4.5"
     y="4.5"
     ry="15" />
  <rect
     ry="14.999999"
     y="4.5000019"
     x="4.5000019"
     height="54.999996"
     width="54.999996"
     id="rect1045"
     style="fill:url(#linearGradient1053);fill-opacity:1;stroke-width:2.74436;stroke-linecap:round" />
  <path
     d="m 38.56285,14.50015 c -1.7989,0 -3.6458,2.4876 -3.6458,7.2917 0,4.375 1.4583,7.2917 1.4583,7.2917 0,0 11.667,-1.4583 11.667,-7.2917 0,-4.375 -4.108,-7.9281 -5.8333,-4.375 -0.65138,-1.9542 -1.904,-2.9167 -3.6458,-2.9167 z m -16.771,1.4583 c -4.375,0 -7.9281,4.108 -4.375,5.8333 -1.9542,0.65138 -2.9167,1.904 -2.9167,3.6458 0,1.7989 2.4876,3.6458 7.2917,3.6458 4.375,0 7.2917,-1.4583 7.2917,-1.4583 0,0 -1.4583,-11.667 -7.2917,-11.667 z m 5.8333,18.958 c 0,0 -11.667,1.4583 -11.667,7.2917 0,4.375 4.108,7.9281 5.8333,4.375 0.65138,1.9542 1.904,2.9167 3.6458,2.9167 1.7989,0 3.6458,-2.4876 3.6458,-7.2917 0,-4.375 -1.4583,-7.2917 -1.4583,-7.2917 z m 14.583,0 c -4.375,0 -7.2917,1.4583 -7.2917,1.4583 0,0 1.4583,11.667 7.2917,11.667 4.375,0 7.9281,-4.108 4.375,-5.8333 1.9542,-0.65138 2.9167,-1.904 2.9167,-3.6458 0,-1.7989 -2.4876,-3.6458 -7.2917,-3.6458 z"
     fill="#ffffff"
     stroke-width="1.4583"
     id="path957" />
</svg>
