<?xml version="1.0" encoding="UTF-8" standalone="no"?>
<svg
   xmlns:dc="http://purl.org/dc/elements/1.1/"
   xmlns:cc="http://creativecommons.org/ns#"
   xmlns:rdf="http://www.w3.org/1999/02/22-rdf-syntax-ns#"
   xmlns:svg="http://www.w3.org/2000/svg"
   xmlns="http://www.w3.org/2000/svg"
   xmlns:xlink="http://www.w3.org/1999/xlink"
   xmlns:sodipodi="http://sodipodi.sourceforge.net/DTD/sodipodi-0.dtd"
   xmlns:inkscape="http://www.inkscape.org/namespaces/inkscape"
   width="64"
   height="64"
   viewBox="0 0 16.933333 16.933334"
   version="1.1"
   id="svg8"
   inkscape:version="1.0.2 (e86c870879, 2021-01-15)"
   sodipodi:docname="7BD8_halo.0.svg">
  <defs
     id="defs2">
    <filter
       inkscape:collect="always"
       style="color-interpolation-filters:sRGB"
       id="filter1057"
       x="-0.027000001"
       width="1.054"
       y="-0.027000001"
       height="1.054">
      <feGaussianBlur
         inkscape:collect="always"
         stdDeviation="0.61875"
         id="feGaussianBlur1059" />
    </filter>
    <linearGradient
       inkscape:collect="always"
       xlink:href="#linearGradient1051"
       id="linearGradient1053"
       x1="-127"
       y1="60"
       x2="-72"
       y2="5"
       gradientUnits="userSpaceOnUse"
       gradientTransform="matrix(0.26458333,0,0,0.26458333,42.673511,5.2890215)" />
    <linearGradient
       inkscape:collect="always"
       id="linearGradient1051">
      <stop
         style="stop-color:#323741;stop-opacity:1"
         offset="0"
         id="stop1047" />
      <stop
         style="stop-color:#465064;stop-opacity:1"
         offset="1"
         id="stop1049" />
    </linearGradient>
  </defs>
  <sodipodi:namedview
     id="base"
     pagecolor="#ffffff"
     bordercolor="#666666"
     borderopacity="1.0"
     inkscape:pageopacity="0.0"
     inkscape:pageshadow="2"
     inkscape:zoom="5.6"
     inkscape:cx="25.200982"
     inkscape:cy="19.236416"
     inkscape:document-units="mm"
     inkscape:current-layer="layer1"
     inkscape:document-rotation="0"
     showgrid="false"
     units="px"
     inkscape:window-width="1920"
     inkscape:window-height="992"
     inkscape:window-x="0"
     inkscape:window-y="0"
     inkscape:window-maximized="1" />
  <metadata
     id="metadata5">
    <rdf:RDF>
      <cc:Work
         rdf:about="">
        <dc:format>image/svg+xml</dc:format>
        <dc:type
           rdf:resource="http://purl.org/dc/dcmitype/StillImage" />
        <dc:title></dc:title>
      </cc:Work>
    </rdf:RDF>
  </metadata>
  <g
     inkscape:label="图层 1"
     inkscape:groupmode="layer"
     id="layer1">
    <g
       id="g907"
       transform="translate(-7.8808036,-5.4239583)">
      <rect
         ry="15"
         y="4.5"
         x="4.5"
         height="55"
         width="55"
         id="rect1055"
         style="opacity:0.3;fill:#141414;fill-opacity:1;stroke-width:2.74436;stroke-linecap:round;filter:url(#filter1057)"
         transform="matrix(0.26458333,0,0,0.26458333,7.8808036,5.4239583)" />
      <rect
         style="fill:url(#linearGradient1053);fill-opacity:1;stroke-width:0.726112;stroke-linecap:round"
         id="rect1045"
         width="14.552082"
         height="14.552082"
         x="9.0714293"
         y="6.614584"
         ry="3.9687498" />
      <path
         d="m 13.599891,14.25694 c 0.600366,-1.099026 0.366342,-2.159105 0.366342,-3.297237 l 3.72163,-0.572452 0.674634,0.938794 -0.732684,0.732684 h -0.732684 c -0.366342,0 -0.732684,0 -0.732684,0.732684 0,1.16041 -0.732685,2.198079 -1.099027,3.367882 L 13.600024,14.98936 Z"
         fill="#20242d"
         fill-opacity="0.99608"
         fill-rule="evenodd"
         stroke-width="0.366342"
         id="path1534" />
      <circle
         cx="17.080221"
         cy="11.509507"
         r="0.18317367"
         fill="#a11919"
         stroke-width="0.366342"
         style="paint-order:normal"
         id="circle1536" />
      <path
         d="m 15.431549,13.157861 -0.732684,2.198053 v 1.099026 l 1.099026,-3.297079 v -2.198052 h -0.366342 z"
         id="path1538"
         style="fill:#333333;fill-rule:evenodd;stroke-width:0.366342" />
      <path
         d="m 14.332523,13.157861 -0.366342,1.099027 v 1.099026 l 0.732684,-2.198053 v -2.198052 h -0.366342 z"
         id="path1540"
         style="fill:#333333;fill-rule:evenodd;stroke-width:0.366342" />
      <path
         d="m 17.8364,10.594313 c -0.566764,4.77e-4 -1.09183,0.0049 -1.577711,0.01288 l -2.292508,0.352743 c 0,0.347609 0.02041,0.68752 0.03363,1.023911 0.667914,-0.289904 1.992894,-0.291227 2.530792,-0.291227 l 0.366342,-0.366342 c 0.819521,0 1.17311,0.0049 1.332283,0.133085 l 0.133086,-0.133085 -0.525886,-0.73197 z"
         opacity="0.1"
         id="path1544"
         style="fill-rule:evenodd;stroke-width:0.366342" />
      <path
         d="m 13.233443,12.791678 -1.465394,0.366342 c 0.535807,2.694517 3.873764,4.389438 5.70177,4.396052 l 0.892334,-0.732684 -0.366342,-1.465395 c -1.831737,0 -4.251325,-0.366342 -4.7625,-2.564421 z"
         fill="#fafafa"
         id="path1546"
         style="fill-rule:evenodd;stroke-width:0.366342" />
      <path
         d="m 14.328554,15.362105 c -0.366342,0 -0.641297,0.371025 -0.792798,0.555228 1.245077,1.041268 2.849827,1.638856 3.93065,1.642851 l 0.02218,-0.0186 c -0.113604,-0.89191 -0.318426,-0.392456 -1.694339,-1.080426 -0.732684,-0.366342 -0.732684,-1.099026 -1.465395,-1.099026 z"
         fill="#20242d"
         fill-opacity="0.99608"
         id="path1548"
         style="fill-rule:evenodd;stroke-width:0.366342" />
      <path
         d="m 19.095023,12.058782 c 0.468603,2.077905 0.376263,2.008743 -0.366343,2.93079 l 1.099027,0.732684 c 1.30339,-1.083681 1.092782,-1.984031 0.732684,-3.297238 -0.39116,-0.568166 -0.913818,-0.533558 -1.465395,-0.366342 z"
         fill="#20242d"
         fill-opacity="0.99608"
         id="path1550"
         style="fill-rule:evenodd;stroke-width:0.366342" />
      <path
         d="m 19.698008,11.951626 c -0.193299,6.35e-4 -0.396346,0.04463 -0.603197,0.107328 0.0109,0.04832 0.01762,0.08132 0.02791,0.127365 0.13456,0.06582 0.225542,0.149368 0.338429,0.238983 l 1.177025,0.294084 c -0.02548,-0.0971 -0.05008,-0.192299 -0.07799,-0.294084 -0.244462,-0.355098 -0.540041,-0.474716 -0.862198,-0.473684 z"
         opacity="0.1"
         id="path1552"
         style="fill-rule:evenodd;stroke-width:0.366342" />
      <path
         d="m 20.56055,12.42523 0.366342,-0.366342 c -0.180803,-0.786315 -1.723443,-1.465395 -2.93079,-1.831737 -4.029869,0 -6.227762,0 -6.227762,1.465395 l 1.465394,0.366342 c 0,-0.732684 2.198079,-0.732684 2.93079,-0.732684 l 0.366342,-0.366342 c 1.465395,0 1.465395,0 1.465395,0.732684 0.732684,0 0.856218,0.17362 1.099026,0.366342"
         fill="#fafafa"
         id="path1554"
         style="fill-rule:evenodd;stroke-width:0.366342" />
      <path
         d="m 12.134629,11.784145 v 0.183173 l 0.732684,0.183174 v -0.183174 z"
         fill="#4ae355"
         id="path1556"
         style="fill-rule:evenodd;stroke-width:0.366342" />
      <path
         d="m 12.86726,12.700132 -0.732684,0.183174 v 0.183174 l 0.732684,-0.183174 z"
         fill="#4ae355"
         id="path1558"
         style="fill-rule:evenodd;stroke-width:0.366342" />
    </g>
  </g>
</svg>
