<?xml version="1.0" encoding="UTF-8" standalone="no"?>
<svg
   xmlns:dc="http://purl.org/dc/elements/1.1/"
   xmlns:cc="http://creativecommons.org/ns#"
   xmlns:rdf="http://www.w3.org/1999/02/22-rdf-syntax-ns#"
   xmlns:svg="http://www.w3.org/2000/svg"
   xmlns="http://www.w3.org/2000/svg"
   xmlns:xlink="http://www.w3.org/1999/xlink"
   xmlns:sodipodi="http://sodipodi.sourceforge.net/DTD/sodipodi-0.dtd"
   xmlns:inkscape="http://www.inkscape.org/namespaces/inkscape"
   width="64"
   height="64"
   viewBox="0 0 16.933333 16.933334"
   version="1.1"
   id="svg8"
   inkscape:version="1.0.2 (e86c870879, 2021-01-15)"
   sodipodi:docname="8-ball-pool.svg">
  <defs
     id="defs2">
    <filter
       id="filter2076"
       x="-0.048"
       y="-0.048"
       width="1.096"
       height="1.096"
       color-interpolation-filters="sRGB">
      <feGaussianBlur
         stdDeviation="1.1"
         id="feGaussianBlur161" />
    </filter>
    <linearGradient
       id="linearGradient2070"
       x1="145"
       x2="200"
       y1="59"
       y2="4"
       gradientTransform="matrix(0.26458333,0,0,0.26458333,-33.450892,3.3356404)"
       gradientUnits="userSpaceOnUse">
      <stop
         stop-color="#ffc841"
         offset="0"
         id="stop154" />
      <stop
         stop-color="#ffbe37"
         offset=".4925"
         id="stop156" />
      <stop
         stop-color="#ffc841"
         offset="1"
         id="stop158" />
    </linearGradient>
    <filter
       inkscape:collect="always"
       style="color-interpolation-filters:sRGB"
       id="filter1057"
       x="-0.027000001"
       width="1.054"
       y="-0.027000001"
       height="1.054">
      <feGaussianBlur
         inkscape:collect="always"
         stdDeviation="0.61875"
         id="feGaussianBlur1059" />
    </filter>
    <linearGradient
       inkscape:collect="always"
       xlink:href="#linearGradient1051"
       id="linearGradient1053"
       x1="-127"
       y1="60"
       x2="-72"
       y2="5"
       gradientUnits="userSpaceOnUse"
       gradientTransform="matrix(0.26458333,0,0,0.26458333,36.625892,1.7454947)" />
    <linearGradient
       inkscape:collect="always"
       id="linearGradient1051">
      <stop
         style="stop-color:#323741;stop-opacity:1"
         offset="0"
         id="stop1047" />
      <stop
         style="stop-color:#465064;stop-opacity:1"
         offset="1"
         id="stop1049" />
    </linearGradient>
    <linearGradient
       y2="5"
       x2="-72"
       y1="60"
       x1="-127"
       gradientTransform="matrix(0.19242425,0,0,0.19242425,29.446064,4.0913861)"
       gradientUnits="userSpaceOnUse"
       id="linearGradient3164"
       xlink:href="#linearGradient3170"
       inkscape:collect="always" />
    <linearGradient
       id="linearGradient3170"
       inkscape:collect="always">
      <stop
         id="stop3166"
         offset="0"
         style="stop-color:#d7d7d7;stop-opacity:1" />
      <stop
         id="stop3168"
         offset="1"
         style="stop-color:#ebebeb;stop-opacity:1" />
    </linearGradient>
  </defs>
  <sodipodi:namedview
     id="base"
     pagecolor="#ffffff"
     bordercolor="#666666"
     borderopacity="1.0"
     inkscape:pageopacity="0.0"
     inkscape:pageshadow="2"
     inkscape:zoom="5.6"
     inkscape:cx="25.200982"
     inkscape:cy="19.236416"
     inkscape:document-units="mm"
     inkscape:current-layer="layer1"
     inkscape:document-rotation="0"
     showgrid="false"
     units="px"
     inkscape:window-width="1920"
     inkscape:window-height="992"
     inkscape:window-x="0"
     inkscape:window-y="0"
     inkscape:window-maximized="1" />
  <metadata
     id="metadata5">
    <rdf:RDF>
      <cc:Work
         rdf:about="">
        <dc:format>image/svg+xml</dc:format>
        <dc:type
           rdf:resource="http://purl.org/dc/dcmitype/StillImage" />
        <dc:title></dc:title>
      </cc:Work>
    </rdf:RDF>
  </metadata>
  <g
     inkscape:label="图层 1"
     inkscape:groupmode="layer"
     id="layer1">
    <g
       id="g2953"
       transform="translate(-1.8331845,-1.8804315)">
      <rect
         ry="15"
         y="4.5"
         x="4.5"
         height="55"
         width="55"
         id="rect1055"
         style="opacity:0.3;fill:#141414;fill-opacity:1;stroke-width:2.74436;stroke-linecap:round;filter:url(#filter1057)"
         transform="matrix(0.26458333,0,0,0.26458333,1.8331845,1.8804315)" />
      <rect
         style="fill:url(#linearGradient1053);fill-opacity:1;stroke-width:0.726112;stroke-linecap:round"
         id="rect1045"
         width="14.552082"
         height="14.552082"
         x="3.0238099"
         y="3.0710571"
         ry="3.9687498" />
      <rect
         ry="2.2558064"
         y="5.0554314"
         x="5.0081844"
         height="10.583333"
         width="10.583333"
         id="rect3162"
         style="fill:url(#linearGradient3164);fill-opacity:1;stroke-width:0.528082;stroke-linecap:round" />
      <path
         d="m 11.763179,12.998842 q -0.594201,0.523267 -1.463331,0.523267 -0.8691294,0 -1.4633306,-0.523267 -0.5942013,-0.523266 -0.5942013,-1.294844 0,-0.505513 0.2749286,-0.886884 0.2749285,-0.390233 0.7183702,-0.611928 v -0.03547 Q 8.8897251,9.9479926 8.6680043,9.6109902 8.4462861,9.2651004 8.4462861,8.89262 q 0,-0.7360973 0.5232664,-1.2238831 0.5232665,-0.4966494 1.3302985,-0.4966494 0.807032,0 1.330299,0.4966494 0.523266,0.4877858 0.523266,1.2238831 0,0.3724804 -0.221718,0.7183702 Q 11.70998,9.94799 11.364087,10.169711 v 0.03547 q 0.443442,0.221718 0.71837,0.611928 0.274929,0.381344 0.274929,0.886884 0,0.771578 -0.594201,1.294844 z M 9.5637511,9.5666672 q 0.2926557,0.2571935 0.7360969,0.2571935 0.443442,0 0.727234,-0.2571935 0.292656,-0.266065 0.292656,-0.6917531 0,-0.4256881 -0.292656,-0.6740261 -0.283792,-0.2483246 -0.727234,-0.2483246 -0.4434412,0 -0.7360969,0.2483246 -0.283792,0.2483247 -0.283792,0.6740261 0,0.4256881 0.283792,0.6917531 z M 9.4307213,12.440042 q 0.3547533,0.301546 0.8691297,0.301546 0.514377,0 0.86913,-0.301546 0.354753,-0.301545 0.354753,-0.780441 0,-0.470033 -0.354753,-0.771578 -0.354753,-0.301546 -0.86913,-0.301546 -0.5143764,0 -0.8691297,0.301546 -0.3547533,0.301545 -0.3547533,0.771578 0,0.478922 0.3547533,0.780441 z"
         fill="#444d60"
         fill-opacity="0.99608"
         stroke-width="0.080944"
         id="path3172" />
    </g>
  </g>
</svg>
