<?xml version="1.0" encoding="UTF-8"?>
<svg width="64" height="64" version="1.1" viewBox="0 0 64 64" xmlns="http://www.w3.org/2000/svg">
 <defs>
  <filter id="filter1057-1" x="-.027" y="-.027" width="1.054" height="1.054" color-interpolation-filters="sRGB">
   <feGaussianBlur stdDeviation="0.61875"/>
  </filter>
  <linearGradient id="linearGradient1053-2" x1="-127" x2="-80.659" y1="60" y2="13.659" gradientTransform="translate(131.5 -.51)" gradientUnits="userSpaceOnUse">
   <stop stop-color="#ff7d1e" offset="0"/>
   <stop stop-color="#ffa53c" offset="1"/>
  </linearGradient>
 </defs>
 <rect x="4.5" y="4.5" width="55" height="55" ry="15" fill="#141414" filter="url(#filter1057-1)" opacity=".3" stroke-linecap="round" stroke-width="2.7444"/>
 <rect x="4.5" y="4.5" width="55" height="55" ry="15" fill="url(#linearGradient1053-2)" stroke-linecap="round" stroke-width="2.7444"/>
 <path d="m31.774 14.503c-0.22766-0.01858-0.49503 0.0375-0.78611 0.19456-7.9019 4.2636-12.519 11.962-12.449 17.095 0.1011 7.4658 5.8304 13.577 14.374 13.369-0.39275 1.9908-1.5727 2.6497-1.3988 3.5967 0.06881 0.37451 0.61682 1.0171 1.3593 0.6126 7.5838-4.1314 12.434-11.509 12.583-16.821 0.20424-7.2587-5.3183-14.144-14.41-13.682 0.21548-1.0046 0.72014-1.8956 1.3514-2.9367 0.39372-0.64941 0.05985-1.3718-0.62311-1.4276zm0.22611 12.112a5.3845 5.3845 0 0 1 5.3845 5.3845 5.3845 5.3845 0 0 1-5.3845 5.3845 5.3845 5.3845 0 0 1-5.3845-5.3845 5.3845 5.3845 0 0 1 5.3845-5.3845z" fill="#fff0e1" fill-rule="evenodd" stroke-width="1.3461"/>
</svg>
