<?xml version="1.0" encoding="UTF-8" standalone="no"?>
<svg
   xmlns:dc="http://purl.org/dc/elements/1.1/"
   xmlns:cc="http://creativecommons.org/ns#"
   xmlns:rdf="http://www.w3.org/1999/02/22-rdf-syntax-ns#"
   xmlns:svg="http://www.w3.org/2000/svg"
   xmlns="http://www.w3.org/2000/svg"
   xmlns:sodipodi="http://sodipodi.sourceforge.net/DTD/sodipodi-0.dtd"
   xmlns:inkscape="http://www.inkscape.org/namespaces/inkscape"
   width="64"
   height="64"
   viewBox="0 0 16.933333 16.933334"
   version="1.1"
   id="svg8"
   inkscape:version="1.0.2 (e86c870879, 2021-01-15)"
   sodipodi:docname="accessories-text-editor.svg">
  <defs
     id="defs2">
    <filter
       id="filter2076"
       x="-0.048"
       y="-0.048"
       width="1.096"
       height="1.096"
       color-interpolation-filters="sRGB">
      <feGaussianBlur
         stdDeviation="1.1"
         id="feGaussianBlur161" />
    </filter>
    <linearGradient
       id="linearGradient2070"
       x1="145"
       x2="200"
       y1="59"
       y2="4"
       gradientTransform="matrix(0.26458333,0,0,0.26458333,-33.450892,3.3356404)"
       gradientUnits="userSpaceOnUse">
      <stop
         stop-color="#ffc841"
         offset="0"
         id="stop154" />
      <stop
         stop-color="#ffbe37"
         offset=".4925"
         id="stop156" />
      <stop
         stop-color="#ffc841"
         offset="1"
         id="stop158" />
    </linearGradient>
    <filter
       id="filter1139"
       x="-0.2494"
       y="-0.18634"
       width="1.4988"
       height="1.3727"
       color-interpolation-filters="sRGB">
      <feGaussianBlur
         id="feGaussianBlur1141"
         stdDeviation="0.77642176" />
    </filter>
    <filter
       id="filter1143"
       x="-0.23972"
       y="-0.18634"
       width="1.4794"
       height="1.3727"
       color-interpolation-filters="sRGB">
      <feGaussianBlur
         id="feGaussianBlur1145"
         stdDeviation="0.77642176" />
    </filter>
    <filter
       id="filter1147"
       x="-0.22341999"
       y="-0.18634"
       width="1.4468"
       height="1.3727"
       color-interpolation-filters="sRGB">
      <feGaussianBlur
         id="feGaussianBlur1149"
         stdDeviation="0.77642176" />
    </filter>
    <filter
       id="filter2076-3"
       x="-0.048"
       y="-0.048"
       width="1.096"
       height="1.096"
       color-interpolation-filters="sRGB">
      <feGaussianBlur
         stdDeviation="1.1"
         id="feGaussianBlur1041" />
    </filter>
    <linearGradient
       id="linearGradient2070-6"
       x1="145"
       x2="200"
       y1="59"
       y2="4"
       gradientTransform="matrix(0.26458333,0,0,0.26458333,-35.104538,0.97328904)"
       gradientUnits="userSpaceOnUse">
      <stop
         stop-color="#ffc841"
         offset="0"
         id="stop1034" />
      <stop
         stop-color="#ffbe37"
         offset=".4925"
         id="stop1036" />
      <stop
         stop-color="#ffc841"
         offset="1"
         id="stop1038" />
    </linearGradient>
    <filter
       color-interpolation-filters="sRGB"
       height="1.168"
       width="1.168"
       y="-0.084016003"
       x="-0.084016003"
       id="filter1091">
      <feGaussianBlur
         id="feGaussianBlur22"
         stdDeviation="0.30215974" />
    </filter>
    <filter
       color-interpolation-filters="sRGB"
       height="1.168"
       width="1.168"
       y="-0.084016003"
       x="-0.084016003"
       id="filter1192">
      <feGaussianBlur
         id="feGaussianBlur1190"
         stdDeviation="0.30215974" />
    </filter>
    <linearGradient
       gradientUnits="userSpaceOnUse"
       y2="-13.703"
       y1="-5.5948"
       x2="16.465"
       x1="8.5858002"
       id="linearGradient1063"
       gradientTransform="matrix(1.0000197,0,0,1.0000197,-2.4007681,18.304341)">
      <stop
         id="stop12"
         offset="0"
         stop-color="#f5f5f5" />
      <stop
         id="stop14"
         offset="1"
         stop-color="#fff" />
    </linearGradient>
    <linearGradient
       gradientUnits="userSpaceOnUse"
       y2="-11.992"
       y1="-5.3551998"
       x2="15.926"
       x1="8.9222002"
       id="linearGradient1071"
       gradientTransform="matrix(1.0000197,0,0,1.0000197,-2.4007681,18.304341)">
      <stop
         id="stop17"
         offset="0"
         stop-color="#ffdc96" />
      <stop
         id="stop19"
         offset="1"
         stop-color="#fff" />
    </linearGradient>
  </defs>
  <sodipodi:namedview
     id="base"
     pagecolor="#ffffff"
     bordercolor="#666666"
     borderopacity="1.0"
     inkscape:pageopacity="0.0"
     inkscape:pageshadow="2"
     inkscape:zoom="5.6"
     inkscape:cx="25.200982"
     inkscape:cy="19.236416"
     inkscape:document-units="mm"
     inkscape:current-layer="layer1"
     inkscape:document-rotation="0"
     showgrid="false"
     units="px"
     inkscape:window-width="1920"
     inkscape:window-height="992"
     inkscape:window-x="0"
     inkscape:window-y="0"
     inkscape:window-maximized="1" />
  <metadata
     id="metadata5">
    <rdf:RDF>
      <cc:Work
         rdf:about="">
        <dc:format>image/svg+xml</dc:format>
        <dc:type
           rdf:resource="http://purl.org/dc/dcmitype/StillImage" />
        <dc:title></dc:title>
      </cc:Work>
    </rdf:RDF>
  </metadata>
  <g
     inkscape:label="图层 1"
     inkscape:groupmode="layer"
     id="layer1">
    <g
       id="g7475"
       transform="translate(-2.0694196,-0.84099698)">
      <rect
         transform="matrix(0.26458333,0,0,0.26458333,2.06942,0.84099741)"
         id="rect1050"
         opacity="0.3"
         filter="url(#filter2076)"
         ry="13.002"
         rx="13.002"
         height="55"
         width="55"
         y="4.5"
         x="4.5"
         style="filter:url(#filter2076-3)" />
      <rect
         id="rect1052"
         fill="url(#linearGradient2070)"
         ry="3.4401124"
         rx="3.4401124"
         height="14.552084"
         width="14.552084"
         y="2.0316224"
         x="3.2600451"
         style="fill:url(#linearGradient2070-6);stroke-width:0.264583" />
      <path
         id="path33"
         style="fill:#f08705;paint-order:normal"
         stroke-width="0.798867"
         opacity="0.6"
         d="m 4.7081434,7.7108487 c -0.00761,0.03965 -0.012317,0.081002 -0.019614,0.1216342 H 16.385185 c -0.0069,-0.040626 -0.01197,-0.082013 -0.02038,-0.1216342 z" />
      <path
         id="path35"
         style="fill:#f08705;paint-order:normal"
         stroke-width="0.784239"
         opacity="0.6"
         d="m 4.9001157,5.0684507 c 0.00678,0.040626 0.013231,0.081178 0.02076,0.1216342 H 16.154509 c 0.007,-0.043706 0.01301,-0.078494 0.01928,-0.1216342 z" />
      <path
         id="path37"
         style="fill:#f08705;paint-order:normal"
         stroke-width="0.798867"
         opacity="0.6"
         d="m 4.7081434,10.353247 c -0.00761,0.03965 -0.012317,0.081 -0.019614,0.121634 H 16.385185 c -0.0069,-0.04063 -0.01197,-0.08201 -0.02038,-0.121634 z" />
      <path
         id="path39"
         style="fill:#f08705;paint-order:normal"
         stroke-width="0.798867"
         opacity="0.6"
         d="m 4.7081434,12.995377 c -0.00761,0.03965 -0.012317,0.081 -0.019614,0.121634 H 16.385185 c -0.0069,-0.04063 -0.01197,-0.08201 -0.02038,-0.121634 z" />
      <path
         id="path43"
         d="m 8.8145,-5.537 c 0,0 -0.19283,-0.13005 -0.19283,-0.19731 0,-0.067264 0.5286,-1.9107 0.58567,-2.0122 0.057077,-0.10147 6.1025,-6.1025 6.1025,-6.1025 0,0 0.27603,-0.21726 0.44643,-0.08272 0.17041,0.13453 0.74406,0.74406 0.74406,0.74406 z"
         style="opacity:0.5;fill:#f08705;filter:url(#filter1091)"
         transform="matrix(0.98856947,0,0,0.95109874,-2.1808637,18.065337)" />
      <path
         id="path45"
         d="m 8.8145,-5.537 c 0,0 0.13005,0.19283 0.19731,0.19283 0.067264,0 1.9107,-0.5286 2.0122,-0.58567 0.10147,-0.057077 6.1025,-6.1025 6.1025,-6.1025 0,0 0.21725,-0.27603 0.08272,-0.44643 -0.13453,-0.17041 -0.74406,-0.74406 -0.74406,-0.74406 z"
         style="opacity:0.5;fill:#f08705;filter:url(#filter1091)"
         transform="matrix(0.98856947,0,0,0.95109874,-2.1808637,18.065337)" />
      <path
         id="path49"
         fill="url(#linearGradient1063)"
         d="m 6.4139056,12.767232 c 0,0 -0.1928338,-0.130052 -0.1928338,-0.197314 0,-0.06726 0.5286104,-1.910737 0.5856815,-2.012239 0.057078,-0.101472 6.1026207,-6.1026204 6.1026207,-6.1026204 0,0 0.276035,-0.2172643 0.446438,-0.082722 0.170414,0.1345326 0.744075,0.7440746 0.744075,0.7440746 z"
         style="fill:url(#linearGradient1063);stroke-width:1.00002" />
      <path
         id="path51"
         fill="url(#linearGradient1071)"
         d="m 6.4139056,12.767232 c 0,0 0.1300525,0.192834 0.1973139,0.192834 0.067265,0 1.9107376,-0.52861 2.0122396,-0.585681 0.101472,-0.05708 6.1026199,-6.1026206 6.1026199,-6.1026206 0,0 0.217255,-0.2760354 0.08272,-0.4464388 C 14.674268,5.6549122 14.064726,5.0812509 14.064726,5.0812509 Z"
         style="fill:url(#linearGradient1071);stroke-width:1.00002" />
    </g>
  </g>
</svg>
