<?xml version="1.0" encoding="UTF-8" standalone="no"?>
<svg
   xmlns:dc="http://purl.org/dc/elements/1.1/"
   xmlns:cc="http://creativecommons.org/ns#"
   xmlns:rdf="http://www.w3.org/1999/02/22-rdf-syntax-ns#"
   xmlns:svg="http://www.w3.org/2000/svg"
   xmlns="http://www.w3.org/2000/svg"
   xmlns:xlink="http://www.w3.org/1999/xlink"
   xmlns:sodipodi="http://sodipodi.sourceforge.net/DTD/sodipodi-0.dtd"
   xmlns:inkscape="http://www.inkscape.org/namespaces/inkscape"
   width="64"
   height="64"
   version="1.1"
   viewBox="0 0 16.933 16.933"
   id="svg24"
   sodipodi:docname="accessories-character-map.svg"
   inkscape:version="1.0.1 (3bc2e813f5, 2020-09-07)">
  <sodipodi:namedview
     pagecolor="#ffffff"
     bordercolor="#666666"
     borderopacity="1"
     objecttolerance="10"
     gridtolerance="10"
     guidetolerance="10"
     inkscape:pageopacity="0"
     inkscape:pageshadow="2"
     inkscape:window-width="1920"
     inkscape:window-height="1004"
     id="namedview26"
     showgrid="false"
     inkscape:zoom="6.4921875"
     inkscape:cx="-9.7389699"
     inkscape:cy="21.638501"
     inkscape:window-x="0"
     inkscape:window-y="0"
     inkscape:window-maximized="1"
     inkscape:current-layer="svg24" />
  <metadata
     id="metadata2">
    <rdf:RDF>
      <cc:Work
         rdf:about="">
        <dc:format>image/svg+xml</dc:format>
        <dc:type
           rdf:resource="http://purl.org/dc/dcmitype/StillImage" />
        <dc:title></dc:title>
      </cc:Work>
    </rdf:RDF>
  </metadata>
  <defs
     id="defs12">
    <filter
       id="filter2761-3"
       x="-.024"
       y="-.024"
       width="1.048"
       height="1.048"
       color-interpolation-filters="sRGB">
      <feGaussianBlur
         stdDeviation="0.14552168"
         id="feGaussianBlur4" />
    </filter>
    <linearGradient
       id="linearGradient1024"
       x1="1.3315"
       x2="15.65"
       y1="15.576"
       y2="1.17"
       gradientTransform="translate(-.00084984 .14045)"
       gradientUnits="userSpaceOnUse">
      <stop
         stop-color="#dddfe1"
         offset="0"
         id="stop7" />
      <stop
         stop-color="#f3f4f6"
         stop-opacity=".99608"
         offset="1"
         id="stop9" />
    </linearGradient>
    <filter
       color-interpolation-filters="sRGB"
       height="1.048"
       width="1.048"
       y="-.024"
       x="-.024"
       id="filter2761-3-3">
      <feGaussianBlur
         id="feGaussianBlur2"
         stdDeviation="0.14552168" />
    </filter>
    <linearGradient
       gradientUnits="userSpaceOnUse"
       gradientTransform="matrix(3.7796 0 0 3.7796 -.0026448 .53066)"
       y2="1.17"
       y1="15.576"
       x2="15.65"
       x1="1.3315"
       id="linearGradient1024-6">
      <stop
         id="stop5"
         offset="0"
         stop-color="#dddfe1" />
      <stop
         id="stop7-7"
         offset="1"
         stop-opacity=".99608"
         stop-color="#f3f4f6" />
    </linearGradient>
    <filter
       inkscape:collect="always"
       style="color-interpolation-filters:sRGB"
       id="filter1057"
       x="-0.027000001"
       width="1.054"
       y="-0.027000001"
       height="1.054">
      <feGaussianBlur
         inkscape:collect="always"
         stdDeviation="0.61875"
         id="feGaussianBlur1059" />
    </filter>
    <linearGradient
       inkscape:collect="always"
       xlink:href="#linearGradient1051"
       id="linearGradient1053"
       x1="-127"
       y1="60"
       x2="-72"
       y2="5"
       gradientUnits="userSpaceOnUse"
       gradientTransform="matrix(0.26457812,0,0,0.26457812,34.792023,-0.13493401)" />
    <linearGradient
       inkscape:collect="always"
       id="linearGradient1051">
      <stop
         style="stop-color:#dee0e2;stop-opacity:1"
         offset="0"
         id="stop1047" />
      <stop
         style="stop-color:#f1f3f5;stop-opacity:0.99607843"
         offset="1"
         id="stop1049" />
    </linearGradient>
  </defs>
  <rect
     ry="15"
     y="4.4999995"
     x="4.4999995"
     height="55"
     width="55"
     id="rect1055"
     style="opacity:0.3;fill:#141414;fill-opacity:1;stroke-width:2.74436;stroke-linecap:round;filter:url(#filter1057)"
     transform="scale(0.26457812)" />
  <rect
     style="fill:url(#linearGradient1053);fill-opacity:1;stroke-width:0.726098;stroke-linecap:round"
     id="rect1045"
     width="14.551796"
     height="14.551796"
     x="1.1906021"
     y="1.1906021"
     ry="3.9686716" />
  <g
     transform="translate(.055655 -.043818)"
     fill="#333"
     stroke-width=".65762"
     id="g22">
    <path
       d="m8.4108 6.7924c0.94727 0 1.7179 0.77067 1.7179 1.7179 0 0.1367 0.11087 0.24757 0.24757 0.24757 0.1367 0 0.24756-0.11087 0.24756-0.24757 0-1.2203-0.99278-2.213-2.213-2.213-1.2203 0-2.2131 0.99278-2.2131 2.213 0 1.2203 0.99278 2.213 2.213 2.213 0.78355 0 1.5161-0.42066 1.9119-1.0978 0.06899-0.11805 0.02921-0.26964-0.08883-0.33867-0.11801-0.068906-0.26964-0.029172-0.33867 0.088835-0.30731 0.52587-0.87609 0.85253-1.4844 0.85253-0.94727 0-1.7179-0.77067-1.7179-1.7179 0-0.94723 0.77071-1.7179 1.718-1.7179z"
       id="path18" />
    <path
       d="m12.648 8.1825c-0.15514-2.0655-1.8289-3.7458-3.8933-3.9085-1.2479-0.098407-2.4686 0.35035-3.3494 1.2312-0.88084 0.88084-1.3296 2.1016-1.2312 3.3494 0.1622 2.0567 1.8354 3.7299 3.8921 3.8921 0.11334 9e-3 0.22628 0.01333 0.33892 0.01333 1.1276 0 2.2096-0.44368 3.0105-1.2445 0.09667-0.09672 0.09667-0.25347 0-0.3501-0.09667-0.09663-0.25342-0.09672-0.3501-4.1e-5 -0.77826 0.77822-1.8572 1.1747-2.9603 1.0877-1.8164-0.14322-3.2942-1.621-3.4375-3.4375-0.086978-1.1031 0.30946-2.1822 1.0877-2.9604 0.77822-0.77822 1.8571-1.1748 2.9604-1.0877 1.8233 0.14371 3.3015 1.6278 3.4386 3.452 0.01877 0.24992 0.01324 0.50099-0.01638 0.74625-0.03144 0.26011-0.18889 0.48709-0.42119 0.60707-0.21022 0.10864-0.4464 0.10823-0.64804-0.00107-0.12019-0.065275-0.27051-0.020589-0.33562 0.099645-0.06519 0.12019-0.02059 0.27047 0.09965 0.33562 0.34804 0.18869 0.75305 0.19075 1.1113 0.0057 0.37812-0.19533 0.63439-0.56453 0.68547-0.98758 0.0335-0.27723 0.03973-0.56074 0.01857-0.84271z"
       id="path20" />
  </g>
</svg>
