<?xml version="1.0" encoding="UTF-8" standalone="no"?>
<svg
   xmlns:dc="http://purl.org/dc/elements/1.1/"
   xmlns:cc="http://creativecommons.org/ns#"
   xmlns:rdf="http://www.w3.org/1999/02/22-rdf-syntax-ns#"
   xmlns:svg="http://www.w3.org/2000/svg"
   xmlns="http://www.w3.org/2000/svg"
   xmlns:xlink="http://www.w3.org/1999/xlink"
   xmlns:sodipodi="http://sodipodi.sourceforge.net/DTD/sodipodi-0.dtd"
   xmlns:inkscape="http://www.inkscape.org/namespaces/inkscape"
   inkscape:version="1.0 (4035a4fb49, 2020-05-01)"
   sodipodi:docname="accessories-system-cleaner.svg"
   id="svg26"
   viewBox="0 0 16.933 16.933"
   version="1.1"
   height="64"
   width="64">
  <sodipodi:namedview
     inkscape:current-layer="svg26"
     inkscape:window-maximized="1"
     inkscape:window-y="0"
     inkscape:window-x="0"
     inkscape:cy="36.135573"
     inkscape:cx="-5.8568143"
     inkscape:zoom="3.2460938"
     showgrid="false"
     id="namedview28"
     inkscape:window-height="1000"
     inkscape:window-width="1920"
     inkscape:pageshadow="2"
     inkscape:pageopacity="0"
     guidetolerance="10"
     gridtolerance="10"
     objecttolerance="10"
     borderopacity="1"
     bordercolor="#666666"
     pagecolor="#ffffff" />
  <metadata
     id="metadata2">
    <rdf:RDF>
      <cc:Work
         rdf:about="">
        <dc:format>image/svg+xml</dc:format>
        <dc:type
           rdf:resource="http://purl.org/dc/dcmitype/StillImage" />
        <dc:title></dc:title>
      </cc:Work>
    </rdf:RDF>
  </metadata>
  <defs
     id="defs12">
    <filter
       color-interpolation-filters="sRGB"
       height="1.048"
       width="1.048"
       y="-.024"
       x="-.024"
       id="filter2761">
      <feGaussianBlur
         id="feGaussianBlur4"
         stdDeviation="0.14552168" />
    </filter>
    <linearGradient
       gradientUnits="userSpaceOnUse"
       gradientTransform="translate(0.13736735,-1.9848504)"
       y2="1.1082"
       y1="15.429"
       x2="15.644"
       x1="1.2573"
       id="linearGradient4673">
      <stop
         id="stop7"
         offset="0"
         stop-color="#32dcff" />
      <stop
         id="stop9"
         offset="1"
         stop-color="#3296ff" />
    </linearGradient>
    <style
       id="style4"
       type="text/css" />
    <filter
       color-interpolation-filters="sRGB"
       height="1.048"
       width="1.048"
       y="-.024"
       x="-.024"
       id="filter2761-6">
      <feGaussianBlur
         id="feGaussianBlur6"
         stdDeviation="0.14552168" />
    </filter>
    <linearGradient
       gradientUnits="userSpaceOnUse"
       gradientTransform="translate(28.455535,0.14036)"
       y2="1.17"
       y1="15.576"
       x2="15.65"
       x1="1.3315"
       id="linearGradient1024">
      <stop
         id="stop9-7"
         offset="0"
         stop-color="#00c8ff" />
      <stop
         id="stop11"
         offset="1"
         stop-color="#14a0ff" />
    </linearGradient>
    <style
       id="style4-7"
       type="text/css" />
    <filter
       color-interpolation-filters="sRGB"
       height="1.048"
       width="1.048"
       y="-.024"
       x="-.024"
       id="filter2761-5">
      <feGaussianBlur
         id="feGaussianBlur6-3"
         stdDeviation="0.14552168" />
    </filter>
    <linearGradient
       gradientUnits="userSpaceOnUse"
       gradientTransform="matrix(3.7796,0,0,3.7796,110.07575,0.53066)"
       y2="1.1082"
       y1="15.429"
       x2="15.644"
       x1="1.2573"
       id="linearGradient4673-5">
      <stop
         id="stop9-5"
         offset="0"
         stop-color="#32dcff" />
      <stop
         id="stop11-62"
         offset="1"
         stop-color="#3296ff" />
    </linearGradient>
    <linearGradient
       gradientUnits="userSpaceOnUse"
       gradientTransform="matrix(1.0000066,0,0,1.0000066,19.187825,0)"
       y2="1.0583"
       y1="6.879"
       x2="7.9373"
       x1="7.9373"
       id="linearGradient865">
      <stop
         id="stop2"
         offset="0"
         stop-color="#fff" />
      <stop
         id="stop4"
         offset="1"
         stop-color="#fcc" />
    </linearGradient>
    <linearGradient
       gradientTransform="translate(19.187825)"
       gradientUnits="userSpaceOnUse"
       y2="3.9327"
       y1="14.579"
       x2="12.314"
       x1="2.6278"
       id="linearGradient855">
      <stop
         id="stop7-3"
         offset="0"
         stop-color="#d462aa" />
      <stop
         id="stop9-3"
         offset=".15178"
         stop-color="#56c7d9" />
      <stop
         id="stop11-6"
         offset=".33294"
         stop-color="#2da8b8" />
      <stop
         id="stop13"
         offset=".53353"
         stop-color="#72cb6b" />
      <stop
         id="stop15"
         offset=".71019"
         stop-color="#c4dc2b" />
      <stop
         id="stop17"
         offset=".8623"
         stop-color="#f9da3e" />
      <stop
         id="stop19"
         offset="1"
         stop-color="#f69429" />
    </linearGradient>
    <linearGradient
       gradientUnits="userSpaceOnUse"
       gradientTransform="matrix(0.26458,0,0,0.26458,19.187825,0)"
       y2="6.9915"
       y1="19"
       x2="57.008"
       x1="45"
       id="linearGradient910">
      <stop
         id="stop22"
         offset="0"
         stop-color="#fff" />
      <stop
         id="stop24"
         offset="1"
         stop-color="#ffe3cc" />
    </linearGradient>
    <filter
       inkscape:collect="always"
       style="color-interpolation-filters:sRGB"
       id="filter1057"
       x="-0.027000001"
       width="1.054"
       y="-0.027000001"
       height="1.054">
      <feGaussianBlur
         inkscape:collect="always"
         stdDeviation="0.61875"
         id="feGaussianBlur1059" />
    </filter>
    <linearGradient
       inkscape:collect="always"
       xlink:href="#linearGradient1051"
       id="linearGradient1053"
       x1="-127"
       y1="60"
       x2="-72"
       y2="5"
       gradientUnits="userSpaceOnUse"
       gradientTransform="matrix(0.26457812,0,0,0.26457812,34.792024,-0.13493468)" />
    <linearGradient
       inkscape:collect="always"
       id="linearGradient1051">
      <stop
         style="stop-color:#32d7ff;stop-opacity:1"
         offset="0"
         id="stop1047" />
      <stop
         style="stop-color:#329bff;stop-opacity:1"
         offset="1"
         id="stop1049" />
    </linearGradient>
    <style
       type="text/css"
       id="style872" />
    <filter
       id="filter2761-7"
       x="-.024"
       y="-.024"
       width="1.048"
       height="1.048"
       color-interpolation-filters="sRGB">
      <feGaussianBlur
         stdDeviation="0.14552168"
         id="feGaussianBlur874" />
    </filter>
    <style
       id="style4-5"
       type="text/css" />
    <style
       id="style6"
       type="text/css" />
    <style
       id="style8"
       type="text/css" />
    <filter
       color-interpolation-filters="sRGB"
       height="1.048"
       width="1.048"
       y="-.024"
       x="-.024"
       id="filter2761-36">
      <feGaussianBlur
         id="feGaussianBlur10"
         stdDeviation="0.14552168" />
    </filter>
    <linearGradient
       gradientUnits="userSpaceOnUse"
       gradientTransform="matrix(3.7796,0,0,3.7796,111.78704,0.53107)"
       y2="1.17"
       y1="15.576"
       x2="15.65"
       x1="1.3315"
       id="linearGradient1024-6">
      <stop
         id="stop13-7"
         offset="0"
         stop-color="#00dc96" />
      <stop
         id="stop15-5"
         offset="1"
         stop-color="#14d29b" />
    </linearGradient>
    <linearGradient
       gradientUnits="userSpaceOnUse"
       gradientTransform="matrix(0.27476,0,0,0.27476,-24.952118,-0.32515)"
       y2="12.461"
       y1="57.955"
       x2="45.628"
       x1="45.628"
       id="b">
      <stop
         id="stop2-3"
         offset="0" />
      <stop
         id="stop4-5"
         offset="1"
         stop-opacity="0" />
    </linearGradient>
    <style
       type="text/css"
       id="style872-0" />
    <style
       type="text/css"
       id="style874" />
    <style
       type="text/css"
       id="style876" />
    <filter
       id="filter2761-3"
       x="-.024"
       y="-.024"
       width="1.048"
       height="1.048"
       color-interpolation-filters="sRGB">
      <feGaussianBlur
         stdDeviation="0.14552168"
         id="feGaussianBlur878" />
    </filter>
    <linearGradient
       id="linearGradient1024-6-6"
       x1="1.3315"
       x2="15.65"
       y1="15.576"
       y2="1.17"
       gradientTransform="matrix(3.7796,0,0,3.7796,-0.0020773,0.53047)"
       gradientUnits="userSpaceOnUse">
      <stop
         stop-color="#00dc96"
         offset="0"
         id="stop881" />
      <stop
         stop-color="#14d29b"
         offset="1"
         id="stop883" />
    </linearGradient>
  </defs>
  <rect
     ry="15"
     y="4.4999995"
     x="4.4999995"
     height="55"
     width="55"
     id="rect1055"
     style="opacity:0.3;fill:#141414;fill-opacity:1;stroke-width:2.74436;stroke-linecap:round;filter:url(#filter1057)"
     transform="scale(0.26457812)" />
  <rect
     style="fill:url(#linearGradient1053);fill-opacity:1;stroke-width:0.726098;stroke-linecap:round"
     id="rect1045"
     width="14.551796"
     height="14.551796"
     x="1.1906021"
     y="1.1906021"
     ry="3.9686716" />
  <g
     id="g24"
     stroke-width="1.317"
     fill="#fff"
     transform="translate(-.00025403 -280.07)">
    <path
       id="path18"
       d="m11.302 285.35c-0.56-0.323-1.333-0.337-2.016-0.035-0.631 0.279-1.087 0.894-1.356 1.356a0.27 0.27 0 0 0-0.24 0.466 2.69 2.69 0 0 0-0.045 0.105l-1.308 2.872a0.27 0.27 0 0 0-0.232 0.487l9e-3 4e-3 -0.294 0.647h-0.731a0.27 0.27 0 0 0 0 0.54h1.35a0.27 0.27 0 0 0 0-0.54h-0.026l0.187-0.412a0.27 0.27 0 0 0 0.075 0.012 0.269 0.269 0 0 0 0.146-0.496l1.354-2.975a0.26924 0.26924 0 0 0 0.246-0.479c0.23-0.389 0.6-0.88 1.084-1.093 0.52-0.23 1.12-0.227 1.527 9e-3 0.3 0.173 0.473 0.448 0.513 0.819 0.075 0.693 0.011 1.158-0.19 1.382a0.496 0.496 0 0 1-0.059 0.055v0.604c0.166-0.056 0.326-0.148 0.461-0.299 0.312-0.347 0.418-0.936 0.325-1.8-0.058-0.536-0.335-0.972-0.78-1.229z" />
    <path
       id="path20"
       d="m10.534 289.9c0.176 0 0.342 0.04 0.492 0.11v-2.134c0-0.149 0.014-0.135-0.135-0.135h-0.528c-0.15 0-1.653 0.124-2.05 2.088l-0.256 1.623c0 0.15 0.121 0.337 0.27 0.337h1.281a1.165 1.165 0 0 1-0.247-0.716c0-0.647 0.526-1.173 1.173-1.173z" />
    <path
       id="path22"
       d="m11.161 290.42a0.915 0.915 0 0 0-0.627-0.255 0.9 0.9 0 1 0-0.295 1.754 0.896 0.896 0 0 0 1.042-0.347 0.898 0.898 0 0 0-0.12-1.152z" />
  </g>
  <g
     transform="translate(-26.794075,-8.4664998)"
     fill="#5e4aa6"
     id="g36">
    <g
       transform="scale(0.26458)"
       image-rendering="optimizeSpeed"
       id="g22">
      <circle
         cx="-1160"
         cy="-1257.6"
         r="0"
         id="circle16" />
      <circle
         cx="-1160"
         cy="-1257.6"
         r="0"
         id="circle18" />
      <circle
         cx="-1244.2"
         cy="-1289.6"
         r="0"
         id="circle20" />
    </g>
    <circle
       cx="-297.60001"
       cy="-338.47"
       r="0"
       image-rendering="optimizeSpeed"
       stroke-width="0.26458"
       id="circle24" />
    <g
       transform="translate(32.763,-10.103)"
       image-rendering="optimizeSpeed"
       stroke-width="0.26458"
       id="g34">
      <circle
         cx="-299.01999"
         cy="-338.76999"
         r="0"
         id="circle26" />
      <circle
         cx="-8.1062002"
         cy="-3.9487"
         r="0"
         fill-rule="evenodd"
         id="circle28" />
      <circle
         cx="-278.25"
         cy="-357.69"
         r="0"
         id="circle30" />
      <circle
         cx="12.663"
         cy="-22.858999"
         r="0"
         fill-rule="evenodd"
         id="circle32" />
    </g>
  </g>
  <g
     transform="translate(-57.932075,-19.6595)"
     fill="#5e4aa6"
     image-rendering="optimizeSpeed"
     stroke-width="0.26458"
     id="g56">
    <circle
       cx="-347.64001"
       cy="-328.38"
       r="0"
       id="circle42" />
    <circle
       cx="-56.726002"
       cy="6.4400001"
       r="0"
       fill-rule="evenodd"
       id="circle44" />
    <g
       transform="translate(-0.0272,0.0065001)"
       id="g54">
      <circle
         cx="-330.35001"
         cy="-328.38"
         r="0"
         id="circle46" />
      <circle
         cx="-312.10999"
         cy="-326.25"
         r="0"
         id="circle48" />
      <circle
         cx="-306.01999"
         cy="-333.07001"
         r="0"
         id="circle50" />
      <circle
         cx="-308.84"
         cy="-326.01001"
         r="0"
         id="circle52" />
    </g>
  </g>
  <circle
     id="circle16-9"
     fill="#5e4aa6"
     r="0"
     cy="-346.94128"
     cx="-324.39154"
     style="stroke-width:0.264578" />
  <g
     id="g26"
     stroke-width="0.26458"
     fill="#5e4aa6"
     transform="translate(5.968634,-18.569151)">
    <circle
       id="circle18-1"
       r="0"
       cy="-338.76999"
       cx="-299.01999" />
    <circle
       id="circle20-2"
       fill-rule="evenodd"
       r="0"
       cy="-3.9487"
       cx="-8.1062002" />
    <circle
       id="circle22"
       r="0"
       cy="-357.69"
       cx="-278.25" />
    <circle
       id="circle24-7"
       fill-rule="evenodd"
       r="0"
       cy="-22.858999"
       cx="12.663" />
  </g>
</svg>
