<?xml version="1.0" encoding="UTF-8"?>
<svg width="64px" height="64px" version="1.1" viewBox="0 0 64 64" xmlns="http://www.w3.org/2000/svg" xmlns:cc="http://creativecommons.org/ns#" xmlns:dc="http://purl.org/dc/elements/1.1/" xmlns:rdf="http://www.w3.org/1999/02/22-rdf-syntax-ns#" xmlns:xlink="http://www.w3.org/1999/xlink">
 <metadata>
  <rdf:RDF>
   <cc:Work rdf:about="">
    <dc:format>image/svg+xml</dc:format>
    <dc:type rdf:resource="http://purl.org/dc/dcmitype/StillImage"/>
    <dc:title/>
   </cc:Work>
  </rdf:RDF>
 </metadata>
 <defs>
  <style type="text/css"/>
  <filter id="filter1057" x="-.027" y="-.027" width="1.054" height="1.054" color-interpolation-filters="sRGB">
   <feGaussianBlur stdDeviation="0.61875"/>
  </filter>
  <linearGradient id="linearGradient1053" x1="-127" x2="-72" y1="60" y2="5" gradientTransform="translate(131.5 -.51)" gradientUnits="userSpaceOnUse">
   <stop stop-color="#32d7ff" offset="0"/>
   <stop stop-color="#329bff" offset="1"/>
  </linearGradient>
  <style type="text/css"/>
  <style type="text/css"/>
  <style type="text/css"/>
  <style type="text/css"/>
  <style type="text/css"/>
  <style type="text/css"/>
  <style type="text/css"/>
 </defs>
 <circle cx="-1124.8" cy="-1279.3" r="0" fill="#5e4aa6"/>
 <g transform="matrix(3.7796,0,0,3.7796,123.83,-38.184)" fill="#5e4aa6" stroke-width=".26458">
  <circle cx="-299.02" cy="-338.77" r="0"/>
  <circle cx="-8.1062" cy="-3.9487" r="0" fill-rule="evenodd"/>
  <circle cx="-278.25" cy="-357.69" r="0"/>
  <circle cx="12.663" cy="-22.859" r="0" fill-rule="evenodd"/>
 </g>
 <g>
  <rect x="4.5" y="4.5" width="55" height="55" ry="15" fill="#141414" filter="url(#filter1057)" opacity=".3" stroke-linecap="round" stroke-width="2.7444"/>
  <rect x="4.5" y="4.5" width="55" height="55" ry="15" fill="url(#linearGradient1053)" stroke-linecap="round" stroke-width="2.7444"/>
  <g>
   <path d="m16.092 28.818h31.815c0.87841 0 1.5924 0.714 1.5924 1.5924v3.1801c0 0.87841-0.714 1.5924-1.5924 1.5924h-31.815c-0.87841 0-1.5924-0.714-1.5924-1.5924v-3.1801c0-0.87841 0.714-1.5924 1.5924-1.5924z" fill="#98d8ff"/>
   <path d="m17.682 19.273c0.87841 0 1.5901 0.714 1.5901 1.5924v22.27c0 0.87841-0.71165 1.5924-1.5901 1.5924s-1.5901-0.714-1.5901-1.5924v-22.27c0-0.87841 0.71165-1.5924 1.5901-1.5924z" fill="#fff"/>
   <path d="m22.173 14.5h0.56368c1.6018 0 2.9006 1.4256 2.9006 3.1825v28.635c0 1.7568-1.2988 3.1825-2.9006 3.1825h-0.56368c-1.6018 0-2.9006-1.4256-2.9006-3.1825v-28.635c0-1.7568 1.2988-3.1825 2.9006-3.1825z" fill="#bae4ff"/>
   <path d="m41.263 14.5h0.56368c1.6018 0 2.9006 1.4256 2.9006 3.1825v28.635c0 1.7568-1.2988 3.1825-2.9006 3.1825h-0.56368c-1.6018 0-2.9006-1.4256-2.9006-3.1825v-28.635c0-1.7568 1.2988-3.1825 2.9006-3.1825z" fill="#bae4ff"/>
   <path d="m46.318 19.273c0.87841 0 1.5901 0.714 1.5901 1.5924v22.27c0 0.87841-0.71165 1.5924-1.5901 1.5924s-1.5901-0.714-1.5901-1.5924v-22.27c0-0.87841 0.71165-1.5924 1.5901-1.5924z" fill="#fff"/>
  </g>
 </g>
</svg>
