<?xml version="1.0" encoding="UTF-8"?>
<svg width="64" height="64" version="1.1" viewBox="0 0 16.933 16.933" xmlns="http://www.w3.org/2000/svg" xmlns:cc="http://creativecommons.org/ns#" xmlns:dc="http://purl.org/dc/elements/1.1/" xmlns:rdf="http://www.w3.org/1999/02/22-rdf-syntax-ns#" xmlns:xlink="http://www.w3.org/1999/xlink">
 <defs>
  <filter id="filter1057" x="-.027" y="-.027" width="1.054" height="1.054" color-interpolation-filters="sRGB">
   <feGaussianBlur stdDeviation="0.61875"/>
  </filter>
  <linearGradient id="linearGradient1053" x1="-127" x2="-72" y1="60" y2="5" gradientTransform="matrix(.26458 0 0 .26458 33.082 -.7586)" gradientUnits="userSpaceOnUse">
   <stop stop-color="#c337c3" offset="0"/>
   <stop stop-color="#f5378c" offset="1"/>
  </linearGradient>
  <filter id="filter2174" x="-.15989" y="-.094877" width="1.3198" height="1.1898" color-interpolation-filters="sRGB">
   <feGaussianBlur stdDeviation="0.25608494"/>
  </filter>
 </defs>
 <metadata>
  <rdf:RDF>
   <cc:Work rdf:about="">
    <dc:format>image/svg+xml</dc:format>
    <dc:type rdf:resource="http://purl.org/dc/dcmitype/StillImage"/>
    <dc:title/>
   </cc:Work>
  </rdf:RDF>
 </metadata>
 <g transform="translate(1.7103 .62366)">
  <rect transform="matrix(.26458 0 0 .26458 -1.7103 -.62366)" x="4.5" y="4.5" width="55" height="55" ry="15" fill="#141414" filter="url(#filter1057)" opacity=".3" stroke-linecap="round" stroke-width="2.7444"/>
  <rect x="-.51972" y=".56696" width="14.552" height="14.552" ry="3.9687" fill="url(#linearGradient1053)" stroke-linecap="round" stroke-width=".72611"/>
  <circle cx="5.7874" cy="9.7253" r="2.0073" fill="none" stroke="#fff" stroke-dashoffset=".42096" stroke-width="1.4287"/>
  <path transform="matrix(.92515 0 0 .92029 -1.6293 .35055)" d="m9.3776 3.1823v6.4778h1.4265v-4.1276s0.45602 0.22216 0.54956 0.24555c0.09354 0.023386 1.9176 0.72495 0.99389 2.7595l0.04099 0.023665s1.4708-1.8189 0.50345-3.208c-0.96736-1.389-1.7125-1.1671-3.5144-2.171z" fill="#f5378c" filter="url(#filter2174)"/>
  <path d="m7.0818 3.3129v6.4779h1.4265v-4.1277s0.45603 0.22216 0.54957 0.24555c0.093542 0.023386 1.9176 0.72496 0.99391 2.7596l0.04099 0.023664s1.4708-1.8189 0.50346-3.2081c-0.96738-1.389-1.7125-1.1671-3.5145-2.171z" fill="#fff"/>
 </g>
</svg>
