<?xml version="1.0" encoding="UTF-8" standalone="no"?>
<svg
   xmlns:dc="http://purl.org/dc/elements/1.1/"
   xmlns:cc="http://creativecommons.org/ns#"
   xmlns:rdf="http://www.w3.org/1999/02/22-rdf-syntax-ns#"
   xmlns:svg="http://www.w3.org/2000/svg"
   xmlns="http://www.w3.org/2000/svg"
   xmlns:sodipodi="http://sodipodi.sourceforge.net/DTD/sodipodi-0.dtd"
   xmlns:inkscape="http://www.inkscape.org/namespaces/inkscape"
   width="64"
   height="64"
   version="1.1"
   id="svg22"
   sodipodi:docname="acreloaded.svg"
   inkscape:version="1.0.2 (e86c870879, 2021-01-15)">
  <metadata
     id="metadata28">
    <rdf:RDF>
      <cc:Work
         rdf:about="">
        <dc:format>image/svg+xml</dc:format>
        <dc:type
           rdf:resource="http://purl.org/dc/dcmitype/StillImage" />
        <dc:title></dc:title>
      </cc:Work>
    </rdf:RDF>
  </metadata>
  <defs
     id="defs26">
    <linearGradient
       id="b-3"
       x1="399.57"
       x2="399.57"
       y1="545.8"
       y2="517.8"
       gradientTransform="matrix(2.1429,0,0,2.1429,-963.59,-1143.3)"
       gradientUnits="userSpaceOnUse">
      <stop
         stop-color="#3889e9"
         offset="0"
         id="stop855" />
      <stop
         stop-color="#5ea5fb"
         offset="1"
         id="stop857" />
    </linearGradient>
    <style
       type="text/css"
       id="style860" />
    <linearGradient
       id="linearGradient927"
       x1="39.034"
       x2="-7.7455"
       y1="24.542"
       y2="71.322"
       gradientTransform="matrix(2.0044,0,0,2.0044,123.77,261.85)"
       gradientUnits="userSpaceOnUse">
      <stop
         stop-color="#ffbe14"
         offset="0"
         id="stop862" />
      <stop
         stop-color="#ff8214"
         offset="1"
         id="stop864" />
    </linearGradient>
    <style
       type="text/css"
       id="style867" />
    <style
       type="text/css"
       id="style869" />
    <filter
       id="filter1057"
       x="-.027"
       y="-.027"
       width="1.054"
       height="1.054"
       color-interpolation-filters="sRGB">
      <feGaussianBlur
         stdDeviation="0.61875"
         id="feGaussianBlur871" />
    </filter>
    <linearGradient
       id="linearGradient1053"
       x1="-127"
       x2="-72"
       y1="60"
       y2="5"
       gradientTransform="translate(131.5,-0.51)"
       gradientUnits="userSpaceOnUse">
      <stop
         stop-color="#df2a2a"
         offset="0"
         id="stop874" />
      <stop
         stop-color="#f83f3f"
         offset="1"
         id="stop876" />
    </linearGradient>
    <filter
       id="filter943"
       x="-.062502"
       y="-.057691"
       width="1.125"
       height="1.1154"
       color-interpolation-filters="sRGB">
      <feGaussianBlur
         stdDeviation="0.3307375"
         id="feGaussianBlur1023" />
    </filter>
    <style
       type="text/css"
       id="style1026" />
    <filter
       id="filter1057-3"
       x="-.027"
       y="-.027"
       width="1.054"
       height="1.054"
       color-interpolation-filters="sRGB">
      <feGaussianBlur
         stdDeviation="0.61875"
         id="feGaussianBlur1028" />
    </filter>
    <linearGradient
       id="linearGradient1053-6"
       x1="-127"
       x2="-72"
       y1="60"
       y2="5"
       gradientTransform="matrix(.26458 0 0 .26458 34.792 -.13493)"
       gradientUnits="userSpaceOnUse">
      <stop
         stop-color="#32d7ff"
         offset="0"
         id="stop1031" />
      <stop
         stop-color="#329bff"
         offset="1"
         id="stop1033" />
    </linearGradient>
    <style
       type="text/css"
       id="style1036" />
    <style
       type="text/css"
       id="style1038" />
    <style
       type="text/css"
       id="style1040" />
    <style
       type="text/css"
       id="style1042" />
    <style
       type="text/css"
       id="style1044" />
    <style
       type="text/css"
       id="style1046" />
    <style
       type="text/css"
       id="style1048" />
  </defs>
  <sodipodi:namedview
     pagecolor="#ffffff"
     bordercolor="#666666"
     borderopacity="1"
     objecttolerance="10"
     gridtolerance="10"
     guidetolerance="10"
     inkscape:pageopacity="0"
     inkscape:pageshadow="2"
     inkscape:window-width="1920"
     inkscape:window-height="935"
     id="namedview24"
     showgrid="false"
     inkscape:zoom="6.0546875"
     inkscape:cx="26.039787"
     inkscape:cy="29.786234"
     inkscape:window-x="0"
     inkscape:window-y="38"
     inkscape:window-maximized="1"
     inkscape:current-layer="svg22" />
  <rect
     x="4.5"
     y="4.5"
     width="55"
     height="55"
     ry="15"
     fill="#141414"
     filter="url(#filter1057)"
     opacity="0.3"
     stroke-linecap="round"
     stroke-width="2.7444"
     id="rect881" />
  <rect
     x="4.5"
     y="4.5"
     width="55"
     height="55"
     ry="15"
     fill="url(#linearGradient1053)"
     stroke-linecap="round"
     stroke-width="2.7444"
     id="rect883"
     style="fill:url(#linearGradient1053)" />
  <g
     transform="translate(-137.22,-35.254)"
     fill="#5e4aa6"
     id="g915">
    <g
       image-rendering="optimizeSpeed"
       id="g897">
      <circle
         cx="-1248.6"
         cy="-1241.1"
         r="0"
         id="circle885" />
      <g
         transform="matrix(3.7796,0,0,3.7796,-6.9956e-4,6.044e-4)"
         stroke-width="0.26458"
         id="g893">
        <circle
           cx="-330.35001"
           cy="-328.38"
           r="0"
           id="circle887" />
        <circle
           cx="-330.35001"
           cy="-328.38"
           r="0"
           id="circle889" />
        <circle
           cx="-352.63"
           cy="-336.84"
           r="0"
           id="circle891" />
      </g>
      <circle
         cx="-1248.6"
         cy="-1241.1"
         r="0"
         id="circle895" />
    </g>
    <g
       transform="translate(92.643,0.35997)"
       image-rendering="optimizeSpeed"
       id="g911">
      <circle
         cx="-1248.6"
         cy="-1241.1"
         r="0"
         id="circle899" />
      <g
         transform="matrix(3.7796,0,0,3.7796,-6.9956e-4,6.044e-4)"
         stroke-width="0.26458"
         id="g907">
        <circle
           cx="-330.35001"
           cy="-328.38"
           r="0"
           id="circle901" />
        <circle
           cx="-330.35001"
           cy="-328.38"
           r="0"
           id="circle903" />
        <circle
           cx="-352.63"
           cy="-336.84"
           r="0"
           id="circle905" />
      </g>
      <circle
         cx="-1248.6"
         cy="-1241.1"
         r="0"
         id="circle909" />
    </g>
    <circle
       cx="-1152.9"
       cy="-1242.3"
       r="0"
       id="circle913" />
  </g>
  <circle
     cx="-105.21"
     cy="-3.7102001"
     r="0"
     fill="url(#b-3)"
     stroke-width="1.5715"
     id="circle917"
     style="fill:url(#b-3)" />
  <circle
     cx="-1179.3"
     cy="-1268.3"
     r="0"
     fill="#5e4aa6"
     id="circle919" />
  <circle
     cx="-1173.6"
     cy="-1229.2"
     r="0"
     fill="#5e4aa6"
     image-rendering="optimizeSpeed"
     id="circle921" />
  <g
     transform="translate(171.85,7.9683)"
     id="g927">
    <g
       transform="translate(1,1)"
       id="g925">
      <g
         opacity="0.1"
         id="g923">
        <!-- color: #e57e29 -->
      </g>
    </g>
  </g>
  <g
     fill="#5e4aa6"
     id="g959">
    <circle
       cx="-1080"
       cy="-1247.9"
       r="0"
       id="circle935" />
    <circle
       cx="19.546"
       cy="17.545"
       r="0"
       fill-rule="evenodd"
       id="circle937" />
    <g
       transform="translate(-66.881,-15.741)"
       id="g957">
      <circle
         cx="-1158.1"
         cy="-1246"
         r="0"
         id="circle939" />
      <circle
         cx="-1157.3"
         cy="-1267.7"
         r="0"
         id="circle941" />
      <circle
         cx="-57.756001"
         cy="-2.1829"
         r="0"
         fill-rule="evenodd"
         id="circle943" />
      <g
         transform="translate(-72.958)"
         id="g951">
        <circle
           cx="-1248.7"
           cy="-1241.6"
           r="0"
           id="circle945" />
        <circle
           cx="-1140.3"
           cy="-1301.8"
           r="0"
           id="circle947" />
        <circle
           cx="-1158.1"
           cy="-1246"
           r="0"
           id="circle949" />
      </g>
      <circle
         cx="-1230.3"
         cy="-1267.7"
         r="0"
         id="circle953" />
      <circle
         cx="-130.71001"
         cy="-2.1829"
         r="0"
         fill-rule="evenodd"
         id="circle955" />
    </g>
  </g>
  <g
     id="g1186"
     transform="translate(2.000001,2.2222232)">
    <path
       style="fill:#ffffff;fill-opacity:1;stroke-width:0.666667"
       d="M 30.090213,9.7788467 A 3.8819529,3.8465893 0 0 0 28.05846,10.292676 l -14.117677,8.077029 a 3.8819529,3.8465893 0 0 0 -1.940782,3.330874 v 16.154058 a 3.8819529,3.8465893 0 0 0 1.940782,3.330874 l 14.117677,8.077031 a 3.8819529,3.8465893 0 0 0 3.881567,0 l 14.119185,-8.077031 a 3.8819529,3.8465893 0 0 0 1.940786,-3.330874 V 21.700579 A 3.8819529,3.8465893 0 0 0 46.059212,18.369705 L 31.940027,10.292676 A 3.8819529,3.8465893 0 0 0 30.090213,9.7788467 Z"
       id="path4" />
    <path
       style="opacity:0.3;fill:#dcdcdc;fill-opacity:1;stroke-width:0.666667"
       d="m 30.090666,9.7796367 a 3.8819529,3.8465893 0 0 0 -2.03166,0.5133933 l -14.11801,8.076635 a 3.8819529,3.8465893 0 0 0 -1.644943,1.871281 l 17.703946,8.584449 17.705793,-8.586309 A 3.8819529,3.8465893 0 0 0 46.059005,18.369665 L 31.939146,10.29303 a 3.8819529,3.8465893 0 0 0 -1.84848,-0.5133933 z"
       id="path6" />
    <path
       style="opacity:0.3;fill:#c8c8c8;fill-opacity:1;stroke-width:0.666667"
       d="m 46.059005,18.369665 a 3.8819529,3.8465893 0 0 1 0.181327,0.111608 3.8819529,3.8465893 0 0 0 -0.181327,-0.111608 z m 0.23314,0.148811 a 3.8819529,3.8465893 0 0 1 0.257194,0.186012 3.8819529,3.8465893 0 0 0 -0.257194,-0.186012 z m 0.360814,0.275298 a 3.8819529,3.8465893 0 0 1 0.18688,0.16741 3.8819529,3.8465893 0 0 0 -0.18688,-0.16741 z m 0.246093,0.228794 a 3.8819529,3.8465893 0 0 1 0.21094,0.230655 3.8819529,3.8465893 0 0 0 -0.21094,-0.230655 z m 0.21094,0.230655 a 3.8819529,3.8465893 0 0 1 0.429273,0.6343 3.8819529,3.8465893 0 0 0 -0.429273,-0.6343 z m 0.444074,0.665924 a 3.8819529,3.8465893 0 0 1 0.151726,0.319939 3.8819529,3.8465893 0 0 0 -0.151726,-0.319939 z m 0.151726,0.319939 -17.705793,8.586309 v 20.948661 a 3.8819529,3.8465893 0 0 0 1.939147,-0.511533 l 14.119859,-8.076636 a 3.8819529,3.8465893 0 0 0 1.940993,-3.331474 V 21.701139 a 3.8819529,3.8465893 0 0 0 -0.294206,-1.462053 z"
       id="path8" />
    <path
       style="opacity:0.2;fill:#ffffff;stroke-width:0.666667"
       d="M 30.089846,9.7790804 A 3.8819529,3.8465893 0 0 0 28.058593,10.292102 L 13.941407,18.370226 A 3.8819529,3.8465893 0 0 0 12,21.700955 v 0.666667 a 3.8819529,3.8465893 0 0 1 1.941407,-3.33073 l 14.117186,-8.078124 a 3.8819529,3.8465893 0 0 1 2.031253,-0.513021 3.8819529,3.8465893 0 0 1 1.850261,0.513021 l 14.118485,8.078124 a 3.8819529,3.8465893 0 0 1 1.941406,3.33073 V 21.700955 A 3.8819529,3.8465893 0 0 0 46.058592,18.370226 L 31.940107,10.292102 A 3.8819529,3.8465893 0 0 0 30.089846,9.7790804 Z"
       id="path18" />
  </g>
</svg>
