<?xml version="1.0" encoding="UTF-8"?>
<svg width="64" height="64" version="1.1" viewBox="0 0 16.933 16.933" xmlns="http://www.w3.org/2000/svg" xmlns:cc="http://creativecommons.org/ns#" xmlns:dc="http://purl.org/dc/elements/1.1/" xmlns:rdf="http://www.w3.org/1999/02/22-rdf-syntax-ns#" xmlns:xlink="http://www.w3.org/1999/xlink">
 <defs>
  <filter id="filter1057" x="-.027" y="-.027" width="1.054" height="1.054" color-interpolation-filters="sRGB">
   <feGaussianBlur stdDeviation="0.61875"/>
  </filter>
  <linearGradient id="linearGradient1053" x1="-127" x2="-72" y1="60" y2="5" gradientTransform="matrix(.26458 0 0 .26458 35.492 .42258)" gradientUnits="userSpaceOnUse">
   <stop stop-color="#323741" offset="0"/>
   <stop stop-color="#465064" offset="1"/>
  </linearGradient>
 </defs>
 <metadata>
  <rdf:RDF>
   <cc:Work rdf:about="">
    <dc:format>image/svg+xml</dc:format>
    <dc:type rdf:resource="http://purl.org/dc/dcmitype/StillImage"/>
    <dc:title/>
   </cc:Work>
  </rdf:RDF>
 </metadata>
 <g transform="translate(-.69926 -.55751)">
  <rect transform="matrix(.26458 0 0 .26458 .69926 .55751)" x="4.5" y="4.5" width="55" height="55" ry="15" fill="#141414" filter="url(#filter1057)" opacity=".3" stroke-linecap="round" stroke-width="2.7444"/>
  <rect x="1.8899" y="1.7481" width="14.552" height="14.552" ry="3.9687" fill="url(#linearGradient1053)" stroke-linecap="round" stroke-width=".72611"/>
  <path d="m12.856 6.9091c0.12144 0.00741 0.25215 0 0.39529 0.099219 1.2782 0.55007 0.42095 2.059-1.2084 3.2067-0.0098-0.21643-0.09975-0.68765-0.09763-0.89509 1.3901-0.95303 2.2032-1.8807 1.3174-2.2484-0.93398-0.38761-1.224 0.67072-1.2404 2.2072-0.08705 0.090223-0.68977 0.49054-0.78132 0.55377 0.03387-1.401 0.77867-2.831 1.4944-2.9131 0.03837-0.00741 0.08017-0.00741 0.12065-0.00741m-1.3012 2.4376 0.29078-0.11324 0.24104 0.16245 0.04868 0.51118-0.30454 0.23363-0.12647 0.1696c-0.93768 0.62204-1.7365 1.1012-2.7877 1.497l-0.65537 0.09737h-0.43127c-0.39767-0.23442-0.1606-0.32465-1.6052-0.50483l1.628 0.12621c1.2557-0.48683 2.5374-1.1861 3.7031-1.9489m-2.8654 2.0394c-0.18838 0-1.6574-0.12753-2.2418-0.1815-0.57838-0.09022-1.2888-0.11721-1.1544 0.55906-0.15293-0.36063 0.19579-0.97287 0.69162-1.0808 0.76676-0.17145 1.9833 0.29845 2.4207 0.44265m-0.70485 0.18732c0.22807 0.09022 0.74904 0.15531 0.9951 0.23654-0.34872 0.18045-2.1003 0.82709-2.8234 0.69162-0.11562 0-0.60378-0.3511-0.61569-0.60378 0.037571 0.45985 2.1786 0.11721 2.444-0.33364m-0.47625 0.0082c0.18759-0.09022 1.0663-0.08573 1.2599-0.15769 1.1001 0.38497 2.5802 1.2885 3.6393 1.8979l0.30692 0.09022c0.05927 0.42095 0.31856 0.56594 0.5551 0.83846l-0.35851 0.36063-0.28046-0.45985c-1.2401-0.74824-3.6915-1.9574-5.1213-2.5379m5.1213 2.5379c0.15161 0.09022 0.29633 0.18045 0.43365 0.2704 0.31803 0.90249 0.68871 1.5102 1.0427 1.484-0.54689 0.26141-1.7248-1.0268-2.122-2.2386m2.122 2.2386c0.83423-0.49583-0.9316-1.3996-1.3282-1.6618-0.08916-0.25241 0.15478-0.67072 0.07514-0.96838 1.2454 0.77549 1.9815 1.8971 1.5637 2.4291-0.10054 0.12621-0.20717 0.18944-0.31274 0.19844m-1.2118-1.8891c-0.05794-0.2323-0.82709-0.76094-0.96599-0.84217-0.186-1.465-0.195-1.6097-0.35295-2.7485 0.09446-0.09022 0.67628-0.54372 0.76623-0.60669 0.11165 1.2171 0.32173 2.8665 0.61886 3.9682" fill="#d52337" stroke-width=".26458"/>
  <path d="m6.1956 1.7481c-0.1534 0-0.29671 0.0026-0.4408 0.00517-0.60235 0.015483-1.1695 0.16379-1.6753 0.41703v5.9268l1.0583-1.0588 1.0578 1.0578z" fill="#28aafa" stroke-width=".26458"/>
 </g>
</svg>
