<?xml version="1.0" encoding="UTF-8" standalone="no"?>
<svg
   xmlns:dc="http://purl.org/dc/elements/1.1/"
   xmlns:cc="http://creativecommons.org/ns#"
   xmlns:rdf="http://www.w3.org/1999/02/22-rdf-syntax-ns#"
   xmlns:svg="http://www.w3.org/2000/svg"
   xmlns="http://www.w3.org/2000/svg"
   xmlns:xlink="http://www.w3.org/1999/xlink"
   xmlns:sodipodi="http://sodipodi.sourceforge.net/DTD/sodipodi-0.dtd"
   xmlns:inkscape="http://www.inkscape.org/namespaces/inkscape"
   inkscape:version="1.0 (4035a4fb49, 2020-05-01)"
   sodipodi:docname="administration.svg"
   id="svg76"
   version="1.1"
   height="64"
   width="64">
  <sodipodi:namedview
     inkscape:current-layer="svg76"
     inkscape:window-maximized="1"
     inkscape:window-y="0"
     inkscape:window-x="0"
     inkscape:cy="13.608752"
     inkscape:cx="11.55579"
     inkscape:zoom="6.4921875"
     showgrid="false"
     id="namedview78"
     inkscape:window-height="1000"
     inkscape:window-width="1920"
     inkscape:pageshadow="2"
     inkscape:pageopacity="0"
     guidetolerance="10"
     gridtolerance="10"
     objecttolerance="10"
     borderopacity="1"
     bordercolor="#666666"
     pagecolor="#ffffff" />
  <metadata
     id="metadata2">
    <rdf:RDF>
      <cc:Work
         rdf:about="">
        <dc:format>image/svg+xml</dc:format>
        <dc:type
           rdf:resource="http://purl.org/dc/dcmitype/StillImage" />
        <dc:title></dc:title>
      </cc:Work>
    </rdf:RDF>
  </metadata>
  <defs
     id="defs18">
    <style
       id="style4"
       type="text/css" />
    <style
       id="style6"
       type="text/css" />
    <style
       id="style8"
       type="text/css" />
    <filter
       color-interpolation-filters="sRGB"
       height="1.048"
       width="1.048"
       y="-.024"
       x="-.024"
       id="filter2761-3">
      <feGaussianBlur
         id="feGaussianBlur10"
         stdDeviation="0.14552168" />
    </filter>
    <linearGradient
       gradientUnits="userSpaceOnUse"
       gradientTransform="matrix(3.7796 0 0 3.7796 -.003213 .53084)"
       y2="1.17"
       y1="15.576"
       x2="15.65"
       x1="1.3315"
       id="linearGradient1024">
      <stop
         id="stop13"
         offset="0"
         stop-color="#96aab4" />
      <stop
         id="stop15"
         offset="1"
         stop-color="#a0b4c3" />
    </linearGradient>
    <filter
       color-interpolation-filters="sRGB"
       height="1.048"
       width="1.048"
       y="-.024"
       x="-.024"
       id="filter2761">
      <feGaussianBlur
         id="feGaussianBlur4"
         stdDeviation="0.14552168" />
    </filter>
    <linearGradient
       gradientUnits="userSpaceOnUse"
       gradientTransform="translate(16.851507,0.14045)"
       y2="1.1082"
       y1="15.429"
       x2="15.644"
       x1="1.2573"
       id="linearGradient4673">
      <stop
         id="stop7"
         offset="0"
         stop-color="#a0b9cd" />
      <stop
         id="stop9"
         offset=".47728"
         stop-color="#96b4c8" />
      <stop
         id="stop11"
         offset="1"
         stop-color="#a0b9cd" />
    </linearGradient>
    <filter
       color-interpolation-filters="sRGB"
       height="1.168"
       width="1.168"
       y="-.084006"
       x="-.083994"
       id="filter917">
      <feGaussianBlur
         id="feGaussianBlur14"
         stdDeviation="0.22223482" />
    </filter>
    <linearGradient
       gradientUnits="userSpaceOnUse"
       gradientTransform="matrix(0.32664815,0,0,0.32664815,0.63054332,0.95372475)"
       y2="4"
       y1="44"
       x2="0"
       id="linearGradient890">
      <stop
         id="stop4"
         offset="0"
         stop-color="#FFB900" />
      <stop
         id="stop6"
         offset="1"
         stop-color="#ff0" />
    </linearGradient>
    <filter
       color-interpolation-filters="sRGB"
       height="1.048"
       width="1.048"
       y="-.024"
       x="-.024"
       id="filter2761-67">
      <feGaussianBlur
         id="feGaussianBlur9"
         stdDeviation="0.14552168" />
    </filter>
    <linearGradient
       gradientUnits="userSpaceOnUse"
       gradientTransform="matrix(3.7796,0,0,3.7796,66.443573,0.53068)"
       y2="1.1082"
       y1="15.601"
       x2="15.644"
       x1="1.4377"
       id="linearGradient4673-5">
      <stop
         id="stop12"
         offset="0"
         stop-color="#dc2828" />
      <stop
         id="stop14"
         offset="1"
         stop-color="#fa4141" />
    </linearGradient>
    <linearGradient
       gradientTransform="scale(0.26457812)"
       gradientUnits="userSpaceOnUse"
       y2="9.67"
       y1="54.592"
       x2="34.134"
       x1="34.134"
       id="linearGradient915">
      <stop
         id="stop17"
         offset="0"
         stop-color="#ffb900" />
      <stop
         id="stop19"
         offset="1"
         stop-color="#ff0" />
    </linearGradient>
    <filter
       inkscape:collect="always"
       style="color-interpolation-filters:sRGB"
       id="filter1057"
       x="-0.027000001"
       width="1.054"
       y="-0.027000001"
       height="1.054">
      <feGaussianBlur
         inkscape:collect="always"
         stdDeviation="0.61875"
         id="feGaussianBlur1059" />
    </filter>
    <linearGradient
       inkscape:collect="always"
       xlink:href="#linearGradient1051"
       id="linearGradient1053"
       x1="-127"
       y1="60"
       x2="-72"
       y2="5"
       gradientUnits="userSpaceOnUse"
       gradientTransform="translate(131.5,-0.5099971)" />
    <linearGradient
       inkscape:collect="always"
       id="linearGradient1051">
      <stop
         style="stop-color:#a0b9cd;stop-opacity:1"
         offset="0"
         id="stop1047" />
      <stop
         id="stop934"
         offset="0.48566937"
         style="stop-color:#96b4c8;stop-opacity:1" />
      <stop
         style="stop-color:#a0b9cd;stop-opacity:1"
         offset="1"
         id="stop1049" />
    </linearGradient>
    <linearGradient
       id="linearGradient890-3"
       x2="0"
       y1="44"
       y2="4"
       gradientTransform="matrix(1.2346,0,0,1.2346,3.1419,3.6047)"
       gradientUnits="userSpaceOnUse">
      <stop
         stop-color="#FFB900"
         offset="0"
         id="stop861" />
      <stop
         stop-color="#ff0"
         offset="1"
         id="stop863" />
    </linearGradient>
    <filter
       id="filter2761-6"
       x="-.024"
       y="-.024"
       width="1.048"
       height="1.048"
       color-interpolation-filters="sRGB">
      <feGaussianBlur
         stdDeviation="0.14552168"
         id="feGaussianBlur866" />
    </filter>
  </defs>
  <rect
     style="opacity:0.3;fill:#141414;fill-opacity:1;stroke-width:2.74436;stroke-linecap:round;filter:url(#filter1057)"
     id="rect1055"
     width="55"
     height="55"
     x="4.4999995"
     y="4.4999995"
     ry="15" />
  <rect
     ry="14.999999"
     y="4.5000019"
     x="4.5000019"
     height="54.999996"
     width="54.999996"
     id="rect1045"
     style="fill:url(#linearGradient1053);fill-opacity:1;stroke-width:2.74436;stroke-linecap:round" />
  <g
     id="g70"
     fill="#5e4aa6">
    <g
       id="g32"
       image-rendering="optimizeSpeed"
       transform="translate(-80.134 -57.985)">
      <circle
         id="circle24"
         r="0"
         cy="-1241.6"
         cx="-1248.7" />
      <circle
         id="circle26"
         fill-rule="evenodd"
         r="0"
         cy="23.855"
         cx="-149.15" />
      <circle
         id="circle28"
         r="0"
         cy="-1241.6"
         cx="-1248.7" />
      <circle
         id="circle30"
         fill-rule="evenodd"
         r="0"
         cy="23.855"
         cx="-149.15" />
    </g>
    <circle
       id="circle34"
       r="0"
       cy="-1241.6"
       cx="-1248.7" />
    <circle
       id="circle36"
       fill-rule="evenodd"
       r="0"
       cy="23.855"
       cx="-149.15" />
    <g
       id="g68"
       stroke-width=".26458"
       transform="matrix(3.7796 0 0 3.7796 .00058415 -.00017177)">
      <g
         id="g46"
         transform="translate(-.0272 .0065001)">
        <circle
           id="circle38"
           r="0"
           cy="-328.38"
           cx="-330.35" />
        <circle
           id="circle40"
           r="0"
           cy="-326.25"
           cx="-312.11" />
        <circle
           id="circle42"
           r="0"
           cy="-333.07"
           cx="-306.02" />
        <circle
           id="circle44"
           r="0"
           cy="-326.01"
           cx="-308.84" />
      </g>
      <g
         id="g56"
         transform="translate(-.0272 .0065001)">
        <circle
           id="circle48"
           r="0"
           cy="-328.38"
           cx="-330.35" />
        <circle
           id="circle50"
           r="0"
           cy="-326.25"
           cx="-312.11" />
        <circle
           id="circle52"
           r="0"
           cy="-333.07"
           cx="-306.02" />
        <circle
           id="circle54"
           r="0"
           cy="-326.01"
           cx="-308.84" />
      </g>
      <g
         id="g66"
         transform="translate(-.02705 .0064503)">
        <circle
           id="circle58"
           r="0"
           cy="-328.38"
           cx="-330.35" />
        <circle
           id="circle60"
           r="0"
           cy="-326.25"
           cx="-312.11" />
        <circle
           id="circle62"
           r="0"
           cy="-333.07"
           cx="-306.02" />
        <circle
           id="circle64"
           r="0"
           cy="-326.01"
           cx="-308.84" />
      </g>
    </g>
  </g>
  <circle
     id="circle72"
     style="paint-order:stroke markers fill"
     stroke-width="3.9569"
     opacity=".15"
     r="13.612"
     cy="32"
     cx="32" />
  <path
     id="path74"
     fill="#fff"
     d="m31.518 16c-0.89267 0.03323-1.3833 0.3329-1.7031 0.97657-0.20517 0.41304-0.37286 1.1011-0.37305 1.5293-6.6e-4 1.5708-1.5866 3.0039-3.3262 3.0039-0.85355 0-1.3224-0.23496-3.0508-1.5293-0.78669-0.58913-1.2833-0.4359-2.5039 0.76563-1.1596 1.1417-1.1889 1.6884-0.16211 3.0508 0.42433 0.56316 0.85426 1.3138 0.95507 1.6699 0.24934 0.88057-0.15888 2.4925-0.81447 3.209-0.53735 0.58731-1.8717 1.0449-3.0352 1.0449-1.1064 0-1.5039 0.62987-1.5039 2.373 0 1.3574 0.0521 1.5427 0.51757 1.8516 0.28447 0.18891 1.1062 0.42785 1.8281 0.53126 0.72194 0.10338 1.5553 0.34766 1.8496 0.54298 0.62133 0.41239 1.3415 1.8884 1.3477 2.7637 5e-3 0.63543-0.48417 1.7589-0.98829 2.2695-0.54944 0.55655-0.95136 1.5694-0.80664 2.0312 0.18542 0.59173 1.4414 1.857 2.0918 2.1074 0.37254 0.14351 0.64318 0.10167 1.0039-0.15428 1.0573-0.7501 2.8662-1.5645 3.4766-1.5645 0.92018 0 2.4465 0.81208 2.7812 1.4805 0.15759 0.31484 0.35405 1.0487 0.43748 1.6289 0.2023 1.4071 0.52208 2.0693 1.0586 2.1836 0.2439 0.0517 0.6364 0.13943 0.87108 0.19336 0.2347 0.05537 0.7631 0.05537 1.1738 0 1.0713-0.14385 1.6423-0.94263 1.8223-2.5488 0.16452-1.4686 0.29937-1.7049 1.3809-2.3965 1.0982-0.70225 1.9578-0.83937 2.8027-0.44728 0.70055 0.32516 0.98368 0.49365 2.1328 1.2598 0.84194 0.56146 1.3666 0.46867 2.3398-0.42188 1.4634-1.3391 1.4929-1.9214 0.18164-3.4512-1.2481-1.4559-1.2623-3.2471-0.0352-4.6228 0.46992-0.52688 0.89127-0.71015 2.2832-0.98829 2.1016-0.41991 2.4431-0.7631 2.4492-2.4688 6e-3 -1.7036-0.26495-1.982-2.2383-2.291-1.8777-0.29402-2.4789-0.71824-3.1387-2.2051-0.54853-1.2363-0.3972-1.9608 0.77346-3.6582 0.60031-0.87037 0.89913-1.5056 0.83008-1.7734-0.15429-0.59763-2.0994-2.3809-2.5977-2.3809-0.23075 0-0.84516 0.3323-1.3652 0.73438-1.4346 1.1094-2.289 1.36-3.5156 1.0312-1.4413-0.38609-1.9543-0.99487-2.3184-2.7539-0.41806-2.0202-0.68762-2.3838-1.877-2.5195-0.39625-0.04554-0.73763-0.06381-1.0352-0.05273v-0.0039zm0.48243 10a6.0001 6.0001 0 0 1 6.0001 6.0001 6.0001 6.0001 0 0 1-6.0001 6.0001 6.0001 6.0001 0 0 1-6.0001-6.0001 6.0001 6.0001 0 0 1 6.0001-6.0001z" />
  <g
     id="g30"
     fill="#5e4aa6"
     transform="translate(-79.198861,-30.995432)">
    <circle
       id="circle24-6"
       r="0"
       cy="-1241.6"
       cx="-1248.7" />
    <circle
       id="circle26-7"
       r="0"
       cy="-1301.8"
       cx="-1140.3" />
    <circle
       id="circle28-5"
       r="0"
       cy="-1246"
       cx="-1158.1" />
  </g>
  <circle
     id="circle36-3"
     fill="#5e4aa6"
     r="0"
     cy="-1298.6954"
     cx="-1236.4989"
     style="stroke-width:1" />
  <circle
     id="circle38-5"
     fill-rule="evenodd"
     fill="#5e4aa6"
     r="0"
     cy="-33.178333"
     cx="-136.95486"
     style="stroke-width:1" />
</svg>
