<?xml version="1.0" encoding="UTF-8" standalone="no"?>
<svg
   xmlns:dc="http://purl.org/dc/elements/1.1/"
   xmlns:cc="http://creativecommons.org/ns#"
   xmlns:rdf="http://www.w3.org/1999/02/22-rdf-syntax-ns#"
   xmlns:svg="http://www.w3.org/2000/svg"
   xmlns="http://www.w3.org/2000/svg"
   xmlns:sodipodi="http://sodipodi.sourceforge.net/DTD/sodipodi-0.dtd"
   xmlns:inkscape="http://www.inkscape.org/namespaces/inkscape"
   viewBox="0 0 64 64"
   version="1.1"
   id="svg4305"
   sodipodi:docname="aim.svg"
   inkscape:version="1.0.1 (3bc2e813f5, 2020-09-07)"
   width="64"
   height="64">
  <metadata
     id="metadata4311">
    <rdf:RDF>
      <cc:Work
         rdf:about="">
        <dc:format>image/svg+xml</dc:format>
        <dc:type
           rdf:resource="http://purl.org/dc/dcmitype/StillImage" />
        <dc:title></dc:title>
      </cc:Work>
    </rdf:RDF>
  </metadata>
  <defs
     id="defs4309">
    <linearGradient
       id="f-5"
       x1="-6.1472001"
       x2="-6.1472001"
       y1="-137.82001"
       y2="-100.78"
       gradientTransform="matrix(2.0044,0,0,2.0044,-42.747576,249.6374)"
       gradientUnits="userSpaceOnUse">
      <stop
         stop-color="#14dc78"
         offset="0"
         id="stop840" />
      <stop
         stop-color="#14a03c"
         offset="1"
         id="stop842" />
    </linearGradient>
    <filter
       id="filter2076"
       x="-0.048"
       y="-0.048"
       width="1.096"
       height="1.096"
       color-interpolation-filters="sRGB">
      <feGaussianBlur
         stdDeviation="1.1"
         id="feGaussianBlur161" />
    </filter>
    <linearGradient
       id="linearGradient2070"
       x1="145"
       x2="200"
       y1="59"
       y2="4"
       gradientTransform="translate(-140.5,0.49999998)"
       gradientUnits="userSpaceOnUse">
      <stop
         stop-color="#ffc841"
         offset="0"
         id="stop154" />
      <stop
         stop-color="#ffbe37"
         offset=".4925"
         id="stop156" />
      <stop
         stop-color="#ffc841"
         offset="1"
         id="stop158" />
    </linearGradient>
  </defs>
  <sodipodi:namedview
     pagecolor="#ffffff"
     bordercolor="#666666"
     inkscape:document-rotation="0"
     borderopacity="1"
     objecttolerance="10"
     gridtolerance="10"
     guidetolerance="10"
     inkscape:pageopacity="0"
     inkscape:pageshadow="2"
     inkscape:window-width="1920"
     inkscape:window-height="932"
     id="namedview4307"
     showgrid="false"
     inkscape:zoom="3.0416667"
     inkscape:cx="-48.4669"
     inkscape:cy="35.54879"
     inkscape:current-layer="svg4305"
     inkscape:window-x="0"
     inkscape:window-y="36"
     inkscape:window-maximized="1" />
  <linearGradient
     id="a"
     gradientUnits="userSpaceOnUse"
     x1="399.57144"
     x2="399.57144"
     y1="545.79797"
     y2="517.79797"
     gradientTransform="matrix(1.501011,0,0,1.501011,-588.86335,-776.1394)">
    <stop
       offset="0"
       stop-color="#3889e9"
       id="stop4289" />
    <stop
       offset="1"
       stop-color="#5ea5fb"
       id="stop4291" />
  </linearGradient>
  <linearGradient
     id="b"
     gradientUnits="userSpaceOnUse"
     x1="-332.32077"
     x2="-318.62283"
     y1="663.40253"
     y2="236.93983"
     gradientTransform="matrix(0.12683989,0,0,0.12683989,72.197655,-84.389963)">
    <stop
       offset="0"
       stop-color="#00aad4"
       id="stop4294" />
    <stop
       offset="1"
       stop-color="#0cf"
       id="stop4296" />
  </linearGradient>
  <circle
     cx="12.39871"
     cy="22.095125"
     fill="url(#a)"
     r="0"
     id="circle4299"
     style="fill:url(#a);stroke-width:1.50101" />
  <circle
     cx="-1334.9465"
     cy="-1263.5726"
     r="0"
     fill="#5e4aa6"
     id="circle847" />
  <g
     fill="#5e4aa6"
     id="g859"
     transform="translate(-86.246576,-21.972602)">
    <circle
       cx="-149.14999"
       cy="23.855"
       r="0"
       fill-rule="evenodd"
       id="circle853" />
    <circle
       cx="-1150.9"
       cy="-1256.6"
       r="0"
       id="circle855" />
    <circle
       cx="-51.327"
       cy="8.8744001"
       r="0"
       fill-rule="evenodd"
       id="circle857" />
  </g>
  <rect
     x="4.5000014"
     y="4.5000014"
     width="55"
     height="55"
     rx="13.002"
     ry="13.002"
     filter="url(#filter2076)"
     opacity="0.3"
     id="rect170" />
  <rect
     x="4.5"
     y="4.5"
     width="55"
     height="55"
     rx="13.002"
     ry="13.002"
     fill="url(#linearGradient2070)"
     id="rect172"
     style="fill:url(#linearGradient2070)" />
  <path
     d="m 17.942966,40.520194 c 0.365389,-0.18641 0.949401,-0.632656 1.297806,-0.991669 0.348405,-0.359006 0.714843,-0.652741 0.814302,-0.652741 0.09946,0 0.331698,0.295718 0.516088,0.657154 0.54506,1.068401 1.27942,1.37607 2.59136,1.085681 0.48311,-0.106931 1.53216,-1.063933 1.53216,-1.397713 0,-0.07595 -0.29004,-0.184458 -0.64453,-0.241143 -0.43846,-0.07011 -0.78112,-0.265408 -1.07179,-0.610845 -0.56164,-0.667479 -0.56565,-1.694234 -0.0146,-3.750983 0.22649,-0.845429 0.41181,-1.708759 0.41181,-1.918513 0,-0.472105 -0.64713,-0.921564 -1.48957,-1.034557 -0.72548,-0.09731 -0.63814,-0.276543 -1.22381,2.511519 -0.466728,2.221845 -0.863821,2.956986 -2.046055,3.78789 -0.599076,0.421052 -0.865038,0.499284 -1.697366,0.499284 -0.944475,0 -1.014385,-0.02938 -1.62336,-0.682236 -0.368076,-0.394595 -0.718389,-0.985517 -0.830898,-1.401579 -0.267788,-0.9903 -0.12129,-2.859277 0.298299,-3.805647 0.510976,-1.152496 1.682421,-2.315065 2.885369,-2.863526 0.918088,-0.418578 1.204272,-0.467631 2.676901,-0.458805 1.85101,0.0111 2.75747,0.266965 3.74157,1.056174 0.33475,0.268459 0.64548,0.42847 0.69053,0.355592 0.13459,-0.217782 -0.22205,-1.55124 -0.562,-2.101301 -0.71314,-1.153883 -3.0021,-1.832686 -5.234651,-1.552357 -4.239811,0.532368 -6.966864,3.822079 -6.960506,8.396618 0.0037,2.863564 0.993715,4.72519 2.883638,5.423902 0.68858,0.254569 2.265743,0.09465 3.059327,-0.310199 z m 11.687136,0.172646 c 0.67425,-0.193378 1.49534,-0.936427 1.49534,-1.35323 0,-0.221867 -0.12686,-0.298932 -0.49208,-0.298932 -0.30876,0 -0.68924,-0.176179 -1.02137,-0.472934 -0.47159,-0.421371 -0.5363,-0.587633 -0.59362,-1.525241 -0.0532,-0.870015 0.0846,-1.623628 0.79509,-4.350148 1.18394,-4.54308 1.1532,-4.205552 0.38257,-4.200794 -0.84822,0.005 -1.894,0.256721 -2.03827,0.49015 -0.15796,0.255586 -1.29476,6.067236 -1.46767,7.503148 -0.26304,2.184436 0.17711,3.686993 1.21212,4.137827 0.61102,0.266143 0.99074,0.281565 1.72789,0.07016 z m 21.28803,-0.209364 c 0.69436,-0.350414 1.22708,-1.017378 1.04628,-1.309927 -0.0452,-0.07308 -0.34082,-0.132871 -0.65701,-0.132871 -0.39699,0 -0.70554,-0.130661 -0.99713,-0.42225 -0.39402,-0.394017 -0.41677,-0.501512 -0.3404,-1.607691 0.045,-0.651995 0.2454,-1.927451 0.44529,-2.834353 0.42356,-1.921657 0.37861,-3.169764 -0.15376,-4.269492 -0.84263,-1.740638 -3.13123,-1.66776 -5.10832,0.162678 -0.52483,0.485895 -1.00549,0.832198 -1.06814,0.76955 -0.0626,-0.06264 -0.25367,-0.429876 -0.4245,-0.816073 -0.80491,-1.819617 -3.3008,-1.830783 -5.17619,-0.02316 -0.80957,0.780327 -1.25783,0.916092 -1.25783,0.380969 0,-0.480893 -0.49584,-1.225807 -0.98395,-1.478217 -1.25266,-0.647776 -3.3029,0.02731 -3.49446,1.150662 -0.0481,0.281786 0.0593,0.342362 0.74763,0.422087 1.58,0.182984 1.64498,0.709056 0.71434,5.783154 -0.4054,2.210346 -0.68267,4.078287 -0.61616,4.150977 0.0665,0.0727 0.5957,0.109798 1.17598,0.08245 l 1.05504,-0.04971 0.18798,-0.824452 c 0.10337,-0.453451 0.34691,-1.667778 0.54117,-2.698501 0.81025,-4.298999 2.41751,-6.624414 3.99506,-5.780135 0.45692,0.24454 0.79978,1.138669 0.79904,2.083797 -3.5e-4,0.433692 -0.25978,2.161248 -0.5765,3.83902 -0.31674,1.677771 -0.57616,3.146491 -0.5765,3.263827 -5e-4,0.159364 0.30097,0.201078 1.19135,0.164894 l 1.19197,-0.04846 0.44784,-2.449405 c 0.52071,-2.847923 1.07056,-4.599087 1.80195,-5.738866 1.16802,-1.820188 2.92548,-1.700875 3.29261,0.223537 0.13791,0.722903 0.0246,1.762317 -0.41919,3.842454 -0.43406,2.034906 -0.26452,3.389755 0.50854,4.064032 0.63883,0.557198 1.72212,0.596992 2.70797,0.09947 z M 31.336852,25.954571 c 1.20866,-0.511566 1.57231,-1.783746 0.71957,-2.517244 -0.79111,-0.680484 -2.61322,-0.428683 -3.06968,0.424209 -0.29822,0.557235 -0.20185,1.406494 0.20123,1.773208 0.64598,0.587709 1.28963,0.683509 2.14888,0.319827 z"
     fill="#f3f3f3"
     id="path874"
     inkscape:connector-curvature="0"
     style="stroke-width:0.627666" />
</svg>
