<?xml version="1.0" encoding="UTF-8" standalone="no"?>
<svg
   xmlns:dc="http://purl.org/dc/elements/1.1/"
   xmlns:cc="http://creativecommons.org/ns#"
   xmlns:rdf="http://www.w3.org/1999/02/22-rdf-syntax-ns#"
   xmlns:svg="http://www.w3.org/2000/svg"
   xmlns="http://www.w3.org/2000/svg"
   xmlns:xlink="http://www.w3.org/1999/xlink"
   xmlns:sodipodi="http://sodipodi.sourceforge.net/DTD/sodipodi-0.dtd"
   xmlns:inkscape="http://www.inkscape.org/namespaces/inkscape"
   height="64"
   viewBox="0 0 64 64.000001"
   width="64"
   version="1.1"
   id="svg40"
   sodipodi:docname="akonaditray.svg"
   inkscape:version="1.0.1 (3bc2e813f5, 2020-09-07, custom)">
  <metadata
     id="metadata46">
    <rdf:RDF>
      <cc:Work
         rdf:about="">
        <dc:format>image/svg+xml</dc:format>
        <dc:type
           rdf:resource="http://purl.org/dc/dcmitype/StillImage" />
        <dc:title></dc:title>
      </cc:Work>
    </rdf:RDF>
  </metadata>
  <defs
     id="defs44">
    <linearGradient
       id="e"
       x1="8.4207001"
       x2="8.4207001"
       y1="281.10001"
       y2="300.26999"
       gradientTransform="matrix(3.7796,0,0,3.7796,83.772218,-1059)"
       gradientUnits="userSpaceOnUse">
      <stop
         stop-color="#c896ff"
         offset="0"
         id="stop873" />
      <stop
         stop-color="#32afff"
         offset="1"
         id="stop875" />
    </linearGradient>
    <style
       type="text/css"
       id="style878" />
    <style
       type="text/css"
       id="style880" />
    <filter
       inkscape:collect="always"
       style="color-interpolation-filters:sRGB"
       id="filter1057"
       x="-0.027000001"
       width="1.054"
       y="-0.027000001"
       height="1.054">
      <feGaussianBlur
         inkscape:collect="always"
         stdDeviation="0.61875"
         id="feGaussianBlur1059" />
    </filter>
    <linearGradient
       inkscape:collect="always"
       xlink:href="#linearGradient1051"
       id="linearGradient1053"
       x1="-127"
       y1="60"
       x2="-72"
       y2="5"
       gradientUnits="userSpaceOnUse"
       gradientTransform="translate(131.5,-0.50999851)" />
    <linearGradient
       inkscape:collect="always"
       id="linearGradient1051">
      <stop
         style="stop-color:#51aaff;stop-opacity:1"
         offset="0"
         id="stop1047" />
      <stop
         style="stop-color:#b496ff;stop-opacity:1"
         offset="1"
         id="stop1049" />
    </linearGradient>
  </defs>
  <sodipodi:namedview
     pagecolor="#ffffff"
     bordercolor="#666666"
     borderopacity="1"
     objecttolerance="10"
     gridtolerance="10"
     guidetolerance="10"
     inkscape:pageopacity="0"
     inkscape:pageshadow="2"
     inkscape:window-width="1920"
     inkscape:window-height="942"
     id="namedview42"
     showgrid="false"
     inkscape:zoom="1.4086893"
     inkscape:cx="23.087104"
     inkscape:cy="106.33384"
     inkscape:window-x="0"
     inkscape:window-y="38"
     inkscape:window-maximized="1"
     inkscape:current-layer="svg40"
     inkscape:document-rotation="0" />
  <linearGradient
     id="a"
     gradientUnits="userSpaceOnUse"
     x1="29.34741"
     x2="30.057369"
     y1="1028.5835"
     y2="1007.4086">
    <stop
       offset="0"
       stop-color="#85cfd6"
       id="stop2" />
    <stop
       offset="1"
       stop-color="#daedff"
       id="stop4" />
  </linearGradient>
  <linearGradient
     gradientUnits="userSpaceOnUse"
     x1="0"
     x2="47"
     y1="23.5"
     y2="23.5"
     id="linearGradient13">
    <stop
       offset="0"
       stop-color="#a9a3d4"
       id="stop7" />
    <stop
       offset=".47001833"
       stop-color="#87baff"
       id="stop9" />
    <stop
       offset="1"
       stop-color="#89ec85"
       id="stop11" />
  </linearGradient>
  <clipPath
     id="b">
    <circle
       cx="286"
       cy="26"
       r="10"
       id="circle15" />
  </clipPath>
  <linearGradient
     id="c"
     gradientUnits="userSpaceOnUse"
     x1="24.616354"
     x2="25.285236"
     y1="1051.8768"
     y2="1019.7678">
    <stop
       offset="0"
       stop-color="#587ea7"
       id="stop18" />
    <stop
       offset="1"
       stop-color="#7db2eb"
       id="stop20" />
  </linearGradient>
  <linearGradient
     id="d"
     gradientUnits="userSpaceOnUse"
     x1="26.878181"
     x2="2.6572874"
     y1="1051.8229"
     y2="1002.6949">
    <stop
       offset="0"
       stop-color="#79a4cb"
       id="stop23" />
    <stop
       offset="1"
       stop-color="#98ceff"
       id="stop25" />
  </linearGradient>
  <circle
     cx="-1164.8236"
     cy="-1241.6"
     r="0"
     fill="#5e4aa6"
     id="circle893"
     style="image-rendering:optimizeSpeed" />
  <rect
     ry="15"
     y="4.4999995"
     x="4.4999995"
     height="55"
     width="55"
     id="rect1055"
     style="opacity:0.3;fill:#141414;fill-opacity:1;stroke-width:2.74436;stroke-linecap:round;filter:url(#filter1057)" />
  <rect
     style="fill:url(#linearGradient1053);fill-opacity:1;stroke-width:2.74436;stroke-linecap:round"
     id="rect1045"
     width="54.999996"
     height="54.999996"
     x="4.5000019"
     y="4.5000019"
     ry="14.999999" />
  <path
     d="m 44.407815,35.419777 1.642,0.81015 c 1.2669,0.62344 1.2669,2.5388 0,3.1639 l -13.364,7.428 a 1.5486,1.5486 0 0 1 -1.3752,0 l -13.364,-7.428 c -1.2619,-0.62511 -1.2619,-2.5405 0,-3.1639 l 1.642,-0.81015 11.264,6.3928 a 2.5971,2.5971 0 0 0 2.2921,0 z m -0.23338,-6.5962 1.8753,0.82515 c 1.2669,0.62511 1.2669,2.5405 0,3.1639 l -13.364,7.428 a 1.5436,1.5436 0 0 1 -1.3753,0 l -13.364,-7.428 c -1.2619,-0.62345 -1.2619,-2.5388 0,-3.1639 l 1.887,-0.82515 11.024,6.2728 a 2.5855,2.5855 0 0 0 2.2921,0 l 11.022,-6.2728 z m -26.23,-2.7588 c -1.0335,-0.53343 -0.93016,-1.842 0,-2.3404 0.93017,-0.50009 12.666,-6.4345 13.192,-6.5845 0.52676,-0.15003 1.2986,-0.1767 1.8487,0 0.5501,0.17503 11.655,5.9727 13.062,6.5845 1.4053,0.61011 1.0002,1.767 0,2.3404 -1.0002,0.5734 -13.411,7.428 -13.362,7.428 0.0467,0 -0.94184,0.21671 -1.3786,0 0,0 -12.329,-6.8962 -13.362,-7.428 z"
     fill="#ffffff"
     stroke-width="0.029302"
     p-id="54844"
     id="path884"
     style="image-rendering:optimizeSpeed" />
</svg>
