<?xml version="1.0" encoding="UTF-8"?>
<svg width="64" height="64" version="1.1" viewBox="0 0 16.933 16.933" xmlns="http://www.w3.org/2000/svg" xmlns:cc="http://creativecommons.org/ns#" xmlns:dc="http://purl.org/dc/elements/1.1/" xmlns:rdf="http://www.w3.org/1999/02/22-rdf-syntax-ns#" xmlns:xlink="http://www.w3.org/1999/xlink">
 <defs>
  <filter id="filter1057" x="-.027" y="-.027" width="1.054" height="1.054" color-interpolation-filters="sRGB">
   <feGaussianBlur stdDeviation="0.61875"/>
  </filter>
  <linearGradient id="linearGradient1053" x1="-127" x2="-72" y1="60" y2="5" gradientTransform="matrix(.26458 0 0 .26458 35.208 4.0134)" gradientUnits="userSpaceOnUse">
   <stop stop-color="#a0b9cd" offset="0"/>
   <stop stop-color="#96b4c8" offset=".48567"/>
   <stop stop-color="#a0b9cd" offset="1"/>
  </linearGradient>
 </defs>
 <metadata>
  <rdf:RDF>
   <cc:Work rdf:about="">
    <dc:format>image/svg+xml</dc:format>
    <dc:type rdf:resource="http://purl.org/dc/dcmitype/StillImage"/>
    <dc:title/>
   </cc:Work>
  </rdf:RDF>
 </metadata>
 <g transform="translate(-.41577 -4.1483)" stroke-linecap="round">
  <rect transform="matrix(.26458 0 0 .26458 .41577 4.1483)" x="4.5" y="4.5" width="55" height="55" ry="15" fill="#141414" filter="url(#filter1057)" opacity=".3" stroke-width="2.7444"/>
  <rect x="1.6064" y="5.3389" width="14.552" height="14.552" ry="3.9687" fill="url(#linearGradient1053)" stroke-width=".72611"/>
  <rect x="5.5199" y="11.473" width="6.6173" height="4.3836" rx=".87341" ry=".87341" fill-opacity=".99992" opacity=".2" stroke-width="1.2298"/>
  <path d="m6.8981 8.6462-0.49609 0.49609 1.5056 1.505c-0.93732 0.03288-1.832 0.11267-2.6617 0.23195-0.21341 0.83504-0.33212 1.7579-0.33212 2.7279 0 0.97002 0.11876 1.8923 0.33212 2.7273 1.1134 0.16008 2.3433 0.24924 3.6366 0.24924 1.2934 0 2.5238-0.08915 3.6372-0.24924 0.21343-0.83502 0.33152-1.7573 0.33152-2.7273 0-0.97002-0.11809-1.8929-0.33152-2.7279-0.68836-0.09897-1.4215-0.17074-2.1865-0.21108l1.2778-1.2778-0.49609-0.49609-1.7405 1.7405c-0.16283-0.0027-0.32692-0.0042-0.49192-0.0042zm1.9844 2.9766c0.96999 0 1.8929 0.05905 2.7279 0.16576 0.16012 0.55668 0.24864 1.1719 0.24864 1.8186 0 0.64669-0.08856 1.2613-0.24864 1.818-0.83506 0.10671-1.7579 0.16636-2.7279 0.16636-0.97003 0-1.8923-0.05965-2.7273-0.16636-0.16005-0.55668-0.24924-1.1713-0.24924-1.818 0-0.6467 0.089175-1.2619 0.24924-1.8186 0.83504-0.10671 1.7573-0.16576 2.7273-0.16576z" fill="#fff" stroke-width="1.419"/>
 </g>
</svg>
