<?xml version="1.0" encoding="UTF-8"?>
<svg width="64" height="64" version="1.1" viewBox="0 0 16.933 16.933" xmlns="http://www.w3.org/2000/svg" xmlns:cc="http://creativecommons.org/ns#" xmlns:dc="http://purl.org/dc/elements/1.1/" xmlns:rdf="http://www.w3.org/1999/02/22-rdf-syntax-ns#" xmlns:xlink="http://www.w3.org/1999/xlink">
 <defs>
  <filter id="filter1057" x="-.027" y="-.027" width="1.054" height="1.054" color-interpolation-filters="sRGB">
   <feGaussianBlur stdDeviation="0.61875"/>
  </filter>
  <linearGradient id="linearGradient1053" x1="-127" x2="-72" y1="60" y2="5" gradientTransform="matrix(.26458 0 0 .26458 37.76 -.097139)" gradientUnits="userSpaceOnUse">
   <stop stop-color="#323741" offset="0"/>
   <stop stop-color="#465064" offset="1"/>
  </linearGradient>
  <filter id="filter999" x="-.2025" y="-.162" width="1.405" height="1.324" color-interpolation-filters="sRGB">
   <feGaussianBlur stdDeviation="0.71436"/>
  </filter>
  <linearGradient id="e-3" x1="24.705" x2="24.705" y1="43.939" y2="3.8297" gradientTransform="matrix(.26459 0 0 .26459 5.0838 2.1548)" gradientUnits="userSpaceOnUse">
   <stop stop-color="#008c28" offset="0"/>
   <stop stop-color="#00d25a" offset="1"/>
  </linearGradient>
 </defs>
 <metadata>
  <rdf:RDF>
   <cc:Work rdf:about="">
    <dc:format>image/svg+xml</dc:format>
    <dc:type rdf:resource="http://purl.org/dc/dcmitype/StillImage"/>
    <dc:title/>
   </cc:Work>
  </rdf:RDF>
 </metadata>
 <g transform="translate(-2.9671 -.037798)">
  <rect transform="matrix(.26458 0 0 .26458 2.9671 .037798)" x="4.5" y="4.5" width="55" height="55" ry="15" fill="#141414" filter="url(#filter1057)" opacity=".3" stroke-linecap="round" stroke-width="2.7444"/>
  <rect x="4.1577" y="1.2284" width="14.552" height="14.552" ry="3.9687" fill="url(#linearGradient1053)" stroke-linecap="round" stroke-width=".72611"/>
  <g fill="#00cf58" stroke-width=".26458">
   <path transform="matrix(1 0 0 1 2.9671 .037798)" d="m4.2332 7.2704c0 2.7225 2.2479 6.4877 4.2332 6.4877 1.869 0 4.2333-3.7655 4.2333-6.4877 0-2.7225-1.8953-4.0954-4.2333-4.0954s-4.2332 1.3728-4.2332 4.0954z" filter="url(#filter999)"/>
   <path transform="matrix(1 0 0 1 2.9671 .037798)" d="m9.626 9.097c0.53461-0.53461 1.2805-0.72902 1.9689-0.58353 0.14548 0.68838-0.04894 1.4343-0.58353 1.9688-0.53461 0.53461-1.2805 0.72902-1.9688 0.58353-0.1455-0.6884 0.048934-1.4343 0.58353-1.9688z" filter="url(#filter999)"/>
   <path transform="matrix(1 0 0 1 2.9671 .037798)" d="m5.3382 8.5496c0.68838-0.14346 1.4343 0.048256 1.9688 0.57543 0.53461 0.52717 0.72902 1.2627 0.58353 1.9415-0.68838 0.14346-1.4343-0.048253-1.9689-0.57543-0.53461-0.5272-0.72902-1.2627-0.58353-1.9415z" filter="url(#filter999)"/>
  </g>
  <g stroke-width=".26458">
   <path d="m7.2004 7.3083c0 2.7226 2.2479 6.4878 4.2333 6.4878 1.869 0 4.2334-3.7656 4.2334-6.4878 0-2.7226-1.8953-4.0955-4.2334-4.0955-2.338 0-4.2333 1.3728-4.2333 4.0955z" fill="url(#e-3)"/>
   <path d="m12.593 9.135c0.53462-0.53462 1.2805-0.72903 1.9689-0.58354 0.14548 0.68839-0.04894 1.4343-0.58354 1.9688-0.53462 0.53462-1.2805 0.72903-1.9688 0.58354-0.1455-0.68841 0.04894-1.4343 0.58354-1.9688z" fill="#363636"/>
   <path d="m8.3054 8.5876c0.68839-0.14346 1.4343 0.048257 1.9688 0.57544 0.53462 0.52718 0.72903 1.2627 0.58354 1.9415-0.68839 0.14346-1.4343-0.048254-1.9689-0.57544-0.53462-0.52721-0.72903-1.2627-0.58354-1.9415z" fill="#363636"/>
  </g>
 </g>
</svg>
