<?xml version="1.0" encoding="UTF-8"?>
<svg width="64" height="64" version="1.1" viewBox="0 0 16.933 16.933" xmlns="http://www.w3.org/2000/svg" xmlns:cc="http://creativecommons.org/ns#" xmlns:dc="http://purl.org/dc/elements/1.1/" xmlns:rdf="http://www.w3.org/1999/02/22-rdf-syntax-ns#" xmlns:xlink="http://www.w3.org/1999/xlink">
 <defs>
  <filter id="filter1057-3" x="-.027" y="-.027" width="1.054" height="1.054" color-interpolation-filters="sRGB">
   <feGaussianBlur stdDeviation="0.61875"/>
  </filter>
  <linearGradient id="linearGradient1053-6" x1="-127" x2="-72" y1="60" y2="5" gradientTransform="matrix(.26458 0 0 .26458 37.051 1.2643)" gradientUnits="userSpaceOnUse">
   <stop stop-color="#32507d" offset="0"/>
   <stop stop-color="#2878b9" stop-opacity=".99608" offset="1"/>
  </linearGradient>
  <filter id="filter1461" x="-.076364" y="-.094212" width="1.1527" height="1.1884" color-interpolation-filters="sRGB">
   <feGaussianBlur stdDeviation="0.39452985"/>
  </filter>
  <linearGradient id="linearGradient910" x1="4.1298" x2="13.323" y1="16.329" y2="4.3843" gradientTransform="matrix(1 0 0 1 2.2023 1.54)" gradientUnits="userSpaceOnUse">
   <stop stop-color="#2878b4" offset="0"/>
   <stop stop-color="#14a5ff" offset="1"/>
  </linearGradient>
  <linearGradient id="linearGradient914" x1="27.04" x2="24.839" y1="16.621" y2="17.991" gradientTransform="matrix(.3447 0 0 .3447 1.1784 3.4728)" gradientUnits="userSpaceOnUse">
   <stop stop-color="#fcfcfc" offset="0"/>
   <stop stop-color="#c7c7c7" offset="1"/>
  </linearGradient>
  <linearGradient id="linearGradient916" x1="3.783" x2="19.574" y1="23.644" y2="22.495" gradientTransform="matrix(.3447 0 0 .3447 1.1784 3.4728)" gradientUnits="userSpaceOnUse">
   <stop stop-color="#2980b9" offset="0"/>
   <stop stop-color="#34495e" offset="1"/>
  </linearGradient>
 </defs>
 <metadata>
  <rdf:RDF>
   <cc:Work rdf:about="">
    <dc:format>image/svg+xml</dc:format>
    <dc:type rdf:resource="http://purl.org/dc/dcmitype/StillImage"/>
    <dc:title/>
   </cc:Work>
  </rdf:RDF>
 </metadata>
 <g transform="translate(-2.2584 -1.5497)">
  <rect transform="matrix(.26458 0 0 .26458 2.2584 1.3992)" x="4.5" y="4.5" width="55" height="55" ry="15" fill="#141414" filter="url(#filter1057-3)" opacity=".3" stroke-linecap="round" stroke-width="2.7444"/>
  <rect x="3.449" y="2.5899" width="14.552" height="14.552" ry="3.9687" fill="url(#linearGradient1053-6)" stroke-linecap="round" stroke-width=".72611"/>
  <path transform="matrix(.25369 0 0 .23675 -17.711 3.0493)" d="m129.58 21.963c-0.12751 3.25e-4 -0.26165 0.0078-0.40235 0.0293-2.246 0.34524-7.3539 2.2459-8.9668 2.6484-1.6116 0.40256-2.3664 0.76446-4.9512 0.51953-2.9469-0.2788-4.2717-0.29754-5.0469-0.27539-1.1608-0.10292-1.7461-0.35742-1.7461-0.35742l0.10156 1.1426c-0.77126 0.58886-2.3251 1.4461-5.5156 2.3125-2.0727 0.2306-3.7989-0.40396-4.8359 0.17188-1.0357 0.57584-4.3181 2.0154-5.9883 2.418-1.6702 0.40256-2.9064 1.158-3.9082 1.4863-1.5907 0.51851 3.1525 8.1199 5.2109 9.1191 0 0-0.71261 0.74053-1.3027 1.3594-1.4318 0.9784-2.5605 1.043-2.5605 1.043l0.07227 0.78516c-1.2494 0.66385-2.4897 1.0604-3.2617 1.25 0.83663 11.481 4.6693 13.355 18.814 13.355h11.26c0.0237-0.18202 0.0669-0.44464 0.0801-0.58203 0.56541-0.83118 1.3262-0.8418 1.3262-0.8418s-0.97726-2.7697-0.88086-6.1035c0.12116-0.7908 0.32734-1.5354 0.5879-2.2441h0.98437s-0.12465-1.3599 0.43164-2.7422c1.8304-2.7828 4.3295-4.6428 5.3965-5.4609 1.0058-0.77256 5.6407-1.9569 6.6191-2.1875 0.97838-0.2306 1.8997-1.7869 1.957-2.248s-0.28712-1.3242-0.28712-1.3242l-2.5898-0.57422-3.1348-0.35352s4.303-6.3746 5.0781-7.1133c0.82206-0.78298 1.2227-1.7469 1.2227-2.668s-0.67773-2.1602-0.67773-2.1602-0.77864-0.39391-2.0488-0.3457c-0.21236 0.0078-0.43021-0.02146-0.66602-0.04102h-4e-3c-0.1179-0.0098-0.23968-0.0179-0.36719-0.01758z" enable-background="new" fill="#0078c8" filter="url(#filter1461)" stroke-width="3.7796"/>
  <g fill="#006ec8" fill-rule="evenodd" stroke-width=".76758">
   <path transform="matrix(.33051 0 0 .30843 2.0499 4.7787)" d="m42.25 12s-0.313-0.281-0.656-0.313c-0.344-0.031-1.063 0.094-1.281 0.063-0.219-0.031-0.969-0.469-0.969-0.469s1-0.563 1.344-0.625c0.344-0.063 0.938-0.156 0.938-0.156s0.25 0.313 0.438 0.75c0.188 0.438 0.188 0.75 0.188 0.75" filter="url(#filter1461)"/>
   <path transform="matrix(.33051 0 0 .30843 2.0499 4.7787)" d="m40.987 21.23c-0.675 0.09-0.805 0.015-0.805 0.015s0.156-0.707 0.325-0.767 0.662 0.707 0.48 0.752" filter="url(#filter1461)"/>
   <path transform="matrix(.33051 0 0 .30843 2.0499 4.7787)" d="m41.906 14.969s-2.219 1.063-3.281 2.719c-1.063 1.656-1.813 3.344-1.813 3.344s0.75 0.156 1.438 0.406 1.938 0.313 2.469 0.219 0.688-0.344 0.156-0.563c-0.531-0.219-1.313-0.375-1.344-0.844s0.969-3.188 1.25-3.625c0.281-0.438 1.125-1.656 1.125-1.656" filter="url(#filter1461)"/>
   <path transform="matrix(.33051 0 0 .30843 2.0499 4.7787)" d="m22.438 20.375s2.749-0.414 3.796-1.04c3.414-2.04 3.298-3.179 3.298-3.179s-3.611-1.445-6.108 1.534c-1.045 1.247-0.986 2.685-0.986 2.685" filter="url(#filter1461)"/>
   <path transform="matrix(.33051 0 0 .30843 2.0499 4.7787)" d="m23.467 19.14s2.74-0.552 3.757-1.304c1.016-0.751 1.436-1.149 1.304-1.414-0.133-0.265-1.127-0.663-2.364-0.354s-2.121 1.193-2.364 1.746c-0.243 0.552-0.486 1.149-0.331 1.326" filter="url(#filter1461)"/>
   <path transform="matrix(.33051 0 0 .30843 2.0499 4.7787)" d="m38.956 21.676c1.01 0.116 1.2 0.019 1.2 0.019s-0.232-0.91-0.484-0.987-0.987 0.91-0.716 0.968" filter="url(#filter1461)"/>
   <path transform="matrix(.33051 0 0 .30843 2.0499 4.7787)" d="m12.298 24.795c1.01 0.774 3.56 1.23 4.811 1.048 2.951-0.431 3.103-0.21 2.391-2.093-0.514-1.359-3.5-2.75-5.5-0.75l-1-1c0.593-0.854-0.5-2.844-1-3s-2.859 0.486-3.078 0.705 2.369 4.317 3.376 5.091" filter="url(#filter1461)"/>
  </g>
  <path d="m14.854 7.3508v5.292e-4c-0.03374 8.6e-5 -0.06923 0.00206-0.10645 0.00775-0.59426 0.091346-1.9457 0.59424-2.3725 0.70073-0.42641 0.10652-0.6261 0.20227-1.31 0.13746-0.77971-0.073766-1.1302-0.078724-1.3353-0.072864-0.30713-0.027231-0.46199-0.094568-0.46199-0.094568l0.026872 0.30231c-0.20406 0.1558-0.61518 0.38261-1.4593 0.61185-0.54841 0.061014-1.0051-0.10688-1.2795 0.045475-0.27403 0.15236-1.1425 0.53323-1.5844 0.63975-0.44191 0.10651-0.76898 0.30639-1.034 0.39326-0.42088 0.13719 0.8341 2.1484 1.3787 2.4128 0 0-0.18855 0.19592-0.34468 0.35967-0.37883 0.25887-0.67748 0.27595-0.67748 0.27595l0.01912 0.20774c-0.32055 0.17032-0.6345 0.27162-0.83974 0.32349 0.19166 1.7968 1.573 3.2234 3.3455 3.4902 0.44415 0.03285 0.94212 0.04812 1.5059 0.04961h3.0825c0.0063-0.04812 0.01772-0.11685 0.02119-0.15296 0.1496-0.21992 0.35088-0.22324 0.35088-0.22324s-0.25857-0.73281-0.23306-1.6149c0.03206-0.20923 0.08661-0.40625 0.15555-0.59376h0.26045s-0.03298-0.3598 0.11421-0.72554c0.4843-0.73629 1.1455-1.2284 1.4278-1.4449 0.26612-0.20441 1.4924-0.51776 1.7513-0.57878 0.25887-0.06101 0.50264-0.4728 0.5178-0.5948 0.01516-0.122-0.07596-0.35037-0.07596-0.35037l-0.68523-0.15193-0.82941-0.09353s1.1385-1.6866 1.3436-1.8821c0.2175-0.20716 0.3235-0.46219 0.3235-0.7059 0-0.24371-0.17932-0.57154-0.17932-0.57154s-0.20602-0.10422-0.54209-0.091468c-0.05619 0.00206-0.11382-0.00568-0.17622-0.010853h-1e-3c-0.03119-0.00259-0.06341-0.00474-0.09715-0.00465z" fill="url(#linearGradient910)" stroke-width=".26458"/>
  <g fill-rule="evenodd" stroke-width=".26458">
   <path d="m15.742 7.6091s-0.10789-0.09686-0.22612-0.10789c-0.11858-0.010685-0.36641 0.032402-0.44156 0.021715-0.07549-0.010685-0.33401-0.16166-0.33401-0.16166s0.3447-0.19406 0.46327-0.21544c0.11858-0.021715 0.32332-0.053773 0.32332-0.053773s0.08617 0.10789 0.15098 0.25852c0.0648 0.15098 0.0648 0.25852 0.0648 0.25852" fill="#2c3e50"/>
   <path d="m15.306 10.791c-0.23267 0.03102-0.27748 0.0052-0.27748 0.0052s0.05377-0.2437 0.11203-0.26438c0.05825-0.02068 0.22819 0.2437 0.16546 0.25921" fill="#fcfcfc"/>
   <path d="m15.623 8.6325s-0.76488 0.36641-1.131 0.93723c-0.36641 0.57082-0.62494 1.1527-0.62494 1.1527s0.25852 0.05377 0.49567 0.13995c0.23715 0.08617 0.66802 0.10789 0.85106 0.07549s0.23715-0.11858 0.05377-0.19406c-0.18303-0.07549-0.45258-0.12926-0.46327-0.29092-0.01069-0.16166 0.33401-1.0989 0.43087-1.2495 0.09686-0.15098 0.38778-0.57082 0.38778-0.57082" fill="#2c3e50"/>
   <path d="m8.9127 10.496s0.94757-0.1427 1.3085-0.35848c1.1768-0.70318 1.1368-1.0958 1.1368-1.0958s-1.2447-0.49809-2.1054 0.52876c-0.36021 0.42984-0.33987 0.92551-0.33987 0.92551" fill="#34495e"/>
   <path d="m9.2674 10.07s0.94447-0.19027 1.295-0.44948c0.35021-0.25887 0.49498-0.39606 0.44948-0.4874-0.045844-0.091345-0.38847-0.22853-0.81486-0.12202-0.42639 0.10651-0.7311 0.41122-0.81486 0.60184-0.083761 0.19027-0.16752 0.39606-0.11409 0.45707" fill="url(#linearGradient914)"/>
   <path d="m14.606 10.944c0.34814 0.03998 0.41364 0.0066 0.41364 0.0066s-0.07997-0.31367-0.16683-0.34022c-0.08686-0.02654-0.34022 0.31367-0.2468 0.33367" fill="#fcfcfc"/>
   <path d="m5.4175 12.02c0.34814 0.2668 1.2271 0.42398 1.6583 0.36124 1.0172-0.14856 1.0696-0.072387 0.82417-0.72145-0.17717-0.46844-1.2064-0.94792-1.8958-0.25852l-0.3447-0.3447c0.20441-0.29437-0.17235-0.98032-0.3447-1.0341-0.17235-0.053773-0.98549 0.16752-1.061 0.24301-0.075489 0.07549 0.81659 1.4881 1.1637 1.7549" fill="url(#linearGradient916)"/>
  </g>
 </g>
</svg>
