<?xml version="1.0" encoding="UTF-8" standalone="no"?>
<svg
   xmlns:dc="http://purl.org/dc/elements/1.1/"
   xmlns:cc="http://creativecommons.org/ns#"
   xmlns:rdf="http://www.w3.org/1999/02/22-rdf-syntax-ns#"
   xmlns:svg="http://www.w3.org/2000/svg"
   xmlns="http://www.w3.org/2000/svg"
   xmlns:xlink="http://www.w3.org/1999/xlink"
   xmlns:sodipodi="http://sodipodi.sourceforge.net/DTD/sodipodi-0.dtd"
   xmlns:inkscape="http://www.inkscape.org/namespaces/inkscape"
   inkscape:version="1.0 (4035a4fb49, 2020-05-01)"
   sodipodi:docname="amazon-store.svg"
   id="svg28"
   viewBox="0 0 16.933 16.933"
   version="1.1"
   height="64"
   width="64">
  <sodipodi:namedview
     inkscape:current-layer="svg28"
     inkscape:window-maximized="1"
     inkscape:window-y="0"
     inkscape:window-x="0"
     inkscape:cy="66.666943"
     inkscape:cx="22.846175"
     inkscape:zoom="4.5078057"
     showgrid="false"
     id="namedview30"
     inkscape:window-height="985"
     inkscape:window-width="1920"
     inkscape:pageshadow="2"
     inkscape:pageopacity="0"
     guidetolerance="10"
     gridtolerance="10"
     objecttolerance="10"
     borderopacity="1"
     bordercolor="#666666"
     pagecolor="#ffffff" />
  <defs
     id="defs10">
    <filter
       color-interpolation-filters="sRGB"
       height="1.048"
       width="1.048"
       y="-.024"
       x="-.024"
       id="filter2761">
      <feGaussianBlur
         id="feGaussianBlur2"
         stdDeviation="0.14552168" />
    </filter>
    <linearGradient
       gradientUnits="userSpaceOnUse"
       y2="1.17"
       y1="15.576"
       x2="15.65"
       x1="1.3315"
       id="linearGradient1024-6">
      <stop
         id="stop5"
         offset="0"
         stop-color="#dddfe1" />
      <stop
         id="stop7"
         offset="1"
         stop-opacity=".99608"
         stop-color="#f3f4f6" />
    </linearGradient>
    <filter
       inkscape:collect="always"
       style="color-interpolation-filters:sRGB"
       id="filter1057"
       x="-0.027000001"
       width="1.054"
       y="-0.027000001"
       height="1.054">
      <feGaussianBlur
         inkscape:collect="always"
         stdDeviation="0.61875"
         id="feGaussianBlur1059" />
    </filter>
    <linearGradient
       inkscape:collect="always"
       xlink:href="#linearGradient1051"
       id="linearGradient1053"
       x1="-127"
       y1="60"
       x2="-72"
       y2="5"
       gradientUnits="userSpaceOnUse"
       gradientTransform="matrix(0.26457812,0,0,0.26457812,34.792023,-0.13493415)" />
    <linearGradient
       inkscape:collect="always"
       id="linearGradient1051">
      <stop
         style="stop-color:#dee0e2;stop-opacity:1"
         offset="0"
         id="stop1047" />
      <stop
         style="stop-color:#f1f3f5;stop-opacity:0.99607843"
         offset="1"
         id="stop1049" />
    </linearGradient>
  </defs>
  <metadata
     id="metadata12">
    <rdf:RDF>
      <cc:Work
         rdf:about="">
        <dc:format>image/svg+xml</dc:format>
        <dc:type
           rdf:resource="http://purl.org/dc/dcmitype/StillImage" />
        <dc:title></dc:title>
      </cc:Work>
    </rdf:RDF>
  </metadata>
  <rect
     transform="matrix(0.26457812,0,0,0.26457812,0.79770305,0.79770305)"
     ry="15"
     y="1.485"
     x="1.485"
     height="55"
     width="55"
     id="rect1055"
     style="opacity:0.3;fill:#141414;fill-opacity:1;stroke-width:2.74436;stroke-linecap:round;filter:url(#filter1057)" />
  <rect
     style="fill:url(#linearGradient1053);fill-opacity:1;stroke-width:0.726098;stroke-linecap:round"
     id="rect1045"
     width="14.551796"
     height="14.551796"
     x="1.1906021"
     y="1.1906021"
     ry="3.9686716" />
  <g
     id="g26"
     fill-rule="evenodd"
     transform="matrix(1.5985 0 0 1.5985 -5.1852 -454.67)">
    <g
       id="g22"
       fill="#f90"
       transform="translate(1.2191,1.9303)">
      <path
         id="path18"
         d="m9.9947 289.59c-0.72465 0.53412-1.775 0.8191-2.6793 0.8191-1.268 0-2.4095-0.46899-3.2732-1.249-0.067851-0.0613-0.00706-0.14493 0.074365-0.0972 0.93201 0.54227 2.0844 0.8685 3.2748 0.8685 0.80282 0 1.686-0.1661 2.498-0.51078 0.12268-0.0521 0.22527 0.0803 0.10531 0.16936" />
      <path
         id="path20"
         d="m10.296 289.25c-0.09228-0.11833-0.61229-0.0559-0.8457-0.0282-0.071109 9e-3 -0.081964-0.0532-0.017913-0.0977 0.41417-0.29149 1.0938-0.20736 1.173-0.10965 0.07925 0.0983-0.02063 0.77948-0.40982 1.1046-0.05971 0.0499-0.1167 0.0233-0.09011-0.0429 0.08739-0.21821 0.28335-0.70728 0.19053-0.82616" />
    </g>
    <path
       id="path24"
       fill="#221f1f"
       d="m8.95 289.29c0 0.28622 0.00723 0.52491-0.13743 0.77912-0.11676 0.20666-0.30276 0.33374-0.50839 0.33374-0.28209 0-0.44742-0.21493-0.44742-0.53214 0-0.62619 0.56109-0.73985 1.0932-0.73985v0.15913m0.74088 1.7907c-0.048566 0.0434-0.11883 0.0465-0.17359 0.0171-0.24386-0.20254-0.28829-0.29656-0.42159-0.4898-0.40299 0.41126-0.68922 0.53423-1.211 0.53423-0.61895 0-1.0994-0.38129-1.0994-1.1449 0-0.59622 0.32239-1.0023 0.78325-1.2007 0.39886-0.1757 0.95581-0.20666 1.3815-0.25523v-0.0949c0-0.17456 0.013439-0.38129-0.089898-0.53216-0.088865-0.13535-0.26039-0.19116-0.41229-0.19116-0.28003 0-0.52905 0.14373-0.59002 0.44122-0.012392 0.066-0.060965 0.13116-0.12813 0.1344l-0.71195-0.0766c-0.059932-0.0133-0.1271-0.062-0.10953-0.154 0.16326-0.86385 0.94444-1.1242 1.643-1.1242 0.35752 0 0.82458 0.095 1.1067 0.36579 0.35752 0.33377 0.32343 0.77911 0.32343 1.2637v1.1449c0 0.34411 0.1426 0.49496 0.27693 0.68096 0.0465 0.066 0.05683 0.14563-0.0031 0.1953-0.14983 0.12506-0.41642 0.35751-0.56315 0.4877l-0.00103-2e-3" />
  </g>
</svg>
