<?xml version="1.0" encoding="UTF-8"?>
<svg width="64" height="64" version="1.1" xmlns="http://www.w3.org/2000/svg" xmlns:cc="http://creativecommons.org/ns#" xmlns:dc="http://purl.org/dc/elements/1.1/" xmlns:rdf="http://www.w3.org/1999/02/22-rdf-syntax-ns#" xmlns:xlink="http://www.w3.org/1999/xlink">
 <metadata>
  <rdf:RDF>
   <cc:Work rdf:about="">
    <dc:format>image/svg+xml</dc:format>
    <dc:type rdf:resource="http://purl.org/dc/dcmitype/StillImage"/>
    <dc:title/>
   </cc:Work>
  </rdf:RDF>
 </metadata>
 <defs>
  <style type="text/css"/>
  <style type="text/css"/>
  <style type="text/css"/>
  <style type="text/css"/>
  <filter id="filter1057" x="-.027" y="-.027" width="1.054" height="1.054" color-interpolation-filters="sRGB">
   <feGaussianBlur stdDeviation="0.61875"/>
  </filter>
  <linearGradient id="linearGradient1053" x1="-127" x2="-72" y1="60" y2="5" gradientTransform="translate(131.5 -.51)" gradientUnits="userSpaceOnUse">
   <stop stop-color="#02db96" offset="0"/>
   <stop stop-color="#13d39b" offset="1"/>
  </linearGradient>
  <style type="text/css"/>
  <style type="text/css"/>
  <style type="text/css"/>
 </defs>
 <g>
  <rect x="4.5" y="4.5" width="55" height="55" ry="15" fill="#141414" filter="url(#filter1057)" opacity=".3" stroke-linecap="round" stroke-width="2.7444"/>
  <rect x="4.5" y="4.5" width="55" height="55" ry="15" fill="url(#linearGradient1053)" stroke-linecap="round" stroke-width="2.7444"/>
  <path d="m46.606 42.388c-0.45375-0.59625-3.0075-0.28375-4.15-0.14125-0.35125 0.04375-0.405-0.26875-0.0875-0.49375 2.0312-1.465 5.3713-1.045 5.7563-0.55125 0.39125 0.49375-0.0975 3.9213-2.0113 5.5563-0.2925 0.25375-0.57125 0.1175-0.44-0.215 0.425-1.0987 1.3912-3.56 0.9325-4.155m-1.48 1.735c-3.56 2.685-8.7163 4.1213-13.159 4.1213-6.225 0-11.831-2.3588-16.074-6.2875-0.3325-0.3075-0.03376-0.7275 0.36625-0.48875 4.575 2.73 10.239 4.37 16.084 4.37 3.94 0 8.2812-0.835 12.266-2.5738 0.605-0.25875 1.1088 0.405 0.5175 0.855m-10.801-14.406c0 1.7088 0.04375 3.13-0.78125 4.6438-0.66375 1.23-1.7188 1.9875-2.895 1.9875-1.6062 0-2.5387-1.2788-2.5387-3.1688 0-3.73 3.1937-4.4088 6.2162-4.4088v0.9475m4.2188 10.664c-0.27375 0.25875-0.67375 0.27875-0.98625 0.1075-1.3862-1.2062-1.6362-1.7675-2.4025-2.92-2.295 2.4513-3.9163 3.1838-6.895 3.1838-3.52 0-6.2625-2.27-6.2625-6.8162 0-3.55 1.8412-5.9713 4.4575-7.1538 2.2663-1.045 5.44-1.23 7.8663-1.5187v-0.56625c0-1.04 0.07875-2.27-0.5025-3.1688-0.5125-0.80625-1.4888-1.1375-2.3487-1.1375-1.5962 0-3.0175 0.855-3.3638 2.6275-0.07375 0.395-0.34625 0.78125-0.7275 0.80125l-4.0575-0.45375c-0.34125-0.0825-0.7175-0.37125-0.625-0.9175 0.9375-5.1363 5.3812-6.69 9.355-6.69 2.0362 0 4.6975 0.56625 6.3 2.1775 2.0363 1.9875 1.8412 4.6387 1.8412 7.525v6.8162c0 2.0513 0.81 2.9488 1.5775 4.0575 0.26875 0.39125 0.3275 0.86875-0.01 1.1625-0.855 0.7525-2.3725 2.1288-3.2075 2.905l-0.01501-0.01501" fill="#fff" fill-rule="evenodd" stroke-width=".33891"/>
 </g>
 <circle cx="-1330.8" cy="-1261.2" r="0" fill="#5e4aa6"/>
 <g transform="translate(-87.726 -31.29)" fill="#5e4aa6">
  <circle cx="-1248.7" cy="-1241.6" r="0"/>
  <circle cx="-149.15" cy="23.855" r="0" fill-rule="evenodd"/>
  <circle cx="-1248.7" cy="-1241.6" r="0"/>
  <circle cx="-149.15" cy="23.855" r="0" fill-rule="evenodd"/>
  <circle cx="-1150.9" cy="-1256.6" r="0"/>
  <circle cx="-51.327" cy="8.8744" r="0" fill-rule="evenodd"/>
  <g transform="matrix(3.7796,0,0,3.7796,167.86,4.61)" stroke-width=".26458">
   <g transform="translate(-.0272 .0065001)">
    <circle cx="-330.35" cy="-328.38" r="0"/>
    <circle cx="-312.11" cy="-326.25" r="0"/>
    <circle cx="-306.02" cy="-333.07" r="0"/>
    <circle cx="-308.84" cy="-326.01" r="0"/>
    <circle cx="-330.35" cy="-328.38" r="0"/>
    <circle cx="-312.11" cy="-326.25" r="0"/>
    <circle cx="-306.02" cy="-333.07" r="0"/>
    <circle cx="-308.84" cy="-326.01" r="0"/>
   </g>
   <g transform="translate(-.02705 .0064503)">
    <circle cx="-330.35" cy="-328.38" r="0"/>
    <circle cx="-312.11" cy="-326.25" r="0"/>
    <circle cx="-306.02" cy="-333.07" r="0"/>
    <circle cx="-308.84" cy="-326.01" r="0"/>
   </g>
  </g>
 </g>
</svg>
