<?xml version="1.0" encoding="UTF-8"?>
<svg width="64" height="64" version="1.1" viewBox="0 0 16.933 16.933" xmlns="http://www.w3.org/2000/svg" xmlns:cc="http://creativecommons.org/ns#" xmlns:dc="http://purl.org/dc/elements/1.1/" xmlns:rdf="http://www.w3.org/1999/02/22-rdf-syntax-ns#" xmlns:xlink="http://www.w3.org/1999/xlink">
 <defs>
  <filter id="filter2076" x="-.048" y="-.048" width="1.096" height="1.096" color-interpolation-filters="sRGB">
   <feGaussianBlur stdDeviation="1.1"/>
  </filter>
  <linearGradient id="linearGradient2070" x1="145" x2="200" y1="59" y2="4" gradientTransform="matrix(.26459 0 0 .26459 -37.175 .13219)" gradientUnits="userSpaceOnUse">
   <stop stop-color="#00c8ff" offset="0"/>
   <stop stop-color="#14a0ff" offset="1"/>
  </linearGradient>
  <radialGradient id="radialGradient1869" cx="16.468" cy="13.481" r="4.6708" gradientTransform="matrix(1.602 .070709 -.093416 2.1164 -16.95 -24.721)" gradientUnits="userSpaceOnUse">
   <stop stop-color="#fff" offset="0"/>
   <stop stop-color="#fff" offset=".6542"/>
   <stop stop-color="#78c9f4" offset=".79884"/>
   <stop stop-color="#27b2f6" offset=".91774"/>
   <stop stop-color="#30b1eb" offset=".94286"/>
   <stop stop-color="#2ca6ec" offset="1"/>
  </radialGradient>
 </defs>
 <metadata>
  <rdf:RDF>
   <cc:Work rdf:about="">
    <dc:format>image/svg+xml</dc:format>
    <dc:type rdf:resource="http://purl.org/dc/dcmitype/StillImage"/>
    <dc:title/>
   </cc:Work>
  </rdf:RDF>
 </metadata>
 <rect transform="matrix(.26459 0 0 .26459 -5.9728e-5 -5.9728e-5)" x="4.5" y="4.5" width="55" height="55" rx="13.002" ry="13.002" filter="url(#filter2076)" opacity=".3"/>
 <rect x="1.1905" y="1.1905" width="14.552" height="14.552" rx="3.4402" ry="3.4402" fill="url(#linearGradient2070)" stroke-width=".26458"/>
 <path d="m7.6776 12.845c-0.98333-0.10056-1.668-0.38193-2.174-0.89289-0.20458-0.20652-0.34339-0.39632-0.45873-0.6272-0.24436-0.48842-0.32085-1.0378-0.20132-1.4442 0.11892-0.40406 0.38938-0.84963 0.77008-1.2688 0.21141-0.23242 0.3184-0.38347 0.4162-0.57324 0.1179-0.22875 0.13065-0.38193 0.12075-0.59438-0.0096882-0.20611-0.053847-0.29474-0.16695-0.38877-0.10708-0.088625-0.15134-0.13788-0.4829-0.12187-0.3236 0.015402-0.48229-0.0043949-0.63692-0.078937-0.11983-0.057929-0.16236-0.1234-0.12524-0.19326 0.19275-0.15032 0.26026-0.31473 0.47209-0.39132-0.30993-0.26435-0.61602-0.54091-0.62661-0.93582 0.021823-0.21152 0.21754-0.16063 0.21754-0.16063 0.30687 0.062212 0.62407 0.12473 0.91306 0.13441 0.083117-0.011216 0.17072-0.033348 0.19469-0.049257 0.023966-0.015807 0.089338-0.10953 0.14523-0.20825 0.21784-0.38479 0.44853-0.63335 0.70709-0.76144 0.2978-0.14758 0.7192-0.22661 1.1191-0.20968 0.48086 0.020193 0.88923 0.18653 1.2227 0.49779 0.22927 0.21386 0.38102 0.2674 0.59907 0.21121 0.15339-0.03957 0.15685-0.039366 0.15685 0.00877 0 0.063232-0.05048 0.14512-0.12789 0.20764l-0.07139 0.057622 0.0719 0.042733c0.09913 0.058847 0.0874 0.10617-0.0305 0.1231-0.09821 0.014176-0.17184 0.046708-0.17184 0.076081 0 0.010303 0.014073 0.10005 0.031312 0.19938 0.042323 0.24364 0.027229 0.71573-0.030188 0.94866-0.08903 0.36123-0.22406 0.61567-0.45434 0.8572-0.17919 0.16297-0.68545 0.49716-0.73277 0.52695 0.022233 0 0.21611-0.011319 0.34594 1.05e-4 0.47525 0.042123 0.80622 0.12228 1.2835 0.34461 0.45078 0.21009 0.64229 0.23273 0.89177 0.10545 0.1592-0.08118 0.38703-0.25435 0.55737-0.48392 0.14564-0.19612 0.23243-0.27944 0.36776-0.27944 0.13258 0 0.22773 0.0874 0.32809 0.24048 0.14207 0.21682 0.21948 0.37164 0.27464 0.74928 0.03937 0.26996 0.02835 0.90349-0.0205 1.1727-0.29178 1.6081-1.3181 2.6907-2.8848 3.0434-0.42283 0.09515-0.59326 0.11228-1.1792 0.11841-0.30402 0.0032-0.58764 0.0021-0.63027-0.0022z" fill="none" opacity=".252" stroke="#000" stroke-opacity=".0078431" stroke-width="3.1252"/>
 <path d="m7.644 12.848c-0.98333-0.10056-1.668-0.38194-2.174-0.89289-0.20458-0.20652-0.34339-0.39631-0.45873-0.6272-0.24436-0.48842-0.32085-1.0378-0.20132-1.4442 0.11892-0.40406 0.38938-0.84963 0.77008-1.2688 0.21141-0.23242 0.3184-0.38347 0.4162-0.57324 0.1179-0.22875 0.13064-0.38193 0.12075-0.59438-0.0096882-0.20611-0.053847-0.29474-0.16695-0.38877-0.10708-0.088625-0.15134-0.13788-0.4829-0.12187-0.3236 0.015401-0.48229-0.0043901-0.63692-0.078937-0.11983-0.057929-0.16236-0.1234-0.12524-0.19326 0.19275-0.15032 0.26026-0.31473 0.47209-0.39132-0.30993-0.26435-0.61602-0.54091-0.62661-0.93582 0.021823-0.21152 0.21754-0.16063 0.21754-0.16063 0.30687 0.062212 0.62407 0.12473 0.91306 0.13441 0.083117-0.011216 0.17072-0.033348 0.19469-0.049257 0.023966-0.015807 0.089338-0.10953 0.14523-0.20825 0.21784-0.38479 0.44853-0.63335 0.70709-0.76144 0.2978-0.14758 0.7192-0.22661 1.1191-0.20968 0.48086 0.020193 0.88923 0.18653 1.2227 0.49779 0.22927 0.21386 0.38102 0.2674 0.59907 0.21121 0.15339-0.03957 0.15685-0.039366 0.15685 0.00877 0 0.063232-0.05048 0.14512-0.12789 0.20764l-0.07139 0.057622 0.0719 0.042733c0.09913 0.058847 0.0874 0.10617-0.0305 0.1231-0.098211 0.014176-0.17184 0.046708-0.17184 0.076081 0 0.010303 0.014073 0.10005 0.031312 0.19938 0.042323 0.24364 0.027229 0.71573-0.030188 0.94866-0.089029 0.36123-0.22406 0.61567-0.45434 0.8572-0.17919 0.16297-0.68545 0.49716-0.73277 0.52695 0.022234 0 0.21611-0.011319 0.34594 1.049e-4 0.47525 0.042123 0.80622 0.12228 1.2835 0.34461 0.45078 0.21009 0.64229 0.23273 0.89177 0.10545 0.1592-0.08118 0.38703-0.25435 0.55737-0.48392 0.14564-0.19612 0.23243-0.27944 0.36776-0.27944 0.13258 0 0.22773 0.0874 0.32809 0.24048 0.14207 0.21682 0.21948 0.37164 0.27464 0.74928 0.03937 0.26996 0.02835 0.90349-0.0205 1.1726-0.29178 1.6081-1.3181 2.6907-2.8848 3.0434-0.42283 0.09515-0.59326 0.11228-1.1792 0.11841-0.30402 0.0032-0.58764 0.0021-0.63027-0.0022z" fill="url(#radialGradient1869)" stroke-width=".026108"/>
</svg>
