<?xml version="1.0" encoding="UTF-8" standalone="no"?>
<svg
   xmlns:dc="http://purl.org/dc/elements/1.1/"
   xmlns:cc="http://creativecommons.org/ns#"
   xmlns:rdf="http://www.w3.org/1999/02/22-rdf-syntax-ns#"
   xmlns:svg="http://www.w3.org/2000/svg"
   xmlns="http://www.w3.org/2000/svg"
   xmlns:xlink="http://www.w3.org/1999/xlink"
   xmlns:sodipodi="http://sodipodi.sourceforge.net/DTD/sodipodi-0.dtd"
   xmlns:inkscape="http://www.inkscape.org/namespaces/inkscape"
   inkscape:version="1.0 (4035a4fb49, 2020-05-01)"
   sodipodi:docname="android-file-transfer.svg"
   id="svg41"
   viewBox="0 0 64 64"
   version="1.1"
   height="64"
   width="64">
  <sodipodi:namedview
     inkscape:current-layer="svg41"
     inkscape:window-maximized="1"
     inkscape:window-y="0"
     inkscape:window-x="0"
     inkscape:cy="51.32088"
     inkscape:cx="60.3178"
     inkscape:zoom="6.375"
     showgrid="false"
     id="namedview43"
     inkscape:window-height="985"
     inkscape:window-width="1920"
     inkscape:pageshadow="2"
     inkscape:pageopacity="0"
     guidetolerance="10"
     gridtolerance="10"
     objecttolerance="10"
     borderopacity="1"
     bordercolor="#666666"
     pagecolor="#ffffff" />
  <metadata
     id="metadata2">
    <rdf:RDF>
      <cc:Work
         rdf:about="">
        <dc:format>image/svg+xml</dc:format>
        <dc:type
           rdf:resource="http://purl.org/dc/dcmitype/StillImage" />
        <dc:title></dc:title>
      </cc:Work>
    </rdf:RDF>
  </metadata>
  <defs
     id="defs17">
    <linearGradient
       gradientTransform="translate(-116.822)"
       gradientUnits="userSpaceOnUse"
       y2="25.95"
       y1="59.192"
       x2="149.02"
       x1="149.02"
       id="linearGradient1047">
      <stop
         id="stop4"
         offset="0"
         stop-color="#16a085" />
      <stop
         id="stop6"
         offset="1"
         stop-color="#2ecc85" />
    </linearGradient>
    <filter
       color-interpolation-filters="sRGB"
       height="1.048"
       width="1.048"
       y="-.024"
       x="-.024"
       id="filter2761-3">
      <feGaussianBlur
         id="feGaussianBlur9"
         stdDeviation="0.14552168" />
    </filter>
    <linearGradient
       gradientUnits="userSpaceOnUse"
       gradientTransform="matrix(3.7796 0 0 3.7796 -.0026448 .53066)"
       y2="1.17"
       y1="15.576"
       x2="15.65"
       x1="1.3315"
       id="linearGradient1024">
      <stop
         id="stop12"
         offset="0"
         stop-color="#dddfe1" />
      <stop
         id="stop14"
         offset="1"
         stop-opacity=".99608"
         stop-color="#f3f4f6" />
    </linearGradient>
    <filter
       inkscape:collect="always"
       style="color-interpolation-filters:sRGB"
       id="filter1057"
       x="-0.027000001"
       width="1.054"
       y="-0.027000001"
       height="1.054">
      <feGaussianBlur
         inkscape:collect="always"
         stdDeviation="0.61875"
         id="feGaussianBlur1059" />
    </filter>
    <linearGradient
       inkscape:collect="always"
       xlink:href="#linearGradient1051"
       id="linearGradient1053"
       x1="-127"
       y1="60"
       x2="-72"
       y2="5"
       gradientUnits="userSpaceOnUse"
       gradientTransform="translate(131.5,-0.5099979)" />
    <linearGradient
       inkscape:collect="always"
       id="linearGradient1051">
      <stop
         style="stop-color:#dee0e2;stop-opacity:1"
         offset="0"
         id="stop1047" />
      <stop
         style="stop-color:#f1f3f5;stop-opacity:0.99607843"
         offset="1"
         id="stop1049" />
    </linearGradient>
    <linearGradient
       y2="25.95"
       x2="149.02"
       y1="59.192"
       x1="149.02"
       gradientTransform="translate(-116.822)"
       gradientUnits="userSpaceOnUse"
       id="linearGradient912"
       xlink:href="#linearGradient1047"
       inkscape:collect="always" />
  </defs>
  <rect
     ry="15"
     y="4.4999995"
     x="4.4999995"
     height="55"
     width="55"
     id="rect1055"
     style="opacity:0.3;fill:#141414;fill-opacity:1;stroke-width:2.74436;stroke-linecap:round;filter:url(#filter1057)" />
  <rect
     style="fill:url(#linearGradient1053);fill-opacity:1;stroke-width:2.74436;stroke-linecap:round"
     id="rect1045"
     width="54.999996"
     height="54.999996"
     x="4.5000019"
     y="4.5000019"
     ry="14.999999" />
  <path
     d="M 44.498047 25.857422 L 44.498047 25.859375 C 44.050427 25.890385 43.627156 26.136811 43.384766 26.556641 L 38.490234 35.033203 C 36.563834 34.535083 34.417894 34.242188 31.996094 34.242188 C 29.574294 34.242188 27.428453 34.535083 25.501953 35.033203 L 20.611328 26.556641 C 20.320478 26.052781 19.766039 25.799287 19.224609 25.867188 C 19.044139 25.889588 18.865186 25.948462 18.697266 26.044922 C 18.025576 26.432722 17.797747 27.285331 18.185547 27.957031 L 22.787109 35.927734 C 12.82493 40.043378 10.42927 50.535299 9.8359375 55.984375 C 11.815544 57.650171 14.237081 58.799189 16.902344 59.261719 C 17.886531 59.346392 18.937256 59.407507 20.078125 59.443359 L 44.048828 59.443359 C 45.110466 59.410001 46.084206 59.350805 47.009766 59.275391 C 49.708067 58.823498 52.159536 57.668849 54.160156 55.986328 C 53.566192 50.536151 51.166231 40.041615 41.208984 35.925781 L 45.810547 27.955078 C 46.198347 27.283358 45.968565 26.430769 45.296875 26.042969 C 45.044995 25.897549 44.766617 25.838822 44.498047 25.857422 z "
     style="fill:url(#linearGradient912)"
     id="path23" />
  <g
     id="g31"
     stroke-width="0.71429"
     fill="#ffffff"
     transform="matrix(1.4,0,0,1.4,-1.612,-24.558)">
    <rect
       id="rect25"
       ry="1"
       rx="1"
       height="2"
       width="20"
       y="57"
       x="14" />
    <circle
       id="circle27"
       r="2"
       cy="52"
       cx="18" />
    <circle
       id="circle29"
       r="2"
       cy="52"
       cx="30" />
  </g>
  <rect
     x="22.779003"
     y="12.7461"
     width="3.661"
     height="10.034"
     ry="1.8305"
     fill="#2ecc85"
     fill-rule="evenodd"
     style="paint-order:stroke fill markers"
     id="rect35" />
  <rect
     x="37.559002"
     y="12.7461"
     width="3.661"
     height="10.034"
     ry="1.8305"
     fill="#2ecc85"
     fill-rule="evenodd"
     style="paint-order:stroke fill markers"
     id="rect37" />
</svg>
