<?xml version="1.0" encoding="UTF-8" standalone="no"?>
<svg
   xmlns:dc="http://purl.org/dc/elements/1.1/"
   xmlns:cc="http://creativecommons.org/ns#"
   xmlns:rdf="http://www.w3.org/1999/02/22-rdf-syntax-ns#"
   xmlns:svg="http://www.w3.org/2000/svg"
   xmlns="http://www.w3.org/2000/svg"
   xmlns:xlink="http://www.w3.org/1999/xlink"
   xmlns:sodipodi="http://sodipodi.sourceforge.net/DTD/sodipodi-0.dtd"
   xmlns:inkscape="http://www.inkscape.org/namespaces/inkscape"
   inkscape:version="1.0 (4035a4fb49, 2020-05-01)"
   sodipodi:docname="android-studio.svg"
   id="svg48"
   viewBox="0 0 64 64"
   version="1.1"
   height="64"
   width="64">
  <sodipodi:namedview
     inkscape:current-layer="svg48"
     inkscape:window-maximized="1"
     inkscape:window-y="36"
     inkscape:window-x="0"
     inkscape:cy="33.781454"
     inkscape:cx="50.805926"
     inkscape:zoom="6.2109375"
     showgrid="false"
     id="namedview50"
     inkscape:window-height="964"
     inkscape:window-width="1920"
     inkscape:pageshadow="2"
     inkscape:pageopacity="0"
     guidetolerance="10"
     gridtolerance="10"
     objecttolerance="10"
     borderopacity="1"
     bordercolor="#666666"
     pagecolor="#ffffff" />
  <metadata
     id="metadata2">
    <rdf:RDF>
      <cc:Work
         rdf:about="">
        <dc:format>image/svg+xml</dc:format>
        <dc:type
           rdf:resource="http://purl.org/dc/dcmitype/StillImage" />
        <dc:title></dc:title>
      </cc:Work>
    </rdf:RDF>
  </metadata>
  <defs
     id="defs16">
    <style
       id="style4"
       type="text/css" />
    <filter
       color-interpolation-filters="sRGB"
       height="1.048"
       width="1.048"
       y="-.024"
       x="-.024"
       id="filter2761">
      <feGaussianBlur
         id="feGaussianBlur6"
         stdDeviation="0.14552168" />
    </filter>
    <linearGradient
       gradientUnits="userSpaceOnUse"
       gradientTransform="matrix(3.7796,0,0,3.7796,101.69,7.5815)"
       y2="1.1082"
       y1="15.429"
       x2="15.644"
       x1="1.2573"
       id="linearGradient4673">
      <stop
         id="stop9"
         offset="0"
         stop-color="#8cd750" />
      <stop
         id="stop11"
         offset=".47728"
         stop-color="#7dcd32" />
      <stop
         id="stop13"
         offset="1"
         stop-color="#87d241" />
    </linearGradient>
    <linearGradient
       id="linearGradient1057">
      <stop
         id="stop4"
         offset="0"
         stop-color="#fff" />
      <stop
         id="stop6"
         offset="1"
         stop-opacity="0"
         stop-color="#fff" />
    </linearGradient>
    <linearGradient
       gradientUnits="userSpaceOnUse"
       gradientTransform="matrix(1.5625,0,0,1.5625,0.40633,-5.1891)"
       y2="52.847"
       y1="27.545"
       x2="34.999"
       x1="34.999"
       id="linearGradient982">
      <stop
         id="stop9-6"
         offset="0"
         stop-color="#32b4ff" />
      <stop
         id="stop11-7"
         offset="1"
         stop-color="#3287ff" />
    </linearGradient>
    <style
       id="style14"
       type="text/css" />
    <style
       id="style16"
       type="text/css" />
    <linearGradient
       gradientUnits="userSpaceOnUse"
       gradientTransform="matrix(1.5625,0,0,1.5625,-9.2253,1.3231)"
       y2="43.681"
       y1="18.052"
       x2="21.314"
       x1="21.314"
       id="linearGradient1047">
      <stop
         id="stop18"
         offset="0"
         stop-color="#14dc78" />
      <stop
         id="stop20"
         offset="1"
         stop-color="#14a03c" />
    </linearGradient>
    <linearGradient
       gradientUnits="userSpaceOnUse"
       gradientTransform="matrix(1.5625,0,0,1.5625,-8.1072,-10.908)"
       y2="37.368"
       y1="12.316"
       x2="41.729"
       x1="41.729"
       id="linearGradient1049">
      <stop
         id="stop23"
         offset="0"
         stop-color="#ff3c64" />
      <stop
         id="stop25"
         offset="1"
         stop-color="#ff4628" />
    </linearGradient>
    <linearGradient
       xlink:href="#linearGradient1057"
       gradientUnits="userSpaceOnUse"
       gradientTransform="matrix(1,0,0,1.2271,0.20646,-10.975)"
       y2="39.768"
       y1="32.234"
       x2="34.427"
       x1="34.427"
       id="linearGradient1059" />
    <linearGradient
       xlink:href="#linearGradient1057"
       gradientUnits="userSpaceOnUse"
       gradientTransform="matrix(1,0,0,1.2271,-12.55,-19.793)"
       y2="39.768"
       y1="32.234"
       x2="34.427"
       x1="34.427"
       id="linearGradient1063" />
    <linearGradient
       xlink:href="#linearGradient1057"
       gradientUnits="userSpaceOnUse"
       gradientTransform="matrix(1,0,0,1.2271,5.7554,-25.761)"
       y2="39.768"
       y1="32.234"
       x2="34.427"
       x1="34.427"
       id="linearGradient1067" />
    <filter
       color-interpolation-filters="sRGB"
       height="1.048"
       width="1.048"
       y="-.024"
       x="-.024"
       id="filter2761-5">
      <feGaussianBlur
         id="feGaussianBlur31"
         stdDeviation="0.14552168" />
    </filter>
    <linearGradient
       gradientUnits="userSpaceOnUse"
       gradientTransform="matrix(3.7796,0,0,3.7796,72.4059,0.53085)"
       y2="1.17"
       y1="15.576"
       x2="15.65"
       x1="1.3315"
       id="linearGradient1024">
      <stop
         id="stop34"
         offset="0"
         stop-color="#dddfe1" />
      <stop
         id="stop36"
         offset="1"
         stop-opacity=".99608"
         stop-color="#f3f4f6" />
    </linearGradient>
    <filter
       color-interpolation-filters="sRGB"
       height="1.048"
       width="1.048"
       y="-.024"
       x="-.024"
       id="filter2761-3">
      <feGaussianBlur
         id="feGaussianBlur2"
         stdDeviation="0.14552168" />
    </filter>
    <linearGradient
       gradientUnits="userSpaceOnUse"
       gradientTransform="translate(0 -.07421)"
       y2="1.17"
       y1="15.576"
       x2="15.65"
       x1="1.3315"
       id="linearGradient1024-6">
      <stop
         id="stop5"
         offset="0"
         stop-color="#dddfe1" />
      <stop
         id="stop7"
         offset="1"
         stop-opacity=".99608"
         stop-color="#f3f4f6" />
    </linearGradient>
    <filter
       inkscape:collect="always"
       style="color-interpolation-filters:sRGB"
       id="filter1057"
       x="-0.027000001"
       width="1.054"
       y="-0.027000001"
       height="1.054">
      <feGaussianBlur
         inkscape:collect="always"
         stdDeviation="0.61875"
         id="feGaussianBlur1059" />
    </filter>
    <linearGradient
       inkscape:collect="always"
       xlink:href="#linearGradient1051"
       id="linearGradient1053"
       x1="-127"
       y1="60"
       x2="-72"
       y2="5"
       gradientUnits="userSpaceOnUse"
       gradientTransform="translate(131.5,-0.50999931)" />
    <linearGradient
       inkscape:collect="always"
       id="linearGradient1051">
      <stop
         style="stop-color:#8cd750;stop-opacity:1"
         offset="0"
         id="stop1047" />
      <stop
         id="stop989"
         offset="0.4958486"
         style="stop-color:#7dcd32;stop-opacity:0.99607843" />
      <stop
         style="stop-color:#87d241;stop-opacity:0.99607843"
         offset="1"
         id="stop1049" />
    </linearGradient>
  </defs>
  <rect
     ry="15"
     y="4.4999995"
     x="4.4999995"
     height="55"
     width="55"
     id="rect1055"
     style="opacity:0.3;fill:#141414;fill-opacity:1;stroke-width:2.74436;stroke-linecap:round;filter:url(#filter1057)" />
  <rect
     style="fill:url(#linearGradient1053);fill-opacity:1;stroke-width:2.74436;stroke-linecap:round"
     id="rect1045"
     width="54.999996"
     height="54.999996"
     x="4.5000019"
     y="4.5000019"
     ry="14.999999" />
  <g
     id="g36"
     stroke-width=".99997"
     transform="translate(0 -6.193)">
    <g
       id="g32">
      <path
         id="path24"
         fill="#fff"
         d="m30.985 21.199-3.7527 2.1666 19.499 33.774 4.0429 2.6693-0.29019-4.8359z" />
      <path
         id="path26"
         fill="#f0f0f0"
         d="m47.887 28.132c0 5.7896-1.7204 7.1629-3.8142 9.6094-1.0821 1.2468-2.3525 2.3054-3.8109 3.1052-1.9761 1.1057-4.9803 1.7174-7.4034 1.7174-2.423 0-4.7048-0.63525-6.6574-1.7174-1.4245-1.1474-4.3133 3.1858-2.3994 3.7539 2.6818 1.5056 5.787 2.3207 9.0804 2.3207s7.121-0.81508 9.8029-2.3207c1.435-0.79976 2.7523-1.7877 3.9051-2.917 3.4816-3.3876 5.6694-8.2816 5.6694-13.528-1.4854-0.01444-3.055 0-4.3723-0.01444z" />
      <path
         id="path28"
         fill="#f0f0f0"
         d="m33.011 21.199 3.7527 2.1666-19.499 33.774-4.0429 2.6693 0.2902-4.8359z" />
      <path
         id="path30"
         fill="#323232"
         d="m36.497 20.91h-1.6088v-4.3335h-5.7776v4.3335h-1.6323c-1.4796 0-2.7009 1.2227-2.7009 2.6854v7.0711h0.0235c-0.0235 0.23226 0.11739 0.48777 0.42275 0.78951l5.4253 4.7852c0.37578 0.3715 0.86899 0.55725 1.3387 0.55725v-0.02311l0.0235 0.02311c0.4932 0 0.98641-0.18575 1.3387-0.55725l5.4253-4.7852c0.30532-0.30174 0.42275-0.5805 0.42275-0.78951h0.0235v-7.0478c-0.0235-1.4859-1.2213-2.7087-2.7244-2.7087z" />
    </g>
    <path
       id="path34"
       fill="#fff"
       d="m32.009 29.577h-0.01883c-1.5809 0-2.8794-1.2858-2.8794-2.8696 0-1.5839 1.2985-2.8697 2.8794-2.8697v-0.03755l0.01883 0.03755c1.5809 0.01878 2.8794 1.2858 2.8794 2.8697 0 1.5838-1.2985 2.851-2.8794 2.8696z" />
  </g>
  <g
     id="g46"
     stroke-width=".26458"
     fill="#5e4aa6"
     transform="matrix(3.7796 0 0 3.7796 101.59 7.0752)">
    <circle
       id="circle38"
       r="0"
       cy="-328.38"
       cx="-330.35" />
    <circle
       id="circle40"
       r="0"
       cy="-326.25"
       cx="-312.11" />
    <circle
       id="circle42"
       r="0"
       cy="-333.07"
       cx="-306.02" />
    <circle
       id="circle44"
       r="0"
       cy="-326.01"
       cx="-308.84" />
  </g>
  <circle
     cx="-1178.0211"
     cy="-1241.6"
     r="0"
     fill="#5e4aa6"
     id="circle41" />
  <circle
     cx="-78.471207"
     cy="23.855"
     r="0"
     fill="#5e4aa6"
     fill-rule="evenodd"
     id="circle43" />
</svg>
