<?xml version="1.0" encoding="UTF-8" standalone="no"?>
<svg
   xmlns:dc="http://purl.org/dc/elements/1.1/"
   xmlns:cc="http://creativecommons.org/ns#"
   xmlns:rdf="http://www.w3.org/1999/02/22-rdf-syntax-ns#"
   xmlns:svg="http://www.w3.org/2000/svg"
   xmlns="http://www.w3.org/2000/svg"
   xmlns:xlink="http://www.w3.org/1999/xlink"
   xmlns:sodipodi="http://sodipodi.sourceforge.net/DTD/sodipodi-0.dtd"
   xmlns:inkscape="http://www.inkscape.org/namespaces/inkscape"
   inkscape:version="1.0 (4035a4fb49, 2020-05-01)"
   sodipodi:docname="ankama-launcher.svg"
   id="svg42"
   viewBox="0 0 16.933 16.933"
   version="1.1"
   height="64"
   width="64">
  <sodipodi:namedview
     inkscape:current-layer="svg42"
     inkscape:window-maximized="1"
     inkscape:window-y="0"
     inkscape:window-x="0"
     inkscape:cy="64.714721"
     inkscape:cx="14.554271"
     inkscape:zoom="4.5078057"
     showgrid="false"
     id="namedview44"
     inkscape:window-height="985"
     inkscape:window-width="1920"
     inkscape:pageshadow="2"
     inkscape:pageopacity="0"
     guidetolerance="10"
     gridtolerance="10"
     objecttolerance="10"
     borderopacity="1"
     bordercolor="#666666"
     pagecolor="#ffffff" />
  <metadata
     id="metadata2">
    <rdf:RDF>
      <cc:Work
         rdf:about="">
        <dc:format>image/svg+xml</dc:format>
        <dc:type
           rdf:resource="http://purl.org/dc/dcmitype/StillImage" />
        <dc:title></dc:title>
      </cc:Work>
    </rdf:RDF>
  </metadata>
  <defs
     id="defs12">
    <filter
       color-interpolation-filters="sRGB"
       height="1.048"
       width="1.048"
       y="-.024"
       x="-.024"
       id="filter2761">
      <feGaussianBlur
         id="feGaussianBlur4"
         stdDeviation="0.14552168" />
    </filter>
    <linearGradient
       gradientUnits="userSpaceOnUse"
       gradientTransform="translate(-.00085 .14045)"
       y2="1.17"
       y1="15.576"
       x2="15.65"
       x1="1.3315"
       id="linearGradient1024">
      <stop
         id="stop7"
         offset="0"
         stop-color="#dddfe1" />
      <stop
         id="stop9"
         offset="1"
         stop-opacity=".99608"
         stop-color="#f3f4f6" />
    </linearGradient>
    <filter
       inkscape:collect="always"
       style="color-interpolation-filters:sRGB"
       id="filter1057"
       x="-0.027000001"
       width="1.054"
       y="-0.027000001"
       height="1.054">
      <feGaussianBlur
         inkscape:collect="always"
         stdDeviation="0.61875"
         id="feGaussianBlur1059" />
    </filter>
    <linearGradient
       inkscape:collect="always"
       xlink:href="#linearGradient1051"
       id="linearGradient1053"
       x1="-127"
       y1="60"
       x2="-72"
       y2="5"
       gradientUnits="userSpaceOnUse"
       gradientTransform="matrix(0.26457812,0,0,0.26457812,34.792024,-0.13493425)" />
    <linearGradient
       inkscape:collect="always"
       id="linearGradient1051">
      <stop
         style="stop-color:#dee0e2;stop-opacity:1"
         offset="0"
         id="stop1047" />
      <stop
         style="stop-color:#f1f3f5;stop-opacity:0.99607843"
         offset="1"
         id="stop1049" />
    </linearGradient>
  </defs>
  <rect
     transform="matrix(0.26457812,0,0,0.26457812,0.79770305,0.79770305)"
     ry="15"
     y="1.485"
     x="1.485"
     height="55"
     width="55"
     id="rect1055"
     style="opacity:0.3;fill:#141414;fill-opacity:1;stroke-width:2.74436;stroke-linecap:round;filter:url(#filter1057)" />
  <rect
     style="fill:url(#linearGradient1053);fill-opacity:1;stroke-width:0.726098;stroke-linecap:round"
     id="rect1045"
     width="14.551796"
     height="14.551796"
     x="1.1906021"
     y="1.1906021"
     ry="3.9686716" />
  <g
     id="g26"
     stroke-width=".26458"
     fill="#5e4aa6"
     transform="translate(-.0272 .0065001)">
    <circle
       id="circle18"
       r="0"
       cy="-328.38"
       cx="-330.35" />
    <circle
       id="circle20"
       r="0"
       cy="-326.25"
       cx="-312.11" />
    <circle
       id="circle22"
       r="0"
       cy="-333.07"
       cx="-306.02" />
    <circle
       id="circle24"
       r="0"
       cy="-326.01"
       cx="-308.84" />
  </g>
  <g
     id="g40"
     transform="translate(-.13265 -280.2)">
    <path
       id="path28"
       style="paint-order:stroke fill markers"
       fill="#fdc409"
       d="m12.965 292.5c0.14657 0 0.26458-0.11801 0.26458-0.26458v-4.4979c0-0.14657-0.11801-0.26458-0.26458-0.26458h-1.5875v3.7042c0 0.14658-0.11801 0.26459-0.26458 0.26459h-2.6458c-0.14657 0-0.26458-0.11801-0.26458-0.26459v-3.7042h-1.5875c-0.14657 0-0.26458 0.11801-0.26458 0.26458v4.4979c0 0.14657 0.11801 0.26458 0.26458 0.26458z" />
    <path
       id="path30"
       style="paint-order:stroke fill markers"
       fill="#b61f1d"
       d="m22 28v9l9-9z"
       transform="matrix(.26458 0 0 .26458 0 280.07)" />
    <path
       id="path32"
       style="paint-order:stroke fill markers"
       fill="#e5381f"
       d="m4.2333 284.83c-0.14657 0-0.26458 0.11801-0.26458 0.26458v4.4979c0 0.14657 0.11801 0.26458 0.26458 0.26458h1.5875v-3.7042c0-0.14658 0.11801-0.26459 0.26458-0.26459h2.6458c0.14657 0 0.26458 0.11801 0.26458 0.26459v3.7042h1.5875c0.14657 0 0.26458-0.11801 0.26458-0.26458v-4.4979c0-0.14657-0.11801-0.26458-0.26458-0.26458z" />
    <path
       id="path34"
       style="paint-order:stroke fill markers"
       fill="#e76f08"
       d="m43 28-9 9h9z"
       transform="matrix(.26458 0 0 .26458 0 280.07)" />
    <rect
       id="rect36"
       style="paint-order:stroke fill markers"
       fill="#e76f08"
       ry="0"
       height="1.0583"
       width="1.0583"
       y="285.62"
       x="11.642" />
    <rect
       id="rect38"
       style="paint-order:stroke fill markers"
       fill="#f6aa08"
       ry="0"
       height="1.0583"
       width="1.0583"
       y="201.81"
       x="208.92"
       transform="rotate(45)" />
  </g>
</svg>
