<?xml version="1.0" encoding="UTF-8" standalone="no"?>
<svg
   xmlns:dc="http://purl.org/dc/elements/1.1/"
   xmlns:cc="http://creativecommons.org/ns#"
   xmlns:rdf="http://www.w3.org/1999/02/22-rdf-syntax-ns#"
   xmlns:svg="http://www.w3.org/2000/svg"
   xmlns="http://www.w3.org/2000/svg"
   xmlns:xlink="http://www.w3.org/1999/xlink"
   xmlns:sodipodi="http://sodipodi.sourceforge.net/DTD/sodipodi-0.dtd"
   xmlns:inkscape="http://www.inkscape.org/namespaces/inkscape"
   inkscape:version="1.0 (4035a4fb49, 2020-05-01)"
   sodipodi:docname="appimagekit-balena-etcher-electron.svg"
   id="svg40"
   viewBox="0 0 16.933 16.933"
   version="1.1"
   height="64"
   width="64">
  <sodipodi:namedview
     inkscape:current-layer="svg40"
     inkscape:window-maximized="1"
     inkscape:window-y="36"
     inkscape:window-x="0"
     inkscape:cy="28.488407"
     inkscape:cx="-0.69493032"
     inkscape:zoom="4.391796"
     showgrid="false"
     id="namedview42"
     inkscape:window-height="964"
     inkscape:window-width="1920"
     inkscape:pageshadow="2"
     inkscape:pageopacity="0"
     guidetolerance="10"
     gridtolerance="10"
     objecttolerance="10"
     borderopacity="1"
     bordercolor="#666666"
     pagecolor="#ffffff" />
  <metadata
     id="metadata2">
    <rdf:RDF>
      <cc:Work
         rdf:about="">
        <dc:format>image/svg+xml</dc:format>
        <dc:type
           rdf:resource="http://purl.org/dc/dcmitype/StillImage" />
        <dc:title></dc:title>
      </cc:Work>
    </rdf:RDF>
  </metadata>
  <defs
     id="defs16">
    <style
       id="style4"
       type="text/css" />
    <filter
       color-interpolation-filters="sRGB"
       height="1.048"
       width="1.048"
       y="-.024"
       x="-.024"
       id="filter2761">
      <feGaussianBlur
         id="feGaussianBlur6"
         stdDeviation="0.14552168" />
    </filter>
    <linearGradient
       gradientUnits="userSpaceOnUse"
       gradientTransform="matrix(3.7796,0,0,3.7796,101.69,7.5815)"
       y2="1.1082"
       y1="15.429"
       x2="15.644"
       x1="1.2573"
       id="linearGradient4673">
      <stop
         id="stop9"
         offset="0"
         stop-color="#8cd750" />
      <stop
         id="stop11"
         offset=".47728"
         stop-color="#7dcd32" />
      <stop
         id="stop13"
         offset="1"
         stop-color="#87d241" />
    </linearGradient>
    <style
       id="style4-7"
       type="text/css" />
    <filter
       color-interpolation-filters="sRGB"
       height="1.048"
       width="1.048"
       y="-.024"
       x="-.024"
       id="filter2761-53">
      <feGaussianBlur
         id="feGaussianBlur6-5"
         stdDeviation="0.14552168" />
    </filter>
    <linearGradient
       id="linearGradient1057">
      <stop
         id="stop4"
         offset="0"
         stop-color="#fff" />
      <stop
         id="stop6"
         offset="1"
         stop-opacity="0"
         stop-color="#fff" />
    </linearGradient>
    <linearGradient
       gradientUnits="userSpaceOnUse"
       gradientTransform="matrix(1.5625,0,0,1.5625,0.40633,-5.1891)"
       y2="52.847"
       y1="27.545"
       x2="34.999"
       x1="34.999"
       id="linearGradient982">
      <stop
         id="stop9-6"
         offset="0"
         stop-color="#32b4ff" />
      <stop
         id="stop11-7"
         offset="1"
         stop-color="#3287ff" />
    </linearGradient>
    <style
       id="style14"
       type="text/css" />
    <style
       id="style16"
       type="text/css" />
    <linearGradient
       gradientUnits="userSpaceOnUse"
       gradientTransform="matrix(1.5625,0,0,1.5625,-9.2253,1.3231)"
       y2="43.681"
       y1="18.052"
       x2="21.314"
       x1="21.314"
       id="linearGradient1047">
      <stop
         id="stop18"
         offset="0"
         stop-color="#14dc78" />
      <stop
         id="stop20"
         offset="1"
         stop-color="#14a03c" />
    </linearGradient>
    <linearGradient
       gradientUnits="userSpaceOnUse"
       gradientTransform="matrix(1.5625,0,0,1.5625,-8.1072,-10.908)"
       y2="37.368"
       y1="12.316"
       x2="41.729"
       x1="41.729"
       id="linearGradient1049">
      <stop
         id="stop23"
         offset="0"
         stop-color="#ff3c64" />
      <stop
         id="stop25"
         offset="1"
         stop-color="#ff4628" />
    </linearGradient>
    <linearGradient
       xlink:href="#linearGradient1057"
       gradientUnits="userSpaceOnUse"
       gradientTransform="matrix(1,0,0,1.2271,0.20646,-10.975)"
       y2="39.768"
       y1="32.234"
       x2="34.427"
       x1="34.427"
       id="linearGradient1059" />
    <linearGradient
       xlink:href="#linearGradient1057"
       gradientUnits="userSpaceOnUse"
       gradientTransform="matrix(1,0,0,1.2271,-12.55,-19.793)"
       y2="39.768"
       y1="32.234"
       x2="34.427"
       x1="34.427"
       id="linearGradient1063" />
    <linearGradient
       xlink:href="#linearGradient1057"
       gradientUnits="userSpaceOnUse"
       gradientTransform="matrix(1,0,0,1.2271,5.7554,-25.761)"
       y2="39.768"
       y1="32.234"
       x2="34.427"
       x1="34.427"
       id="linearGradient1067" />
    <filter
       color-interpolation-filters="sRGB"
       height="1.048"
       width="1.048"
       y="-.024"
       x="-.024"
       id="filter2761-5">
      <feGaussianBlur
         id="feGaussianBlur31"
         stdDeviation="0.14552168" />
    </filter>
    <linearGradient
       gradientUnits="userSpaceOnUse"
       gradientTransform="matrix(3.7796,0,0,3.7796,72.4059,0.53085)"
       y2="1.17"
       y1="15.576"
       x2="15.65"
       x1="1.3315"
       id="linearGradient1024">
      <stop
         id="stop34"
         offset="0"
         stop-color="#dddfe1" />
      <stop
         id="stop36"
         offset="1"
         stop-opacity=".99608"
         stop-color="#f3f4f6" />
    </linearGradient>
    <filter
       color-interpolation-filters="sRGB"
       height="1.048"
       width="1.048"
       y="-.024"
       x="-.024"
       id="filter2761-3">
      <feGaussianBlur
         id="feGaussianBlur2"
         stdDeviation="0.14552168" />
    </filter>
    <linearGradient
       gradientUnits="userSpaceOnUse"
       gradientTransform="translate(0 -.07421)"
       y2="1.17"
       y1="15.576"
       x2="15.65"
       x1="1.3315"
       id="linearGradient1024-6">
      <stop
         id="stop5"
         offset="0"
         stop-color="#dddfe1" />
      <stop
         id="stop7"
         offset="1"
         stop-opacity=".99608"
         stop-color="#f3f4f6" />
    </linearGradient>
    <filter
       inkscape:collect="always"
       style="color-interpolation-filters:sRGB"
       id="filter1057"
       x="-0.027000001"
       width="1.054"
       y="-0.027000001"
       height="1.054">
      <feGaussianBlur
         inkscape:collect="always"
         stdDeviation="0.61875"
         id="feGaussianBlur1059" />
    </filter>
    <linearGradient
       inkscape:collect="always"
       xlink:href="#linearGradient1051"
       id="linearGradient1053"
       x1="-127"
       y1="60"
       x2="-72"
       y2="5"
       gradientUnits="userSpaceOnUse"
       gradientTransform="matrix(0.26457812,0,0,0.26457812,34.792023,-0.13493467)" />
    <linearGradient
       inkscape:collect="always"
       id="linearGradient1051">
      <stop
         style="stop-color:#8cd750;stop-opacity:1"
         offset="0"
         id="stop1047" />
      <stop
         id="stop989"
         offset="0.4958486"
         style="stop-color:#7dcd32;stop-opacity:0.99607843" />
      <stop
         style="stop-color:#87d241;stop-opacity:0.99607843"
         offset="1"
         id="stop1049" />
    </linearGradient>
  </defs>
  <rect
     transform="scale(0.26457812)"
     style="opacity:0.3;fill:#141414;fill-opacity:1;stroke-width:2.74436;stroke-linecap:round;filter:url(#filter1057)"
     id="rect1055"
     width="55"
     height="55"
     x="4.4999995"
     y="4.4999995"
     ry="15" />
  <rect
     ry="3.9686716"
     y="1.1906021"
     x="1.1906021"
     height="14.551796"
     width="14.551796"
     id="rect1045"
     style="fill:url(#linearGradient1053);fill-opacity:1;stroke-width:0.726098;stroke-linecap:round" />
  <g
     id="g32"
     stroke-width=".26458"
     fill="#5e4aa6"
     transform="translate(26.876 1.8719)">
    <circle
       id="circle24"
       r="0"
       cy="-328.38"
       cx="-330.35" />
    <circle
       id="circle26"
       r="0"
       cy="-326.25"
       cx="-312.11" />
    <circle
       id="circle28"
       r="0"
       cy="-333.07"
       cx="-306.02" />
    <circle
       id="circle30"
       r="0"
       cy="-326.01"
       cx="-308.84" />
  </g>
  <g
     id="g38"
     stroke-width=".35276"
     transform="matrix(.77191 0 0 .77191 19.202 1.9384)">
    <path
       id="path34"
       style="isolation:isolate"
       opacity=".5"
       fill="#c8f178"
       d="m-13.876 1.3229c-0.30898-0.00137-0.61859 0.065055-0.85473 0.19999l-4.7418 2.7098c-0.18309 0.10463-0.35221 0.26892-0.49196 0.46145l1.6784 0.97873 3.3202 1.9358c0.44934 0.26215 0.82266 0.70759 1.0578 1.2087 0.2351-0.50104 0.60845-0.94656 1.0578-1.2087l4.9934-2.9114c-0.13051-0.17146-0.28376-0.31821-0.44957-0.41497l-2.3585-1.3756-2.359-1.3761c-0.23492-0.13706-0.54316-0.20637-0.85213-0.20774zm6.2832 3.8327-1.6717 0.97461-3.3181 1.9353c-0.55176 0.32189-1.0603 1.208-1.0619 1.849 2e-6 0.0036 1e-3 0.00726 1e-3 0.010852l-5.17e-4 0.17931 0.01654 3.6623 0.0083 1.8164c0.19508-0.02982 0.38041-0.08546 0.53382-0.17311l4.7418-2.7098c0.47228-0.26987 0.85748-0.93042 0.85988-1.4743l0.012402-2.731 0.011885-2.7305c8.739e-4 -0.19541-0.049132-0.406-0.13332-0.60875zm-12.624 0.00413c-0.07108 0.18343-0.11498 0.37107-0.11575 0.54726l-0.0124 2.731-0.01189 2.7305c-0.0024 0.54398 0.3766 1.208 0.84644 1.4821l2.359 1.3756 2.359 1.3761c0.16926 0.09872 0.37695 0.16077 0.5953 0.18913l0.0083-1.8247 0.01654-3.6623-5.16e-4 -0.17931c-1.7e-5 -0.00359 1e-3 -0.00726 1e-3 -0.010852-0.0016-0.64092-0.51019-1.5271-1.0619-1.849l-3.3181-1.9353-1.665-0.97048z" />
    <path
       id="path36"
       style="isolation:isolate"
       fill="#fff"
       d="m-13.884 3.175c-0.22888-0.00101-0.45812 0.04836-0.63303 0.14831l-1.7565 1.0036-1.7559 1.0036c-0.12152 0.06945-0.23443 0.17511-0.33125 0.29868l0.07493 0.043926 3.3202 1.9358c0.44934 0.26215 0.82266 0.70759 1.0578 1.2087 0.2351-0.50104 0.60846-0.94656 1.0578-1.2087l3.3202-1.9358 0.069762-0.040825c-0.089046-0.10825-0.18951-0.2017-0.29818-0.26511l-3.4943-2.0381c-0.17401-0.10153-0.40261-0.15298-0.63147-0.15399zm4.6833 2.9181-0.063563 0.037205-3.3181 1.9353c-0.55176 0.32189-1.0603 1.208-1.0619 1.849 2e-6 0.0036 1e-3 0.00726 1e-3 0.010852l-5.17e-4 0.17828 0.01654 3.621c0.11935-0.02409 0.23294-0.06004 0.32866-0.11472l1.7565-1.0036 1.7559-1.0036c0.34983-0.1999 0.63536-0.68955 0.63716-1.0924l0.0093-2.0226 0.00879-2.0226c5.614e-4 -0.11953-0.026113-0.24671-0.069735-0.37205zm-9.4095 0.0031c-0.03523 0.11028-0.05586 0.22142-0.05633 0.3266l-0.0093 2.0226-0.0088 2.0226c-0.0018 0.40293 0.27932 0.89513 0.62734 1.0981l3.4943 2.0381c0.10788 0.06292 0.23774 0.10433 0.37465 0.12867l0.01654-3.6292-5.17e-4 -0.17828c-1.6e-5 -0.00359 1e-3 -0.00726 1e-3 -0.010852-0.0016-0.64092-0.51019-1.5271-1.0619-1.849l-3.3181-1.9353-0.05891-0.034107z" />
  </g>
  <g
     transform="translate(8.7602962,1.8719433)"
     fill="#5e4aa6"
     stroke-width="0.26458"
     id="g46">
    <circle
       cx="-330.35001"
       cy="-328.38"
       r="0"
       id="circle38" />
    <circle
       cx="-312.10999"
       cy="-326.25"
       r="0"
       id="circle40" />
    <circle
       cx="-306.01999"
       cy="-333.07001"
       r="0"
       id="circle42" />
    <circle
       cx="-308.84"
       cy="-326.01001"
       r="0"
       id="circle44" />
  </g>
  <circle
     style="stroke-width:0.264578"
     id="circle41"
     fill="#5e4aa6"
     r="0"
     cy="-328.50018"
     cx="-329.79681" />
  <circle
     style="stroke-width:0.264578"
     id="circle43"
     fill-rule="evenodd"
     fill="#5e4aa6"
     r="0"
     cy="6.311511"
     cx="-38.879959" />
</svg>
