<?xml version="1.0" encoding="UTF-8"?>
<svg width="64" height="64" version="1.1" viewBox="0 0 16.933 16.933" xmlns="http://www.w3.org/2000/svg" xmlns:cc="http://creativecommons.org/ns#" xmlns:dc="http://purl.org/dc/elements/1.1/" xmlns:rdf="http://www.w3.org/1999/02/22-rdf-syntax-ns#">
 <defs>
  <filter id="filter1057" x="-.027" y="-.027" width="1.054" height="1.054" color-interpolation-filters="sRGB">
   <feGaussianBlur stdDeviation="0.61875"/>
  </filter>
  <linearGradient id="linearGradient1053" x1="-127" x2="-72" y1="60" y2="5" gradientTransform="matrix(.26458 0 0 .26458 35.87 -.52223)" gradientUnits="userSpaceOnUse">
   <stop stop-color="#a53cff" offset="0"/>
   <stop stop-color="#b496ff" offset="1"/>
  </linearGradient>
 </defs>
 <metadata>
  <rdf:RDF>
   <cc:Work rdf:about="">
    <dc:format>image/svg+xml</dc:format>
    <dc:type rdf:resource="http://purl.org/dc/dcmitype/StillImage"/>
    <dc:title/>
   </cc:Work>
  </rdf:RDF>
 </metadata>
 <g transform="translate(-1.0772 .38743)">
  <rect transform="matrix(.26458 0 0 .26458 1.0772 -.38743)" x="4.5" y="4.5" width="55" height="55" ry="15" fill="#141414" filter="url(#filter1057)" image-rendering="optimizeSpeed" opacity=".3" stroke-linecap="round" stroke-width="2.7444"/>
  <rect x="2.2679" y=".8032" width="14.552" height="14.552" ry="3.9688" fill="url(#linearGradient1053)" image-rendering="optimizeSpeed" stroke-linecap="round" stroke-width=".72612"/>
  <path d="m9.5516 4.6076c-0.50996 0-1.0221 0.19251-1.4154 0.57671l-0.69506 0.69506-2.1038 2.0857-1.0428 1.0428c-0.58547 0.58542-0.58547 1.5183 0 2.1038 0.58542 0.58547 1.5183 0.58547 2.1038 0l1.0428-1.0428 1.0428 1.0428c0.58542 0.58547 1.5183 0.58547 2.1038 0 0.58547-0.58542 0.58547-1.5183 0-2.1038l2.0857 2.0857c0.58542 0.58542 1.5183 0.58542 2.1038 0 0.60373-0.54882 0.60407-1.5004 0.0186-2.0676l-1.0428-1.0609-2.1043-2.0857-0.69506-0.69506c-0.3842-0.3842-0.89202-0.57671-1.402-0.57671z" fill="#fff" stroke-width=".52917"/>
 </g>
</svg>
