<?xml version="1.0" encoding="UTF-8" standalone="no"?>
<svg
   xmlns:dc="http://purl.org/dc/elements/1.1/"
   xmlns:cc="http://creativecommons.org/ns#"
   xmlns:rdf="http://www.w3.org/1999/02/22-rdf-syntax-ns#"
   xmlns:svg="http://www.w3.org/2000/svg"
   xmlns="http://www.w3.org/2000/svg"
   xmlns:xlink="http://www.w3.org/1999/xlink"
   xmlns:sodipodi="http://sodipodi.sourceforge.net/DTD/sodipodi-0.dtd"
   xmlns:inkscape="http://www.inkscape.org/namespaces/inkscape"
   inkscape:version="1.0 (4035a4fb49, 2020-05-01)"
   sodipodi:docname="applications-games.svg"
   id="svg40"
   viewBox="0 0 16.933 16.933"
   version="1.1"
   height="64"
   width="64">
  <sodipodi:namedview
     inkscape:current-layer="svg40"
     inkscape:window-maximized="1"
     inkscape:window-y="0"
     inkscape:window-x="0"
     inkscape:cy="38.841178"
     inkscape:cx="38.863434"
     inkscape:zoom="4.5078057"
     showgrid="false"
     id="namedview42"
     inkscape:window-height="985"
     inkscape:window-width="1920"
     inkscape:pageshadow="2"
     inkscape:pageopacity="0"
     guidetolerance="10"
     gridtolerance="10"
     objecttolerance="10"
     borderopacity="1"
     bordercolor="#666666"
     pagecolor="#ffffff" />
  <defs
     id="defs10">
    <filter
       color-interpolation-filters="sRGB"
       height="1.048"
       width="1.048"
       y="-.024"
       x="-.024"
       id="filter2761">
      <feGaussianBlur
         id="feGaussianBlur2"
         stdDeviation="0.14552168" />
    </filter>
    <linearGradient
       gradientUnits="userSpaceOnUse"
       gradientTransform="translate(0 -.07421)"
       y2="1.17"
       y1="15.576"
       x2="15.65"
       x1="1.3315"
       id="linearGradient1024-6">
      <stop
         id="stop5"
         offset="0"
         stop-color="#dddfe1" />
      <stop
         id="stop7"
         offset="1"
         stop-opacity=".99608"
         stop-color="#f3f4f6" />
    </linearGradient>
    <filter
       inkscape:collect="always"
       style="color-interpolation-filters:sRGB"
       id="filter1057"
       x="-0.027000001"
       width="1.054"
       y="-0.027000001"
       height="1.054">
      <feGaussianBlur
         inkscape:collect="always"
         stdDeviation="0.61875"
         id="feGaussianBlur1059" />
    </filter>
    <linearGradient
       inkscape:collect="always"
       xlink:href="#linearGradient1051"
       id="linearGradient1053"
       x1="-127"
       y1="60"
       x2="-72"
       y2="5"
       gradientUnits="userSpaceOnUse"
       gradientTransform="matrix(0.26457812,0,0,0.26457812,34.792024,-0.13493466)" />
    <linearGradient
       inkscape:collect="always"
       id="linearGradient1051">
      <stop
         style="stop-color:#dee0e2;stop-opacity:1"
         offset="0"
         id="stop1047" />
      <stop
         style="stop-color:#f1f3f5;stop-opacity:0.99607843"
         offset="1"
         id="stop1049" />
    </linearGradient>
  </defs>
  <metadata
     id="metadata12">
    <rdf:RDF>
      <cc:Work
         rdf:about="">
        <dc:format>image/svg+xml</dc:format>
        <dc:type
           rdf:resource="http://purl.org/dc/dcmitype/StillImage" />
        <dc:title></dc:title>
      </cc:Work>
    </rdf:RDF>
  </metadata>
  <rect
     transform="matrix(0.26457812,0,0,0.26457812,0.79770305,0.79770305)"
     ry="15"
     y="1.485"
     x="1.485"
     height="55"
     width="55"
     id="rect1055"
     style="opacity:0.3;fill:#141414;fill-opacity:1;stroke-width:2.74436;stroke-linecap:round;filter:url(#filter1057)" />
  <rect
     style="fill:url(#linearGradient1053);fill-opacity:1;stroke-width:0.726098;stroke-linecap:round"
     id="rect1045"
     width="14.551796"
     height="14.551796"
     x="1.1906021"
     y="1.1906021"
     ry="3.9686716" />
  <g
     id="g38"
     transform="translate(.47818 -.84044)">
    <path
       id="path18"
       fill="#ff7d37"
       d="m6.23 11.584s0.42392-0.87757 0.82906-0.87757 3.8874 0.07559 4.1603-0.04843c0.27285-0.12402 1.4386-0.61184 1.3808-1.4221-0.05788-0.81027 0.06924-2.3399 0.06924-2.3399s0.45164 4.6797 0.3855 4.9856c-0.03399 0.28546-0.11315 1.0119-1.1421 1.2341-1.029 0.22216-1.5493-0.70157-1.5493-0.70157s-0.45602-0.83019-0.99974-0.83019h-3.1337z" />
    <path
       id="path20"
       fill="#ffbe37"
       d="m10.55 5.027s-1.05 0.024804 0 0h-5.027s-2.0836-0.00827-2.3068 2.1414c0.05788 0 0 0 0 0s-0.12718 2.1876-0.29631 4.725c0 0-0.12659 1.0653 1.2554 1.2528 1.4656 0.1989 2.1332-2.282 2.9269-2.282h4.2581c0.63285 0 1.3111-0.631 1.3111-1.5313 0-0.90035 3.91e-4 -2.2569-3.99e-4 -2.4616 7.96e-4 -0.20685-0.1152-1.7886-2.121-1.8444z" />
    <g
       id="g36"
       fill="#fff"
       transform="translate(.011111)">
      <rect
         id="rect22"
         ry=".44221"
         height="2.5591"
         width=".88442"
         y="6.5553"
         x="5.4021" />
      <rect
         id="rect24"
         ry=".44221"
         height="2.5591"
         width=".88442"
         y="4.5648"
         x="-8.277"
         transform="rotate(-90)" />
      <g
         id="g34"
         transform="translate(0 -.037725)">
        <circle
           id="circle26"
           r=".42386"
           cy="7.1023"
           cx="10.275" />
        <circle
           id="circle28"
           r=".42386"
           cy="8.6428"
           cx="10.275" />
        <circle
           id="circle30"
           r=".42386"
           cy="9.5048"
           cx="-7.8725"
           transform="rotate(-90)" />
        <circle
           id="circle32"
           r=".42386"
           cy="11.045"
           cx="-7.8725"
           transform="rotate(-90)" />
      </g>
    </g>
  </g>
</svg>
