<?xml version="1.0" encoding="UTF-8"?>
<svg width="64" height="64" version="1.1" viewBox="0 0 16.933 16.933" xmlns="http://www.w3.org/2000/svg" xmlns:cc="http://creativecommons.org/ns#" xmlns:dc="http://purl.org/dc/elements/1.1/" xmlns:rdf="http://www.w3.org/1999/02/22-rdf-syntax-ns#" xmlns:xlink="http://www.w3.org/1999/xlink">
 <defs>
  <filter id="filter1057-75" x="-.027" y="-.027" width="1.054" height="1.054" color-interpolation-filters="sRGB">
   <feGaussianBlur stdDeviation="0.61875"/>
  </filter>
  <linearGradient id="linearGradient1053-3" x1="-127" x2="-72" y1="60" y2="5" gradientTransform="matrix(.26458 0 0 .26458 36.957 1.9345)" gradientUnits="userSpaceOnUse">
   <stop stop-color="#32d7ff" offset="0"/>
   <stop stop-color="#329bff" offset="1"/>
  </linearGradient>
 </defs>
 <metadata>
  <rdf:RDF>
   <cc:Work rdf:about="">
    <dc:format>image/svg+xml</dc:format>
    <dc:type rdf:resource="http://purl.org/dc/dcmitype/StillImage"/>
    <dc:title/>
   </cc:Work>
  </rdf:RDF>
 </metadata>
 <g transform="translate(-2.1639 -2.0694)">
  <g>
   <rect transform="matrix(.26458 0 0 .26458 2.1639 2.0694)" x="4.5" y="4.5" width="55" height="55" ry="15" fill="#141414" filter="url(#filter1057-75)" opacity=".3" stroke-linecap="round" stroke-width="2.7444"/>
   <rect x="3.3545" y="3.26" width="14.552" height="14.552" ry="3.9687" fill="url(#linearGradient1053-3)" stroke-linecap="round" stroke-width=".72611"/>
   <path d="m7.3233 3.26c-0.47217 0-0.92269 0.085667-1.342 0.23564 0.42048 0.38817 0.37943 0.54577 0.27802 0.58911-0.012958 0.0052069-0.54541-0.21533-0.85524-0.33228-1.2236 0.67455-2.0495 1.9749-2.0495 3.4763v0.041341c0.018827-1.35e-4 0.038402-8.731e-4 0.042375-0.00103 0.086505-0.00161 0.21095 0.02358 0.29404 0.041341 0.076665 0.015772 0.1388 0.066846 0.20516 0.07183 0.18831 0.014425 0.23344-0.13191 0.38706-0.21394 0.15876 0.022177 0.26388-0.027408 0.40721-0.011369 0.097711 0.011089 0.16829 0.11558 0.24443 0.12144 0.064048 0.00624 0.12045-0.060122 0.18242-0.050643 0.060221 0.00947 0.16435 0.14034 0.17415 0.21394 0.012703 0.091602-0.067258 0.1743-0.040824 0.27492 0.095967 0.097716 0.27013 0.11734 0.40721 0.17363 0.089298-0.07358 0.012004-0.20976 0-0.31626-0.00161-0.047044 0.00624-0.08908 0-0.13229-0.00791-0.073351-0.039307-0.14031-0.039791-0.20309-0.0016141-0.28992 0.23342-0.42555 0.42788-0.54002 0.084174-0.049897 0.15073-0.13763 0.22376-0.17415 0.10317-0.051673 0.18022-0.063635 0.26562-0.11162 0.15437-0.086698 0.2865-0.156 0.40721-0.25425 0.055705-0.13147 0.00533-0.30777 0.010335-0.4377 0.055732-0.03418 0.10359 0.014393 0.16278 0.00982 0.09312-0.019217 0.10121-0.15062 0.154-0.20309 0.030627-0.030197 0.11435-0.051662 0.15245-0.081649 0.092818-0.072795 0.12303-0.18255 0.20412-0.21394 0.02912-0.011949 0.09625-0.00802 0.14211-0.020672 0.060318-0.016039 0.14618-0.087244 0.24443-0.12092 0.064027-0.022177 0.21069-0.026938 0.23513-0.05116 0.030197-0.030735-4.763e-4 -0.11729 0.010335-0.1633 0.049412-0.22999 0.39621-0.2786 0.601-0.35605 0.14354-0.054123 0.29083-0.15409 0.44855-0.12351-0.030951 0.10931-0.17786 0.070853-0.15296 0.20361 0.03434 0.1842 0.28064-0.052755 0.34572-0.080099 0.12428-0.052265 0.33765-0.084484 0.50074-0.14366 0.14302-0.052265 0.39937-0.13202 0.26458-0.29559-0.11245-0.00624-0.16658 0.13174-0.26458 0.17363-0.06768 0.011142-0.05475-0.056608-0.11265-0.062012-0.054716-0.00624-0.085709 0.050675-0.14211 0.040824-0.056043-0.0092566-0.13437-0.097224-0.14314-0.16278-0.022172-0.17008 0.14349-0.24003 0.21394-0.3669-0.046776-0.15382-0.25948-0.031817-0.38809-0.091984 0.012647-0.091602 0.10745-0.15458 0.21446-0.17208 0.087707-0.014748 0.28418-0.00696 0.33641 0.039274 0.030306 0.026106 0.00214 0.090086 0.05116 0.13281 0.05189 0.047044 0.11608 0.041771 0.18345 0.031006 0.02395-0.1161-0.15082-0.087042-0.13178-0.16381 0.13763-0.09003 0.36118-0.016064 0.52968-0.040824 0.09698-0.014425 0.19877-0.082901 0.28474-0.13126 0.02651-0.015098 0.05769-0.030723 0.08785-0.046509zm3.8483 0c0.01736 0.079013-0.07616 0.10681-0.12144 0.14728-0.15587 0.13868-0.31654 0.29783-0.4377 0.45889 0.07432 0.072515 0.20957 0.035981 0.33538 0.05116 0.0492 0.00624 0.11078 0.020854 0.16278 0.030489 0.06088 0.011142 0.12557 0.00756 0.17312 0.020154 0.08561 0.020777 0.10852 0.11214 0.19327 0.11214 0.1394-2.476e-4 0.14102-0.15076 0.06201-0.24495 0.02492-0.096155 0.06406-0.14607 0.03049-0.21342-0.06279-0.12558-0.29306-0.00607-0.30489-0.16278-0.0072-0.10159 0.08514-0.097135 0.12196-0.17312-8.21e-4 -0.00959 9.79e-4 -0.01708 1e-3 -0.025838zm-4.6576 0.93638h0.00103c0.047529 0.00624 0.10482 0.057598 0.16226 0.062012 0.054122 0.00161 0.098812-0.030036 0.13229-0.020671 0.085196 0.02223 0.12114 0.1514 0.040824 0.21446-0.066608 0.00802-0.092423-0.029304-0.14263-0.020154-0.13837 0.0232-0.19164 0.29423-0.29507 0.28525-0.097517-0.0078-0.14986-0.24604-0.050643-0.31678 0.00624-0.061787-0.045303-0.071253-0.041858-0.13229 0.029443-0.037463 0.11274-0.077853 0.19379-0.071313zm-0.45889 0.032039c0.028366 0.00108 0.049513 0.00767 0.060462 0.020154-0.013618 0.1086-0.098535 0.10132-0.18242 0.15193-0.14487 0.087424-0.22831 0.22046-0.2744 0.40721-0.013457 0.054117-0.15636 0.19838-0.22531 0.18397-0.16157-0.034018 0.045068-0.33197 0.081649-0.37724 0.040962-0.050166 0.095626-0.093996 0.14366-0.15193 0.04656-0.056076 0.07706-0.13166 0.12196-0.16278 0.049197-0.034018 0.18929-0.074608 0.2744-0.071314zm1.2061 0.36639c0.051673 0.00108 0.098138 0.0095 0.11937 0.030489-0.033211 0.13455-0.32291 0.098823-0.42891 0.050126 0.00624-0.050704 0.085755-0.064698 0.15245-0.071314 0.047044-0.00161 0.10544-0.011024 0.1571-0.0093zm-0.65991 0.24805c0.034341-0.00108 0.069749 0.00606 0.10594 0.01602-0.09376 0.07843-0.19555 0.12319-0.35657 0.17415-0.077424 0.024167-0.21114 0.054481-0.22428-0.03204-0.016042-0.10597 0.11328-0.081472 0.18397-0.09095 0.089013-0.012488 0.18665-0.063804 0.29094-0.06718zm10.119 0.6041c-0.01216 0.029101-0.02093 0.057527-0.01964 0.085266 0.0062 0.049197 0.06034 0.096273 0.07235 0.16278 0.0062 0.03531-0.01654 0.1115 0 0.14366 0.04909 0.095122 0.17739 0.027195 0.26923 0.032039-0.10432-0.14366-0.20841-0.28765-0.32194-0.42375zm0.5209 0.70073c-0.01478 0.07015-0.0628 0.16163-0.10128 0.22014-0.08881 0.13507-0.20908 0.1414-0.33641 0.21342-0.10619 0.06021-0.15219 0.1604-0.21446 0.2651-0.06747 0.11312-0.10945 0.18182-0.08165 0.34572-0.09105 0.18059-0.22845 0.29082-0.41703 0.37672-0.0557 0.025191-0.13227 0.035024-0.18345 0.07183-0.04059 0.029443-0.06403 0.10755-0.12196 0.1726-0.07144 0.079523-0.14589 0.1134-0.18345 0.17415-0.02912 0.047044-0.03937 0.1401-0.07183 0.20309-0.04371 0.085573-0.13614 0.12776-0.19327 0.21446-0.02606 0.039939-0.04333 0.12113-0.07183 0.17363-0.06458 0.11729-0.17514 0.20172-0.1633 0.30489 0.01196 0.099719 0.1251 0.1172 0.13281 0.20412 0.0016 0.049143-0.03248 0.079278-0.03049 0.13281 0.0016 0.078188 0.05431 0.1331 0.06046 0.19327 0.01524 0.15126-0.05101 0.2113-0.07958 0.31471-0.01363 0.049413-0.0075 0.10508-0.02067 0.14366-0.02545 0.075701-0.13069 0.14406-0.13281 0.23358-0.0011 0.06364 0.06546 0.11481 0.0708 0.20412 0.0016 0.06165-0.03084 0.12735-0.01964 0.18397 0.02148 0.11084 0.21974 0.23997 0.30592 0.32608 0.11525 0.11528 0.26606 0.20461 0.31574 0.32608 0.04166 0.10314 0.0414 0.23695 0.12196 0.31471 0.05942 0.05738 0.15797 0.09328 0.23409 0.15296 0.07102 0.05563 0.14839 0.10368 0.22428 0.16278 0.12401 0.09704 0.31198 0.29034 0.50953 0.27544 0.10317-0.0071 0.20853-0.09133 0.32556-0.11214 0.12039-0.02137 0.27698-0.03291 0.39843-0.02015 0.09303 0.0093 0.18854 0.06491 0.28525 0.06046 0.03298-2e-3 0.06779-0.0125 0.10335-0.02584v-4.5687c-0.18723-0.43321-0.40738-0.84862-0.66508-1.2377zm-13.142 2.6686-5.159e-4 0.0015611c-0.16926 0.0094083-0.2805 0.016878-0.37672 0.060451-0.20889 0.095061-0.18396 0.36544-0.36794 0.45372v0.95136c0.010463 0.0018 0.020526 0.0029 0.031006 0.0052 0.052534 0.01195 0.092902 0.03445 0.14366 0.05168 0.10779 0.03644 0.23987 0.03182 0.32608 0.07028 0.12986 0.05764 0.22473 0.30209 0.33641 0.36742 0.00624 0.06584-0.012561 0.15404 0.010852 0.20309 0.052588 0.0716 0.12702 0.05558 0.21394 0.10232 0.10401 0.05608 0.13555 0.2012 0.23409 0.24546 0.033964 0.01518 0.11935 0.01293 0.17312 0.02945 0.13504 0.04069 0.1793 0.19745 0.29507 0.1633 0.075911-0.02218 0.06985-0.10054 0.082166-0.17312 0.050166-0.05413 0.10524-0.14057 0.18345-0.14211 0.12659-0.0062 0.13742 0.1308 0.18345 0.25373 0.026159 0.0695 0.094381 0.1298 0.11214 0.20309 0.031596 0.1266 0.01565 0.5057-0.011369 0.58136-0.031919 0.09284-0.15763 0.1322-0.23513 0.23513-0.03644 0.04834-0.053939 0.11905-0.081649 0.15296-0.049897 0.0608-0.1239 0.07675-0.16123 0.13281-0.020939 0.0316-0.041439 0.09944-0.062012 0.14211-0.061179 0.12966-0.14293 0.22108-0.091467 0.37672 0.021368 0.06404 0.12118 0.10704 0.12144 0.18242 2.91e-4 0.08871-0.18846 0.16837-0.20309 0.26562-0.011142 0.07238 0.058633 0.20143 0.081649 0.29559 0.016849 0.07115 0.15131 0.11546 0.19327 0.16278 0.071503 0.0803 0.12846 0.19422 0.19379 0.29507 0.12918 0.19836 0.23027 0.44034 0.35605 0.63252 0.066448 0.10066 0.15984 0.1911 0.20412 0.29559 0.022445 0.05259 0.019585 0.1154 0.040308 0.16278 0.072789 0.16434 0.39424 0.33597 0.56017 0.41755 0.077666 0.03762 0.16385 0.05131 0.23513 0.09095 0.10798 0.06022 0.32168 0.22208 0.3762 0.31678 0.048659 0.08509 0.078706 0.29205 0.10232 0.42736 0.03165 0.17884 8.467e-4 0.31637 0.010853 0.51005 0.00624 0.10475 0.039532 0.2097 0.040824 0.31471 3.969e-4 0.03665-0.019219 0.06427-0.020669 0.1018-5.9e-5 0.0058 0.00206 0.01309 0.00206 0.01912 0.028903 0.01308 0.058767 0.02445 0.08785 0.03721h3.9408c0.0016-0.01742-7.41e-4 -0.03409 0.0041-0.05219 0.04871-0.18293 0.30175-0.29469 0.47904-0.37724 0.06092-0.02837 0.12297-0.07421 0.1726-0.09147 0.12269-0.04274 0.27595-0.01927 0.38809-0.06046 0.1909-0.06986 0.21076-0.27462 0.30489-0.44855 0.04462-0.08231 0.10343-0.16512 0.11214-0.22376 0.0074-0.05259-0.01955-0.10214-0.01137-0.16433 9e-3 -0.06152 0.06459-0.11479 0.08165-0.18242 0.02217-0.08824 0.03204-0.21746 0.03204-0.31574 0-0.0807-0.03786-0.15148-0.04082-0.22428-0.01333-0.26427 0.09548-0.29386 0.19327-0.4377 0.04909-0.07143 0.06756-0.15291 0.1018-0.20412 0.16415-0.24488 0.44899-0.36309 0.4284-0.73329-0.0062-0.1225-0.08402-0.39965-0.17415-0.43873-0.05151-0.02223-0.16983-0.0016-0.24443-0.03049-0.24081-0.0898-0.38195-0.38812-0.63149-0.40721-0.05313-0.0062-0.10229 0.02164-0.16226 0.02067-0.09876-0.0062-0.24777-0.06932-0.35708-0.08165-0.06949-0.0071-0.16241 0.02051-0.20412 0-0.06356-0.031-0.06968-0.14797-0.12144-0.18294-0.04075-0.02853-0.12119-0.03765-0.18345-0.06201-0.10033-0.03816-0.17984-0.08341-0.29559-0.09147-0.03563-0.0016-0.08036 0.01667-0.12196 0.01085-0.06404-0.01114-0.11455-0.0865-0.17363-0.12247-0.07406-0.04527-0.14252-0.067-0.17312-0.13126 0.06689-0.21943-0.11779-0.28041-0.16278-0.40721-0.02138-0.05942-0.01183-0.13098-0.03049-0.18397-0.02686-0.07594-0.10167-0.1196-0.18397-0.18293-0.14742-0.11347-0.27817-0.21999-0.48886-0.24598-0.092623-0.01195-0.1847 0.02794-0.29662 0.02067-0.11858-0.0071-0.26736-0.11152-0.35605-0.21291-0.086246-0.09899-0.12795-0.18782-0.20309-0.23513-0.071157-0.04581-0.16588-0.04438-0.21446-0.09043-0.02159-0.02013-0.01751-0.05504-0.040824-0.10284-0.035687-0.07408-0.095943-0.11535-0.05116-0.20412-0.081198-0.04177-0.083766 0.07744-0.1726 0.06201-0.079216-0.11238-0.14573-0.16523-0.32556-0.13229-0.082338 0.01523-0.12834 0.11885-0.22428 0.12144-0.078699 0.0062-0.14051-0.08755-0.24443-0.10232-0.078457-0.01114-0.16792 0.02092-0.22376 0.01085-0.086946-0.01733-0.11382-0.08934-0.19327-0.14159-0.058245-0.03811-0.17146-0.10389-0.20412-0.10284-0.10241 0.0062-0.17505 0.21795-0.31626 0.14314-0.06865-0.08701 0.11181-0.13307 0.030489-0.21446-0.061706-0.06171-0.11393 0.02815-0.1633 0.06201-0.056588 0.03886-0.10955 0.07814-0.17208 0.10129-0.13995 0.05227-0.22757 0.02473-0.33693 0.08113-0.10127 0.05232-0.10541 0.14022-0.16278 0.24443-0.047044 0.08539-0.15377 0.20982-0.22428 0.21497-0.085379 0.0062-0.16699-0.11948-0.24443-0.15296-0.23332-0.10108-0.34629 0.08991-0.54002 0.0925-0.17981 0.0062-0.43691-0.29035-0.42788-0.4594 0.00161-0.10313 0.059773-0.25943 0.07183-0.38706 0.011142-0.10148 0.079948-0.16262 0.081132-0.25528 0.0016452-0.12376-0.16407-0.2189-0.2444-0.2336-0.19034-0.034933-0.45467 0.076368-0.67283-0.011369-0.041554-0.069038 0.049072-0.11682 0.072347-0.18397 0.013405-0.038007 0.00518-0.089252 0.019121-0.13126 0.023953-0.064893 0.092589-0.11472 0.12299-0.18345 0.022392-0.052319 0.02809-0.12819 0.050643-0.19327 0.027075-0.074103 0.075884-0.12218 0.081649-0.17415 0.00705-0.068628-0.018509-0.14803-0.072347-0.19327zm2.7233 2.1585c0.068358 0.0072 0.077221 0.14875 0.00672 0.1602-0.076191 0.012-0.11499-0.11979-0.040824-0.154 0.012597-0.0062 0.02431-0.0061 0.034106-0.0057z" fill="#fff" opacity=".4" stroke-width=".53826"/>
  </g>
  <path d="m15.155 15.06a0.96189 0.96189 0 0 1-1.3582 0l-2.6772-2.6781c-0.64093 0.16912-1.3477 0.010062-1.8497-0.49198-0.50305-0.50257-0.66207-1.2098-0.49296-1.8502l1.1709 1.1709 1.3582-1.3582-1.1704-1.1709c0.64046-0.16864 1.3477-0.00964 1.8497 0.49247 0.50207 0.50208 0.66112 1.2093 0.49201 1.8497l2.6748 2.6786c0.37669 0.37428 0.37669 0.98398 0.0029 1.3582zm-3.7284 0.27916h-1.5937l-0.50929-1.1915c-0.12347-0.05142-0.20035-0.081676-0.32335-0.13308l-1.204 0.48142-1.1276-1.1271 0.48189-1.2021a38.787 38.787 0 0 1-0.13308-0.32287l-1.1915-0.51265v-1.5942l1.1915-0.50977c0.044679-0.10762 0.089368-0.21524 0.13308-0.32286l-0.4819-1.2021 1.1276-1.1276 1.2016 0.4819c0.1254-0.05381 0.19987-0.084559 0.32527-0.13596l0.50977-1.1891h1.5941l0.50929 1.1891c0.12588 0.05381 0.20035 0.084559 0.32576 0.13596l1.2016-0.4819 1.1276 1.1276-0.48191 1.2021c0.05381 0.12492 0.08456 0.19987 0.13596 0.32527l1.1886 0.51026v1.5937l-0.90183 0.38726-1.0354-1.0354a2.8867 2.8867 0 0 0-0.83263-2.1913 2.8381 2.8381 0 0 0-2.0266-0.83794c-0.25128 0-0.50208 0.033641-0.74568 0.097528a2.8684 2.8684 0 0 0-2.0419 2.0419c-0.26137 0.99215 0.020675 2.0559 0.74039 2.7762a2.8381 2.8381 0 0 0 2.1909 0.83264l1.0325 1.033-0.38678 0.90183z" fill="#fff" stroke-width=".0093855" p-id="4564"/>
 </g>
</svg>
