<?xml version="1.0" encoding="UTF-8" standalone="no"?>
<svg
   xmlns:dc="http://purl.org/dc/elements/1.1/"
   xmlns:cc="http://creativecommons.org/ns#"
   xmlns:rdf="http://www.w3.org/1999/02/22-rdf-syntax-ns#"
   xmlns:svg="http://www.w3.org/2000/svg"
   xmlns="http://www.w3.org/2000/svg"
   xmlns:xlink="http://www.w3.org/1999/xlink"
   xmlns:sodipodi="http://sodipodi.sourceforge.net/DTD/sodipodi-0.dtd"
   xmlns:inkscape="http://www.inkscape.org/namespaces/inkscape"
   height="64"
   viewBox="0 0 64 64"
   width="64"
   version="1.1"
   id="svg33"
   sodipodi:docname="applications-engineering.svg"
   inkscape:version="1.0.1 (3bc2e813f5, 2020-09-07, custom)">
  <metadata
     id="metadata39">
    <rdf:RDF>
      <cc:Work
         rdf:about="">
        <dc:format>image/svg+xml</dc:format>
        <dc:type
           rdf:resource="http://purl.org/dc/dcmitype/StillImage" />
        <dc:title></dc:title>
      </cc:Work>
    </rdf:RDF>
  </metadata>
  <defs
     id="defs37">
    <linearGradient
       id="linearGradient938"
       x1="99.523003"
       x2="103.24"
       y1="38.493999"
       y2="41.915001"
       gradientTransform="matrix(1.3333,0,0,1.3333,-103.146,-21.795)"
       gradientUnits="userSpaceOnUse">
      <stop
         stop-color="#6eb92e"
         offset="0"
         id="stop866" />
      <stop
         stop-color="#4592d6"
         offset="1"
         id="stop868" />
    </linearGradient>
    <linearGradient
       id="b-3"
       x1="399.57001"
       x2="399.57001"
       y1="545.79999"
       y2="517.79999"
       gradientTransform="matrix(2.1429,0,0,2.1429,-753.926,-1107.5)"
       gradientUnits="userSpaceOnUse">
      <stop
         stop-color="#3889e9"
         offset="0"
         id="stop871" />
      <stop
         stop-color="#5ea5fb"
         offset="1"
         id="stop873" />
    </linearGradient>
    <style
       type="text/css"
       id="style876" />
    <style
       type="text/css"
       id="style878" />
    <filter
       id="filter1057"
       x="-0.027000001"
       y="-0.027000001"
       width="1.054"
       height="1.054"
       color-interpolation-filters="sRGB">
      <feGaussianBlur
         stdDeviation="0.61875"
         id="feGaussianBlur880" />
    </filter>
    <linearGradient
       id="linearGradient1053"
       x1="-127"
       x2="-72"
       y1="60"
       y2="5"
       gradientTransform="translate(203.93,-0.054156)"
       gradientUnits="userSpaceOnUse">
      <stop
         stop-color="#1d2123"
         offset="0"
         id="stop883" />
      <stop
         stop-color="#33393e"
         stop-opacity=".99608"
         offset="1"
         id="stop885" />
    </linearGradient>
    <linearGradient
       inkscape:collect="always"
       xlink:href="#c"
       id="linearGradient1017"
       gradientUnits="userSpaceOnUse"
       x1="282.37482"
       y1="644.84979"
       x2="281.83868"
       y2="10.592493" />
    <linearGradient
       inkscape:collect="always"
       xlink:href="#c"
       id="linearGradient1019"
       gradientUnits="userSpaceOnUse"
       x1="282.37482"
       y1="644.84979"
       x2="281.83868"
       y2="10.592493" />
    <linearGradient
       inkscape:collect="always"
       xlink:href="#c"
       id="linearGradient1021"
       gradientUnits="userSpaceOnUse"
       x1="282.37482"
       y1="644.84979"
       x2="281.83868"
       y2="10.592493" />
  </defs>
  <sodipodi:namedview
     pagecolor="#ffffff"
     bordercolor="#666666"
     borderopacity="1"
     objecttolerance="10"
     gridtolerance="10"
     guidetolerance="10"
     inkscape:pageopacity="0"
     inkscape:pageshadow="2"
     inkscape:window-width="1920"
     inkscape:window-height="942"
     id="namedview35"
     showgrid="false"
     inkscape:zoom="8.5626212"
     inkscape:cx="46.280749"
     inkscape:cy="29.06156"
     inkscape:window-x="0"
     inkscape:window-y="38"
     inkscape:window-maximized="1"
     inkscape:current-layer="svg33" />
  <linearGradient
     id="a"
     gradientUnits="userSpaceOnUse"
     x1="399.57144"
     x2="399.57144"
     y1="545.79797"
     y2="517.79797"
     gradientTransform="matrix(1.9174843,0,0,1.9174843,-657.77463,-987.80154)">
    <stop
       offset="0"
       stop-color="#3889e9"
       id="stop2" />
    <stop
       offset="1"
       stop-color="#5ea5fb"
       id="stop4" />
  </linearGradient>
  <linearGradient
     id="b"
     gradientUnits="userSpaceOnUse"
     x1="400.5119"
     x2="400.69922"
     y1="546.07446"
     y2="517.77289"
     gradientTransform="matrix(2.1428589,0,0,2.1428589,-747.92571,-1107.568)">
    <stop
       offset="0"
       stop-color="#1d2125"
       id="stop7" />
    <stop
       offset="1"
       stop-color="#67747f"
       id="stop9" />
  </linearGradient>
  <linearGradient
     id="c"
     gradientUnits="userSpaceOnUse"
     x1="282.37482"
     x2="281.83868"
     y1="644.84979"
     y2="10.592493">
    <stop
       offset="0"
       stop-color="#e3e3e3"
       id="stop12" />
    <stop
       offset="1"
       stop-color="#fffcff"
       id="stop14" />
  </linearGradient>
  <circle
     cx="110.3147"
     cy="31.912609"
     fill="url(#a)"
     id="ellipse17"
     r="0"
     style="fill:url(#a);stroke-width:1.91748" />
  <g
     transform="translate(-72.440002)"
     id="g896">
    <rect
       x="76.934998"
       y="4.9558001"
       width="55"
       height="55"
       ry="15"
       fill="#141414"
       filter="url(#filter1057)"
       opacity="0.3"
       stroke-linecap="round"
       stroke-width="2.7444"
       id="rect890" />
    <rect
       x="76.934998"
       y="4.9558001"
       width="55"
       height="55"
       ry="15"
       fill="url(#linearGradient1053)"
       stroke-linecap="round"
       stroke-width="2.7444"
       id="rect892"
       style="fill:url(#linearGradient1053)" />
    <circle
       cx="104.44"
       cy="32"
       r="30.000999"
       fill-opacity="0"
       stroke-width="1.5715"
       id="circle894" />
  </g>
  <g
     transform="matrix(3.7796,0,0,3.7796,72.438998,0.45588)"
     fill="#5e4aa6"
     stroke-width="0.26458"
     id="g924">
    <circle
       cx="-330.35001"
       cy="-328.37"
       r="0"
       image-rendering="optimizeSpeed"
       id="circle902" />
    <circle
       cx="-330.35001"
       cy="-328.38"
       r="0"
       image-rendering="optimizeSpeed"
       id="circle904" />
    <circle
       cx="-330.35001"
       cy="-328.38"
       r="0"
       image-rendering="optimizeSpeed"
       id="circle906" />
    <circle
       cx="-352.63"
       cy="-336.84"
       r="0"
       image-rendering="optimizeSpeed"
       id="circle908" />
    <circle
       cx="-330.35001"
       cy="-328.37"
       r="0"
       image-rendering="optimizeSpeed"
       id="circle910" />
    <circle
       cx="-305.84"
       cy="-328.26999"
       r="0"
       image-rendering="optimizeSpeed"
       id="circle912" />
    <circle
       cx="-305.84"
       cy="-328.28"
       r="0"
       image-rendering="optimizeSpeed"
       id="circle914" />
    <circle
       cx="-305.84"
       cy="-328.28"
       r="0"
       image-rendering="optimizeSpeed"
       id="circle916" />
    <circle
       cx="-328.12"
       cy="-336.73999"
       r="0"
       image-rendering="optimizeSpeed"
       id="circle918" />
    <circle
       cx="-305.84"
       cy="-328.26999"
       r="0"
       image-rendering="optimizeSpeed"
       id="circle920" />
    <circle
       cx="-305.03"
       cy="-328.69"
       r="0"
       id="circle922" />
  </g>
  <circle
     cx="104.444"
     cy="32"
     r="0"
     fill="url(#b-3)"
     stroke-width="1.5715"
     id="circle926"
     style="fill:url(#b-3)" />
  <circle
     cx="-1250.0959"
     cy="-1241.1"
     r="0"
     fill="#5e4aa6"
     id="circle928" />
  <circle
     cx="-150.576"
     cy="24.311001"
     r="0"
     fill="#5e4aa6"
     fill-rule="evenodd"
     id="circle930" />
  <g
     fill="url(#c)"
     transform="matrix(0.03377595,-0.03486492,0.03486492,0.03377595,10.995894,32.333225)"
     id="g1015"
     style="fill:url(#linearGradient1021)">
    <path
       d="M 562.041,0 C 391.347,0 220.653,0 49.959,0 22.368,0 0,22.368 0,49.959 V 562.041 C 0,589.632 22.368,612 49.959,612 H 562.041 C 589.632,612 612,589.632 612,562.041 612,391.347 612,220.654 612,49.959 612,22.368 589.632,0 562.041,0 Z M 49.959,37.469 c 6.898,0 12.49,5.592 12.49,12.49 0,6.898 -5.592,12.49 -12.49,12.49 -6.898,0 -12.49,-5.592 -12.49,-12.49 0,-6.898 5.592,-12.49 12.49,-12.49 z m 0,537.062 c -6.898,0 -12.49,-5.592 -12.49,-12.49 0,-6.898 5.592,-12.49 12.49,-12.49 6.898,0 12.49,5.592 12.49,12.49 0,6.898 -5.592,12.49 -12.49,12.49 z M 306,554.547 C 168.731,554.547 57.453,443.269 57.453,306 57.453,168.731 168.731,57.453 306,57.453 443.269,57.453 554.547,168.731 554.547,306 554.547,443.269 443.269,554.547 306,554.547 Z m 256.041,19.984 c -6.898,0 -12.49,-5.592 -12.49,-12.49 0,-6.898 5.592,-12.49 12.49,-12.49 6.898,0 12.49,5.592 12.49,12.49 0,6.898 -5.592,12.49 -12.49,12.49 z m 0,-512.082 c -6.898,0 -12.49,-5.592 -12.49,-12.49 0,-6.898 5.592,-12.49 12.49,-12.49 6.898,0 12.49,5.592 12.49,12.49 0,6.898 -5.592,12.49 -12.49,12.49 z"
       fill="url(#c)"
       id="path1011"
       style="fill:url(#linearGradient1017)" />
    <path
       d="m 524.976,260.924 c -1.238,-6.015 -3.819,-10.307 -8.554,-14.218 -37.84,-31.272 -90.317,-29.17 -157.433,6.305 -4.38,-4.38 -9.121,-8.082 -14.434,-11.27 46.257,-41.499 88.423,-58.921 126.495,-52.269 11.225,1.961 18.998,-10.901 12.043,-19.926 -15.437,-20.035 -33.006,-36.347 -54.128,-50.259 -5.13,-3.378 -9.989,-4.586 -16.103,-4.005 -48.869,4.645 -84.49,43.238 -106.863,115.78 -6.195,0 -12.165,0.734 -18.175,2.237 3.365,-62.052 20.86,-104.187 52.486,-126.405 9.324,-6.55 5.725,-21.141 -5.574,-22.607 -25.083,-3.251 -49.04,-2.363 -73.813,2.737 -6.015,1.238 -10.307,3.819 -14.218,8.554 -31.272,37.84 -29.17,90.317 6.305,157.433 -4.38,4.38 -8.082,9.121 -11.27,14.434 -41.499,-46.257 -58.921,-88.423 -52.269,-126.495 1.961,-11.225 -10.901,-18.998 -19.926,-12.044 -20.035,15.437 -36.347,33.006 -50.259,54.128 -3.378,5.13 -4.586,9.989 -4.005,16.103 4.645,48.869 43.238,84.49 115.78,106.863 0,6.195 0.734,12.165 2.237,18.175 -62.052,-3.365 -104.187,-20.86 -126.405,-52.486 -6.55,-9.324 -21.141,-5.725 -22.607,5.574 -3.251,25.083 -2.363,49.04 2.737,73.813 1.238,6.015 3.819,10.307 8.554,14.218 37.84,31.272 90.317,29.17 157.433,-6.305 4.38,4.38 9.121,8.082 14.434,11.27 -46.257,41.499 -88.423,58.921 -126.495,52.269 -11.225,-1.961 -18.998,10.901 -12.043,19.926 15.437,20.035 33.006,36.347 54.128,50.259 5.13,3.378 9.989,4.586 16.103,4.005 48.869,-4.645 84.49,-43.238 106.863,-115.78 6.195,0 12.165,-0.734 18.175,-2.238 -3.365,62.052 -20.86,104.187 -52.486,126.405 -9.324,6.55 -5.725,21.141 5.574,22.607 25.083,3.251 49.04,2.363 73.813,-2.737 6.015,-1.238 10.307,-3.819 14.218,-8.554 31.272,-37.84 29.17,-90.317 -6.305,-157.433 4.38,-4.38 8.082,-9.121 11.27,-14.434 41.499,46.257 58.921,88.423 52.269,126.495 -1.961,11.225 10.901,18.998 19.926,12.043 20.035,-15.437 36.347,-33.006 50.259,-54.128 3.378,-5.13 4.586,-9.989 4.005,-16.103 -4.645,-48.869 -43.238,-84.49 -115.78,-106.863 0,-6.195 -0.734,-12.165 -2.237,-18.175 62.052,3.365 104.187,20.86 126.405,52.486 6.55,9.324 21.141,5.725 22.607,-5.574 3.251,-25.082 2.363,-49.037 -2.737,-73.811 z M 306,368.449 c -34.489,0 -62.449,-27.96 -62.449,-62.449 0,-34.489 27.96,-62.449 62.449,-62.449 34.489,0 62.449,27.96 62.449,62.449 0,34.489 -27.96,62.449 -62.449,62.449 z"
       fill="url(#c)"
       id="path1013"
       style="fill:url(#linearGradient1019)" />
  </g>
</svg>
