<?xml version="1.0" encoding="UTF-8"?>
<svg width="64" height="64" version="1.1" viewBox="0 0 16.933 16.933" xmlns="http://www.w3.org/2000/svg" xmlns:cc="http://creativecommons.org/ns#" xmlns:dc="http://purl.org/dc/elements/1.1/" xmlns:rdf="http://www.w3.org/1999/02/22-rdf-syntax-ns#" xmlns:xlink="http://www.w3.org/1999/xlink">
 <defs>
  <filter id="filter1057-6" x="-.027" y="-.027" width="1.054" height="1.054" color-interpolation-filters="sRGB">
   <feGaussianBlur stdDeviation="0.61875"/>
  </filter>
  <linearGradient id="linearGradient1053-0" x1="-127" x2="-72" y1="60" y2="5" gradientTransform="matrix(.26458 0 0 .26458 36.579 -.19163)" gradientUnits="userSpaceOnUse">
   <stop stop-color="#8cd750" offset="0"/>
   <stop stop-color="#7dcd32" stop-opacity=".99608" offset=".49585"/>
   <stop stop-color="#87d241" stop-opacity=".99608" offset="1"/>
  </linearGradient>
  <linearGradient id="linearGradient2134" x1="32.153" x2="32.153" y1="45.035" y2="4.0937" gradientTransform="matrix(.26459 0 0 .26459 1.8154 .083756)" gradientUnits="userSpaceOnUse">
   <stop stop-color="#d1ecba" offset="0"/>
   <stop stop-color="#d1ecba" stop-opacity="0" offset="1"/>
  </linearGradient>
  <filter id="filter948" x="-.035705" y="-.0363" width="1.0714" height="1.0726" color-interpolation-filters="sRGB">
   <feGaussianBlur stdDeviation="15.43542"/>
  </filter>
 </defs>
 <metadata>
  <rdf:RDF>
   <cc:Work rdf:about="">
    <dc:format>image/svg+xml</dc:format>
    <dc:type rdf:resource="http://purl.org/dc/dcmitype/StillImage"/>
    <dc:title/>
   </cc:Work>
  </rdf:RDF>
 </metadata>
 <g transform="translate(-1.7859 .056696)">
  <rect transform="matrix(.26458 0 0 .26458 1.7859 -.056696)" x="4.5" y="4.5" width="55" height="55" ry="15" fill="#141414" filter="url(#filter1057-6)" opacity=".3" stroke-linecap="round" stroke-width="2.7444"/>
  <rect x="2.9766" y="1.1339" width="14.552" height="14.552" ry="3.9687" fill="url(#linearGradient1053-0)" stroke-linecap="round" stroke-width=".72611"/>
  <path d="m6.9453 1.1339c-1.8925 0-3.4645 1.3125-3.8664 3.0799-0.041042 0.42954-0.060978 2.0066-0.060978 2.5552l7.3045 5.6422 7.2063-5.6417v-0.034106c-4.5e-4 -0.35777-0.010938-1.7785-0.027389-2.0839-0.22299-1.9843-1.8955-3.5176-3.9414-3.5176z" fill="url(#linearGradient2134)" stroke-width=".26458"/>
  <path transform="matrix(.010991 0 0 .010991 4.5507 2.7953)" d="m852.37 347.35a360.73 360.73 0 0 0-37.236-76.8 30.255 30.255 0 0 1 0-32l28.509-44.218a29.673 29.673 0 0 0-4.0727-37.236l-29.673-29.091a30.255 30.255 0 0 0-37.236-4.6546l-44.218 27.927a29.091 29.091 0 0 1-32 0 383.42 383.42 0 0 0-128-53.527 30.836 30.836 0 0 1-23.273-22.691l-11.055-51.2a30.255 30.255 0 0 0-29.673-23.273h-43.636a29.091 29.091 0 0 0-29.091 23.273l-11.636 50.618a28.509 28.509 0 0 1-23.273 22.109 402.04 402.04 0 0 0-128.58 52.364 29.091 29.091 0 0 1-32 0l-44.218-27.927a29.673 29.673 0 0 0-37.236 4.0727l-29.091 29.091a29.673 29.673 0 0 0-4.0727 37.236l27.345 43.636a30.255 30.255 0 0 1 0 32.582 390.4 390.4 0 0 0-51.782 128 30.255 30.255 0 0 1-22.691 22.691l-51.2 11.636a29.091 29.091 0 0 0-23.273 29.091v41.309a29.673 29.673 0 0 0 23.273 29.673l50.618 11.055a29.091 29.091 0 0 1 22.109 23.273 380.51 380.51 0 0 0 52.945 128.58 30.255 30.255 0 0 1 0 32l-27.927 44.8a29.673 29.673 0 0 0 4.0727 37.236l29.091 29.091a29.673 29.673 0 0 0 37.236 4.0727l43.636-27.927a31.418 31.418 0 0 1 32.582 0 376.44 376.44 0 0 0 85.527 41.891 119.27 119.27 0 0 1 31.418-90.764 122.76 122.76 0 0 1 90.182-40.145h12.218l69.236 6.9818 32.582-32 154.76-153.02-4.0727-69.236a120.44 120.44 0 0 1 32.582-90.764 122.76 122.76 0 0 1 80.291-37.818zm-384 264.73a130.33 130.33 0 1 1 130.33-130.33 130.33 130.33 0 0 1-130.33 130.33z" fill="#80d03a" filter="url(#filter948)" p-id="20929"/>
  <path transform="matrix(.010991 0 0 .010991 4.5507 2.7953)" d="m1037.4 562.04a77.964 77.964 0 0 1-20.946 58.182 79.709 79.709 0 0 1-58.182 26.182h-8.1454l-89.6-8.7273-34.327 33.745-10.473 9.8909-148.95 146.62-20.364 20.364 6.4 89.6a79.127 79.127 0 0 1-21.527 58.182 80.873 80.873 0 0 1-58.182 25.018h-5.8182l-43.055-4.0727h-12.218a12.218 12.218 0 0 1-4.6546-3.4909 22.691 22.691 0 0 1-6.9818-18.036 23.855 23.855 0 0 1 7.5636-16.873l43.055-42.473a5.8182 5.8182 0 0 0 0-7.5636l-15.127-15.127-42.473-43.055h-7.5636l-43.636 43.055a27.927 27.927 0 0 1-16.873 7.5636 22.109 22.109 0 0 1-16.873-6.9818 35.491 35.491 0 0 1-5.2364-7.5636 20.945 20.945 0 0 1 0-11.636l-2.9091-27.927v-14.545a77.964 77.964 0 0 1 20.945-58.182 76.8 76.8 0 0 1 58.182-26.182h8.1454l89.6 8.7273 36.655-36.073 10.473-10.473 169.31-166.4-6.4-89.6a80.291 80.291 0 0 1 79.127-83.782h1.7454l43.055 4.0727h12.218a29.091 29.091 0 0 1 4.6546 4.0727 23.273 23.273 0 0 1 2.9091 29.673 13.964 13.964 0 0 1-3.4909 5.2364l-43.055 42.473s-2.9091 5.2364 0 6.9818l48.291 49.455 9.3091 9.3091h2.9091a6.4 6.4 0 0 0 4.0727 0l44.218-43.055a23.273 23.273 0 0 1 18.036-7.5636 22.109 22.109 0 0 1 16.873 6.9818 35.491 35.491 0 0 1 5.2363 7.5636 19.782 19.782 0 0 1 0 11.636z" fill="#80d03a" filter="url(#filter948)" p-id="20930"/>
  <path d="m13.919 6.6131a3.9649 3.9649 0 0 0-0.40927-0.84413 0.33254 0.33254 0 0 1 0-0.35172l0.31335-0.48601a0.32614 0.32614 0 0 0-0.04476-0.40927l-0.32615-0.31975a0.33254 0.33254 0 0 0-0.40927-0.05116l-0.48601 0.30695a0.31975 0.31975 0 0 1-0.35172 0 4.2143 4.2143 0 0 0-1.4069-0.58833 0.33893 0.33893 0 0 1-0.2558-0.2494l-0.12151-0.56275a0.33254 0.33254 0 0 0-0.32614-0.2558h-0.47961a0.31975 0.31975 0 0 0-0.31975 0.2558l-0.12789 0.55635a0.31335 0.31335 0 0 1-0.2558 0.243 4.4189 4.4189 0 0 0-1.4133 0.57554 0.31975 0.31975 0 0 1-0.35172 0l-0.48601-0.30695a0.32614 0.32614 0 0 0-0.40927 0.044764l-0.31975 0.31975a0.32614 0.32614 0 0 0-0.044764 0.40927l0.30055 0.47961a0.33254 0.33254 0 0 1 0 0.35812 4.291 4.291 0 0 0-0.56915 1.4069 0.33254 0.33254 0 0 1-0.2494 0.2494l-0.56275 0.12789a0.31975 0.31975 0 0 0-0.2558 0.31975v0.45404a0.32614 0.32614 0 0 0 0.2558 0.32614l0.55635 0.12151a0.31975 0.31975 0 0 1 0.243 0.2558 4.1823 4.1823 0 0 0 0.58193 1.4133 0.33254 0.33254 0 0 1 0 0.35172l-0.30695 0.4924a0.32614 0.32614 0 0 0 0.044764 0.40927l0.31975 0.31974a0.32614 0.32614 0 0 0 0.40927 0.04476l0.47961-0.30695a0.34532 0.34532 0 0 1 0.35812 0 4.1375 4.1375 0 0 0 0.94005 0.46043 1.3109 1.3109 0 0 1 0.34532-0.99761 1.3493 1.3493 0 0 1 0.99121-0.44124h0.13429l0.76099 0.07674 0.35812-0.35172 1.701-1.6819-0.04476-0.76099a1.3238 1.3238 0 0 1 0.35811-0.99761 1.3493 1.3493 0 0 1 0.8825-0.41567zm-4.2206 2.9097a1.4325 1.4325 0 1 1 1.4325-1.4325 1.4325 1.4325 0 0 1-1.4325 1.4325z" fill="#fafafa" stroke-width=".010991" p-id="20929"/>
  <path d="m15.953 8.9728a0.85692 0.85692 0 0 1-0.23022 0.63949 0.8761 0.8761 0 0 1-0.63949 0.28777h-0.08953l-0.98481-0.095924-0.3773 0.3709-0.11511 0.10871-1.6371 1.6115-0.22382 0.22382 0.07034 0.98481a0.8697 0.8697 0 0 1-0.2366 0.63949 0.88889 0.88889 0 0 1-0.63949 0.27498h-0.06395l-0.47323-0.04476h-0.13429a0.13429 0.13429 0 0 1-0.05116-0.03837 0.2494 0.2494 0 0 1-0.07674-0.19824 0.2622 0.2622 0 0 1 0.08313-0.18546l0.47323-0.46683a0.063949 0.063949 0 0 0 0-0.08313l-0.16626-0.16627-0.46683-0.47323h-0.083134l-0.47961 0.47323a0.30695 0.30695 0 0 1-0.18545 0.08313 0.243 0.243 0 0 1-0.18545-0.07674 0.39009 0.39009 0 0 1-0.057554-0.08313 0.23021 0.23021 0 0 1 0-0.12789l-0.031975-0.30695v-0.15987a0.85692 0.85692 0 0 1 0.23021-0.63949 0.84413 0.84413 0 0 1 0.63949-0.28777h0.089528l0.98481 0.09592 0.40288-0.39649 0.11511-0.11511 1.8609-1.8289-0.07034-0.98481a0.8825 0.8825 0 0 1 0.8697-0.92087h0.01918l0.47323 0.044764h0.13429a0.31975 0.31975 0 0 1 0.05116 0.044764 0.2558 0.2558 0 0 1 0.03197 0.32614 0.15348 0.15348 0 0 1-0.03837 0.057554l-0.47323 0.46683s-0.03197 0.057554 0 0.076739l0.53078 0.54357 0.10232 0.10232h0.03197a0.070344 0.070344 0 0 0 0.04476 0l0.48601-0.47323a0.2558 0.2558 0 0 1 0.19824-0.083134 0.243 0.243 0 0 1 0.18546 0.076738 0.39009 0.39009 0 0 1 0.05755 0.083134 0.21743 0.21743 0 0 1 0 0.12789z" fill="#fafafa" stroke-width=".010991" p-id="20930"/>
 </g>
</svg>
