<?xml version="1.0" encoding="UTF-8" standalone="no"?>
<svg
   xmlns:dc="http://purl.org/dc/elements/1.1/"
   xmlns:cc="http://creativecommons.org/ns#"
   xmlns:rdf="http://www.w3.org/1999/02/22-rdf-syntax-ns#"
   xmlns:svg="http://www.w3.org/2000/svg"
   xmlns="http://www.w3.org/2000/svg"
   xmlns:xlink="http://www.w3.org/1999/xlink"
   xmlns:sodipodi="http://sodipodi.sourceforge.net/DTD/sodipodi-0.dtd"
   xmlns:inkscape="http://www.inkscape.org/namespaces/inkscape"
   inkscape:version="1.0 (4035a4fb49, 2020-05-01)"
   sodipodi:docname="application-x-clementine.svg"
   id="svg36"
   version="1.1"
   height="64"
   width="64">
  <sodipodi:namedview
     inkscape:current-layer="svg36"
     inkscape:window-maximized="1"
     inkscape:window-y="36"
     inkscape:window-x="0"
     inkscape:cy="14.497001"
     inkscape:cx="-5.5703349"
     inkscape:zoom="4.391796"
     showgrid="false"
     id="namedview38"
     inkscape:window-height="964"
     inkscape:window-width="1920"
     inkscape:pageshadow="2"
     inkscape:pageopacity="0"
     guidetolerance="10"
     gridtolerance="10"
     objecttolerance="10"
     borderopacity="1"
     bordercolor="#666666"
     pagecolor="#ffffff" />
  <metadata
     id="metadata2">
    <rdf:RDF>
      <cc:Work
         rdf:about="">
        <dc:format>image/svg+xml</dc:format>
        <dc:type
           rdf:resource="http://purl.org/dc/dcmitype/StillImage" />
        <dc:title></dc:title>
      </cc:Work>
    </rdf:RDF>
  </metadata>
  <defs
     id="defs16">
    <style
       id="style4"
       type="text/css" />
    <style
       id="style6"
       type="text/css" />
    <filter
       color-interpolation-filters="sRGB"
       height="1.048"
       width="1.048"
       y="-.024"
       x="-.024"
       id="filter2761">
      <feGaussianBlur
         id="feGaussianBlur8"
         stdDeviation="0.14552168" />
    </filter>
    <linearGradient
       gradientUnits="userSpaceOnUse"
       gradientTransform="matrix(3.7796,0,0,3.7796,-2.6862143,-16.14982)"
       y2="2.6243"
       y1="15.576"
       x2="14.217"
       x1="1.3315"
       id="linearGradient1024">
      <stop
         id="stop11"
         offset="0"
         stop-color="#ff7d1e" />
      <stop
         id="stop13"
         offset="1"
         stop-color="#ffa53c" />
    </linearGradient>
    <filter
       color-interpolation-filters="sRGB"
       height="1.048"
       width="1.048"
       y="-.024"
       x="-.024"
       id="filter2761-62">
      <feGaussianBlur
         id="feGaussianBlur4"
         stdDeviation="0.14552168" />
    </filter>
    <linearGradient
       gradientTransform="matrix(3.7796,0,0,3.7796,95.420454,0.53085)"
       gradientUnits="userSpaceOnUse"
       y2="2.6243"
       y1="15.576"
       x2="14.217"
       x1="1.3315"
       id="linearGradient1024-9">
      <stop
         id="stop7"
         offset="0"
         stop-color="#ff7d1e" />
      <stop
         id="stop9"
         offset="1"
         stop-color="#ffa53c" />
    </linearGradient>
    <linearGradient
       gradientUnits="userSpaceOnUse"
       gradientTransform="matrix(1.2346,0,0,1.2346,2.3832028,3.6047)"
       y2="4"
       y1="44"
       x2="0"
       id="linearGradient890">
      <stop
         id="stop4"
         offset="0"
         stop-color="#FFB900" />
      <stop
         id="stop6"
         offset="1"
         stop-color="#ff0" />
    </linearGradient>
    <filter
       color-interpolation-filters="sRGB"
       height="1.048"
       width="1.048"
       y="-.024"
       x="-.024"
       id="filter2761-67">
      <feGaussianBlur
         id="feGaussianBlur9"
         stdDeviation="0.14552168" />
    </filter>
    <linearGradient
       gradientUnits="userSpaceOnUse"
       gradientTransform="matrix(3.7796,0,0,3.7796,66.443573,0.53068)"
       y2="1.1082"
       y1="15.601"
       x2="15.644"
       x1="1.4377"
       id="linearGradient4673">
      <stop
         id="stop12"
         offset="0"
         stop-color="#dc2828" />
      <stop
         id="stop14"
         offset="1"
         stop-color="#fa4141" />
    </linearGradient>
    <linearGradient
       gradientUnits="userSpaceOnUse"
       y2="9.67"
       y1="54.592"
       x2="34.134"
       x1="34.134"
       id="linearGradient915">
      <stop
         id="stop17"
         offset="0"
         stop-color="#ffb900" />
      <stop
         id="stop19"
         offset="1"
         stop-color="#ff0" />
    </linearGradient>
    <filter
       inkscape:collect="always"
       style="color-interpolation-filters:sRGB"
       id="filter1057"
       x="-0.027000001"
       width="1.054"
       y="-0.027000001"
       height="1.054">
      <feGaussianBlur
         inkscape:collect="always"
         stdDeviation="0.61875"
         id="feGaussianBlur1059" />
    </filter>
    <linearGradient
       inkscape:collect="always"
       xlink:href="#linearGradient1051"
       id="linearGradient1053"
       x1="-127"
       y1="60"
       x2="-80.658669"
       y2="13.658672"
       gradientUnits="userSpaceOnUse"
       gradientTransform="translate(131.5,-0.50999746)" />
    <linearGradient
       inkscape:collect="always"
       id="linearGradient1051">
      <stop
         style="stop-color:#ff7d1e;stop-opacity:1"
         offset="0"
         id="stop1047" />
      <stop
         style="stop-color:#ffa53c;stop-opacity:1"
         offset="1"
         id="stop1049" />
    </linearGradient>
    <linearGradient
       id="linearGradient890-3"
       x2="0"
       y1="44"
       y2="4"
       gradientTransform="matrix(1.2346,0,0,1.2346,3.1419,3.6047)"
       gradientUnits="userSpaceOnUse">
      <stop
         stop-color="#FFB900"
         offset="0"
         id="stop861" />
      <stop
         stop-color="#ff0"
         offset="1"
         id="stop863" />
    </linearGradient>
    <filter
       id="filter2761-6"
       x="-.024"
       y="-.024"
       width="1.048"
       height="1.048"
       color-interpolation-filters="sRGB">
      <feGaussianBlur
         stdDeviation="0.14552168"
         id="feGaussianBlur866" />
    </filter>
  </defs>
  <rect
     style="opacity:0.3;fill:#141414;fill-opacity:1;stroke-width:2.74436;stroke-linecap:round;filter:url(#filter1057)"
     id="rect1055"
     width="55"
     height="55"
     x="4.4999995"
     y="4.4999995"
     ry="15" />
  <rect
     ry="14.999999"
     y="4.5000019"
     x="4.5000019"
     height="54.999996"
     width="54.999996"
     id="rect1045"
     style="fill:url(#linearGradient1053);fill-opacity:1;stroke-width:2.74436;stroke-linecap:round" />
  <circle
     id="circle18"
     image-rendering="optimizeSpeed"
     fill="#5e4aa6"
     r="0"
     cy="-1241.6"
     cx="-1248.7" />
  <g
     id="g24"
     transform="translate(96.721 -4.4322)">
    <g
       id="g22"
       transform="translate(1,1)">
      <g
         id="g20"
         opacity=".1">
        <!-- color: #e57e29 -->
      </g>
    </g>
  </g>
  <path
     id="path34"
     stroke-width="3.7796"
     fill="#f9f9f9"
     enable-background="new"
     d="m21.385 12.861-0.0098 2e-3c-6.1604 0-11.873 1.865-16.631 5.0137-0.012884 0.01985-0.024276 0.04067-0.037109 0.06055-0.11664 1.6358-0.17632 3.4722-0.19336 5.5195 1.2699-1.2214 2.4984-2.2332 3.7344-3.0527 4.7283 12.886 4.9748 12.937 1.4688-0.85547 3.4644-1.9109 7.0513-2.5371 11.658-2.5684 0.40304-0.0052 0.7799 0.02668 1.1816 0.04102-0.05609 7.1843-1.1773 21.989-5.1777 27.391-5.7835-14.883-5.0803-12.233-1.1816 0.44922-0.27522 0.13696-0.53402 0.34075-0.81445 0.57031l-1.7949-1.3438 0.89844 2.5684c-3.2438 0.49266-6.4692-0.1092-9.6914 0.54688 0.11109 1.1739 0.26553 2.2321 0.46094 3.1973 3.3144-0.97629 5.8557-3.5852 9.2715-1.6543 0.05609 0.28043 0.20356 0.52822 0.32617 0.77344l-8.8183 3.661c0.069355 0.15929 0.26592 0.64672 0.4043 0.88672 2.8383-1.3396 6.3286-2.3004 8.9843-3.7313 0.26478 0.23478 0.612 0.40278 0.97852 0.5293l-5.3848 7.248c0.49009 0.18269 0.81719 0.29454 1.1719 0.39648 1.8339-2.2826 2.7108-4.9494 5.0703-7.4824 0.31043 0.02609 0.66149 0.07821 1.0176 0.03125-0.33764 2.7555-0.24517 5.5764 0.19726 8.3223 0.9502 0.05102 1.9741 0.08106 3.0547 0.09766-1.0337-2.8216-2.1818-5.6191-2.0234-8.666 1.157 0.44348 1.7627 1.0186 3.0566 1.916-0.58043-0.8713-1.2934-1.4369-1.793-2.5273 0.11217-0.18391 0.21864-0.36748 0.28516-0.57227 5.9413 2.2617 11.499 2.8993 17.531 6.5215l3.2969 2.4473c-0.2118 0.30978-0.45074 0.59912-0.68164 0.89453 1.9241-0.0097 3.6618-0.05791 5.209-0.16602 3.1733-4.7536 5.0527-10.458 5.0527-16.545 0-16.427-13.41-29.92-30.078-29.92zm4.9316 4.6055c9.9456 1.9565 18.623 9.7628 20.504 18.914l-0.44922 0.57031c-0.83609 1.4465-8.6865 3.9529-11.535 4.8516-5.4365 1.1622-9.3301 3.9248-14.553 4.1152-0.32087-0.42261-0.69193-0.8049-1.1406-1.0605 3.1748-5.6452 2.1299-20.732 7.1738-27.391zm19.73 21.441h0.0039l1.1816 1.1406c0 0.91174-0.09544 1.8102-0.24805 2.7324-0.77478 4.8809-1.753 9.7047-3.7852 13.654l-4.3262-1.4277c-4.9265-2.4-12.314-3.9575-17.568-7.418 7.53-4.3252 16.478-6.0677 24.742-8.6816z" />
  <g
     transform="translate(-59.967815)"
     id="g30"
     fill="#5e4aa6">
    <circle
       id="circle24"
       r="0"
       cy="-1241.6"
       cx="-1248.7" />
    <circle
       id="circle26"
       r="0"
       cy="-1301.8"
       cx="-1140.3" />
    <circle
       id="circle28"
       r="0"
       cy="-1246"
       cx="-1158.1" />
  </g>
  <circle
     id="circle36"
     fill="#5e4aa6"
     r="0"
     cy="-1267.7"
     cx="-1217.2678" />
  <circle
     id="circle38"
     fill-rule="evenodd"
     fill="#5e4aa6"
     r="0"
     cy="-2.1829"
     cx="-117.72382" />
</svg>
