<?xml version="1.0" encoding="UTF-8"?>
<svg width="64" height="64" version="1.1" viewBox="0 0 16.933 16.933" xmlns="http://www.w3.org/2000/svg" xmlns:cc="http://creativecommons.org/ns#" xmlns:dc="http://purl.org/dc/elements/1.1/" xmlns:rdf="http://www.w3.org/1999/02/22-rdf-syntax-ns#" xmlns:xlink="http://www.w3.org/1999/xlink">
 <defs>
  <filter id="filter1057-1" x="-.027" y="-.027" width="1.054" height="1.054" color-interpolation-filters="sRGB">
   <feGaussianBlur stdDeviation="0.61875"/>
  </filter>
  <linearGradient id="linearGradient1053-2" x1="-127" x2="-72" y1="60" y2="5" gradientTransform="matrix(.26458 0 0 .26458 36.72 2.7377)" gradientUnits="userSpaceOnUse">
   <stop stop-color="#32d7ff" offset="0"/>
   <stop stop-color="#329bff" offset="1"/>
  </linearGradient>
 </defs>
 <metadata>
  <rdf:RDF>
   <cc:Work rdf:about="">
    <dc:format>image/svg+xml</dc:format>
    <dc:type rdf:resource="http://purl.org/dc/dcmitype/StillImage"/>
    <dc:title/>
   </cc:Work>
  </rdf:RDF>
 </metadata>
 <g transform="translate(-1.9277 -2.8726)">
  <rect transform="matrix(.26458 0 0 .26458 1.9277 2.8726)" x="4.5" y="4.5" width="55" height="55" ry="15" fill="#141414" filter="url(#filter1057-1)" opacity=".3" stroke-linecap="round" stroke-width="2.7444"/>
  <rect x="3.1183" y="4.0632" width="14.552" height="14.552" ry="3.9687" fill="url(#linearGradient1053-2)" stroke-linecap="round" stroke-width=".72611"/>
  <circle cx="10.395" cy="11.339" r="3.6015" opacity=".15" stroke-width="1.0469" style="paint-order:stroke markers fill"/>
  <path d="m10.267 7.106c-0.23619 0.00879-0.366 0.08808-0.45061 0.25838-0.054285 0.10928-0.098653 0.29133-0.098703 0.40463-1.757e-4 0.41561-0.41979 0.79478-0.88006 0.79478-0.22584 0-0.34988-0.062167-0.80719-0.40463-0.20814-0.15587-0.33954-0.11533-0.66249 0.20257-0.30681 0.30207-0.31456 0.44672-0.042892 0.80719 0.11227 0.149 0.22603 0.34761 0.2527 0.44183 0.065971 0.23298-0.042037 0.65947-0.2155 0.84905-0.14217 0.15539-0.49522 0.27646-0.80306 0.27646-0.29274 0-0.39791 0.16665-0.39791 0.62786 0 0.35915 0.01378 0.40817 0.13694 0.4899 0.075263 0.04998 0.29268 0.1132 0.48368 0.14056 0.19101 0.02735 0.41151 0.09199 0.48937 0.14366 0.16439 0.10911 0.35494 0.49964 0.35658 0.73123 0.0013 0.16812-0.1281 0.46538-0.26148 0.60047-0.14537 0.14725-0.25171 0.41524-0.21342 0.53742 0.049059 0.15656 0.38137 0.49133 0.55346 0.55758 0.098568 0.03797 0.17017 0.0269 0.26562-0.04082 0.27974-0.19846 0.75835-0.41394 0.91985-0.41394 0.24346 0 0.6473 0.21486 0.73586 0.39172 0.041696 0.0833 0.093676 0.27747 0.11575 0.43098 0.053525 0.3723 0.13813 0.5475 0.28009 0.57774 0.06453 0.01368 0.16838 0.03689 0.23047 0.05116 0.0621 0.01465 0.2019 0.01465 0.31057 0 0.28345-0.03806 0.43452-0.2494 0.48215-0.67437 0.04353-0.38857 0.07921-0.45109 0.36536-0.63407 0.29057-0.1858 0.518-0.22208 0.74155-0.11834 0.18535 0.08603 0.26026 0.13061 0.5643 0.33332 0.22276 0.14855 0.36158 0.124 0.61907-0.11162 0.38719-0.3543 0.395-0.50837 0.04806-0.91313-0.33023-0.38521-0.33398-0.85913-0.0093-1.2231 0.12433-0.1394 0.23582-0.18789 0.6041-0.26148 0.55605-0.1111 0.6464-0.2019 0.64802-0.6532 0.0016-0.45074-0.0701-0.5244-0.59222-0.60616-0.49681-0.07779-0.65588-0.19003-0.83045-0.58343-0.14513-0.3271-0.10509-0.5188 0.20464-0.9679 0.15883-0.23029 0.2379-0.39836 0.21962-0.46921-0.04082-0.15812-0.55547-0.62995-0.68731-0.62995-0.06105 0-0.22362 0.087921-0.36121 0.1943-0.37957 0.29353-0.60563 0.35983-0.93017 0.27284-0.38134-0.10215-0.51708-0.26323-0.61341-0.72864-0.11061-0.53451-0.18193-0.63071-0.49662-0.66662-0.10484-0.012049-0.19516-0.016883-0.2739-0.013952v-0.00103zm0.12764 2.6458a1.5875 1.5875 0 0 1 1.5875 1.5875 1.5875 1.5875 0 0 1-1.5875 1.5875 1.5875 1.5875 0 0 1-1.5875-1.5875 1.5875 1.5875 0 0 1 1.5875-1.5875z" fill="#fff" stroke-width=".26458"/>
 </g>
</svg>
