<?xml version="1.0" encoding="UTF-8"?>
<svg width="64" height="64" version="1.1" viewBox="0 0 16.933 16.933" xmlns="http://www.w3.org/2000/svg" xmlns:cc="http://creativecommons.org/ns#" xmlns:dc="http://purl.org/dc/elements/1.1/" xmlns:rdf="http://www.w3.org/1999/02/22-rdf-syntax-ns#">
 <defs>
  <filter id="filter1057-3" x="-.027" y="-.027" width="1.054" height="1.054" color-interpolation-filters="sRGB">
   <feGaussianBlur stdDeviation="0.61875"/>
  </filter>
  <linearGradient id="linearGradient1053-6" x1="-127" x2="-72" y1="60" y2="5" gradientTransform="matrix(.26458 0 0 .26458 35.397 .98954)" gradientUnits="userSpaceOnUse">
   <stop stop-color="#32d7ff" offset="0"/>
   <stop stop-color="#329bff" offset="1"/>
  </linearGradient>
 </defs>
 <metadata>
  <rdf:RDF>
   <cc:Work rdf:about="">
    <dc:format>image/svg+xml</dc:format>
    <dc:type rdf:resource="http://purl.org/dc/dcmitype/StillImage"/>
    <dc:title/>
   </cc:Work>
  </rdf:RDF>
 </metadata>
 <g transform="translate(-.60476 -1.1245)">
  <rect transform="matrix(.26458 0 0 .26458 .60476 1.1245)" x="4.5" y="4.5" width="55" height="55" ry="15" fill="#141414" filter="url(#filter1057-3)" opacity=".3" stroke-linecap="round" stroke-width="2.7444"/>
  <rect x="1.7954" y="2.3151" width="14.552" height="14.552" ry="3.9688" fill="url(#linearGradient1053-6)" stroke-linecap="round" stroke-width=".72612"/>
  <path d="m9.0709 4.2085c-0.60699 0-1.1802 0.14493-1.6888 0.40049-0.7351 0.36942-1.3337 0.97144-1.6981 1.7095-0.24823 0.50278-0.38861 1.0679-0.38861 1.6655 0 0.36555 0.0522 0.72325 0.15193 1.0645h5.292e-4c0.17547 0.60049 0.49872 1.151 0.95343 1.6056 0.30793 0.308 0.66024 0.55578 1.0418 0.73846l0.044958-0.0801c-0.36112-0.1721-0.69481-0.4041-0.98909-0.69143l0.48111-0.48111c0.25017 0.24282 0.53542 0.43617 0.84388 0.57722v5.29e-4c0.37308 0.17047 0.78048 0.26345 1.202 0.26975v0.68058c-0.54071-0.006501-1.0624-0.12876-1.5374-0.35502l-0.045475 0.07958v5.29e-4c0.50193 0.24025 1.0554 0.3669 1.6283 0.3669 0.60101 0 1.18-0.14042 1.7012-0.40411 0.35324-0.17874 0.68028-0.41361 0.96842-0.70177 0.30291-0.30284 0.54739-0.64833 0.72916-1.0227l-5.3e-4 -0.00103c0.24612-0.50692 0.37672-1.0663 0.37672-1.6464 0-0.49331-0.09431-0.97194-0.27388-1.4159-0.18737-0.46367-0.4677-0.88941-0.83199-1.2537-0.36562-0.36566-0.79315-0.64666-1.2588-0.83406v5.292e-4c-0.44248-0.17819-0.91945-0.27237-1.4108-0.27237zm-0.045475 0.092501v0.68058c-0.46119 0.006858-0.89707 0.11862-1.2857 0.31161-0.28039 0.13927-0.53609 0.32097-0.75861 0.53692l-0.48266-0.48266c0.27652-0.26994 0.58872-0.49033 0.92501-0.65887 0.49215-0.2466 1.0365-0.38075 1.602-0.38757zm0.09095 0c0.46369 0.00561 0.91351 0.096712 1.3317 0.2651v-5.292e-4c0.44039 0.17738 0.8459 0.44029 1.1953 0.78135l-0.40514 0.40566c-0.01475 0.00394-0.03114 0.00801-0.04237 0.0031-0.02671-0.011549 0.01137-0.038757 0.01137-0.038757v-0.031006l-0.02274-0.023254s-0.06496 0.00797-0.06873-0.00362c-0.0038-0.011605-0.01499-0.062012-0.01499-0.062012l-0.0036-0.065629-0.02687-0.011885-0.0036-0.022738-0.04186 0.00362v-0.046509l-0.02325-0.00775-0.02274-0.011369-0.0036-0.046509-0.08372-0.00362-0.02687-0.038757-0.03049-0.046509-0.09508-0.00775-0.02274-0.023254-0.03824-0.00775-0.02687-0.011369-0.01137 0.019119-0.07235 0.00414-0.0036 0.023254c-0.02417 0.012271-0.08376 0.011327-0.13281 0.011369-0.075994-0.038615-0.1527-0.075059-0.23158-0.10698-0.34014-0.13779-0.70595-0.213-1.0831-0.21859zm0.63769 0.16175-0.035657 0.022738-0.024289-0.014986-0.011885 0.019637 0.030489 0.019121 0.00568 0.00362 0.0062-0.00362 0.041858-0.027389zm0.17415 0.093534-0.029972 0.024289-0.019122-0.019637-0.016536 0.016021 0.026872 0.027389 0.00723 0.00723 0.00775-0.00672 0.03824-0.030489zm-3.6721 0.018603c-0.37887 0.14766-0.78552 0.2986-1.0315 0.6873-0.14383 0.22731-0.16477 0.49677-0.27802 0.73174 0.2098-0.19718 0.45421-0.34276 0.632-0.57774 0.21377-0.28253 0.39921-0.59712 0.67748-0.84129zm5.6307 0c0.27827 0.24417 0.46371 0.55876 0.67748 0.84129 0.17779 0.23498 0.4222 0.38057 0.632 0.57774-0.11325-0.23497-0.13419-0.50443-0.27802-0.73174-0.24594-0.38869-0.65259-0.53963-1.0315-0.6873zm-2.2329 0.047542c-0.016182 0.00146-0.032204 0.00828-0.034106 0.016021-0.00386 0.015446-0.026872 0.019121-0.026872 0.019121l-0.08785 0.00775c-0.00765 0.023207-0.052984 0.038701-0.056844 0.023254-0.00838-0.033973-0.057359 0.04245-0.00775 0.057878 0.049501 0.015539 0.099219 0 0.099219 0l0.011369-0.022738 0.19017 0.00362c0.015327-0.015483 0.022738-0.038758 0.022738-0.038758s0.046122-0.015475 0.065112-0.00775c0.019079 0.00776 0.00359-0.053715-0.015502-0.045992-0.019008 0.00772-0.056844 0.00362-0.056844 0.00362h-0.06873c-0.0019-0.013515-0.017923-0.017463-0.034106-0.016021zm-0.32763 0.078031-0.049609 0.019121-0.053227 0.03514-0.057361 0.00775-0.030489 0.034623 0.12196 0.011369 0.022738 0.038757 0.08785 0.00775 0.056844 0.057878c0.049609 0.015483 0.061446-0.00759 0.031006-0.034623l-0.049609-0.050126v-0.042375l-0.015502-0.015502-0.014986-0.05426zm-0.30076 0.37207v0.6165c-0.34293 0.0067521-0.66714 0.089247-0.95756 0.23099-0.21676 0.10577-0.41495 0.24434-0.58704 0.40979l-0.43667-0.43667c0.22039-0.21384 0.46905-0.38783 0.73691-0.52038 0.38289-0.18955 0.80565-0.29355 1.2444-0.30024zm0.09095 0c0.36555 0.00557 0.7199 0.078747 1.0495 0.21239 0.06299 0.025556 0.12444 0.055305 0.18552 0.085266-0.0042 0.01116-0.0084 0.02222-0.01602 0.02222-0.01901 0-0.01188 0.050126-0.01188 0.050126s0.04989-2.084e-4 0.06511 0.00362c0.01518 0.00383 0.01499 0.042892 0.01499 0.042892 0.05716-0.00383 0.08001 0.073174 0.07235 0.092501-0.0076 0.019309 0.02325 0.019121 0.02325 0.019121s-8.6e-5 0.062085-0.0078 0.077515c-0.0076 0.015483 0.04938 0.026955 0.0646 0.050126 0.01522 0.023207-0.0077 0.10052-0.01912 0.10439-0.01141 0.00388 0.03064 0.015811 0.02687 0.03514-0.0039 0.019362 0.0112-4.498e-4 0.01499 0.030489 0.0038 0.030894 0.01137 0.096635 0.01137 0.096635l0.05323 0.00414c0.0077-0.050239 0.10591-0.052282 0.12196-0.046509 0.06474 0.023188 0.11472 0.12359 0.11472 0.14676 0 0.023169-0.04238 0.027389-0.04238 0.027389l0.0016 0.025321-0.13539 0.13539c-0.01254-0.00713-0.02583-0.014745-0.03307-0.010335-0.01902 0.011549-0.01189-0.081132-0.01189-0.081132s0.03439-0.022955 0.04961-0.011369c0.01524 0.011568-0.12918-0.19348-0.15968-0.17415-0.03044 0.019328-0.09887-0.018934-0.09508-0.053744 0.0038-0.034757-0.13746-0.1509-0.13746-0.1509s-0.04564-0.03094-0.05323-0.00775c-0.0076 0.023169-0.02285 0.038578 0 0.050126 0.02281 0.011621 0.01884-0.01928 0.04547 0.00775 0.02665 0.027049 0.07642 0.062077 0.05736 0.085266-0.01906 0.023225-0.04186 0.031006-0.04186 0.031006l0.02687 0.030489h0.04186l0.0072 0.065629s0.04591 0.023593 0.05736 0.050643c0.0076 0.017994 0.0082 0.030176 0.0057 0.041341-0.08545-0.065424-0.1754-0.12341-0.2682-0.1757 9.26e-4 -0.00691 0.0052-0.014605 0.0036-0.020153-0.0076-0.027069 0.03008-0.038627 0.04909-0.00775l0.03824-0.00414 0.0078-0.034623-0.05323-0.042375h-0.04186s-0.0038 0.030741-0.03049 0.019121c-0.02665-0.011623-0.01179-0.00797-0.03462-0.011885-0.02113-0.00356-0.01574 0.040696-0.01188 0.059945-0.0591-0.030462-0.11944-0.058583-0.18089-0.083721-0.25874-0.10587-0.53707-0.16396-0.82424-0.1695v-0.34313c0.02172-5.556e-4 0.035773-0.00619 0.038241-0.01602 0.00379-0.015483 0.00761-0.019428 0.030489-0.023254 0.022831-0.00388-0.00352-0.050369-0.026355-0.046509-0.018124 0.00306-0.033756-0.00508-0.042375-0.017571zm-3.8819 0.018087c-0.19309 0.049443-0.35552 0.17442-0.50023 0.33486-0.30278 0.3357-0.27658 0.83098-0.23616 1.2728 0.012478 0.1364 0.0054849 0.25248-0.0098186 0.39222 0.091584-0.18776 0.24197-0.36683 0.41858-0.50023 0.39376-0.29743 0.82447-0.68175 0.83044-1.1875-0.13049 0.36396-0.52693 0.51444-0.79065 0.76326-0.13945 0.13156-0.24613 0.28964-0.30851 0.45424l-0.00982-0.00723c0.032796-0.1456 0.094452-0.27771 0.13643-0.41858 0.1148-0.38527 0.094794-0.84599 0.46974-1.1038zm7.674 0c0.37494 0.25782 0.35494 0.71854 0.46974 1.1038 0.04197 0.14087 0.10363 0.27299 0.13643 0.41858l-0.0098 0.00723c-0.062398-0.16459-0.16908-0.32267-0.30853-0.45423-0.26372-0.24882-0.66016-0.3993-0.79065-0.76326 6e-3 0.50577 0.43668 0.89009 0.83044 1.1875 0.17661 0.1334 0.327 0.31247 0.41858 0.50023-0.0153-0.13975-0.0223-0.25582-0.0098-0.39222 0.0404-0.44181 0.0666-0.93709-0.23618-1.2728-0.14471-0.16044-0.30714-0.28542-0.50023-0.33486zm-2.0676 0.076482c-0.03087-6.086e-4 -0.07584 0.020524-0.07131 0.043408 0.0038 0.019381 0.01917 0.038749 0.04961 0.046509l0.05684 0.019637s0.07142 0.08389 0.06873 0.042375c-0.0076-0.11594-0.06102-0.11996-0.0801-0.14314-0.0048-0.00579-0.01348-0.00858-0.02377-0.00878zm-1.1937 0.046509-0.015502 0.034623 0.020669 0.00982 0.015502-0.03514zm0.071313 0.039274c-1.64e-5 -0.010578-0.027898 0.032706-0.044442 0.032039 0.018492 0.00915 0.048059 0.026355 0.048059 0.026355 0.03044 0 0.049609 0.023 0.049609 0.034623 0 0.011586 0.041858 0.00775 0.041858 0.00775l0.00413-0.026872-0.030489-0.038757-0.026872-0.019637s-0.041858-0.0039-0.041858-0.015502zm-0.044442 0.032039c-0.013208-0.00654-0.021757-0.00949-0.00517 0.0031 0.0013 0.00101 0.00362-0.00316 0.00517-0.0031zm-0.12196-0.00878-0.00206 0.023254 0.032556 0.0031 0.02377 0.037724 0.019121-0.012401-0.026872-0.042375-0.0031-0.00465-0.00517-5.292e-4zm-0.88057 0.097152c-0.020815 7.143e-4 -0.039614 0.00453-0.038241 0.011369 0.00379 0.019272 0.034106 0.042375 0.034106 0.042375s0.057211 0.00388 0.060978 0.015502c0.00389 0.011549 0.042206 0.015203 0.045992 0.00362 0.0038-0.011605 0.018724-0.034623-0.015502-0.034623-0.034283 0-0.026789-0.019383-0.03824-0.031006-0.00573-0.00577-0.028279-0.00794-0.049093-0.00723zm0.96687 0.03824v0.034619l0.041858 0.00414-0.011369-0.031006zm2.0696 0c0.34042 0.34873 0.60299 0.75326 0.78031 1.1927 0.16913 0.41897 0.2605 0.8697 0.26613 1.3343h-0.68058c-0.0055-0.37063-0.07864-0.73002-0.21187-1.0651-0.01859-0.046746-0.04159-0.091703-0.06253-0.13746 0.0055-0.022278 0.01532-0.05004 0.04392-0.041341 0.03805 0.011605 0.01137-0.084749 0.01137-0.084749s-0.05338-0.039031-0.04961-0.058394c0.0038-0.019291-0.05338-0.057898-0.04961-0.073381 0.0038-0.015483-0.04926-0.046031-0.04548-0.061495 0.0038-0.015483-0.02687-0.058394-0.02687-0.058394l-0.05684-0.053744-0.0078-0.03514-0.04547-0.00362-0.09147-0.11214 0.0036-0.031006-0.02636-0.00362v-0.042891l-0.02687-0.014986-0.04186-0.00414-0.08372-0.092501-0.0078-0.042892h-0.04186l0.0062-0.065629zm-5.2736 5.251e-4 0.48214 0.48214c-0.22439 0.23118-0.41175 0.49828-0.55294 0.79168-0.18314 0.3803-0.28838 0.80452-0.29507 1.2526h-0.6811c0.0066966-0.55604 0.1369-1.0915 0.37569-1.5772 0.16995-0.34566 0.39476-0.66595 0.67128-0.9493zm3.406 0.18087c-0.011406-0.00146-0.022738-0.00167-0.022738 0.00414 0 0.011605 0.015184 0.011472 0.022738 0.034623 0.00767 0.023169 0.00392 0.062059 0.038241 0.069763 0.034282 0.00776 0.041599 0.015523 0.045475 0.031006 0.00379 0.015483 0.045475 0.019121 0.045475 0.019121l0.030489 0.015502 0.09147 0.077515v-0.031006s-0.0037-0.031006-0.02274-0.031006c-0.01899 0-0.05355-0.023273-0.04599-0.038758 0.0077-0.015483-0.064595-0.031006-0.064595-0.031006s-0.064687-0.061503-0.041858-0.053744c0.022865 0.00772 0.011369-0.027389 0.011369-0.027389s-0.045412 0.00798-0.056844 0.00414c-0.011451-0.00388-0.00775-0.038757-0.00775-0.038757s-0.011332-0.00268-0.022738-0.00414zm-2.1094 0.027389-0.01602 0.016536 0.022738 0.022738 0.01602-0.016021zm-3.297 0.15915c-0.0098-0.00177-0.015153 0.00604-0.022738 0.00982-0.26141 0.33333-0.43563 0.69809-0.43563 1.1457 0 0.55285 0.31793 0.93905 0.3576 1.4583 0.08181-0.5418 0.53655-0.92678 0.77205-1.4035 0.09186-0.18597 0.14922-0.39584 0.17467-0.60048-0.034127 0.087184-0.087311 0.16859-0.15968 0.23719-0.30594 0.29004-0.66659 0.57619-0.73587 0.98702-0.00989 0.058667-0.015034 0.11888-0.032039 0.1757-0.013367 0.00585-0.013483-0.00973-0.019119-0.013435l0.03824-0.50953c0.036982-0.49653-0.22526-1.049 0.062528-1.4867zm9.2749 0c0.28778 0.43775 0.02555 0.9902 0.06253 1.4867l0.03824 0.50953c-0.0056 0.00371-0.0058 0.019285-0.01912 0.013436-0.017-0.056815-0.02215-0.11703-0.03204-0.1757-0.06928-0.41083-0.42993-0.69698-0.73587-0.98702-0.07237-0.068608-0.12555-0.15001-0.15968-0.23719 0.02545 0.20464 0.08281 0.41451 0.17467 0.60048 0.23549 0.47675 0.69024 0.86173 0.77205 1.4035 0.03967-0.51925 0.3576-0.90545 0.3576-1.4583 0-0.44757-0.17422-0.81234-0.43563-1.1457-0.0076-0.00378-0.01294-0.011602-0.02274-0.00982zm-4.6834 5.291e-4v0.68058c-0.21396 0.0063236-0.41673 0.057166-0.59996 0.14314-0.14736 0.069171-0.28181 0.16139-0.39894 0.27182l-0.48214-0.48214c0.16897-0.16231 0.35958-0.29407 0.56482-0.39377 0.28273-0.13724 0.59356-0.21312 0.91622-0.21962zm0.09095 5.292e-4c0.27565 0.00554 0.54287 0.061549 0.79117 0.1633 0.068558 0.028095 0.13505 0.060103 0.2005 0.095085 0 0 5.29e-4 5.292e-4 5.29e-4 5.292e-4 6.36e-4 4.762e-4 0.0019 6.085e-4 0.0026 0.00103 0.11048 0.059271 0.21635 0.12843 0.31626 0.20671 0.0046 0.026114 0.03359 0.037724 0.03359 0.037724l0.01395 0.00206c0.01331 0.011041 0.02619 0.022725 0.03927 0.034106v0.029972c0.02779-0.00709 0.06786 0.027017 0.07235 0.053744l-0.47026 0.47026c-0.1354-0.12763-0.29057-0.2278-0.45785-0.29766-0.17008-0.071063-0.3531-0.11072-0.54209-0.11627zm-2.1363 0.17725 0.43667 0.43615c-0.17601 0.1831-0.322 0.39573-0.42995 0.6289-0.12954 0.27968-0.20448 0.58918-0.21084 0.91571h-0.6165c0.0064664-0.42575 0.10369-0.83638 0.28267-1.2103 0.13448-0.28094 0.3152-0.54078 0.53795-0.7705zm3.8876 0.29352c0.05376 0.030726 0.09504 0.10115 0.08837 0.11472-0.0076 0.015446 0.04547 0.011885 0.04547 0.011885 0.0077-0.06962 0.07271-0.046461 0.07648-0.023254 0.0039 0.023207 0.01499 0.073381 0.01499 0.073381l0.01912 0.034623 0.02687 0.027389 0.04186-0.00414 0.01137 0.023254 0.04961 0.00775s0.04171 0.04624 0.04547 0.057878c0.0039 0.011568 0.06076 0.00804 0.07596 0.011885 0.01522 0.00388 0.03809 0.015314 0.04186 0.034623 0.0039 0.019346 0.02687 0.050126 0.02687 0.050126s0.04577 0.011962 0.04961 0.027388c0.0038 0.015428 0.02274 0.050126 0.02274 0.050126l0.03824 0.031006 0.0036 0.034623 0.04186 0.00414 0.01137 0.045992 0.06873-0.00362 0.03824-0.027389c0.01157-0.00632 0.01871-0.013332 0.02842-0.020153 0.01409 0.032077 0.0305 0.063035 0.04341 0.095601 0.12852 0.3239 0.19921 0.67132 0.20464 1.0294h-0.6165c-0.0021-0.108-0.0137-0.21445-0.03049-0.31936 0.0045-0.017349 0.0073-0.032895 1e-3 -0.039274-0.0114-0.011602 0.01137-0.065629 0.01137-0.065629s0.01522-0.031118 0-0.062012c-0.01522-0.030949 0.0041-0.06565 0.0155-0.081132l-0.03049-0.015502-0.03049-0.00362-0.02377 0.00414c-0.0069-0.024405-0.01554-0.048216-0.02325-0.072347l1e-3 -0.00156 0.01912 0.00413v-0.023254l-0.02997-0.00827c-0.0049-0.014616-0.0093-0.029418-0.01447-0.043925l-0.0052-0.083199-0.02636-0.019637 0.0078-0.030489-0.03049-0.011885 0.01499-0.050126-0.02636-0.05426h-0.03979c-0.01804-0.036238-0.03893-0.071162-0.05891-0.10645 0.0035-0.00318 0.0089-0.00661 0.0186-0.0093 0.04184-0.011602 0.03049-0.00362 0.03049-0.00362l-0.0041-0.042891-0.03411-0.023254-0.01137-0.045992s-0.04201 0.00782-0.03824 0.031006c8.73e-4 0.00538-0.0025 0.00904-0.0078 0.012401-0.02588-0.041603-0.05456-0.081397-0.0832-0.12144 0.0012-0.00375 0.0017-0.00737 0.0036-0.010853 0.01529-0.027049 0.0076-0.04292-0.01912-0.050643-0.02672-0.00772-0.02707-0.00727-0.03462-0.03824-0.0076-0.030894-0.03772-0.038757-0.03772-0.038757l-0.01137-0.046509-0.03101 0.019122c-0.01468-0.016978-0.02922-0.034036-0.04444-0.050643l0.01447-0.045992c-0.01536-0.00313-0.02236-0.011819-0.02635-0.021188zm-2.4443 0.090434-0.014986 0.018087 0.023254 0.019122 0.01447-0.017571zm-0.087333 0.016536 0.00414 0.042891h0.056844c0.022865 0-0.019121-0.027388-0.019121-0.027388s-0.045626 0.00386-0.041858-0.015502zm2.5327 0.00723-0.02274 0.00259 0.0036 0.034623 0.02274-0.00259zm-3.3884 0.092505 0.48162 0.48162c-0.099382 0.10543-0.17912 0.22779-0.24546 0.35812-0.018783-0.00106-0.037667 0.0014-0.042891 0.015502-0.011398 0.030894-0.060978 0.023254-0.060978 0.023254l-0.00775 0.015502-0.03824 0.00775-0.00723 0.023254-0.045992 0.00775 0.1142-0.00414c0.030495-0.00386-0.011501 0.065874-0.030489 0.062012l-0.053227 0.00362-0.019121 0.019637h-0.049609l-0.022738 0.031006-0.072347-0.00414s-0.041584 0.034924-0.037724 0.046509c0.0038 0.011605-0.00767 0.046509-0.019121 0.046509-0.011433 0-0.0345 0.034407-0.026872 0.045992 0.00767 0.011605-0.022738 0.050643-0.022738 0.050643l-0.00775 0.03824-0.022738 0.00775v0.10439l-0.045475 0.031006v0.046509l-0.020672 0.02222h-0.31007c0.0061251-0.30636 0.074488-0.60211 0.19895-0.87332 0.10168-0.22166 0.24088-0.42653 0.41444-0.6072zm3.1724 0.00878c0.01093 0.011313 0.01831 0.021288 0.03669 0.034623 0.0048 0.00345 0.0084 0.00106 0.01292 0.00259 0.01501 0.016515 0.02948 0.033235 0.04392 0.050126l-0.0072 0.0093c0 0.042957 0.01987 0.032447 0.03979 0.028422 0.0065 0.00792 0.0138 0.015253 0.02015 0.023254 0.0022 0.025249 0.0034 0.059773 0.04134 0.056327 0.05869 0.078926 0.11146 0.16123 0.15865 0.2465-0.0043 0.00525-0.0124 0.012401-0.0124 0.012401l-0.06098 0.00775v0.062012l-0.03049 0.011369 0.0041 0.038757 0.04186-0.00362s-6.4e-5 0.046183 0.01137 0.026872c0.01145-0.019346 0.10635 0.00371 0.0987 0.050126-0.0031 0.019053 0.09567 0.069933 0.08423 0.13177 0.0081 0.00127 0.01242 0.00462 0.01757 0.00775 0.01836 0.053072 0.03482 0.10674 0.04909 0.16123l-0.0062 0.012401s0.0088 0.011036 0.01292 0.01447c0.01177 0.047343 0.0229 0.094895 0.03152 0.14314-0.0031 0.041703-0.0124 0.081793-0.03307 0.094051-0.04566 0.027068 0.0041 0.011369 0.0041 0.011369l-0.0078 0.08475c0.01145 0.038653 0.03042 0.019362 0.04186 0 0.0056-0.00939 0.01258-0.01502 0.0186-0.020672 0.0058 0.057805 0.01017 0.11598 0.01137 0.17467h-0.4625c0.0022-0.00305 0.0098-0.010853 0.0098-0.010853l0.01912-0.053743 0.0646-0.019637 0.0078-0.050126-0.03411-0.00362s0.03776-0.069763 0.05684-0.069763 0.14472 8.7e-6 0.15606-0.00775c0.01143-0.00769 0.03411-0.069528 0.03411-0.081132 0-0.011605 0.03103-0.015759 0.04237-0.019637 0.01143-0.00383 0.03785-0.034644 0.04547-0.050126 0.0076-0.015555-0.01883-0.1121-0.03411-0.096635-0.01522 0.015483-0.04961 0.023254-0.04961 0.023254l-0.01137 0.042375-0.01912 0.015502s0.0038 0.011689 0 0.038757c-0.0038 0.027033-0.03824 0.042375-0.03824 0.042375l-0.01499 0.019637s-0.09182 0.00497-0.10284 0c-0.03428-0.015446-0.01148-0.062257 0.01137-0.058394 0.02281 0.00388-0.0036-0.065629-0.0036-0.065629l0.03049-0.00362s0.0035-0.069763 0.01499-0.069763c0.01143 0-0.0038-0.023021-0.01912-0.034623-0.01522-0.011549-0.03432-0.050351-0.04961-0.046509-0.01522 0.00384-0.07596 0-0.07596 0l-0.01137 0.023254-0.04186 0.00775s0.0037 0.029979-0.0036 0.038758c-0.02294 0.027033-0.11089 0.084732-0.07286-0.011885l0.01137-0.023254v-0.034655l-0.06822-0.00362s-0.03411-0.011922-0.03411-0.027389c0-0.015465-0.0041-0.034623-0.0041-0.034623l-0.0801-0.088883-0.09508-0.011369-0.0078-0.019637-0.05684-0.00775c-0.0081-0.00411-0.01547-0.00438-0.02325-0.00672-0.02723-0.043627-0.05658-0.086142-0.08837-0.12712-7.67e-4 -0.0027-0.0021-0.00736-0.0026-0.0093-0.0034-0.013565-0.04364-0.067924-0.06666-0.07183-0.0094-0.010512-0.01768-0.021749-0.02739-0.032039zm0.3762 0.045992c-0.0052 4.763e-4 -0.0083 0.00416-0.0083 0.011885 0 0.015483 0.01903 0.023545 0.01137 0.042892-0.0076 0.019291 8e-3 0.034623 0.02325 0.034623 0.01529 0 0.02667 0.00774 0.04186 0.015502 0.01522 0.00769 0.02679 0.019121 0.03824 0.034623l0.03772-0.011369s0.0038-0.038974-0.01137-0.027388c-0.01522 0.011586-0.02655-0.027133-0.04186-0.023254-0.0152 0.00388-0.02306-0.015314-0.03824-0.034623-0.01531-0.019365-0.01141-0.023021-0.03049-0.034623-0.0095-0.0058-0.01698-0.00875-0.02222-0.00827zm-2.0035 0.038758v0.61805c-0.078454 0.00436-0.15274 0.022064-0.22376 0.047026h-0.00878l-0.00362-0.042375 0.019121-0.011885-0.030489-0.011369-0.022738 0.031006-0.00775 0.034623-0.038241 0.00775v0.019121h-0.026355v0.025839c-0.055662 0.030322-0.10865 0.064966-0.15555 0.10698l-0.43718-0.43718c0.11287-0.10607 0.24022-0.1916 0.37724-0.25528 0.17333-0.080566 0.36223-0.12624 0.55811-0.13229zm0.09095 5.292e-4c0.17747 0.00547 0.3494 0.043113 0.50901 0.11007 0.1559 0.065331 0.29994 0.15877 0.42633 0.2775l-0.02635 0.026355c-0.01047-0.013063-0.051677-0.020952-0.051677-0.03514 0-0.015483-0.038391-0.035055-0.034623-0.011885 0.00379 0.02317-0.026371 0.03456-0.034106 0.026872-0.00756-0.00774-0.030489 0.023254-0.030489 0.023254 0 0.011568-0.00779 0.027109 0.014986 0.031006 0.022955 0.00383 0.064961-0.015417 0.068729 0.00775 0.00132 0.00795 0.00337 0.013856 0.00517 0.020153l-0.14935 0.14935c-0.021442 0.00153-0.042375 5.292e-4 -0.042375 5.292e-4 -0.011398 0.034811-0.064812-0.00367-0.049609-0.026872 0.015237-0.023188 0.015502-0.038757 0.015502-0.038757l-0.019121-0.00362-0.022738 0.042375c-0.053324 0-0.068777 0.030781-0.057361 0.050126 0.011414 0.019291-0.015092-0.0038-0.022738 0.023254-0.00756 0.02705 0.00401 0.027154 0.026872 0.038757 0.022865 0.011605-0.01162 0.011716 0.00362 0.031006 0.00999 0.012703 0.031564 0.00898 0.038757 0.012401l-0.020153 0.020153c-0.027884 0.013663-0.064596 0.00982-0.064596 0.00982-9.261e-4 0.00852-0.00622 0.014105-0.013436 0.018087-0.060662-0.049766-0.12642-0.091373-0.1974-0.12144 0.011827-0.00857 0.030435-0.00953 0.039791-0.035657 0.015309-0.042534 0.022738-0.11214 0.022738-0.11214s-0.060809-0.00381-0.064596 0.015502c-0.00377 0.019346-0.041858 0.031006-0.041858 0.031006s-0.030555 0.01139-0.019121 0.026872c0.011433 0.015483-0.022738 0.023254-0.022738 0.023254s-0.00193 0.011962-0.00259 0.021704c-0.059746-0.017493-0.12103-0.030643-0.18449-0.034105zm2.0262 0.13126-0.04548 0.00362c0.01138 0.015446 0.03411 0.026872 0.03411 0.042375 0 0.015483-0.0074 0.027127 0.0155 0.031006 0.02279 0.00384 0.03788-0.00383 0.04547 0.015502 0.0076 0.019309 0.0079 0.050163 0.0041 0.065629-0.0038 0.015483 0.0037 0.038757 0.02274 0.038757 0.01908 0 0.02274 0.0039 0.02274 0.015502 0 0.011568 0.02274-0.042375 0.02274-0.042375-0.0191-0.015446-0.03411-0.050643-0.03411-0.050643s-0.01912-0.053772-0.01912-0.061495c0-0.00772-0.02683-0.015793-0.03824-0.019637-0.01145-0.00388-0.03049-0.03824-0.03049-0.03824zm-0.36277 0.014986-0.03824 0.00414 0.0021 0.022738 0.03824-0.00362zm0.02429 0.027389v0.019637h0.02274v-0.019637zm-0.03101 0.038757s-0.02255 0.030949-0.06821 0.015502c0 0-0.0076 0.0734-0.03049 0.088884h-0.05323c0-3e-7 0.01134 0.019386 0.02274 0.031006 0.01145 0.011586 0.03802 0.03468 0.01137 0.050126-0.02665 0.01543 0.0036 0.011369 0.0036 0.011369s-0.0034 0.081402-0.03772 0.069763c-0.03421-0.011512-0.04599 0.042431-0.04599 0.057878 0 0.015428 0.1352 0.021349 0.1142 0-0.01142-0.011605 0.0155-0.038758 0.0155-0.038758s0.09158 0.00775 0.11059 0.00775c0.01905 0 0.03419-0.00394 0.02274-0.023254-0.01142-0.019362-0.04599-0.014986-0.04599-0.014986s-0.04546 0.011287-0.08733-0.011885c-0.04184-0.02317 0.0074-0.031006 0.01499-0.031006 0.0076 0 0.04209-0.027181 0.02687-0.046509-0.01522-0.019325 0-0.053724 0-0.03824 0 0.015446 0.04195 0.022974 0.04961 0.011369 0.0076-0.011568-2.3e-5 -0.046273-0.01912-0.057878-0.01906-0.011623 0.03434-0.019465 0.01912-0.038758-0.0152-0.019365-0.02325-0.042375-0.02325-0.042375zm0.07648 0.11576v0.027389h0.02274v-0.027389zm0.05116 0.013952-0.01137 0.022738 0.02067 0.010853 0.01137-0.023254zm0.37517 0.032556c-0.01901-0.011586 0.0037 0.042403-0.0078 0.050126-0.01143 0.00776-0.01904 0.023553-0.03049 0.03514-0.01143 0.011623 0.02325 0.027156 0.02325 0.038757 0 0.011586 0.0072 0.069246 0.0072 0.069246s0.0267 0.011943 0.03049 0.027389c0.0038 0.015483-6.4e-5 0.046247 0.01137 0.050126 0.0114 0.00388 0.03454 0.019177 0.02687 0.034623-0.0076 0.01552-0.0078 0.046509-0.0078 0.046509l0.0155 0.034623 0.03049 0.019637s0.01133-0.092775-0.0078-0.096635c-0.01901-0.0039-0.01137-0.058394-0.01137-0.058394s0.01907-0.073381-0.01137-0.073381c-0.03049 3e-7 -0.0079-0.038558-0.02687-0.050126-0.01908-0.011605-0.0074-0.065685-0.01499-0.081132-0.0076-0.015465-0.0078-0.034889-0.02687-0.046509zm-0.92966 0.072864-0.03824 0.00414 0.0021 0.022738 0.03824-0.00362zm-0.57774 0.00156c-0.011893-2.7e-6 -0.02377 0.0031-0.02377 0.0031l-0.060462 0.00775-0.00414 0.026872 0.041858 0.00414s0.019121 0.015322 0.019121 0.026872c0 0.011605 0.026637 0.023254 0.041858 0.023254 0.015219 0 0.057361-0.031006 0.057361-0.031006s0.018836-0.053988 0.00362-0.050126c-0.015293 0.00384-0.045841 0.026823-0.049609 0.00362-0.00193-0.011594-0.013946-0.014467-0.025839-0.01447zm-1.7425 0.00206 0.3731 0.37362-0.036173-0.00156c-0.01529 0.034756-0.053743-0.00414-0.053743-0.00414-0.00756-0.023169-0.060462 0-0.060462 0 0 0.042571-0.072347-0.019121-0.072347-0.019121l-0.13332-0.096624c-0.076154-0.069565-0.19052 0.019465-0.1943 0.038757 0.0019 0.02706-0.020005 0.029702-0.042375 0.025839 0.059579-0.11313 0.12995-0.22139 0.21962-0.31678zm1.4981 0.010335-0.02222 0.00465 0.00775 0.03514 0.02222-0.00517zm0.12506 0.0062-0.083716 0.00362 0.00156 0.023254 0.083199-0.00413zm-0.7152 0.00723v0.023254h0.030489v-0.023254zm0.19637 0.00414-0.00362 0.022738 0.026872 0.00414 0.0031-0.023254zm0.049093 0.011885-0.00362 0.022738 0.026872 0.00414 0.0031-0.023254zm-0.30851 0.00775-0.0031 0.022738 0.026355 0.00362 0.0031-0.022738zm0.62683 5.291e-4 -0.011369 0.00362 0.00723 0.02222 0.011369-0.00414zm0.92242 0.00982-0.01137 0.026872 0.02067 0.0093 0.01188-0.027389zm-0.28267 0.00465s0.02377 0.00723 0.04289 0.01292c0.01726 0.021077 0.03418 0.042186 0.05013 0.064079l-0.04754-0.00723-0.03049-0.00362-0.05736-0.00414c-0.05709 0.038653-0.06821 0.085266-0.06821 0.085266-0.027579 0.052359-0.085515-0.00779-0.077515-0.042892l0.099735-0.099735c0.0047 3.968e-4 0.01063 0.0031 0.0155 0.0031 0.02279 0 0.07286-0.00775 0.07286-0.00775zm-0.9064 0.00775v0.023254h0.029972v-0.023254zm-0.38551 0.00465-0.00568 0.022738 0.030489 0.00775 0.00568-0.022738zm-0.010853 0.032039-0.022738 0.00362 0.00362 0.023254 0.022738-0.00362zm0.45217 0-0.022738 0.00103 0.00103 0.026872 0.023254-0.00103zm1.1994 0.00982c-0.01475 6.6e-6 -0.03076 0.0022-0.04031 0.00414-0.01901 0.00386-0.01522 0.018896 0 0.03824l0.04548-0.00775s0.03454-0.015285 0.02687-0.026872c-0.0038-0.0058-0.01729-0.00776-0.03204-0.00775zm-0.25528 0.024289c0.01472 0.020259 0.02931 0.04058 0.04289 0.061495-0.0041 0.00989-0.0062 0.021005-0.0036 0.034106 0.01141 0.058016 0.03078 0.081132-0.0072 0.081132-0.03814 0-0.04599-0.031006-0.04599-0.031006s-0.03049-0.011311-0.03049 0.00414c0 0.015483-0.01145 0.046049 0 0.061495 0.01138 0.015446-0.01492 0.038992-0.02636 0.027389-0.01134-0.011605-0.04225-0.046276-0.03462-0.057878 0.0076-0.011605-0.05322-0.08505 0.0078-0.096635 0.06095-0.011605-0.0038-0.046574 0.01912-0.05426l0.03049-0.015502h0.03049zm-6.3552 0.013951c-0.060882 0.12837-0.085621 0.27348-0.11782 0.41341-0.06804 0.3616-1.034e-4 0.7456 0.098185 1.078 0.12298 0.41586 0.52999 0.71347 0.73639 1.0945l0.028422 0.02222c-0.030055-0.20682-0.045651-0.42941 0.012924-0.62682 0.088968-0.31599 0.20122-0.62281 0.25993-0.95033 0.045606-0.2544 0.098178-0.53999 0.068213-0.78652-0.034032 0.13282-0.069241 0.2644-0.14211 0.37724-0.27722 0.42926-0.56207 0.93233-0.36794 1.4769-0.0045 0.00583-0.010811 0.013203-0.018087 0.0093-0.077981-0.17993-0.095102-0.38439-0.14573-0.57722-0.13434-0.51171-0.52765-0.9392-0.41238-1.5307zm10.391 0c0.11527 0.59146-0.27804 1.0189-0.41238 1.5307-0.05063 0.19284-0.06775 0.39729-0.14573 0.57723-0.0073 0.0039-0.01359-0.00348-0.01809-0.0093 0.19413-0.54458-0.09071-1.0476-0.36794-1.4769-0.07287-0.11283-0.10808-0.24442-0.14211-0.37724-0.02997 0.24652 0.02261 0.53212 0.06821 0.78652 0.05871 0.32752 0.17096 0.63434 0.25993 0.95033 0.05857 0.19741 0.04298 0.42 0.01292 0.62684l0.02842-0.02222c0.2064-0.38103 0.61341-0.67864 0.73639-1.0945 0.09829-0.33237 0.16622-0.71637 0.09818-1.078-0.0322-0.13993-0.05694-0.28504-0.11782-0.41341zm-5.2033 0.10025 0.00723 0.092501-0.041858-0.01447h-0.026872l-0.011369-0.023254-0.022738-0.00414v0.085266l0.022738 0.019121 0.019121 0.019637 0.038241 0.00362 0.00775 0.046509 0.095085 0.00414 0.011369 0.019121 0.057361 0.00362 0.11007 0.11214-0.00723 0.03514-0.019121 0.011369c0.00766 0.027049-0.049609 0.011369-0.049609 0.011369v0.023254l0.026355 0.00414 0.026872 0.015502 0.038241-0.065629c0.041874-0.027049 0.060719 0.011435 0.064596 0.034623 0.00377 0.023188-0.019121 0.019121-0.019121 0.019121v0.05426l0.022738 0.00775c0.03814 0.046394-0.014986 0.073381-0.014986 0.073381l-0.011369 0.038757c-0.011429 0.0348-0.053223 0.026879-0.053223 0.026879l-0.015502 0.023254-0.045475 0.011885 0.090434 0.011369c0.0086-0.03093 0.031457-0.03872 0.042891-0.023254 0.011451 0.015483 0.011369 0.042375 0.011369 0.042375l0.022738 0.00414-0.00362 0.042375 0.022738 0.00775v0.12351l0.026355 0.031006c0.045714-0.019272 0.046138 0.011959 0.023254 0.027389-0.022831 0.015428-0.00775 0.084749-0.00775 0.084749l-0.019121 0.019121v0.031006l-0.022738 0.015502v0.042375c-0.038104-0.019309-0.084149-0.011623-0.095601 0-0.034209-0.023207-0.10645-0.015208-0.10645 0.00413 0.022812 0.030912-0.026355 0.038757-0.026355 0.038757l-0.026872 0.031006c0.019079 0.038672-0.019121 0.042375-0.019121 0.042375v0.07338l-0.045476 0.042375 0.00206 0.064595c-0.02363 0.00233-0.046563 0.00723-0.070797 0.00723-0.17893 0-0.34625-0.066913-0.47904-0.18448 0.00225-0.0013 0.00474 1.138e-4 0.00672-0.0031 0.019061-0.030894 0.049609-0.034623 0.049609-0.034623l0.011369-0.027388 0.10284 0.00414c0.00763-0.042552 0.057361-0.027059 0.057361-0.00775 0 0.019328 0.038241 0.00362 0.038241 0.00362l0.026355-0.042375h0.041858l0.00362-0.046509 0.019121-0.011369v-0.069763c0.060953-0.019309 0.053227-0.076998 0.053227-0.076998l0.015502-0.019637-0.00775-0.026872c-0.030511-0.011639-0.014944-0.038747 0.00414-0.031006 0.019098 0.00772-0.026872-0.034623-0.026872-0.034623-0.022831 0.019365-0.041858-0.023254-0.041858-0.023254h-0.057361v-0.05426l-0.00723-0.050126-0.057361-0.026872-0.041858 0.038241-0.00775 0.05426v0.034623l-0.037724 0.00775-0.00775 0.10439-0.030489 0.011885 0.00362 0.038757-0.083716 0.022738-0.00775 0.050643-0.029972 0.019121-0.015502 0.046509-0.018603 0.108c-0.05429-0.056981-0.096921-0.12135-0.12971-0.19069 0.00558-0.024786 0.00723-0.049093 0.00723-0.049093-0.034209-0.015446-0.014848-0.069666 0.023254-0.023254 0.038051 0.046305-0.023254-0.092501-0.023254-0.092501l-0.029967-0.026933-0.037207-0.00362c-0.0059-0.037508-0.011369-0.075503-0.011369-0.1142 0-0.016687 0.00354-0.032597 0.00465-0.049093 0.010075-0.00707 0.020672-0.00362 0.020672-0.00362l0.023254 0.019637 0.034106 0.026872 0.00362 0.023254-0.022738 0.011369-0.00362 0.031006 0.011369 0.042891h0.030489c0.011414-0.061842 0.091375-0.061909 0.1142-0.023254l0.022738-0.05426c-0.053306-0.027049-7.408e-4 -0.069471 0.01447-0.050126 0.015221 0.019346 0.050126-0.050126 0.050126-0.050126s0.026653 0.034512 0-0.011885c-0.026653-0.046396 0.019121-0.069763 0.019121-0.069763-0.00758-0.04636 0.049609-0.038241 0.049609-0.038241l0.00362-0.062012-0.053227-0.00414c-0.011343 0.054119-0.056954 0.00797-0.034106-0.00362 0.022884-0.01162 0.045475-0.034623 0.045475-0.034623v-0.038758l0.023254-0.00775 0.00362-0.038758h0.056844l0.049609-0.023254 0.011369-0.019121 0.053743-0.00414 0.075964-0.069247-0.00775-0.031006c-0.045714 0-3e-7 -0.034623 0-0.034623l0.00775-0.057878h-0.041876l-0.0072337-0.080085c0.052-0.012274 0.10499-0.020645 0.15968-0.021188zm2.3192 0.22376-0.0036 0.031006 0.02274 0.0031 0.0036-0.031006zm-0.01395 0.10439-0.01137 0.023254 0.02015 0.010335 0.01137-0.023254zm-3.9408 0.15348c0.029978 0.00193 0.05116 0.017571 0.05116 0.017571l0.053227-0.00413c0.0152 0.010284 0.02114 0.023027 0.026872 0.035656-0.00398 0.030974-0.00567 0.062529-0.00775 0.094051-0.00463 0.0082-0.011369 0.025321-0.011369 0.025321-0.00401 0.00612-0.00378 0.01914-0.00517 0.029972h-0.14779l5.292e-4 -0.0031-0.041858-0.00362c-0.045714-0.027086-0.022738-0.12764-0.022738-0.12764 0.036184-0.054129 0.074925-0.066008 0.1049-0.064079zm1.3115 0.07183-0.00775 0.019121h-0.018603l-0.00414 0.031006h0.022738l0.00414 0.023254-0.015502 0.015502-0.00723 0.019121-0.030489 0.00775-0.06873 0.065629-0.00362 0.031006-0.019122 0.026872-0.022738 0.058394-0.080098 0.00362-0.015502 0.069763 0.011369 0.057878 0.06873 0.026872 0.00775-0.038241 0.022738-0.011885 0.00414-0.038758 0.014986-0.026872 0.022738-0.026872 0.00775-0.031006 0.037724-0.023254 0.045992-0.00775 0.019121-0.023254 0.00775-0.046509 0.00259-0.034623 0.016536-0.023254 0.045475-0.019121v-0.073381h-0.022738l-0.00414-0.027389zm2.39 0.023254-0.0041 0.022738 0.04186 0.00775 0.0041-0.022738zm-0.0956 0.03359-0.01137 0.0062-0.02842 0.01602-0.02429-0.015502-0.0124 0.019637 0.03049 0.019121 0.0057 0.00362 0.0062-0.0031 0.02274-0.01292 0.0031 0.00672 0.02119-0.00827-0.0078-0.019121zm-5.6467 0.16073h0.6811c0.0042 0.28518 0.048021 0.5639 0.12867 0.82992l0.088367-0.02222c-0.078959-0.25887-0.12182-0.53019-0.12609-0.80776h0.61598c0.0018 0.091058 0.012555 0.18081 0.024805 0.26975-0.044167 0.00501-0.0863 0.019121-0.0863 0.019121l-0.019121 0.061495c-0.041837 0.00776-0.06873 0.077515-0.06873 0.077515-0.034282 0.011605-0.061044 0.054025-0.049609 0.065629 0.011396 0.011605-0.019122 0.015502-0.019122 0.015502v0.085266l-0.018603 0.026872 0.00362 0.092501c0.022884 0 0.019121 0.042891 0.019121 0.042891-0.038104 0.00384-0.030489 0.053744-0.030489 0.053744l-0.080099 0.027389-0.014986 0.023254-0.099219-0.00413-0.024289 0.024289c-0.00823-0.024598-0.019304-0.048029-0.026872-0.072864l-0.088367 0.02222c0.00273 0.00899 0.00701 0.017394 0.00982 0.026355h-0.11421l-0.00723-0.019121-0.038241-0.00775-0.00413-0.042891-0.056844 0.00414-0.011369 0.023254-0.060978 0.00362c0.0038 0.038671-0.061174 0.096562-0.068729 0.081132-0.00772-0.015483-0.049566-0.057977-0.030489-0.065629 0.019061-0.00778 0.06873-0.015502 0.06873-0.015502v-0.026885l-0.14108-0.00414-0.014986 0.023254-0.057361 0.00414v0.061495l-0.026355 0.00775c-0.019079 0.011549 0.00362 0.05426 0.00362 0.05426 0.026653 0.027015-0.00362 0.069763-0.00362 0.069763-0.022884 0.023207 0.019121 0.065629 0.019121 0.065629 0.030511 0.00767-0.019121 0.031006-0.019121 0.031006 0.00756 0.038635 0.030489 0.050126 0.030489 0.050126-0.022884 0.038635 0.014986 0.057877 0.014986 0.057878l0.00414 0.065629 0.026355 0.015502v0.042375l0.015502 0.027387h0.060978l-0.00414-0.096635c-0.053343-0.061861 0.045733-0.07741 0.049609-0.05426 0.00384 0.023207 0.045475 0.034623 0.045475 0.034623 0.00763 0.057998 0.072478 0.093049 0.091467 0.03514 0.019061-0.058053 0.03456-0.023397 0.045992 0.00362 0.011433 0.027086 0.083716 0.093018 0.083716 0.093018h0.056844l0.00775 0.053743c0.064722-0.00388 0.083935 0.00421 0.11059 0.093018 0.026724 0.088857 0.098702 0.11214 0.098702 0.11214l0.053743-0.00414c0-0.046305 0.053227 0.0078 0.053227 0.031006 0 0.023098 0.10284 0.11214 0.10284 0.11214l0.10284 0.023254 0.029456 0.024289c0.060764 0.076051 0.12307 0.15096 0.19172 0.22169l-0.48163 0.48163c-0.42603-0.43652-0.73033-0.96081-0.89762-1.5312-0.093765-0.31982-0.14522-0.6543-0.14934-0.99632zm1.4795 0h0.26717l0.00259 0.02222-0.057361 0.061495 0.00775 0.062012-0.034623 0.011369-0.00723 0.027389-0.015502 0.081132 0.03824 0.00362c0.018989-0.00776 0.015221 0.050192 0 0.057878-0.015293 0.00776-0.057007 0.02331-0.034106 0.038757 0.022865 0.015521-0.060978 0.011838-0.060978-0.011369 0-0.023135-0.045981-0.042899-0.057361-0.03514-0.00619 0.00415-0.014245-0.00549-0.020669-0.01602-0.015831-0.099565-0.025827-0.20092-0.027904-0.30335zm0.40049 0h0.00723c0.011089 0.00172 0.021704 0.0062 0.021704 0.0062l0.053227 0.00414 0.00568-0.010335h0.18087l0.015502 0.099219-0.049609 0.042375c-0.041874 0.023207-0.042099 0.07728 0.00362 0.088884 0.03044 0.00383 0.019359 0.077646-0.026355 0.027389-0.068491 0 0.038245 0.061511 0.00775 0.045992 0.06858 0.034811 0.053227-0.031006 0.053227-0.031006l0.034623-0.027905c0.014608 0.075928 0.034182 0.15042 0.059944 0.22273 0.069885 0.19595 0.18016 0.37705 0.32659 0.53226l-0.48111 0.48111c-0.03191-0.033221-0.05984-0.069023-0.0894-0.10387 0.00647-0.022434 0.019637-0.044958 0.019637-0.044958 0.049501-0.030949-0.011369-0.081132-0.011369-0.081132 0.00767-0.04645-0.026355-0.10077-0.026355-0.10077-0.068491-0.046378-0.049609-0.13488-0.049609-0.13488v-0.062012c-0.057093-0.054046 0.022738-0.062012 0.022738-0.062012 0.026617-0.046287-0.019121-0.081132-0.019121-0.081132l-0.003617-0.050126-0.060978-0.0077523-0.0077523-0.1819-0.13694-0.19689c-0.026724-0.0078-0.00775-0.05426-0.00775-0.05426 0.034282-0.019346-0.00775-0.065629-0.00775-0.065629l-0.00362-0.08475 0.080098-0.00775 0.018603-0.031006h0.03824l-0.00362-0.10077c0.00869-0.022966 0.022728-0.028821 0.035657-0.029456zm3.4752 0h0.53278c-0.0061 0.30055-0.07334 0.58626-0.18862 0.84594-0.10413 0.23455-0.24755 0.4478-0.42271 0.63097-0.0071-0.078242-0.02429-0.16381-0.02429-0.16381l-0.03049-0.015502 0.0078-0.093018h-0.04186l-0.06873 0.088883-0.0078 0.024289-0.03876-0.038757 0.02015-0.020153-0.0041-0.046509 0.02687-0.023254v-0.038241l0.02274-0.00775 0.0036-0.085266 0.01912-0.00362v-0.18552l-0.05684-0.05426c-0.0038 0.019362-0.06459 0.019121-0.06459 0.019121s-0.01544 0.027388-0.02687 0.027388c-0.0114 0 0.0154 0.034654 0.0078 0.057878-0.0076 0.023154-0.03824 0.023254-0.03824 0.023254l-0.05736 0.015502-0.01499 0.019121h-0.06098l-0.0057-0.035657c0.0057-0.00669 0.01147-0.013377 0.01705-0.020153l0.04961-0.013951 0.03824-0.019122 0.0186-0.038757c0.0038-0.038598 0.04961-0.034623 0.04961-0.034623s0.08768-0.073284 0.09147-0.108c0.0039-0.034809 0.03456-0.13177 0.08785-0.13177h0.0987c0.03805-0.015502 0.02687-0.065629 0.02687-0.065629l0.04961-0.00775 0.0072 0.027388s0.06891 0.00747 0.07648-0.00414c0.0077-0.011549 0.02278-0.038473 0.04186-0.026872 0.01903 0.011586 0.0801-0.027389 0.0801-0.027389 0.0038-0.027049 0.0987-0.015502 0.0987-0.015502l0.01137-0.034623s-0.06453-0.088884-0.07596-0.088884c-0.01145 0-0.07245-0.05397-0.0801-0.034623-0.06086-0.015446-0.05684-0.10077-0.05684-0.10077l-0.02325-0.053743c0-0.030967-0.05671-0.096645-0.06821-0.088884-0.02398-0.017833-0.02848-0.036665-0.02687-0.053227zm0.62373 0h0.61598c-0.0065 0.42326-0.10406 0.82462-0.27337 1.186-0.13813 0.29487-0.32364 0.56311-0.54777 0.79427l-0.01705-0.017052c-0.0023-0.042551-0.0052-0.097668-0.0052-0.097668l-0.01912-0.019122-0.0036-0.096635c0.01522-0.050239-0.07251-0.12406-0.0801-0.10852-0.0076 0.015409-0.05736 0.00414-0.05736 0.019637 0 0.015409-0.03019 0.092286-0.01499 0.11937 7.14e-4 0.00127-5.3e-4 0.00143 0 0.00259l-0.2377-0.23777c0.18672-0.19412 0.33489-0.41538 0.44183-0.65474 0.12379-0.27723 0.19238-0.57852 0.19844-0.89039zm0.70745 0h0.68058c-0.0068 0.55714-0.13811 1.0847-0.3669 1.5565-0.17426 0.35936-0.40508 0.68607-0.6811 0.96893l-0.48007-0.48007c0.23524-0.24241 0.4251-0.51757 0.56482-0.81494 0.17897-0.38085 0.27626-0.79804 0.28267-1.2304zm-3.8607 5.292e-4h0.042892c0.00148 0.027124 0.00728 0.053038 0.011369 0.079582l-0.026355 0.00723-0.00775-0.014986-0.011369 0.042375h-0.068729l-0.00362-0.046509 0.041858-0.011369 0.015502-0.023254zm1.1281 0.05271c-0.00632-0.00103-0.012896 0.00367-0.018603 0.019121v0.050126s0.053339 0.085049 0.072347 0.096635c0.019082 0.01162 0.049783-0.013846 0.030489-0.026872-0.05704-0.038653-0.053511-0.089212-0.06873-0.12402-0.0033-0.00749-0.00918-0.013962-0.015502-0.014986zm-1.9916 0.034623 0.00413 0.026872h0.019121c0.03044 0.054138 0.00362 0.18552 0.00362 0.18552s-0.045563 0.0035-0.053227-0.019637c-0.00756-0.023188-0.026589 0.050408-0.011369 0.062012 0.015219 0.011531 0.06856-1.592e-4 0.072347 0.042375 0.00377 0.042479 0.034106-0.026872 0.034106-0.026872v-0.26303zm1.8319 0.076998-0.06873 0.050643c0.034264 0.00392 0.037981 0.038296 0.041858 0.053744 0.00824 0.0337 0.00802-0.054044 0.023254-0.050126 0.015219 0.00384 0.00362-0.05426 0.00362-0.05426zm-1.5214 0.032556h5.291e-4c0.031605 0.01306 0.066146 0.063127 0.066146 0.07183 0 0.011586 0.15245 0.00362 0.15245 0.00362 0.041874 0.027049 0.056844 0.096635 0.056844 0.096635 0.041945-0.054156 0.12983-0.00356 0.065112 0.027388 0.06088 0.038653 0.060462 0.073381 0.060462 0.073381 0.049572-0.015446 0.049609 0.023019 0.049609 0.034623 0 0.011605 0.015502-0.057878 0.015502-0.057878-0.05713-0.042534 0.075775-0.058187 0.037724 0.019121l-0.022738 0.03514 0.03824 0.031006 0.00362 0.088883c0.083806-0.00783 0.060967-0.11221 0.060967-0.11221l0.038241-0.00775c0-0.034811 0.026355-0.015502 0.026355-0.015502-0.021675-0.10704 0.025173-0.13479 0.045992-0.14418 0.030128 0.055601 0.064397 0.10901 0.10749 0.1571l-0.43667 0.43718c-0.13472-0.14338-0.23669-0.31006-0.30231-0.49041-0.029098-0.080145-0.049147-0.1632-0.063562-0.24805zm3.4556 0.090434c-0.03174-0.00746-0.08068 0.01877-0.06821 0.035657 0.02287 0.030893 0.06121 0.015224 0.07648 0.019121 0.01522 0.00386 0.03021 0.0117 0.01499-0.034623-0.0038-0.011599-0.01268-0.017669-0.02325-0.020153zm-3.6323 0.053227a0.016154 0.016394 0 0 0-0.01292 0.01602 0.016154 0.016394 0 0 0 0.016021 0.016536 0.016154 0.016394 0 0 0 0.016536-0.016536 0.016154 0.016394 0 0 0-0.016536-0.01602 0.016154 0.016394 0 0 0-0.0031 0zm-0.038758 0.051676-0.056844 0.038757-0.038241-0.023254v0.093018l0.060978 0.081132 0.022738-0.05426 0.00775-0.034623-0.026872-0.011369 0.00414-0.058394 0.022738-0.00362zm1.4092 0.096635-0.034106 0.00414 0.00362 0.05426 0.022738 0.019121 0.041858 0.011369s0.057192-0.015134 0.060978-0.061495l-0.087333-0.00414zm0.47232 0.031006c0.041966-0.014179 0.03231 0.076389 0.030489 0.10129-0.021963 0.00944-0.045718 0.014949-0.06873 0.02222v-0.080615zm-0.79892 0.043408c0.13282 0.11912 0.29833 0.18883 0.47542 0.2036l-5.292e-4 0.00259c0 3e-7 -0.014023 0.034497 0.0031 0.040308 0.01714 0.0057 0.011539 0.0089 0.020153 0.017571l-0.00878 0.020153c-0.014087-0.019127-0.022977 0.014547-0.01447 0.023254 0.00863 0.00873-0.019637 0.00285-0.019637 0.01447 0 0.011605-0.0086 0.017463 0 0.023254 0.00854 0.00581-0.00304 0.00894-0.01447 0.017571-0.011451 0.00873 0.048576 0.011369 0.048576 0.011369s-0.01115-0.023254 0.0031-0.023254c0.00285 0 0.00392 9.79e-4 0.0062 0.00103v0.03669c-0.00571-0.00132-0.00981-6.614e-4 -0.016021-0.00259v0.026872l-0.030489 0.00362 0.026872 0.031006 0.019637 0.00259v0.064079l-5.292e-4 0.0031c0 0.050239-0.12601 0.015166-0.13746 0.00362l-0.00362 0.069763-0.022738 0.00362 0.00362 0.046509-0.00362 0.065629 0.041858-0.00775v0.027388l0.10284 0.00362 0.019637-0.021188v0.07028l-0.00103 0.00517-0.068213 0.00775-0.030489 0.015502-0.011369-0.023254h-0.030488l-0.016536 0.023245c-0.090894-0.012988-0.18038-0.031341-0.26613-0.060978-0.18842-0.065242-0.36217-0.16963-0.51108-0.30954zm-3.6303 0.037207c0.051226 0.33682-0.08217 0.63429-0.11317 0.95446-0.025479 0.26315 0.020902 0.51887 0.12299 0.74001 0.030235 0.06549 0.084867 0.12496 0.10025 0.19172-0.098718-0.088897-0.1687-0.20256-0.23668-0.31264-0.31829-0.51539-0.9855-0.85044-1.0309-1.4774-0.022831 0.27884 0.00103 0.57431 0.094051 0.82217 0.1291 0.34398 0.3779 0.60851 0.66404 0.83406 0.29588 0.23322 0.64874 0.41506 0.91829 0.62012-0.053152-0.13415-0.13907-0.25781-0.17415-0.39946-0.15856-0.6403-0.070334-1.3808-0.34468-1.973zm8.3488 0c-0.27435 0.59217-0.18612 1.3327-0.34468 1.973-0.03508 0.14165-0.121 0.2653-0.17415 0.39946 0.26955-0.20506 0.62241-0.3869 0.91829-0.62012 0.28614-0.22554 0.53494-0.49008 0.66404-0.83406 0.09303-0.24786 0.11688-0.54333 0.09405-0.82217-0.04545 0.62699-0.71266 0.96204-1.0309 1.4774-0.06798 0.11008-0.13796 0.22375-0.23668 0.31264 0.01539-0.06676 0.07002-0.12623 0.10025-0.19172 0.10209-0.22114 0.14847-0.47686 0.12299-0.74001-0.031-0.32017-0.1644-0.61764-0.11317-0.95446zm-3.3305 0.01447c0.015248-0.00339 0.029488-3.704e-4 0.02377 0.017052-0.011433 0.034811 0 0.050126 0 0.050126 0.049501-0.046397 0.091637 0.00388 0.08785 0.015502-0.0039 0.011586 0.02647 0.023487 0.04547 0.011885 0.01908-0.011586 0.04225 0.034746 0.03462 0.057878-0.0077 0.023188-0.07631 0.019074-0.0801-0.00414-0.0039-0.023207-0.0152-0.015219-0.02274-0.00362-0.00697 0.010562-0.035244 0.016301-0.054777 0.00878l-0.013435-0.013435c0.00161-0.0044 0.00587-0.00843-5.292e-4 -0.014986-0.00464-0.00469-0.012716-0.00448-0.018603-0.00465l-0.031522-0.031006c-0.00212-0.024233 0.00327-0.056945 5.292e-4 -0.068213-0.0019-0.00772 0.014208-0.017796 0.029456-0.021188zm-2.4665 0.013436-0.026872 0.00362-0.00362 0.031006 0.030489 0.00362zm4.7744 0.035657c-0.01691-0.00743-0.04547 5e-3 -0.05943 0.01447l0.0124 0.019121c0.01447-0.0098 0.03349-0.014568 0.03772-0.012401-3.71e-4 -1.373e-4 -9e-4 -5.821e-4 -1e-3 -0.00103l0.02274-0.00362c-0.0012-0.00743-0.0055-0.013494-0.0124-0.016536zm-4.7641 0.036621c-0.00892 0-0.01602 0.00741-0.01602 0.016536 0 0.00904 0.0071 0.01602 0.01602 0.01602s0.016536-0.00699 0.016536-0.01602c0-0.00911-0.00761-0.016536-0.016536-0.016536zm1.8996 0.017052c4.762e-4 0.010642 0.00517 0.022738 0.00517 0.022738l0.019121 0.00775-0.034106 0.026872-0.030489 0.034623-0.038241-0.011369-0.045475-0.00414-0.014987-0.026871-0.026872-0.00414-0.00362 0.05426-0.019121 0.023254-0.045992 0.046509c0.049075 0 0.016171 0.023389-0.00723 0.034106v-0.1514c0.048885-0.00268 0.096856-0.010136 0.14366-0.021188 0.00222 0.00212 0.00827 0.00723 0.00827 0.00723h0.034623l0.00206-0.021704c0.017822-0.00533 0.035847-0.010004 0.053227-0.016536zm-1.8728 0.064079a0.016154 0.016394 0 0 0-0.016536 0.016537 0.016154 0.016394 0 0 0 0.016536 0.016536 0.016154 0.016394 0 0 0 0.016021-0.016536 0.016154 0.016394 0 0 0-0.016021-0.016537zm1.4314 0.014986c-0.015671 0.012221-0.028693 0.058252-0.03514 0.071313 0 0 0.00872 0.031854 0.025839 0.028939 0.017052-0.0029 0.02866-0.011573 0.042892-0.01447 0.014322-0.00289 0.020132-0.026456 0.025839-0.049609 0.00573-0.023191-0.00568-0.034623-0.00568-0.034623s-0.014433 0.023188-0.037207 0c-0.00572-0.0058-0.011314-0.00563-0.016536-0.00156zm-1.5033 0.028422-0.032039 0.00362v0.027389l0.032039-0.00362zm2.2929 0h0.026355l0.00414 0.019637 0.11627 0.010853 0.00517 5.291e-4c0.045661 0.027086 0.022953 0.06204 0.00775 0.069763-0.015293 0.00774-0.041858 0.00723-0.041858 0.00723l-0.00723 0.015502-0.099219 0.00775-0.00775 0.038757c-0.049501-0.00782-0.06826 0.046368-0.056844 0.073381 0.011451 0.027015 0 0.050126 0 0.050126l0.041858 0.019637 0.053227-0.015502c0.00767-0.038708 0.041836-0.046629 0.072347-0.069763 0.030422-0.023207 0.079888 0.042414 0.064596 0.073381-0.00312 0.00633-0.00114 0.00401-0.0031 0.00878-0.058507 0.040264-0.12019 0.076602-0.18448 0.108-0.10031 0.04896-0.20774 0.084949-0.31936 0.10955-5.027e-4 -3.969e-4 -0.00362-0.00206-0.00362-0.00206l-0.041858-0.011369-0.00362-0.057878c-0.00763-0.03869-0.079806-0.038971-0.075964-0.011885 0.00377 0.026969-0.13592 0.011999-0.13694 0.011885v-0.10696l0.037724-0.040308 0.08785-0.019121c0.00759-0.038708 0.045475 0.00775 0.045475 0.00775 0.038103-0.00395 0.045992 0.023254 0.045992 0.023254l0.049092 0.00775c0.041838 0.01162 0.016663 0.015724 0.019121 0.031006 0.00377 0.023154 0.022738 0.015502 0.022738 0.015502l0.00775-0.050643 0.022738 0.00414-0.022738-0.027389-0.041858-0.019121-0.045475-0.019122c-0.030495-0.042498 0.00723-0.034887 0.037724-0.031006h0.049609s0.057361 0.07729 0.057361 0.096635c0 0.019362 0.026355 0.023254 0.026355 0.023254l0.034623-0.00414 0.011369 0.027389h0.034106l0.011369 0.022738h0.068729l0.00362-0.034623-0.064595-0.011369-0.00362-0.038757-0.045992-0.011885c-0.015293-0.06565 0.011446-0.084711 0.030489-0.053743l0.022738 0.00362-0.00775-0.057878 0.026872-0.00775-0.00775-0.081132-0.022738-0.00775v-0.026872l0.095085 0.00362c-0.00756-0.050312 0.00414-0.073381 0.00414-0.073381zm2.7559 0.17673-0.02015 0.010335c0.0025 0.00517 0.0032 0.010258 0.0036 0.015502 5.82e-4 0.00678 0.0013 0.014737 0.0078 0.019637 0.0041 0.00311 0.0088 0.00377 0.01499 0.00259l-0.0041-0.02222c0.0018 2.646e-4 0.0041 0.00196 0.0047 0.00362-3.17e-4 -7.672e-4 -3.7e-4 -0.00374-5.29e-4 -0.00568-5.02e-4 -0.00638-0.0017-0.014645-0.0062-0.02377zm-0.02222 0.042891-0.0217 0.00568c0.0058 0.023498 0.01409 0.046578 0.01447 0.047542l0.02119-0.00827c-1.6e-4 -2.062e-4 -0.0085-0.022699-0.01395-0.044959zm-4.4147 0.019121c0.15468 0.14593 0.33499 0.25616 0.5302 0.32608 0.053808 0.019301 0.11 0.031851 0.16588 0.044959-0.011578 0.00922-0.019428 0.01824-0.017052 0.024289 0.00763 0.019291-0.029972 0.038758-0.029972 0.038758l-0.034623 0.011369-0.022738 0.034623-0.045475 0.015502-0.00775 0.081132-0.022738 0.015502v0.03514l-0.026872 0.00723v0.019637l-0.03824 0.00362 0.022738 0.058394 0.031006 0.015502c0.053306 0.00767 0.029972 0.07338 0.029972 0.07338l0.030489 0.00362 0.015502 0.042375 0.030489 0.062012c0.011451 0.04645 0.045757 0.03487 0.060978 0.03101 0.015219-0.0038 0.030489 0.04651 0.030489 0.04651l0.15193 0.0036s-0.00754 0.01553 0.019122 0.02325c0.015277 0.0044 0.073206 8e-3 0.12661 0.0088v0.06873c-0.2817-0.0056283-0.55481-0.06393-0.80771-0.17002v-5.29e-4c-0.22356-0.093826-0.43072-0.22664-0.61547-0.39222l-0.056328-0.052193zm2.6272 0.0031v0.073381h0.02687v-0.073381zm-0.82269 0.019122-0.030489 0.019121 0.011885 0.019637 0.030489-0.019122zm2.4825 0.053227c-0.0018 0.018235 0.0021 0.040781 0.02015 0.044442l0.0047-0.022738h5.29e-4c-0.0019-0.00164-0.0034-0.01106-0.0026-0.019637zm-3.0515 0.041339v0.046509zm3.0386 0.00156c-0.0069 5.291e-4 -0.01615 0.00777-0.02429 0.01292-0.02285 0.014518-0.01427 0.072395 0 0.057878 0.01427-0.014444 0.03122 5.37e-5 0.03411-0.043408 0.0014-0.021778-0.0029-0.027917-0.0098-0.027389zm-2.3683 0.029972 0.090951 0.045992c0.01145 0.015412 0.06098 0.011369 0.06098 0.011369l0.0155 0.019637s0.03051-0.0041 0.04961 0.019121c0.01901 0.023207 0.11782 0.00414 0.11782 0.00414l0.02687 0.023254 0.04186 0.015502 0.07028 0.00206 0.04392 0.043925c-0.06884 0.031629-0.20828 0.020765-0.21704 0.011885-0.01143-0.011614-0.09147-0.046518-0.09147-0.046518s-0.06092-0.050106-0.07235-0.034623-0.0646-0.019373-0.0646-0.00775c0 0.011602-0.049609-0.027389-0.049609-0.027389l-0.076481-0.026872 0.057361-0.011885-0.0093-0.038241c0.00185-0.00127 0.00383-0.00235 0.00568-0.00362zm-0.54829 0.010853-0.026872 0.019637 0.011369 0.011369 0.011369 0.019637 0.026872-0.042891zm-3.5879 0.21653v0.038745h0.030489v0.050126h0.023254l-0.00414-0.057878-0.030489-0.011369v-0.019637zm5.5635 0.019637-0.0031 0.034623 0.03721 0.00259 0.0026-0.031523zm-0.03101 0.081649-0.0072 0.02222c0.0018 6.879e-4 0.0046 0.00188 0.0072 0.00362l0.0047 0.020153c-0.0017 0.00257-0.0037 0.00499-0.0052 0.00672l0.01705 0.015502c0.01222-0.013608 0.01663-0.026541 0.01343-0.039274-5e-3 -0.01969-0.02746-0.028119-0.02997-0.028939zm-0.66611 0.06873 0.16743 0.16743c-0.0078 0.02831-0.03363 0.044999-0.04858 0.03359-0.01533-0.011623 0.01919 0.019603 0.02687 0.03514 0.0076 0.015409 0.03006 0.015409 0.03772 0 0.0051-0.010544 0.0065-0.028265 0.0083-0.044442l0.07596 0.075964c-0.01047 0.020288-0.01982 0.040096-0.0155 0.053227l0.03462 0.015502 0.0036 0.065629c0.02671 0.02709 0.08087 0.02461 0.12764 0.01602l0.01705 0.01705c-0.14039 0.13616-0.2955 0.25658-0.46095 0.36225v-0.03567c0.06856-0.05024 0.07197-0.13904 0.0072-0.14676-0.04911-0.0059-0.02659-0.0579 0.01912-0.06563l0.02687-0.01189v-0.03462l0.08733-0.08113v-0.062007l-0.19012-0.15865c-0.03967-0.014613-0.04014-0.063678-0.02532-0.1111 0.03419-0.029229 0.06809-0.058487 0.10077-0.089917zm-4.6757 0.00775 0.026872 0.069763 0.014986 0.034623 0.030489 0.042891 0.041858 0.038241 0.015502-0.026872-0.026872-0.057878-0.026872-0.019637-0.019121-0.053744zm-0.74466 0.056844c0.2314 0.46232 0.13138 1.0584 0.4315 1.4945 0.093853 0.13637 0.22506 0.26657 0.34623 0.3762l-0.00568 0.0057c-0.10968-0.05117-0.20866-0.12732-0.30851-0.21034-0.52509-0.43658-1.315-0.49241-1.6294-1.2041 0.085258 0.52249 0.50015 0.98531 0.94775 1.2785 0.42582 0.27891 0.97148 0.2481 1.4444 0.40411-0.43692-0.35245-0.50334-0.88184-0.69815-1.3457-0.12106-0.28822-0.3179-0.54719-0.52813-0.79892zm7.6595 0c-0.21023 0.25173-0.40708 0.5107-0.52813 0.79892-0.19481 0.46382-0.26123 0.99321-0.69815 1.3457 0.47288-0.15601 1.0185-0.1252 1.4444-0.40411 0.4476-0.29317 0.86249-0.75599 0.94775-1.2785-0.31432 0.71165-1.1043 0.76748-1.6294 1.2041-0.09985 0.08301-0.19883 0.15917-0.30851 0.21032l-0.0057-0.0057c0.12117-0.10964 0.25238-0.23984 0.34623-0.3762 0.30012-0.43606 0.2001-1.0322 0.4315-1.4945zm-5.2271 0.099724c0.15473 0.11911 0.32182 0.21868 0.49919 0.29404v5.29e-4c0.26669 0.11336 0.555 0.17563 0.85266 0.18138v0.6165c-0.40564-0.0062-0.79763-0.0953-1.157-0.25838v-5.29e-4c-0.30142-0.13679-0.58-0.32547-0.82424-0.56224l0.088883-0.088883c0.0046 0.00864 0.00856 0.018608 0.010335 0.032039 0.00759 0.05805 0.034623 0.04651 0.034623 0.04651l0.21704-0.0036 0.075964-0.066146 0.1943-0.00362c0.099002-0.00386 0.03811-0.13901 0.019121-0.13901-0.011433-0.00901-0.012541-0.027958-0.010853-0.048576zm-0.75603 0.068213c0.034085-0.00709 0.086834 0.036338 0.092501 0.053743 0.00279 0.00842 0.016185 0.017891 0.027905 0.026872l-0.058394 0.058394c-0.034622-0.035702-0.06407-0.075008-0.096635-0.11214h0.0093c0.00475-0.016444 0.013959-0.024508 0.02532-0.026872zm2.2407 0.21291c0.029987-0.0024 0.066361 0.0031 0.087333 0.0186 0.041838 0.03087 0.099219 0.01188 0.099219 0.01188l0.041341 0.05013c-0.088521 0.0128-0.17815 0.02138-0.26975 0.02325v-0.08733c0.00806-0.0086 0.021722-0.01491 0.041858-0.01654zm2.0035 0.05478 0.48059 0.48059c-0.26788 0.26147-0.57603 0.4815-0.91312 0.65216-0.48603 0.24614-1.0332 0.3882-1.6128 0.39532v-0.68058c0.27549-0.0041 0.54334-0.0499 0.80098-0.12557l0.074414 0.02274 0.019121 0.06201 0.03049-0.0041 0.02274-0.01912 0.09147-0.0041 0.04599-0.04237 0.04961-0.0078 0.35812-0.30489c0.19786-0.11818 0.38312-0.25987 0.55242-0.42426zm-1.7312 0.11007 0.0093 0.02015 0.064596 0.01912 0.045475 0.01137 0.015502 0.06615 0.034106 0.0036 0.011369 0.04237c0.041927 0.03089-0.011369 0.09664-0.011369 0.09664v0.08527l0.030489 0.0155-0.00362 0.03101 0.049609 0.05013 0.056844 0.0036 0.093018 0.09974c-0.22702 0.06125-0.46418 0.09799-0.70952 0.1018v-0.6165c0.10639-2e-3 0.2108-0.01369 0.31419-0.02997zm-0.91932 0.06511-0.023254 0.01912-0.011369 0.0098 0.012401 0.0088 0.026355 0.01912 0.013436-0.0186-0.01447-0.01085 0.011369-0.0098zm0.2713 0.27698-0.010335 0.02067 0.02377 0.01188-0.00775 0.0083 0.01602 0.01602 0.019121-0.01912 0.011369-0.01137-0.01447-0.0072zm-1.9286 0.19585 0.030489 0.04651 0.00362 0.03462 0.038241 0.01137 0.015502 0.02325 0.026355-0.0155-0.019121-0.05013-0.049093-0.04237zm-0.85731 0.04289c0.28564 0.38446 0.36689 0.94335 0.88883 1.14 0.092384 0.0348 0.19856 0.04025 0.27854 0.09095-0.1005 0.01543-0.18852-0.01572-0.28215-0.03566-0.67269-0.14326-1.4949 0.04135-1.9988-0.53227 0.19123 0.37487 0.58532 0.67093 0.96377 0.79582 0.58642 0.19352 1.1976-0.02244 1.7487-0.15916 0.079399-0.0197 0.17587-0.01336 0.2496-0.04031-0.30681-0.062421-0.60281-0.15539-0.84026-0.37258-0.34118-0.31206-0.64337-0.64422-1.0082-0.88677zm6.1485 0c-0.36484 0.24255-0.66703 0.5747-1.0082 0.88677-0.23745 0.21719-0.53345 0.31016-0.84026 0.37259 0.07372 0.02694 0.1702 0.02061 0.2496 0.04031 0.55111 0.13672 1.1623 0.35268 1.7487 0.15916 0.37844-0.12489 0.77254-0.42094 0.96377-0.79582-0.50392 0.57362-1.3262 0.389-1.9988 0.53227-0.09363 0.01994-0.18165 0.05109-0.28215 0.03566 0.07998-0.0507 0.18615-0.05615 0.27854-0.09095 0.52195-0.19663 0.60319-0.75552 0.88884-1.14zm-3.6287 1.2444c-0.51632 0-0.97735 0.24974-1.4304 0.4377-0.40988 0.17004-0.95364 0.13671-1.3167-0.11369 0.17965 0.22543 0.42006 0.36417 0.66818 0.45837 0.4613 0.1841 0.99973 0.04258 1.3922-0.20826 0.28278-0.18075 0.52543-0.43667 0.86196-0.43667 0.060151 0 0.12069 0.0094 0.18138 0.02222-0.47294 0.18928-0.90412 0.51962-1.2397 0.84026 0.061714 0.07051 0.14175 0.13664 0.21704 0.1974 0.37397-0.38649 0.79787-0.80273 1.2206-0.97565 0.42273 0.17292 0.84663 0.58916 1.2206 0.97565 0.07529-0.06076 0.15533-0.12689 0.21704-0.1974-0.3356-0.32064-0.76677-0.65098-1.2397-0.84026 0.060691-0.01285 0.12123-0.02222 0.18138-0.02222 0.33653 0 0.57918 0.25592 0.86196 0.43667 0.39243 0.25083 0.93087 0.39235 1.3922 0.20826 0.24812-0.0942 0.48853-0.23294 0.66818-0.45837-0.36308 0.2504-0.90684 0.28373-1.3167 0.11369-0.45306-0.18796-0.91408-0.4377-1.4304-0.4377-0.18797 0-0.3738 0.03222-0.55449 0.08682-0.18069-0.0546-0.36651-0.08682-0.55449-0.08682zm0.44855 0.75809c-0.023246 0-0.037799 0.01114-0.043408 0.03359-0.010422 0.04007-0.021796 0.11473-0.034623 0.22376-0.037683 0.01204-0.074278 0.02756-0.10955 0.04599l-0.16588-0.12867c-0.010419-8e-3 -0.020585-0.0124-0.031006-0.0124-0.017637 0-0.055563 0.02897-0.11369 0.0863s-0.098 0.10034-0.11886 0.12919c-0.00722 0.01042-0.010853 0.01937-0.010853 0.02739 0 0.0096 0.00439 0.01933 0.012404 0.02894 0.053712 0.06494 0.096601 0.12017 0.12867 0.16588-0.020045 0.03687-0.035808 0.07423-0.047026 0.1111l-0.22376 0.03359c-0.00881 0.0016-0.016317 0.0067-0.022738 0.0155-0.00642 0.0088-0.00982 0.01778-0.00982 0.02739v0.26717c0 0.01044 0.0034 0.02001 0.00982 0.02842 0.00642 0.0084 0.014901 0.01339 0.025321 0.01499l0.22014 0.03256c0.011218 0.03928 0.02744 0.07878 0.049093 0.11886-0.01442 0.02005-0.036256 0.04826-0.065112 0.08475s-0.048964 0.06326-0.060978 0.0801c-0.00642 0.0088-0.00982 0.01776-0.00982 0.02739 0 0.01042 0.00266 0.01989 0.00827 0.02791 0.031262 0.04331 0.09742 0.11068 0.19844 0.20206 0.00883 0.0088 0.019272 0.01292 0.030489 0.01292 0.012031 0 0.021958-0.0036 0.029973-0.01085l0.1695-0.1287c0.032885 0.01684 0.068727 0.03212 0.108 0.04496l0.03359 0.22118c8.202e-4 0.01042 0.00554 0.01902 0.013951 0.02584 0.00841 0.0068 0.018238 0.01033 0.029456 0.01033h0.26717c0.023275 0 0.037784-0.01166 0.043408-0.03411 0.010406-0.04009 0.021796-0.11421 0.034623-0.22324 0.037683-0.01203 0.074292-0.02756 0.10955-0.04599l0.16588 0.12971c0.011218 0.0072 0.021915 0.01085 0.031523 0.01085 0.017624 0 0.054943-0.02834 0.11265-0.08527 0.057741-0.05692 0.097749-0.10004 0.11937-0.12971 0.00722-8e-3 0.010853-0.01748 0.010853-0.02791 0-0.01042-0.00437-0.02038-0.012401-0.02997-0.057712-0.07055-0.1006-0.12579-0.12867-0.16588 0.016028-0.02967 0.031793-0.06626 0.047025-0.10956l0.22273-0.03359c0.00961-0.0016 0.017364-0.0067 0.02377-0.0155 0.0064-0.0088 0.0098-0.0183 0.0098-0.02791v-0.26665c1.5e-5 -0.01042-0.0034-0.01999-0.0098-0.02842-0.0064-0.0084-0.014899-0.01339-0.025321-0.01499l-0.22014-0.03359c-0.012031-0.03848-0.028251-0.07773-0.049093-0.11782 0.01442-0.02004 0.036257-0.04826 0.065112-0.08475 0.028856-0.03649 0.048949-0.06326 0.060978-0.0801 0.00642-0.0088 0.00982-0.01828 0.00982-0.02791 0-0.01122-0.00265-0.01993-0.00827-0.02635-0.028856-0.0409-0.095014-0.10871-0.19844-0.20412-0.00959-8e-3 -0.020082-0.0124-0.030489-0.0124-0.012031 0-0.021206 0.0036-0.028422 0.01085l-0.17105 0.12868c-0.032886-0.01684-0.068727-0.03162-0.108-0.04444l-0.03359-0.22118c-7.938e-4 -0.01042-0.00554-0.01902-0.013951-0.02584-0.00843-0.0068-0.018206-0.01033-0.029456-0.01033zm0.13384 0.61598c0.084988 0 0.15744 0.0298 0.21756 0.08992 0.060118 0.06013 0.089917 0.13257 0.089917 0.21756 0 0.08499-0.029799 0.15796-0.089917 0.21807-0.060118 0.06013-0.13257 0.08992-0.21756 0.08992-0.084988 0-0.15794-0.02978-0.21807-0.08992-0.060118-0.06012-0.089917-0.13308-0.089917-0.21807 0-0.08499 0.029785-0.15743 0.089917-0.21756 0.060132-0.06012 0.1331-0.08992 0.21807-0.08992zm-1.8976 0.0088c-0.019071 0-0.030539 0.0095-0.03514 0.02791-0.00855 0.03287-0.018415 0.094-0.028939 0.18345-0.030913 0.0099-0.06046 0.02208-0.0894 0.03721l-0.13643-0.10544c-0.00855-0.0066-0.016772-0.0098-0.025321-0.0098-0.01447 0-0.045851 0.02325-0.093534 0.07028s-0.080043 0.08278-0.097152 0.10645c-0.00592 0.0085-0.00878 0.01616-0.00878 0.02274 0 0.0079 0.00324 0.01537 0.00982 0.02325 0.044063 0.05328 0.079108 0.09892 0.10542 0.13643-0.016444 0.03025-0.029038 0.06019-0.03824 0.09043l-0.18345 0.02791c-0.00723 0.0013-0.013856 0.0057-0.019121 0.01292-0.00527 0.0072-0.00775 0.01485-0.00775 0.02274v0.21859c0 0.0086 0.00249 0.01635 0.00775 0.02325 0.00527 0.0069 0.012639 0.0111 0.021188 0.0124l0.18035 0.02687c0.0092 0.03222 0.022545 0.06479 0.040307 0.09767-0.01183 0.01644-0.029554 0.03931-0.053227 0.06925-0.023672 0.02993-0.04027 0.05181-0.050126 0.06563-0.00527 0.0073-0.00827 0.01485-0.00827 0.02274 0 0.0085 0.00265 0.01616 0.00723 0.02274 0.025646 0.03553 0.07991 0.09092 0.16278 0.16588 0.00724 0.0072 0.015602 0.01085 0.024805 0.01085 0.00987 0 0.017714-0.0029 0.024289-0.0088l0.13901-0.10594c0.026978 0.01382 0.056663 0.02616 0.088883 0.03669l0.027905 0.18138c6.615e-4 0.0085 0.00447 0.01559 0.011369 0.02119 0.0069 0.0056 0.014568 0.0088 0.02377 0.0088h0.21911c0.019095 0 0.031043-0.0095 0.035657-0.02791 0.00854-0.03289 0.017899-0.094 0.028422-0.18345 0.030913-0.0099 0.06099-0.0226 0.089917-0.03772l0.13643 0.10697c0.0092 0.0059 0.017439 0.0088 0.025321 0.0088 0.014457 0 0.045673-0.02358 0.093018-0.07028 0.047369-0.04669 0.079929-0.08212 0.097668-0.10645 0.00592-0.0066 0.00878-0.01419 0.00878-0.02274 0-0.0085-0.00323-0.01694-0.00982-0.02481-0.047345-0.05788-0.082906-0.10302-0.10594-0.13591 0.01315-0.02434 0.02626-0.0544 0.038758-0.08992l0.18242-0.02739c0.00788-0.0013 0.014383-0.0057 0.019637-0.01292 0.00525-0.0072 0.00775-0.01486 0.00775-0.02274v-0.21911c1.22e-5 -0.0085-0.00246-0.01634-0.00775-0.02326-0.00528-0.0069-0.01212-0.01058-0.020672-0.01188l-0.18035-0.02791c-0.00987-0.03157-0.023209-0.06375-0.040308-0.09663 0.01183-0.01644 0.029554-0.03983 0.053227-0.06976 0.023672-0.02993 0.040258-0.0513 0.050126-0.06511 0.00527-0.0072 0.00775-0.01484 0.00775-0.02274 0-0.0092-0.00209-0.01644-0.00672-0.0217-0.023672-0.03355-0.077936-0.08968-0.16278-0.16795-0.00787-0.0066-0.016269-0.0098-0.024805-0.0098-0.00987 0-0.017849 0.0029-0.02377 0.0088l-0.14004 0.10542c-0.026978-0.01381-0.056662-0.02565-0.088883-0.03617l-0.027379-0.18145c-6.615e-4 -0.0085-0.00447-0.01611-0.011369-0.0217-0.00691-0.0056-0.015063-0.0083-0.024289-0.0083zm3.5832 0c-0.01907 0-0.03054 0.0095-0.03514 0.02791-0.0085 0.03287-0.01841 0.094-0.02894 0.18345-0.03091 0.0099-0.06046 0.02208-0.0894 0.03721l-0.13643-0.10542c-0.0085-0.0066-0.01677-0.0098-0.02532-0.0098-0.01447 0-0.04585 0.02325-0.09354 0.07028-0.04768 0.04703-0.08004 0.08278-0.09715 0.10645-0.0059 0.0085-0.0088 0.01616-0.0088 0.02274 0 0.0079 0.0032 0.01537 0.0098 0.02325 0.04406 0.05328 0.07911 0.09892 0.10542 0.13643-0.01644 0.03025-0.02904 0.06019-0.03824 0.09043l-0.18345 0.02791c-0.0072 0.0013-0.01334 0.0057-0.0186 0.01292-0.0053 0.0072-0.0083 0.01485-0.0083 0.02274v0.21859c0 0.0086 3e-3 0.01635 0.0083 0.02325s0.01212 0.0111 0.02067 0.0124l0.18035 0.02687c0.0092 0.03222 0.02255 0.06479 0.04031 0.09767-0.01183 0.01644-0.02955 0.03931-0.05323 0.06925-0.02367 0.02993-0.04027 0.05181-0.05013 0.06563-0.0053 0.0073-0.0078 0.01485-0.0078 0.02274 0 0.0085 0.0021 0.01616 0.0067 0.02274 0.02565 0.03553 0.07991 0.09092 0.16278 0.16588 0.0072 0.0072 0.0156 0.01085 0.0248 0.01085 0.0099 0 0.01771-0.0029 0.02429-0.0088l0.13953-0.10594c0.02698 0.01382 0.05614 0.02616 0.08837 0.03669l0.02791 0.18138c6.61e-4 0.0085 0.0045 0.01559 0.01137 0.02119 0.0069 0.0056 0.01509 0.0088 0.02429 0.0088h0.21859c0.0191 0 0.03104-0.0095 0.03566-0.02791 0.0085-0.03289 0.0179-0.094 0.02842-0.18345 0.03091-0.0099 0.06099-0.0226 0.08992-0.03772l0.13643 0.10697c0.0092 0.0059 0.01744 0.0088 0.02532 0.0088 0.01446 0 0.04567-0.02358 0.09302-0.07028 0.04737-0.04669 0.07993-0.08212 0.09767-0.10645 0.0059-0.0066 0.0088-0.01419 0.0088-0.02274 0-0.0085-0.0032-0.01694-0.0098-0.02481-0.04734-0.05788-0.08291-0.10302-0.10594-0.13591 0.01315-0.02434 0.02626-0.0544 0.03876-0.08992l0.18242-0.02739c0.0079-0.0013 0.01438-0.0057 0.01964-0.01292 0.0053-0.0072 0.0078-0.01486 0.0078-0.02274v-0.21911c1.3e-5 -0.0085-0.0025-0.01634-0.0078-0.02326-0.0053-0.0069-0.01212-0.01058-0.02067-0.01188l-0.18035-0.02791c-0.0099-0.03157-0.02321-0.06375-0.04031-0.09663 0.01183-0.01644 0.02955-0.03983 0.05323-0.06976 0.02367-0.02993 0.04026-0.0513 0.05013-0.06511 0.0053-0.0072 0.0078-0.01484 0.0078-0.02274 0-0.0092-0.0021-0.01644-0.0067-0.0217-0.02367-0.03355-0.07794-0.08968-0.16278-0.16795-0.0079-0.0066-0.01627-0.0098-0.02481-0.0098-0.0099 0-0.01785 0.0029-0.02377 0.0088l-0.14004 0.10542c-0.02698-0.01382-0.05666-0.02565-0.08888-0.03617l-0.02739-0.18138c-6.62e-4 -0.0085-0.0045-0.01611-0.01137-0.0217-0.0069-0.0056-0.01506-0.0083-0.02429-0.0083zm-3.4737 0.5054c0.069721 0 0.12948 0.02458 0.1788 0.0739 0.049318 0.04933 0.073897 0.10856 0.073897 0.17828 0 0.06972-0.024577 0.12948-0.073897 0.1788-0.049318 0.04933-0.10908 0.0739-0.1788 0.0739-0.069721 0-0.12895-0.02457-0.17828-0.0739-0.049318-0.04932-0.073897-0.10908-0.073897-0.1788 0-0.06972 0.024569-0.12895 0.073897-0.17828 0.04933-0.04932 0.10857-0.0739 0.17828-0.0739zm3.5832 0c0.06972 0 0.12948 0.02458 0.1788 0.0739 0.04932 0.04933 0.0739 0.10856 0.0739 0.17828 0 0.06972-0.02458 0.12948-0.0739 0.1788-0.04932 0.04933-0.10908 0.0739-0.1788 0.0739-0.06972 0-0.12895-0.02457-0.17828-0.0739-0.04932-0.04932-0.0739-0.10908-0.0739-0.1788 0-0.06972 0.02457-0.12895 0.0739-0.17828 0.04933-0.04932 0.10858-0.0739 0.17828-0.0739z" fill="#fff" stroke-width=".02291"/>
 </g>
</svg>
