<?xml version="1.0" encoding="UTF-8" standalone="no"?>
<svg
   xmlns:dc="http://purl.org/dc/elements/1.1/"
   xmlns:cc="http://creativecommons.org/ns#"
   xmlns:rdf="http://www.w3.org/1999/02/22-rdf-syntax-ns#"
   xmlns:svg="http://www.w3.org/2000/svg"
   xmlns="http://www.w3.org/2000/svg"
   xmlns:xlink="http://www.w3.org/1999/xlink"
   xmlns:sodipodi="http://sodipodi.sourceforge.net/DTD/sodipodi-0.dtd"
   xmlns:inkscape="http://www.inkscape.org/namespaces/inkscape"
   width="64"
   height="64"
   version="1.1"
   viewBox="0 0 64 64"
   id="svg20"
   sodipodi:docname="aptana.svg"
   inkscape:version="1.0.1 (3bc2e813f5, 2020-09-07)">
  <sodipodi:namedview
     pagecolor="#ffffff"
     bordercolor="#666666"
     borderopacity="1"
     objecttolerance="10"
     gridtolerance="10"
     guidetolerance="10"
     inkscape:pageopacity="0"
     inkscape:pageshadow="2"
     inkscape:window-width="1920"
     inkscape:window-height="1004"
     id="namedview22"
     showgrid="false"
     inkscape:zoom="4.5906698"
     inkscape:cx="37.331139"
     inkscape:cy="0.091729046"
     inkscape:window-x="0"
     inkscape:window-y="0"
     inkscape:window-maximized="1"
     inkscape:current-layer="svg20" />
  <metadata
     id="metadata2">
    <rdf:RDF>
      <cc:Work
         rdf:about="">
        <dc:format>image/svg+xml</dc:format>
        <dc:type
           rdf:resource="http://purl.org/dc/dcmitype/StillImage" />
        <dc:title></dc:title>
      </cc:Work>
    </rdf:RDF>
  </metadata>
  <defs
     id="defs12">
    <filter
       id="filter2761"
       x="-.024"
       y="-.024"
       width="1.048"
       height="1.048"
       color-interpolation-filters="sRGB">
      <feGaussianBlur
         stdDeviation="0.14552168"
         id="feGaussianBlur4" />
    </filter>
    <linearGradient
       id="linearGradient1024"
       x1="1.3315"
       x2="14.217"
       y1="15.576"
       y2="2.6243"
       gradientTransform="matrix(3.7796,0,0,3.7796,-0.74509906,-7.8287647)"
       gradientUnits="userSpaceOnUse">
      <stop
         stop-color="#ff7d1e"
         offset="0"
         id="stop7" />
      <stop
         stop-color="#ffa53c"
         offset="1"
         id="stop9" />
    </linearGradient>
    <style
       id="style4"
       type="text/css" />
    <style
       id="style6"
       type="text/css" />
    <filter
       color-interpolation-filters="sRGB"
       height="1.048"
       width="1.048"
       y="-.024"
       x="-.024"
       id="filter2761-675">
      <feGaussianBlur
         id="feGaussianBlur8"
         stdDeviation="0.14552168" />
    </filter>
    <linearGradient
       gradientUnits="userSpaceOnUse"
       gradientTransform="matrix(3.7796,0,0,3.7796,-2.6862143,-16.14982)"
       y2="2.6243"
       y1="15.576"
       x2="14.217"
       x1="1.3315"
       id="linearGradient1024-3">
      <stop
         id="stop11"
         offset="0"
         stop-color="#ff7d1e" />
      <stop
         id="stop13"
         offset="1"
         stop-color="#ffa53c" />
    </linearGradient>
    <filter
       color-interpolation-filters="sRGB"
       height="1.048"
       width="1.048"
       y="-.024"
       x="-.024"
       id="filter2761-62">
      <feGaussianBlur
         id="feGaussianBlur4-5"
         stdDeviation="0.14552168" />
    </filter>
    <linearGradient
       gradientTransform="matrix(3.7796,0,0,3.7796,95.420454,0.53085)"
       gradientUnits="userSpaceOnUse"
       y2="2.6243"
       y1="15.576"
       x2="14.217"
       x1="1.3315"
       id="linearGradient1024-9">
      <stop
         id="stop7-6"
         offset="0"
         stop-color="#ff7d1e" />
      <stop
         id="stop9-2"
         offset="1"
         stop-color="#ffa53c" />
    </linearGradient>
    <linearGradient
       gradientUnits="userSpaceOnUse"
       gradientTransform="matrix(1.2346,0,0,1.2346,2.3832028,3.6047)"
       y2="4"
       y1="44"
       x2="0"
       id="linearGradient890">
      <stop
         id="stop4"
         offset="0"
         stop-color="#FFB900" />
      <stop
         id="stop6"
         offset="1"
         stop-color="#ff0" />
    </linearGradient>
    <filter
       color-interpolation-filters="sRGB"
       height="1.048"
       width="1.048"
       y="-.024"
       x="-.024"
       id="filter2761-67">
      <feGaussianBlur
         id="feGaussianBlur9"
         stdDeviation="0.14552168" />
    </filter>
    <linearGradient
       gradientUnits="userSpaceOnUse"
       gradientTransform="matrix(3.7796,0,0,3.7796,66.443573,0.53068)"
       y2="1.1082"
       y1="15.601"
       x2="15.644"
       x1="1.4377"
       id="linearGradient4673">
      <stop
         id="stop12"
         offset="0"
         stop-color="#dc2828" />
      <stop
         id="stop14"
         offset="1"
         stop-color="#fa4141" />
    </linearGradient>
    <linearGradient
       gradientUnits="userSpaceOnUse"
       y2="9.67"
       y1="54.592"
       x2="34.134"
       x1="34.134"
       id="linearGradient915">
      <stop
         id="stop17"
         offset="0"
         stop-color="#ffb900" />
      <stop
         id="stop19"
         offset="1"
         stop-color="#ff0" />
    </linearGradient>
    <filter
       inkscape:collect="always"
       style="color-interpolation-filters:sRGB"
       id="filter1057"
       x="-0.027000001"
       width="1.054"
       y="-0.027000001"
       height="1.054">
      <feGaussianBlur
         inkscape:collect="always"
         stdDeviation="0.61875"
         id="feGaussianBlur1059" />
    </filter>
    <linearGradient
       inkscape:collect="always"
       xlink:href="#linearGradient1051"
       id="linearGradient1053"
       x1="-127"
       y1="60"
       x2="-80.658669"
       y2="13.658672"
       gradientUnits="userSpaceOnUse"
       gradientTransform="translate(131.5,-0.50999595)" />
    <linearGradient
       inkscape:collect="always"
       id="linearGradient1051">
      <stop
         style="stop-color:#ff7d1e;stop-opacity:1"
         offset="0"
         id="stop1047" />
      <stop
         style="stop-color:#ffa53c;stop-opacity:1"
         offset="1"
         id="stop1049" />
    </linearGradient>
    <linearGradient
       id="linearGradient890-3"
       x2="0"
       y1="44"
       y2="4"
       gradientTransform="matrix(1.2346,0,0,1.2346,3.1419,3.6047)"
       gradientUnits="userSpaceOnUse">
      <stop
         stop-color="#FFB900"
         offset="0"
         id="stop861" />
      <stop
         stop-color="#ff0"
         offset="1"
         id="stop863" />
    </linearGradient>
    <filter
       id="filter2761-6"
       x="-.024"
       y="-.024"
       width="1.048"
       height="1.048"
       color-interpolation-filters="sRGB">
      <feGaussianBlur
         stdDeviation="0.14552168"
         id="feGaussianBlur866" />
    </filter>
  </defs>
  <rect
     style="opacity:0.3;fill:#141414;fill-opacity:1;stroke-width:2.74436;stroke-linecap:round;filter:url(#filter1057)"
     id="rect1055"
     width="55"
     height="55"
     x="4.4999995"
     y="4.4999995"
     ry="15" />
  <rect
     ry="14.999999"
     y="4.5000019"
     x="4.5000019"
     height="54.999996"
     width="54.999996"
     id="rect1045"
     style="fill:url(#linearGradient1053);fill-opacity:1;stroke-width:2.74436;stroke-linecap:round" />
  <path
     d="m31.518 16c-0.89265 0.03323-1.3833 0.3329-1.7031 0.97656-0.20517 0.41303-0.37286 1.1011-0.37305 1.5293-6.64e-4 1.5708-1.5866 3.0039-3.3262 3.0039-0.85354 0-1.3224-0.23496-3.0508-1.5293-0.78668-0.58914-1.2833-0.43592-2.5039 0.76562-1.1596 1.1417-1.1889 1.6884-0.16211 3.0508 0.42432 0.56317 0.85428 1.3138 0.95508 1.6699 0.24934 0.88058-0.15888 2.4925-0.81445 3.209-0.53733 0.5873-1.8717 1.0449-3.0352 1.0449-1.1064 0-1.5039 0.62987-1.5039 2.373 0 1.3574 0.05208 1.5427 0.51758 1.8516 0.28446 0.18891 1.1062 0.42787 1.8281 0.53125 0.72195 0.10338 1.5553 0.34766 1.8496 0.54297 0.62133 0.41241 1.3415 1.8884 1.3477 2.7637 0.0049 0.63542-0.48417 1.7589-0.98828 2.2695-0.54944 0.55653-0.95137 1.5694-0.80664 2.0312 0.18542 0.59173 1.4414 1.857 2.0918 2.1074 0.37254 0.1435 0.64318 0.10169 1.0039-0.1543 1.0573-0.75012 2.8662-1.5645 3.4766-1.5645 0.92017 0 2.4465 0.81207 2.7812 1.4805 0.15759 0.31482 0.35405 1.0487 0.4375 1.6289 0.2023 1.4071 0.52208 2.0693 1.0586 2.1836 0.24391 0.05169 0.6364 0.13945 0.87109 0.19336 0.2347 0.05538 0.7631 0.05538 1.1738 0 1.0713-0.14387 1.6423-0.94262 1.8223-2.5488 0.16452-1.4686 0.29937-1.7049 1.3809-2.3965 1.0982-0.70224 1.9578-0.83937 2.8027-0.44727 0.70054 0.32516 0.98369 0.49365 2.1328 1.2598 0.84194 0.56145 1.3666 0.46867 2.3398-0.42188 1.4634-1.3391 1.4929-1.9214 0.18164-3.4512-1.2481-1.4559-1.2623-3.2471-0.03516-4.623 0.46993-0.52687 0.89128-0.71014 2.2832-0.98828 2.1016-0.41992 2.4431-0.76311 2.4492-2.4688 0.0062-1.7036-0.26494-1.982-2.2383-2.291-1.8777-0.29402-2.4789-0.71825-3.1387-2.2051-0.54854-1.2363-0.39719-1.9608 0.77344-3.6582 0.60031-0.87036 0.89912-1.5056 0.83008-1.7734-0.1543-0.59764-2.0994-2.3809-2.5977-2.3809-0.23074 0-0.84515 0.3323-1.3652 0.73438-1.4346 1.1094-2.289 1.36-3.5156 1.0312-1.4413-0.38608-1.9543-0.99485-2.3184-2.7539-0.41805-2.0202-0.68764-2.3838-1.877-2.5195-0.39627-0.04554-0.73761-0.06381-1.0352-0.05273v-0.0039zm0.48242 10a6 6 0 0 1 6 6 6 6 0 0 1-6 6 6 6 0 0 1-6-6 6 6 0 0 1 6-6z"
     fill="#fff"
     id="path18" />
  <circle
     id="circle18"
     image-rendering="optimizeSpeed"
     fill="#5e4aa6"
     r="0"
     cy="-1278.3585"
     cx="-1318.4104" />
  <g
     id="g24"
     transform="translate(27.01049,-41.190803)">
    <g
       id="g22"
       transform="translate(1,1)">
      <g
         id="g20"
         opacity="0.1">
        <!-- color: #e57e29 -->
      </g>
    </g>
  </g>
  <g
     transform="translate(-129.67832,-36.758603)"
     id="g30"
     fill="#5e4aa6">
    <circle
       id="circle24"
       r="0"
       cy="-1241.6"
       cx="-1248.7" />
    <circle
       id="circle26"
       r="0"
       cy="-1301.8"
       cx="-1140.3" />
    <circle
       id="circle28"
       r="0"
       cy="-1246"
       cx="-1158.1" />
  </g>
  <circle
     id="circle36"
     fill="#5e4aa6"
     r="0"
     cy="-1304.4585"
     cx="-1286.9783" />
  <circle
     id="circle38"
     fill-rule="evenodd"
     fill="#5e4aa6"
     r="0"
     cy="-38.941502"
     cx="-187.43433" />
</svg>
