<?xml version="1.0" encoding="UTF-8"?>
<svg width="64" height="64" version="1.1" viewBox="0 0 16.933 16.933" xmlns="http://www.w3.org/2000/svg" xmlns:cc="http://creativecommons.org/ns#" xmlns:dc="http://purl.org/dc/elements/1.1/" xmlns:rdf="http://www.w3.org/1999/02/22-rdf-syntax-ns#" xmlns:xlink="http://www.w3.org/1999/xlink">
 <defs>
  <filter id="filter1057" x="-.027" y="-.027" width="1.054" height="1.054" color-interpolation-filters="sRGB">
   <feGaussianBlur stdDeviation="0.61875"/>
  </filter>
  <linearGradient id="linearGradient1053" x1="-127" x2="-72" y1="60" y2="5" gradientTransform="matrix(.26458 0 0 .26458 28.405 2.7849)" gradientUnits="userSpaceOnUse">
   <stop stop-color="#ff7d50" offset="0"/>
   <stop stop-color="#ff4b5a" offset=".50594"/>
   <stop stop-color="#ff509b" offset="1"/>
  </linearGradient>
 </defs>
 <metadata>
  <rdf:RDF>
   <cc:Work rdf:about="">
    <dc:format>image/svg+xml</dc:format>
    <dc:type rdf:resource="http://purl.org/dc/dcmitype/StillImage"/>
    <dc:title/>
   </cc:Work>
  </rdf:RDF>
 </metadata>
 <g transform="translate(6.3878 -2.9199)">
  <rect transform="matrix(.26458 0 0 .26458 -6.3878 2.9199)" x="4.5" y="4.5" width="55" height="55" ry="15" fill="#141414" filter="url(#filter1057)" opacity=".3" stroke-linecap="round" stroke-width="2.7444"/>
  <rect x="-5.1972" y="4.1105" width="14.552" height="14.552" ry="3.9687" fill="url(#linearGradient1053)" stroke-linecap="round" stroke-width=".72611"/>
  <path d="m-2.0161 15.008 4.1098-7.5426 4.4072 8.1579s0.025419 0.06297-0.089308 0.03046c-0.10786-0.03069-0.20014-0.12114-0.31189-0.11152-0.094117 8e-3 -0.15022 0.14427-0.24342 0.12938-0.13327-0.0213-0.20151-0.27525-0.33639-0.27136-0.11885 0.0034-0.089537 0.23128-0.26701 0.24548-0.15732 0.01328-0.13167-0.41837-0.29014-0.43165-0.1074-0.0089-0.13144 0.44471-0.26472 0.44448-0.14106 0 0.00573-0.65263-0.19762-0.6634-0.15915-0.0085-0.071675 0.57272-0.21457 0.5734-0.19716 9.26e-4 -0.029769-0.95193-0.27296-0.94781-0.17289 0.0027 0.013052 0.88186-0.21205 0.87911-0.20724-0.0025-0.00756-1.3605-0.24022-1.344-0.1919 0.01351 0.023588 1.2146-0.18755 1.2196-0.25579 6e-3 -0.00114-1.673-0.2551-1.6751-0.22464-0.0021-0.023357 1.4853-0.22899 1.4853-0.25052 0 6.88e-4 -1.919-0.23747-1.9316-0.25922-0.01374 0.063431 1.9277-0.21915 1.9256-0.27273-0.0021 0.077858-2.4363-0.23815-2.4596-0.25876-0.01901 0.070759 2.2787-0.19487 2.2888-0.27892 0.01053 0.08427-2.6765-0.24571-2.6772-0.24159-6.88e-4 0.016946 2.5744-0.23335 2.6105-0.23128-0.05106 0.046257-2.8425-0.22396-2.8434-0.27892-9.26e-4 0.047173 2.7754-0.24159 2.7818-0.24205 0.0032 0.10282-2.7859-0.21503-2.7754-0.2922 0.0087 0.011221 2.764-0.22899 2.7594-0.25922-3e-3 0.066409-2.5487-0.22419-2.5327-0.22144 0.1145-0.008472 1.9691-0.22098 2.5581-0.23289-0.23128 0.016716-1.8233-0.24228-2.1035-0.21251 0.30594-0.046257 2.1422-0.21915 2.1491-0.21228 0.01031-0.010306-1.4406-0.23793-1.4543-0.13625-0.0082-0.20861 1.6435-0.37555 1.6499-0.19396 0.01947-0.17266-0.92903-0.30685-0.92605-0.15549 0.01992-0.11473 1.0378-0.31876 1.0403-0.11725 0.02794-0.14564-0.4012-0.25052-0.39112-0.094116 0.0089-0.11175 0.45135-0.26724 0.53104-0.14221 0.01924-0.073049-0.13556 0.037555-0.37715" color="#000000" fill="#fff" stroke-width=".1796"/>
 </g>
</svg>
