<?xml version="1.0" encoding="UTF-8"?>
<svg width="64" height="64" version="1.1" viewBox="0 0 16.933 16.933" xmlns="http://www.w3.org/2000/svg" xmlns:cc="http://creativecommons.org/ns#" xmlns:dc="http://purl.org/dc/elements/1.1/" xmlns:rdf="http://www.w3.org/1999/02/22-rdf-syntax-ns#" xmlns:xlink="http://www.w3.org/1999/xlink">
 <defs>
  <filter id="filter1057-9" x="-.027" y="-.027" width="1.054" height="1.054" color-interpolation-filters="sRGB">
   <feGaussianBlur stdDeviation="0.61875"/>
  </filter>
  <linearGradient id="linearGradient1053-3" x1="-127" x2="-72" y1="60" y2="5" gradientTransform="matrix(.26458 0 0 .26458 35.303 1.9817)" gradientUnits="userSpaceOnUse">
   <stop stop-color="#32d7ff" offset="0"/>
   <stop stop-color="#329bff" offset="1"/>
  </linearGradient>
  <filter id="filter1015" x="-.084" y="-.084" width="1.168" height="1.168" color-interpolation-filters="sRGB">
   <feGaussianBlur stdDeviation="0.3089756"/>
  </filter>
  <filter id="filter985" x="-.059096" y="-.060921" width="1.1182" height="1.1218" color-interpolation-filters="sRGB">
   <feGaussianBlur stdDeviation="0.21619832"/>
  </filter>
  <linearGradient id="linearGradient942" x1="7.9876" x2="12.91" y1="7.7203" y2="12.495" gradientTransform="matrix(.86781 0 0 .86781 .32386 3.5168)" gradientUnits="userSpaceOnUse" xlink:href="#linearGradient1025"/>
  <linearGradient id="linearGradient1025" x1="7.9876" x2="12.91" y1="7.7203" y2="12.495" gradientUnits="userSpaceOnUse">
   <stop stop-color="#fafaff" offset="0"/>
   <stop stop-color="#a1d8ff" offset="1"/>
  </linearGradient>
  <filter id="filter878" x="-.20005" y="-.053161" width="1.4001" height="1.1063" color-interpolation-filters="sRGB">
   <feGaussianBlur stdDeviation="0.57393035"/>
  </filter>
  <linearGradient id="linearGradient918" x1="80.51" x2="76.003" y1="10.784" y2="36.576" gradientTransform="matrix(.29734 0 0 .29734 -9.754 3.8638)" gradientUnits="userSpaceOnUse" xlink:href="#linearGradient1025"/>
 </defs>
 <metadata>
  <rdf:RDF>
   <cc:Work rdf:about="">
    <dc:format>image/svg+xml</dc:format>
    <dc:type rdf:resource="http://purl.org/dc/dcmitype/StillImage"/>
    <dc:title/>
   </cc:Work>
  </rdf:RDF>
 </metadata>
 <g transform="translate(-.51027 -2.1167)">
  <rect transform="matrix(.26458 0 0 .26458 .51027 2.1167)" x="4.5" y="4.5" width="55" height="55" ry="15" fill="#141414" filter="url(#filter1057-9)" opacity=".3" stroke-linecap="round" stroke-width="2.7444"/>
  <rect x="1.7009" y="3.3073" width="14.552" height="14.552" ry="3.9687" fill="url(#linearGradient1053-3)" stroke-linecap="round" stroke-width=".72611"/>
  <circle transform="matrix(.86781 0 0 .86781 .5325 3.7706)" cx="8.4674" cy="8.326" r="4.4139" fill="#1496ff" filter="url(#filter1015)"/>
  <path d="m11.647 10.35a2.3299 5.032 52.956 0 1-0.16413 0.28073 2.3299 5.032 52.956 0 1-0.24037 0.35427 2.3299 5.032 52.956 0 1-0.27444 0.35517 2.3299 5.032 52.956 0 1-0.30539 0.35337 2.3299 5.032 52.956 0 1-0.33319 0.3471 2.3299 5.032 52.956 0 1-0.35831 0.33768 2.3299 5.032 52.956 0 1-0.37894 0.32512 2.3299 5.032 52.956 0 1-0.27938 0.22063 2.3299 5.032 52.956 0 1-0.40629 0.29597 2.3299 5.032 52.956 0 1-0.41705 0.2749 2.3299 5.032 52.956 0 1-0.42333 0.25068 2.3299 5.032 52.956 0 1-0.42512 0.22422 2.3299 5.032 52.956 0 1-0.42288 0.19597 2.3299 5.032 52.956 0 1-0.41705 0.16547 2.3299 5.032 52.956 0 1-0.3453 0.11301 3.8304 3.8304 0 0 0 1.4023 0.26952 3.8304 3.8304 0 0 0 3.8302-3.8306 3.8304 3.8304 0 0 0-0.04126-0.5332z" fill="#fff" opacity=".55" stroke-width=".86781"/>
  <path transform="matrix(.808 0 0 .81971 1.1781 4.1914)" d="m8.6817 4.075a4.4139 4.4139 0 0 0-4.4141 4.4136 4.4139 4.4139 0 0 0 0.11989 0.99889 4.4139 4.4139 0 0 0 2.6783 3.1047 2.6848 5.7985 52.956 0 0 0.3979-0.13022 2.6848 5.7985 52.956 0 0 0.48058-0.19068 2.6848 5.7985 52.956 0 0 0.4873-0.22582 2.6848 5.7985 52.956 0 0 0.48988-0.25838 2.6848 5.7985 52.956 0 0 0.48782-0.28887 2.6848 5.7985 52.956 0 0 0.48058-0.31677 2.6848 5.7985 52.956 0 0 0.46818-0.34106 2.6848 5.7985 52.956 0 0 0.32194-0.25424 2.6848 5.7985 52.956 0 0 0.43666-0.37465 2.6848 5.7985 52.956 0 0 0.41289-0.38912 2.6848 5.7985 52.956 0 0 0.38395-0.39997 2.6848 5.7985 52.956 0 0 0.35191-0.4072 2.6848 5.7985 52.956 0 0 0.31625-0.40927 2.6848 5.7985 52.956 0 0 0.27698-0.40824 2.6848 5.7985 52.956 0 0 0.18913-0.32349 4.4139 4.4139 0 0 0-2.0665-3.147 4.4139 4.4139 0 0 0-2.2996-0.65214z" fill="#0096ff" filter="url(#filter985)" opacity=".25"/>
  <g stroke-width=".86781">
   <path d="m7.8579 7.0532a3.8304 3.8304 0 0 0-3.8306 3.8302 3.8304 3.8304 0 0 0 0.10404 0.86684 3.8304 3.8304 0 0 0 2.3242 2.6943 2.3299 5.032 52.956 0 0 0.3453-0.11301 2.3299 5.032 52.956 0 0 0.41705-0.16547 2.3299 5.032 52.956 0 0 0.42288-0.19597 2.3299 5.032 52.956 0 0 0.42512-0.22422 2.3299 5.032 52.956 0 0 0.42333-0.25068 2.3299 5.032 52.956 0 0 0.41705-0.2749 2.3299 5.032 52.956 0 0 0.40629-0.29597 2.3299 5.032 52.956 0 0 0.27938-0.22063 2.3299 5.032 52.956 0 0 0.37894-0.32512 2.3299 5.032 52.956 0 0 0.35831-0.33768 2.3299 5.032 52.956 0 0 0.3332-0.3471 2.3299 5.032 52.956 0 0 0.30539-0.35337 2.3299 5.032 52.956 0 0 0.27444-0.35517 2.3299 5.032 52.956 0 0 0.24036-0.35427 2.3299 5.032 52.956 0 0 0.16413-0.28073 3.8304 3.8304 0 0 0-1.7933-2.731 3.8304 3.8304 0 0 0-1.9956-0.56593z" fill="url(#linearGradient942)"/>
   <path d="m11.639 10.35a2.3299 5.032 52.956 0 0 0.20897-2.301 2.3299 5.032 52.956 0 0-2.0032-0.42961 3.8304 3.8304 0 0 1 0.16772 0.10314 3.8304 3.8304 0 0 1 0.30494 0.2314 3.8304 3.8304 0 0 1 0.28028 0.26099 3.8304 3.8304 0 0 1 0.25247 0.2879 3.8304 3.8304 0 0 1 0.22288 0.31122 3.8304 3.8304 0 0 1 0.19059 0.3323 3.8304 3.8304 0 0 1 0.15651 0.34934 3.8304 3.8304 0 0 1 0.12063 0.36324 3.8304 3.8304 0 0 1 0.08386 0.37356 3.8304 3.8304 0 0 1 0.01435 0.11749z" fill="#fff" opacity=".55"/>
   <path d="m4.147 11.75a2.3299 5.032 52.956 0 0-0.27175 2.4086 2.3299 5.032 52.956 0 0 2.596 0.28566 3.8304 3.8304 0 0 1-0.089688-0.032733 3.8304 3.8304 0 0 1-0.34486-0.16682 3.8304 3.8304 0 0 1-0.32602-0.2 3.8304 3.8304 0 0 1-0.30494-0.23184 3.8304 3.8304 0 0 1-0.28028-0.26099 3.8304 3.8304 0 0 1-0.25247-0.28745 3.8304 3.8304 0 0 1-0.22288-0.31166 3.8304 3.8304 0 0 1-0.19059-0.33185 3.8304 3.8304 0 0 1-0.15651-0.34979 3.8304 3.8304 0 0 1-0.12063-0.36324 3.8304 3.8304 0 0 1-0.035424-0.15785z" fill="#fff" opacity=".55"/>
  </g>
  <path transform="matrix(.29734 0 0 .29734 -.94518 .52848)" d="m51.938 23.583-2.8657 17.274q-0.199 1.1144-1.6716 1.2736-0.99502 0-1.1542-1.5124l2.9055-17.353q0.0796-1.2736 1.592-1.2736 1.194 0 1.194 1.592zm-3.3831 22.488q0 0.87562-0.43781 1.3532-0.55721 0.47761-1.3134 0.47761t-1.2736-0.55721q-0.47761-0.51741-0.47761-1.2736 0-1.8706 1.7512-1.8706 0.71642 0 1.2338 0.47761 0.51741 0.47761 0.51741 1.393z" fill="#1496ff" filter="url(#filter878)" style="font-feature-settings:normal;font-variant-caps:normal;font-variant-ligatures:normal;font-variant-numeric:normal"/>
  <path d="m14.497 7.5401-0.85204 5.1358q-0.05917 0.33134-0.49702 0.3787-0.29586 0-0.34319-0.44969l0.86386-5.1596q0.02367-0.3787 0.47337-0.3787 0.35502 0 0.35502 0.47337zm-1.0059 6.6863q0 0.26035-0.13017 0.40235-0.16567 0.14201-0.39052 0.14201t-0.3787-0.16567q-0.14201-0.15384-0.14201-0.3787 0-0.55621 0.5207-0.55621 0.21301 0 0.36684 0.14201 0.15384 0.14201 0.15384 0.41418z" fill="url(#linearGradient918)" stroke-width=".29734" style="font-feature-settings:normal;font-variant-caps:normal;font-variant-ligatures:normal;font-variant-numeric:normal"/>
 </g>
</svg>
