<?xml version="1.0" encoding="UTF-8"?>
<svg width="64" height="64" version="1.1" viewBox="0 0 16.933 16.933" xmlns="http://www.w3.org/2000/svg" xmlns:cc="http://creativecommons.org/ns#" xmlns:dc="http://purl.org/dc/elements/1.1/" xmlns:rdf="http://www.w3.org/1999/02/22-rdf-syntax-ns#" xmlns:xlink="http://www.w3.org/1999/xlink">
 <defs>
  <linearGradient id="linearGradient1025" x1="7.9876" x2="12.91" y1="7.7203" y2="12.495" gradientUnits="userSpaceOnUse">
   <stop stop-color="#fafaff" offset="0"/>
   <stop stop-color="#a1d8ff" offset="1"/>
  </linearGradient>
  <filter id="filter1057-6" x="-.027" y="-.027" width="1.054" height="1.054" color-interpolation-filters="sRGB">
   <feGaussianBlur stdDeviation="0.61875"/>
  </filter>
  <linearGradient id="linearGradient1053-2" x1="-127" x2="-72" y1="60" y2="5" gradientTransform="matrix(.26458 0 0 .26458 34.878 .42258)" gradientUnits="userSpaceOnUse">
   <stop stop-color="#32d7ff" offset="0"/>
   <stop stop-color="#329bff" offset="1"/>
  </linearGradient>
  <linearGradient id="linearGradient981" x1="32.001" x2="32.001" y1="41.088" y2="50.8" gradientTransform="matrix(.26458 0 0 .26458 .085045 .55752)" gradientUnits="userSpaceOnUse" xlink:href="#linearGradient1025"/>
  <linearGradient id="linearGradient973" x1="32" x2="32" y1="29.34" y2="40.61" gradientTransform="matrix(.26458 0 0 .26458 .085045 .55752)" gradientUnits="userSpaceOnUse" xlink:href="#linearGradient1025"/>
  <linearGradient id="linearGradient999" x1="32" x2="32" y1="33.359" y2="40.723" gradientTransform="matrix(.26458 0 0 .26458 .085045 .55752)" gradientUnits="userSpaceOnUse">
   <stop stop-color="#fafaff" stop-opacity=".78431" offset="0"/>
   <stop stop-color="#a1d8ff" offset="1"/>
  </linearGradient>
  <linearGradient id="linearGradient965" x1="32" x2="32" y1="17.792" y2="30.42" gradientTransform="matrix(.26458 0 0 .26458 .085045 .55752)" gradientUnits="userSpaceOnUse" xlink:href="#linearGradient1025"/>
  <linearGradient id="linearGradient989" x1="32.024" x2="32.024" y1="23.21" y2="30.736" gradientTransform="matrix(.26458 0 0 .26458 .085045 .55752)" gradientUnits="userSpaceOnUse">
   <stop stop-color="#fafaff" stop-opacity=".78431" offset="0"/>
   <stop stop-color="#a1d8ff" offset="1"/>
  </linearGradient>
 </defs>
 <metadata>
  <rdf:RDF>
   <cc:Work rdf:about="">
    <dc:format>image/svg+xml</dc:format>
    <dc:type rdf:resource="http://purl.org/dc/dcmitype/StillImage"/>
    <dc:title/>
   </cc:Work>
  </rdf:RDF>
 </metadata>
 <g transform="translate(-.085045 -.55751)">
  <rect transform="matrix(.26458 0 0 .26458 .085045 .55752)" x="4.5" y="4.5" width="55" height="55" ry="15" fill="#141414" filter="url(#filter1057-6)" opacity=".3" stroke-linecap="round" stroke-width="2.7444"/>
  <rect x="1.2757" y="1.7481" width="14.552" height="14.552" ry="3.9687" fill="url(#linearGradient1053-2)" stroke-linecap="round" stroke-width=".72611"/>
  <g stroke-width=".20601">
   <path d="m8.5517 9.3838c0.13123 0 0.27646 0.046559 0.58386 0.14895l4.522 1.8496c0.18006 0.09065 0.25051 0.21075 0.25051 0.31932 0 0.10816-0.07046 0.22826-0.25072 0.3189l-4.5302 1.8533-0.0033 0.0021c-0.3873 0.19365-0.75689 0.19365-1.1442 0l-0.0033-0.0021-4.5302-1.8533c-0.18025-0.09065-0.25071-0.21075-0.25071-0.31911 0-0.10836 0.070456-0.22847 0.25072-0.31911l4.5201-1.8492h0.00164c0.30739-0.10239 0.45262-0.14895 0.58386-0.14895z" fill="url(#linearGradient981)" overflow="visible" style="font-feature-settings:normal;font-variant-alternates:normal;font-variant-caps:normal;font-variant-ligatures:normal;font-variant-numeric:normal;font-variant-position:normal;isolation:auto;mix-blend-mode:normal;shape-padding:0;text-decoration-color:#000000;text-decoration-line:none;text-decoration-style:solid;text-indent:0;text-orientation:mixed;text-transform:none;white-space:normal"/>
   <path d="m8.5517 9.3838v6.085e-4c-0.13123 0-0.27646 0.046352-0.58383 0.14874h-0.00164l-3.3062 1.3529 3.2348 1.3234c0.43201 0.21364 0.88175 0.21364 1.3139 0l3.2348-1.3234-3.3081-1.3533c-0.30737-0.10239-0.45262-0.14874-0.58383-0.14874z" fill-opacity=".078" opacity=".5" overflow="visible" style="font-feature-settings:normal;font-variant-alternates:normal;font-variant-caps:normal;font-variant-ligatures:normal;font-variant-numeric:normal;font-variant-position:normal;isolation:auto;mix-blend-mode:normal;shape-padding:0;text-decoration-color:#000000;text-decoration-line:none;text-decoration-style:solid;text-indent:0;text-orientation:mixed;text-transform:none;white-space:normal"/>
   <path d="m8.5517 6.7054c0.13123 0 0.27646 0.046559 0.58386 0.14895l4.522 1.8498c0.18006 0.090646 0.25051 0.21054 0.25051 0.3189 0 0.10857-0.07046 0.22867-0.25072 0.31933l-4.5302 1.8531-0.0033 0.0021c-0.3873 0.19365-0.75689 0.19365-1.1442 0l-0.0033-0.0021-4.5302-1.8533c-0.18026-0.09044-0.25072-0.21054-0.25072-0.31911 0-0.10836 0.070456-0.22847 0.25072-0.3189l4.5201-1.8494h0.00164c0.30739-0.10239 0.45262-0.14895 0.58386-0.14895z" fill="url(#linearGradient973)" overflow="visible" style="font-feature-settings:normal;font-variant-alternates:normal;font-variant-caps:normal;font-variant-ligatures:normal;font-variant-numeric:normal;font-variant-position:normal;isolation:auto;mix-blend-mode:normal;shape-padding:0;text-decoration-color:#000000;text-decoration-line:none;text-decoration-style:solid;text-indent:0;text-orientation:mixed;text-transform:none;white-space:normal"/>
   <path d="m8.5517 9.1763v0.00206c-0.17738 0-0.34158 0.056653-0.65058 0.15966l-0.0033 0.00206-0.00309 0.00206-2.2251 0.91059 2.3067 0.94353 0.0033 0.0021c0.3873 0.19365 0.75689 0.19365 1.1442 0l0.0033-0.0021 2.3092-0.94477-2.2307-0.91265-0.0033-0.00228c-0.30903-0.10299-0.47321-0.15985-0.65058-0.15985z" fill="#0aa8f0" overflow="visible" style="font-feature-settings:normal;font-variant-alternates:normal;font-variant-caps:normal;font-variant-ligatures:normal;font-variant-numeric:normal;font-variant-position:normal;isolation:auto;mix-blend-mode:normal;shape-padding:0;text-decoration-color:#000000;text-decoration-line:none;text-decoration-style:solid;text-indent:0;text-orientation:mixed;text-transform:none;white-space:normal"/>
   <path d="m8.5517 9.3838v6.085e-4c-0.13123 0-0.27646 0.046352-0.58383 0.14874h-0.00164l-2.0272 0.82942 2.0373 0.83333 0.0033 0.0021c0.3873 0.19365 0.75689 0.19365 1.1442 0l0.0033-0.0021 2.0369-0.83354-2.0284-0.82981c-0.30739-0.10238-0.45262-0.14873-0.58386-0.14873z" fill="url(#linearGradient999)" overflow="visible" style="font-feature-settings:normal;font-variant-alternates:normal;font-variant-caps:normal;font-variant-ligatures:normal;font-variant-numeric:normal;font-variant-position:normal;isolation:auto;mix-blend-mode:normal;shape-padding:0;text-decoration-color:#000000;text-decoration-line:none;text-decoration-style:solid;text-indent:0;text-orientation:mixed;text-transform:none;white-space:normal"/>
   <path d="m8.5517 6.7054v6.085e-4c-0.13123 0-0.27646 0.046352-0.58383 0.14874h-0.00164l-3.3062 1.3529 3.2348 1.3234c0.43201 0.21364 0.88175 0.21364 1.3139 0l3.2348-1.3234-3.3081-1.3533c-0.30737-0.10239-0.45262-0.14874-0.58383-0.14874z" fill-opacity=".078" opacity=".5" overflow="visible" style="font-feature-settings:normal;font-variant-alternates:normal;font-variant-caps:normal;font-variant-ligatures:normal;font-variant-numeric:normal;font-variant-position:normal;isolation:auto;mix-blend-mode:normal;shape-padding:0;text-decoration-color:#000000;text-decoration-line:none;text-decoration-style:solid;text-indent:0;text-orientation:mixed;text-transform:none;white-space:normal"/>
   <path d="m8.5517 4.0273c0.13123 0 0.27646 0.046559 0.58386 0.14895l4.522 1.8498c0.18006 0.090646 0.25051 0.21054 0.25051 0.3189 0 0.10857-0.07046 0.22867-0.25072 0.31933l-4.5302 1.8531-0.0033 0.00206c-0.3873 0.19365-0.75689 0.19365-1.1442 0l-0.0033-0.00206-4.5302-1.8533c-0.18026-0.09044-0.25072-0.21054-0.25072-0.31911 0-0.10836 0.070456-0.22847 0.25072-0.3189l4.5201-1.8494h0.00164c0.30739-0.10239 0.45262-0.14895 0.58386-0.14895z" fill="url(#linearGradient965)" overflow="visible" style="font-feature-settings:normal;font-variant-alternates:normal;font-variant-caps:normal;font-variant-ligatures:normal;font-variant-numeric:normal;font-variant-position:normal;isolation:auto;mix-blend-mode:normal;shape-padding:0;text-decoration-color:#000000;text-decoration-line:none;text-decoration-style:solid;text-indent:0;text-orientation:mixed;text-transform:none;white-space:normal"/>
   <path d="m8.5517 6.4985v0.00124c-0.17738 0-0.34158 0.056653-0.65058 0.15966l-0.0033 0.00206-0.00309 0.00206-2.2251 0.91059 2.3067 0.94353 0.0033 0.00206c0.3873 0.19365 0.75689 0.19365 1.1442 0l0.0033-0.00206 2.3092-0.94477-2.2307-0.91265-0.0033-0.00206c-0.30903-0.10301-0.47321-0.15966-0.65058-0.15966z" fill="#0aa8f0" overflow="visible" style="font-feature-settings:normal;font-variant-alternates:normal;font-variant-caps:normal;font-variant-ligatures:normal;font-variant-numeric:normal;font-variant-position:normal;isolation:auto;mix-blend-mode:normal;shape-padding:0;text-decoration-color:#000000;text-decoration-line:none;text-decoration-style:solid;text-indent:0;text-orientation:mixed;text-transform:none;white-space:normal"/>
   <path d="m8.5517 6.7054v6.085e-4c-0.13123 0-0.27646 0.046352-0.58383 0.14874h-0.00164l-2.0272 0.82942 2.0373 0.83333 0.0033 0.00206c0.3873 0.19365 0.75689 0.19365 1.1442 0l0.0033-0.00206 2.0369-0.83354-2.0284-0.82981c-0.30739-0.10238-0.45262-0.14873-0.58386-0.14873z" fill="url(#linearGradient989)" overflow="visible" style="font-feature-settings:normal;font-variant-alternates:normal;font-variant-caps:normal;font-variant-ligatures:normal;font-variant-numeric:normal;font-variant-position:normal;isolation:auto;mix-blend-mode:normal;shape-padding:0;text-decoration-color:#000000;text-decoration-line:none;text-decoration-style:solid;text-indent:0;text-orientation:mixed;text-transform:none;white-space:normal"/>
  </g>
 </g>
</svg>
