<?xml version="1.0" encoding="UTF-8"?>
<svg width="64" height="64" version="1.1" viewBox="0 0 16.933 16.933" xmlns="http://www.w3.org/2000/svg" xmlns:cc="http://creativecommons.org/ns#" xmlns:dc="http://purl.org/dc/elements/1.1/" xmlns:rdf="http://www.w3.org/1999/02/22-rdf-syntax-ns#" xmlns:xlink="http://www.w3.org/1999/xlink">
 <defs>
  <filter id="filter1057-3" x="-.027" y="-.027" width="1.054" height="1.054" color-interpolation-filters="sRGB">
   <feGaussianBlur stdDeviation="0.61875"/>
  </filter>
  <linearGradient id="linearGradient1053-7" x1="-127" x2="-72" y1="60" y2="5" gradientTransform="matrix(.26458 0 0 .26458 26.846 6.8482)" gradientUnits="userSpaceOnUse">
   <stop stop-color="#8cd750" offset="0"/>
   <stop stop-color="#7dcd32" stop-opacity=".99608" offset=".49585"/>
   <stop stop-color="#87d241" stop-opacity=".99608" offset="1"/>
  </linearGradient>
 </defs>
 <metadata>
  <rdf:RDF>
   <cc:Work rdf:about="">
    <dc:format>image/svg+xml</dc:format>
    <dc:type rdf:resource="http://purl.org/dc/dcmitype/StillImage"/>
    <dc:title/>
   </cc:Work>
  </rdf:RDF>
 </metadata>
 <g transform="translate(7.9469 -6.9831)">
  <rect transform="matrix(.26458 0 0 .26458 -7.9469 6.9831)" x="4.5" y="4.5" width="55" height="55" ry="15" fill="#141414" filter="url(#filter1057-3)" opacity=".3" stroke-linecap="round" stroke-width="2.7444"/>
  <rect x="-6.7563" y="8.1737" width="14.552" height="14.552" ry="3.9687" fill="url(#linearGradient1053-7)" stroke-linecap="round" stroke-width=".72611"/>
  <path d="m2.3813 20.423c-0.83043-0.13795-1.9087-1.0886-2.8933-2.5502-0.4131-0.61351-0.83569-1.3707-1.1115-1.992-0.055231-0.12495-0.075471-0.15494-0.092462-0.13695-0.033241 0.03574-0.27364 0.55853-0.40034 0.87067-0.21291 0.52554-0.36312 1.0263-0.44908 1.4987-0.054981 0.30263-0.059971 0.88916-0.0087 1.0708 0.11895 0.42209 0.37711 0.59727 0.7797 0.5298 0.28988-0.04848 0.64124-0.20742 1.0138-0.45858 0.16543-0.1117 0.20916-0.13294 0.27316-0.1332 0.097712-7.41e-4 0.17093 0.05248 0.20492 0.14944 0.02274 0.06422 0.02274 0.08297-5.0201e-4 0.14419-0.02249 0.05898-0.060971 0.09371-0.23566 0.21241-0.2414 0.16344-0.65399 0.37436-0.86516 0.44183-0.5533 0.17693-0.98388 0.1122-1.287-0.19392-0.27864-0.28088-0.3986-0.73496-0.36161-1.3687 0.048231-0.82468 0.41058-1.9502 0.98338-3.0539l0.14369-0.27638-0.10846-0.29364c-0.10396-0.28089-0.30914-0.93216-0.30914-0.98063 0-0.03549-0.062981-0.02824-0.33838 0.03948-0.631 0.15519-1.1001 0.35288-1.4362 0.60526-0.66101 0.49607-0.48607 1.0556 0.5048 1.6128 0.15744 0.08872 0.19392 0.13645 0.19392 0.25466 0 0.06173-0.0115 0.08697-0.061971 0.13744-0.10821 0.10846-0.20916 0.08572-0.54353-0.12145-0.48382-0.29988-0.78971-0.64151-0.89715-1.0016-0.039481-0.13145-0.039481-0.39635 0-0.5288 0.056981-0.19267 0.15319-0.34587 0.32663-0.52054 0.3891-0.39135 1.0346-0.69172 1.9192-0.89366 0.18018-0.04123 0.22191-0.05673 0.21491-0.07972-0.0045-0.0155-0.024991-0.1187-0.045481-0.22892-0.12045-0.6455-0.12395-1.3854-9e-3 -1.7958 0.13244-0.47331 0.37285-0.75496 0.7557-0.88641 0.15619-0.05373 0.46908-0.04498 0.68373 0.01849 0.21566 0.06423 0.48331 0.19617 0.71998 0.35486 0.28239 0.18892 0.36537 0.26816 0.37735 0.35962 0.027491 0.20992-0.18942 0.32314-0.36661 0.19117-0.55478-0.41333-0.95112-0.57052-1.2687-0.50356-0.23066 0.04873-0.40685 0.28588-0.49607 0.66725-0.035241 0.15169-0.039981 0.22366-0.040241 0.60076-2.5e-4 0.42783 6e-3 0.49681 0.083972 0.94565l0.039231 0.22542 0.092462-0.01124c0.42508-0.05123 0.79145-0.08697 1.0171-0.09921l0.26816-0.01425 0.041731-0.05373c0.45284-0.58227 1.1113-1.262 1.6101-1.6621 0.95538-0.7667 1.7748-1.0328 2.3383-0.75969 0.31838 0.15419 0.5198 0.46932 0.59777 0.93589 0.050981 0.30488 0.01074 1.0261-0.068471 1.2293-0.027491 0.06997-0.11545 0.1207-0.20992 0.1207-0.059731 0-0.090962-0.012-0.13694-0.05298-0.054481-0.04873-0.059481-0.06248-0.058981-0.15969 0-0.05848 0.01549-0.22516 0.033991-0.3706 0.053981-0.42283 0.01699-0.81344-0.098462-1.0396-0.055981-0.10996-0.17043-0.22692-0.26964-0.27565-0.074221-0.03673-0.11245-0.04248-0.28615-0.04174-0.18268 7.41e-4 -0.21841 0.0067-0.3986 0.06822-0.55729 0.18992-1.1963 0.64725-1.8817 1.3465a13.28 13.28 0 0 0-0.43733 0.47106l-0.19842 0.22792 0.17243 4e-3c2.4165 0.05748 4.4532 0.61227 5.4134 1.4749 0.21591 0.19417 0.40235 0.48331 0.45633 0.70897 0.02749 0.1142 0.02799 0.33637 1e-3 0.45508-0.099212 0.43884-0.58153 0.86993-1.2845 1.1485-0.1112 0.04423-0.1347 0.04748-0.19467 0.02974a0.21916 0.21916 0 0 1-0.16222-0.21141c0-0.11595 0.055981-0.17143 0.25666-0.25566 0.43683-0.18318 0.77544-0.43984 0.9039-0.68524 0.044731-0.08547 0.051481-0.11845 0.051481-0.25316 0-0.13994-6e-3 -0.16643-0.061231-0.27364-0.077972-0.15094-0.33539-0.4091-0.54904-0.55054-1.0496-0.69424-3.0274-1.1448-5.0244-1.145h-0.32938l-0.1242 0.16868c-0.18568 0.2524-0.58851 0.86567-0.74895 1.1398l-0.14144 0.24215 0.097462 0.22292c0.97462 2.2368 2.4877 4.1259 3.6037 4.4982 0.2429 0.08122 0.42633 0.08497 0.57478 0.0125 0.2779-0.13595 0.42333-0.48855 0.44559-1.0803 0.037491-0.98761-0.31838-2.3525-0.98163-3.7672-0.068721-0.14669-0.10996-0.25866-0.10996-0.2984 0-0.11945 0.098212-0.21366 0.22141-0.21191 0.10921 0.0012 0.15744 0.04523 0.24065 0.21991 0.53779 1.1248 0.89641 2.2519 1.0303 3.2385 0.044981 0.33163 0.044981 1.0069 5.03e-4 1.248-0.071471 0.38611-0.19892 0.66399-0.3941 0.85966-0.2374 0.23866-0.54605 0.32989-0.91064 0.26914zm-3.8584-6.0055c0.067971-0.1102 0.20042-0.31287 0.29438-0.45032 0.093962-0.13745 0.17068-0.2554 0.17068-0.2624 0-0.02324-0.86143 0.06398-0.88742 0.08997-0.01574 0.01574 0.035991 0.20767 0.15069 0.56055 0.083472 0.2564 0.10596 0.30864 0.12495 0.2879 0.0125-0.01374 0.078472-0.11545 0.14669-0.22566zm1.838 1.6353c-0.2739-0.09771-0.43384-0.32637-0.43035-0.61425 2e-3 -0.15094 0.036241-0.2544 0.12445-0.37436 0.22341-0.30438 0.67974-0.33912 0.95464-0.07247 0.31539 0.30613 0.22216 0.85268-0.17718 1.0353-0.13744 0.06273-0.33713 0.07372-0.47157 0.02574z" fill="#fff" stroke="#fff" stroke-width=".072472"/>
 </g>
</svg>
