<?xml version="1.0" encoding="UTF-8"?>
<svg width="64" height="64" version="1.1" viewBox="0 0 16.933 16.933" xmlns="http://www.w3.org/2000/svg" xmlns:cc="http://creativecommons.org/ns#" xmlns:dc="http://purl.org/dc/elements/1.1/" xmlns:rdf="http://www.w3.org/1999/02/22-rdf-syntax-ns#" xmlns:xlink="http://www.w3.org/1999/xlink">
 <defs>
  <filter id="filter1057" x="-.027" y="-.027" width="1.054" height="1.054" color-interpolation-filters="sRGB">
   <feGaussianBlur stdDeviation="0.61875"/>
  </filter>
  <linearGradient id="linearGradient1053" x1="-127" x2="-72" y1="60" y2="5" gradientTransform="matrix(.26458 0 0 .26458 21.696 6.8009)" gradientUnits="userSpaceOnUse">
   <stop stop-color="#02db96" offset="0"/>
   <stop stop-color="#13d39b" offset="1"/>
  </linearGradient>
 </defs>
 <metadata>
  <rdf:RDF>
   <cc:Work rdf:about="">
    <dc:format>image/svg+xml</dc:format>
    <dc:type rdf:resource="http://purl.org/dc/dcmitype/StillImage"/>
    <dc:title/>
   </cc:Work>
  </rdf:RDF>
 </metadata>
 <g transform="translate(13.097 -6.9359)">
  <rect transform="matrix(.26458 0 0 .26458 -13.097 6.9359)" x="4.5" y="4.5" width="55" height="55" ry="15" fill="#141414" filter="url(#filter1057)" opacity=".3" stroke-linecap="round" stroke-width="2.7444"/>
  <rect x="-11.906" y="8.1265" width="14.552" height="14.552" ry="3.9687" fill="url(#linearGradient1053)" stroke-linecap="round" stroke-width=".72611"/>
  <path d="m-2.7689 20.376c-0.83042-0.13795-1.9088-1.0886-2.8932-2.5503-0.41309-0.61352-0.83569-1.3707-1.1116-1.992-0.055229-0.12495-0.07547-0.15494-0.092464-0.13695-0.033237 0.03574-0.27363 0.55854-0.40034 0.87066-0.21292 0.52554-0.36311 1.0263-0.44908 1.4987-0.054978 0.30263-0.059976 0.88916-0.00875 1.0708 0.11895 0.42209 0.37711 0.59727 0.7797 0.5298 0.28988-0.04848 0.64124-0.20742 1.0139-0.45858 0.16544-0.11171 0.20917-0.13295 0.27316-0.1332 0.097713-7.4e-4 0.17093 0.05248 0.20492 0.14944 0.022741 0.06423 0.022741 0.08297-5.027e-4 0.1442-0.022492 0.05898-0.060976 0.09371-0.23566 0.21242-0.24141 0.16344-0.654 0.37436-0.86516 0.44183-0.5533 0.17693-0.98388 0.11221-1.287-0.19393-0.27863-0.28088-0.39859-0.73496-0.36161-1.3687 0.048231-0.82468 0.41058-1.9502 0.98338-3.0538l0.1437-0.27638-0.10846-0.29363c-0.10396-0.28088-0.30914-0.93215-0.30914-0.98062 0-0.03549-0.062976-0.02824-0.33838 0.03948-0.631 0.15519-1.1001 0.35288-1.4362 0.60526-0.66101 0.49607-0.48607 1.0556 0.5048 1.6129 0.15744 0.08872 0.19393 0.13645 0.19393 0.25465 0 0.06173-0.011496 0.08697-0.061976 0.13744-0.10821 0.10846-0.20917 0.08572-0.54353-0.12145-0.48382-0.29988-0.7897-0.64151-0.89715-1.0016-0.03948-0.13145-0.03948-0.39634 0-0.5288 0.05698-0.19268 0.15319-0.34586 0.32663-0.52054 0.3891-0.39134 1.0346-0.69173 1.9193-0.89366 0.18018-0.04124 0.22191-0.05673 0.21492-0.07972-0.0045-0.01549-0.02499-0.1187-0.045482-0.22891-0.12045-0.6455-0.12395-1.3855-9e-3 -1.7958 0.13245-0.47331 0.37285-0.75496 0.7557-0.88641 0.15619-0.05373 0.46908-0.04498 0.68374 0.01849 0.21567 0.06423 0.48331 0.19618 0.71998 0.35486 0.28239 0.18893 0.36536 0.26816 0.37735 0.35962 0.02749 0.20992-0.18943 0.32314-0.36661 0.19118-0.55478-0.41333-0.95112-0.57052-1.2688-0.50356-0.23066 0.04873-0.40685 0.28588-0.49607 0.66725-0.035237 0.15169-0.039984 0.22366-0.040235 0.60076-2.501e-4 0.42783 6e-3 0.49681 0.083968 0.94565l0.039235 0.22541 0.092464-0.01124c0.42508-0.05123 0.79145-0.08697 1.0171-0.09921l0.26816-0.01424 0.041733-0.05373c0.45283-0.58227 1.1113-1.262 1.6101-1.6621 0.95538-0.76671 1.7748-1.0329 2.3384-0.7597 0.31837 0.15419 0.5198 0.46932 0.59777 0.93588 0.05098 0.30488 0.010745 1.0261-0.068474 1.2293-0.02749 0.06997-0.11546 0.1207-0.20992 0.1207-0.059727 0-0.090964-0.012-0.13695-0.05298-0.054478-0.04873-0.059478-0.06248-0.058978-0.15969 0-0.05848 0.015494-0.22516 0.033986-0.3706 0.05398-0.42283 0.016994-0.81344-0.098462-1.0396-0.055978-0.10996-0.17043-0.22691-0.26964-0.27564-0.074221-0.03674-0.11246-0.04248-0.28615-0.04174-0.18268 7.41e-4 -0.21842 0.0067-0.39859 0.06822-0.55729 0.18993-1.1963 0.64725-1.8818 1.3465a13.281 13.281 0 0 0-0.43733 0.47106l-0.19842 0.22791 0.17243 4e-3c2.4166 0.05748 4.4532 0.61227 5.4134 1.4749 0.21592 0.19418 0.40235 0.48332 0.45633 0.70898 0.02749 0.1142 0.02799 0.33636 0.001005 0.45508-0.099211 0.43884-0.58153 0.86992-1.2845 1.1486-0.11121 0.04423-0.1347 0.04748-0.19468 0.02974a0.21916 0.21916 0 0 1-0.16218-0.21142c0-0.11596 0.055978-0.17143 0.25665-0.25565 0.43683-0.18318 0.77544-0.43984 0.9039-0.68524 0.044733-0.08547 0.05148-0.11845 0.05148-0.25315 0-0.13995-0.005998-0.16644-0.061227-0.27363-0.077973-0.15094-0.33539-0.4091-0.54904-0.55054-1.0496-0.69424-3.0274-1.1448-5.0244-1.1451h-0.32938l-0.1242 0.16868c-0.18568 0.2524-0.58851 0.86566-0.74896 1.1398l-0.14145 0.24216 0.097462 0.22291c0.97462 2.2369 2.4878 4.1259 3.6036 4.4982 0.24291 0.08122 0.42632 0.08497 0.57478 0.0125 0.27789-0.13595 0.42333-0.48855 0.44558-1.0803 0.037486-0.98761-0.31837-2.3526-0.98163-3.7671-0.068723-0.14669-0.10996-0.25865-0.10996-0.2984 0-0.11945 0.098213-0.21367 0.22141-0.21192 0.10921 0.0012 0.15744 0.04523 0.24066 0.21992 0.53779 1.1248 0.89641 2.2519 1.0303 3.2385 0.044982 0.33163 0.044982 1.0069 5.027e-4 1.248-0.071472 0.38611-0.19892 0.664-0.3941 0.85966-0.23741 0.23866-0.54605 0.32988-0.91064 0.26913zm-3.8584-6.0055c0.067974-0.11021 0.20042-0.31287 0.29438-0.45032 0.093964-0.13745 0.17069-0.2554 0.17069-0.2624 0-0.02324-0.86143 0.06398-0.88741 0.08997-0.015743 0.01574 0.035986 0.20767 0.15069 0.56055 0.083468 0.2564 0.10596 0.30864 0.12495 0.28789 0.012496-0.01375 0.07847-0.11546 0.14669-0.22566zm1.838 1.6354c-0.2739-0.09771-0.43384-0.32636-0.43034-0.61426 0.00201-0.15094 0.036237-0.2544 0.12445-0.37436 0.22341-0.30438 0.67974-0.33912 0.95464-0.07247 0.31538 0.30612 0.22217 0.85267-0.17718 1.0353-0.13745 0.06272-0.33713 0.07372-0.47157 0.02574z" fill="#fff" stroke="#fff" stroke-width=".072472"/>
 </g>
</svg>
