<?xml version="1.0" encoding="UTF-8"?>
<svg width="64" height="64" version="1.1" viewBox="0 0 16.933 16.933" xmlns="http://www.w3.org/2000/svg" xmlns:cc="http://creativecommons.org/ns#" xmlns:dc="http://purl.org/dc/elements/1.1/" xmlns:rdf="http://www.w3.org/1999/02/22-rdf-syntax-ns#" xmlns:xlink="http://www.w3.org/1999/xlink">
 <defs>
  <filter id="filter1057-92" x="-.027" y="-.027" width="1.054" height="1.054" color-interpolation-filters="sRGB">
   <feGaussianBlur stdDeviation="0.61875"/>
  </filter>
  <linearGradient id="linearGradient1053-28" x1="-127" x2="-72" y1="60" y2="5" gradientTransform="matrix(.26458 0 0 .26458 35.87 .8478)" gradientUnits="userSpaceOnUse">
   <stop stop-color="#32d7ff" offset="0"/>
   <stop stop-color="#329bff" offset="1"/>
  </linearGradient>
  <linearGradient id="c-36" x1="32" x2="32" y1="11" y2="53" gradientTransform="matrix(.25008 0 0 .25008 1.5412 1.4466)" gradientUnits="userSpaceOnUse" xlink:href="#b-3-1">
   <stop stop-color="#f7bd39" offset="0"/>
   <stop stop-color="#f9e657" offset="1"/>
  </linearGradient>
  <linearGradient id="b-3-1" x1="-42" x2="-6" y1="-24" y2="-24" gradientTransform="matrix(.22229 0 0 .22229 -3.1291 -3.1314)" gradientUnits="userSpaceOnUse">
   <stop stop-color="#f0f0f0" offset="0"/>
   <stop stop-color="#fff" offset="1"/>
  </linearGradient>
  <filter id="m-0" x="-.06" y="-.06" width="1.12" height="1.12" color-interpolation-filters="sRGB">
   <feGaussianBlur stdDeviation="0.21980767"/>
  </filter>
  <linearGradient id="linearGradient5997" x1="-42" x2="-6" y1="-24" y2="-24" gradientTransform="matrix(.22229 0 0 .22229 -4.112 -4.2083)" gradientUnits="userSpaceOnUse" xlink:href="#b-3-1"/>
 </defs>
 <metadata>
  <rdf:RDF>
   <cc:Work rdf:about="">
    <dc:format>image/svg+xml</dc:format>
    <dc:type rdf:resource="http://purl.org/dc/dcmitype/StillImage"/>
    <dc:title/>
   </cc:Work>
  </rdf:RDF>
 </metadata>
 <g transform="translate(-1.0772 -.98274)">
  <rect transform="matrix(.26458 0 0 .26458 1.0772 .98274)" x="4.5" y="4.5" width="55" height="55" ry="15" fill="#141414" filter="url(#filter1057-92)" opacity=".3" stroke-linecap="round" stroke-width="2.7444"/>
  <rect x="2.2679" y="2.1734" width="14.552" height="14.552" ry="3.9687" fill="url(#linearGradient1053-28)" stroke-linecap="round" stroke-width=".72611"/>
  <path d="m6.2923 4.1976v2.0006h-2.0006v0.50018h2.0006v0.50018h-2.0006v0.50018h2.0006v0.50018h-2.0006v0.50018h2.0006v0.50018h-2.0006v0.50018h2.0006v0.50018h-2.0006v0.50018h2.0006v0.50018h-2.0006v0.50018h2.0006v0.50018h-2.0006v0.50018h2.0006v2.0006h0.50018v-2.0006h0.50018v2.0006h0.50018v-2.0006h0.50018v2.0006h0.50018v-2.0006h0.50018v2.0006h0.50018v-2.0006h0.50018v2.0006h0.50018v-2.0006h0.50018v2.0006h0.50018v-2.0006h0.50018v2.0006h0.50018v-2.0006h2.0006v-0.50018h-2.0006v-0.50018h2.0006v-0.50018h-2.0006v-0.50018h2.0006v-0.50018h-2.0006v-0.50018h2.0006v-0.50018h-2.0006v-0.50018h2.0006v-0.50018h-2.0006v-0.50018h2.0006v-0.50018h-2.0006v-0.50018h2.0006v-0.50018h-2.0006v-2.0006h-0.50018v2.0006h-0.50018v-2.0006h-0.50018v2.0006h-0.50018v-2.0006h-0.50018v2.0006h-0.50018v-2.0006h-0.50018v2.0006h-0.50018v-2.0006h-0.50018v2.0006h-0.50018v-2.0006h-0.50018v2.0006h-0.50018v-2.0006zm0.50018 2.5008h0.50018v0.50018h-0.50018zm1.0003 0h0.50018v0.50018h-0.50018zm1.0003 0h0.50018v0.50018h-0.50018zm1.0003 0h0.50018v0.50018h-0.50018zm1.0003 0h0.50018v0.50018h-0.50018zm1.0003 0h0.50018v0.50018h-0.50018zm-5.0018 1.0003h0.50018v0.50018h-0.50018zm1.0003 0h0.50018v0.50018h-0.50018zm1.0003 0h0.50018v0.50018h-0.50018zm1.0003 0h0.50018v0.50018h-0.50018zm1.0003 0h0.50018v0.50018h-0.50018zm1.0003 0h0.50018v0.50018h-0.50018zm-5.0018 1.0003h0.50018v0.50018h-0.50018zm1.0003 0h0.50018v0.50018h-0.50018zm1.0003 0h0.50018v0.50018h-0.50018zm1.0003 0h0.50018v0.50018h-0.50018zm1.0003 0h0.50018v0.50018h-0.50018zm1.0003 0h0.50018v0.50018h-0.50018zm-5.0018 1.0003h0.50018v0.50018h-0.50018zm1.0003 0h0.50018v0.50018h-0.50018zm1.0003 0h0.50018v0.50018h-0.50018zm1.0003 0h0.50018v0.50018h-0.50018zm1.0003 0h0.50018v0.50018h-0.50018zm1.0003 0h0.50018v0.50018h-0.50018zm-5.0018 1.0003h0.50018v0.50018h-0.50018zm1.0003 0h0.50018v0.50018h-0.50018zm1.0003 0h0.50018v0.50018h-0.50018zm1.0003 0h0.50018v0.50018h-0.50018zm1.0003 0h0.50018v0.50018h-0.50018zm1.0003 0h0.50018v0.50018h-0.50018zm-5.0018 1.0003h0.50018v0.50018h-0.50018zm1.0003 0h0.50018v0.50018h-0.50018zm1.0003 0h0.50018v0.50018h-0.50018zm1.0003 0h0.50018v0.50018h-0.50018zm1.0003 0h0.50018v0.50018h-0.50018zm1.0003 0h0.50018v0.50018h-0.50018z" fill="url(#c-36)" stroke-width=".77518"/>
  <rect transform="matrix(0 -.91022 -.9102 0 1.7782 -253.18)" x="-292.93" y="-12.927" width="8.7923" height="8.7923" rx=".43962" ry=".54952" filter="url(#m-0)" opacity=".25" stroke-width=".5239"/>
  <rect transform="matrix(0,-1,-1,0,0,0)" x="-13.451" y="-13.545" width="8.003" height="8.0028" rx=".40016" ry=".50018" fill="url(#linearGradient5997)" stroke-width=".47686"/>
  <g fill="#10a8ff">
   <path d="m11.967 8.7794c-0.23028-1.0798-2.4024-1.1482-3.8025-0.32552v0.090865c1.3982-0.69432 3.3823-0.6899 3.563 0.30482 0.06083 0.32954-0.13077 0.67224-0.47435 0.86944v0.25806c0.41359-0.14598 0.83634-0.61846 0.71387-1.1976m-2.5462 1.8906c-0.96621 0.086011-1.9729-0.049371-2.1139-0.77864-0.070003-0.35905 0.10038-0.74015 0.32523-0.97671v-0.1266c-0.40531 0.34319-0.62545 0.77728-0.49834 1.2898 0.1621 0.65773 1.0261 1.03 2.3452 0.90606 0.52228-0.04851 1.2057-0.21084 1.68-0.46268v-0.3578c-0.43108 0.24834-1.144 0.45351-1.7381 0.50641z" stroke-width=".306"/>
   <g stroke-width=".34503">
    <path d="m11.396 8.5697h-0.2776v1.1669c0 0.13705 0.06967 0.25624 0.2776 0.27515"/>
    <path d="m8.089 8.9961h-0.27764v0.76216c0 0.1371 0.069673 0.25626 0.27764 0.27515"/>
    <rect x="7.8113" y="8.6052" width=".27764" height=".24823"/>
    <path d="m9.7526 10.021c-0.22511 0-0.32-0.14753-0.32-0.29314v-1.0122h0.2746v0.28036h0.20794v0.20992h-0.20794v0.50637c0 0.059552 0.030283 0.09221 0.095881 0.09221h0.11207v0.21653h-0.16254"/>
    <path d="m10.483 9.1933c-0.09387 0-0.16653 0.045849-0.19683 0.10779-0.01816 0.037336-0.02424 0.065714-0.02723 0.1116h0.42502c-0.0061-0.11207-0.05961-0.21939-0.20095-0.21939m-0.22407 0.39621c0 0.13286 0.08879 0.23069 0.24427 0.23069 0.12218 0 0.18275-0.032149 0.25342-0.09781l0.16961 0.15365c-0.10903 0.10115-0.22311 0.16263-0.42502 0.16263-0.26348 0-0.51589-0.13569-0.51589-0.53097 0-0.33803 0.22008-0.52902 0.50983-0.52902 0.29378 0 0.46234 0.22362 0.46234 0.51724v0.093619h-0.69856"/>
    <path d="m8.837 9.206c0.080747 0 0.11407 0.037361 0.11407 0.098347v0.71816h0.27561v-0.71911c0-0.1461-0.082791-0.30733-0.32407-0.30733h-0.56837v1.0264h0.2746v-0.81651"/>
   </g>
  </g>
 </g>
</svg>
