<?xml version="1.0" encoding="UTF-8"?>
<svg width="64" height="64" version="1.1" xmlns="http://www.w3.org/2000/svg" xmlns:cc="http://creativecommons.org/ns#" xmlns:dc="http://purl.org/dc/elements/1.1/" xmlns:rdf="http://www.w3.org/1999/02/22-rdf-syntax-ns#">
 <metadata>
  <rdf:RDF>
   <cc:Work rdf:about="">
    <dc:format>image/svg+xml</dc:format>
    <dc:type rdf:resource="http://purl.org/dc/dcmitype/StillImage"/>
    <dc:title/>
   </cc:Work>
  </rdf:RDF>
 </metadata>
 <defs>
  <style type="text/css"/>
  <style type="text/css"/>
  <style type="text/css"/>
  <style type="text/css"/>
  <filter id="filter1057" x="-.027" y="-.027" width="1.054" height="1.054" color-interpolation-filters="sRGB">
   <feGaussianBlur stdDeviation="0.61875"/>
  </filter>
  <linearGradient id="linearGradient1053" x1="-127" x2="-72" y1="60" y2="5" gradientTransform="translate(131.5 -.51)" gradientUnits="userSpaceOnUse">
   <stop stop-color="#32d7ff" offset="0"/>
   <stop stop-color="#329bff" offset="1"/>
  </linearGradient>
  <style type="text/css"/>
  <style type="text/css"/>
  <style type="text/css"/>
  <style type="text/css"/>
  <style type="text/css"/>
  <style type="text/css"/>
  <style type="text/css"/>
 </defs>
 <rect x="4.5" y="4.5" width="55" height="55" ry="15" fill="#141414" filter="url(#filter1057)" opacity=".3" stroke-linecap="round" stroke-width="2.7444"/>
 <rect x="4.5" y="4.5" width="55" height="55" ry="15" fill="url(#linearGradient1053)" stroke-linecap="round" stroke-width="2.7444"/>
 <g fill="#5e4aa6">
  <circle cx="-1401.7" cy="-1262.9" r="0"/>
  <circle cx="-302.14" cy="2.5994" r="0" fill-rule="evenodd"/>
  <circle cx="-1124.8" cy="-1279.3" r="0"/>
 </g>
 <g transform="matrix(3.7796,0,0,3.7796,123.83,-38.184)" fill="#5e4aa6" stroke-width=".26458">
  <circle cx="-299.02" cy="-338.77" r="0"/>
  <circle cx="-8.1062" cy="-3.9487" r="0" fill-rule="evenodd"/>
  <circle cx="-278.25" cy="-357.69" r="0"/>
  <circle cx="12.663" cy="-22.859" r="0" fill-rule="evenodd"/>
 </g>
 <g transform="matrix(.85714 0 0 .85714 195.21 -3.8172)" fill="#fff" stroke-width=".039065">
  <path d="m-204.08 49.127c1.7267 1.9767 6.8481 0.6602 8.942 0.0195-1.1446-0.75786-1.7696-1.5509-2.0978-2.2228-0.49613-1.004-0.75396-3.1487 1.1446-2.9104 8.1607 1.1329 10.051-2.3205 12.087-6.0785 1.6759-3.0744 3.4299-6.3208 7.8716-8.0631-4.2581-7.3247-16.486 0.92194-18.599 5.9731-0.19923 0.57817-0.68755 0.97663-1.2892 0.97663-0.73833 0-1.3595-0.64067-1.3595-1.4024 0 0 0.11329-2.047 0.73052-4.6956-0.91803 0.87506-1.711 1.9142-2.3439 3.0744-1.1094 2.0353-1.6173 4.3792-1.047 6.4926h-8e-3c0.14845 0.55863-0.0508 1.1993-0.55863 1.5431-0.60942 0.418-1.4259 0.2383-1.8478-0.40237-0.60161-0.961-1.2696-1.8868-1.7697-2.9104-1.1368 3.2307-1.5665 7.52 0.14454 10.606z"/>
  <path d="m-196.53 59.284h13.954c0.46488 0 0.81646-0.38284 0.81646-0.85162 0-0.47269-0.35158-0.83209-0.81646-0.83209h-13.954c-0.43753 0-0.80865 0.3594-0.80865 0.83209 4e-3 0.47269 0.37112 0.85162 0.80865 0.85162z"/>
  <path d="m-206.37 50.635c-2.7072-4.8363-1.5978-11.997 1.254-16.454 0.39456-0.64067 1.2462-0.82428 1.8478-0.38284 0.29689 0.19923 0.50784 0.50394 0.56253 0.83209h0.0156c0.0508 0.25392 0.11329 0.49222 0.17188 0.7227 0.29299-1.0196 0.68755-2.0236 1.2032-2.9572 1.5314-2.8361 3.9964-5.1879 6.6606-6.2582 0.68755-0.26955 1.4532 0.0899 1.7345 0.80865 0.1211 0.37112 0.10157 0.74223-0.0352 1.0821-0.26565 0.62114-0.49613 1.2501-0.69536 1.8634 1.9845-1.8634 4.4847-3.5159 7.0356-4.5276 5.2972-2.0939 11.345-1.465 13.61 4.8558 0.26564 0.73052-0.10157 1.5314-0.78912 1.8322l-0.1211 0.0391c-4.5042 1.2384-6.1801 4.3245-7.7583 7.2427-2.2189 4.0745-4.2972 7.8638-11.638 7.731 0.48831 0.2383 1.1446 0.50394 1.9689 0.76958 0.70318 0.22268 1.1095 1.004 0.88678 1.7618-0.10547 0.37112-0.35158 0.66411-0.67192 0.83209-3.387 2.0236-9.317 3.4416-13.138 1.8595-0.52347 0.79302-1.3516 2.5431-0.77349 5.2933v0.0156h3.7034c0.45316 0 0.79693 0.3594 0.79693 0.83208 0 0.46879-0.34377 0.85163-0.79693 0.85163h-4.8636c-0.68755 0.0703-1.3126-0.4141-1.4767-1.1212-0.73442-3.6604 0.43753-6.2426 1.3048-7.524z"/>
 </g>
 <circle cx="-1189" cy="-1279.3" r="0" fill="#5e4aa6"/>
 <g transform="matrix(3.7796 0 0 3.7796 59.63 -38.184)" fill="#5e4aa6" stroke-width=".26458">
  <circle cx="-299.02" cy="-338.77" r="0"/>
  <circle cx="-8.1062" cy="-3.9487" r="0" fill-rule="evenodd"/>
  <circle cx="-278.25" cy="-357.69" r="0"/>
  <circle cx="12.663" cy="-22.859" r="0" fill-rule="evenodd"/>
 </g>
</svg>
