<?xml version="1.0" encoding="UTF-8"?>
<svg width="64" height="64" version="1.1" viewBox="0 0 16.933 16.933" xmlns="http://www.w3.org/2000/svg" xmlns:cc="http://creativecommons.org/ns#" xmlns:dc="http://purl.org/dc/elements/1.1/" xmlns:rdf="http://www.w3.org/1999/02/22-rdf-syntax-ns#">
 <defs>
  <filter id="filter1057-5" x="-.027" y="-.027" width="1.054" height="1.054" color-interpolation-filters="sRGB">
   <feGaussianBlur stdDeviation="0.61875"/>
  </filter>
  <linearGradient id="linearGradient1053-6" x1="-127" x2="-72" y1="60" y2="5" gradientTransform="matrix(.26458 0 0 .26458 34.793 -.13494)" gradientUnits="userSpaceOnUse">
   <stop stop-color="#51aaff" offset="0"/>
   <stop stop-color="#b496ff" offset="1"/>
  </linearGradient>
 </defs>
 <metadata>
  <rdf:RDF>
   <cc:Work rdf:about="">
    <dc:format>image/svg+xml</dc:format>
    <dc:type rdf:resource="http://purl.org/dc/dcmitype/StillImage"/>
    <dc:title/>
   </cc:Work>
  </rdf:RDF>
 </metadata>
 <rect transform="scale(.26458)" x="4.5" y="4.5" width="55" height="55" ry="15" fill="#141414" filter="url(#filter1057-5)" opacity=".3" stroke-linecap="round" stroke-width="2.7444"/>
 <rect x="1.1906" y="1.1906" width="14.552" height="14.552" ry="3.9688" fill="url(#linearGradient1053-6)" stroke-linecap="round" stroke-width=".72612"/>
 <path d="m10.446 4.6176c-0.157-1.22e-5 -0.31405 0.059971-0.43373 0.1797-0.23945 0.23945-0.23945 0.62758 0 0.86697l1.6566 1.6561c0.7228 0.723 0.72717 1.8957 0.01457 2.6253-0.7292 0.71239-1.9018 0.70765-2.6248-0.01506l-1.6561-1.6566c-0.23946-0.23936-0.62797-0.23936-0.86745 0-0.23946 0.23966-0.23946 0.62807 0 0.86745l1.6561 1.6566c1.1854 1.1854 3.1013 1.2044 4.3115 0.05974 0.0111-0.0095 0.02253-0.01844 0.03302-0.02914 0.0051-0.0053 0.0094-0.01044 0.01457-0.01554 0.0051-0.0052 0.01083-0.01005 0.01603-0.01506 0.01041-0.0106 0.01964-0.02144 0.02914-0.03254 1.145-1.2103 1.1256-3.1262-0.05974-4.3115l-1.6561-1.6566c-0.11973-0.11978-0.27672-0.17968-0.43373-0.1797zm-3.8516 0.61391c-0.77843-0.0099-1.5598 0.27178-2.1651 0.84414-0.0111 0.0094-0.02263 0.01873-0.03302 0.029142-0.0051 0.0052-0.0097 0.01071-0.01457 0.01603-0.0052 5e-3 -0.01054 0.0097-0.01554 0.01457-0.0106 0.0106-0.02022 0.02154-0.02963 0.032542-1.1448 1.2108-1.1251 3.1266 0.06023 4.312l1.6561 1.6561c0.23946 0.23946 0.62748 0.23946 0.86697 0 0.23946-0.23966 0.23994-0.62768 4.86e-4 -0.86697l-1.6566-1.6566c-0.7227-0.72269-0.72786-1.8953-0.01506-2.6248 0.72911-0.71249 1.9022-0.70774 2.6253 0.01506l1.6561 1.6566c0.23945 0.23936 0.62748 0.23888 0.86697-4.86e-4 0.23956-0.23966 0.23994-0.62758 4.85e-4 -0.86697l-1.6566-1.6566c-0.59267-0.59271-1.3678-0.89396-2.1461-0.90388z" enable-background="new" fill="#fff" stroke-width=".10002"/>
</svg>
