<?xml version="1.0" encoding="UTF-8"?>
<svg width="64" height="64" version="1.1" viewBox="0 0 16.933 16.933" xmlns="http://www.w3.org/2000/svg" xmlns:cc="http://creativecommons.org/ns#" xmlns:dc="http://purl.org/dc/elements/1.1/" xmlns:rdf="http://www.w3.org/1999/02/22-rdf-syntax-ns#" xmlns:xlink="http://www.w3.org/1999/xlink">
 <defs>
  <filter id="filter2076-1" x="-.048" y="-.048" width="1.096" height="1.096" color-interpolation-filters="sRGB">
   <feGaussianBlur stdDeviation="1.1"/>
  </filter>
  <linearGradient id="linearGradient1502" x1="4.5" x2="59.5" y1="59.5" y2="4.5" gradientTransform="matrix(.26458 0 0 .26458 -4.6869 4.1955)" gradientUnits="userSpaceOnUse">
   <stop stop-color="#055096" offset="0"/>
   <stop stop-color="#0587eb" offset="1"/>
  </linearGradient>
 </defs>
 <metadata>
  <rdf:RDF>
   <cc:Work rdf:about="">
    <dc:format>image/svg+xml</dc:format>
    <dc:type rdf:resource="http://purl.org/dc/dcmitype/StillImage"/>
    <dc:title/>
   </cc:Work>
  </rdf:RDF>
 </metadata>
 <g transform="translate(4.6869 -4.1955)">
  <rect transform="matrix(.26458 0 0 .26458 -4.6869 4.1955)" x="4.5" y="4.5" width="55" height="55" rx="13.002" ry="13.002" filter="url(#filter2076-1)" opacity=".3"/>
  <path d="m-0.05618 5.3862c-1.9058 0-3.4401 1.5343-3.4401 3.4401v7.6719c0 1.9058 1.5343 3.4401 3.4401 3.4401h7.6719c1.9058 0 3.4401-1.5343 3.4401-3.4401v-7.6719c0-1.9058-1.5343-3.4401-3.4401-3.4401z" fill="url(#linearGradient1502)" stroke-linecap="round" stroke-linejoin="round" stroke-width=".533" style="paint-order:stroke fill markers"/>
  <rect x="-2.0409" y="13.985" width="11.641" height="4.2334" rx="1.3229" ry="1.3229" fill="#fff" opacity=".35"/>
  <g fill="#f9f9f9">
   <rect x="-1.2475" y="14.779" width="2.6459" height="2.6459" rx=".52917" ry=".52917"/>
   <rect x="2.4567" y="14.779" width="2.6459" height="2.6459" rx=".52917" ry=".52917"/>
   <rect x="6.1612" y="14.779" width="2.6459" height="2.6459" rx=".52917" ry=".52917"/>
  </g>
 </g>
</svg>
