<?xml version="1.0" encoding="UTF-8"?>
<svg width="64" height="64" version="1.1" viewBox="0 0 16.933 16.933" xmlns="http://www.w3.org/2000/svg" xmlns:cc="http://creativecommons.org/ns#" xmlns:dc="http://purl.org/dc/elements/1.1/" xmlns:rdf="http://www.w3.org/1999/02/22-rdf-syntax-ns#" xmlns:xlink="http://www.w3.org/1999/xlink">
 <defs>
  <filter id="filter1057" x="-.027" y="-.027" width="1.054" height="1.054" color-interpolation-filters="sRGB">
   <feGaussianBlur stdDeviation="0.61875"/>
  </filter>
  <linearGradient id="linearGradient1053" x1="-127" x2="-72" y1="60" y2="5" gradientTransform="matrix(.26458 0 0 .26458 29.775 6.2812)" gradientUnits="userSpaceOnUse">
   <stop stop-color="#87e1aa" offset="0"/>
   <stop stop-color="#c3fa46" offset="1"/>
  </linearGradient>
 </defs>
 <metadata>
  <rdf:RDF>
   <cc:Work rdf:about="">
    <dc:format>image/svg+xml</dc:format>
    <dc:type rdf:resource="http://purl.org/dc/dcmitype/StillImage"/>
    <dc:title/>
   </cc:Work>
  </rdf:RDF>
 </metadata>
 <g transform="translate(5.0176 -6.4161)">
  <rect transform="matrix(.26458 0 0 .26458 -5.0176 6.4161)" x="4.5" y="4.5" width="55" height="55" ry="15" fill="#141414" filter="url(#filter1057)" opacity=".3" stroke-linecap="round" stroke-width="2.7444"/>
  <rect x="-3.827" y="7.6068" width="14.552" height="14.552" ry="3.9687" fill="url(#linearGradient1053)" stroke-linecap="round" stroke-width=".72611"/>
  <path d="m0.32727 12.119 0.86911-0.0098c0.049621-6.57e-4 0.088962-0.04076 0.088402-0.09041 0 0-0.01917-0.73552-0.021451-0.94037l1.53e-4 -0.0043c-0.0019-0.16794 0.032371-0.31544 0.094002-0.43827l0.028241-0.05524c-0.0026-3.85e-4 -0.0074 0.0033-0.0094 0.0059l-1.67 1.673c-0.0028 4e-3 -0.0041 0.0071-0.0056 0.01077 0.034301-0.01863 0.081892-0.04202 0.088912-0.04497 0.14639-0.0678 0.32339-0.10535 0.53779-0.10776m6.7562-0.25594c-0.072729-0.36496-0.29333-0.54132-0.49371-0.61052-0.21521-0.074835-0.65082-0.14797-1.1961-0.20525-0.44055-0.047388-0.95618-0.037556-1.2683-0.02439-0.039794-0.2527-0.22261-0.48159-0.4245-0.56031-0.53844-0.2059-1.3658-0.14556-1.5781-0.084072-0.16739 0.04727-0.35464 0.14552-0.45612 0.29379-0.068941 0.0997-0.11293 0.22693-0.11096 0.40293 1e-3 0.09893 0.0065 0.33402 0.01169 0.54309 0.0052 0.21188 0.01011 0.39732 0.01011 0.39732 0.0021 0.18691-0.14899 0.34001-0.33867 0.34635l-0.86906 0.0097c-0.1855 0.0021-0.32702 0.03393-0.43348 0.08339-0.10821 0.05088-0.18423 0.11613-0.24108 0.19529-0.11514 0.15549-0.13238 0.34543-0.1302 0.539 0 0 0.0031 0.15523 0.044931 0.46279 0.035671 0.239 0.3141 1.8944 0.56718 2.3931 0.098292 0.19574 0.16256 0.27596 0.35185 0.36047 0.42123 0.17269 1.3833 0.3598 1.8321 0.41143 0.45017 0.05097 0.73203 0.16783 0.89608-0.17898 0.0012 1.74e-4 0.033551-0.08703 0.077522-0.21387 0.14084-0.4374 0.15585-0.82557 0.15271-1.1061-3.7e-4 -0.02766 0.042291-0.02938 0.042591-5.05e-4 0.0022 0.1982-0.028291 0.89835 0.50849 1.0807 0.21275 0.07179 0.65067 0.13264 1.0965 0.17887 0.4036 0.04051 0.69678 0.19425 0.7082 1.2161 7e-3 0.62163-0.12412 0.70552-0.813 0.7132-0.55966 0.0062-0.77244 0.02374-0.77739-0.41623-4e-3 -0.3562 0.35267-0.32006 0.61526-0.32302 0.11689-0.0016 0.030731-0.08691 0.028261-0.30554-0.0024-0.2172 0.13378-0.34544 0.0032-0.34645-0.90916-0.01433-1.445 0.01478-1.4324 1.1394 0.01145 1.0215 0.40956 1.2068 1.7007 1.1923 1.012-0.01137 1.3692-0.0498 1.7727-1.3358 0.079542-0.25399 0.27187-1.0289 0.37808-2.3284 0.066501-0.82027-0.10975-3.2935-0.23505-3.9195m-1.7329 2.7559c-0.12502-0.0041-0.246 7e-3 -0.35985 0.02619 0.031671-0.2535 0.13273-0.56405 0.50249-0.55446 0.4141 9e-3 0.47616 0.39493 0.4805 0.65607-0.17547-0.0751-0.38933-0.12201-0.62456-0.1279" fill="#fff" stroke-width=".38813"/>
 </g>
</svg>
