<?xml version="1.0" encoding="UTF-8"?>
<svg width="64" height="64" version="1.1" xmlns="http://www.w3.org/2000/svg" xmlns:cc="http://creativecommons.org/ns#" xmlns:dc="http://purl.org/dc/elements/1.1/" xmlns:rdf="http://www.w3.org/1999/02/22-rdf-syntax-ns#" xmlns:xlink="http://www.w3.org/1999/xlink">
 <metadata>
  <rdf:RDF>
   <cc:Work rdf:about="">
    <dc:format>image/svg+xml</dc:format>
    <dc:type rdf:resource="http://purl.org/dc/dcmitype/StillImage"/>
    <dc:title/>
   </cc:Work>
  </rdf:RDF>
 </metadata>
 <defs>
  <filter id="filter1057" x="-.027" y="-.027" width="1.054" height="1.054" color-interpolation-filters="sRGB">
   <feGaussianBlur stdDeviation="0.61875"/>
  </filter>
  <linearGradient id="linearGradient1053" x1="-127" x2="-72" y1="60" y2="5" gradientTransform="translate(131.5 -.51)" gradientUnits="userSpaceOnUse">
   <stop stop-color="#df2a2a" offset="0"/>
   <stop stop-color="#f83f3f" offset="1"/>
  </linearGradient>
 </defs>
 <rect x="4.5" y="4.5" width="55" height="55" ry="15" fill="#141414" filter="url(#filter1057)" opacity=".3" stroke-linecap="round" stroke-width="2.7444"/>
 <rect x="4.5" y="4.5" width="55" height="55" ry="15" fill="url(#linearGradient1053)" stroke-linecap="round" stroke-width="2.7444"/>
 <g fill="#5e4aa6">
  <circle cx="-1158.1" cy="-1246" r="0"/>
  <circle cx="-1157.3" cy="-1267.7" r="0"/>
  <circle cx="-57.756" cy="-2.1829" r="0" fill-rule="evenodd"/>
 </g>
 <path d="m24 16v4h4v-4zm12 0v4h4v-4zm-18 2v4h4v-4zm24 0v4h4v-4zm-30 2v4h4v-4zm18 0v4h4v-4zm18 0v4h4v-4zm-24 2v4h4v-4zm12 0v4h4v-4zm-18 2v4h4v-4zm24 0v4h4v-4zm-30 2v4h4v-4zm18 0v4h4v-4zm18 0v4h4v-4zm-24 2v4h4v-4zm12 0v4h4v-4zm-18 2v4h4v-4zm24 0v4h4v-4zm-30 2v4h4v-4zm18 0v4h4v-4zm18 0v4h4v-4zm-24 2v4h4v-4zm12 0v4h4v-4zm-18 2v4h4v-4zm24 0v4h4v-4zm-12 2v4h4v-4zm-6 2v4h4v-4zm12 0v4h4v-4zm-6 4v4h4v-4z" fill="#fff"/>
 <g fill="#5e4aa6">
  <g transform="translate(-72.958)">
   <circle cx="-1248.7" cy="-1241.6" r="0"/>
   <circle cx="-1140.3" cy="-1301.8" r="0"/>
   <circle cx="-1158.1" cy="-1246" r="0"/>
  </g>
  <circle cx="-1230.3" cy="-1267.7" r="0"/>
  <circle cx="-130.71" cy="-2.1829" r="0" fill-rule="evenodd"/>
 </g>
</svg>
