<?xml version="1.0" encoding="UTF-8"?>
<svg width="64" height="64" version="1.1" viewBox="0 0 16.933 16.933" xmlns="http://www.w3.org/2000/svg" xmlns:cc="http://creativecommons.org/ns#" xmlns:dc="http://purl.org/dc/elements/1.1/" xmlns:rdf="http://www.w3.org/1999/02/22-rdf-syntax-ns#" xmlns:xlink="http://www.w3.org/1999/xlink">
 <metadata>
  <rdf:RDF>
   <cc:Work rdf:about="">
    <dc:format>image/svg+xml</dc:format>
    <dc:type rdf:resource="http://purl.org/dc/dcmitype/StillImage"/>
    <dc:title/>
   </cc:Work>
  </rdf:RDF>
 </metadata>
 <defs>
  <style type="text/css"/>
  <style type="text/css"/>
  <filter id="filter1057" x="-.027" y="-.027" width="1.054" height="1.054" color-interpolation-filters="sRGB">
   <feGaussianBlur stdDeviation="0.61875"/>
  </filter>
  <linearGradient id="linearGradient1053" x1="-127" x2="-72" y1="60" y2="5" gradientTransform="matrix(.26458 0 0 .26458 34.792 -.13493)" gradientUnits="userSpaceOnUse">
   <stop stop-color="#dee0e2" offset="0"/>
   <stop stop-color="#f1f3f5" stop-opacity=".99608" offset="1"/>
  </linearGradient>
 </defs>
 <rect transform="scale(.26458)" x="4.5" y="4.5" width="55" height="55" ry="15" fill="#141414" filter="url(#filter1057)" opacity=".3" stroke-linecap="round" stroke-width="2.7444"/>
 <rect x="1.1906" y="1.1906" width="14.552" height="14.552" ry="3.9687" fill="url(#linearGradient1053)" stroke-linecap="round" stroke-width=".7261"/>
 <g transform="matrix(.90056 0 0 .90056 .81807 -251.38)">
  <g transform="matrix(.82209 0 0 .82209 -29.112 51.322)">
   <g transform="matrix(.13037 0 0 -.13037 27.897 327.71)">
    <path d="m118.5 333.49c-6.092-6.092-8.517-14.46-7.278-22.366-3.211 0.495-6.498 0.385-9.676-0.33h-1e-3c-0.266-0.06-0.529-0.122-0.79-0.19-4.335-1.119-8.437-3.375-11.831-6.769-10.123-10.123-10.123-26.535 0-36.658 5.702-5.702 13.401-8.193 20.847-7.469 5.242 0.509 10.36 2.61 14.567 6.305l2.408 2.407 14.04 14.041 14.372 14.371 0.04 0.041c6.255 6.254 16.397 6.254 22.654 0 4.967-4.969 5.99-12.389 3.066-18.365-0.532-1.088-1.196-2.131-1.99-3.101-0.335-0.409-0.693-0.806-1.076-1.188-6.257-6.257-16.399-6.257-22.654 0l-0.028-0.027c-0.904 0.988-2.176 1.63-3.621 1.63-2.735 0-4.951-2.216-4.951-4.951 0-1.444 0.642-2.716 1.631-3.622l-0.034-0.033c10.124-10.123 26.535-10.123 36.658 0 1.266 1.266 2.372 2.63 3.32 4.067 6.645 10.06 5.537 23.733-3.32 32.591-4.276 4.275-9.675 6.745-15.246 7.409-2.383 0.282-4.797 0.237-7.168-0.14 0.365 2.35 0.409 4.741 0.128 7.101-0.665 5.572-3.133 10.969-7.409 15.246-5.061 5.062-11.695 7.593-18.329 7.593s-13.268-2.531-18.329-7.593m7.782-30.383c-2e-3 2e-3 -3e-3 4e-3 -6e-3 6e-3 -0.264 0.228-0.521 0.469-0.773 0.722-0.242 0.242-0.474 0.489-0.693 0.741-5.555 6.291-5.323 15.898 0.693 21.913 6.255 6.257 16.397 6.257 22.654 0 6.241-6.244 6.254-16.359 0.038-22.615 0.031 0.03 0.061 0.06 0.092 0.09l-0.328-0.328c0.066 0.066 0.132 0.134 0.198 0.199-3.128-3.127-7.228-4.691-11.327-4.691-3.768-1e-3 -7.535 1.321-10.548 3.963m-30.358-28.928c-6.257 6.256-6.257 16.399 0 22.653 2.151 2.151 4.761 3.564 7.513 4.234 4.935 1.205 10.329 0.035 14.367-3.511 0.264-0.228 0.522-0.471 0.775-0.723 0.241-0.241 0.473-0.488 0.692-0.74 5.268-5.966 5.332-14.913 0.193-20.951-0.278-0.33-0.574-0.652-0.885-0.962-0.311-0.312-0.633-0.608-0.963-0.886-2.982-2.537-6.674-3.806-10.365-3.806-4.1 0-8.198 1.564-11.327 4.692" fill="#1793e6"/>
    <path d="m152.82 314.48 3e-3 -0.144c-0.381-6.141-4.408-10.197-4.408-10.197l-0.019-0.016-0.473-0.474c0.066 0.067 0.132 0.133 0.198 0.2-6.002-6.003-15.584-6.246-21.876-0.728-1e-3 1e-3 -2e-3 3e-3 -5e-3 5e-3 -0.264 0.229-0.521 0.47-0.773 0.723-0.242 0.241-0.474 0.488-0.693 0.74 0 0-3.742 3.877-3.978 9.891 0 2.734-2.217 4.95-4.951 4.95-2.733 0-4.95-2.216-4.95-4.95 0-0.184 0.085-0.339 0.104-0.517l-0.077-5e-3s0.183-2.204 0.285-2.826c-7e-3 0-0.013 4e-3 -0.02 5e-3 0.772-4.924 2.967-9.668 6.581-13.568 0.264-0.23 0.522-0.47 0.774-0.723 0.242-0.241 0.475-0.489 0.693-0.741 3.909-3.606 8.661-5.789 13.587-6.547 0.297-0.046 0.593-0.087 0.889-0.121 2.383-0.283 4.795-0.238 7.167 0.139 5.215 0.829 10.225 3.25 14.244 7.27l0.04 0.039c4.011 4.032 6.425 9.05 7.241 14.272 0.361 1.111 0.333 3.179 0.333 3.179h-0.029c1e-3 0.051 0.029 0.092 0.029 0.144 0 2.734-2.221 4.95-4.958 4.95-2.738 0-4.958-2.216-4.958-4.95" fill="#f44"/>
   </g>
  </g>
 </g>
 <g transform="matrix(1.1206 0 0 1 -.59517 -.010508)" fill-rule="evenodd" stroke-width=".26458">
  <rect x="5.7726" y="14.953" width="2.6458" height=".79373" rx="0" ry=".39687" fill="#f44" style="paint-order:stroke fill markers"/>
  <rect x="7.7547" y="14.953" width="2.6458" height=".79373" rx="0" ry=".39687" fill="#1793e6" style="paint-order:stroke fill markers"/>
 </g>
 <circle cx="-352.12" cy="-328.5" r="0" fill="#5e4aa6" stroke-width=".26458"/>
 <circle cx="-61.201" cy="6.3115" r="0" fill="#5e4aa6" fill-rule="evenodd" stroke-width=".26458"/>
</svg>
