<?xml version="1.0" encoding="UTF-8"?>
<svg width="64" height="64" version="1.1" viewBox="0 0 16.933 16.933" xmlns="http://www.w3.org/2000/svg" xmlns:cc="http://creativecommons.org/ns#" xmlns:dc="http://purl.org/dc/elements/1.1/" xmlns:rdf="http://www.w3.org/1999/02/22-rdf-syntax-ns#">
 <defs>
  <filter id="filter1057-9" x="-.027" y="-.027" width="1.054" height="1.054" color-interpolation-filters="sRGB">
   <feGaussianBlur stdDeviation="0.61875"/>
  </filter>
  <linearGradient id="linearGradient1053-1" x1="-127" x2="-72" y1="60" y2="5" gradientTransform="matrix(.26458 0 0 .26458 34.791 -.13493)" gradientUnits="userSpaceOnUse">
   <stop stop-color="#1d2123" offset="0"/>
   <stop stop-color="#33393e" stop-opacity=".99608" offset="1"/>
  </linearGradient>
 </defs>
 <metadata>
  <rdf:RDF>
   <cc:Work rdf:about="">
    <dc:format>image/svg+xml</dc:format>
    <dc:type rdf:resource="http://purl.org/dc/dcmitype/StillImage"/>
    <dc:title/>
   </cc:Work>
  </rdf:RDF>
 </metadata>
 <rect transform="matrix(.26458 0 0 .26458 -26.677 -.16788)" x="105.32" y="5.1345" width="55" height="55" ry="15" fill="#141414" filter="url(#filter1057-9)" opacity=".3" stroke-linecap="round" stroke-width="2.7444"/>
 <rect x="1.1906" y="1.1906" width="14.552" height="14.552" ry="3.9688" fill="url(#linearGradient1053-1)" stroke-linecap="round" stroke-width=".72612"/>
 <path d="m7.7872 4.1044c-0.46203 0.0699-0.69589 0.68989-0.72043 1.5809-0.14895-0.22165-0.33081-0.38095-0.54768-0.35251-0.38915 0.07171-0.55537 0.63544-0.5304 1.354-0.66827 0.04332-1.3116 0.16458-1.8877 0.3894 0.58189-0.10588 1.2339-0.13375 1.904-0.10412 0.050545 0.49921 0.18497 1.0467 0.402 1.5548-0.49692 0.6609-1.1779 1.8928-0.73724 2.5334 0.30097 0.38471 1.0036 0.25556 1.8387-0.21057-0.16302 0.28512-0.25204 0.57959-0.091513 0.783 0.25457 0.2909 0.80223 0.15935 1.389-0.20777 0.36155 0.54226 0.77528 1.0269 1.2429 1.4068-0.36948-0.44214-0.70827-0.97891-1.0085-1.559 0.41833-0.30283 0.83918-0.7156 1.1766-1.1803 0.81689 0.09148 2.2524 0.05078 2.5787-0.66441 0.16782-0.4357-0.25423-0.94567-1.015-1.4077 0.28919-0.0084 0.54164-0.08347 0.63266-0.29928 0.13489-0.36953-0.25946-0.79514-0.88292-1.1369 0.29647-0.58506 0.51622-1.188 0.61725-1.7864-0.20453 0.54282-0.50696 1.106-0.86657 1.6561-0.48475-0.22547-1.0684-0.39687-1.6542-0.46083-0.33082-0.75882-1.0672-1.9574-1.8396-1.8886zm4.3604 0.69335c3.71e-4 -1e-3 1e-3 -0.0018 0.0014-0.0028h-9.26e-4c-1.69e-4 1e-3 -2.64e-4 0.0018-4.76e-4 0.0028zm-3.8524 0.30162c0.31898 0.0035 0.64214 0.47904 0.97723 0.86657-0.58451-0.01849-1.1449 0.08551-1.5819 0.35998 0.023051-0.63817 0.18247-1.0924 0.50892-1.2125 0.031881-0.0098 0.06378-0.01436 0.095715-0.01401zm-1.5081 0.78066c0.094514 0.0099 0.18866 0.08976 0.28201 0.19376 0.00693 0.19435 0.022315 0.3985 0.046223 0.60978-0.22062-0.01276-0.44014-0.01584-0.6588-0.01354 0.013332-0.40297 0.093536-0.70377 0.23485-0.77459 0.031971-0.01406 0.06387-0.01874 0.095715-0.01541zm2.3509 0.41788c0.19388 0.0098 0.38793 0.0396 0.57989 0.07751 0.023103 0.01318 0.045844 0.02688 0.069102 0.03688-0.00177-0.0065-0.00645-0.01707-0.00841-0.02381 0.45863 0.09708 0.89143 0.25911 1.2443 0.44356-0.12027 0.16944-0.24918 0.33334-0.37819 0.49772-0.17806-0.27799-0.44914-0.53448-0.83856-0.75312v9.26e-4c0.32254 0.2643 0.5391 0.54265 0.67187 0.82642-0.76233-0.28591-1.644-0.51475-2.5526-0.63359 0 0-0.039874 0.42638-0.02568 0.402 1.0429 0.20647 2.0318 0.53711 2.7426 0.9156 0.04187 1.1239-0.96483 2.218-1.8065 2.7706-0.084716-0.18041-0.15999-0.36532-0.23672-0.55048 0.31807-0.0175 0.66216-0.11778 1.0328-0.33104-0.39597 0.14305-0.74889 0.18475-1.0627 0.15128 0.64448-0.51151 1.3021-1.1595 1.8774-1.8891 0 0-0.34476-0.25238-0.33057-0.22692-0.72232 0.80007-1.5249 1.4866-2.2206 1.9012-0.59464-0.33273-0.97994-0.99022-1.2027-1.6809-6.085e-4 -0.01654 3.44e-4 -0.03401-0.0014-0.04996-0.00317 0.0032-0.00749 0.0093-0.010739 0.01261-0.12899-0.41145-0.19973-0.82667-0.21991-1.1948 0.19354 0.01596 0.38634 0.04246 0.57989 0.06723-0.12404 0.27016-0.19853 0.59344-0.20217 0.98563 0.068009-0.3653 0.18736-0.65936 0.34271-0.89879 0.13027 0.7964 0.36646 1.6652 0.70829 2.5035 0 0 0.38976-0.17742 0.36138-0.17742v-0.0014c-0.33767-1.0121-0.53971-2.0385-0.56169-2.8448 0.41396-0.27407 0.92629-0.36299 1.4488-0.33664zm2.1692 0.69802c0.33315 0.21371 0.54552 0.43258 0.5346 0.58877-0.01779 0.15065-0.19162 0.20811-0.3992 0.24466-0.15812-0.08282-0.32789-0.16202-0.50566-0.23952 0.13172-0.19424 0.25426-0.39296 0.37026-0.5939zm-0.39267 1.2485c0.54355 0.33596 0.85956 0.70007 0.80261 1.0445-0.08271 0.36504-0.74846 0.40293-1.3083 0.51873 0.31113-0.50081 0.51227-1.0433 0.50566-1.5632zm-4.3562 0.60324c0.26645 0.51411 0.62111 0.95791 1.0603 1.2186-0.55231 0.2809-1.0139 0.35991-1.2746 0.13914-0.26595-0.25269 0.025151-0.82614 0.21431-1.3578zm1.6552 1.5501c0.10635 0.21518 0.22165 0.42411 0.34224 0.62845-0.33471 0.17855-0.61645 0.25384-0.74471 0.17182-0.13568-0.0966-0.081459-0.30543 0-0.52854 0.13224-0.08347 0.26635-0.1738 0.40247-0.27174z" fill="#fff" style="paint-order:stroke fill markers"/>
</svg>
