<?xml version="1.0" encoding="UTF-8"?>
<svg width="64" height="64" version="1.1" viewBox="0 0 16.933 16.933" xmlns="http://www.w3.org/2000/svg" xmlns:cc="http://creativecommons.org/ns#" xmlns:dc="http://purl.org/dc/elements/1.1/" xmlns:rdf="http://www.w3.org/1999/02/22-rdf-syntax-ns#">
 <metadata>
  <rdf:RDF>
   <cc:Work rdf:about="">
    <dc:format>image/svg+xml</dc:format>
    <dc:type rdf:resource="http://purl.org/dc/dcmitype/StillImage"/>
    <dc:title/>
   </cc:Work>
  </rdf:RDF>
 </metadata>
 <defs>
  <filter id="a" color-interpolation-filters="sRGB">
   <feColorMatrix result="result7" values="1 0 0 0 0 0 1 0 0 0 0 0 1 0 0 0 0 0 1 0"/>
   <feGaussianBlur result="result6" stdDeviation="5"/>
   <feComposite in="result6" in2="result7" operator="atop" result="result91"/>
   <feComposite in2="result91" operator="in"/>
  </filter>
  <style type="text/css"/>
  <style type="text/css"/>
  <style type="text/css"/>
  <style type="text/css"/>
  <style type="text/css"/>
  <filter id="filter1057" x="-.027" y="-.027" width="1.054" height="1.054" color-interpolation-filters="sRGB">
   <feGaussianBlur stdDeviation="0.61875"/>
  </filter>
  <linearGradient id="linearGradient1053" x1="-127" x2="-72" y1="60" y2="5" gradientTransform="matrix(.26458 0 0 .26458 34.792 -.13493)" gradientUnits="userSpaceOnUse">
   <stop stop-color="#32d7ff" offset="0"/>
   <stop stop-color="#329bff" offset="1"/>
  </linearGradient>
  <style type="text/css"/>
  <style type="text/css"/>
  <style type="text/css"/>
  <style type="text/css"/>
  <style type="text/css"/>
  <style type="text/css"/>
  <style type="text/css"/>
 </defs>
 <rect transform="scale(.26458)" x="4.5" y="4.5" width="55" height="55" ry="15" fill="#141414" filter="url(#filter1057)" opacity=".3" stroke-linecap="round" stroke-width="2.7444"/>
 <rect x="1.1906" y="1.1906" width="14.552" height="14.552" ry="3.9687" fill="url(#linearGradient1053)" stroke-linecap="round" stroke-width=".72611"/>
 <circle cx="-297.6" cy="-338.47" r="0" fill="#5e4aa6" stroke-width=".26458"/>
 <g transform="translate(32.763 -10.103)" fill="#5e4aa6" stroke-width=".26458">
  <circle cx="-299.02" cy="-338.77" r="0"/>
  <circle cx="-8.1062" cy="-3.9487" r="0" fill-rule="evenodd"/>
  <circle cx="-278.25" cy="-357.69" r="0"/>
  <circle cx="12.663" cy="-22.859" r="0" fill-rule="evenodd"/>
 </g>
 <g transform="translate(26.79 .48651)">
  <g transform="translate(-26.834 -280.07)" fill="#fff">
   <circle cx="11.906" cy="287.58" r="1.389" opacity=".25" style="paint-order:stroke markers fill"/>
   <circle cx="11.906" cy="287.58" r="1.389" opacity=".25" style="paint-order:stroke markers fill"/>
   <circle cx="8.819" cy="287.74" r="3.087" style="paint-order:stroke markers fill"/>
   <circle cx="8.731" cy="288.27" r="2.646" style="paint-order:stroke markers fill"/>
   <circle cx="5.424" cy="288.97" r="2.469" style="paint-order:stroke markers fill"/>
   <circle cx="5.821" cy="289.33" r="2.117" style="paint-order:stroke markers fill"/>
   <circle cx="12.215" cy="289.59" r="1.852" style="paint-order:stroke markers fill"/>
   <circle cx="11.642" cy="289.86" r="1.587" style="paint-order:stroke markers fill"/>
   <path d="m5.424 288.05h6.791v3.395h-6.791z" style="paint-order:stroke markers fill"/>
   <path d="m5.821 288.53h5.821v2.91h-5.821z" style="paint-order:stroke markers fill"/>
  </g>
  <path d="m-18.36 6.404a1.426 1.426 0 1 0 0 2.852 1.426 1.426 0 0 0 0-2.852zm6e-3 0.626a0.805 0.805 0 0 1 0.805 0.805 0.805 0.805 0 0 1-0.805 0.805 0.805 0.805 0 0 1-0.805-0.805 0.805 0.805 0 0 1 0.805-0.805z" fill="#32abff"/>
  <path d="m-16.746 7.934c-0.374 0-0.708 0.148-0.962 0.382l0.408 0.472a0.851 0.851 0 0 1 0.108-0.09 0.716 0.716 0 0 1 0.356-0.127c0.044-4e-3 0.09-2e-3 0.14 0a0.751 0.751 0 0 1 0.663 0.433 0.829 0.829 0 0 1 0.085 0.402v2e-3a0.313 0.313 0 0 0 0.625 0v-0.051c0-0.024-2e-3 -0.049-4e-3 -0.073l-1e-3 -0.01-1e-3 -0.025h-1e-3a1.421 1.421 0 0 0-1.417-1.315m-3.254-4e-3a1.426 1.426 0 1 0 0 2.852 1.426 1.426 0 0 0 0-2.852zm6e-3 0.626a0.805 0.805 0 0 1 0.804 0.805 0.805 0.805 0 0 1-0.804 0.805 0.805 0.805 0 0 1-0.805-0.805 0.805 0.805 0 0 1 0.805-0.805z" fill="#32abff"/>
  <path transform="matrix(.20374 0 0 .20374 -21.428 6.4)" d="m6.973 7.471c-0.365 0-0.744 0.04-1.094 0.094a2.842 2.842 0 0 1 1.719 2.594c0 0.16-0.036 0.316-0.063 0.469a3.839 3.839 0 0 1 2.938 2.063c0.791 1.577 0.522 3.357-0.719 4.594 0.962-0.959 2.934-2.702 4.156-3.844-0.512-3.375-3.409-5.969-6.938-5.969z" fill="#f44" filter="url(#a)"/>
  <path d="m-19.382 10.46-0.652 0.026 2.295-2.13 0.41 0.46-1.78 1.653z" fill="#32abff"/>
  <circle cx="-15.622" cy="10.24" r=".306" fill="#32abff"/>
 </g>
 <g fill="#5e4aa6">
  <g transform="matrix(.26458 0 0 .26458 27.05 -8.1795)">
   <circle cx="-1401.7" cy="-1262.9" r="0"/>
   <circle cx="-302.14" cy="2.5994" r="0" fill-rule="evenodd"/>
   <circle cx="-1124.8" cy="-1279.3" r="0"/>
  </g>
  <g transform="translate(59.812 -18.282)" stroke-width=".26458">
   <circle cx="-299.02" cy="-338.77" r="0"/>
   <circle cx="-8.1062" cy="-3.9487" r="0" fill-rule="evenodd"/>
   <circle cx="-278.25" cy="-357.69" r="0"/>
   <circle cx="12.663" cy="-22.859" r="0" fill-rule="evenodd"/>
  </g>
  <circle cx="-317.69" cy="-338.47" r="0" stroke-width=".26458"/>
  <g stroke-width=".26458">
   <circle cx="-286.35" cy="-348.87" r="0"/>
   <circle cx="4.5686" cy="-14.051" r="0" fill-rule="evenodd"/>
   <circle cx="-265.58" cy="-367.79" r="0"/>
   <circle cx="25.338" cy="-32.962" r="0" fill-rule="evenodd"/>
  </g>
 </g>
</svg>
