<?xml version="1.0" encoding="UTF-8"?>
<svg width="64" height="64" version="1.1" viewBox="0 0 64 64" xmlns="http://www.w3.org/2000/svg" xmlns:cc="http://creativecommons.org/ns#" xmlns:dc="http://purl.org/dc/elements/1.1/" xmlns:rdf="http://www.w3.org/1999/02/22-rdf-syntax-ns#" xmlns:xlink="http://www.w3.org/1999/xlink">
 <metadata>
  <rdf:RDF>
   <cc:Work rdf:about="">
    <dc:format>image/svg+xml</dc:format>
    <dc:type rdf:resource="http://purl.org/dc/dcmitype/StillImage"/>
    <dc:title/>
   </cc:Work>
  </rdf:RDF>
 </metadata>
 <defs>
  <style type="text/css"/>
  <style type="text/css"/>
  <style type="text/css"/>
  <filter id="filter1057" x="-.027" y="-.027" width="1.054" height="1.054" color-interpolation-filters="sRGB">
   <feGaussianBlur stdDeviation="0.61875"/>
  </filter>
  <linearGradient id="linearGradient1053" x1="-127" x2="-72" y1="60" y2="5" gradientTransform="translate(131.5 -.51)" gradientUnits="userSpaceOnUse">
   <stop stop-color="#a0b9cd" offset="0"/>
   <stop stop-color="#96b4c8" offset=".48567"/>
   <stop stop-color="#a0b9cd" offset="1"/>
  </linearGradient>
 </defs>
 <rect x="4.5" y="4.5" width="55" height="55" ry="15" fill="#141414" filter="url(#filter1057)" opacity=".3" stroke-linecap="round" stroke-width="2.7444"/>
 <rect x="4.5" y="4.5" width="55" height="55" ry="15" fill="url(#linearGradient1053)" stroke-linecap="round" stroke-width="2.7444"/>
 <g fill="#5e4aa6">
  <g transform="translate(-80.134,-57.985)" image-rendering="optimizeSpeed">
   <circle cx="-1248.7" cy="-1241.6" r="0"/>
   <circle cx="-149.15" cy="23.855" r="0" fill-rule="evenodd"/>
   <circle cx="-1248.7" cy="-1241.6" r="0"/>
   <circle cx="-149.15" cy="23.855" r="0" fill-rule="evenodd"/>
  </g>
  <circle cx="-1248.7" cy="-1241.6" r="0"/>
  <circle cx="-149.15" cy="23.855" r="0" fill-rule="evenodd"/>
  <g transform="matrix(3.7796,0,0,3.7796,5.8415e-4,-1.7177e-4)" stroke-width=".26458">
   <g transform="translate(-.0272 .0065001)">
    <circle cx="-330.35" cy="-328.38" r="0"/>
    <circle cx="-312.11" cy="-326.25" r="0"/>
    <circle cx="-306.02" cy="-333.07" r="0"/>
    <circle cx="-308.84" cy="-326.01" r="0"/>
    <circle cx="-330.35" cy="-328.38" r="0"/>
    <circle cx="-312.11" cy="-326.25" r="0"/>
    <circle cx="-306.02" cy="-333.07" r="0"/>
    <circle cx="-308.84" cy="-326.01" r="0"/>
   </g>
   <g transform="translate(-.02705 .0064503)">
    <circle cx="-330.35" cy="-328.38" r="0"/>
    <circle cx="-312.11" cy="-326.25" r="0"/>
    <circle cx="-306.02" cy="-333.07" r="0"/>
    <circle cx="-308.84" cy="-326.01" r="0"/>
   </g>
  </g>
  <g transform="translate(-79.199 -30.995)">
   <circle cx="-1248.7" cy="-1241.6" r="0"/>
   <circle cx="-1140.3" cy="-1301.8" r="0"/>
   <circle cx="-1158.1" cy="-1246" r="0"/>
  </g>
  <circle cx="-1236.5" cy="-1298.7" r="0"/>
  <circle cx="-136.95" cy="-33.178" r="0" fill-rule="evenodd"/>
 </g>
 <path d="m17.957 15.404v33.193h18.511c5.3045-1.02e-4 9.5749-4.2704 9.5749-9.5749 0-3.048-1.4145-5.7491-3.6205-7.5003 2.1956-1.6252 3.6205-4.2278 3.6205-7.1812 0-4.9508-3.9857-8.9366-8.9366-8.9366zm6.3833 6.3832h15.32l-1.2766 5.1066h-7.6599v3.83h6.3833l-1.2766 5.1066h-5.1066v6.3833h-6.3832z" fill="#fff" stroke-width="1.2766" style="paint-order:normal"/>
</svg>
