<?xml version="1.0" encoding="UTF-8"?>
<svg width="64" height="64" version="1.1" xmlns="http://www.w3.org/2000/svg" xmlns:cc="http://creativecommons.org/ns#" xmlns:dc="http://purl.org/dc/elements/1.1/" xmlns:rdf="http://www.w3.org/1999/02/22-rdf-syntax-ns#" xmlns:xlink="http://www.w3.org/1999/xlink">
 <metadata>
  <rdf:RDF>
   <cc:Work rdf:about="">
    <dc:format>image/svg+xml</dc:format>
    <dc:type rdf:resource="http://purl.org/dc/dcmitype/StillImage"/>
    <dc:title/>
   </cc:Work>
  </rdf:RDF>
 </metadata>
 <defs>
  <filter id="filter1057" x="-.027" y="-.027" width="1.054" height="1.054" color-interpolation-filters="sRGB">
   <feGaussianBlur stdDeviation="0.61875"/>
  </filter>
  <linearGradient id="linearGradient1053" x1="-127" x2="-72" y1="60" y2="5" gradientTransform="translate(131.5 -.51)" gradientUnits="userSpaceOnUse">
   <stop stop-color="#df2a2a" offset="0"/>
   <stop stop-color="#f83f3f" offset="1"/>
  </linearGradient>
 </defs>
 <g fill="#5e4aa6">
  <circle cx="-1248.7" cy="-1241.6" r="0"/>
  <circle cx="-1140.3" cy="-1301.8" r="0"/>
  <circle cx="-1158.1" cy="-1246" r="0"/>
  <circle cx="-1157.3" cy="-1267.7" r="0"/>
  <circle cx="-57.756" cy="-2.1829" r="0" fill-rule="evenodd"/>
 </g>
 <g>
  <rect x="4.5" y="4.5" width="55" height="55" ry="15" fill="#141414" filter="url(#filter1057)" opacity=".3" stroke-linecap="round" stroke-width="2.7444"/>
  <rect x="4.5" y="4.5" width="55" height="55" ry="15" fill="url(#linearGradient1053)" stroke-linecap="round" stroke-width="2.7444"/>
  <g transform="matrix(1.2767 0 0 1.2767 1.4 1.3585)" fill="#fffffe">
   <g fill="#fffffe">
    <!-- color: #eeeeee -->
    <g fill="#fffffe">
     <path d="m23.656 9-6.656 16.563 21.375 2.688c0.016-0.051 0.016-0.105 0.031-0.156l-16.406-7.594 1.719-11.5h-0.063m5.063 1.125c-0.109 0.02-0.211 0.137-0.25 0.125l-4.563 8.938 13.512 7.242c0.352-0.016 0.34-0.227 0.207-0.43l-9.219-8.406 0.563-7.03c-0.027-0.367-0.141-0.457-0.25-0.438m-10.813 0.188c-5.246 2.336-8.906 7.574-8.906 13.688 0 8.285 6.715 15 15 15 6.152 0 11.438-3.699 13.75-9h-23.438m17.188-18.16-1.656 5.094 7.449 7.227c0.215 0.313 1.395 0.5 1.645-0.414 0-4.898-2.277-8.984-5.906-11.719-0.848-0.438-1.395-0.543-1.531-0.188" fill="#fffffe"/>
    </g>
   </g>
  </g>
 </g>
</svg>
