<?xml version="1.0" encoding="UTF-8"?>
<svg width="64" height="64" version="1.1" xmlns="http://www.w3.org/2000/svg" xmlns:cc="http://creativecommons.org/ns#" xmlns:dc="http://purl.org/dc/elements/1.1/" xmlns:rdf="http://www.w3.org/1999/02/22-rdf-syntax-ns#" xmlns:xlink="http://www.w3.org/1999/xlink">
 <metadata>
  <rdf:RDF>
   <cc:Work rdf:about="">
    <dc:format>image/svg+xml</dc:format>
    <dc:type rdf:resource="http://purl.org/dc/dcmitype/StillImage"/>
    <dc:title/>
   </cc:Work>
  </rdf:RDF>
 </metadata>
 <defs>
  <filter id="filter1057" x="-.027" y="-.027" width="1.054" height="1.054" color-interpolation-filters="sRGB">
   <feGaussianBlur stdDeviation="0.61875"/>
  </filter>
  <linearGradient id="linearGradient1053" x1="-127" x2="-72" y1="60" y2="5" gradientTransform="translate(131.5 -.51)" gradientUnits="userSpaceOnUse">
   <stop stop-color="#a53cff" offset="0"/>
   <stop stop-color="#b496ff" offset="1"/>
  </linearGradient>
 </defs>
 <g fill="#5e4aa6">
  <circle cx="-1248.7" cy="-1241.6" r="0"/>
  <circle cx="-1140.3" cy="-1301.8" r="0"/>
  <circle cx="-1158.1" cy="-1246" r="0"/>
  <circle cx="-1157.3" cy="-1267.7" r="0"/>
  <circle cx="-57.756" cy="-2.1829" r="0" fill-rule="evenodd"/>
 </g>
 <rect x="4.5" y="4.5" width="55" height="55" ry="15" fill="#141414" filter="url(#filter1057)" opacity=".3" stroke-linecap="round" stroke-width="2.7444"/>
 <rect x="4.5" y="4.5" width="55" height="55" ry="15" fill="url(#linearGradient1053)" stroke-linecap="round" stroke-width="2.7444"/>
 <path d="m23.253 16.846c-8.3733 4.8343-11.242 15.541-6.4079 23.915 3.2723 5.6551 9.4214 9.0174 15.948 8.7205-3.691-0.06646-7.0989-1.9173-9.494-6.0524-2.0341-3.5072-2.5815-7.5754-1.5464-11.46 1.0429-3.903 3.5604-7.1768 7.099-9.2198l1.3143 2.2764c-2.9283 1.6906-5.0135 4.3992-5.8738 7.6207-0.85595 3.2053-0.39922 6.5623 1.2789 9.4612 3.0797 5.3133 8.564 7.4134 13.931 5.4088-0.99606 0.2732-2.0459 0.35517-3.1276 0.1393-6.6214-0.52497-11.446-5.5246-11.471-11.888-0.01142-3.029 1.2003-5.9187 3.4122-8.1375 2.2519-2.2603 5.2269-3.5068 8.3719-3.5076l0.0016 2.6328c-2.4408 1e-3 -4.7526 0.96924-6.5093 2.7332-1.7151 1.7171-2.6506 3.9444-2.6442 6.2677 0.01779 4.964 3.8236 8.8651 9.0493 9.277 6.4396 0.50467 9.1796-2.2783 10.201-3.7705-1.4509 1.2068-2.6979 1.9898-6.9533 2.7363-3.6475 0.64288-6.2175-0.63094-6.9284-1.0388-0.0047-5.96e-4 -0.07452-0.04381-0.10408-0.06347-0.01994-0.0094-0.04677-0.02472-0.04677-0.02472l0.0037-0.0019c-0.01517-0.0094-0.05448-0.03182-0.05639-0.03501l0.0021-0.0094c-1.1863-0.73234-2.1343-1.7164-2.7915-2.8547-1.4174-2.4551-1.5245-5.5795-0.0092-8.2053 1.096-1.8947 2.8624-3.254 4.9765-3.8208 2.1161-0.56339 4.3231-0.27376 6.2178 0.82229l0.07682 0.04774-1.3911 2.2294c-1.288-0.74219-2.7886-0.94058-4.2219-0.55657-1.4367 0.386-2.6369 1.3076-3.3812 2.592-1.0263 1.7858-0.95443 3.906 0.0079 5.5725 0.47115 0.81607 1.1573 1.5228 2.0303 2.0292 0.0014 0.0019-0.35455-0.2115 0.01573 0.0094 0.36981 0.22084 2.2702 1.2255 5.1419 0.71965 4.7325-0.83157 7.4019-2.5731 9.2325-3.909 1.5731-4.7368 1.0495-9.9199-1.4391-14.246-4.8343-8.3733-15.541-11.242-23.915-6.4079zm24.441 22.904c-0.12329 0.24841-0.28539 0.53555-0.43694 0.81322 0.15277-0.26719 0.29846-0.53836 0.43694-0.81322z" fill="#fff" fill-opacity=".9962" stroke-width="1.6256"/>
</svg>
