<?xml version="1.0" encoding="UTF-8"?>
<svg width="64" height="64" version="1.1" viewBox="0 0 16.933 16.933" xmlns="http://www.w3.org/2000/svg" xmlns:cc="http://creativecommons.org/ns#" xmlns:dc="http://purl.org/dc/elements/1.1/" xmlns:rdf="http://www.w3.org/1999/02/22-rdf-syntax-ns#" xmlns:xlink="http://www.w3.org/1999/xlink">
 <defs>
  <filter id="filter1057" x="-.027" y="-.027" width="1.054" height="1.054" color-interpolation-filters="sRGB">
   <feGaussianBlur stdDeviation="0.61875"/>
  </filter>
  <linearGradient id="linearGradient1053" x1="-127" x2="-80.659" y1="60" y2="13.659" gradientTransform="matrix(.26458 0 0 .26458 26.232 6.045)" gradientUnits="userSpaceOnUse">
   <stop stop-color="#ff7d1e" offset="0"/>
   <stop stop-color="#ffa53c" offset="1"/>
  </linearGradient>
 </defs>
 <metadata>
  <rdf:RDF>
   <cc:Work rdf:about="">
    <dc:format>image/svg+xml</dc:format>
    <dc:type rdf:resource="http://purl.org/dc/dcmitype/StillImage"/>
    <dc:title/>
   </cc:Work>
  </rdf:RDF>
 </metadata>
 <g transform="translate(8.5612 -6.1799)">
  <rect transform="matrix(.26458 0 0 .26458 -8.5612 6.1799)" x="4.5" y="4.5" width="55" height="55" ry="15" fill="#141414" filter="url(#filter1057)" opacity=".3" stroke-linecap="round" stroke-width="2.7444"/>
  <rect x="-7.3705" y="7.3705" width="14.552" height="14.552" ry="3.9687" fill="url(#linearGradient1053)" stroke-linecap="round" stroke-width=".72611"/>
  <g fill="#fff">
   <path d="m-0.53013 9.3549v5.291e-4a0.72831 0.72831 0 0 0-0.51676 0.21446 0.72903 0.72903 0 0 0 0 1.0335l2.0299 2.0298h-5.2917a0.72903 0.72903 0 0 0-0.7307 0.73019 0.72903 0.72903 0 0 0 0.7307 0.7307c0.76103-0.0021 1.8398-0.0026 2.8732-0.0026l-3.744 3.7434a0.72903 0.72903 0 0 0 0 1.033 0.72903 0.72903 0 0 0 1.033 0c0.54979-0.55192 1.3368-1.3394 2.0836-2.0862a3.6529 3.6529 0 0 0 3.6148 3.1564c2.0171 0 3.653-1.6359 3.653-3.653a3.6529 3.6529 0 0 0-1.2521-2.7497 1824.3 1824.3 0 0 1-3.9662-3.9656 0.72831 0.72831 0 0 0-0.51676-0.21497zm2.1218 6.0611a0.85278 0.85278 0 0 1 0.00259 0 0.85292 0.85292 0 0 1 0 1.7058 0.85292 0.85292 0 0 1-0.00259-1.7058z" opacity=".3" stroke-linecap="round" stroke-width="1.2298"/>
   <path d="m1.5917 13.46a2.8066 2.8066 0 0 0-2.8065 2.8065 2.8066 2.8066 0 0 0 2.8065 2.8065 2.8066 2.8066 0 0 0 2.806-2.8065 2.8066 2.8066 0 0 0-2.806-2.8065zm-0.00259 1.7089a1.0974 1.0974 0 0 1 0.00259 0 1.0974 1.0974 0 0 1 1.0976 1.0976 1.0974 1.0974 0 0 1-1.0976 1.0976 1.0974 1.0974 0 0 1-1.0981-1.0976 1.0974 1.0974 0 0 1 1.0955-1.0976z" opacity=".7" stroke-linecap="round" stroke-width="1.2298"/>
   <path d="m1.5917 14.078a2.1921 2.1921 0 0 0-2.1921 2.1913 2.1921 2.1921 0 0 0 2.1921 2.1921 2.1921 2.1921 0 0 0 2.1913-2.1921 2.1921 2.1921 0 0 0-2.1913-2.1913zm0 1.3343a0.85705 0.85705 0 0 1 0.85705 0.85705 0.85705 0.85705 0 0 1-0.85705 0.85705 0.85705 0.85705 0 0 1-0.85776-0.85705 0.85705 0.85705 0 0 1 0.85776-0.85705z" stroke-width=".71124"/>
  </g>
  <circle cx="1.5917" cy="16.269" r="1.1216" color="#000000" display="block" fill="#14a0ff" overflow="visible" stroke-width=".71124" style="isolation:auto;mix-blend-mode:normal" paint-order="fill markers stroke"/>
 </g>
</svg>
