<?xml version="1.0" encoding="UTF-8"?>
<svg width="64" height="64" version="1.1" viewBox="0 0 16.933 16.933" xmlns="http://www.w3.org/2000/svg" xmlns:cc="http://creativecommons.org/ns#" xmlns:dc="http://purl.org/dc/elements/1.1/" xmlns:rdf="http://www.w3.org/1999/02/22-rdf-syntax-ns#" xmlns:xlink="http://www.w3.org/1999/xlink">
 <defs>
  <filter id="filter1057-2" x="-.027" y="-.027" width="1.054" height="1.054" color-interpolation-filters="sRGB">
   <feGaussianBlur stdDeviation="0.61875"/>
  </filter>
  <linearGradient id="linearGradient1053-0" x1="-127" x2="-72" y1="60" y2="5" gradientTransform="matrix(.26458 0 0 .26458 28.972 1.651)" gradientUnits="userSpaceOnUse">
   <stop stop-color="#dee0e2" offset="0"/>
   <stop stop-color="#f1f3f5" stop-opacity=".99608" offset="1"/>
  </linearGradient>
 </defs>
 <metadata>
  <rdf:RDF>
   <cc:Work rdf:about="">
    <dc:format>image/svg+xml</dc:format>
    <dc:type rdf:resource="http://purl.org/dc/dcmitype/StillImage"/>
    <dc:title/>
   </cc:Work>
  </rdf:RDF>
 </metadata>
 <g transform="translate(5.8208 -1.7859)">
  <g>
   <rect transform="matrix(.26458 0 0 .26458 -5.8208 1.7859)" x="4.5" y="4.5" width="55" height="55" ry="15" fill="#141414" filter="url(#filter1057-2)" opacity=".3" stroke-linecap="round" stroke-width="2.7444"/>
   <rect x="-4.6302" y="2.9766" width="14.552" height="14.552" ry="3.9687" fill="url(#linearGradient1053-0)" stroke-linecap="round" stroke-width=".72611"/>
   <g>
    <path d="m2.6458 10.253v7.276h2.2417c0.66728 0 1.2386-0.01892 1.7436-0.06149 1.6012-0.27398 2.8694-1.4969 3.2034-3.0763 5.66e-5 -5.29e-4 -5.66e-5 -1e-3 0-0.0016 0.064981-0.62206 0.087333-1.3643 0.087333-2.2484v-1.8883z" fill="#14d29b"/>
    <path d="m2.6458 2.9766v7.276h7.276v-1.8883c0-0.88363-0.02191-1.625-0.086816-2.2469-6.93e-5 -3.175e-4 6.94e-5 -7.144e-4 0-0.00103-0.33335-1.5804-1.602-2.8043-3.2039-3.0784-0.50493-0.04258-1.0763-0.061495-1.7436-0.061495z" fill="#fa4141"/>
    <path d="m-4.6302 10.253v1.8883c0 0.88414 0.022349 1.6264 0.087333 2.2484 1.041e-4 5.02e-4 -1.042e-4 0.0011 0 0.0016 0.33403 1.5793 1.6022 2.8023 3.2034 3.0763 0.50498 0.04258 1.0762 0.06149 1.7436 0.06149h2.2417v-7.276z" fill="#3296ff"/>
    <path d="m0.40411 2.9766c-0.66738 0-1.2386 0.018904-1.7436 0.061495-1.6012 0.27398-2.8694 1.4969-3.2034 3.0763-5.65e-5 5.292e-4 5.66e-5 0.00101 0 0.00156-0.064981 0.62205-0.087333 1.3643-0.087333 2.2484v1.8883h7.276v-7.276z" fill="#ffa53c"/>
   </g>
   <rect x="-1.3229" y="6.2839" width="7.9375" height="7.9375" ry="2.1648" fill="#464646" stroke-linecap="round" stroke-width=".39606"/>
  </g>
  <path d="m3.2119 7.3374-1.0116 0.094877v3.9074l1.0004-0.13673v-1.6701l1.3346 1.8487 1.0451-0.31533-1.3673-1.7748 1.3785-1.6813-1.0674-0.23092-1.3234 1.6806zm-2.4557 1.0708c-0.011324 0-0.02495 0.00652-0.033486 0.011163l-0.38925 0.37812c-0.016563 0.016431-0.02331 0.04364-0.011165 0.062786l0.45625 0.71438c-0.081838 0.12998-0.14218 0.27223-0.18906 0.41997l-0.84481 0.16813c-0.023548 0.0061-0.044648 0.01966-0.044648 0.04256v0.52464c0 0.02215 0.02196 0.04693 0.044648 0.05232l0.82248 0.18976c0.04381 0.17127 0.11043 0.33367 0.20022 0.48278l-0.47789 0.68297c-0.013256 0.01929-0.00635 0.04668 0.011165 0.06279l0.38859 0.36766c0.016563 0.015 0.046749 0.02331 0.066971 0.01116l0.74507-0.43112c0.14648 0.07983 0.29975 0.14648 0.4667 0.18906l0.1779 0.7883c0.00511 0.02286 0.020664 0.04186 0.044649 0.04186h0.556c0.023442 0 0.050207-0.02011 0.055811-0.04186l0.19952-0.7883c0.1721-0.0439 0.3397-0.11601 0.48974-0.19952l0.7339 0.46252c0.020188 0.01214 0.049101 0.0056 0.066275-0.01116l0.38926-0.36766c0.016669-0.01643 0.023389-0.04371 0.011165-0.06278l-0.26649-0.41997-0.089297 0.03139c-0.0127 0.0061-0.026035 2.52e-4 -0.033486-0.01047 0 0-0.1683-0.24064-0.38926-0.54626-0.26417 0.4885-0.80253 0.81904-1.4232 0.81904-0.88178 0-1.601-0.66887-1.601-1.502 0-0.61283 0.38984-1.1403 0.9453-1.3764v-0.3886c-0.1011 0.033576-0.19599 0.067908-0.28882 0.11581h-0.011165l-0.74507-0.46252c-0.010134-0.00607-0.022146-0.010837-0.033486-0.00977v-7.144e-4z" color="#4d4d4d" fill="#fff" stroke-width=".26458"/>
 </g>
</svg>
