<?xml version="1.0" encoding="UTF-8"?>
<svg width="64" height="64" version="1.1" viewBox="0 0 16.933 16.933" xmlns="http://www.w3.org/2000/svg" xmlns:cc="http://creativecommons.org/ns#" xmlns:dc="http://purl.org/dc/elements/1.1/" xmlns:rdf="http://www.w3.org/1999/02/22-rdf-syntax-ns#" xmlns:xlink="http://www.w3.org/1999/xlink">
 <metadata>
  <rdf:RDF>
   <cc:Work rdf:about="">
    <dc:format>image/svg+xml</dc:format>
    <dc:type rdf:resource="http://purl.org/dc/dcmitype/StillImage"/>
   </cc:Work>
  </rdf:RDF>
 </metadata>
 <defs>
  <filter id="filter1057" x="-.027" y="-.027" width="1.054" height="1.054" color-interpolation-filters="sRGB">
   <feGaussianBlur stdDeviation="0.61875"/>
  </filter>
  <linearGradient id="linearGradient1053" x1="-127" x2="-72" y1="60" y2="5" gradientTransform="matrix(.26459 0 0 .26459 7.9952 13.699)" gradientUnits="userSpaceOnUse">
   <stop stop-color="#32d7ff" offset="0"/>
   <stop stop-color="#329bff" offset="1"/>
  </linearGradient>
  <linearGradient id="linearGradient938" x1="40.438" x2="40.438" y1="53.501" y2="82.29" gradientUnits="userSpaceOnUse">
   <stop stop-color="#fff" offset="0"/>
   <stop stop-color="#afe1fe" offset="1"/>
  </linearGradient>
 </defs>
 <g transform="translate(26.799 -13.834)" stroke-linecap="round">
  <rect transform="matrix(.26459 0 0 .26459 -26.799 13.834)" x="4.5" y="4.5" width="55" height="55" ry="15" fill="#141414" filter="url(#filter1057)" opacity=".3" stroke-width="2.7444"/>
  <rect x="-25.608" y="15.025" width="14.552" height="14.552" ry="3.9688" fill="url(#linearGradient1053)" stroke-width=".72612"/>
 </g>
 <g transform="matrix(.52748 .0063415 -.0063415 .52748 27.788 -138.1)" fill="#fff" aria-label="Bluej">
  <path transform="matrix(.26456 -.0031806 .0031806 .26456 -50.326 261.44)" d="m26.07 45.301-0.34375 28.719 9.959 0.11914c4.0797 0.04905 5.8463-0.53057 7.5098-2.4707 1.3796-1.6235 2.0849-3.6948 2.1133-6.0547 0.03847-3.1998-0.9361-5.4112-3.5586-6.8828 2.0548-1.2154 2.9151-2.8848 2.9492-5.7246 0.05578-4.6397-2.6698-7.5121-7.1895-7.5664zm70.924 0.25195-0.05664 4.6016 4.5605 0.05469 0.0547-4.5996zm-47.443 0.03125-0.3457 28.717 4.5586 0.05469 0.3457-28.717zm-18.818 4.6934 5.6387 0.06836c2.5198 0.03029 3.6285 1.0022 3.6035 3.082-0.02549 2.1199-1.3188 3.2652-3.5586 3.2383l-5.7598-0.06836zm54.652 2.6172c-5.1596-0.06203-8.3284 4.06-8.4121 11.02-0.08655 7.1995 2.9432 11.317 8.3828 11.383 3.9197 0.04712 6.5052-2.0428 7.9219-6.7461l-4.7207-0.05664c-0.45824 1.5146-1.5065 2.302-3.0664 2.2832-2.4798-0.02981-3.7023-1.6048-3.9395-5.168l11.961 0.14453 0.01172-1c0.09088-7.5595-2.8191-11.795-8.1387-11.859zm-26.926 0.23633-0.16797 14c-0.06011 4.9997 2.0254 7.865 5.7852 7.9102 2.5598 0.03077 4.2542-1.1098 5.4844-3.6152l-0.03711 3.1191 4.3984 0.05273 0.25586-21.277-4.5586-0.05469-0.14844 12.279c-0.03606 2.9998-1.4174 4.8223-3.6973 4.7949-1.9599-0.02356-2.9429-1.3953-2.9121-3.9551l0.1582-13.199zm38.398 0.46094-0.28125 23.398c-0.01683 1.3999-0.42484 1.9549-1.3848 1.9434l-0.83984-0.0098-0.05273 4.4805 1.1992 0.01367c4.1997 0.05049 5.5795-1.4923 5.6367-6.252l0.28125-23.52zm-11.568 3.9023c2.0798 0.025 3.263 1.5198 3.5469 4.5234l-7.1191-0.08594c0.437-3.075 1.5324-4.462 3.5723-4.4375zm-54.691 3.9824 6.2793 0.07617c2.2398 0.02693 3.543 1.3627 3.5156 3.6426-0.03174 2.6398-1.3678 4.063-3.8477 4.0332l-6.041-0.07227z" fill="url(#linearGradient938)" stroke-width="1px"/>
 </g>
 <g transform="translate(-8.8446 -9.6006)">
  <circle cx="21.545" cy="22.301" r="4.2333" fill="#323232" stroke-linecap="round" stroke-width=".60496"/>
  <circle cx="21.545" cy="22.3" r="1.8504" fill="none" opacity=".5" stroke="#fff" stroke-dashoffset=".42096" stroke-width=".35245"/>
  <path d="m21.526 18.597c-0.17503 0.01777-0.17222 0.16594-0.22888 0.53109a3.1946 3.1858 30 0 0-0.35657 0.04784c-0.16414-0.377-0.22012-0.50756-0.3669-0.45501-0.16658 0.05963-0.12646 0.20342-0.09362 0.57617a3.1946 3.1858 30 0 0-0.32492 0.13354c-0.2357-0.28487-0.30859-0.4137-0.46809-0.33937-0.14107 0.06573-0.08965 0.19801 0.05817 0.57996a3.1946 3.1858 30 0 0-0.2843 0.21718c-0.29849-0.21221-0.40271-0.31675-0.53694-0.2041-0.11811 0.09912-0.03557 0.21337 0.201 0.53694a3.1946 3.1858 30 0 0-0.21443 0.28016c-0.3461-0.11945-0.4757-0.19029-0.57273-0.0444-0.08427 0.12671 0.02524 0.21369 0.33386 0.4502a3.1946 3.1858 30 0 0-0.14146 0.34764c-0.35841-0.0398-0.50007-0.07896-0.56207 0.08364-0.05521 0.14481 0.07345 0.20396 0.44194 0.37344a3.1946 3.1858 30 0 0-0.04853 0.36931c-0.35301 0.04822-0.4988 0.04599-0.51904 0.21787-0.01819 0.15452 0.12119 0.17982 0.52351 0.2547a3.1946 3.1858 30 0 0 0.04612 0.338c-0.33987 0.16389-0.48458 0.20225-0.45054 0.37654 0.02969 0.15202 0.17018 0.13421 0.57204 0.08329a3.1946 3.1858 30 0 0 0.13733 0.33352c-0.2919 0.24703-0.4235 0.31992-0.3466 0.48118 0.06734 0.14123 0.19908 0.08732 0.58443-0.06574l-0.0358-0.06367a3.1946 3.1858 30 0 0 0.24472 0.3263c-0.20634 0.30755-0.30949 0.41471-0.19275 0.54658 0.10106 0.11416 0.21334 0.03053 0.52247-0.20823a3.1946 3.1858 30 0 0 0.28912 0.2227c-0.14522 0.38822-0.19658 0.52099-0.05404 0.58547 0.16003 0.07239 0.23221-0.05715 0.46363-0.3435a3.1946 3.1858 30 0 0 0.33971 0.14077c-0.05297 0.39258-0.07047 0.53213 0.07985 0.56276 0.17262 0.03517 0.21357-0.1075 0.37689-0.44021a3.1946 3.1858 30 0 0 0.35486 0.04922c0.05838 0.39841 0.07934 0.53805 0.23336 0.52592 0.17486-0.01378 0.17562-0.16181 0.2399-0.52318a3.1946 3.1858 30 0 0 0.36827-0.04784c0.15028 0.35768 0.20694 0.48546 0.35072 0.43609 0.16376-0.05622 0.13061-0.19861 0.10291-0.55414a3.1946 3.1858 30 0 0 0.32422-0.13045c0.26009 0.30406 0.35217 0.41048 0.47566 0.31837 0.13792-0.10286 0.06474-0.228-0.06849-0.55345a3.1946 3.1858 30 0 0 0.29979-0.22717c0.32526 0.23029 0.44056 0.31102 0.53763 0.19172 0.10876-0.13368 0.0068-0.23739-0.20273-0.52145a3.1946 3.1858 30 0 0 0.22923-0.30186c0.35511 0.14732 0.48515 0.19762 0.55243 0.06195 0.07698-0.15524-0.04686-0.23292-0.31699-0.46671a3.1946 3.1858 30 0 0 0.13527-0.3318c0.39164 0.04234 0.53135 0.05537 0.55793-0.09534 0.03018-0.17115-0.11097-0.21039-0.43815-0.35967a3.1946 3.1858 30 0 0 0.0475-0.35968c0.39668-0.06172 0.53597-0.08413 0.52247-0.23783-0.01532-0.17456-0.16303-0.17418-0.5242-0.23508a3.1946 3.1858 30 0 0-0.04853-0.35692c0.36463-0.16783 0.49246-0.22758 0.43746-0.37173-0.0618-0.16195-0.20294-0.12374-0.55828-0.08398a3.1946 3.1858 30 0 0-0.14112-0.33902c0.32018-0.24767 0.43226-0.3344 0.34591-0.46294-0.09939-0.14795-0.22892-0.07222-0.58822 0.05266a3.1946 3.1858 30 0 0-0.21822-0.28258c0.23468-0.33772 0.31627-0.45373 0.19446-0.55105-0.13661-0.10915-0.2382-0.0029-0.53005 0.21547a3.1946 3.1858 30 0 0-0.29084-0.21993c0.14758-0.37786 0.19915-0.50985 0.0592-0.57583h-3.44e-4c-0.15911-0.07453-0.23284 0.05418-0.46948 0.33833a3.1946 3.1858 30 0 0-0.33076-0.13423c0.05301-0.40294 0.07156-0.54365-0.08054-0.5741-0.17488-0.03502-0.21336 0.11037-0.38068 0.45262a3.1946 3.1858 30 0 0-0.35141-0.04681c-0.06879-0.40563-0.09163-0.5458-0.24678-0.53005zm0.78543 1.121c0.1116-0.01529 0.28876 0.05428 0.47429 0.1573 0.3092 0.17168 0.64116 0.43631 0.72968 0.55586 0.4237 0.4536 0.73287 1.0163 0.75068 1.9205 0.0033 0.16841-0.01248 0.32099-0.05197 0.44572-0.04296 0.13033-0.12997 0.26053-0.26675 0.32388-0.11341 0.04769-0.23938 0.08159-0.35657 0.02753-0.3651-0.16752-0.82427-0.45695-1.1926-0.67496-0.06196-0.0367-0.10702-0.09627-0.11358-0.12632-0.06985-0.1326-0.05659-0.32605-0.15454-0.43919-0.1432-0.20345-0.26645-0.17312-0.29842-0.37242-0.01499-0.44312-0.01809-0.89126-0.0065-1.3279 6.61e-4 -0.30298 0.21848-0.48113 0.48634-0.49012zm-1.5705 0.01514c0.0928-0.0051 0.18976 0.01004 0.275 0.05576 0.01624 0.0087 0.03187 0.01858 0.04715 0.0296 0.09721 0.0754 0.18852 0.1684 0.19894 0.29703 0.03321 0.40033 0.0064 0.94236-0.0028 1.3702-0.0015 0.072-0.03142 0.14062-0.05438 0.16108-0.08125 0.12593-0.25616 0.20916-0.30667 0.35004-0.10698 0.22462-0.01999 0.31698-0.17795 0.44262-0.37874 0.23054-0.76795 0.45322-1.1541 0.65741-0.26432 0.14812-0.52636 0.04586-0.66565-0.18312-0.18156-0.2393-0.06655-1.1819 0.03063-1.3991 0.18729-0.59178 0.52568-1.1374 1.3048-1.5967 0.1451-0.08554 0.286-0.14632 0.41406-0.17313 0.02945-0.0058 0.05993-0.01 0.09087-0.0117zm0.80438 2.2296a0.33782 0.33782 0 0 1 0.33765 0.33765 0.33782 0.33782 0 0 1-0.33765 0.338 0.33782 0.33782 0 0 1-0.338-0.338 0.33782 0.33782 0 0 1 0.338-0.33765zm0.40958 0.96682c0.03371-0.0013 0.07111 0.0049 0.11806 0.02341 0.1945 0.10637 0.38858 0.21602 0.58031 0.32801 0.19173 0.112 0.38089 0.22632 0.56584 0.34248 0.26044 0.15483 0.30281 0.43297 0.17416 0.66807-0.11645 0.27688-0.98998 0.64875-1.2267 0.67323-0.60614 0.13369-1.2478 0.11332-2.0352-0.3318-0.14664-0.08289-0.27001-0.17441-0.35726-0.27192-0.0903-0.10334-0.15797-0.24446-0.14284-0.39444 0.0167-0.12188 0.05179-0.24745 0.15798-0.32078 0.33009-0.22893 0.81301-0.47655 1.1881-0.68252 0.06313-0.03466 0.1374-0.04304 0.16659-0.03339 0.14969 0.0074 0.30949 0.11686 0.45674 0.09018 0.186-0.01475 0.25302-0.08671 0.35418-0.09052z" fill="#fff" image-rendering="optimizeSpeed" stroke-width=".1694"/>
 </g>
</svg>
