<?xml version="1.0" encoding="UTF-8"?>
<svg width="64" height="64" version="1.1" viewBox="0 0 16.933 16.933" xmlns="http://www.w3.org/2000/svg" xmlns:cc="http://creativecommons.org/ns#" xmlns:dc="http://purl.org/dc/elements/1.1/" xmlns:rdf="http://www.w3.org/1999/02/22-rdf-syntax-ns#" xmlns:xlink="http://www.w3.org/1999/xlink">
 <defs>
  <filter id="filter3014" x="-.15277" y="-.06794" width="1.3055" height="1.1359" color-interpolation-filters="sRGB">
   <feGaussianBlur stdDeviation="0.17080551"/>
  </filter>
  <linearGradient id="linearGradient2984" x1="-37.862" x2="-30.145" y1="277.08" y2="277.08" gradientTransform="matrix(1.4743 0 0 1.4743 103.57 -372.82)" gradientUnits="userSpaceOnUse">
   <stop stop-color="#f56d3a" offset="0"/>
   <stop stop-color="#ec566a" offset="1"/>
  </linearGradient>
  <filter id="filter1057" x="-.027" y="-.027" width="1.054" height="1.054" color-interpolation-filters="sRGB">
   <feGaussianBlur stdDeviation="0.61875"/>
  </filter>
  <linearGradient id="linearGradient1053" x1="-127" x2="-72" y1="60" y2="5" gradientTransform="matrix(.26458 0 0 .26458 14.42 9.0688)" gradientUnits="userSpaceOnUse">
   <stop stop-color="#dee0e2" offset="0"/>
   <stop stop-color="#f1f3f5" stop-opacity=".99608" offset="1"/>
  </linearGradient>
 </defs>
 <metadata>
  <rdf:RDF>
   <cc:Work rdf:about="">
    <dc:format>image/svg+xml</dc:format>
    <dc:type rdf:resource="http://purl.org/dc/dcmitype/StillImage"/>
   </cc:Work>
  </rdf:RDF>
 </metadata>
 <g transform="translate(20.373 -9.2037)" stroke-linecap="round">
  <rect transform="matrix(.26458 0 0 .26458 -20.373 9.2037)" x="4.5" y="4.5" width="55" height="55" ry="15" fill="#141414" filter="url(#filter1057)" opacity=".3" stroke-width="2.7444"/>
  <rect x="-19.182" y="10.394" width="14.552" height="14.552" ry="3.9687" fill="url(#linearGradient1053)" stroke-width=".72611"/>
 </g>
 <g transform="translate(-44.828 -26.949)">
  <g fill="#f36845">
   <path transform="matrix(1.4743 0 0 1.4743 103.57 -372.82)" d="m-37.582 274.22v5.3671s0.06453 0.18707 0.32763 0.18707h2.4727s0.67179 0.19893 0.67179 0.47956c0-0.28063 0.65474-0.47956 0.65474-0.47956h2.5146c0.2631 0 0.32763-0.18707 0.32763-0.18707v-5.3671h-2.2216c-1.0407 0-1.2764 0.53795-1.2764 0.53795s-0.20886-0.53795-1.2495-0.53795z" filter="url(#filter3014)"/>
   <path transform="matrix(1.4743 0 0 1.4743 103.57 -372.71)" d="m-34.11 274.71s-0.15071-1.109-2.4776-1.226c0 0-0.20463-6e-3 -0.20463 0.14032v5.1288s0.46862 0.44749 1.4916 0.47129c0.80669 0.053 1.1917 0.62012 1.1917 0.62012z" filter="url(#filter3014)"/>
   <path transform="matrix(1.4743 0 0 1.4743 103.57 -372.71)" d="m-34.108 274.71s0.15071-1.109 2.4776-1.226c0 0 0.20463-6e-3 0.20463 0.14032v5.1288s-0.46862 0.44749-1.4916 0.47129c-0.80669 0.053-1.1917 0.62012-1.1917 0.62012z" filter="url(#filter3014)"/>
  </g>
  <g stroke-width="1.4743">
   <path d="m48.157 31.472v7.9129s0.09514 0.2758 0.48303 0.2758h3.6456s0.99044 0.29329 0.99044 0.70703c0-0.41374 0.9653-0.70703 0.9653-0.70703h3.7073c0.3879 0 0.48304-0.2758 0.48304-0.2758v-7.9129h-3.2754c-1.5343 0-1.8818 0.79312-1.8818 0.79312s-0.30793-0.79312-1.8422-0.79312z" fill="url(#linearGradient2984)"/>
   <path d="m53.276 32.304s-0.2222-1.635-3.6528-1.8075c0 0-0.30169-0.0088-0.30169 0.20688v7.5615s0.6909 0.65975 2.1991 0.69484c1.1893 0.07814 1.757 0.91426 1.757 0.91426z" fill="#fb7"/>
   <path d="m53.279 32.304s0.2222-1.635 3.6528-1.8075c0 0 0.30169-0.0088 0.30169 0.20688v7.5615s-0.6909 0.65975-2.1991 0.69484c-1.1893 0.07814-1.757 0.91426-1.757 0.91426z" fill="#ff8a7c"/>
  </g>
 </g>
</svg>
