<?xml version="1.0" encoding="UTF-8"?>
<svg width="64" height="64" version="1.1" viewBox="0 0 64 64" xmlns="http://www.w3.org/2000/svg" xmlns:cc="http://creativecommons.org/ns#" xmlns:dc="http://purl.org/dc/elements/1.1/" xmlns:rdf="http://www.w3.org/1999/02/22-rdf-syntax-ns#" xmlns:xlink="http://www.w3.org/1999/xlink">
 <metadata>
  <rdf:RDF>
   <cc:Work rdf:about="">
    <dc:format>image/svg+xml</dc:format>
    <dc:type rdf:resource="http://purl.org/dc/dcmitype/StillImage"/>
    <dc:title/>
   </cc:Work>
  </rdf:RDF>
 </metadata>
 <defs>
  <style type="text/css"/>
  <style type="text/css"/>
  <style type="text/css"/>
  <style type="text/css"/>
  <filter id="filter1057" x="-.027" y="-.027" width="1.054" height="1.054" color-interpolation-filters="sRGB">
   <feGaussianBlur stdDeviation="0.61875"/>
  </filter>
  <linearGradient id="linearGradient1053" x1="-127" x2="-72" y1="60" y2="5" gradientTransform="translate(131.5 -.51)" gradientUnits="userSpaceOnUse">
   <stop stop-color="#32d7ff" offset="0"/>
   <stop stop-color="#329bff" offset="1"/>
  </linearGradient>
  <style type="text/css"/>
  <style type="text/css"/>
  <style type="text/css"/>
  <style type="text/css"/>
  <style type="text/css"/>
  <style type="text/css"/>
  <style type="text/css"/>
 </defs>
 <rect x="4.5" y="4.5" width="55" height="55" ry="15" fill="#141414" filter="url(#filter1057)" opacity=".3" stroke-linecap="round" stroke-width="2.7444"/>
 <rect x="4.5" y="4.5" width="55" height="55" ry="15" fill="url(#linearGradient1053)" stroke-linecap="round" stroke-width="2.7444"/>
 <g fill="#5e4aa6">
  <circle cx="-1248.7" cy="-1241.6" r="0"/>
  <circle cx="-149.15" cy="23.855" r="0" fill-rule="evenodd"/>
  <g transform="translate(-97.627 -47.458)">
   <circle cx="-1401.7" cy="-1262.9" r="0"/>
   <circle cx="-302.14" cy="2.5994" r="0" fill-rule="evenodd"/>
   <circle cx="-1124.8" cy="-1279.3" r="0"/>
  </g>
  <g transform="matrix(3.7796 0 0 3.7796 26.203 -85.642)" stroke-width=".26458">
   <circle cx="-299.02" cy="-338.77" r="0"/>
   <circle cx="-8.1062" cy="-3.9487" r="0" fill-rule="evenodd"/>
   <circle cx="-278.25" cy="-357.69" r="0"/>
   <circle cx="12.663" cy="-22.859" r="0" fill-rule="evenodd"/>
  </g>
 </g>
 <g transform="translate(.105 -.77386)" fill="#fff">
  <path d="m12.263 28.068c-0.43456 0.43456-0.43456 1.1342 0 1.5688l3.1376 3.1376-3.1376 3.1376c-0.43456 0.43456-0.43456 1.1342 0 1.5688 0.43456 0.43456 1.1342 0.43456 1.5688 0l3.1376-3.1376 3.1376 3.1376c0.43456 0.43456 1.1342 0.43456 1.5688 0 0.43456-0.43456 0.43456-1.1342 0-1.5688l-3.1376-3.1376 3.1376-3.1376c0.43456-0.43456 0.43456-1.1342 0-1.5688-0.43456-0.43456-1.1342-0.43456-1.5688 0l-3.1376 3.1376-3.1376-3.1376c-0.43456-0.43456-1.1342-0.43456-1.5688 0z"/>
  <path d="m31.391 27.742c-3.0728 0-5.5466 2.4738-5.5466 5.5466s2.4738 5.5466 5.5466 5.5466 5.5466-2.4738 5.5466-5.5466-2.4738-5.5466-5.5466-5.5466zm0 2.2186c1.8437 0 3.3279 1.4843 3.3279 3.3279 0 1.8437-1.4843 3.3279-3.3279 3.3279s-3.3279-1.4843-3.3279-3.3279c0-1.8437 1.4843-3.3279 3.3279-3.3279z"/>
  <path d="m36.611 41.506c0.43456 0.43456 0.43456 1.1342 0 1.5688l-3.1376 3.1376 3.1376 3.1376c0.43456 0.43456 0.43456 1.1342 0 1.5688-0.43456 0.43456-1.1342 0.43456-1.5688 0l-3.1376-3.1376-3.1376 3.1376c-0.43456 0.43456-1.1342 0.43456-1.5688 0-0.43456-0.43456-0.43456-1.1342 0-1.5688l3.1376-3.1376-3.1376-3.1376c-0.43456-0.43456-0.43456-1.1342 0-1.5688 0.43456-0.43456 1.1342-0.43456 1.5688 0l3.1376 3.1376 3.1376-3.1376c0.43456-0.43456 1.1342-0.43456 1.5688 0z"/>
  <path d="m12.263 15.143c-0.43456 0.43456-0.43456 1.1342 0 1.5688l3.1376 3.1376-3.1376 3.1376c-0.43456 0.43456-0.43456 1.1342 0 1.5688 0.43456 0.43456 1.1342 0.43456 1.5688 0l3.1376-3.1376 3.1376 3.1376c0.43456 0.43456 1.1342 0.43456 1.5688 0 0.43456-0.43456 0.43456-1.1342 0-1.5688l-3.1376-3.1376 3.1376-3.1376c0.43456-0.43456 0.43456-1.1342 0-1.5688-0.43456-0.43456-1.1342-0.43456-1.5688 0l-3.1376 3.1376-3.1376-3.1376c-0.43456-0.43456-1.1342-0.43456-1.5688 0z"/>
  <path d="m31.381 14.303c-3.0728 0-5.5466 2.4738-5.5466 5.5466s2.4738 5.5466 5.5466 5.5466 5.5466-2.4738 5.5466-5.5466-2.4738-5.5466-5.5466-5.5466zm0 2.2186c1.8437 0 3.3279 1.4843 3.3279 3.3279 0 1.8437-1.4843 3.3279-3.3279 3.3279s-3.3279-1.4843-3.3279-3.3279c0-1.8437 1.4843-3.3279 3.3279-3.3279z"/>
  <path d="m51.527 41.506c0.43456 0.43456 0.43456 1.1342 0 1.5688l-3.1376 3.1376 3.1376 3.1376c0.43456 0.43456 0.43456 1.1342 0 1.5688-0.43456 0.43456-1.1342 0.43456-1.5688 0l-3.1376-3.1376-3.1376 3.1376c-0.43456 0.43456-1.1342 0.43456-1.5688 0-0.43456-0.43456-0.43456-1.1342 0-1.5688l3.1376-3.1376-3.1376-3.1376c-0.43456-0.43456-0.43456-1.1342 0-1.5688 0.43456-0.43456 1.1342-0.43456 1.5688 0l3.1376 3.1376 3.1376-3.1376c0.43456-0.43456 1.1342-0.43456 1.5688 0z"/>
  <path d="m46.306 14.303c-3.0728 0-5.5466 2.4738-5.5466 5.5466s2.4738 5.5466 5.5466 5.5466 5.5466-2.4738 5.5466-5.5466-2.4738-5.5466-5.5466-5.5466zm0 2.2186c1.8437 0 3.3279 1.4843 3.3279 3.3279 0 1.8437-1.4843 3.3279-3.3279 3.3279s-3.3279-1.4843-3.3279-3.3279c0-1.8437 1.4843-3.3279 3.3279-3.3279z"/>
 </g>
 <circle cx="-1203.4" cy="-1308.5" r="0" fill="#5e4aa6"/>
 <g transform="matrix(3.7796 0 0 3.7796 45.215 -67.344)" fill="#5e4aa6" stroke-width=".26458">
  <circle cx="-299.02" cy="-338.77" r="0"/>
  <circle cx="-8.1062" cy="-3.9487" r="0" fill-rule="evenodd"/>
  <circle cx="-278.25" cy="-357.69" r="0"/>
  <circle cx="12.663" cy="-22.859" r="0" fill-rule="evenodd"/>
 </g>
</svg>
