<?xml version="1.0" encoding="UTF-8"?>
<svg width="64" height="64" version="1.1" viewBox="0 0 64 64" xmlns="http://www.w3.org/2000/svg" xmlns:cc="http://creativecommons.org/ns#" xmlns:dc="http://purl.org/dc/elements/1.1/" xmlns:rdf="http://www.w3.org/1999/02/22-rdf-syntax-ns#">
 <metadata>
  <rdf:RDF>
   <cc:Work rdf:about="">
    <dc:format>image/svg+xml</dc:format>
    <dc:type rdf:resource="http://purl.org/dc/dcmitype/StillImage"/>
    <dc:title/>
   </cc:Work>
  </rdf:RDF>
 </metadata>
 <defs>
  <style type="text/css"/>
  <filter id="filter2076" x="-.048" y="-.048" width="1.096" height="1.096" color-interpolation-filters="sRGB">
   <feGaussianBlur stdDeviation="1.1"/>
  </filter>
  <linearGradient id="linearGradient2070" x1="145" x2="200" y1="59" y2="4" gradientTransform="translate(-140.5 .5)" gradientUnits="userSpaceOnUse">
   <stop stop-color="#ffc841" offset="0"/>
   <stop stop-color="#ffbe37" offset=".4925"/>
   <stop stop-color="#ffc841" offset="1"/>
  </linearGradient>
 </defs>
 <rect x="4.5" y="4.5" width="55" height="55" rx="13.002" ry="13.002" filter="url(#filter2076)" opacity=".3"/>
 <rect x="4.5" y="4.5" width="55" height="55" rx="13.002" ry="13.002" fill="url(#linearGradient2070)"/>
 <circle cx="-1266.3" cy="-1269.2" r="0" fill="#5e4aa6"/>
 <circle cx="-166.78" cy="-3.6702" r="0" fill="#5e4aa6" fill-rule="evenodd"/>
 <g transform="matrix(.875 0 0 .875 -62.678 -.15257)" stroke-width=".9524">
  <path d="m101.54 15.079c-0.83336 0-3.75 3.3334-4.1666 3.3334h-2.0834c-0.83336 0-3.75 2.9166-3.75 3.75v2.5c0 0.41666-3.315 3.3334-3.3334 4.1666-0.01833 0.83336 5.8334 20.417 6.6666 21.25 0.83336 0.83336 10 8.3336 12.5 8.3336h1.6666c2.5 0 11.666-7.5 12.5-8.3336 0.83336-0.83336 6.6834-20.417 6.6666-21.25-0.0183-0.82832-3.3334-3.75-3.3334-4.1666v-2.5c0-0.83336-2.9166-3.75-3.75-3.75h-2.0834c-0.41666 0-3.3334-3.3334-4.1666-3.3334z" fill="#eb8c00"/>
  <path d="m108.2 20.899c-0.83 0-1.6566 0.285-2.5 0.84664-2.5 1.6666-5.8334-0.83336-6.6666-0.83336-0.83336 0-5.8334 6.0717-5.8334 8.3336 0 1.6666 6.25 5.5 6.25 6.6666 0 0.83336-1.25 1.2334-1.25 3.0017 0 1.165 1.6666 3.2483 3.3334 3.2483 1.6666 0 5.8366-3.2717 5.8334-4.0817v-0.50166c0-1-3.75-2.26-3.75-4.1666 0-1.6666 1.25-2.2834 1.25-4.1666 0-1.62-3.3334-2.0834-5.8334-2.5-0.83336 0 2.5-2.7417 7.0834 0.22166 1.16 0.75-1.25 3.715-0.83336 6.445 0.625 0.58334 1.7717 0.87496 2.9166 0.87496 1.1466 0 2.2917-0.29166 2.9166-0.87496 0.41666-2.73-1.9934-5.695-0.83336-6.445 4.5834-2.9634 7.9166-0.22166 7.0834-0.22166-2.5 0.41666-5.8334 0.88-5.8334 2.5 0 1.8834 1.25 2.5 1.25 4.1666 0 1.9066-3.75 3.1666-3.75 4.1666v0.50166c-3e-3 0.81 4.1666 4.0817 5.8334 4.0817s3.3334-2.0834 3.3334-3.2483c0-1.7666-1.25-2.1683-1.25-3.0017 0-1.1666 6.25-5 6.25-6.6666 0-2.2617-5-8.3336-5.8334-8.3336s-4.1666 2.5-6.6666 0.83336c-0.84336-0.56166-1.6666-0.84664-2.5-0.84664zm0 19.846c-1.6666 0-5.4166 2.5834-5.4166 3.0834s3.75 4.5834 5.4166 4.5834 5.4166-4.0834 5.4166-4.5834-3.75-3.0834-5.4166-3.0834z" fill="#f9f9f9"/>
 </g>
 <circle cx="-78.227" cy="4.7821" r="0" fill="url(#a)" stroke-width="1.501"/>
 <circle cx="-1425.6" cy="-1280.9" r="0" fill="#5e4aa6"/>
 <g transform="translate(-176.87 -39.286)" fill="#5e4aa6">
  <circle cx="-149.15" cy="23.855" r="0" fill-rule="evenodd"/>
  <circle cx="-1150.9" cy="-1256.6" r="0"/>
  <circle cx="-51.327" cy="8.8744" r="0" fill-rule="evenodd"/>
 </g>
</svg>
