<?xml version="1.0" encoding="UTF-8" standalone="no"?>
<svg
   xmlns:dc="http://purl.org/dc/elements/1.1/"
   xmlns:cc="http://creativecommons.org/ns#"
   xmlns:rdf="http://www.w3.org/1999/02/22-rdf-syntax-ns#"
   xmlns:svg="http://www.w3.org/2000/svg"
   xmlns="http://www.w3.org/2000/svg"
   xmlns:sodipodi="http://sodipodi.sourceforge.net/DTD/sodipodi-0.dtd"
   xmlns:inkscape="http://www.inkscape.org/namespaces/inkscape"
   height="64"
   width="64"
   version="1.1"
   id="svg17"
   sodipodi:docname="bygfoot.svg"
   inkscape:version="1.0.2 (e86c870879, 2021-01-15)">
  <metadata
     id="metadata23">
    <rdf:RDF>
      <cc:Work
         rdf:about="">
        <dc:format>image/svg+xml</dc:format>
        <dc:type
           rdf:resource="http://purl.org/dc/dcmitype/StillImage" />
        <dc:title></dc:title>
      </cc:Work>
    </rdf:RDF>
  </metadata>
  <defs
     id="defs21">
    <linearGradient
       id="linearGradient3775"
       x2="0"
       y1="1"
       y2="47"
       gradientUnits="userSpaceOnUse">
      <stop
         style="stop-color:#42d442"
         offset="0"
         id="stop848" />
      <stop
         style="stop-color:#32d032;stop-opacity:.992"
         offset="1"
         id="stop850" />
    </linearGradient>
    <linearGradient
       id="linearGradient3801"
       x2="0"
       y1="1"
       y2="47"
       gradientUnits="userSpaceOnUse">
      <stop
         style="stop-color:#2aa42a"
         offset="0"
         id="stop853" />
      <stop
         style="stop-color:#269426"
         offset="1"
         id="stop855" />
    </linearGradient>
    <linearGradient
       id="linearGradient890"
       x1="29.794"
       x2="29.794"
       y1="18.047"
       y2="45.675"
       gradientUnits="userSpaceOnUse">
      <stop
         stop-color="#505459"
         offset="0"
         id="stop922" />
      <stop
         stop-color="#2d2f32"
         offset="1"
         id="stop924" />
    </linearGradient>
    <filter
       x="-.10872"
       y="-.10729"
       width="1.2174"
       height="1.2146"
       color-interpolation-filters="sRGB"
       id="filter929">
      <feGaussianBlur
         stdDeviation="1.4304909"
         id="feGaussianBlur927" />
    </filter>
    <style
       type="text/css"
       id="style931" />
    <style
       type="text/css"
       id="style933" />
    <filter
       id="filter1057"
       x="-.027"
       y="-.027"
       width="1.054"
       height="1.054"
       color-interpolation-filters="sRGB">
      <feGaussianBlur
         stdDeviation="0.61875"
         id="feGaussianBlur935" />
    </filter>
    <linearGradient
       id="linearGradient1053"
       x1="-127"
       x2="-72"
       y1="60"
       y2="5"
       gradientTransform="translate(131.5,-0.51)"
       gradientUnits="userSpaceOnUse">
      <stop
         stop-color="#dee0e2"
         offset="0"
         id="stop938" />
      <stop
         stop-color="#f1f3f5"
         stop-opacity=".99608"
         offset="1"
         id="stop940" />
    </linearGradient>
  </defs>
  <sodipodi:namedview
     pagecolor="#ffffff"
     bordercolor="#666666"
     borderopacity="1"
     objecttolerance="10"
     gridtolerance="10"
     guidetolerance="10"
     inkscape:pageopacity="0"
     inkscape:pageshadow="2"
     inkscape:window-width="1920"
     inkscape:window-height="935"
     id="namedview19"
     showgrid="false"
     inkscape:zoom="4.0364583"
     inkscape:cx="38.010981"
     inkscape:cy="13.596174"
     inkscape:window-x="0"
     inkscape:window-y="38"
     inkscape:window-maximized="1"
     inkscape:current-layer="svg17" />
  <linearGradient
     id="a"
     gradientUnits="userSpaceOnUse"
     x1="457.10483"
     x2="457.10483"
     y1="552.06458"
     y2="429.39795">
    <stop
       offset="0"
       stop-color="#bfc1c1"
       id="stop2" />
    <stop
       offset="1"
       stop-color="#f1f2f3"
       id="stop4" />
  </linearGradient>
  <rect
     x="4.5"
     y="4.5"
     width="55"
     height="55"
     ry="15"
     fill="#141414"
     filter="url(#filter1057)"
     opacity="0.3"
     stroke-linecap="round"
     stroke-width="2.7444"
     id="rect945" />
  <rect
     x="4.5"
     y="4.5"
     width="55"
     height="55"
     ry="15"
     fill="url(#linearGradient1053)"
     stroke-linecap="round"
     stroke-width="2.7444"
     id="rect947"
     style="fill:url(#linearGradient1053)" />
  <circle
     cx="-1320.6"
     cy="-1254.4"
     r="0"
     fill="#5e4aa6"
     id="circle953" />
  <circle
     cx="-221.03999"
     cy="11.089"
     r="0"
     fill="#5e4aa6"
     fill-rule="evenodd"
     id="circle955" />
  <g
     transform="matrix(0.85598768,0,0,0.85598768,-310.88421,-423.21251)"
     id="g15">
    <g
       stroke-width="5.89744"
       transform="matrix(0.42585789,0,0,0.42585789,207.21572,322.70734)"
       id="g11">
      <rect
         fill="url(#a)"
         height="122.6666"
         ry="61.333302"
         width="122.66666"
         x="392.7048"
         y="429.39798"
         id="rect7"
         style="fill:url(#a)" />
      <rect
         fill="none"
         height="122.6666"
         ry="61.333298"
         width="122.66665"
         x="392.7048"
         y="429.90915"
         id="rect9" />
    </g>
    <path
       d="m 426.84712,531.17582 c -0.002,-0.0654 -0.004,-0.13057 -0.006,-0.19578 -0.005,-0.14345 -0.01,-0.28655 -0.0162,-0.42946 -0.004,-0.0738 -0.008,-0.14763 -0.0113,-0.22132 -0.008,-0.13873 -0.0165,-0.27712 -0.0263,-0.4153 -0.005,-0.0695 -0.01,-0.13882 -0.0151,-0.20814 -0.013,-0.16629 -0.0279,-0.33192 -0.0441,-0.49726 -0.004,-0.0381 -0.007,-0.0763 -0.0106,-0.11447 -0.0206,-0.20158 -0.0438,-0.40242 -0.0689,-0.60271 -0.008,-0.0592 -0.0159,-0.11812 -0.0237,-0.17724 -0.019,-0.14269 -0.0385,-0.28505 -0.0599,-0.42699 -0.0108,-0.0731 -0.0223,-0.14612 -0.0338,-0.21907 -0.0205,-0.13045 -0.0422,-0.26059 -0.0647,-0.39041 -0.0126,-0.0726 -0.0251,-0.14515 -0.0383,-0.21747 -0.0258,-0.1415 -0.0531,-0.28247 -0.0812,-0.42323 -0.0112,-0.0567 -0.022,-0.11394 -0.0335,-0.17059 -0.0399,-0.1931 -0.0817,-0.38546 -0.12565,-0.57697 -0.0118,-0.0518 -0.0249,-0.10328 -0.0372,-0.15491 -0.0337,-0.14236 -0.068,-0.2843 -0.10384,-0.4257 -0.0185,-0.0728 -0.038,-0.14549 -0.0569,-0.21811 -0.0319,-0.12156 -0.0647,-0.24289 -0.0983,-0.36371 -0.0209,-0.0751 -0.0421,-0.14986 -0.0636,-0.22463 -0.0358,-0.12403 -0.0728,-0.24741 -0.11028,-0.37066 -0.0203,-0.0672 -0.0404,-0.13477 -0.0613,-0.20169 -0.0573,-0.18337 -0.1164,-0.36606 -0.17777,-0.5476 -0.0132,-0.0395 -0.0277,-0.0785 -0.0412,-0.11811 -0.0501,-0.14612 -0.10118,-0.29192 -0.15395,-0.43696 -0.0262,-0.072 -0.0532,-0.14355 -0.08,-0.21533 -0.0422,-0.11287 -0.0848,-0.22542 -0.12842,-0.33751 -0.0296,-0.0765 -0.0598,-0.15279 -0.0902,-0.22884 -0.0439,-0.10974 -0.0888,-0.21907 -0.13411,-0.32819 -0.0303,-0.073 -0.0604,-0.1459 -0.0914,-0.21853 -0.0554,-0.13003 -0.11233,-0.2592 -0.16982,-0.38816 -0.0223,-0.05 -0.0439,-0.10065 -0.0665,-0.1505 -0.0766,-0.1691 -0.15524,-0.3371 -0.23539,-0.50425 -0.0334,-0.0697 -0.0678,-0.13871 -0.10171,-0.20802 -0.0517,-0.10547 -0.10374,-0.21081 -0.15674,-0.31542 -0.0383,-0.0755 -0.0772,-0.15062 -0.11607,-0.22573 -0.0515,-0.0993 -0.10375,-0.19814 -0.15653,-0.29673 -0.0396,-0.074 -0.0793,-0.14827 -0.11964,-0.22197 -0.0584,-0.1068 -0.11822,-0.21265 -0.17808,-0.31843 -0.0355,-0.0626 -0.0702,-0.12572 -0.1061,-0.18807 -0.0919,-0.15932 -0.18549,-0.31745 -0.28066,-0.47462 -0.0385,-0.0638 -0.0783,-0.12682 -0.11747,-0.19021 -0.0623,-0.10099 -0.12478,-0.20169 -0.1884,-0.30169 -0.0458,-0.0719 -0.092,-0.14333 -0.13859,-0.21478 -0.0594,-0.0916 -0.11943,-0.18282 -0.18004,-0.27357 -0.0477,-0.0715 -0.0957,-0.14301 -0.14408,-0.21403 -0.0644,-0.0945 -0.1298,-0.18828 -0.19547,-0.28195 -0.045,-0.0642 -0.0895,-0.12874 -0.13507,-0.19246 -0.10599,-0.14837 -0.21328,-0.2959 -0.32227,-0.44201 -2.8706,-3.84742 -6.77006,-6.8813 -11.29014,-8.69664 -2.1e-4,-1.1e-4 -4.2e-4,-1.1e-4 -6.3e-4,-2.2e-4 -0.17983,-0.0722 -0.3608,-0.14227 -0.54254,-0.21061 -0.0131,-0.006 -0.026,-0.0101 -0.039,-0.0148 -0.17231,-0.0645 -0.34567,-0.12681 -0.51968,-0.18774 -0.0234,-0.008 -0.0468,-0.0166 -0.0703,-0.0246 -0.16597,-0.0575 -0.3328,-0.11329 -0.50026,-0.16758 -0.0323,-0.0109 -0.0646,-0.0212 -0.0969,-0.0315 -0.16028,-0.0512 -0.32143,-0.10086 -0.4831,-0.14924 -0.0408,-0.0122 -0.0814,-0.0243 -0.12208,-0.0363 -0.15492,-0.0454 -0.31059,-0.0895 -0.46669,-0.13217 -0.0487,-0.0134 -0.0975,-0.0267 -0.14644,-0.0397 -0.14966,-0.0399 -0.29975,-0.0787 -0.45049,-0.11608 -0.0565,-0.014 -0.1134,-0.0278 -0.17016,-0.0415 -0.14461,-0.0349 -0.28945,-0.0687 -0.43502,-0.1012 -0.064,-0.0143 -0.12821,-0.0281 -0.19236,-0.042 -0.13979,-0.03 -0.27959,-0.0593 -0.42013,-0.0872 -0.0717,-0.0142 -0.14355,-0.0277 -0.21543,-0.0413 -0.13431,-0.0254 -0.26885,-0.0503 -0.40392,-0.0738 -0.0795,-0.0138 -0.15942,-0.0267 -0.23923,-0.0397 -0.12875,-0.0211 -0.25761,-0.042 -0.38699,-0.0612 -0.0877,-0.0131 -0.17572,-0.0247 -0.26359,-0.037 -0.12295,-0.017 -0.24589,-0.0342 -0.36949,-0.0494 -0.0959,-0.012 -0.19257,-0.0222 -0.28892,-0.0331 -0.11672,-0.0131 -0.23333,-0.0267 -0.3506,-0.0383 -0.10567,-0.0108 -0.21188,-0.0189 -0.31798,-0.0283 -0.1091,-0.01 -0.2179,-0.0195 -0.32743,-0.0278 -0.11834,-0.009 -0.23743,-0.0153 -0.35618,-0.0225 -0.0984,-0.006 -0.19645,-0.013 -0.29515,-0.0179 -0.13893,-0.007 -0.27861,-0.0111 -0.41797,-0.0159 -0.0797,-0.002 -0.15921,-0.007 -0.23924,-0.009 -0.22026,-0.006 -0.44094,-0.009 -0.66236,-0.009 -0.22145,0 -0.44213,0.003 -0.66227,0.009 -0.0802,0.002 -0.15963,0.006 -0.23958,0.009 -0.13935,0.005 -0.27882,0.009 -0.41764,0.0159 -0.0989,0.005 -0.19719,0.012 -0.29568,0.0179 -0.11855,0.008 -0.23742,0.0138 -0.35565,0.0225 -0.10964,0.008 -0.21875,0.0184 -0.32807,0.0278 -0.10578,0.009 -0.21188,0.0177 -0.31724,0.0283 -0.11758,0.0115 -0.23452,0.0252 -0.35156,0.0383 -0.096,0.0109 -0.19215,0.021 -0.28786,0.033 -0.1239,0.0153 -0.24717,0.0325 -0.37055,0.0495 -0.0876,0.0121 -0.1753,0.0238 -0.26252,0.0367 -0.12982,0.0193 -0.25899,0.0403 -0.38816,0.0614 -0.0793,0.0129 -0.15878,0.0257 -0.23794,0.0395 -0.13563,0.0234 -0.27047,0.0486 -0.40533,0.0741 -0.0714,0.0136 -0.14269,0.0268 -0.21382,0.041 -0.14096,0.0281 -0.28151,0.0573 -0.42173,0.0875 -0.0636,0.0136 -0.12713,0.0274 -0.19053,0.0415 -0.14613,0.0326 -0.29193,0.0665 -0.43708,0.10163 -0.0559,0.0136 -0.1119,0.0272 -0.16769,0.041 -0.15158,0.0378 -0.30255,0.0767 -0.45317,0.11683 -0.0478,0.0128 -0.0958,0.0258 -0.14355,0.0389 -0.15705,0.0429 -0.31359,0.0872 -0.46957,0.13304 -0.0396,0.0115 -0.0791,0.0236 -0.11844,0.0353 -0.16308,0.0486 -0.32529,0.0986 -0.48686,0.15042 -0.0309,0.01 -0.0617,0.02 -0.0925,0.03 -0.16908,0.0547 -0.33752,0.11103 -0.50498,0.16918 -0.0214,0.008 -0.0429,0.0151 -0.0643,0.0227 -0.17605,0.0615 -0.35136,0.12478 -0.52569,0.18999 -0.0104,0.005 -0.0208,0.008 -0.0311,0.0119 -4.75933,1.78799 -8.86294,4.9152 -11.84992,8.9245 -0.1046,0.14044 -0.20781,0.28184 -0.30963,0.42443 -0.048,0.0673 -0.0953,0.13561 -0.14268,0.2034 -0.063,0.09 -0.12585,0.18003 -0.18776,0.27078 -0.0499,0.0733 -0.0992,0.14688 -0.14846,0.22058 -0.059,0.0883 -0.11727,0.17703 -0.17521,0.26607 -0.0477,0.0737 -0.0956,0.14719 -0.14268,0.22133 -0.0614,0.0965 -0.12156,0.19363 -0.18163,0.29094 -0.0413,0.0669 -0.0831,0.13315 -0.1237,0.20031 -0.0944,0.1561 -0.18732,0.31305 -0.27862,0.47129 -0.0374,0.0647 -0.0734,0.13016 -0.11018,0.19516 -0.0587,0.10349 -0.11705,0.20716 -0.17423,0.31155 -0.041,0.075 -0.0813,0.1502 -0.12156,0.2255 -0.052,0.0971 -0.10353,0.19462 -0.15428,0.29258 -0.0396,0.076 -0.0788,0.15234 -0.11778,0.22894 -0.0523,0.10327 -0.10364,0.20727 -0.1546,0.31133 -0.0345,0.0706 -0.0696,0.14066 -0.10353,0.21157 -0.079,0.16478 -0.15652,0.33033 -0.23206,0.49693 -0.0241,0.053 -0.047,0.10657 -0.0707,0.15965 -0.0569,0.12799 -0.1135,0.25618 -0.16842,0.38526 -0.0312,0.073 -0.0612,0.14622 -0.0916,0.21938 -0.0452,0.10876 -0.09,0.2179 -0.13379,0.32734 -0.0305,0.0762 -0.0605,0.15265 -0.0905,0.22926 -0.0435,0.11199 -0.0861,0.22433 -0.12809,0.33708 -0.0268,0.0719 -0.0539,0.14355 -0.0802,0.21586 -0.0524,0.14472 -0.10341,0.2901 -0.15352,0.4359 -0.0136,0.0398 -0.0281,0.0792 -0.0415,0.11897 -0.0613,0.18164 -0.12038,0.36434 -0.17777,0.54769 -0.0209,0.0669 -0.041,0.13421 -0.0614,0.20137 -0.0376,0.12316 -0.0745,0.24664 -0.11019,0.37055 -0.0216,0.0748 -0.0428,0.14978 -0.0636,0.22498 -0.0337,0.12101 -0.0665,0.24234 -0.0984,0.36402 -0.0191,0.0724 -0.0383,0.14461 -0.0566,0.21725 -0.0361,0.14193 -0.0706,0.2844 -0.10439,0.4272 -0.0121,0.0514 -0.0248,0.1024 -0.0368,0.15374 -0.044,0.19171 -0.0859,0.38418 -0.12562,0.5774 -0.0116,0.0564 -0.0222,0.11329 -0.0335,0.16983 -0.0281,0.14097 -0.0553,0.28205 -0.0813,0.42387 -0.013,0.0723 -0.0257,0.14484 -0.0383,0.21726 -0.0225,0.13003 -0.0441,0.26038 -0.0647,0.39105 -0.0114,0.0728 -0.0229,0.14536 -0.0337,0.21831 -0.0212,0.14237 -0.041,0.28518 -0.06,0.42829 -0.008,0.0588 -0.0162,0.11715 -0.0237,0.17605 -0.0251,0.2003 -0.0482,0.40124 -0.0689,0.60293 -0.004,0.0382 -0.007,0.0763 -0.0105,0.11448 -0.0162,0.16533 -0.0311,0.33097 -0.0441,0.49725 -0.006,0.0693 -0.0101,0.13872 -0.0151,0.20814 -0.01,0.13818 -0.0187,0.27657 -0.0264,0.41529 -0.004,0.0737 -0.008,0.14753 -0.0113,0.22133 -0.007,0.1428 -0.0118,0.28601 -0.0162,0.42945 -0.002,0.0653 -0.005,0.13035 -0.006,0.1958 -0.005,0.20633 -0.008,0.41393 -0.008,0.62216 0,0.18636 0.003,0.37206 0.007,0.55747 0.002,0.0835 0.004,0.16693 0.007,0.25017 0.002,0.0715 0.005,0.1428 0.008,0.21413 0.18066,4.72286 1.607,9.1259 3.96038,12.8906 3.1e-4,4.2e-4 5.2e-4,8.5e-4 7.5e-4,9.7e-4 0.44597,0.71321 0.925,1.40336 1.43535,2.06852 0.003,0.003 0.006,0.008 0.009,0.011 0.50498,0.65754 1.04012,1.29052 1.60377,1.89689 0.0131,0.014 0.0262,0.0282 0.0393,0.0422 0.10719,0.11469 0.21511,0.22873 0.3242,0.34149 0.005,0.005 0.009,0.01 0.0136,0.014 0.33913,0.34995 0.6879,0.69049 1.0458,1.02123 0.0113,0.0109 0.0227,0.0211 0.0341,0.0316 0.106,0.0975 0.21296,0.19409 0.32057,0.28989 0.0295,0.0265 0.0591,0.0526 0.0889,0.079 0.10526,0.0928 0.21081,0.18496 0.31745,0.27605 0.0246,0.0211 0.0497,0.042 0.0744,0.063 0.3403,0.28881 0.68811,0.56903 1.04312,0.84057 0.0354,0.0272 0.0707,0.0546 0.10632,0.0816 0.10127,0.0767 0.20341,0.15234 0.30598,0.22755 0.0484,0.0357 0.0968,0.071 0.14547,0.10623 0.10046,0.0727 0.20094,0.14483 0.30233,0.21607 0.0476,0.0335 0.0956,0.0663 0.14344,0.0994 0.3372,0.23356 0.68007,0.4594 1.02832,0.6774 0.0587,0.0367 0.11704,0.0736 0.17594,0.10974 0.0966,0.0595 0.19397,0.11791 0.29138,0.17605 0.0657,0.0394 0.13164,0.0782 0.19772,0.11684 0.096,0.056 0.19215,0.11201 0.28881,0.16704 0.0683,0.0388 0.1369,0.0767 0.20556,0.1149 0.33677,0.18742 0.67782,0.36745 1.02338,0.54027 0.0762,0.0382 0.15213,0.0763 0.22873,0.11363 0.0946,0.0462 0.18989,0.0915 0.28505,0.13657 0.0782,0.0371 0.15674,0.0737 0.23539,0.10985 0.0953,0.0439 0.19033,0.0875 0.28623,0.13025 0.0808,0.0361 0.162,0.0712 0.24321,0.10645 0.0948,0.0412 0.18936,0.0828 0.28473,0.12294 2.1e-4,1.1e-4 4.3e-4,2.2e-4 7.5e-4,3.2e-4 3.12969,1.31531 6.56696,2.0426 10.17427,2.0426 3.55882,0 6.95157,-0.70872 10.04704,-1.99033 2.1e-4,-10e-5 5.3e-4,-2.1e-4 7.4e-4,-3.2e-4 0.15922,-0.066 0.31756,-0.13368 0.47527,-0.20267 0.016,-0.007 0.0321,-0.014 0.048,-0.021 0.15427,-0.068 0.3079,-0.13711 0.46079,-0.20792 0.013,-0.006 0.026,-0.0121 0.039,-0.0182 0.80367,-0.37378 1.58534,-0.78692 2.34255,-1.23709 0.0159,-0.01 0.0318,-0.0188 0.0477,-0.0284 0.13561,-0.0811 0.27025,-0.16328 0.40425,-0.24664 0.0277,-0.0172 0.0553,-0.0345 0.0829,-0.0517 0.13013,-0.0816 0.25952,-0.16413 0.38815,-0.24804 0.0265,-0.0173 0.0528,-0.0349 0.0794,-0.0523 0.13217,-0.0869 0.26393,-0.17446 0.3945,-0.2636 0.005,-0.003 0.0104,-0.008 0.0159,-0.0109 0.42302,-0.28956 0.83713,-0.59134 1.24203,-0.90451 0.0209,-0.0162 0.0422,-0.0321 0.0631,-0.0484 0.10909,-0.085 0.21723,-0.17134 0.32484,-0.2579 0.0437,-0.0351 0.0874,-0.0701 0.131,-0.10548 0.0997,-0.0812 0.1988,-0.16339 0.29728,-0.2461 0.05,-0.042 0.0999,-0.0842 0.14967,-0.12649 0.0947,-0.0808 0.18902,-0.16178 0.28258,-0.24375 0.0516,-0.0451 0.10268,-0.0911 0.15384,-0.13657 0.092,-0.082 0.184,-0.16372 0.27476,-0.24696 0.0477,-0.0438 0.0948,-0.0883 0.14226,-0.1324 0.19568,-0.18184 0.3889,-0.36648 0.57901,-0.55412 0.0265,-0.0261 0.0534,-0.0516 0.0797,-0.0778 0.0761,-0.0756 0.15062,-0.15255 0.22572,-0.22915 0.0623,-0.0637 0.12488,-0.12691 0.18656,-0.19118 0.0706,-0.0734 0.14012,-0.14763 0.20964,-0.22176 0.0652,-0.0696 0.13035,-0.13914 0.19482,-0.20931 0.0662,-0.0722 0.13207,-0.14494 0.19772,-0.21789 0.0672,-0.0748 0.1338,-0.14999 0.20009,-0.22551 0.0618,-0.0705 0.12359,-0.14107 0.18486,-0.21232 0.0707,-0.0824 0.14064,-0.16543 0.21027,-0.24869 0.0554,-0.0661 0.11125,-0.13185 0.16597,-0.19858 0.0873,-0.10634 0.17327,-0.21382 0.25898,-0.32152 0.0358,-0.045 0.0724,-0.0893 0.10771,-0.13443 0.11812,-0.1504 0.23431,-0.30233 0.34911,-0.45531 0.0422,-0.0559 0.0832,-0.11296 0.12466,-0.1693 0.0757,-0.10262 0.15128,-0.20544 0.22551,-0.30919 0.0457,-0.0637 0.0906,-0.12798 0.13572,-0.19225 0.0691,-0.0983 0.13774,-0.19719 0.20567,-0.29664 0.0449,-0.0658 0.0895,-0.13195 0.13377,-0.19826 0.0678,-0.1012 0.13453,-0.20299 0.20083,-0.30523 0.0417,-0.064 0.0833,-0.12799 0.12425,-0.19247 0.0712,-0.11188 0.14118,-0.22465 0.2108,-0.33773 0.034,-0.0552 0.0687,-0.11007 0.10225,-0.16554 0.10065,-0.16607 0.19955,-0.33322 0.29654,-0.50164 0.002,-0.003 0.003,-0.006 0.005,-0.009 1.1e-4,-10e-5 1.1e-4,-3.3e-4 2.1e-4,-4.3e-4 2.05578,-3.57555 3.29265,-7.681 3.46023,-12.06043 0.003,-0.0713 0.006,-0.14259 0.008,-0.21414 0.003,-0.0834 0.005,-0.16671 0.007,-0.25018 0.004,-0.18538 0.007,-0.3711 0.007,-0.55745 0,-0.20834 -0.003,-0.41595 -0.008,-0.6231 z m -25.20388,-17.44296 6.63207,-4.81844 c 0.56957,0.19203 1.13324,0.40586 1.69036,0.64156 2.87424,1.21574 5.45604,2.95643 7.67359,5.17398 1.20983,1.20994 2.27678,2.52901 3.19492,3.94419 l -2.31465,7.30839 -6.89878,2.26487 -9.97751,-7.24885 z m -18.14161,0.9971 c 2.21756,-2.21755 4.79923,-3.95824 7.67349,-5.17398 0.55701,-0.2356 1.12069,-0.44953 1.69047,-0.64156 l 6.63197,4.81844 v 7.2657 l -10.03084,7.2878 -6.83441,-2.26928 -2.32559,-7.34283 c 0.91824,-1.41518 1.98507,-2.73435 3.19491,-3.94429 z m 4.21873,32.47848 -6.54722,-1.03711 c -1.14128,-1.5362 -2.09407,-3.20071 -2.84538,-4.97745 -1.23054,-2.9091 -1.8661,-5.99684 -1.89346,-9.18049 l 5.53199,-3.95672 6.83861,2.27064 3.87391,11.92257 z m 23.29724,6.3584 c -0.34621,0.16618 -0.69671,0.32441 -1.05193,0.47472 -2.97455,1.25824 -6.13556,1.89614 -9.39527,1.89614 -3.25963,0 -6.42073,-0.6379 -9.39518,-1.89614 -0.39953,-0.16897 -0.79282,-0.3492 -1.18088,-0.53834 l -0.75667,-4.77768 5.34703,-5.34704 h 12.72237 l 4.59625,4.59616 z M 422.81315,541.194 c -0.6155,1.4552 -1.36617,2.83519 -2.2446,4.13118 l -7.14823,1.13206 -4.77391,-4.77403 3.71031,-11.41929 6.78806,-2.22862 5.5618,3.97799 c -0.0274,3.18386 -0.6629,6.2716 -1.89343,9.18071 z"
       fill-opacity="0.71371"
       id="path13" />
  </g>
  <path
     d="m 45.363588,25.333333 -1.111111,-5.555555 -2.222223,-2.222222 h -5.555555 c -1.111111,1.111111 -2.222222,2.222222 -4.415667,2.222222 -2.193329,0 -3.362106,-1.111111 -4.473218,-2.222222 H 23.14137 l -2.222222,2.222222 -2.222222,5.555555 4.444444,3.333334 1.111111,-3.333334 V 46.444444 H 39.808032 V 25.333333 l 1.111111,3.333334 z"
     style="fill:#ffffff;fill-opacity:1;fill-rule:evenodd;stroke:#444445;stroke-width:1.11111;stroke-opacity:1"
     id="path999" />
  <path
     d="m 27.000002,27 v 2 h 1 v 6 h -1 v 2 h 3.999996 v -2 h -0.999996 v -8 z m 5.999996,0 v 2 h 1 v 6 h -1 v 2 h 4 v -2 h -1 v -8 z"
     style="fill:#3f4040;paint-order:normal;fill-opacity:1"
     id="path1001" />
</svg>
