<?xml version="1.0" encoding="UTF-8"?>
<svg width="64" height="64" version="1.1" viewBox="0 0 16.933 16.933" xmlns="http://www.w3.org/2000/svg" xmlns:cc="http://creativecommons.org/ns#" xmlns:dc="http://purl.org/dc/elements/1.1/" xmlns:rdf="http://www.w3.org/1999/02/22-rdf-syntax-ns#" xmlns:xlink="http://www.w3.org/1999/xlink">
 <defs>
  <filter id="filter2076" x="-.048" y="-.048" width="1.096" height="1.096" color-interpolation-filters="sRGB">
   <feGaussianBlur stdDeviation="1.1"/>
  </filter>
  <linearGradient id="linearGradient1828" x1="145" x2="200" y1="59" y2="4" gradientTransform="matrix(.26458 0 0 .26458 -45.774 4.4277)" gradientUnits="userSpaceOnUse">
   <stop stop-color="#e1e1e1" offset="0"/>
   <stop stop-color="#f5f5f5" offset="1"/>
  </linearGradient>
  <linearGradient id="linearGradient2211" x1="8" x2="56" y1="36.227" y2="36.227" gradientTransform="matrix(.26458 0 0 .26458 -8.6003 4.2955)" gradientUnits="userSpaceOnUse">
   <stop stop-color="#32c8ff" offset="0"/>
   <stop stop-color="#32abff" offset="1"/>
  </linearGradient>
 </defs>
 <metadata>
  <rdf:RDF>
   <cc:Work rdf:about="">
    <dc:format>image/svg+xml</dc:format>
    <dc:type rdf:resource="http://purl.org/dc/dcmitype/StillImage"/>
    <dc:title/>
   </cc:Work>
  </rdf:RDF>
 </metadata>
 <g transform="translate(8.6003 -4.2955)">
  <rect transform="matrix(.26458 0 0 .26458 -8.6003 4.2955)" x="4.5" y="4.5" width="55" height="55" rx="13.002" ry="13.002" filter="url(#filter2076)" opacity=".3"/>
  <rect x="-7.4097" y="5.4861" width="14.552" height="14.552" rx="3.4401" ry="3.4401" fill="#f1f3f7" stroke-width=".26458"/>
  <rect x="-6.7483" y="6.1475" width="13.229" height="13.229" rx="3.1274" ry="3.1274" fill="url(#linearGradient1828)" fill-opacity="0" stroke-width=".24052"/>
  <g>
   <rect x="-6.4836" y="8.5889" width="12.7" height="10.583" ry="2.4316" fill="url(#linearGradient2211)" stroke-linecap="round" stroke-linejoin="round" stroke-width=".53476" style="paint-order:stroke fill markers"/>
   <g stroke-width=".13229">
    <circle cx="-4.5781" cy="7.2766" r=".52917" fill="#ffd34f"/>
    <circle cx="-2.9906" cy="7.2766" r=".52917" fill="#3bcf32"/>
    <circle cx="-1.4031" cy="7.2766" r=".52917" fill="#fd4605"/>
   </g>
  </g>
  <path d="m-4.7093 13.336v-0.56925l1.8521 1.0543v0.53734l-1.8521 1.0543v-0.56925l1.3941-0.75142z" fill="#fff" stroke-width=".092861"/>
  <rect x="-2.0634" y="15.673" width="2.1166" height=".52917" rx="0" ry="0" fill="#fff"/>
 </g>
</svg>
