<?xml version="1.0" encoding="UTF-8" standalone="no"?>
<svg
   xmlns:dc="http://purl.org/dc/elements/1.1/"
   xmlns:cc="http://creativecommons.org/ns#"
   xmlns:rdf="http://www.w3.org/1999/02/22-rdf-syntax-ns#"
   xmlns:svg="http://www.w3.org/2000/svg"
   xmlns="http://www.w3.org/2000/svg"
   xmlns:xlink="http://www.w3.org/1999/xlink"
   xmlns:sodipodi="http://sodipodi.sourceforge.net/DTD/sodipodi-0.dtd"
   xmlns:inkscape="http://www.inkscape.org/namespaces/inkscape"
   viewBox="0 0 64 64"
   version="1.1"
   id="svg29"
   sodipodi:docname="caffeine.svg"
   width="64"
   height="64"
   inkscape:version="1.0.2 (e86c870879, 2021-01-15)">
  <metadata
     id="metadata35">
    <rdf:RDF>
      <cc:Work
         rdf:about="">
        <dc:format>image/svg+xml</dc:format>
        <dc:type
           rdf:resource="http://purl.org/dc/dcmitype/StillImage" />
        <dc:title></dc:title>
      </cc:Work>
    </rdf:RDF>
  </metadata>
  <defs
     id="defs33">
    <linearGradient
       id="linearGradient891"
       x1="26.678"
       x2="26.678"
       y1="35.381"
       y2="17.782"
       gradientUnits="userSpaceOnUse">
      <stop
         stop-color="#e14664"
         offset="0"
         id="stop862" />
      <stop
         stop-color="#ff5c7b"
         offset="1"
         id="stop864" />
    </linearGradient>
    <linearGradient
       id="linearGradient899"
       x1="37.2"
       x2="37.2"
       y1="36.124"
       y2="18.096"
       gradientUnits="userSpaceOnUse">
      <stop
         stop-color="#aad22d"
         offset="0"
         id="stop867" />
      <stop
         stop-color="#dbf97c"
         offset="1"
         id="stop869" />
    </linearGradient>
    <linearGradient
       id="linearGradient907"
       x1="23.688"
       x2="23.688"
       y1="45.978"
       y2="31.186"
       gradientUnits="userSpaceOnUse">
      <stop
         stop-color="#0077c2"
         offset="0"
         id="stop872" />
      <stop
         stop-color="#1ba7ff"
         offset="1"
         id="stop874" />
    </linearGradient>
    <linearGradient
       id="linearGradient915"
       x1="34.38"
       x2="34.38"
       y1="46.935"
       y2="30.814"
       gradientUnits="userSpaceOnUse">
      <stop
         stop-color="#1abda2"
         offset="0"
         id="stop877" />
      <stop
         stop-color="#27f1d1"
         stop-opacity=".99608"
         offset="1"
         id="stop879" />
    </linearGradient>
    <linearGradient
       id="b-3"
       x1="399.57"
       x2="399.57"
       y1="545.8"
       y2="517.8"
       gradientTransform="matrix(2.1429,0,0,2.1429,-680.66,-1107.5)"
       gradientUnits="userSpaceOnUse">
      <stop
         stop-color="#3889e9"
         offset="0"
         id="stop882" />
      <stop
         stop-color="#5ea5fb"
         offset="1"
         id="stop884" />
    </linearGradient>
    <style
       type="text/css"
       id="style887" />
    <style
       type="text/css"
       id="style889" />
    <filter
       id="filter1057"
       x="-.027"
       y="-.027"
       width="1.054"
       height="1.054"
       color-interpolation-filters="sRGB">
      <feGaussianBlur
         stdDeviation="0.61875"
         id="feGaussianBlur891" />
    </filter>
    <linearGradient
       id="linearGradient1053"
       x1="-127"
       x2="-72"
       y1="60"
       y2="5"
       gradientTransform="translate(203.93,-0.054156)"
       gradientUnits="userSpaceOnUse">
      <stop
         stop-color="#1d2123"
         offset="0"
         id="stop894" />
      <stop
         stop-color="#33393e"
         stop-opacity=".99608"
         offset="1"
         id="stop896" />
    </linearGradient>
    <linearGradient
       inkscape:collect="always"
       xlink:href="#a"
       id="linearGradient1011"
       gradientUnits="userSpaceOnUse"
       x1="290.41052"
       y1="648.83472"
       x2="290.05167"
       y2="625.01868" />
    <linearGradient
       inkscape:collect="always"
       xlink:href="#a"
       id="linearGradient1013"
       gradientUnits="userSpaceOnUse"
       x1="290.41052"
       y1="648.83472"
       x2="290.05167"
       y2="625.01868" />
    <linearGradient
       inkscape:collect="always"
       xlink:href="#a"
       id="linearGradient1015"
       gradientUnits="userSpaceOnUse"
       x1="290.41052"
       y1="648.83472"
       x2="290.05167"
       y2="625.01868" />
    <linearGradient
       inkscape:collect="always"
       xlink:href="#a"
       id="linearGradient1017"
       gradientUnits="userSpaceOnUse"
       x1="290.41052"
       y1="648.83472"
       x2="290.05167"
       y2="625.01868" />
    <linearGradient
       inkscape:collect="always"
       xlink:href="#a"
       id="linearGradient1019"
       gradientUnits="userSpaceOnUse"
       x1="290.41052"
       y1="648.83472"
       x2="290.05167"
       y2="625.01868" />
  </defs>
  <sodipodi:namedview
     pagecolor="#ffffff"
     bordercolor="#666666"
     borderopacity="1"
     objecttolerance="10"
     gridtolerance="10"
     guidetolerance="10"
     inkscape:pageopacity="0"
     inkscape:pageshadow="2"
     inkscape:window-width="1920"
     inkscape:window-height="935"
     id="namedview31"
     showgrid="false"
     inkscape:zoom="4.0364583"
     inkscape:cx="-19.693536"
     inkscape:cy="36.219522"
     inkscape:window-x="0"
     inkscape:window-y="38"
     inkscape:window-maximized="1"
     inkscape:current-layer="svg29" />
  <linearGradient
     id="a"
     gradientTransform="rotate(-90,23.999998,24)"
     gradientUnits="userSpaceOnUse"
     x1="1"
     x2="47">
    <stop
       offset="0"
       stop-color="#e4e4e4"
       id="stop2" />
    <stop
       offset="1"
       stop-color="#eee"
       id="stop4" />
  </linearGradient>
  <linearGradient
     id="b"
     gradientUnits="userSpaceOnUse"
     x1="23.999928"
     x2="23.999928"
     y1="47.000107"
     y2="1.0000616"
     gradientTransform="matrix(1.3043478,0,0,1.3043478,74.867593,-0.30434935)">
    <stop
       offset="0"
       stop-color="#2a2c2f"
       id="stop7" />
    <stop
       offset="1"
       stop-color="#424649"
       id="stop9" />
  </linearGradient>
  <linearGradient
     gradientUnits="userSpaceOnUse"
     x1="285.00021"
     x2="297.00021"
     xlink:href="#a"
     y1="636.74103"
     y2="636.74103"
     id="linearGradient12" />
  <linearGradient
     id="c"
     gradientUnits="userSpaceOnUse"
     x1="290.41052"
     x2="290.05167"
     xlink:href="#a"
     y1="648.83472"
     y2="625.01868" />
  <g
     transform="translate(-72.44)"
     id="g907">
    <rect
       x="76.934998"
       y="4.9558001"
       width="55"
       height="55"
       ry="15"
       fill="#141414"
       filter="url(#filter1057)"
       opacity="0.3"
       stroke-linecap="round"
       stroke-width="2.7444"
       id="rect901" />
    <rect
       x="76.934998"
       y="4.9558001"
       width="55"
       height="55"
       ry="15"
       fill="url(#linearGradient1053)"
       stroke-linecap="round"
       stroke-width="2.7444"
       id="rect903"
       style="fill:url(#linearGradient1053)" />
    <circle
       cx="104.44"
       cy="32"
       r="30.000999"
       fill-opacity="0"
       stroke-width="1.5715"
       id="circle905" />
  </g>
  <g
     transform="matrix(3.7796,0,0,3.7796,145.7,0.45588)"
     fill="#5e4aa6"
     stroke-width="0.26458"
     id="g941">
    <circle
       cx="-330.35001"
       cy="-328.37"
       r="0"
       image-rendering="optimizeSpeed"
       id="circle919" />
    <circle
       cx="-330.35001"
       cy="-328.38"
       r="0"
       image-rendering="optimizeSpeed"
       id="circle921" />
    <circle
       cx="-330.35001"
       cy="-328.38"
       r="0"
       image-rendering="optimizeSpeed"
       id="circle923" />
    <circle
       cx="-352.63"
       cy="-336.84"
       r="0"
       image-rendering="optimizeSpeed"
       id="circle925" />
    <circle
       cx="-330.35001"
       cy="-328.37"
       r="0"
       image-rendering="optimizeSpeed"
       id="circle927" />
    <circle
       cx="-305.84"
       cy="-328.26999"
       r="0"
       image-rendering="optimizeSpeed"
       id="circle929" />
    <circle
       cx="-305.84"
       cy="-328.28"
       r="0"
       image-rendering="optimizeSpeed"
       id="circle931" />
    <circle
       cx="-305.84"
       cy="-328.28"
       r="0"
       image-rendering="optimizeSpeed"
       id="circle933" />
    <circle
       cx="-328.12"
       cy="-336.73999"
       r="0"
       image-rendering="optimizeSpeed"
       id="circle935" />
    <circle
       cx="-305.84"
       cy="-328.26999"
       r="0"
       image-rendering="optimizeSpeed"
       id="circle937" />
    <circle
       cx="-305.03"
       cy="-328.69"
       r="0"
       id="circle939" />
  </g>
  <circle
     cx="177.71001"
     cy="32"
     r="0"
     fill="url(#b-3)"
     stroke-width="1.5715"
     id="circle943"
     style="fill:url(#b-3)" />
  <circle
     cx="-1176.8"
     cy="-1241.1"
     r="0"
     fill="#5e4aa6"
     id="circle945" />
  <circle
     cx="-77.313004"
     cy="24.311001"
     r="0"
     fill="#5e4aa6"
     fill-rule="evenodd"
     id="circle947" />
  <g
     fill="url(#c)"
     transform="matrix(2.5007468,0,0,2.5007468,-692.73434,-1560.328)"
     id="g27"
     style="fill:url(#c)">
    <path
       d="m 295.66688,637 h -1.33334 v -2 h 1.33334 z m 0,-3.33333 h -10.66667 v 6.66666 c 0,1.47276 1.19391,2.66667 2.66667,2.66667 h 4 c 1.47274,0 2.66666,-1.19391 2.66666,-2.66667 v -2 h 1.33334 c 0.73637,0 1.33333,-0.59696 1.33333,-1.33333 v -2 c 0,-0.74 -0.6,-1.33333 -1.33333,-1.33333 z"
       id="path17"
       style="fill:url(#linearGradient1011)" />
    <path
       d="m 286.60282,630.482 c 0,0 -0.1458,0.10908 -0.2912,0.27273 -0.14524,0.16348 -0.31893,0.38933 -0.32139,0.69986 -0.002,0.30445 0.15695,0.51985 0.26266,0.6772 0.1057,0.15735 0.16404,0.25422 0.15944,0.38182 -0.009,0.24106 -0.36504,0.47832 -0.36504,0.47832 l 0.26769,0.49007 c 0,0 0.63208,-0.30182 0.65539,-0.94825 0.0114,-0.31566 -0.1435,-0.54965 -0.25343,-0.71329 -0.10993,-0.16364 -0.16942,-0.26 -0.16867,-0.36168 3.3e-4,-0.0661 0.0767,-0.21546 0.18126,-0.33314 0.10456,-0.11769 0.20811,-0.19637 0.20811,-0.19637 z"
       id="path19"
       style="fill:url(#linearGradient1013)" />
    <path
       d="m 288.60282,630.482 c 0,0 -0.1458,0.10908 -0.2912,0.27273 -0.14524,0.16348 -0.31893,0.38933 -0.32139,0.69986 -0.002,0.30445 0.15695,0.51985 0.26266,0.6772 0.1057,0.15735 0.16404,0.25422 0.15944,0.38182 -0.009,0.24106 -0.36504,0.47832 -0.36504,0.47832 l 0.26769,0.49007 c 0,0 0.63208,-0.30182 0.65539,-0.94825 0.0114,-0.31566 -0.1435,-0.54965 -0.25343,-0.71329 -0.10993,-0.16364 -0.16942,-0.26 -0.16867,-0.36168 3.3e-4,-0.0661 0.0767,-0.21546 0.18126,-0.33314 0.10456,-0.11769 0.20811,-0.19637 0.20811,-0.19637 z"
       id="path21"
       style="fill:url(#linearGradient1015)" />
    <path
       d="m 290.60282,630.482 c 0,0 -0.1458,0.10908 -0.2912,0.27273 -0.14524,0.16348 -0.31893,0.38933 -0.32139,0.69986 -0.002,0.30445 0.15695,0.51985 0.26266,0.6772 0.1057,0.15735 0.16404,0.25422 0.15944,0.38182 -0.009,0.24106 -0.36504,0.47832 -0.36504,0.47832 l 0.26769,0.49007 c 0,0 0.63208,-0.30182 0.65539,-0.94825 0.0114,-0.31566 -0.1435,-0.54965 -0.25343,-0.71329 -0.10993,-0.16364 -0.16942,-0.26 -0.16867,-0.36168 3.3e-4,-0.0661 0.0767,-0.21546 0.18126,-0.33314 0.10456,-0.11769 0.20811,-0.19637 0.20811,-0.19637 z"
       id="path23"
       style="fill:url(#linearGradient1017)" />
    <path
       d="m 292.60282,630.482 c 0,0 -0.1458,0.10908 -0.2912,0.27273 -0.14524,0.16348 -0.31893,0.38933 -0.32139,0.69986 -0.002,0.30445 0.15695,0.51985 0.26266,0.6772 0.1057,0.15735 0.16404,0.25422 0.15944,0.38182 -0.009,0.24106 -0.36504,0.47832 -0.36504,0.47832 l 0.26769,0.49007 c 0,0 0.63208,-0.30182 0.65539,-0.94825 0.0114,-0.31566 -0.1435,-0.54965 -0.25343,-0.71329 -0.10993,-0.16364 -0.16942,-0.26 -0.16867,-0.36168 3.3e-4,-0.0661 0.0767,-0.21546 0.18126,-0.33314 0.10456,-0.11769 0.20811,-0.19637 0.20811,-0.19637 z"
       id="path25"
       style="fill:url(#linearGradient1019)" />
  </g>
</svg>
