<?xml version="1.0" encoding="UTF-8"?>
<svg width="64" height="64" version="1.1" viewBox="0 0 16.933 16.933" xmlns="http://www.w3.org/2000/svg" xmlns:cc="http://creativecommons.org/ns#" xmlns:dc="http://purl.org/dc/elements/1.1/" xmlns:rdf="http://www.w3.org/1999/02/22-rdf-syntax-ns#" xmlns:xlink="http://www.w3.org/1999/xlink">
 <defs>
  <filter id="filter1057" x="-.027" y="-.027" width="1.054" height="1.054" color-interpolation-filters="sRGB">
   <feGaussianBlur stdDeviation="0.61875"/>
  </filter>
  <linearGradient id="linearGradient1053" x1="-127" x2="-80.659" y1="60" y2="13.659" gradientTransform="translate(131.5 -.51)" gradientUnits="userSpaceOnUse">
   <stop stop-color="#ff7d1e" offset="0"/>
   <stop stop-color="#ffa53c" offset="1"/>
  </linearGradient>
 </defs>
 <metadata>
  <rdf:RDF>
   <cc:Work rdf:about="">
    <dc:format>image/svg+xml</dc:format>
    <dc:type rdf:resource="http://purl.org/dc/dcmitype/StillImage"/>
    <dc:title/>
   </cc:Work>
  </rdf:RDF>
 </metadata>
 <g transform="scale(.26458)">
  <g fill="#5e4aa6">
   <circle cx="-1248.7" cy="-1241.6" r="0"/>
   <circle cx="-1140.3" cy="-1301.8" r="0"/>
   <circle cx="-1158.1" cy="-1246" r="0"/>
   <circle cx="-1157.3" cy="-1267.7" r="0"/>
   <circle cx="-57.756" cy="-2.1829" r="0" fill-rule="evenodd"/>
  </g>
  <rect x="4.5" y="4.5" width="55" height="55" ry="15" fill="#141414" filter="url(#filter1057)" opacity=".3" stroke-linecap="round" stroke-width="2.7444"/>
  <rect x="4.5" y="4.5" width="55" height="55" ry="15" fill="url(#linearGradient1053)" stroke-linecap="round" stroke-width="2.7444"/>
  <g transform="matrix(3.7796 0 0 3.7796 -.46602 -.86133)" fill="#fff">
   <rect x="5.3081" y="6.2672" width="6.5648" height="1.4386" ry=".29765"/>
   <g transform="translate(-19.05,1.5875)">
    <path transform="scale(.26458)" d="m106.4 30.598h-13.217c-0.62325 0-1.125 0.50175-1.125 1.125v3.1875c0 0.62325 0.50175 1.125 1.125 1.125h8.002z"/>
    <path transform="scale(.26458)" d="m106.4 30.598-5.2148 5.4375h14.561c0.62325 0 1.125-0.50175 1.125-1.125v-3.1875c0-0.62325-0.50175-1.125-1.125-1.125z" opacity=".8"/>
   </g>
  </g>
 </g>
</svg>
