<?xml version="1.0" encoding="UTF-8"?>
<svg width="64" height="64" version="1.1" viewBox="0 0 16.933 16.933" xmlns="http://www.w3.org/2000/svg" xmlns:cc="http://creativecommons.org/ns#" xmlns:dc="http://purl.org/dc/elements/1.1/" xmlns:rdf="http://www.w3.org/1999/02/22-rdf-syntax-ns#" xmlns:xlink="http://www.w3.org/1999/xlink">
 <defs>
  <filter id="filter2076-0-1" x="-.048" y="-.048" width="1.096" height="1.096" color-interpolation-filters="sRGB">
   <feGaussianBlur stdDeviation="1.1"/>
  </filter>
  <linearGradient id="linearGradient2070-5-7" x1="145" x2="200" y1="59" y2="4" gradientTransform="matrix(.26458 0 0 .26458 -39.627 11.911)" gradientUnits="userSpaceOnUse">
   <stop stop-color="#e1e1e1" offset="0"/>
   <stop stop-color="#f5f5f5" offset="1"/>
  </linearGradient>
  <filter id="filter3469" x="-.022778" y="-.033143" width="1.0456" height="1.0663" color-interpolation-filters="sRGB">
   <feGaussianBlur stdDeviation="0.25540527"/>
  </filter>
  <filter id="filter3432" x="-.071357" y="-.01665" width="1.1427" height="1.0333" color-interpolation-filters="sRGB">
   <feGaussianBlur stdDeviation="0.208125"/>
  </filter>
  <linearGradient id="linearGradient3399" x1="-120.65" x2="-120.65" y1="-41.666" y2="-12.066" gradientTransform="matrix(-.16818 -.29128 -.29128 .16818 -21.74 -8.3991)" gradientUnits="userSpaceOnUse">
   <stop stop-color="#6464dc" offset="0"/>
   <stop stop-color="#b414c8" offset="1"/>
  </linearGradient>
  <filter id="filter3463" x="-.03196" y="-.023372" width="1.0639" height="1.0467" color-interpolation-filters="sRGB">
   <feGaussianBlur stdDeviation="0.093024551"/>
  </filter>
  <filter id="filter3450" x="-.022779" y="-.03314" width="1.0456" height="1.0663" color-interpolation-filters="sRGB">
   <feGaussianBlur stdDeviation="0.25540969"/>
  </filter>
  <linearGradient id="linearGradient3391" x1="27.344" x2="26.488" y1="-126.64" y2="-96.122" gradientTransform="matrix(-.16818 .29128 -.29128 -.16818 -21.74 -8.3991)" gradientUnits="userSpaceOnUse">
   <stop stop-color="#ff9632" offset="0"/>
   <stop stop-color="#ffc800" offset="1"/>
  </linearGradient>
  <filter id="filter3479" x="-.022523" y="-.033699" width="1.045" height="1.0674" color-interpolation-filters="sRGB">
   <feGaussianBlur stdDeviation="0.098463623"/>
  </filter>
  <linearGradient id="linearGradient3700" x1="73" x2="73" y1="70" y2="100" gradientTransform="matrix(.33636 0 0 .33636 -21.74 -8.3991)" gradientUnits="userSpaceOnUse">
   <stop stop-color="#1e96ff" offset="0"/>
   <stop stop-color="#0ad8ff" offset="1"/>
  </linearGradient>
 </defs>
 <metadata>
  <rdf:RDF>
   <cc:Work rdf:about="">
    <dc:format>image/svg+xml</dc:format>
    <dc:type rdf:resource="http://purl.org/dc/dcmitype/StillImage"/>
    <dc:title/>
   </cc:Work>
  </rdf:RDF>
 </metadata>
 <g transform="translate(2.4531 -11.779)">
  <rect transform="matrix(.26458 0 0 .26458 -2.4531 11.779)" x="4.5" y="4.5" width="55" height="55" rx="13.002" ry="13.002" filter="url(#filter2076-0-1)" opacity=".3"/>
  <rect x="-1.2625" y="12.97" width="14.552" height="14.552" rx="3.4401" ry="3.4401" fill="url(#linearGradient2070-5-7)" stroke-width=".26458"/>
  <g stroke-linecap="round">
   <path transform="matrix(.32874 0 0 .33084 -21.209 -7.8472)" d="m93.666 81.133c-0.67194-0.04697-1.3644 0.10128-1.9941 0.46484l-14.672 8.4707v6.0625c0 1.3473-0.76257 2.4986-1.873 3.084 0.04152-0.02184 0.08594-0.03296 0.12695-0.05664l19.918-11.5c1.6792-0.9695 2.2508-3.102 1.2812-4.7812-0.60594-1.0495-1.6672-1.6659-2.7871-1.7441zm-22.412 12.324c-0.05679 0.04761-0.11092 0.09588-0.16406 0.14648 0.05283-0.05056 0.10754-0.09892 0.16406-0.14648zm-0.44726 0.45312c-0.04404 0.05339-0.09031 0.10455-0.13086 0.16016 0.04009-0.05547 0.08727-0.10688 0.13086-0.16016zm-0.40039 0.5957c-0.05776 0.11024-0.10291 0.22452-0.14844 0.33984 0.04486-0.11554 0.09133-0.22941 0.14844-0.33984zm-0.20312 0.49023c-0.04436 0.12939-0.08436 0.25893-0.11328 0.39258 0.02817-0.13294 0.06997-0.26385 0.11328-0.39258zm-0.11523 0.41211c-0.0645 0.30628-0.08616 0.6197-0.06641 0.93555-0.01972-0.3154 0.0034-0.62973 0.06641-0.93555zm-0.06641 0.93555c7e-3 0.11183 0.01525 0.22242 0.0332 0.33398-0.01717-0.10952-0.02636-0.22127-0.0332-0.33398zm0.12695 0.74805c0.02143 0.0741 0.04178 0.14745 0.06836 0.2207-0.02586-0.07218-0.04727-0.14634-0.06836-0.2207zm0.28711 0.70117c0.01487 0.02738 0.02143 0.05683 0.03711 0.08398 0.0091 0.01568 0.02199 0.02748 0.03125 0.04297-0.02463-0.04125-0.04541-0.08461-0.06836-0.12695zm0.38476 0.56836c0.03584 0.04324 0.06789 0.08971 0.10547 0.13086-0.0375-0.04157-0.06986-0.08759-0.10547-0.13086zm0.47656 0.47266c0.04707 0.03848 0.09185 0.07944 0.14062 0.11523-0.04898-0.03586-0.09374-0.0768-0.14062-0.11523zm0.53711 0.35938c0.06475 0.0353 0.12669 0.07442 0.19336 0.10547-0.06704-0.0311-0.12873-0.07033-0.19336-0.10547zm2.8652 0.21484c-0.08473 0.03082-0.1721 0.0557-0.25977 0.08008 0.08725-0.02448 0.17367-0.04848 0.25977-0.08008zm-2.2754 0.03906c0.08593 0.02794 0.17 0.05692 0.25781 0.07813-0.08815-0.02107-0.17265-0.05014-0.25781-0.07813zm1.6289 0.12891c-0.11201 0.01765-0.22646 0.02627-0.3418 0.0332 0.11444-0.0069 0.22763-0.01484 0.3418-0.0332zm-1.0215 0.0078c0.11771 0.01607 0.23432 0.03116 0.35352 0.03516-0.12019-0.0039-0.23685-0.01928-0.35352-0.03516z" filter="url(#filter3469)" opacity=".34" stroke-width="2.5923"/>
   <path transform="matrix(.26458 0 0 .26458 -2.453 11.779)" d="m16.381 18.695v27.795c0 2.425 1.9855 4.377 4.4531 4.377 2.4677 0 4.4551-1.952 4.4551-4.377v-21.438l-6.9688-4.0234c-0.94535-0.5458-1.5943-1.3873-1.9395-2.334zm32.355 9.7129c0.07335 0.06187 0.14046 0.12755 0.20898 0.19336-0.06841-0.06633-0.137-0.13205-0.20898-0.19336zm0.57422 0.58984c0.08664 0.10625 0.16246 0.21719 0.23828 0.33008-0.07594-0.11389-0.1538-0.22543-0.23828-0.33008zm0.47656 0.7168c0.07352 0.13829 0.1331 0.27912 0.19141 0.42383-0.05762-0.14299-0.11784-0.28467-0.19141-0.42383zm0.33203 0.80273c0.04176 0.13883 0.06963 0.27958 0.09766 0.42188-0.02779-0.14113-0.05565-0.2824-0.09766-0.42188zm0.16992 0.85547c0.01308 0.13618 0.01134 0.27277 0.01172 0.41016 0-0.13658 0.0013-0.27328-0.01172-0.41016zm0 0.83984c-0.01383 0.14574-0.04369 0.28857-0.07227 0.43359 0.02837-0.14402 0.05824-0.28712 0.07227-0.43359zm-0.16992 0.85547c-0.03848 0.12773-0.09002 0.25334-0.14062 0.37891 0.05042-0.12512 0.10182-0.24991 0.14062-0.37891zm-0.80859 1.5195c-0.11432 0.14163-0.23694 0.2721-0.36524 0.39648 0.13018-0.12503 0.25283-0.25864 0.36524-0.39648zm-0.57422 0.58984c-0.17836 0.15193-0.36514 0.28391-0.5625 0.4043 0.20146-0.12247 0.38772-0.25685 0.5625-0.4043zm-4.3555 0.80664c0.05112 0.01827 0.10284 0.03643 0.1543 0.05273-0.05164-0.01635-0.10299-0.0344-0.1543-0.05273zm2.7129 0.08594c-0.04554 0.01308-0.09079 0.02554-0.13672 0.03711 0.04563-0.01152 0.09148-0.02414 0.13672-0.03711zm-1.8125 0.13672c0.04284 0.0057 0.08603 0.0054 0.12891 0.0098-0.04316-0.0044-0.08579-0.0041-0.12891-0.0098zm0.94336 0.02539c-0.05125 0.0042-0.10286 0.0035-0.1543 0.0059 0.05138-0.0023 0.10311-0.0018 0.1543-0.0059z" filter="url(#filter3432)" opacity=".3" stroke-width="3.2704"/>
   <path d="m9.7646 19.014c-0.22601-0.0158-0.45892 0.03407-0.67075 0.15635l-4.935 2.849v2.0391c0 0.45318-0.25649 0.8404-0.63 1.0373 0.013965-0.0073 0.028906-0.01109 0.042701-0.01905l6.6995-3.8682c0.56481-0.3261 0.75705-1.0434 0.43095-1.6082-0.20381-0.35301-0.56078-0.56031-0.93744-0.58666zm-7.5385 4.1452c-0.019103 0.01601-0.037306 0.03225-0.055182 0.04927 0.017769-0.017 0.036171-0.03327 0.055182-0.04927zm-0.15044 0.15241c-0.014814 0.01796-0.030377 0.03517-0.044016 0.05387 0.013483-0.01866 0.029353-0.03595 0.044016-0.05387zm-0.13467 0.20037c-0.019428 0.03708-0.034613 0.07552-0.049927 0.11431 0.015089-0.03886 0.030718-0.07716 0.049927-0.11431zm-0.068321 0.16489c-0.01492 0.04352-0.028374 0.08709-0.038103 0.13205 0.00947-0.04472 0.023535-0.08875 0.038103-0.13205zm-0.038759 0.13862c-0.021696 0.10302-0.02898 0.20844-0.022336 0.31467-0.00663-0.10609 0.00114-0.21181 0.022336-0.31467zm-0.022336 0.31467c0.00235 0.03762 0.00513 0.07481 0.011168 0.11234-0.00578-0.03684-0.00887-0.07442-0.011168-0.11234zm0.042701 0.25161c0.00721 0.02492 0.014052 0.04959 0.022992 0.07423-0.0087-0.02428-0.015899-0.04922-0.022992-0.07423zm0.09657 0.23584c5e-3 0.0092 0.00721 0.01912 0.012483 0.02825 0.00306 0.0053 0.0074 0.0092 0.010512 0.01445-0.00828-0.01387-0.015274-0.02846-0.022992-0.0427zm0.12942 0.19117c0.012054 0.01454 0.022836 0.03017 0.035475 0.04402-0.012613-0.01398-0.023498-0.02946-0.035475-0.04402zm0.1603 0.15898c0.015833 0.01294 0.030895 0.02672 0.0473 0.03876-0.016476-0.01206-0.03153-0.02583-0.0473-0.03876zm0.18066 0.12088c0.021778 0.01187 0.042614 0.02503 0.065037 0.03548-0.02255-0.01046-0.043299-0.02366-0.065037-0.03548zm0.96374 0.07226c-0.028498 0.01037-0.057885 0.01874-0.087373 0.02694 0.029348-0.0082 0.058415-0.01631 0.087373-0.02694zm-0.76533 0.01314c0.028903 0.0094 0.057182 0.01915 0.086717 0.02628-0.029649-0.0071-0.058071-0.01686-0.086717-0.02628zm0.5479 0.04336c-0.037677 0.0059-0.076168 0.0088-0.11496 0.01117 0.038492-0.0023 0.076565-5e-3 0.11496-0.01117zm-0.34359 0.0026c0.039592 0.0054 0.078817 0.01048 0.11891 0.01183-0.040428-0.0013-0.079666-0.0065-0.11891-0.01183z" fill="url(#linearGradient3399)" stroke-width=".87193"/>
   <path transform="matrix(.33636 0 0 .33636 -21.74 -8.3991)" d="m77.512 90.225-5.2461 3.0293c-1.1929 0.68871-1.8129 1.965-1.7324 3.248 0.0068 0.11272 0.01603 0.22447 0.0332 0.33399 0.0222 0.13793 0.05445 0.27395 0.09375 0.41015 0.02135 0.0752 0.04223 0.14969 0.06836 0.22266 0.0589 0.16233 0.13212 0.32218 0.2168 0.47852 0.02382 0.044 0.04469 0.0899 0.07031 0.13281 0.09604 0.16054 0.20617 0.30602 0.32227 0.44531 0.03386 0.0405 0.06397 0.0842 0.09961 0.12305 0.11242 0.12311 0.23682 0.2319 0.36328 0.33594 0.05161 0.0423 0.10027 0.0876 0.1543 0.12695 0.12172 0.0889 0.25181 0.16252 0.38281 0.23437 0.06709 0.0367 0.13148 0.077 0.20117 0.10938 0.12434 0.0579 0.25291 0.10171 0.38281 0.14453 0.08972 0.0294 0.17868 0.0598 0.27148 0.082 0.1148 0.0277 0.23241 0.0426 0.34961 0.0586 0.11354 0.0152 0.22696 0.031 0.34375 0.0352 0.1117 4e-3 0.22372-1e-3 0.33594-8e-3 0.12001-7e-3 0.23909-0.0182 0.35547-0.0371 0.12303-0.0203 0.2455-0.0501 0.36719-0.084 0.09093-0.0251 0.18178-0.05 0.26953-0.082 0.13723-0.0505 0.27127-0.11463 0.4043-0.18359 1.1211-0.5819 1.8926-1.7365 1.8926-3.0917z" filter="url(#filter3463)" opacity=".3" stroke-width="2.5923"/>
   <path transform="matrix(.3257 0 0 .33187 -21 -8.0882)" d="m73.258 70.332c-1.1199 0.07829-2.1792 0.69658-2.7852 1.7461-0.9695 1.6792-0.39797 3.8098 1.2812 4.7793l14.664 8.4668 5.2539-3.0332c0.62971-0.36356 1.3222-0.51182 1.9941-0.46484 0.44506 0.03111 0.88176 0.14723 1.2832 0.3418l-19.695-11.371c-0.62971-0.36356-1.3242-0.51182-1.9961-0.46484zm21.752 11.871c0.07781 0.04235 0.15058 0.09428 0.22656 0.14062-0.02314-0.01407-0.04088-0.03326-0.06445-0.04687zm0.66992 0.45898c0.05662 0.04823 0.11025 0.10017 0.16406 0.15234-0.0539-0.05177-0.10637-0.10367-0.16406-0.15234zm0.45117 0.46289c0.06645 0.08232 0.12776 0.17018 0.1875 0.25977-0.05964-0.0888-0.11935-0.17619-0.1875-0.25977zm0.375 0.56445c0.05787 0.10947 0.10506 0.22151 0.15039 0.33398-0.04587-0.11383-0.09256-0.2252-0.15039-0.33398zm0.26172 0.63086c0.03305 0.10971 0.05431 0.22101 0.07617 0.33203-0.02205-0.11194-0.04332-0.22282-0.07617-0.33203zm0.13281 0.67383c0.01022 0.10767 0.0098 0.21483 0.0098 0.32227-2.95e-4 -0.10807 4.87e-4 -0.21514-0.0098-0.32227zm0 0.66016c-0.01103 0.11522-0.03432 0.2285-0.05664 0.3418 0.02247-0.11408 0.04576-0.22716 0.05664-0.3418zm-0.13281 0.67383c-0.03052 0.10147-0.07167 0.19846-0.11133 0.29688 0.03981-0.09877 0.08106-0.1964 0.11133-0.29688zm-0.26172 0.63281c-0.05304 0.09965-0.11474 0.19458-0.17773 0.28906 0.03941-0.05965 0.08876-0.1091 0.125-0.17188 0.02191-0.03795 0.03239-0.07879 0.05273-0.11719zm-0.375 0.5625c-0.08842 0.10843-0.18471 0.2122-0.28711 0.31055 0.10092-0.09784 0.19718-0.19914 0.28711-0.31055zm-0.45117 0.46289c-0.13749 0.11599-0.28489 0.22202-0.44336 0.31836 0.15525-0.0947 0.30306-0.19885 0.44336-0.31836zm-3.4258 0.63477c0.04036 0.01442 0.08047 0.02816 0.12109 0.04102-0.04048-0.01282-0.08088-0.02665-0.12109-0.04102zm2.1328 0.06836c-0.03559 0.0102-0.07153 0.02024-0.10742 0.0293 0.03613-0.0091 0.0716-0.01901 0.10742-0.0293zm-1.4258 0.10742c0.03392 0.0045 0.06761 0.0043 0.10156 0.0078-0.03373-0.0035-0.06786-0.0033-0.10156-0.0078zm0.74219 0.01953c-0.04027 0.0032-0.08068 0.0021-0.12109 0.0039 0.04046-0.0019 0.08078-6.51e-4 0.12109-0.0039z" filter="url(#filter3450)" opacity=".3" stroke-width="2.5923"/>
   <path d="m2.9003 15.148c-0.37669 0.02633-0.733 0.2343-0.93681 0.5873-0.3261 0.56481-0.13386 1.2814 0.43095 1.6075l4.9324 2.848 1.7672-1.0202c0.2118-0.12228 0.44474-0.17215 0.67075-0.15635 0.1497 0.01046 0.29657 0.04952 0.43161 0.11496l-6.6246-3.8248c-0.2118-0.12228-0.4454-0.17215-0.67141-0.15635zm7.3163 3.9928c0.02617 0.01424 0.05065 0.03171 0.0762 0.0473-0.0078-0.0047-0.01375-0.01119-0.02168-0.01576zm0.22533 0.15438c0.01905 0.01622 0.03708 0.03369 0.05518 0.05124-0.01813-0.01741-0.03578-0.03487-0.05518-0.05124zm0.15175 0.15569c0.02235 0.02769 0.04297 0.05724 0.06307 0.08737-0.02006-0.02987-0.04014-0.05926-0.06307-0.08737zm0.12613 0.18986c0.01947 0.03682 0.03534 0.0745 0.05058 0.11234-0.01543-0.03829-0.03113-0.07575-0.05058-0.11234zm0.08803 0.21219c0.01112 0.0369 0.01827 0.07434 0.02562 0.11168-0.0074-0.03765-0.01457-0.07495-0.02562-0.11168zm0.04467 0.22664c0.0034 0.03622 0.0033 0.07226 0.0033 0.10839-9.9e-5 -0.03635 1.64e-4 -0.07236-0.0033-0.10839zm0 0.22205c-0.0037 0.03876-0.01154 0.07686-0.01905 0.11496 0.0076-0.03837 0.01539-0.07641 0.01905-0.11496zm-0.04467 0.22664c-0.01027 0.03413-0.02411 0.06675-0.03745 0.09986 0.01339-0.03322 0.02726-0.06606 0.03745-0.09986zm-0.08803 0.21285c-0.01784 0.03352-0.03859 0.06545-0.05978 0.09723 0.01326-0.02006 0.02986-0.0367 0.04204-0.05781 0.0074-0.01276 0.0109-0.0265 0.01774-0.03942zm-0.12613 0.1892c-0.02974 0.03647-0.06213 0.07137-0.09657 0.10445 0.03394-0.03291 0.06632-0.06698 0.09657-0.10445zm-0.15175 0.15569c-0.04624 0.03901-0.09582 0.07468-0.14913 0.10708 0.05222-0.03185 0.10194-0.06688 0.14913-0.10708zm-1.1523 0.2135c0.013576 0.0048 0.027067 0.0095 0.04073 0.0138-0.013615-0.0043-0.027204-9e-3 -0.04073-0.0138zm0.71739 0.02299c-0.011969 0.0034-0.024058 0.0068-0.036131 0.0099 0.012152-0.0031 0.024082-0.0064 0.036131-0.0099zm-0.47956 0.03613c0.011409 0.0015 0.022741 0.0015 0.03416 0.0026-0.011345-0.0012-0.022826-0.0011-0.03416-0.0026zm0.24964 0.0066c-0.013544 0.0011-0.027138 7.15e-4 -0.04073 0.0013 0.01361-6.35e-4 0.02717-2.19e-4 0.04073-0.0013z" fill="url(#linearGradient3391)" stroke-width=".87193"/>
   <path transform="matrix(.33636 0 0 .33636 -21.74 -8.3991)" d="m92.719 81.213c-0.50775 0.03892-1.016 0.19217-1.4883 0.46484l-5.2539 3.0332 0.4707 0.27148 5.2246-3.0156c0.62971-0.36356 1.3222-0.51182 1.9941-0.46484 0.45975 0.03214 0.90777 0.15899 1.3203 0.36524-0.08606-0.06063-0.1629-0.12993-0.25586-0.18359l-0.14453-0.08398c-0.42374-0.21891-0.88619-0.3535-1.3613-0.38672-0.16798-0.01174-0.33661-0.01297-0.50586 0zm-21.465 12.613c-0.05652 0.04757-0.11123 0.09593-0.16406 0.14648 0.05315-0.05061 0.10727-0.09888 0.16406-0.14648zm-0.44726 0.45312c-0.04359 0.05327-0.09077 0.10468-0.13086 0.16016 0.04055-0.0556 0.08682-0.10677 0.13086-0.16016zm-0.40039 0.5957c-0.05711 0.11044-0.10358 0.22431-0.14844 0.33984 0.04553-0.11532 0.09068-0.22961 0.14844-0.33984zm-0.20312 0.49023c-0.04332 0.12873-0.08511 0.25964-0.11328 0.39258 0.02893-0.13365 0.06893-0.26319 0.11328-0.39258zm-0.05469 2.0957c0.02109 0.07436 0.04249 0.14852 0.06836 0.2207-0.02658-0.07326-0.04693-0.14661-0.06836-0.2207zm0.67187 1.2695c0.03561 0.04327 0.06797 0.08929 0.10547 0.13086-0.03758-0.04115-0.06963-0.08762-0.10547-0.13086zm0.47656 0.47266c0.04689 0.03843 0.09164 0.07937 0.14062 0.11523-0.04878-0.03579-0.09356-0.07675-0.14062-0.11523zm0.53711 0.35938c0.06463 0.03514 0.12632 0.07436 0.19336 0.10547-0.06667-0.03105-0.12861-0.07017-0.19336-0.10547zm2.8652 0.21484c-0.08609 0.0316-0.17252 0.0556-0.25977 0.08008 0.08767-0.02438 0.17504-0.04926 0.25977-0.08008zm-2.2754 0.03906c0.08516 0.02799 0.16966 0.05705 0.25781 0.07813-0.08781-0.02121-0.17189-0.05019-0.25781-0.07813zm1.6289 0.12891c-0.11416 0.01837-0.22736 0.02631-0.3418 0.0332 0.11534-0.0069 0.22978-0.01555 0.3418-0.0332zm-1.0215 0.0078c0.11667 0.01588 0.23332 0.03121 0.35352 0.03516-0.11919-4e-3 -0.2358-0.01908-0.35352-0.03516z" filter="url(#filter3479)" opacity=".3" stroke-width="2.5923"/>
   <path d="m2.9818 15.146c-0.00939 0-0.018055 0.0024-0.02739 0.0026 0.01892-4.5e-4 0.03787 3.6e-5 0.056843 5.29e-4 -0.010044-2.51e-4 -0.019349-0.0031-0.029456-0.0031zm0.20102 0.02015c0.016177 0.0028 0.032456 0.0037 0.048575 0.0072-0.015907-0.0034-0.032433-0.0045-0.048575-0.0072zm-0.43201 0.0031c-0.00933 0.0019-0.018145 0.0047-0.02739 0.0067 0.00918-0.0021 0.018158-0.0049 0.02739-0.0067zm-0.18913 0.05684c-0.019897 0.0076-0.040074 0.01413-0.059428 0.02274 0.019365-0.0087 0.039651-0.01514 0.059428-0.02274zm0.8568 0.0052c0.028369 0.0114 0.055901 0.02604 0.083717 0.03979-0.027779-0.01373-0.054737-0.02824-0.083717-0.03979zm-1.0687 0.10025c-0.02236 0.01423-0.043304 0.0298-0.064595 0.04548 0.021241-0.0157 0.04246-0.03132 0.064595-0.04548zm-0.15089 0.11627c-0.035814 0.03202-0.068609 0.06616-0.10025 0.10232 0.031726-0.03643 0.064918-0.07057 0.10025-0.10232zm-0.16175 0.17725c-0.020878 0.02826-0.040069 0.0572-0.058393 0.08733 0.018341-0.03013 0.037875-0.05944 0.058393-0.08733zm-0.08785 0.14159c-0.027702 0.05146-0.051917 0.10445-0.071829 0.1602 0.019664-0.05428 0.043593-0.10789 0.071829-0.1602zm-0.095086 0.23461c-0.012867 0.04533-0.023588 0.09107-0.031007 0.13849 0.00746-0.04642 0.017785-0.09265 0.031007-0.13849zm-0.042376 0.24805c-0.00156 0.02493-0.00723 0.04856-0.00723 0.0739v7.7359c0 0.6522 0.52499 1.1772 1.1772 1.1772 0.6522 0 1.1772-0.52499 1.1772-1.1772v-5.6968l-1.7647-1.0191c-0.4019-0.23203-0.61029-0.66188-0.5824-1.094zm8.6299 3.0464c0.01941 0.01637 0.03716 0.03375 0.05529 0.05116-0.0181-0.01755-0.03625-0.03494-0.05529-0.05116zm0.15193 0.15606c0.02292 0.02811 0.04298 0.05747 0.06305 0.08733-0.02009-0.03013-0.04069-0.05964-0.06305-0.08733zm0.12609 0.18965c0.01945 0.03659 0.03522 0.07385 0.05064 0.11214-0.01525-0.03783-0.03118-0.07532-0.05064-0.11214zm0.08785 0.21239c0.01105 0.03673 0.01842 0.07397 0.02584 0.11162-0.0074-0.03734-0.01472-0.07472-0.02584-0.11162zm0.04496 0.22634c0.0035 0.03603 3e-3 0.07217 0.0031 0.10852 0-0.03614 3.44e-4 -0.07231-0.0031-0.10852zm0 0.22221c-0.0037 0.03856-0.01156 0.07635-0.01912 0.11472 0.0075-0.03811 0.01541-0.07597 0.01912-0.11472zm-0.04496 0.22634c-0.01018 0.0338-0.02382 0.06703-0.03721 0.10025 0.01334-0.0331 0.02694-0.06612 0.03721-0.10025zm-0.21394 0.40203c-0.03025 0.03747-0.06269 0.07199-0.09664 0.1049 0.03444-0.03308 0.06689-0.06843 0.09664-0.1049zm-0.15193 0.15606c-0.04719 0.0402-0.09661 0.07512-0.14883 0.10697 0.0533-0.0324 0.10258-0.06796 0.14883-0.10697zm-1.1524 0.21342c0.013526 0.0048 0.02721 0.0096 0.040825 0.01395-0.013663-0.0043-0.027249-0.0091-0.040825-0.01395zm0.71779 0.02274c-0.012049 0.0035-0.024022 0.0068-0.036174 0.0098 0.012073-3e-3 0.024204-0.0064 0.036174-0.0098zm-0.47956 0.03617c0.011335 0.0015 0.022762 0.0014 0.034107 0.0026-0.011419-0.0012-0.022699-0.0011-0.034107-0.0026zm0.2496 0.0067c-0.01356 0.0011-0.027215 9.26e-4 -0.040825 0.0016 0.013594-6.08e-4 0.027281-4.76e-4 0.040825-0.0016z" fill="url(#linearGradient3700)" stroke-width=".87193"/>
  </g>
 </g>
</svg>
