<?xml version="1.0" encoding="UTF-8"?>
<svg width="64" height="64" version="1.1" viewBox="0 0 16.933 16.933" xmlns="http://www.w3.org/2000/svg" xmlns:cc="http://creativecommons.org/ns#" xmlns:dc="http://purl.org/dc/elements/1.1/" xmlns:rdf="http://www.w3.org/1999/02/22-rdf-syntax-ns#">
 <metadata>
  <rdf:RDF>
   <cc:Work rdf:about="">
    <dc:format>image/svg+xml</dc:format>
    <dc:type rdf:resource="http://purl.org/dc/dcmitype/StillImage"/>
    <dc:title/>
   </cc:Work>
  </rdf:RDF>
 </metadata>
 <defs>
  <style type="text/css"/>
  <style type="text/css"/>
  <style type="text/css"/>
  <style type="text/css"/>
  <filter id="filter1057" x="-.027" y="-.027" width="1.054" height="1.054" color-interpolation-filters="sRGB">
   <feGaussianBlur stdDeviation="0.61875"/>
  </filter>
  <linearGradient id="linearGradient1053" x1="-127" x2="-72" y1="60" y2="5" gradientTransform="matrix(.26458 0 0 .26458 34.792 -.13493)" gradientUnits="userSpaceOnUse">
   <stop stop-color="#32d7ff" offset="0"/>
   <stop stop-color="#329bff" offset="1"/>
  </linearGradient>
  <style type="text/css"/>
  <style type="text/css"/>
  <style type="text/css"/>
  <style type="text/css"/>
  <style type="text/css"/>
  <style type="text/css"/>
  <style type="text/css"/>
 </defs>
 <rect transform="scale(.26458)" x="4.5" y="4.5" width="55" height="55" ry="15" fill="#141414" filter="url(#filter1057)" opacity=".3" stroke-linecap="round" stroke-width="2.7444"/>
 <rect x="1.1906" y="1.1906" width="14.552" height="14.552" ry="3.9687" fill="url(#linearGradient1053)" stroke-linecap="round" stroke-width=".72611"/>
 <g transform="matrix(.26458 0 0 .26458 4.6458e-6 3.3441e-6)" fill="#5e4aa6">
  <circle cx="-1401.7" cy="-1262.9" r="0"/>
  <circle cx="-302.14" cy="2.5994" r="0" fill-rule="evenodd"/>
  <circle cx="-1124.8" cy="-1279.3" r="0"/>
 </g>
 <g transform="translate(32.763 -10.103)" fill="#5e4aa6" stroke-width=".26458">
  <circle cx="-299.02" cy="-338.77" r="0"/>
  <circle cx="-8.1062" cy="-3.9487" r="0" fill-rule="evenodd"/>
  <circle cx="-278.25" cy="-357.69" r="0"/>
  <circle cx="12.663" cy="-22.859" r="0" fill-rule="evenodd"/>
 </g>
 <g transform="rotate(90 140.17 -140.17)">
  <g fill="#fff">
   <rect x="284.56" y="-11.112" width="8.467" height=".529" ry=".265" opacity=".75" paint-order="stroke markers fill"/>
   <circle cx="290.39" cy="-10.848" r="1.058" paint-order="stroke markers fill"/>
   <rect x="284.56" y="-6.879" width="8.467" height=".529" ry=".265" opacity=".75" paint-order="stroke markers fill"/>
  </g>
  <circle cx="286.95" cy="-6.615" r="1.587" opacity=".1" paint-order="markers stroke fill"/>
  <circle cx="286.95" cy="-6.615" r="1.058" fill="#fff" paint-order="markers stroke fill"/>
 </g>
 <g fill="#5e4aa6">
  <circle cx="-319.02" cy="-349.34" r="0" stroke-width=".26458"/>
  <g stroke-width=".26458">
   <circle cx="-287.68" cy="-359.74" r="0"/>
   <circle cx="3.2295" cy="-24.915" r="0" fill-rule="evenodd"/>
   <circle cx="-266.91" cy="-378.66" r="0"/>
   <circle cx="23.999" cy="-43.825" r="0" fill-rule="evenodd"/>
  </g>
 </g>
</svg>
