<?xml version="1.0" encoding="UTF-8"?>
<svg width="64" height="64" version="1.1" viewBox="0 0 16.933 16.933" xmlns="http://www.w3.org/2000/svg" xmlns:cc="http://creativecommons.org/ns#" xmlns:dc="http://purl.org/dc/elements/1.1/" xmlns:rdf="http://www.w3.org/1999/02/22-rdf-syntax-ns#" xmlns:xlink="http://www.w3.org/1999/xlink">
 <defs>
  <filter id="filter1057-2" x="-.027" y="-.027" width="1.054" height="1.054" color-interpolation-filters="sRGB">
   <feGaussianBlur stdDeviation="0.61875"/>
  </filter>
  <linearGradient id="linearGradient1053-9" x1="-127" x2="-72" y1="60" y2="5" gradientTransform="matrix(.26458 0 0 .26458 24.221 2.6905)" gradientUnits="userSpaceOnUse">
   <stop stop-color="#c337c3" offset="0"/>
   <stop stop-color="#f5378c" offset="1"/>
  </linearGradient>
 </defs>
 <metadata>
  <rdf:RDF>
   <cc:Work rdf:about="">
    <dc:format>image/svg+xml</dc:format>
    <dc:type rdf:resource="http://purl.org/dc/dcmitype/StillImage"/>
    <dc:title/>
   </cc:Work>
  </rdf:RDF>
 </metadata>
 <g transform="translate(10.571 -2.8255)">
  <rect transform="matrix(.26458 0 0 .26458 -10.571 2.8255)" x="4.5" y="4.5" width="55" height="55" ry="15" fill="#141414" filter="url(#filter1057-2)" opacity=".3" stroke-linecap="round" stroke-width="2.7444"/>
  <rect x="-9.3808" y="4.0161" width="14.552" height="14.552" ry="3.9687" fill="url(#linearGradient1053-9)" stroke-linecap="round" stroke-width=".72611"/>
  <g fill="#fff" stroke-width=".33777">
   <path d="m-2.1047 6.9012-4.391 7.4309h8.7819m-4.391-4.391c0.56069 0 1.0133 0.33506 1.0133 0.7495v1.879c0 0.41444-0.45261 0.7495-1.0133 0.7495s-1.0133-0.33506-1.0133-0.7495v-1.879c0-0.41444 0.45261-0.7495 1.0133-0.7495"/>
   <path d="m-4.1313 12.981h0.00135c0.37222 0 0.67553 0.26785 0.67553 0.59785v1.5054c0 0.33101-0.30331 0.59886-0.67553 0.59886h-0.00135c-0.37323 0-0.67553-0.26785-0.67553-0.59886v-1.5054c0-0.33 0.3023-0.59785 0.67553-0.59785"/>
   <path d="m-0.079503 12.981h0.0013494c0.37323 0 0.67553 0.26785 0.67553 0.59785v1.5054c0 0.33101-0.3023 0.59886-0.67553 0.59886h-0.0013494c-0.37222 0-0.67418-0.26785-0.67418-0.59886v-1.5054c0-0.33 0.3023-0.59785 0.67418-0.59785"/>
   <path d="m-2.1047 10.279h0.00135c0.37222 0 0.67418 0.26785 0.67418 0.59886v1.5054c0 0.33-0.3023 0.59886-0.67418 0.59886h-0.00135c-0.37323 0-0.67553-0.2692-0.67553-0.59886v-1.5054c0-0.33101 0.3023-0.59886 0.67553-0.59886"/>
   <path d="m-4.9758 9.2655h0.00135c0.27832 0 0.5053 0.26785 0.5053 0.59886v2.8565c0 0.33-0.22698 0.59784-0.5053 0.59784h-0.00135c-0.27967 0-0.50665-0.26785-0.50665-0.59784v-2.8565c0-0.33101 0.22698-0.59886 0.50665-0.59886"/>
   <path d="m0.76626 9.2655h0.001349c0.27967 0 0.5053 0.26785 0.5053 0.59886v2.8565c0 0.33-0.22563 0.59784-0.5053 0.59784h-0.001349c-0.27967 0-0.50665-0.26785-0.50665-0.59784v-2.8565c0-0.33101 0.22698-0.59886 0.50665-0.59886"/>
  </g>
 </g>
</svg>
