<?xml version="1.0" encoding="UTF-8"?>
<svg width="64" height="64" version="1.1" viewBox="0 0 16.933 16.933" xmlns="http://www.w3.org/2000/svg" xmlns:cc="http://creativecommons.org/ns#" xmlns:dc="http://purl.org/dc/elements/1.1/" xmlns:rdf="http://www.w3.org/1999/02/22-rdf-syntax-ns#" xmlns:xlink="http://www.w3.org/1999/xlink">
 <defs>
  <filter id="filter1057-1" x="-.027" y="-.027" width="1.054" height="1.054" color-interpolation-filters="sRGB">
   <feGaussianBlur stdDeviation="0.61875"/>
  </filter>
  <linearGradient id="linearGradient1053-7" x1="-127" x2="-72" y1="60" y2="5" gradientTransform="matrix(.26458 0 0 .26458 52.69 3.6826)" gradientUnits="userSpaceOnUse">
   <stop stop-color="#dee0e2" offset="0"/>
   <stop stop-color="#f1f3f5" stop-opacity=".99608" offset="1"/>
  </linearGradient>
 </defs>
 <metadata>
  <rdf:RDF>
   <cc:Work rdf:about="">
    <dc:format>image/svg+xml</dc:format>
    <dc:type rdf:resource="http://purl.org/dc/dcmitype/StillImage"/>
    <dc:title/>
   </cc:Work>
  </rdf:RDF>
 </metadata>
 <g transform="translate(-17.897 -3.8176)">
  <rect transform="matrix(.26458 0 0 .26458 18.695 4.6153)" x="1.485" y="1.485" width="55" height="55" ry="15" fill="#141414" filter="url(#filter1057-1)" opacity=".3" stroke-linecap="round" stroke-width="2.7444"/>
  <rect x="19.088" y="5.0082" width="14.552" height="14.552" ry="3.9687" fill="url(#linearGradient1053-7)" stroke-linecap="round" stroke-width=".72611"/>
  <g fill-rule="evenodd" stroke-width="1.2484">
   <path d="m19.409 7.4075c-0.09327 0.21752-0.16555 0.44584-0.21911 0.68161-0.07258 0.6347-0.10232 1.3864-0.10232 2.3068v3.7765c0 0.88569 0.0226 1.6283 0.08785 2.251 0.33439 1.5788 1.6021 2.8014 3.2029 3.0753 0.50499 0.04259 1.0762 0.0615 1.7436 0.0615h3.2107l2.2717-4.654-6.0182-1.2304z" fill="#649af5"/>
   <path d="m26.826 8.1186 2.7781 6.7593-2.2758 4.6824h1.2769c0.66738 0 1.2386-0.01891 1.7436-0.0615 1.6008-0.27391 2.8685-1.4964 3.2029-3.0753 0.06526-0.62275 0.08785-1.3653 0.08785-2.251v-3.7765c0-0.88937-0.02297-1.6319-0.08888-2.2562-0.0015-0.0072-0.0041-0.014007-0.0057-0.021188z" fill="#a2c2f8"/>
   <path d="m24.122 5.0082c-0.65742 0-1.2261 0.017129-1.7255 0.058911-1.3505 0.22473-2.4667 1.1226-2.989 2.3435l4.177 6.2637 6.0188 1.2035-2.7786-6.7608h6.72c-0.34666-1.5796-1.6281-2.7969-3.2401-3.0541-0.4928-0.039492-1.0544-0.054777-1.6991-0.054777z" fill="#3b6bd4"/>
  </g>
  <path d="m26.363 7.8256a4.4496 4.4496 0 0 1 4.4593 4.458 4.4496 4.4496 0 0 1-4.4593 4.4593 4.4496 4.4496 0 0 1-4.458-4.4593 4.4496 4.4496 0 0 1 4.458-4.458z" fill="#fff" stroke-width="1.2963"/>
  <path d="m26.362 8.8545a3.4228 3.4221 0 0 1 3.4311 3.429 3.4228 3.4221 0 0 1-3.4311 3.4304 3.4228 3.4221 0 0 1-3.4283-3.4304 3.4228 3.4221 0 0 1 3.4283-3.429z" fill="#59f" stroke-width="1.2963"/>
 </g>
</svg>
