<?xml version="1.0" encoding="UTF-8"?>
<svg width="64" height="64" version="1.1" viewBox="0 0 16.933 16.933" xmlns="http://www.w3.org/2000/svg">
 <defs>
  <filter id="filter1057-4-4" x="-.027" y="-.027" width="1.054" height="1.054" color-interpolation-filters="sRGB">
   <feGaussianBlur stdDeviation="0.61875"/>
  </filter>
  <linearGradient id="linearGradient1053-5-2" x1="-127" x2="-72" y1="60" y2="5" gradientTransform="matrix(.2646 0 0 .2646 34.793 -.1357)" gradientUnits="userSpaceOnUse">
   <stop stop-color="#32d7ff" offset="0"/>
   <stop stop-color="#329bff" offset="1"/>
  </linearGradient>
 </defs>
 <rect transform="matrix(.2646 0 0 .2646 -7e-4 -.0007002)" x="4.5" y="4.5" width="55" height="55" ry="15" fill="#141414" filter="url(#filter1057-4-4)" opacity=".3" stroke-linecap="round" stroke-width="2.7444"/>
 <rect x="1.1893" y="1.1899" width="14.552" height="14.552" ry="3.9689" fill="url(#linearGradient1053-5-2)" stroke-linecap="round" stroke-width=".72613"/>
 <path d="m8.4664 3.1749a0.52916 0.52916 0 0 0-0.05064 0.0031c-2.8927 0.027659-5.2409 2.3894-5.2409 5.2885 0 2.9162 2.3754 5.2916 5.2916 5.2916 2.8984 0 5.2597-2.3471 5.2885-5.2389a0.52916 0.52916 0 0 0 0.0031-0.05271 0.52916 0.52916 0 0 0-0.52916-0.52916 0.52916 0.52916 0 0 0-0.52916 0.52916c0 2.3442-1.889 4.2333-4.2333 4.2333-2.3442 0-4.2332-1.889-4.2332-4.2333 0-2.3442 1.889-4.2332 4.2332-4.2332a0.52916 0.52916 0 0 0 0.52916-0.52915 0.52916 0.52916 0 0 0-0.52916-0.52916zm0 2.1166a0.52916 0.52916 0 0 0-0.05064 0.00206c-1.7238 0.027549-3.1243 1.4428-3.1243 3.1729 0 1.7472 1.4277 3.1749 3.1749 3.1749 1.7294 0 3.1432-1.3994 3.1718-3.1222a0.52916 0.52916 0 0 0 0.0031-0.05271 0.52916 0.52916 0 0 0-0.52916-0.52916 0.52916 0.52916 0 0 0-0.52916 0.52916c0 1.1752-0.94138 2.1166-2.1166 2.1166-1.1752 0-2.1166-0.94138-2.1166-2.1166 0-1.1752 0.94138-2.1166 2.1166-2.1166a0.52916 0.52916 0 0 0 0.52916-0.52915 0.52916 0.52916 0 0 0-0.52916-0.52916zm0 2.1166a1.0583 1.0583 0 0 0-1.0583 1.0583 1.0583 1.0583 0 0 0 1.0583 1.0583 1.0583 1.0583 0 0 0 1.0583-1.0583 1.0583 1.0583 0 0 0-1.0583-1.0583z" fill="#fff" stroke-width=".26458"/>
</svg>
