<svg width="64" height="64" version="1.1" xmlns="http://www.w3.org/2000/svg">
 <defs>
  <linearGradient id="e" x2="0" y1="505.8" y2="541.8" gradientTransform="translate(-384.57,504.56)" gradientUnits="userSpaceOnUse">
   <stop stop-color="#fffcde" offset="0"/>
   <stop stop-color="#fafac5" offset="1"/>
  </linearGradient>
  <radialGradient id="d" cx="24" cy="1028.4" r="16" gradientTransform="matrix(1.231 .00334 -.00334 1.2313 -2.11 -237.92)" gradientUnits="userSpaceOnUse">
   <stop stop-color="#f47750" offset="0"/>
   <stop stop-color="#fdbc4b" offset="1"/>
  </radialGradient>
  <filter id="b" x="-.06" y="-.06" width="1.12" height="1.12" color-interpolation-filters="sRGB">
   <feGaussianBlur stdDeviation="0.9"/>
  </filter>
  <linearGradient id="linearGradient862" x1="7.9373" x2="7.9373" y1="15.081" y2="1.852" gradientTransform="scale(3.7796)" gradientUnits="userSpaceOnUse">
   <stop stop-color="#ff670a" offset="0"/>
   <stop stop-color="#ffc53f" offset="1"/>
  </linearGradient>
 </defs>
 <g transform="scale(3.7796)" shape-rendering="auto">
  <path d="m4.3693 0.52916c-2.1142 0-3.8402 1.7835-3.8402 3.9682v8.4675c0 2.1846 1.726 3.9682 3.8402 3.9682h8.1944c2.1142 0 3.8402-1.7835 3.8402-3.9682v-8.4675c0-2.1846-1.726-3.9682-3.8402-3.9682zm0.25704 0.52089h7.6808c1.8443 0 3.3291 1.5342 3.3291 3.44v7.9368c0 1.9058-1.4847 3.44-3.3291 3.44h-7.6808c-1.8443 0-3.3291-1.5342-3.3291-3.44v-7.9368c0-1.9058 1.4847-3.44 3.3291-3.44z" color="#000000" color-rendering="auto" dominant-baseline="auto" image-rendering="auto" opacity=".01" solid-color="#000000" stop-color="#000000" style="font-feature-settings:normal;font-variant-alternates:normal;font-variant-caps:normal;font-variant-east-asian:normal;font-variant-ligatures:normal;font-variant-numeric:normal;font-variant-position:normal;font-variation-settings:normal;inline-size:0;isolation:auto;mix-blend-mode:normal;shape-margin:0;shape-padding:0;text-decoration-color:#000000;text-decoration-line:none;text-decoration-style:solid;text-indent:0;text-orientation:mixed;text-transform:none;white-space:normal"/>
  <path d="m4.3587 0.79373c-1.9668 0-3.5639 1.6528-3.5639 3.6876v8.4996c0 2.0348 1.5971 3.6876 3.5639 3.6876h8.2162c1.9668 0 3.5644-1.6528 3.5644-3.6876v-8.4996c0-2.0348-1.5976-3.6876-3.5644-3.6876zm0.27222 0.25631h7.6718c1.8422 0 3.3251 1.5342 3.3251 3.44v7.9368c0 1.9058-1.483 3.44-3.3251 3.44h-7.6718c-1.8422 0-3.3251-1.5342-3.3251-3.44v-7.9368c0-1.9058 1.483-3.44 3.3251-3.44z" color="#000000" color-rendering="auto" dominant-baseline="auto" image-rendering="auto" opacity=".01" solid-color="#000000" stop-color="#000000" style="font-feature-settings:normal;font-variant-alternates:normal;font-variant-caps:normal;font-variant-east-asian:normal;font-variant-ligatures:normal;font-variant-numeric:normal;font-variant-position:normal;font-variation-settings:normal;inline-size:0;isolation:auto;mix-blend-mode:normal;shape-margin:0;shape-padding:0;text-decoration-color:#000000;text-decoration-line:none;text-decoration-style:solid;text-indent:0;text-orientation:mixed;text-transform:none;white-space:normal"/>
  <path d="m4.3097 1.0583c-1.8657 0-3.3751 1.5383-3.3751 3.439v8.4675c0 1.9007 1.57 3.439 3.4357 3.439h8.1996c1.8657 0 3.4274-1.5383 3.4274-3.439v-8.4675c0-1.9007-1.51-3.439-3.3756-3.439h-0.09688c1.794 0.086515 3.2138 1.5819 3.2138 3.4318v7.9368c0 1.9058-1.5059 3.44-3.3766 3.44h-7.7905c-1.8707 0-3.3766-1.5342-3.3766-3.44v-7.9368c0-1.8498 1.4199-3.3451 3.2138-3.4318z" color="#000000" color-rendering="auto" dominant-baseline="auto" image-rendering="auto" opacity=".03" solid-color="#000000" stop-color="#000000" style="font-feature-settings:normal;font-variant-alternates:normal;font-variant-caps:normal;font-variant-east-asian:normal;font-variant-ligatures:normal;font-variant-numeric:normal;font-variant-position:normal;font-variation-settings:normal;inline-size:0;isolation:auto;mix-blend-mode:normal;shape-margin:0;shape-padding:0;text-decoration-color:#000000;text-decoration-line:none;text-decoration-style:solid;text-indent:0;text-orientation:mixed;text-transform:none;white-space:normal"/>
  <path transform="scale(.26458)" d="m4 46.969v2.0312c0 6.6479 5.8957 12 12.544 12h30.961c6.6479 0 12.495-5.3521 12.495-12v-1.9922c-0.02117 7.1849-5.81 12.963-13 12.963h-29.998c-7.2032 0-13.002-5.7987-13.002-13.002z" color="#000000" color-rendering="auto" dominant-baseline="auto" image-rendering="auto" opacity=".03" solid-color="#000000" stop-color="#000000" style="font-feature-settings:normal;font-variant-alternates:normal;font-variant-caps:normal;font-variant-east-asian:normal;font-variant-ligatures:normal;font-variant-numeric:normal;font-variant-position:normal;font-variation-settings:normal;inline-size:0;isolation:auto;mix-blend-mode:normal;shape-margin:0;shape-padding:0;text-decoration-color:#000000;text-decoration-line:none;text-decoration-style:solid;text-indent:0;text-orientation:mixed;text-transform:none;white-space:normal"/>
  <path d="m1.0583 11.906v0.59234c0 1.9386 1.5729 3.4993 3.3318 3.4993h8.1603c1.7589 0 3.3243-1.5608 3.3243-3.4993v-0.58095c-0.0056 2.0952-1.5372 3.7801-3.4395 3.7801h-7.9368c-1.9058 0-3.44-1.691-3.44-3.7915z" color="#000000" color-rendering="auto" dominant-baseline="auto" image-rendering="auto" opacity=".05" solid-color="#000000" stop-color="#000000" style="font-feature-settings:normal;font-variant-alternates:normal;font-variant-caps:normal;font-variant-east-asian:normal;font-variant-ligatures:normal;font-variant-numeric:normal;font-variant-position:normal;font-variation-settings:normal;inline-size:0;isolation:auto;mix-blend-mode:normal;shape-margin:0;shape-padding:0;text-decoration-color:#000000;text-decoration-line:none;text-decoration-style:solid;text-indent:0;text-orientation:mixed;text-transform:none;white-space:normal"/>
 </g>
 <rect x="4" y="3.9686" width="56.002" height="56.002" rx="13.002" ry="13.002" fill="url(#linearGradient862)" stroke-width="3.7796"/>
 <g transform="matrix(1.3333 0 0 1.3333 8e-7 -1339.1)" stroke-linejoin="round" stroke-width=".75">
  <g stroke-width="1.5">
   <circle cx="24" cy="1028.4" r="18" filter="url(#b)" opacity=".15" stroke-linecap="round"/>
   <circle cx="24" cy="1028.4" r="18" fill="url(#e)" stroke-linecap="round"/>
   <path d="m24 1012.4c-3 0-5 2-5 2s1.193 4.052 2 6c0.856 2.066 3 6 3 6s2.144-3.934 3-6c0.807-1.948 2-6 2-6s-2-2-5-2m-6.363 2.564s-2.83 0-4.951 2.121-2.121 4.951-2.121 4.951 3.71 2.02 5.658 2.828c2.066 0.856 6.363 2.121 6.363 2.121s-1.265-4.297-2.121-6.363c-0.807-1.948-2.828-5.658-2.828-5.658m12.727 0s-2.02 3.71-2.828 5.658c-0.856 2.066-2.121 6.363-2.121 6.363s4.297-1.265 6.363-2.121c1.948-0.807 5.658-2.828 5.658-2.828s0-2.83-2.121-4.951-4.951-2.121-4.951-2.121m-20.363 8.436s-2 2-2 5 2 5 2 5 4.052-1.193 6-2c2.066-0.856 6-3 6-3s-3.934-2.144-6-3c-1.948-0.807-6-2-6-2m28 0s-4.052 1.193-6 2c-2.066 0.856-6 3-6 3s3.934 2.144 6 3c1.948 0.807 6 2 6 2s2-2 2-5-2-5-2-5m-15.414 6.414s-4.297 1.265-6.363 2.121c-1.948 0.807-5.658 2.828-5.658 2.828s0 2.83 2.121 4.951 4.951 2.121 4.951 2.121 2.02-3.71 2.828-5.658c0.856-2.066 2.121-6.363 2.121-6.363m2.828 0s1.265 4.297 2.121 6.363c0.807 1.948 2.828 5.658 2.828 5.658s2.83 0 4.951-2.121 2.121-4.951 2.121-4.951-3.71-2.02-5.658-2.828c-2.066-0.856-6.363-2.121-6.363-2.121m-1.414 0.586s-2.144 3.934-3 6c-0.807 1.948-2 6-2 6s2 2 5 2 5-2 5-2-1.193-4.052-2-6c-0.856-2.066-3-6-3-6" fill="url(#d)"/>
  </g>
 </g>
</svg>
