<?xml version="1.0" encoding="UTF-8"?>
<svg width="64" height="64" version="1.1" xmlns="http://www.w3.org/2000/svg">
 <defs>
  <filter id="filter4378" x="-.1183" y="-.099353" width="1.2366" height="1.1987" color-interpolation-filters="sRGB">
   <feGaussianBlur stdDeviation="1.6425351"/>
  </filter>
  <linearGradient id="linearGradient4388" x1="40.147" x2="40.147" y1="58.146" y2="17.563" gradientTransform="translate(-.0012 .030215)" gradientUnits="userSpaceOnUse">
   <stop stop-color="#f31333" offset="0"/>
   <stop stop-color="#ff785b" offset="1"/>
  </linearGradient>
  <linearGradient id="linearGradient4567" x1="16.613" x2="16.613" y1="54.93" y2="26.717" gradientTransform="translate(-.0012 .030215)" gradientUnits="userSpaceOnUse">
   <stop stop-color="#5fb72e" offset="0"/>
   <stop stop-color="#5edc16" offset="1"/>
  </linearGradient>
  <linearGradient id="linearGradient4613" x1="38.077" x2="38.077" y1="32.347" y2="5.4764" gradientTransform="translate(-.0012 .030215)" gradientUnits="userSpaceOnUse">
   <stop stop-color="#258dc0" offset="0"/>
   <stop stop-color="#0facfa" offset="1"/>
  </linearGradient>
  <filter id="filter1057" x="-.027" y="-.027" width="1.054" height="1.054" color-interpolation-filters="sRGB">
   <feGaussianBlur stdDeviation="0.61875"/>
  </filter>
 </defs>
 <rect x="4.5" y="4.5" width="55" height="55" ry="15" fill="#141414" filter="url(#filter1057)" opacity=".3" stroke-linecap="round" stroke-width="2.7444"/>
 <rect width="64" height="64" rx="0" ry="0" fill="none" stroke-linecap="round" stroke-linejoin="round" stroke-width="1.4464" style="paint-order:stroke fill markers"/>
 <path d="m33.84 15.93c-1.5912-0.0184-3.1891 0.12065-4.8145 0.41797-8.91e-4 1.63e-4 -0.002907-1.63e-4 -0.003907 0-2.7081 0.49565-5.4854 1.4301-8.3984 2.8027 0.39885 0.65554 0.81354 1.2755 1.2363 1.8652 0.42276 0.58977 0.85582 1.1485 1.293 1.6875 3.0606 3.7738 6.3546 6.486 8.2578 10.719v0.001953c0.95087 2.1155 1.5547 4.6105 1.6055 7.8066v0.001953c0.0508 3.1974-0.45141 7.096-1.709 12.02-0.43401 1.6998-1.1995 4.1108-1.8945 6.248h15.088c8.31 0 15-6.69 15-15v-11.76c-3.1353-4.0293-7.8582-9.9549-11.08-12.316-4.7976-3.5163-9.7692-4.4366-14.578-4.4922l-0.001953-0.001953z" fill="url(#linearGradient4388)"/>
 <path d="m13.324 16.25v0.001953c-2.2703-0.009176-6.2144 0.23039-8.752 1.7949-0.045634 0.47848-0.072266 0.96229-0.072266 1.4531v10.336c4.2131-3.2533 9.5973-7.1754 12.941-9.043-0.81878-1.282-1.6093-2.7523-2.3477-4.4785-2.5e-5 -9.1e-5 -0.69767-0.060113-1.7695-0.064453z" fill="#519c26"/>
 <path d="m19.5 4.5c-8.31 0-15 6.69-15 15v0.97266c3.3777-1.4498 7.9998-3.3059 10.596-4.1582 1.2182-0.40036 2.403-0.75427 3.5586-1.0664 12.533-3.3882 21.509-1.6182 29.766 5.1738 2.684 2.2079 7.8278 8.3254 11.08 12.412v-13.334c0-8.31-6.69-15-15-15h-25z" fill="url(#linearGradient4613)"/>
 <path d="m17.441 20.793c-3.3806 1.8877-8.7309 5.7123-12.941 8.9551v14.752c0 8.31 6.69 15 15 15h9.9707c0.68066-2.1369 1.4047-4.5497 1.8379-6.2461v-0.001953c0.0465-0.74967 0.082295-1.4738 0.10938-2.1738v-0.001953c0.0271-0.69998 0.044434-1.3746 0.052734-2.0273v-0.001953c8e-3 -0.65266 0.008047-1.2829-0.001953-1.8906-0.0192-1.2157-0.073596-2.3444-0.16016-3.3945-0.0433-0.52482-0.095297-1.0306-0.1543-1.5176-0.11805-0.97417-0.26678-1.8761-0.44336-2.7129-0.79479-3.7664-2.1529-6.2367-3.8047-8.2676-0.18356-0.22567-0.3701-0.4461-0.56055-0.66211-0.3809-0.43202-0.77563-0.8464-1.1797-1.2539-0.80807-0.81501-1.6563-1.5997-2.5215-2.4297-0.43277-0.41517-0.86847-0.84378-1.3066-1.291-0.2187-0.22316-0.43926-0.45089-0.6582-0.68555v-0.001953c-0.65784-0.7051-1.3161-1.4671-1.9629-2.3184-0.43091-0.5671-0.85672-1.1727-1.2754-1.8281z" fill="url(#linearGradient4567)"/>
 <path d="m12.152 6.418c-4.5716 2.5643-7.6523 7.447-7.6523 13.082v0.99805l1.1445-0.50195v0.001953c3.3592-1.4835 6.502-2.7158 9.4492-3.6836-0.77821-1.8194-1.4983-3.9252-2.1367-6.3984l-0.80469-3.498z" fill="#353b3b"/>
 <path d="m16.635 4.7773c-1.6132 0.3098-3.1295 0.87869-4.5117 1.6582 0.73984 3.3522 1.7754 6.9704 2.9707 9.8789 1.2182-0.40036 2.403-0.75427 3.5586-1.0664 0.07762-0.02099 0.15118-0.036041 0.22852-0.056641-0.64078-1.8771-1.7342-7.1351-2.2461-10.414z" opacity=".2"/>
 <path d="m29.448 14.579c-3.3083 0.0555-6.8789 0.6119-10.795 1.6707-1.1556 0.31214-2.3394 0.66605-3.5576 1.0664 0.73837 1.7262 1.5294 3.1942 2.3481 4.4762 0.41895 0.65599 0.84364 1.2618 1.2749 1.8293 0.64683 0.85125 1.3035 1.6137 1.9613 2.3187h0.0028c0.21895 0.23466 0.4378 0.46316 0.6565 0.68633 0.43821 0.4472 0.87478 0.87545 1.3075 1.2906 0.86521 0.83002 1.7144 1.6131 2.5225 2.4281 0.40404 0.40752 0.79589 0.82306 1.1768 1.2551 0.19045 0.21601 0.3776 0.43605 0.56116 0.66172 1.6518 2.0309 3.0107 4.5024 3.8055 8.2687 0.17658 0.83676 0.32597 1.7383 0.44402 2.7125 0.059 0.48696 0.11202 0.99276 0.15527 1.5176 0.0866 1.0501 0.13882 2.1776 0.158 3.3934v0.0028c0.01 0.60774 0.0112 1.2368 3e-3 1.8895-8e-3 0.65271-0.0274 1.3289-0.0545 2.0289v0.0028c-0.0271 0.70003-0.0625 1.4242-0.10897 2.1738 0.33954-1.3292 0.61387-2.5707 0.84718-3.757 0.071-0.36123 0.11538-0.6876 0.17706-1.0363 0.14352-0.81122 0.2783-1.6102 0.3732-2.357 0.0465-0.36616 0.0737-0.70944 0.10897-1.0609 0.0665-0.66139 0.12117-1.3073 0.14982-1.9195 0.0301-0.64462 0.0611-1.2898 0.0518-1.884-1e-5 -8.83e-4 1e-5 -0.0018 0-0.0028v-0.0028c-0.0117-0.73743-0.06-1.4278-0.12804-2.0945-9e-3 -0.08861-0.0173-0.18054-0.0272-0.26797-0.0655-0.57422-0.15719-1.1166-0.26151-1.6434-0.0969-0.48914-0.21568-0.95011-0.34323-1.4027-0.0546-0.19392-0.0981-0.40012-0.158-0.58789-0.19068-0.59754-0.4086-1.1667-0.64833-1.709-0.0143-0.03224-0.0237-0.06912-0.0381-0.10118v-0.0028c-0.25597-0.56927-0.54201-1.1064-0.84446-1.627-0.11398-0.19621-0.23978-0.38097-0.35958-0.57148-0.20092-0.31948-0.40266-0.63734-0.61836-0.94336-0.13435-0.19065-0.2746-0.37686-0.41406-0.56328-0.22912-0.30623-0.45891-0.61299-0.70008-0.91054-0.10801-0.13328-0.2195-0.26445-0.32961-0.39648-0.66714-0.79993-1.3726-1.5826-2.0921-2.3762-0.23277-0.25677-0.4539-0.51576-0.68919-0.77656-0.7365-0.81628-1.4802-1.649-2.2119-2.5512-4.45e-4 -5.49e-4 4.44e-4 -0.0022 0-0.0028-0.43717-0.53902-0.87116-1.0973-1.2939-1.6871-0.42276-0.58975-0.83515-1.2093-1.234-1.8648 0.67409-0.31764 1.3392-0.60433 1.9995-0.875 0.17172-0.07039 0.34126-0.13513 0.51212-0.20234 0.4878-0.19189 0.9734-0.37268 1.4546-0.53867 0.2084-0.07189 0.41655-0.14077 0.62381-0.20781 0.45002-0.14554 0.89786-0.27657 1.343-0.39922 0.20168-0.05558 0.40399-0.11592 0.60474-0.1668 0.59814-0.15159 1.1934-0.2866 1.7843-0.39648 0.02522-0.0046 0.05107-0.01176 0.07628-0.01641h0.0028c0.71194-0.13023 1.4155-0.21746 2.1193-0.28711 0.19985-0.01981 0.39997-0.03704 0.59929-0.05195 0.70103-0.05236 1.4014-0.08734 2.0975-0.0793 4.809 0.05559 9.7789 0.97624 14.576 4.4926-5.6764-4.6695-11.692-6.9662-18.97-6.8441z" filter="url(#filter4378)" opacity=".2"/>
 <path d="m29.448 13.578c-3.3083 0.0555-6.8789 0.6119-10.795 1.6707-1.1556 0.31214-2.3394 0.66605-3.5576 1.0664 0.73837 1.7262 1.5294 3.1942 2.3481 4.4762 0.41895 0.65599 0.84364 1.2618 1.2749 1.8293 0.64683 0.85125 1.3035 1.6137 1.9613 2.3187h0.0028c0.21895 0.23466 0.4378 0.46316 0.6565 0.68633 0.43821 0.4472 0.87478 0.87545 1.3075 1.2906 0.86521 0.83002 1.7144 1.6131 2.5225 2.4281 0.40404 0.40752 0.79589 0.82306 1.1768 1.2551 0.19045 0.21601 0.3776 0.43605 0.56116 0.66172 1.6518 2.0309 3.0107 4.5024 3.8055 8.2687 0.17658 0.83676 0.32597 1.7383 0.44402 2.7125 0.059 0.48696 0.11202 0.99276 0.15527 1.5176 0.0866 1.0501 0.13882 2.1776 0.158 3.3934v0.0028c0.01 0.60774 0.0112 1.2368 3e-3 1.8895-8e-3 0.65271-0.0274 1.3289-0.0545 2.0289v0.0028c-0.0271 0.70003-0.0625 1.4242-0.10897 2.1738 0.33954-1.3292 0.61387-2.5707 0.84718-3.757 0.071-0.36123 0.11538-0.6876 0.17706-1.0363 0.14352-0.81122 0.2783-1.6102 0.3732-2.357 0.0465-0.36616 0.0737-0.70944 0.10897-1.0609 0.0665-0.66139 0.12117-1.3073 0.14982-1.9195 0.0301-0.64462 0.0611-1.2898 0.0518-1.884-1e-5 -8.83e-4 1e-5 -0.0018 0-0.0028v-0.0028c-0.0117-0.73743-0.06-1.4278-0.12804-2.0945-9e-3 -0.08861-0.0173-0.18054-0.0272-0.26797-0.0655-0.57422-0.15719-1.1166-0.26151-1.6434-0.0969-0.48914-0.21568-0.95011-0.34323-1.4027-0.0546-0.19392-0.0981-0.40012-0.158-0.58789-0.19068-0.59754-0.4086-1.1667-0.64833-1.709-0.0143-0.03224-0.0237-0.06912-0.0381-0.10118v-0.0028c-0.25597-0.56927-0.54201-1.1064-0.84446-1.627-0.11398-0.19621-0.23978-0.38097-0.35958-0.57148-0.20092-0.31948-0.40266-0.63734-0.61836-0.94336-0.13435-0.19065-0.2746-0.37686-0.41406-0.56328-0.22912-0.30623-0.45891-0.61299-0.70008-0.91054-0.10801-0.13328-0.2195-0.26445-0.32961-0.39648-0.66714-0.79993-1.3726-1.5826-2.0921-2.3762-0.23277-0.25677-0.4539-0.51576-0.68919-0.77656-0.7365-0.81628-1.4802-1.649-2.2119-2.5512-4.45e-4 -5.49e-4 4.44e-4 -0.0022 0-0.0028-0.43717-0.53902-0.87116-1.0973-1.2939-1.6871-0.42276-0.58975-0.83515-1.2093-1.234-1.8648 0.67409-0.31764 1.3392-0.60433 1.9995-0.875 0.17172-0.07039 0.34126-0.13513 0.51212-0.20234 0.4878-0.19189 0.9734-0.37268 1.4546-0.53867 0.2084-0.07189 0.41655-0.14077 0.62381-0.20781 0.45002-0.14554 0.89786-0.27657 1.343-0.39922 0.20168-0.05558 0.40399-0.11592 0.60474-0.1668 0.59814-0.15159 1.1934-0.2866 1.7843-0.39648 0.02522-0.0046 0.05107-0.01176 0.07628-0.01641h0.0028c0.71194-0.13023 1.4155-0.21746 2.1193-0.28711 0.19985-0.01981 0.39997-0.03704 0.59929-0.05195 0.70103-0.05236 1.4014-0.08734 2.0975-0.0793 4.809 0.05559 9.7789 0.97624 14.576 4.4926-5.6764-4.6695-11.692-6.9662-18.97-6.8441z" fill="#fff"/>
</svg>
