<?xml version="1.0" encoding="UTF-8"?>
<svg width="64" height="64" version="1.1" xmlns="http://www.w3.org/2000/svg" xmlns:cc="http://creativecommons.org/ns#" xmlns:dc="http://purl.org/dc/elements/1.1/" xmlns:rdf="http://www.w3.org/1999/02/22-rdf-syntax-ns#" xmlns:xlink="http://www.w3.org/1999/xlink">
 <metadata>
  <rdf:RDF>
   <cc:Work rdf:about="">
    <dc:format>image/svg+xml</dc:format>
    <dc:type rdf:resource="http://purl.org/dc/dcmitype/StillImage"/>
   </cc:Work>
  </rdf:RDF>
 </metadata>
 <defs>
  <linearGradient id="linearGradient905" x1="21.902" x2="21.902" y1="17.238" y2="29.031" gradientUnits="userSpaceOnUse">
   <stop stop-color="#ff5c63" offset="0"/>
   <stop stop-color="#eb1439" offset="1"/>
  </linearGradient>
  <linearGradient id="linearGradient913" x1="40.752" x2="40.752" y1="28.508" y2="17.206" gradientUnits="userSpaceOnUse">
   <stop stop-color="#0ab816" offset="0"/>
   <stop stop-color="#0cf36c" offset="1"/>
  </linearGradient>
  <linearGradient id="linearGradient921" x1="23.723" x2="23.723" y1="46.261" y2="34.988" gradientUnits="userSpaceOnUse">
   <stop stop-color="#ffa70a" offset="0"/>
   <stop stop-color="#fff520" offset="1"/>
  </linearGradient>
  <linearGradient id="linearGradient929" x1="40.333" x2="40.333" y1="46.834" y2="35.465" gradientUnits="userSpaceOnUse">
   <stop stop-color="#3164d8" offset="0"/>
   <stop stop-color="#19c3e5" offset="1"/>
  </linearGradient>
  <filter id="filter1057" x="-.027" y="-.027" width="1.054" height="1.054" color-interpolation-filters="sRGB">
   <feGaussianBlur stdDeviation="0.61875"/>
  </filter>
  <linearGradient id="linearGradient1053" x1="-127" x2="-72" y1="60" y2="5" gradientTransform="matrix(1 0 0 1 131.5 -.51036)" gradientUnits="userSpaceOnUse">
   <stop stop-color="#dee0e2" offset="0"/>
   <stop stop-color="#f1f3f5" stop-opacity=".99608" offset="1"/>
  </linearGradient>
 </defs>
 <rect transform="matrix(1 0 0 1 -.00022781 -.000228)" x="4.5" y="4.5" width="55" height="55" ry="15" fill="#141414" filter="url(#filter1057)" opacity=".3" stroke-linecap="round" stroke-width="2.7444"/>
 <rect x="4.4996" y="4.4996" width="55.001" height="55.001" ry="15" fill="url(#linearGradient1053)" stroke-linecap="round" stroke-width="2.7444"/>
 <g transform="translate(6e-4 -1e-4)">
  <path d="m17.546 16h10.911c0.85226 0 1.5422 0.7826 1.5422 1.7444v10.517c0 0.9632-0.68852 1.7388-1.5422 1.7388h-10.911c-0.84666 0-1.5464-0.777-1.5464-1.7388v-10.517c0-0.9632 0.69412-1.7444 1.5464-1.7444" fill="url(#linearGradient905)"/>
  <path d="m35.546 16h10.911c0.85226 0 1.5422 0.7826 1.5422 1.7444v10.517c0 0.9632-0.68852 1.7388-1.5422 1.7388h-10.911c-0.84666 0-1.5464-0.777-1.5464-1.7388v-10.517c0-0.9632 0.69412-1.7444 1.5464-1.7444" fill="url(#linearGradient913)"/>
  <path d="m17.546 34h10.911c0.85226 0 1.5422 0.7826 1.5422 1.7444v10.517c0 0.9576-0.68852 1.7388-1.5422 1.7388h-10.911c-0.84666 0-1.5464-0.7826-1.5464-1.7388v-10.517c0-0.9632 0.69412-1.7444 1.5464-1.7444" fill="url(#linearGradient921)"/>
  <path d="m35.546 34h10.911c0.85226 0 1.5422 0.7826 1.5422 1.7444v10.517c0 0.9576-0.68852 1.7388-1.5422 1.7388h-10.911c-0.84666 0-1.5464-0.7826-1.5464-1.7388v-10.517c0-0.9632 0.69412-1.7444 1.5464-1.7444" fill="url(#linearGradient929)"/>
 </g>
</svg>
