<?xml version="1.0" encoding="UTF-8"?>
<!-- Created with Inkscape (http://www.inkscape.org/) -->
<svg width="64" height="64" version="1.1" viewBox="0 0 16.933 16.933" xmlns="http://www.w3.org/2000/svg" xmlns:cc="http://creativecommons.org/ns#" xmlns:dc="http://purl.org/dc/elements/1.1/" xmlns:rdf="http://www.w3.org/1999/02/22-rdf-syntax-ns#" xmlns:xlink="http://www.w3.org/1999/xlink">
 <defs>
  <linearGradient id="linearGradient7684" x1="55.195" x2="63.539" y1="11.817" y2="26.123" gradientTransform="matrix(.54794 0 0 .54794 -9.5277 1.32)" gradientUnits="userSpaceOnUse">
   <stop stop-color="#43cfea" offset="0"/>
   <stop stop-color="#138aff" offset="1"/>
  </linearGradient>
  <radialGradient id="radialGradient7688" cx="25.391" cy="288.85" r="4.2883" gradientTransform="matrix(1.0671 -4.2612e-8 2.6652e-8 .66745 -15.088 -181.15)" gradientUnits="userSpaceOnUse">
   <stop stop-color="#fff" offset="0"/>
   <stop stop-color="#e9e9e9" offset="1"/>
  </radialGradient>
  <linearGradient id="linearGradient7690" x1="26.207" x2="26.207" y1="298.52" y2="287.71" gradientTransform="matrix(.54794 0 0 .54794 -1.6573 -145.75)" gradientUnits="userSpaceOnUse">
   <stop stop-color="#219ef9" offset="0"/>
   <stop stop-color="#219ef9" stop-opacity="0" offset="1"/>
  </linearGradient>
  <filter id="filter1057" x="-.027" y="-.027" width="1.054" height="1.054" color-interpolation-filters="sRGB">
   <feGaussianBlur stdDeviation="0.61875"/>
  </filter>
  <linearGradient id="linearGradient1053" x1="-127" x2="-72" y1="60" y2="5" gradientTransform="matrix(.26458 0 0 .26458 18.252 -.13493)" gradientUnits="userSpaceOnUse">
   <stop stop-color="#dee0e2" offset="0"/>
   <stop stop-color="#f1f3f5" stop-opacity=".99608" offset="1"/>
  </linearGradient>
  <linearGradient id="linearGradient996" x1="11.144" x2="11.144" y1="15.929" y2="19.758" gradientTransform="matrix(.26458 0 0 .26458 -11.934 -7.7807)" gradientUnits="userSpaceOnUse">
   <stop stop-color="#ff5032" offset="0"/>
   <stop stop-color="#e63214" offset="1"/>
  </linearGradient>
  <linearGradient id="linearGradient1000" x1="11.144" x2="11.144" y1="15.929" y2="19.758" gradientTransform="matrix(.26458 0 0 .26458 -14.993 -1.6609)" gradientUnits="userSpaceOnUse">
   <stop stop-color="#ff8214" offset="0"/>
   <stop stop-color="#ffbe14" offset="1"/>
  </linearGradient>
  <linearGradient id="linearGradient1010" x1="11.144" x2="11.144" y1="15.929" y2="19.758" gradientTransform="matrix(.26458 0 0 .26458 -13.464 -7.7807)" gradientUnits="userSpaceOnUse">
   <stop stop-color="#3cd23c" offset="0"/>
   <stop stop-color="#1eaa1e" offset="1"/>
  </linearGradient>
 </defs>
 <metadata>
  <rdf:RDF>
   <cc:Work rdf:about="">
    <dc:format>image/svg+xml</dc:format>
    <dc:type rdf:resource="http://purl.org/dc/dcmitype/StillImage"/>
   </cc:Work>
  </rdf:RDF>
 </metadata>
 <g transform="translate(16.54)">
  <rect transform="matrix(.26458 0 0 .26458 -16.54 0)" x="4.5" y="4.5" width="55" height="55" ry="15" fill="#141414" filter="url(#filter1057)" opacity=".3" stroke-linecap="round" stroke-width="2.7444"/>
  <rect x="-15.349" y="1.1906" width="14.552" height="14.552" ry="3.9687" fill="url(#linearGradient1053)" stroke-linecap="round" stroke-width=".72611"/>
  <g>
   <g stroke-linecap="round" stroke-linejoin="round" stroke-width=".64549">
    <circle transform="scale(1,-1)" cx="-8.9943" cy="-3.0599" r=".52916" fill="url(#linearGradient996)" style="paint-order:stroke fill markers"/>
    <circle cx="-12.053" cy="3.0599" r=".52916" fill="url(#linearGradient1000)" style="paint-order:stroke fill markers"/>
    <circle transform="scale(1,-1)" cx="-10.524" cy="-3.0599" r=".52916" fill="url(#linearGradient1010)" style="paint-order:stroke fill markers"/>
   </g>
   <path d="m-11.367 4.4713h6.5874c1.8397 0 3.3208 1.4811 3.3208 3.3208v3.9416c0 1.8397-1.4811 3.3208-3.3208 3.3208h-6.5874c-1.8397 0-3.3208-1.4811-3.3208-3.3208v-3.9416c0-1.8397 1.4811-3.3208 3.3208-3.3208z" color="#000000" color-rendering="auto" dominant-baseline="auto" fill="#fff" image-rendering="auto" shape-rendering="auto" solid-color="#000000" stop-color="#000000" style="font-feature-settings:normal;font-variant-alternates:normal;font-variant-caps:normal;font-variant-east-asian:normal;font-variant-ligatures:normal;font-variant-numeric:normal;font-variant-position:normal;font-variation-settings:normal;inline-size:0;isolation:auto;mix-blend-mode:normal;shape-margin:0;shape-padding:0;text-decoration-color:#000000;text-decoration-line:none;text-decoration-style:solid;text-indent:0;text-orientation:mixed;text-transform:none;white-space:normal"/>
  </g>
 </g>
 <path d="m5.7144 8.19 1.3822-0.0332-0.01123 4.0197 0.88135-2.2105 1.0912-0.0262 0.92519 2.1672-0.14638-4.0159 1.3822-0.0332c-0.07736 1.7233-0.11827 3.4426-0.3296 5.1805l-1.2367 0.0297-1.1089-2.2631-1.0493 2.3148-1.2367 0.0297c-0.3151-1.6856-0.41612-3.426-0.54337-5.1596z" fill="#808080"/>
 <g transform="translate(-9.4685 .60729)">
  <path d="m25.923 11.643a4.2143 4.2143 0 0 1-4.2143 4.2143 4.2143 4.2143 0 0 1-4.2143-4.2143 4.2143 4.2143 0 0 1 4.2143-4.2143 4.2143 4.2143 0 0 1 4.2143 4.2143z" fill="url(#linearGradient7684)" stroke-width="1.0619"/>
  <g transform="translate(9.7007)" stroke-width=".54794">
   <path d="m12.408 9.709c-0.44515 0-0.83068 0.266-1.0217 0.65205-0.12385-0.08211-0.27046-0.13041-0.42807-0.13041-0.44177 0-0.79988 0.37367-0.79988 0.83462 0 0.0733 0.01111 0.1442 0.02812 0.21192-0.31907 0.22455-0.52806 0.60657-0.52806 1.04 0 0.69358 0.53513 1.252 1.1998 1.252h2.2997c0.66471 0 1.1998-0.55841 1.1998-1.252 0-0.55386-0.34267-1.0208-0.81862-1.1868 0.01291-0.07198 0.01874-0.14581 0.01874-0.2217 0-0.66262-0.51481-1.1998-1.1499-1.1998z" color="#000000" fill="url(#radialGradient7688)"/>
   <path d="m12.408 9.709c-0.44515 0-0.83068 0.266-1.0217 0.65205-0.12385-0.08211-0.27046-0.13041-0.42807-0.13041-0.44177 0-0.79988 0.37367-0.79988 0.83462 0 0.0733 0.01111 0.1442 0.02812 0.21192-0.31907 0.22455-0.52806 0.60657-0.52806 1.04 0 0.69358 0.53513 1.252 1.1998 1.252h2.2997c0.66471 0 1.1998-0.55841 1.1998-1.252 0-0.55386-0.34267-1.0208-0.81862-1.1868 0.01291-0.07198 0.01874-0.14581 0.01874-0.2217 0-0.66262-0.51481-1.1998-1.1499-1.1998z" color="#000000" fill="url(#linearGradient7690)"/>
  </g>
 </g>
</svg>
