<?xml version="1.0" encoding="UTF-8"?>
<svg width="64" height="64" version="1.1" viewBox="0 0 16.933 16.933" xmlns="http://www.w3.org/2000/svg" xmlns:cc="http://creativecommons.org/ns#" xmlns:dc="http://purl.org/dc/elements/1.1/" xmlns:rdf="http://www.w3.org/1999/02/22-rdf-syntax-ns#" xmlns:xlink="http://www.w3.org/1999/xlink">
 <defs>
  <radialGradient id="radialGradient1028" cx="17.056" cy="16.999" r="7.1673" gradientTransform="matrix(.59888 0 0 .59888 -1.748 -1.0691)" gradientUnits="userSpaceOnUse">
   <stop stop-opacity="0" offset="0"/>
   <stop stop-opacity="0" offset=".63229"/>
   <stop stop-opacity=".0078431" offset=".64048"/>
   <stop stop-opacity=".019608" offset=".6508"/>
   <stop stop-opacity=".031373" offset=".6625"/>
   <stop stop-opacity=".047059" offset=".67694"/>
   <stop stop-opacity=".070588" offset=".69414"/>
   <stop stop-opacity=".086275" offset=".70859"/>
   <stop stop-opacity=".9" offset="1"/>
  </radialGradient>
  <linearGradient id="linearGradient1026" x1="18.527" x2="18.527" y1="9.2111" y2="26.183" gradientTransform="matrix(.5 0 0 .5 .047 -.0513)" gradientUnits="userSpaceOnUse">
   <stop stop-color="#fff" offset="0"/>
   <stop stop-color="#e1b2fb" offset="1"/>
  </linearGradient>
  <filter id="filter1057" x="-.027" y="-.027" width="1.054" height="1.054" color-interpolation-filters="sRGB">
   <feGaussianBlur stdDeviation="0.61875"/>
  </filter>
  <linearGradient id="linearGradient1053" x1="-127" x2="-72" y1="60" y2="5" gradientTransform="matrix(.26458 0 0 .26458 20.93 4.2443)" gradientUnits="userSpaceOnUse">
   <stop stop-color="#a53cff" offset="0"/>
   <stop stop-color="#b496ff" offset="1"/>
  </linearGradient>
 </defs>
 <metadata>
  <rdf:RDF>
   <cc:Work rdf:about="">
    <dc:format>image/svg+xml</dc:format>
    <dc:type rdf:resource="http://purl.org/dc/dcmitype/StillImage"/>
    <dc:title/>
   </cc:Work>
  </rdf:RDF>
 </metadata>
 <g transform="translate(13.863 -4.3792)" stroke-linecap="round">
  <rect transform="matrix(.26458 0 0 .26458 -13.863 4.3792)" x="4.5" y="4.5" width="55" height="55" ry="15" fill="#141414" filter="url(#filter1057)" opacity=".3" stroke-width="2.7444"/>
  <rect x="-12.672" y="5.5698" width="14.552" height="14.552" ry="3.9687" fill="url(#linearGradient1053)" stroke-width=".7261"/>
 </g>
 <circle cx="8.4663" cy="9.1115" r="3.933" fill="url(#radialGradient1028)" opacity=".358" stroke="#000" stroke-linecap="round" stroke-linejoin="round" stroke-opacity=".0078431" stroke-width=".71866"/>
 <path d="m8.4663 3.7432a4.8869 4.8869 0 0 0-4.8869 4.8869 4.8869 4.8869 0 0 0 4.8869 4.8869 4.8869 4.8869 0 0 0 4.8869-4.8869 4.8869 4.8869 0 0 0-0.75828-2.6046c-0.0033-0.02242-0.0054-0.026125-9e-3 -0.050904-0.02212-0.14897-0.02698-0.27959-0.02334-0.60344 0.0026-0.22748 0.0054-0.48465 0.0064-0.57109 0.0015-0.13974-0.0024-0.16625-0.04137-0.24074-0.02589-0.049555-0.06416-0.098117-0.10924-0.14105-0.05109-0.059864-0.1118-0.088513-0.17287-0.10446-0.19672-0.052437-0.41218-0.00914-0.58965 0.00852-0.27752 0.026315-0.56596 0.04967-0.78267 0.061516a4.8869 4.8869 0 0 0-2.4069-0.64056zm0 1.629a3.2579 3.2579 0 0 1 3.2579 3.2579 3.2579 3.2579 0 0 1-3.2579 3.2579 3.2579 3.2579 0 0 1-3.2579-3.2579 3.2579 3.2579 0 0 1 3.2579-3.2579z" fill="url(#linearGradient1026)" stroke-width=".2715"/>
</svg>
