<?xml version="1.0" encoding="UTF-8"?>
<svg width="64" height="64" version="1.1" viewBox="0 0 16.933 16.933" xmlns="http://www.w3.org/2000/svg" xmlns:cc="http://creativecommons.org/ns#" xmlns:dc="http://purl.org/dc/elements/1.1/" xmlns:rdf="http://www.w3.org/1999/02/22-rdf-syntax-ns#">
 <metadata>
  <rdf:RDF>
   <cc:Work rdf:about="">
    <dc:format>image/svg+xml</dc:format>
    <dc:type rdf:resource="http://purl.org/dc/dcmitype/StillImage"/>
   </cc:Work>
  </rdf:RDF>
 </metadata>
 <defs>
  <filter id="filter1057" x="-.027" y="-.027" width="1.054" height="1.054" color-interpolation-filters="sRGB">
   <feGaussianBlur stdDeviation="0.61875"/>
  </filter>
  <linearGradient id="linearGradient1053" x1="-127" x2="-72" y1="60" y2="5" gradientTransform="matrix(.26458 0 0 .26458 34.792 -.13503)" gradientUnits="userSpaceOnUse">
   <stop stop-color="#dee0e2" offset="0"/>
   <stop stop-color="#f1f3f5" stop-opacity=".99608" offset="1"/>
  </linearGradient>
 </defs>
 <rect transform="matrix(.26458 0 0 .26458 -6.0163e-5 -6.0163e-5)" x="4.5" y="4.5" width="55" height="55" ry="15" fill="#141414" filter="url(#filter1057)" opacity=".3" stroke-linecap="round" stroke-width="2.7444"/>
 <rect x="1.1905" y="1.1905" width="14.552" height="14.552" ry="3.9687" fill="url(#linearGradient1053)" stroke-linecap="round" stroke-width=".7261"/>
 <g transform="matrix(.42105 0 0 .42105 .94239 .801)">
  <path d="m17.885 9.6083v18.682c4.3121 0.02373 8.7536-2.0626 8.7536-9.6288" fill="none" stroke="#5a5a5a" stroke-width=".92604"/>
  <path d="m17.885 18.662c-5.1747 0-9.0388-4.5866-9.0388-8.8439" fill="none" stroke="#5a5a5a" stroke-width=".92604"/>
  <g fill="#444">
   <circle cx="9.1156" cy="9.6405" r="1.6651"/>
   <circle cx="17.922" cy="9.6405" r="1.6651"/>
   <circle transform="scale(-1,1)" cx="-26.699" cy="18.632" r="1.6651"/>
   <circle transform="scale(-1,1)" cx="-17.892" cy="18.632" r="1.6651"/>
   <circle transform="scale(-1,1)" cx="-17.944" cy="27.624" r="1.6651"/>
  </g>
 </g>
</svg>
