<?xml version="1.0" encoding="UTF-8"?>
<svg width="64" height="64" version="1.1" viewBox="0 0 16.933 16.933" xmlns="http://www.w3.org/2000/svg" xmlns:cc="http://creativecommons.org/ns#" xmlns:dc="http://purl.org/dc/elements/1.1/" xmlns:rdf="http://www.w3.org/1999/02/22-rdf-syntax-ns#">
 <metadata>
  <rdf:RDF>
   <cc:Work rdf:about="">
    <dc:format>image/svg+xml</dc:format>
    <dc:type rdf:resource="http://purl.org/dc/dcmitype/StillImage"/>
   </cc:Work>
  </rdf:RDF>
 </metadata>
 <defs>
  <filter id="filter1057" x="-.027" y="-.027" width="1.054" height="1.054" color-interpolation-filters="sRGB">
   <feGaussianBlur stdDeviation="0.61875"/>
  </filter>
  <linearGradient id="linearGradient1053" x1="-127" x2="-72" y1="60" y2="5" gradientTransform="matrix(.26458 0 0 .26458 34.792 -.13493)" gradientUnits="userSpaceOnUse">
   <stop stop-color="#32d7ff" offset="0"/>
   <stop stop-color="#329bff" offset="1"/>
  </linearGradient>
 </defs>
 <rect transform="scale(.26458)" x="4.5" y="4.5" width="55" height="55" ry="15" fill="#141414" filter="url(#filter1057)" opacity=".3" stroke-linecap="round" stroke-width="2.7444"/>
 <rect x="1.1906" y="1.1906" width="14.552" height="14.552" ry="3.9687" fill="url(#linearGradient1053)" stroke-linecap="round" stroke-width=".72611"/>
 <g transform="translate(-22.438 -.00021125)">
  <path d="m30.904 3.8365c-2.5146-1.8e-5 -4.5531 1.989-4.5532 4.4426 1.66e-4 1.1596 0.46539 2.2729 1.2955 3.1027 0.0024 0.45721-0.01335 1.1576-0.49506 1.6986 1.2821 0.10472 1.9866-0.31362 2.4613-0.54364 0.41913 0.12187 0.85402 0.18416 1.2914 0.185 2.5145-9.1e-5 4.5533-1.989 4.5532-4.4426-5.1e-5 -2.4535-2.0388-4.4425-4.5532-4.4426z" fill="#fff" style="paint-order:fill markers stroke"/>
  <text x="28.66024" y="8.5073442" fill="#2fbaff" font-family="TSCu_Times" font-size="13.627px" stroke-width=".34068" style="font-variant-caps:normal;font-variant-east-asian:normal;font-variant-ligatures:normal;font-variant-numeric:normal;line-height:1.25" xml:space="preserve"><tspan x="28.66024" y="8.5073442" fill="#2fbaff" font-family="TSCu_Times" font-size="13.627px" stroke-width=".34068" style="font-variant-caps:normal;font-variant-east-asian:normal;font-variant-ligatures:normal;font-variant-numeric:normal">,,</tspan></text>
 </g>
</svg>
