<?xml version="1.0" encoding="UTF-8"?>
<svg width="64" height="64" version="1.1" viewBox="0 0 16.933 16.933" xmlns="http://www.w3.org/2000/svg" xmlns:cc="http://creativecommons.org/ns#" xmlns:dc="http://purl.org/dc/elements/1.1/" xmlns:rdf="http://www.w3.org/1999/02/22-rdf-syntax-ns#" xmlns:xlink="http://www.w3.org/1999/xlink">
 <metadata>
  <rdf:RDF>
   <cc:Work rdf:about="">
    <dc:format>image/svg+xml</dc:format>
    <dc:type rdf:resource="http://purl.org/dc/dcmitype/StillImage"/>
   </cc:Work>
  </rdf:RDF>
 </metadata>
 <defs>
  <filter id="filter1057" x="-.027" y="-.027" width="1.054" height="1.054" color-interpolation-filters="sRGB">
   <feGaussianBlur stdDeviation="0.61875"/>
  </filter>
  <linearGradient id="linearGradient1053" x1="-127" x2="-72" y1="60" y2="5" gradientTransform="matrix(.26458 0 0 .26458 34.792 -.13493)" gradientUnits="userSpaceOnUse">
   <stop stop-color="#dee0e2" offset="0"/>
   <stop stop-color="#f1f3f5" stop-opacity=".99608" offset="1"/>
  </linearGradient>
 </defs>
 <rect transform="scale(.26458)" x="4.5" y="4.5" width="55" height="55" ry="15" fill="#141414" filter="url(#filter1057)" opacity=".3" stroke-linecap="round" stroke-width="2.7444"/>
 <rect x="1.1906" y="1.1906" width="14.552" height="14.552" ry="3.9687" fill="url(#linearGradient1053)" stroke-linecap="round" stroke-width=".7261"/>
 <path d="m8.4665 3.4394a0.91842 0.91842 0 0 0-0.91841 0.9184 0.91842 0.91842 0 0 0 0.02983 0.22791c-0.68391 0.3944-1.3482 0.78769-2.0139 1.1807a0.91842 0.91842 0 0 0-0.21544-0.17372 0.91842 0.91842 0 0 0-0.50244-0.12216 0.91842 0.91842 0 0 0-0.75206 0.45826 0.91842 0.91842 0 0 0 0.3361 1.2545 0.91842 0.91842 0 0 0 0.314 0.11046c3.7e-5 0.78224 3.6e-5 1.5633 0 2.3455a0.91842 0.91842 0 0 0-0.314 0.11046 0.91842 0.91842 0 0 0-0.3361 1.2545 0.91842 0.91842 0 0 0 1.2545 0.3361 0.91842 0.91842 0 0 0 0.21884-0.17635c0.67075 0.39128 1.3415 0.7826 2.0122 1.1739a0.91842 0.91842 0 0 0-0.03153 0.23735 0.91842 0.91842 0 0 0 0.91841 0.91841 0.91842 0.91842 0 0 0 0.91841-0.91841 0.91842 0.91842 0 0 0-0.03229-0.23735c0.67104-0.39145 1.3421-0.7828 2.0132-1.1743a0.91842 0.91842 0 0 0 0.21827 0.17692 0.91842 0.91842 0 0 0 1.2547-0.33629 0.91842 0.91842 0 0 0-0.33628-1.2545 0.91842 0.91842 0 0 0-0.31419-0.11065c-2.5e-5 -0.78187-2.5e-5 -1.5625 0-2.3444a0.91842 0.91842 0 0 0 0.31419-0.11121 0.91842 0.91842 0 0 0 0.33628-1.2547 0.91842 0.91842 0 0 0-0.81701-0.45901 0.91842 0.91842 0 0 0-0.43768 0.12292 0.91842 0.91842 0 0 0-0.21865 0.17636c-0.67067-0.39124-1.3414-0.78245-2.012-1.1737a0.91842 0.91842 0 0 0 0.03153-0.23753 0.91842 0.91842 0 0 0-0.91841-0.9184zm-0.64727 1.5695a0.91842 0.91842 0 0 0 0.40539 0.2347v2.2896a0.91842 0.91842 0 0 0-0.40898 0.23772l-2.0372-1.1563a0.91842 0.91842 0 0 0 0.0085-0.41691c0.67405-0.39697 1.345-0.79326 2.0323-1.1888zm1.29 0.00392c0.67871 0.3959 1.3575 0.79176 2.0362 1.1877a0.91842 0.91842 0 0 0 0.0082 0.41483l-2.0365 1.1558a0.91842 0.91842 0 0 0-0.4086-0.23848v-2.2898a0.91842 0.91842 0 0 0 0.40067-0.22997zm2.2838 2.0222a0.91842 0.91842 0 0 0 0.31212 0.206c-2.9e-5 0.81404-2.7e-5 1.6372 0 2.4512a0.91842 0.91842 0 0 0-0.29928 0.19278l-2.0541-1.2218a0.91842 0.91842 0 0 0 0.03323-0.2449 0.91842 0.91842 0 0 0-0.02965-0.22658zm-5.8528 3.667e-4 2.0372 1.1561a0.91842 0.91842 0 0 0-0.02927 0.22677 0.91842 0.91842 0 0 0 0.03418 0.24452l-2.0553 1.2224a0.91842 0.91842 0 0 0-0.2989-0.19278c4.5e-5 -0.8139 3.6e-5 -1.6368 0-2.4507a0.91842 0.91842 0 0 0 0.31212-0.20638zm3.5636 2.0428 2.0555 1.2224a0.91842 0.91842 0 0 0-0.01416 0.43239c-0.67834 0.39578-1.3567 0.7915-2.0351 1.1873a0.91842 0.91842 0 0 0-0.40143-0.23074v-2.3865a0.91842 0.91842 0 0 0 0.3952-0.22488zm-1.2755 3.708e-4a0.91842 0.91842 0 0 0 0.39633 0.22545v2.3863a0.91842 0.91842 0 0 0-0.40124 0.23036c-0.67869-0.39603-1.3573-0.79203-2.036-1.1881a0.91842 0.91842 0 0 0-0.01322-0.43201z" color="#000000" color-rendering="auto" dominant-baseline="auto" fill="#353535" fill-rule="evenodd" image-rendering="auto" shape-rendering="auto" solid-color="#000000" style="font-feature-settings:normal;font-variant-alternates:normal;font-variant-caps:normal;font-variant-ligatures:normal;font-variant-numeric:normal;font-variant-position:normal;isolation:auto;mix-blend-mode:normal;shape-padding:0;text-decoration-color:#000000;text-decoration-line:none;text-decoration-style:solid;text-indent:0;text-orientation:mixed;text-transform:none;white-space:normal"/>
</svg>
