<?xml version="1.0" encoding="UTF-8"?>
<svg width="64" height="64" version="1.1" viewBox="0 0 16.933 16.933" xmlns="http://www.w3.org/2000/svg" xmlns:cc="http://creativecommons.org/ns#" xmlns:dc="http://purl.org/dc/elements/1.1/" xmlns:rdf="http://www.w3.org/1999/02/22-rdf-syntax-ns#">
 <metadata>
  <rdf:RDF>
   <cc:Work rdf:about="">
    <dc:format>image/svg+xml</dc:format>
    <dc:type rdf:resource="http://purl.org/dc/dcmitype/StillImage"/>
   </cc:Work>
  </rdf:RDF>
 </metadata>
 <defs>
  <filter id="filter1057" x="-.027" y="-.027" width="1.054" height="1.054" color-interpolation-filters="sRGB">
   <feGaussianBlur stdDeviation="0.61875"/>
  </filter>
  <linearGradient id="linearGradient1053" x1="-127" x2="-72" y1="60" y2="5" gradientTransform="matrix(.26458 0 0 .26458 34.792 -.13493)" gradientUnits="userSpaceOnUse">
   <stop stop-color="#32d7ff" offset="0"/>
   <stop stop-color="#329bff" offset="1"/>
  </linearGradient>
 </defs>
 <rect transform="scale(.26458)" x="4.5" y="4.5" width="55" height="55" ry="15" fill="#141414" filter="url(#filter1057)" opacity=".3" stroke-linecap="round" stroke-width="2.7444"/>
 <rect x="1.1906" y="1.1906" width="14.552" height="14.552" ry="3.9687" fill="url(#linearGradient1053)" stroke-linecap="round" stroke-width=".72611"/>
 <path d="m8.5527 3.9051c-0.34784 0.00346-0.57947 0.02995-0.79567 0.064037-2.0701 0.32614-3.8903 1.619-3.2843 4.2795 0.86166 3.783 7.0039 1.4916 7.0879 1.0507 0.03376-0.17742 0.07496-0.55425 0.05864-0.60918-0.13303 0.16515-0.664 0.33679-0.84322 0.39564-0.14613 0.047978-4.5044 1.5945-5.2781-1.0289-0.29515-1.0007-0.0974-2.3854 1.5303-3.2258l0.21838-0.10361 0.01002 0.23337c0.01097 0.25545 0.26131 7.891 0.2623 8.0004l5.94e-4 0.06763 0.88915-0.01618 0.88916-0.01607 1.6399-4.5186c0.9019-2.4852 1.6403-4.5292 1.641-4.5423 5.95e-4 -0.013029-0.19221-0.018158-0.42848-0.011369l-0.42961 0.01238-1.2333 3.6981c-0.67834 2.034-1.2356 3.6961-1.2383 3.6934-0.0027-0.0025-0.04346-1.6683-0.09067-3.7014s-0.09211-3.7035-0.09979-3.7118c-0.0077-0.00833-0.2353-0.012796-0.50581-0.010156z" fill="#b4e1ff" style="paint-order:fill markers stroke"/>
 <path d="m8.7445 3.9042c-0.0595-1.775e-4 -0.1246-1.556e-4 -0.19223 5.167e-4 -0.04348 4.233e-4 -0.08501 0.00145-0.12506 0.00258-0.04004 0.00111-0.07875 0.00237-0.11575 0.00413-0.037 0.00175-0.07261 0.00388-0.10697 0.0062-0.03435 0.00233-0.06711 0.00492-0.09922 0.00775-0.0321 0.00283-0.06329 0.00602-0.09354 0.0093-0.03024 0.00328-0.05959 0.00667-0.08836 0.010335-0.05755 0.00733-0.11286 0.015252-0.16691 0.023771-0.06469 0.010192-0.12913 0.021496-0.19327 0.033589-0.06414 0.012091-0.12775 0.025256-0.1912 0.039274-0.06345 0.014018-0.12651 0.02899-0.18913 0.044958-0.06263 0.015965-0.12487 0.032702-0.18655 0.050643-0.03084 0.00897-0.06141 0.018436-0.09198 0.027905-0.03057 0.00947-0.06117 0.018971-0.09147 0.02894-0.03029 0.00997-0.06044 0.020532-0.09043 0.031006-0.03 0.010472-0.05972 0.021058-0.0894 0.032038-0.02969 0.01098-0.05953 0.022097-0.08888 0.033588-0.02936 0.011491-0.05832 0.023135-0.08733 0.035139s-0.05765 0.02417-0.0863 0.036689c-0.02865 0.01252-0.05751 0.025717-0.08578 0.038756s-0.05636 0.026228-0.08423 0.03979-0.05522 0.027252-0.08268 0.041341-0.05462 0.028276-0.08165 0.042891c-0.02703 0.014616-0.05403 0.02981-0.08061 0.044957-0.02659 0.015147-0.05294 0.030308-0.07906 0.045992-0.02612 0.015682-0.05187 0.031837-0.07751 0.048058-0.02564 0.016222-0.05133 0.032848-0.07648 0.049609s-0.04978 0.033337-0.07441 0.050643-0.04927 0.035374-0.07338 0.053226c-0.02411 0.017851-0.04775 0.035858-0.07131 0.05426s-0.04677 0.036853-0.06976 0.05581c-0.023 0.018955-0.04579 0.038364-0.06821 0.057877-0.02242 0.01951-0.04432 0.039356-0.06615 0.059427-0.02182 0.020071-0.04338 0.040346-0.06459 0.060978s-0.04246 0.04133-0.06304 0.062528-0.04052 0.04283-0.06046 0.064595c-0.01994 0.021767-0.03963 0.043807-0.05891 0.066145-0.01928 0.022339-0.03824 0.044783-0.05684 0.067696s-0.03687 0.046272-0.05478 0.069762c-0.0179 0.02349-0.03552 0.047241-0.05271 0.071312-0.01719 0.024072-0.03418 0.048725-0.05064 0.073379s-0.03234 0.049172-0.04806 0.074413-0.03103 0.051164-0.04599 0.076998c-0.01496 0.025831-0.02974 0.051609-0.04393 0.07803-0.01418 0.026424-0.02795 0.053077-0.04134 0.080096s-0.02618 0.054546-0.03876 0.082165c-0.01258 0.02762-0.02494 0.055493-0.03669 0.083716s-0.0232 0.056956-0.03411 0.085782c-0.0109 0.028826-0.02096 0.057898-0.03101 0.087333-0.01004 0.029434-0.01977 0.058837-0.02894 0.088883-0.0092 0.030046-0.01808 0.060808-0.02635 0.091465-0.0083 0.03066-0.01589 0.061224-0.02325 0.0925-0.0074 0.031276-0.01424 0.063187-0.02067 0.095085-0.0064 0.031898-0.0126 0.064113-0.01809 0.096633-0.0055 0.03252-0.01046 0.065036-0.01499 0.098183-0.0045 0.033147-0.0083 0.066992-0.01188 0.10077-0.0036 0.033776-0.0067 0.06791-0.0093 0.10232-0.0026 0.034409-0.0047 0.068823-0.0062 0.10387-0.0015 0.035044-0.0026 0.070767-0.0031 0.10645-5.3e-4 0.035684-5.3e-4 0.071677 0 0.108 5.29e-4 0.036327 0.0015 0.072582 0.0031 0.10955s0.0035 0.074519 0.0062 0.11214c0.0027 0.037618 0.0061 0.075416 0.0098 0.11369 0.0038 0.038269 0.0081 0.076829 0.01292 0.11575 0.0049 0.038922 0.01003 0.078242 0.01602 0.11782 6e-3 0.039581 0.01302 0.079647 0.02015 0.11989 0.0071 0.04024 0.01444 0.080533 0.02274 0.12144 0.0083 0.040904 0.0174 0.082451 0.02687 0.12402 0.0067 0.029554 0.01382 0.058515 0.02119 0.087333 0.0074 0.028818 0.01474 0.057178 0.02274 0.085264 8e-3 0.028088 0.01671 0.055834 0.02532 0.083197 0.0086 0.027363 0.01713 0.054482 0.02635 0.081131 0.0092 0.026649 0.01912 0.053122 0.02894 0.079064 0.0098 0.025942 0.01957 0.051239 0.02997 0.076479 0.0104 0.025241 0.02106 0.050381 0.03204 0.074929s0.02256 0.048482 0.03411 0.072347c0.01154 0.023865 0.02304 0.047609 0.03514 0.070796 0.0121 0.023188 0.02457 0.045693 0.03721 0.068211 0.01264 0.022519 0.02559 0.044807 0.03876 0.066661 0.01317 0.021855 0.02662 0.043394 0.04031 0.064595s0.02766 0.041976 0.04186 0.062528c0.0142 0.020553 0.02871 0.041063 0.04341 0.060978s0.02977 0.039629 0.04496 0.058911c0.01518 0.019283 0.03033 0.038184 0.04599 0.056842s0.03193 0.036734 0.04806 0.054776 0.03199 0.035795 0.04857 0.053226 0.03362 0.034845 0.05064 0.051675c0.01703 0.01683 0.03422 0.033374 0.05167 0.049609 0.01746 0.016237 0.03534 0.031892 0.05323 0.047542 0.01788 0.01565 0.03596 0.030921 0.05426 0.045992s0.0366 0.029943 0.05529 0.044442c0.0187 0.014499 0.03775 0.028956 0.05684 0.042891 0.01909 0.013936 0.03841 0.027445 0.05788 0.040825s0.03907 0.026445 0.05891 0.039274c0.01984 0.01283 0.03975 0.025434 0.05994 0.037724s0.04044 0.024418 0.06098 0.036173 0.04165 0.023393 0.06253 0.034622c0.02088 0.01123 0.04184 0.02185 0.06304 0.03256s0.04256 0.02132 0.06408 0.03152 0.04329 0.02027 0.06511 0.02997 0.04351 0.01922 0.06563 0.02842 0.04426 0.01816 0.06666 0.02687c0.0448 0.01742 0.09005 0.03358 0.13591 0.04909 0.04586 0.01552 0.09269 0.03027 0.13952 0.04393 0.04684 0.01367 0.09386 0.02636 0.14159 0.03824 0.04773 0.01188 0.09616 0.02292 0.14469 0.03307 0.04853 0.01015 0.09751 0.01942 0.14676 0.02791 0.04925 0.0085 0.09842 0.01637 0.14831 0.02325 0.04988 0.0069 0.10046 0.01275 0.15089 0.01809 0.05043 0.0053 0.10104 0.0101 0.15193 0.01395 0.05089 0.0039 0.1017 0.0069 0.15296 0.0093 0.01955 9.26e-4 0.03932 0.0014 0.05891 0.0021 0.03179 0.0012 0.06371 0.0024 0.0956 0.0031 0.05155 0.0011 0.10328 0.0013 0.15503 1e-3 0.05175-2.38e-4 0.10317-0.0011 0.15503-0.0026s0.10418-0.0035 0.15606-0.0062c0.05189-0.0027 0.10372-0.0055 0.15554-0.0093 0.05183-0.0038 0.10335-0.0086 0.15503-0.01344 0.05168-0.0048 0.10358-0.01017 0.15503-0.01602 0.05145-0.0058 0.10235-0.01182 0.15348-0.0186 0.05113-0.0068 0.10224-0.01404 0.15296-0.0217 0.05072-0.0077 0.10118-0.0158 0.15141-0.02429 0.05023-0.0085 0.10021-0.01762 0.14986-0.02687 0.04965-0.0092 0.09881-0.01848 0.14779-0.02842 2.64e-4 -6.7e-5 7.67e-4 6.7e-5 1e-3 0 0.04865-0.0099 0.09731-0.02049 0.14521-0.03101 0.04823-0.01058 0.09575-0.02139 0.14314-0.03256 0.04739-0.01116 0.0946-0.02294 0.14107-0.03462 0.0021-5.54e-4 0.0045-9.29e-4 0.0067-0.0015 0.04417-0.01114 0.088-0.02256 0.13126-0.03411 0.04546-0.01214 0.09-0.02416 0.13436-0.03669 0.04436-0.01253 0.08808-0.02537 0.13126-0.03824 0.04317-0.01287 0.08574-0.02613 0.12764-0.03927 0.0419-0.013142 0.08348-0.026432 0.12402-0.03979 0.04054-0.013359 0.08027-0.026794 0.11937-0.040306 0.0391-0.013512 0.07767-0.026701 0.11524-0.040306 0.03757-0.013608 0.07412-0.027183 0.11007-0.040825 0.03595-0.013639 0.07117-0.027728 0.10542-0.041341s0.06728-0.026781 0.09973-0.040306c0.03246-0.013526 0.06399-0.027445 0.09457-0.040825 0.03058-0.013377 0.06027-0.026619 0.08888-0.03979 0.02862-0.013171 0.05663-0.025854 0.0832-0.038756 0.02657-0.012901 0.05205-0.025666 0.07648-0.03824 0.02442-0.012573 0.04755-0.025024 0.06976-0.037205 0.0222-0.012181 0.04316-0.024439 0.06304-0.036173 0.0199-0.011732 0.03882-0.022884 0.05633-0.034107 0.01749-0.011221 0.03356-0.022421 0.04857-0.033073 0.01503-0.010652 0.02889-0.020986 0.04134-0.031006 0.01246-0.01002 0.02379-0.019611 0.03359-0.02894 0.0098-0.00933 0.01826-0.018296 0.02532-0.026871 0.0071-0.00858 0.01284-0.016525 0.01705-0.024288 0.0021-0.00388 0.0038-0.0077 0.0052-0.011368 0.0013-0.00367 0.0024-0.00741 0.0031-0.010852 0.0042-0.022177 0.0086-0.04754 0.01292-0.074929 0.0043-0.027389 0.0082-0.056766 0.0124-0.087333 0.0084-0.061134 0.01652-0.12647 0.02274-0.1881 0.0031-0.030813 0.0054-0.061002 0.0077-0.088883 0.0021-0.027881 0.0041-0.05357 0.0052-0.076479 0.0011-0.022913 0.0018-0.043005 0.0015-0.058911-1.84e-4 -0.00795-9.8e-4 -0.014849-0.0015-0.02067-5.3e-4 -0.00582-0.0016-0.010521-0.0026-0.013952-0.0083 0.010321-0.0182 0.020661-0.02946 0.031006-0.01125 0.010343-0.02392 0.020698-0.03772 0.031006-0.01381 0.010308-0.02845 0.020794-0.04444 0.031006-0.01598 0.010213-0.03334 0.020431-0.05116 0.030488-0.01783 0.010059-0.03653 0.019608-0.05581 0.029456-0.01929 0.00985-0.03905 0.019877-0.05943 0.029456-0.02037 0.00958-0.0409 0.018656-0.06201 0.027905-0.02111 0.00925-0.04261 0.018522-0.06408 0.027389-0.04294 0.017727-0.08647 0.034808-0.12867 0.050643-0.0422 0.015833-0.08342 0.03045-0.12196 0.043926-0.07706 0.026947-0.14381 0.048849-0.18862 0.06356-0.0082 0.00269-0.03344 0.011135-0.06666 0.022221-0.0039 0.0013-0.0036 0.00118-0.0078 0.00258-0.04014 0.013322-0.09493 0.031316-0.16226 0.052194-0.03367 0.010438-0.07083 0.021781-0.11059 0.033588-0.03975 0.011808-0.08228 0.024374-0.12764 0.037205-0.04536 0.012832-0.09316 0.025762-0.14366 0.039274-0.05049 0.01351-0.10349 0.027498-0.15864 0.041341-0.02535 0.00636-0.05281 0.012741-0.07906 0.01912-0.03087 0.0075-0.06095 0.014749-0.09302 0.02222-0.05933 0.01383-0.12041 0.027874-0.18345 0.041341-0.06304 0.01347-0.12803 0.026511-0.1943 0.039274-0.06627 0.012764-0.13406 0.024979-0.20309 0.036689-0.01423 0.00241-0.02906 0.00436-0.04341 0.00672-0.013644-0.57078-0.027124-1.1316-0.043864-1.8526-0.0118-0.50828-0.02365-0.99395-0.03462-1.4366-0.01098-0.44262-0.02093-0.84234-0.02997-1.1787-9e-3 -0.33639-0.01722-0.60938-0.02325-0.7989-3e-3 -0.094765-0.0052-0.16867-0.0072-0.2191-0.0021-0.050439-0.0037-0.077509-0.0047-0.078549-0.0011-0.00103-0.0054-0.0022-0.01292-0.0031-0.0075-9.26e-4 -0.0182-0.00179-0.03152-0.00258-0.02665-0.00156-0.06423-0.0027-0.11007-0.00362-0.04584-9.26e-4 -0.09966-0.00137-0.15916-0.00155zm-1.4981 0.82319 0.0098 0.23357c0.0027 0.063862 0.02045 0.58856 0.04548 1.342 0.02503 0.75344 0.05736 1.7352 0.0894 2.7125 0.0062 0.19071 0.01088 0.33536 0.01705 0.524-0.0165-0.0023-0.03319-0.00421-0.04961-0.00672-0.03661-0.00561-0.07284-0.011941-0.10904-0.018603-0.0362-0.00666-0.07227-0.013936-0.108-0.021704-0.03573-0.00777-0.07125-0.015885-0.10645-0.024804-0.0352-0.00892-0.07029-0.018827-0.1049-0.02894-0.03461-0.010112-0.06888-0.020693-0.10283-0.032038-0.03396-0.011348-0.06752-0.023029-0.10077-0.035657-0.03325-0.012626-0.06622-0.025842-0.0987-0.03979-0.03248-0.013949-0.06447-0.028612-0.09612-0.043926s-0.06277-0.031334-0.09354-0.048058c-0.03076-0.016724-0.06113-0.034533-0.09095-0.05271s-0.05904-0.036655-0.08785-0.056326c-0.02881-0.019672-0.05701-0.040285-0.08475-0.061494s-0.05503-0.043354-0.08165-0.066145-0.0526-0.046378-0.07803-0.070796c-0.02543-0.024415-0.05023-0.04936-0.07441-0.075448-0.02419-0.026085-0.04791-0.053334-0.0708-0.081131-0.02288-0.027797-0.04514-0.056228-0.06666-0.085782-0.02152-0.029551-0.04243-0.060115-0.06253-0.091465-0.01005-0.015674-0.01977-0.031408-0.02945-0.047542-0.0097-0.016131-0.01911-0.032496-0.02842-0.049093-0.0093-0.016597-0.01846-0.033578-0.02739-0.050643-0.0089-0.017066-0.01782-0.034136-0.02635-0.051675-0.0085-0.017539-0.01667-0.035726-0.0248-0.053742-0.0081-0.018018-0.01604-0.036274-0.02377-0.054776-0.0077-0.018502-0.01541-0.037335-0.02274-0.056326-0.0073-0.018992-0.01428-0.037872-0.02119-0.057361-0.0069-0.019489-0.01368-0.039438-0.02015-0.059427-0.0065-0.019989-0.01256-0.039965-0.0186-0.060462-0.0092-0.031273-0.01812-0.063089-0.02635-0.095085-0.0082-0.031993-0.01607-0.064491-0.02326-0.097151-0.0072-0.03266-0.01356-0.065433-0.01964-0.098702-0.0061-0.033268-0.01162-0.066949-0.01654-0.10077-0.0049-0.033819-0.0092-0.068005-0.01292-0.10232-0.0037-0.034313-0.0069-0.0686-0.0093-0.10335-0.0024-0.034753-0.0041-0.069767-0.0052-0.1049-0.0011-0.035134-0.0014-0.070476-1e-3 -0.10594 3.17e-4 -0.035459 0.0014-0.071241 0.0031-0.10697 0.0018-0.035726 4e-3 -0.071548 0.0072-0.10749 0.0033-0.035938 0.0076-0.07191 0.0124-0.108 0.0048-0.036094 0.01009-0.072328 0.01654-0.10852 0.0065-0.036192 0.01358-0.072286 0.0217-0.10852 0.0081-0.036234 0.01753-0.072299 0.02739-0.10852 0.0099-0.036218 0.02039-0.072373 0.03204-0.10852 0.01165-0.036147 0.02422-0.0725 0.03772-0.10852 0.0135-0.03602 0.028-0.071654 0.04341-0.10749 0.01541-0.035835 0.03172-0.071894 0.04909-0.10749 0.01737-0.035591 0.0359-0.071159 0.05529-0.10645 0.01939-0.035295 0.03951-0.069963 0.06098-0.1049 0.02147-0.03494 0.04409-0.069857 0.06769-0.10438 0.0236-0.034528 0.0481-0.068775 0.0739-0.10283 0.0258-0.034059 0.05309-0.067751 0.08113-0.10128 0.02805-0.033536 0.05698-0.06678 0.08733-0.099733s0.06185-0.06587 0.09457-0.098183c0.03271-0.032313 0.06666-0.064497 0.1018-0.096117 0.03514-0.03162 0.07142-0.062666 0.10904-0.093534 0.03762-0.030868 0.07664-0.061406 0.11679-0.091465 0.04015-0.030062 0.08179-0.059687 0.12454-0.088883 0.02137-0.014597 0.04308-0.029038 0.06511-0.043407 0.02203-0.014372 0.04397-0.028754 0.06666-0.042891 0.0227-0.014137 0.04588-0.027961 0.06925-0.041857s0.04726-0.027694 0.07131-0.041341c0.02405-0.01365 0.04812-0.027432 0.07286-0.040825s0.05001-0.026659 0.07545-0.03979l0.21859-0.10335zm0.22272 4.8204c0.03696 0.00458 0.07385 0.0088 0.1111 0.012402 0.03726 0.0036 0.07465 0.00663 0.11214 0.0093-0.03749-0.00267-0.07488-0.0057-0.11214-0.0093-0.03726-0.0036-0.07414-0.00782-0.1111-0.012402zm1.0154 0.018086c-0.03746 0.00265-0.07501 0.00521-0.11265 0.00723-0.03764 0.00201-0.0754 0.00382-0.11317 0.00517 0.03776-0.00135 0.07553-0.00315 0.11317-0.00517 0.03764-0.00201 0.07519-0.00458 0.11265-0.00723zm-0.67955 0.010335c0.03766 0.00177 0.07539 0.00319 0.11317 0.00413-0.03778-9.26e-4 -0.07551-0.00234-0.11317-0.00413zm0.34054 0.00465c-0.03783 6.351e-4 -0.07585 0.00116-0.11369 0.00103 0.03783 1.294e-4 0.07586-4.003e-4 0.11369-0.00103z" fill="#fff" fill-rule="evenodd" stroke-linecap="round" stroke-linejoin="round" stroke-width="1.0583" style="paint-order:stroke fill markers"/>
</svg>
