<?xml version="1.0" encoding="UTF-8"?>
<svg width="64" height="64" version="1.1" viewBox="0 0 16.933 16.933" xmlns="http://www.w3.org/2000/svg" xmlns:cc="http://creativecommons.org/ns#" xmlns:dc="http://purl.org/dc/elements/1.1/" xmlns:rdf="http://www.w3.org/1999/02/22-rdf-syntax-ns#" xmlns:xlink="http://www.w3.org/1999/xlink">
 <metadata>
  <rdf:RDF>
   <cc:Work rdf:about="">
    <dc:format>image/svg+xml</dc:format>
    <dc:type rdf:resource="http://purl.org/dc/dcmitype/StillImage"/>
   </cc:Work>
  </rdf:RDF>
 </metadata>
 <defs>
  <filter id="filter1057" x="-.027" y="-.027" width="1.054" height="1.054" color-interpolation-filters="sRGB">
   <feGaussianBlur stdDeviation="0.61875"/>
  </filter>
  <linearGradient id="linearGradient1053" x1="-127" x2="-72" y1="60" y2="5" gradientTransform="matrix(.26458 0 0 .26458 34.792 -.13493)" gradientUnits="userSpaceOnUse">
   <stop stop-color="#df2a2a" offset="0"/>
   <stop stop-color="#f83f3f" offset="1"/>
  </linearGradient>
 </defs>
 <path d="m63.366-13.641-7.5223-7.6006" color="#000000" fill="none" stroke-width=".6"/>
 <path d="m41.242-29.284 8.8556 8.8325c1.7498 1.5783 2.9157 1.6977 4.709 0.10074l11.969-11.168" color="#000000" fill="none" stroke-width=".7"/>
 <style type="text/css">.st0{fill:url(#SVGID_1_);}
	.st1{fill:url(#SVGID_2_);}
	.st2{fill:url(#SVGID_3_);}
	.st3{fill:url(#SVGID_4_);}
	.st4{fill:url(#SVGID_5_);}
	.st5{fill:url(#SVGID_6_);}
	.st6{opacity:0.29;}
	.st7{fill:url(#SVGID_7_);}</style>
 <g>
  <rect transform="scale(.26458)" x="4.5" y="4.5" width="55" height="55" ry="15" fill="#141414" filter="url(#filter1057)" opacity=".3" stroke-linecap="round" stroke-width="2.7444"/>
  <rect x="1.1906" y="1.1906" width="14.552" height="14.552" ry="3.9687" fill="url(#linearGradient1053)" stroke-linecap="round" stroke-width=".7261"/>
  <path class="st7" d="m12.407 7.3771v0.062337c-0.18398 0.71687-0.3373 1.4961-0.52128 2.3065-0.03067 0.12467-0.12265 0.21818-0.21464 0.21818-1.0426 0.12467-2.1158 0.18701-3.189 0.18701s-2.1465-0.06234-3.189-0.18701c-0.12266 0-0.21465-0.093506-0.24531-0.21818-0.18398-0.81038-0.3373-1.5896-0.52128-2.3065v-0.062337c-0.21465-0.031168-0.36796-0.21818-0.36796-0.43636 0-0.28052 0.21465-0.56103 0.49062-0.62337 0.27597-0.062337 0.49062 0.15584 0.49062 0.46753 0 0.18701-0.06133 0.34285-0.18398 0.46753 0.21465 0.21818 0.42929 0.46753 0.64394 0.71687 0.15332 0.18701 0.39863 0.31168 0.64394 0.31168 0.27597 0 0.55195-0.15584 0.73593-0.43636 0.36796-0.5922 0.73593-1.2156 1.1039-1.8389-0.09199-0.12467-0.15332-0.28052-0.15332-0.43636 0-0.34285 0.21465-0.65454 0.52128-0.65454 0.27597 0 0.52128 0.31168 0.52128 0.65454 0 0.15584-0.06133 0.31168-0.15332 0.43636 0.36796 0.62337 0.73593 1.2467 1.1039 1.8389 0.18398 0.28052 0.42929 0.46753 0.73593 0.46753 0.24531 0 0.45996-0.093505 0.64394-0.28052 0.21465-0.24935 0.42929-0.49869 0.6746-0.71687-0.12265-0.12467-0.18398-0.28052-0.18398-0.46753 0-0.31168 0.21464-0.52986 0.49062-0.46753 0.27597 0.062337 0.49062 0.34285 0.49062 0.62337-0.03067 0.15584-0.15332 0.31168-0.36796 0.37402zm-0.58261 3.4285c0-0.15584-0.09199-0.24935-0.24531-0.21818-2.0545 0.31168-4.2009 0.31168-6.2554 0-0.12266-0.03117-0.24531 0.09351-0.24531 0.21818v0.65454c0 0.15584 0.09199 0.31168 0.24531 0.34285 2.0545 0.4987 4.2009 0.4987 6.2554 0 0.12266-0.03117 0.24531-0.18701 0.24531-0.34285z" fill="#fff" stroke-width=".14558"/>
 </g>
</svg>
