<?xml version="1.0" encoding="UTF-8"?>
<svg width="64" height="64" version="1.1" viewBox="0 0 16.933 16.933" xmlns="http://www.w3.org/2000/svg" xmlns:cc="http://creativecommons.org/ns#" xmlns:dc="http://purl.org/dc/elements/1.1/" xmlns:rdf="http://www.w3.org/1999/02/22-rdf-syntax-ns#">
 <metadata>
  <rdf:RDF>
   <cc:Work rdf:about="">
    <dc:format>image/svg+xml</dc:format>
    <dc:type rdf:resource="http://purl.org/dc/dcmitype/StillImage"/>
   </cc:Work>
  </rdf:RDF>
 </metadata>
 <defs>
  <filter id="filter1057-3" x="-.027" y="-.027" width="1.054" height="1.054" color-interpolation-filters="sRGB">
   <feGaussianBlur stdDeviation="0.61875"/>
  </filter>
  <linearGradient id="linearGradient1053-7" x1="-127" x2="-72" y1="60" y2="5" gradientTransform="matrix(.26458 0 0 .26458 34.793 -.13496)" gradientUnits="userSpaceOnUse">
   <stop stop-color="#8cd750" offset="0"/>
   <stop stop-color="#7dcd32" stop-opacity=".99608" offset=".49585"/>
   <stop stop-color="#87d241" stop-opacity=".99608" offset="1"/>
  </linearGradient>
 </defs>
 <rect transform="matrix(.26458 0 0 .26458 -6e-5 -6.016e-5)" x="4.5" y="4.5" width="55" height="55" ry="15" fill="#141414" filter="url(#filter1057-3)" opacity=".3" stroke-linecap="round" stroke-width="2.7444"/>
 <rect x="1.1905" y="1.1905" width="14.552" height="14.552" ry="3.9687" fill="url(#linearGradient1053-7)" stroke-linecap="round" stroke-width=".72611"/>
 <path d="m5.0713 10.821v-0.377h-1.885v-1.522l-0.12295-0.08136c-0.38436-0.25432-0.31051-0.85632 0.1227-1.0002 0.15219-0.05055 0.30653-0.0389 0.45835 0.03459 0.37308 0.1806 0.39312 0.74968 0.03426 0.97276l-0.11535 0.07171v1.1475h1.508v-0.754h1.3195v-1.7105l-0.12295-0.08135c-0.38436-0.25432-0.31051-0.85632 0.1227-1.0002 0.15219-0.05055 0.30653-0.0389 0.45835 0.03459 0.37308 0.1806 0.39312 0.74968 0.03426 0.97276l-0.11535 0.07171v1.713h1.508l-5.93e-4 -1.2429-5.92e-4 -1.2429-0.09408-0.04339c-0.05175-0.02386-0.12164-0.07951-0.15531-0.12366-0.31118-0.40798-0.0028-0.97353 0.50235-0.92139 0.37009 0.0382 0.58759 0.39371 0.46356 0.75771-0.04314 0.12661-0.18695 0.28605-0.27879 0.3091l-0.05951 0.01494v2.4925h1.508v-1.7105l-0.12297-0.08135c-0.38436-0.25432-0.31051-0.85632 0.1227-1.0002 0.15219-0.05055 0.30653-0.0389 0.45834 0.03459 0.37308 0.1806 0.39312 0.74968 0.03426 0.97276l-0.11535 0.07171v1.713h1.3195v0.754h1.508v-1.173l-0.0595-0.01494c-0.15158-0.03804-0.3175-0.3038-0.3175-0.50855 0-0.30543 0.26007-0.5655 0.5655-0.5655s0.5655 0.26007 0.5655 0.5655c0 0.20475-0.16592 0.47051-0.3175 0.50855l-0.05951 0.01494v1.55h-1.885v0.754h-6.786zm6.409-0.5655v-0.5655h-6.032v1.131h6.032zm-5.5972 0.13066c-0.11688-0.11687-0.03406-0.31916 0.13066-0.31916 0.04591 0 0.09421 0.02138 0.13066 0.05784 0.03646 0.03646 0.05784 0.08476 0.05784 0.13066 0 0.04591-0.02138 0.09421-0.05784 0.13066-0.03646 0.03646-0.08476 0.05784-0.13066 0.05784-0.04591 0-0.09421-0.02138-0.13066-0.05784zm0.754 0c-0.11687-0.11687-0.03406-0.31916 0.13066-0.31916 0.04591 0 0.09421 0.02138 0.13066 0.05784s0.05783 0.08476 0.05783 0.13066c0 0.04591-0.02138 0.09421-0.05783 0.13066-0.03646 0.03646-0.08476 0.05784-0.13066 0.05784-0.04591 0-0.09421-0.02138-0.13066-0.05784zm0.754 0c-0.11688-0.11687-0.03406-0.31916 0.13066-0.31916 0.04591 0 0.09421 0.02138 0.13066 0.05784s0.05784 0.08476 0.05784 0.13066c0 0.04591-0.02138 0.09421-0.05784 0.13066-0.03646 0.03646-0.08476 0.05784-0.13066 0.05784-0.04591 0-0.09421-0.02138-0.13066-0.05784zm-3.8857-1.885c0.11687-0.11688 0.03406-0.31916-0.13066-0.31916-0.09687 0-0.1885 0.09163-0.1885 0.1885s0.09163 0.1885 0.1885 0.1885c0.04591 0 0.09421-0.02138 0.13066-0.05784zm10.179 0c0.11688-0.11688 0.03406-0.31916-0.13066-0.31916-0.09687 0-0.1885 0.09163-0.1885 0.1885s0.09163 0.1885 0.1885 0.1885c0.04591 0 0.09421-0.02138 0.13066-0.05784zm-6.9745-1.3195c0.11687-0.11688 0.03406-0.31916-0.13066-0.31916-0.04591 0-0.09421 0.02138-0.13066 0.05784s-0.05783 0.08476-0.05783 0.13066c0 0.04591 0.02138 0.09421 0.05783 0.13066 0.03646 0.03646 0.08476 0.05784 0.13066 0.05784 0.04591 0 0.09421-0.02138 0.13066-0.05784zm3.77 0c0.11688-0.11688 0.03406-0.31916-0.13066-0.31916-0.09687 0-0.1885 0.09163-0.1885 0.1885s0.09163 0.1885 0.1885 0.1885c0.04591 0 0.09421-0.02138 0.13066-0.05784zm-1.885-0.754c0.11688-0.11688 0.03406-0.31916-0.13066-0.31916-0.04591 0-0.09421 0.02138-0.13066 0.05783-0.11688 0.11688-0.03406 0.31916 0.13066 0.31916 0.04591 0 0.09421-0.02138 0.13066-0.05783z" fill="#fff" stroke-width=".13072"/>
</svg>
