<?xml version="1.0" encoding="UTF-8"?>
<svg width="64" height="64" version="1.1" viewBox="0 0 16.933 16.933" xmlns="http://www.w3.org/2000/svg" xmlns:cc="http://creativecommons.org/ns#" xmlns:dc="http://purl.org/dc/elements/1.1/" xmlns:rdf="http://www.w3.org/1999/02/22-rdf-syntax-ns#">
 <metadata>
  <rdf:RDF>
   <cc:Work rdf:about="">
    <dc:format>image/svg+xml</dc:format>
    <dc:type rdf:resource="http://purl.org/dc/dcmitype/StillImage"/>
   </cc:Work>
  </rdf:RDF>
 </metadata>
 <defs>
  <linearGradient id="linearGradient927" x1="19.325" x2="19.325" y1="20.77" y2="10.748" gradientTransform="matrix(.4375 0 0 .4375 1.1001 1.0166)" gradientUnits="userSpaceOnUse">
   <stop stop-color="#2c2e30" offset="0"/>
   <stop stop-color="#4a4e51" offset="1"/>
  </linearGradient>
  <filter id="filter1057" x="-.027" y="-.027" width="1.054" height="1.054" color-interpolation-filters="sRGB">
   <feGaussianBlur stdDeviation="0.61875"/>
  </filter>
  <linearGradient id="linearGradient1053" x1="-127" x2="-72" y1="60" y2="5" gradientTransform="matrix(.26458 0 0 .26458 23.345 1.4175)" gradientUnits="userSpaceOnUse">
   <stop stop-color="#dee0e2" offset="0"/>
   <stop stop-color="#f1f3f5" stop-opacity=".99608" offset="1"/>
  </linearGradient>
 </defs>
 <g transform="translate(11.447 -1.5525)" stroke-linecap="round">
  <rect transform="matrix(.26458 0 0 .26458 -11.447 1.5525)" x="4.5" y="4.5" width="55" height="55" ry="15" fill="#141414" filter="url(#filter1057)" opacity=".3" stroke-width="2.7444"/>
  <rect x="-10.257" y="2.743" width="14.552" height="14.552" ry="3.9687" fill="url(#linearGradient1053)" stroke-width=".7261"/>
 </g>
 <path d="m8.7848 5.0669a0.32185 0.32185 0 0 0-0.29659 0.19576l-1.3272 3.0024-1.2728-1.901 0.00127 0.64361-2.5745 0.00515 0.00515 2.5745 2.5745-0.00515 0.00127 0.64361 1.1922-1.7962-0.081655 0.18495 1.9309-0.00385-0.93139 2.1069-0.29442-0.13015 0.13864 1.2788 1.0387-0.75823-0.2941-0.13015 1.1773-2.6633 1.2728 1.901-0.0013-0.64361 2.5745-0.00515-0.0051-2.5745-2.5745 0.00515-0.0013-0.64361-1.1922 1.7962 0.081655-0.18495-1.9309 0.00385 1.0812-2.4459a0.32185 0.32185 0 0 0-0.29224-0.45605z" fill="url(#linearGradient927)" fill-rule="evenodd" stroke-width=".4375"/>
</svg>
