<?xml version="1.0" encoding="UTF-8"?>
<svg width="64" height="64" version="1.1" viewBox="0 0 16.933 16.933" xmlns="http://www.w3.org/2000/svg" xmlns:cc="http://creativecommons.org/ns#" xmlns:dc="http://purl.org/dc/elements/1.1/" xmlns:rdf="http://www.w3.org/1999/02/22-rdf-syntax-ns#">
 <metadata>
  <rdf:RDF>
   <cc:Work rdf:about="">
    <dc:format>image/svg+xml</dc:format>
    <dc:type rdf:resource="http://purl.org/dc/dcmitype/StillImage"/>
   </cc:Work>
  </rdf:RDF>
 </metadata>
 <defs>
  <filter id="filter1057" x="-.027" y="-.027" width="1.054" height="1.054" color-interpolation-filters="sRGB">
   <feGaussianBlur stdDeviation="0.61875"/>
  </filter>
  <linearGradient id="linearGradient1053" x1="-127" x2="-72" y1="60" y2="5" gradientTransform="matrix(.26458 0 0 .26458 34.792 -.1349)" gradientUnits="userSpaceOnUse">
   <stop stop-color="#df2a2a" offset="0"/>
   <stop stop-color="#f83f3f" offset="1"/>
  </linearGradient>
 </defs>
 <rect transform="scale(.26458)" x="4.5" y="4.5" width="55" height="55" ry="15" fill="#141414" filter="url(#filter1057)" opacity=".3" stroke-linecap="round" stroke-width="2.7444"/>
 <rect x="1.1906" y="1.1906" width="14.552" height="14.552" ry="3.9687" fill="url(#linearGradient1053)" stroke-linecap="round" stroke-width=".72611"/>
 <path d="m8.4666 3.5594a4.9072 4.9072 0 0 0-4.9073 4.907 4.9072 4.9072 0 0 0 4.9073 4.9073 4.9072 4.9072 0 0 0 4.907-4.9073 4.9072 4.9072 0 0 0-4.907-4.907zm-7e-3 0.86416a0.46165 0.46165 0 0 1 0.46882 0.46755v3.0836a0.46166 0.46166 0 0 1-0.92332 0v-3.0836a0.46165 0.46165 0 0 1 0.4545-0.46755zm-2.117 1.5591a0.46165 0.46165 0 0 1 0.33555 0.79323c-0.45808 0.45808-0.74044 1.0868-0.74044 1.7878 0 1.4019 1.1273 2.5279 2.5292 2.5279s2.5279-1.126 2.5279-2.5279c0-0.70095-0.28235-1.3297-0.74044-1.7878a0.46198 0.46198 0 0 1 0.65265-0.65393c0.62411 0.62411 1.0111 1.4913 1.0111 2.4417 0 1.9008-1.5504 3.4512-3.4512 3.4512s-3.4525-1.5504-3.4525-3.4512c0-0.95042 0.38699-1.8176 1.0111-2.4417a0.46165 0.46165 0 0 1 0.3171-0.13931z" fill="#f9f9f9" stroke-width=".17531"/>
</svg>
