<?xml version="1.0" encoding="UTF-8"?>
<svg width="64" height="64" version="1.1" viewBox="0 0 16.933 16.933" xmlns="http://www.w3.org/2000/svg" xmlns:cc="http://creativecommons.org/ns#" xmlns:dc="http://purl.org/dc/elements/1.1/" xmlns:rdf="http://www.w3.org/1999/02/22-rdf-syntax-ns#">
 <defs>
  <filter id="filter1057-7" x="-.027" y="-.027" width="1.054" height="1.054" color-interpolation-filters="sRGB">
   <feGaussianBlur stdDeviation="0.61875"/>
  </filter>
  <linearGradient id="linearGradient1053-5" x1="-127" x2="-72" y1="60" y2="5" gradientTransform="matrix(.26458 0 0 .26458 34.792 -.13511)" gradientUnits="userSpaceOnUse">
   <stop stop-color="#323741" offset="0"/>
   <stop stop-color="#465064" offset="1"/>
  </linearGradient>
 </defs>
 <metadata>
  <rdf:RDF>
   <cc:Work rdf:about="">
    <dc:format>image/svg+xml</dc:format>
    <dc:type rdf:resource="http://purl.org/dc/dcmitype/StillImage"/>
    <dc:title/>
   </cc:Work>
  </rdf:RDF>
 </metadata>
 <rect transform="matrix(.26458 0 0 .26458 -6.0136e-5 -6.0136e-5)" x="4.5" y="4.5" width="55" height="55" ry="15" fill="#141414" filter="url(#filter1057-7)" opacity=".3" stroke-linecap="round" stroke-width="2.7444"/>
 <rect x="1.1905" y="1.1905" width="14.552" height="14.552" ry="3.9687" fill="url(#linearGradient1053-5)" stroke-linecap="round" stroke-width=".72611"/>
 <path d="m11.583 5.1192-5.4448-0.00615-0.059401 0.28547 0.15751 0.019867c0.38393 0.049662 0.56098 0.21724 0.56062 0.53232-9.77e-5 0.088613-0.020073 0.34458-0.039856 0.42333l-0.76283 4.1836c-0.13861 0.67922-0.32591 0.88576-0.86751 0.95404l-0.1674 0.0195-0.049552 0.28547 2.8357 0.0032 0.049552-0.28547-0.20674-0.01992c-0.45287-0.03989-0.6496-0.20749-0.64923-0.54225 1.198e-4 -0.10831 0.020002-0.27567 0.039853-0.41349l0.37644-2.0377 0.73844 8.339e-4c0.3643 4.102e-4 0.64973 0.089337 0.77758 0.22731 0.12783 0.14783 0.22595 0.45317 0.22565 0.719-4.56e-5 0.039385-0.00997 0.10829-0.019926 0.20674l-9.13e-5 0.078769 0.31507 3.551e-4 0.52503-2.8547-0.32492-3.616e-4 -0.01975 0.049206-0.15807 0.47243c-0.029637 0.088575-0.10854 0.21648-0.217 0.34436-0.2366 0.26557-0.49271 0.36374-0.97515 0.3632l-0.79753-8.766e-4 0.2774-1.5356c0.079255-0.43313 0.17802-0.7087 0.26673-0.79722 0.20699-0.19669 0.46304-0.25548 1.1326-0.25471 1.2307 0.00138 2.008 0.5044 2.5482 1.6471l0.37428-0.11773z" fill="#fff" stroke-width=".24616"/>
</svg>
