<?xml version="1.0" encoding="UTF-8" standalone="no"?>
<svg
   xmlns:dc="http://purl.org/dc/elements/1.1/"
   xmlns:cc="http://creativecommons.org/ns#"
   xmlns:rdf="http://www.w3.org/1999/02/22-rdf-syntax-ns#"
   xmlns:svg="http://www.w3.org/2000/svg"
   xmlns="http://www.w3.org/2000/svg"
   xmlns:sodipodi="http://sodipodi.sourceforge.net/DTD/sodipodi-0.dtd"
   xmlns:inkscape="http://www.inkscape.org/namespaces/inkscape"
   width="64"
   height="64"
   version="1.1"
   id="svg29"
   sodipodi:docname="converseen.svg"
   inkscape:version="1.0.1 (3bc2e813f5, 2020-09-07)">
  <rect
     x="4.4999995"
     y="4.4999995"
     width="55"
     height="55"
     ry="15"
     fill="#141414"
     filter="url(#filter1057)"
     opacity="0.3"
     stroke-linecap="round"
     stroke-width="2.7444"
     id="rect892" />
  <rect
     x="4.5"
     y="4.5"
     width="55"
     height="55"
     ry="15"
     fill="url(#linearGradient1053)"
     stroke-linecap="round"
     stroke-width="2.7444"
     id="rect894"
     style="fill:url(#linearGradient1053)" />
  <circle
     cx="-1061.668"
     cy="-1378.5312"
     r="0"
     id="circle882"
     style="fill:#5e4aa6;stroke-width:1.00001" />
  <circle
     cx="37.86977"
     cy="-113.04071"
     r="0"
     fill-rule="evenodd"
     id="circle884"
     style="fill:#5e4aa6;stroke-width:1.00001" />
  <circle
     cx="-983.16571"
     cy="-1450.0414"
     r="0"
     id="circle886"
     style="fill:#5e4aa6;stroke-width:1.00001" />
  <circle
     cx="116.36904"
     cy="-184.51408"
     r="0"
     fill-rule="evenodd"
     id="circle888"
     style="fill:#5e4aa6;stroke-width:1.00001" />
  <sodipodi:namedview
     pagecolor="#ffffff"
     bordercolor="#666666"
     borderopacity="1"
     objecttolerance="10"
     gridtolerance="10"
     guidetolerance="10"
     inkscape:pageopacity="0"
     inkscape:pageshadow="2"
     inkscape:window-width="1920"
     inkscape:window-height="998"
     id="namedview31"
     showgrid="false"
     inkscape:zoom="5.2149125"
     inkscape:cx="5.6405918"
     inkscape:cy="13.416452"
     inkscape:window-x="0"
     inkscape:window-y="0"
     inkscape:window-maximized="1"
     inkscape:current-layer="svg29"
     inkscape:document-rotation="0" />
  <metadata
     id="metadata2">
    <rdf:RDF>
      <cc:Work
         rdf:about="">
        <dc:format>image/svg+xml</dc:format>
        <dc:type
           rdf:resource="http://purl.org/dc/dcmitype/StillImage" />
        <dc:title></dc:title>
      </cc:Work>
    </rdf:RDF>
  </metadata>
  <defs
     id="defs9">
    <linearGradient
       id="linearGradient11422"
       x1="-6.1472"
       x2="-6.1472"
       y1="-137.82"
       y2="-100.78"
       gradientTransform="matrix(2.0044,0,0,2.0044,151.4312,271.61)"
       gradientUnits="userSpaceOnUse">
      <stop
         stop-color="#32b4ff"
         offset="0"
         id="stop4" />
      <stop
         stop-color="#3287ff"
         offset="1"
         id="stop6" />
    </linearGradient>
    <filter
       color-interpolation-filters="sRGB"
       height="1.048"
       width="1.048"
       y="-.024"
       x="-.024"
       id="filter2761">
      <feGaussianBlur
         id="feGaussianBlur840"
         stdDeviation="0.14552168" />
    </filter>
    <linearGradient
       gradientUnits="userSpaceOnUse"
       gradientTransform="matrix(3.7796,0,0,3.7796,52.70136,-30.294572)"
       y2="1.17"
       y1="15.576"
       x2="15.65"
       x1="1.3315"
       id="linearGradient1024">
      <stop
         id="stop843"
         offset="0"
         stop-color="#00c8ff" />
      <stop
         id="stop845"
         offset="1"
         stop-color="#14a0ff" />
    </linearGradient>
    <style
       type="text/css"
       id="style854" />
    <filter
       id="filter1057"
       x="-.027"
       y="-.027"
       width="1.054"
       height="1.054"
       color-interpolation-filters="sRGB">
      <feGaussianBlur
         stdDeviation="0.61875"
         id="feGaussianBlur856" />
    </filter>
    <linearGradient
       id="linearGradient1053"
       x1="-127"
       x2="-72"
       y1="60"
       y2="5"
       gradientTransform="translate(131.5,-0.5099988)"
       gradientUnits="userSpaceOnUse">
      <stop
         stop-color="#32d7ff"
         offset="0"
         id="stop859" />
      <stop
         stop-color="#329bff"
         offset="1"
         id="stop861" />
    </linearGradient>
    <style
       type="text/css"
       id="style864" />
    <style
       type="text/css"
       id="style866" />
    <style
       type="text/css"
       id="style868" />
    <style
       type="text/css"
       id="style870" />
    <style
       type="text/css"
       id="style872" />
    <style
       type="text/css"
       id="style874" />
    <style
       type="text/css"
       id="style876" />
  </defs>
  <circle
     cx="-1248.7"
     cy="-1241.6"
     r="0"
     fill="#5e4aa6"
     id="circle11" />
  <circle
     cx="-149.15"
     cy="23.855"
     r="0"
     fill="#5e4aa6"
     fill-rule="evenodd"
     id="circle13" />
  <circle
     cx="-1170.2"
     cy="-1313.1"
     r="0"
     fill="#5e4aa6"
     id="circle19" />
  <circle
     style="fill:#5e4aa6;fill-rule:evenodd"
     id="circle21"
     r="0"
     cy="-47.617001"
     cx="37.284199" />
  <g
     style="fill:#5e4aa6;stroke-width:0.26458001;image-rendering:optimizeSpeed"
     transform="matrix(3.7796,0,0,3.7796,-117.68998,-42.304983)"
     id="g872">
    <circle
       cx="-347.64001"
       cy="-328.38"
       r="0"
       id="circle858" />
    <circle
       style="fill-rule:evenodd"
       cx="-56.726002"
       cy="6.4400001"
       r="0"
       id="circle860" />
    <g
       transform="translate(-0.0272,0.0065001)"
       id="g870">
      <circle
         cx="-330.35001"
         cy="-328.38"
         r="0"
         id="circle862" />
      <circle
         cx="-312.10999"
         cy="-326.25"
         r="0"
         id="circle864" />
      <circle
         cx="-306.01999"
         cy="-333.07001"
         r="0"
         id="circle866" />
      <circle
         cx="-308.84"
         cy="-326.01001"
         r="0"
         id="circle868" />
    </g>
  </g>
  <path
     style="fill:#ffffff;fill-rule:evenodd"
     inkscape:connector-curvature="0"
     id="path25"
     d="m 33.5952,10.999745 c 5.1696,4.4628 6.462,8.9863 6.462,16.095 l 2.1204,-5.4929 c 2.2324,2.1948 3.7538,5.1029 4.2004,8.3603 0.16432,2.5048 -0.24466,4.7223 -0.89084,6.6609 2.637,-1.679 5.9675,-3.5976 7.3931,-6.6609 -0.95157,-10.136 -9.0989,-18.187 -19.285,-18.962 z m -3.6332,0.11961 c -10.136,0.95158 -18.187,9.0987 -18.962,19.285 4.4628,-5.1696 8.9861,-6.4619 16.095,-6.4619 l -5.4926,-2.1204 c 2.1948,-2.2324 5.1029,-3.7537 8.3603,-4.2001 2.5048,-0.16434 4.7223,0.24446 6.6609,0.89066 -1.679,-2.637 -3.5976,-5.9675 -6.6609,-7.3931 z m -11.449,16.258 c -2.637,1.679 -5.9678,3.5976 -7.3934,6.6609 0.95159,10.136 9.0989,18.187 19.285,18.962 -5.1696,-4.4628 -6.462,-8.9863 -6.462,-16.095 l -2.1204,5.4927 c -2.2324,-2.1948 -3.7537,-5.1029 -4.2001,-8.3603 -0.16433,-2.5048 0.24465,-4.7223 0.89084,-6.6609 z M 53,33.595455 c -4.4628,5.1696 -8.9861,6.462 -16.095,6.462 l 5.4926,2.1204 c -2.1948,2.2324 -5.1029,3.7538 -8.3603,4.2004 -2.5048,0.16432 -4.7223,-0.24466 -6.6609,-0.89086 1.679,2.637 3.5976,5.9675 6.6609,7.3931 10.136,-0.95158 18.187,-9.0989 18.962,-19.285 z" />
  <circle
     cx="-1180.1221"
     cy="-1339.2323"
     r="0"
     fill="#5e4aa6"
     id="circle880" />
</svg>
