<?xml version="1.0" encoding="UTF-8" standalone="no"?>
<svg
   xmlns:dc="http://purl.org/dc/elements/1.1/"
   xmlns:cc="http://creativecommons.org/ns#"
   xmlns:rdf="http://www.w3.org/1999/02/22-rdf-syntax-ns#"
   xmlns:svg="http://www.w3.org/2000/svg"
   xmlns="http://www.w3.org/2000/svg"
   xmlns:sodipodi="http://sodipodi.sourceforge.net/DTD/sodipodi-0.dtd"
   xmlns:inkscape="http://www.inkscape.org/namespaces/inkscape"
   width="64"
   height="64"
   version="1.1"
   viewBox="0 0 16.933 16.933"
   id="svg51"
   sodipodi:docname="credentials-preferences.svg"
   inkscape:version="1.0.1 (3bc2e813f5, 2020-09-07)">
  <sodipodi:namedview
     pagecolor="#ffffff"
     bordercolor="#666666"
     borderopacity="1"
     objecttolerance="10"
     gridtolerance="10"
     guidetolerance="10"
     inkscape:pageopacity="0"
     inkscape:pageshadow="2"
     inkscape:window-width="1920"
     inkscape:window-height="998"
     id="namedview53"
     showgrid="false"
     inkscape:zoom="4.5906698"
     inkscape:cx="-14.571976"
     inkscape:cy="42.084065"
     inkscape:window-x="0"
     inkscape:window-y="0"
     inkscape:window-maximized="1"
     inkscape:current-layer="svg51" />
  <metadata
     id="metadata2">
    <rdf:RDF>
      <cc:Work
         rdf:about="">
        <dc:format>image/svg+xml</dc:format>
        <dc:type
           rdf:resource="http://purl.org/dc/dcmitype/StillImage" />
        <dc:title></dc:title>
      </cc:Work>
    </rdf:RDF>
  </metadata>
  <defs
     id="defs15">
    <filter
       id="b"
       x="-.050625"
       y="-.073636"
       width="1.1012"
       height="1.1473"
       color-interpolation-filters="sRGB">
      <feGaussianBlur
         stdDeviation="0.17859023"
         id="feGaussianBlur4" />
    </filter>
    <filter
       id="filter2761"
       x="-.024"
       y="-.024"
       width="1.048"
       height="1.048"
       color-interpolation-filters="sRGB">
      <feGaussianBlur
         stdDeviation="0.14552168"
         id="feGaussianBlur7" />
    </filter>
    <linearGradient
       id="linearGradient1024"
       x1="1.3315"
       x2="15.65"
       y1="15.576"
       y2="1.17"
       gradientTransform="translate(0.3073436,-5.2360973)"
       gradientUnits="userSpaceOnUse">
      <stop
         stop-color="#00c8ff"
         offset="0"
         id="stop10" />
      <stop
         stop-color="#14a0ff"
         offset="1"
         id="stop12" />
    </linearGradient>
    <style
       type="text/css"
       id="style880" />
    <filter
       id="filter1057"
       x="-.027"
       y="-.027"
       width="1.054"
       height="1.054"
       color-interpolation-filters="sRGB">
      <feGaussianBlur
         stdDeviation="0.61875"
         id="feGaussianBlur882" />
    </filter>
    <linearGradient
       id="linearGradient1053"
       x1="-127"
       x2="-72"
       y1="60"
       y2="5"
       gradientTransform="matrix(0.26457812,0,0,0.26457812,34.792022,-0.1349348)"
       gradientUnits="userSpaceOnUse">
      <stop
         stop-color="#32d7ff"
         offset="0"
         id="stop885" />
      <stop
         stop-color="#329bff"
         offset="1"
         id="stop887" />
    </linearGradient>
    <style
       type="text/css"
       id="style890" />
    <style
       type="text/css"
       id="style892" />
    <style
       type="text/css"
       id="style894" />
    <style
       type="text/css"
       id="style896" />
    <style
       type="text/css"
       id="style898" />
    <style
       type="text/css"
       id="style900" />
    <style
       type="text/css"
       id="style902" />
  </defs>
  <rect
     x="4.5"
     y="4.5"
     width="55"
     height="55"
     ry="15"
     fill="#141414"
     filter="url(#filter1057)"
     opacity="0.3"
     stroke-linecap="round"
     stroke-width="2.7444"
     id="rect918"
     transform="scale(0.26457812)" />
  <rect
     x="1.1906016"
     y="1.1906016"
     width="14.551797"
     height="14.551797"
     ry="3.9686718"
     fill="url(#linearGradient1053)"
     stroke-linecap="round"
     stroke-width="0.726108"
     id="rect920"
     style="fill:url(#linearGradient1053)" />
  <g
     fill="#5e4aa6"
     id="g37">
    <circle
       cx="-330.35"
       cy="-328.38"
       r="0"
       stroke-width=".26458"
       id="circle17" />
    <circle
       cx="-39.434"
       cy="6.44"
       r="0"
       fill-rule="evenodd"
       stroke-width=".26458"
       id="circle19" />
    <g
       transform="translate(.00030032 -9.9674e-5)"
       stroke-width=".26458"
       id="g35">
      <circle
         cx="-347.64"
         cy="-328.38"
         r="0"
         id="circle21" />
      <circle
         cx="-56.726"
         cy="6.44"
         r="0"
         fill-rule="evenodd"
         id="circle23" />
      <g
         transform="translate(-.0272 .0065001)"
         id="g33">
        <circle
           cx="-330.35"
           cy="-328.38"
           r="0"
           id="circle25" />
        <circle
           cx="-312.11"
           cy="-326.25"
           r="0"
           id="circle27" />
        <circle
           cx="-306.02"
           cy="-333.07"
           r="0"
           id="circle29" />
        <circle
           cx="-308.84"
           cy="-326.01"
           r="0"
           id="circle31" />
      </g>
    </g>
  </g>
  <g
     transform="translate(22.983 -.25226)"
     id="g49">
    <path
       d="m-17.857 6.4822a1.5875 1.5875 0 0 0-1.5875 1.5875 1.5875 1.5875 0 0 0 0.0646 0.44492 1.1906 1.1906 0 0 0-0.85832 1.1426 1.1906 1.1906 0 0 0 1.1906 1.1906h4.1671a0.99218 0.99218 0 0 0 0.99218-0.99218 0.99218 0.99218 0 0 0-0.86661-0.98286 1.1906 1.1906 0 0 0 0.07286-0.40618 1.1906 1.1906 0 0 0-1.1906-1.1906 1.1906 1.1906 0 0 0-0.5431 0.13229 1.5875 1.5875 0 0 0-1.4412-0.92603z"
       color="#bebebe"
       fill="#fff"
       opacity=".5"
       stroke-width=".39687"
       id="path43" />
    <path
       d="m-12.398 5.8083a2.1166 2.1166 0 0 0-1.9218 1.2345 1.5875 1.5875 0 0 0-0.72397-0.17621 1.5875 1.5875 0 0 0-1.5875 1.5875 1.5875 1.5875 0 0 0 0.09663 0.54156 1.3229 1.3229 0 0 0-1.1549 1.3105 1.3229 1.3229 0 0 0 1.3229 1.3229h5.5561a1.5875 1.5875 0 0 0 1.5875-1.5875 1.5875 1.5875 0 0 0-1.1446-1.5234 2.1166 2.1166 0 0 0 0.0863-0.59323 2.1166 2.1166 0 0 0-2.1166-2.1166z"
       color="#bebebe"
       fill="#1496ff"
       filter="url(#b)"
       stroke-width=".52916"
       id="path45" />
    <path
       d="m-12.301 5.5562a2.1166 2.1166 0 0 0-1.9218 1.2345 1.5875 1.5875 0 0 0-0.72397-0.17622 1.5875 1.5875 0 0 0-1.5875 1.5875 1.5875 1.5875 0 0 0 0.09663 0.54157 1.3229 1.3229 0 0 0-1.1549 1.3105 1.3229 1.3229 0 0 0 1.3229 1.3229h5.5562a1.5875 1.5875 0 0 0 1.5875-1.5875 1.5875 1.5875 0 0 0-1.1446-1.5234 2.1166 2.1166 0 0 0 0.0863-0.59324 2.1166 2.1166 0 0 0-2.1166-2.1166z"
       color="#bebebe"
       fill="#fff"
       stroke-width=".52916"
       id="path47" />
  </g>
  <circle
     cx="-325.65952"
     cy="-339.6218"
     r="0"
     fill="#5e4aa6"
     id="circle906"
     style="stroke-width:0.264578" />
  <circle
     cx="-294.31931"
     cy="-350.01962"
     r="0"
     id="circle908"
     style="fill:#5e4aa6;stroke-width:0.26458" />
  <circle
     cx="-3.4055116"
     cy="-15.198348"
     r="0"
     fill-rule="evenodd"
     id="circle910"
     style="fill:#5e4aa6;stroke-width:0.26458" />
  <circle
     cx="-273.54932"
     cy="-368.93964"
     r="0"
     id="circle912"
     style="fill:#5e4aa6;stroke-width:0.26458" />
  <circle
     cx="17.363689"
     cy="-34.108646"
     r="0"
     fill-rule="evenodd"
     id="circle914"
     style="fill:#5e4aa6;stroke-width:0.26458" />
</svg>
