<?xml version="1.0" encoding="UTF-8"?>
<svg width="64" height="64" version="1.1" viewBox="0 0 16.933 16.933" xmlns="http://www.w3.org/2000/svg" xmlns:cc="http://creativecommons.org/ns#" xmlns:dc="http://purl.org/dc/elements/1.1/" xmlns:rdf="http://www.w3.org/1999/02/22-rdf-syntax-ns#">
 <defs>
  <filter id="filter1057-3" x="-.027" y="-.027" width="1.054" height="1.054" color-interpolation-filters="sRGB">
   <feGaussianBlur stdDeviation="0.61875"/>
  </filter>
  <linearGradient id="linearGradient1053" x1="-127" x2="-72" y1="60" y2="5" gradientTransform="matrix(.26458 0 0 .26458 32.421 13.368)" gradientUnits="userSpaceOnUse">
   <stop stop-color="#32d7ff" offset="0"/>
   <stop stop-color="#329bff" offset="1"/>
  </linearGradient>
 </defs>
 <metadata>
  <rdf:RDF>
   <cc:Work rdf:about="">
    <dc:format>image/svg+xml</dc:format>
    <dc:type rdf:resource="http://purl.org/dc/dcmitype/StillImage"/>
    <dc:title/>
   </cc:Work>
  </rdf:RDF>
 </metadata>
 <g transform="translate(2.3718 -13.503)">
  <rect transform="matrix(.26458 0 0 .26458 -2.3718 13.503)" x="4.5" y="4.5" width="55" height="55" ry="15" fill="#141414" filter="url(#filter1057-3)" opacity=".3" stroke-linecap="round" stroke-width="2.7444"/>
  <rect x="-1.1812" y="14.694" width="14.552" height="14.552" ry="3.9688" fill="url(#linearGradient1053)" stroke-linecap="round" stroke-width=".72612"/>
  <path class="st4" d="m10.456 20.373c0.03189 0.287-0.0235 0.58576 0.0084 0.8778 0.03357 0.31721-0.01007 0.65121-0.06714 0.96339-0.0067-0.25344-0.01343-0.51023-0.02685-0.75863-0.01343-0.26183-0.11749-0.53037-0.18798-0.78548 0.07553 0.53708 0.1091 1.0809 0.12252 1.6196 0.01007 0.41624 0.01175 0.84926-0.05706 1.2554-0.06714 0.3961-0.27358 0.79388-0.40281 1.1614-0.19134 0.5438-0.13091 1.2705-0.17623 1.868 0 0-0.045316 0.10406-0.12252-0.40281-0.10406-0.68478 0.00671-1.435 0.02014-2.1315v-0.01678c0-0.0084-0.00167-0.0235-0.00167-0.0235s-0.02182 0.06378-0.025175 0.08224c-0.00167 0.0067-0.00504 0.02518-0.00504 0.03021v0.0017c-0.00167 0.0084-0.00336 0.01846-0.00504 0.03021-0.00167 0.0067-0.00167 0.01175-0.00336 0.01846-0.00167 0.01175-0.00504 0.02686-0.00671 0.04028-0.00167 0.0067-0.00336 0.0151-0.00336 0.02182-0.01007 0.05539-0.023498 0.1242-0.040281 0.20644-0.082241 0.39442-0.14098 0.79388-0.19637 1.1917-0.00167 0.0084-0.00167 0.0151-0.00336 0.0235-0.045316 0.27526-0.13091 0.39274-0.30043 0.58576-0.17959 0.20476-0.3961 0.46156-0.63946 0.6059-0.00671 5e-3 -0.016785 0.01007-0.026854 0.01678-0.32561 0.22155-0.62772 0.50184-0.96843 0.68646-0.023498 0.01343-0.031889 0.01343-0.016782-0.0034 0.011748-0.01343 0.023498-0.02517 0.035246-0.0386 0.087276-0.09399 0.1712-0.19805 0.22826-0.30379l0.00503-0.01007c0.18798-0.38267 0.3575-0.78381 0.52701-1.1782 0 0-0.046995 0.07049-0.10574 0.15441-0.073849 0.10406-0.1712 0.23162-0.21148 0.28029-0.31889 0.38603-0.5438 0.94661-0.87779 1.3142-0.12084 0.13259-0.32729 0.18294-0.46323 0.31218-0.12756 0.12084-0.3105 0.19973-0.47666 0.22826-0.26854 0.04532-0.55387 0.2098-0.82744 0.3105 0 0 0.16112-0.19301 0.27861-0.34575 0.24504-0.32225 0.47163-0.66128 0.67807-1.0121-0.00504 0.0034-0.14434 0.11749-0.23497 0.31386-0.15776 0.34744-0.55218 0.60758-0.82576 0.87613-0.20141 0.19805-0.48505 0.31386-0.75863 0.3726-0.46156-0.018462-0.9315-0.068814-1.3796-0.17959-0.3726-0.09399-1.0523-0.3105-1.1883-0.56729-0.018463-0.036924-0.026854-0.18462 0.050352-0.32561 0.13427-0.24504 0.40449-0.44813 0.56897-0.68646 0.30882-0.45148 0.75024-1.1363 1.195-1.4031 0.24672-0.1477 0.57736-0.23665 0.86605-0.35414 0.13259-0.04532 0.19637-0.06881 0.32728-0.11749-0.32561 0.07217-0.63946 0.19469-0.94997 0.31218 0 0 0.00167 0.0034 0.16784-0.21819 0.18462-0.24504 0.42799-0.44813 0.64282-0.66296 0.37764-0.37764 1.2974-0.98857 1.2974-0.98857s-0.48841 0.29204-0.74352 0.2954c-0.15441 0.0017-0.30547 0.09231-0.43302 0.17287 0.15777-0.17791 0.32728-0.35078 0.49009-0.52198 0.32896-0.3491 0.78045-0.59918 1.1833-0.86101-0.19973 0.04196-0.42127 0.02182-0.621-0.0084 0.37931-0.23833 0.74856-0.50855 1.0658-0.81905 0.78045-0.76702 1.1648-1.8915 1.769-2.7794 0.27693-0.40617 0.6596-0.76031 1.0272-1.0926 0 0 0.24504 0.03693 0.28197 0.17791 0.090633 0.35078 0.24504 0.69989 0.36421 1.049 0.1242 0.3575 0.13763 0.76366 0.17959 1.1396z" fill="#fff" stroke-width=".081251"/>
  <path class="st5" d="m9.2456 22.016c-0.043638 0.01678 0.19805 0.94661 0.27526 1.3679 0.036924 0.20141 0.063779 0.4112 0.045316 0.61597 0 0-0.02182 0.06378-0.025175 0.08224-0.00167 0.0067-0.00504 0.02518-0.00504 0.03021v0.0017c-0.00167 0.01007-0.00336 0.01846-0.00503 0.03021-0.00167 0.0067-0.00167 0.01175-0.00336 0.01846-0.00167 0.01175-0.00504 0.02685-0.00671 0.04028-0.00167 0.0067-0.00336 0.01511-0.00336 0.02182-0.01007 0.05539-0.023498 0.1242-0.040281 0.20644-0.082241 0.39442-0.14098 0.79388-0.19637 1.1917-0.00167 0.0084-0.00167 0.01511-0.00336 0.0235-0.045317 0.27526-0.13091 0.39274-0.30043 0.58576-0.17959 0.20476-0.3961 0.46156-0.63946 0.6059-0.00671 5e-3 -0.016782 0.01007-0.026854 0.01678-0.32561 0.22155-0.62772 0.50184-0.96843 0.68646-0.023498 0.01343-0.031889 0.01343-0.016782-0.0034 0.011748-0.01343 0.023498-0.02518 0.035246-0.0386 0.087276-0.09399 0.1712-0.19805 0.22826-0.30379l0.00503-0.01007c0.18798-0.38267 0.3575-0.7838 0.52701-1.1782 0.00839-0.01511 0.011747-0.0235 0.018463-0.0386 0.016782-0.03357 0.028532-0.07049 0.036924-0.11077 0.097346-0.50855 0.20141-1.0993 0.088954-1.6079-0.1007-0.45148-0.10742-0.34071-0.10742-0.34071-0.025175 0.21819-0.065457 0.43806-0.12588 0.64786-0.046995 0.15945-0.13259 0.29875-0.14434 0.38099-0.03189 0.21651 0.055387 0.43806 0.060422 0.45148-0.00504-0.0084-0.080562-0.13595-0.097346-0.32561-0.018463-0.20644 0.10574-0.42967 0.15105-0.61932 0.073849-0.30714-0.073849-0.75024-0.00839-0.97346 0.16952-0.58911 0.83416-1.4988 1.1044-2.3145 0.14098 0.43638 0.25008 0.91136 0.40113 1.3175 0.013428 0.03692 0.018463 0.04867 0.00503 0.03189-0.070492-0.1628-0.25847-0.49009-0.25847-0.49009z" fill="#00c864" stroke-width=".081251"/>
  <g fill="#c8c8c8" stroke-width=".081251">
   <path class="st6" d="m9.8985 18.928c0.00167 0 0.33568 0.62604 0.37596 0.96339 0.02518 0.21819 0.08056 0.65793 0.08056 0.65793s-0.10742-0.6596-0.20812-0.97346c-0.06881-0.21819-0.2484-0.64786-0.2484-0.64786z"/>
   <path class="st6" d="m9.828 19.352s0.19134 0.46156 0.23665 0.70492c0.03357 0.18294 0.09567 0.55387 0.09567 0.55387s-0.1091-0.47666-0.17623-0.70996c-0.053708-0.18294-0.15609-0.54883-0.15609-0.54883z"/>
   <path class="st6" d="m9.4403 20.218c0.16952 0.53708 0.35078 1.0943 0.40785 1.6499 0.040281 0.39946-0.02014 1.2185-0.02014 1.2185-0.00167 0 0.016785-1.0188-0.080562-1.5055-0.062101-0.3105-0.13763-0.61932-0.22994-0.92311-0.10742-0.35414-0.10238-0.35582-0.10238-0.35582z"/>
   <path class="st6" d="m9.7978 23.607s-0.00503 0.35917-0.025175 0.5354c-0.02014 0.18126-0.060422 0.36421-0.083919 0.54715-0.021818 0.16952-0.067135 0.35414-0.053708 0.51694 0.00671 0.08224-0.013428 0.02182-0.00167-0.19973 0.013428-0.27693 0.088954-0.5589 0.11749-0.83416 0.016785-0.18798 0.046995-0.56562 0.046995-0.56562z"/>
   <path class="st6" d="m9.8549 20.616s0.073849 0.17287 0.13259 0.38938c0.050351 0.1863 0.083919 0.37428 0.10406 0.56729 0.01678 0.16784 0.05707 0.44813 0.05707 0.44813-0.01846-0.25176-0.03693-0.50855-0.07553-0.75695-0.0084-0.05874-0.03357-0.14098-0.05371-0.21148-0.025175-0.09231-0.055387-0.18294-0.092311-0.26854-0.030211-0.06546-0.045316-0.1007-0.072171-0.16784z"/>
   <path class="st6" d="m8.9871 22.011s0.043638 0.17791 0.082241 0.38603c0.030211 0.16952 0.043638 0.34575 0.070492 0.51359 0.036924 0.23497 0.20308 0.70324 0.20308 0.70324s-0.10238-0.43638-0.14938-0.64282c-0.038603-0.1712-0.05203-0.36253-0.080562-0.54044-0.013428-0.08728-0.036924-0.17455-0.067135-0.25679-0.023498-0.06546-0.035246-0.09735-0.058744-0.1628z"/>
   <path class="st6" d="m8.6934 22.285s0.54715 2.0594 0.28029 2.9439c-0.16616 0.55219-0.86101 1.5357-0.86101 1.5357-0.00167-0.0017 0.79388-1.1917 0.84087-1.8445 0.05203-0.71164-0.060422-1.4048-0.17287-2.1148-0.028533-0.17287-0.087276-0.5203-0.087276-0.5203z"/>
   <path class="st6" d="m8.5222 23.285s0.057065 0.16448 0.077206 0.36757c0.02014 0.2098 0.02182 0.42799 0.016785 0.63946-0.00839 0.32896-0.14098 0.99025-0.14098 0.99025s0.1628-0.71667 0.17455-1.0574c0.00503-0.16784-0.02014-0.35246-0.033568-0.52701-0.00671-0.0856-0.02182-0.1712-0.045317-0.25176-0.02014-0.06378-0.030211-0.09567-0.048674-0.16112z"/>
   <path class="st6" d="m7.3742 24.398c0.11917 0.75863 0.031889 1.5575-0.25008 2.244-0.24001 0.58744-1.2219 1.5005-1.2219 1.5005s0.49512-0.42967 0.69653-0.6831c0.2098-0.26351 0.3575-0.58743 0.49344-0.89794 0.22658-0.51526 0.29707-1.1732 0.21148-1.7254-0.083919-0.54715-0.02182-0.34575-0.02182-0.34575z"/>
   <path class="st6" d="m7.6209 25.411c0 0.01511 0.00167 0.03021 0 0.047 0 0.03693 0 0.12756 0.011748 0.27358 0.00671 0.08056 0.021818 0.1863 0.016782 0.29372-0.00504 0.09399-0.031889 0.20308-0.055387 0.27526-0.063779 0.19973-0.22658 0.59415-0.22658 0.59415s0.19973-0.41456 0.25847-0.621c0.011748-0.04196 0.041959-0.12924 0.050352-0.24001 0.00839-0.11077-0.013428-0.22826-0.015105-0.26015-0.00504-0.19134-0.026854-0.38938-0.053708-0.5824 0.00671 0.08895 0.01007 0.13259 0.013428 0.21987z"/>
   <path class="st6" d="m6.6441 26.037c-0.075527 0.42295-0.36589 1.2672-0.36589 1.2672s0.28029-0.65121 0.35078-0.98018c0.043638-0.20812 0.1477-0.49848 0.088954-0.70996-0.00167 0-0.048673 0.28029-0.073849 0.42295z"/>
   <path class="st6" d="m3.4099 28.104c-0.053708 0.14602-0.16616 0.28868-0.26854 0.41624 0 0 0.22826-0.26351 0.25176-0.32057 0.01007-0.02518 0.088954-0.21819 0.058743-0.2333 0.00167 0-0.025175 0.09231-0.041959 0.13763z"/>
   <path class="st6" d="m4.333 27.758c-0.028533 0.28365-0.29204 0.84591-0.29204 0.84591s0.25847-0.44142 0.30211-0.66464c0.01007-0.04699 0.058743-0.43302 0.00503-0.44813 0.00167 0-0.00503 0.17791-0.015105 0.26686z"/>
   <path class="st6" d="m5.5532 26.865c-0.043638 0.39106-0.34239 1.1749-0.34239 1.1749s0.2954-0.61093 0.3491-0.92143c0.030211-0.17623 0.11077-0.46323 0.030211-0.63443 0.00167 0-0.021818 0.25176-0.036924 0.38099z"/>
   <path class="st6" d="m9.4789 18.444c-0.19301 0.09063-0.38771 0.22155-0.51191 0.39778-0.11917 0.1712-0.32728 0.53876-0.32728 0.53876 0.00167 0 0.30043-0.42295 0.46995-0.58576 0.026854-0.02517 0.1712-0.16784 0.18966-0.17959 0.033568-0.02014 0.17959-0.1712 0.17959-0.1712z"/>
   <path class="st6" d="m9.2456 19.363c-0.031889-5e-3 -0.0621-0.0067-0.092311-0.0034-0.057065 0.0067-0.1628 0.02517-0.29204 0.0772-0.19637 0.08056-0.37596 0.2249-0.5438 0.36085 0 0 0.16616-0.09902 0.21315-0.12252 0.036925-0.01846 0.14938-0.08392 0.25847-0.13427 0.035246-0.01679 0.11917-0.05035 0.20141-0.07553 0.17455-0.05371 0.36589-0.0856 0.36589-0.0856-0.045316-5e-3 -0.067135-0.01007-0.11077-0.01678z"/>
   <path class="st6" d="m8.9318 19.804s-0.013428 0.09567-0.33232 0.05874c-0.17959-0.02014-0.36757 0.08056-0.46995 0.22658-0.02014 0.03189-0.030211 0.04699-0.050351 0.07888 0.036924-0.03357 0.055386-0.05035 0.092311-0.0856 0 0 0.11581-0.09567 0.18127-0.1242 0.060422-0.02685 0.16448-0.02518 0.23162 0.0067 0.035246 0.01678 0.095668 0.01846 0.14602 0.01511 0.082241-0.0034 0.15441-0.06546 0.19805-0.17455 0.00167 0.0017 0.00167 0 0.00336-0.0017z"/>
   <path class="st6" d="m8.8059 20.314c-0.00839-0.01511-0.83919 0.52366-1.1296 0.86772-0.32057 0.37932-1.0339 1.0876-1.0339 1.0876 0 0.0017 0.40113-0.22155 0.56897-0.35917 0.25679-0.20812 0.43302-0.54044 0.68646-0.75192 0.15441-0.12924 0.28365-0.30211 0.44141-0.43134 0.15945-0.12924 0.46659-0.41288 0.46659-0.41288z"/>
   <path class="st6" d="m8.6531 21.675c-0.79555 0.43974-1.67 0.82073-2.4034 1.3578-0.24337 0.17791-0.49177 0.3491-0.74017 0.5203-0.078884 0.05539-0.16112 0.10742-0.24504 0.15441-0.055387 0.03189-0.083919 0.04867-0.14098 0.07888 0.20308-0.06378 0.41456-0.13763 0.5975-0.24001 0.14434-0.08056 0.28197-0.19805 0.41288-0.30043 0.17287-0.13427 0.36085-0.25679 0.55219-0.36757 0.088954-0.05035 0.13259-0.07553 0.21987-0.12924 0.12084-0.07217 0.24504-0.13427 0.3726-0.18294 0.4196-0.16616 0.83248-0.34407 1.2403-0.5354 0.057065-0.14098 0.083919-0.21148 0.13427-0.35582z"/>
   <path class="st6" d="m6.7918 23.141c0.01175-5e-3 0.02182-0.01007 0.033568-0.01343 0.026854-0.01007 0.092311-0.03525 0.19134-0.09063 0.055387-0.03189 0.1242-0.08056 0.19973-0.10742 0.26518-0.09567 0.8073-0.28029 0.8073-0.28029s-0.5438 0.16616-0.81066 0.25008c-0.078884 0.02518-0.15441 0.0856-0.17623 0.09567-0.045316 0.02014-0.3491 0.18127-0.40449 0.21819 0.065457-0.03021 0.095668-0.04364 0.15945-0.07217z"/>
   <path class="st6" d="m7.5823 23.501c0-0.0017-1.0322 0.19301-1.4367 0.44477-0.25511 0.15945-0.5589 0.24672-0.81402 0.39442-0.16448 0.09567-0.48337 0.334-0.48337 0.334 0 0.0017 0.4733-0.24504 0.72171-0.33232 0.28868-0.1007 0.55051-0.27861 0.83584-0.37596 0.39274-0.13091 1.1765-0.46491 1.1765-0.46491z"/>
   <path class="st6" d="m5.1923 24.72s-0.12588-0.01678-0.41624 0.1242c-0.18294 0.08895-0.36589 0.18798-0.53876 0.30043 0.11581-0.05874 0.17287-0.08728 0.28533-0.14938 0.031889-0.01511 0.1628-0.09063 0.28365-0.14602 0.087276-0.04028 0.22322-0.08056 0.31386-0.10742 0.028533-0.0084 0.043638-0.01175 0.072171-0.02182z"/>
   <path class="st6" d="m6.6122 25.02c-0.39778 5e-3 -0.83416-0.01175-1.2135 0.09399-0.16784 0.04699-0.33903 0.10909-0.50184 0.17791 0.1628-0.04364 0.24337-0.06546 0.40281-0.11245 0.11749-0.03525 0.23665-0.05706 0.35582-0.06714 0.31889-0.02685 0.63779-0.05706 0.95668-0.09231z"/>
   <path class="st6" d="m5.481 25.648c-0.075527-0.0034-0.15105-0.0017-0.22658 0.0034-0.38939 0.02686-0.8073 0.04699-1.1732 0.16448-0.25344 0.08224-0.75192 0.31554-0.75192 0.31554s0.64786-0.26183 0.98353-0.31721c0.46323-0.07721 0.93822-0.14098 1.4115-0.15945-0.097346-0.0017-0.14602-0.0034-0.24337-0.0067z"/>
   <path class="st6" d="m4.1484 26.128c-0.30043 0.05203-0.62268 0.11581-0.88954 0.26183-0.30547 0.16616-0.24672 0.15609-0.24672 0.15609 0.11077-0.04532 0.16616-0.06881 0.27526-0.11916 0.1628-0.07553 0.33736-0.14098 0.51023-0.18966 0.14266-0.04196 0.21148-0.06378 0.35078-0.1091z"/>
   <path class="st6" d="m4.6435 26.588c-0.36924 0.04028-0.73849 0.08224-1.1061 0.12084-0.28197 0.02853-0.56729 0.11077-0.82241 0.23833-0.015105 0.0084-0.02182 0.01175-0.036925 0.01846 0.15273-0.04028 0.30714-0.08392 0.45652-0.13427 0.19805-0.06042 0.39946-0.09063 0.60422-0.11413 0.30379-0.03525 0.60422-0.07721 0.90465-0.12924z"/>
   <path class="st6" d="m3.5441 27.214c0-0.0017-0.6059-0.13595-0.86772-0.02014-0.31554 0.13763-0.35246 0.21483-0.35246 0.21483 0.11917-0.05707 0.17791-0.0856 0.29036-0.1477l0.080563-0.04028c0.10406-0.04364 0.23497-0.05874 0.36085-0.05203 0.1628 0.01007 0.48841 0.04532 0.48841 0.04532z"/>
  </g>
  <path class="st7" d="m9.7072 15.128c0.26351 0.97346 0.26854 1.9738 0.22322 2.9674-0.050352 1.0809-0.4582 2.2155-0.81066 3.2359-0.37092 1.0758-0.96507 1.9855-1.524 2.9607-0.51359 0.89458-1.3276 1.6499-2.1282 2.286-0.69821 0.55387-1.4703 0.97682-2.3011 1.2823-0.25847 0.09399-0.54715 0.12756-0.82073 0.13595-0.20141 5e-3 -0.34575-0.0067-0.35246-0.0067 0.59415-0.1242 1.1967-0.30379 1.7237-0.60758 1.4619-0.84423 2.8381-1.999 3.6958-3.4726 0.54548-0.93486 1.0607-1.8529 1.4199-2.8801 0.33064-0.94997 0.69149-1.9452 0.79052-2.9489 0.075527-0.76702 0.07217-1.5525-0.065457-2.3145 0.046995-0.15945 0.067135-0.24001 0.10238-0.39946 0.02014-0.09735 0.030211-0.14434 0.046995-0.23833z" fill="#dcdcdc" stroke-width=".081251"/>
  <path class="st8" d="m9.7072 15.128c0.26351 0.97346 0.26854 1.9738 0.22322 2.9674-0.050352 1.0809-0.4582 2.2155-0.81066 3.2359-0.37092 1.0758-0.96507 1.9855-1.524 2.9607-0.51359 0.89458-1.3276 1.6499-2.1282 2.286-0.69821 0.55387-1.4703 0.97682-2.3011 1.2823-0.25847 0.09399-0.54547 0.12756-0.82073 0.13595h-0.00167c0.64618-0.13427 1.3226-0.33064 1.8764-0.69653 1.4434-0.95332 2.8314-2.1064 3.6404-3.6706 0.50352-0.97346 0.95668-1.9301 1.2957-2.9791 0.31386-0.97011 0.64618-1.9939 0.69653-3.0161 0.038603-0.75863-0.011748-1.529-0.19301-2.2692 0.02014-0.09567 0.030211-0.14266 0.046995-0.23665z" fill="#ebebeb" stroke-width=".081251"/>
 </g>
</svg>
