<?xml version="1.0" encoding="UTF-8" standalone="no"?>
<svg
   xmlns:dc="http://purl.org/dc/elements/1.1/"
   xmlns:cc="http://creativecommons.org/ns#"
   xmlns:rdf="http://www.w3.org/1999/02/22-rdf-syntax-ns#"
   xmlns:svg="http://www.w3.org/2000/svg"
   xmlns="http://www.w3.org/2000/svg"
   xmlns:sodipodi="http://sodipodi.sourceforge.net/DTD/sodipodi-0.dtd"
   xmlns:inkscape="http://www.inkscape.org/namespaces/inkscape"
   width="64"
   height="64"
   version="1.1"
   viewBox="0 0 16.933 16.933"
   id="svg12"
   sodipodi:docname="crystal.svg"
   inkscape:version="1.0.1 (3bc2e813f5, 2020-09-07)">
  <circle
     cx="-285.784"
     cy="-354.39651"
     r="0"
     id="circle877"
     style="fill:#5e4aa6;stroke-width:0.26458" />
  <circle
     cx="5.1297979"
     cy="-19.575226"
     r="0"
     fill-rule="evenodd"
     id="circle879"
     style="fill:#5e4aa6;stroke-width:0.26458" />
  <circle
     cx="-265.01401"
     cy="-373.31653"
     r="0"
     id="circle881"
     style="fill:#5e4aa6;stroke-width:0.26458" />
  <circle
     cx="25.898998"
     cy="-38.485527"
     r="0"
     fill-rule="evenodd"
     id="circle883"
     style="fill:#5e4aa6;stroke-width:0.26458" />
  <rect
     x="4.5"
     y="4.5"
     width="55"
     height="55"
     ry="15"
     fill="#141414"
     filter="url(#filter1057)"
     opacity="0.3"
     stroke-linecap="round"
     stroke-width="2.7444"
     id="rect887"
     transform="scale(0.26457812)" />
  <rect
     x="1.1906016"
     y="1.1906016"
     width="14.551797"
     height="14.551797"
     ry="3.9686718"
     fill="url(#linearGradient1053)"
     stroke-linecap="round"
     stroke-width="0.726108"
     id="rect889"
     style="fill:url(#linearGradient1053)" />
  <metadata
     id="metadata18">
    <rdf:RDF>
      <cc:Work
         rdf:about="">
        <dc:format>image/svg+xml</dc:format>
        <dc:type
           rdf:resource="http://purl.org/dc/dcmitype/StillImage" />
        <dc:title></dc:title>
      </cc:Work>
    </rdf:RDF>
  </metadata>
  <defs
     id="defs16">
    <style
       id="style830"
       type="text/css" />
    <filter
       color-interpolation-filters="sRGB"
       height="1.048"
       width="1.048"
       y="-.024"
       x="-.024"
       id="filter2761">
      <feGaussianBlur
         id="feGaussianBlur832"
         stdDeviation="0.14552168" />
    </filter>
    <linearGradient
       gradientUnits="userSpaceOnUse"
       gradientTransform="translate(2.7702226,-9.4831128)"
       y2="1.1082"
       y1="15.429"
       x2="15.644"
       x1="1.2573"
       id="linearGradient4673">
      <stop
         id="stop835"
         offset="0"
         stop-color="#32dcff" />
      <stop
         id="stop837"
         offset="1"
         stop-color="#3296ff" />
    </linearGradient>
    <style
       type="text/css"
       id="style849" />
    <filter
       id="filter1057"
       x="-.027"
       y="-.027"
       width="1.054"
       height="1.054"
       color-interpolation-filters="sRGB">
      <feGaussianBlur
         stdDeviation="0.61875"
         id="feGaussianBlur851" />
    </filter>
    <linearGradient
       id="linearGradient1053"
       x1="-127"
       x2="-72"
       y1="60"
       y2="5"
       gradientTransform="matrix(0.26457812,0,0,0.26457812,34.792023,-0.13493495)"
       gradientUnits="userSpaceOnUse">
      <stop
         stop-color="#32d7ff"
         offset="0"
         id="stop854" />
      <stop
         stop-color="#329bff"
         offset="1"
         id="stop856" />
    </linearGradient>
    <style
       type="text/css"
       id="style859" />
    <style
       type="text/css"
       id="style861" />
    <style
       type="text/css"
       id="style863" />
    <style
       type="text/css"
       id="style865" />
    <style
       type="text/css"
       id="style867" />
    <style
       type="text/css"
       id="style869" />
    <style
       type="text/css"
       id="style871" />
  </defs>
  <sodipodi:namedview
     pagecolor="#ffffff"
     bordercolor="#666666"
     borderopacity="1"
     objecttolerance="10"
     gridtolerance="10"
     guidetolerance="10"
     inkscape:pageopacity="0"
     inkscape:pageshadow="2"
     inkscape:window-width="1920"
     inkscape:window-height="998"
     id="namedview14"
     showgrid="false"
     inkscape:zoom="2.6074563"
     inkscape:cx="3.861478"
     inkscape:cy="24.787912"
     inkscape:window-x="0"
     inkscape:window-y="0"
     inkscape:window-maximized="1"
     inkscape:current-layer="svg12"
     inkscape:document-rotation="0" />
  <circle
     style="fill:#5e4aa6;stroke-width:0.26457813"
     cx="-297.59747"
     cy="-338.47479"
     r="0"
     id="circle842" />
  <g
     style="fill:#5e4aa6;stroke-width:0.26458001"
     transform="translate(32.762713,-10.102646)"
     id="g852">
    <circle
       cx="-299.01999"
       cy="-338.76999"
       r="0"
       id="circle844" />
    <circle
       style="fill-rule:evenodd"
       cx="-8.1062002"
       cy="-3.9487"
       r="0"
       id="circle846" />
    <circle
       cx="-278.25"
       cy="-357.69"
       r="0"
       id="circle848" />
    <circle
       style="fill-rule:evenodd"
       cx="12.663"
       cy="-22.858999"
       r="0"
       id="circle850" />
  </g>
  <g
     id="g10"
     transform="translate(-3.3168119e-4,-5.20618e-5)"
     style="fill-rule:evenodd">
    <path
       d="M 12.695,9.574 11.579,5.39 c 0,-0.012313 -0.01224,-0.024627 -0.03679,-0.036947 l -4.1817,-1.1199 c -0.012239,0 -0.036713,0 -0.049029,0.012315 l -3.0656,3.0642 C 4.233566,7.321981 4.233566,7.334295 4.233566,7.358928 l 1.116,4.184 c 0,0.01231 0.012238,0.02463 0.036791,0.03695 l 4.1817,1.1199 c 0.01224,0 0.036713,0 0.049027,-0.01231 l 3.0656,-3.0643 c 0.01231,-0.02463 0.02463,-0.03695 0.01231,-0.04926 z M 8.5992,6.2882 7.4955,10.3984 c 0,0.01231 -0.012239,0.01231 -0.024477,0 l -2.9922,-3.0027 c -0.012238,-0.012313 0,-0.012313 0,-0.024633 l 4.1081,-1.1075 c 0,0.012313 0.012314,0.012313 0.012314,0.024633 z"
       style="isolation:isolate;fill:#ffffff;stroke-width:0.26458001;fill-opacity:1"
       id="path4"
       inkscape:connector-curvature="0" />
    <path
       d="m 46.113,29.186 -16.236,4.3516 -1.5488,5.7656 c 0,0.04653 -0.04554,0.04653 -0.0918,0 l -4.1895,-4.2051 -5.6973,1.5273 1.8691,7.002 c 0,0.04653 0.04587,0.09406 0.13867,0.14062 l 15.805,4.2324 c 0.04626,0 0.139,-3.48e-4 0.18555,-0.04687 l 11.586,-11.582 c 0.04653,-0.09309 0.09344,-0.13902 0.04687,-0.18555 l -1.8672,-7 z"
       style="opacity:0.25;paint-order:stroke fill markers;fill:#ffffff;fill-opacity:1"
       id="path6"
       inkscape:connector-curvature="0"
       transform="scale(0.26458)" />
    <path
       d="m 27.818,16 c -0.01379,0 -0.03513,0.0027 -0.05469,0.0039 l 2.2324,8.332 2.457,-0.66211 c 0,0.04654 0.04687,0.04718 0.04687,0.09375 l -1.3301,4.9492 5.1582,19.246 c 0.0059,-0.004 0.01457,-0.0048 0.01953,-0.0098 l 11.586,-11.582 c 0.04653,-0.09309 0.09344,-0.13902 0.04687,-0.18555 l -4.2168,-15.812 c 0,-0.04654 -0.04784,-0.09406 -0.14062,-0.14062 l -15.805,-4.2324 z"
       style="opacity:0.3;paint-order:stroke fill markers;fill:#32a0ff;fill-opacity:1"
       id="path8"
       inkscape:connector-curvature="0"
       transform="scale(0.26458)" />
  </g>
  <circle
     cx="-317.12421"
     cy="-343.99869"
     r="0"
     fill="#5e4aa6"
     id="circle875"
     style="stroke-width:0.264578" />
</svg>
