<?xml version="1.0" encoding="UTF-8"?>
<svg width="64" height="64" version="1.1" xmlns="http://www.w3.org/2000/svg" xmlns:cc="http://creativecommons.org/ns#" xmlns:dc="http://purl.org/dc/elements/1.1/" xmlns:rdf="http://www.w3.org/1999/02/22-rdf-syntax-ns#">
 <metadata>
  <rdf:RDF>
   <cc:Work rdf:about="">
    <dc:format>image/svg+xml</dc:format>
    <dc:type rdf:resource="http://purl.org/dc/dcmitype/StillImage"/>
    <dc:title/>
   </cc:Work>
  </rdf:RDF>
 </metadata>
 <defs>
  <filter id="filter2076" x="-.048" y="-.048" width="1.096" height="1.096" color-interpolation-filters="sRGB">
   <feGaussianBlur stdDeviation="1.1"/>
  </filter>
  <linearGradient id="linearGradient2070" x1="145" x2="200" y1="59" y2="4" gradientTransform="translate(-140.5 .5)" gradientUnits="userSpaceOnUse">
   <stop stop-color="#ffc841" offset="0"/>
   <stop stop-color="#ffbe37" offset=".4925"/>
   <stop stop-color="#ffc841" offset="1"/>
  </linearGradient>
 </defs>
 <rect x="4.5" y="4.5" width="55" height="55" rx="13.002" ry="13.002" filter="url(#filter2076)" opacity=".3"/>
 <rect x="4.5" y="4.5" width="55" height="55" rx="13.002" ry="13.002" fill="url(#linearGradient2070)"/>
 <path d="m46.874 15.75h-1.6082c-0.38191 0-0.69149 0.30958-0.69149 0.69149v0.86056c0 0.38188-0.30958 0.69149-0.69149 0.69149h-1.4995c-0.38191 0-0.69149-0.30961-0.69149-0.69149v-0.86056c0-0.38191-0.30954-0.69149-0.69149-0.69149h-18.055c-0.38191 0-0.69149 0.30958-0.69149 0.69149v0.86056c0 0.38188-0.30958 0.69149-0.69149 0.69149h-1.4995c-0.38191 0-0.69149-0.30961-0.69149-0.69149v-0.86056c0-0.38191-0.30958-0.69149-0.69149-0.69149h-1.5541c-0.38191 0-0.69149 0.30958-0.69149 0.69149v31.117c0 0.38191 0.30958 0.69149 0.69149 0.69149h1.5541c0.38191 0 0.69149-0.30958 0.69149-0.69149v-0.63219c0-0.38191 0.30958-0.69149 0.69149-0.69149h1.4995c0.38191 0 0.69149 0.30958 0.69149 0.69149v0.63219c0 0.38191 0.30958 0.69149 0.69149 0.69149h18.055c0.38194 0 0.69149-0.30958 0.69149-0.69149v-0.63219c0-0.38191 0.30958-0.69149 0.69149-0.69149h1.4995c0.38191 0 0.69149 0.30958 0.69149 0.69149v0.63219c0 0.38191 0.30958 0.69149 0.69149 0.69149h1.6082c0.38191 0 0.69149-0.30958 0.69149-0.69149v-31.117c0-0.38188-0.30958-0.69149-0.69149-0.69149zm-24.62 26.462c0 0.38191-0.30958 0.69149-0.69149 0.69149h-1.4995c-0.38191 0-0.69149-0.30958-0.69149-0.69149v-1.4995c0-0.38188 0.30958-0.69149 0.69149-0.69149h1.4995c0.38191 0 0.69149 0.30962 0.69149 0.69149zm0-6.2136c0 0.38188-0.30958 0.69149-0.69149 0.69149h-1.4995c-0.38191 0-0.69149-0.30962-0.69149-0.69149v-1.4995c0-0.38188 0.30958-0.69149 0.69149-0.69149h1.4995c0.38191 0 0.69149 0.30961 0.69149 0.69149zm0-6.2136c0 0.38194-0.30958 0.69149-0.69149 0.69149h-1.4995c-0.38191 0-0.69149-0.30955-0.69149-0.69149v-1.4995c0-0.38191 0.30958-0.69149 0.69149-0.69149h1.4995c0.38191 0 0.69149 0.30958 0.69149 0.69149zm0-6.2136c0 0.38191-0.30958 0.69149-0.69149 0.69149h-1.4995c-0.38191 0-0.69149-0.30958-0.69149-0.69149v-1.4995c0-0.38188 0.30958-0.69149 0.69149-0.69149h1.4995c0.38191 0 0.69149 0.30961 0.69149 0.69149zm16.448 21.023c0 0.38194-0.30958 0.69149-0.69149 0.69149h-12.021c-0.38191 0-0.69149-0.30954-0.69149-0.69149v-5.5569c0-0.38191 0.30958-0.69149 0.69149-0.69149h12.021c0.38191 0 0.69149 0.30958 0.69149 0.69149zm0-9.8159c0 0.38191-0.30958 0.69149-0.69149 0.69149h-12.021c-0.38191 0-0.69149-0.30958-0.69149-0.69149v-5.5569c0-0.38188 0.30958-0.69149 0.69149-0.69149h12.021c0.38191 0 0.69149 0.30961 0.69149 0.69149zm0-9.8159c0 0.38191-0.30958 0.69149-0.69149 0.69149h-12.021c-0.38191 0-0.69149-0.30958-0.69149-0.69149v-5.5569c0-0.38188 0.30958-0.69149 0.69149-0.69149h12.021c0.38191 0 0.69149 0.30962 0.69149 0.69149zm5.8725 17.25c0 0.38191-0.30958 0.69149-0.69149 0.69149h-1.4995c-0.38191 0-0.69149-0.30958-0.69149-0.69149v-1.4995c0-0.38188 0.30958-0.69149 0.69149-0.69149h1.4995c0.38191 0 0.69149 0.30962 0.69149 0.69149zm0-6.2136c0 0.38188-0.30958 0.69149-0.69149 0.69149h-1.4995c-0.38191 0-0.69149-0.30962-0.69149-0.69149v-1.4995c0-0.38188 0.30958-0.69149 0.69149-0.69149h1.4995c0.38191 0 0.69149 0.30961 0.69149 0.69149zm0-6.2136c0 0.38194-0.30958 0.69149-0.69149 0.69149h-1.4995c-0.38191 0-0.69149-0.30955-0.69149-0.69149v-1.4995c0-0.38191 0.30958-0.69149 0.69149-0.69149h1.4995c0.38191 0 0.69149 0.30958 0.69149 0.69149zm0-6.2136c0 0.38191-0.30958 0.69149-0.69149 0.69149h-1.4995c-0.38191 0-0.69149-0.30958-0.69149-0.69149v-1.4995c0-0.38188 0.30958-0.69149 0.69149-0.69149h1.4995c0.38191 0 0.69149 0.30961 0.69149 0.69149z" fill-opacity=".72081" stroke-width=".034574"/>
</svg>
