<?xml version="1.0" encoding="UTF-8"?>
<svg width="64" height="64" version="1.1" xmlns="http://www.w3.org/2000/svg" xmlns:cc="http://creativecommons.org/ns#" xmlns:dc="http://purl.org/dc/elements/1.1/" xmlns:rdf="http://www.w3.org/1999/02/22-rdf-syntax-ns#" xmlns:xlink="http://www.w3.org/1999/xlink">
 <metadata>
  <rdf:RDF>
   <cc:Work rdf:about="">
    <dc:format>image/svg+xml</dc:format>
    <dc:type rdf:resource="http://purl.org/dc/dcmitype/StillImage"/>
    <dc:title/>
   </cc:Work>
  </rdf:RDF>
 </metadata>
 <defs>
  <filter id="filter1057" x="-.027" y="-.027" width="1.054" height="1.054" color-interpolation-filters="sRGB">
   <feGaussianBlur stdDeviation="0.61875"/>
  </filter>
  <linearGradient id="linearGradient1053" x1="-127" x2="-72" y1="60" y2="5" gradientTransform="matrix(1 0 0 1 131.5 -.51021)" gradientUnits="userSpaceOnUse">
   <stop stop-color="#ff7d50" offset="0"/>
   <stop stop-color="#ff4b5a" offset=".50594"/>
   <stop stop-color="#ff509b" offset="1"/>
  </linearGradient>
  <linearGradient id="linearGradient929" x1="401.54" x2="416.39" y1="532.6" y2="512.18" gradientTransform="matrix(1.3043 0 0 1.3043 -496.81 -652.32)" gradientUnits="userSpaceOnUse">
   <stop stop-color="#ececec" offset="0"/>
   <stop stop-color="#fff" offset="1"/>
  </linearGradient>
 </defs>
 <rect transform="matrix(1 0 0 1 -.000228 -.0002277)" x="4.5" y="4.5" width="55" height="55" ry="15" fill="#141414" filter="url(#filter1057)" opacity=".3" stroke-linecap="round" stroke-width="2.7444"/>
 <rect x="4.4998" y="4.4998" width="55.001" height="55.001" ry="15" fill="url(#linearGradient1053)" stroke-linecap="round" stroke-width="2.7444"/>
 <g fill-rule="evenodd" stroke-width="1.3044">
  <path d="m18.283 30.762 22.247 16.653s2.9698 2.7453 3.3485-1.1087l2.8771-29.274c0.05217-1.1748-0.69393-1.7123-1.7644-1.203l-26.448 12.196c-2.7695 1.1237-0.26002 2.7373-0.26002 2.7373z" fill="#fafafa"/>
  <path d="m26.334 36.79v4.741c0.0065 1.8854 1.0541 1.5731 1.9876 1.5014l4.4309-1.477 12.546-23c0.5749-1.1007-0.48841-1.3858-1.0334-0.66852z" fill="url(#linearGradient929)"/>
  <path d="m26.334 36.79v4.741c7e-3 1.8854 1.0541 1.5731 1.9876 1.5014l4.431-1.477 12.546-23c0.57491-1.1007-0.48841-1.3858-1.0334-0.66852z" fill="#ffe3e8"/>
  <path d="m29.399 38.632-2.5357 3.8417c-0.4567 1.9009 5.8887-0.91634 5.8887-0.91634l12.51-22.882c0.57492-1.1007-0.1623-1.2951-0.70732-0.57775z" fill="#ffc5d5"/>
 </g>
</svg>
