<?xml version="1.0" encoding="UTF-8"?>
<svg width="64" height="64" version="1.1" viewBox="0 0 16.933 16.933" xmlns="http://www.w3.org/2000/svg" xmlns:cc="http://creativecommons.org/ns#" xmlns:dc="http://purl.org/dc/elements/1.1/" xmlns:rdf="http://www.w3.org/1999/02/22-rdf-syntax-ns#">
 <defs>
  <filter id="filter2076-3" x="-.048" y="-.048" width="1.096" height="1.096" color-interpolation-filters="sRGB">
   <feGaussianBlur stdDeviation="1.1"/>
  </filter>
  <linearGradient id="linearGradient2070" x1="145" x2="200" y1="59" y2="4" gradientTransform="matrix(.26458 0 0 .26458 -38.034 9.336)" gradientUnits="userSpaceOnUse">
   <stop stop-color="#ffc841" offset="0"/>
   <stop stop-color="#ffbe37" offset=".4925"/>
   <stop stop-color="#ffc841" offset="1"/>
  </linearGradient>
 </defs>
 <metadata>
  <rdf:RDF>
   <cc:Work rdf:about="">
    <dc:format>image/svg+xml</dc:format>
    <dc:type rdf:resource="http://purl.org/dc/dcmitype/StillImage"/>
    <dc:title/>
   </cc:Work>
  </rdf:RDF>
 </metadata>
 <g transform="translate(.8599 -9.2037)">
  <rect transform="matrix(.26458 0 0 .26458 -.8599 9.2037)" x="4.5" y="4.5" width="55" height="55" rx="13.002" ry="13.002" filter="url(#filter2076-3)" opacity=".3"/>
  <rect x=".33073" y="10.394" width="14.552" height="14.552" rx="3.4401" ry="3.4401" fill="url(#linearGradient2070)" stroke-width=".26458"/>
  <path d="m4.608 11.982c-1.49 0-2.6898 1.1997-2.6898 2.6898v5.9976c0 1.49 1.1997 2.6898 2.6898 2.6898h5.0142l3.6732-3.6876v-4.9997c0-1.49-1.1997-2.6898-2.6898-2.6898z" fill="#fafafa" stroke-width=".20686"/>
  <path d="m3.8507 20.396c0.00452 0.04063 0.00882 0.08118 0.013833 0.12163h7.4855c0.0047-0.04371 0.0087-0.07849 0.01284-0.12163z" fill="#f08705" opacity=".6" stroke-width=".64018" style="paint-order:normal"/>
  <path d="m9.6222 23.359 3.6732-3.6876h-0.9834c-1.49 0-2.6898 1.1997-2.6898 2.6898z" fill="#f9dfa9" stroke-width=".20686"/>
  <path d="m3.8507 17.832c0.00452 0.04063 0.00882 0.08118 0.013833 0.12163h7.4855c0.0047-0.04371 0.0087-0.07849 0.01284-0.12163z" fill="#f08705" opacity=".6" stroke-width=".64018" style="paint-order:normal"/>
  <path d="m3.718 21.678c-0.00321 0.03965-0.0052 0.08101-0.00829 0.12164h4.9415c-0.00291-0.04063-0.00505-0.08201-0.00861-0.12164z" fill="#f08705" opacity=".6" stroke-width=".51925" style="paint-order:normal"/>
  <rect x="3.6927" y="13.287" width="7.9375" height="3.4396" ry=".98121" fill="#ffc841" stroke-width=".37539"/>
  <path d="m5.6224 13.551c-0.29316 0-0.52917 0.23601-0.52917 0.52917v1.8521c0 0.29316 0.23601 0.52917 0.52917 0.52917h3.9688c0.29316 0 0.52917-0.23601 0.52917-0.52917v-1.8521c0-0.29316-0.23601-0.52917-0.52917-0.52917zm0 0.26458h3.9688c0.14658 0 0.26458 0.118 0.26458 0.26458v1.8521c0 0.14658-0.118 0.26458-0.26458 0.26458h-3.9688c-0.14658 0-0.26458-0.118-0.26458-0.26458v-1.8521c0-0.14658 0.118-0.26458 0.26458-0.26458zm0 0.26458v1.8521h0.52917v-1.1038l0.52917 0.52917 0.52917-0.52917v1.1038h0.52917v-1.8521h-0.52917l-0.52917 0.52917-0.52917-0.52917zm2.9104 0v1.0583h-0.52917l0.79375 0.79375 0.79375-0.79375h-0.52917v-1.0583z" fill="#fff" stroke-width=".26458"/>
  <path d="m3.8507 19.114c0.00452 0.04062 0.00882 0.08118 0.013833 0.12163h7.4855c0.0047-0.04371 0.0087-0.07849 0.01284-0.12163z" fill="#f08705" opacity=".6" stroke-width=".64018" style="paint-order:normal"/>
 </g>
</svg>
