<?xml version="1.0" encoding="UTF-8"?>
<svg width="64" height="64" version="1.1" xmlns="http://www.w3.org/2000/svg" xmlns:cc="http://creativecommons.org/ns#" xmlns:dc="http://purl.org/dc/elements/1.1/" xmlns:rdf="http://www.w3.org/1999/02/22-rdf-syntax-ns#">
 <metadata>
  <rdf:RDF>
   <cc:Work rdf:about="">
    <dc:format>image/svg+xml</dc:format>
    <dc:type rdf:resource="http://purl.org/dc/dcmitype/StillImage"/>
    <dc:title/>
   </cc:Work>
  </rdf:RDF>
 </metadata>
 <defs>
  <filter id="filter1057" x="-.027" y="-.027" width="1.054" height="1.054" color-interpolation-filters="sRGB">
   <feGaussianBlur stdDeviation="0.61875"/>
  </filter>
  <linearGradient id="linearGradient1053" x1="-127" x2="-72" y1="60" y2="5" gradientTransform="matrix(1 0 0 1 131.5 -.51047)" gradientUnits="userSpaceOnUse">
   <stop stop-color="#32d7ff" offset="0"/>
   <stop stop-color="#329bff" offset="1"/>
  </linearGradient>
 </defs>
 <rect transform="matrix(1 0 0 1 -.00022803 -.00022766)" x="4.5" y="4.5" width="55" height="55" ry="15" fill="#141414" filter="url(#filter1057)" opacity=".3" stroke-linecap="round" stroke-width="2.7444"/>
 <rect x="4.5013" y="4.4998" width="55.001" height="55.001" ry="15" fill="url(#linearGradient1053)" stroke-linecap="round" stroke-width="2.7444"/>
 <path d="m33.881 10.492c1.4536 2.7319 2.6182 5.2991 3.5001 7.7013-1.8157-0.10909-3.5595-0.17455-5.1418-0.15l0.0127-0.02727c-17.427 0.29073-20.577 8.8036-9.5443 25.516 1.0402-0.18546 2.0328-0.37664 2.9647-0.61146-3.3014-11.613 0.93635-18.889 12.652-21.832 4.2127 14.81-3.7869 22.577-24.021 23.284 3.5604 0.59209 6.8276 1.0126 9.8196 1.2764 1.7229 2.4562 3.7013 5.0795 5.9907 7.8646-1.4422-2.7158-2.6229-5.2699-3.5026-7.6631-0.62051-0.03545-1.2685-0.09818-1.917-0.15818 23.465 1.9249 29.026-6.4803 16.646-25.239 2.5135-0.43364 5.2757-0.72327 8.3563-0.828-3.5507-0.58882-6.8056-1.0058-9.7915-1.2687-1.7262-2.4608-3.7274-5.0817-6.0238-7.8717z" fill="#fff" fill-opacity=".8629" stroke-width="2.7273"/>
</svg>
