<?xml version="1.0" encoding="UTF-8" standalone="no"?>
<svg
   xmlns:dc="http://purl.org/dc/elements/1.1/"
   xmlns:cc="http://creativecommons.org/ns#"
   xmlns:rdf="http://www.w3.org/1999/02/22-rdf-syntax-ns#"
   xmlns:svg="http://www.w3.org/2000/svg"
   xmlns="http://www.w3.org/2000/svg"
   xmlns:xlink="http://www.w3.org/1999/xlink"
   xmlns:sodipodi="http://sodipodi.sourceforge.net/DTD/sodipodi-0.dtd"
   xmlns:inkscape="http://www.inkscape.org/namespaces/inkscape"
   width="64"
   height="64"
   version="1.1"
   viewBox="0 0 16.933 16.933"
   id="svg14"
   sodipodi:docname="datagrip.svg"
   inkscape:version="1.0.1 (3bc2e813f5, 2020-09-07)">
  <metadata
     id="metadata20">
    <rdf:RDF>
      <cc:Work
         rdf:about="">
        <dc:format>image/svg+xml</dc:format>
        <dc:type
           rdf:resource="http://purl.org/dc/dcmitype/StillImage" />
        <dc:title></dc:title>
      </cc:Work>
    </rdf:RDF>
  </metadata>
  <defs
     id="defs18">
    <style
       id="style829"
       type="text/css" />
    <style
       id="style831"
       type="text/css" />
    <style
       id="style833"
       type="text/css" />
    <filter
       color-interpolation-filters="sRGB"
       height="1.048"
       width="1.048"
       y="-.024"
       x="-.024"
       id="filter2761">
      <feGaussianBlur
         id="feGaussianBlur835"
         stdDeviation="0.14552168" />
    </filter>
    <linearGradient
       gradientUnits="userSpaceOnUse"
       gradientTransform="translate(2.520654,-3.7391505)"
       y2="1.17"
       y1="15.576"
       x2="15.65"
       x1="1.3315"
       id="linearGradient1024-6">
      <stop
         id="stop838"
         offset="0"
         stop-color="#00dc96" />
      <stop
         id="stop840"
         offset="1"
         stop-color="#14d29b" />
    </linearGradient>
    <style
       id="style4"
       type="text/css" />
    <style
       id="style6"
       type="text/css" />
    <style
       id="style8"
       type="text/css" />
    <filter
       color-interpolation-filters="sRGB"
       height="1.048"
       width="1.048"
       y="-.024"
       x="-.024"
       id="filter2761-6">
      <feGaussianBlur
         id="feGaussianBlur10"
         stdDeviation="0.14552168" />
    </filter>
    <linearGradient
       gradientUnits="userSpaceOnUse"
       gradientTransform="matrix(3.7796,0,0,3.7796,111.78704,0.53107)"
       y2="1.17"
       y1="15.576"
       x2="15.65"
       x1="1.3315"
       id="linearGradient1024-6-7">
      <stop
         id="stop13"
         offset="0"
         stop-color="#00dc96" />
      <stop
         id="stop15"
         offset="1"
         stop-color="#14d29b" />
    </linearGradient>
    <linearGradient
       gradientUnits="userSpaceOnUse"
       gradientTransform="matrix(0.27476,0,0,0.27476,-24.952118,-0.32515)"
       y2="12.461"
       y1="57.955"
       x2="45.628"
       x1="45.628"
       id="b">
      <stop
         id="stop2"
         offset="0" />
      <stop
         id="stop4"
         offset="1"
         stop-opacity="0" />
    </linearGradient>
    <filter
       inkscape:collect="always"
       style="color-interpolation-filters:sRGB"
       id="filter1057"
       x="-0.027000001"
       width="1.054"
       y="-0.027000001"
       height="1.054">
      <feGaussianBlur
         inkscape:collect="always"
         stdDeviation="0.61875"
         id="feGaussianBlur1059" />
    </filter>
    <linearGradient
       inkscape:collect="always"
       xlink:href="#linearGradient1051"
       id="linearGradient1053"
       x1="-127"
       y1="60"
       x2="-72"
       y2="5"
       gradientUnits="userSpaceOnUse"
       gradientTransform="matrix(0.26457812,0,0,0.26457812,34.792023,-0.13493459)" />
    <linearGradient
       inkscape:collect="always"
       id="linearGradient1051">
      <stop
         style="stop-color:#02db96;stop-opacity:1"
         offset="0"
         id="stop1047" />
      <stop
         style="stop-color:#13d39b;stop-opacity:1"
         offset="1"
         id="stop1049" />
    </linearGradient>
    <style
       type="text/css"
       id="style872" />
    <style
       type="text/css"
       id="style874" />
    <style
       type="text/css"
       id="style876" />
    <filter
       id="filter2761-3"
       x="-.024"
       y="-.024"
       width="1.048"
       height="1.048"
       color-interpolation-filters="sRGB">
      <feGaussianBlur
         stdDeviation="0.14552168"
         id="feGaussianBlur878" />
    </filter>
    <linearGradient
       id="linearGradient1024-6-6"
       x1="1.3315"
       x2="15.65"
       y1="15.576"
       y2="1.17"
       gradientTransform="matrix(3.7796,0,0,3.7796,-0.0020773,0.53047)"
       gradientUnits="userSpaceOnUse">
      <stop
         stop-color="#00dc96"
         offset="0"
         id="stop881" />
      <stop
         stop-color="#14d29b"
         offset="1"
         id="stop883" />
    </linearGradient>
  </defs>
  <sodipodi:namedview
     pagecolor="#ffffff"
     bordercolor="#666666"
     borderopacity="1"
     objecttolerance="10"
     gridtolerance="10"
     guidetolerance="10"
     inkscape:pageopacity="0"
     inkscape:pageshadow="2"
     inkscape:window-width="1920"
     inkscape:window-height="932"
     id="namedview16"
     showgrid="false"
     inkscape:zoom="5.2149125"
     inkscape:cx="9.149487"
     inkscape:cy="27.09431"
     inkscape:window-x="0"
     inkscape:window-y="36"
     inkscape:window-maximized="1"
     inkscape:current-layer="svg14"
     inkscape:document-rotation="0" />
  <rect
     style="opacity:0.3;fill:#141414;fill-opacity:1;stroke-width:2.74436;stroke-linecap:round;filter:url(#filter1057)"
     id="rect1055"
     width="55"
     height="55"
     x="4.5"
     y="4.5"
     ry="15"
     transform="scale(0.26457812)" />
  <rect
     ry="3.9686716"
     y="1.1906021"
     x="1.1906021"
     height="14.551796"
     width="14.551796"
     id="rect1045"
     style="fill:url(#linearGradient1053);fill-opacity:1;stroke-width:0.726098;stroke-linecap:round" />
  <g
     style="fill:#5e4aa6"
     id="g885"
     transform="scale(0.26457812)">
    <circle
       cx="-1248.7"
       cy="-1241.6"
       r="0"
       id="circle845" />
    <circle
       style="fill-rule:evenodd"
       cx="-149.14999"
       cy="23.855"
       r="0"
       id="circle847" />
    <circle
       cx="-1150.9"
       cy="-1256.6"
       r="0"
       id="circle849" />
    <circle
       style="fill-rule:evenodd"
       cx="-51.327"
       cy="8.8744001"
       r="0"
       id="circle851" />
    <g
       style="stroke-width:0.26458001"
       transform="matrix(3.7796,0,0,3.7796,167.86,4.61)"
       id="g883">
      <g
         transform="translate(-0.0272,0.0065001)"
         id="g861">
        <circle
           cx="-330.35001"
           cy="-328.38"
           r="0"
           id="circle853" />
        <circle
           cx="-312.10999"
           cy="-326.25"
           r="0"
           id="circle855" />
        <circle
           cx="-306.01999"
           cy="-333.07001"
           r="0"
           id="circle857" />
        <circle
           cx="-308.84"
           cy="-326.01001"
           r="0"
           id="circle859" />
      </g>
      <g
         transform="translate(-0.0272,0.0065001)"
         id="g871">
        <circle
           cx="-330.35001"
           cy="-328.38"
           r="0"
           id="circle863" />
        <circle
           cx="-312.10999"
           cy="-326.25"
           r="0"
           id="circle865" />
        <circle
           cx="-306.01999"
           cy="-333.07001"
           r="0"
           id="circle867" />
        <circle
           cx="-308.84"
           cy="-326.01001"
           r="0"
           id="circle869" />
      </g>
      <g
         transform="translate(-0.02705,0.0064503)"
         id="g881">
        <circle
           cx="-330.35001"
           cy="-328.38"
           r="0"
           id="circle873" />
        <circle
           cx="-312.10999"
           cy="-326.25"
           r="0"
           id="circle875" />
        <circle
           cx="-306.01999"
           cy="-333.07001"
           r="0"
           id="circle877" />
        <circle
           cx="-308.84"
           cy="-326.01001"
           r="0"
           id="circle879" />
      </g>
    </g>
  </g>
  <g
     id="g965"
     transform="translate(-24.753462,3.165e-4)">
    <path
       d="m 29.251594,4.4976974 h 7.937207 v 7.9372076 h -7.937207 z"
       id="path4"
       inkscape:connector-curvature="0"
       style="fill:#303030;stroke-width:0.26457357" />
    <path
       d="m 30.114293,5.3603965 h 1.343411 c 0.803488,0 1.451645,0.6264517 1.451645,1.7005115 v 0.015529 c 0,1.0845428 -0.7792,1.6875987 -1.380624,1.6947595 l -0.482966,0.00563 H 30.114 Z m 1.242338,2.7952906 c 0.373852,0 0.93176,-0.3053548 0.93176,-1.0792953 v -0.01553 c 0,-0.7634224 -0.557814,-1.0792954 -0.93176,-1.0792954 H 30.73545 v 2.1740628 z"
       id="path6"
       inkscape:connector-curvature="0"
       style="fill:#f9f9f9;stroke-width:0.26457357" />
    <path
       d="m 34.928457,5.3603965 c -0.492932,0 -0.931642,0.162456 -1.238699,0.469513 -0.307175,0.3068575 -0.469607,0.74572 -0.469607,1.2385819 0,0.4929324 0.162456,0.9316423 0.469513,1.2386993 0.306857,0.3071744 0.74572,0.4696069 1.238582,0.4696069 0.451071,0 0.789295,-0.1411497 1.008204,-0.2887559 0.21892,-0.1475944 0.337883,-0.3221064 0.337883,-0.3221064 l 0.05156,-0.077653 V 6.9133253 H 34.772941 V 7.5345062 H 35.7047 v 0.3354654 c -0.01929,0.023807 -0.02509,0.042331 -0.115256,0.1031271 -0.130443,0.087902 -0.335747,0.1826237 -0.661246,0.1826237 -0.361209,0 -0.621181,-0.1093253 -0.799449,-0.2876055 -0.17828,-0.1782802 -0.287606,-0.4382404 -0.287606,-0.7994612 0,-0.361209 0.109328,-0.6211809 0.287606,-0.7994493 0.17828,-0.1782802 0.43824,-0.2876055 0.799449,-0.2876055 0.361186,0 0.621334,0.1093088 0.79952,0.287535 L 36.166919,5.829933 C 35.860062,5.5227586 35.421199,5.360326 34.928337,5.360326 Z"
       id="path8"
       inkscape:connector-curvature="0"
       style="fill:#f9f9f9;stroke-width:0.26457357" />
    <path
       d="m 29.803679,10.95133 h 3.105905 v 0.621181 h -3.105905 z"
       id="path10"
       inkscape:connector-curvature="0"
       style="fill:#f9f9f9;stroke-width:0.26457357" />
  </g>
  <g
     id="g64"
     fill="#5e4aa6"
     transform="matrix(0.26457812,0,0,0.26457812,-18.544167,2.4475833e-8)">
    <circle
       id="circle20"
       r="0"
       cy="-1241.6"
       cx="-1248.7" />
    <circle
       id="circle22"
       fill-rule="evenodd"
       r="0"
       cy="23.855"
       cx="-149.14999" />
    <circle
       id="circle24"
       r="0"
       cy="-1241.6"
       cx="-1248.7" />
    <circle
       id="circle26"
       fill-rule="evenodd"
       r="0"
       cy="23.855"
       cx="-149.14999" />
    <circle
       id="circle28"
       r="0"
       cy="-1256.6"
       cx="-1150.9" />
    <circle
       id="circle30"
       fill-rule="evenodd"
       r="0"
       cy="8.8744001"
       cx="-51.327" />
    <g
       id="g62"
       stroke-width="0.26458"
       transform="matrix(3.7796,0,0,3.7796,167.86,4.61)">
      <g
         id="g40"
         transform="translate(-0.0272,0.0065001)">
        <circle
           id="circle32"
           r="0"
           cy="-328.38"
           cx="-330.35001" />
        <circle
           id="circle34"
           r="0"
           cy="-326.25"
           cx="-312.10999" />
        <circle
           id="circle36"
           r="0"
           cy="-333.07001"
           cx="-306.01999" />
        <circle
           id="circle38"
           r="0"
           cy="-326.01001"
           cx="-308.84" />
      </g>
      <g
         id="g50"
         transform="translate(-0.0272,0.0065001)">
        <circle
           id="circle42"
           r="0"
           cy="-328.38"
           cx="-330.35001" />
        <circle
           id="circle44"
           r="0"
           cy="-326.25"
           cx="-312.10999" />
        <circle
           id="circle46"
           r="0"
           cy="-333.07001"
           cx="-306.01999" />
        <circle
           id="circle48"
           r="0"
           cy="-326.01001"
           cx="-308.84" />
      </g>
      <g
         id="g60"
         transform="translate(-0.02705,0.0064503)">
        <circle
           id="circle52"
           r="0"
           cy="-328.38"
           cx="-330.35001" />
        <circle
           id="circle54"
           r="0"
           cy="-326.25"
           cx="-312.10999" />
        <circle
           id="circle56"
           r="0"
           cy="-333.07001"
           cx="-306.01999" />
        <circle
           id="circle58"
           r="0"
           cy="-326.01001"
           cx="-308.84" />
      </g>
    </g>
  </g>
</svg>
