<?xml version="1.0" encoding="UTF-8" standalone="no"?>
<svg
   xmlns:dc="http://purl.org/dc/elements/1.1/"
   xmlns:cc="http://creativecommons.org/ns#"
   xmlns:rdf="http://www.w3.org/1999/02/22-rdf-syntax-ns#"
   xmlns:svg="http://www.w3.org/2000/svg"
   xmlns="http://www.w3.org/2000/svg"
   xmlns:xlink="http://www.w3.org/1999/xlink"
   xmlns:sodipodi="http://sodipodi.sourceforge.net/DTD/sodipodi-0.dtd"
   xmlns:inkscape="http://www.inkscape.org/namespaces/inkscape"
   width="64"
   height="64"
   version="1"
   id="svg34"
   sodipodi:docname="dbeaver.svg"
   inkscape:version="1.0.1 (3bc2e813f5, 2020-09-07)">
  <metadata
     id="metadata40">
    <rdf:RDF>
      <cc:Work
         rdf:about="">
        <dc:format>image/svg+xml</dc:format>
        <dc:type
           rdf:resource="http://purl.org/dc/dcmitype/StillImage" />
        <dc:title></dc:title>
      </cc:Work>
    </rdf:RDF>
  </metadata>
  <defs
     id="defs38">
    <style
       id="style847"
       type="text/css" />
    <filter
       color-interpolation-filters="sRGB"
       height="1.048"
       width="1.048"
       y="-.024"
       x="-.024"
       id="filter2761">
      <feGaussianBlur
         id="feGaussianBlur939"
         stdDeviation="0.14552168" />
    </filter>
    <linearGradient
       gradientUnits="userSpaceOnUse"
       gradientTransform="matrix(3.7796,0,0,3.7796,8.3592582,-18.517825)"
       y2="2.6243"
       y1="15.576"
       x2="14.217"
       x1="1.3315"
       id="linearGradient1024">
      <stop
         id="stop942"
         offset="0"
         stop-color="#ff7d1e" />
      <stop
         id="stop944"
         offset="1"
         stop-color="#ffa53c" />
    </linearGradient>
    <filter
       color-interpolation-filters="sRGB"
       height="1.048"
       width="1.048"
       y="-.024"
       x="-.024"
       id="filter2761-3">
      <feGaussianBlur
         id="feGaussianBlur4"
         stdDeviation="0.14552168" />
    </filter>
    <linearGradient
       gradientTransform="matrix(3.7796,0,0,3.7796,95.420454,0.53085)"
       gradientUnits="userSpaceOnUse"
       y2="2.6243"
       y1="15.576"
       x2="14.217"
       x1="1.3315"
       id="linearGradient1024-6">
      <stop
         id="stop7"
         offset="0"
         stop-color="#ff7d1e" />
      <stop
         id="stop9"
         offset="1"
         stop-color="#ffa53c" />
    </linearGradient>
    <linearGradient
       gradientUnits="userSpaceOnUse"
       gradientTransform="matrix(1.2346,0,0,1.2346,2.3832028,3.6047)"
       y2="4"
       y1="44"
       x2="0"
       id="linearGradient890">
      <stop
         id="stop4"
         offset="0"
         stop-color="#FFB900" />
      <stop
         id="stop6"
         offset="1"
         stop-color="#ff0" />
    </linearGradient>
    <filter
       color-interpolation-filters="sRGB"
       height="1.048"
       width="1.048"
       y="-.024"
       x="-.024"
       id="filter2761-67">
      <feGaussianBlur
         id="feGaussianBlur9"
         stdDeviation="0.14552168" />
    </filter>
    <linearGradient
       gradientUnits="userSpaceOnUse"
       gradientTransform="matrix(3.7796,0,0,3.7796,66.443573,0.53068)"
       y2="1.1082"
       y1="15.601"
       x2="15.644"
       x1="1.4377"
       id="linearGradient4673">
      <stop
         id="stop12"
         offset="0"
         stop-color="#dc2828" />
      <stop
         id="stop14"
         offset="1"
         stop-color="#fa4141" />
    </linearGradient>
    <linearGradient
       gradientUnits="userSpaceOnUse"
       y2="9.67"
       y1="54.592"
       x2="34.134"
       x1="34.134"
       id="linearGradient915">
      <stop
         id="stop17"
         offset="0"
         stop-color="#ffb900" />
      <stop
         id="stop19"
         offset="1"
         stop-color="#ff0" />
    </linearGradient>
    <filter
       inkscape:collect="always"
       style="color-interpolation-filters:sRGB"
       id="filter1057"
       x="-0.027000001"
       width="1.054"
       y="-0.027000001"
       height="1.054">
      <feGaussianBlur
         inkscape:collect="always"
         stdDeviation="0.61875"
         id="feGaussianBlur1059" />
    </filter>
    <linearGradient
       inkscape:collect="always"
       xlink:href="#linearGradient1051"
       id="linearGradient1053"
       x1="-127"
       y1="60"
       x2="-80.658669"
       y2="13.658672"
       gradientUnits="userSpaceOnUse"
       gradientTransform="translate(131.5,-0.50999746)" />
    <linearGradient
       inkscape:collect="always"
       id="linearGradient1051">
      <stop
         style="stop-color:#ff7d1e;stop-opacity:1"
         offset="0"
         id="stop1047" />
      <stop
         style="stop-color:#ffa53c;stop-opacity:1"
         offset="1"
         id="stop1049" />
    </linearGradient>
    <linearGradient
       id="linearGradient890-3"
       x2="0"
       y1="44"
       y2="4"
       gradientTransform="matrix(1.2346,0,0,1.2346,3.1419,3.6047)"
       gradientUnits="userSpaceOnUse">
      <stop
         stop-color="#FFB900"
         offset="0"
         id="stop861" />
      <stop
         stop-color="#ff0"
         offset="1"
         id="stop863" />
    </linearGradient>
    <filter
       id="filter2761-6"
       x="-.024"
       y="-.024"
       width="1.048"
       height="1.048"
       color-interpolation-filters="sRGB">
      <feGaussianBlur
         stdDeviation="0.14552168"
         id="feGaussianBlur866" />
    </filter>
  </defs>
  <sodipodi:namedview
     pagecolor="#ffffff"
     bordercolor="#666666"
     borderopacity="1"
     objecttolerance="10"
     gridtolerance="10"
     guidetolerance="10"
     inkscape:pageopacity="0"
     inkscape:pageshadow="2"
     inkscape:window-width="1920"
     inkscape:window-height="932"
     id="namedview36"
     showgrid="false"
     inkscape:zoom="3.6875"
     inkscape:cx="24.73718"
     inkscape:cy="31.158722"
     inkscape:window-x="0"
     inkscape:window-y="36"
     inkscape:window-maximized="1"
     inkscape:current-layer="svg34"
     inkscape:document-rotation="0" />
  <rect
     ry="15"
     y="4.4999995"
     x="4.4999995"
     height="55"
     width="55"
     id="rect1055"
     style="opacity:0.3;fill:#141414;fill-opacity:1;stroke-width:2.74436;stroke-linecap:round;filter:url(#filter1057)" />
  <rect
     style="fill:url(#linearGradient1053);fill-opacity:1;stroke-width:2.74436;stroke-linecap:round"
     id="rect1045"
     width="54.999996"
     height="54.999996"
     x="4.5000019"
     y="4.5000019"
     ry="14.999999" />
  <circle
     style="fill:#5e4aa6"
     cx="-1261.7625"
     cy="-1287.0905"
     r="0"
     id="circle949" />
  <circle
     style="fill:#5e4aa6;fill-rule:evenodd"
     cx="-162.23747"
     cy="-21.59848"
     r="0"
     id="circle951" />
  <path
     style="fill:#ffffff;fill-opacity:1;stroke:none;stroke-width:0.03875182;stroke-opacity:1"
     d="m 36.129505,16.321731 c -0.07145,0.0093 -0.141151,0.03352 -0.207031,0.07227 L 34.041615,17.4897 c -0.03488,0.01938 -0.0647,0.04319 -0.0957,0.07031 -0.22476,0.205383 -0.240511,0.558443 -0.03125,0.783203 l 1.326171,1.441406 c -1.902713,2.840508 -4.438754,8.152622 -5.326171,13.546875 -0.395262,2.410363 -0.461153,4.840286 -0.0039,7.087891 -1.449318,-1.693451 -3.308191,-3.581122 -5.207031,-4.929685 -1.116052,-0.790537 -2.248964,-1.406627 -3.337891,-1.697266 -1.154804,-0.310014 -2.253891,-0.267011 -3.226562,0.291016 -0.492148,0.282888 -0.946559,0.693989 -1.345703,1.259766 -0.63553,0.891292 -1.014946,1.758631 -1.173828,2.591797 -0.329391,1.724454 0.267721,3.270391 1.503906,4.595703 1.174179,1.259434 2.928637,2.322992 4.990234,3.144531 3.332656,1.329187 7.495197,2.048489 11.28125,2.005859 h 0.01172 l 14.53125,-0.496093 c 0.302264,-0.0078 0.54288,-0.262189 0.53125,-0.564453 -0.0078,-0.02713 -0.01183,-0.05884 -0.01953,-0.08984 -0.05813,-0.306139 -0.15929,-0.607861 -0.294922,-0.90625 -0.422395,-0.926169 -1.193501,-1.744397 -2.185547,-2.263672 -0.542525,-0.282888 -1.153688,-0.477151 -1.808594,-0.550781 0.538651,-0.53865 0.998797,-1.14597 1.335938,-1.8125 0.530904,-1.050174 0.771977,-2.240689 0.589844,-3.515625 -0.186009,-1.317562 -0.918202,-2.382732 -1.921875,-3.103516 -0.430145,-0.310014 -0.91032,-0.554133 -1.417969,-0.728516 1.429942,-0.507649 2.452599,-1.119622 2.386719,-2.154296 -0.05813,-0.930045 -0.937396,-1.055402 -2.142579,-1.144532 h 0.267579 c -0.0039,-1.259434 0.759005,-1.991889 1.638671,-2.685547 l 0.05469,1.613282 c 0.0078,0.205384 0.177397,0.363168 0.378906,0.355468 h 0.0039 l 0.705079,-0.02344 c 0.189884,-0.0039 0.341921,-0.14993 0.357421,-0.335938 l 0.40625,-3.240234 c 0.670407,-0.751786 1.154304,-1.704855 1.158204,-3.138672 0,-0.100755 -0.01191,-0.201979 -0.03516,-0.302734 -0.162758,-0.701408 -1.025168,-1.831582 -2.458984,-2.75 -1.379566,-0.883542 -3.313936,-1.6172 -5.685547,-1.625 -0.720784,0 -1.484853,0.06564 -2.27539,0.21289 L 36.72326,16.685014 c -0.01163,-0.031 -0.02551,-0.06275 -0.04102,-0.09375 -0.116255,-0.197632 -0.338389,-0.297502 -0.552735,-0.269533 z"
     id="path925"
     inkscape:connector-curvature="0" />
  <g
     fill="#5e4aa6"
     id="g30"
     transform="translate(-86.508475)">
    <circle
       cx="-1248.7"
       cy="-1241.6"
       r="0"
       id="circle24" />
    <circle
       cx="-1140.3"
       cy="-1301.8"
       r="0"
       id="circle26" />
    <circle
       cx="-1158.1"
       cy="-1246"
       r="0"
       id="circle28" />
  </g>
  <circle
     cx="-1243.8085"
     cy="-1267.7"
     r="0"
     fill="#5e4aa6"
     id="circle36" />
  <circle
     cx="-144.26448"
     cy="-2.1829"
     r="0"
     fill="#5e4aa6"
     fill-rule="evenodd"
     id="circle38" />
</svg>
