<?xml version="1.0" encoding="UTF-8"?>
<!-- Created with Inkscape (http://www.inkscape.org/) -->
<svg width="64" height="64" version="1.1" viewBox="0 0 16.933 16.933" xmlns="http://www.w3.org/2000/svg" xmlns:xlink="http://www.w3.org/1999/xlink">
 <defs>
  <filter id="filter1057-3" x="-.027" y="-.027" width="1.054" height="1.054" color-interpolation-filters="sRGB">
   <feGaussianBlur stdDeviation="0.61875"/>
  </filter>
  <linearGradient id="linearGradient1053-7" x1="-127" x2="-72" y1="60" y2="5" gradientTransform="matrix(.26458 0 0 .26458 26.836 1.8968)" gradientUnits="userSpaceOnUse">
   <stop stop-color="#96aab4" offset="0"/>
   <stop stop-color="#a0b4c3" stop-opacity=".99608" offset="1"/>
  </linearGradient>
 </defs>
 <g transform="translate(7.957 -2.0317)">
  <rect transform="matrix(.26458 0 0 .26458 -7.957 2.0317)" x="4.5" y="4.5" width="55" height="55" ry="15" fill="#141414" filter="url(#filter1057-3)" opacity=".3" stroke-linecap="round" stroke-width="2.7444"/>
  <rect x="-6.7664" y="3.2224" width="14.552" height="14.552" ry="3.9687" fill="url(#linearGradient1053-7)" stroke-linecap="round" stroke-width=".72611"/>
  <path id="gear" class="shp86" d="m3.4252 5.8041-0.22888 0.6114c-0.0149 0.040102 3.55e-4 0.093326 0.034071 0.11923l0.26934 0.20616c0.033001 0.02519 0.089422 0.026617 0.1242 0.00179l0.53085-0.37898c0.034781-0.024841 0.087652-0.020584 0.11781 0.00994l0.22249 0.22249c0.030871 0.030873 0.034781 0.083032 0.0099 0.11781l-0.37898 0.53051c-0.02484 0.034778-0.02377 0.090487 0.0021 0.1242l0.20652 0.26934c0.025201 0.033001 0.079482 0.048971 0.11923 0.034069l0.6107-0.22888c0.040101-0.014902 0.089782 0.00282 0.11107 0.040102l0.15719 0.27217c0.022 0.037966 0.01207 0.089068-0.02093 0.11639l-0.50388 0.41482c-0.033001 0.027327-0.046481 0.081263-0.030161 0.12029l0.12952 0.31333c0.01597 0.038324 0.063871 0.067778 0.10645 0.063873l0.64973-0.063164c0.042581-0.00427 0.086232 0.025899 0.097232 0.06742l0.081262 0.30376c0.01136 0.042229-0.01136 0.089068-0.050391 0.10681l-0.5943 0.27041c-0.039031 0.017739-0.066001 0.06636-0.060331 0.10858l0.044361 0.33605c0.0053 0.041161 0.044361 0.081972 0.086582 0.089068l0.64369 0.10716c0.042231 0.0071 0.076291 0.04755 0.076291 0.09013v0.3144c0 0.04365-0.034071 0.08339-0.076291 0.09013l-0.64299 0.10716c-0.042231 0.0071-0.080902 0.04684-0.086232 0.08907l-0.044011 0.33641c-0.0053 0.04116 0.02164 0.09084 0.060331 0.10858l0.5933 0.27005c0.038671 0.01774 0.061381 0.06565 0.050391 0.10681l-0.081262 0.30376c-0.01136 0.04223-0.054641 0.07168-0.097232 0.06742l-0.64901-0.0628c-0.042581-0.0043-0.090132 0.02448-0.10645 0.06387l-0.13023 0.31333c-0.01597 0.03832-0.0028 0.09332 0.030161 0.12029l0.50388 0.41482c0.033001 0.02733 0.042581 0.07913 0.02093 0.11639l-0.15719 0.27217c-0.022 0.03796-0.071321 0.055-0.11142 0.0401l-0.6114-0.22888c-0.040101-0.0149-0.093322 3.55e-4 -0.11923 0.03407l-0.20616 0.26934c-0.02519 0.033-0.026621 0.08942-0.0018 0.1242l0.37898 0.53085c0.02484 0.03478 0.02058 0.08765-0.0099 0.11781l-0.22249 0.22249c-0.030871 0.03087-0.083032 0.03478-0.11781 0.0099l-0.53051-0.37897c-0.034781-0.02484-0.090482-0.02377-0.12419 0.0021l-0.26934 0.20652c-0.033001 0.02519-0.048971 0.07948-0.034071 0.11923l0.22888 0.6107c0.0149 0.0401-0.0028 0.08977-0.040101 0.11107l-0.27217 0.15719c-0.037961 0.022-0.089072 0.01207-0.11639-0.02093l-0.41482-0.50388c-0.027331-0.033-0.081262-0.04648-0.12029-0.03016l-0.31333 0.12952c-0.038321 0.01597-0.067781 0.06387-0.063871 0.10645l0.063161 0.64973c0.0043 0.04258-0.025911 0.08623-0.067421 0.09723l-0.30376 0.08126c-0.042231 0.01136-0.089072-0.01136-0.10681-0.05039l-0.27042-0.59431c-0.01774-0.03903-0.066361-0.066-0.10858-0.06033l-0.33605 0.04436c-0.041161 0.0053-0.081972 0.04436-0.089072 0.08658l-0.10716 0.64369c-0.0071 0.04223-0.047551 0.07629-0.090132 0.07629h-0.3144c-0.043651 0-0.083392-0.03407-0.090132-0.07629l-0.10716-0.64299c-0.0071-0.04223-0.046831-0.0809-0.089072-0.08623l-0.33639-0.04404c-0.041161-0.0053-0.090842 0.02164-0.10858 0.06033l-0.27005 0.5933c-0.01774 0.03867-0.065651 0.06139-0.10681 0.05039l-0.30376-0.08126c-0.042231-0.01136-0.071681-0.05464-0.067421-0.09723l0.062801-0.64901c0.0043-0.04258-0.02449-0.09013-0.063871-0.10645l-0.31333-0.13023c-0.038321-0.01597-0.093332-0.0028-0.12029 0.03016l-0.41482 0.50388c-0.02733 0.033-0.079132 0.04258-0.11639 0.02094l-0.27217-0.1572c-0.037961-0.022-0.055001-0.07132-0.040101-0.11142l0.22887-0.6114c0.0149-0.0401-3.54e-4 -0.09332-0.034071-0.11923l-0.26934-0.20616c-0.033001-0.02519-0.089422-0.02662-0.1242-0.0018l-0.53085 0.37898c-0.034781 0.02484-0.087652 0.02059-0.11781-0.0099l-0.22249-0.22253c-0.030871-0.03087-0.034781-0.08303-0.0099-0.11781l0.37894-0.53051c0.02484-0.03478 0.02377-0.09049-0.0021-0.1242l-0.20652-0.26934c-0.025191-0.033-0.079482-0.04897-0.11923-0.03407l-0.6107 0.22888c-0.040101 0.0149-0.089782-0.0028-0.11107-0.0401l-0.15721-0.27215c-0.022-0.03796-0.01206-0.08907 0.02094-0.11639l0.50388-0.41482c0.033001-0.02733 0.046481-0.08126 0.030161-0.12029l-0.12952-0.31333c-0.01597-0.03832-0.063873-0.06778-0.10645-0.06387l-0.64973 0.06316c-0.04258 0.0043-0.086228-0.0259-0.09723-0.06742l-0.081262-0.30376c-0.01136-0.04223 0.01136-0.08907 0.050391-0.10681l0.59437-0.2704c0.039031-0.01774 0.066001-0.06636 0.060331-0.10858l-0.044361-0.33605c-0.0053-0.04116-0.044361-0.08197-0.086582-0.08907l-0.6437-0.10716c-0.042231-0.0071-0.076291-0.04755-0.076291-0.09013v-0.3144c0-0.04365 0.034071-0.08339 0.076291-0.09013l0.64299-0.10716c0.042231-0.00709 0.080902-0.046844 0.086232-0.089068l0.044011-0.33641c0.0053-0.041161-0.021641-0.090842-0.060331-0.10858l-0.59331-0.27005c-0.038671-0.017739-0.061391-0.065651-0.050391-0.10681l0.081262-0.30376c0.01136-0.042229 0.054641-0.071683 0.097232-0.067419l0.64901 0.062805c0.042581 0.00427 0.090132-0.024482 0.10645-0.063873l0.13023-0.31333c0.01597-0.038325 0.0028-0.093326-0.030161-0.12029l-0.50389-0.41482c-0.033001-0.027327-0.042581-0.079135-0.02094-0.11639l0.1572-0.27217c0.022-0.037966 0.071321-0.055004 0.11142-0.040102l0.6114 0.22888c0.040101 0.014902 0.093332-3.555e-4 0.11923-0.034069l0.20616-0.26934c0.02519-0.033001 0.02662-0.089423 0.0018-0.1242l-0.37897-0.53085c-0.02484-0.034778-0.02059-0.087648 0.0099-0.11781l0.22247-0.22249c0.030871-0.030873 0.083032-0.034778 0.11781-0.00994l0.53051 0.37898c0.034781 0.02484 0.090492 0.023772 0.1242-0.00214l0.26934-0.20651c0.033001-0.02519 0.048971-0.079486 0.034071-0.11923l-0.22888-0.6107c-0.0149-0.040102 0.0028-0.089778 0.040101-0.11107l0.27217-0.15719c0.037961-0.022003 0.089072-0.012065 0.11639 0.020935l0.41482 0.50388c0.027331 0.033001 0.081262 0.046485 0.12029 0.030164l0.31333-0.12952c0.038321-0.01597 0.067781-0.063873 0.063871-0.10645l-0.063161-0.64973c-0.0043-0.042581 0.02591-0.086228 0.067421-0.097229l0.30376-0.081261c0.042231-0.011355 0.089072 0.011355 0.10681 0.050388l0.27044 0.59437c0.01774 0.039034 0.066361 0.066001 0.10858 0.060327l0.33605-0.044357c0.041161-0.0053 0.081972-0.044357 0.089072-0.086584l0.10716-0.64369c0.0071-0.042228 0.047551-0.076293 0.090132-0.076293h0.3144c0.043651 0 0.083392 0.034067 0.090132 0.076293l0.10716 0.64299c0.0071 0.042229 0.046841 0.080904 0.089072 0.086228l0.33641 0.043998c0.041161 0.0053 0.090842-0.021644 0.10858-0.060327l0.27004-0.5933c0.01774-0.038678 0.065651-0.061389 0.10681-0.050388l0.30376 0.081261c0.042231 0.011355 0.071681 0.054647 0.067421 0.097229l-0.062801 0.64901c-0.0043 0.04258 0.024481 0.090132 0.063871 0.10645l0.31333 0.13023c0.038321 0.01597 0.093332 0.00282 0.12029-0.030164l0.41481-0.50387c0.02733-0.033001 0.079131-0.04258 0.11639-0.020935l0.27217 0.15719c0.037961 0.022004 0.055001 0.071325 0.040101 0.11142zm-1.0418 1.3026c-0.88215-0.50956-1.8853-0.62027-2.8005-0.38821-0.17636 0.044707-0.072741 0.020225-0.072741 0.020225-0.24555 0.08375-0.3435 0.33675-0.21965 0.56244 0 0-0.071321-0.13023 0.0056 0.00994 0.36691 0.6696 1.1014 2.0095 1.1014 2.0095 0.16606 0.30304 0.58088 0.54291 0.92686 0.53583 0 0 1.6273-0.03371 2.4413-0.05074 0.15117-0.00316 0 0 0 0 0.25052-0.0052995 0.41341-0.21609 0.35876-0.45208-0.25402-0.91481-0.85338-1.7345-1.7408-2.2469zm-0.061391 6.5352c0.89102-0.49395 1.5024-1.2966 1.7749-2.2007 0.052521-0.17423 0.02023-0.07274 0.02023-0.07274 0.054641-0.25372-0.11178-0.46769-0.36904-0.47799 0 0 0.14832 0.0061-0.01136-3.54e-4 -0.76292-0.03016-2.2894-0.09084-2.2894-0.09084-0.34528-0.01383-0.76471 0.21822-0.9368 0.51843 0 0-0.80906 1.4122-1.2139 2.1188-0.075232 0.13129 0 0 0 0-0.12455 0.21752-0.02733 0.46557 0.20297 0.54044 0 0-0.14549-0.04045 0 0 0.91516 0.25336 1.9265 0.16181 2.8225-0.33499zm-4.4423-0.59792c0.17991 0.16217 0.44356 0.12207 0.56954-0.09474 0 0-0.075941 0.13058 0 0 0.4095-0.70366 1.2278-2.1105 1.2278-2.1105 0.17387-0.29914 0.16536-0.7782-0.01916-1.0706 0 0-0.81581-1.292-1.2235-1.9374-0.085522-0.1352-0.0061-0.00958-0.0061-0.00958-0.13729-0.21752-0.40591-0.25478-0.59824-0.080553 0 0 0.071681-0.078777-0.052871 0.053936-0.64654 0.68804-1.0361 1.6187-1.0184 2.6377 0.01774 1.0244 0.44428 1.9459 1.1213 2.6118z" fill="#fff" image-rendering="optimizeSpeed" stroke-width=".60324"/>
 </g>
</svg>
