<?xml version="1.0" encoding="UTF-8"?>
<svg width="64" height="64" version="1.1" viewBox="0 0 64 64" xmlns="http://www.w3.org/2000/svg">
 <defs>
  <filter id="deepin-feedback-a" x="-.066055" y="-.11191" width="1.1321" height="1.1977">
   <feOffset dy="2" in="SourceAlpha" result="shadowOffsetOuter1"/>
   <feGaussianBlur in="shadowOffsetOuter1" result="shadowBlurOuter1" stdDeviation="3"/>
   <feComposite in="shadowBlurOuter1" in2="SourceAlpha" operator="out" result="shadowBlurOuter1"/>
   <feColorMatrix in="shadowBlurOuter1" result="shadowMatrixOuter1" values="0 0 0 0 0   0 0 0 0 0   0 0 0 0 0  0 0 0 0.2 0"/>
   <feMerge>
    <feMergeNode in="shadowMatrixOuter1"/>
    <feMergeNode in="SourceGraphic"/>
   </feMerge>
  </filter>
  <linearGradient id="deepin-feedback-b" x1="26.576" x2="67.866" y1="12.519" y2="97.344" gradientTransform="scale(1.0755 .9298)" gradientUnits="userSpaceOnUse">
   <stop stop-color="#90FF8A" offset="0"/>
   <stop stop-color="#00B9E4" offset="1"/>
  </linearGradient>
  <linearGradient id="deepin-feedback-c" x1="38.141" x2="24.287" y1="78.319" y2="64.775" gradientTransform="scale(1.3385 .74709)" gradientUnits="userSpaceOnUse">
   <stop stop-color="#FFF" stop-opacity=".494" offset="0"/>
   <stop stop-color="#FFF" offset="1"/>
  </linearGradient>
  <filter id="deepin-feedback-d" x="-.36923" y="-.061238" width="1.7385" height="1.148">
   <feOffset dy="2" in="SourceAlpha" result="shadowOffsetOuter1"/>
   <feGaussianBlur in="shadowOffsetOuter1" result="shadowBlurOuter1" stdDeviation="2"/>
   <feColorMatrix in="shadowBlurOuter1" result="shadowMatrixOuter1" values="0 0 0 0 0   0 0 0 0 0   0 0 0 0 0  0 0 0 0.35 0"/>
   <feMerge>
    <feMergeNode in="shadowMatrixOuter1"/>
    <feMergeNode in="SourceGraphic"/>
   </feMerge>
  </filter>
  <linearGradient id="deepin-feedback-e" x2="8.7457" y1="3.6415" y2="3.6415" gradientTransform="scale(1.2019 .83205)" gradientUnits="userSpaceOnUse">
   <stop stop-color="#E6D049" offset="0"/>
   <stop stop-color="#EC9500" offset="1"/>
  </linearGradient>
  <linearGradient id="deepin-feedback-f" x2="7.1993" y1="22.213" y2="22.213" gradientTransform="scale(1.6125 .62017)" gradientUnits="userSpaceOnUse">
   <stop stop-color="#F6F6F6" offset="0"/>
   <stop stop-color="#747474" offset="1"/>
  </linearGradient>
  <linearGradient id="deepin-feedback-g" x1="-.79349" x2="19.902" y1="17.508" y2="17.508" gradientTransform="scale(.56309 1.7759)" gradientUnits="userSpaceOnUse">
   <stop stop-color="#5E5E5E" offset="0"/>
   <stop stop-color="#373737" offset="1"/>
  </linearGradient>
  <linearGradient id="deepin-feedback-h" x1=".27215" x2="9.611" y1="76.876" y2="76.876" gradientTransform="scale(1.2019 .83205)" gradientUnits="userSpaceOnUse">
   <stop stop-color="#FFEACA" offset="0"/>
   <stop stop-color="#E07431" offset="1"/>
  </linearGradient>
  <filter id="filter1057-3" x="-.027" y="-.027" width="1.054" height="1.054" color-interpolation-filters="sRGB">
   <feGaussianBlur stdDeviation="0.61875"/>
  </filter>
  <linearGradient id="linearGradient1053-6" x1="-127" x2="-72" y1="60" y2="5" gradientTransform="matrix(.26458 0 0 .26458 58.824 -1.9853)" gradientUnits="userSpaceOnUse">
   <stop stop-color="#dee0e2" offset="0"/>
   <stop stop-color="#f1f3f5" stop-opacity=".99608" offset="1"/>
  </linearGradient>
 </defs>
 <g transform="matrix(3.7796 0 0 3.7796 -90.832 6.9932)" stroke-linecap="round">
  <rect transform="matrix(.26458 0 0 .26458 24.032 -1.8503)" x="4.5" y="4.5" width="55" height="55" ry="15" fill="#141414" filter="url(#filter1057-3)" opacity=".3" stroke-width="2.7444"/>
  <rect x="25.222" y="-.65972" width="14.552" height="14.552" ry="3.9687" fill="url(#linearGradient1053-6)" stroke-width=".72611"/>
 </g>
 <g transform="matrix(.31144 0 0 .31144 15.026 15.737)" fill="none" fill-rule="evenodd" filter="url(#deepin-feedback-a)">
  <path d="m15 13h79c8.2843 0 15 6.7157 15 15v51c0 8.2843-6.7157 15-15 15h-62.306c-0.60828 0-1.1957 0.22177-1.6522 0.62377l-13.966 12.298c-0.51811 0.45624-1.308 0.40609-1.7642-0.11201-0.201-0.22826-0.31189-0.52196-0.31189-0.8261v-11.984c-7.732 0-14-6.268-14-14v-52c0-8.2843 6.7157-15 15-15z" fill="url(#deepin-feedback-b)"/>
  <path d="m83.5 66c1.6569 0 3 1.3431 3 3s-1.3431 3-3 3h-58.5c-1.6569 0-3-1.3431-3-3s1.3431-3 3-3zm0-15c1.6569 0 3 1.3431 3 3s-1.3431 3-3 3h-58.5c-1.6569 0-3-1.3431-3-3s1.3431-3 3-3zm0-15c1.6569 0 3 1.3431 3 3s-1.3431 3-3 3h-58.5c-1.6569 0-3-1.3431-3-3s1.3431-3 3-3z" fill="url(#deepin-feedback-c)" fill-rule="nonzero"/>
  <g transform="translate(85)" filter="url(#deepin-feedback-d)">
   <path d="m2.5 0h8c1.3807 0 2.5 1.1193 2.5 2.5v6.5h-13v-6.5c0-1.3807 1.1193-2.5 2.5-2.5z" fill="url(#deepin-feedback-e)"/>
   <rect y="11" width="13" height="5" fill="url(#deepin-feedback-f)"/>
   <rect y="18" width="13" height="41" fill="url(#deepin-feedback-g)"/>
   <polygon points="13 61 11 70 2 70 0 61" fill="url(#deepin-feedback-h)"/>
   <path d="m3 72h7l-3.0528 6.1056c-0.12349 0.24699-0.42383 0.3471-0.67082 0.22361-0.096764-0.048382-0.17522-0.12684-0.22361-0.22361z" fill="#312f2f"/>
  </g>
 </g>
</svg>
