<?xml version="1.0" encoding="UTF-8"?>
<svg width="64" height="64" version="1" xmlns="http://www.w3.org/2000/svg">
 <defs>
  <filter id="filter1057" x="-.027" y="-.027" width="1.054" height="1.054" color-interpolation-filters="sRGB">
   <feGaussianBlur stdDeviation="0.61875"/>
  </filter>
  <linearGradient id="linearGradient1053" x1="-127" x2="-72" y1="60" y2="5" gradientTransform="translate(203.93 -.054156)" gradientUnits="userSpaceOnUse">
   <stop stop-color="#1d2123" offset="0"/>
   <stop stop-color="#33393e" stop-opacity=".99608" offset="1"/>
  </linearGradient>
 </defs>
 <g transform="translate(-72.44)">
  <rect x="76.935" y="4.9558" width="55" height="55" ry="15" fill="#141414" filter="url(#filter1057)" opacity=".3" stroke-linecap="round" stroke-width="2.7444"/>
  <rect x="76.935" y="4.9558" width="55" height="55" ry="15" fill="url(#linearGradient1053)" stroke-linecap="round" stroke-width="2.7444"/>
  <circle cx="104.44" cy="32" r="30.001" fill-opacity="0" stroke-width="1.5715"/>
 </g>
 <g stroke-linejoin="round" stroke-width="1.0022">
  <rect x="45" y="15" width="10" height="6" ry="2" fill="#16be71"/>
  <rect x="21" y="24" width="10" height="6" ry="2" fill="#fabc45"/>
  <rect x="45" y="24" width="10" height="6" ry="2" fill="#05ac9c"/>
  <rect x="45" y="33" width="10" height="6" ry="2" fill="#026ed2"/>
  <rect x="33" y="33" width="10" height="6" ry="2" fill="#9e2bbb"/>
  <rect x="21" y="33" width="10" height="6" ry="2" fill="#f57524"/>
  <rect x="9" y="42" width="10" height="6" ry="2" fill="#f6a500"/>
  <rect x="21" y="42" width="10" height="6" ry="2" fill="#e74b32"/>
  <rect x="33" y="42" width="10" height="6" ry="2" fill="#b72b68"/>
  <rect x="45" y="42" width="10" height="6" ry="2" fill="#3446d9"/>
 </g>
</svg>
