<?xml version="1.0" encoding="UTF-8" standalone="no"?>
<svg
   xmlns:dc="http://purl.org/dc/elements/1.1/"
   xmlns:cc="http://creativecommons.org/ns#"
   xmlns:rdf="http://www.w3.org/1999/02/22-rdf-syntax-ns#"
   xmlns:svg="http://www.w3.org/2000/svg"
   xmlns="http://www.w3.org/2000/svg"
   xmlns:sodipodi="http://sodipodi.sourceforge.net/DTD/sodipodi-0.dtd"
   xmlns:inkscape="http://www.inkscape.org/namespaces/inkscape"
   width="64"
   height="64"
   version="1.1"
   viewBox="0 0 16.933 16.933"
   id="svg8"
   sodipodi:docname="deluge.svg"
   inkscape:version="1.0.1 (3bc2e813f5, 2020-09-07)">
  <rect
     x="4.4999995"
     y="4.4999995"
     width="55"
     height="55"
     ry="15"
     fill="#141414"
     filter="url(#filter1057)"
     opacity="0.3"
     stroke-linecap="round"
     stroke-width="2.7444"
     id="rect892"
     transform="scale(0.26457812)" />
  <rect
     x="1.1906016"
     y="1.1906016"
     width="14.551797"
     height="14.551797"
     ry="3.9686718"
     fill="url(#linearGradient1053)"
     stroke-linecap="round"
     stroke-width="0.726108"
     id="rect894"
     style="fill:url(#linearGradient1053)" />
  <g
     style="fill:#5e4aa6;stroke-width:0.26458;image-rendering:optimizeSpeed"
     transform="translate(-96.08591,-11.192973)"
     id="g872">
    <circle
       cx="-347.64001"
       cy="-328.38"
       r="0"
       id="circle858" />
    <circle
       style="fill-rule:evenodd"
       cx="-56.726002"
       cy="6.4400001"
       r="0"
       id="circle860" />
    <g
       transform="translate(-0.0272,0.0065001)"
       id="g870">
      <circle
         cx="-330.35001"
         cy="-328.38"
         r="0"
         id="circle862" />
      <circle
         cx="-312.10999"
         cy="-326.25"
         r="0"
         id="circle864" />
      <circle
         cx="-306.01999"
         cy="-333.07001"
         r="0"
         id="circle866" />
      <circle
         cx="-308.84"
         cy="-326.01001"
         r="0"
         id="circle868" />
    </g>
  </g>
  <circle
     cx="-377.18219"
     cy="-354.33157"
     r="0"
     fill="#5e4aa6"
     id="circle880"
     style="stroke-width:0.264578" />
  <metadata
     id="metadata14">
    <rdf:RDF>
      <cc:Work
         rdf:about="">
        <dc:format>image/svg+xml</dc:format>
        <dc:type
           rdf:resource="http://purl.org/dc/dcmitype/StillImage" />
        <dc:title></dc:title>
      </cc:Work>
    </rdf:RDF>
  </metadata>
  <defs
     id="defs12">
    <linearGradient
       id="a"
       gradientUnits="userSpaceOnUse"
       x1="400.16821"
       x2="400.47992"
       y1="543.79803"
       y2="518.47333">
      <stop
         offset="0"
         stop-color="#2c5aa0"
         id="stop2" />
      <stop
         offset="1"
         stop-color="#3771c8"
         id="stop4" />
    </linearGradient>
    <filter
       color-interpolation-filters="sRGB"
       height="1.048"
       width="1.048"
       y="-.024"
       x="-.024"
       id="filter2761">
      <feGaussianBlur
         id="feGaussianBlur884"
         stdDeviation="0.14552168" />
    </filter>
    <linearGradient
       gradientUnits="userSpaceOnUse"
       gradientTransform="translate(0.21098559,-7.0715783)"
       y2="1.17"
       y1="15.576"
       x2="15.65"
       x1="1.3315"
       id="linearGradient1024">
      <stop
         id="stop887"
         offset="0"
         stop-color="#00c8ff" />
      <stop
         id="stop889"
         offset="1"
         stop-color="#14a0ff" />
    </linearGradient>
    <filter
       color-interpolation-filters="sRGB"
       height="1.1154"
       width="1.125"
       y="-.057691"
       x="-.062502"
       id="filter943">
      <feGaussianBlur
         id="feGaussianBlur892"
         stdDeviation="0.3307375" />
    </filter>
    <filter
       inkscape:collect="always"
       style="color-interpolation-filters:sRGB"
       id="filter975"
       x="-0.074108959"
       width="1.1482179"
       y="-0.050404018"
       height="1.100808">
      <feGaussianBlur
         inkscape:collect="always"
         stdDeviation="0.21966115"
         id="feGaussianBlur977" />
    </filter>
    <filter
       id="filter2761-3"
       x="-.024"
       y="-.024"
       width="1.048"
       height="1.048"
       color-interpolation-filters="sRGB">
      <feGaussianBlur
         stdDeviation="0.14552168"
         id="feGaussianBlur2" />
    </filter>
    <linearGradient
       id="linearGradient4673"
       x1="1.2573"
       x2="15.644"
       y1="15.429"
       y2="1.1082"
       gradientUnits="userSpaceOnUse"
       gradientTransform="translate(2.7759996,-5.8333087)">
      <stop
         stop-color="#32dcff"
         offset="0"
         id="stop5" />
      <stop
         stop-color="#3296ff"
         offset="1"
         id="stop7" />
    </linearGradient>
    <linearGradient
       id="a-6"
       gradientUnits="userSpaceOnUse"
       x1="408.64954"
       x2="408.64954"
       y1="549.92224"
       y2="500.92224">
      <stop
         offset="0"
         stop-color="#197cf1"
         id="stop2-7" />
      <stop
         offset="1"
         stop-color="#59d0ff"
         id="stop4-5" />
    </linearGradient>
    <linearGradient
       id="b"
       gradientUnits="userSpaceOnUse"
       x1="405.57144"
       x2="406.57144"
       y1="543.79797"
       y2="501.798">
      <stop
         offset="0"
         stop-color="#1673db"
         id="stop7-3" />
      <stop
         offset="1"
         stop-color="#42d6fc"
         id="stop9" />
    </linearGradient>
    <style
       id="style927"
       type="text/css" />
    <filter
       color-interpolation-filters="sRGB"
       height="1.048"
       width="1.048"
       y="-.024"
       x="-.024"
       id="filter2761-67">
      <feGaussianBlur
         id="feGaussianBlur929"
         stdDeviation="0.14552168" />
    </filter>
    <linearGradient
       gradientUnits="userSpaceOnUse"
       gradientTransform="matrix(3.7796,0,0,3.7796,16.978258,-18.878729)"
       y2="1.1082"
       y1="15.429"
       x2="15.644"
       x1="1.2573"
       id="linearGradient4673-5">
      <stop
         id="stop932"
         offset="0"
         stop-color="#32dcff" />
      <stop
         id="stop934"
         offset="1"
         stop-color="#3296ff" />
    </linearGradient>
    <linearGradient
       id="linearGradient11422"
       x1="-6.1472"
       x2="-6.1472"
       y1="-137.82"
       y2="-100.78"
       gradientTransform="matrix(2.0044,0,0,2.0044,151.4312,271.61)"
       gradientUnits="userSpaceOnUse">
      <stop
         stop-color="#32b4ff"
         offset="0"
         id="stop4-3" />
      <stop
         stop-color="#3287ff"
         offset="1"
         id="stop6" />
    </linearGradient>
    <filter
       color-interpolation-filters="sRGB"
       height="1.048"
       width="1.048"
       y="-.024"
       x="-.024"
       id="filter2761-6">
      <feGaussianBlur
         id="feGaussianBlur840"
         stdDeviation="0.14552168" />
    </filter>
    <linearGradient
       gradientUnits="userSpaceOnUse"
       gradientTransform="matrix(3.7796,0,0,3.7796,52.70136,-30.294572)"
       y2="1.17"
       y1="15.576"
       x2="15.65"
       x1="1.3315"
       id="linearGradient1024-3">
      <stop
         id="stop843"
         offset="0"
         stop-color="#00c8ff" />
      <stop
         id="stop845"
         offset="1"
         stop-color="#14a0ff" />
    </linearGradient>
    <style
       type="text/css"
       id="style854" />
    <filter
       id="filter1057"
       x="-.027"
       y="-.027"
       width="1.054"
       height="1.054"
       color-interpolation-filters="sRGB">
      <feGaussianBlur
         stdDeviation="0.61875"
         id="feGaussianBlur856" />
    </filter>
    <linearGradient
       id="linearGradient1053"
       x1="-127"
       x2="-72"
       y1="60"
       y2="5"
       gradientTransform="matrix(0.26457812,0,0,0.26457812,34.792022,-0.13493457)"
       gradientUnits="userSpaceOnUse">
      <stop
         stop-color="#32d7ff"
         offset="0"
         id="stop859" />
      <stop
         stop-color="#329bff"
         offset="1"
         id="stop861" />
    </linearGradient>
    <style
       type="text/css"
       id="style864" />
    <style
       type="text/css"
       id="style866" />
    <style
       type="text/css"
       id="style868" />
    <style
       type="text/css"
       id="style870" />
    <style
       type="text/css"
       id="style872" />
    <style
       type="text/css"
       id="style874" />
    <style
       type="text/css"
       id="style876" />
  </defs>
  <sodipodi:namedview
     pagecolor="#ffffff"
     bordercolor="#666666"
     borderopacity="1"
     objecttolerance="10"
     gridtolerance="10"
     guidetolerance="10"
     inkscape:pageopacity="0"
     inkscape:pageshadow="2"
     inkscape:window-width="1920"
     inkscape:window-height="932"
     id="namedview10"
     showgrid="false"
     inkscape:zoom="3.6875001"
     inkscape:cx="0.43669539"
     inkscape:cy="45.704156"
     inkscape:window-x="0"
     inkscape:window-y="36"
     inkscape:window-maximized="1"
     inkscape:current-layer="svg8"
     inkscape:document-rotation="0" />
  <path
     id="path7"
     d="M 8.2515036,3.4229177 5.3798725,8.4310319 c -0.6034404,1.0587824 -0.6500493,2.4050631 0,3.5387381 0.9771962,1.704221 3.1509228,2.293606 4.8551525,1.316397 1.704226,-0.977192 2.293611,-3.150905 1.316402,-4.8551482 L 8.6798,3.4229177 c -0.094861,-0.1654344 -0.3334488,-0.1654344 -0.4282964,0 z"
     inkscape:connector-curvature="0"
     style="fill-opacity:1;stroke-width:0.43580079;filter:url(#filter975);fill:#0a96ff" />
  <path
     id="path11"
     d="M 8.2515167,3.3609654 5.3798856,8.3690796 c -0.6034404,1.0587824 -0.6500493,2.4050634 0,3.5387384 0.9771962,1.704221 3.1509228,2.293606 4.8551524,1.316397 1.704226,-0.977192 2.293611,-3.150905 1.316402,-4.8551486 L 8.679813,3.3609654 c -0.094861,-0.1654344 -0.3334487,-0.1654344 -0.4282963,0 z"
     inkscape:connector-curvature="0"
     style="fill:#ffffff;fill-opacity:1;stroke-width:0.43580079" />
  <path
     d="m 8.46653,4.2333101 c -0.0542,0.14097 -0.11531,0.28389 -0.17762,0.42023 -0.0053,0.01173 -0.01303,0.02182 -0.01834,0.03354 -0.05749,0.12423 -0.11455,0.24042 -0.17762,0.361 -0.01308,0.02507 -0.02443,0.0507 -0.03772,0.07545 -0.05698,0.10652 -0.11664,0.21541 -0.1771,0.31906 -0.021,0.03605 -0.04414,0.07385 -0.06549,0.10951 -0.54071,0.8856 -1.2516,1.8104 -1.8129,2.5867 -0.4447,0.58409 -0.70042,1.2147 -0.77544,1.8227998 0,1.5103001 1.4502,2.7381001 3.2422,2.7381001 1.792,0 3.2422,-1.2278 3.2422,-2.7381001 0,-0.9516298 -0.77623,-1.9296998 -1.6724,-3.1834998 -0.28368,-0.38946 -0.55769,-0.79891 -0.80374,-1.1841 -0.13355,-0.21091 -0.26417,-0.42801 -0.39244,-0.65492 -0.04007,-0.07096 -0.08226,-0.14598 -0.12156,-0.2185 -0.08493,-0.15712 -0.17169,-0.32205 -0.25202,-0.48728 z m 0,1.1433 c 0,1.4609 0.36721,2.6602 0.76392,4.1408 h 0.93158 L 9.31428,10.53391 8.46653,11.55671 7.61878,10.53391 6.77103,9.5174101 h 0.97402 c 0.41221,-1.5384 0.72148,-2.6833 0.72148,-4.1408 z"
     id="path6"
     inkscape:connector-curvature="0"
     style="fill:#ffffff" />
  <path
     style="fill:#0faaff;fill-opacity:1;stroke-width:0.43580076"
     d="m 8.4665,5.3765684 c 0,1.4574998 -0.3091788,2.602351 -0.7213886,4.1407508 H 6.7710297 L 7.6190232,10.533775 8.4665,11.556432 9.3144935,10.533775 10.16197,9.5173192 H 9.2307794 C 8.8340694,8.0367194 8.4665,6.8374683 8.4665,5.3765684 Z"
     id="path979"
     inkscape:connector-curvature="0"
     sodipodi:nodetypes="ccccccccc" />
  <circle
     style="fill:#5e4aa6;stroke-width:0.264578"
     cx="-340.69632"
     cy="-338.47479"
     r="0"
     id="circle939" />
  <g
     style="fill:#5e4aa6;stroke-width:0.26458"
     transform="translate(-10.336112,-10.102646)"
     id="g949">
    <circle
       cx="-299.01999"
       cy="-338.76999"
       r="0"
       id="circle941" />
    <circle
       style="fill-rule:evenodd"
       cx="-8.1062002"
       cy="-3.9487"
       r="0"
       id="circle943" />
    <circle
       cx="-278.25"
       cy="-357.69"
       r="0"
       id="circle945" />
    <circle
       style="fill-rule:evenodd"
       cx="12.663"
       cy="-22.858999"
       r="0"
       id="circle947" />
  </g>
  <circle
     cx="-345.84183"
     cy="-364.72922"
     r="0"
     id="circle882"
     style="fill:#5e4aa6;stroke-width:0.264581" />
  <circle
     cx="-54.928207"
     cy="-29.908098"
     r="0"
     fill-rule="evenodd"
     id="circle884"
     style="fill:#5e4aa6;stroke-width:0.264581" />
  <circle
     cx="-325.07187"
     cy="-383.64923"
     r="0"
     id="circle886"
     style="fill:#5e4aa6;stroke-width:0.264581" />
  <circle
     cx="-34.159016"
     cy="-48.81839"
     r="0"
     fill-rule="evenodd"
     id="circle888"
     style="fill:#5e4aa6;stroke-width:0.264581" />
  <circle
     cx="-395.32639"
     cy="-328.50018"
     r="0"
     fill="#5e4aa6"
     id="circle11"
     style="stroke-width:0.264578" />
  <circle
     cx="-104.40954"
     cy="6.311511"
     r="0"
     fill="#5e4aa6"
     fill-rule="evenodd"
     id="circle13"
     style="stroke-width:0.264578" />
  <circle
     cx="-374.55701"
     cy="-347.41751"
     r="0"
     fill="#5e4aa6"
     id="circle19"
     style="stroke-width:0.264578" />
  <circle
     style="fill:#5e4aa6;fill-rule:evenodd;stroke-width:0.264578"
     id="circle21"
     r="0"
     cy="-12.598416"
     cx="-55.083134" />
</svg>
