<?xml version="1.0" encoding="UTF-8"?>
<svg width="64" height="64" version="1.1" viewBox="0 0 64 64" xmlns="http://www.w3.org/2000/svg" xmlns:cc="http://creativecommons.org/ns#" xmlns:dc="http://purl.org/dc/elements/1.1/" xmlns:rdf="http://www.w3.org/1999/02/22-rdf-syntax-ns#" xmlns:xlink="http://www.w3.org/1999/xlink">
 <metadata>
  <rdf:RDF>
   <cc:Work rdf:about="">
    <dc:format>image/svg+xml</dc:format>
    <dc:type rdf:resource="http://purl.org/dc/dcmitype/StillImage"/>
    <dc:title/>
   </cc:Work>
  </rdf:RDF>
 </metadata>
 <defs>
  <filter id="filter1057-61" x="-.027" y="-.027" width="1.054" height="1.054" color-interpolation-filters="sRGB">
   <feGaussianBlur stdDeviation="0.61875"/>
  </filter>
  <linearGradient id="linearGradient1053-8" x1="-127" x2="-72" y1="60" y2="5" gradientTransform="matrix(1 0 0 1 131.5 -.5101)" gradientUnits="userSpaceOnUse">
   <stop stop-color="#323741" offset="0"/>
   <stop stop-color="#465064" offset="1"/>
  </linearGradient>
  <linearGradient id="linearGradient912" x1="41.012" x2="41.012" y1="23.605" y2="16.622" gradientTransform="matrix(1.25 0 0 1.25 -111.83 -1.4303e-6)" gradientUnits="userSpaceOnUse">
   <stop stop-color="#5894db" offset="0"/>
   <stop stop-color="#669fe7" offset="1"/>
  </linearGradient>
  <linearGradient id="linearGradient914" x1="470.87" x2="471.19" y1="453.01" y2="439.91" gradientTransform="matrix(1.3664 0 0 1.3664 -727.5 -583.3)" gradientUnits="userSpaceOnUse">
   <stop stop-color="#5894db" offset="0"/>
   <stop stop-color="#80b3ff" offset="1"/>
  </linearGradient>
 </defs>
 <linearGradient id="a" x1="471.24" x2="471.24" y1="470.25" y2="427.7" gradientTransform="matrix(1.3664 0 0 1.3664 -727.5 -583.3)" gradientUnits="userSpaceOnUse">
  <stop stop-color="#3889e9" offset="0"/>
  <stop stop-color="#5ea5fb" offset="1"/>
 </linearGradient>
 <circle cx="-81.515" cy="30.183" r="0" fill="url(#a)" stroke-width="1.3664"/>
 <rect transform="matrix(1 0 0 1 -.00022801 -.00022784)" x="4.5" y="4.5" width="55" height="55" ry="15" fill="#141414" filter="url(#filter1057-61)" opacity=".3" stroke-linecap="round" stroke-width="2.7444"/>
 <rect x="4.4975" y="4.4998" width="55.001" height="55.001" ry="15" fill="url(#linearGradient1053-8)" stroke-linecap="round" stroke-width="2.7444"/>
 <g transform="matrix(.91864 0 0 .91864 107.06 3.4876)">
  <path d="m-61.85 29.285c0-1.512 0.19332-1.5415 1.126-2.118 1.0662-0.65895 1.0761-0.9114-0.17055-1.3389-0.74262-0.2547-1.0889-0.47508-1.6122-2.2877l0.65674 5.7446z" fill="url(#linearGradient912)" stroke-width="1.25"/>
  <path d="m-74.889 15.098c-2.1999-0.0764-4.7161 0.28388-6.1987 0.97661-6.0815 2.5344-9.1452 13.221-15.574 12.595-2.2368-0.26492-3.9719-1.434-5.3003-3.5718-2.088 0.66961-1.7981 5.7922-0.50293 8.4546 5.2101 10.71 14.881 15.336 25.806 12.72 8.4454-2.5258 14.079-8.926 14.81-16.987 0.33834-2.5892 0.2832-3.1423-0.65674-5.7446-2.8712-5.773-7.7652-8.2548-12.383-8.4424zm3.1812 5.8496c1.0355 0 1.875 0.83947 1.875 1.875 0 1.0355-0.83947 1.875-1.875 1.875s-1.875-0.83947-1.875-1.875c0-1.0355 0.83947-1.875 1.875-1.875zm0.63721 0.74707c-0.34518 0-0.625 0.27982-0.625 0.625 0 0.34518 0.27982 0.625 0.625 0.625 0.34518 0 0.625-0.27982 0.625-0.625 0-0.34518-0.27982-0.625-0.625-0.625z" fill="#fff" stroke-width="1.25"/>
  <path d="m-87.611 36.22c-1.418-0.13445-4.6764-0.81122-5.6009-1.1633l-0.80638-0.30708 2.2311-1.0857c1.865-0.90754 2.4373-1.3536 3.4874-2.7183 1.3883-1.8041 2.6307-2.4073 4.3099-2.0923 1.3083 0.24543 2.69 1.7397 2.8494 3.0816 0.15546 1.3088-0.74235 3.0047-1.9502 3.6838-0.86206 0.48466-2.8963 0.75524-4.5204 0.60126z" fill="url(#linearGradient914)" stroke-width="1.3664"/>
 </g>
</svg>
