<?xml version="1.0" encoding="UTF-8" standalone="no"?>
<svg
   xmlns:dc="http://purl.org/dc/elements/1.1/"
   xmlns:cc="http://creativecommons.org/ns#"
   xmlns:rdf="http://www.w3.org/1999/02/22-rdf-syntax-ns#"
   xmlns:svg="http://www.w3.org/2000/svg"
   xmlns="http://www.w3.org/2000/svg"
   xmlns:sodipodi="http://sodipodi.sourceforge.net/DTD/sodipodi-0.dtd"
   xmlns:inkscape="http://www.inkscape.org/namespaces/inkscape"
   version="1.1"
   viewBox="0 0 64 64"
   id="svg25"
   sodipodi:docname="desktop-environment-lxqt.svg"
   width="64"
   height="64"
   inkscape:version="1.0.2 (e86c870879, 2021-01-15)">
  <metadata
     id="metadata29">
    <rdf:RDF>
      <cc:Work
         rdf:about="">
        <dc:format>image/svg+xml</dc:format>
        <dc:type
           rdf:resource="http://purl.org/dc/dcmitype/StillImage" />
        <dc:title></dc:title>
      </cc:Work>
    </rdf:RDF>
  </metadata>
  <sodipodi:namedview
     pagecolor="#ffffff"
     bordercolor="#666666"
     borderopacity="1"
     objecttolerance="10"
     gridtolerance="10"
     guidetolerance="10"
     inkscape:pageopacity="0"
     inkscape:pageshadow="2"
     inkscape:window-width="1920"
     inkscape:window-height="992"
     id="namedview27"
     showgrid="false"
     inkscape:zoom="6.1208931"
     inkscape:cx="8.480104"
     inkscape:cy="29.936196"
     inkscape:window-x="0"
     inkscape:window-y="0"
     inkscape:window-maximized="1"
     inkscape:current-layer="svg25" />
  <defs
     id="defs7">
    <linearGradient
       id="bg"
       x2="0"
       y1="1"
       y2="47"
       gradientUnits="userSpaceOnUse">
      <stop
         style="stop-color:#213a47"
         offset="0"
         id="stop2" />
      <stop
         style="stop-color:#1b2f39"
         offset="1"
         id="stop4" />
    </linearGradient>
    <style
       type="text/css"
       id="style856" />
    <filter
       id="filter1057"
       x="-0.027000001"
       y="-0.027000001"
       width="1.054"
       height="1.054"
       color-interpolation-filters="sRGB">
      <feGaussianBlur
         stdDeviation="0.61875"
         id="feGaussianBlur858" />
    </filter>
    <linearGradient
       id="linearGradient1053"
       x1="-127"
       x2="-72"
       y1="60"
       y2="5"
       gradientTransform="translate(131.5,-0.51)"
       gradientUnits="userSpaceOnUse">
      <stop
         stop-color="#32d7ff"
         offset="0"
         id="stop861" />
      <stop
         stop-color="#329bff"
         offset="1"
         id="stop863" />
    </linearGradient>
    <style
       type="text/css"
       id="style866" />
    <style
       type="text/css"
       id="style868" />
    <style
       type="text/css"
       id="style870" />
    <style
       type="text/css"
       id="style872" />
    <style
       type="text/css"
       id="style874" />
    <style
       type="text/css"
       id="style876" />
    <style
       type="text/css"
       id="style878" />
  </defs>
  <circle
     cx="-1124.8"
     cy="-1279.3"
     r="0"
     fill="#5e4aa6"
     id="circle882" />
  <circle
     cx="-1006.3459"
     cy="-1318.599"
     r="0"
     id="circle884"
     style="fill:#5e4aa6;stroke-width:1.00001" />
  <circle
     cx="93.191803"
     cy="-53.108505"
     r="0"
     fill-rule="evenodd"
     id="circle886"
     style="fill:#5e4aa6;stroke-width:1.00001" />
  <circle
     cx="-927.84369"
     cy="-1390.1091"
     r="0"
     id="circle888"
     style="fill:#5e4aa6;stroke-width:1.00001" />
  <circle
     cx="171.69107"
     cy="-124.58187"
     r="0"
     fill-rule="evenodd"
     id="circle890"
     style="fill:#5e4aa6;stroke-width:1.00001" />
  <rect
     x="4.5"
     y="4.5"
     width="55"
     height="55"
     ry="15"
     fill="#141414"
     filter="url(#filter1057)"
     opacity="0.3"
     stroke-linecap="round"
     stroke-width="2.7444"
     id="rect894" />
  <rect
     x="4.5"
     y="4.5"
     width="55"
     height="55"
     ry="15"
     fill="url(#linearGradient1053)"
     stroke-linecap="round"
     stroke-width="2.7444"
     id="rect896"
     style="fill:url(#linearGradient1053)" />
  <g
     id="g975"
     transform="matrix(1.3461538,0,0,1.3461538,-0.38917567,0.42302191)"
     style="fill:#ffffff;fill-opacity:1">
    <path
       d="m 26.5,12 c -2.4853,0 -4.5,2.0147 -4.5,4.5 0,0.84666 0.30718,1.6877 1,2.5 0,0 0.0012,-0.69342 0,-1 0,-2.4853 1.567,-4 3.5,-4 1.213,0 2.5,0.72858 2.9082,2 H 38 V 15.5 L 30.2188,14.0273 C 29.41926,12.8129 28.0652,12 26.5,12 Z"
       style="fill:#ffffff;fill-opacity:1;paint-order:normal"
       id="path21" />
    <path
       d="m 13,14 c -0.64031,0.91229 -1,2 -1,3 0,3 1,4 2.5,5 H 13 c 0,4 3,6 6,6 h 1 V 27.5 C 16.7344,27 16,25 16,24 l 7,1 v -1 c 0,0 -6.0222,-0.97828 -7,-2 -0.62399,-0.65202 -1,-1.3269 -1,-2 v -3 l 9,6 v -1 z m 15,4 v 3 c 1,1 2,2 2,6 0,2.7614 -2.2386,5 -5,5 h -5 v 6 l 2,-4 h 3 c 3.866,0 7,-3.134 7,-7 0,-4 -2,-5.3545 -3,-6.5 V 19 Z"
       style="fill:#ffffff;fill-opacity:1;paint-order:normal"
       id="path23" />
  </g>
</svg>
