<?xml version="1.0" encoding="UTF-8"?>
<svg width="64" height="64" version="1.1" viewBox="0 0 64 64" xmlns="http://www.w3.org/2000/svg" xmlns:cc="http://creativecommons.org/ns#" xmlns:dc="http://purl.org/dc/elements/1.1/" xmlns:rdf="http://www.w3.org/1999/02/22-rdf-syntax-ns#" xmlns:xlink="http://www.w3.org/1999/xlink">
 <metadata>
  <rdf:RDF>
   <cc:Work rdf:about="">
    <dc:format>image/svg+xml</dc:format>
    <dc:type rdf:resource="http://purl.org/dc/dcmitype/StillImage"/>
    <dc:title/>
   </cc:Work>
  </rdf:RDF>
 </metadata>
 <defs>
  <style type="text/css"/>
  <style type="text/css"/>
  <style type="text/css"/>
  <style type="text/css"/>
  <filter id="filter1057" x="-.027" y="-.027" width="1.054" height="1.054" color-interpolation-filters="sRGB">
   <feGaussianBlur stdDeviation="0.61875"/>
  </filter>
  <linearGradient id="linearGradient1053" x1="-127" x2="-72" y1="60" y2="5" gradientTransform="translate(131.5 -.51)" gradientUnits="userSpaceOnUse">
   <stop stop-color="#32d7ff" offset="0"/>
   <stop stop-color="#329bff" offset="1"/>
  </linearGradient>
  <style type="text/css"/>
  <style type="text/css"/>
  <style type="text/css"/>
  <style type="text/css"/>
  <style type="text/css"/>
  <style type="text/css"/>
  <style type="text/css"/>
  <linearGradient id="linearGradient1040" x1="17.198" x2=".00069529" y1="-.14041" y2="17.057" gradientTransform="matrix(3.7796 0 0 3.7965 -.004624 .51288)" gradientUnits="userSpaceOnUse">
   <stop stop-color="#32dcff" offset="0"/>
   <stop stop-color="#3296ff" offset="1"/>
  </linearGradient>
 </defs>
 <rect x="4.5" y="4.5" width="55" height="55" ry="15" fill="#141414" filter="url(#filter1057)" opacity=".3" stroke-linecap="round" stroke-width="2.7444"/>
 <rect x="4.5" y="4.5" width="55" height="55" ry="15" fill="url(#linearGradient1053)" stroke-linecap="round" stroke-width="2.7444"/>
 <path d="m21.66 4.5 37.754 25.614-31.234 29.35h12.291c3.5244 0 6.378-0.12852 8.7363-0.4787 4.9192-1.6228 8.6897-5.7191 9.8828-10.841 0.3004-2.4858 0.41016-5.4754 0.41016-9.1345v-14.335c0-3.1602-0.0811-5.8208-0.29492-8.0947-1.3727-6.9062-7.4142-12.079-14.705-12.079z" fill="url(#linearGradient1040)" stroke-width="1.0022"/>
 <g fill="#5e4aa6">
  <circle cx="-1248.7" cy="-1241.6" r="0"/>
  <circle cx="-149.15" cy="23.855" r="0" fill-rule="evenodd"/>
  <circle cx="-1124.8" cy="-1279.3" r="0"/>
  <g transform="matrix(3.7796,0,0,3.7796,123.83,-38.184)" stroke-width=".26458">
   <circle cx="-299.02" cy="-338.77" r="0"/>
   <circle cx="-8.1062" cy="-3.9487" r="0" fill-rule="evenodd"/>
   <circle cx="-278.25" cy="-357.69" r="0"/>
   <circle cx="12.663" cy="-22.859" r="0" fill-rule="evenodd"/>
  </g>
  <circle cx="-1324.8" cy="-1249.7" r="0"/>
  <circle cx="-225.26" cy="15.747" r="0" fill-rule="evenodd"/>
  <circle cx="-1248.7" cy="-1241.6" r="0"/>
  <circle cx="-149.15" cy="23.855" r="0" fill-rule="evenodd"/>
  <circle cx="-1248.7" cy="-1241.6" r="0"/>
  <circle cx="-149.15" cy="23.855" r="0" fill-rule="evenodd"/>
  <circle cx="-1124.8" cy="-1279.3" r="0"/>
  <g transform="matrix(3.7796,0,0,3.7796,123.83,-38.184)" stroke-width=".26458">
   <circle cx="-299.02" cy="-338.77" r="0"/>
   <circle cx="-8.1062" cy="-3.9487" r="0" fill-rule="evenodd"/>
   <circle cx="-278.25" cy="-357.69" r="0"/>
   <circle cx="12.663" cy="-22.859" r="0" fill-rule="evenodd"/>
  </g>
 </g>
 <path d="m59.416 30-31.234 29.474c0.81836 0 1.2696 0.01121 1.8822 0.01121l29.423-27.467c0-0.70389-0.01838-1.3261-0.01838-2.0174z" fill="#32dcff" stroke-width="1.3101"/>
 <path d="m21.662 4.5 37.807 25.5h0.03125v-2.0254l-35.926-23.475h-1.9121z" fill="#32dcff"/>
 <path d="m31.571 26.507c0 8.3333-4.7619 11.905-9.5238 11.905h-8.3333v-23.81h8.3333c4.7619 0 9.5238 3.5714 9.5238 11.905m-3.5714 0c0-4.7619-2.3214-8.3333-6.1905-8.3333h-4.5238v16.667h4.5238c3.9679 0 6.1905-3.5714 6.1905-8.3333z" fill="#fff"/>
 <g fill="#5e4aa6">
  <g transform="translate(62.688)">
   <circle cx="-1248.7" cy="-1241.6" r="0"/>
   <circle cx="-149.15" cy="23.855" r="0" fill-rule="evenodd"/>
   <circle cx="-1248.7" cy="-1241.6" r="0"/>
   <circle cx="-149.15" cy="23.855" r="0" fill-rule="evenodd"/>
   <circle cx="-1124.8" cy="-1279.3" r="0"/>
   <g transform="matrix(3.7796,0,0,3.7796,123.83,-38.184)" stroke-width=".26458">
    <circle cx="-299.02" cy="-338.77" r="0"/>
    <circle cx="-8.1062" cy="-3.9487" r="0" fill-rule="evenodd"/>
    <circle cx="-278.25" cy="-357.69" r="0"/>
    <circle cx="12.663" cy="-22.859" r="0" fill-rule="evenodd"/>
   </g>
  </g>
  <circle cx="-972.41" cy="-1279.3" r="0"/>
  <g transform="matrix(3.7796 0 0 3.7796 276.22 -38.184)" stroke-width=".26458">
   <circle cx="-299.02" cy="-338.77" r="0"/>
   <circle cx="-8.1062" cy="-3.9487" r="0" fill-rule="evenodd"/>
   <circle cx="-278.25" cy="-357.69" r="0"/>
   <circle cx="12.663" cy="-22.859" r="0" fill-rule="evenodd"/>
  </g>
 </g>
</svg>
