<?xml version="1.0" encoding="UTF-8"?>
<svg width="64" height="64" version="1.1" viewBox="0 0 16.933 16.933" xmlns="http://www.w3.org/2000/svg" xmlns:cc="http://creativecommons.org/ns#" xmlns:dc="http://purl.org/dc/elements/1.1/" xmlns:rdf="http://www.w3.org/1999/02/22-rdf-syntax-ns#">
 <defs>
  <linearGradient id="linearGradient845" x1="3.1161" x2="13.676" y1="4.5948" y2="12.128" gradientTransform="translate(-.0004372 .00029967)" gradientUnits="userSpaceOnUse">
   <stop stop-color="#fff" offset="0"/>
   <stop stop-color="#c6efff" offset="1"/>
  </linearGradient>
  <style type="text/css"/>
  <style type="text/css"/>
  <filter id="filter1057" x="-.027" y="-.027" width="1.054" height="1.054" color-interpolation-filters="sRGB">
   <feGaussianBlur stdDeviation="0.61875"/>
  </filter>
  <linearGradient id="linearGradient1053" x1="-127" x2="-72" y1="60" y2="5" gradientTransform="matrix(.26458 0 0 .26458 34.792 -.13493)" gradientUnits="userSpaceOnUse">
   <stop stop-color="#32d7ff" offset="0"/>
   <stop stop-color="#329bff" offset="1"/>
  </linearGradient>
  <style type="text/css"/>
  <style type="text/css"/>
  <style type="text/css"/>
  <style type="text/css"/>
  <style type="text/css"/>
  <style type="text/css"/>
  <style type="text/css"/>
 </defs>
 <metadata>
  <rdf:RDF>
   <cc:Work rdf:about="">
    <dc:format>image/svg+xml</dc:format>
    <dc:type rdf:resource="http://purl.org/dc/dcmitype/StillImage"/>
    <dc:title/>
   </cc:Work>
  </rdf:RDF>
 </metadata>
 <rect transform="scale(.26458)" x="4.5" y="4.5" width="55" height="55" ry="15" fill="#141414" filter="url(#filter1057)" opacity=".3" stroke-linecap="round" stroke-width="2.7444"/>
 <rect x="1.1906" y="1.1906" width="14.552" height="14.552" ry="3.9687" fill="url(#linearGradient1053)" stroke-linecap="round" stroke-width=".72611"/>
 <path d="m10.349 11.32c0.62511-0.19624 1.1645-0.50057 1.5837-1.0425-2.2945 1.326-4.5644 1.2854-6.8546 0.0092 0.18686 0.26661 0.41187 0.46916 0.6745 0.6212 0.26185 0.1516 0.53978 0.27545 0.82004 0.41624-0.12085 0.15091-0.26427 0.3087-0.3824 0.48353-0.11244 0.16658-0.23994 0.22493-0.44545 0.20104-0.77436-0.08999-1.4705-0.3477-2.0477-0.8867-0.01673-0.01567-0.03246-0.0324-0.04944-0.0477-0.23566-0.21224-0.33404-0.44913-0.31376-0.7918 0.09588-1.622 0.50059-3.1568 1.2091-4.6146 0.03473-0.071457 0.09405-0.14024 0.15895-0.18629 0.566-0.40175 1.1867-0.67927 1.8734-0.79923 0.13107-0.022912 0.26405-0.040069 0.39677-0.045958 0.05395-0.00238 0.10958 0.032329 0.16324 0.07116-0.81592 0.27275-1.5913 0.60135-2.2732 1.1504 2.3432-1.1162 4.6728-1.1714 7.0088-0.028293-0.62447-0.50465-1.3464-0.81737-2.1016-1.0645 0.05638-0.116 0.13508-0.13831 0.25569-0.12708 0.81731 0.075948 1.5471 0.37637 2.2134 0.8437 0.06252 0.043851 0.1209 0.1083 0.15455 0.17635 0.51692 1.0465 0.86535 2.1476 1.0629 3.2979 0.09173 0.53459 0.13898 1.0729 0.14835 1.6143 0.0012 0.07611-0.03103 0.16682-0.0779 0.22763-0.43529 0.56479-1.0155 0.91363-1.6988 1.0881-0.2639 0.06738-0.53912 0.09137-0.8101 0.12864-0.04197 0.0058-0.10548-0.0092-0.13064-0.03879-0.18048-0.21153-0.35356-0.42927-0.53783-0.6559zm-3.6193-1.4464c0.29954-7.4e-4 0.47713-0.06417 0.633-0.19365 0.25477-0.21178 0.34982-0.49078 0.36944-0.81467 0.0219-0.3622-0.11872-0.63159-0.41964-0.81539-0.31046-0.18959-0.63486-0.20526-0.94909-0.0081-0.50436 0.3165-0.59909 1.0694-0.19778 1.5231 0.1756 0.1985 0.39373 0.30659 0.56408 0.3087zm3.3061 0.01398c0.10297-0.02362 0.21076-0.03485 0.30813-0.0729 0.60094-0.23446 0.79229-1.0414 0.37677-1.5732-0.3238-0.4144-0.92712-0.45174-1.296-0.07641-0.24402 0.24824-0.32014 0.55193-0.27855 0.8918 0.0551 0.45044 0.44937 0.81476 0.8897 0.83071z" fill="url(#linearGradient845)" stroke-width=".045727"/>
 <g fill="#5e4aa6">
  <g transform="matrix(.26458 0 0 .26458 19.707 2.4476e-8)">
   <circle cx="-1248.7" cy="-1241.6" r="0"/>
   <circle cx="-149.15" cy="23.855" r="0" fill-rule="evenodd"/>
   <circle cx="-1248.7" cy="-1241.6" r="0"/>
   <circle cx="-149.15" cy="23.855" r="0" fill-rule="evenodd"/>
   <circle cx="-1124.8" cy="-1279.3" r="0"/>
   <g transform="matrix(3.7796,0,0,3.7796,123.83,-38.184)" stroke-width=".26458">
    <circle cx="-299.02" cy="-338.77" r="0"/>
    <circle cx="-8.1062" cy="-3.9487" r="0" fill-rule="evenodd"/>
    <circle cx="-278.25" cy="-357.69" r="0"/>
    <circle cx="12.663" cy="-22.859" r="0" fill-rule="evenodd"/>
   </g>
  </g>
  <circle cx="-254.16" cy="-338.47" r="0" stroke-width=".26458"/>
  <g transform="translate(76.203 -10.103)" stroke-width=".26458">
   <circle cx="-299.02" cy="-338.77" r="0"/>
   <circle cx="-8.1062" cy="-3.9487" r="0" fill-rule="evenodd"/>
   <circle cx="-278.25" cy="-357.69" r="0"/>
   <circle cx="12.663" cy="-22.859" r="0" fill-rule="evenodd"/>
  </g>
 </g>
</svg>
