<svg id="Preview" width="64" height="64" enable-background="new 0 0 1024 1024" image-rendering="optimizeSpeed" version="1.1" viewBox="0 0 64 64" xmlns="http://www.w3.org/2000/svg" xmlns:xlink="http://www.w3.org/1999/xlink">
 <defs>
  <linearGradient id="linearGradient862-3" x1="7.9373" x2="7.9373" y1="15.081" y2="1.852" gradientTransform="matrix(3.7795 0 0 3.7795 .00014309 .031541)" gradientUnits="userSpaceOnUse">
   <stop stop-color="#1a1a1a" offset="0"/>
   <stop stop-color="#4d4d4d" offset="1"/>
  </linearGradient>
  <linearGradient id="linearGradient884" x1="21.016" x2="44.623" y1="26.164" y2="37.223" gradientUnits="userSpaceOnUse">
   <stop stop-color="#d1d1d1" offset="0"/>
   <stop stop-color="#fff" offset=".4419"/>
   <stop stop-color="#d1d1d1" offset="1"/>
  </linearGradient>
  <filter id="filter1012" x="-.10384" y="-.11251" width="1.2077" height="1.225" color-interpolation-filters="sRGB">
   <feGaussianBlur stdDeviation="1.5000926"/>
  </filter>
 </defs>
 <g transform="scale(3.7796)" shape-rendering="auto">
  <path d="m4.3693 0.52916c-2.1142 0-3.8402 1.7835-3.8402 3.9682v8.4675c0 2.1846 1.726 3.9682 3.8402 3.9682h8.1944c2.1142 0 3.8402-1.7835 3.8402-3.9682v-8.4675c0-2.1846-1.726-3.9682-3.8402-3.9682zm0.25704 0.52089h7.6808c1.8443 0 3.3291 1.5342 3.3291 3.44v7.9368c0 1.9058-1.4847 3.44-3.3291 3.44h-7.6808c-1.8443 0-3.3291-1.5342-3.3291-3.44v-7.9368c0-1.9058 1.4847-3.44 3.3291-3.44z" color="#000000" color-rendering="auto" dominant-baseline="auto" enable-background="accumulate" image-rendering="auto" opacity=".01" solid-color="#000000" stop-color="#000000" style="font-feature-settings:normal;font-variant-alternates:normal;font-variant-caps:normal;font-variant-east-asian:normal;font-variant-ligatures:normal;font-variant-numeric:normal;font-variant-position:normal;font-variation-settings:normal;inline-size:0;isolation:auto;mix-blend-mode:normal;shape-margin:0;shape-padding:0;text-decoration-color:#000000;text-decoration-line:none;text-decoration-style:solid;text-indent:0;text-orientation:mixed;text-transform:none;white-space:normal"/>
  <path d="m4.3587 0.79373c-1.9668 0-3.5639 1.6528-3.5639 3.6876v8.4996c0 2.0348 1.5971 3.6876 3.5639 3.6876h8.2162c1.9668 0 3.5644-1.6528 3.5644-3.6876v-8.4996c0-2.0348-1.5976-3.6876-3.5644-3.6876zm0.27222 0.25631h7.6718c1.8422 0 3.3251 1.5342 3.3251 3.44v7.9368c0 1.9058-1.483 3.44-3.3251 3.44h-7.6718c-1.8422 0-3.3251-1.5342-3.3251-3.44v-7.9368c0-1.9058 1.483-3.44 3.3251-3.44z" color="#000000" color-rendering="auto" dominant-baseline="auto" enable-background="accumulate" image-rendering="auto" opacity=".01" solid-color="#000000" stop-color="#000000" style="font-feature-settings:normal;font-variant-alternates:normal;font-variant-caps:normal;font-variant-east-asian:normal;font-variant-ligatures:normal;font-variant-numeric:normal;font-variant-position:normal;font-variation-settings:normal;inline-size:0;isolation:auto;mix-blend-mode:normal;shape-margin:0;shape-padding:0;text-decoration-color:#000000;text-decoration-line:none;text-decoration-style:solid;text-indent:0;text-orientation:mixed;text-transform:none;white-space:normal"/>
  <g>
   <path d="m4.3097 1.0583c-1.8657 0-3.3751 1.5383-3.3751 3.439v8.4675c0 1.9007 1.57 3.439 3.4357 3.439h8.1996c1.8657 0 3.4274-1.5383 3.4274-3.439v-8.4675c0-1.9007-1.51-3.439-3.3756-3.439h-0.09688c1.794 0.086515 3.2138 1.5819 3.2138 3.4318v7.9368c0 1.9058-1.5059 3.44-3.3766 3.44h-7.7905c-1.8707 0-3.3766-1.5342-3.3766-3.44v-7.9368c0-1.8498 1.4199-3.3451 3.2138-3.4318z" color="#000000" color-rendering="auto" dominant-baseline="auto" enable-background="accumulate" image-rendering="auto" opacity=".03" solid-color="#000000" stop-color="#000000" style="font-feature-settings:normal;font-variant-alternates:normal;font-variant-caps:normal;font-variant-east-asian:normal;font-variant-ligatures:normal;font-variant-numeric:normal;font-variant-position:normal;font-variation-settings:normal;inline-size:0;isolation:auto;mix-blend-mode:normal;shape-margin:0;shape-padding:0;text-decoration-color:#000000;text-decoration-line:none;text-decoration-style:solid;text-indent:0;text-orientation:mixed;text-transform:none;white-space:normal"/>
   <path transform="scale(.26458)" d="m4 46.969v2.0312c0 6.6479 5.8957 12 12.544 12h30.961c6.6479 0 12.495-5.3521 12.495-12v-1.9922c-0.021173 7.1849-5.81 12.963-13 12.963h-29.998c-7.2032 0-13.002-5.7987-13.002-13.002z" color="#000000" color-rendering="auto" dominant-baseline="auto" enable-background="accumulate" image-rendering="auto" opacity=".03" solid-color="#000000" stop-color="#000000" style="font-feature-settings:normal;font-variant-alternates:normal;font-variant-caps:normal;font-variant-east-asian:normal;font-variant-ligatures:normal;font-variant-numeric:normal;font-variant-position:normal;font-variation-settings:normal;inline-size:0;isolation:auto;mix-blend-mode:normal;shape-margin:0;shape-padding:0;text-decoration-color:#000000;text-decoration-line:none;text-decoration-style:solid;text-indent:0;text-orientation:mixed;text-transform:none;white-space:normal"/>
   <path d="m1.0583 11.906v0.59234c0 1.9386 1.5729 3.4993 3.3318 3.4993h8.1603c1.7589 0 3.3243-1.5608 3.3243-3.4993v-0.58095c-0.0056 2.0952-1.5372 3.7801-3.4395 3.7801h-7.9368c-1.9058 0-3.44-1.691-3.44-3.7915z" color="#000000" color-rendering="auto" dominant-baseline="auto" enable-background="accumulate" image-rendering="auto" opacity=".05" solid-color="#000000" stop-color="#000000" style="font-feature-settings:normal;font-variant-alternates:normal;font-variant-caps:normal;font-variant-east-asian:normal;font-variant-ligatures:normal;font-variant-numeric:normal;font-variant-position:normal;font-variation-settings:normal;inline-size:0;isolation:auto;mix-blend-mode:normal;shape-margin:0;shape-padding:0;text-decoration-color:#000000;text-decoration-line:none;text-decoration-style:solid;text-indent:0;text-orientation:mixed;text-transform:none;white-space:normal"/>
  </g>
 </g>
 <rect x="4" y="4" width="56" height="56" rx="13.002" ry="13.002" fill="url(#linearGradient862-3)" stroke-width="3.7795"/>
 <path d="m36.097 17.243c-3.3072 0.42673-6.8611 2.0363-9.7522 6.7984-6.6104 10.882-6.141 14.669-7.1945 15.893-1.0575 1.2189-3.9073 1.8803-3.4952 3.2658 0.41206 1.3802 0.82813 1.2029 0.82813 1.2029s4.162 6.0276 16.232 4.4647c12.069-1.5629 13.742-4.11 13.633-5.3742-0.10935-1.2655-2.6564-2.1883-2.6564-2.1883s-1.8856-6.6464-1.4016-9.3748c0.48408-2.7298 2.323-6.7077 4.1406-7.5639 1.8123-0.86413 2.7191 2.8911 3.6566 1.9643 0.93214-0.92681-1.5736-8.0813-4.3447-8.1373-1.5522-0.03067-5.4128-1.4949-9.6468-0.94281m0.01066 9.1321 0.92148 2.7244 2.7978 0.79212-2.3644 1.6829 0.10402 2.8604-2.3644-1.6829-2.7871 0.97349 0.89614-2.6938-1.7976-2.2604 2.9378-0.02667m-7.7879 5.6369 0.09868 1.9736 1.7656 1.0575-1.907 0.68811-0.47874 1.9536-1.2975-1.5216-2.031 0.13069 1.0882-1.6456-0.77612-1.8496 1.9696 0.51075m9.4441-0.88547 1.891 2.5311 3.1938-0.12535-1.855 2.5631 1.0882 2.9178-3.0631-0.94815-2.5164 1.943-0.02134-3.1458-2.6511-1.7296 3.0365-0.99482" filter="url(#filter1012)" opacity=".35"/>
 <path d="m35.147 16.116c-3.3072 0.42673-6.8611 2.0363-9.7522 6.7984-6.6104 10.882-6.141 14.669-7.1945 15.893-1.0575 1.2189-3.9073 1.8803-3.4952 3.2658 0.41206 1.3802 0.82813 1.2029 0.82813 1.2029s4.162 6.0276 16.232 4.4647c12.069-1.5629 13.742-4.11 13.633-5.3742-0.10935-1.2655-2.6564-2.1883-2.6564-2.1883s-1.8856-6.6464-1.4016-9.3748c0.48408-2.7298 2.323-6.7077 4.1406-7.5639 1.8123-0.86413 2.7191 2.8911 3.6566 1.9643 0.93214-0.92681-1.5736-8.0813-4.3447-8.1373-1.5522-0.03067-5.4128-1.4949-9.6468-0.94281m0.01066 9.1321 0.92148 2.7244 2.7978 0.79212-2.3644 1.6829 0.10402 2.8604-2.3644-1.6829-2.7871 0.97349 0.89614-2.6938-1.7976-2.2604 2.9378-0.02667m-7.7879 5.6369 0.09868 1.9736 1.7656 1.0575-1.907 0.68811-0.47874 1.9536-1.2975-1.5216-2.031 0.13069 1.0882-1.6456-0.77612-1.8496 1.9696 0.51075m9.4441-0.88547 1.891 2.5311 3.1938-0.12535-1.855 2.5631 1.0882 2.9178-3.0631-0.94815-2.5164 1.943-0.02134-3.1458-2.6511-1.7296 3.0365-0.99482" fill="url(#linearGradient884)"/>
</svg>
