<?xml version="1.0" encoding="UTF-8" standalone="no"?>
<svg
   xmlns:dc="http://purl.org/dc/elements/1.1/"
   xmlns:cc="http://creativecommons.org/ns#"
   xmlns:rdf="http://www.w3.org/1999/02/22-rdf-syntax-ns#"
   xmlns:svg="http://www.w3.org/2000/svg"
   xmlns="http://www.w3.org/2000/svg"
   xmlns:xlink="http://www.w3.org/1999/xlink"
   xmlns:sodipodi="http://sodipodi.sourceforge.net/DTD/sodipodi-0.dtd"
   xmlns:inkscape="http://www.inkscape.org/namespaces/inkscape"
   width="64"
   height="64"
   version="1.1"
   viewBox="0 0 16.933 16.933"
   id="svg17"
   sodipodi:docname="distributor-logo-linux-mint.svg"
   inkscape:version="1.0 (4035a4fb49, 2020-05-01)">
  <metadata
     id="metadata21">
    <rdf:RDF>
      <cc:Work
         rdf:about="">
        <dc:format>image/svg+xml</dc:format>
        <dc:type
           rdf:resource="http://purl.org/dc/dcmitype/StillImage" />
        <dc:title></dc:title>
      </cc:Work>
    </rdf:RDF>
  </metadata>
  <sodipodi:namedview
     inkscape:document-rotation="0"
     pagecolor="#ffffff"
     bordercolor="#666666"
     borderopacity="1"
     objecttolerance="10"
     gridtolerance="10"
     guidetolerance="10"
     inkscape:pageopacity="0"
     inkscape:pageshadow="2"
     inkscape:window-width="1920"
     inkscape:window-height="964"
     id="namedview19"
     showgrid="false"
     inkscape:zoom="2.195898"
     inkscape:cx="28.129886"
     inkscape:cy="81.3479"
     inkscape:window-x="0"
     inkscape:window-y="36"
     inkscape:window-maximized="1"
     inkscape:current-layer="svg17" />
  <defs
     id="defs7">
    <linearGradient
       id="b"
       x1="45.628"
       x2="45.628"
       y1="57.955"
       y2="12.461"
       gradientTransform="matrix(0.26458,0,0,0.26458,0,280.07)"
       gradientUnits="userSpaceOnUse">
      <stop
         offset="0"
         id="stop2" />
      <stop
         stop-opacity="0"
         offset="1"
         id="stop4" />
    </linearGradient>
    <linearGradient
       gradientUnits="userSpaceOnUse"
       gradientTransform="matrix(0.53032038,0,0,0.53032038,12.404992,66.502693)"
       y2="-100.78"
       y1="-137.82"
       x2="-6.1472"
       x1="-6.1472"
       id="f-5">
      <stop
         id="stop848"
         offset="0"
         stop-color="#14dc78" />
      <stop
         id="stop850"
         offset="1"
         stop-color="#14a03c" />
    </linearGradient>
    <style
       id="style4"
       type="text/css" />
    <style
       id="style6"
       type="text/css" />
    <style
       id="style8"
       type="text/css" />
    <filter
       color-interpolation-filters="sRGB"
       height="1.048"
       width="1.048"
       y="-.024"
       x="-.024"
       id="filter2761">
      <feGaussianBlur
         id="feGaussianBlur10"
         stdDeviation="0.14552168" />
    </filter>
    <linearGradient
       gradientUnits="userSpaceOnUse"
       gradientTransform="matrix(3.7796,0,0,3.7796,111.78704,0.53107)"
       y2="1.17"
       y1="15.576"
       x2="15.65"
       x1="1.3315"
       id="linearGradient1024-6">
      <stop
         id="stop13"
         offset="0"
         stop-color="#00dc96" />
      <stop
         id="stop15"
         offset="1"
         stop-color="#14d29b" />
    </linearGradient>
    <linearGradient
       gradientUnits="userSpaceOnUse"
       gradientTransform="matrix(0.27476,0,0,0.27476,-24.952118,-0.32515)"
       y2="12.461"
       y1="57.955"
       x2="45.628"
       x1="45.628"
       id="b-3">
      <stop
         id="stop2-6"
         offset="0" />
      <stop
         id="stop4-7"
         offset="1"
         stop-opacity="0" />
    </linearGradient>
    <filter
       inkscape:collect="always"
       style="color-interpolation-filters:sRGB"
       id="filter1057"
       x="-0.027000001"
       width="1.054"
       y="-0.027000001"
       height="1.054">
      <feGaussianBlur
         inkscape:collect="always"
         stdDeviation="0.61875"
         id="feGaussianBlur1059" />
    </filter>
    <linearGradient
       inkscape:collect="always"
       xlink:href="#linearGradient1051"
       id="linearGradient1053"
       x1="-127"
       y1="60"
       x2="-72"
       y2="5"
       gradientUnits="userSpaceOnUse"
       gradientTransform="matrix(0.26457812,0,0,0.26457812,34.792023,-0.13493459)" />
    <linearGradient
       inkscape:collect="always"
       id="linearGradient1051">
      <stop
         style="stop-color:#02db96;stop-opacity:1"
         offset="0"
         id="stop1047" />
      <stop
         style="stop-color:#13d39b;stop-opacity:1"
         offset="1"
         id="stop1049" />
    </linearGradient>
    <style
       type="text/css"
       id="style872" />
    <style
       type="text/css"
       id="style874" />
    <style
       type="text/css"
       id="style876" />
    <filter
       id="filter2761-3"
       x="-.024"
       y="-.024"
       width="1.048"
       height="1.048"
       color-interpolation-filters="sRGB">
      <feGaussianBlur
         stdDeviation="0.14552168"
         id="feGaussianBlur878" />
    </filter>
    <linearGradient
       id="linearGradient1024-6-6"
       x1="1.3315"
       x2="15.65"
       y1="15.576"
       y2="1.17"
       gradientTransform="matrix(3.7796,0,0,3.7796,-0.0020773,0.53047)"
       gradientUnits="userSpaceOnUse">
      <stop
         stop-color="#00dc96"
         offset="0"
         id="stop881" />
      <stop
         stop-color="#14d29b"
         offset="1"
         id="stop883" />
    </linearGradient>
  </defs>
  <rect
     transform="scale(0.26457812)"
     ry="15"
     y="4.5"
     x="4.5"
     height="55"
     width="55"
     id="rect1055"
     style="opacity:0.3;fill:#141414;fill-opacity:1;stroke-width:2.74436;stroke-linecap:round;filter:url(#filter1057)" />
  <rect
     style="fill:url(#linearGradient1053);fill-opacity:1;stroke-width:0.726098;stroke-linecap:round"
     id="rect1045"
     width="14.551796"
     height="14.551796"
     x="1.1906021"
     y="1.1906021"
     ry="3.9686716" />
  <circle
     cx="-330.37869"
     cy="-328.50018"
     r="0"
     fill="#5e4aa6"
     id="circle855"
     style="stroke-width:0.264578" />
  <g
     fill="#5e4aa6"
     id="g867"
     transform="scale(0.26457812)">
    <circle
       cx="-149.14999"
       cy="23.855"
       r="0"
       fill-rule="evenodd"
       id="circle861" />
    <circle
       cx="-1150.9"
       cy="-1256.6"
       r="0"
       id="circle863" />
    <circle
       cx="-51.327"
       cy="8.8744001"
       r="0"
       fill-rule="evenodd"
       id="circle865" />
  </g>
  <path
     id="path896"
     overflow="visible"
     fill-rule="evenodd"
     fill="#ffffff"
     d="m 4.233,4.6715 v 2.426 h 0.999 v 0.487 l 10e-4,1.91 c 0,1.573 1.366,2.767 2.94,2.767 H 12.7 v -4.802 c 0,-1.575 -1.365,-2.767 -2.94,-2.767 L 8.443,4.6895 Z m 0.643,0.645 3.565,0.016 v 0.003 H 9.76 c 1.27,0 2.3,0.951 2.3,2.125 v 3.513 c 0,0.39 -0.352,0.645 -0.753,0.645 H 8.174 c -1.269,0 -2.298,-0.951 -2.298,-2.125 L 5.873,7.0855 A 0.635,0.635 0 0 0 5.276,6.4565 h -0.4 z m 1.615,0.714 v 3.49 c 0,0.37 0.135,0.695 0.399,0.957 0.225,0.223 0.496,0.367 0.8,0.4 h 0.861 v -0.685 l -0.74,-0.003 c -0.358,0 -0.666,-0.35 -0.666,-0.799 v -3.36 z m 2.468,0.574 c -0.298,0 -0.562,0.11 -0.775,0.325 a 1.087,1.087 0 0 0 -0.323,0.784 v 1.526 h 0.692 v -1.526 c 0,-0.116 0.038,-0.207 0.12,-0.29 a 0.375,0.375 0 0 1 0.286,-0.122 c 0.116,0 0.203,0.038 0.286,0.122 0.083,0.083 0.12,0.174 0.12,0.29 v 1.526 h 0.693 v -1.526 c 0,-0.116 0.038,-0.207 0.12,-0.29 a 0.374,0.374 0 0 1 0.286,-0.122 c 0.114,0 0.202,0.038 0.285,0.122 0.083,0.083 0.12,0.174 0.12,0.29 l 0.005,1.518 h 0.69 l -0.002,-1.518 c 0,-0.302 -0.11,-0.57 -0.323,-0.784 a 1.062,1.062 0 0 0 -0.775,-0.325 c -0.292,0 -0.547,0.108 -0.753,0.307 A 1.057,1.057 0 0 0 8.959,6.6045 Z" />
  <g
     transform="matrix(0.26457812,0,0,0.26457812,-17.633134,2.4475833e-8)"
     fill="#5e4aa6"
     id="g64">
    <circle
       cx="-1248.7"
       cy="-1241.6"
       r="0"
       id="circle20" />
    <circle
       cx="-149.14999"
       cy="23.855"
       r="0"
       fill-rule="evenodd"
       id="circle22" />
    <circle
       cx="-1248.7"
       cy="-1241.6"
       r="0"
       id="circle24" />
    <circle
       cx="-149.14999"
       cy="23.855"
       r="0"
       fill-rule="evenodd"
       id="circle26" />
    <circle
       cx="-1150.9"
       cy="-1256.6"
       r="0"
       id="circle28" />
    <circle
       cx="-51.327"
       cy="8.8744001"
       r="0"
       fill-rule="evenodd"
       id="circle30" />
    <g
       transform="matrix(3.7796,0,0,3.7796,167.86,4.61)"
       stroke-width="0.26458"
       id="g62">
      <g
         transform="translate(-0.0272,0.0065001)"
         id="g40">
        <circle
           cx="-330.35001"
           cy="-328.38"
           r="0"
           id="circle32" />
        <circle
           cx="-312.10999"
           cy="-326.25"
           r="0"
           id="circle34" />
        <circle
           cx="-306.01999"
           cy="-333.07001"
           r="0"
           id="circle36" />
        <circle
           cx="-308.84"
           cy="-326.01001"
           r="0"
           id="circle38" />
      </g>
      <g
         transform="translate(-0.0272,0.0065001)"
         id="g50">
        <circle
           cx="-330.35001"
           cy="-328.38"
           r="0"
           id="circle42" />
        <circle
           cx="-312.10999"
           cy="-326.25"
           r="0"
           id="circle44" />
        <circle
           cx="-306.01999"
           cy="-333.07001"
           r="0"
           id="circle46" />
        <circle
           cx="-308.84"
           cy="-326.01001"
           r="0"
           id="circle48" />
      </g>
      <g
         transform="translate(-0.02705,0.0064503)"
         id="g60">
        <circle
           cx="-330.35001"
           cy="-328.38"
           r="0"
           id="circle52" />
        <circle
           cx="-312.10999"
           cy="-326.25"
           r="0"
           id="circle54" />
        <circle
           cx="-306.01999"
           cy="-333.07001"
           r="0"
           id="circle56" />
        <circle
           cx="-308.84"
           cy="-326.01001"
           r="0"
           id="circle58" />
      </g>
    </g>
  </g>
</svg>
