<?xml version="1.0" encoding="UTF-8"?>
<svg width="64" height="64" version="1.1" viewBox="0 0 64 64" xmlns="http://www.w3.org/2000/svg" xmlns:xlink="http://www.w3.org/1999/xlink">
 <defs>
  <filter id="filter1057-1" x="-.027" y="-.027" width="1.054" height="1.054" color-interpolation-filters="sRGB">
   <feGaussianBlur stdDeviation="0.61875"/>
  </filter>
  <linearGradient id="linearGradient1053-2" x1="-127" x2="-80.659" y1="60" y2="13.659" gradientTransform="translate(200.73 33.671)" gradientUnits="userSpaceOnUse">
   <stop stop-color="#ff7d1e" offset="0"/>
   <stop stop-color="#ffa53c" offset="1"/>
  </linearGradient>
 </defs>
 <g transform="translate(-69.228 -34.181)">
  <path d="m101.23 48.181a18 18 0 1 0 0 36 18 18 0 0 0 0-36zm6.4159 5.017a2.398 2.398 0 0 1 1.7858 3.5843 2.4023 2.4023 0 1 1-1.7858-3.5843zm-6.42 2.5426c0.96939 0 1.9048 0.13181 2.7934 0.37841a3.3717 3.3717 0 0 0 4.5196 2.6191c1.7772 1.7475 2.9337 4.1243 3.1038 6.773l-3.4227 0.04677a7.0199 7.0199 0 0 0-9.949-5.7401l-1.671-2.9975a10.404 10.404 0 0 1 4.6304-1.0799zm-5.7911 1.7517 1.7602 2.9465a7.0112 7.0112 0 0 0 0 11.484l-1.7602 2.9422a10.451 10.451 0 0 1-4.3114-6.0674 3.3632 3.3632 0 0 0 0-5.234 10.459 10.459 0 0 1 4.3114-6.0716zm-6.4457 6.2843a2.4044 2.4044 0 1 1 0 4.8088 2.4023 2.4023 0 0 1 0-4.8046zm19.231 3.023 3.4227 0.05527a10.408 10.408 0 0 1-3.1038 6.7689 3.3589 3.3589 0 0 0-4.5196 2.6149 10.434 10.434 0 0 1-7.4194-0.6973l1.671-2.9933a7.0153 7.0153 0 0 0 9.949-5.7484zm-1.1693 7.5936a2.4075 2.4075 0 1 1 0.58674 4.7789 2.4075 2.4075 0 0 1-0.58674-4.7789z" fill="#fff" stroke-width="4.2517"/>
  <rect x="73.728" y="38.681" width="55" height="55" ry="15" fill="#141414" filter="url(#filter1057-1)" opacity=".3" stroke-linecap="round" stroke-width="2.7444"/>
  <rect x="73.728" y="38.681" width="55" height="55" ry="15" fill="url(#linearGradient1053-2)" stroke-linecap="round" stroke-width="2.7444"/>
  <path d="m110.01 48.604c-0.16078-0.01062-0.31922-0.0082-0.47535 0.0021-1.0408 0.07348-2.0047 0.65009-2.566 1.6221-0.89485 1.5536-0.35917 3.5277 1.1976 4.4258 1.5536 0.89483 3.531 0.3747 4.4258-1.1838 0.89801-1.5488 0.38372-3.5595-1.1699-4.4558-0.43784-0.25183-0.92993-0.38055-1.4122-0.41074zm-8.5263 3.4429c-2.2459 0-4.3464 0.5305-6.2303 1.4652l2.2568 4.0751c1.2155-0.56757 2.5476-0.90223 3.9736-0.90223 4.964 0 9.061 3.7985 9.4885 8.6555l4.6081-0.0577c-0.22972-3.5794-1.7958-6.7992-4.1997-9.1632-1.2378 0.46431-2.6436 0.39314-3.8766-0.32306-1.233-0.71301-2.013-1.9047-2.2268-3.2144-1.2027-0.33022-2.4872-0.53534-3.7935-0.53534zm-7.8225 2.3813c-2.8456 1.8998-4.9413 4.8154-5.8218 8.2194 1.0304 0.83742 1.6499 2.0895 1.6499 3.5236 0 1.4244-0.61784 2.723-1.6499 3.5652 0.88053 3.4023 2.9762 6.3058 5.8218 8.2055l2.3806-4.0039c-2.442-1.7163-4.0312-4.5546-4.0312-7.7671 0-3.2158 1.5892-6.0507 4.0312-7.7671zm-8.727 8.5009c-1.7977 0-3.242 1.4443-3.242 3.242 0 1.7913 1.4443 3.242 3.242 3.242 1.7992 0 3.2582-1.4507 3.2582-3.242 0-1.7977-1.459-3.242-3.2582-3.242zm26.038 4.1028c-0.42748 4.8491-4.5245 8.6555-9.4885 8.6555-1.4276 0-2.7581-0.32047-3.9736-0.88839l-2.2568 4.0451c1.8838 0.93795 3.9844 1.4514 6.2303 1.4514 1.3064 0 2.5908-0.17435 3.7935-0.50765 0.21374-1.308 0.99217-2.4959 2.2268-3.2121 1.2362-0.71289 2.6389-0.78209 3.8766-0.31152 2.4039-2.3672 3.9698-5.5806 4.1997-9.1632zm-1.4238 10.248c-0.47041 0.04006-0.94523 0.19654-1.3822 0.44997-1.5567 0.89176-2.0925 2.8616-1.1976 4.412 0.89809 1.5585 2.8983 2.0809 4.4535 1.1861 1.5555-0.89648 2.0679-2.8745 1.1699-4.4281-0.56128-0.97198-1.5388-1.5466-2.5798-1.6199-0.15632-0.01285-0.30717-0.01285-0.4638 0z" fill="#fff" fill-opacity=".85" stroke-width="1.0321"/>
 </g>
</svg>
