<?xml version="1.0" encoding="UTF-8"?>
<!-- Created with Inkscape (http://www.inkscape.org/) -->
<svg width="64" height="64" version="1.1" viewBox="0 0 16.933 16.933" xmlns="http://www.w3.org/2000/svg" xmlns:xlink="http://www.w3.org/1999/xlink">
 <defs>
  <filter id="filter1057" x="-.027" y="-.027" width="1.054" height="1.054" color-interpolation-filters="sRGB">
   <feGaussianBlur stdDeviation="0.61875"/>
  </filter>
  <linearGradient id="linearGradient1053" x1="-127" x2="-72" y1="60" y2="5" gradientTransform="matrix(.26458 0 0 .26458 38.497 1.6188)" gradientUnits="userSpaceOnUse">
   <stop stop-color="#df2a2a" offset="0"/>
   <stop stop-color="#f83f3f" offset="1"/>
  </linearGradient>
 </defs>
 <g transform="translate(-3.7048 -1.7537)">
  <rect transform="matrix(.26458 0 0 .26458 3.7048 1.7537)" x="4.5" y="4.5" width="55" height="55" ry="15" fill="#141414" filter="url(#filter1057)" opacity=".3" stroke-linecap="round" stroke-width="2.7444"/>
  <rect x="4.8954" y="2.9443" width="14.552" height="14.552" ry="3.9687" fill="url(#linearGradient1053)" stroke-linecap="round" stroke-width=".7261"/>
  <g fill="#f9f9f9" stroke-width=".44109">
   <path d="m13.032 10.52c-0.18261 0.0018 0.03441 0.08954 0.27215 0.12571 0.06528-0.04984 0.12395-0.10013 0.17732-0.14821-0.14821 0.03441-0.29818 0.03617-0.44991 0.0225"/>
   <path d="m14.01 10.287c0.10498-0.14468 0.18614-0.30171 0.21172-0.46535-0.02426 0.11557-0.08954 0.21702-0.15174 0.322-0.34096 0.20687-0.03264-0.12218 0-0.24657-0.36699 0.44109-0.05161 0.26554-0.06396 0.38948"/>
   <path d="m14.369 9.3823c0.02073-0.31538-0.06528-0.21525-0.09483-0.094835 0.0344 0.015438 0.06219 0.22231 0.09483 0.094835"/>
   <path d="m12.341 5.0636c0.09836 0.017203 0.2104 0.029112 0.19452 0.051608 0.10674-0.022494 0.131-0.043227-0.19452-0.051608"/>
   <path d="m12.536 5.1152-0.06881 0.015438 0.06396-0.00706 0.0053-0.00882"/>
   <path d="m15.563 9.5001c0.01191 0.2845-0.08601 0.42213-0.17247 0.66517l-0.15659 0.07587c-0.12924 0.24128 0.01191 0.1535-0.08116 0.34449-0.19982 0.17247-0.60827 0.53946-0.73927 0.5721-0.0966-0.0018 0.06396-0.10851 0.08425-0.14997-0.26862 0.17732-0.21525 0.26686-0.62723 0.37581l-0.01191-0.02602c-1.0132 0.46006-2.4225-0.45124-2.4035-1.6956-0.01191 0.079397-0.03088 0.058665-0.05337 0.091306-0.05337-0.64091 0.30656-1.2836 0.9113-1.5456 0.59283-0.28274 1.2871-0.16717 1.711 0.21349-0.23246-0.29289-0.69604-0.60474-1.2456-0.57563-0.53946 0.00706-1.0423 0.33788-1.2112 0.69428-0.27568 0.16717-0.30656 0.6462-0.42742 0.73221-0.16188 1.146 0.30347 1.6422 1.0926 2.2231 0.12395 0.0794 0.0344 0.09131 0.05161 0.1535-0.26201-0.1191-0.50329-0.29641-0.69957-0.5152 0.10498 0.14821 0.21702 0.29112 0.36346 0.40492-0.24657-0.08116-0.57739-0.57739-0.67355-0.59768 0.42565 0.73574 1.7264 1.2889 2.4088 1.0132-0.31538 0.01191-0.71678 0.0071-1.0701-0.1191-0.14997-0.0741-0.35155-0.2276-0.31538-0.25495 0.9285 0.33435 1.8901 0.25319 2.6946-0.36875 0.20334-0.1535 0.42742-0.41507 0.4927-0.4186-0.10145 0.14115 0.01544 0.06705-0.05866 0.1932 0.20334-0.31714-0.08778-0.12924 0.2104-0.54784l0.11204 0.14644c-0.04146-0.26377 0.33788-0.58224 0.29994-0.99952 0.08778-0.12748 0.0966 0.13806 0.0053 0.43095 0.12748-0.32553 0.03264-0.37713 0.06528-0.6462 0.03617 0.091306 0.08293 0.18614 0.10674 0.28098-0.08292-0.31362 0.08601-0.52887 0.12748-0.70972-0.04146-0.018968-0.12924 0.13806-0.14821-0.23246 0.0018-0.16188 0.04631-0.082925 0.0622-0.12395-0.03264-0.018968-0.1191-0.13806-0.1707-0.37581 0.03793-0.055136 0.10145 0.14468 0.1535 0.1535-0.03264-0.18791-0.09131-0.33258-0.09307-0.47726-0.15174-0.30347-0.05337 0.041463-0.17555-0.12924-0.16012-0.48432 0.13277-0.11204 0.1535-0.33258 0.24304 0.34096 0.38243 0.86675 0.44638 1.0855-0.04808-0.26554-0.12748-0.52402-0.22408-0.77368 0.0741 0.030876-0.11909-0.54607 0.0966-0.16365-0.22937-0.8169-0.98364-1.5782-1.6766-1.9351 0.08425 0.074103 0.19143 0.16894 0.1535 0.18261-0.34449-0.19629-0.2845-0.21172-0.33435-0.29641-0.28098-0.11027-0.29994 0.00882-0.48608 0-0.52887-0.27039-0.63076-0.24128-1.1182-0.41507l0.0225 0.10145c-0.35155-0.11204-0.40845 0.043227-0.78911 0-0.0225-0.017203 0.12218-0.063958 0.24128-0.081161-0.33964 0.044992-0.32376-0.063958-0.65458 0.011909 0.08116-0.055136 0.16717-0.091306 0.25495-0.13938-0.27745 0.017203-0.65987 0.15659-0.54122 0.029112-0.45126 0.19452-1.2527 0.46711-1.7022 0.87336l-0.015438-0.091306c-0.20511 0.23775-0.89762 0.71148-0.95276 1.0216l-0.055136 0.011909c-0.10674 0.17423-0.17732 0.37228-0.26201 0.55313-0.13939 0.23069-0.20511 0.087778-0.18614 0.12395-0.27568 0.53946-0.41198 0.99246-0.53063 1.3647 0.084249 0.12042 0.00177 0.73221 0.034405 1.2201-0.13939 2.4123 1.7555 4.7519 3.8252 5.2931 0.3048 0.10498 0.75471 0.10145 1.1389 0.11204-0.45124-0.12571-0.51167-0.06705-0.95276-0.21525-0.31714-0.14468-0.38772-0.30832-0.61356-0.49799l0.08954 0.15174c-0.44109-0.14997-0.25672-0.18614-0.61665-0.29641l0.0966-0.1191c-0.14291-0.010144-0.38066-0.23246-0.4455-0.35684l-0.15659 0.0071c-0.18791-0.22588-0.28936-0.386-0.28098-0.51171l-0.051607 0.08778c-0.056902-0.096602-0.69252-0.84072-0.3617-0.66693-0.062194-0.055136-0.14291-0.087777-0.23246-0.24304l0.067046-0.0741c-0.15835-0.19629-0.29112-0.44992-0.28098-0.5324 0.084249 0.11027 0.14291 0.12924 0.20158 0.14821-0.40139-0.95805-0.42389-0.051608-0.72692-0.97526l0.063959-0.0053c-0.048079-0.07057-0.077632-0.14821-0.1191-0.22408l0.029112-0.26862c-0.28936-0.32199-0.081161-1.3683-0.039698-1.9399 0.029112-0.23422 0.24128-0.48255 0.40139-0.87204l-0.098364-0.015438c0.18791-0.31538 1.0719-1.2681 1.4785-1.2201 0.19805-0.23951-0.0397 0-0.07763-0.06043 0.43404-0.4358 0.5721-0.30832 0.86675-0.38596 0.32067-0.18085-0.27215 0.070575-0.1191-0.06881 0.54431-0.13453 0.38772-0.30656 1.1027-0.37581 0.07587 0.041462-0.17556 0.063958-0.23775 0.11733 0.45653-0.21525 1.4424-0.16541 2.085 0.12042 0.74589 0.33611 1.5818 1.3277 1.6144 2.2606l0.03793 0.00882c-0.01897 0.37405 0.05867 0.80102-0.07587 1.194l0.09131-0.18614"/>
   <path d="m11.045 10.763-0.02602 0.12218c0.1191 0.15659 0.21349 0.32729 0.36699 0.44991-0.11027-0.20687-0.19143-0.29289-0.34096-0.5721"/>
   <path d="m11.328 10.75c-0.06219-0.06705-0.10013-0.14821-0.14291-0.22937 0.04146 0.14115 0.12218 0.26377 0.19981 0.38772l-0.0569-0.15835"/>
   <path d="m16.332 9.7017-0.02779 0.063958c-0.04984 0.33611-0.15526 0.6687-0.31714 0.97702 0.17908-0.32553 0.29465-0.6806 0.34273-1.0423"/>
   <path d="m12.378 4.9802c0.12395-0.043227 0.30347-0.022496 0.43404-0.051608-0.1707 0.013673-0.33964 0.022495-0.50637 0.043227l0.07234 0.00882"/>
   <path d="m8.0597 7.1945c0.027789 0.25319-0.19805 0.35155 0.048079 0.18438 0.13277-0.28759-0.051608-0.079397-0.048079-0.18438"/>
   <path d="m7.7686 8.3647c0.058665-0.16894 0.06881-0.27039 0.089542-0.36699-0.15659 0.1932-0.072339 0.23422-0.089542 0.36699"/>
  </g>
 </g>
</svg>
