<?xml version="1.0" encoding="UTF-8" standalone="no"?>
<svg
   xmlns:dc="http://purl.org/dc/elements/1.1/"
   xmlns:cc="http://creativecommons.org/ns#"
   xmlns:rdf="http://www.w3.org/1999/02/22-rdf-syntax-ns#"
   xmlns:svg="http://www.w3.org/2000/svg"
   xmlns="http://www.w3.org/2000/svg"
   xmlns:xlink="http://www.w3.org/1999/xlink"
   xmlns:sodipodi="http://sodipodi.sourceforge.net/DTD/sodipodi-0.dtd"
   xmlns:inkscape="http://www.inkscape.org/namespaces/inkscape"
   width="64"
   height="64"
   version="1.1"
   viewBox="0 0 16.933 16.933"
   id="svg19"
   sodipodi:docname="distributor-logo-elementary.svg"
   inkscape:version="1.0 (4035a4fb49, 2020-05-01)">
  <metadata
     id="metadata23">
    <rdf:RDF>
      <cc:Work
         rdf:about="">
        <dc:format>image/svg+xml</dc:format>
        <dc:type
           rdf:resource="http://purl.org/dc/dcmitype/StillImage" />
        <dc:title></dc:title>
      </cc:Work>
    </rdf:RDF>
  </metadata>
  <sodipodi:namedview
     inkscape:document-rotation="0"
     pagecolor="#ffffff"
     bordercolor="#666666"
     borderopacity="1"
     objecttolerance="10"
     gridtolerance="10"
     guidetolerance="10"
     inkscape:pageopacity="0"
     inkscape:pageshadow="2"
     inkscape:window-width="1920"
     inkscape:window-height="964"
     id="namedview21"
     showgrid="false"
     inkscape:zoom="6.2109375"
     inkscape:cx="-25.0326"
     inkscape:cy="30.798738"
     inkscape:window-x="0"
     inkscape:window-y="36"
     inkscape:window-maximized="1"
     inkscape:current-layer="svg19" />
  <defs
     id="defs7">
    <linearGradient
       id="b"
       x1="45.628"
       x2="45.628"
       y1="57.955"
       y2="12.461"
       gradientUnits="userSpaceOnUse">
      <stop
         offset="0"
         id="stop2" />
      <stop
         stop-opacity="0"
         offset="1"
         id="stop4" />
    </linearGradient>
    <linearGradient
       gradientUnits="userSpaceOnUse"
       gradientTransform="matrix(0.56696445,0,0,0.56696445,-218.63929,-293.15252)"
       y2="517.8"
       y1="545.8"
       x2="399.57"
       x1="399.57"
       id="b-3">
      <stop
         id="stop850"
         offset="0"
         stop-color="#3889e9" />
      <stop
         id="stop852"
         offset="1"
         stop-color="#5ea5fb" />
    </linearGradient>
    <linearGradient
       gradientUnits="userSpaceOnUse"
       gradientTransform="matrix(0.26457812,0,0,0.26457812,-31.030853,-6.0244504)"
       y2="1.6692"
       y1="61.873"
       x2="32.431"
       x1="32.431"
       id="linearGradient1001">
      <stop
         id="stop855"
         offset="0"
         stop-color="#1d2123" />
      <stop
         id="stop857"
         offset="1"
         stop-color="#33393e" />
    </linearGradient>
    <linearGradient
       id="linearGradient1057">
      <stop
         id="stop4-3"
         offset="0"
         stop-color="#fff" />
      <stop
         id="stop6"
         offset="1"
         stop-opacity="0"
         stop-color="#fff" />
    </linearGradient>
    <linearGradient
       gradientUnits="userSpaceOnUse"
       gradientTransform="matrix(1.5625,0,0,1.5625,0.40633,-5.1891)"
       y2="52.847"
       y1="27.545"
       x2="34.999"
       x1="34.999"
       id="linearGradient982">
      <stop
         id="stop9"
         offset="0"
         stop-color="#32b4ff" />
      <stop
         id="stop11"
         offset="1"
         stop-color="#3287ff" />
    </linearGradient>
    <style
       id="style14"
       type="text/css" />
    <style
       id="style16"
       type="text/css" />
    <linearGradient
       gradientUnits="userSpaceOnUse"
       gradientTransform="matrix(1.5625,0,0,1.5625,-9.2253,1.3231)"
       y2="43.681"
       y1="18.052"
       x2="21.314"
       x1="21.314"
       id="linearGradient1047">
      <stop
         id="stop18"
         offset="0"
         stop-color="#14dc78" />
      <stop
         id="stop20"
         offset="1"
         stop-color="#14a03c" />
    </linearGradient>
    <linearGradient
       gradientUnits="userSpaceOnUse"
       gradientTransform="matrix(1.5625,0,0,1.5625,-8.1072,-10.908)"
       y2="37.368"
       y1="12.316"
       x2="41.729"
       x1="41.729"
       id="linearGradient1049">
      <stop
         id="stop23"
         offset="0"
         stop-color="#ff3c64" />
      <stop
         id="stop25"
         offset="1"
         stop-color="#ff4628" />
    </linearGradient>
    <linearGradient
       xlink:href="#linearGradient1057"
       gradientUnits="userSpaceOnUse"
       gradientTransform="matrix(1,0,0,1.2271,0.20646,-10.975)"
       y2="39.768"
       y1="32.234"
       x2="34.427"
       x1="34.427"
       id="linearGradient1059" />
    <linearGradient
       xlink:href="#linearGradient1057"
       gradientUnits="userSpaceOnUse"
       gradientTransform="matrix(1,0,0,1.2271,-12.55,-19.793)"
       y2="39.768"
       y1="32.234"
       x2="34.427"
       x1="34.427"
       id="linearGradient1063" />
    <linearGradient
       xlink:href="#linearGradient1057"
       gradientUnits="userSpaceOnUse"
       gradientTransform="matrix(1,0,0,1.2271,5.7554,-25.761)"
       y2="39.768"
       y1="32.234"
       x2="34.427"
       x1="34.427"
       id="linearGradient1067" />
    <filter
       color-interpolation-filters="sRGB"
       height="1.048"
       width="1.048"
       y="-.024"
       x="-.024"
       id="filter2761">
      <feGaussianBlur
         id="feGaussianBlur31"
         stdDeviation="0.14552168" />
    </filter>
    <linearGradient
       gradientUnits="userSpaceOnUse"
       gradientTransform="matrix(3.7796,0,0,3.7796,72.4059,0.53085)"
       y2="1.17"
       y1="15.576"
       x2="15.65"
       x1="1.3315"
       id="linearGradient1024">
      <stop
         id="stop34"
         offset="0"
         stop-color="#dddfe1" />
      <stop
         id="stop36"
         offset="1"
         stop-opacity=".99608"
         stop-color="#f3f4f6" />
    </linearGradient>
    <filter
       color-interpolation-filters="sRGB"
       height="1.048"
       width="1.048"
       y="-.024"
       x="-.024"
       id="filter2761-3">
      <feGaussianBlur
         id="feGaussianBlur2"
         stdDeviation="0.14552168" />
    </filter>
    <linearGradient
       gradientUnits="userSpaceOnUse"
       gradientTransform="translate(0 -.07421)"
       y2="1.17"
       y1="15.576"
       x2="15.65"
       x1="1.3315"
       id="linearGradient1024-6">
      <stop
         id="stop5"
         offset="0"
         stop-color="#dddfe1" />
      <stop
         id="stop7"
         offset="1"
         stop-opacity=".99608"
         stop-color="#f3f4f6" />
    </linearGradient>
    <filter
       inkscape:collect="always"
       style="color-interpolation-filters:sRGB"
       id="filter1057"
       x="-0.027000001"
       width="1.054"
       y="-0.027000001"
       height="1.054">
      <feGaussianBlur
         inkscape:collect="always"
         stdDeviation="0.61875"
         id="feGaussianBlur1059" />
    </filter>
    <linearGradient
       inkscape:collect="always"
       xlink:href="#linearGradient1051"
       id="linearGradient1053"
       x1="-127"
       y1="60"
       x2="-72"
       y2="5"
       gradientUnits="userSpaceOnUse"
       gradientTransform="matrix(0.26457812,0,0,0.26457812,34.792022,-0.13493467)" />
    <linearGradient
       inkscape:collect="always"
       id="linearGradient1051">
      <stop
         style="stop-color:#1d2123;stop-opacity:1"
         offset="0"
         id="stop1047" />
      <stop
         style="stop-color:#33393e;stop-opacity:0.99607843"
         offset="1"
         id="stop1049" />
    </linearGradient>
  </defs>
  <rect
     transform="scale(0.26457812)"
     ry="15"
     y="4.5"
     x="4.5"
     height="55"
     width="55"
     id="rect1055"
     style="opacity:0.3;fill:#141414;fill-opacity:1;stroke-width:2.74436;stroke-linecap:round;filter:url(#filter1057)" />
  <rect
     style="fill:url(#linearGradient1053);fill-opacity:1;stroke-width:0.726098;stroke-linecap:round"
     id="rect1045"
     width="14.551796"
     height="14.551796"
     x="1.1906021"
     y="1.1906021"
     ry="3.9686716" />
  <g
     transform="translate(1.3258376e-4,1.1081785e-5)"
     fill="#5e4aa6"
     stroke-width="0.26458"
     id="g884">
    <circle
       cx="-330.35001"
       cy="-328.37"
       r="0"
       image-rendering="optimizeSpeed"
       id="circle862" />
    <circle
       cx="-330.35001"
       cy="-328.38"
       r="0"
       image-rendering="optimizeSpeed"
       id="circle864" />
    <circle
       cx="-330.35001"
       cy="-328.38"
       r="0"
       image-rendering="optimizeSpeed"
       id="circle866" />
    <circle
       cx="-352.63"
       cy="-336.84"
       r="0"
       image-rendering="optimizeSpeed"
       id="circle868" />
    <circle
       cx="-330.35001"
       cy="-328.37"
       r="0"
       image-rendering="optimizeSpeed"
       id="circle870" />
    <circle
       cx="-305.84"
       cy="-328.26999"
       r="0"
       image-rendering="optimizeSpeed"
       id="circle872" />
    <circle
       cx="-305.84"
       cy="-328.28"
       r="0"
       image-rendering="optimizeSpeed"
       id="circle874" />
    <circle
       cx="-305.84"
       cy="-328.28"
       r="0"
       image-rendering="optimizeSpeed"
       id="circle876" />
    <circle
       cx="-328.12"
       cy="-336.73999"
       r="0"
       image-rendering="optimizeSpeed"
       id="circle878" />
    <circle
       cx="-305.84"
       cy="-328.26999"
       r="0"
       image-rendering="optimizeSpeed"
       id="circle880" />
    <circle
       cx="-305.03"
       cy="-328.69"
       r="0"
       id="circle882" />
  </g>
  <circle
     cx="8.4690132"
     cy="8.3458939"
     r="7.9376082"
     fill-opacity="0"
     stroke-width="0.415785"
     id="circle890" />
  <circle
     cx="8.4690132"
     cy="8.3458939"
     r="0"
     fill="url(#b)"
     stroke-width="0.415785"
     id="circle892"
     style="fill:url(#b-3)" />
  <path
     id="path15"
     stroke-width="1.42617"
     fill="#ffffff"
     d="m 8.4678609,3.836383 a 4.6301172,4.6301172 0 1 0 0,9.260234 4.6301172,4.6301172 0 0 0 0,-9.260234 z m 0,0.386071 a 4.2456868,4.2456868 0 0 1 4.0849151,3.090755 7.3637839,7.3637839 0 0 1 -1.799112,2.345955 c -0.360916,0.311701 -0.753549,0.59059 -1.1877429,0.78636 -0.4352868,0.19577 -0.9132273,0.306232 -1.3889805,0.27889 A 2.4028269,2.4028269 0 0 1 7.1532511,10.431306 7.7225128,7.7225128 0 0 0 9.3449966,8.6639104 C 9.7474727,8.1936257 10.09964,7.6577199 10.234163,7.0529118 A 2.1873708,2.1873708 0 0 0 10.250568,6.130935 1.7039619,1.7039619 0 0 0 9.8349677,5.3128583 1.668964,1.668964 0 0 0 9.0639195,4.8556978 2.0276928,2.0276928 0 0 0 8.1638164,4.8228873 C 7.5677578,4.9322558 7.0373204,5.2778604 6.6107831,5.7076788 5.8583275,6.4645091 5.3935112,7.5341334 5.4788187,8.5971956 5.5225661,9.1287268 5.6997431,9.651508 6.005975,10.088983 c 0.067808,0.09734 0.1421792,0.190301 0.2231119,0.278889 A 6.9427151,6.9427151 0 0 1 4.8565117,10.695978 4.2434994,4.2434994 0 0 1 8.4678609,4.2213603 Z m 0.026249,0.8574493 c 0.2985761,0 0.5993396,0.090776 0.8366693,0.2701403 0.2154561,0.1618655 0.3740405,0.3937268 0.4637235,0.6452744 0.09078,0.253735 0.113742,0.5293438 0.08312,0.796203 -0.06234,0.5337185 -0.3313864,1.0236896 -0.656211,1.4513206 A 6.2591617,6.2591617 0 0 1 6.760618,10.156791 2.1917456,2.1917456 0 0 1 6.2958017,9.5869809 C 6.0431604,9.1385699 5.9600403,8.6059451 6.0092561,8.0941003 6.0573783,7.5822556 6.2334616,7.0879098 6.4696977,6.6307493 6.743119,6.1003118 7.1171594,5.5983102 7.6399411,5.3106709 7.9002382,5.1663045 8.1966269,5.0788096 8.4941099,5.0799033 Z M 12.673082,7.8983307 A 4.2434994,4.2434994 0 0 1 5.1955542,11.170637 c 0.4812215,-0.109368 0.9515063,-0.265765 1.401011,-0.46591 0.1968634,0.150929 0.4156004,0.273422 0.6452744,0.36201 0.6671481,0.255923 1.421791,0.218737 2.0965949,-0.01531 C 10.012145,10.818472 10.610391,10.39959 11.132079,9.9129 a 7.7170443,7.7170443 0 0 0 1.542096,-2.0145683 z" />
  <circle
     style="stroke-width:0.264578"
     cx="-349.92087"
     cy="-328.50018"
     r="0"
     fill="#5e4aa6"
     id="circle41" />
  <circle
     style="stroke-width:0.264578"
     cx="-59.003998"
     cy="6.311511"
     r="0"
     fill="#5e4aa6"
     fill-rule="evenodd"
     id="circle43" />
</svg>
