<?xml version="1.0" encoding="UTF-8"?>
<!-- Created with Inkscape (http://www.inkscape.org/) -->
<svg width="64" height="64" version="1.1" viewBox="0 0 16.933 16.933" xmlns="http://www.w3.org/2000/svg" xmlns:xlink="http://www.w3.org/1999/xlink">
 <defs>
  <filter id="filter1057" x="-.027" y="-.027" width="1.054" height="1.054" color-interpolation-filters="sRGB">
   <feGaussianBlur stdDeviation="0.61875"/>
  </filter>
  <linearGradient id="linearGradient1053" x1="-127" x2="-72" y1="60" y2="5" gradientTransform="matrix(.26458 0 0 .26458 48.729 3.5198)" gradientUnits="userSpaceOnUse">
   <stop stop-color="#32d7ff" offset="0"/>
   <stop stop-color="#329bff" offset="1"/>
  </linearGradient>
 </defs>
 <g transform="translate(-13.936 -3.6548)">
  <rect transform="matrix(.26458 0 0 .26458 13.936 3.6548)" x="4.5" y="4.5" width="55" height="55" ry="15" fill="#141414" filter="url(#filter1057)" opacity=".3" stroke-linecap="round" stroke-width="2.7444"/>
  <rect x="15.127" y="4.8454" width="14.552" height="14.552" ry="3.9687" fill="url(#linearGradient1053)" stroke-linecap="round" stroke-width=".72611"/>
  <path d="m22.403 7.3589c-0.42447 1.0382-0.68034 1.7185-1.1512 2.7273 0.2884 0.30546 0.64305 0.66328 1.221 1.0663-0.62124-0.25429-1.0429-0.51135-1.3591-0.77634-0.60418 1.2599-1.5511 3.0542-3.4711 6.5039 1.5095-0.87076 2.6793-1.4087 3.7703-1.613-0.048-0.20152-0.07458-0.41852-0.07299-0.64623l0.0016-0.048c0.02499-0.96716 0.52682-1.711 1.1235-1.6598 0.59505 0.04959 1.0584 0.87552 1.035 1.8427-0.0048 0.18129-0.02499 0.35624-0.06189 0.51928 1.0786 0.21065 2.2362 0.74858 3.7254 1.6086-0.29277-0.5407-0.55618-1.0306-0.8057-1.494-0.39353-0.30546-0.8057-0.70216-1.6443-1.1314 0.57641 0.15035 0.98858 0.32252 1.3111 0.51611-2.5444-4.737-2.7507-5.3646-3.6231-7.412" fill="#f9f9f9" fill-rule="evenodd"/>
 </g>
</svg>
