<?xml version="1.0" encoding="UTF-8"?>
<!-- Created with Inkscape (http://www.inkscape.org/) -->
<svg width="64" height="64" version="1.1" viewBox="0 0 16.933 16.933" xmlns="http://www.w3.org/2000/svg" xmlns:xlink="http://www.w3.org/1999/xlink">
 <defs>
  <filter id="filter1057" x="-.027" y="-.027" width="1.054" height="1.054" color-interpolation-filters="sRGB">
   <feGaussianBlur stdDeviation="0.61875"/>
  </filter>
  <linearGradient id="linearGradient1053" x1="-127" x2="-72" y1="60" y2="5" gradientTransform="matrix(.26458 0 0 .26458 49.182 12.815)" gradientUnits="userSpaceOnUse">
   <stop stop-color="#2e55e7" offset="0"/>
   <stop stop-color="#0d7eef" offset="1"/>
  </linearGradient>
 </defs>
 <g transform="translate(-14.39 -12.949)">
  <rect transform="matrix(.26458 0 0 .26458 14.39 12.949)" x="4.5" y="4.5" width="55" height="55" ry="15" fill="#141414" filter="url(#filter1057)" opacity=".3" stroke-linecap="round" stroke-width="2.7444"/>
  <rect x="15.58" y="14.14" width="14.552" height="14.552" ry="3.9687" fill="url(#linearGradient1053)" stroke-linecap="round" stroke-width=".7261"/>
  <path d="m25.08 17.169c-0.02 0.013-0.03 0.024-0.024 0.016-0.23 0.39-0.233 0.901-0.337 1.36a0.17 0.17 0 0 1 0 0.023c-0.051 0.502-0.215 1.013-0.084 1.495a0.17 0.17 0 0 1 0.014 0.03c0.024 0.032 0.055 0.06 0.073 0.065 0.014 2e-3 0.034-4e-3 0.082-0.037 0.051-0.036 0.084-0.101 0.1-0.196a0.17 0.17 0 0 1 0.029-0.07c0.205-0.817 0.352-1.674 0.297-2.513a0.17 0.17 0 0 1 0-9e-3c-7e-3 -0.039-0.019-0.062-0.056-0.107a0.385 0.385 0 0 0-0.048-0.051c-6e-3 -5e-3 0-6e-3 -0.024-4e-3a0.17 0.17 0 0 1-0.022-1e-3zm1.892 0.398a0.159 0.159 0 0 1-0.017 0c-0.354 0.173-0.536 0.59-0.78 0.924a0.159 0.159 0 0 1-0.019 0.047c-0.308 0.546-0.7 1.088-0.742 1.72 2e-3 0.1 0.059 0.157 0.118 0.17a0.228 0.228 0 0 0 0.2-0.087c3e-3 -0.01 0-0.018 6e-3 -0.026a0.159 0.159 0 0 1 4e-3 -6e-3c0.559-0.768 0.981-1.68 1.328-2.565a0.159 0.159 0 0 1 1e-3 -2e-3c0.024-0.059 0.025-0.081 4e-3 -0.125-6e-3 -0.013-0.069-0.055-0.103-0.05z" fill="#fff"/>
  <path d="m21.474 17.822c-0.057 0.01-0.141 0.061-0.202 0.085-0.213 0.08-0.33 0.264-0.382 0.477-0.051 0.22-0.034 0.463 0 0.712 0.035 0.248 0.084 0.504 0.138 0.7 0.047 0.17 0.08 0.252 0.096 0.308v0.042c0 0.019-9e-3 0.017-0.021 0.032-7e-3 4e-3 6e-3 0.021 0 0.021a0.09 0.09 0 0 1-0.053 0.022c-0.038 2e-3 -0.068-0.012-0.107-0.022-0.026-6e-3 -0.06-0.027-0.053-0.02-0.012-8e-3 -0.034-0.01-0.042-0.022 0 5e-3 7e-3 5e-3 0-0.01-9e-3 -0.017-0.018-0.057-0.032-0.086-0.03-0.064-0.054-0.139-0.095-0.233a8.48 8.48 0 0 0-0.308-0.637 2.048 2.048 0 0 0-0.414-0.552 0.696 0.696 0 0 0-0.265-0.159 0.43 0.43 0 0 0-0.287 0.042 0.866 0.866 0 0 0-0.425 0.574c-0.052 0.228-0.027 0.492 0.011 0.721 0.039 0.23 0.1 0.418 0.138 0.573 0.017 0.066 0.037 0.127 0.042 0.16a0.932 0.932 0 0 1-0.02 0.148c-0.04 0.14-0.139 0.372-0.139 0.372s-1.852 4.919 2.123 4.574c0.033-2e-3 0.107-0.021 0.138-0.021 0.78-0.157 1.52-0.393 2.176-0.658 0.129-0.062 0.298-0.123 0.488-0.212 0.38-0.178 0.857-0.407 1.316-0.658 0.459-0.253 0.885-0.521 1.21-0.807 0.326-0.286 0.564-0.6 0.52-0.913-0.07-0.504-0.404-0.878-0.849-1.167-0.447-0.29-1.004-0.491-1.56-0.637a15.933 15.933 0 0 0-1.507-0.33c-0.206-0.031-0.4-0.04-0.52-0.063-0.036-6e-3 -0.055-0.015-0.075-0.021-0.01-1e-3 -0.011-5e-3 -0.02-0.01-0.013-8e-3 -0.036-9e-3 -0.043-0.022-7e-3 -0.012 0-0.028 0-0.042v-0.329a6.685 6.685 0 0 0-0.075-0.903c-0.053-0.314-0.135-0.614-0.307-0.817a0.602 0.602 0 0 0-0.425-0.212 0.58 0.58 0 0 0-0.17 0z" fill="#fff"/>
 </g>
</svg>
