<?xml version="1.0" encoding="UTF-8"?>
<svg width="64" height="64" version="1.1" viewBox="0 0 64 64" xmlns="http://www.w3.org/2000/svg" xmlns:xlink="http://www.w3.org/1999/xlink">
 <defs>
  <filter id="filter1057-3" x="-.027" y="-.027" width="1.054" height="1.054" color-interpolation-filters="sRGB">
   <feGaussianBlur stdDeviation="0.61875"/>
  </filter>
  <linearGradient id="linearGradient1053-6" x1="-127" x2="-72" y1="60" y2="5" gradientTransform="translate(182.35 19.89)" gradientUnits="userSpaceOnUse">
   <stop stop-color="#323741" offset="0"/>
   <stop stop-color="#465064" offset="1"/>
  </linearGradient>
 </defs>
 <g transform="translate(-50.854 -20.4)">
  <rect x="55.354" y="24.9" width="55" height="55" ry="15" fill="#141414" filter="url(#filter1057-3)" opacity=".3" stroke-linecap="round" stroke-width="2.7444"/>
  <rect x="55.354" y="24.9" width="55" height="55" ry="15" fill="url(#linearGradient1053-6)" stroke-linecap="round" stroke-width="2.7444"/>
  <path d="m82.856 36.399a15.999 15.999 0 0 0-16.003 16.003 15.999 15.999 0 0 0 16.003 15.999 15.999 15.999 0 0 0 15.999-15.999 15.999 15.999 0 0 0-15.999-16.003zm4.2785 3.7418c0.45355-0.0076 0.82773 0.04535 1.2737 0.11717 1.6328 0.26457 3.2051 1.3115 4.2029 3.0426 1.3493 2.3358 1.0318 5.2914-0.47623 6.9167-0.82017 0.75592-0.99404 0.81262-1.5005 1.1566 0.34772-0.54426 0.4082-0.65009 0.49135-1.1528-0.0189-0.27969-0.01134-0.39686-0.15874-0.77482a2.0259 2.0259 0 0 0-0.9071-0.97892 3.2731 3.2731 0 0 0-1.4098-0.27969c-0.28347 0-0.45733-0.0076-0.83907 0.04913-1.7537 0.48379-3.7191-0.18898-4.6414-1.7915-1.1036-1.9125-0.30237-4.4486 1.6781-5.59a4.7245 4.7245 0 0 1 1.8029-0.67655c0.17386-0.02268 0.3326-0.03024 0.48379-0.0378zm-11.637 5.2121c0.28347 0.0076 0.55938 0.04536 0.83151 0.10961 1.0621 0.32882 1.1981 0.44977 1.75 0.71812-0.64253-0.02646-0.76726-0.03024-1.2435 0.15118-0.23434 0.15496-0.34016 0.20788-0.58962 0.52536a2.0259 2.0259 0 0 0-0.39686 1.2737 3.2731 3.2731 0 0 0 0.46111 1.3607c0.14362 0.24567 0.223 0.40064 0.46489 0.69923 1.2964 1.2813 1.6933 3.3185 0.76726 4.9173-1.1036 1.9163-3.704 2.4832-5.6807 1.3418a4.7245 4.7245 0 0 1-1.4854-1.2246 5.6996 5.6996 0 0 1-0.81261-1.5648c-0.58962-1.5421-0.46867-3.4281 0.52914-5.1592 1.183-2.0448 3.413-3.224 5.4011-3.1522zm12.359 10.299c2.2111 0 4.0026 1.9654 4.0026 4.2521 0 0.67277-0.06425 1.3077-0.31749 1.8974-0.27591 0.64253-0.56694 1.0129-0.9449 1.4816-1.0432 1.2851-2.7402 2.1204-4.7396 2.1204-2.6949 0-5.1025-1.7537-5.7488-3.8741-0.24567-1.0847-0.20788-1.2624-0.24945-1.8747 0.29859 0.5745 0.35528 0.68033 0.74836 0.99782 0.25323 0.12851 0.3515 0.18898 0.75214 0.25323a2.041 2.041 0 0 0 1.3002-0.29859 3.2618 3.2618 0 0 0 0.94868-1.0772c0.13984-0.24568 0.23812-0.39308 0.37796-0.75214 0.45355-1.7613 2.0259-3.122 3.8741-3.122z" fill="#fff" stroke-width="3.7796"/>
 </g>
</svg>
