<?xml version="1.0" encoding="UTF-8"?>
<svg width="64" height="64" version="1.1" xmlns="http://www.w3.org/2000/svg" xmlns:cc="http://creativecommons.org/ns#" xmlns:dc="http://purl.org/dc/elements/1.1/" xmlns:rdf="http://www.w3.org/1999/02/22-rdf-syntax-ns#">
 <metadata>
  <rdf:RDF>
   <cc:Work rdf:about="">
    <dc:format>image/svg+xml</dc:format>
    <dc:type rdf:resource="http://purl.org/dc/dcmitype/StillImage"/>
    <dc:title/>
   </cc:Work>
  </rdf:RDF>
 </metadata>
 <defs>
  <filter id="filter1057" x="-.027" y="-.027" width="1.054" height="1.054" color-interpolation-filters="sRGB">
   <feGaussianBlur stdDeviation="0.61875"/>
  </filter>
  <linearGradient id="linearGradient1053" x1="-127" x2="-72" y1="60" y2="5" gradientTransform="translate(131.5 -.51)" gradientUnits="userSpaceOnUse">
   <stop stop-color="#ff7832" offset="0"/>
   <stop stop-color="#ffdc32" offset="1"/>
  </linearGradient>
 </defs>
 <rect x="4.5" y="4.5" width="55" height="55" ry="15" fill="#141414" filter="url(#filter1057)" opacity=".3" stroke-linecap="round" stroke-width="2.7444"/>
 <rect x="4.5" y="4.5" width="55" height="55" ry="15" fill="url(#linearGradient1053)" stroke-linecap="round" stroke-width="2.7444"/>
 <g transform="matrix(.22999 0 0 .22999 -152.97 -123.8)" fill="#fff" fill-opacity=".85">
  <path d="m878.6 605.07c8.066 8.064-14.297 43.508-18.077 47.29-3.78 3.774-13.383 0.302-21.448-7.764-8.066-8.063-11.541-17.669-7.761-21.448 3.781-3.783 39.22-26.143 47.286-18.078z"/>
  <path d="m765.47 613.6c-12.314-6.987-29.839-14.761-35.414-9.187-5.648 5.647 2.41 23.566 9.47 35.904 6.283-10.924 15.225-20.122 25.944-26.717z"/>
  <path d="m866.3 649.58c1.135 3.848 0.928 7.025-0.908 8.86-4.299 4.298-15.901-0.276-26.362-10.233-0.729-0.653-1.454-1.333-2.167-2.046-3.78-3.784-6.725-7.813-8.607-11.522-3.663-6.572-4.58-12.377-1.81-15.146 1.508-1.508 3.923-1.919 6.868-1.389 1.92-1.214 4.186-2.568 6.674-3.953-10.111-5.273-21.603-8.252-33.799-8.252-40.441 0-73.228 32.781-73.228 73.226 0 40.44 32.786 73.225 73.228 73.225s73.229-32.784 73.229-73.225c0-13.06-3.427-25.308-9.416-35.926-1.295 2.362-2.553 4.526-3.702 6.381z"/>
 </g>
</svg>
