<?xml version="1.0" encoding="UTF-8"?>
<!-- Created with Inkscape (http://www.inkscape.org/) -->
<svg width="64" height="64" version="1.1" viewBox="0 0 16.933 16.933" xmlns="http://www.w3.org/2000/svg">
 <defs>
  <filter id="filter1057-1" x="-.027" y="-.027" width="1.054" height="1.054" color-interpolation-filters="sRGB">
   <feGaussianBlur stdDeviation="0.61875"/>
  </filter>
  <linearGradient id="linearGradient1053-2" x1="-127" x2="-72" y1="60" y2="5" gradientTransform="matrix(.26458 0 0 .26458 49.135 9.0052)" gradientUnits="userSpaceOnUse">
   <stop stop-color="#2e2e2e" offset="0"/>
   <stop stop-color="#3d3d3d" offset="1"/>
  </linearGradient>
  <filter id="filter2807" x="-.047993" y="-.048007" width="1.096" height="1.096" color-interpolation-filters="sRGB">
   <feGaussianBlur stdDeviation="0.48001"/>
  </filter>
 </defs>
 <g transform="translate(-14.343 -9.1401)">
  <rect transform="matrix(.26458 0 0 .26458 14.343 9.1401)" x="4.5" y="4.5" width="55" height="55" ry="15" fill="#141414" filter="url(#filter1057-1)" opacity=".3" stroke-linecap="round" stroke-width="2.7444"/>
  <rect x="15.534" y="10.331" width="14.552" height="14.552" ry="3.9687" fill="url(#linearGradient1053-2)" stroke-linecap="round" stroke-width=".72611"/>
  <path transform="matrix(.31744 0 0 .31744 15.661 10.443)" d="m25.891 12-4.121 0.07-0.836 0.629 0.07 0.07-2.723 0.07 0.207-0.281-6.211-0.141-0.07 0.422-0.07 0.629 0.418 0.77-0.207 1.609-0.352 1.402 0.211 1.328 0.07 1.051 0.418 1.398-0.141 0.703 0.07 0.77 0.488 0.559 0.141 0.91-0.906 0.352 0.137 2.797 0.559 0.422-0.348 2.449-0.281 0.141-0.207 4.688 0.246-0.031 0.594 0.121s0.715 0.25 0.863 0.301c0.148 0.047 0.367-0.227 0.367-0.227h0.594l0.496-0.098 0.27 0.125 0.25-0.027 0.617-0.047 0.293-0.125 0.125 0.297 0.098-0.074 0.273-0.125 0.566-0.047 0.121 0.172s0.691 0.074 0.938 0.074c0.25 0 0.199-0.199 0.199-0.199s0.074-0.02 0.195 0.102c0.125 0.125 0.297-0.051 0.297-0.051l0.246-0.125 0.176 0.176 0.172 0.125 0.469-0.102h0.766l0.172-0.051 0.719 1.016 0.047-0.516h1.16c0.098 0 0.051 0.344 0.051 0.344l0.762-0.246 0.395 0.395 0.816-0.52 0.445-0.074 0.863-0.047h1.234l1.406 0.098 0.371-0.148 0.27-0.25 0.742 0.422 0.543-0.223s0.594 0.223 0.691 0.25c0.098 0.023 1.012-0.102 1.012-0.102l0.566-0.148-0.367-0.27 0.246-0.102 1.035 0.047 1.383 0.355-0.023-9.04v-0.57l-0.348 0.051-0.445 0.074v-0.27l0.25-0.227 0.195-0.297 0.051-1.063-0.074-0.773-0.32-0.938-0.297-0.398-0.051-0.371 0.074-0.246 0.027-0.074 0.32-0.125 0.047-0.125-0.246-0.418 0.223-0.129 0.352-0.211 0.137-1.258 0.07-0.84v-2.941l-0.207-0.84 0.137-0.91 0.07-0.348-0.629-0.281-2.371-0.422-0.352 0.492-0.137-0.563-4.539-0.066-0.141 0.77-1.117 0.141-0.137-0.488-0.98-0.145m-8.52 3.535 16.242 11.04-1.285 4.605-3.063 0.098-14.164-15.14m15.15-0.398 1.781 0.941-0.496 3.465-0.348 0.102-4.738-3.613m-9.523 9.06 4.836 4.852-2.914 1.035-1.527-0.098-1.879-1.586" filter="url(#filter2807)" opacity=".1"/>
  <path d="m23.411 13.798-1.3082 0.02222-0.26538 0.19967 0.02222 0.02222-0.8644 0.02222 0.06571-0.0892-1.9716-0.04476-0.02222 0.13396-0.02222 0.19967 0.13269 0.24443-0.06571 0.51077-0.11174 0.44506 0.06698 0.42156 0.02222 0.33363 0.13269 0.44378-0.04476 0.22316 0.02222 0.24443 0.15491 0.17745 0.04476 0.28887-0.2876 0.11174 0.04349 0.88789 0.17745 0.13396-0.11047 0.77742-0.0892 0.04476-0.06571 1.4882 0.07809-0.0098 0.18856 0.03841s0.22697 0.07936 0.27395 0.09555c0.04698 0.01492 0.1165-0.07206 0.1165-0.07206h0.18856l0.15745-0.03111 0.08571 0.03968 0.07936-0.0086 0.19586-0.01492 0.09301-0.03968 0.03968 0.09428 0.03111-0.02349 0.08666-0.03968 0.17967-0.01492 0.03841 0.0546s0.21935 0.02349 0.29776 0.02349c0.07936 0 0.06317-0.06317 0.06317-0.06317s0.02349-0.0064 0.0619 0.03238c0.03968 0.03968 0.09428-0.01619 0.09428-0.01619l0.07809-0.03968 0.05587 0.05587 0.0546 0.03968 0.14888-0.03238h0.24316l0.0546-0.01619 0.22824 0.32252 0.01492-0.1638h0.36823c0.03111 0 0.01619 0.1092 0.01619 0.1092l0.24189-0.07809 0.12539 0.12539 0.25903-0.16507 0.14126-0.02349 0.27395-0.01492h0.39172l0.44632 0.03111 0.11777-0.04698 0.08571-0.07936 0.23554 0.13396 0.17237-0.07079s0.18856 0.07079 0.21935 0.07936c0.03111 0.0073 0.32125-0.03238 0.32125-0.03238l0.17967-0.04698-0.1165-0.08571 0.07809-0.03238 0.32855 0.01492 0.43902 0.11269-0.0073-2.8697v-0.18094l-0.11047 0.01619-0.14126 0.02349v-0.08571l0.07936-0.07206 0.0619-0.09428 0.01619-0.33744-0.02349-0.24538-0.10158-0.29776-0.09428-0.12634-0.01619-0.11777 0.02349-0.07809 0.0086-0.02349 0.10158-0.03968 0.01492-0.03968-0.07809-0.13269 0.07079-0.04095 0.11174-0.06698 0.04349-0.39934 0.02222-0.26665v-0.9336l-0.06571-0.26665 0.04349-0.28887 0.02222-0.11047-0.19967-0.0892-0.75266-0.13396-0.11174 0.15618-0.04349-0.17872-1.4409-0.02095-0.04476 0.24443-0.35458 0.04476-0.04349-0.15491-0.31109-0.04603m-2.7046 1.1222 5.1559 3.5046-0.40791 1.4618-0.97233 0.03111-4.4963-4.8061m4.8093-0.12634 0.56537 0.29871-0.15745 1.0999-0.11047 0.03238-1.504-1.1469m-3.023 2.876 1.5352 1.5402-0.92503 0.32855-0.48474-0.03111-0.59648-0.50346" fill="#ff3232"/>
 </g>
</svg>
