<?xml version="1.0" encoding="UTF-8"?>
<svg width="64" height="64" version="1.1" viewBox="0 0 16.933 16.933" xmlns="http://www.w3.org/2000/svg" xmlns:cc="http://creativecommons.org/ns#" xmlns:dc="http://purl.org/dc/elements/1.1/" xmlns:rdf="http://www.w3.org/1999/02/22-rdf-syntax-ns#">
 <defs>
  <filter id="filter2076-0" x="-.048" y="-.048" width="1.096" height="1.096" color-interpolation-filters="sRGB">
   <feGaussianBlur stdDeviation="1.1"/>
  </filter>
  <linearGradient id="linearGradient2070-5" x1="145" x2="200" y1="59" y2="4" gradientTransform="matrix(.26459 0 0 .26459 -28.491 -8.6179)" gradientUnits="userSpaceOnUse">
   <stop stop-color="#00c8ff" offset="0"/>
   <stop stop-color="#14a0ff" offset="1"/>
  </linearGradient>
 </defs>
 <metadata>
  <rdf:RDF>
   <cc:Work rdf:about="">
    <dc:format>image/svg+xml</dc:format>
    <dc:type rdf:resource="http://purl.org/dc/dcmitype/StillImage"/>
    <dc:title/>
   </cc:Work>
  </rdf:RDF>
 </metadata>
 <g transform="translate(-8.684 8.7501)">
  <rect transform="matrix(.26459 0 0 .26459 8.6839 -8.7502)" x="4.5" y="4.5" width="55" height="55" rx="13.002" ry="13.002" filter="url(#filter2076-0)" opacity=".3"/>
  <rect x="9.8745" y="-7.5596" width="14.552" height="14.552" rx="3.4402" ry="3.4402" fill="url(#linearGradient2070-5)" stroke-width=".26458"/>
  <path d="m17.661-1.4061c0-0.28127-0.22864-0.50991-0.50991-0.50991-0.28127 0-0.50991 0.22864-0.50991 0.50991 0 0.28127 0.22864 0.50991 0.50991 0.50991 0.28126 0 0.50991-0.22864 0.50991-0.50991zm-3.6737-3.776c-0.56348 0-1.0208 0.45729-1.0208 1.0208v7.7558c0 0.56348 0.45729 1.0208 1.0208 1.0208h6.3265c0.56348 0 1.0208-0.45729 1.0208-1.0208v-7.7558c0-0.56348-0.45729-1.0208-1.0208-1.0208zm3.1628 1.0208c1.522 0 2.7553 1.2331 2.7553 2.7553 0 0.79404-0.33484 1.5106-0.87345 2.0128-0.27553-0.20855-0.53287-0.41233-0.67924-0.56157-0.43911-0.43911-1.1489-0.43911-1.588 0-0.33293 0.33293-0.41233 0.82466-0.24108 1.2331-1.2207-0.28414-2.1286-1.3776-2.1286-2.6835 0-1.524 1.2331-2.7562 2.7553-2.7562zm-3.1628 7.2449c0-0.28127 0.22864-0.50991 0.50991-0.50991 0.28127 0 0.50991 0.22864 0.50991 0.50991 0 0.28127-0.22864 0.50991-0.50991 0.50991-0.28126 0-0.50991-0.22864-0.50991-0.50991zm3.357-2.4596c0.12245-0.12245 0.32049-0.12245 0.44485 0 0.07175 0.073662 2.0779 1.4857 2.3103 1.7182 0.28604 0.28796 0.28604 0.75099 0 1.037-0.28605 0.28603-0.74908 0.28605-1.037 0-0.2449-0.2449-1.6512-2.2453-1.7182-2.3103-0.12245-0.12436-0.12245-0.3224 0-0.44485z" fill="#fff" stroke-width=".0095677" p-id="1315"/>
 </g>
</svg>
