<?xml version="1.0" encoding="UTF-8"?>
<svg width="64" height="64" version="1.1" viewBox="0 0 64 64" xmlns="http://www.w3.org/2000/svg" xmlns:xlink="http://www.w3.org/1999/xlink">
 <defs>
  <filter id="filter2076-3-5" x="-.048" y="-.048" width="1.096" height="1.096" color-interpolation-filters="sRGB">
   <feGaussianBlur stdDeviation="1.1"/>
  </filter>
  <linearGradient id="linearGradient2070-2" x1="145" x2="200" y1="59" y2="4" gradientTransform="matrix(1 0 0 1 -140.5 .49868)" gradientUnits="userSpaceOnUse">
   <stop stop-color="#ffc841" offset="0"/>
   <stop stop-color="#ffbe37" offset=".4925"/>
   <stop stop-color="#ffc841" offset="1"/>
  </linearGradient>
  <linearGradient id="linearGradient4500" x1="49.5" x2="14.97" y1="14.612" y2="49.507" gradientUnits="userSpaceOnUse">
   <stop stop-color="#fff" offset="0"/>
   <stop stop-color="#ffdc96" offset="1"/>
  </linearGradient>
 </defs>
 <rect transform="matrix(1 0 0 1 -.000226 -.000226)" x="4.5" y="4.5" width="55" height="55" rx="13.002" ry="13.002" filter="url(#filter2076-3-5)" opacity=".3"/>
 <rect x="4.5001" y="4.5013" width="55.001" height="55.001" rx="13.002" ry="13.002" fill="url(#linearGradient2070-2)"/>
 <path d="m46.212 14.5h-9.863c-1.8084 0-4.3339 1.0462-5.6124 2.3246l-15.278 15.278c-1.2786 1.2787-1.2786 3.3711 0 4.6494l11.789 11.789c1.2786 1.2787 3.3708 1.2787 4.6495 0l15.278-15.278c1.2786-1.2784 2.3247-3.8042 2.3247-5.6122v-9.863c-6.4e-5 -1.8083-1.4794-3.2877-3.2877-3.2877zm-4.3686 10.937c-1.8122 0-3.2812-1.4691-3.2812-3.2812 0-1.8121 1.4691-3.2812 3.2812-3.2812 1.8122 0 3.2812 1.4691 3.2812 3.2812 0 1.8121-1.4691 3.2812-3.2812 3.2812z" fill="url(#linearGradient4500)" stroke-width="2.9167"/>
</svg>
