<?xml version="1.0" encoding="UTF-8" standalone="no"?>
<svg
   xmlns:dc="http://purl.org/dc/elements/1.1/"
   xmlns:cc="http://creativecommons.org/ns#"
   xmlns:rdf="http://www.w3.org/1999/02/22-rdf-syntax-ns#"
   xmlns:svg="http://www.w3.org/2000/svg"
   xmlns="http://www.w3.org/2000/svg"
   xmlns:xlink="http://www.w3.org/1999/xlink"
   xmlns:sodipodi="http://sodipodi.sourceforge.net/DTD/sodipodi-0.dtd"
   xmlns:inkscape="http://www.inkscape.org/namespaces/inkscape"
   version="1.1"
   viewBox="0 0 64 64"
   id="svg25"
   sodipodi:docname="eclipse-cdt.svg"
   width="64"
   height="64"
   inkscape:version="1.0 (4035a4fb49, 2020-05-01)">
  <metadata
     id="metadata29">
    <rdf:RDF>
      <cc:Work
         rdf:about="">
        <dc:format>image/svg+xml</dc:format>
        <dc:type
           rdf:resource="http://purl.org/dc/dcmitype/StillImage" />
        <dc:title></dc:title>
      </cc:Work>
    </rdf:RDF>
  </metadata>
  <sodipodi:namedview
     inkscape:document-rotation="0"
     pagecolor="#ffffff"
     bordercolor="#666666"
     borderopacity="1"
     objecttolerance="10"
     gridtolerance="10"
     guidetolerance="10"
     inkscape:pageopacity="0"
     inkscape:pageshadow="2"
     inkscape:window-width="1920"
     inkscape:window-height="964"
     id="namedview27"
     showgrid="false"
     inkscape:zoom="4.328125"
     inkscape:cx="-58.641225"
     inkscape:cy="19.165915"
     inkscape:window-x="0"
     inkscape:window-y="36"
     inkscape:window-maximized="1"
     inkscape:current-layer="svg25" />
  <defs
     id="defs7">
    <linearGradient
       id="bg"
       x2="0"
       y1="1"
       y2="47"
       gradientUnits="userSpaceOnUse"
       gradientTransform="translate(0,-65.617949)">
      <stop
         style="stop-color:#ebe8f4"
         offset="0"
         id="stop2" />
      <stop
         style="stop-color:#dfdbed"
         offset="1"
         id="stop4" />
    </linearGradient>
    <linearGradient
       gradientUnits="userSpaceOnUse"
       gradientTransform="matrix(1.0000071,0,0,1.0000071,2.4493749,-15.89574)"
       y2="62"
       y1="2"
       x2="32"
       x1="32"
       id="a-3">
      <stop
         id="stop854"
         offset="0"
         stop-color="#f5faff" />
      <stop
         id="stop856"
         offset="1"
         stop-color="#cfdef0" />
    </linearGradient>
    <linearGradient
       gradientUnits="userSpaceOnUse"
       y2="3.5157001"
       y1="13.489"
       x2="8.8559999"
       x1="8.8559999"
       id="linearGradient1075"
       gradientTransform="matrix(3.779602,0,0,3.779602,-1.3999348e-6,-1.3999348e-6)">
      <stop
         id="stop859"
         offset="0"
         stop-color="#273238" />
      <stop
         id="stop861"
         offset="1"
         stop-color="#36474f" />
    </linearGradient>
    <linearGradient
       id="linearGradient1057">
      <stop
         id="stop4-3"
         offset="0"
         stop-color="#fff" />
      <stop
         id="stop6"
         offset="1"
         stop-opacity="0"
         stop-color="#fff" />
    </linearGradient>
    <linearGradient
       gradientUnits="userSpaceOnUse"
       gradientTransform="matrix(1.5625,0,0,1.5625,0.40633,-5.1891)"
       y2="52.847"
       y1="27.545"
       x2="34.999"
       x1="34.999"
       id="linearGradient982">
      <stop
         id="stop9"
         offset="0"
         stop-color="#32b4ff" />
      <stop
         id="stop11"
         offset="1"
         stop-color="#3287ff" />
    </linearGradient>
    <style
       id="style14"
       type="text/css" />
    <style
       id="style16"
       type="text/css" />
    <linearGradient
       gradientUnits="userSpaceOnUse"
       gradientTransform="matrix(1.5625,0,0,1.5625,-9.2253,1.3231)"
       y2="43.681"
       y1="18.052"
       x2="21.314"
       x1="21.314"
       id="linearGradient1047">
      <stop
         id="stop18"
         offset="0"
         stop-color="#14dc78" />
      <stop
         id="stop20"
         offset="1"
         stop-color="#14a03c" />
    </linearGradient>
    <linearGradient
       gradientUnits="userSpaceOnUse"
       gradientTransform="matrix(1.5625,0,0,1.5625,-8.1072,-10.908)"
       y2="37.368"
       y1="12.316"
       x2="41.729"
       x1="41.729"
       id="linearGradient1049">
      <stop
         id="stop23"
         offset="0"
         stop-color="#ff3c64" />
      <stop
         id="stop25"
         offset="1"
         stop-color="#ff4628" />
    </linearGradient>
    <linearGradient
       xlink:href="#linearGradient1057"
       gradientUnits="userSpaceOnUse"
       gradientTransform="matrix(1,0,0,1.2271,0.20646,-10.975)"
       y2="39.768"
       y1="32.234"
       x2="34.427"
       x1="34.427"
       id="linearGradient1059" />
    <linearGradient
       xlink:href="#linearGradient1057"
       gradientUnits="userSpaceOnUse"
       gradientTransform="matrix(1,0,0,1.2271,-12.55,-19.793)"
       y2="39.768"
       y1="32.234"
       x2="34.427"
       x1="34.427"
       id="linearGradient1063" />
    <linearGradient
       xlink:href="#linearGradient1057"
       gradientUnits="userSpaceOnUse"
       gradientTransform="matrix(1,0,0,1.2271,5.7554,-25.761)"
       y2="39.768"
       y1="32.234"
       x2="34.427"
       x1="34.427"
       id="linearGradient1067" />
    <filter
       color-interpolation-filters="sRGB"
       height="1.048"
       width="1.048"
       y="-.024"
       x="-.024"
       id="filter2761">
      <feGaussianBlur
         id="feGaussianBlur31"
         stdDeviation="0.14552168" />
    </filter>
    <linearGradient
       gradientUnits="userSpaceOnUse"
       gradientTransform="matrix(3.7796,0,0,3.7796,72.4059,0.53085)"
       y2="1.17"
       y1="15.576"
       x2="15.65"
       x1="1.3315"
       id="linearGradient1024">
      <stop
         id="stop34"
         offset="0"
         stop-color="#dddfe1" />
      <stop
         id="stop36"
         offset="1"
         stop-opacity=".99608"
         stop-color="#f3f4f6" />
    </linearGradient>
    <filter
       color-interpolation-filters="sRGB"
       height="1.048"
       width="1.048"
       y="-.024"
       x="-.024"
       id="filter2761-3">
      <feGaussianBlur
         id="feGaussianBlur2"
         stdDeviation="0.14552168" />
    </filter>
    <linearGradient
       gradientUnits="userSpaceOnUse"
       gradientTransform="translate(0 -.07421)"
       y2="1.17"
       y1="15.576"
       x2="15.65"
       x1="1.3315"
       id="linearGradient1024-6">
      <stop
         id="stop5"
         offset="0"
         stop-color="#dddfe1" />
      <stop
         id="stop7"
         offset="1"
         stop-opacity=".99608"
         stop-color="#f3f4f6" />
    </linearGradient>
    <filter
       inkscape:collect="always"
       style="color-interpolation-filters:sRGB"
       id="filter1057"
       x="-0.027000001"
       width="1.054"
       y="-0.027000001"
       height="1.054">
      <feGaussianBlur
         inkscape:collect="always"
         stdDeviation="0.61875"
         id="feGaussianBlur1059" />
    </filter>
    <linearGradient
       inkscape:collect="always"
       xlink:href="#linearGradient1051"
       id="linearGradient1053"
       x1="-127"
       y1="60"
       x2="-72"
       y2="5"
       gradientUnits="userSpaceOnUse"
       gradientTransform="translate(131.5,-0.50999869)" />
    <linearGradient
       inkscape:collect="always"
       id="linearGradient1051">
      <stop
         style="stop-color:#dee0e2;stop-opacity:1"
         offset="0"
         id="stop1047" />
      <stop
         style="stop-color:#f1f3f5;stop-opacity:0.99607843"
         offset="1"
         id="stop1049" />
    </linearGradient>
  </defs>
  <rect
     ry="15"
     y="4.4999995"
     x="4.4999995"
     height="55"
     width="55"
     id="rect1055"
     style="opacity:0.3;fill:#141414;fill-opacity:1;stroke-width:2.74436;stroke-linecap:round;filter:url(#filter1057)" />
  <rect
     style="fill:url(#linearGradient1053);fill-opacity:1;stroke-width:2.74436;stroke-linecap:round"
     id="rect1045"
     width="54.999996"
     height="54.999996"
     x="4.5000019"
     y="4.5000019"
     ry="14.999999" />
  <g
     transform="matrix(3.779602,0,0,3.779602,-82.520052,3.3911331)"
     fill="#5e4aa6"
     stroke-width="0.26458"
     id="g876">
    <circle
       cx="-330.35001"
       cy="-328.38"
       r="0"
       id="circle868" />
    <circle
       cx="-312.10999"
       cy="-326.25"
       r="0"
       id="circle870" />
    <circle
       cx="-306.01999"
       cy="-333.07001"
       r="0"
       id="circle872" />
    <circle
       cx="-308.84"
       cy="-326.01001"
       r="0"
       id="circle874" />
  </g>
  <g
     id="g914"
     transform="matrix(1.3333369,0,0,1.3333369,-3.2266524e-5,87.493668)">
    <path
       d="m 21,-53.617949 c -6.648,0 -12,5.352 -12,12 0,6.648 5.352,12 12,12 0.34,0 0.664,-0.035 1,-0.063 -6.172,-0.512 -11,-5.633 -11,-11.938 0,-6.309 4.828,-11.43 11,-11.938 -0.336,-0.031 -0.66,-0.066 -1,-0.066"
       style="fill:#f4941e;fill-rule:evenodd"
       id="path908" />
    <path
       d="m 25.83,-53.615949 c -1.2024,0.01689 -2.3954,0.21441 -3.5391,0.58594 -3.9004,1.2683 -6.8829,4.4409 -7.9082,8.4121 h 4.207 c 1.2216,-3.02 4.1525,-4.9975 7.4102,-5 2.5592,0.0035 4.9622,1.2312 6.4648,3.3027 l 3.2441,-2.3555 c -2.2933,-3.1564 -5.9778,-5.0008 -9.8789,-4.9453 z m 0.19922,5.998 c -0.61248,0.0085 -1.2202,0.10729 -1.8027,0.29297 -1.4345,0.46006 -2.6449,1.4242 -3.3984,2.707 h 5.1719 c 0.99277,0 1.9207,0.49319 2.4785,1.3145 l 2.584,-1.8418 c -1.1684,-1.5778 -3.0456,-2.4999 -5.0332,-2.4727 z m -11.855,4 c -0.05369,0.33152 -0.09344,0.66515 -0.11914,1 h 4.0156 c 0.04379,-0.33714 0.10903,-0.67116 0.19531,-1 z m 6.1797,0 c -0.11769,0.32522 -0.20656,0.65979 -0.26562,1 h 3.0879 c 0.13079,-0.36887 0.3325,-0.70859 0.59375,-1 z m 10.646,0 v 1 h -1 v 2 h 1 v 1 h 2 v -1 h 1 v -2 h -1 v -1 z m 5,0 v 1 h -1 v 2 h 1 v 1 h 2 v -1 h 1 v -2 h -1 v -1 z m -21.949,3 c 0.02959,0.33502 0.07325,0.66865 0.13086,1 h 4.0781 c -0.08366,-0.32902 -0.14628,-0.66303 -0.1875,-1 z m 6.041,0 c 0.05906,0.34021 0.14794,0.67478 0.26562,1 h 3.4121 c -0.26195,-0.29125 -0.46433,-0.63097 -0.5957,-1 z m 8.3887,0.6875 c -0.55862,0.82109 -1.4874,1.3125 -2.4805,1.3125 h -5.1758 c 0.75451,1.2835 1.9664,2.2478 3.4023,2.707 2.5193,0.80246 5.2789,-0.07743 6.8359,-2.1797 z m -14.084,1.3125 c 1.0227,3.968 3.9994,7.1399 7.8945,8.4121 4.9448,1.6072 10.362,-0.15281 13.418,-4.3594 l -3.2422,-2.3555 c -1.503,2.0721 -3.9069,3.2999 -6.4668,3.3027 -3.2584,-0.0017 -6.1902,-1.9794 -7.4121,-5 z"
       style="fill:#2c2053;paint-order:normal"
       id="path910" />
  </g>
  <circle
     cx="-1321.7627"
     cy="-1268.7222"
     r="0"
     fill="#5e4aa6"
     id="circle41" />
  <circle
     cx="-222.21275"
     cy="-3.2671735"
     r="0"
     fill="#5e4aa6"
     fill-rule="evenodd"
     id="circle43" />
</svg>
