<?xml version="1.0" encoding="UTF-8"?>
<svg width="64" height="64" version="1.1" viewBox="0 0 16.933 16.933" xmlns="http://www.w3.org/2000/svg" xmlns:cc="http://creativecommons.org/ns#" xmlns:dc="http://purl.org/dc/elements/1.1/" xmlns:rdf="http://www.w3.org/1999/02/22-rdf-syntax-ns#" xmlns:xlink="http://www.w3.org/1999/xlink">
 <defs>
  <filter id="filter1057-9" x="-.027" y="-.027" width="1.054" height="1.054" color-interpolation-filters="sRGB">
   <feGaussianBlur stdDeviation="0.61875"/>
  </filter>
  <linearGradient id="linearGradient1068" x1="1.3315" x2="13.449" y1="15.576" y2="3.4588" gradientTransform="matrix(1 0 0 1 -.18 .024395)" gradientUnits="userSpaceOnUse">
   <stop stop-color="#3caaff" offset="0"/>
   <stop stop-color="#b496ff" offset="1"/>
  </linearGradient>
  <linearGradient id="linearGradient1070" x1="5.7215" x2="2.8442" y1="8.4996" y2="14.519" gradientTransform="matrix(1 0 0 1 -.17939 .024395)" gradientUnits="userSpaceOnUse">
   <stop stop-color="#c3d2ff" offset="0"/>
   <stop stop-color="#82c8ff" offset="1"/>
  </linearGradient>
  <linearGradient id="linearGradient1072" x1="6.5814" x2="13.959" y1="6.7137" y2="13.123" gradientTransform="matrix(1 0 0 1 -.17939 .024395)" gradientUnits="userSpaceOnUse">
   <stop stop-color="#fff" offset="0"/>
   <stop stop-color="#e6e6ff" offset="1"/>
  </linearGradient>
  <filter id="filter1357" x="-.027" y="-.027" width="1.054" height="1.054" color-interpolation-filters="sRGB">
   <feGaussianBlur stdDeviation="0.095248128"/>
  </filter>
  <linearGradient id="linearGradient1739" x1="28.103" x2="36.57" y1="11.906" y2="11.906" gradientTransform="matrix(1 0 0 1 -20.484 -.11606)" gradientUnits="userSpaceOnUse">
   <stop stop-color="#407fff" offset="0"/>
   <stop stop-color="#ff407a" offset="1"/>
  </linearGradient>
  <linearGradient id="linearGradient952" x1="-20.384" x2="-23.272" y1="6.1331" y2="15.312" gradientTransform="matrix(.92798 0 0 .92798 32.053 3.2425)" gradientUnits="userSpaceOnUse">
   <stop stop-color="#232323" offset="0"/>
   <stop stop-color="#323296" offset=".95004"/>
   <stop stop-color="#232323" offset="1"/>
  </linearGradient>
  <radialGradient id="radialGradient123159" cx="-24.473" cy="9.8348" r="1.5211" gradientTransform="matrix(1.2131 0 0 1.2131 41.533 -.2189)" gradientUnits="userSpaceOnUse">
   <stop stop-color="#291dc0" offset="0"/>
   <stop stop-color="#1b1b23" offset="1"/>
  </radialGradient>
  <linearGradient id="linearGradient123197" x1="-36.117" x2="-33.22" y1="10.638" y2="7.7404" gradientTransform="matrix(1.3032 0 0 1.3032 57.028 -.26748)" gradientUnits="userSpaceOnUse">
   <stop offset="0"/>
   <stop stop-opacity="0" offset="1"/>
  </linearGradient>
  <radialGradient id="radialGradient123131" cx="-24.473" cy="9.8348" r="1.1409" gradientTransform="matrix(1.8509 0 0 1.37 57.099 -1.7624)" gradientUnits="userSpaceOnUse" xlink:href="#a-9"/>
  <linearGradient id="a-9" x1="23.487" x2="23.487" y1="15.18" y2="32.913" gradientTransform="matrix(.12676 0 0 .12676 -27.515 6.7925)" gradientUnits="userSpaceOnUse">
   <stop stop-color="#141414" offset="0"/>
   <stop stop-color="#30277f" offset="1"/>
  </linearGradient>
  <linearGradient id="linearGradient123149" x1="-24.478" x2="-24.478" y1="11.104" y2="8.4912" gradientTransform="matrix(1.3032 0 0 1.3032 43.697 -1.1056)" gradientUnits="userSpaceOnUse">
   <stop stop-color="#2d1edc" offset="0"/>
   <stop stop-color="#141414" offset="1"/>
  </linearGradient>
  <radialGradient id="radialGradient123155" cx="-24.473" cy="9.8348" r="1.1409" gradientTransform="matrix(1.4861 0 0 1.1 48.171 .89323)" gradientUnits="userSpaceOnUse" xlink:href="#a-9"/>
  <linearGradient id="linearGradient123157" x1="-24.478" x2="-24.478" y1="11.104" y2="8.4912" gradientTransform="matrix(1.0464 0 0 1.0464 37.41 1.4206)" gradientUnits="userSpaceOnUse" xlink:href="#a-9"/>
  <radialGradient id="c-7" cx="24.047" cy="23.949" r="2.9867" gradientTransform="matrix(.26795 -4.8923e-8 3.7053e-8 .20293 5.4098 6.843)" gradientUnits="userSpaceOnUse">
   <stop stop-color="#2839e6" offset="0"/>
   <stop stop-opacity="0" offset="1"/>
  </radialGradient>
  <linearGradient id="linearGradient123141" x1="-24.485" x2="-24.485" y1="8.6962" y2="9.7506" gradientTransform="matrix(1.3032 0 0 1.3032 43.74 -1.1056)" gradientUnits="userSpaceOnUse" xlink:href="#d-6"/>
  <linearGradient id="d-6" x1="361.36" x2="361.36" y1="616.07" y2="722.79" gradientTransform="matrix(.0040372 0 0 .0040372 -25.925 7.1257)" gradientUnits="userSpaceOnUse">
   <stop stop-color="#fff" offset="0"/>
   <stop stop-color="#fff" stop-opacity="0" offset="1"/>
  </linearGradient>
  <linearGradient id="linearGradient123161" x1="361.36" x2="361.36" y1="616.07" y2="722.79" gradientTransform="matrix(.0052615 0 0 .0052615 9.9517 8.181)" gradientUnits="userSpaceOnUse" xlink:href="#d-6"/>
 </defs>
 <metadata>
  <rdf:RDF>
   <cc:Work rdf:about="">
    <dc:format>image/svg+xml</dc:format>
    <dc:type rdf:resource="http://purl.org/dc/dcmitype/StillImage"/>
    <dc:title/>
   </cc:Work>
  </rdf:RDF>
 </metadata>
 <g transform="translate(.17915 .11606)">
  <rect transform="matrix(.26458 0 0 .26458 .61857 .68166)" x="1.485" y="1.485" width="55" height="55" ry="15" fill="#141414" filter="url(#filter1057-9)" opacity=".3" stroke-linecap="round" stroke-width="2.7444"/>
  <g>
   <path d="m6.0458 1.0746c-0.66533 0-1.235 0.018672-1.7389 0.060978-1.6041 0.27254-2.8749 1.497-3.2086 3.0789-3.36e-5 3.213e-4 3.36e-5 7.121e-4 0 0.00103-0.064925 0.6219-0.086817 1.3632-0.086817 2.2469v3.7765c0 0.88366 0.021887 1.625 0.086817 2.2469 3.36e-5 3.22e-4 -3.36e-5 7.14e-4 0 1e-3 0.33367 1.5819 1.6045 2.8063 3.2086 3.0789 0.50391 0.0423 1.0736 0.06098 1.7389 0.06098h4.4834c0.66532 0 1.235-0.01867 1.7389-0.06098 1.6041-0.27254 2.8749-1.497 3.2086-3.0789 6.9e-5 -3.29e-4 -7e-5 -7.06e-4 0-1e-3 0.06492-0.6219 0.08681-1.3632 0.08681-2.2469v-3.7765c0-0.88366-0.02189-1.625-0.08681-2.2469-7e-5 -3.289e-4 6.9e-5 -7.049e-4 0-0.00103-0.33367-1.5819-1.6045-2.8063-3.2086-3.0789-0.50391-0.042306-1.0736-0.060978-1.7389-0.060978z" fill="url(#linearGradient1068)"/>
   <path d="m7.346 6.7548c-0.56426 0.0029739-1.5336 0.17178-2.0764 0.46767-0.33007 0.14712-0.70033 0.33465-1.1141 0.57309-0.41384 0.23844-0.87101 0.52757-1.3746 0.87798-0.50355 0.35041-1.0534 0.76184-1.6526 1.2449-0.046131 0.037191-0.072461 0.072573-0.11627 0.10955v0.21084c0 0.88727 0.022844 1.6312 0.088367 2.2546 0.33645 1.5811 1.6089 2.8042 3.2143 3.0737 0.4899 0.04082 1.0438 0.0587 1.6857 0.05943h4.5852c0.62298-8.46e-4 1.1659-0.01635 1.6438-0.05478 0.69826-0.11158 1.3352-0.40065 1.8604-0.82476-0.17125-0.17558-0.4172-0.4148-0.77308-0.71985-0.33169-0.28431-0.74078-0.60858-1.2211-0.94103-0.48033-0.33245-1.032-0.67322-1.6495-0.99115-0.61751-0.31793-1.2822-0.68652-1.8877-1.0914-0.30276-0.20243-0.59055-0.4137-0.85059-0.63252-0.26005-0.21882-0.49231-0.44531-0.68316-0.67696-0.19084-0.23164-0.34046-0.46861-0.43563-0.70952-0.095172-0.2409-0.13549-0.48565-0.10852-0.73226 0.026971-0.2466 0.12154-0.49489 0.29714-0.74362 0.17559-0.24873 0.4322-0.49788 0.7829-0.74517-0.061657-0.00647-0.13385-0.00921-0.21446-0.00878z" fill="url(#linearGradient1070)"/>
   <path d="m7.5599 6.7631c-0.34999 0.24679-0.60578 0.4954-0.78135 0.74362-3.439e-4 5.027e-4 -0.00124 0.00106-0.00156 0.00156v5.292e-4c-0.16904 0.23958-0.25559 0.47859-0.28629 0.71624-0.0054 0.060056-0.020386 0.14516-0.018087 0.20877 0.00169 0.14318 0.029276 0.28561 0.072347 0.42685 0.043461 0.14032 0.11522 0.29996 0.20205 0.45372 0.053651 0.091095 0.12083 0.19144 0.1881 0.28112 0.087822 0.12272 0.20445 0.23814 0.32349 0.36845 0.1371 0.1416 0.28662 0.27043 0.44855 0.40669 0.072841 0.0613 0.15666 0.1306 0.23358 0.19069 0.15298 0.11433 0.1934 0.14944 0.47181 0.34262 0.2851 0.19781 0.62068 0.42184 0.96377 0.62994 0.3491 0.2022 0.75473 0.41134 1.093 0.58549 0.64933 0.34222 1.2489 0.71547 1.7865 1.0909 0.36694 0.2572 0.7354 0.53911 1.0909 0.84336 0.2567 0.21972 0.50133 0.45533 0.73794 0.69763 0.74225-0.59736 1.26-1.4576 1.4216-2.4417 0.0591-0.68308 0.04937-1.3555 0.05684-1.8557-0.64595-0.30663-1.3615-0.6306-2.0159-0.99944-0.47556-0.26805-1.645-0.98678-2.8593-1.6154-0.60711-0.3143-1.2251-0.60644-1.7735-0.80822-0.47289-0.15102-0.87738-0.22526-1.3544-0.26768z" fill="url(#linearGradient1072)"/>
   <circle cx="12.313" cy="4.0662" r="1.0816" fill="#fff"/>
  </g>
 </g>
 <circle transform="matrix(1 0 0 1 -.17915 -.11606)" cx="12.032" cy="11.906" r="4.2333" fill="#141414" filter="url(#filter1357)" opacity=".3" stroke="url(#linearGradient1000)" stroke-dashoffset=".42096" stroke-width=".38817"/>
 <circle cx="11.853" cy="11.79" r="4.2333" fill="url(#linearGradient1739)"/>
 <circle cx="11.853" cy="11.79" r="3.4526" fill="url(#linearGradient952)" stroke="#131313" stroke-dashoffset=".42096" stroke-linecap="round" stroke-width=".098208"/>
 <g fill="none" stroke="#131313" stroke-linecap="round" stroke-width=".098208">
  <path d="m12.036 13.5s-1.8424 0.84336-3.4966-0.78477"/>
  <path d="m13.562 11.105s1.2915 1.5614 0.14697 3.5806"/>
  <path d="m10.732 10.307s1.1739-1.6516 3.4206-1.0687"/>
 </g>
 <circle cx="11.845" cy="11.712" r="1.8453" fill="url(#radialGradient123159)" stroke="url(#linearGradient123197)" stroke-width=".10973"/>
 <circle cx="11.802" cy="11.712" r="1.4869" fill="url(#radialGradient123131)" stroke="url(#linearGradient123149)" stroke-width=".10344"/>
 <circle cx="11.802" cy="11.712" r="1.1938" fill="url(#radialGradient123155)" stroke="url(#linearGradient123157)" stroke-width=".083055"/>
 <circle cx="11.853" cy="11.703" r=".59534" fill-opacity=".58824" stroke-width="2.118"/>
 <circle cx="11.853" cy="11.703" r=".49341" fill="url(#c-7)" stroke-width="2.633"/>
 <ellipse cx="11.828" cy="10.971" rx=".93491" ry=".69285" fill="#fafafa" opacity=".3" stroke="url(#linearGradient123141)" stroke-width=".10344"/>
 <circle cx="11.853" cy="11.703" r=".28076" fill="url(#linearGradient123161)" opacity=".15" stroke-width="1.7899"/>
</svg>
