<?xml version="1.0" encoding="UTF-8"?>
<svg width="64" height="64" version="1.1" viewBox="0 0 64 64" xmlns="http://www.w3.org/2000/svg">
 <defs>
  <filter id="filter1057-2-3" x="-.027" y="-.027" width="1.054" height="1.054" color-interpolation-filters="sRGB">
   <feGaussianBlur stdDeviation="0.61875"/>
  </filter>
  <linearGradient id="linearGradient1053-0-7" x1="-127" x2="-72" y1="60" y2="5" gradientTransform="translate(156.26 58.966)" gradientUnits="userSpaceOnUse">
   <stop offset="0"/>
   <stop stop-color="#4b4b4b" stop-opacity=".99608" offset="1"/>
  </linearGradient>
 </defs>
 <g transform="translate(-24.761 -59.476)">
  <rect x="29.261" y="63.976" width="55" height="55" ry="15" fill="#141414" filter="url(#filter1057-2-3)" opacity=".3" stroke-linecap="round" stroke-width="2.7444"/>
  <rect x="29.261" y="63.976" width="55" height="55" ry="15" fill="url(#linearGradient1053-0-7)" stroke-linecap="round" stroke-width="2.7444"/>
  <circle cx="56.761" cy="91.476" r="30.001" fill-opacity="0" stroke-width="1.5715"/>
  <path d="m56.761 66.802c-13.35 0-24.173 10.823-24.173 24.173 0 13.35 10.823 24.173 24.173 24.173s24.173-10.823 24.173-24.173c0-13.35-10.823-24.173-24.173-24.173zm0 1.7266c12.397 0 22.446 10.049 22.446 22.446 0 12.397-10.049 22.446-22.446 22.446s-22.446-10.049-22.446-22.446c0-12.397 10.049-22.446 22.446-22.446zm0 1.7266c-11.442 0-20.72 9.2772-20.72 20.72 0 11.443 9.2772 20.72 20.72 20.72s20.72-9.2772 20.72-20.72c0-11.443-9.2772-20.72-20.72-20.72zm0 1.7266c10.489 0 18.993 8.5037 18.993 18.993 0 10.489-8.5037 18.993-18.993 18.993s-18.993-8.5037-18.993-18.993c0-10.489 8.5037-18.993 18.993-18.993zm0 1.7266c-9.5362 0-17.266 7.7302-17.266 17.266 0 9.5358 7.7302 17.266 17.266 17.266s17.266-7.7302 17.266-17.266c0-9.5358-7.7302-17.266-17.266-17.266zm0 1.7266c8.5831 0 15.54 6.9584 15.54 15.54 0 8.5831-6.9584 15.54-15.54 15.54-8.5831 0-15.54-6.9584-15.54-15.54 0-8.5831 6.9584-15.54 15.54-15.54zm0 1.7266c-7.6283 0-13.813 6.1848-13.813 13.813s6.1848 13.813 13.813 13.813 13.813-6.1848 13.813-13.813-6.1848-13.813-13.813-13.813zm0 1.7266c6.6752 0 12.086 5.4113 12.086 12.086s-5.4113 12.086-12.086 12.086-12.086-5.4113-12.086-12.086 5.4113-12.086 12.086-12.086zm0 1.7266c-5.7221 0-10.36 4.6378-10.36 10.36s4.6378 10.36 10.36 10.36 10.36-4.6378 10.36-10.36-4.6378-10.36-10.36-10.36z" fill="#414141"/>
  <circle cx="56.761" cy="90.947" r="9.9997" fill="#ff9b14" stroke-width="3.7796" style="paint-order:normal"/>
  <circle cx="56.761" cy="90.947" r="2.0001" fill="#fff" fill-rule="evenodd"/>
 </g>
</svg>
