<?xml version="1.0" encoding="UTF-8" standalone="no"?>
<svg
   xmlns:dc="http://purl.org/dc/elements/1.1/"
   xmlns:cc="http://creativecommons.org/ns#"
   xmlns:rdf="http://www.w3.org/1999/02/22-rdf-syntax-ns#"
   xmlns:svg="http://www.w3.org/2000/svg"
   xmlns="http://www.w3.org/2000/svg"
   xmlns:sodipodi="http://sodipodi.sourceforge.net/DTD/sodipodi-0.dtd"
   xmlns:inkscape="http://www.inkscape.org/namespaces/inkscape"
   width="64"
   height="64"
   version="1.1"
   viewBox="0 0 64 64"
   id="svg22"
   sodipodi:docname="extensions.svg"
   inkscape:version="1.0.1 (3bc2e813f5, 2020-09-07, custom)">
  <metadata
     id="metadata26">
    <rdf:RDF>
      <cc:Work
         rdf:about="">
        <dc:format>image/svg+xml</dc:format>
        <dc:type
           rdf:resource="http://purl.org/dc/dcmitype/StillImage" />
        <dc:title></dc:title>
      </cc:Work>
    </rdf:RDF>
  </metadata>
  <sodipodi:namedview
     pagecolor="#ffffff"
     bordercolor="#666666"
     borderopacity="1"
     objecttolerance="10"
     gridtolerance="10"
     guidetolerance="10"
     inkscape:pageopacity="0"
     inkscape:pageshadow="2"
     inkscape:window-width="1920"
     inkscape:window-height="942"
     id="namedview24"
     showgrid="false"
     inkscape:zoom="3.0273438"
     inkscape:cx="-36.020928"
     inkscape:cy="21.78838"
     inkscape:window-x="0"
     inkscape:window-y="38"
     inkscape:window-maximized="1"
     inkscape:current-layer="svg22" />
  <defs
     id="defs12">
    <linearGradient
       id="e"
       x1="32"
       x2="32"
       y1="16"
       y2="48"
       gradientUnits="userSpaceOnUse"
       gradientTransform="translate(1.5543233,-1.4955736)">
      <stop
         stop-color="#fff"
         offset="0"
         id="stop2" />
      <stop
         stop-color="#c3ffd8"
         offset="1"
         id="stop4"
         style="stop-color:#bffde9;stop-opacity:1" />
    </linearGradient>
    <linearGradient
       id="linearGradient862-3"
       x1="7.9373"
       x2="7.9373"
       y1="15.081"
       y2="1.852"
       gradientTransform="matrix(3.7796,0,0,3.7796,56.030222,-13.081487)"
       gradientUnits="userSpaceOnUse">
      <stop
         stop-color="#31d044"
         offset="0"
         id="stop7" />
      <stop
         stop-color="#47f382"
         offset="1"
         id="stop9" />
    </linearGradient>
    <style
       type="text/css"
       id="style4" />
    <style
       type="text/css"
       id="style6" />
    <style
       type="text/css"
       id="style8" />
    <filter
       id="filter2761"
       x="-.024"
       y="-.024"
       width="1.048"
       height="1.048"
       color-interpolation-filters="sRGB">
      <feGaussianBlur
         stdDeviation="0.14552168"
         id="feGaussianBlur10" />
    </filter>
    <linearGradient
       id="linearGradient1024-6"
       x1="1.3315"
       x2="15.65"
       y1="15.576"
       y2="1.17"
       gradientTransform="matrix(3.7796,0,0,3.7796,1.2128898,-6.4191942)"
       gradientUnits="userSpaceOnUse">
      <stop
         stop-color="#00dc96"
         offset="0"
         id="stop13" />
      <stop
         stop-color="#14d29b"
         offset="1"
         id="stop15" />
    </linearGradient>
    <style
       type="text/css"
       id="style903" />
    <style
       type="text/css"
       id="style905" />
    <style
       type="text/css"
       id="style907" />
    <style
       type="text/css"
       id="style909" />
    <filter
       id="filter1057"
       x="-.027"
       y="-.027"
       width="1.054"
       height="1.054"
       color-interpolation-filters="sRGB">
      <feGaussianBlur
         stdDeviation="0.61875"
         id="feGaussianBlur911" />
    </filter>
    <linearGradient
       id="linearGradient1053"
       x1="-127"
       x2="-72"
       y1="60"
       y2="5"
       gradientTransform="translate(131.5,-0.51)"
       gradientUnits="userSpaceOnUse">
      <stop
         stop-color="#02db96"
         offset="0"
         id="stop914" />
      <stop
         stop-color="#13d39b"
         offset="1"
         id="stop916" />
    </linearGradient>
    <style
       type="text/css"
       id="style919" />
    <style
       type="text/css"
       id="style921" />
    <style
       type="text/css"
       id="style923" />
  </defs>
  <rect
     x="4.4999995"
     y="4.4999995"
     width="55"
     height="55"
     ry="15"
     fill="#141414"
     filter="url(#filter1057)"
     opacity="0.3"
     stroke-linecap="round"
     stroke-width="2.7444"
     id="rect927" />
  <rect
     x="4.5"
     y="4.5"
     width="55"
     height="55"
     ry="15"
     fill="url(#linearGradient1053)"
     stroke-linecap="round"
     stroke-width="2.7444"
     id="rect929"
     style="fill:url(#linearGradient1053)" />
  <path
     d="m 45.744323,29.742426 h -2.2857 v -6.0952 c 0,-1.6762 -1.3714,-3.0476 -3.0476,-3.0476 h -6.0952 v -2.2857 c 0,-2.1333 -1.6762,-3.8095 -3.8095,-3.8095 -2.1333,0 -3.8095,1.6762 -3.8095,3.8095 v 2.2857 h -6.0952 c -1.6762,0 -3.0476,1.3714 -3.0476,3.0476 v 5.7905 h 2.2857 c 2.2857,0 4.1143,1.8286 4.1143,4.1143 0,2.2857 -1.8286,4.1143 -4.1143,4.1143 h -2.2857 v 5.7905 c 0,1.6762 1.3714,3.0476 3.0476,3.0476 h 5.7905 v -2.2857 c 0,-2.2857 1.8286,-4.1143 4.1143,-4.1143 2.2857,0 4.1143,1.8286 4.1143,4.1143 v 2.2857 h 5.7905 c 1.6762,0 3.0476,-1.3714 3.0476,-3.0476 v -6.0952 h 2.2857 c 2.1333,0 3.8095,-1.6762 3.8095,-3.8095 0,-2.1333 -1.6762,-3.8095 -3.8095,-3.8095 z"
     fill="url(#e)"
     id="path20"
     style="fill:url(#e)" />
  <g
     fill="#5e4aa6"
     id="g60"
     transform="translate(-74.160584)">
    <circle
       cx="-1248.7"
       cy="-1241.6"
       r="0"
       id="circle20" />
    <circle
       cx="-149.14999"
       cy="23.855"
       r="0"
       fill-rule="evenodd"
       id="circle22" />
    <circle
       cx="-1150.9"
       cy="-1256.6"
       r="0"
       id="circle24" />
    <circle
       cx="-51.327"
       cy="8.8744001"
       r="0"
       fill-rule="evenodd"
       id="circle26" />
    <g
       transform="matrix(3.7796,0,0,3.7796,167.86,4.61)"
       stroke-width="0.26458"
       id="g58">
      <g
         transform="translate(-0.0272,0.0065001)"
         id="g36">
        <circle
           cx="-330.35001"
           cy="-328.38"
           r="0"
           id="circle28" />
        <circle
           cx="-312.10999"
           cy="-326.25"
           r="0"
           id="circle30" />
        <circle
           cx="-306.01999"
           cy="-333.07001"
           r="0"
           id="circle32" />
        <circle
           cx="-308.84"
           cy="-326.01001"
           r="0"
           id="circle34" />
      </g>
      <g
         transform="translate(-0.0272,0.0065001)"
         id="g46">
        <circle
           cx="-330.35001"
           cy="-328.38"
           r="0"
           id="circle38" />
        <circle
           cx="-312.10999"
           cy="-326.25"
           r="0"
           id="circle40" />
        <circle
           cx="-306.01999"
           cy="-333.07001"
           r="0"
           id="circle42" />
        <circle
           cx="-308.84"
           cy="-326.01001"
           r="0"
           id="circle44" />
      </g>
      <g
         transform="translate(-0.02705,0.0064503)"
         id="g56">
        <circle
           cx="-330.35001"
           cy="-328.38"
           r="0"
           id="circle48" />
        <circle
           cx="-312.10999"
           cy="-326.25"
           r="0"
           id="circle50" />
        <circle
           cx="-306.01999"
           cy="-333.07001"
           r="0"
           id="circle52" />
        <circle
           cx="-308.84"
           cy="-326.01001"
           r="0"
           id="circle54" />
      </g>
    </g>
  </g>
  <circle
     cx="-1472.8641"
     cy="-1261.2"
     r="0"
     fill="#5e4aa6"
     id="circle935" />
  <circle
     cx="-1478.49"
     cy="-1272.89"
     r="0"
     id="circle937"
     style="fill:#5e4aa6" />
  <circle
     cx="-378.94"
     cy="-7.4350004"
     r="0"
     fill-rule="evenodd"
     id="circle939"
     style="fill:#5e4aa6" />
  <circle
     cx="-1478.49"
     cy="-1272.89"
     r="0"
     id="circle941"
     style="fill:#5e4aa6" />
  <circle
     cx="-378.94"
     cy="-7.4350004"
     r="0"
     fill-rule="evenodd"
     id="circle943"
     style="fill:#5e4aa6" />
  <circle
     cx="-1380.6901"
     cy="-1287.89"
     r="0"
     id="circle945"
     style="fill:#5e4aa6" />
  <circle
     cx="-281.117"
     cy="-22.4156"
     r="0"
     fill-rule="evenodd"
     id="circle947"
     style="fill:#5e4aa6" />
  <g
     transform="matrix(3.7796,0,0,3.7796,-61.929994,-26.68)"
     stroke-width="0.26458"
     id="g977"
     style="fill:#5e4aa6">
    <g
       transform="translate(-0.0272,0.0065001)"
       id="g965">
      <circle
         cx="-330.35001"
         cy="-328.38"
         r="0"
         id="circle949" />
      <circle
         cx="-312.10999"
         cy="-326.25"
         r="0"
         id="circle951" />
      <circle
         cx="-306.01999"
         cy="-333.07001"
         r="0"
         id="circle953" />
      <circle
         cx="-308.84"
         cy="-326.01001"
         r="0"
         id="circle955" />
      <circle
         cx="-330.35001"
         cy="-328.38"
         r="0"
         id="circle957" />
      <circle
         cx="-312.10999"
         cy="-326.25"
         r="0"
         id="circle959" />
      <circle
         cx="-306.01999"
         cy="-333.07001"
         r="0"
         id="circle961" />
      <circle
         cx="-308.84"
         cy="-326.01001"
         r="0"
         id="circle963" />
    </g>
    <g
       transform="translate(-0.02705,0.0064503)"
       id="g975">
      <circle
         cx="-330.35001"
         cy="-328.38"
         r="0"
         id="circle967" />
      <circle
         cx="-312.10999"
         cy="-326.25"
         r="0"
         id="circle969" />
      <circle
         cx="-306.01999"
         cy="-333.07001"
         r="0"
         id="circle971" />
      <circle
         cx="-308.84"
         cy="-326.01001"
         r="0"
         id="circle973" />
    </g>
  </g>
</svg>
