<?xml version="1.0" encoding="UTF-8"?>
<svg width="64" height="64" version="1.1" viewBox="0 0 16.933 16.933" xmlns="http://www.w3.org/2000/svg" xmlns:cc="http://creativecommons.org/ns#" xmlns:dc="http://purl.org/dc/elements/1.1/" xmlns:rdf="http://www.w3.org/1999/02/22-rdf-syntax-ns#">
 <defs>
  <filter id="filter2076-6" x="-.048" y="-.048" width="1.096" height="1.096" color-interpolation-filters="sRGB">
   <feGaussianBlur stdDeviation="1.1"/>
  </filter>
 </defs>
 <metadata>
  <rdf:RDF>
   <cc:Work rdf:about="">
    <dc:format>image/svg+xml</dc:format>
    <dc:type rdf:resource="http://purl.org/dc/dcmitype/StillImage"/>
   </cc:Work>
  </rdf:RDF>
 </metadata>
 <g transform="translate(15.065 .50486)">
  <rect transform="matrix(.26458 0 0 .26458 -15.065 -.50486)" x="4.5" y="4.5" width="55" height="55" rx="13.002" ry="13.002" filter="url(#filter2076-6)" opacity=".3"/>
  <path d="m-10.434 0.68574c-1.9058 0-3.44 1.5342-3.44 3.44v7.6717c0 1.9058 1.5342 3.44 3.44 3.44h7.6717c1.9058 0 3.44-1.5342 3.44-3.44v-7.6717c0-1.9058-1.5342-3.44-3.44-3.44z" fill="#f5aa1e" stroke-linecap="round" stroke-width=".079373" style="paint-order:stroke fill markers"/>
  <path d="m-10.213 2.2732c-1.1488 0-2.0737 0.92498-2.0737 2.0737v7.2294c0 1.1488 0.92498 2.0737 2.0737 2.0737h7.2294c1.1488 0 2.0737-0.92498 2.0737-2.0737v-7.2294c0-1.1488-0.92498-2.0737-2.0737-2.0737z" fill="#fafafa" stroke-linecap="round" stroke-width=".079373" style="paint-order:stroke fill markers"/>
  <g fill="#f08705">
   <path d="m-10.945 6.3652c-0.0057 0.039649-0.0092 0.081-0.01463 0.12163h8.7213c-0.0051-0.040625-0.0089-0.082011-0.0152-0.12163z" opacity=".6" stroke-width=".68981" style="paint-order:normal"/>
   <path d="m-10.801 3.7228c0.0051 0.040625 0.0099 0.081176 0.01548 0.12163h8.376c0.0052-0.043705 0.0097-0.078492 0.01437-0.12163z" opacity=".6" stroke-width=".67718" style="paint-order:normal"/>
   <path d="m-10.945 9.0075c-0.0057 0.039649-0.0092 0.081-0.01463 0.12163h8.7213c-0.0051-0.040625-0.0089-0.082011-0.0152-0.12163z" opacity=".6" stroke-width=".68981" style="paint-order:normal"/>
   <path d="m-10.945 11.65c-0.0057 0.03965-0.0092 0.081-0.01463 0.12163h8.7213c-0.0051-0.04063-0.0089-0.08201-0.0152-0.12163z" opacity=".6" stroke-width=".68981" style="paint-order:normal"/>
  </g>
  <path d="m-13.313 3.085c-0.31183 0-0.56274 0.25092-0.56274 0.56275v1.8278c0 0.022682 0.0041 0.044178 0.0067 0.066145-0.0055 0.54053-0.0052 1.1567-0.0052 1.9652v0.22427h-5.16e-4v4.0663c0 0.03645 0.0041 0.07184 0.0052 0.108 2e-3 0.05118 0.0031 0.10258 0.0078 0.15296 0.12639 1.6956 1.4693 3.0388 3.1646 3.1662 0.08518 0.0081 0.17144 0.0128 0.25941 0.01292 0.0012 3e-6 0.0024 0 0.0036 0h7.6712 5.17e-4c0.08936 0 0.17707-0.0047 0.26354-0.01292 1.691-0.12755 3.0311-1.4649 3.1625-3.1548 0.0087-0.08956 0.01395-0.18019 0.01395-0.27233v-4.1439c1.6e-5 -0.00177 5.17e-4 -0.0034 5.17e-4 -0.00517v-1.8278c0-0.31183-0.25092-0.56275-0.56274-0.56275h-6.0068c-0.27152 0-0.48409-0.01833-0.66041-0.065111-0.17632-0.04678-0.31607-0.12227-0.44079-0.23564-0.12474-0.11337-0.23466-0.2648-0.3514-0.46456-0.11674-0.19977-0.24036-0.44746-0.39273-0.75343-0.07349-0.18081-0.17612-0.31227-0.28835-0.4072-0.11223-0.094932-0.23385-0.15348-0.34674-0.18965-0.22578-0.072339-0.41495-0.054259-0.41495-0.054259h-2.5533c-0.01048-5.76e-4 -0.02036-0.0031-0.03101-0.0031h-0.91517z" fill="#ffc841" stroke-width=".26458"/>
  <rect x="-12.386" y="4.6948" width="3.6545" height=".52916" rx="0" ry=".26458" fill="#f5aa1e" stroke-width=".85263" style="paint-order:fill markers stroke"/>
 </g>
</svg>
