<?xml version="1.0" encoding="UTF-8"?>
<svg width="64" height="64" version="1.1" viewBox="0 0 64 64" xmlns="http://www.w3.org/2000/svg" xmlns:xlink="http://www.w3.org/1999/xlink">
 <defs>
  <filter id="filter1057-2" x="-.027" y="-.027" width="1.054" height="1.054" color-interpolation-filters="sRGB">
   <feGaussianBlur stdDeviation="0.61875"/>
  </filter>
  <linearGradient id="linearGradient1053-7" x1="-127" x2="-72" y1="60" y2="5" gradientTransform="translate(181.5 14.616)" gradientUnits="userSpaceOnUse">
   <stop stop-color="#8cd750" offset="0"/>
   <stop stop-color="#7dcd32" stop-opacity=".99608" offset=".49585"/>
   <stop stop-color="#87d241" stop-opacity=".99608" offset="1"/>
  </linearGradient>
  <linearGradient id="linearGradient1277" x1="32.153" x2="32.153" y1="46.593" y2="4.0937" gradientTransform="matrix(1.0289 0 0 1.0289 49.111 15.034)" gradientUnits="userSpaceOnUse">
   <stop stop-color="#d1ecba" offset="0"/>
   <stop stop-color="#d1ecba" stop-opacity="0" offset="1"/>
  </linearGradient>
  <filter id="filter2105" x="-.29796" y="-.12895" width="1.5959" height="1.2579" color-interpolation-filters="sRGB">
   <feGaussianBlur stdDeviation="0.44165673"/>
  </filter>
 </defs>
 <g transform="translate(-50.003 -15.126)">
  <rect x="54.503" y="19.626" width="55" height="55" ry="15" fill="#141414" filter="url(#filter1057-2)" opacity=".3" stroke-linecap="round" stroke-width="2.7444"/>
  <rect x="54.503" y="19.626" width="55" height="55" ry="15" fill="url(#linearGradient1053-7)" stroke-linecap="round" stroke-width="2.7444"/>
  <path d="m69.503 19.626c-8.31 0-15 6.69-15 15v2.7988l27.691 25.549 27.309-25.541v-2.8066c0-8.31-6.69-15-15-15z" fill="url(#linearGradient1277)"/>
  <rect transform="matrix(-.70711 .70711 .70711 .70711 0 0)" x="-16.023" y="85.322" width="3.182" height="17.694" ry="1.591" fill="#fafafa" stroke-width="3.7796"/>
  <path transform="matrix(3.7796 0 0 3.7796 49.921 16.382)" d="m8.0959 4.1418c-0.2332 0-0.42064 0.18795-0.42064 0.42115v7.3782c0 0.02186 0.00302 0.04261 0.0062 0.06356 8.244e-4 0.0053 5.196e-4 0.01072 0.00155 0.01602 0.00466 0.02441 0.012529 0.04758 0.021187 0.07028 0.00105 0.0027 0.00148 0.0056 0.00258 0.0083 0.042594 0.10511 0.12587 0.18891 0.23099 0.2315 0.00357 0.0015 0.00725 0.0023 0.010852 0.0036 0.021897 0.0082 0.044217 0.01515 0.067695 0.01964 0.026507 0.0052 0.053197 0.0078 0.080097 0.0078 0.027375-3.4e-5 0.054209-0.0028 0.080097-0.0078 1.62e-4 -3.1e-5 3.551e-4 3.2e-5 5.168e-4 0 0.019902-0.0039 0.03858-0.01052 0.05736-0.01705 0.00709-0.0025 0.014792-0.0034 0.021704-0.0062 0.023-0.0094 0.044382-0.02147 0.065111-0.03462 0.00234-0.0015 0.00492-0.0026 0.00723-0.0041 0.023591-0.01563 0.045719-0.0338 0.065628-0.05374l0.00258-0.0026 2.7124-2.7124c0.1649-0.1649 0.1649-0.4304 0-0.5953s-0.4304-0.1649-0.5953 0l-1.9967 1.9967v-6.3618c0-0.2332-0.18795-0.42115-0.42115-0.42115z" fill="#80d03a" filter="url(#filter2105)"/>
  <path d="m81.924 32.036c-0.8814 0-1.5899 0.71038-1.5899 1.5918v27.887c0 0.08262 0.01141 0.16105 0.02343 0.24023 0.0031 0.02003 2e-3 0.04052 0.0059 0.06055 0.01761 0.09226 0.04736 0.17983 0.08008 0.26563 4e-3 0.0102 0.0056 0.02117 0.0098 0.03137 0.16099 0.39727 0.47574 0.714 0.87305 0.87498 0.01349 0.0057 0.0274 0.0087 0.04102 0.01361 0.08276 0.03099 0.16712 0.05726 0.25586 0.07423 0.10019 0.01965 0.20106 0.02948 0.30273 0.02948 0.10347-1.28e-4 0.20489-0.01058 0.30274-0.02948 6.12e-4 -1.17e-4 0.0013 1.21e-4 2e-3 0 0.07522-0.01474 0.14582-0.03976 0.2168-0.06444 0.0268-0.0094 0.05591-0.01285 0.08203-0.02343 0.08693-0.03553 0.16775-0.08115 0.24609-0.13085 0.0088-0.0057 0.01859-0.0098 0.02733-0.0155 0.08916-0.05907 0.1728-0.12775 0.24805-0.20312l10.262-10.262c0.62326-0.62326 0.62326-1.6267 0-2.25-0.62326-0.62326-1.6267-0.62326-2.25 0l-7.5467 7.5467v-24.045c0-0.8814-0.71038-1.5918-1.5918-1.5918z" fill="#fafafa" stroke-width="3.7796"/>
 </g>
</svg>
