<?xml version="1.0" encoding="UTF-8" standalone="no"?>
<svg
   inkscape:version="1.1.2 (0a00cf5339, 2022-02-04)"
   sodipodi:docname="FoxitReader.svg"
   id="svg25"
   viewBox="0 0 64 64"
   version="1.1"
   height="64"
   width="64"
   xmlns:inkscape="http://www.inkscape.org/namespaces/inkscape"
   xmlns:sodipodi="http://sodipodi.sourceforge.net/DTD/sodipodi-0.dtd"
   xmlns="http://www.w3.org/2000/svg"
   xmlns:svg="http://www.w3.org/2000/svg"
   xmlns:rdf="http://www.w3.org/1999/02/22-rdf-syntax-ns#"
   xmlns:cc="http://creativecommons.org/ns#"
   xmlns:dc="http://purl.org/dc/elements/1.1/">
  <metadata
     id="metadata29">
    <rdf:RDF>
      <cc:Work
         rdf:about="">
        <dc:format>image/svg+xml</dc:format>
        <dc:type
           rdf:resource="http://purl.org/dc/dcmitype/StillImage" />
        <dc:title />
      </cc:Work>
    </rdf:RDF>
  </metadata>
  <sodipodi:namedview
     inkscape:current-layer="svg25"
     inkscape:window-maximized="1"
     inkscape:window-y="0"
     inkscape:window-x="0"
     inkscape:cy="70.750818"
     inkscape:cx="-23.111934"
     inkscape:zoom="4.2402337"
     showgrid="false"
     id="namedview27"
     inkscape:window-height="1022"
     inkscape:window-width="1920"
     inkscape:pageshadow="2"
     inkscape:pageopacity="0"
     guidetolerance="10"
     gridtolerance="10"
     objecttolerance="10"
     borderopacity="1"
     bordercolor="#666666"
     pagecolor="#ffffff"
     inkscape:document-rotation="0"
     inkscape:pagecheckerboard="0"
     inkscape:object-paths="false"
     inkscape:snap-bbox="true"
     inkscape:bbox-paths="true"
     inkscape:snap-bbox-edge-midpoints="false" />
  <defs
     id="defs7">
    <linearGradient
       gradientUnits="userSpaceOnUse"
       gradientTransform="matrix(0.05623,0,0,0.05623,0.071601,-0.05278)"
       y2="160"
       y1="120"
       x2="160"
       x1="135"
       id="a">
      <stop
         id="stop2"
         offset="0"
         stop-color="#eff7fc" />
      <stop
         id="stop4"
         offset="1"
         stop-color="#fff" />
    </linearGradient>
    <filter
       id="filter2761"
       x="-.024"
       y="-.024"
       width="1.048"
       height="1.048"
       color-interpolation-filters="sRGB">
      <feGaussianBlur
         stdDeviation="0.14552168"
         id="feGaussianBlur854" />
    </filter>
    <linearGradient
       id="linearGradient1024-1"
       x1="1.3315"
       x2="15.65"
       y1="15.576"
       y2="1.17"
       gradientTransform="matrix(3.779602,0,0,3.779602,-6.8543425,-22.411134)"
       gradientUnits="userSpaceOnUse">
      <stop
         stop-color="#00c8ff"
         offset="0"
         id="stop857" />
      <stop
         stop-color="#14a0ff"
         offset="1"
         id="stop859" />
    </linearGradient>
    <filter
       id="filter1655"
       x="-.0735"
       y="-.098"
       width="1.147"
       height="1.196"
       color-interpolation-filters="sRGB">
      <feGaussianBlur
         stdDeviation="0.32410824"
         id="feGaussianBlur862" />
    </filter>
    <linearGradient
       id="linearGradient1005"
       x1=".73911"
       x2="16.388"
       y1="16.296"
       y2=".64687"
       gradientTransform="matrix(3.7795018,0,0,3.7795018,86.300388,-73.914204)"
       gradientUnits="userSpaceOnUse">
      <stop
         stop-color="#00a0ff"
         offset="0"
         id="stop912" />
      <stop
         stop-color="#37beff"
         offset="1"
         id="stop914" />
    </linearGradient>
    <linearGradient
       id="w"
       x1="123.64"
       x2="146.53"
       y1="131.03"
       y2="174.71"
       gradientTransform="matrix(4.2812,0,0,3.5908,41,42)"
       gradientUnits="userSpaceOnUse">
      <stop
         stop-color="#fafafa"
         offset="0"
         id="stop917" />
      <stop
         stop-color="#fff"
         offset="1"
         id="stop919" />
    </linearGradient>
    <filter
       id="filter1152"
       x="-0.055255153"
       y="-0.0656407"
       width="1.1105103"
       height="1.1312814"
       color-interpolation-filters="sRGB">
      <feGaussianBlur
         stdDeviation="2.9934784"
         id="feGaussianBlur922" />
    </filter>
    <style
       type="text/css"
       id="style864" />
    <filter
       id="filter1057"
       x="-0.026999999"
       y="-0.026999999"
       width="1.054"
       height="1.054"
       color-interpolation-filters="sRGB">
      <feGaussianBlur
         stdDeviation="0.61875"
         id="feGaussianBlur866" />
    </filter>
    <linearGradient
       id="linearGradient1053"
       x1="-127"
       x2="-72"
       y1="60"
       y2="5"
       gradientTransform="translate(131.50001,-0.51)"
       gradientUnits="userSpaceOnUse">
      <stop
         stop-color="#32d7ff"
         offset="0"
         id="stop869" />
      <stop
         stop-color="#329bff"
         offset="1"
         id="stop871" />
    </linearGradient>
    <style
       type="text/css"
       id="style874" />
    <style
       type="text/css"
       id="style876" />
    <style
       type="text/css"
       id="style878" />
    <style
       type="text/css"
       id="style880" />
    <style
       type="text/css"
       id="style882" />
    <style
       type="text/css"
       id="style884" />
    <style
       type="text/css"
       id="style886" />
    <path
       id="SVGID_61_"
       d="M309.4,297.7c5.7-6.4,11.2-13.6,16.3-22.1" />
    <path
       id="SVGID_60_"
       d="M74.3,275.6c5.1,8.5,10.6,15.7,16.2,22" />
    <path
       id="SVGID_59_"
       d="M53.5,203.2c0.1,6.7,0.7,13.4,1.8,20l0,0l0,0l0,0c3.1,19.1,9.7,36.8,19.1,52.4" />
    <path
       id="SVGID_58_"
       d="M325.7,275.6c12.8-21.3,20.6-45.6,21-72.3" />
    <clipPath
       clipPathUnits="userSpaceOnUse"
       id="clipPath24926">
      <rect
         x="4.4984231"
         y="4.5199857"
         width="53.783337"
         height="53.783337"
         ry="14.668182"
         fill="url(#linearGradient1053)"
         stroke-linecap="round"
         stroke-width="2.68369"
         id="rect24928"
         style="fill:#e6e6e6;fill-opacity:1;stroke:none" />
    </clipPath>
    <filter
       id="filter1057-3"
       x="-0.026999999"
       y="-0.026999999"
       width="1.054"
       height="1.054"
       color-interpolation-filters="sRGB">
      <feGaussianBlur
         stdDeviation="0.61875"
         id="feGaussianBlur866-6" />
    </filter>
  </defs>
  <g
     id="g937"
     stroke-width="0.26458"
     fill="#5e4aa6"
     transform="matrix(3.779602,0,0,3.779602,3.9134265,-70.54798)">
    <circle
       id="circle929"
       r="0"
       cy="-328.38"
       cx="-330.35001" />
    <circle
       id="circle931"
       r="0"
       cy="-326.25"
       cx="-312.10999" />
    <circle
       id="circle933"
       r="0"
       cy="-333.07001"
       cx="-306.01999" />
    <circle
       id="circle935"
       r="0"
       cy="-326.01001"
       cx="-308.84" />
  </g>
  <circle
     cx="-968.94611"
     cy="-1279.3"
     r="0"
     fill="#5e4aa6"
     id="circle890" />
  <circle
     cx="-850.492"
     cy="-1318.599"
     r="0"
     id="circle892"
     style="fill:#5e4aa6;stroke-width:1.00001" />
  <circle
     cx="249.04576"
     cy="-53.108505"
     r="0"
     fill-rule="evenodd"
     id="circle894"
     style="fill:#5e4aa6;stroke-width:1.00001" />
  <circle
     cx="-771.98975"
     cy="-1390.1091"
     r="0"
     id="circle896"
     style="fill:#5e4aa6;stroke-width:1.00001" />
  <circle
     cx="327.54501"
     cy="-124.58187"
     r="0"
     fill-rule="evenodd"
     id="circle898"
     style="fill:#5e4aa6;stroke-width:1.00001" />
  <style
     type="text/css"
     id="style149">
	.st0{clip-path:url(#SVGID_1_);}
	.st1{clip-path:url(#SVGID_2_);}
	.st2{clip-path:url(#SVGID_3_);}
	.st3{clip-path:url(#SVGID_4_);fill:none;stroke:#002C5B;stroke-width:6;stroke-miterlimit:10;}
	.st4{fill-rule:evenodd;clip-rule:evenodd;fill:#192E45;}
	.st5{fill-rule:evenodd;clip-rule:evenodd;fill:#D0933A;}
	.st6{fill-rule:evenodd;clip-rule:evenodd;fill:#FFCC86;}
	.st7{fill-rule:evenodd;clip-rule:evenodd;fill:#FDD321;}
	.st8{fill:#FFFFFF;}
	.st9{fill:#1D2A3A;}
	.st10{fill:#192E45;}
</style>
  <g
     id="g87"
     transform="matrix(1.3592499,0,0,1.3592499,-1.008298,-0.13957515)" />
  <path
     style="fill:#e6e6e6;fill-opacity:1;stroke-width:0.00390625"
     d=""
     id="path5929" />
  <path
     style="fill:#e6e6e6;fill-opacity:1;stroke-width:0.00390625"
     d=""
     id="path5968" />
  <path
     style="fill:#e6e6e6;fill-opacity:1;stroke-width:0.0186694"
     d=""
     id="path6124" />
  <style
     type="text/css"
     id="style69">
	.st0{fill:#9397CD;}
	.st1{fill:#262A33;}
	.st2{fill:#FFFFFF;}
</style>
  <rect
     x="4.4999995"
     y="4.4999995"
     width="55"
     height="55"
     ry="15"
     fill="#141414"
     filter="url(#filter1057)"
     opacity="0.3"
     stroke-linecap="round"
     stroke-width="2.7444"
     id="rect902"
     style="filter:url(#filter1057-3)" />
  <rect
     x="4.5"
     y="4.5"
     width="55"
     height="55"
     ry="15"
     fill="url(#linearGradient1053)"
     stroke-linecap="round"
     stroke-width="2.7444"
     id="rect904"
     style="fill:#f18d00;fill-opacity:1;stroke:none" />
  <rect
     fill="#f18d00"
     width="50.495674"
     height="50.495674"
     x="-55.645473"
     y="-57.220886"
     rx="25.247837"
     ry="25.247837"
     transform="matrix(0,-1,-1,0,0,0)"
     id="rect1136"
     style="stroke-width:1.80342" />
  <g
     id="g3239"
     transform="translate(0.0138721,0.70051865)">
    <path
       fill-rule="evenodd"
       opacity="0.2"
       d="M 50.005415,26.733092 C 46.625811,12.44534 33.644816,12.565087 25.807166,16.295094 17.559058,20.464414 11.58614,31.147856 14.843833,40.094789 19.878793,53.591561 38.41269,53.389579 44.684974,40.837796 46.5461,36.235476 47.91309,32.967685 42.79319,28.594398 v 5.410251 l -1.803417,-3.606834 c 0,0 -1.600605,3.783569 -3.300975,5.509259 -2.366083,2.400348 -5.716832,1.704229 -5.716832,1.704229 0.632459,2.39079 5.410251,3.606834 5.410251,3.606834 -12.40282,5.870122 -12.765667,-3.940646 -12.623919,-6.31196 0.407031,-6.824851 5.894108,-12.121487 13.122925,-11.741507 2.304767,0.176735 6.714121,1.823255 6.714121,1.823255 -1.659053,-3.796373 -4.02162,-4.699705 -5.410251,-5.410251 5.443434,-1.799918 8.348739,3.882576 10.820502,7.154516 z"
       id="path1138"
       style="stroke-width:1.80342" />
    <path
       fill="#ffffff"
       fill-rule="evenodd"
       d="M 50.03316,24.929675 C 46.653556,10.641923 33.672561,10.76167 25.834911,14.491677 17.586803,18.660276 11.613885,29.344439 14.871578,38.291372 c 5.03496,13.496772 23.568857,13.29479 29.841141,0.743007 1.861126,-4.60232 3.228116,-7.870111 -1.891784,-12.243398 v 5.410251 l -1.803417,-3.606834 c 0,0 -1.600605,3.783569 -3.300975,5.509259 -2.366083,2.400348 -5.716832,1.704229 -5.716832,1.704229 0.632459,2.39079 5.410251,3.606834 5.410251,3.606834 -12.40282,5.870122 -12.765667,-3.940646 -12.623919,-6.31196 0.407031,-6.824851 5.894108,-12.121487 13.122925,-11.741507 2.304767,0.176735 6.714121,1.823255 6.714121,1.823255 -1.659143,-3.796373 -4.02162,-4.699705 -5.410251,-5.410251 5.443434,-1.799918 8.348739,3.882576 10.820502,7.154516 z"
       id="path1140"
       style="stroke-width:1.80342" />
  </g>
</svg>
