<?xml version="1.0" encoding="UTF-8"?>
<svg width="64" height="64" version="1.1" viewBox="0 0 64 64" xmlns="http://www.w3.org/2000/svg">
 <defs>
  <filter id="filter1057-2-7" x="-.027" y="-.027" width="1.054" height="1.054" color-interpolation-filters="sRGB">
   <feGaussianBlur stdDeviation="0.61875"/>
  </filter>
  <linearGradient id="linearGradient1053-0" x1="-127" x2="-72" y1="60" y2="5" gradientTransform="translate(183.2 34.011)" gradientUnits="userSpaceOnUse">
   <stop stop-color="#1d2123" offset="0"/>
   <stop stop-color="#33393e" stop-opacity=".99608" offset="1"/>
  </linearGradient>
 </defs>
 <g transform="translate(-51.704 -34.521)">
  <rect x="56.204" y="39.021" width="55" height="55" ry="15" fill="#141414" filter="url(#filter1057-2-7)" opacity=".3" stroke-linecap="round" stroke-width="2.7444"/>
  <rect x="56.204" y="39.021" width="55" height="55" ry="15" fill="url(#linearGradient1053-0)" stroke-linecap="round" stroke-width="2.7444"/>
  <circle cx="83.704" cy="66.521" r="30.001" fill-opacity="0" stroke-width="1.5715"/>
  <path d="m83.704 50.261c-4.7893 0-9.2971 1.5209-12.691 4.2832-3.4238 2.7864-5.3086 6.5007-5.3086 10.457 0 3.7764 1.7183 7.3302 4.8516 10.068-0.0565 0.12707-0.10029 0.25985-0.12891 0.40039l-1.0293 5.0645c-0.12242 0.60186 0.04178 0.96108 0.20117 1.1562 0.1843 0.22547 0.45775 0.34961 0.76953 0.34961 0.23541 0 0.48832-0.06998 0.75195-0.20703l5.9883-3.1094c2.0732 0.66733 4.3017 1.0176 6.5957 1.0176 4.7893 0 9.2971-1.5229 12.691-4.2852 3.4237-2.7863 5.3086-6.4987 5.3086-10.455 0-3.9568-1.8849-7.6702-5.3086-10.457-3.3943-2.7624-7.9019-4.2832-12.691-4.2832z" fill="#52ffde" style="paint-order:stroke fill markers"/>
  <path d="m92.454 65.478c-2.3947 0-4.6466 0.8281-6.3438 2.332-1.7119 1.517-2.6562 3.5392-2.6562 5.6934 0 2.1541 0.94438 4.1764 2.6562 5.6934 1.6971 1.5039 3.9491 2.332 6.3438 2.332 1.147 1e-6 2.2622-0.19138 3.2988-0.55469l2.9941 1.6934c0.13182 0.07464 0.25729 0.11328 0.375 0.11328 0.15589 0 0.29256-0.0667 0.38476-0.18945 0.07981-0.10628 0.16273-0.30318 0.10156-0.63086l-0.51562-2.7559c-0.01425-0.07652-0.0361-0.14953-0.06445-0.21875 1.5667-1.491 2.4258-3.4264 2.4258-5.4824 0-2.1542-0.94242-4.1764-2.6543-5.6934-1.6971-1.5038-3.951-2.332-6.3457-2.332z" fill="#fff" style="paint-order:stroke fill markers"/>
 </g>
</svg>
