<?xml version="1.0" encoding="UTF-8"?>
<svg width="64" height="64" version="1.1" viewBox="0 0 64 64" xmlns="http://www.w3.org/2000/svg" xmlns:xlink="http://www.w3.org/1999/xlink">
 <defs>
  <filter id="filter1057-0" x="-.027" y="-.027" width="1.054" height="1.054" color-interpolation-filters="sRGB">
   <feGaussianBlur stdDeviation="0.61875"/>
  </filter>
  <linearGradient id="linearGradient1053-93" x1="-127" x2="-72" y1="60" y2="5" gradientTransform="translate(191.54 37.924)" gradientUnits="userSpaceOnUse">
   <stop stop-color="#02db96" offset="0"/>
   <stop stop-color="#13d39b" offset="1"/>
  </linearGradient>
 </defs>
 <g transform="translate(-60.041 -38.434)">
  <rect x="64.541" y="42.934" width="55" height="55" ry="15" fill="#141414" filter="url(#filter1057-0)" opacity=".3" stroke-linecap="round" stroke-width="2.7444"/>
  <rect x="64.541" y="42.934" width="55" height="55" ry="15" fill="url(#linearGradient1053-93)" stroke-linecap="round" stroke-width="2.7444"/>
  <path d="m86.572 59.096v10.957h4.9611q2.7539 0 4.2577-1.4258 1.5039-1.4258 1.5039-4.0623 0-2.6172-1.5039-4.043-1.5039-1.4258-4.2577-1.4258zm-3.9451-3.2422h8.9063q4.9025 0 7.4024 2.2266 2.5195 2.207 2.5195 6.4843 0 4.3163-2.5195 6.5236-2.5 2.207-7.4024 2.207h-4.9611v11.719h-3.9451z" fill="#fff"/>
 </g>
</svg>
