<?xml version="1.0" encoding="UTF-8" standalone="no"?>
<svg
   xmlns:dc="http://purl.org/dc/elements/1.1/"
   xmlns:cc="http://creativecommons.org/ns#"
   xmlns:rdf="http://www.w3.org/1999/02/22-rdf-syntax-ns#"
   xmlns:svg="http://www.w3.org/2000/svg"
   xmlns="http://www.w3.org/2000/svg"
   xmlns:xlink="http://www.w3.org/1999/xlink"
   xmlns:sodipodi="http://sodipodi.sourceforge.net/DTD/sodipodi-0.dtd"
   xmlns:inkscape="http://www.inkscape.org/namespaces/inkscape"
   inkscape:version="1.0 (4035a4fb49, 2020-05-01)"
   sodipodi:docname="fritzing.svg"
   id="svg6"
   viewBox="0 0 16.933 16.933"
   version="1.1"
   height="64"
   width="64">
  <metadata
     id="metadata12">
    <rdf:RDF>
      <cc:Work
         rdf:about="">
        <dc:format>image/svg+xml</dc:format>
        <dc:type
           rdf:resource="http://purl.org/dc/dcmitype/StillImage" />
        <dc:title></dc:title>
      </cc:Work>
    </rdf:RDF>
  </metadata>
  <defs
     id="defs10">
    <filter
       inkscape:collect="always"
       style="color-interpolation-filters:sRGB"
       id="filter1057"
       x="-0.027000001"
       width="1.054"
       y="-0.027000001"
       height="1.054">
      <feGaussianBlur
         inkscape:collect="always"
         stdDeviation="0.61875"
         id="feGaussianBlur1059" />
    </filter>
    <linearGradient
       inkscape:collect="always"
       xlink:href="#linearGradient1051"
       id="linearGradient1053"
       x1="-127"
       y1="60"
       x2="-72"
       y2="5"
       gradientUnits="userSpaceOnUse"
       gradientTransform="matrix(0.26457812,0,0,0.26457812,34.792023,-0.13493417)" />
    <linearGradient
       inkscape:collect="always"
       id="linearGradient1051">
      <stop
         style="stop-color:#df2a2a;stop-opacity:1"
         offset="0"
         id="stop1047" />
      <stop
         style="stop-color:#f83f3f;stop-opacity:1"
         offset="1"
         id="stop1049" />
    </linearGradient>
    <linearGradient
       id="linearGradient890"
       x2="0"
       y1="44"
       y2="4"
       gradientTransform="matrix(1.2346,0,0,1.2346,3.1419,3.6047)"
       gradientUnits="userSpaceOnUse">
      <stop
         stop-color="#FFB900"
         offset="0"
         id="stop861" />
      <stop
         stop-color="#ff0"
         offset="1"
         id="stop863" />
    </linearGradient>
    <filter
       id="filter2761"
       x="-.024"
       y="-.024"
       width="1.048"
       height="1.048"
       color-interpolation-filters="sRGB">
      <feGaussianBlur
         stdDeviation="0.14552168"
         id="feGaussianBlur866" />
    </filter>
    <linearGradient
       id="linearGradient4673"
       x1="1.4377"
       x2="15.644"
       y1="15.601"
       y2="1.1082"
       gradientTransform="matrix(3.7796,0,0,3.7796,-0.0026279,0.53068)"
       gradientUnits="userSpaceOnUse">
      <stop
         stop-color="#dc2828"
         offset="0"
         id="stop869" />
      <stop
         stop-color="#fa4141"
         offset="1"
         id="stop871" />
    </linearGradient>
    <linearGradient
       id="linearGradient915"
       x1="34.134"
       x2="34.134"
       y1="54.592"
       y2="9.67"
       gradientUnits="userSpaceOnUse">
      <stop
         stop-color="#ffb900"
         offset="0"
         id="stop874" />
      <stop
         stop-color="#ff0"
         offset="1"
         id="stop876" />
    </linearGradient>
  </defs>
  <sodipodi:namedview
     inkscape:current-layer="svg6"
     inkscape:window-maximized="1"
     inkscape:window-y="0"
     inkscape:window-x="0"
     inkscape:cy="2.9392281"
     inkscape:cx="-17.898604"
     inkscape:zoom="4.5078057"
     showgrid="false"
     id="namedview8"
     inkscape:window-height="985"
     inkscape:window-width="1920"
     inkscape:pageshadow="2"
     inkscape:pageopacity="0"
     guidetolerance="10"
     gridtolerance="10"
     objecttolerance="10"
     borderopacity="1"
     bordercolor="#666666"
     pagecolor="#ffffff" />
  <rect
     transform="matrix(0.26457812,0,0,0.26457812,0.79770305,0.79770305)"
     ry="15"
     y="1.485"
     x="1.485"
     height="55"
     width="55"
     id="rect1055"
     style="opacity:0.3;fill:#141414;fill-opacity:1;stroke-width:2.74436;stroke-linecap:round;filter:url(#filter1057)" />
  <rect
     style="fill:url(#linearGradient1053);fill-opacity:1;stroke-width:0.726098;stroke-linecap:round"
     id="rect1045"
     width="14.551796"
     height="14.551796"
     x="1.1906021"
     y="1.1906021"
     ry="3.9686716" />
  <path
     d="M 10.047087,3.8376507 C 9.8495034,3.8327507 9.5823345,3.8402907 9.3055081,3.8919037 9.0286816,3.9435316 8.7278366,4.0357637 8.4644414,4.250028 8.201057,4.4643142 8.0050254,4.8287604 8.0050254,5.2412219 V 6.6266665 H 6.6195808 a 0.46216122,0.46216122 0 1 0 0,0.9242677 H 8.0050254 V 8.5131768 A 2.3152358,2.3152358 0 0 0 6.1510212,10.781382 2.3152358,2.3152358 0 0 0 8.466257,13.096617 2.3152358,2.3152358 0 0 0 10.781493,10.781382 2.3152358,2.3152358 0 0 0 8.9293479,8.5168955 V 7.5510327 h 1.3854441 a 0.46216122,0.46216122 0 1 0 0,-0.9242678 H 8.9293479 V 5.2413203 c 0,-0.1668177 0.03454,-0.205569 0.1175664,-0.2731186 C 9.1299513,4.9006477 9.2905128,4.8344916 9.4755851,4.799984 9.8457294,4.73096 10.256966,4.776533 10.256966,4.776533 a 0.46216122,0.46216122 0 1 0 0.115751,-0.9170272 c 0,0 -0.128001,-0.016801 -0.325586,-0.021701 z M 8.3686294,9.3959446 a 1.3891633,1.3891633 0 0 1 0.012676,0 0.46216122,0.46216122 0 0 0 0.00186,0 0.46216122,0.46216122 0 0 0 0.1591615,0 A 1.3891633,1.3891633 0 0 1 9.8554754,10.781389 1.3891633,1.3891633 0 0 1 8.466421,12.170443 1.3891633,1.3891633 0 0 1 7.0772577,10.781389 1.3891633,1.3891633 0 0 1 8.3686404,9.3959446 Z"
     fill="#ffffff"
     stroke-width="0.289383"
     id="path857" />
</svg>
