<?xml version="1.0" encoding="UTF-8" standalone="no"?>
<svg
   xmlns:dc="http://purl.org/dc/elements/1.1/"
   xmlns:cc="http://creativecommons.org/ns#"
   xmlns:rdf="http://www.w3.org/1999/02/22-rdf-syntax-ns#"
   xmlns:svg="http://www.w3.org/2000/svg"
   xmlns="http://www.w3.org/2000/svg"
   xmlns:xlink="http://www.w3.org/1999/xlink"
   xmlns:sodipodi="http://sodipodi.sourceforge.net/DTD/sodipodi-0.dtd"
   xmlns:inkscape="http://www.inkscape.org/namespaces/inkscape"
   width="64"
   height="64"
   version="1.1"
   id="svg127"
   sodipodi:docname="gda-control-center.svg"
   inkscape:version="1.0.1 (3bc2e813f5, 2020-09-07)">
  <metadata
     id="metadata131">
    <rdf:RDF>
      <cc:Work
         rdf:about="">
        <dc:format>image/svg+xml</dc:format>
        <dc:type
           rdf:resource="http://purl.org/dc/dcmitype/StillImage" />
        <dc:title></dc:title>
      </cc:Work>
    </rdf:RDF>
  </metadata>
  <sodipodi:namedview
     pagecolor="#ffffff"
     bordercolor="#666666"
     borderopacity="1"
     objecttolerance="10"
     gridtolerance="10"
     guidetolerance="10"
     inkscape:pageopacity="0"
     inkscape:pageshadow="2"
     inkscape:window-width="1920"
     inkscape:window-height="942"
     id="namedview129"
     showgrid="false"
     inkscape:zoom="8.5626212"
     inkscape:cx="40.594287"
     inkscape:cy="28.705646"
     inkscape:window-x="0"
     inkscape:window-y="38"
     inkscape:window-maximized="1"
     inkscape:current-layer="svg127" />
  <defs
     id="defs89">
    <radialGradient
       id="e"
       cx="23.335"
       cy="41.636"
       r="22.627"
       gradientTransform="matrix(.95165 0 0 .36555 1.7936 24.507)"
       gradientUnits="userSpaceOnUse">
      <stop
         offset="0"
         id="stop2" />
      <stop
         stop-opacity="0"
         offset="1"
         id="stop4" />
    </radialGradient>
    <linearGradient
       id="n"
       x1="103.95"
       x2="89.424"
       y1="-7.6657"
       y2="-7.6657"
       gradientTransform="matrix(.73652 0 0 .72048 -52.561 46.853)"
       gradientUnits="userSpaceOnUse"
       spreadMethod="reflect"
       xlink:href="#b" />
    <linearGradient
       id="b">
      <stop
         stop-color="#868688"
         offset="0"
         id="stop8" />
      <stop
         stop-color="#d9d9da"
         offset="1"
         id="stop10" />
    </linearGradient>
    <linearGradient
       id="m"
       x1="89.018"
       x2="89.018"
       y1="22.537"
       y2="27.546"
       gradientTransform="matrix(1.6087 0 0 1.6667 -127.47 -.57685)"
       gradientUnits="userSpaceOnUse"
       xlink:href="#a" />
    <linearGradient
       id="a">
      <stop
         stop-color="#a0a0a0"
         offset="0"
         id="stop14" />
      <stop
         stop-color="#4a4a4a"
         offset="1"
         id="stop16" />
    </linearGradient>
    <linearGradient
       id="h"
       x1="103.95"
       x2="89.424"
       y1="-7.6657"
       y2="-7.6657"
       gradientTransform="matrix(.73652 0 0 .72048 -52.561 37.853)"
       gradientUnits="userSpaceOnUse"
       spreadMethod="reflect"
       xlink:href="#b" />
    <linearGradient
       id="g"
       x1="89.018"
       x2="89.018"
       y1="22.537"
       y2="27.546"
       gradientTransform="matrix(1.6087 0 0 1.6667 -127.47 -9.5769)"
       gradientUnits="userSpaceOnUse"
       xlink:href="#a" />
    <linearGradient
       id="j"
       x1="103.95"
       x2="89.424"
       y1="-7.6657"
       y2="-7.6657"
       gradientTransform="matrix(.73652 0 0 .72048 -52.561 28.853)"
       gradientUnits="userSpaceOnUse"
       spreadMethod="reflect"
       xlink:href="#b" />
    <linearGradient
       id="i"
       x1="89.018"
       x2="89.018"
       y1="22.537"
       y2="27.546"
       gradientTransform="matrix(1.6087 0 0 1.6667 -127.47 -18.577)"
       gradientUnits="userSpaceOnUse"
       xlink:href="#a" />
    <linearGradient
       id="l"
       x1="102.31"
       x2="102.31"
       y1="-2.3925"
       y2="-24.582"
       gradientTransform="matrix(.73698 0 0 .73149 -52.606 21.888)"
       gradientUnits="userSpaceOnUse"
       spreadMethod="reflect">
      <stop
         stop-color="#a5a6a8"
         offset="0"
         id="stop23" />
      <stop
         stop-color="#e8e8e8"
         offset="1"
         id="stop25" />
    </linearGradient>
    <linearGradient
       id="k"
       x1="109.96"
       x2="109.96"
       y1="-24.911"
       y2="-2.3758"
       gradientTransform="matrix(.73698 0 0 .73149 -52.606 21.888)"
       gradientUnits="userSpaceOnUse">
      <stop
         stop-color="#b3b3b3"
         offset="0"
         id="stop28" />
      <stop
         stop-color="#dadada"
         offset="1"
         id="stop30" />
    </linearGradient>
    <linearGradient
       id="f"
       x1="21.381"
       x2="21.381"
       y1="5.0525"
       y2="44.137"
       gradientUnits="userSpaceOnUse">
      <stop
         stop-color="#fff"
         offset="0"
         id="stop33" />
      <stop
         stop-color="#fff"
         stop-opacity=".23529"
         offset=".081258"
         id="stop35" />
      <stop
         stop-color="#fff"
         stop-opacity=".15686"
         offset=".87819"
         id="stop37" />
      <stop
         stop-color="#fff"
         stop-opacity=".39216"
         offset="1"
         id="stop39" />
    </linearGradient>
    <linearGradient
       id="u"
       x1="67.567"
       x2="150.96"
       y1="-109.97"
       y2="-25.402"
       gradientTransform="translate(99.797 -35.797)"
       gradientUnits="userSpaceOnUse">
      <stop
         stop-color="#dfdfdd"
         offset="0"
         id="stop42" />
      <stop
         stop-color="#cbcec9"
         offset=".33425"
         id="stop44" />
      <stop
         stop-color="#f4f4f3"
         stop-opacity="0"
         offset="1"
         id="stop46" />
    </linearGradient>
    <linearGradient
       id="t"
       x1="-24.214"
       x2="104.21"
       y1="-123.74"
       y2="-123.72"
       gradientTransform="translate(45.324 -95.846)"
       gradientUnits="userSpaceOnUse">
      <stop
         stop-color="#e6e6e4"
         offset="0"
         id="stop49" />
      <stop
         stop-color="#b8bbb4"
         offset=".17169"
         id="stop51" />
      <stop
         stop-color="#e8e8e6"
         stop-opacity="0"
         offset="1"
         id="stop53" />
    </linearGradient>
    <filter
       id="w"
       x="-.01198"
       y="-.01202"
       width="1.024"
       height="1.024"
       color-interpolation-filters="sRGB">
      <feGaussianBlur
         stdDeviation="0.29280524"
         id="feGaussianBlur56" />
    </filter>
    <linearGradient
       id="s"
       x1="22.252"
       x2="76.966"
       y1="-121.07"
       y2="-128.72"
       gradientTransform="translate(99.797 -35.797)"
       gradientUnits="userSpaceOnUse">
      <stop
         stop-color="#b7bab4"
         offset="0"
         id="stop59" />
      <stop
         stop-color="#e9e9e8"
         offset=".50125"
         id="stop61" />
      <stop
         stop-color="#f5f5f5"
         offset="1"
         id="stop63" />
    </linearGradient>
    <linearGradient
       id="r"
       x1="72.916"
       x2="143.39"
       y1="-104.26"
       y2="-30.893"
       gradientTransform="translate(99.797 -35.797)"
       gradientUnits="userSpaceOnUse">
      <stop
         stop-color="#717370"
         offset="0"
         id="stop66" />
      <stop
         stop-color="#717370"
         stop-opacity="0"
         offset="1"
         id="stop68" />
    </linearGradient>
    <linearGradient
       id="q"
       x1="-9.68"
       x2="104.21"
       y1="-122.47"
       y2="-123.72"
       gradientTransform="translate(45.324 -95.846)"
       gradientUnits="userSpaceOnUse">
      <stop
         stop-color="#cbcec9"
         offset="0"
         id="stop71" />
      <stop
         stop-color="#cbcec9"
         stop-opacity="0"
         offset="1"
         id="stop73" />
    </linearGradient>
    <linearGradient
       id="p"
       x1="72.916"
       x2="143.39"
       y1="-104.26"
       y2="-30.893"
       gradientTransform="matrix(.2623 0 0 .2623 21.626 54.684)"
       gradientUnits="userSpaceOnUse">
      <stop
         stop-color="#414341"
         offset="0"
         id="stop76" />
      <stop
         stop-color="#717370"
         stop-opacity="0"
         offset="1"
         id="stop78" />
    </linearGradient>
    <filter
       id="v"
       x="-.060333"
       y="-.059671"
       width="1.1207"
       height="1.1193"
       color-interpolation-filters="sRGB">
      <feGaussianBlur
         stdDeviation="1.372706"
         id="feGaussianBlur81" />
    </filter>
    <linearGradient
       id="linearGradient862-3"
       x1="7.9373"
       x2="7.9373"
       y1="15.081"
       y2="1.852"
       gradientTransform="scale(3.7796)"
       gradientUnits="userSpaceOnUse">
      <stop
         stop-color="#f1efeb"
         offset="0"
         id="stop84" />
      <stop
         stop-color="#fdfcfc"
         offset="1"
         id="stop86" />
    </linearGradient>
    <radialGradient
       id="e-3"
       cx="23.335"
       cy="41.636"
       r="22.627"
       gradientTransform="matrix(0.95165,0,0,0.36555,1.7936,24.507)"
       gradientUnits="userSpaceOnUse">
      <stop
         offset="0"
         id="stop2-6" />
      <stop
         stop-opacity="0"
         offset="1"
         id="stop4-7" />
    </radialGradient>
    <linearGradient
       id="f-7"
       x1="21.381"
       x2="21.381"
       y1="5.0525"
       y2="44.137"
       gradientUnits="userSpaceOnUse">
      <stop
         stop-color="#fff"
         offset="0"
         id="stop33-0" />
      <stop
         stop-color="#fff"
         stop-opacity=".23529"
         offset=".081258"
         id="stop35-9" />
      <stop
         stop-color="#fff"
         stop-opacity=".15686"
         offset=".87819"
         id="stop37-3" />
      <stop
         stop-color="#fff"
         stop-opacity=".39216"
         offset="1"
         id="stop39-6" />
    </linearGradient>
    <linearGradient
       id="o"
       x1="45"
       x2="45"
       y1="31"
       y2="53"
       gradientUnits="userSpaceOnUse"
       gradientTransform="translate(-63.649187)">
      <stop
         stop-color="#333"
         offset="0"
         id="stop42-0" />
      <stop
         stop-color="#717171"
         offset="1"
         id="stop44-6" />
    </linearGradient>
    <filter
       id="q-2"
       x="-.06"
       y="-.06"
       width="1.12"
       height="1.12"
       color-interpolation-filters="sRGB">
      <feGaussianBlur
         stdDeviation="0.55000135"
         id="feGaussianBlur47" />
    </filter>
    <linearGradient
       id="linearGradient862-3-6"
       x1="7.9373"
       x2="7.9373"
       y1="15.081"
       y2="1.852"
       gradientTransform="matrix(3.7796,0,0,3.7796,0.20738911,-6.5188357)"
       gradientUnits="userSpaceOnUse">
      <stop
         stop-color="#f1efeb"
         offset="0"
         id="stop50" />
      <stop
         stop-color="#fdfcfc"
         offset="1"
         id="stop52" />
    </linearGradient>
    <style
       type="text/css"
       id="style914" />
    <style
       type="text/css"
       id="style916" />
    <filter
       id="filter1057"
       x="-.027"
       y="-.027"
       width="1.054"
       height="1.054"
       color-interpolation-filters="sRGB">
      <feGaussianBlur
         stdDeviation="0.61875"
         id="feGaussianBlur918" />
    </filter>
    <linearGradient
       id="linearGradient1053"
       x1="-127"
       x2="-72"
       y1="60"
       y2="5"
       gradientTransform="translate(131.5,-0.51)"
       gradientUnits="userSpaceOnUse">
      <stop
         stop-color="#dee0e2"
         offset="0"
         id="stop921" />
      <stop
         stop-color="#f1f3f5"
         stop-opacity=".99608"
         offset="1"
         id="stop923" />
    </linearGradient>
    <filter
       id="filter2761-3"
       x="-.024"
       y="-.024"
       width="1.048"
       height="1.048"
       color-interpolation-filters="sRGB">
      <feGaussianBlur
         stdDeviation="0.14552168"
         id="feGaussianBlur4" />
    </filter>
    <linearGradient
       id="linearGradient1024"
       x1="1.3315"
       x2="15.65"
       y1="15.576"
       y2="1.17"
       gradientTransform="translate(-.00084984 .14045)"
       gradientUnits="userSpaceOnUse">
      <stop
         stop-color="#dddfe1"
         offset="0"
         id="stop7" />
      <stop
         stop-color="#f3f4f6"
         stop-opacity=".99608"
         offset="1"
         id="stop9" />
    </linearGradient>
    <filter
       color-interpolation-filters="sRGB"
       height="1.048"
       width="1.048"
       y="-.024"
       x="-.024"
       id="filter2761-3-3">
      <feGaussianBlur
         id="feGaussianBlur2"
         stdDeviation="0.14552168" />
    </filter>
    <linearGradient
       gradientUnits="userSpaceOnUse"
       gradientTransform="matrix(3.7796 0 0 3.7796 -.0026448 .53066)"
       y2="1.17"
       y1="15.576"
       x2="15.65"
       x1="1.3315"
       id="linearGradient1024-6">
      <stop
         id="stop5"
         offset="0"
         stop-color="#dddfe1" />
      <stop
         id="stop7-7"
         offset="1"
         stop-opacity=".99608"
         stop-color="#f3f4f6" />
    </linearGradient>
  </defs>
  <rect
     x="4.4999995"
     y="4.4999995"
     width="55"
     height="55"
     ry="15"
     fill="#141414"
     filter="url(#filter1057)"
     opacity="0.3"
     stroke-linecap="round"
     stroke-width="2.7444"
     id="rect948" />
  <rect
     x="4.5"
     y="4.5"
     width="55"
     height="55"
     ry="15"
     fill="url(#linearGradient1053)"
     stroke-linecap="round"
     stroke-width="2.7444"
     id="rect950"
     style="fill:url(#linearGradient1053)" />
  <g
     transform="matrix(.83591 0 0 .83591 11.938 10.266)"
     id="g111">
    <path
       d="m45.533 39.727c0.001822 4.5687-9.6396 8.2727-21.533 8.2727s-21.535-3.704-21.533-8.2727c-0.001822-4.5687 9.6396-8.2727 21.533-8.2727s21.535 3.704 21.533 8.2727z"
       fill="url(#e)"
       fill-rule="evenodd"
       opacity=".3"
       id="path95" />
    <path
       d="m42.484 37.113c0 4.0777-8.2827 7.3871-18.488 7.3871-10.206 0-18.488-3.3094-18.488-7.3871 0-11.816-2.2598-7.2333 18.488-7.3871 21.223-0.15867 18.488-5.446 18.488 7.3871z"
       fill="url(#n)"
       stroke="url(#m)"
       id="path97" />
    <path
       d="m42.5 30c0 4.1421-8.2827 7.5-18.5 7.5-10.217 0-18.5-3.3579-18.5-7.5s8.2827-7.5 18.5-7.5c10.217 0 18.5 3.3579 18.5 7.5z"
       fill="#868688"
       stroke="#d8d8d8"
       id="path99" />
    <path
       d="m42.484 28.113c0 4.0777-8.2827 7.3871-18.488 7.3871-10.206 0-18.488-3.3094-18.488-7.3871 0-13.071-2.2598-7.2333 18.488-7.3871 21.223-0.15867 18.488-5.6907 18.488 7.3871z"
       fill="url(#h)"
       stroke="url(#g)"
       id="path101" />
    <path
       d="m42.5 21c0 4.1421-8.2827 7.5-18.5 7.5-10.217 0-18.5-3.3579-18.5-7.5s8.2827-7.5 18.5-7.5c10.217 0 18.5 3.3579 18.5 7.5z"
       fill="#868688"
       stroke="#d8d8d8"
       id="path103" />
    <path
       d="m42.484 19.113c0 4.0777-8.2827 7.3871-18.488 7.3871-10.206 0-18.488-3.3094-18.488-7.3871 0-13.951-2.2598-7.2333 18.488-7.3871 21.223-0.15867 18.488-5.541 18.488 7.3871z"
       fill="url(#j)"
       stroke="url(#i)"
       id="path105" />
    <path
       d="m42.5 12c0 4.1421-8.2827 7.5-18.5 7.5-10.217 0-18.5-3.3579-18.5-7.5s8.2827-7.5 18.5-7.5c10.217 0 18.5 3.3579 18.5 7.5z"
       fill="url(#l)"
       stroke="url(#k)"
       id="path107" />
    <rect
       x="6.5"
       y="5.5"
       width="35"
       height="38"
       rx="17.5"
       ry="7"
       color="#000000"
       fill="none"
       opacity=".5"
       stroke="url(#f)"
       id="rect109" />
  </g>
  <path
     d="m35.583 13.615 3.5645 6.1816c0.35134 0.60954 0.25424 1.3517-0.18945 1.8477a6.2373 7.6955 60.041 0 1-2.666 2.3164 6.2373 7.6955 60.041 0 1-3.3105 1.1387c-7.87e-4 1.91e-4 -0.0029-2.63e-4 -0.0039 0-0.06126 0.01385-0.12188 0.02289-0.18359 0.0293a6.2373 7.6955 60.041 0 1-0.0039 2e-3h-2e-3c-0.6012 0.06074-1.207-0.22789-1.5293-0.78711l-3.5645-6.1816a7.6955 7.6955 0 0 0 0.37109 6.9355 7.6955 7.6955 0 0 0 7.3477 3.8125c1.4665 0.4975 2.8804 1.2176 4.1445 2.457l17.18 17.154 10.168 10.152 10.166 10.152 4.5762-4.582-20.336-20.305-17.178-17.154c-1.0311-1.0569-1.5653-2.1249-2.0938-3.1484a7.6955 7.6955 0 0 0-0.64063-6.2246 7.6955 7.6955 0 0 0-5.8164-3.7969z"
     fill="url(#p)"
     filter="url(#v)"
     opacity=".35"
     style="paint-order:normal"
     id="path113" />
  <g
     transform="matrix(.2623 0 0 .2623 -3.2083 62.251)"
     id="g125">
    <path
       d="m175.74-157.7c2.8135 4.8419 4.746 10.295 9.8649 15.542l143.02 142.81-17.443 17.468-143.02-142.81c-4.983-4.8855-10.575-7.6689-16.369-9.5707 7.9824-7.813 15.965-15.626 23.947-23.439z"
       fill="url(#r)"
       style="paint-order:normal"
       id="path115" />
    <path
       d="m177.74-157.7c2.8135 4.8419 4.746 10.295 9.8649 15.542l143.02 142.81-17.443 17.468-143.02-142.81c-4.983-4.8855-10.575-7.6689-16.369-9.5707 7.9824-7.813 15.965-15.626 23.947-23.439z"
       fill="url(#u)"
       style="paint-order:normal"
       id="path117" />
    <rect
       transform="rotate(44.959)"
       x="13.981"
       y="-226.57"
       width="228.19"
       height="12.272"
       ry=".86457"
       fill="url(#t)"
       stroke="url(#q)"
       stroke-linecap="round"
       stroke-linejoin="round"
       style="paint-order:normal"
       id="rect119" />
    <path
       d="m153.01-192.37 13.587 23.572c1.3395 2.3239 0.96714 5.1476-0.72442 7.0386a23.78 29.339 60.041 0 1-10.162 8.8329 23.78 29.339 60.041 0 1-12.622 4.3422c-3e-3 7.3e-4 -6e-3 2e-3 -0.01 3e-3 -0.23353 0.0528-0.46952 0.0865-0.70479 0.11092a23.78 29.339 60.041 0 1-0.0165 3e-3l-1e-3 -2e-3c-2.2921 0.23155-4.6064-0.86177-5.8353-2.9938l-13.586-23.57a29.339 29.339 0 0 0 1.4098 26.44 29.339 29.339 0 0 0 40.07 10.769 29.339 29.339 0 0 0 10.768-40.071 29.339 29.339 0 0 0-22.173-14.474z"
       fill="#878785"
       filter="url(#w)"
       style="paint-order:normal"
       id="path121" />
    <path
       d="m152.94-194.33 13.587 23.572c1.3395 2.3239 0.96714 5.1476-0.72442 7.0386a23.78 29.339 60.041 0 1-10.162 8.8329 23.78 29.339 60.041 0 1-12.622 4.3422c-3e-3 7.3e-4 -6e-3 2e-3 -9e-3 3e-3 -0.23354 0.0528-0.46953 0.0865-0.7048 0.11092a23.78 29.339 60.041 0 1-0.0165 3e-3l-1e-3 -2e-3c-2.2921 0.23155-4.6064-0.86177-5.8353-2.9938l-13.586-23.57a29.339 29.339 0 0 0 1.4098 26.44 29.339 29.339 0 0 0 40.07 10.769 29.339 29.339 0 0 0 10.768-40.071 29.339 29.339 0 0 0-22.173-14.474z"
       fill="url(#s)"
       stroke="#e6e6e4"
       stroke-linecap="round"
       stroke-linejoin="round"
       style="paint-order:normal"
       id="path123" />
  </g>
  <g
     fill="#5e4aa6"
     id="g946"
     transform="translate(-134.15664)">
    <g
       transform="translate(-76.881,-23.026)"
       id="g940">
      <circle
         cx="-1248.7"
         cy="-1241.6"
         r="0"
         id="circle928" />
      <circle
         cx="-1140.3"
         cy="-1301.8"
         r="0"
         id="circle930" />
      <circle
         cx="-978.95001"
         cy="-1316.3"
         r="0"
         id="circle932" />
      <circle
         cx="120.52"
         cy="-50.805"
         r="0"
         fill-rule="evenodd"
         id="circle934" />
      <circle
         cx="-972.45001"
         cy="-1325.3"
         r="0"
         id="circle936" />
      <circle
         cx="127.04"
         cy="-59.816002"
         r="0"
         fill-rule="evenodd"
         id="circle938" />
    </g>
    <circle
       cx="-1248.7"
       cy="-1241.6"
       r="0"
       id="circle942" />
    <circle
       cx="-149.14999"
       cy="23.855"
       r="0"
       fill-rule="evenodd"
       id="circle944" />
  </g>
</svg>
