<svg width="64" height="64" version="1.1" xmlns="http://www.w3.org/2000/svg">
 <defs>
  <linearGradient id="linearGradient4572" x1="33.821" x2="33.821" y1="43.692" y2="20.308" gradientUnits="userSpaceOnUse">
   <stop stop-color="#d11628" offset="0"/>
   <stop stop-color="#ff2919" offset="1"/>
  </linearGradient>
  <filter id="filter4592" x="-.048461" y="-.078752" width="1.0969" height="1.1575" color-interpolation-filters="sRGB">
   <feGaussianBlur stdDeviation="0.76729678"/>
  </filter>
  <linearGradient id="linearGradient862-3" x1="7.9373" x2="7.9373" y1="15.081" y2="1.852" gradientTransform="matrix(3.7795 0 0 3.7795 .00014309 .031541)" gradientUnits="userSpaceOnUse">
   <stop stop-color="#e8900d" offset="0"/>
   <stop stop-color="#ffdc52" offset="1"/>
  </linearGradient>
 </defs>
 <g transform="scale(3.7796)" shape-rendering="auto">
  <path d="m4.3693 0.52916c-2.1142 0-3.8402 1.7835-3.8402 3.9682v8.4675c0 2.1846 1.726 3.9682 3.8402 3.9682h8.1944c2.1142 0 3.8402-1.7835 3.8402-3.9682v-8.4675c0-2.1846-1.726-3.9682-3.8402-3.9682zm0.25704 0.52089h7.6808c1.8443 0 3.3291 1.5342 3.3291 3.44v7.9368c0 1.9058-1.4847 3.44-3.3291 3.44h-7.6808c-1.8443 0-3.3291-1.5342-3.3291-3.44v-7.9368c0-1.9058 1.4847-3.44 3.3291-3.44z" color="#000000" color-rendering="auto" dominant-baseline="auto" image-rendering="auto" opacity=".01" solid-color="#000000" stop-color="#000000" style="font-feature-settings:normal;font-variant-alternates:normal;font-variant-caps:normal;font-variant-east-asian:normal;font-variant-ligatures:normal;font-variant-numeric:normal;font-variant-position:normal;font-variation-settings:normal;inline-size:0;isolation:auto;mix-blend-mode:normal;shape-margin:0;shape-padding:0;text-decoration-color:#000000;text-decoration-line:none;text-decoration-style:solid;text-indent:0;text-orientation:mixed;text-transform:none;white-space:normal"/>
  <path d="m4.3587 0.79373c-1.9668 0-3.5639 1.6528-3.5639 3.6876v8.4996c0 2.0348 1.5971 3.6876 3.5639 3.6876h8.2162c1.9668 0 3.5644-1.6528 3.5644-3.6876v-8.4996c0-2.0348-1.5976-3.6876-3.5644-3.6876zm0.27222 0.25631h7.6718c1.8422 0 3.3251 1.5342 3.3251 3.44v7.9368c0 1.9058-1.483 3.44-3.3251 3.44h-7.6718c-1.8422 0-3.3251-1.5342-3.3251-3.44v-7.9368c0-1.9058 1.483-3.44 3.3251-3.44z" color="#000000" color-rendering="auto" dominant-baseline="auto" image-rendering="auto" opacity=".01" solid-color="#000000" stop-color="#000000" style="font-feature-settings:normal;font-variant-alternates:normal;font-variant-caps:normal;font-variant-east-asian:normal;font-variant-ligatures:normal;font-variant-numeric:normal;font-variant-position:normal;font-variation-settings:normal;inline-size:0;isolation:auto;mix-blend-mode:normal;shape-margin:0;shape-padding:0;text-decoration-color:#000000;text-decoration-line:none;text-decoration-style:solid;text-indent:0;text-orientation:mixed;text-transform:none;white-space:normal"/>
  <g>
   <path d="m4.3097 1.0583c-1.8657 0-3.3751 1.5383-3.3751 3.439v8.4675c0 1.9007 1.57 3.439 3.4357 3.439h8.1996c1.8657 0 3.4274-1.5383 3.4274-3.439v-8.4675c0-1.9007-1.51-3.439-3.3756-3.439h-0.09688c1.794 0.086515 3.2138 1.5819 3.2138 3.4318v7.9368c0 1.9058-1.5059 3.44-3.3766 3.44h-7.7905c-1.8707 0-3.3766-1.5342-3.3766-3.44v-7.9368c0-1.8498 1.4199-3.3451 3.2138-3.4318z" color="#000000" color-rendering="auto" dominant-baseline="auto" image-rendering="auto" opacity=".03" solid-color="#000000" stop-color="#000000" style="font-feature-settings:normal;font-variant-alternates:normal;font-variant-caps:normal;font-variant-east-asian:normal;font-variant-ligatures:normal;font-variant-numeric:normal;font-variant-position:normal;font-variation-settings:normal;inline-size:0;isolation:auto;mix-blend-mode:normal;shape-margin:0;shape-padding:0;text-decoration-color:#000000;text-decoration-line:none;text-decoration-style:solid;text-indent:0;text-orientation:mixed;text-transform:none;white-space:normal"/>
   <path transform="scale(.26458)" d="m4 46.969v2.0312c0 6.6479 5.8957 12 12.544 12h30.961c6.6479 0 12.495-5.3521 12.495-12v-1.9922c-0.021173 7.1849-5.81 12.963-13 12.963h-29.998c-7.2032 0-13.002-5.7987-13.002-13.002z" color="#000000" color-rendering="auto" dominant-baseline="auto" image-rendering="auto" opacity=".03" solid-color="#000000" stop-color="#000000" style="font-feature-settings:normal;font-variant-alternates:normal;font-variant-caps:normal;font-variant-east-asian:normal;font-variant-ligatures:normal;font-variant-numeric:normal;font-variant-position:normal;font-variation-settings:normal;inline-size:0;isolation:auto;mix-blend-mode:normal;shape-margin:0;shape-padding:0;text-decoration-color:#000000;text-decoration-line:none;text-decoration-style:solid;text-indent:0;text-orientation:mixed;text-transform:none;white-space:normal"/>
   <path d="m1.0583 11.906v0.59234c0 1.9386 1.5729 3.4993 3.3318 3.4993h8.1603c1.7589 0 3.3243-1.5608 3.3243-3.4993v-0.58095c-0.0056 2.0952-1.5372 3.7801-3.4395 3.7801h-7.9368c-1.9058 0-3.44-1.691-3.44-3.7915z" color="#000000" color-rendering="auto" dominant-baseline="auto" image-rendering="auto" opacity=".05" solid-color="#000000" stop-color="#000000" style="font-feature-settings:normal;font-variant-alternates:normal;font-variant-caps:normal;font-variant-east-asian:normal;font-variant-ligatures:normal;font-variant-numeric:normal;font-variant-position:normal;font-variation-settings:normal;inline-size:0;isolation:auto;mix-blend-mode:normal;shape-margin:0;shape-padding:0;text-decoration-color:#000000;text-decoration-line:none;text-decoration-style:solid;text-indent:0;text-orientation:mixed;text-transform:none;white-space:normal"/>
  </g>
 </g>
 <rect x="4" y="4" width="56" height="56" rx="13.002" ry="13.002" fill="url(#linearGradient862-3)" stroke-width="3.7795"/>
 <path d="m25 43.692c0.33139-1.3566 1.4032-2.3404 2.3353-3.1327 0.611-0.39353 0.64207-0.71974 0.15016-0.94757-2.4854-1.1443-4.5307-1.8537-6.5864-2.9773-3.4796-1.9314-5.4731-4.7327-6.0013-8.4297-0.10874-0.88543-0.10874-1.8071 0.0466-2.4544 0.2123-0.46084 0.6576-0.73527 1.1858-0.73527 0.33657 0 0.53333 0.07767 1.4757 0.60065 2.1489 1.1858 4.2511 2.1281 5.3488 2.4026 0.45048 0.10874 0.49709 0.10874 0.75081-0.03107 1.2116-0.66796 2.1489-1.6828 2.5683-1.833h9.631c3.3605 3.5883 8.0673 4.567 12.142 2.387 1.0822-0.63689 1.7294-1.2893 2.0815-2.387h2.6925c0 0.20194-0.55922 1.688-0.95793 2.2214-1.2841 1.7191-3.2828 3.1068-6.3171 4.3806-4.3547 2.1644-7.2854 5.1262-11.045 6.8556-0.73009 0.36764-0.12427 0.57993 0.19158 0.94239 1.0149 0.9165 1.745 1.89 2.0815 3.1327m-14.048-9.631-0.66278-3.2984c-0.05696-0.03625-0.33657-0.14498-0.62654-0.23819-0.57476-0.18641-2.0815-0.81294-2.7391-1.1443-0.48673-0.24336-0.75081-0.26926-0.75081-0.07249 0 0.2589 0.60582 1.4602 1.0511 2.0919 0.49191 0.69385 1.0356 1.2479 1.7812 1.8226 0.68867 0.52298 1.5948 1.0615 1.8019 1.0615 0.15534 0 0.17087-0.03107 0.13981-0.21748zm4.0388-9.3618c0.03107-0.05696 0.35728-0.67832 0.72492-1.2738 1.5327-2.4595 2.2421-3.112 3.3916-3.112 1.0977 0 1.8744 0.69385 3.3294 2.998 0.45566 0.71456 0.8233 1.3618 0.8233 1.3877z" filter="url(#filter4592)" opacity=".15" stroke-width="5.178"/>
 <path d="m25 43.692c0.33139-1.3566 1.4032-2.3404 2.3353-3.1327 0.611-0.39353 0.64207-0.71974 0.15016-0.94757-2.4854-1.1443-4.5307-1.8537-6.5864-2.9773-3.4796-1.9314-5.4731-4.7327-6.0013-8.4297-0.10874-0.88543-0.10874-1.8071 0.0466-2.4544 0.2123-0.46084 0.6576-0.73527 1.1858-0.73527 0.33657 0 0.53333 0.07767 1.4757 0.60065 2.1489 1.1858 4.2511 2.1281 5.3488 2.4026 0.45048 0.10874 0.49709 0.10874 0.75081-0.03107 1.2116-0.66796 2.1489-1.6828 2.5683-1.833h9.631c3.3605 3.5883 8.0673 4.567 12.142 2.387 1.0822-0.63689 1.7294-1.2893 2.0815-2.387h2.6925c0 0.20194-0.55922 1.688-0.95793 2.2214-1.2841 1.7191-3.2828 3.1068-6.3171 4.3806-4.3547 2.1644-7.2854 5.1262-11.045 6.8556-0.73009 0.36764-0.12427 0.57993 0.19158 0.94239 1.0149 0.9165 1.745 1.89 2.0815 3.1327m-14.048-9.631-0.66278-3.2984c-0.05696-0.03625-0.33657-0.14498-0.62654-0.23819-0.57476-0.18641-2.0815-0.81294-2.7391-1.1443-0.48673-0.24336-0.75081-0.26926-0.75081-0.07249 0 0.2589 0.60582 1.4602 1.0511 2.0919 0.49191 0.69385 1.0356 1.2479 1.7812 1.8226 0.68867 0.52298 1.5948 1.0615 1.8019 1.0615 0.15534 0 0.17087-0.03107 0.13981-0.21748zm4.0388-9.3618c0.03107-0.05696 0.35728-0.67832 0.72492-1.2738 1.5327-2.4595 2.2421-3.112 3.3916-3.112 1.0977 0 1.8744 0.69385 3.3294 2.998 0.45566 0.71456 0.8233 1.3618 0.8233 1.3877z" fill="url(#linearGradient4572)" stroke-width="5.178"/>
</svg>
