<?xml version="1.0" encoding="UTF-8" standalone="no"?>
<svg
   xmlns:dc="http://purl.org/dc/elements/1.1/"
   xmlns:cc="http://creativecommons.org/ns#"
   xmlns:rdf="http://www.w3.org/1999/02/22-rdf-syntax-ns#"
   xmlns:svg="http://www.w3.org/2000/svg"
   xmlns="http://www.w3.org/2000/svg"
   xmlns:sodipodi="http://sodipodi.sourceforge.net/DTD/sodipodi-0.dtd"
   xmlns:inkscape="http://www.inkscape.org/namespaces/inkscape"
   width="64"
   height="64"
   version="1.1"
   viewBox="0 0 16.933 16.933"
   id="svg34"
   sodipodi:docname="github-desktop.svg"
   inkscape:version="1.0.1 (3bc2e813f5, 2020-09-07)">
  <sodipodi:namedview
     pagecolor="#ffffff"
     bordercolor="#666666"
     borderopacity="1"
     objecttolerance="10"
     gridtolerance="10"
     guidetolerance="10"
     inkscape:pageopacity="0"
     inkscape:pageshadow="2"
     inkscape:window-width="1920"
     inkscape:window-height="942"
     id="namedview36"
     showgrid="false"
     inkscape:zoom="6.0546875"
     inkscape:cx="26.329454"
     inkscape:cy="35.83904"
     inkscape:window-x="0"
     inkscape:window-y="38"
     inkscape:window-maximized="1"
     inkscape:current-layer="svg34" />
  <defs
     id="defs12">
    <style
       type="text/css"
       id="style2" />
    <filter
       id="filter2761-3"
       x="-.024"
       y="-.024"
       width="1.048"
       height="1.048"
       color-interpolation-filters="sRGB">
      <feGaussianBlur
         stdDeviation="0.14552168"
         id="feGaussianBlur4" />
    </filter>
    <linearGradient
       id="linearGradient4673"
       x1="1.2573"
       x2="15.644"
       y1="15.429"
       y2="1.1082"
       gradientTransform="translate(-7e-4 .21485)"
       gradientUnits="userSpaceOnUse">
      <stop
         stop-color="#32dcff"
         offset="0"
         id="stop7" />
      <stop
         stop-color="#3296ff"
         offset="1"
         id="stop9" />
    </linearGradient>
    <style
       type="text/css"
       id="style863" />
    <filter
       id="filter1057"
       x="-.027"
       y="-.027"
       width="1.054"
       height="1.054"
       color-interpolation-filters="sRGB">
      <feGaussianBlur
         stdDeviation="0.61875"
         id="feGaussianBlur865" />
    </filter>
    <linearGradient
       id="linearGradient1053"
       x1="-127"
       x2="-72"
       y1="60"
       y2="5"
       gradientTransform="matrix(0.26457812,0,0,0.26457812,34.792024,-0.13493486)"
       gradientUnits="userSpaceOnUse">
      <stop
         stop-color="#32d7ff"
         offset="0"
         id="stop868" />
      <stop
         stop-color="#329bff"
         offset="1"
         id="stop870" />
    </linearGradient>
    <style
       type="text/css"
       id="style873" />
    <style
       type="text/css"
       id="style875" />
    <style
       type="text/css"
       id="style877" />
    <style
       type="text/css"
       id="style879" />
    <style
       type="text/css"
       id="style881" />
    <style
       type="text/css"
       id="style883" />
    <style
       type="text/css"
       id="style885" />
  </defs>
  <metadata
     id="metadata14">
    <rdf:RDF>
      <cc:Work
         rdf:about="">
        <dc:format>image/svg+xml</dc:format>
        <dc:type
           rdf:resource="http://purl.org/dc/dcmitype/StillImage" />
        <dc:title></dc:title>
      </cc:Work>
    </rdf:RDF>
  </metadata>
  <rect
     x="4.5"
     y="4.5"
     width="55"
     height="55"
     ry="15"
     fill="#141414"
     filter="url(#filter1057)"
     opacity="0.3"
     stroke-linecap="round"
     stroke-width="2.7444"
     id="rect901"
     transform="scale(0.26457812)" />
  <rect
     x="1.1906016"
     y="1.1906016"
     width="14.551797"
     height="14.551797"
     ry="3.9686718"
     fill="url(#linearGradient1053)"
     stroke-linecap="round"
     stroke-width="0.726108"
     id="rect903"
     style="fill:url(#linearGradient1053)" />
  <path
     d="m12.669 3.8377c-0.24156-0.011282-0.92221 0.069399-1.9861 0.80948-0.59514-0.17946-1.2745-0.24589-1.9827-0.24417-0.6479 0.00156-1.3197 0.054649-1.9728 0.24417-1.0642-0.74005-1.6081-0.82032-1.8499-0.80892-0.08062 0.0038-0.11959 0.016057-0.11959 0.016057-0.40457 1.0495-0.1486 1.8259-0.07198 2.0187-0.47526 0.5327-0.7541 1.213-0.7541 2.0453 0 2.922 1.8933 3.5766 3.543 3.7689-0.21209 0.19052-0.34554 0.58445-0.41306 1.0769-0.42324 0.1952-1.5587 0.67293-2.2214-0.49222 0 0-0.39208-0.73243-1.1378-0.78622 0 0-0.72497-0.0094-0.05039 0.46344 0 0 0.48698 0.23465 0.82498 1.1157 0 0 0.50193 1.341 2.5685 0.88036 0.0021 0.35776 0.0038 1.1504 0.0055 1.7956 0.54617 0.0019 0.93245 0.0016 1.4163 0.0016 0.78863 0 1.4054-0.0013 2.2668-0.0013 0.0021-0.78667 0.0044-2.0422 0.0044-2.6476 0-0.71108-0.29397-1.1764-0.56032-1.4119 1.6547-0.18865 3.3919-0.83392 3.3919-3.7634 0-0.83228-0.23146-1.5131-0.70761-2.0459 0.07617-0.19287 0.33183-0.96867-0.07364-2.0182 0 0-0.03907-0.012851-0.1196-0.01661z"
     fill="#fff"
     stroke-width=".26458"
     id="path20" />
  <circle
     cx="-327.3"
     cy="-349.81"
     r="0"
     fill="#5e4aa6"
     stroke-width=".26458"
     id="circle22" />
  <g
     transform="translate(3.0582 -21.439)"
     fill="#5e4aa6"
     stroke-width=".26458"
     id="g32">
    <circle
       cx="-299.02"
       cy="-338.77"
       r="0"
       id="circle24" />
    <circle
       cx="-8.1062"
       cy="-3.9487"
       r="0"
       fill-rule="evenodd"
       id="circle26" />
    <circle
       cx="-278.25"
       cy="-357.69"
       r="0"
       id="circle28" />
    <circle
       cx="12.663"
       cy="-22.859"
       r="0"
       fill-rule="evenodd"
       id="circle30" />
  </g>
  <circle
     cx="-315.28427"
     cy="-338.47479"
     r="0"
     fill="#5e4aa6"
     id="circle889"
     style="stroke-width:0.264578" />
  <circle
     cx="-283.94406"
     cy="-348.87265"
     r="0"
     id="circle891"
     style="fill:#5e4aa6;stroke-width:0.26458" />
  <circle
     cx="6.9697165"
     cy="-14.051351"
     r="0"
     fill-rule="evenodd"
     id="circle893"
     style="fill:#5e4aa6;stroke-width:0.26458" />
  <circle
     cx="-263.17407"
     cy="-367.79266"
     r="0"
     id="circle895"
     style="fill:#5e4aa6;stroke-width:0.26458" />
  <circle
     cx="27.738916"
     cy="-32.961651"
     r="0"
     fill-rule="evenodd"
     id="circle897"
     style="fill:#5e4aa6;stroke-width:0.26458" />
</svg>
