<?xml version="1.0" encoding="UTF-8"?>
<svg width="64" height="64" version="1.1" viewBox="0 0 64 64" xmlns="http://www.w3.org/2000/svg" xmlns:xlink="http://www.w3.org/1999/xlink">
 <defs>
  <filter id="filter1057-3" x="-.027" y="-.027" width="1.054" height="1.054" color-interpolation-filters="sRGB">
   <feGaussianBlur stdDeviation="0.61875"/>
  </filter>
  <linearGradient id="linearGradient1053-7" x1="-127" x2="-72" y1="60" y2="5" gradientTransform="translate(195.28 36.563)" gradientUnits="userSpaceOnUse">
   <stop stop-color="#323741" offset="0"/>
   <stop stop-color="#465064" offset="1"/>
  </linearGradient>
 </defs>
 <g transform="translate(-63.784 -37.073)">
  <rect x="68.284" y="41.573" width="55" height="55" ry="15" fill="#141414" filter="url(#filter1057-3)" image-rendering="optimizeSpeed" opacity=".3" stroke-linecap="round" stroke-width="2.7444"/>
  <rect x="68.284" y="41.573" width="55" height="55" ry="15" fill="url(#linearGradient1053-7)" image-rendering="optimizeSpeed" stroke-linecap="round" stroke-width="2.7444"/>
  <circle cx="95.784" cy="69.073" r="30.001" fill-opacity="0" image-rendering="optimizeSpeed" stroke-width="1.5715"/>
  <path d="m87.415 51.573a0.66674 0.66674 0 0 0-0.29688 0.09375c-6.7913 3.921-10.105 11.923-8.0756 19.498 1.567 5.8479 6.0741 10.455 11.886 12.151a0.66674 0.66674 0 0 0 0.85416-0.63803v-6.1381a10.667 10.667 0 0 0 1.3333 0.45312v8.073c-3.0612-0.44596-5.9914-1.5619-8.4793-3.414-6.6175-4.9267-9.2149-13.604-6.3933-21.358a0.66674 0.66674 0 0 0-0.66667-0.90366 0.66674 0.66674 0 0 0-0.58594 0.44792c-3.0211 8.3009-0.2338 17.608 6.8517 22.883 2.8847 2.1476 6.2955 3.4766 9.8725 3.849a0.66674 0.66674 0 0 0 0.73438-0.66146v-8.6589a10.667 10.667 0 0 0 1.336 0.09375 10.667 10.667 0 0 0 1.336-0.09636v8.6616a0.66674 0.66674 0 0 0 0.73699 0.66146c3.5763-0.37267 6.9858-1.7018 9.8698-3.849 7.0854-5.275 9.8702-14.583 6.849-22.883a0.66674 0.66674 0 0 0-0.67189-0.44792 0.66674 0.66674 0 0 0-0.58074 0.90366c2.8216 7.7528 0.22417 16.431-6.3933 21.358-2.488 1.8523-5.4151 2.9708-8.4766 3.4167v-8.0834a10.667 10.667 0 0 0 1.336-0.4375v6.1303a0.66674 0.66674 0 0 0 0.85156 0.63803c5.8113-1.6967 10.319-6.3035 11.886-12.151 2.0296-7.5747-1.2844-15.576-8.0756-19.498a0.66674 0.66674 0 0 0-0.38282-0.09375 0.66674 0.66674 0 0 0-0.28386 1.2474c6.2742 3.6224 9.3309 10.999 7.4558 17.998-1.3649 5.0941-5.1886 9.0838-10.117 10.844v-5.7214a3.3334 3.3334 0 0 0 2.6615-3.2631 3.3334 3.3334 0 0 0-2.0625-3.0782c1.1166-5.2937 3.3959-3.4596 3.3959-5.4741v-0.73178c0-1.893-5.7265-11.383-9.3334-11.383-3.607 0-9.3334 9.49-9.3334 11.383v0.73178c0 2.0142 2.2791 0.18043 3.3959 5.4714a3.3334 3.3334 0 0 0-2.0626 3.0807 3.3334 3.3334 0 0 0 2.664 3.2604v5.7266c-4.9305-1.7594-8.7546-5.7511-10.12-10.847-1.8751-6.9981 1.1816-14.375 7.4558-17.998a0.66674 0.66674 0 0 0-0.36979-1.2474zm3.7031 19.104a2 2 0 0 1 2 2 2 2 0 0 1-2 2 2 2 0 0 1-2-2 2 2 0 0 1 2-2zm9.3334 0a2 2 0 0 1 2 2 2 2 0 0 1-2 2 2 2 0 0 1-2-2 2 2 0 0 1 2-2z" fill="#149287" stroke-width="1.1358"/>
 </g>
</svg>
