<svg width="64" height="64" version="1.1" viewBox="0 0 16.933 16.933" xmlns="http://www.w3.org/2000/svg" xmlns:xlink="http://www.w3.org/1999/xlink">
 <defs>
  <linearGradient id="linearGradient1058">
   <stop stop-color="#136de2" offset="0"/>
   <stop stop-color="#26bbcf" offset="1"/>
  </linearGradient>
  <linearGradient id="linearGradient1042">
   <stop stop-color="#ffb636" offset="0"/>
   <stop stop-color="#eeed51" offset="1"/>
  </linearGradient>
  <filter id="filter1032" x="-.06" y="-.06" width="1.12" height="1.12" color-interpolation-filters="sRGB">
   <feGaussianBlur stdDeviation="0.6"/>
  </filter>
  <linearGradient id="linearGradient1044" x1="38.838" x2="38.875" y1="31.829" y2="15.598" gradientUnits="userSpaceOnUse" xlink:href="#linearGradient1042"/>
  <linearGradient id="linearGradient1052" x1="16" x2="31.359" y1="39.04" y2="39.04" gradientUnits="userSpaceOnUse" xlink:href="#linearGradient1042"/>
  <linearGradient id="linearGradient1060" x1="29.919" x2="29.975" y1="34.767" y2="25.339" gradientUnits="userSpaceOnUse" xlink:href="#linearGradient1058"/>
  <linearGradient id="linearGradient1068" x1="17.443" x2="17.71" y1="22.502" y2="13.498" gradientUnits="userSpaceOnUse" xlink:href="#linearGradient1058"/>
  <linearGradient id="linearGradient896" x1="7.0313" x2="7.0313" y1="14.699" y2="2.8451" gradientTransform="translate(19.907 .79164)" gradientUnits="userSpaceOnUse">
   <stop stop-color="#2e323e" offset="0"/>
   <stop stop-color="#505664" offset="1"/>
  </linearGradient>
 </defs>
 <g shape-rendering="auto">
  <path d="m4.3693 0.52916c-2.1142 0-3.8402 1.7835-3.8402 3.9682v8.4675c0 2.1846 1.726 3.9682 3.8402 3.9682h8.1944c2.1142 0 3.8402-1.7835 3.8402-3.9682v-8.4675c0-2.1846-1.726-3.9682-3.8402-3.9682zm0.25704 0.52089h7.6808c1.8443 0 3.3291 1.5342 3.3291 3.44v7.9368c0 1.9058-1.4847 3.44-3.3291 3.44h-7.6808c-1.8443 0-3.3291-1.5342-3.3291-3.44v-7.9368c0-1.9058 1.4847-3.44 3.3291-3.44z" color="#000000" color-rendering="auto" dominant-baseline="auto" image-rendering="auto" opacity=".01" solid-color="#000000" stop-color="#000000" style="font-feature-settings:normal;font-variant-alternates:normal;font-variant-caps:normal;font-variant-east-asian:normal;font-variant-ligatures:normal;font-variant-numeric:normal;font-variant-position:normal;font-variation-settings:normal;inline-size:0;isolation:auto;mix-blend-mode:normal;shape-margin:0;shape-padding:0;text-decoration-color:#000000;text-decoration-line:none;text-decoration-style:solid;text-indent:0;text-orientation:mixed;text-transform:none;white-space:normal"/>
  <path d="m4.3587 0.79373c-1.9668 0-3.5639 1.6528-3.5639 3.6876v8.4996c0 2.0348 1.5971 3.6876 3.5639 3.6876h8.2162c1.9668 0 3.5644-1.6528 3.5644-3.6876v-8.4996c0-2.0348-1.5976-3.6876-3.5644-3.6876zm0.27222 0.25631h7.6718c1.8422 0 3.3251 1.5342 3.3251 3.44v7.9368c0 1.9058-1.483 3.44-3.3251 3.44h-7.6718c-1.8422 0-3.3251-1.5342-3.3251-3.44v-7.9368c0-1.9058 1.483-3.44 3.3251-3.44z" color="#000000" color-rendering="auto" dominant-baseline="auto" image-rendering="auto" opacity=".01" solid-color="#000000" stop-color="#000000" style="font-feature-settings:normal;font-variant-alternates:normal;font-variant-caps:normal;font-variant-east-asian:normal;font-variant-ligatures:normal;font-variant-numeric:normal;font-variant-position:normal;font-variation-settings:normal;inline-size:0;isolation:auto;mix-blend-mode:normal;shape-margin:0;shape-padding:0;text-decoration-color:#000000;text-decoration-line:none;text-decoration-style:solid;text-indent:0;text-orientation:mixed;text-transform:none;white-space:normal"/>
  <path d="m4.3097 1.0583c-1.8657 0-3.3751 1.5383-3.3751 3.439v8.4675c0 1.9007 1.57 3.439 3.4357 3.439h8.1996c1.8657 0 3.4274-1.5383 3.4274-3.439v-8.4675c0-1.9007-1.51-3.439-3.3756-3.439h-0.09688c1.794 0.086515 3.2138 1.5819 3.2138 3.4318v7.9368c0 1.9058-1.5059 3.44-3.3766 3.44h-7.7905c-1.8707 0-3.3766-1.5342-3.3766-3.44v-7.9368c0-1.8498 1.4199-3.3451 3.2138-3.4318z" color="#000000" color-rendering="auto" dominant-baseline="auto" image-rendering="auto" opacity=".03" solid-color="#000000" stop-color="#000000" style="font-feature-settings:normal;font-variant-alternates:normal;font-variant-caps:normal;font-variant-east-asian:normal;font-variant-ligatures:normal;font-variant-numeric:normal;font-variant-position:normal;font-variation-settings:normal;inline-size:0;isolation:auto;mix-blend-mode:normal;shape-margin:0;shape-padding:0;text-decoration-color:#000000;text-decoration-line:none;text-decoration-style:solid;text-indent:0;text-orientation:mixed;text-transform:none;white-space:normal"/>
  <path transform="scale(.26458)" d="m4 46.969v2.0312c0 6.6479 5.8957 12 12.544 12h30.961c6.6479 0 12.495-5.3521 12.495-12v-1.9922c-0.02117 7.1849-5.81 12.963-13 12.963h-29.998c-7.2032 0-13.002-5.7987-13.002-13.002z" color="#000000" color-rendering="auto" dominant-baseline="auto" image-rendering="auto" opacity=".03" solid-color="#000000" stop-color="#000000" style="font-feature-settings:normal;font-variant-alternates:normal;font-variant-caps:normal;font-variant-east-asian:normal;font-variant-ligatures:normal;font-variant-numeric:normal;font-variant-position:normal;font-variation-settings:normal;inline-size:0;isolation:auto;mix-blend-mode:normal;shape-margin:0;shape-padding:0;text-decoration-color:#000000;text-decoration-line:none;text-decoration-style:solid;text-indent:0;text-orientation:mixed;text-transform:none;white-space:normal"/>
  <path d="m1.0583 11.906v0.59234c0 1.9386 1.5729 3.4993 3.3318 3.4993h8.1603c1.7589 0 3.3243-1.5608 3.3243-3.4993v-0.58095c-0.0056 2.0952-1.5372 3.7801-3.4395 3.7801h-7.9368c-1.9058 0-3.44-1.691-3.44-3.7915z" color="#000000" color-rendering="auto" dominant-baseline="auto" image-rendering="auto" opacity=".05" solid-color="#000000" stop-color="#000000" style="font-feature-settings:normal;font-variant-alternates:normal;font-variant-caps:normal;font-variant-east-asian:normal;font-variant-ligatures:normal;font-variant-numeric:normal;font-variant-position:normal;font-variation-settings:normal;inline-size:0;isolation:auto;mix-blend-mode:normal;shape-margin:0;shape-padding:0;text-decoration-color:#000000;text-decoration-line:none;text-decoration-style:solid;text-indent:0;text-orientation:mixed;text-transform:none;white-space:normal"/>
 </g>
 <rect x="1.0583" y="1.0583" width="14.816" height="14.816" rx="3.44" ry="3.44" fill="url(#linearGradient896)" stroke-width=".99997"/>
 <g transform="matrix(.33866 0 0 .33866 .50799 .50799)" filter="url(#filter1032)" opacity=".25">
  <path d="m15.332 14h5.336c0.734 0 1.332 0.598 1.332 1.332v5.336c0 0.734-0.598 1.332-1.332 1.332h-5.336c-0.734 0-1.332-0.598-1.332-1.332v-5.336c0-0.734 0.598-1.332 1.332-1.332"/>
  <path d="m27.332 26h5.336c0.738 0 1.332 0.598 1.332 1.332v5.336c0 0.738-0.594 1.332-1.332 1.332h-5.336c-0.734 0-1.332-0.594-1.332-1.332v-5.336c0-0.734 0.598-1.332 1.332-1.332"/>
  <path d="m14 24c-1.109 0-2 0.891-2 2v8c0 1.109 0.891 2 2 2h8c1.109 0 2-0.891 2-2v-8c0-1.109-0.891-2-2-2m-8 1h8c0.555 0 1 0.445 1 1v8c0 0.555-0.445 1-1 1h-8c-0.555 0-1-0.445-1-1v-8c0-0.555 0.445-1 1-1"/>
  <path d="m15 26h6c0.551 0 1 0.449 1 1v6c0 0.551-0.449 1-1 1h-6c-0.551 0-1-0.449-1-1v-6c0-0.551 0.449-1 1-1"/>
  <path d="m26 12c-1.109 0-2 0.891-2 2v8c0 1.109 0.891 2 2 2h8c1.109 0 2-0.891 2-2v-8c0-1.109-0.891-2-2-2m-8 1h8c0.555 0 1 0.445 1 1v8c0 0.555-0.445 1-1 1h-8c-0.555 0-1-0.445-1-1v-8c0-0.555 0.445-1 1-1"/>
  <path d="m27 14h6c0.551 0 1 0.449 1 1v6c0 0.551-0.449 1-1 1h-6c-0.551 0-1-0.449-1-1v-6c0-0.551 0.449-1 1-1"/>
 </g>
 <g transform="matrix(.33866 0 0 .33866 .16933 .16933)">
  <path d="m15.332 14h5.336c0.734 0 1.332 0.598 1.332 1.332v5.336c0 0.734-0.598 1.332-1.332 1.332h-5.336c-0.734 0-1.332-0.598-1.332-1.332v-5.336c0-0.734 0.598-1.332 1.332-1.332" fill="url(#linearGradient1068)"/>
  <path d="m27.332 26h5.336c0.738 0 1.332 0.598 1.332 1.332v5.336c0 0.738-0.594 1.332-1.332 1.332h-5.336c-0.734 0-1.332-0.594-1.332-1.332v-5.336c0-0.734 0.598-1.332 1.332-1.332" fill="url(#linearGradient1060)"/>
  <path transform="matrix(.78125 0 0 .78125 -.5 -.5)" d="m18.561 31.359c-1.4195 0-2.5605 1.141-2.5605 2.5605v10.24c0 1.4195 1.141 2.5605 2.5605 2.5605h10.24c1.4195 0 2.5586-1.141 2.5586-2.5605v-10.24c0-1.4195-1.1391-2.5605-2.5586-2.5605h-10.24zm0 1.2812h10.24c0.7104 0 1.2793 0.5689 1.2793 1.2793v10.24c0 0.7104-0.5689 1.2793-1.2793 1.2793h-10.24c-0.7104 0-1.2812-0.5689-1.2812-1.2793v-10.24c0-0.7104 0.57085-1.2793 1.2812-1.2793zm1.2793 1.2793c-0.70528 0-1.2793 0.57402-1.2793 1.2793v7.6816c0 0.70528 0.57402 1.2793 1.2793 1.2793h7.6797c0.70528 0 1.2812-0.57402 1.2812-1.2793v-7.6816c0-0.70528-0.57597-1.2793-1.2812-1.2793h-7.6797z" fill="url(#linearGradient1052)"/>
  <path transform="matrix(.78125 0 0 .78125 -.5 -.5)" d="m33.92 16c-1.4195 0-2.5605 1.141-2.5605 2.5605v10.24c0 1.4195 1.141 2.5586 2.5605 2.5586h10.24c1.4195 0 2.5605-1.1391 2.5605-2.5586v-10.24c0-1.4195-1.141-2.5605-2.5605-2.5605h-10.24zm0 1.2793h10.24c0.7104 0 1.2793 0.57085 1.2793 1.2812v10.24c0 0.7104-0.5689 1.2793-1.2793 1.2793h-10.24c-0.7104 0-1.2793-0.5689-1.2793-1.2793v-10.24c0-0.7104 0.5689-1.2812 1.2793-1.2812zm1.2793 1.2812c-0.70528 0-1.2793 0.57402-1.2793 1.2793v7.6797c0 0.70528 0.57402 1.2812 1.2793 1.2812h7.6816c0.70528 0 1.2793-0.57597 1.2793-1.2812v-7.6797c0-0.70528-0.57402-1.2793-1.2793-1.2793h-7.6816z" fill="url(#linearGradient1044)"/>
 </g>
</svg>
