<?xml version="1.0" encoding="UTF-8" standalone="no"?>
<svg
   xmlns:dc="http://purl.org/dc/elements/1.1/"
   xmlns:cc="http://creativecommons.org/ns#"
   xmlns:rdf="http://www.w3.org/1999/02/22-rdf-syntax-ns#"
   xmlns:svg="http://www.w3.org/2000/svg"
   xmlns="http://www.w3.org/2000/svg"
   xmlns:xlink="http://www.w3.org/1999/xlink"
   xmlns:sodipodi="http://sodipodi.sourceforge.net/DTD/sodipodi-0.dtd"
   xmlns:inkscape="http://www.inkscape.org/namespaces/inkscape"
   width="64"
   height="64"
   version="1.1"
   id="svg54"
   sodipodi:docname="gnome-nibbles.svg"
   inkscape:version="1.0.1 (3bc2e813f5, 2020-09-07, custom)">
  <metadata
     id="metadata58">
    <rdf:RDF>
      <cc:Work
         rdf:about="">
        <dc:format>image/svg+xml</dc:format>
        <dc:type
           rdf:resource="http://purl.org/dc/dcmitype/StillImage" />
        <dc:title></dc:title>
      </cc:Work>
    </rdf:RDF>
  </metadata>
  <sodipodi:namedview
     pagecolor="#ffffff"
     bordercolor="#666666"
     borderopacity="1"
     objecttolerance="10"
     gridtolerance="10"
     guidetolerance="10"
     inkscape:pageopacity="0"
     inkscape:pageshadow="2"
     inkscape:window-width="1920"
     inkscape:window-height="942"
     id="namedview56"
     showgrid="false"
     inkscape:zoom="6.0546875"
     inkscape:cx="25.786021"
     inkscape:cy="28.685049"
     inkscape:window-x="0"
     inkscape:window-y="38"
     inkscape:window-maximized="1"
     inkscape:current-layer="svg54" />
  <defs
     id="defs20">
    <linearGradient
       id="linearGradient867"
       x1="32.243"
       x2="32.42"
       y1="47.827"
       y2="14.844"
       gradientTransform="translate(-1.0711 -.33699)"
       gradientUnits="userSpaceOnUse">
      <stop
         stop-color="#ff4c1c"
         offset="0"
         id="stop2" />
      <stop
         stop-color="#ffbf25"
         offset="1"
         id="stop4" />
    </linearGradient>
    <linearGradient
       id="linearGradient871"
       x1="12.684"
       x2="48.336"
       y1="29.802"
       y2="29.802"
       gradientTransform="translate(-1.0711 -.33699)"
       gradientUnits="userSpaceOnUse">
      <stop
         stop-color="#f60"
         offset="0"
         id="stop7" />
      <stop
         stop-color="#f60"
         stop-opacity="0"
         offset="1"
         id="stop9" />
    </linearGradient>
    <filter
       id="filter908"
       x="-.061568"
       y="-.05851"
       width="1.1231"
       height="1.117"
       color-interpolation-filters="sRGB">
      <feGaussianBlur
         stdDeviation="0.74084545"
         id="feGaussianBlur12" />
    </filter>
    <linearGradient
       id="linearGradient862-3"
       x1="7.9373"
       x2="7.9373"
       y1="15.081"
       y2="1.852"
       gradientTransform="matrix(3.7795,0,0,3.7795,12.881645,-14.842713)"
       gradientUnits="userSpaceOnUse">
      <stop
         stop-color="#f1efeb"
         offset="0"
         id="stop15" />
      <stop
         stop-color="#fdfcfc"
         offset="1"
         id="stop17" />
    </linearGradient>
    <filter
       id="filter2761"
       x="-.024"
       y="-.024"
       width="1.048"
       height="1.048"
       color-interpolation-filters="sRGB">
      <feGaussianBlur
         stdDeviation="0.14552168"
         id="feGaussianBlur2" />
    </filter>
    <linearGradient
       id="a-9"
       x1="23.487"
       x2="23.487"
       y1="15.18"
       y2="32.913"
       gradientTransform="matrix(.12676 0 0 .12676 -27.515 6.7925)"
       gradientUnits="userSpaceOnUse">
      <stop
         stop-color="#141414"
         offset="0"
         id="stop5" />
      <stop
         stop-color="#30277f"
         offset="1"
         id="stop7-3" />
    </linearGradient>
    <radialGradient
       id="c-7"
       cx="24.047"
       cy="23.949"
       r="2.9867"
       gradientTransform="matrix(0.2056,-3.7539e-8,2.8431e-8,0.15571,-39.607,5.456)"
       gradientUnits="userSpaceOnUse">
      <stop
         stop-color="#2839e6"
         offset="0"
         id="stop10" />
      <stop
         stop-opacity="0"
         offset="1"
         id="stop12" />
    </radialGradient>
    <linearGradient
       id="d-6"
       x1="361.36"
       x2="361.36"
       y1="616.07"
       y2="722.79"
       gradientTransform="matrix(.0040372 0 0 .0040372 -25.925 7.1257)"
       gradientUnits="userSpaceOnUse">
      <stop
         stop-color="#fff"
         offset="0"
         id="stop15-6" />
      <stop
         stop-color="#fff"
         stop-opacity="0"
         offset="1"
         id="stop17-7" />
    </linearGradient>
    <radialGradient
       id="radialGradient123131"
       cx="-24.473"
       cy="9.8348"
       r="1.1409"
       gradientTransform="matrix(1.4202,0,0,1.0512,0.054505,-1.1471)"
       gradientUnits="userSpaceOnUse"
       xlink:href="#a-9" />
    <linearGradient
       id="linearGradient123141"
       x1="-24.485"
       x2="-24.485"
       y1="8.6962"
       y2="9.7506"
       gradientTransform="translate(-10.196,-0.6431)"
       gradientUnits="userSpaceOnUse"
       xlink:href="#d-6" />
    <linearGradient
       id="linearGradient123149"
       x1="-24.478"
       x2="-24.478"
       y1="11.104"
       y2="8.4912"
       gradientTransform="translate(-10.229,-0.6431)"
       gradientUnits="userSpaceOnUse">
      <stop
         stop-color="#2d1edc"
         offset="0"
         id="stop22" />
      <stop
         stop-color="#141414"
         offset="1"
         id="stop24" />
    </linearGradient>
    <radialGradient
       id="radialGradient123155"
       cx="-24.473"
       cy="9.8348"
       r="1.1409"
       gradientTransform="matrix(1.1403,0,0,0.84405,-6.7958,0.89063)"
       gradientUnits="userSpaceOnUse"
       xlink:href="#a-9" />
    <linearGradient
       id="linearGradient123157"
       x1="-24.478"
       x2="-24.478"
       y1="11.104"
       y2="8.4912"
       gradientTransform="matrix(0.8029,0,0,0.8029,-15.053,1.2953)"
       gradientUnits="userSpaceOnUse"
       xlink:href="#a-9" />
    <radialGradient
       id="radialGradient123159"
       cx="-24.473"
       cy="9.8348"
       r="1.5211"
       gradientTransform="matrix(0.93082,0,0,0.93082,-11.889,0.037279)"
       gradientUnits="userSpaceOnUse">
      <stop
         stop-color="#291dc0"
         offset="0"
         id="stop29" />
      <stop
         stop-color="#1b1b23"
         offset="1"
         id="stop31" />
    </radialGradient>
    <linearGradient
       id="linearGradient123161"
       x1="361.36"
       x2="361.36"
       y1="616.07"
       y2="722.79"
       gradientTransform="matrix(0.0040372,0,0,0.0040372,-36.122,6.4826)"
       gradientUnits="userSpaceOnUse"
       xlink:href="#d-6" />
    <linearGradient
       id="linearGradient123197"
       x1="-36.117"
       x2="-33.22"
       y1="10.638"
       y2="7.7404"
       gradientUnits="userSpaceOnUse">
      <stop
         offset="0"
         id="stop35" />
      <stop
         stop-opacity="0"
         offset="1"
         id="stop37" />
    </linearGradient>
    <linearGradient
       id="linearGradient952"
       x1="-20.384"
       x2="-23.272"
       y1="6.1331"
       y2="15.312"
       gradientUnits="userSpaceOnUse">
      <stop
         stop-color="#232323"
         offset="0"
         id="stop40" />
      <stop
         stop-color="#323296"
         offset=".95004"
         id="stop42" />
      <stop
         stop-color="#232323"
         offset="1"
         id="stop44" />
    </linearGradient>
    <linearGradient
       id="linearGradient1000"
       x1="-25.122"
       x2="-15.582"
       y1="9.3424"
       y2="9.3424"
       gradientUnits="userSpaceOnUse">
      <stop
         stop-color="#407fff"
         offset="0"
         id="stop47" />
      <stop
         stop-color="#ff407a"
         offset="1"
         id="stop49" />
    </linearGradient>
    <linearGradient
       id="linearGradient1024"
       x1="1.3315"
       x2="15.65"
       y1="15.576"
       y2="1.17"
       gradientUnits="userSpaceOnUse">
      <stop
         stop-color="#dddfe1"
         offset="0"
         id="stop52" />
      <stop
         stop-color="#f3f4f6"
         stop-opacity=".99608"
         offset="1"
         id="stop54" />
    </linearGradient>
    <filter
       color-interpolation-filters="sRGB"
       height="1.048"
       width="1.048"
       y="-.024"
       x="-.024"
       id="filter2761-3">
      <feGaussianBlur
         id="feGaussianBlur2-3"
         stdDeviation="0.14552168" />
    </filter>
    <linearGradient
       gradientUnits="userSpaceOnUse"
       gradientTransform="matrix(3.7796 0 0 3.7796 -.0026448 .53066)"
       y2="1.17"
       y1="15.576"
       x2="15.65"
       x1="1.3315"
       id="linearGradient1024-6">
      <stop
         id="stop5-7"
         offset="0"
         stop-color="#dddfe1" />
      <stop
         id="stop7-5"
         offset="1"
         stop-opacity=".99608"
         stop-color="#f3f4f6" />
    </linearGradient>
    <filter
       inkscape:collect="always"
       style="color-interpolation-filters:sRGB"
       id="filter1057"
       x="-0.027000001"
       width="1.054"
       y="-0.027000001"
       height="1.054">
      <feGaussianBlur
         inkscape:collect="always"
         stdDeviation="0.61875"
         id="feGaussianBlur1059" />
    </filter>
    <linearGradient
       inkscape:collect="always"
       xlink:href="#linearGradient1051"
       id="linearGradient1053"
       x1="-127"
       y1="60"
       x2="-72"
       y2="5"
       gradientUnits="userSpaceOnUse"
       gradientTransform="translate(131.5,-0.50999736)" />
    <linearGradient
       inkscape:collect="always"
       id="linearGradient1051">
      <stop
         style="stop-color:#dee0e2;stop-opacity:1"
         offset="0"
         id="stop1047" />
      <stop
         style="stop-color:#f1f3f5;stop-opacity:0.99607843"
         offset="1"
         id="stop1049" />
    </linearGradient>
  </defs>
  <rect
     ry="15"
     y="4.4999995"
     x="4.4999995"
     height="55"
     width="55"
     id="rect1055"
     style="opacity:0.3;fill:#141414;fill-opacity:1;stroke-width:2.74436;stroke-linecap:round;filter:url(#filter1057)" />
  <rect
     style="fill:url(#linearGradient1053);fill-opacity:1;stroke-width:2.74436;stroke-linecap:round"
     id="rect1045"
     width="54.999996"
     height="54.999996"
     x="4.5000019"
     y="4.5000019"
     ry="14.999999" />
  <g
     transform="matrix(1.1081 0 0 1.1081 -4.3729 -2.7843)"
     filter="url(#filter908)"
     opacity=".15"
     stroke-width="3.7796"
     id="g44">
    <path
       d="m26.684 16.199a7.2494 7.2494 0 0 0-1.9844 0.23828c-1.7462 0.45355-3.4168 1.511-4.6074 2.9473-1.1868 1.4287-1.8964 3.2465-1.6621 5.1816 0.24567 3.3034 1.7952 8.7379 3.7266 13.387 0.96759 2.3282 2.0296 4.4526 3.0879 6.0098 0.52914 0.78239 1.0548 1.4214 1.584 1.875 0.51781 0.44599 1.0496 0.72254 1.5977 0.71876a3.2353 3.2353 0 0 0 2.5176-0.73048c0.72946-0.57072 1.3536-1.3896 1.9395-2.293 1.1339-1.7537 2.1541-3.9797 3.3145-5.2988 0.11339 0.13229 0.26792 0.55034 0.45312 0.88673 0.36284 0.67656 0.83277 1.6605 1.4375 2.6621 0.60474 1.0054 1.3478 1.9641 2.2852 2.7578 0.93357 0.78616 2.0724 1.2853 3.418 1.2891 0.80885 0.06047 1.6254 0.0046 2.2793-0.32422 0.66143-0.3326 1.1631-0.86538 1.1934-1.6855v-0.0078a1.6101 1.6101 0 0 0-0.8086-1.4023c-0.45733-0.28725-1.0158-0.47901-1.6055-0.78516-1.1755-0.6123-2.5093-1.6067-3.3105-4.498-0.63497-2.2942-1.4749-4.0114-2.3594-5.168-0.88444-1.1528-1.5984-2.1793-2.7285-2.0508-1.9692 0.223-2.8947 3.0462-3.832 4.543-0.5745 0.92223-1.1153 1.8389-1.584 2.5684-0.37796 0.5934-0.66178 0.92363-0.88478 1.1504-0.72569-0.7786-1.1576-1.6172-1.082-2.6074 0.09071-1.1112 0.72666-2.3812 1.3125-3.7305 1.1717-2.6949 2.6636-5.7274 2.3574-8.7247-0.22299-2.1922-1.3704-4.6478-2.9805-5.9102a5.3028 5.3028 0 0 0-2.4199-0.94532 5.7601 5.7601 0 0 0-0.6543-0.05273zm-0.1582 3.7148c1.1377 0.44599 2.0266 1.4217 2.4121 2.1738a8.8179 8.8179 0 0 0-2.4199-1.0215 5.7828 5.7828 0 0 0-2.0059 1.1602 3.7796 3.7796 0 0 1 2.0137-2.3125zm-4.4062 1.7344c0.92182 0.01382 1.8115 0.26681 2.3926 0.56445-1.0092 0.03024-1.9502 0.18729-2.6191 0.41406-0.41954 0.51025-0.77587 1.1355-0.96485 1.9141-0.34772-1.0129-0.26535-1.9737 0.26758-2.8203 0.30426-0.05575 0.61656-0.07687 0.92384-0.07227zm4.2285 0.54102c0.98648-0.09449 1.84 1.1685 1.9043 2.8164 0.03024 0.7068-0.09354 1.2464-0.32031 1.7793a9.8082 9.8082 0 0 0-2.668 0.42773c-0.05291-0.08315-0.1148-0.15929-0.16016-0.25-0.0076 0.10583-0.02602 0.21241-0.04492 0.31445-0.8731 0.29103-1.6316 0.80452-2.2363 1.2656-0.42332-0.46111-0.7533-1.203-0.85157-2.0723-0.17386-1.5043 0.3863-3.042 1.248-3.1289 0.56316-0.05669 1.1099 0.66584 1.4766 1.418 0.10961-1.3833 0.7906-2.4872 1.6523-2.5703zm2.5898 5.2383c-0.02646 2.3736-2.382 5.2164-3.8145 5.2051-2.0145-0.0189-2.7022-1.3871-3.1406-2.332 2.2753-0.54048 5.1673-1.8223 6.9551-2.873z"
       fill-rule="evenodd"
       id="path38" />
    <path
       d="m24.323 26.059a0.63308 0.87192 0 0 1-1.2662 0 0.63308 0.87192 0 1 1 1.2662 0zm2.7175-0.65009a0.63308 0.87192 0 0 1-1.2662 0 0.63308 0.87192 0 1 1 1.2662 0z"
       id="path40" />
    <path
       d="m28.719 28.705c-0.41576 0.54804-1.2964 0.9638-2.7591 1.6063 1.6668-0.3515 1.6366-0.01134 1.6895 0.49891a7.0679 7.0679 0 0 0 1.0696-2.1052zm-3.515 1.8974c-1.5496 0.45355-2.23 0.55938-2.8801 0.36662a3.0842 3.0842 0 0 0 1.4665 1.3985c-0.25323-0.51025-0.25323-0.97514 1.4098-1.7651z"
       opacity=".5"
       id="path42" />
  </g>
  <g
     transform="matrix(1.1081 0 0 1.1081 -4.3729 -2.7843)"
     stroke-width="3.7796"
     id="g52">
    <path
       d="m26.684 16.199a7.2494 7.2494 0 0 0-1.9844 0.23828c-1.7462 0.45355-3.4168 1.511-4.6074 2.9473-1.1868 1.4287-1.8964 3.2465-1.6621 5.1816 0.24567 3.3034 1.7952 8.7379 3.7266 13.387 0.96759 2.3282 2.0296 4.4526 3.0879 6.0098 0.52914 0.78239 1.0548 1.4214 1.584 1.875 0.51781 0.44599 1.0496 0.72254 1.5977 0.71876a3.2353 3.2353 0 0 0 2.5176-0.73048c0.72946-0.57072 1.3536-1.3896 1.9395-2.293 1.1339-1.7537 2.1541-3.9797 3.3145-5.2988 0.11339 0.13229 0.26792 0.55034 0.45312 0.88673 0.36284 0.67656 0.83277 1.6605 1.4375 2.6621 0.60474 1.0054 1.3478 1.9641 2.2852 2.7578 0.93357 0.78616 2.0724 1.2853 3.418 1.2891 0.80885 0.06047 1.6254 0.0046 2.2793-0.32422 0.66143-0.3326 1.1631-0.86538 1.1934-1.6855v-0.0078a1.6101 1.6101 0 0 0-0.8086-1.4023c-0.45733-0.28725-1.0158-0.47901-1.6055-0.78516-1.1755-0.6123-2.5093-1.6067-3.3105-4.498-0.63497-2.2942-1.4749-4.0114-2.3594-5.168-0.88444-1.1528-1.5984-2.1793-2.7285-2.0508-1.9692 0.223-2.8947 3.0462-3.832 4.543-0.5745 0.92223-1.1153 1.8389-1.584 2.5684-0.37796 0.5934-0.66178 0.92363-0.88478 1.1504-0.72569-0.7786-1.1576-1.6172-1.082-2.6074 0.09071-1.1112 0.72666-2.3812 1.3125-3.7305 1.1717-2.6949 2.6636-5.7274 2.3574-8.7247-0.22299-2.1922-1.3704-4.6478-2.9805-5.9102a5.3028 5.3028 0 0 0-2.4199-0.94532 5.7601 5.7601 0 0 0-0.6543-0.05273zm-0.1582 3.7148c1.1377 0.44599 2.0266 1.4217 2.4121 2.1738a8.8179 8.8179 0 0 0-2.4199-1.0215 5.7828 5.7828 0 0 0-2.0059 1.1602 3.7796 3.7796 0 0 1 2.0137-2.3125zm-4.4062 1.7344c0.92182 0.01382 1.8115 0.26681 2.3926 0.56445-1.0092 0.03024-1.9502 0.18729-2.6191 0.41406-0.41954 0.51025-0.77587 1.1355-0.96485 1.9141-0.34772-1.0129-0.26535-1.9737 0.26758-2.8203 0.30426-0.05575 0.61656-0.07687 0.92384-0.07227zm4.2285 0.54102c0.98648-0.09449 1.84 1.1685 1.9043 2.8164 0.03024 0.7068-0.09354 1.2464-0.32031 1.7793a9.8082 9.8082 0 0 0-2.668 0.42773c-0.05291-0.08315-0.1148-0.15929-0.16016-0.25-0.0076 0.10583-0.02602 0.21241-0.04492 0.31445-0.8731 0.29103-1.6316 0.80452-2.2363 1.2656-0.42332-0.46111-0.7533-1.203-0.85157-2.0723-0.17386-1.5043 0.3863-3.042 1.248-3.1289 0.56316-0.05669 1.1099 0.66584 1.4766 1.418 0.10961-1.3833 0.7906-2.4872 1.6523-2.5703zm2.5898 5.2383c-0.02646 2.3736-2.382 5.2164-3.8145 5.2051-2.0145-0.0189-2.7022-1.3871-3.1406-2.332 2.2753-0.54048 5.1673-1.8223 6.9551-2.873z"
       fill="url(#linearGradient867)"
       fill-rule="evenodd"
       id="path46" />
    <path
       d="m24.323 26.059a0.63308 0.87192 0 0 1-1.2662 0 0.63308 0.87192 0 1 1 1.2662 0zm2.7175-0.65009a0.63308 0.87192 0 0 1-1.2662 0 0.63308 0.87192 0 1 1 1.2662 0z"
       fill="url(#linearGradient871)"
       id="path48" />
    <path
       d="m28.719 28.705c-0.41576 0.54804-1.2964 0.9638-2.7591 1.6063 1.6668-0.3515 1.6366-0.01134 1.6895 0.49891a7.0679 7.0679 0 0 0 1.0696-2.1052zm-3.515 1.8974c-1.5496 0.45355-2.23 0.55938-2.8801 0.36662a3.0842 3.0842 0 0 0 1.4665 1.3985c-0.25323-0.51025-0.25323-0.97514 1.4098-1.7651z"
       fill="url(#linearGradient871)"
       opacity=".5"
       id="path50" />
  </g>
</svg>
