<svg id="Apps-Visual-Studio-Code" width="64" height="64" enable-background="new 0 0 1024 1024" image-rendering="optimizeSpeed" version="1.1" viewBox="0 0 64 64" xmlns="http://www.w3.org/2000/svg" xmlns:xlink="http://www.w3.org/1999/xlink">
 <defs>
  <linearGradient id="d" x1="32" x2="32" y1="13" y2="51" gradientTransform="matrix(.99609 0 0 .99609 2 2)" gradientUnits="userSpaceOnUse">
   <stop stop-color="#fff" offset="0"/>
   <stop stop-color="#ccc" offset="1"/>
  </linearGradient>
  <filter id="e" x="-.063829" y="-.056604" width="1.1277" height="1.1132" color-interpolation-filters="sRGB">
   <feGaussianBlur stdDeviation="0.89623432"/>
  </filter>
  <linearGradient id="linearGradient862-3" x1="7.9373" x2="7.9373" y1="15.081" y2="1.852" gradientTransform="matrix(3.7795 0 0 3.7795 .00014324 .031541)" gradientUnits="userSpaceOnUse">
   <stop stop-color="#1a1a1a" offset="0"/>
   <stop stop-color="#4d4d4d" offset="1"/>
  </linearGradient>
 </defs>
 <g transform="scale(3.7796)" shape-rendering="auto">
  <path d="m4.3693 0.52916c-2.1142 0-3.8402 1.7835-3.8402 3.9682v8.4675c0 2.1846 1.726 3.9682 3.8402 3.9682h8.1944c2.1142 0 3.8402-1.7835 3.8402-3.9682v-8.4675c0-2.1846-1.726-3.9682-3.8402-3.9682zm0.25704 0.52089h7.6808c1.8443 0 3.3291 1.5342 3.3291 3.44v7.9368c0 1.9058-1.4847 3.44-3.3291 3.44h-7.6808c-1.8443 0-3.3291-1.5342-3.3291-3.44v-7.9368c0-1.9058 1.4847-3.44 3.3291-3.44z" color="#000000" color-rendering="auto" dominant-baseline="auto" enable-background="accumulate" image-rendering="auto" opacity=".01" solid-color="#000000" stop-color="#000000" style="font-feature-settings:normal;font-variant-alternates:normal;font-variant-caps:normal;font-variant-east-asian:normal;font-variant-ligatures:normal;font-variant-numeric:normal;font-variant-position:normal;font-variation-settings:normal;inline-size:0;isolation:auto;mix-blend-mode:normal;shape-margin:0;shape-padding:0;text-decoration-color:#000000;text-decoration-line:none;text-decoration-style:solid;text-indent:0;text-orientation:mixed;text-transform:none;white-space:normal"/>
  <path d="m4.3587 0.79373c-1.9668 0-3.5639 1.6528-3.5639 3.6876v8.4996c0 2.0348 1.5971 3.6876 3.5639 3.6876h8.2162c1.9668 0 3.5644-1.6528 3.5644-3.6876v-8.4996c0-2.0348-1.5976-3.6876-3.5644-3.6876zm0.27222 0.25631h7.6718c1.8422 0 3.3251 1.5342 3.3251 3.44v7.9368c0 1.9058-1.483 3.44-3.3251 3.44h-7.6718c-1.8422 0-3.3251-1.5342-3.3251-3.44v-7.9368c0-1.9058 1.483-3.44 3.3251-3.44z" color="#000000" color-rendering="auto" dominant-baseline="auto" enable-background="accumulate" image-rendering="auto" opacity=".01" solid-color="#000000" stop-color="#000000" style="font-feature-settings:normal;font-variant-alternates:normal;font-variant-caps:normal;font-variant-east-asian:normal;font-variant-ligatures:normal;font-variant-numeric:normal;font-variant-position:normal;font-variation-settings:normal;inline-size:0;isolation:auto;mix-blend-mode:normal;shape-margin:0;shape-padding:0;text-decoration-color:#000000;text-decoration-line:none;text-decoration-style:solid;text-indent:0;text-orientation:mixed;text-transform:none;white-space:normal"/>
  <path d="m4.3097 1.0583c-1.8657 0-3.3751 1.5383-3.3751 3.439v8.4675c0 1.9007 1.57 3.439 3.4357 3.439h8.1996c1.8657 0 3.4274-1.5383 3.4274-3.439v-8.4675c0-1.9007-1.51-3.439-3.3756-3.439h-0.09688c1.794 0.086515 3.2138 1.5819 3.2138 3.4318v7.9368c0 1.9058-1.5059 3.44-3.3766 3.44h-7.7905c-1.8707 0-3.3766-1.5342-3.3766-3.44v-7.9368c0-1.8498 1.4199-3.3451 3.2138-3.4318z" color="#000000" color-rendering="auto" dominant-baseline="auto" enable-background="accumulate" image-rendering="auto" opacity=".03" solid-color="#000000" stop-color="#000000" style="font-feature-settings:normal;font-variant-alternates:normal;font-variant-caps:normal;font-variant-east-asian:normal;font-variant-ligatures:normal;font-variant-numeric:normal;font-variant-position:normal;font-variation-settings:normal;inline-size:0;isolation:auto;mix-blend-mode:normal;shape-margin:0;shape-padding:0;text-decoration-color:#000000;text-decoration-line:none;text-decoration-style:solid;text-indent:0;text-orientation:mixed;text-transform:none;white-space:normal"/>
  <path transform="scale(.26458)" d="m4 46.969v2.0312c0 6.6479 5.8957 12 12.544 12h30.961c6.6479 0 12.495-5.3521 12.495-12v-1.9922c-0.02117 7.1849-5.81 12.963-13 12.963h-29.998c-7.2032 0-13.002-5.7987-13.002-13.002z" color="#000000" color-rendering="auto" dominant-baseline="auto" enable-background="accumulate" image-rendering="auto" opacity=".03" solid-color="#000000" stop-color="#000000" style="font-feature-settings:normal;font-variant-alternates:normal;font-variant-caps:normal;font-variant-east-asian:normal;font-variant-ligatures:normal;font-variant-numeric:normal;font-variant-position:normal;font-variation-settings:normal;inline-size:0;isolation:auto;mix-blend-mode:normal;shape-margin:0;shape-padding:0;text-decoration-color:#000000;text-decoration-line:none;text-decoration-style:solid;text-indent:0;text-orientation:mixed;text-transform:none;white-space:normal"/>
  <path d="m1.0583 11.906v0.59234c0 1.9386 1.5729 3.4993 3.3318 3.4993h8.1603c1.7589 0 3.3243-1.5608 3.3243-3.4993v-0.58095c-0.0056 2.0952-1.5372 3.7801-3.4395 3.7801h-7.9368c-1.9058 0-3.44-1.691-3.44-3.7915z" color="#000000" color-rendering="auto" dominant-baseline="auto" enable-background="accumulate" image-rendering="auto" opacity=".05" solid-color="#000000" stop-color="#000000" style="font-feature-settings:normal;font-variant-alternates:normal;font-variant-caps:normal;font-variant-east-asian:normal;font-variant-ligatures:normal;font-variant-numeric:normal;font-variant-position:normal;font-variation-settings:normal;inline-size:0;isolation:auto;mix-blend-mode:normal;shape-margin:0;shape-padding:0;text-decoration-color:#000000;text-decoration-line:none;text-decoration-style:solid;text-indent:0;text-orientation:mixed;text-transform:none;white-space:normal"/>
 </g>
 <rect x="4" y="4" width="56" height="56" rx="13.002" ry="13.002" fill="url(#linearGradient862-3)" stroke-width="3.7795"/>
 <path d="m31.924 13c-1.3507 0-2.2123 0.99172-2.2976 2.302v2.67c0.12116 1.1981 1.1443 2.154 2.3738 2.154a2.4232 2.4232 0 0 0 0.88851-0.15257 2.4277 2.4277 0 0 0 1.4808-2.0014v-2.5982a2.4142 2.4142 0 0 0-2.4456-2.3738zm-4.5996 5.5644a14.844 14.844 0 0 0-4.3079 2.4501 4.3977 4.3977 0 0 1 1.3373 1.4808c0.01346 0.01796-0.0091 0.05833 0 0.07629a4.2586 4.2586 0 0 1 0.37246 0.893c0.0091 0.02244 0 0.04937 0 0.0718a4.5458 4.5458 0 0 1 0.07629 1.9296c-0.05834 0.2872-0.18847 0.55644-0.29617 0.81671a4.2586 4.2586 0 0 1-3.9355 2.67 3.9265 3.9265 0 0 1-2.2258-0.66863c-0.09423 0.26924-0.23783 0.52952-0.29617 0.81671v0.07628c-0.08974 0.43977-0.1795 0.87954-0.22437 1.3328v0.07628c-0.04488 0.45772-0.0718 0.94236-0.0718 1.4091v0.14808c0 0.44426 0.03141 0.90646 0.0718 1.3373v0.14809c0.04937 0.4263 0.13462 0.84364 0.22437 1.261 0.08077 0.41284 0.1795 0.79428 0.29617 1.1892a5.9234 5.9234 0 0 1 2.5219-0.74491c0.86159-0.04488 1.6603 0.20642 2.302 0.67311a3.9444 3.9444 0 0 1 1.4091 1.8488 4.631 4.631 0 0 1 0.29617 1.7052c0 1.2071-0.98723 2.7912-1.7052 3.5675 0.29168 0.22437 0.57439 0.45772 0.88851 0.66414 0.37694 0.2513 0.71799 0.52952 1.1129 0.74491 0.56542 0.30514 1.1757 0.58336 1.7815 0.81671 0.11667 0.04488 0.24681 0.05385 0.37246 0.0718a2.513 2.513 0 0 1-0.07629-0.52054c0-1.8847 2.127-3.4104 4.7522-3.4104 2.6207 0 4.7477 1.5257 4.7477 3.4104 0 0.17052-0.04488 0.35899-0.07628 0.52054 0.71799-0.24681 1.4225-0.53849 2.0777-0.88851 0.50708-0.26924 0.94236-0.5699 1.4135-0.893 0.1436-0.09872 0.30514-0.18847 0.44426-0.29617 0.11218-0.08077 0.18847-0.20642 0.29617-0.29617a4.5906 4.5906 0 0 1-0.81671-0.81671 3.8951 3.8951 0 0 1-0.81671-1.7815 5.0932 5.0932 0 0 1-0.0718-0.88851c0-0.57888 0.13014-1.1443 0.29617-1.6334 0.0045-0.02244-0.0091-0.05385 0-0.07629a3.6797 3.6797 0 0 1 0.29617-0.66414c0.13462-0.22437 0.27822-0.40387 0.44874-0.59683 0.17501-0.20642 0.37694-0.3545 0.59234-0.51605a3.6348 3.6348 0 0 1 1.3328-0.67311 4.3573 4.3573 0 0 1 0.81671-0.1436c0.66863-0.04039 1.795 0.22886 2.67 0.74042 0.1077-0.37246 0.22437-0.72696 0.30066-1.1129 0.08526-0.41733 0.17052-0.83466 0.22437-1.261 0-0.04936-0.0091-0.09873 0-0.14809a14.943 14.943 0 0 0 0-2.9707c-0.04937-0.44874-0.13462-0.893-0.22437-1.3328-0.0091-0.02244 0-0.05386 0-0.07629-0.0673-0.31412-0.19296-0.59683-0.30066-0.88851a3.922 3.922 0 0 1-2.2258 0.66862 4.2316 4.2316 0 0 1-3.0425-1.261 4.5099 4.5099 0 0 1-0.51605-0.67311 4.2496 4.2496 0 0 1-0.22437-4.4515 4.2496 4.2496 0 0 1 0.52054-0.81222 4.5323 4.5323 0 0 1 0.74042-0.67312 14.18 14.18 0 0 0-4.2272-2.4456c0.03141 0.16604 0.07179 0.35002 0.07179 0.52054 0 1.8847-2.127 3.4104-4.7477 3.4104-1.6424 0-3.0784-0.57439-3.9355-1.4808a3.4104 3.4104 0 0 1-0.44427-0.59232 2.6251 2.6251 0 0 1-0.36797-1.3373c0-0.17052 0.04039-0.35899 0.0718-0.52054zm-10.317 1.6334a2.4726 2.4726 0 0 0-1.4808 1.1129 2.4232 2.4232 0 0 0 0.74042 3.3386l1.9296 1.1892 0.74042 0.44425a2.9168 2.9168 0 0 0 0.9648 0.22437 2.8405 2.8405 0 0 0 1.8578-0.74491 2.3335 2.3335 0 0 0 0.74043-1.7052 2.4771 2.4771 0 0 0-0.81671-1.8578l-0.88851-0.51606-2.0059-1.1892a2.3065 2.3065 0 0 0-1.7815-0.29617zm29.092 0a2.3155 2.3155 0 0 0-0.893 0.29617l-2.0014 1.1892-0.893 0.52054c-0.02693 0.01795-0.04488 0.04488-0.07179 0.0718a2.1091 2.1091 0 0 0-0.74491 1.7052 2.3335 2.3335 0 0 0 0.74491 1.7052 2.8361 2.8361 0 0 0 2.8181 0.59234l0.74043-0.43977 1.9296-1.1892a2.4232 2.4232 0 0 0 0.74491-3.3386 2.3559 2.3559 0 0 0-2.3783-1.1129zm-14.099 7.0497a4.7499 4.7499 0 1 1 0 9.4999c-1.3148 0-2.4815-0.55195-3.3386-1.4135-0.2154-0.21091-0.42631-0.41284-0.59683-0.66414a4.7836 4.7836 0 0 1-0.81671-2.6745c0-0.32758 0.01347-0.65516 0.07629-0.9648 0.44425-2.1629 2.3783-3.7829 4.6759-3.7829zm0 2.3783c-0.98723 0-1.795 0.62824-2.154 1.4808a2.2303 2.2303 0 0 0-0.22437 0.88851 2.3738 2.3738 0 1 0 2.3783-2.3738zm-12.098 7.9383c-0.55195 0.05833-0.70004 0.19745-0.9648 0.29617l-0.51605 0.29617-1.9296 1.1847a2.4232 2.4232 0 0 0-0.74491 3.3431 2.4456 2.4456 0 0 0 3.3386 0.81222l1.9296-1.1847 0.67311-0.44874a2.7553 2.7553 0 0 0 0.73594-1.1847 1.4853 1.4853 0 0 0 0.07629-0.44874 2.863 2.863 0 0 0-0.74042-1.8533 2.6027 2.6027 0 0 0-0.81671-0.66414 2.0642 2.0642 0 0 0-1.0411-0.14808zm24.268 0.14808a2.5309 2.5309 0 0 0-2.5264 2.5219c0 0.65068 0.18398 1.1219 0.59683 1.5571l0.74043 0.52054 1.9296 1.1847a2.4456 2.4456 0 0 0 3.3386-0.81222 2.4232 2.4232 0 0 0-0.74042-3.3431l-1.9296-1.1847c-0.17052-0.09873-0.33207-0.21091-0.52054-0.29617a2.7553 2.7553 0 0 0-0.88851-0.14808zm-12.17 6.1567a2.4456 2.4456 0 0 0-0.893 0.14808 3.0918 3.0918 0 0 0-0.81671 0.52054 2.1988 2.1988 0 0 0-0.81222 1.4808v2.6072c0 1.3103 1.0949 2.3738 2.4456 2.3738a2.4142 2.4142 0 0 0 2.4501-2.3783v-2.5937a2.4097 2.4097 0 0 0-2.3783-2.154z" filter="url(#e)" opacity=".75" stroke-width="3.7796"/>
 <path d="m31.924 13c-1.3507 0-2.2123 0.99172-2.2976 2.302v2.67c0.12116 1.1981 1.1443 2.154 2.3738 2.154a2.4232 2.4232 0 0 0 0.88851-0.15257 2.4277 2.4277 0 0 0 1.4808-2.0014v-2.5982a2.4142 2.4142 0 0 0-2.4456-2.3738zm-4.5996 5.5644a14.844 14.844 0 0 0-4.3079 2.4501 4.3977 4.3977 0 0 1 1.3373 1.4808c0.01346 0.01796-0.0091 0.05833 0 0.07629a4.2586 4.2586 0 0 1 0.37246 0.893c0.0091 0.02244 0 0.04937 0 0.0718a4.5458 4.5458 0 0 1 0.07629 1.9296c-0.05834 0.2872-0.18847 0.55644-0.29617 0.81671a4.2586 4.2586 0 0 1-3.9355 2.67 3.9265 3.9265 0 0 1-2.2258-0.66863c-0.09423 0.26924-0.23783 0.52952-0.29617 0.81671v0.07628c-0.08974 0.43977-0.1795 0.87954-0.22437 1.3328v0.07628c-0.04488 0.45772-0.0718 0.94236-0.0718 1.4091v0.14808c0 0.44426 0.03141 0.90646 0.0718 1.3373v0.14809c0.04937 0.4263 0.13462 0.84364 0.22437 1.261 0.08077 0.41284 0.1795 0.79428 0.29617 1.1892a5.9234 5.9234 0 0 1 2.5219-0.74491c0.86159-0.04488 1.6603 0.20642 2.302 0.67311a3.9444 3.9444 0 0 1 1.4091 1.8488 4.631 4.631 0 0 1 0.29617 1.7052c0 1.2071-0.98723 2.7912-1.7052 3.5675 0.29168 0.22437 0.57439 0.45772 0.88851 0.66414 0.37694 0.2513 0.71799 0.52952 1.1129 0.74491 0.56542 0.30514 1.1757 0.58336 1.7815 0.81671 0.11667 0.04488 0.24681 0.05385 0.37246 0.0718a2.513 2.513 0 0 1-0.07629-0.52054c0-1.8847 2.127-3.4104 4.7522-3.4104 2.6207 0 4.7477 1.5257 4.7477 3.4104 0 0.17052-0.04488 0.35899-0.07628 0.52054 0.71799-0.24681 1.4225-0.53849 2.0777-0.88851 0.50708-0.26924 0.94236-0.5699 1.4135-0.893 0.1436-0.09872 0.30514-0.18847 0.44426-0.29617 0.11218-0.08077 0.18847-0.20642 0.29617-0.29617a4.5906 4.5906 0 0 1-0.81671-0.81671 3.8951 3.8951 0 0 1-0.81671-1.7815 5.0932 5.0932 0 0 1-0.0718-0.88851c0-0.57888 0.13014-1.1443 0.29617-1.6334 0.0045-0.02244-0.0091-0.05385 0-0.07629a3.6797 3.6797 0 0 1 0.29617-0.66414c0.13462-0.22437 0.27822-0.40387 0.44874-0.59683 0.17501-0.20642 0.37694-0.3545 0.59234-0.51605a3.6348 3.6348 0 0 1 1.3328-0.67311 4.3573 4.3573 0 0 1 0.81671-0.1436c0.66863-0.04039 1.795 0.22886 2.67 0.74042 0.1077-0.37246 0.22437-0.72696 0.30066-1.1129 0.08526-0.41733 0.17052-0.83466 0.22437-1.261 0-0.04936-0.0091-0.09873 0-0.14809a14.943 14.943 0 0 0 0-2.9707c-0.04937-0.44874-0.13462-0.893-0.22437-1.3328-0.0091-0.02244 0-0.05386 0-0.07629-0.0673-0.31412-0.19296-0.59683-0.30066-0.88851a3.922 3.922 0 0 1-2.2258 0.66862 4.2316 4.2316 0 0 1-3.0425-1.261 4.5099 4.5099 0 0 1-0.51605-0.67311 4.2496 4.2496 0 0 1-0.22437-4.4515 4.2496 4.2496 0 0 1 0.52054-0.81222 4.5323 4.5323 0 0 1 0.74042-0.67312 14.18 14.18 0 0 0-4.2272-2.4456c0.03141 0.16604 0.07179 0.35002 0.07179 0.52054 0 1.8847-2.127 3.4104-4.7477 3.4104-1.6424 0-3.0784-0.57439-3.9355-1.4808a3.4104 3.4104 0 0 1-0.44427-0.59232 2.6251 2.6251 0 0 1-0.36797-1.3373c0-0.17052 0.04039-0.35899 0.0718-0.52054zm-10.317 1.6334a2.4726 2.4726 0 0 0-1.4808 1.1129 2.4232 2.4232 0 0 0 0.74042 3.3386l1.9296 1.1892 0.74042 0.44425a2.9168 2.9168 0 0 0 0.9648 0.22437 2.8405 2.8405 0 0 0 1.8578-0.74491 2.3335 2.3335 0 0 0 0.74043-1.7052 2.4771 2.4771 0 0 0-0.81671-1.8578l-0.88851-0.51606-2.0059-1.1892a2.3065 2.3065 0 0 0-1.7815-0.29617zm29.092 0a2.3155 2.3155 0 0 0-0.893 0.29617l-2.0014 1.1892-0.893 0.52054c-0.02693 0.01795-0.04488 0.04488-0.07179 0.0718a2.1091 2.1091 0 0 0-0.74491 1.7052 2.3335 2.3335 0 0 0 0.74491 1.7052 2.8361 2.8361 0 0 0 2.8181 0.59234l0.74043-0.43977 1.9296-1.1892a2.4232 2.4232 0 0 0 0.74491-3.3386 2.3559 2.3559 0 0 0-2.3783-1.1129zm-14.099 7.0497a4.7499 4.7499 0 1 1 0 9.4999c-1.3148 0-2.4815-0.55195-3.3386-1.4135-0.2154-0.21091-0.42631-0.41284-0.59683-0.66414a4.7836 4.7836 0 0 1-0.81671-2.6745c0-0.32758 0.01347-0.65516 0.07629-0.9648 0.44425-2.1629 2.3783-3.7829 4.6759-3.7829zm0 2.3783c-0.98723 0-1.795 0.62824-2.154 1.4808a2.2303 2.2303 0 0 0-0.22437 0.88851 2.3738 2.3738 0 1 0 2.3783-2.3738zm-12.098 7.9383c-0.55195 0.05833-0.70004 0.19745-0.9648 0.29617l-0.51605 0.29617-1.9296 1.1847a2.4232 2.4232 0 0 0-0.74491 3.3431 2.4456 2.4456 0 0 0 3.3386 0.81222l1.9296-1.1847 0.67311-0.44874a2.7553 2.7553 0 0 0 0.73594-1.1847 1.4853 1.4853 0 0 0 0.07629-0.44874 2.863 2.863 0 0 0-0.74042-1.8533 2.6027 2.6027 0 0 0-0.81671-0.66414 2.0642 2.0642 0 0 0-1.0411-0.14808zm24.268 0.14808a2.5309 2.5309 0 0 0-2.5264 2.5219c0 0.65068 0.18398 1.1219 0.59683 1.5571l0.74043 0.52054 1.9296 1.1847a2.4456 2.4456 0 0 0 3.3386-0.81222 2.4232 2.4232 0 0 0-0.74042-3.3431l-1.9296-1.1847c-0.17052-0.09873-0.33207-0.21091-0.52054-0.29617a2.7553 2.7553 0 0 0-0.88851-0.14808zm-12.17 6.1567a2.4456 2.4456 0 0 0-0.893 0.14808 3.0918 3.0918 0 0 0-0.81671 0.52054 2.1988 2.1988 0 0 0-0.81222 1.4808v2.6072c0 1.3103 1.0949 2.3738 2.4456 2.3738a2.4142 2.4142 0 0 0 2.4501-2.3783v-2.5937a2.4097 2.4097 0 0 0-2.3783-2.154z" fill="url(#d)" stroke-width="3.7796"/>
</svg>
