<?xml version="1.0" encoding="UTF-8"?>
<svg width="64" height="64" version="1.1" viewBox="0 0 16.933 16.933" xmlns="http://www.w3.org/2000/svg" xmlns:cc="http://creativecommons.org/ns#" xmlns:dc="http://purl.org/dc/elements/1.1/" xmlns:rdf="http://www.w3.org/1999/02/22-rdf-syntax-ns#">
 <metadata>
  <rdf:RDF>
   <cc:Work rdf:about="">
    <dc:format>image/svg+xml</dc:format>
    <dc:type rdf:resource="http://purl.org/dc/dcmitype/StillImage"/>
    <dc:title/>
   </cc:Work>
  </rdf:RDF>
 </metadata>
 <defs>
  <linearGradient id="linearGradient858" x1="30.459" x2="30.459" y1="47.644" y2="16.147" gradientTransform="matrix(.21954 0 0 .21954 1.4414 1.4414)" gradientUnits="userSpaceOnUse">
   <stop stop-color="#16a085" offset="0"/>
   <stop stop-color="#00d6ac" offset="1"/>
  </linearGradient>
  <style type="text/css"/>
  <style type="text/css"/>
  <filter id="filter1057" x="-.027" y="-.027" width="1.054" height="1.054" color-interpolation-filters="sRGB">
   <feGaussianBlur stdDeviation="0.61875"/>
  </filter>
  <linearGradient id="linearGradient1053" x1="-127" x2="-72" y1="60" y2="5" gradientTransform="matrix(.26458 0 0 .26458 34.792 -.13493)" gradientUnits="userSpaceOnUse">
   <stop stop-color="#222d32" offset="0"/>
   <stop stop-color="#415762" offset="1"/>
  </linearGradient>
  <style type="text/css"/>
  <style type="text/css"/>
  <style type="text/css"/>
  <style type="text/css"/>
  <style type="text/css"/>
  <style type="text/css"/>
  <style type="text/css"/>
 </defs>
 <rect transform="scale(.26458)" x="4.5" y="4.5" width="55" height="55" ry="15" fill="#141414" filter="url(#filter1057)" opacity=".3" stroke-linecap="round" stroke-width="2.7444"/>
 <rect x="1.1906" y="1.1906" width="14.552" height="14.552" ry="3.9687" fill="url(#linearGradient1053)" stroke-linecap="round" stroke-width=".72611"/>
 <path d="m12.217 4.7881a0.32936 0.32936 0 0 0-0.22512 0.098623l-1.9352 1.9557c-0.42286-0.4089-0.99651-0.66249-1.6286-0.66249-1.2935 1.1e-6 -2.3502 1.0567-2.3502 2.3502 2e-7 0.41459 0.10965 0.80408 0.29972 1.1427l-1.6916 1.6916-1.2838-1.1213a0.32931 0.32931 0 0 0-0.46482 0.03044 0.32931 0.32931 0 0 0 0.030444 0.46523l1.5154 1.3241a0.32936 0.32936 0 0 0 0.45066-0.01458l1.8473-1.8473c0.42473 0.41799 1.0067 0.67707 1.647 0.67707 1.2935 0 2.348-1.0546 2.348-2.348 0-0.42359-0.11503-0.82065-0.31259-1.1646a0.32931 0.32931 0 0 0 0.02573-0.023583l1.7538-1.7743 1.2898 1.1149a0.32931 0.32931 0 0 0 0.46523-0.033875 0.32931 0.32931 0 0 0-0.0343-0.46352l-1.5231-1.316a0.32936 0.32936 0 0 0-0.20111-0.081042 0.32936 0.32936 0 0 0-0.02273 0zm-3.7889 2.0518c0.93756-5e-7 1.6903 0.75275 1.6903 1.6903-1e-6 0.93756-0.75275 1.6903-1.6903 1.6903-0.93756-1e-6 -1.6907-0.75275-1.6907-1.6903 2e-7 -0.93756 0.75319-1.6903 1.6907-1.6903z" color="#000000" color-rendering="auto" dominant-baseline="auto" fill="url(#linearGradient858)" image-rendering="auto" shape-rendering="auto" solid-color="#000000" stop-color="#000000" stroke-width=".21954" style="font-feature-settings:normal;font-variant-alternates:normal;font-variant-caps:normal;font-variant-east-asian:normal;font-variant-ligatures:normal;font-variant-numeric:normal;font-variant-position:normal;font-variation-settings:normal;inline-size:0;isolation:auto;mix-blend-mode:normal;paint-order:stroke markers fill;shape-margin:0;shape-padding:0;text-decoration-color:#000000;text-decoration-line:none;text-decoration-style:solid;text-indent:0;text-orientation:mixed;text-transform:none;white-space:normal"/>
 <g fill="#5e4aa6">
  <g transform="matrix(.26458 0 0 .26458 19.633 2.4476e-8)">
   <circle cx="-1248.7" cy="-1241.6" r="0"/>
   <circle cx="-149.15" cy="23.855" r="0" fill-rule="evenodd"/>
   <circle cx="-1248.7" cy="-1241.6" r="0"/>
   <circle cx="-149.15" cy="23.855" r="0" fill-rule="evenodd"/>
   <circle cx="-1124.8" cy="-1279.3" r="0"/>
   <g transform="matrix(3.7796,0,0,3.7796,123.83,-38.184)" stroke-width=".26458">
    <circle cx="-299.02" cy="-338.77" r="0"/>
    <circle cx="-8.1062" cy="-3.9487" r="0" fill-rule="evenodd"/>
    <circle cx="-278.25" cy="-357.69" r="0"/>
    <circle cx="12.663" cy="-22.859" r="0" fill-rule="evenodd"/>
   </g>
  </g>
  <circle cx="-254.23" cy="-338.47" r="0" stroke-width=".26458"/>
  <g transform="translate(76.129 -10.103)" stroke-width=".26458">
   <circle cx="-299.02" cy="-338.77" r="0"/>
   <circle cx="-8.1062" cy="-3.9487" r="0" fill-rule="evenodd"/>
   <circle cx="-278.25" cy="-357.69" r="0"/>
   <circle cx="12.663" cy="-22.859" r="0" fill-rule="evenodd"/>
  </g>
 </g>
</svg>
