<?xml version="1.0" encoding="UTF-8" standalone="no"?>
<svg
   xmlns:dc="http://purl.org/dc/elements/1.1/"
   xmlns:cc="http://creativecommons.org/ns#"
   xmlns:rdf="http://www.w3.org/1999/02/22-rdf-syntax-ns#"
   xmlns:svg="http://www.w3.org/2000/svg"
   xmlns="http://www.w3.org/2000/svg"
   xmlns:xlink="http://www.w3.org/1999/xlink"
   xmlns:sodipodi="http://sodipodi.sourceforge.net/DTD/sodipodi-0.dtd"
   xmlns:inkscape="http://www.inkscape.org/namespaces/inkscape"
   viewBox="0 0 64 64"
   version="1.1"
   id="svg37"
   sodipodi:docname="gnome-power-manager.svg"
   width="64"
   height="64"
   inkscape:version="1.0.1 (3bc2e813f5, 2020-09-07)">
  <metadata
     id="metadata41">
    <rdf:RDF>
      <cc:Work
         rdf:about="">
        <dc:format>image/svg+xml</dc:format>
        <dc:type
           rdf:resource="http://purl.org/dc/dcmitype/StillImage" />
        <dc:title></dc:title>
      </cc:Work>
    </rdf:RDF>
  </metadata>
  <sodipodi:namedview
     pagecolor="#ffffff"
     bordercolor="#666666"
     borderopacity="1"
     objecttolerance="10"
     gridtolerance="10"
     guidetolerance="10"
     inkscape:pageopacity="0"
     inkscape:pageshadow="2"
     inkscape:window-width="1920"
     inkscape:window-height="935"
     id="namedview39"
     showgrid="false"
     inkscape:zoom="8.0729167"
     inkscape:cx="3.0611041"
     inkscape:cy="38.219072"
     inkscape:window-x="0"
     inkscape:window-y="38"
     inkscape:window-maximized="1"
     inkscape:current-layer="svg37" />
  <defs
     id="defs7">
    <linearGradient
       inkscape:collect="always"
       id="linearGradient1292">
      <stop
         style="stop-color:#0292ff;stop-opacity:1"
         offset="0"
         id="stop1288" />
      <stop
         style="stop-color:#11afff;stop-opacity:1"
         offset="1"
         id="stop1290" />
    </linearGradient>
    <linearGradient
       inkscape:collect="always"
       id="linearGradient1280">
      <stop
         style="stop-color:#1493ff;stop-opacity:1"
         offset="0"
         id="stop1276" />
      <stop
         style="stop-color:#14afff;stop-opacity:1"
         offset="1"
         id="stop1278" />
    </linearGradient>
    <linearGradient
       id="linearGradient3764"
       x1="1"
       x2="47"
       gradientUnits="userSpaceOnUse"
       gradientTransform="rotate(-90,23.999998,24)">
      <stop
         style="stop-color:#46baa7;stop-opacity:1"
         id="stop2" />
      <stop
         offset="1"
         style="stop-color:#55bfae;stop-opacity:1"
         id="stop4" />
    </linearGradient>
    <filter
       id="filter18262"
       x="-0.10867"
       y="-0.068461001"
       width="1.2173001"
       height="1.1368999"
       color-interpolation-filters="sRGB">
      <feGaussianBlur
         stdDeviation="0.30188521"
         id="feGaussianBlur2403" />
    </filter>
    <linearGradient
       id="linearGradient18238"
       x1="4.6792002"
       x2="12.206"
       y1="14.496"
       y2="8.9364004"
       gradientTransform="matrix(3.3659624,0,0,3.3659624,3.5140252,3.078185)"
       gradientUnits="userSpaceOnUse"
       xlink:href="#linearGradient18153" />
    <linearGradient
       id="linearGradient18153"
       x1="7.9875998"
       x2="12.91"
       y1="7.7203002"
       y2="12.495"
       gradientUnits="userSpaceOnUse">
      <stop
         stop-color="#fff"
         stop-opacity=".5"
         offset="0"
         id="stop4-3" />
      <stop
         stop-color="#fff"
         offset="1"
         id="stop6" />
    </linearGradient>
    <linearGradient
       id="linearGradient18240"
       x1="6.2556"
       x2="8.1987"
       y1="4.1465998"
       y2="4.1465998"
       gradientUnits="userSpaceOnUse"
       xlink:href="#linearGradient18153"
       gradientTransform="matrix(3.779602,0,0,3.779602,1.58e-5,-7.41e-5)" />
    <linearGradient
       id="linearGradient18161"
       x1="4.7196002"
       x2="10.425"
       y1="7.2907"
       y2="3.3313"
       gradientTransform="matrix(3.3659624,0,0,3.3659624,3.5140252,3.078185)"
       gradientUnits="userSpaceOnUse">
      <stop
         stop-color="#14c8ff"
         offset="0"
         id="stop2391"
         style="stop-color:#1490ff;stop-opacity:1" />
      <stop
         stop-color="#14b4ff"
         offset="1"
         id="stop2393" />
    </linearGradient>
    <linearGradient
       id="linearGradient18171"
       x1="7.4647999"
       x2="10.175"
       y1="12.067"
       y2="8.4680004"
       gradientTransform="matrix(3.3342515,-0.46103585,0.46103585,3.3342515,-0.68076611,7.4706872)"
       gradientUnits="userSpaceOnUse">
      <stop
         stop-color="#00c8ff"
         offset="0"
         id="stop2396"
         style="stop-color:#008eff;stop-opacity:1" />
      <stop
         stop-color="#14b4ff"
         offset="1"
         id="stop2398" />
    </linearGradient>
    <linearGradient
       id="a"
       x1="45.628"
       x2="45.628"
       y1="57.955"
       y2="12.461"
       gradientTransform="matrix(0.26458,0,0,0.26458,0,280.07)"
       gradientUnits="userSpaceOnUse">
      <stop
         offset="0"
         id="stop2-7" />
      <stop
         stop-opacity="0"
         offset="1"
         id="stop4-53" />
    </linearGradient>
    <linearGradient
       gradientUnits="userSpaceOnUse"
       gradientTransform="matrix(0.53033,0,0,0.53033,9.7971589,65.996156)"
       y2="-100.78"
       y1="-137.82"
       x2="-6.1472"
       x1="-6.1472"
       id="a-3">
      <stop
         id="stop848"
         offset="0"
         stop-color="#32b4ff" />
      <stop
         id="stop850"
         offset="1"
         stop-color="#3287ff" />
    </linearGradient>
    <style
       id="style4"
       type="text/css" />
    <filter
       color-interpolation-filters="sRGB"
       height="1.048"
       width="1.048"
       y="-.024"
       x="-.024"
       id="filter2761">
      <feGaussianBlur
         id="feGaussianBlur6"
         stdDeviation="0.14552168" />
    </filter>
    <linearGradient
       gradientUnits="userSpaceOnUse"
       gradientTransform="matrix(3.7796,0,0,3.7796,110.07575,0.53066)"
       y2="1.1082"
       y1="15.429"
       x2="15.644"
       x1="1.2573"
       id="linearGradient4673">
      <stop
         id="stop9"
         offset="0"
         stop-color="#32dcff" />
      <stop
         id="stop11"
         offset="1"
         stop-color="#3296ff" />
    </linearGradient>
    <linearGradient
       gradientUnits="userSpaceOnUse"
       gradientTransform="matrix(1.0000066,0,0,1.0000066,19.187825,0)"
       y2="1.0583"
       y1="6.879"
       x2="7.9373"
       x1="7.9373"
       id="linearGradient865">
      <stop
         id="stop2-36"
         offset="0"
         stop-color="#fff" />
      <stop
         id="stop4-7"
         offset="1"
         stop-color="#fcc" />
    </linearGradient>
    <linearGradient
       gradientTransform="translate(19.187825)"
       gradientUnits="userSpaceOnUse"
       y2="3.9327"
       y1="14.579"
       x2="12.314"
       x1="2.6278"
       id="linearGradient855">
      <stop
         id="stop7"
         offset="0"
         stop-color="#d462aa" />
      <stop
         id="stop9-3"
         offset=".15178"
         stop-color="#56c7d9" />
      <stop
         id="stop11-6"
         offset=".33294"
         stop-color="#2da8b8" />
      <stop
         id="stop13"
         offset=".53353"
         stop-color="#72cb6b" />
      <stop
         id="stop15"
         offset=".71019"
         stop-color="#c4dc2b" />
      <stop
         id="stop17"
         offset=".8623"
         stop-color="#f9da3e" />
      <stop
         id="stop19"
         offset="1"
         stop-color="#f69429" />
    </linearGradient>
    <linearGradient
       gradientUnits="userSpaceOnUse"
       gradientTransform="matrix(0.26458,0,0,0.26458,19.187825,0)"
       y2="6.9915"
       y1="19"
       x2="57.008"
       x1="45"
       id="linearGradient910">
      <stop
         id="stop22"
         offset="0"
         stop-color="#fff" />
      <stop
         id="stop24"
         offset="1"
         stop-color="#ffe3cc" />
    </linearGradient>
    <filter
       inkscape:collect="always"
       style="color-interpolation-filters:sRGB"
       id="filter1057"
       x="-0.027000001"
       width="1.054"
       y="-0.027000001"
       height="1.054">
      <feGaussianBlur
         inkscape:collect="always"
         stdDeviation="0.61875"
         id="feGaussianBlur1059" />
    </filter>
    <linearGradient
       inkscape:collect="always"
       xlink:href="#linearGradient1051"
       id="linearGradient1053"
       x1="-127"
       y1="60"
       x2="-72"
       y2="5"
       gradientUnits="userSpaceOnUse"
       gradientTransform="translate(131.5,-0.5099985)" />
    <linearGradient
       inkscape:collect="always"
       id="linearGradient1051">
      <stop
         style="stop-color:#32d7ff;stop-opacity:1"
         offset="0"
         id="stop1047" />
      <stop
         style="stop-color:#329bff;stop-opacity:1"
         offset="1"
         id="stop1049" />
    </linearGradient>
    <style
       type="text/css"
       id="style872" />
    <filter
       id="filter2761-7"
       x="-.024"
       y="-.024"
       width="1.048"
       height="1.048"
       color-interpolation-filters="sRGB">
      <feGaussianBlur
         stdDeviation="0.14552168"
         id="feGaussianBlur874" />
    </filter>
    <style
       id="style4-5"
       type="text/css" />
    <style
       id="style6"
       type="text/css" />
    <style
       id="style8"
       type="text/css" />
    <filter
       color-interpolation-filters="sRGB"
       height="1.048"
       width="1.048"
       y="-.024"
       x="-.024"
       id="filter2761-36">
      <feGaussianBlur
         id="feGaussianBlur10"
         stdDeviation="0.14552168" />
    </filter>
    <linearGradient
       gradientUnits="userSpaceOnUse"
       gradientTransform="matrix(3.7796,0,0,3.7796,111.78704,0.53107)"
       y2="1.17"
       y1="15.576"
       x2="15.65"
       x1="1.3315"
       id="linearGradient1024-6">
      <stop
         id="stop13-7"
         offset="0"
         stop-color="#00dc96" />
      <stop
         id="stop15-5"
         offset="1"
         stop-color="#14d29b" />
    </linearGradient>
    <linearGradient
       gradientUnits="userSpaceOnUse"
       gradientTransform="matrix(0.27476,0,0,0.27476,-24.952118,-0.32515)"
       y2="12.461"
       y1="57.955"
       x2="45.628"
       x1="45.628"
       id="b">
      <stop
         id="stop2-3"
         offset="0" />
      <stop
         id="stop4-5"
         offset="1"
         stop-opacity="0" />
    </linearGradient>
    <style
       type="text/css"
       id="style872-0" />
    <style
       type="text/css"
       id="style874" />
    <style
       type="text/css"
       id="style876" />
    <filter
       id="filter2761-3"
       x="-.024"
       y="-.024"
       width="1.048"
       height="1.048"
       color-interpolation-filters="sRGB">
      <feGaussianBlur
         stdDeviation="0.14552168"
         id="feGaussianBlur878" />
    </filter>
    <linearGradient
       id="linearGradient1024-6-6"
       x1="1.3315"
       x2="15.65"
       y1="15.576"
       y2="1.17"
       gradientTransform="matrix(3.7796,0,0,3.7796,-0.0020773,0.53047)"
       gradientUnits="userSpaceOnUse">
      <stop
         stop-color="#00dc96"
         offset="0"
         id="stop881" />
      <stop
         stop-color="#14d29b"
         offset="1"
         id="stop883" />
    </linearGradient>
    <linearGradient
       inkscape:collect="always"
       xlink:href="#linearGradient1280"
       id="linearGradient1282"
       x1="19.616604"
       y1="27.294245"
       x2="38.444679"
       y2="14.711596"
       gradientUnits="userSpaceOnUse" />
    <linearGradient
       inkscape:collect="always"
       xlink:href="#linearGradient1292"
       id="linearGradient1294"
       x1="30.328819"
       y1="44.509529"
       x2="36.803444"
       y2="31.363388"
       gradientUnits="userSpaceOnUse" />
  </defs>
  <rect
     style="opacity:0.3;fill:#141414;fill-opacity:1;stroke-width:2.74436;stroke-linecap:round;filter:url(#filter1057)"
     id="rect1055"
     width="55"
     height="55"
     x="4.4999995"
     y="4.4999995"
     ry="15" />
  <rect
     ry="14.999999"
     y="4.5000019"
     x="4.5000019"
     height="54.999996"
     width="54.999996"
     id="rect1045"
     style="fill:url(#linearGradient1053);fill-opacity:1;stroke-width:2.74436;stroke-linecap:round" />
  <g
     transform="matrix(3.779602,0,0,3.779602,5.188e-4,3.67e-4)"
     fill-opacity="0.5"
     filter="url(#filter18262)"
     opacity="0.3"
     stroke-width="0.012239"
     id="g8910">
    <path
       d="M 5.5657,4.7144 8.9494,3.80772 C 9.261,3.724228 9.58119,3.90909 9.6644,4.22053 l 2.1158,7.8955 c 0.08349,0.3116 -0.10137,0.63179 -0.41297,0.71528 l -3.3837,0.90668 c -0.3116,0.08349 -0.63192,-0.10145 -0.715,-0.41281 L 5.15283,5.42938 C 5.069261,5.11792 5.25404,4.79787 5.56564,4.71438 Z"
       p-id="4882"
       id="path8902" />
    <path
       d="M 6.7023,3.3516 7.28418,3.19568 C 7.60562,3.10955 7.93612,3.30037 8.02212,3.62172 L 8.17804,4.2036 C 8.264169,4.52504 8.07351,4.85527 7.75207,4.9414 L 7.17003,5.09759 C 6.84859,5.183719 6.51809,4.9929 6.43209,4.67155 L 6.27633,4.08939 C 6.190279,3.76782 6.38094,3.43758 6.7023,3.35159 Z"
       opacity="1"
       p-id="4883"
       id="path8904" />
    <path
       d="M 5.5657,4.7144 8.9494,3.80772 C 9.261,3.724228 9.58119,3.90909 9.6644,4.22053 l 0.49877,1.8614 -4.5115,1.2088 L 5.1529,5.42933 C 5.069331,5.11787 5.25411,4.79782 5.56571,4.71433 Z"
       p-id="4884"
       id="path8906" />
    <path
       d="M 7.9138,9.1934 C 7.944639,9.162476 7.990194,9.152757 8.02967,9.168811 l 0.72669,0.41472 0.2202,-1.3144 C 8.98493,8.219431 9.025152,8.180822 9.074025,8.175833 9.1229,8.170843 9.168639,8.200605 9.184335,8.248085 l 0.64008,2.4062 c 0.013617,0.04054 0.00224,0.08599 -0.02853,0.11591 -0.030895,0.03023 -0.075978,0.03963 -0.11488,0.0238 l -0.71682,-0.41068 -0.22906,1.3025 c -0.00476,0.05083 -0.043589,0.09254 -0.092905,0.1004 -0.019451,0.0029 -0.038403,4.55e-4 -0.055383,-0.0065 -0.026703,-0.01086 -0.048429,-0.03271 -0.059318,-0.06166 l -0.64008,-2.4062 C 7.872311,9.270865 7.882839,9.224581 7.913801,9.193365 Z"
       p-id="4884"
       id="path8908" />
  </g>
  <path
     d="m 21.036147,17.818482 12.789039,-3.42689 c 1.177724,-0.315567 2.387915,0.383138 2.702415,1.560258 l 7.996882,29.841847 c 0.315559,1.177724 -0.383138,2.387915 -1.560862,2.703474 L 30.174582,51.92406 c -1.177724,0.315559 -2.388406,-0.38344 -2.702416,-1.560257 L 19.475662,20.520821 c -0.315857,-1.177194 0.382534,-2.386856 1.560258,-2.702415 z"
     fill="url(#linearGradient18238)"
     p-id="4882"
     id="path8912"
     style="fill:url(#linearGradient18238);stroke-width:0.0462585" />
  <path
     d="m 25.332042,12.66764 2.199275,-0.589316 c 1.214915,-0.325537 2.464074,0.395687 2.78912,1.610262 l 0.589315,2.199275 c 0.325533,1.214915 -0.395082,2.463053 -1.609997,2.78859 l -2.199879,0.590336 c -1.214916,0.325534 -2.464074,-0.395686 -2.78912,-1.610261 l -0.588711,-2.200333 c -0.325238,-1.215407 0.395384,-2.463583 1.609997,-2.788591 z"
     fill="url(#linearGradient18240)"
     p-id="4883"
     id="path8914"
     style="fill:url(#linearGradient18240);stroke-width:0.0462585" />
  <circle
     cx="-1097.8116"
     cy="-1205.5123"
     r="0"
     fill="#5e4aa6"
     stroke-width="1.00001"
     id="circle869" />
  <circle
     cx="1.7349856"
     cy="59.966549"
     r="0"
     fill="#5e4aa6"
     fill-rule="evenodd"
     stroke-width="1.00001"
     id="circle871" />
  <circle
     style="stroke-width:1"
     cx="-1137.1965"
     cy="-1290.4589"
     r="0"
     fill="#5e4aa6"
     id="circle16" />
  <g
     transform="matrix(3.779602,0,0,3.779602,111.43346,-49.342866)"
     fill="#5e4aa6"
     stroke-width="0.26458"
     id="g26">
    <circle
       cx="-299.01999"
       cy="-338.76999"
       r="0"
       id="circle18" />
    <circle
       cx="-8.1062002"
       cy="-3.9487"
       r="0"
       fill-rule="evenodd"
       id="circle20" />
    <circle
       cx="-278.25"
       cy="-357.69"
       r="0"
       id="circle22" />
    <circle
       cx="12.663"
       cy="-22.858999"
       r="0"
       fill-rule="evenodd"
       id="circle24" />
  </g>
  <path
     id="rect1250"
     style="fill:url(#linearGradient1282);fill-opacity:1;stroke-linecap:round;stroke-linejoin:round;paint-order:stroke fill markers"
     d="M 34.265625 14.320312 C 34.119208 14.329109 33.971434 14.351179 33.824219 14.390625 L 21.037109 17.818359 C 19.859385 18.133918 19.160705 19.34429 19.476562 20.521484 L 21.361328 27.556641 L 38.412109 22.986328 L 36.527344 15.951172 C 36.252156 14.921192 35.290546 14.258737 34.265625 14.320312 z " />
  <path
     id="rect1284"
     style="fill:url(#linearGradient1294);fill-opacity:1;stroke-linecap:round;stroke-linejoin:round;paint-order:stroke fill markers"
     d="M 34.296875 30.900391 C 34.112154 30.919247 33.959364 31.06606 33.927734 31.253906 L 33.095703 36.222656 L 30.349609 34.654297 C 30.200405 34.593623 30.026715 34.631167 29.910156 34.748047 C 29.793126 34.866031 29.753367 35.040386 29.810547 35.195312 L 32.230469 44.289062 C 32.271625 44.398482 32.354151 44.482388 32.455078 44.523438 C 32.519256 44.549708 32.590542 44.557835 32.664062 44.546875 C 32.850457 44.517167 32.997635 44.360086 33.015625 44.167969 L 33.880859 39.244141 L 36.589844 40.796875 C 36.736878 40.856701 36.908621 40.821289 37.025391 40.707031 C 37.141723 40.593946 37.184283 40.422756 37.132812 40.269531 L 34.712891 31.173828 C 34.653566 30.994375 34.481603 30.881531 34.296875 30.900391 z " />
</svg>
