<svg width="64" height="64" version="1.1" viewBox="0 0 16.933 16.933" xmlns="http://www.w3.org/2000/svg" xmlns:xlink="http://www.w3.org/1999/xlink">
 <defs>
  <linearGradient id="linearGradient951">
   <stop stop-color="#ec4520" offset="0"/>
   <stop stop-color="#f58517" offset="1"/>
  </linearGradient>
  <linearGradient id="linearGradient935">
   <stop stop-color="#548fed" offset="0"/>
   <stop stop-color="#5ebae3" offset="1"/>
  </linearGradient>
  <linearGradient id="linearGradient913">
   <stop stop-color="#8ae234" offset="0"/>
   <stop stop-color="#47e767" offset="1"/>
  </linearGradient>
  <linearGradient id="linearGradient903" x1="4.9328" x2="7.0494" y1="4.305" y2="4.305" gradientUnits="userSpaceOnUse" xlink:href="#linearGradient913"/>
  <linearGradient id="linearGradient905" x1="7.0494" x2="9.1661" y1="6.4216" y2="6.4216" gradientUnits="userSpaceOnUse" xlink:href="#linearGradient913"/>
  <linearGradient id="linearGradient907" x1="11.283" x2="13.399" y1="10.655" y2="10.655" gradientUnits="userSpaceOnUse" xlink:href="#linearGradient913"/>
  <linearGradient id="linearGradient921" x1="11.283" x2="13.399" y1="4.305" y2="4.305" gradientUnits="userSpaceOnUse" xlink:href="#linearGradient935"/>
  <linearGradient id="linearGradient923" x1="4.9328" x2="7.0494" y1="10.655" y2="10.655" gradientUnits="userSpaceOnUse" xlink:href="#linearGradient935"/>
  <linearGradient id="linearGradient925" x1="7.0494" x2="9.1661" y1="8.5382" y2="8.5382" gradientUnits="userSpaceOnUse" xlink:href="#linearGradient935"/>
  <linearGradient id="linearGradient927" x1="9.1661" x2="11.283" y1="10.655" y2="10.655" gradientUnits="userSpaceOnUse" xlink:href="#linearGradient935"/>
  <linearGradient id="linearGradient929" x1="9.1661" x2="11.283" y1="6.4216" y2="6.4216" gradientUnits="userSpaceOnUse" xlink:href="#linearGradient935"/>
  <linearGradient id="linearGradient943" x1="11.283" x2="13.399" y1="8.5382" y2="8.5382" gradientUnits="userSpaceOnUse" xlink:href="#linearGradient951"/>
  <linearGradient id="linearGradient945" x1="7.0494" x2="9.1661" y1="4.305" y2="4.305" gradientUnits="userSpaceOnUse" xlink:href="#linearGradient951"/>
  <filter id="filter999" x="-.06" y="-.06" width="1.12" height="1.12" color-interpolation-filters="sRGB">
   <feGaussianBlur stdDeviation="0.21166249"/>
  </filter>
  <linearGradient id="linearGradient862-3" x1="7.9373" x2="7.9373" y1="15.081" y2="1.852" gradientTransform="matrix(.99997 0 0 .99997 3.7636e-5 .0083364)" gradientUnits="userSpaceOnUse">
   <stop stop-color="#1a1a1a" offset="0"/>
   <stop stop-color="#4d4d4d" offset="1"/>
  </linearGradient>
 </defs>
 <g shape-rendering="auto">
  <path d="m4.3693 0.52916c-2.1142 0-3.8402 1.7835-3.8402 3.9682v8.4675c0 2.1846 1.726 3.9682 3.8402 3.9682h8.1944c2.1142 0 3.8402-1.7835 3.8402-3.9682v-8.4675c0-2.1846-1.726-3.9682-3.8402-3.9682zm0.25704 0.52089h7.6808c1.8443 0 3.3291 1.5342 3.3291 3.44v7.9368c0 1.9058-1.4847 3.44-3.3291 3.44h-7.6808c-1.8443 0-3.3291-1.5342-3.3291-3.44v-7.9368c0-1.9058 1.4847-3.44 3.3291-3.44z" color="#000000" color-rendering="auto" dominant-baseline="auto" image-rendering="auto" opacity=".01" solid-color="#000000" stop-color="#000000" style="font-feature-settings:normal;font-variant-alternates:normal;font-variant-caps:normal;font-variant-east-asian:normal;font-variant-ligatures:normal;font-variant-numeric:normal;font-variant-position:normal;font-variation-settings:normal;inline-size:0;isolation:auto;mix-blend-mode:normal;shape-margin:0;shape-padding:0;text-decoration-color:#000000;text-decoration-line:none;text-decoration-style:solid;text-indent:0;text-orientation:mixed;text-transform:none;white-space:normal"/>
  <path d="m4.3587 0.79373c-1.9668 0-3.5639 1.6528-3.5639 3.6876v8.4996c0 2.0348 1.5971 3.6876 3.5639 3.6876h8.2162c1.9668 0 3.5644-1.6528 3.5644-3.6876v-8.4996c0-2.0348-1.5976-3.6876-3.5644-3.6876zm0.27222 0.25631h7.6718c1.8422 0 3.3251 1.5342 3.3251 3.44v7.9368c0 1.9058-1.483 3.44-3.3251 3.44h-7.6718c-1.8422 0-3.3251-1.5342-3.3251-3.44v-7.9368c0-1.9058 1.483-3.44 3.3251-3.44z" color="#000000" color-rendering="auto" dominant-baseline="auto" image-rendering="auto" opacity=".01" solid-color="#000000" stop-color="#000000" style="font-feature-settings:normal;font-variant-alternates:normal;font-variant-caps:normal;font-variant-east-asian:normal;font-variant-ligatures:normal;font-variant-numeric:normal;font-variant-position:normal;font-variation-settings:normal;inline-size:0;isolation:auto;mix-blend-mode:normal;shape-margin:0;shape-padding:0;text-decoration-color:#000000;text-decoration-line:none;text-decoration-style:solid;text-indent:0;text-orientation:mixed;text-transform:none;white-space:normal"/>
  <path d="m4.3097 1.0583c-1.8657 0-3.3751 1.5383-3.3751 3.439v8.4675c0 1.9007 1.57 3.439 3.4357 3.439h8.1996c1.8657 0 3.4274-1.5383 3.4274-3.439v-8.4675c0-1.9007-1.51-3.439-3.3756-3.439h-0.09688c1.794 0.086515 3.2138 1.5819 3.2138 3.4318v7.9368c0 1.9058-1.5059 3.44-3.3766 3.44h-7.7905c-1.8707 0-3.3766-1.5342-3.3766-3.44v-7.9368c0-1.8498 1.4199-3.3451 3.2138-3.4318z" color="#000000" color-rendering="auto" dominant-baseline="auto" image-rendering="auto" opacity=".03" solid-color="#000000" stop-color="#000000" style="font-feature-settings:normal;font-variant-alternates:normal;font-variant-caps:normal;font-variant-east-asian:normal;font-variant-ligatures:normal;font-variant-numeric:normal;font-variant-position:normal;font-variation-settings:normal;inline-size:0;isolation:auto;mix-blend-mode:normal;shape-margin:0;shape-padding:0;text-decoration-color:#000000;text-decoration-line:none;text-decoration-style:solid;text-indent:0;text-orientation:mixed;text-transform:none;white-space:normal"/>
  <path transform="scale(.26458)" d="m4 46.969v2.0312c0 6.6479 5.8957 12 12.544 12h30.961c6.6479 0 12.495-5.3521 12.495-12v-1.9922c-0.02117 7.1849-5.81 12.963-13 12.963h-29.998c-7.2032 0-13.002-5.7987-13.002-13.002z" color="#000000" color-rendering="auto" dominant-baseline="auto" image-rendering="auto" opacity=".03" solid-color="#000000" stop-color="#000000" style="font-feature-settings:normal;font-variant-alternates:normal;font-variant-caps:normal;font-variant-east-asian:normal;font-variant-ligatures:normal;font-variant-numeric:normal;font-variant-position:normal;font-variation-settings:normal;inline-size:0;isolation:auto;mix-blend-mode:normal;shape-margin:0;shape-padding:0;text-decoration-color:#000000;text-decoration-line:none;text-decoration-style:solid;text-indent:0;text-orientation:mixed;text-transform:none;white-space:normal"/>
  <path d="m1.0583 11.906v0.59234c0 1.9386 1.5729 3.4993 3.3318 3.4993h8.1603c1.7589 0 3.3243-1.5608 3.3243-3.4993v-0.58095c-0.0056 2.0952-1.5372 3.7801-3.4395 3.7801h-7.9368c-1.9058 0-3.44-1.691-3.44-3.7915z" color="#000000" color-rendering="auto" dominant-baseline="auto" image-rendering="auto" opacity=".05" solid-color="#000000" stop-color="#000000" style="font-feature-settings:normal;font-variant-alternates:normal;font-variant-caps:normal;font-variant-east-asian:normal;font-variant-ligatures:normal;font-variant-numeric:normal;font-variant-position:normal;font-variation-settings:normal;inline-size:0;isolation:auto;mix-blend-mode:normal;shape-margin:0;shape-padding:0;text-decoration-color:#000000;text-decoration-line:none;text-decoration-style:solid;text-indent:0;text-orientation:mixed;text-transform:none;white-space:normal"/>
 </g>
 <rect x="1.0583" y="1.0583" width="14.816" height="14.816" rx="3.44" ry="3.44" fill="url(#linearGradient862-3)" stroke-width=".99997"/>
 <g transform="translate(-.69956 .98656)" filter="url(#filter999)" opacity=".35">
  <path d="m5.9911 9.5966c-0.58419 0-1.0583 0.47412-1.0583 1.0583s0.47412 1.0583 1.0583 1.0583c0.58419 0 1.0583-0.47412 1.0583-1.0583s-0.47412-1.0583-1.0583-1.0583z"/>
  <path d="m10.224 9.5966c-0.58419 0-1.0583 0.47412-1.0583 1.0583s0.47412 1.0583 1.0583 1.0583c0.58419 0 1.0583-0.47412 1.0583-1.0583s-0.47412-1.0583-1.0583-1.0583z"/>
  <path d="m12.341 9.5966c-0.58419 0-1.0583 0.47412-1.0583 1.0583s0.47412 1.0583 1.0583 1.0583 1.0583-0.47412 1.0583-1.0583-0.47412-1.0583-1.0583-1.0583z"/>
  <path d="m8.1078 7.4799c-0.58419 0-1.0583 0.47412-1.0583 1.0583 0 0.58419 0.47412 1.0583 1.0583 1.0583s1.0583-0.47412 1.0583-1.0583c0-0.58419-0.47412-1.0583-1.0583-1.0583z"/>
  <path d="m12.341 7.4799c-0.58419 0-1.0583 0.47412-1.0583 1.0583 0 0.58419 0.47412 1.0583 1.0583 1.0583s1.0583-0.47412 1.0583-1.0583c0-0.58419-0.47412-1.0583-1.0583-1.0583z"/>
  <path d="m8.1078 5.3633c-0.58419 0-1.0583 0.47412-1.0583 1.0583s0.47412 1.0583 1.0583 1.0583 1.0583-0.47412 1.0583-1.0583-0.47412-1.0583-1.0583-1.0583z"/>
  <path d="m10.224 5.3633c-0.58419 0-1.0583 0.47412-1.0583 1.0583s0.47412 1.0583 1.0583 1.0583c0.58419 0 1.0583-0.47412 1.0583-1.0583s-0.47412-1.0583-1.0583-1.0583z"/>
  <path d="m5.9911 3.2467c-0.58419 0-1.0583 0.47412-1.0583 1.0583 0 0.58419 0.47412 1.0583 1.0583 1.0583 0.58419 0 1.0583-0.47412 1.0583-1.0583 0-0.58419-0.47412-1.0583-1.0583-1.0583z"/>
  <path d="m8.1078 3.2467c-0.58419 0-1.0583 0.47412-1.0583 1.0583 0 0.58419 0.47412 1.0583 1.0583 1.0583s1.0583-0.47412 1.0583-1.0583c0-0.58419-0.47412-1.0583-1.0583-1.0583z"/>
  <path d="m12.341 3.2467c-0.58419 0-1.0583 0.47412-1.0583 1.0583 0 0.58419 0.47412 1.0583 1.0583 1.0583s1.0583-0.47412 1.0583-1.0583c0-0.58419-0.47412-1.0583-1.0583-1.0583z"/>
 </g>
 <g transform="translate(-.69956 .98656)">
  <path d="m5.9911 9.5966c-0.58419 0-1.0583 0.47412-1.0583 1.0583s0.47412 1.0583 1.0583 1.0583c0.58419 0 1.0583-0.47412 1.0583-1.0583s-0.47412-1.0583-1.0583-1.0583z" fill="url(#linearGradient923)"/>
  <path d="m10.224 9.5966c-0.58419 0-1.0583 0.47412-1.0583 1.0583s0.47412 1.0583 1.0583 1.0583c0.58419 0 1.0583-0.47412 1.0583-1.0583s-0.47412-1.0583-1.0583-1.0583z" fill="url(#linearGradient927)"/>
  <path d="m12.341 9.5966c-0.58419 0-1.0583 0.47412-1.0583 1.0583s0.47412 1.0583 1.0583 1.0583 1.0583-0.47412 1.0583-1.0583-0.47412-1.0583-1.0583-1.0583z" fill="url(#linearGradient907)"/>
  <path d="m8.1078 7.4799c-0.58419 0-1.0583 0.47412-1.0583 1.0583 0 0.58419 0.47412 1.0583 1.0583 1.0583s1.0583-0.47412 1.0583-1.0583c0-0.58419-0.47412-1.0583-1.0583-1.0583z" fill="url(#linearGradient925)"/>
  <path d="m12.341 7.4799c-0.58419 0-1.0583 0.47412-1.0583 1.0583 0 0.58419 0.47412 1.0583 1.0583 1.0583s1.0583-0.47412 1.0583-1.0583c0-0.58419-0.47412-1.0583-1.0583-1.0583z" fill="url(#linearGradient943)"/>
  <path d="m8.1078 5.3633c-0.58419 0-1.0583 0.47412-1.0583 1.0583s0.47412 1.0583 1.0583 1.0583 1.0583-0.47412 1.0583-1.0583-0.47412-1.0583-1.0583-1.0583z" fill="url(#linearGradient905)"/>
  <path d="m10.224 5.3633c-0.58419 0-1.0583 0.47412-1.0583 1.0583s0.47412 1.0583 1.0583 1.0583c0.58419 0 1.0583-0.47412 1.0583-1.0583s-0.47412-1.0583-1.0583-1.0583z" fill="url(#linearGradient929)"/>
  <path d="m5.9911 3.2467c-0.58419 0-1.0583 0.47412-1.0583 1.0583 0 0.58419 0.47412 1.0583 1.0583 1.0583 0.58419 0 1.0583-0.47412 1.0583-1.0583 0-0.58419-0.47412-1.0583-1.0583-1.0583z" fill="url(#linearGradient903)"/>
  <path d="m8.1078 3.2467c-0.58419 0-1.0583 0.47412-1.0583 1.0583 0 0.58419 0.47412 1.0583 1.0583 1.0583s1.0583-0.47412 1.0583-1.0583c0-0.58419-0.47412-1.0583-1.0583-1.0583z" fill="url(#linearGradient945)"/>
  <path d="m12.341 3.2467c-0.58419 0-1.0583 0.47412-1.0583 1.0583 0 0.58419 0.47412 1.0583 1.0583 1.0583s1.0583-0.47412 1.0583-1.0583c0-0.58419-0.47412-1.0583-1.0583-1.0583z" fill="url(#linearGradient921)"/>
 </g>
</svg>
