<?xml version="1.0" encoding="UTF-8" standalone="no"?>
<svg
   xmlns:dc="http://purl.org/dc/elements/1.1/"
   xmlns:cc="http://creativecommons.org/ns#"
   xmlns:rdf="http://www.w3.org/1999/02/22-rdf-syntax-ns#"
   xmlns:svg="http://www.w3.org/2000/svg"
   xmlns="http://www.w3.org/2000/svg"
   xmlns:sodipodi="http://sodipodi.sourceforge.net/DTD/sodipodi-0.dtd"
   xmlns:inkscape="http://www.inkscape.org/namespaces/inkscape"
   width="64"
   height="64"
   enable-background="new"
   version="1.0"
   viewBox="0 0 64 64"
   id="svg20"
   sodipodi:docname="goa-account-owncloud.svg"
   inkscape:version="1.0.1 (3bc2e813f5, 2020-09-07, custom)">
  <metadata
     id="metadata24">
    <rdf:RDF>
      <cc:Work
         rdf:about="">
        <dc:format>image/svg+xml</dc:format>
        <dc:type
           rdf:resource="http://purl.org/dc/dcmitype/StillImage" />
        <dc:title>Adwaita Icon Template</dc:title>
      </cc:Work>
    </rdf:RDF>
  </metadata>
  <sodipodi:namedview
     pagecolor="#ffffff"
     bordercolor="#666666"
     borderopacity="1"
     objecttolerance="10"
     gridtolerance="10"
     guidetolerance="10"
     inkscape:pageopacity="0"
     inkscape:pageshadow="2"
     inkscape:window-width="1920"
     inkscape:window-height="942"
     id="namedview22"
     showgrid="false"
     inkscape:zoom="4.2813106"
     inkscape:cx="32.597095"
     inkscape:cy="33.377179"
     inkscape:window-x="0"
     inkscape:window-y="38"
     inkscape:window-maximized="1"
     inkscape:current-layer="svg20" />
  <title
     id="title2">Adwaita Icon Template</title>
  <defs
     id="defs12">
    <filter
       id="filter975"
       x="-0.048"
       y="-0.048"
       width="1.096"
       height="1.096"
       color-interpolation-filters="sRGB">
      <feGaussianBlur
         stdDeviation="0.56"
         id="feGaussianBlur4" />
    </filter>
    <linearGradient
       id="linearGradient882"
       x1="12.552"
       x2="12.552"
       y1="26.746"
       y2="5.0658998"
       gradientUnits="userSpaceOnUse"
       gradientTransform="matrix(1.9551617,0,0,1.9551617,76.914658,-1.5817478)">
      <stop
         stop-color="#0076b6"
         offset="0"
         id="stop7" />
      <stop
         stop-color="#1dc5ff"
         offset="1"
         id="stop9" />
    </linearGradient>
    <filter
       id="filter2761"
       x="-0.024"
       y="-0.024"
       width="1.048"
       height="1.048"
       color-interpolation-filters="sRGB">
      <feGaussianBlur
         stdDeviation="0.14552168"
         id="feGaussianBlur2" />
    </filter>
    <linearGradient
       id="linearGradient1024"
       x1="1.3315001"
       x2="15.65"
       y1="15.576"
       y2="1.17"
       gradientUnits="userSpaceOnUse"
       gradientTransform="translate(0.7523229,-6.0494795)">
      <stop
         stop-color="#00c8ff"
         offset="0"
         id="stop5" />
      <stop
         stop-color="#14a0ff"
         offset="1"
         id="stop7-3" />
    </linearGradient>
    <filter
       id="filter914"
       x="-0.085106999"
       y="-0.082921997"
       width="1.1702"
       height="1.1658"
       color-interpolation-filters="sRGB">
      <feGaussianBlur
         stdDeviation="0.33551342"
         id="feGaussianBlur10" />
    </filter>
    <style
       type="text/css"
       id="style862" />
    <filter
       id="filter1057"
       x="-0.027000001"
       y="-0.027000001"
       width="1.054"
       height="1.054"
       color-interpolation-filters="sRGB">
      <feGaussianBlur
         stdDeviation="0.61875"
         id="feGaussianBlur864" />
    </filter>
    <linearGradient
       id="linearGradient1053"
       x1="-127"
       x2="-72"
       y1="60"
       y2="5"
       gradientTransform="translate(131.5,-64.51)"
       gradientUnits="userSpaceOnUse">
      <stop
         stop-color="#32d7ff"
         offset="0"
         id="stop867" />
      <stop
         stop-color="#329bff"
         offset="1"
         id="stop869" />
    </linearGradient>
    <style
       type="text/css"
       id="style872" />
    <style
       type="text/css"
       id="style874" />
    <style
       type="text/css"
       id="style876" />
    <style
       type="text/css"
       id="style878" />
    <style
       type="text/css"
       id="style880" />
    <style
       type="text/css"
       id="style882" />
    <style
       type="text/css"
       id="style884" />
  </defs>
  <rect
     x="4.5"
     y="4.5"
     width="55"
     height="55"
     ry="15"
     fill="#141414"
     filter="url(#filter1057)"
     opacity="0.3"
     stroke-linecap="round"
     stroke-width="2.7444"
     id="rect900" />
  <circle
     cx="-1198.1968"
     cy="-1279.3"
     r="0"
     fill="#5e4aa6"
     id="circle888"
     style="stroke-width:1" />
  <circle
     cx="-1079.7433"
     cy="-1318.5997"
     r="0"
     id="circle890"
     style="fill:#5e4aa6;stroke-width:1.00001" />
  <circle
     cx="19.795006"
     cy="-53.108513"
     r="0"
     fill-rule="evenodd"
     id="circle892"
     style="fill:#5e4aa6;stroke-width:1.00001" />
  <circle
     cx="-1001.241"
     cy="-1390.1099"
     r="0"
     id="circle894"
     style="fill:#5e4aa6;stroke-width:1.00001" />
  <circle
     cx="98.294319"
     cy="-124.58192"
     r="0"
     fill-rule="evenodd"
     id="circle896"
     style="fill:#5e4aa6;stroke-width:1.00001" />
  <rect
     x="4.5"
     y="-59.5"
     width="55"
     height="55"
     ry="15"
     fill="url(#linearGradient1053)"
     stroke-linecap="round"
     stroke-width="2.7444"
     id="rect902"
     style="fill:url(#linearGradient1053)"
     transform="scale(1,-1)" />
  <path
     d="m 32.031092,22.525091 c -4.33577,0 -7.97784,2.969108 -9.090136,6.964286 -0.971207,-2.136601 -3.108511,-3.650678 -5.592153,-3.650678 -3.380084,5.26e-4 -6.160715,2.780435 -6.160715,6.161301 -5.26e-4,3.381843 2.779458,6.161692 6.160324,6.162279 2.484228,-5.26e-4 4.620243,-1.515798 5.591371,-3.652438 1.112039,3.995178 4.754759,6.965068 9.091889,6.965068 4.3129,5.26e-4 7.9362,-2.936848 9.07156,-6.897615 0.98683,2.097107 3.0915,3.584398 5.54641,3.584789 3.38184,0 6.16267,-2.780435 6.16227,-6.16267 0,-3.381843 -2.78004,-6.161692 -6.16169,-6.16091 -2.45509,5.26e-4 -4.56119,1.488035 -5.54777,3.58518 -1.13564,-3.961157 -4.75788,-6.899179 -9.07039,-6.898397 z m 0,3.616658 a 5.8306832,5.8306832 0 0 1 5.85844,5.85786 c 0,3.257104 -2.60153,5.859229 -5.85844,5.858447 a 5.8306832,5.8306832 0 0 1 -5.85708,-5.858447 c 0,-3.257104 2.60154,-5.857469 5.85747,-5.85786 z m -14.68268,3.313217 c 1.426994,0 2.544252,1.11759 2.544643,2.544252 0,1.426994 -1.116906,2.546012 -2.544252,2.546012 -1.426642,0 -2.544252,-1.118998 -2.543861,-2.546012 0,-1.426642 1.117571,-2.544252 2.544252,-2.544252 z m 29.30201,0 c 1.42697,0 2.54523,1.116886 2.54523,2.544252 0,1.427366 -1.11792,2.546012 -2.54523,2.546012 -1.427,0 -2.54465,-1.118998 -2.54425,-2.546012 0,-1.426642 1.11759,-2.544252 2.54425,-2.544252 z"
     color="#000000"
     enable-background="new"
     fill="#ffffff"
     stroke-width="0.526388"
     style="text-indent:0;text-decoration:none;text-decoration-line:none;text-decoration-style:solid;text-decoration-color:#000000;text-transform:none;white-space:normal;isolation:auto;mix-blend-mode:normal"
     id="path934" />
</svg>
