<?xml version="1.0" encoding="UTF-8" standalone="no"?>
<svg
   xmlns:dc="http://purl.org/dc/elements/1.1/"
   xmlns:cc="http://creativecommons.org/ns#"
   xmlns:rdf="http://www.w3.org/1999/02/22-rdf-syntax-ns#"
   xmlns:svg="http://www.w3.org/2000/svg"
   xmlns="http://www.w3.org/2000/svg"
   xmlns:xlink="http://www.w3.org/1999/xlink"
   xmlns:sodipodi="http://sodipodi.sourceforge.net/DTD/sodipodi-0.dtd"
   xmlns:inkscape="http://www.inkscape.org/namespaces/inkscape"
   width="64"
   height="64"
   version="1.1"
   id="svg27"
   sodipodi:docname="goa-account-fedora.svg"
   inkscape:version="1.0.1 (3bc2e813f5, 2020-09-07, custom)">
  <metadata
     id="metadata31">
    <rdf:RDF>
      <cc:Work
         rdf:about="">
        <dc:format>image/svg+xml</dc:format>
        <dc:type
           rdf:resource="http://purl.org/dc/dcmitype/StillImage" />
        <dc:title></dc:title>
      </cc:Work>
    </rdf:RDF>
  </metadata>
  <sodipodi:namedview
     pagecolor="#ffffff"
     bordercolor="#666666"
     borderopacity="1"
     objecttolerance="10"
     gridtolerance="10"
     guidetolerance="10"
     inkscape:pageopacity="0"
     inkscape:pageshadow="2"
     inkscape:window-width="1920"
     inkscape:window-height="942"
     id="namedview29"
     showgrid="false"
     inkscape:zoom="6.0546875"
     inkscape:cx="12.83235"
     inkscape:cy="35.581554"
     inkscape:window-x="0"
     inkscape:window-y="38"
     inkscape:window-maximized="1"
     inkscape:current-layer="svg27" />
  <defs
     id="defs10">
    <radialGradient
       id="radialGradient5521-1"
       cx="10.255"
       cy="9.9089003"
       r="12.672"
       fx="9.7251997"
       gradientTransform="matrix(0,4.9373698,-9.7202819,0,199.48127,-52.216526)"
       gradientUnits="userSpaceOnUse">
      <stop
         stop-color="#6e95e3"
         offset="0"
         id="stop2" />
      <stop
         stop-color="#223459"
         offset="1"
         id="stop4" />
    </radialGradient>
    <filter
       id="filter975"
       x="-0.048"
       y="-0.048"
       width="1.096"
       height="1.096"
       color-interpolation-filters="sRGB">
      <feGaussianBlur
         stdDeviation="0.56"
         id="feGaussianBlur7" />
    </filter>
    <filter
       id="filter2761"
       x="-.024"
       y="-.024"
       width="1.048"
       height="1.048"
       color-interpolation-filters="sRGB">
      <feGaussianBlur
         stdDeviation="0.14552168"
         id="feGaussianBlur2" />
    </filter>
    <linearGradient
       id="linearGradient1024"
       x1="1.3315"
       x2="15.65"
       y1="15.576"
       y2="1.17"
       gradientUnits="userSpaceOnUse">
      <stop
         stop-color="#96aab4"
         offset="0"
         id="stop5" />
      <stop
         stop-color="#a0b4c3"
         offset="1"
         id="stop7" />
    </linearGradient>
    <linearGradient
       id="linearGradient1122"
       x1="3.1053"
       x2="13.829"
       y1="8.326"
       y2="8.326"
       gradientUnits="userSpaceOnUse"
       xlink:href="#linearGradient1024"
       gradientTransform="scale(3.779602)" />
    <filter
       id="filter1272"
       x="-.18"
       y="-.18"
       width="1.36"
       height="1.36"
       color-interpolation-filters="sRGB">
      <feGaussianBlur
         stdDeviation="0.32461313"
         id="feGaussianBlur11" />
    </filter>
    <linearGradient
       id="linearGradient865"
       x1="3.6611"
       x2="13.274"
       y1="8.3261"
       y2="8.3261"
       gradientTransform="matrix(3.7504991,0,0,3.6094443,0.2463091,1.4166704)"
       gradientUnits="userSpaceOnUse">
      <stop
         stop-color="#3c505f"
         offset="0"
         id="stop14" />
      <stop
         stop-color="#c3e6ff"
         offset="1"
         id="stop16" />
    </linearGradient>
    <filter
       color-interpolation-filters="sRGB"
       height="1.048"
       width="1.048"
       y="-.024"
       x="-.024"
       id="filter2761-3">
      <feGaussianBlur
         id="feGaussianBlur4"
         stdDeviation="0.14552168" />
    </filter>
    <linearGradient
       gradientUnits="userSpaceOnUse"
       gradientTransform="translate(16.851507,0.14045)"
       y2="1.1082"
       y1="15.429"
       x2="15.644"
       x1="1.2573"
       id="linearGradient4673">
      <stop
         id="stop7-6"
         offset="0"
         stop-color="#a0b9cd" />
      <stop
         id="stop9"
         offset=".47728"
         stop-color="#96b4c8" />
      <stop
         id="stop11"
         offset="1"
         stop-color="#a0b9cd" />
    </linearGradient>
    <filter
       color-interpolation-filters="sRGB"
       height="1.168"
       width="1.168"
       y="-.084006"
       x="-.083994"
       id="filter917">
      <feGaussianBlur
         id="feGaussianBlur14"
         stdDeviation="0.22223482" />
    </filter>
    <linearGradient
       gradientUnits="userSpaceOnUse"
       gradientTransform="matrix(0.32664815,0,0,0.32664815,0.63054332,0.95372475)"
       y2="4"
       y1="44"
       x2="0"
       id="linearGradient890">
      <stop
         id="stop4-3"
         offset="0"
         stop-color="#FFB900" />
      <stop
         id="stop6"
         offset="1"
         stop-color="#ff0" />
    </linearGradient>
    <filter
       color-interpolation-filters="sRGB"
       height="1.048"
       width="1.048"
       y="-.024"
       x="-.024"
       id="filter2761-67">
      <feGaussianBlur
         id="feGaussianBlur9"
         stdDeviation="0.14552168" />
    </filter>
    <linearGradient
       gradientUnits="userSpaceOnUse"
       gradientTransform="matrix(3.7796,0,0,3.7796,66.443573,0.53068)"
       y2="1.1082"
       y1="15.601"
       x2="15.644"
       x1="1.4377"
       id="linearGradient4673-5">
      <stop
         id="stop12"
         offset="0"
         stop-color="#dc2828" />
      <stop
         id="stop14-7"
         offset="1"
         stop-color="#fa4141" />
    </linearGradient>
    <linearGradient
       gradientTransform="scale(0.26457812)"
       gradientUnits="userSpaceOnUse"
       y2="9.67"
       y1="54.592"
       x2="34.134"
       x1="34.134"
       id="linearGradient915">
      <stop
         id="stop17"
         offset="0"
         stop-color="#ffb900" />
      <stop
         id="stop19"
         offset="1"
         stop-color="#ff0" />
    </linearGradient>
    <filter
       inkscape:collect="always"
       style="color-interpolation-filters:sRGB"
       id="filter1057"
       x="-0.027000001"
       width="1.054"
       y="-0.027000001"
       height="1.054">
      <feGaussianBlur
         inkscape:collect="always"
         stdDeviation="0.61875"
         id="feGaussianBlur1059" />
    </filter>
    <linearGradient
       inkscape:collect="always"
       xlink:href="#linearGradient1051"
       id="linearGradient1053"
       x1="-127"
       y1="60"
       x2="-72"
       y2="5"
       gradientUnits="userSpaceOnUse"
       gradientTransform="translate(131.5,-0.50999761)" />
    <linearGradient
       inkscape:collect="always"
       id="linearGradient1051">
      <stop
         style="stop-color:#263a61;stop-opacity:1"
         offset="0"
         id="stop1047" />
      <stop
         style="stop-color:#6285cc;stop-opacity:1"
         offset="1"
         id="stop1049" />
    </linearGradient>
    <linearGradient
       id="linearGradient890-3"
       x2="0"
       y1="44"
       y2="4"
       gradientTransform="matrix(1.2346,0,0,1.2346,3.1419,3.6047)"
       gradientUnits="userSpaceOnUse">
      <stop
         stop-color="#FFB900"
         offset="0"
         id="stop861" />
      <stop
         stop-color="#ff0"
         offset="1"
         id="stop863" />
    </linearGradient>
    <filter
       id="filter2761-6"
       x="-.024"
       y="-.024"
       width="1.048"
       height="1.048"
       color-interpolation-filters="sRGB">
      <feGaussianBlur
         stdDeviation="0.14552168"
         id="feGaussianBlur866" />
    </filter>
  </defs>
  <rect
     ry="15"
     y="4.5"
     x="4.5"
     height="55"
     width="55"
     id="rect1055"
     style="opacity:0.3;fill:#141414;fill-opacity:1;stroke-width:2.74436;stroke-linecap:round;filter:url(#filter1057)" />
  <rect
     style="fill:url(#linearGradient1053);fill-opacity:1;stroke-width:2.74436;stroke-linecap:round"
     id="rect1045"
     width="54.999996"
     height="54.999996"
     x="4.5000019"
     y="4.5000019"
     ry="14.999999" />
  <g
     transform="translate(-74.364365)"
     fill="#5e4aa6"
     id="g30">
    <circle
       cx="-1248.7"
       cy="-1241.6"
       r="0"
       id="circle24" />
    <circle
       cx="-1140.3"
       cy="-1301.8"
       r="0"
       id="circle26" />
    <circle
       cx="-1158.1"
       cy="-1246"
       r="0"
       id="circle28" />
  </g>
  <circle
     style="stroke-width:1"
     cx="-1231.6643"
     cy="-1267.7"
     r="0"
     fill="#5e4aa6"
     id="circle36" />
  <circle
     style="stroke-width:1"
     cx="-132.12036"
     cy="-2.1829"
     r="0"
     fill="#5e4aa6"
     fill-rule="evenodd"
     id="circle38" />
  <g
     transform="matrix(1.9551617,0,0,1.9551617,0.75563621,-0.37161227)"
     id="g993">
    <g
       shape-rendering="auto"
       id="g989">
      <path
         d="m 10.961,15.052 c -3.589,0 -6.5313,2.9423 -6.5313,6.5312 0,3.589 2.9423,6.5312 6.5313,6.5312 3.5891,0 6.5312,-2.9423 6.5312,-6.5312 V 15.052 Z m 0,3 h 3.5312 v 3.5312 c 0,1.9658 -1.5654,3.5312 -3.5312,3.5312 -1.9658,0 -3.5313,-1.5653 -3.5313,-3.5312 0,-1.9658 1.5655,-3.5312 3.5313,-3.5312 z"
         color="#000000"
         color-rendering="auto"
         dominant-baseline="auto"
         image-rendering="auto"
         opacity="0.35"
         solid-color="#000000"
         stop-color="#000000"
         style="font-variant-ligatures:normal;font-variant-position:normal;font-variant-caps:normal;font-variant-numeric:normal;font-variant-alternates:normal;font-variant-east-asian:normal;font-feature-settings:normal;font-variation-settings:normal;text-indent:0;text-decoration:none;text-decoration-line:none;text-decoration-style:solid;text-decoration-color:#000000;text-transform:none;text-orientation:mixed;white-space:normal;shape-padding:0;shape-margin:0;inline-size:0;isolation:auto;mix-blend-mode:normal"
         id="path983" />
      <path
         d="m 21,5 c -3.5891,0 -6.5332,2.9423 -6.5332,6.5312 v 6.5312 H 21 c 3.589,0 6.5312,-2.9423 6.5312,-6.5312 C 27.5312,7.9422 24.5889,5 21,5 Z m 0,3 c 1.9658,0 3.5312,1.5653 3.5312,3.5312 0,1.9658 -1.5655,3.5312 -3.5312,3.5312 H 17.4668 V 11.5312 C 17.4668,9.5654 19.0341,8 21,8 Z"
         color="#000000"
         color-rendering="auto"
         dominant-baseline="auto"
         image-rendering="auto"
         opacity="0.35"
         solid-color="#000000"
         stop-color="#000000"
         style="font-variant-ligatures:normal;font-variant-position:normal;font-variant-caps:normal;font-variant-numeric:normal;font-variant-alternates:normal;font-variant-east-asian:normal;font-feature-settings:normal;font-variation-settings:normal;text-indent:0;text-decoration:none;text-decoration-line:none;text-decoration-style:solid;text-decoration-color:#000000;text-transform:none;text-orientation:mixed;white-space:normal;shape-padding:0;shape-margin:0;inline-size:0;isolation:auto;mix-blend-mode:normal"
         id="path985" />
      <path
         id="path987"
         d="m 17.531,15.02 v 6.5564 c 0,3.6286 -2.942,6.5706 -6.5706,6.5706 -0.55053,0 -0.94195,-0.06205 -1.4516,-0.19529 -0.74309,-0.19455 -1.3503,-0.80376 -1.3505,-1.5124 0,-0.85666 0.62173,-1.4797 1.5512,-1.4797 0.44232,0 0.6029,0.08487 1.2509,0.08487 1.913,0 3.4648,-1.5496 3.4683,-3.4626 v -3.0138 a 0.48943,0.48943 0 0 0 -0.49006,-0.4888 l -2.2784,-4.24e-4 c -0.84888,0 -1.5348,-0.67715 -1.5348,-1.5283 -4.21e-4,-0.85645 0.69303,-1.5308 1.5511,-1.5308"
         fill="#ffffff"
         shape-rendering="auto"
         stroke-width="0.10516" />
    </g>
    <path
       id="use991"
       d="m 14.429,18.094 v -6.5564 c 0,-3.6286 2.942,-6.5706 6.5706,-6.5706 0.55053,0 0.94195,0.06205 1.4516,0.19529 0.74309,0.19455 1.3503,0.80376 1.3505,1.5124 0,0.85666 -0.62173,1.4797 -1.5512,1.4797 -0.44232,0 -0.6029,-0.08487 -1.2509,-0.08487 -1.913,0 -3.4648,1.5496 -3.4683,3.4626 v 3.0138 a -0.48943,-0.48943 0 0 0 0.49006,0.4888 l 2.2784,4.24e-4 c 0.84888,0 1.5348,0.67715 1.5348,1.5283 4.21e-4,0.85645 -0.69303,1.5308 -1.5511,1.5308"
       fill="#ffffff"
       shape-rendering="auto"
       stroke-width="0.10516" />
  </g>
</svg>
