<?xml version="1.0" encoding="UTF-8"?>
<svg width="64" height="64" version="1.1" viewBox="0 0 16.933 16.933" xmlns="http://www.w3.org/2000/svg" xmlns:cc="http://creativecommons.org/ns#" xmlns:dc="http://purl.org/dc/elements/1.1/" xmlns:rdf="http://www.w3.org/1999/02/22-rdf-syntax-ns#">
 <metadata>
  <rdf:RDF>
   <cc:Work rdf:about="">
    <dc:format>image/svg+xml</dc:format>
    <dc:type rdf:resource="http://purl.org/dc/dcmitype/StillImage"/>
   </cc:Work>
  </rdf:RDF>
 </metadata>
 <defs>
  <filter id="filter1057" x="-.027" y="-.027" width="1.054" height="1.054" color-interpolation-filters="sRGB">
   <feGaussianBlur stdDeviation="0.61875"/>
  </filter>
  <linearGradient id="linearGradient1053" x1="-127" x2="-72" y1="60" y2="5" gradientTransform="matrix(.26458 0 0 .26458 34.792 -.13493)" gradientUnits="userSpaceOnUse">
   <stop stop-color="#32d7ff" offset="0"/>
   <stop stop-color="#329bff" offset="1"/>
  </linearGradient>
 </defs>
 <rect transform="scale(.26458)" x="4.5" y="4.5" width="55" height="55" ry="15" fill="#141414" filter="url(#filter1057)" opacity=".3" stroke-linecap="round" stroke-width="2.7444"/>
 <rect x="1.1906" y="1.1906" width="14.552" height="14.552" ry="3.9687" fill="url(#linearGradient1053)" stroke-linecap="round" stroke-width=".72611"/>
 <g transform="matrix(.93982 0 0 .93982 .39286 .38497)" fill="#fff" fill-rule="evenodd" stroke-linecap="round" stroke-linejoin="round" stroke-opacity=".9098" stroke-width="6">
  <path transform="matrix(.17793 0 0 .17793 21.116 6.465)" d="m-72.267 6.6096-12.878 7.4349-12.878-7.4349v-14.87l12.878-7.4349 12.878 7.4349z" style="paint-order:stroke fill markers"/>
  <path transform="matrix(.17793 0 0 .17793 26.365 6.465)" d="m-72.267 6.6096-12.878 7.4349-12.878-7.4349v-14.87l12.878-7.4349 12.878 7.4349z" style="paint-order:stroke fill markers"/>
  <path transform="matrix(.17793 0 0 .17793 23.74 11.027)" d="m-72.267 6.6096-12.878 7.4349-12.878-7.4349v-14.87l12.878-7.4349 12.878 7.4349z" style="paint-order:stroke fill markers"/>
 </g>
</svg>
