<?xml version="1.0" encoding="UTF-8"?>
<svg width="64" height="64" version="1.1" viewBox="0 0 16.933 16.933" xmlns="http://www.w3.org/2000/svg" xmlns:cc="http://creativecommons.org/ns#" xmlns:dc="http://purl.org/dc/elements/1.1/" xmlns:rdf="http://www.w3.org/1999/02/22-rdf-syntax-ns#" xmlns:xlink="http://www.w3.org/1999/xlink">
 <defs>
  <filter id="filter2076-35" x="-.048" y="-.048" width="1.096" height="1.096" color-interpolation-filters="sRGB">
   <feGaussianBlur stdDeviation="1.1"/>
  </filter>
  <linearGradient id="linearGradient2512" x1="145" x2="200" y1="59" y2="4" gradientTransform="matrix(.26458 0 0 .26458 -25.658 7.3103)" gradientUnits="userSpaceOnUse" xlink:href="#linearGradient2070-6"/>
  <linearGradient id="linearGradient2070-6" x1="145" x2="200" y1="59" y2="4" gradientTransform="matrix(.26458 0 0 .26458 -37.173 .13229)" gradientUnits="userSpaceOnUse">
   <stop stop-color="#e1e1e1" offset="0"/>
   <stop stop-color="#f5f5f5" offset="1"/>
  </linearGradient>
  <linearGradient id="linearGradient2044" x1="47" x2="47" y1="17" y2="19" gradientTransform="matrix(.39912 0 0 .39912 5.229 4.2272)" gradientUnits="userSpaceOnUse">
   <stop stop-color="#606060" offset="0"/>
   <stop stop-color="#414141" offset=".019551"/>
   <stop stop-color="#1e1e1e" offset="1"/>
  </linearGradient>
  <linearGradient id="linearGradient2042" x1="47" x2="47" y1="17" y2="19" gradientTransform="matrix(.26458 0 0 .26458 11.552 6.6489)" gradientUnits="userSpaceOnUse">
   <stop stop-color="#3889e9" offset="0"/>
   <stop stop-color="#5ea5fb" offset="1"/>
  </linearGradient>
  <filter id="filter3469" x="-.022778" y="-.033143" width="1.0456" height="1.0663" color-interpolation-filters="sRGB">
   <feGaussianBlur stdDeviation="0.25540527"/>
  </filter>
  <filter id="filter3432" x="-.014726" y="-.015526" width="1.0295" height="1.0311" color-interpolation-filters="sRGB">
   <feGaussianBlur stdDeviation="0.208125"/>
  </filter>
  <linearGradient id="linearGradient3399" x1="-120.65" x2="-120.65" y1="-41.666" y2="-12.066" gradientTransform="matrix(-.10696 -.18526 -.18526 .10696 2.3393 -1.1115)" gradientUnits="userSpaceOnUse">
   <stop stop-color="#6464dc" offset="0"/>
   <stop stop-color="#b414c8" offset="1"/>
  </linearGradient>
  <filter id="filter3463" x="-.03196" y="-.023373" width="1.0639" height="1.0467" color-interpolation-filters="sRGB">
   <feGaussianBlur stdDeviation="0.093024551"/>
  </filter>
  <filter id="filter3450" x="-.022779" y="-.03314" width="1.0456" height="1.0663" color-interpolation-filters="sRGB">
   <feGaussianBlur stdDeviation="0.25540969"/>
  </filter>
  <linearGradient id="linearGradient3391" x1="27.344" x2="26.488" y1="-126.64" y2="-96.122" gradientTransform="matrix(-.10696 .18526 -.18526 -.10696 2.3393 -1.1115)" gradientUnits="userSpaceOnUse">
   <stop stop-color="#ff9632" offset="0"/>
   <stop stop-color="#ffc800" offset="1"/>
  </linearGradient>
  <filter id="filter3479" x="-.0094918" y="-.01258" width="1.019" height="1.0252" color-interpolation-filters="sRGB">
   <feGaussianBlur stdDeviation="0.098463623"/>
  </filter>
  <linearGradient id="linearGradient3700" x1="73" x2="73" y1="70" y2="100" gradientTransform="matrix(.21393 0 0 .21393 2.3393 -1.1115)" gradientUnits="userSpaceOnUse">
   <stop stop-color="#1e96ff" offset="0"/>
   <stop stop-color="#0ad8ff" offset="1"/>
  </linearGradient>
 </defs>
 <metadata>
  <rdf:RDF>
   <cc:Work rdf:about="">
    <dc:format>image/svg+xml</dc:format>
    <dc:type rdf:resource="http://purl.org/dc/dcmitype/StillImage"/>
   </cc:Work>
  </rdf:RDF>
 </metadata>
 <g transform="translate(-11.515 -7.178)">
  <rect transform="matrix(.26458 0 0 .26458 11.515 7.178)" x="4.5" y="4.5" width="55" height="55" rx="13.002" ry="13.002" filter="url(#filter2076-35)" opacity=".3"/>
  <rect x="12.706" y="8.3686" width="14.552" height="14.552" rx="3.44" ry="3.44" fill="url(#linearGradient2512)" stroke-width=".26458"/>
  <rect x="13.367" y="9.03" width="13.229" height="13.229" rx="3.1273" ry="3.1273" fill="url(#linearGradient2512)" fill-opacity="0" stroke-width=".24052"/>
  <rect x="13.367" y="9.03" width="13.229" height="13.229" rx="3.1273" ry="2.7693" fill="#262626" stroke-width=".24052"/>
  <path d="m16.843 9.6915c-1.5593 0-2.8142 0.95901-2.8142 2.1502v7.6056c1e-6 1.1912 1.255 2.1502 2.8142 2.1502h6.277c1.5593 0 2.8148-0.95902 2.8148-2.1502v-7.6056c0-1.1912-1.2555-2.1502-2.8148-2.1502z" fill="#dcdcdc" stroke-linecap="round" stroke-width=".52916"/>
  <g stroke-width=".26458">
   <path d="m16.146 8.3686c-1.9058 0-3.44 1.5343-3.44 3.44v0.91208h14.552v-0.91208c0-1.9058-1.5343-3.44-3.44-3.44z" fill="url(#linearGradient2512)"/>
   <circle cx="23.987" cy="11.411" r=".39912" fill="url(#linearGradient2044)" fill-rule="evenodd" style="paint-order:fill markers stroke"/>
   <circle cx="23.987" cy="11.411" r=".26458" fill="url(#linearGradient2042)" fill-rule="evenodd" style="paint-order:fill markers stroke"/>
  </g>
  <g stroke-linecap="round">
   <path transform="matrix(.20909 0 0 .21042 2.6774 -.76051)" d="m93.666 81.133c-0.67194-0.04697-1.3644 0.10128-1.9941 0.46484l-14.672 8.4707v6.0625c0 1.3473-0.76257 2.4986-1.873 3.084 0.04152-0.02184 0.08594-0.03296 0.12695-0.05664l19.918-11.5c1.6792-0.9695 2.2508-3.102 1.2812-4.7812-0.60594-1.0495-1.6672-1.6659-2.7871-1.7441zm-22.412 12.324c-0.05679 0.04761-0.11092 0.09588-0.16406 0.14648 0.05283-0.05056 0.10754-0.09892 0.16406-0.14648zm-0.44726 0.45312c-0.04404 0.05339-0.09031 0.10455-0.13086 0.16016 0.04009-0.05547 0.08727-0.10688 0.13086-0.16016zm-0.40039 0.5957c-0.05776 0.11024-0.10291 0.22452-0.14844 0.33984 0.04486-0.11554 0.09133-0.22941 0.14844-0.33984zm-0.20312 0.49023c-0.04436 0.12939-0.08436 0.25893-0.11328 0.39258 0.02817-0.13294 0.06997-0.26385 0.11328-0.39258zm-0.11523 0.41211c-0.0645 0.30628-0.08616 0.6197-0.06641 0.93555-0.01972-0.3154 0.0034-0.62973 0.06641-0.93555zm-0.06641 0.93555c7e-3 0.11183 0.01525 0.22242 0.0332 0.33398-0.01717-0.10952-0.02636-0.22127-0.0332-0.33398zm0.12695 0.74805c0.02143 0.0741 0.04178 0.14745 0.06836 0.2207-0.02586-0.07218-0.04727-0.14634-0.06836-0.2207zm0.28711 0.70117c0.01487 0.02738 0.02143 0.05683 0.03711 0.08398 0.0091 0.01568 0.02199 0.02748 0.03125 0.04297-0.02463-0.04125-0.04541-0.08461-0.06836-0.12695zm0.38476 0.56836c0.03584 0.04324 0.06789 0.08971 0.10547 0.13086-0.0375-0.04157-0.06986-0.08759-0.10547-0.13086zm0.47656 0.47266c0.04707 0.03848 0.09185 0.07944 0.14062 0.11523-0.04898-0.03586-0.09374-0.0768-0.14062-0.11523zm0.53711 0.35938c0.06475 0.0353 0.12669 0.07442 0.19336 0.10547-0.06704-0.0311-0.12873-0.07033-0.19336-0.10547zm2.8652 0.21484c-0.08473 0.03082-0.1721 0.0557-0.25977 0.08008 0.08725-0.02448 0.17367-0.04848 0.25977-0.08008zm-2.2754 0.03906c0.08593 0.02794 0.17 0.05692 0.25781 0.07813-0.08815-0.02107-0.17265-0.05014-0.25781-0.07813zm1.6289 0.12891c-0.11201 0.01765-0.22646 0.02627-0.3418 0.0332 0.11444-0.0069 0.22763-0.01484 0.3418-0.0332zm-1.0215 0.0078c0.11771 0.01607 0.23432 0.03116 0.35352 0.03516-0.12019-0.0039-0.23685-0.01928-0.35352-0.03516z" filter="url(#filter3469)" image-rendering="optimizeSpeed" opacity=".34" stroke-width="2.5923"/>
   <path transform="matrix(.16828 0 0 .16828 22.928 24.255)" d="m-33.069-55.782v27.795c0 2.425 1.9855 4.377 4.4531 4.377 2.4677 0 4.4551-1.952 4.4551-4.377v-21.438l-6.9688-4.0234c-0.94535-0.5458-1.5943-1.3873-1.9395-2.334zm32.355 9.7129c0.07335 0.06187 0.14046 0.12755 0.20898 0.19336-0.06841-0.06633-0.137-0.13205-0.20898-0.19336zm0.57422 0.58984c0.08664 0.10625 0.16246 0.21719 0.23828 0.33008-0.07594-0.11389-0.1538-0.22543-0.23828-0.33008zm0.47656 0.7168c0.07352 0.13829 0.1331 0.27912 0.19141 0.42383-0.05762-0.14299-0.11784-0.28467-0.19141-0.42383zm0.33203 0.80273c0.04176 0.13883 0.06963 0.27958 0.09766 0.42188-0.02779-0.14113-0.05565-0.2824-0.09766-0.42188zm0.16992 0.85547c0.01308 0.13618 0.01134 0.27277 0.01172 0.41016 0-0.13658 0.0013-0.27328-0.01172-0.41016zm0 0.83984c-0.01383 0.14574-0.04369 0.28857-0.07227 0.43359 0.02837-0.14402 0.05824-0.28712 0.07227-0.43359zm-0.16992 0.85547c-0.03848 0.12773-0.09002 0.25334-0.14062 0.37891 0.05042-0.12512 0.10182-0.24991 0.14062-0.37891zm-0.80859 1.5195c-0.11432 0.14163-0.23694 0.2721-0.36524 0.39648 0.13018-0.12503 0.25283-0.25864 0.36524-0.39648zm-0.57422 0.58984c-0.17836 0.15193-0.36514 0.28391-0.5625 0.4043 0.20146-0.12247 0.38772-0.25685 0.5625-0.4043zm-4.3555 0.80664c0.05112 0.01827 0.10284 0.03643 0.1543 0.05273-0.05164-0.01635-0.10299-0.0344-0.1543-0.05273zm2.7129 0.08594c-0.04554 0.01308-0.09079 0.02554-0.13672 0.03711 0.04563-0.01152 0.09148-0.02414 0.13672-0.03711zm-1.8125 0.13672c0.04284 0.0057 0.08603 0.0054 0.12891 0.0098-0.04316-0.0044-0.08579-0.0041-0.12891-0.0098zm0.94336 0.02539c-0.05125 0.0042-0.10286 0.0035-0.1543 0.0059 0.05138-0.0023 0.10311-0.0018 0.1543-0.0059z" filter="url(#filter3432)" image-rendering="optimizeSpeed" opacity=".3" stroke-width="3.2704"/>
   <path d="m22.377 16.324c-0.14375-0.01005-0.29188 0.02167-0.4266 0.09944l-3.1387 1.812v1.2969c0 0.28823-0.16313 0.5345-0.40069 0.65975 0.0089-0.0047 0.01839-0.0071 0.02716-0.01211l4.261-2.4602c0.35922-0.2074 0.4815-0.66361 0.27409-1.0228-0.12963-0.22452-0.35667-0.35636-0.59623-0.37312zm-4.7946 2.6364c-0.01215 0.01018-0.02373 0.02051-0.0351 0.03134 0.0113-0.01082 0.02301-0.02116 0.0351-0.03134zm-0.09568 0.09694c-0.0094 0.01142-0.01932 0.02236-0.028 0.03426 0.0086-0.01187 0.01867-0.02286 0.028-0.03426zm-0.08565 0.12744c-0.01236 0.02358-0.02201 0.04803-0.03175 0.0727 0.0096-0.02472 0.01954-0.04908 0.03175-0.0727zm-0.04345 0.10488c-0.0095 0.02768-0.01805 0.05539-0.02423 0.08398 6e-3 -0.02844 0.01497-0.05644 0.02423-0.08398zm-0.02465 0.08816c-0.0138 0.06552-0.01843 0.13257-0.01421 0.20013-0.0042-0.06747 7.14e-4 -0.13472 0.01421-0.20013zm-0.01421 0.20013c0.0015 0.02392 0.0033 0.04758 0.0071 0.07145-0.0037-0.02343-0.0056-0.04734-0.0071-0.07145zm0.02716 0.16003c0.0046 0.01585 0.0089 0.03154 0.01462 0.04721-0.0055-0.01544-0.01011-0.03131-0.01462-0.04721zm0.06142 0.15c0.0032 0.0059 0.0046 0.01216 0.0079 0.01797 2e-3 0.0034 0.0047 0.0059 0.0067 0.0092-0.0053-0.0088-0.0097-0.0181-0.01462-0.02716zm0.08231 0.12159c0.0077 0.0093 0.01453 0.01919 0.02256 0.028-8e-3 -0.0089-0.01495-0.01874-0.02256-0.028zm0.10195 0.10111c0.01007 0.0082 0.01965 0.01699 0.03008 0.02465-0.01048-0.0077-0.02005-0.01643-0.03008-0.02465zm0.1149 0.07688c0.01385 0.0076 0.0271 0.01592 0.04136 0.02256-0.01434-0.0067-0.02754-0.01505-0.04136-0.02256zm0.61296 0.04596c-0.01813 0.0066-0.03682 0.01192-0.05557 0.01713 0.01867-0.0052 0.03715-0.01037 0.05557-0.01713zm-0.48676 0.0084c0.01838 6e-3 0.03637 0.01218 0.05515 0.01671-0.01886-0.0045-0.03693-0.01073-0.05515-0.01671zm0.34847 0.02758c-0.02396 0.0038-0.04844 0.0056-0.07312 0.0071 0.02448-0.0015 0.0487-0.0032 0.07312-0.0071zm-0.21853 0.0017c0.02518 0.0034 0.05013 0.0067 0.07563 0.0075-0.02572-8.46e-4 -0.05067-0.0041-0.07563-0.0075z" fill="url(#linearGradient3399)" image-rendering="optimizeSpeed" stroke-width=".55456"/>
   <path transform="matrix(.21393 0 0 .21393 2.3393 -1.1115)" d="m77.512 90.225-5.2461 3.0293c-1.1929 0.68871-1.8129 1.965-1.7324 3.248 0.0068 0.11272 0.01603 0.22447 0.0332 0.33399 0.0222 0.13793 0.05445 0.27395 0.09375 0.41015 0.02135 0.0752 0.04223 0.14969 0.06836 0.22266 0.0589 0.16233 0.13212 0.32218 0.2168 0.47852 0.02382 0.044 0.04469 0.0899 0.07031 0.13281 0.09604 0.16054 0.20617 0.30602 0.32227 0.44531 0.03386 0.0405 0.06397 0.0842 0.09961 0.12305 0.11242 0.12311 0.23682 0.2319 0.36328 0.33594 0.05161 0.0423 0.10027 0.0876 0.1543 0.12695 0.12172 0.0889 0.25181 0.16252 0.38281 0.23437 0.06709 0.0367 0.13148 0.077 0.20117 0.10938 0.12434 0.0579 0.25291 0.10171 0.38281 0.14453 0.08972 0.0294 0.17868 0.0598 0.27148 0.082 0.1148 0.0277 0.23241 0.0426 0.34961 0.0586 0.11354 0.0152 0.22696 0.031 0.34375 0.0352 0.1117 4e-3 0.22372-1e-3 0.33594-8e-3 0.12001-7e-3 0.23909-0.0182 0.35547-0.0371 0.12303-0.0203 0.2455-0.0501 0.36719-0.084 0.09093-0.0251 0.18178-0.05 0.26953-0.082 0.13723-0.0505 0.27127-0.11463 0.4043-0.18359 1.1211-0.5819 1.8926-1.7365 1.8926-3.0917z" filter="url(#filter3463)" image-rendering="optimizeSpeed" opacity=".3" stroke-width="2.5923"/>
   <path transform="matrix(.20715 0 0 .21107 2.8103 -.91381)" d="m73.258 70.332c-1.1199 0.07829-2.1792 0.69658-2.7852 1.7461-0.9695 1.6792-0.39797 3.8098 1.2812 4.7793l14.664 8.4668 5.2539-3.0332c0.62971-0.36356 1.3222-0.51182 1.9941-0.46484 0.44506 0.03111 0.88176 0.14723 1.2832 0.3418l-19.695-11.371c-0.62971-0.36356-1.3242-0.51182-1.9961-0.46484zm21.752 11.871c0.07781 0.04235 0.15058 0.09428 0.22656 0.14062-0.02314-0.01407-0.04088-0.03326-0.06445-0.04687zm0.66992 0.45898c0.05662 0.04823 0.11025 0.10017 0.16406 0.15234-0.0539-0.05177-0.10637-0.10367-0.16406-0.15234zm0.45117 0.46289c0.06645 0.08232 0.12776 0.17018 0.1875 0.25977-0.05964-0.0888-0.11935-0.17619-0.1875-0.25977zm0.375 0.56445c0.05787 0.10947 0.10506 0.22151 0.15039 0.33398-0.04587-0.11383-0.09256-0.2252-0.15039-0.33398zm0.26172 0.63086c0.03305 0.10971 0.05431 0.22101 0.07617 0.33203-0.02205-0.11194-0.04332-0.22282-0.07617-0.33203zm0.13281 0.67383c0.01022 0.10767 0.0098 0.21483 0.0098 0.32227-2.95e-4 -0.10807 4.87e-4 -0.21514-0.0098-0.32227zm0 0.66016c-0.01103 0.11522-0.03432 0.2285-0.05664 0.3418 0.02247-0.11408 0.04576-0.22716 0.05664-0.3418zm-0.13281 0.67383c-0.03052 0.10147-0.07167 0.19846-0.11133 0.29688 0.03981-0.09877 0.08106-0.1964 0.11133-0.29688zm-0.26172 0.63281c-0.05304 0.09965-0.11474 0.19458-0.17773 0.28906 0.03941-0.05965 0.08876-0.1091 0.125-0.17188 0.02191-0.03795 0.03239-0.07879 0.05273-0.11719zm-0.375 0.5625c-0.08842 0.10843-0.18471 0.2122-0.28711 0.31055 0.10092-0.09784 0.19718-0.19914 0.28711-0.31055zm-0.45117 0.46289c-0.13749 0.11599-0.28489 0.22202-0.44336 0.31836 0.15525-0.0947 0.30306-0.19885 0.44336-0.31836zm-3.4258 0.63477c0.04036 0.01442 0.08047 0.02816 0.12109 0.04102-0.04048-0.01282-0.08088-0.02665-0.12109-0.04102zm2.1328 0.06836c-0.03559 0.0102-0.07153 0.02024-0.10742 0.0293 0.03613-0.0091 0.0716-0.01901 0.10742-0.0293zm-1.4258 0.10742c0.03392 0.0045 0.06761 0.0043 0.10156 0.0078-0.03373-0.0035-0.06786-0.0033-0.10156-0.0078zm0.74219 0.01953c-0.04027 0.0032-0.08068 0.0021-0.12109 0.0039 0.04046-0.0019 0.08078-6.51e-4 0.12109-0.0039z" filter="url(#filter3450)" image-rendering="optimizeSpeed" opacity=".3" stroke-width="2.5923"/>
   <path d="m18.011 13.865c-0.23958 0.01675-0.4662 0.14902-0.59582 0.37353-0.2074 0.35922-0.08514 0.81501 0.27409 1.0224l3.1371 1.8114 1.124-0.64888c0.13471-0.07778 0.28286-0.10949 0.4266-0.09944 0.09521 0.0067 0.18862 0.0315 0.27451 0.07312l-4.2134-2.4326c-0.13471-0.07777-0.28328-0.10949-0.42702-0.09944zm4.6532 2.5395c0.01665 0.0091 0.03221 0.02017 0.04847 0.03008-5e-3 -3e-3 -0.0087-0.0071-0.01379-0.01002zm0.14332 0.09819c0.01211 0.01031 0.02359 0.02143 0.0351 0.03259-0.01153-0.01107-0.02275-0.02218-0.0351-0.03259zm0.09652 0.09902c0.01422 0.01761 0.02733 0.03641 0.04011 0.05557-0.01276-0.019-0.02553-0.03769-0.04011-0.05557zm0.08022 0.12075c0.01238 0.02342 0.02248 0.04739 0.03217 0.07145-0.0098-0.02435-0.0198-0.04818-0.03217-0.07145zm0.05599 0.13496c0.0071 0.02347 0.01162 0.04728 0.0163 0.07103-0.0047-0.02395-0.0093-0.04767-0.0163-0.07103zm0.02841 0.14415c0.0022 0.02303 0.0021 0.04596 0.0021 0.06894-6.3e-5 -0.02312 1.04e-4 -0.04602-0.0021-0.06894zm0 0.14122c-0.0024 0.02465-0.0073 0.04888-0.01212 0.07312 0.0048-0.0244 0.0098-0.04859 0.01212-0.07312zm-0.02841 0.14415c-0.0065 0.02171-0.01533 0.04246-0.02382 0.06351 0.0085-0.02113 0.01734-0.04202 0.02382-0.06351zm-0.05599 0.13538c-0.01135 0.02132-0.02454 0.04163-0.03802 0.06184 0.0084-0.01276 0.01899-0.02334 0.02674-0.03677 0.0047-0.0081 0.0069-0.01685 0.01128-0.02507zm-0.08022 0.12033c-0.01891 0.0232-0.03951 0.04539-0.06142 0.06644 0.02159-0.02093 0.04218-0.0426 0.06142-0.06644zm-0.09652 0.09902c-0.02941 0.02481-0.06094 0.0475-0.09485 0.06811 0.03321-0.02026 0.06483-0.04254 0.09485-0.06811zm-0.73287 0.13579c0.0086 0.0031 0.01721 6e-3 0.02591 0.0088-0.0087-0.0027-0.0173-0.0057-0.02591-0.0088zm0.45627 0.01462c-0.0076 0.0022-0.0153 0.0043-0.02298 0.0063 0.0077-2e-3 0.01532-0.0041 0.02298-0.0063zm-0.305 0.02298c0.0073 9.53e-4 0.01446 9.26e-4 0.02173 0.0017-0.0072-7.41e-4 -0.01452-7.14e-4 -0.02173-0.0017zm0.15877 0.0042c-0.0086 6.88e-4 -0.01726 4.5e-4 -0.0259 8.46e-4 0.0087-3.96e-4 0.01728-1.39e-4 0.0259-8.46e-4z" fill="url(#linearGradient3391)" image-rendering="optimizeSpeed" stroke-width=".55456"/>
   <path transform="matrix(.21393 0 0 .21393 2.3393 -1.1115)" d="m92.719 81.213c-0.50775 0.03892-1.016 0.19217-1.4883 0.46484l-5.2539 3.0332 0.4707 0.27148 5.2246-3.0156c0.62971-0.36356 1.3222-0.51182 1.9941-0.46484 0.45975 0.03214 0.90777 0.15899 1.3203 0.36524-0.08606-0.06063-0.1629-0.12993-0.25586-0.18359l-0.14453-0.08398c-0.42374-0.21891-0.88619-0.3535-1.3613-0.38672-0.16798-0.01174-0.33661-0.01297-0.50586 0zm-21.465 12.613c-0.05652 0.04757-0.11123 0.09593-0.16406 0.14648 0.05315-0.05061 0.10727-0.09888 0.16406-0.14648zm-0.44726 0.45312c-0.04359 0.05327-0.09077 0.10468-0.13086 0.16016 0.04055-0.0556 0.08682-0.10677 0.13086-0.16016zm-0.40039 0.5957c-0.05711 0.11044-0.10358 0.22431-0.14844 0.33984 0.04553-0.11532 0.09068-0.22961 0.14844-0.33984zm-0.20312 0.49023c-0.04332 0.12873-0.08511 0.25964-0.11328 0.39258 0.02893-0.13365 0.06893-0.26319 0.11328-0.39258zm-0.05469 2.0957c0.02109 0.07436 0.04249 0.14852 0.06836 0.2207-0.02658-0.07326-0.04693-0.14661-0.06836-0.2207zm0.67187 1.2695c0.03561 0.04327 0.06797 0.08929 0.10547 0.13086-0.03758-0.04115-0.06963-0.08762-0.10547-0.13086zm0.47656 0.47266c0.04689 0.03843 0.09164 0.07937 0.14062 0.11523-0.04878-0.03579-0.09356-0.07675-0.14062-0.11523zm0.53711 0.35938c0.06463 0.03514 0.12632 0.07436 0.19336 0.10547-0.06667-0.03105-0.12861-0.07017-0.19336-0.10547zm2.8652 0.21484c-0.08609 0.0316-0.17252 0.0556-0.25977 0.08008 0.08767-0.02438 0.17504-0.04926 0.25977-0.08008zm-2.2754 0.03906c0.08516 0.02799 0.16966 0.05705 0.25781 0.07813-0.08781-0.02121-0.17189-0.05019-0.25781-0.07813zm1.6289 0.12891c-0.11416 0.01837-0.22736 0.02631-0.3418 0.0332 0.11534-0.0069 0.22978-0.01555 0.3418-0.0332zm-1.0215 0.0078c0.11667 0.01588 0.23332 0.03121 0.35352 0.03516-0.11919-4e-3 -0.2358-0.01908-0.35352-0.03516z" filter="url(#filter3479)" image-rendering="optimizeSpeed" opacity=".3" stroke-width="2.5923"/>
   <path d="m18.063 13.863c-6e-3 0-0.01148 0.0015-0.01742 0.0016 0.01203-2.91e-4 0.02409 2.3e-5 0.03615 3.44e-4 -0.0064-1.59e-4 -0.01231-2e-3 -0.01873-2e-3zm0.12785 0.01282c0.01029 0.0018 0.02064 0.0024 0.03089 0.0046-0.01012-0.0022-0.02063-0.0028-0.03089-0.0046zm-0.27477 2e-3c-0.0059 0.0012-0.01154 3e-3 -0.01742 0.0043 0.0058-0.0013 0.01155-0.0031 0.01742-0.0043zm-0.12029 0.03615c-0.01265 0.0048-0.02549 9e-3 -0.0378 0.01446 0.01232-0.0055 0.02522-0.0096 0.0378-0.01446zm0.54494 0.0033c0.01804 0.0072 0.03555 0.01656 0.05325 0.02531-0.01767-0.0087-0.03481-0.01796-0.05325-0.02531zm-0.6797 0.06376c-0.01422 0.0091-0.02754 0.01896-0.04108 0.02892 0.01351-0.01 0.02701-0.01992 0.04108-0.02892zm-0.09597 0.07395c-0.02278 0.02037-0.04364 0.04208-0.06376 0.06508 0.02018-0.02317 0.04129-0.04488 0.06376-0.06508zm-0.10287 0.11273c-0.01328 0.01797-0.02548 0.03638-0.03714 0.05555 0.01167-0.01916 0.02409-0.0378 0.03714-0.05555zm-0.05587 0.09006c-0.01762 0.03273-0.03302 0.06643-0.04568 0.10189 0.01251-0.03452 0.02773-0.06862 0.04568-0.10189zm-0.06048 0.14922c-0.0082 0.02883-0.015 0.05792-0.01972 0.08808 0.0047-0.02952 0.01131-0.05893 0.01972-0.08808zm-0.02695 0.15776c-1e-3 0.01586-0.0046 0.03088-0.0046 0.047v4.9201c0 0.41481 0.3339 0.74871 0.74871 0.74871s0.74871-0.3339 0.74871-0.74871v-3.6232l-1.1224-0.64814c-0.25562-0.14758-0.38815-0.42097-0.37042-0.6958zm5.4888 1.9376c0.01234 0.01041 0.02364 0.02147 0.03517 0.03254-0.01151-0.01116-0.02305-0.02222-0.03517-0.03254zm0.09663 0.09926c0.01458 0.01788 0.02734 0.03655 0.0401 0.05555-0.01278-0.01917-0.02588-0.03794-0.0401-0.05555zm0.08019 0.12062c0.01237 0.02327 0.0224 0.04697 0.03221 0.07132-0.0097-0.02406-0.01983-0.0479-0.03221-0.07132zm0.05587 0.13508c7e-3 0.02336 0.01172 0.04705 0.01643 0.07099-0.0047-0.02375-0.0094-0.04752-0.01643-0.07099zm0.02859 0.14396c0.0022 0.02291 0.0019 0.0459 2e-3 0.06902 0-0.02298 2.19e-4 -0.04599-2e-3 -0.06902zm0 0.14133c-0.0023 0.02453-0.0074 0.04856-0.01216 0.07296 0.0048-0.02424 0.0098-0.04832 0.01216-0.07296zm-0.02859 0.14396c-0.0065 0.02149-0.01515 0.04263-0.02366 0.06376 0.0085-0.02106 0.01713-0.04205 0.02366-0.06376zm-0.13607 0.2557c-0.01924 0.02383-0.03987 0.04579-0.06146 0.06672 0.02191-0.02104 0.04255-0.04352 0.06146-0.06672zm-0.09663 0.09926c-0.03001 0.02557-0.06145 0.04778-0.09466 0.06803 0.0339-0.02061 0.06524-0.04322 0.09466-0.06803zm-0.73294 0.13574c0.0086 0.0031 0.01731 0.0061 0.02597 0.0089-0.0087-0.0028-0.01733-0.0058-0.02597-0.0089zm0.45652 0.01446c-0.0077 0.0022-0.01528 0.0043-0.02301 0.0062 0.0077-0.0019 0.01539-0.0041 0.02301-0.0062zm-0.305 0.02301c0.0072 9.53e-4 0.01448 9e-4 0.02169 0.0016-0.0073-7.41e-4 -0.01444-6.88e-4 -0.02169-0.0016zm0.15875 0.0043c-0.0086 7.15e-4 -0.01731 5.82e-4 -0.02597 1e-3 0.0086-3.97e-4 0.01735-2.91e-4 0.02597-1e-3z" fill="url(#linearGradient3700)" image-rendering="optimizeSpeed" stroke-width=".55456"/>
  </g>
 </g>
</svg>
