<?xml version="1.0" encoding="UTF-8"?>
<svg width="64" height="64" version="1.1" viewBox="0 0 16.933 16.933" xmlns="http://www.w3.org/2000/svg" xmlns:cc="http://creativecommons.org/ns#" xmlns:dc="http://purl.org/dc/elements/1.1/" xmlns:rdf="http://www.w3.org/1999/02/22-rdf-syntax-ns#" xmlns:xlink="http://www.w3.org/1999/xlink">
 <defs>
  <filter id="filter1057-2" x="-.027" y="-.027" width="1.054" height="1.054" color-interpolation-filters="sRGB">
   <feGaussianBlur stdDeviation="0.61875"/>
  </filter>
  <linearGradient id="linearGradient1053-9" x1="-127" x2="-72" y1="60" y2="5" gradientTransform="matrix(.26458 0 0 .26458 36.061 -1.371)" gradientUnits="userSpaceOnUse">
   <stop stop-color="#32d7ff" offset="0"/>
   <stop stop-color="#329bff" offset="1"/>
  </linearGradient>
 </defs>
 <metadata>
  <rdf:RDF>
   <cc:Work rdf:about="">
    <dc:format>image/svg+xml</dc:format>
    <dc:type rdf:resource="http://purl.org/dc/dcmitype/StillImage"/>
   </cc:Work>
  </rdf:RDF>
 </metadata>
 <g transform="translate(-1.2692 1.236)">
  <rect transform="matrix(.26458 0 0 .26458 1.2692 -1.236)" x="4.5" y="4.5" width="55" height="55" ry="15" fill="#141414" filter="url(#filter1057-2)" opacity=".3" stroke-linecap="round" stroke-width="2.7444"/>
  <rect x="2.4598" y="-.045425" width="14.552" height="14.552" ry="3.9687" fill="url(#linearGradient1053-9)" stroke-linecap="round" stroke-width=".7261"/>
  <g fill="#fff">
   <rect x="5.5022" y="4.5855" width="8.467" height=".529" ry=".265" opacity=".75" paint-order="stroke markers fill"/>
   <circle cx="11.322" cy="4.8495" r="1.058" paint-order="stroke markers fill"/>
   <rect x="5.5022" y="8.8185" width="8.467" height=".529" ry=".265" opacity=".75" paint-order="stroke markers fill"/>
  </g>
  <circle cx="7.8832" cy="9.0825" r="1.587" opacity=".1" paint-order="markers stroke fill"/>
  <circle cx="7.8832" cy="9.0825" r="1.058" fill="#fff" paint-order="markers stroke fill"/>
 </g>
 <g transform="translate(-12.435 2.0118)">
  <circle cx="25.135" cy="10.688" r="4.2333" fill="#323232" stroke-linecap="round" stroke-width=".60495"/>
  <circle cx="25.135" cy="10.688" r="1.8503" fill="none" opacity=".5" stroke="#fff" stroke-dashoffset=".42096" stroke-width=".35244"/>
  <path d="m25.115 6.9844c-0.17503 0.017764-0.17222 0.16594-0.22888 0.53108a3.1945 3.1857 30 0 0-0.35656 0.04784c-0.16414-0.37699-0.22012-0.50755-0.36689-0.455-0.16657 0.059631-0.12645 0.20341-0.09362 0.57616a3.1945 3.1857 30 0 0-0.32491 0.13354c-0.2357-0.28486-0.30858-0.4137-0.46808-0.33937-0.14107 0.065732-0.089645 0.198 0.058168 0.57994a3.1945 3.1857 30 0 0-0.2843 0.21717c-0.29848-0.21221-0.4027-0.31674-0.53693-0.2041-0.11811 0.099117-0.03557 0.21337 0.201 0.53693a3.1945 3.1857 30 0 0-0.21443 0.28016c-0.3461-0.11945-0.47569-0.19028-0.57272-0.044399-0.08427 0.12671 0.02524 0.21369 0.33385 0.45019a3.1945 3.1857 30 0 0-0.14146 0.34763c-0.3584-0.039803-0.50006-0.078963-0.56206 0.083636-0.05521 0.14481 0.07345 0.20396 0.44193 0.37343a3.1945 3.1857 30 0 0-0.04853 0.36931c-0.35301 0.04822-0.4988 0.04599-0.51902 0.21786-0.01819 0.15451 0.12119 0.17982 0.5235 0.25469a3.1945 3.1857 30 0 0 0.04612 0.33799c-0.33986 0.16389-0.48457 0.20225-0.45053 0.37653 0.02969 0.15202 0.17018 0.1342 0.57203 0.08329a3.1945 3.1857 30 0 0 0.13733 0.33352c-0.29189 0.24703-0.4235 0.31991-0.34659 0.48117 0.06734 0.14123 0.19908 0.08732 0.58442-0.06574l-0.03579-0.06367a3.1945 3.1857 30 0 0 0.24472 0.32629c-0.20634 0.30754-0.30948 0.4147-0.19275 0.54657 0.10106 0.11416 0.21333 0.03053 0.52246-0.20822a3.1945 3.1857 30 0 0 0.28911 0.22269c-0.14522 0.38822-0.19658 0.52098-0.05404 0.58546 0.16003 0.07239 0.23221-0.05715 0.46362-0.34349a3.1945 3.1857 30 0 0 0.3397 0.14077c-0.05297 0.39257-0.07046 0.53212 0.07985 0.56274 0.17262 0.03517 0.21356-0.1075 0.37688-0.4402a3.1945 3.1857 30 0 0 0.35486 0.04922c0.05838 0.3984 0.07934 0.53804 0.23335 0.52591 0.17486-0.01378 0.17562-0.16181 0.23989-0.52316a3.1945 3.1857 30 0 0 0.36827-0.04784c0.15027 0.35768 0.20694 0.48545 0.35072 0.43608 0.16376-0.05622 0.13061-0.1986 0.10291-0.55413a3.1945 3.1857 30 0 0 0.32421-0.13044c0.26008 0.30405 0.35216 0.41047 0.47566 0.31836 0.13792-0.10286 0.06473-0.228-0.06849-0.55344a3.1945 3.1857 30 0 0 0.29979-0.22717c0.32525 0.23029 0.44055 0.31101 0.53762 0.19171 0.10876-0.13368 0.0068-0.23739-0.20272-0.52144a3.1945 3.1857 30 0 0 0.22923-0.30185c0.3551 0.14732 0.48514 0.19761 0.55242 0.06195 0.07698-0.15524-0.04686-0.23291-0.31699-0.4667a3.1945 3.1857 30 0 0 0.13526-0.33179c0.39163 0.04233 0.53134 0.05537 0.55792-0.09534 0.03018-0.17115-0.11097-0.21039-0.43814-0.35967a3.1945 3.1857 30 0 0 0.0475-0.35967c0.39667-0.06172 0.53596-0.08413 0.52246-0.23783-0.01532-0.17456-0.16302-0.17418-0.52419-0.23508a3.1945 3.1857 30 0 0-0.04853-0.35692c0.36462-0.16783 0.49245-0.22757 0.43745-0.37172-0.0618-0.16195-0.20294-0.12374-0.55827-0.08398a3.1945 3.1857 30 0 0-0.14111-0.33901c0.32018-0.24766 0.43225-0.3344 0.3459-0.46293-0.09939-0.14794-0.22891-0.072222-0.58821 0.05266a3.1945 3.1857 30 0 0-0.21822-0.28257c0.23467-0.33771 0.31626-0.45372 0.19446-0.55104-0.1366-0.10915-0.2382-0.0028892-0.53004 0.21547a3.1945 3.1857 30 0 0-0.29084-0.21992c0.14758-0.37785 0.19915-0.50984 0.0592-0.57582h-3.44e-4c-0.15911-0.074524-0.23284 0.054174-0.46947 0.33833a3.1945 3.1857 30 0 0-0.33075-0.13423c0.053-0.40293 0.07156-0.54364-0.08054-0.57409-0.17488-0.035021-0.21335 0.11037-0.38067 0.45261a3.1945 3.1857 30 0 0-0.3514-0.046808c-0.06879-0.40563-0.09163-0.54579-0.24678-0.53004zm0.78542 1.121c0.11159-0.015285 0.28876 0.054276 0.47428 0.15729 0.3092 0.17167 0.64114 0.43631 0.72966 0.55585 0.42369 0.45359 0.73285 1.0163 0.75067 1.9205 0.0033 0.1684-0.01248 0.32099-0.05197 0.44572-0.04295 0.13033-0.12997 0.26052-0.26675 0.32388-0.1134 0.04769-0.23938 0.08159-0.35657 0.02754-0.3651-0.16752-0.82426-0.45694-1.1926-0.67494-0.06196-0.0367-0.10702-0.09627-0.11358-0.12632-0.06985-0.1326-0.05659-0.32604-0.15454-0.43918-0.1432-0.20345-0.26645-0.17312-0.29841-0.37241-0.01499-0.44311-0.01809-0.89124-0.0065-1.3279 6.62e-4 -0.30298 0.21848-0.48112 0.48634-0.49011zm-1.5705 0.015144c0.0928-0.00515 0.18976 0.010041 0.27499 0.055758 0.01624 0.0087 0.03187 0.018581 0.04715 0.0296 0.0972 0.075402 0.18852 0.16839 0.19894 0.29702 0.03321 0.40032 0.0064 0.94234-0.0028 1.3702-0.0015 0.072-0.03142 0.14062-0.05438 0.16108-0.08125 0.12593-0.25616 0.20916-0.30666 0.35003-0.10698 0.22461-0.01999 0.31697-0.17795 0.44261-0.37874 0.23053-0.76794 0.45321-1.154 0.65739-0.26432 0.14812-0.52636 0.04586-0.66564-0.18311-0.18156-0.23929-0.06655-1.1818 0.03063-1.3991 0.18729-0.59177 0.52567-1.1374 1.3048-1.5967 0.1451-0.085538 0.28599-0.14631 0.41405-0.17312 0.02945-0.0058 0.05993-0.00999 0.09086-0.011702zm0.80436 2.2295a0.33782 0.33782 0 0 1 0.33764 0.33764 0.33782 0.33782 0 0 1-0.33764 0.33799 0.33782 0.33782 0 0 1-0.33799-0.33799 0.33782 0.33782 0 0 1 0.33799-0.33764zm0.40957 0.9668c0.03371-0.0013 0.07111 0.0049 0.11805 0.0234 0.1945 0.10637 0.38857 0.21601 0.5803 0.328 0.19173 0.112 0.38088 0.22632 0.56583 0.34247 0.26044 0.15482 0.3028 0.43296 0.17416 0.66805-0.11644 0.27688-0.98996 0.64874-1.2267 0.67322-0.60613 0.13368-1.2478 0.11331-2.0352-0.33179-0.14663-0.08289-0.27001-0.17441-0.35725-0.27191-0.0903-0.10334-0.15796-0.24446-0.14284-0.39444 0.0167-0.12188 0.05179-0.24745 0.15798-0.32078 0.33008-0.22893 0.813-0.47654 1.1881-0.6825 0.06313-0.03466 0.13739-0.04304 0.16658-0.03339 0.14968 0.0074 0.30948 0.11686 0.45673 0.09018 0.186-0.01475 0.25302-0.0867 0.35417-0.09052z" fill="#fff" image-rendering="optimizeSpeed" stroke-width=".16939"/>
 </g>
</svg>
