<?xml version="1.0" encoding="UTF-8"?>
<svg width="64" height="64" version="1.1" viewBox="0 0 16.933 16.933" xmlns="http://www.w3.org/2000/svg" xmlns:cc="http://creativecommons.org/ns#" xmlns:dc="http://purl.org/dc/elements/1.1/" xmlns:rdf="http://www.w3.org/1999/02/22-rdf-syntax-ns#" xmlns:xlink="http://www.w3.org/1999/xlink">
 <defs>
  <filter id="filter1057" x="-.027" y="-.027" width="1.054" height="1.054" color-interpolation-filters="sRGB">
   <feGaussianBlur stdDeviation="0.61875"/>
  </filter>
  <linearGradient id="linearGradient1053" x1="-127" x2="-72" y1="60" y2="5" gradientTransform="matrix(.26458 0 0 .26458 34.792 -.13493)" gradientUnits="userSpaceOnUse">
   <stop stop-color="#32d7ff" offset="0"/>
   <stop stop-color="#329bff" offset="1"/>
  </linearGradient>
 </defs>
 <metadata>
  <rdf:RDF>
   <cc:Work rdf:about="">
    <dc:format>image/svg+xml</dc:format>
    <dc:type rdf:resource="http://purl.org/dc/dcmitype/StillImage"/>
   </cc:Work>
  </rdf:RDF>
 </metadata>
 <rect transform="scale(.26458)" x="4.5" y="4.5" width="55" height="55" ry="15" fill="#141414" filter="url(#filter1057)" opacity=".3" stroke-linecap="round" stroke-width="2.7444"/>
 <rect x="1.1906" y="1.1906" width="14.552" height="14.552" ry="3.9687" fill="url(#linearGradient1053)" stroke-linecap="round" stroke-width=".72611"/>
 <g fill="#5e4aa6">
  <circle cx="-275.43" cy="-338.47" r="0" stroke-width=".26458"/>
  <g stroke-width=".26458">
   <circle cx="-244.09" cy="-348.87" r="0"/>
   <circle cx="46.823" cy="-14.051" r="0" fill-rule="evenodd"/>
   <circle cx="-223.32" cy="-367.79" r="0"/>
   <circle cx="67.592" cy="-32.962" r="0" fill-rule="evenodd"/>
  </g>
 </g>
 <path transform="scale(.26458)" d="m18.273 17.438c-2.1747-0.005678-3.9299 1.7394-3.9355 3.9141l-0.056641 21.203c-0.005678 2.1747 1.7413 3.9299 3.916 3.9355l27.529 0.072266c2.1747 0.005678 3.9299-1.7394 3.9355-3.9141l0.056641-21.203c0.005678-2.1747-1.7413-3.9299-3.916-3.9355l-27.529-0.072266zm18.717 6.1582c1.8513-0.008573 3.3586 1.4866 3.3672 3.3379 0.008353 1.8513-1.4846 3.3584-3.3359 3.3672l-1.6758 0.007813 0.013672 3.3516 1.6777-0.007812v0.001953c1.8513-0.008119 3.3585 1.4846 3.3672 3.3359 0.008345 1.8513-1.4865 3.3581-3.3379 3.3672-1.8513 0.008572-3.3586-1.4846-3.3672-3.3359-9e-6 -0.002264 6e-6 -0.002225 0-0.003906l-0.007813-1.6738-3.3516 0.015625 0.007812 1.6777c0.008346 1.8513-1.4863 3.3581-3.3379 3.3672-1.8513 0.008568-3.3586-1.4866-3.3672-3.3379-0.008346-1.8513 1.4846-3.3584 3.3359-3.3672l1.6777-0.007813-0.015625-3.3516-1.6777 0.007812c-1.8513 0.008574-3.3586-1.4866-3.3672-3.3379-0.008346-1.8513 1.4865-3.3584 3.3379-3.3672 1.8513-0.008573 3.3586 1.4846 3.3672 3.3359l0.007813 1.6777 3.3516-0.015625-0.007812-1.6777c-0.008346-1.8513 1.4863-3.3584 3.3379-3.3672zm0.007813 1.6758c-0.92565 0.004265-1.6724 0.75793-1.668 1.6836l0.007813 1.6758 1.6758-0.005859c0.92565-0.004241 1.6725-0.75989 1.668-1.6855-0.004264-0.92566-0.75794-1.6724-1.6836-1.668zm-10.057 0.046875c-0.92565 0.004265-1.6743 0.75794-1.6699 1.6836 0.004265 0.92549 0.75989 1.6724 1.6855 1.668l1.6758-0.007813-0.007812-1.6758c-0.004264-0.92568-0.75794-1.6724-1.6836-1.668zm6.7266 4.998-3.3516 0.015625 0.015625 3.3516 3.3516-0.015625-0.015625-3.3516zm3.377 5.0137-1.6777 0.00586 0.007812 1.6777c0.004264 0.92568 0.75989 1.6725 1.6855 1.668 0.92569-0.004268 1.6725-0.75793 1.668-1.6836-0.00426-0.92568-0.75794-1.6724-1.6836-1.668zm-8.3809 0.039063-1.6777 0.005859c-0.92565 0.004263-1.6724 0.75794-1.668 1.6836 0.004263 0.92566 0.75794 1.6743 1.6836 1.6699 0.92565-0.004268 1.6743-0.75794 1.6699-1.6836l-0.007813-1.6758z" fill="#fff" stroke-width="2.2723"/>
</svg>
