<?xml version="1.0" encoding="UTF-8"?>
<svg width="64" height="64" version="1.1" viewBox="0 0 16.933 16.933" xmlns="http://www.w3.org/2000/svg" xmlns:cc="http://creativecommons.org/ns#" xmlns:dc="http://purl.org/dc/elements/1.1/" xmlns:rdf="http://www.w3.org/1999/02/22-rdf-syntax-ns#" xmlns:xlink="http://www.w3.org/1999/xlink">
 <metadata>
  <rdf:RDF>
   <cc:Work rdf:about="">
    <dc:format>image/svg+xml</dc:format>
    <dc:type rdf:resource="http://purl.org/dc/dcmitype/StillImage"/>
   </cc:Work>
  </rdf:RDF>
 </metadata>
 <defs>
  <filter id="filter1057" x="-.027" y="-.027" width="1.054" height="1.054" color-interpolation-filters="sRGB">
   <feGaussianBlur stdDeviation="0.61875"/>
  </filter>
  <linearGradient id="linearGradient1053" x1="-127" x2="-72" y1="60" y2="5" gradientTransform="matrix(.26458 0 0 .26458 34.792 -.13499)" gradientUnits="userSpaceOnUse">
   <stop stop-color="#dee0e2" offset="0"/>
   <stop stop-color="#f1f3f5" stop-opacity=".99608" offset="1"/>
  </linearGradient>
  <linearGradient id="linearGradient1023" x1="413.17" x2="412.86" y1="539.23" y2="530.62" gradientUnits="userSpaceOnUse">
   <stop stop-color="#ffa906" offset="0"/>
   <stop stop-color="#f4ef71" offset="1"/>
  </linearGradient>
  <linearGradient id="linearGradient1025" x1="410.7" x2="411.23" y1="562.85" y2="524.57" gradientTransform="translate(.90035 -.29982)" gradientUnits="userSpaceOnUse">
   <stop stop-color="#11aa54" offset="0"/>
   <stop stop-color="#72f28e" offset="1"/>
  </linearGradient>
  <linearGradient id="linearGradient1027" x1="429.01" x2="429.46" y1="563.95" y2="551.52" gradientTransform="matrix(1.0026,0,0,1.0026,-1.085,-2.1869)" gradientUnits="userSpaceOnUse">
   <stop stop-color="#276ad6" offset="0"/>
   <stop stop-color="#41aaff" offset="1"/>
  </linearGradient>
 </defs>
 <rect transform="matrix(.26458 0 0 .26458 -6e-5 -6.0163e-5)" x="4.5" y="4.5" width="55" height="55" ry="15" fill="#141414" filter="url(#filter1057)" opacity=".3" stroke-linecap="round" stroke-width="2.7444"/>
 <rect x="1.1905" y="1.1905" width="14.552" height="14.552" ry="3.9687" fill="url(#linearGradient1053)" stroke-linecap="round" stroke-width=".7261"/>
 <g transform="matrix(.21643 0 0 .21643 -83.905 -109.25)">
  <g transform="matrix(3.6286,0,0,3.6286,-1039.3,-1411.2)">
   <g transform="translate(-11.317,5.8825)" stroke="#000" stroke-opacity=".8">
    <g transform="translate(1.8733 -.28411)">
     <g transform="translate(-2.0519 -.97859)">
      <g transform="translate(.22097 .44194)">
       <g transform="matrix(.78637 0 0 .78395 93.526 112.35)">
        <path d="m406.29 530.5h5.7527l5.2432 9.2554h-5.7284z" fill="url(#linearGradient1023)" stroke="none"/>
       </g>
      </g>
     </g>
    </g>
   </g>
  </g>
  <path d="m411.79 563.89 14.919-25.794s-4.289-7.6038-6.5065-11.385c-0.29316-0.49979-0.70687-1.314-1.0851-1.8998-0.31718-0.49126-0.52034-0.88208-0.52034-0.88208s-0.0462-0.041-0.0699 0c-4.9656 8.6878-14.897 26.187-14.897 26.187l8.1606 13.774z" fill="url(#linearGradient1025)"/>
  <path d="m411.71 563.86h29.687l8.5646-13.663-30.323-0.0314-7.9288 13.695z" fill="url(#linearGradient1027)"/>
 </g>
</svg>
