<?xml version="1.0" encoding="UTF-8"?>
<svg width="64" height="64" version="1.1" viewBox="0 0 64 64" xmlns="http://www.w3.org/2000/svg">
 <defs>
  <filter id="filter2076-3-5" x="-.048" y="-.048" width="1.096" height="1.096" color-interpolation-filters="sRGB">
   <feGaussianBlur stdDeviation="1.1"/>
  </filter>
  <linearGradient id="linearGradient2070-2" x1="145" x2="200" y1="59" y2="4" gradientTransform="translate(-103.33 6.5139)" gradientUnits="userSpaceOnUse">
   <stop stop-color="#ffc841" offset="0"/>
   <stop stop-color="#ffbe37" offset=".4925"/>
   <stop stop-color="#ffc841" offset="1"/>
  </linearGradient>
 </defs>
 <g transform="translate(1,1)">
  <g opacity=".1">
   <!-- color: #474747 --></g>
 </g>
 <g transform="translate(-37.173 -6.015)">
  <rect x="41.673" y="10.515" width="55" height="55" rx="13.002" ry="13.002" filter="url(#filter2076-3-5)" opacity=".3"/>
  <rect x="41.673" y="10.517" width="55.001" height="55.001" rx="13.002" ry="13.002" fill="url(#linearGradient2070-2)"/>
 </g>
 <path d="m32.696 17.237c-8.1345 0-14.771 6.621-14.771 14.756 0 8.1345 6.6363 14.771 14.771 14.771 8.1345 0 14.74-6.6363 14.74-14.771 0-8.1345-6.6057-14.756-14.74-14.756zm-15.505 2.3089a1.2234 1.2234 0 0 0-0.9786 0.59634c-2.325 3.7754-3.9772 7.2267-4.1897 11.086-0.2125 3.8591 1.0574 7.9871 4.2049 13.028a1.2234 1.2234 0 1 0 2.0642-1.2997c-2.988-4.7852-4.001-8.3511-3.8227-11.59 0.17836-3.2392 1.5909-6.2902 3.838-9.939a1.2234 1.2234 0 0 0-1.1162-1.8808zm29.45 0a1.2234 1.2234 0 0 0-0.94802 1.8808c2.247 3.6487 3.6596 6.6997 3.838 9.939 0.17837 3.2392-0.84995 6.8052-3.838 11.59a1.2261 1.2261 0 1 0 2.0795 1.2997c3.1475-5.0406 4.4174-9.1686 4.2049-13.028-0.2125-3.8591-1.8799-7.3104-4.2049-11.086a1.2234 1.2234 0 0 0-1.1315-0.59634zm-13.945 0.47401c6.6272 0 11.957 5.3454 11.957 11.973 0 6.6272-5.3301 11.973-11.957 11.973-6.6272 0-11.973-5.3454-11.973-11.973 0-6.6272 5.3454-11.973 11.973-11.973zm-0.01536 3.0428c-0.59762 1.7e-5 -1.0614 0.2434-1.3915 0.73395-0.32112 0.49059-0.48931 1.2628-0.48931 2.3242 0 0.24976 0.01277 0.48677 0.03058 0.71866 0.01776 0.23192 0.04076 0.47785 0.07646 0.71866 0.03567 0.24084 0.07134 0.48167 0.10704 0.74924 0.03567 0.2676 0.07773 0.5594 0.12233 0.87157l0.87157 6.2845h1.2997l0.87157-6.2539c0.03567-0.30325 0.07135-0.58868 0.10704-0.85628 0.04458-0.26758 0.08026-0.52369 0.10704-0.76454 0.02672-0.24974 0.0433-0.48674 0.06116-0.71866 0.01776-0.2319 0.03058-0.4689 0.03058-0.71867-9e-6 -0.57976-0.04203-1.0754-0.12234-1.4679-0.07137-0.40136-0.19115-0.72247-0.3517-0.96331-0.15164-0.24081-0.34277-0.40646-0.56575-0.5046-0.223-0.10702-0.4702-0.15288-0.76454-0.1529zm0.01536 13.7c-0.29436 3e-6 -0.56704 0.04588-0.8257 0.1529-0.25868 0.10704-0.48549 0.25612-0.6728 0.44343-0.18732 0.18731-0.32748 0.41413-0.44342 0.67279-0.10704 0.24975-0.1682 0.50969-0.1682 0.79512-5e-6 0.29435 0.06116 0.56703 0.1682 0.8257 0.11595 0.25867 0.25611 0.48548 0.44342 0.67279 0.18731 0.18731 0.41412 0.34277 0.6728 0.45872 0.25866 0.10704 0.53134 0.1529 0.8257 0.1529 0.28542 0 0.56065-0.04586 0.81041-0.1529 0.25866-0.11595 0.48547-0.27141 0.67279-0.45872 0.1873-0.18731 0.33639-0.41412 0.44343-0.67279 0.10702-0.25867 0.1529-0.53135 0.1529-0.8257-1e-5 -0.28542-0.0459-0.54537-0.1529-0.79512-0.10704-0.25866-0.25613-0.48548-0.44343-0.67279-0.18732-0.18731-0.41413-0.33639-0.67279-0.44343-0.24976-0.10704-0.52499-0.1529-0.81041-0.1529z" fill="#fff" stroke-width=".4893"/>
</svg>
