<?xml version="1.0" encoding="UTF-8"?>
<!-- Created with Inkscape (http://www.inkscape.org/) -->
<svg width="64" height="64" version="1.1" viewBox="0 0 16.933 16.933" xmlns="http://www.w3.org/2000/svg" xmlns:xlink="http://www.w3.org/1999/xlink">
 <defs>
  <filter id="filter2076" x="-.048" y="-.048" width="1.096" height="1.096" color-interpolation-filters="sRGB">
   <feGaussianBlur stdDeviation="1.1"/>
  </filter>
  <linearGradient id="linearGradient1502" x1="4.5" x2="59.5" y1="59.5" y2="4.5" gradientTransform="matrix(.26458 0 0 .26458 10.85 6.5804)" gradientUnits="userSpaceOnUse">
   <stop stop-color="#055096" offset="0"/>
   <stop stop-color="#0587eb" offset="1"/>
  </linearGradient>
 </defs>
 <g transform="translate(-10.85 -6.5804)">
  <rect transform="matrix(.26458 0 0 .26458 10.85 6.5804)" x="4.5" y="4.5" width="55" height="55" rx="13.002" ry="13.002" filter="url(#filter2076)" opacity=".3"/>
  <path d="m15.481 7.7711c-1.9058 0-3.44 1.5342-3.44 3.44v7.6717c0 1.9058 1.5342 3.44 3.44 3.44h7.6717c1.9058 0 3.44-1.5342 3.44-3.44v-7.6717c0-1.9058-1.5342-3.44-3.44-3.44z" fill="url(#linearGradient1502)" stroke-linecap="round" stroke-linejoin="round" stroke-width=".53299" style="paint-order:stroke fill markers"/>
  <path d="m19.173 10.554c-0.38578 0-0.75146 0.0443-1.0971 0.13267-0.33757 0.0883-0.64301 0.20499-0.91628 0.34963l0.31344 0.86819c0.50634-0.27326 1.0249-0.40989 1.5553-0.40989 0.41794 0 0.73548 0.10829 0.95248 0.32534 0.217 0.20897 0.32534 0.48225 0.32534 0.81982 0 0.20896-0.04813 0.40196-0.14457 0.57879-0.08841 0.17676-0.20499 0.34561-0.34964 0.50637-0.14467 0.1607-0.29727 0.32131-0.45801 0.48208-0.16074 0.15277-0.3136 0.32151-0.45827 0.50637-0.14467 0.17675-0.2651 0.3698-0.36155 0.57879-0.08842 0.20897-0.13266 0.44185-0.13266 0.69903 0 0.17675 0.01605 0.34565 0.04811 0.50639h0.94033c-0.0081-0.0403-0.01199-0.0841-0.01199-0.13246v-0.13266c0-0.26522 0.05223-0.50249 0.15672-0.71144 0.10448-0.217 0.23315-0.41387 0.38586-0.59069 0.15269-0.18487 0.32126-0.36163 0.50612-0.53042 0.18485-0.16883 0.35366-0.34559 0.50638-0.53043 0.15272-0.18487 0.28138-0.38171 0.38586-0.59066 0.10448-0.21704 0.15672-0.46224 0.15672-0.73551 0-0.217-0.03602-0.44192-0.10836-0.675-0.0643-0.24111-0.18497-0.4583-0.36181-0.65119-0.17681-0.193-0.41382-0.3496-0.71121-0.47016-0.28934-0.12861-0.66324-0.19301-1.1214-0.19301zm-0.193 7.0891c-0.24916 0-0.44602 0.0802-0.59069 0.24102-0.14467 0.16071-0.21698 0.34961-0.21698 0.56665 0 0.21702 0.0723 0.40586 0.21698 0.56663 0.14467 0.1607 0.34153 0.2413 0.59069 0.2413s0.44626-0.0806 0.59094-0.2413c0.14467-0.1607 0.21698-0.34961 0.21698-0.56663s-0.0723-0.40589-0.21698-0.56665c-0.14467-0.1607-0.34178-0.24102-0.59094-0.24102z" enable-background="new" fill="#fff" stroke-width="2.0316"/>
 </g>
</svg>
