<?xml version="1.0" encoding="UTF-8" standalone="no"?>
<svg
   xmlns:dc="http://purl.org/dc/elements/1.1/"
   xmlns:cc="http://creativecommons.org/ns#"
   xmlns:rdf="http://www.w3.org/1999/02/22-rdf-syntax-ns#"
   xmlns:svg="http://www.w3.org/2000/svg"
   xmlns="http://www.w3.org/2000/svg"
   xmlns:xlink="http://www.w3.org/1999/xlink"
   xmlns:sodipodi="http://sodipodi.sourceforge.net/DTD/sodipodi-0.dtd"
   xmlns:inkscape="http://www.inkscape.org/namespaces/inkscape"
   width="64"
   height="64"
   version="1.1"
   id="svg42"
   sodipodi:docname="hitori.svg"
   inkscape:version="1.0.2 (e86c870879, 2021-01-15)">
  <metadata
     id="metadata46">
    <rdf:RDF>
      <cc:Work
         rdf:about="">
        <dc:format>image/svg+xml</dc:format>
        <dc:type
           rdf:resource="http://purl.org/dc/dcmitype/StillImage" />
        <dc:title></dc:title>
      </cc:Work>
    </rdf:RDF>
  </metadata>
  <sodipodi:namedview
     pagecolor="#ffffff"
     bordercolor="#666666"
     borderopacity="1"
     objecttolerance="10"
     gridtolerance="10"
     guidetolerance="10"
     inkscape:pageopacity="0"
     inkscape:pageshadow="2"
     inkscape:window-width="1920"
     inkscape:window-height="942"
     id="namedview44"
     showgrid="false"
     inkscape:zoom="4.2813106"
     inkscape:cx="-6.6604724"
     inkscape:cy="33.525269"
     inkscape:window-x="0"
     inkscape:window-y="38"
     inkscape:window-maximized="1"
     inkscape:current-layer="svg42" />
  <defs
     id="defs10">
    <filter
       id="a"
       x="-.060003"
       y="-.059997"
       width="1.12"
       height="1.12"
       color-interpolation-filters="sRGB">
      <feGaussianBlur
         stdDeviation="0.89995962"
         id="feGaussianBlur2" />
    </filter>
    <linearGradient
       id="linearGradient862-3"
       x1="7.9373"
       x2="7.9373"
       y1="15.081"
       y2="1.852"
       gradientTransform="matrix(3.7795,0,0,3.7795,-5.7830351,-16.382332)"
       gradientUnits="userSpaceOnUse">
      <stop
         stop-color="#1a1a1a"
         offset="0"
         id="stop5" />
      <stop
         stop-color="#4d4d4d"
         offset="1"
         id="stop7" />
    </linearGradient>
    <linearGradient
       id="b"
       x1="45.628"
       x2="45.628"
       y1="57.955"
       y2="12.461"
       gradientUnits="userSpaceOnUse">
      <stop
         offset="0"
         id="stop2" />
      <stop
         stop-opacity="0"
         offset="1"
         id="stop4" />
    </linearGradient>
    <linearGradient
       gradientUnits="userSpaceOnUse"
       gradientTransform="matrix(2.1429,0,0,2.1429,-953.91049,-1107.544)"
       y2="517.8"
       y1="545.8"
       x2="399.57"
       x1="399.57"
       id="b-3">
      <stop
         id="stop850"
         offset="0"
         stop-color="#3889e9" />
      <stop
         id="stop852"
         offset="1"
         stop-color="#5ea5fb" />
    </linearGradient>
    <linearGradient
       gradientUnits="userSpaceOnUse"
       gradientTransform="matrix(0.26457812,0,0,0.26457812,-31.030853,-6.0244504)"
       y2="1.6692"
       y1="61.873"
       x2="32.431"
       x1="32.431"
       id="linearGradient1001">
      <stop
         id="stop855"
         offset="0"
         stop-color="#1d2123" />
      <stop
         id="stop857"
         offset="1"
         stop-color="#33393e" />
    </linearGradient>
    <linearGradient
       id="linearGradient1057">
      <stop
         id="stop4-3"
         offset="0"
         stop-color="#fff" />
      <stop
         id="stop6"
         offset="1"
         stop-opacity="0"
         stop-color="#fff" />
    </linearGradient>
    <linearGradient
       gradientUnits="userSpaceOnUse"
       gradientTransform="matrix(1.5625,0,0,1.5625,0.40633,-5.1891)"
       y2="52.847"
       y1="27.545"
       x2="34.999"
       x1="34.999"
       id="linearGradient982">
      <stop
         id="stop9"
         offset="0"
         stop-color="#32b4ff" />
      <stop
         id="stop11"
         offset="1"
         stop-color="#3287ff" />
    </linearGradient>
    <style
       id="style14"
       type="text/css" />
    <style
       id="style16"
       type="text/css" />
    <linearGradient
       gradientUnits="userSpaceOnUse"
       gradientTransform="matrix(1.5625,0,0,1.5625,-9.2253,1.3231)"
       y2="43.681"
       y1="18.052"
       x2="21.314"
       x1="21.314"
       id="linearGradient1047">
      <stop
         id="stop18"
         offset="0"
         stop-color="#14dc78" />
      <stop
         id="stop20"
         offset="1"
         stop-color="#14a03c" />
    </linearGradient>
    <linearGradient
       gradientUnits="userSpaceOnUse"
       gradientTransform="matrix(1.5625,0,0,1.5625,-8.1072,-10.908)"
       y2="37.368"
       y1="12.316"
       x2="41.729"
       x1="41.729"
       id="linearGradient1049">
      <stop
         id="stop23"
         offset="0"
         stop-color="#ff3c64" />
      <stop
         id="stop25"
         offset="1"
         stop-color="#ff4628" />
    </linearGradient>
    <linearGradient
       xlink:href="#linearGradient1057"
       gradientUnits="userSpaceOnUse"
       gradientTransform="matrix(1,0,0,1.2271,0.20646,-10.975)"
       y2="39.768"
       y1="32.234"
       x2="34.427"
       x1="34.427"
       id="linearGradient1059" />
    <linearGradient
       xlink:href="#linearGradient1057"
       gradientUnits="userSpaceOnUse"
       gradientTransform="matrix(1,0,0,1.2271,-12.55,-19.793)"
       y2="39.768"
       y1="32.234"
       x2="34.427"
       x1="34.427"
       id="linearGradient1063" />
    <linearGradient
       xlink:href="#linearGradient1057"
       gradientUnits="userSpaceOnUse"
       gradientTransform="matrix(1,0,0,1.2271,5.7554,-25.761)"
       y2="39.768"
       y1="32.234"
       x2="34.427"
       x1="34.427"
       id="linearGradient1067" />
    <filter
       color-interpolation-filters="sRGB"
       height="1.048"
       width="1.048"
       y="-.024"
       x="-.024"
       id="filter2761">
      <feGaussianBlur
         id="feGaussianBlur31"
         stdDeviation="0.14552168" />
    </filter>
    <linearGradient
       gradientUnits="userSpaceOnUse"
       gradientTransform="matrix(3.7796,0,0,3.7796,72.4059,0.53085)"
       y2="1.17"
       y1="15.576"
       x2="15.65"
       x1="1.3315"
       id="linearGradient1024">
      <stop
         id="stop34"
         offset="0"
         stop-color="#dddfe1" />
      <stop
         id="stop36"
         offset="1"
         stop-opacity=".99608"
         stop-color="#f3f4f6" />
    </linearGradient>
    <filter
       color-interpolation-filters="sRGB"
       height="1.048"
       width="1.048"
       y="-.024"
       x="-.024"
       id="filter2761-3">
      <feGaussianBlur
         id="feGaussianBlur2-3"
         stdDeviation="0.14552168" />
    </filter>
    <linearGradient
       gradientUnits="userSpaceOnUse"
       gradientTransform="translate(0 -.07421)"
       y2="1.17"
       y1="15.576"
       x2="15.65"
       x1="1.3315"
       id="linearGradient1024-6">
      <stop
         id="stop5-6"
         offset="0"
         stop-color="#dddfe1" />
      <stop
         id="stop7-7"
         offset="1"
         stop-opacity=".99608"
         stop-color="#f3f4f6" />
    </linearGradient>
    <filter
       inkscape:collect="always"
       style="color-interpolation-filters:sRGB"
       id="filter1057"
       x="-0.027000001"
       width="1.054"
       y="-0.027000001"
       height="1.054">
      <feGaussianBlur
         inkscape:collect="always"
         stdDeviation="0.61875"
         id="feGaussianBlur1059" />
    </filter>
    <linearGradient
       inkscape:collect="always"
       xlink:href="#linearGradient1051"
       id="linearGradient1053"
       x1="-127"
       y1="60"
       x2="-72"
       y2="5"
       gradientUnits="userSpaceOnUse"
       gradientTransform="translate(131.5,-0.50999944)" />
    <linearGradient
       inkscape:collect="always"
       id="linearGradient1051">
      <stop
         style="stop-color:#1d2123;stop-opacity:1"
         offset="0"
         id="stop1047" />
      <stop
         style="stop-color:#33393e;stop-opacity:0.99607843"
         offset="1"
         id="stop1049" />
    </linearGradient>
  </defs>
  <rect
     ry="15"
     y="4.4999995"
     x="4.4999995"
     height="55"
     width="55"
     id="rect1055"
     style="opacity:0.3;fill:#141414;fill-opacity:1;stroke-width:2.74436;stroke-linecap:round;filter:url(#filter1057)" />
  <rect
     style="fill:url(#linearGradient1053);fill-opacity:1;stroke-width:2.74436;stroke-linecap:round"
     id="rect1045"
     width="54.999996"
     height="54.999996"
     x="4.5000019"
     y="4.5000019"
     ry="14.999999" />
  <g
     stroke-width="1.5"
     id="g40">
    <path
       d="m15.755 14c-0.97116 0-1.754 0.78166-1.754 1.7521v7.2474h7.4985v-8.9974h1.5001v8.9974h7.4985v-8.9974h1.498v8.9974h7.5049v-8.9974h1.498v8.9974h8.9987v-7.2474c0-0.97041-0.78076-1.7521-1.7519-1.7521zm-1.754 10.5v7.4971h7.4985v-7.4971zm8.9987 0v7.4971h7.4985v-7.4971zm8.9965 0v7.4971h7.5049v-7.4971zm9.0029 0v7.4971h8.9987v-7.4971zm-26.998 8.9974v7.5056h7.4985v-7.5056zm8.9987 0v7.5056h7.4985v-7.5056zm8.9965 0v7.5056h7.5049v-7.5056zm9.0029 0v7.5056h8.9987v-7.5056zm-26.998 9.0037v5.7471c0 0.97041 0.78287 1.7521 1.754 1.7521h5.7445v-7.4992zm8.9987 0v7.4992h7.4985v-7.4992zm8.9965 0v7.4992h7.5049v-7.4992zm9.0029 0v7.4992h7.2467c0.97116 0 1.7519-0.78166 1.7519-1.7521v-5.7471z"
       filter="url(#a)"
       opacity=".35"
       id="path26" />
    <path
       d="m15.755 14c-0.97116 0-1.754 0.78166-1.754 1.7521v7.2474h7.4985v-8.9974h1.5001v8.9974h7.4985v-8.9974h1.498v8.9974h7.5049v-8.9974h1.498v8.9974h8.9987v-7.2474c0-0.97041-0.78076-1.7521-1.7519-1.7521zm-1.754 10.5v7.4971h7.4985v-7.4971zm8.9987 0v7.4971h7.4985v-7.4971zm8.9965 0v7.4971h7.5049v-7.4971zm9.0029 0v7.4971h8.9987v-7.4971zm-26.998 8.9974v7.5056h7.4985v-7.5056zm8.9987 0v7.5056h7.4985v-7.5056zm8.9965 0v7.5056h7.5049v-7.5056zm9.0029 0v7.5056h8.9987v-7.5056zm-26.998 9.0037v5.7471c0 0.97041 0.78287 1.7521 1.754 1.7521h5.7445v-7.4992zm8.9987 0v7.4992h7.4985v-7.4992zm8.9965 0v7.4992h7.5049v-7.4992zm9.0029 0v7.4992h7.2467c0.97116 0 1.7519-0.78166 1.7519-1.7521v-5.7471z"
       fill="#eee"
       id="path28" />
    <path
       d="m15.733 14.002c-0.96108 0.011506-1.7328 0.78677-1.7328 1.7499v7.2494h7.4942v-8.9993z"
       fill="#d7d7d7"
       id="path30" />
    <rect
       x="31.996"
       y="24.502"
       width="7.4992"
       height="7.4998"
       fill="#d71e1e"
       id="rect32" />
    <rect
       x="31.996"
       y="14.001"
       width="7.4992"
       height="9.0005"
       fill="#fa884c"
       id="rect34" />
    <rect
       x="41"
       y="33.503"
       width="8.9997"
       height="7.4998"
       fill="#7fde59"
       id="rect36" />
    <rect
       x="22.996"
       y="33.503"
       width="7.4992"
       height="7.4998"
       fill="#b9b9b9"
       id="rect38" />
  </g>
  <g
     transform="matrix(3.779602,0,0,3.779602,-127.54049,0.45588476)"
     fill="#5e4aa6"
     stroke-width="0.26458"
     id="g884">
    <circle
       cx="-330.35001"
       cy="-328.37"
       r="0"
       image-rendering="optimizeSpeed"
       id="circle862" />
    <circle
       cx="-330.35001"
       cy="-328.38"
       r="0"
       image-rendering="optimizeSpeed"
       id="circle864" />
    <circle
       cx="-330.35001"
       cy="-328.38"
       r="0"
       image-rendering="optimizeSpeed"
       id="circle866" />
    <circle
       cx="-352.63"
       cy="-336.84"
       r="0"
       image-rendering="optimizeSpeed"
       id="circle868" />
    <circle
       cx="-330.35001"
       cy="-328.37"
       r="0"
       image-rendering="optimizeSpeed"
       id="circle870" />
    <circle
       cx="-305.84"
       cy="-328.26999"
       r="0"
       image-rendering="optimizeSpeed"
       id="circle872" />
    <circle
       cx="-305.84"
       cy="-328.28"
       r="0"
       image-rendering="optimizeSpeed"
       id="circle874" />
    <circle
       cx="-305.84"
       cy="-328.28"
       r="0"
       image-rendering="optimizeSpeed"
       id="circle876" />
    <circle
       cx="-328.12"
       cy="-336.73999"
       r="0"
       image-rendering="optimizeSpeed"
       id="circle878" />
    <circle
       cx="-305.84"
       cy="-328.26999"
       r="0"
       image-rendering="optimizeSpeed"
       id="circle880" />
    <circle
       cx="-305.03"
       cy="-328.69"
       r="0"
       id="circle882" />
  </g>
  <circle
     cx="-95.531494"
     cy="32"
     r="0"
     fill="url(#b)"
     stroke-width="1.5715"
     id="circle892"
     style="fill:url(#b-3)" />
  <circle
     style="stroke-width:1"
     cx="-1450.1027"
     cy="-1241.1442"
     r="0"
     fill="#5e4aa6"
     id="circle41" />
  <circle
     style="stroke-width:1"
     cx="-350.55261"
     cy="24.310843"
     r="0"
     fill="#5e4aa6"
     fill-rule="evenodd"
     id="circle43" />
</svg>
