<?xml version="1.0" encoding="UTF-8"?>
<svg width="64" height="64" version="1.1" xmlns="http://www.w3.org/2000/svg" xmlns:cc="http://creativecommons.org/ns#" xmlns:dc="http://purl.org/dc/elements/1.1/" xmlns:rdf="http://www.w3.org/1999/02/22-rdf-syntax-ns#" xmlns:xlink="http://www.w3.org/1999/xlink">
 <metadata>
  <rdf:RDF>
   <cc:Work rdf:about="">
    <dc:format>image/svg+xml</dc:format>
    <dc:type rdf:resource="http://purl.org/dc/dcmitype/StillImage"/>
    <dc:title/>
   </cc:Work>
  </rdf:RDF>
 </metadata>
 <defs>
  <linearGradient id="b" x1="399.57" x2="399.57" y1="545.8" y2="517.8" gradientTransform="matrix(2.1429,0,0,2.1429,-826.36,-1107.5)" gradientUnits="userSpaceOnUse">
   <stop stop-color="#3889e9" offset="0"/>
   <stop stop-color="#5ea5fb" offset="1"/>
  </linearGradient>
  <filter id="filter880" x="-.1288" y="-.092984" width="1.2576" height="1.186" color-interpolation-filters="sRGB">
   <feGaussianBlur stdDeviation="2.1697093"/>
  </filter>
  <style type="text/css"/>
  <style type="text/css"/>
  <style type="text/css"/>
  <filter id="filter1057" x="-.027" y="-.027" width="1.054" height="1.054" color-interpolation-filters="sRGB">
   <feGaussianBlur stdDeviation="0.61875"/>
  </filter>
  <linearGradient id="linearGradient1053" x1="-127" x2="-72" y1="60" y2="5" gradientTransform="translate(131.5 -.51)" gradientUnits="userSpaceOnUse">
   <stop stop-color="#055096" offset="0"/>
   <stop stop-color="#0587f5" offset="1"/>
  </linearGradient>
  <style type="text/css"/>
  <style type="text/css"/>
  <style type="text/css"/>
 </defs>
 <rect transform="matrix(1 0 0 .93417 0 2.1065)" x="4.5" y="4.5" width="55" height="55" ry="15" fill="#141414" filter="url(#filter1057)" opacity=".3" stroke-linecap="round" stroke-width="2.7444"/>
 <rect x="4.5" y="4.5" width="55" height="55" ry="15" fill="url(#linearGradient1053)" stroke-linecap="round" stroke-width="2.7444"/>
 <circle cx="32.02" cy="32.044" r="30.001" fill-opacity="0" stroke-width="1.5715"/>
 <circle cx="32.02" cy="32.044" r="0" fill="url(#b)" stroke-width="1.5715"/>
 <path transform="matrix(1 0 0 .87183 0 4.0977)" d="m26.477 3.9688-13.568 39.436h5.3984l6.8945-20.213h3.7383l-6.7969 20.213h5.4277l6.4219-18.822c0.93487-2.7061-0.53693-5.1816-3.2695-5.1816h-4.2051l5.3984-15.432zm23.305 15.424-9.9785 0.0078-13.934 40.57h5.4766l5.7227-16.572h7.168c1.276 0 2.6677-1.0263 3.1035-2.2871l5.7168-16.537c0.93487-2.7061-0.53899-5.1816-3.2754-5.1816zm-5.9023 3.7891h4.0703l-5.6465 16.424h-4.0684z" filter="url(#filter880)" opacity=".15" stroke-width="1.2634"/>
 <path d="m25.17 4.5-13.385 38.904h5.3984l6.8945-20.213h3.7383l-6.7969 20.213h5.4277l6.4219-18.822c0.93487-2.7061-0.53696-5.1816-3.2695-5.1816h-4.2051l5.2129-14.9h-5.4375zm23.488 14.893-9.9785 0.007813-13.771 40.1h5.4766l5.5605-16.102h7.168c1.276 0 2.6677-1.0263 3.1035-2.2871l5.7168-16.537c0.93487-2.7061-0.53898-5.1816-3.2754-5.1816zm-5.9023 3.7891h4.0703l-5.6465 16.424h-4.0684l5.6445-16.424z" fill="#f8f8f8"/>
 <g transform="translate(-70.271 -6.0006)" fill="#5e4aa6">
  <circle cx="-1248.7" cy="-1241.6" r="0"/>
  <circle cx="-149.15" cy="23.855" r="0" fill-rule="evenodd"/>
  <circle cx="-1248.7" cy="-1241.6" r="0"/>
  <circle cx="-149.15" cy="23.855" r="0" fill-rule="evenodd"/>
  <circle cx="-1150.9" cy="-1256.6" r="0"/>
  <circle cx="-51.327" cy="8.8744" r="0" fill-rule="evenodd"/>
  <g transform="matrix(3.7796,0,0,3.7796,167.86,4.61)" stroke-width=".26458">
   <g transform="translate(-.0272 .0065001)">
    <circle cx="-330.35" cy="-328.38" r="0"/>
    <circle cx="-312.11" cy="-326.25" r="0"/>
    <circle cx="-306.02" cy="-333.07" r="0"/>
    <circle cx="-308.84" cy="-326.01" r="0"/>
    <circle cx="-330.35" cy="-328.38" r="0"/>
    <circle cx="-312.11" cy="-326.25" r="0"/>
    <circle cx="-306.02" cy="-333.07" r="0"/>
    <circle cx="-308.84" cy="-326.01" r="0"/>
   </g>
   <g transform="translate(-.02705 .0064503)">
    <circle cx="-330.35" cy="-328.38" r="0"/>
    <circle cx="-312.11" cy="-326.25" r="0"/>
    <circle cx="-306.02" cy="-333.07" r="0"/>
    <circle cx="-308.84" cy="-326.01" r="0"/>
   </g>
  </g>
 </g>
</svg>
