<?xml version="1.0" encoding="UTF-8" standalone="no"?>
<svg
   xmlns:dc="http://purl.org/dc/elements/1.1/"
   xmlns:cc="http://creativecommons.org/ns#"
   xmlns:rdf="http://www.w3.org/1999/02/22-rdf-syntax-ns#"
   xmlns:svg="http://www.w3.org/2000/svg"
   xmlns="http://www.w3.org/2000/svg"
   xmlns:xlink="http://www.w3.org/1999/xlink"
   xmlns:sodipodi="http://sodipodi.sourceforge.net/DTD/sodipodi-0.dtd"
   xmlns:inkscape="http://www.inkscape.org/namespaces/inkscape"
   id="Calculator"
   width="64"
   height="64"
   enable-background="new 0 0 1024 1024"
   image-rendering="optimizeSpeed"
   version="1.1"
   viewBox="0 0 64 64"
   sodipodi:docname="htop.svg"
   inkscape:version="1.0.2 (e86c870879, 2021-01-15)">
  <metadata
     id="metadata114">
    <rdf:RDF>
      <cc:Work
         rdf:about="">
        <dc:format>image/svg+xml</dc:format>
        <dc:type
           rdf:resource="http://purl.org/dc/dcmitype/StillImage" />
        <dc:title></dc:title>
      </cc:Work>
    </rdf:RDF>
  </metadata>
  <sodipodi:namedview
     pagecolor="#ffffff"
     bordercolor="#666666"
     borderopacity="1"
     objecttolerance="10"
     gridtolerance="10"
     guidetolerance="10"
     inkscape:pageopacity="0"
     inkscape:pageshadow="2"
     inkscape:window-width="1920"
     inkscape:window-height="942"
     id="namedview112"
     showgrid="false"
     inkscape:zoom="4.2813106"
     inkscape:cx="-52.278786"
     inkscape:cy="44.772361"
     inkscape:window-x="0"
     inkscape:window-y="38"
     inkscape:window-maximized="1"
     inkscape:current-layer="Calculator" />
  <defs
     id="defs7">
    <linearGradient
       id="linearGradient862"
       x1="7.9373"
       x2="7.9373"
       y1="15.081"
       y2="1.852"
       gradientTransform="matrix(3.7796,0,0,3.7796,90.775937,0)"
       gradientUnits="userSpaceOnUse">
      <stop
         stop-color="#767574"
         offset="0"
         id="stop2" />
      <stop
         stop-color="#d1e7ee"
         offset="1"
         id="stop4" />
    </linearGradient>
    <style
       type="text/css"
       id="style4" />
    <style
       type="text/css"
       id="style6" />
    <filter
       color-interpolation-filters="sRGB"
       height="1.048"
       width="1.048"
       y="-.024"
       x="-.024"
       id="filter2761">
      <feGaussianBlur
         id="feGaussianBlur849"
         stdDeviation="0.14552168" />
    </filter>
    <linearGradient
       gradientUnits="userSpaceOnUse"
       y2="1.17"
       y1="15.576"
       x2="15.65"
       x1="1.3315"
       id="linearGradient1024-6"
       gradientTransform="translate(1.2431278,-8.3827998)">
      <stop
         id="stop852"
         offset="0"
         stop-color="#dddfe1" />
      <stop
         id="stop854"
         offset="1"
         stop-opacity=".99608"
         stop-color="#f3f4f6" />
    </linearGradient>
    <linearGradient
       id="linearGradient1057">
      <stop
         id="stop4-3"
         offset="0"
         stop-color="#fff" />
      <stop
         id="stop6"
         offset="1"
         stop-opacity="0"
         stop-color="#fff" />
    </linearGradient>
    <linearGradient
       gradientUnits="userSpaceOnUse"
       gradientTransform="matrix(1.5625,0,0,1.5625,0.40633,-5.1891)"
       y2="52.847"
       y1="27.545"
       x2="34.999"
       x1="34.999"
       id="linearGradient982">
      <stop
         id="stop9"
         offset="0"
         stop-color="#32b4ff" />
      <stop
         id="stop11"
         offset="1"
         stop-color="#3287ff" />
    </linearGradient>
    <style
       id="style14"
       type="text/css" />
    <style
       id="style16"
       type="text/css" />
    <linearGradient
       gradientUnits="userSpaceOnUse"
       gradientTransform="matrix(1.5625,0,0,1.5625,-9.2253,1.3231)"
       y2="43.681"
       y1="18.052"
       x2="21.314"
       x1="21.314"
       id="linearGradient1047">
      <stop
         id="stop18"
         offset="0"
         stop-color="#14dc78" />
      <stop
         id="stop20"
         offset="1"
         stop-color="#14a03c" />
    </linearGradient>
    <linearGradient
       gradientUnits="userSpaceOnUse"
       gradientTransform="matrix(1.5625,0,0,1.5625,-8.1072,-10.908)"
       y2="37.368"
       y1="12.316"
       x2="41.729"
       x1="41.729"
       id="linearGradient1049">
      <stop
         id="stop23"
         offset="0"
         stop-color="#ff3c64" />
      <stop
         id="stop25"
         offset="1"
         stop-color="#ff4628" />
    </linearGradient>
    <linearGradient
       xlink:href="#linearGradient1057"
       gradientUnits="userSpaceOnUse"
       gradientTransform="matrix(1,0,0,1.2271,0.20646,-10.975)"
       y2="39.768"
       y1="32.234"
       x2="34.427"
       x1="34.427"
       id="linearGradient1059" />
    <linearGradient
       xlink:href="#linearGradient1057"
       gradientUnits="userSpaceOnUse"
       gradientTransform="matrix(1,0,0,1.2271,-12.55,-19.793)"
       y2="39.768"
       y1="32.234"
       x2="34.427"
       x1="34.427"
       id="linearGradient1063" />
    <linearGradient
       xlink:href="#linearGradient1057"
       gradientUnits="userSpaceOnUse"
       gradientTransform="matrix(1,0,0,1.2271,5.7554,-25.761)"
       y2="39.768"
       y1="32.234"
       x2="34.427"
       x1="34.427"
       id="linearGradient1067" />
    <filter
       color-interpolation-filters="sRGB"
       height="1.048"
       width="1.048"
       y="-.024"
       x="-.024"
       id="filter2761-6">
      <feGaussianBlur
         id="feGaussianBlur31"
         stdDeviation="0.14552168" />
    </filter>
    <linearGradient
       gradientUnits="userSpaceOnUse"
       gradientTransform="matrix(3.7796,0,0,3.7796,72.4059,0.53085)"
       y2="1.17"
       y1="15.576"
       x2="15.65"
       x1="1.3315"
       id="linearGradient1024">
      <stop
         id="stop34"
         offset="0"
         stop-color="#dddfe1" />
      <stop
         id="stop36"
         offset="1"
         stop-opacity=".99608"
         stop-color="#f3f4f6" />
    </linearGradient>
    <filter
       color-interpolation-filters="sRGB"
       height="1.048"
       width="1.048"
       y="-.024"
       x="-.024"
       id="filter2761-3">
      <feGaussianBlur
         id="feGaussianBlur2"
         stdDeviation="0.14552168" />
    </filter>
    <linearGradient
       gradientUnits="userSpaceOnUse"
       gradientTransform="translate(0 -.07421)"
       y2="1.17"
       y1="15.576"
       x2="15.65"
       x1="1.3315"
       id="linearGradient1024-6-7">
      <stop
         id="stop5"
         offset="0"
         stop-color="#dddfe1" />
      <stop
         id="stop7"
         offset="1"
         stop-opacity=".99608"
         stop-color="#f3f4f6" />
    </linearGradient>
    <filter
       inkscape:collect="always"
       style="color-interpolation-filters:sRGB"
       id="filter1057"
       x="-0.027000001"
       width="1.054"
       y="-0.027000001"
       height="1.054">
      <feGaussianBlur
         inkscape:collect="always"
         stdDeviation="0.61875"
         id="feGaussianBlur1059" />
    </filter>
    <linearGradient
       inkscape:collect="always"
       xlink:href="#linearGradient1051"
       id="linearGradient1053"
       x1="-127"
       y1="60"
       x2="-72"
       y2="5"
       gradientUnits="userSpaceOnUse"
       gradientTransform="translate(131.50001,-0.51000061)" />
    <linearGradient
       inkscape:collect="always"
       id="linearGradient1051">
      <stop
         style="stop-color:#dee0e2;stop-opacity:1"
         offset="0"
         id="stop1047" />
      <stop
         style="stop-color:#f1f3f5;stop-opacity:0.99607843"
         offset="1"
         id="stop1049" />
    </linearGradient>
  </defs>
  <rect
     style="opacity:0.3;fill:#141414;fill-opacity:1;stroke-width:2.74436;stroke-linecap:round;filter:url(#filter1057)"
     id="rect1055"
     width="55"
     height="55"
     x="4.4999995"
     y="4.4999995"
     ry="15" />
  <rect
     ry="14.999999"
     y="4.5000019"
     x="4.5000019"
     height="54.999996"
     width="54.999996"
     id="rect1045"
     style="fill:url(#linearGradient1053);fill-opacity:1;stroke-width:2.74436;stroke-linecap:round" />
  <rect
     x="10"
     y="10"
     width="44"
     height="44"
     rx="7.6517453"
     ry="8.3852558"
     fill="#1a211f"
     stroke-width="0.95648"
     id="rect15" />
  <path
     d="m18.203 9.0001v3.0625h-6.5215v-1.0371c-0.10117 0.09006-0.20435 0.17839-0.30078 0.27344v0.76368h-0.67578c-0.07671 0.09779-0.1505 0.19742-0.22266 0.29883h0.89845v6.5234h-2.3809v0.30078h2.3809v6.5215h-2.3809v0.30078h2.3809v6.5234h-2.3809v0.29883h2.3809v6.5234h-2.3809v0.30078h2.3809v6.5234h-2.3809v0.29883h2.3809v6.2246c0.09644 0.09505 0.19961 0.18337 0.30078 0.27344v-6.498h6.5215v6.5234h-6.4922c0.11726 0.10338 0.23612 0.20435 0.35937 0.30078h6.1328v1.6992h0.30078v-1.6992h6.5234v1.6992h0.29883v-1.6992h6.5234v1.6992h0.30078v-1.6992h6.5234v1.6992h0.29883v-1.6992h6.5234v1.6992h0.30078v-1.6992h6.1328c0.12325-0.09643 0.24212-0.1974 0.35937-0.30078h-6.4922v-6.5234h6.5215v6.498c0.10117-0.09006 0.20435-0.17839 0.30078-0.27344v-6.2246h2.3809v-0.29883h-2.3809v-6.5234h2.3809v-0.30078h-2.3809v-6.5234h2.3809v-0.29883h-2.3809v-6.5234h2.3809v-0.30078h-2.3809v-6.5215h2.3809v-0.30078h-2.3809v-6.5234h0.89845c-0.07216-0.10141-0.14595-0.20104-0.22266-0.29883h-0.67578v-0.76368c-0.09644-0.09505-0.19961-0.18337-0.30078-0.27344v1.0371h-6.5215v-3.0625h-0.30078v3.0625h-6.5234v-3.0625h-0.29883v3.0625h-6.5234v-3.0625h-0.30078v3.0625h-6.5234v-3.0625h-0.29883v3.0625h-6.5234v-3.0625h-0.30078zm-6.5215 3.3613h6.5215v6.5234h-6.5215zm6.8223 0h6.5234v6.5234h-6.5234zm6.8223 0h6.5234v6.5234h-6.5234zm6.8242 0h6.5234v6.5234h-6.5234zm6.8223 0h6.5234v6.5234h-6.5234zm6.8242 0h6.5215v6.5234h-6.5215zm-34.115 6.8242h6.5215v6.5215h-6.5215zm6.8223 0h6.5234v6.5215h-6.5234zm6.8223 0h6.5234v6.5215h-6.5234zm6.8242 0h6.5234v6.5215h-6.5234zm6.8223 0h6.5234v6.5215h-6.5234zm6.8242 0h6.5215v6.5215h-6.5215zm-34.115 6.8223h6.5215v6.5234h-6.5215zm6.8223 0h6.5234v6.5234h-6.5234zm6.8223 0h6.5234v6.5234h-6.5234zm6.8242 0h6.5234v6.5234h-6.5234zm6.8223 0h6.5234v6.5234h-6.5234zm6.8242 0h6.5215v6.5234h-6.5215zm-34.115 6.8223h6.5215v6.5234h-6.5215zm6.8223 0h6.5234v6.5234h-6.5234zm6.8223 0h6.5234v6.5234h-6.5234zm6.8242 0h6.5234v6.5234h-6.5234zm6.8223 0h6.5234v6.5234h-6.5234zm6.8242 0h6.5215v6.5234h-6.5215zm-34.115 6.8242h6.5215v6.5234h-6.5215zm6.8223 0h6.5234v6.5234h-6.5234zm6.8223 0h6.5234v6.5234h-6.5234zm6.8242 0h6.5234v6.5234h-6.5234zm6.8223 0h6.5234v6.5234h-6.5234zm6.8242 0h6.5215v6.5234h-6.5215zm-27.293 6.8223h6.5234v6.5234h-6.5234zm6.8223 0h6.5234v6.5234h-6.5234zm6.8242 0h6.5234v6.5234h-6.5234zm6.8223 0h6.5234v6.5234h-6.5234z"
     fill="#a1fbe6"
     opacity=".2"
     id="path17" />
  <g
     transform="translate(.033913 1.7627)"
     id="g61">
    <rect
       x="16.305"
       y="14.881"
       width="1.6"
       height="12.8"
       stroke-width=".1"
       id="rect19" />
    <g
       transform="matrix(1.6,0,0,1.6,-621.41,-810.4)"
       stroke-width=".0625"
       id="g25">
      <rect
         x="400.57"
         y="515.8"
         width="1"
         height="8"
         id="rect21" />
      <rect
         x="402.57"
         y="515.8"
         width="1"
         height="8"
         id="rect23" />
    </g>
    <g
       transform="matrix(-1.6,0,0,1.6,-621.41,-810.4)"
       stroke-width=".0625"
       id="g33">
      <rect
         x="-418.57"
         y="515.8"
         width="1"
         height="8"
         id="rect27" />
      <rect
         x="-416.57"
         y="515.8"
         width="1"
         height="8"
         id="rect29" />
      <rect
         x="-414.57"
         y="515.8"
         width="1"
         height="8"
         id="rect31" />
    </g>
    <rect
       x="16.305"
       y="34.081"
       width="1.6"
       height="12.8"
       stroke-width=".1"
       id="rect35" />
    <g
       stroke-width=".0625"
       id="g59">
      <g
         transform="matrix(1.6,0,0,1.6,-621.41,-810.4)"
         id="g41">
        <rect
           x="400.57"
           y="527.8"
           width="1"
           height="8"
           id="rect37" />
        <rect
           x="402.57"
           y="527.8"
           width="1"
           height="8"
           id="rect39" />
      </g>
      <g
         transform="matrix(-1.6,0,0,1.6,-621.41,-810.4)"
         id="g49">
        <rect
           x="-418.57"
           y="527.8"
           width="1"
           height="8"
           id="rect43" />
        <rect
           x="-416.57"
           y="527.8"
           width="1"
           height="8"
           id="rect45" />
        <rect
           x="-414.57"
           y="527.8"
           width="1"
           height="8"
           id="rect47" />
      </g>
      <g
         transform="matrix(1.6,0,0,1.6,-621.41,-810.4)"
         id="g57">
        <rect
           x="404.57"
           y="523.8"
           width="1"
           height="4"
           id="rect51" />
        <rect
           x="408.57"
           y="523.8"
           width="1"
           height="4"
           id="rect53" />
        <rect
           x="412.57"
           y="523.8"
           width="1"
           height="4"
           id="rect55" />
      </g>
    </g>
  </g>
  <g
     transform="translate(-.30507 1.1186)"
     id="g109">
    <rect
       x="16.305"
       y="14.881"
       width="1.6"
       height="12.8"
       fill="#999"
       stroke-width=".1"
       id="rect63" />
    <g
       transform="matrix(1.6 0 0 1.6 -621.41 -810.4)"
       fill="#84dd84"
       stroke-width=".0625"
       id="g69">
      <rect
         x="400.57"
         y="515.8"
         width="1"
         height="8"
         id="rect65" />
      <rect
         x="402.57"
         y="515.8"
         width="1"
         height="8"
         id="rect67" />
    </g>
    <g
       transform="matrix(-1.6 0 0 1.6 -621.41 -810.4)"
       stroke-width=".0625"
       id="g79">
      <rect
         x="-418.57"
         y="515.8"
         width="1"
         height="8"
         fill="#999"
         id="rect71" />
      <g
         fill="#84dd84"
         id="g77">
        <rect
           x="-416.57"
           y="515.8"
           width="1"
           height="8"
           id="rect73" />
        <rect
           x="-414.57"
           y="515.8"
           width="1"
           height="8"
           id="rect75" />
      </g>
    </g>
    <rect
       x="16.305"
       y="34.081"
       width="1.6"
       height="12.8"
       fill="#999"
       stroke-width=".1"
       id="rect81" />
    <g
       stroke-width=".0625"
       id="g107">
      <g
         transform="matrix(1.6 0 0 1.6 -621.41 -810.4)"
         fill="#84dd84"
         id="g87">
        <rect
           x="400.57"
           y="527.8"
           width="1"
           height="8"
           id="rect83" />
        <rect
           x="402.57"
           y="527.8"
           width="1"
           height="8"
           id="rect85" />
      </g>
      <g
         transform="matrix(-1.6 0 0 1.6 -621.41 -810.4)"
         id="g97">
        <rect
           x="-418.57"
           y="527.8"
           width="1"
           height="8"
           fill="#999"
           id="rect89" />
        <g
           fill="#84dd84"
           id="g95">
          <rect
             x="-416.57"
             y="527.8"
             width="1"
             height="8"
             id="rect91" />
          <rect
             x="-414.57"
             y="527.8"
             width="1"
             height="8"
             id="rect93" />
        </g>
      </g>
      <g
         transform="matrix(1.6 0 0 1.6 -621.41 -810.4)"
         fill="#84dd84"
         id="g105">
        <rect
           x="404.57"
           y="523.8"
           width="1"
           height="4"
           id="rect99" />
        <rect
           x="408.57"
           y="523.8"
           width="1"
           height="4"
           id="rect101" />
        <rect
           x="412.57"
           y="523.8"
           width="1"
           height="4"
           id="rect103" />
      </g>
    </g>
  </g>
  <circle
     cx="-1322.7942"
     cy="-1241.5992"
     r="0"
     fill="#5e4aa6"
     stroke-width="1.00001"
     id="circle10" />
  <circle
     cx="-223.23994"
     cy="23.854958"
     r="0"
     fill="#5e4aa6"
     fill-rule="evenodd"
     stroke-width="1.00001"
     id="circle16" />
  <circle
     id="circle41"
     fill="#5e4aa6"
     r="0"
     cy="-1293.6326"
     cx="-1409.8917"
     style="stroke-width:1" />
  <circle
     id="circle43"
     fill-rule="evenodd"
     fill="#5e4aa6"
     r="0"
     cy="-28.177601"
     cx="-310.34177"
     style="stroke-width:1" />
</svg>
