<?xml version="1.0" encoding="UTF-8" standalone="no"?>
<svg
   xmlns:dc="http://purl.org/dc/elements/1.1/"
   xmlns:cc="http://creativecommons.org/ns#"
   xmlns:rdf="http://www.w3.org/1999/02/22-rdf-syntax-ns#"
   xmlns:svg="http://www.w3.org/2000/svg"
   xmlns="http://www.w3.org/2000/svg"
   xmlns:xlink="http://www.w3.org/1999/xlink"
   xmlns:sodipodi="http://sodipodi.sourceforge.net/DTD/sodipodi-0.dtd"
   xmlns:inkscape="http://www.inkscape.org/namespaces/inkscape"
   width="64"
   height="64"
   version="1.1"
   viewBox="0 0 16.933 16.933"
   id="svg37"
   sodipodi:docname="indicator-weather.svg"
   inkscape:version="1.0.1 (3bc2e813f5, 2020-09-07, custom)">
  <sodipodi:namedview
     pagecolor="#ffffff"
     bordercolor="#666666"
     borderopacity="1"
     objecttolerance="10"
     gridtolerance="10"
     guidetolerance="10"
     inkscape:pageopacity="0"
     inkscape:pageshadow="2"
     inkscape:window-width="1920"
     inkscape:window-height="992"
     id="namedview39"
     showgrid="false"
     inkscape:zoom="6.4921875"
     inkscape:cx="17.676298"
     inkscape:cy="32.35733"
     inkscape:window-x="0"
     inkscape:window-y="0"
     inkscape:window-maximized="1"
     inkscape:current-layer="svg37" />
  <defs
     id="defs15">
    <filter
       id="filter2761"
       x="-.024"
       y="-.024"
       width="1.048"
       height="1.048"
       color-interpolation-filters="sRGB">
      <feGaussianBlur
         stdDeviation="0.14552168"
         id="feGaussianBlur2" />
    </filter>
    <linearGradient
       id="linearGradient4673"
       x1="1.2573"
       x2="15.644"
       y1="15.429"
       y2="1.1082"
       gradientUnits="userSpaceOnUse"
       gradientTransform="translate(-5.4256159,2.4153676)">
      <stop
         stop-color="#32dcff"
         offset="0"
         id="stop5" />
      <stop
         stop-color="#3296ff"
         offset="1"
         id="stop7" />
    </linearGradient>
    <linearGradient
       id="linearGradient4691"
       x1="10.574"
       x2="15.644"
       y1="6.1782"
       y2="1.1082"
       gradientTransform="translate(-6.7e-6)"
       gradientUnits="userSpaceOnUse">
      <stop
         stop-color="#fff"
         offset="0"
         id="stop10" />
      <stop
         stop-color="#c8e6fa"
         offset="1"
         id="stop12" />
    </linearGradient>
    <style
       type="text/css"
       id="style866" />
    <filter
       id="filter1057"
       x="-.027"
       y="-.027"
       width="1.054"
       height="1.054"
       color-interpolation-filters="sRGB">
      <feGaussianBlur
         stdDeviation="0.61875"
         id="feGaussianBlur868" />
    </filter>
    <linearGradient
       id="linearGradient1053"
       x1="-127"
       x2="-72"
       y1="60"
       y2="5"
       gradientTransform="matrix(0.26457812,0,0,0.26457812,34.792022,-0.13493486)"
       gradientUnits="userSpaceOnUse">
      <stop
         stop-color="#32d7ff"
         offset="0"
         id="stop871" />
      <stop
         stop-color="#329bff"
         offset="1"
         id="stop873" />
    </linearGradient>
    <style
       type="text/css"
       id="style876" />
    <style
       type="text/css"
       id="style878" />
    <style
       type="text/css"
       id="style880" />
    <style
       type="text/css"
       id="style882" />
    <style
       type="text/css"
       id="style884" />
    <style
       type="text/css"
       id="style886" />
    <style
       type="text/css"
       id="style888" />
    <linearGradient
       inkscape:collect="always"
       xlink:href="#linearGradient4691"
       id="linearGradient990"
       gradientUnits="userSpaceOnUse"
       gradientTransform="matrix(3.779602,0,0,3.779602,-2.5323333e-5,0)"
       x1="10.574"
       y1="6.1782"
       x2="15.644"
       y2="1.1082" />
  </defs>
  <metadata
     id="metadata17">
    <rdf:RDF>
      <cc:Work
         rdf:about="">
        <dc:format>image/svg+xml</dc:format>
        <dc:type
           rdf:resource="http://purl.org/dc/dcmitype/StillImage" />
        <dc:title></dc:title>
      </cc:Work>
    </rdf:RDF>
  </metadata>
  <rect
     x="4.5"
     y="4.5"
     width="55"
     height="55"
     ry="15"
     fill="#141414"
     filter="url(#filter1057)"
     opacity="0.3"
     stroke-linecap="round"
     stroke-width="2.7444"
     id="rect904"
     transform="scale(0.26457812)" />
  <rect
     x="1.1906016"
     y="1.1906016"
     width="14.551797"
     height="14.551797"
     ry="3.9686718"
     fill="url(#linearGradient1053)"
     stroke-linecap="round"
     stroke-width="0.726108"
     id="rect906"
     style="fill:url(#linearGradient1053)" />
  <path
     id="path23"
     style="stroke-width:3.7796;fill:#fafafa;fill-opacity:1;opacity:0.1"
     d="M 19.5 4.5 C 12.471135 4.5 6.6174385 9.2924316 4.9746094 15.796875 C 4.9624084 16.160055 4.9567728 16.542626 4.9296875 16.853516 A 56.142208 56.142208 0 0 0 48.775391 58.21875 L 48.775391 58.216797 C 49.323811 58.142301 49.978095 58.111387 50.472656 58.011719 C 50.829331 57.939833 51.170178 57.859685 51.5 57.773438 C 55.1042 55.876063 57.821064 52.555492 58.935547 48.548828 C 59.345241 45.962905 59.491266 42.740276 59.5 38.71875 L 59.5 23.654297 C 59.494641 21.187144 59.432644 19.035693 59.296875 17.130859 C 58.164968 9.9573699 52.001408 4.5 44.5 4.5 L 19.5 4.5 z "
     transform="scale(0.26457812)" />
  <path
     id="path25"
     style="stroke-width:3.7796;fill:#fafafa;fill-opacity:1;opacity:0.2"
     d="M 19.5 4.5 C 19.317857 4.5 19.141471 4.5209691 18.960938 4.5273438 A 40.392606 40.392606 0 0 0 59.199219 43.488281 C 59.286848 41.808807 59.488624 40.532506 59.5 38.488281 L 59.5 23.630859 C 59.494308 21.172944 59.432365 19.027887 59.296875 17.128906 C 58.164174 9.9563565 52.000744 4.5 44.5 4.5 L 19.5 4.5 z "
     transform="scale(0.26457812)" />
  <path
     id="path27"
     style="stroke-width:3.7796;fill:url(#linearGradient990);opacity:0.8"
     d="M 34.167969 4.5 C 34.173644 4.6275687 34.174028 4.7553399 34.181641 4.8828125 C 34.24081 5.7206747 34.34185 6.5550419 34.484375 7.3828125 C 34.626896 8.2105075 34.810735 9.0305176 35.035156 9.8398438 C 35.260152 10.64883 35.525442 11.446025 35.830078 12.228516 C 36.133992 13.011422 36.476892 13.77868 36.857422 14.527344 C 37.238708 15.275667 37.657247 16.004417 38.111328 16.710938 C 38.565145 17.417874 39.05402 18.101661 39.576172 18.759766 C 40.098362 19.417265 40.653085 20.048262 41.238281 20.650391 C 41.823212 21.25301 42.437924 21.825986 43.080078 22.367188 C 43.722232 22.908086 44.391032 23.416512 45.083984 23.890625 C 45.777088 24.364927 46.493484 24.804277 47.230469 25.207031 C 47.967567 25.609861 48.7244 25.975534 49.498047 26.302734 C 50.27158 26.629742 51.060985 26.917847 51.863281 27.166016 C 52.66554 27.41423 53.479726 27.622193 54.302734 27.789062 C 55.126007 27.956159 55.957148 28.081965 56.792969 28.166016 C 57.628903 28.249605 58.468502 28.291322 59.308594 28.291016 C 59.372416 28.288707 59.436215 28.286007 59.5 28.283203 L 59.5 23.630859 C 59.49469 21.211203 59.437415 19.093922 59.310547 17.216797 C 58.214614 10.000976 52.031319 4.5 44.5 4.5 L 34.167969 4.5 z "
     transform="scale(0.26457812)" />
  <circle
     cx="5.4716"
     cy="11.562"
     r="2.3167"
     fill="#fff"
     opacity=".1"
     id="circle29" />
  <circle
     cx="9.5407"
     cy="6.9317"
     r="1.1942"
     fill="#fff"
     opacity=".1"
     id="circle31" />
  <text
     x="5.4422855"
     y="12.438681"
     fill="#ffffff"
     font-family="sans-serif"
     font-size="5.1441px"
     letter-spacing="0px"
     stroke-width=".1286"
     word-spacing="0px"
     style="line-height:1.25"
     xml:space="preserve"
     id="text35"><tspan
       x="5.4422855"
       y="12.438681"
       fill="#ffffff"
       stroke-width=".1286"
       id="tspan33">6°</tspan></text>
  <circle
     cx="-319.36996"
     cy="-338.47479"
     r="0"
     fill="#5e4aa6"
     id="circle892"
     style="stroke-width:0.264578" />
  <circle
     cx="-288.02975"
     cy="-348.87265"
     r="0"
     id="circle894"
     style="fill:#5e4aa6;stroke-width:0.26458" />
  <circle
     cx="2.8840337"
     cy="-14.051351"
     r="0"
     fill-rule="evenodd"
     id="circle896"
     style="fill:#5e4aa6;stroke-width:0.26458" />
  <circle
     cx="-267.25977"
     cy="-367.79266"
     r="0"
     id="circle898"
     style="fill:#5e4aa6;stroke-width:0.26458" />
  <circle
     cx="23.653234"
     cy="-32.961651"
     r="0"
     fill-rule="evenodd"
     id="circle900"
     style="fill:#5e4aa6;stroke-width:0.26458" />
</svg>
