<?xml version="1.0" encoding="UTF-8" standalone="no"?>
<svg
   xmlns:dc="http://purl.org/dc/elements/1.1/"
   xmlns:cc="http://creativecommons.org/ns#"
   xmlns:rdf="http://www.w3.org/1999/02/22-rdf-syntax-ns#"
   xmlns:svg="http://www.w3.org/2000/svg"
   xmlns="http://www.w3.org/2000/svg"
   xmlns:sodipodi="http://sodipodi.sourceforge.net/DTD/sodipodi-0.dtd"
   xmlns:inkscape="http://www.inkscape.org/namespaces/inkscape"
   width="64"
   height="64"
   version="1.1"
   viewBox="0 0 16.933 16.933"
   id="svg37"
   sodipodi:docname="internet-mail.svg"
   inkscape:version="1.0.1 (3bc2e813f5, 2020-09-07, custom)">
  <sodipodi:namedview
     pagecolor="#ffffff"
     bordercolor="#666666"
     borderopacity="1"
     objecttolerance="10"
     gridtolerance="10"
     guidetolerance="10"
     inkscape:pageopacity="0"
     inkscape:pageshadow="2"
     inkscape:window-width="1920"
     inkscape:window-height="992"
     id="namedview39"
     showgrid="false"
     inkscape:zoom="6.4921875"
     inkscape:cx="5.3596304"
     inkscape:cy="25.908791"
     inkscape:window-x="0"
     inkscape:window-y="0"
     inkscape:window-maximized="1"
     inkscape:current-layer="svg37" />
  <defs
     id="defs13">
    <filter
       id="filter2761"
       x="-.024"
       y="-.024"
       width="1.048"
       height="1.048"
       color-interpolation-filters="sRGB">
      <feGaussianBlur
         stdDeviation="0.14552168"
         id="feGaussianBlur2" />
    </filter>
    <linearGradient
       id="linearGradient1024-1"
       x1="1.3315"
       x2="15.65"
       y1="15.576"
       y2="1.17"
       gradientTransform="translate(0.546359,-2.296182)"
       gradientUnits="userSpaceOnUse">
      <stop
         stop-color="#00c8ff"
         offset="0"
         id="stop5" />
      <stop
         stop-color="#14a0ff"
         offset="1"
         id="stop7" />
    </linearGradient>
    <filter
       id="filter1655"
       x="-.0735"
       y="-.098"
       width="1.147"
       height="1.196"
       color-interpolation-filters="sRGB">
      <feGaussianBlur
         stdDeviation="0.32410824"
         id="feGaussianBlur10" />
    </filter>
    <style
       type="text/css"
       id="style866" />
    <filter
       id="filter1057"
       x="-.027"
       y="-.027"
       width="1.054"
       height="1.054"
       color-interpolation-filters="sRGB">
      <feGaussianBlur
         stdDeviation="0.61875"
         id="feGaussianBlur868" />
    </filter>
    <linearGradient
       id="linearGradient1053"
       x1="-127"
       x2="-72"
       y1="60"
       y2="5"
       gradientTransform="matrix(0.26457812,0,0,0.26457812,34.792024,-0.13493486)"
       gradientUnits="userSpaceOnUse">
      <stop
         stop-color="#32d7ff"
         offset="0"
         id="stop871" />
      <stop
         stop-color="#329bff"
         offset="1"
         id="stop873" />
    </linearGradient>
    <style
       type="text/css"
       id="style876" />
    <style
       type="text/css"
       id="style878" />
    <style
       type="text/css"
       id="style880" />
    <style
       type="text/css"
       id="style882" />
    <style
       type="text/css"
       id="style884" />
    <style
       type="text/css"
       id="style886" />
    <style
       type="text/css"
       id="style888" />
  </defs>
  <metadata
     id="metadata15">
    <rdf:RDF>
      <cc:Work
         rdf:about="">
        <dc:format>image/svg+xml</dc:format>
        <dc:type
           rdf:resource="http://purl.org/dc/dcmitype/StillImage" />
        <dc:title></dc:title>
      </cc:Work>
    </rdf:RDF>
  </metadata>
  <rect
     x="4.5"
     y="4.5"
     width="55"
     height="55"
     ry="15"
     fill="#141414"
     filter="url(#filter1057)"
     opacity="0.3"
     stroke-linecap="round"
     stroke-width="2.7444"
     id="rect904"
     transform="scale(0.26457812)" />
  <rect
     x="1.1906016"
     y="1.1906016"
     width="14.551797"
     height="14.551797"
     ry="3.9686718"
     fill="url(#linearGradient1053)"
     stroke-linecap="round"
     stroke-width="0.726108"
     id="rect906"
     style="fill:url(#linearGradient1053)" />
  <g
     transform="translate(-.48439 -.74382)"
     fill="#0f9bff"
     filter="url(#filter1655)"
     id="g27">
    <rect
       x="3.6602"
       y="5.027"
       width="10.583"
       height="7.9373"
       ry="1.1978"
       id="rect21" />
    <path
       d="m4.858 5.027c-0.35542 0-0.67034 0.15618-0.88933 0.40048l4.6358 3.9051a0.4911 0.41369 0 0 0 0.025839 0.020153 0.4911 0.41369 0 0 0 0.038239 0.025321 0.4911 0.41369 0 0 0 0.04134 0.022221 0.4911 0.41369 0 0 0 0.043923 0.018603 0.4911 0.41369 0 0 0 0.046508 0.014469 0.4911 0.41369 0 0 0 0.047026 0.011369 0.4911 0.41369 0 0 0 0.048574 0.0062 0.4911 0.41369 0 0 0 0.048576 0.0031 0.4911 0.41369 0 0 0 0.04909-0.00155 0.4911 0.41369 0 0 0 0.048576-0.00568 0.4911 0.41369 0 0 0 0.048058-0.00982 0.4911 0.41369 0 0 0 0.046507-0.013436 0.4911 0.41369 0 0 0 0.044441-0.01757 0.4911 0.41369 0 0 0 0.041856-0.021187 0.4911 0.41369 0 0 0 0.03979-0.024287 0.4911 0.41369 0 0 0 0.036173-0.027905l4.6358-3.9051c-0.21899-0.24431-0.53391-0.40048-0.88933-0.40048z"
       id="path23" />
    <path
       d="m13.935 5.4275-8.9471 7.5369h8.0577c0.66358 0 1.1978-0.53426 1.1978-1.1978v-5.5417c0-0.30816-0.11863-0.58553-0.3085-0.79735z"
       id="path25" />
  </g>
  <g
     transform="translate(-.48439 -.74382)"
     id="g35">
    <rect
       x="3.6602"
       y="5.027"
       width="10.583"
       height="7.9373"
       ry="1.1978"
       fill="#8cd2ff"
       id="rect29" />
    <path
       d="m4.858 5.027c-0.35542 0-0.67034 0.15618-0.88933 0.40048l4.6358 3.9051a0.4911 0.41369 0 0 0 0.025839 0.020153 0.4911 0.41369 0 0 0 0.038239 0.025321 0.4911 0.41369 0 0 0 0.04134 0.022221 0.4911 0.41369 0 0 0 0.043923 0.018603 0.4911 0.41369 0 0 0 0.046508 0.014469 0.4911 0.41369 0 0 0 0.047026 0.011369 0.4911 0.41369 0 0 0 0.048574 0.0062 0.4911 0.41369 0 0 0 0.048576 0.0031 0.4911 0.41369 0 0 0 0.04909-0.00155 0.4911 0.41369 0 0 0 0.048576-0.00568 0.4911 0.41369 0 0 0 0.048058-0.00982 0.4911 0.41369 0 0 0 0.046507-0.013436 0.4911 0.41369 0 0 0 0.044441-0.01757 0.4911 0.41369 0 0 0 0.041856-0.021187 0.4911 0.41369 0 0 0 0.03979-0.024287 0.4911 0.41369 0 0 0 0.036173-0.027905l4.6358-3.9051c-0.21899-0.24431-0.53391-0.40048-0.88933-0.40048z"
       fill="#fff"
       id="path31" />
    <path
       d="m13.935 5.4275-8.9471 7.5369h8.0577c0.66358 0 1.1978-0.53426 1.1978-1.1978v-5.5417c0-0.30816-0.11863-0.58553-0.3085-0.79735z"
       fill="#b4e1ff"
       id="path33" />
  </g>
  <circle
     cx="-316.01242"
     cy="-338.47479"
     r="0"
     fill="#5e4aa6"
     id="circle892"
     style="stroke-width:0.264578" />
  <circle
     cx="-284.67221"
     cy="-348.87265"
     r="0"
     id="circle894"
     style="fill:#5e4aa6;stroke-width:0.26458" />
  <circle
     cx="6.2415657"
     cy="-14.051351"
     r="0"
     fill-rule="evenodd"
     id="circle896"
     style="fill:#5e4aa6;stroke-width:0.26458" />
  <circle
     cx="-263.90222"
     cy="-367.79266"
     r="0"
     id="circle898"
     style="fill:#5e4aa6;stroke-width:0.26458" />
  <circle
     cx="27.010767"
     cy="-32.961651"
     r="0"
     fill-rule="evenodd"
     id="circle900"
     style="fill:#5e4aa6;stroke-width:0.26458" />
</svg>
