<?xml version="1.0" encoding="UTF-8"?>
<svg width="64" height="64" version="1.1" xmlns="http://www.w3.org/2000/svg" xmlns:xlink="http://www.w3.org/1999/xlink">
 <defs>
  <filter id="filter1057" x="-.027" y="-.027" width="1.054" height="1.054" color-interpolation-filters="sRGB">
   <feGaussianBlur stdDeviation="0.61875"/>
  </filter>
  <linearGradient id="linearGradient1053" x1="-127" x2="-72" y1="60" y2="5" gradientTransform="translate(131.5 -.51)" gradientUnits="userSpaceOnUse">
   <stop stop-color="#dee0e2" offset="0"/>
   <stop stop-color="#f1f3f5" stop-opacity=".99608" offset="1"/>
  </linearGradient>
 </defs>
 <g>
  <rect x="4.5" y="4.5" width="55" height="55" ry="15" fill="#141414" filter="url(#filter1057)" opacity=".3" stroke-linecap="round" stroke-width="2.7444"/>
  <rect x="4.5" y="4.5" width="55" height="55" ry="15" fill="url(#linearGradient1053)" stroke-linecap="round" stroke-width="2.7444"/>
  <path d="m38.497 25.158c4.7496-3.229 10.733-4.0659 10.756-3.929 0.058 2.279 0.11604 4.5582 0.17369 6.8372-6.9566 0.40044-7.3728 4.7276-6.9527 7.4954l7.1811 2.3053 0.34481 12.765-12.607-4.8864c-1.4725-0.60203-2.945-1.1816-4.4177-1.7122v-8.7986c1.8e-4 -3.9302 2.0022-7.6829 5.5221-10.076m-5.3423-0.7357c0.62499-7.722 11.221-11.171 11.24-11.052 7e-3 0.64573 0.0149 1.2916 0.0222 1.9375-3.3302 1.3846-8.7533 4.5347-11.263 9.1147m-0.17956 4.7456c0.72358-9.7748 14.463-13.309 14.495-13.12 0.0253 1.2219 0.0508 2.4436 0.0762 3.6655-3.2656 0.66391-11.322 3.6894-14.571 9.4547m-7.472-4.01c-4.7496-3.229-10.733-4.0659-10.756-3.929-0.0581 2.279-0.11585 4.5582-0.17369 6.8372 6.9566 0.40044 7.3728 4.7276 6.9527 7.4954l-7.1811 2.3053-0.34481 12.765 12.607-4.8864c1.4725-0.60203 2.945-1.1816 4.4177-1.7122v-8.7986c0-3.9302-2.002-7.6829-5.5221-10.076m5.3425-0.7357c-0.62499-7.722-11.221-11.171-11.24-11.052-8e-3 0.64573-0.0149 1.2916-0.0222 1.9375 3.3302 1.3846 8.7533 4.5347 11.263 9.1147m0.17938 4.7456c-0.72358-9.7748-14.463-13.309-14.495-13.12-0.0253 1.2219-0.0509 2.4436-0.0762 3.6655 3.2656 0.66391 11.322 3.6894 14.571 9.4547" fill="#4f5f8f"/>
 </g>
</svg>
