<?xml version="1.0" encoding="UTF-8" standalone="no"?>
<svg
   width="64"
   height="64"
   version="1"
   id="svg28"
   sodipodi:docname="kalendar.svg"
   inkscape:version="1.1.2 (0a00cf5339, 2022-02-04)"
   xmlns:inkscape="http://www.inkscape.org/namespaces/inkscape"
   xmlns:sodipodi="http://sodipodi.sourceforge.net/DTD/sodipodi-0.dtd"
   xmlns="http://www.w3.org/2000/svg"
   xmlns:svg="http://www.w3.org/2000/svg"
   xmlns:rdf="http://www.w3.org/1999/02/22-rdf-syntax-ns#"
   xmlns:cc="http://creativecommons.org/ns#"
   xmlns:dc="http://purl.org/dc/elements/1.1/">
  <sodipodi:namedview
     id="namedview30"
     pagecolor="#ffffff"
     bordercolor="#666666"
     borderopacity="1.0"
     inkscape:pageshadow="2"
     inkscape:pageopacity="0.0"
     inkscape:pagecheckerboard="0"
     showgrid="false"
     inkscape:zoom="3.6203867"
     inkscape:cx="77.754125"
     inkscape:cy="19.887378"
     inkscape:window-width="1920"
     inkscape:window-height="1051"
     inkscape:window-x="0"
     inkscape:window-y="0"
     inkscape:window-maximized="1"
     inkscape:current-layer="svg28" />
  <title
     id="title2">Kile Icon</title>
  <defs
     id="defs10">
    <filter
       id="filter1057-3"
       x="-0.026999999"
       y="-0.026999999"
       width="1.054"
       height="1.054"
       color-interpolation-filters="sRGB">
      <feGaussianBlur
         stdDeviation="0.61875"
         id="feGaussianBlur4" />
    </filter>
    <filter
       id="filter1057-7"
       x="-0.026999999"
       y="-0.026999999"
       width="1.054"
       height="1.054"
       color-interpolation-filters="sRGB">
      <feGaussianBlur
         stdDeviation="0.61875"
         id="feGaussianBlur7" />
    </filter>
  </defs>
  <metadata
     id="metadata12">
    <rdf:RDF>
      <cc:Work
         rdf:about="">
        <dc:title>Kile Icon</dc:title>
        <dc:date>2022-03-29</dc:date>
        <dc:creator>
          <cc:Agent>
            <dc:title>abu</dc:title>
          </cc:Agent>
        </dc:creator>
        <dc:rights>
          <cc:Agent>
            <dc:title>free</dc:title>
          </cc:Agent>
        </dc:rights>
        <cc:license
           rdf:resource="http://artlibre.org/licence/lal" />
      </cc:Work>
      <cc:License
         rdf:about="http://artlibre.org/licence/lal">
        <cc:permits
           rdf:resource="http://creativecommons.org/ns#Reproduction" />
        <cc:permits
           rdf:resource="http://creativecommons.org/ns#Distribution" />
        <cc:permits
           rdf:resource="http://creativecommons.org/ns#DerivativeWorks" />
        <cc:requires
           rdf:resource="http://creativecommons.org/ns#ShareAlike" />
        <cc:requires
           rdf:resource="http://creativecommons.org/ns#Notice" />
        <cc:requires
           rdf:resource="http://creativecommons.org/ns#Attribution" />
      </cc:License>
    </rdf:RDF>
  </metadata>
  <g
     transform="translate(-67.318597,-1.2807497)"
     stroke-linecap="round"
     stroke-width="2.7444"
     id="g24"
     style="fill:#008bef;fill-opacity:1">
    <rect
       x="70.445999"
       y="4.1398001"
       width="55"
       height="55"
       ry="15"
       fill="#141414"
       filter="url(#filter1057-7)"
       opacity="0.3"
       id="rect20"
       rx="15"
       style="fill:#008bef;fill-opacity:1" />
    <rect
       x="70.445999"
       y="4.1398001"
       width="55"
       height="55"
       ry="15"
       fill="#159ddc"
       id="rect22"
       rx="15"
       style="fill:#008bef;fill-opacity:1" />
  </g>
  <g
     id="g2766">
    <path
       d="m 19.060477,20.960925 c -0.80101,0 -1.445866,0.644856 -1.445866,1.445866 v 8.675195 c 0,0.801009 0.644856,1.445865 1.445866,1.445865 h 8.675195 c 0.801009,0 1.445865,-0.644856 1.445865,-1.445865 v -8.675195 c 0,-0.80101 -0.644856,-1.445866 -1.445865,-1.445866 z m 14.458658,0 c -0.80101,0 -1.445866,0.644856 -1.445866,1.445866 v 8.675195 c 0,0.801009 0.644856,1.445865 1.445866,1.445865 h 8.675198 c 0.801005,0 1.445861,-0.644856 1.445861,-1.445865 v -8.675195 c 0,-0.80101 -0.644856,-1.445866 -1.445861,-1.445866 z M 19.060477,35.419583 c -0.80101,0 -1.445866,0.644856 -1.445866,1.445866 v 8.675195 c 0,0.801009 0.644856,1.445865 1.445866,1.445865 h 8.675195 c 0.801009,0 1.445865,-0.644856 1.445865,-1.445865 v -8.675195 c 0,-0.80101 -0.644856,-1.445866 -1.445865,-1.445866 z m 14.458658,0 c -0.80101,0 -1.445866,0.644856 -1.445866,1.445866 v 8.675195 c 0,0.801009 0.644856,1.445865 1.445866,1.445865 h 8.675198 c 0.801005,0 1.445861,-0.644856 1.445861,-1.445865 v -8.675195 c 0,-0.80101 -0.644856,-1.445866 -1.445861,-1.445866 z"
       fill="#ffffff"
       stroke-width="3"
       id="path3347" />
    <rect
       fill="#bbe9ff"
       height="8.6751947"
       ry="0.25"
       stroke-width="3"
       width="8.6751947"
       x="19.060472"
       y="36.865448"
       id="rect3349"
       rx="0.25" />
    <path
       d="m 19.060477,13.731593 c -0.80101,0 -1.445866,0.644856 -1.445866,1.445866 v 1.445866 c 0,0.801009 0.644856,1.445865 1.445866,1.445865 h 8.675195 c 0.801009,0 1.445865,-0.644856 1.445865,-1.445865 v -1.445866 c 0,-0.80101 -0.644856,-1.445866 -1.445865,-1.445866 z m 14.458658,0 c -0.80101,0 -1.445866,0.644856 -1.445866,1.445866 v 1.445866 c 0,0.801009 0.644856,1.445865 1.445866,1.445865 h 8.675198 c 0.801005,0 1.445861,-0.644856 1.445861,-1.445865 v -1.445866 c 0,-0.80101 -0.644856,-1.445866 -1.445861,-1.445866 z"
       fill="#00789d"
       stroke-width="1.83712"
       id="path3351" />
    <path
       d="m 20.339173,41.295885 1.603685,1.92773 c 0.273121,0.328312 0.71599,0.328312 0.989111,0 l 3.701925,-4.449956"
       stroke="#0097d7"
       id="path3353"
       style="fill:none;stroke-width:0.500001" />
  </g>
</svg>
