<?xml version="1.0" encoding="UTF-8"?>
<svg width="64" height="64" version="1.1" xmlns="http://www.w3.org/2000/svg">
 <defs>
  <filter id="e" x="-.17917" y="-.02001" width="1.3583" height="1.04" color-interpolation-filters="sRGB">
   <feGaussianBlur stdDeviation="0.14989745"/>
  </filter>
  <filter id="c" x="-.035995" y="-.036004" width="1.072" height="1.072" color-interpolation-filters="sRGB">
   <feGaussianBlur stdDeviation="0.24398276"/>
  </filter>
  <filter id="filter25919" x="-.048" y="-.048" width="1.096" height="1.096" color-interpolation-filters="sRGB">
   <feGaussianBlur stdDeviation="0.12"/>
  </filter>
  <filter id="filter1057" x="-.027" y="-.027" width="1.054" height="1.054" color-interpolation-filters="sRGB">
   <feGaussianBlur stdDeviation="0.61875"/>
  </filter>
  <linearGradient id="linearGradient1053" x1="-127" x2="-72" y1="60" y2="5" gradientTransform="matrix(.26458 0 0 .26458 12.042 -2.3085)" gradientUnits="userSpaceOnUse">
   <stop stop-color="#dee0e2" offset="0"/>
   <stop stop-color="#f1f3f5" stop-opacity=".99608" offset="1"/>
  </linearGradient>
 </defs>
 <g transform="matrix(3.7796 0 0 3.7796 85.986 8.2151)" stroke-linecap="round">
  <rect transform="matrix(.26458 0 0 .26458 -22.75 -2.1736)" x="4.5" y="4.5" width="55" height="55" ry="15" fill="#141414" filter="url(#filter1057)" opacity=".3" stroke-width="2.7444"/>
  <rect x="-21.559" y="-.98295" width="14.552" height="14.552" ry="3.9687" fill="url(#linearGradient1053)" stroke-width=".7261"/>
 </g>
 <path d="m32 7.75a24.25 24.25 0 0 0 0 48.5 24.25 24.25 0 0 0 0-48.5zm0 4.7324a19.517 19.517 0 0 1 0 39.035 19.517 19.517 0 0 1 0-39.035z" fill="#f2c046"/>
 <path d="m36.144 16.546a16 16 0 0 1 11.313 11.314l-15.454 4.1412z" fill="#ee7923" stroke-linecap="square" stroke-width="2.1645"/>
 <path transform="matrix(.4 -.69282 .69282 .4 -2.9438 41.356)" d="m31.998 14.998a1.0016 1.0016 0 0 0-1.002 1.002 1.0016 1.0016 0 0 0 0.0039 0.07031v15.916a1.0016 1.0016 0 0 0 1.002 0.99023 1.0016 1.0016 0 0 0 1.002-1.002 1.0016 1.0016 0 0 0-0.0039-0.07031v-15.904a1.0016 1.0016 0 0 0 0-0.01172 1.0016 1.0016 0 0 0-1.002-0.99023z" filter="url(#e)" opacity=".5" stroke-width="3.7796"/>
 <path transform="matrix(.4 -.69282 .69282 .4 -2.9438 41.356)" d="m32.709 31.991 15.557 15.557-0.71056 0.70678-15.557-15.557z" filter="url(#c)" opacity=".35" stroke-width="3.7796"/>
 <path d="m35 32a3 3 0 0 1-3 3 3 3 0 0 1-3-3 3 3 0 0 1 3-3 3 3 0 0 1 3 3z" filter="url(#filter25919)" opacity=".5"/>
 <g fill="#333">
  <path d="m32.276 31.505 17.002-4.5556 0.20544 0.775-17.002 4.5556z" stroke-width="3.0237"/>
  <path d="m20.219 25.201a0.80128 0.80128 0 0 0 0.29341 1.095 0.80128 0.80128 0 0 0 0.05026 0.02544l11.027 6.3665a0.80128 0.80128 0 0 0 1.0868-0.29812 0.80128 0.80128 0 0 0-0.29341-1.095 0.80128 0.80128 0 0 0-0.05026-0.02544l-11.018-6.3615a0.80128 0.80128 0 0 0-0.0081-0.0047 0.80128 0.80128 0 0 0-1.0868 0.29812z" stroke-width="3.0237"/>
  <circle cx="32" cy="32" r="3" stroke-linecap="square" stroke-width="3.6053"/>
 </g>
 <circle cx="32" cy="32" r="2" fill="#ee7923" stroke-linecap="square" stroke-width="2.4035"/>
</svg>
