<?xml version="1.0" encoding="UTF-8"?>
<svg width="64" height="64" version="1" xmlns="http://www.w3.org/2000/svg" xmlns:cc="http://creativecommons.org/ns#" xmlns:dc="http://purl.org/dc/elements/1.1/" xmlns:rdf="http://www.w3.org/1999/02/22-rdf-syntax-ns#">
 <title>Kile Icon</title>
 <defs>
  <filter id="filter1057-3" x="-.027" y="-.027" width="1.054" height="1.054" color-interpolation-filters="sRGB">
   <feGaussianBlur stdDeviation="0.61875"/>
  </filter>
  <filter id="filter1057-7" x="-.027" y="-.027" width="1.054" height="1.054" color-interpolation-filters="sRGB">
   <feGaussianBlur stdDeviation="0.61875"/>
  </filter>
 </defs>
 <metadata>
  <rdf:RDF>
   <cc:Work rdf:about="">
    <dc:title>Kile Icon</dc:title>
    <dc:date>2022-03-29</dc:date>
    <dc:creator>
     <cc:Agent>
      <dc:title>abu</dc:title>
     </cc:Agent>
    </dc:creator>
    <dc:rights>
     <cc:Agent>
      <dc:title>free</dc:title>
     </cc:Agent>
    </dc:rights>
    <cc:license rdf:resource="http://artlibre.org/licence/lal"/>
   </cc:Work>
   <cc:License rdf:about="http://artlibre.org/licence/lal">
    <cc:permits rdf:resource="http://creativecommons.org/ns#Reproduction"/>
    <cc:permits rdf:resource="http://creativecommons.org/ns#Distribution"/>
    <cc:permits rdf:resource="http://creativecommons.org/ns#DerivativeWorks"/>
    <cc:requires rdf:resource="http://creativecommons.org/ns#ShareAlike"/>
    <cc:requires rdf:resource="http://creativecommons.org/ns#Notice"/>
    <cc:requires rdf:resource="http://creativecommons.org/ns#Attribution"/>
   </cc:License>
  </rdf:RDF>
 </metadata>
 <g transform="translate(-72.864 .007538)" fill="#f2f2f2">
  <rect x="76.935" y="4.9558" width="55" height="55" ry="15" filter="url(#filter1057-3)" opacity=".3" stroke-linecap="round" stroke-width="2.7444"/>
  <circle cx="104.44" cy="32" r="30.001" fill-opacity="0" stroke-width="1.5715"/>
 </g>
 <g transform="translate(-66.37 .36776)" stroke-linecap="round" stroke-width="2.7444">
  <rect x="70.446" y="4.1398" width="55" height="55" ry="15" fill="#141414" filter="url(#filter1057-7)" opacity=".3"/>
  <rect x="70.446" y="4.1398" width="55" height="55" ry="15" fill="#159ddc"/>
 </g>
 <path d="m13.693 18.025v27.965h5.0588v-12.383l11.226 12.383h6.2464v-0.31861l-12.912-14.103 11.916-13.381v-0.16082h-6.2842l-10.193 11.825v-11.825zm29.189 0.01821c-3.5594 0.22051-5.347 2.533-5.347 5.9777 0 3.8175 2.4727 6.2508 5.9059 6.2508 3.6162-3e-6 6.0193-2.41 6.0193-6.4663 0-1.7895-0.59491-3.8175-1.8308-5.0582l-1.7638 1.86c0.66372 0.66807 1.0537 2.076 1.0537 3.1496 0 2.0519-1.0052 3.3169-2.4013 3.5078v-9.185c-0.58078-0.05666-1.1274-0.0679-1.6359-0.03641zm-0.6782 2.8281v6.3449c-1.4648-0.42948-2.1946-1.7175-2.1946-3.2923 0-1.6701 0.72988-2.8617 2.1946-3.0526zm-9.0409 11.44v2.8887h16v-2.8887zm1.5339 5.2586c-2.1743 0-2.1743 3.438 0 3.438 2.1743 0 2.1743-3.438 0-3.438zm3.1377 0.26399v2.91h11.328v-2.91z" fill="#fff" stroke-width="1.5216"/>
</svg>
