<?xml version="1.0" encoding="UTF-8"?>
<!-- Created with Inkscape (http://www.inkscape.org/) -->
<svg width="64" height="64" version="1.1" viewBox="0 0 16.933 16.933" xmlns="http://www.w3.org/2000/svg" xmlns:xlink="http://www.w3.org/1999/xlink">
 <defs>
  <filter id="filter861-6" x="-.027" y="-.027" width="1.054" height="1.054" color-interpolation-filters="sRGB">
   <feGaussianBlur stdDeviation="0.16371"/>
  </filter>
  <linearGradient id="linearGradient1353" x1="30.901" x2="30.901" y1="1.2898" y2="15.843" gradientTransform="translate(-7.957 7.917)" gradientUnits="userSpaceOnUse">
   <stop stop-color="#4d4d4d" offset="0"/>
   <stop stop-color="#1a1a1a" offset="1"/>
  </linearGradient>
  <filter id="filter1017" x="-.076065" y="-.18615" width="1.1521" height="1.3723" color-interpolation-filters="sRGB">
   <feGaussianBlur stdDeviation="0.52032786"/>
  </filter>
  <linearGradient id="linearGradient976" x1="8.4441" x2="8.4441" y1="6.8608" y2="2.2286" gradientTransform="translate(14.664 8.0495)" gradientUnits="userSpaceOnUse">
   <stop stop-color="#a95319" offset="0"/>
   <stop stop-color="#c28e00" offset="1"/>
  </linearGradient>
  <linearGradient id="linearGradient998" x1="8.2939" x2="8.2939" y1="7.2278" y2="3.9617" gradientTransform="translate(14.664 8.0495)" gradientUnits="userSpaceOnUse">
   <stop stop-color="#662800" offset="0"/>
   <stop stop-color="#d65500" offset="1"/>
  </linearGradient>
  <linearGradient id="linearGradient1006" x1="8.3457" x2="8.3457" y1="8.445" y2="5.5972" gradientTransform="translate(14.664 8.0495)" gradientUnits="userSpaceOnUse">
   <stop stop-color="#523e3e" offset="0"/>
   <stop stop-color="#ae7b7b" offset="1"/>
  </linearGradient>
  <filter id="filter1023" x="-.040757" y="-.058373" width="1.0815" height="1.1167" color-interpolation-filters="sRGB">
   <feGaussianBlur stdDeviation="0.10681541"/>
  </filter>
 </defs>
 <g transform="translate(-14.664 -7.9069)">
  <rect x="15.854" y="9.24" width="14.552" height="14.552" ry="3.4395" filter="url(#filter861-6)" image-rendering="optimizeSpeed" opacity=".3" stroke-opacity=".95294" stroke-width=".083153"/>
  <rect x="15.854" y="9.24" width="14.552" height="14.552" rx="3.44" ry="3.4395" fill="url(#linearGradient1353)" image-rendering="optimizeSpeed" stroke-linecap="round" stroke-width=".52916"/>
  <path d="m18.386 9.8108c-0.1976 0.00141-0.34913 0.042084-0.42581 0.13229-0.32474 0.36082 0.23474 1.8583 0.90225 2.6882-0.03433 0.13732-0.05714 0.27665-0.07235 0.41857-0.59234-0.4684-1.3341-0.75404-2.0624-0.75549-0.28903-5.82e-4 -0.57606 0.04378-0.85006 0.13849 1.097 0.14197 2.0446 0.49152 2.9057 1.0728 0.0097 0.11822 0.0264 0.23482 0.05219 0.34933-0.69667-0.46651-1.547-0.74202-2.3678-0.72707h-5.17e-4c-0.54933 0.01014-1.084 0.14823-1.5461 0.44131 1.1961-0.18689 2.3135-0.02302 3.3785 0.38343-0.18046 0.0097-0.34762 0.05662-0.4935 0.13487-0.21483-0.03767-0.43002-0.06168-0.63922-0.06511-0.73077-0.01199-1.3903 0.19431-1.7218 0.68367 0.68574-0.21783 1.3309-0.28865 1.9678-0.25579-0.01947 0.03048-0.03949 0.06039-0.05581 0.09302h-0.05426c-0.4871 0-0.90174 0.36132-0.90174 0.81234 0 0.63143 0.64953 0.97405 1.2449 0.75756 0.36082 0.52318 1.1366 0.55927 1.4252 0 0.43298-0.01804 1.1367-0.09006 1.2449-0.75756 0.0069-0.0433 0.0047-0.08521 0.0021-0.1266h2.2608c-0.0902-0.18041 0.03599-0.28835 0.57721-0.28835 0.54123 0.01804 0.64937 0.10795 0.57721 0.28835h2.2133c-0.0065 0.0412-9e-3 0.08352-0.0021 0.1266 0.1082 0.66751 0.81188 0.73952 1.2449 0.75756 0.2886 0.55927 1.0644 0.52318 1.4252 0 0.59533 0.21649 1.2449-0.12613 1.2449-0.75756 0-0.45102-0.64917-0.81234-0.90174-0.81234h-0.05426c-0.01631-0.03263-0.03634-0.06253-0.05581-0.09302 0.63686-0.03282 1.2822 0.03801 1.9678 0.25579-0.33149-0.48937-0.99108-0.69566-1.7218-0.68367-0.20922 0.0034-0.42438 0.02744-0.63922 0.06511-0.14614-0.07841-0.31363-0.12586-0.4945-0.13539 1.0649-0.40634 2.1825-0.56978 3.3785-0.38291-0.46216-0.29306-0.99728-0.43115-1.5466-0.44131h-5.16e-4c-0.79639-0.01447-1.6213 0.24387-2.3063 0.68522 0.02393-0.11291 0.03731-0.22709 0.04547-0.34209 0.84696-0.55988 1.7779-0.89914 2.8525-1.0382-0.274-0.09471-0.56103-0.13907-0.85006-0.13849-0.70814 0.0014-1.4303 0.27118-2.0143 0.71674-0.01575-0.12847-0.03748-0.25482-0.06873-0.37981 0.63143-0.82988 1.1728-2.3454 0.84799-2.6882-0.32474-0.34278-1.8042 0.072207-2.7062 0.63147-0.70359-0.36082-1.5514-0.57721-2.4535-0.57721-0.92008 0-1.768 0.21639-2.4716 0.57721-0.67652-0.41945-1.6876-0.76799-2.2804-0.76376zm3.0561 2.5858c0.63143 0 1.1549 0.52301 1.1549 1.1544 0 0.63143-0.52353 1.1549-1.1549 1.1549-0.63143 0-1.1544-0.52353-1.1544-1.1549 0-0.63143 0.52301-1.1544 1.1544-1.1544zm3.392 0c0.63143 0 1.1544 0.52301 1.1544 1.1544 0 0.63143-0.50497 1.1549-1.1544 1.1549-0.63143 0-1.1544-0.52353-1.1544-1.1549 0-0.63143 0.52301-1.1544 1.1544-1.1544z" fill-rule="evenodd" filter="url(#filter1017)" opacity=".15" stroke-width="0"/>
  <rect x="19.54" y="12.018" width="7.1814" height="2.6458" ry="0" fill="#fff" fill-rule="evenodd" stroke="#000" stroke-linecap="round" stroke-linejoin="round" stroke-width="0"/>
  <g clip-rule="evenodd" fill-rule="evenodd" stroke-width="0">
   <path d="m21.441 14.098c0.13292 0 0.23926-0.25257 0.23926-0.57731s-0.10634-0.57731-0.23926-0.57731-0.23926 0.25257-0.23926 0.57731 0.10634 0.57731 0.23926 0.57731z" fill="#c0c81f" stroke="#969c18"/>
   <path d="m28.298 9.7692c-0.32474-0.34278-1.8041 0.072163-2.7061 0.63143-0.70359-0.36082-1.5515-0.57731-2.4536-0.57731-0.92008 0-1.768 0.21649-2.4716 0.57731-0.90204-0.55927-2.3994-0.99225-2.7061-0.63143-0.32474 0.36082 0.23453 1.8582 0.90204 2.6881-0.05412 0.21649-0.0902 0.43298-0.0902 0.66751 0 0.72163 0.30669 1.3891 0.82988 1.9304h2.9767c-0.0902-0.18041 0.03608-0.28865 0.57731-0.28865 0.54123 0.01804 0.64947 0.10825 0.57731 0.28865h2.9767c0.52318-0.54123 0.82988-1.2268 0.82988-1.9304 0-0.23453-0.03608-0.45102-0.0902-0.66751 0.63143-0.82988 1.1727-2.3453 0.84792-2.6881zm-6.8555 4.7628c-0.63143 0-1.1546-0.52318-1.1546-1.1546 0-0.63143 0.52318-1.1546 1.1546-1.1546 0.63143 0 1.1546 0.52318 1.1546 1.1546 0 0.63143-0.52318 1.1546-1.1546 1.1546zm3.3917 0c-0.63143 0-1.1546-0.52318-1.1546-1.1546 0-0.63143 0.52318-1.1546 1.1546-1.1546 0.63143 0 1.1546 0.52318 1.1546 1.1546 0 0.63143-0.50514 1.1546-1.1546 1.1546z" fill="url(#linearGradient976)" stroke="#543117"/>
   <path d="m16.728 12.121c-0.28903-5.82e-4 -0.57607 0.04378-0.85007 0.13849 1.5335 0.19845 2.7784 0.7939 3.897 1.8763-0.49839-1.1727-1.7944-2.0123-3.0469-2.0148zm12.805 0c-1.2524 0.0025-2.5484 0.84218-3.0469 2.0148 1.1185-1.0824 2.3634-1.6779 3.897-1.8763-0.274-0.09471-0.56104-0.13907-0.85007-0.13849zm-13.065 0.83353c-0.54951 0.01006-1.0844 0.14815-1.5467 0.44132 1.7319-0.27061 3.3017 0.18052 4.781 1.0645-0.74418-0.93024-2.0255-1.528-3.2345-1.5058zm13.324 0c-1.2089-0.02214-2.4902 0.57559-3.2345 1.5058 1.4794-0.88401 3.049-1.3351 4.781-1.0645-0.4623-0.29315-0.99715-0.43124-1.5467-0.44132zm-12.625 0.89452c-0.73077-0.01199-1.3903 0.19431-1.7218 0.68367 1.5335-0.48712 2.868-0.27088 4.3476 0.30644-0.62917-0.59874-1.6861-0.97469-2.6256-0.99011zm11.927 0c-0.93958 0.01542-1.9965 0.39137-2.6256 0.99011 1.4793-0.57731 2.8141-0.79355 4.3476-0.30644-0.33149-0.48937-0.99106-0.69566-1.7218-0.68367z" fill="url(#linearGradient998)" stroke="#461900"/>
   <path d="m18.368 13.774c-0.45102 0-0.82988 0.23453-1.0103 0.59535h-0.05412c-0.4871 0-0.90204 0.36082-0.90204 0.81184 0 0.63143 0.64947 0.9742 1.2448 0.75771 0.36082 0.52318 1.1366 0.55927 1.4252 0 0.43298-0.01804 1.1366-0.0902 1.2448-0.75771 0.07216-0.45102-0.3969-0.81184-0.90204-0.81184h-0.05412c-0.14433-0.36082-0.54122-0.59535-0.99225-0.59535zm9.5256 0c0.45102 0 0.82988 0.23453 1.0103 0.59535h0.05412c0.25257 0 0.90204 0.36082 0.90204 0.81184 0 0.63143-0.64947 0.9742-1.2448 0.75771-0.36082 0.52318-1.1366 0.55927-1.4252 0-0.43298-0.01804-1.1366-0.0902-1.2448-0.75771-0.07216-0.45102 0.64947-0.81184 0.90204-0.81184h0.05412c0.14433-0.36082 0.54123-0.59535 0.99225-0.59535z" fill="url(#linearGradient1006)" stroke="#3c2c2c"/>
   <path d="m24.794 14.098c0.13292 0 0.23926-0.25257 0.23926-0.57731s-0.10634-0.57731-0.23926-0.57731-0.23926 0.25257-0.23926 0.57731 0.10634 0.57731 0.23926 0.57731z" fill="#c0c81f" stroke="#969c18"/>
  </g>
  <path d="m23.396 20.326h2.679c0.40385 5.19e-4 0.40385 0.60604 0 0.60656h-2.679c-0.40385-5.19e-4 -0.40385-0.60604 0-0.60656zm-3.2218-3.2703c-0.26612-0.28558 0.14305-0.69475 0.42863-0.42863l1.8945 1.8935c0.11826 0.11841 0.11826 0.31022 0 0.42863l-1.8945 1.8945c-0.28558 0.26608-0.69472-0.14305-0.42863-0.42863l1.6802-1.6802z" filter="url(#filter1023)" opacity=".35"/>
  <path d="m23.396 20.142h2.679c0.40385 5.19e-4 0.40385 0.60604 0 0.60656h-2.679c-0.40385-5.19e-4 -0.40385-0.60604 0-0.60656zm-3.2218-3.2703c-0.26612-0.28558 0.14305-0.69475 0.42863-0.42863l1.8945 1.8935c0.11826 0.11841 0.11826 0.31022 0 0.42863l-1.8945 1.8945c-0.28558 0.26608-0.69472-0.14305-0.42863-0.42863l1.6802-1.6802z" fill="#fff"/>
  <ellipse cx="23.13" cy="15.026" rx=".72543" ry=".36235" fill="#fff" stroke-width="0" style="paint-order:stroke fill markers"/>
 </g>
</svg>
