<?xml version="1.0" encoding="UTF-8"?>
<svg width="64" height="64" version="1.1" viewBox="0 0 16.933 16.933" xmlns="http://www.w3.org/2000/svg" xmlns:cc="http://creativecommons.org/ns#" xmlns:dc="http://purl.org/dc/elements/1.1/" xmlns:rdf="http://www.w3.org/1999/02/22-rdf-syntax-ns#" xmlns:xlink="http://www.w3.org/1999/xlink">
 <defs>
  <filter id="filter1057-1" x="-.027" y="-.027" width="1.054" height="1.054" color-interpolation-filters="sRGB">
   <feGaussianBlur stdDeviation="0.61875"/>
  </filter>
  <linearGradient id="linearGradient1053-5" x1="-127" x2="-72" y1="60" y2="5" gradientTransform="matrix(.26458 0 0 .26458 31.872 14.517)" gradientUnits="userSpaceOnUse">
   <stop stop-color="#8811a2" offset="0"/>
   <stop stop-color="#da50d5" offset="1"/>
  </linearGradient>
  <filter id="filter1346" x="-.083571" y="-.084434" width="1.1671" height="1.1689" color-interpolation-filters="sRGB">
   <feGaussianBlur stdDeviation="0.3616237"/>
  </filter>
  <linearGradient id="linearGradient963-6" x1="-6.1472" x2="-6.1472" y1="-137.82" y2="-100.78" gradientTransform="matrix(.074692 0 0 .074692 2.8552 32.544)" gradientUnits="userSpaceOnUse">
   <stop stop-color="#ffbe14" offset="0"/>
   <stop stop-color="#ff8214" offset="1"/>
  </linearGradient>
  <linearGradient id="linearGradient32549-7" x1="-6.1472" x2="-6.1472" y1="-137.82" y2="-100.78" gradientTransform="matrix(.074692 0 0 .074692 6.0847 28.718)" gradientUnits="userSpaceOnUse">
   <stop stop-color="#32b4ff" offset="0"/>
   <stop stop-color="#3287ff" offset="1"/>
  </linearGradient>
  <linearGradient id="linearGradient957-3" x1="-6.1472" x2="-6.1472" y1="-137.82" y2="-100.78" gradientTransform="matrix(.049219 0 0 .049219 3.4342 26.978)" gradientUnits="userSpaceOnUse">
   <stop stop-color="#14dc78" offset="0"/>
   <stop stop-color="#14a03c" offset="1"/>
  </linearGradient>
  <linearGradient id="linearGradient961-5" x1="-6.1472" x2="-6.1472" y1="-137.82" y2="-100.78" gradientTransform="matrix(.049219 0 0 .049219 8.5954 26.885)" gradientUnits="userSpaceOnUse">
   <stop stop-color="#dc28e6" offset="0"/>
   <stop stop-color="#8c14e6" offset="1"/>
  </linearGradient>
  <linearGradient id="linearGradient1342" x1="-6.1472" x2="-6.1472" y1="-137.82" y2="-100.78" gradientTransform="matrix(.049219 0 0 .049219 3.84 31.849)" gradientUnits="userSpaceOnUse">
   <stop stop-color="#ff3c69" offset="0"/>
   <stop stop-color="#ff462b" offset="1"/>
  </linearGradient>
 </defs>
 <metadata>
  <rdf:RDF>
   <cc:Work rdf:about="">
    <dc:format>image/svg+xml</dc:format>
    <dc:type rdf:resource="http://purl.org/dc/dcmitype/StillImage"/>
    <dc:title/>
   </cc:Work>
  </rdf:RDF>
 </metadata>
 <g transform="translate(2.9208 -14.652)">
  <rect transform="matrix(.26458 0 0 .26458 -2.9208 14.652)" x="4.5" y="4.5" width="55" height="55" ry="15" fill="#141414" filter="url(#filter1057-1)" opacity=".3" stroke-linecap="round" stroke-width="2.7444"/>
  <rect x="-1.7302" y="15.843" width="14.552" height="14.552" ry="3.9687" fill="url(#linearGradient1053-5)" stroke-linecap="round" stroke-width=".72611"/>
  <path transform="matrix(1 0 0 1 -2.9208 14.652)" d="m8.4669 3.1865c-2.8386 0-5.1395 2.3013-5.1391 5.1399 1e-7 2.8383 2.3009 5.1391 5.1391 5.1391 1.4188 0 1.1526-1.1799 1.5109-1.6289 0.26908-0.33815 0.64033-0.68853 1.0706-0.73386 0.50219-0.05396 0.75976 0.17267 1.1562 0.16188 0.60867-0.01511 1.0432-0.4914 1.2778-1.1281 0.14821-0.40074 0.23065-1.4196 0.23065-1.7743 3.97e-4 -2.8383-2.4078-5.1753-5.2461-5.1757zm3.3563 5.5406c1.0551-8.39e-4 1.0551 1.5805 0 1.5814-1.0534-8.38e-4 -1.0534-1.5822 0-1.5814z" fill="#ff781e" filter="url(#filter1346)" stroke-width=".71947" style="paint-order:stroke markers fill"/>
  <path d="m5.4932 17.839c-2.8387 0-5.1396 2.3013-5.1392 5.14 0 2.8384 2.3009 5.1392 5.1392 5.1392 1.4188 0 1.1526-1.1799 1.5109-1.6289 0.26909-0.33816 0.64033-0.68854 1.0706-0.73388 0.5022-0.05396 0.75977 0.17267 1.1562 0.16188 0.60868-0.01511 1.0432-0.49141 1.2778-1.1281 0.14821-0.40075 0.23066-1.4196 0.23066-1.7743 3.97e-4 -2.8384-2.4078-5.1754-5.2462-5.1758zm3.3564 5.5407c1.0551-8.47e-4 1.0551 1.5805 0 1.5814-1.0534-8.47e-4 -1.0534-1.5822 0-1.5814z" fill="#fff" stroke-width=".71948" style="paint-order:stroke markers fill"/>
  <circle cx="2.4265" cy="23.597" r="1.1179" fill="url(#linearGradient963-6)" stroke-width=".019762"/>
  <circle cx="5.6561" cy="19.772" r="1.1179" fill="url(#linearGradient32549-7)" stroke-width=".88563" style="paint-order:normal"/>
  <g stroke-width=".013023">
   <circle cx="3.1517" cy="21.083" r=".73666" fill="url(#linearGradient957-3)"/>
   <circle cx="8.3134" cy="20.989" r=".73666" fill="url(#linearGradient961-5)"/>
   <circle cx="3.5575" cy="25.953" r=".73666" fill="url(#linearGradient1342)"/>
  </g>
 </g>
</svg>
