<?xml version="1.0" encoding="UTF-8"?>
<svg width="64" height="64" version="1.1" xmlns="http://www.w3.org/2000/svg" xmlns:cc="http://creativecommons.org/ns#" xmlns:dc="http://purl.org/dc/elements/1.1/" xmlns:rdf="http://www.w3.org/1999/02/22-rdf-syntax-ns#" xmlns:xlink="http://www.w3.org/1999/xlink">
 <g transform="matrix(3.7796 0 0 3.7796 52.175 -47.93)" fill="#5e4aa6" stroke-width=".26458">
  <circle cx="-299.02" cy="-338.77" r="0"/>
  <circle cx="-8.1062" cy="-3.9487" r="0" fill-rule="evenodd"/>
  <circle cx="-278.25" cy="-357.69" r="0"/>
  <circle cx="12.663" cy="-22.859" r="0" fill-rule="evenodd"/>
 </g>
 <rect x="4.5" y="4.5" width="55" height="55" ry="15" fill="#141414" filter="url(#filter1057)" opacity=".3" stroke-linecap="round" stroke-width="2.7444"/>
 <rect x="4.5" y="4.5" width="55" height="55" ry="15" fill="url(#linearGradient1053)" stroke-linecap="round" stroke-width="2.7444"/>
 <metadata>
  <rdf:RDF>
   <cc:Work rdf:about="">
    <dc:format>image/svg+xml</dc:format>
    <dc:type rdf:resource="http://purl.org/dc/dcmitype/StillImage"/>
    <dc:title/>
   </cc:Work>
  </rdf:RDF>
 </metadata>
 <defs>
  <linearGradient id="b" x1="399.57" x2="399.57" y1="545.8" y2="517.8" gradientTransform="matrix(2.1429 0 0 2.1429 -718.43 -1111.6)" gradientUnits="userSpaceOnUse">
   <stop stop-color="#3889e9" offset="0"/>
   <stop stop-color="#5ea5fb" offset="1"/>
  </linearGradient>
  <linearGradient id="k" x1="15" x2="9" y1="9" y2="9" gradientTransform="matrix(3.5556,0,0,8,-19.55,-41)" gradientUnits="userSpaceOnUse">
   <stop stop-color="#a1daff" offset="0"/>
   <stop stop-color="#abebf9" stop-opacity="0" offset="1"/>
  </linearGradient>
  <style type="text/css"/>
  <style type="text/css"/>
  <style type="text/css"/>
  <style type="text/css"/>
  <style type="text/css"/>
  <filter id="filter1057" x="-.027" y="-.027" width="1.054" height="1.054" color-interpolation-filters="sRGB">
   <feGaussianBlur stdDeviation="0.61875"/>
  </filter>
  <linearGradient id="linearGradient1053" x1="-127" x2="-72" y1="60" y2="5" gradientTransform="translate(131.5 -.51)" gradientUnits="userSpaceOnUse">
   <stop stop-color="#32d7ff" offset="0"/>
   <stop stop-color="#329bff" offset="1"/>
  </linearGradient>
  <style type="text/css"/>
  <style type="text/css"/>
  <style type="text/css"/>
  <style type="text/css"/>
  <style type="text/css"/>
  <style type="text/css"/>
  <style type="text/css"/>
 </defs>
 <circle cx="139.95" cy="27.976" r="0" fill="url(#b)" stroke-width="1.5715"/>
 <path d="m12.45 23h21.333v8h-21.333z" fill="url(#k)" fill-rule="evenodd" stroke-width="1.3333"/>
 <path d="m35.018 47 10.982-0.07029 1.2429-12.431c0.26059-2.5201-2.8631-3.5693-3.7288-1.2429 0.01027-2.7944-2.8631-3.1441-3.7305-1.2446 0.10972-2.3076-2.8236-3.2008-3.7288-1.2429v-4.9717c0-3.7288-3.7288-3.7288-3.7288 0v11.188c-6.2163-6.2163-7.7404-1.7487-7.7404-1.7487 4.2243 2.8511 6.806 11.788 10.432 11.764z" fill="#fff" stroke-width="1.3333"/>
 <circle cx="-1196.5" cy="-1289" r="0" fill="#5e4aa6"/>
</svg>
