<?xml version="1.0" encoding="UTF-8" standalone="no"?>
<svg
   xmlns:dc="http://purl.org/dc/elements/1.1/"
   xmlns:cc="http://creativecommons.org/ns#"
   xmlns:rdf="http://www.w3.org/1999/02/22-rdf-syntax-ns#"
   xmlns:svg="http://www.w3.org/2000/svg"
   xmlns="http://www.w3.org/2000/svg"
   xmlns:xlink="http://www.w3.org/1999/xlink"
   xmlns:sodipodi="http://sodipodi.sourceforge.net/DTD/sodipodi-0.dtd"
   xmlns:inkscape="http://www.inkscape.org/namespaces/inkscape"
   width="64"
   height="64"
   viewBox="0 0 16.933333 16.933334"
   version="1.1"
   id="svg8"
   sodipodi:docname="libreoffice-base.svg"
   inkscape:version="1.0.2 (e86c870879, 2021-01-15)">
  <defs
     id="defs2">
    <linearGradient
       id="bg"
       x2="0"
       y1="1"
       y2="47"
       gradientUnits="userSpaceOnUse">
      <stop
         style="stop-color:#213a47"
         offset="0"
         id="stop2" />
      <stop
         style="stop-color:#1b2f39"
         offset="1"
         id="stop4" />
    </linearGradient>
    <style
       type="text/css"
       id="style856" />
    <filter
       id="filter1057"
       x="-0.027000001"
       y="-0.027000001"
       width="1.054"
       height="1.054"
       color-interpolation-filters="sRGB">
      <feGaussianBlur
         stdDeviation="0.61875"
         id="feGaussianBlur858" />
    </filter>
    <linearGradient
       id="linearGradient1053"
       x1="-127"
       x2="-72"
       y1="60"
       y2="5"
       gradientTransform="matrix(0.26458333,0,0,0.26458333,34.792708,-0.1349375)"
       gradientUnits="userSpaceOnUse">
      <stop
         stop-color="#32d7ff"
         offset="0"
         id="stop861" />
      <stop
         stop-color="#329bff"
         offset="1"
         id="stop863" />
    </linearGradient>
    <style
       type="text/css"
       id="style866" />
    <style
       type="text/css"
       id="style868" />
    <style
       type="text/css"
       id="style870" />
    <style
       type="text/css"
       id="style872" />
    <style
       type="text/css"
       id="style874" />
    <style
       type="text/css"
       id="style876" />
    <style
       type="text/css"
       id="style878" />
    <linearGradient
       inkscape:collect="always"
       xlink:href="#linearGradient856-5"
       id="linearGradient6315"
       gradientUnits="userSpaceOnUse"
       gradientTransform="matrix(0.0850556,0,-0.01305613,0.12587817,3.6136422,0.96646208)"
       x1="86.345001"
       y1="58.764999"
       x2="97.987999"
       y2="56.894001" />
    <linearGradient
       id="linearGradient856-5"
       x1="86.345001"
       x2="97.987999"
       y1="58.764999"
       y2="56.894001"
       gradientTransform="matrix(0.32147,0,-0.049346,0.47576,13.458,3.7485)"
       gradientUnits="userSpaceOnUse">
      <stop
         offset="0"
         id="stop9" />
      <stop
         stop-opacity=".054902"
         offset=".8249"
         id="stop11" />
      <stop
         stop-opacity=".027451"
         offset=".90864"
         id="stop13" />
      <stop
         stop-opacity=".019608"
         offset=".92884"
         id="stop15" />
      <stop
         stop-opacity=".011765"
         offset=".95191"
         id="stop17" />
      <stop
         stop-opacity="0"
         offset="1"
         id="stop19" />
    </linearGradient>
    <linearGradient
       inkscape:collect="always"
       xlink:href="#linearGradient11572"
       id="linearGradient11574"
       x1="4.5"
       y1="59.5"
       x2="39.478516"
       y2="4.5"
       gradientUnits="userSpaceOnUse"
       gradientTransform="matrix(0.26458333,0,0,0.26458333,10.079507,-2.0853482)" />
    <linearGradient
       inkscape:collect="always"
       id="linearGradient11572">
      <stop
         style="stop-color:#6e28b4;stop-opacity:1"
         offset="0"
         id="stop11568" />
      <stop
         style="stop-color:#be5ae6;stop-opacity:1"
         offset="1"
         id="stop11570" />
    </linearGradient>
  </defs>
  <sodipodi:namedview
     id="base"
     pagecolor="#ffffff"
     bordercolor="#666666"
     borderopacity="1.0"
     inkscape:pageopacity="0.0"
     inkscape:pageshadow="2"
     inkscape:zoom="7.9195959"
     inkscape:cx="27.809543"
     inkscape:cy="20.406555"
     inkscape:document-units="mm"
     inkscape:current-layer="layer1"
     inkscape:document-rotation="0"
     showgrid="false"
     units="px"
     inkscape:window-width="1920"
     inkscape:window-height="992"
     inkscape:window-x="0"
     inkscape:window-y="0"
     inkscape:window-maximized="1" />
  <metadata
     id="metadata5">
    <rdf:RDF>
      <cc:Work
         rdf:about="">
        <dc:format>image/svg+xml</dc:format>
        <dc:type
           rdf:resource="http://purl.org/dc/dcmitype/StillImage" />
        <dc:title></dc:title>
      </cc:Work>
    </rdf:RDF>
  </metadata>
  <g
     inkscape:label="图层 1"
     inkscape:groupmode="layer"
     id="layer1">
    <circle
       cx="-297.60333"
       cy="-338.48148"
       r="0"
       fill="#5e4aa6"
       id="circle882"
       style="stroke-width:0.264583" />
    <circle
       cx="-266.26236"
       cy="-348.8793"
       r="0"
       id="circle884"
       style="fill:#5e4aa6;stroke-width:0.264586" />
    <circle
       cx="24.656998"
       cy="-14.051625"
       r="0"
       fill-rule="evenodd"
       id="circle886"
       style="fill:#5e4aa6;stroke-width:0.264586" />
    <circle
       cx="-245.49197"
       cy="-367.79971"
       r="0"
       id="circle888"
       style="fill:#5e4aa6;stroke-width:0.264586" />
    <circle
       cx="45.426594"
       cy="-32.962288"
       r="0"
       fill-rule="evenodd"
       id="circle890"
       style="fill:#5e4aa6;stroke-width:0.264586" />
    <rect
       x="4.5"
       y="4.5"
       width="55"
       height="55"
       ry="15"
       fill="#141414"
       filter="url(#filter1057)"
       opacity="0.3"
       stroke-linecap="round"
       stroke-width="2.7444"
       id="rect894"
       transform="scale(0.26458333)" />
    <path
       style="color:#000000;font-style:normal;font-variant:normal;font-weight:normal;font-stretch:normal;font-size:medium;line-height:normal;font-family:sans-serif;font-variant-ligatures:normal;font-variant-position:normal;font-variant-caps:normal;font-variant-numeric:normal;font-variant-alternates:normal;font-variant-east-asian:normal;font-feature-settings:normal;font-variation-settings:normal;text-indent:0;text-align:start;text-decoration:none;text-decoration-line:none;text-decoration-style:solid;text-decoration-color:#000000;letter-spacing:normal;word-spacing:normal;text-transform:none;writing-mode:lr-tb;direction:ltr;text-orientation:mixed;dominant-baseline:auto;baseline-shift:baseline;text-anchor:start;white-space:normal;shape-padding:0;shape-margin:0;inline-size:0;clip-rule:nonzero;display:inline;overflow:visible;visibility:visible;isolation:auto;mix-blend-mode:normal;color-interpolation:sRGB;color-interpolation-filters:linearRGB;solid-color:#000000;solid-opacity:1;vector-effect:none;fill:#be5ae6;fill-opacity:1;fill-rule:nonzero;stroke-width:0.726122;stroke-linecap:round;stroke-linejoin:miter;stroke-miterlimit:4;stroke-dasharray:none;stroke-dashoffset:0;stroke-opacity:1;color-rendering:auto;image-rendering:auto;shape-rendering:auto;text-rendering:auto;enable-background:accumulate;stop-color:#000000;stop-opacity:1;stroke:none;opacity:1"
       d="m 5.159375,1.190625 h 6.614583 c 2.198687,0 3.96875,1.7700625 3.96875,3.96875 v 6.614583 c 0,2.198687 -1.770063,3.96875 -3.96875,3.96875 H 5.159375 c -2.1986875,0 -3.96875,-1.770063 -3.96875,-3.96875 V 5.159375 c 0,-2.1986875 1.7700625,-3.96875 3.96875,-3.96875 z"
       id="rect896" />
    <path
       style="color:#000000;font-style:normal;font-variant:normal;font-weight:normal;font-stretch:normal;font-size:medium;line-height:normal;font-family:sans-serif;font-variant-ligatures:normal;font-variant-position:normal;font-variant-caps:normal;font-variant-numeric:normal;font-variant-alternates:normal;font-variant-east-asian:normal;font-feature-settings:normal;font-variation-settings:normal;text-indent:0;text-align:start;text-decoration:none;text-decoration-line:none;text-decoration-style:solid;text-decoration-color:#000000;letter-spacing:normal;word-spacing:normal;text-transform:none;writing-mode:lr-tb;direction:ltr;text-orientation:mixed;dominant-baseline:auto;baseline-shift:baseline;text-anchor:start;white-space:normal;shape-padding:0;shape-margin:0;inline-size:0;clip-rule:nonzero;display:inline;overflow:visible;visibility:visible;isolation:auto;mix-blend-mode:normal;color-interpolation:sRGB;color-interpolation-filters:linearRGB;solid-color:#000000;solid-opacity:1;vector-effect:none;fill:#ebf0f5;fill-opacity:1;fill-rule:nonzero;stroke-width:0.660111;stroke-linecap:round;stroke-linejoin:miter;stroke-miterlimit:4;stroke-dasharray:none;stroke-dashoffset:0;stroke-opacity:1;color-rendering:auto;image-rendering:auto;shape-rendering:auto;text-rendering:auto;enable-background:accumulate;stop-color:#000000;stop-opacity:1;stroke:none;opacity:1"
       d="m 5.4600379,1.8520832 h 6.0132571 c 1.998807,0 3.607955,1.6091478 3.607955,3.6079547 v 6.0132571 c 0,1.998807 -1.609148,3.607955 -3.607955,3.607955 H 5.4600379 c -1.9988069,0 -3.6079547,-1.609148 -3.6079547,-3.607955 V 5.4600379 c 0,-1.9988069 1.6091478,-3.6079547 3.6079547,-3.6079547 z"
       id="rect929" />
    <path
       d="M 9.714284,4.3746222 C 7.70488,4.3941962 6.072824,5.310427 6.06912,6.4210949 6.06542,7.5317628 7.691227,8.4162649 9.700526,8.3966592 11.70993,8.3770852 13.341986,7.4608544 13.34569,6.3501865 13.34949,5.2395186 11.723583,4.3550166 9.714284,4.3746222 Z M 6.068061,6.6975845 6.067532,6.8232536 c 1.46e-4,-0.043251 0.0068,-0.083161 0.0118,-0.1257803 z m -5.29e-4,0.1256691 -0.0057,1.6901053 0.02275,-2.04e-4 c 0.162975,1.022561 1.711087,1.8058071 3.609446,1.7873131 1.898385,-0.01849 3.451754,-0.8319561 3.621881,-1.8577461 l 0.02275,-2.04e-4 5.29e-4,-0.1885313 0.0051,-1.5015633 C 13.340488,7.8630912 11.708475,8.7793699 9.699124,8.7989489 7.689719,8.8185189 6.064013,7.9339731 6.067717,6.8233317 Z m 7.276835,-0.070869 5.3e-4,-0.1256718 -0.01138,1.153e-4 c 0.0047,0.042524 0.01109,0.082309 0.01095,0.1255607 z m -7.28292,1.9025923 -5.29e-4,0.125728 c 1.45e-4,-0.04325 0.0068,-0.08322 0.0118,-0.125839 z m -5.29e-4,0.125728 -0.0051,1.5015631 -5.3e-4,0.188534 0.02276,-2.04e-4 c 0.162975,1.022562 1.711086,1.805755 3.609445,1.78726 1.898386,-0.01849 3.451754,-0.831903 3.621882,-1.857692 l 0.02275,-2.04e-4 5.29e-4,-0.188535 0.0051,-1.5015631 c -0.0038,1.110642 -1.635813,2.0268411 -3.645165,2.0464201 -2.009404,0.01957 -3.63511,-0.8649231 -3.631406,-1.9755651 z m 7.276835,-0.07087 5.29e-4,-0.125727 -0.01138,1.15e-4 c 0.0047,0.04252 0.01109,0.08236 0.01095,0.125616 z"
       fill="#be5ae6"
       stroke-width="0.0282998"
       id="path334" />
    <path
       style="color:#000000;font-style:normal;font-variant:normal;font-weight:normal;font-stretch:normal;font-size:medium;line-height:normal;font-family:sans-serif;font-variant-ligatures:normal;font-variant-position:normal;font-variant-caps:normal;font-variant-numeric:normal;font-variant-alternates:normal;font-variant-east-asian:normal;font-feature-settings:normal;font-variation-settings:normal;text-indent:0;text-align:start;text-decoration:none;text-decoration-line:none;text-decoration-style:solid;text-decoration-color:#000000;letter-spacing:normal;word-spacing:normal;text-transform:none;writing-mode:lr-tb;direction:ltr;text-orientation:mixed;dominant-baseline:auto;baseline-shift:baseline;text-anchor:start;white-space:normal;shape-padding:0;shape-margin:0;inline-size:0;clip-rule:nonzero;display:inline;overflow:visible;visibility:visible;isolation:auto;mix-blend-mode:normal;color-interpolation:sRGB;color-interpolation-filters:linearRGB;solid-color:#000000;solid-opacity:1;vector-effect:none;fill:url(#linearGradient6315);fill-opacity:1;fill-rule:nonzero;stroke-width:0.29083;stroke-linecap:butt;stroke-linejoin:miter;stroke-miterlimit:4;stroke-dasharray:none;stroke-dashoffset:0;stroke-opacity:1;color-rendering:auto;image-rendering:auto;shape-rendering:auto;text-rendering:auto;enable-background:accumulate;stop-color:#000000;stop-opacity:1;stroke:none;opacity:1"
       d="m 10.660295,1.8510825 0.0061,13.2287865 1.000278,0.02951 c 0.292417,0.02986 0.580575,-0.298265 0.646086,-0.735595 L 14.017985,2.9945911 C 14.083522,2.5572349 13.868997,1.9238453 13.576577,1.8939739 Z"
       id="path2768" />
    <g
       id="g963"
       transform="translate(-10.079503,2.085864)">
      <path
         id="rect8753"
         style="fill:url(#linearGradient11574);fill-opacity:1;stroke-width:0.132292;stroke-linecap:round;paint-order:stroke fill markers"
         d="m 16.30445,-0.89472321 c -0.667417,0 -1.23854,0.0189074 -1.743563,0.061495 -1.601741,0.27407094 -2.870426,1.49771471 -3.203939,3.07784811 -5e-5,4.763e-4 5.1e-5,0.00156 0,0.00206 -0.06353,0.6088451 -0.08591,1.334876 -0.08682,2.1941848 V 8.320731 c 9e-4,0.8599562 0.02315,1.5870785 0.08682,2.196248 0.332945,1.579429 1.599942,2.803019 3.200322,3.078365 0.505849,0.04285 1.078208,0.0615 1.74718,0.0615 h 4.220414 c 0.007,-0.01576 0.01809,-0.02904 0.02481,-0.04496 0.102804,-0.243867 0.182586,-0.500177 0.236678,-0.765845 0.05409,-0.265694 0.08268,-0.54108 0.08268,-0.823205 V 0.73980222 c 0,-0.28212486 -0.02859,-0.55753735 -0.08268,-0.82320547 -0.05409,-0.26569453 -0.133874,-0.52197825 -0.236678,-0.76584471 -0.0068,-0.0160538 -0.01784,-0.0295262 -0.02481,-0.0454752 z" />
      <g
         transform="matrix(0.02336774,-0.00327501,0.00327501,0.02336774,10.570097,0.0227724)"
         font-family="'TeX Gyre Heros Cn'"
         font-size="242px"
         font-stretch="condensed"
         font-weight="bold"
         letter-spacing="0"
         stroke-width="2.5208"
         word-spacing="0"
         id="g922">
        <text
           transform="rotate(8.0245)"
           x="127.89007"
           y="393.12497"
           fill="#ffffff"
           font-size="344.96px"
           stroke-width="3.5933"
           id="text920"><tspan
             x="127.89007"
             y="393.12497"
             stroke-width="3.5933"
             id="tspan918">B</tspan></text>
      </g>
    </g>
  </g>
</svg>
