<?xml version="1.0" encoding="UTF-8" standalone="no"?>
<svg
   xmlns:dc="http://purl.org/dc/elements/1.1/"
   xmlns:cc="http://creativecommons.org/ns#"
   xmlns:rdf="http://www.w3.org/1999/02/22-rdf-syntax-ns#"
   xmlns:svg="http://www.w3.org/2000/svg"
   xmlns="http://www.w3.org/2000/svg"
   xmlns:xlink="http://www.w3.org/1999/xlink"
   xmlns:sodipodi="http://sodipodi.sourceforge.net/DTD/sodipodi-0.dtd"
   xmlns:inkscape="http://www.inkscape.org/namespaces/inkscape"
   width="64"
   height="64"
   version="1.1"
   id="svg51"
   sodipodi:docname="lightsoff.svg"
   inkscape:version="1.0.2 (e86c870879, 2021-01-15)">
  <metadata
     id="metadata55">
    <rdf:RDF>
      <cc:Work
         rdf:about="">
        <dc:format>image/svg+xml</dc:format>
        <dc:type
           rdf:resource="http://purl.org/dc/dcmitype/StillImage" />
        <dc:title></dc:title>
      </cc:Work>
    </rdf:RDF>
  </metadata>
  <sodipodi:namedview
     pagecolor="#ffffff"
     bordercolor="#666666"
     borderopacity="1"
     objecttolerance="10"
     gridtolerance="10"
     guidetolerance="10"
     inkscape:pageopacity="0"
     inkscape:pageshadow="2"
     inkscape:window-width="1920"
     inkscape:window-height="935"
     id="namedview53"
     showgrid="false"
     inkscape:zoom="8.5626212"
     inkscape:cx="34.398377"
     inkscape:cy="22.393891"
     inkscape:window-x="0"
     inkscape:window-y="38"
     inkscape:window-maximized="1"
     inkscape:current-layer="svg51" />
  <defs
     id="defs23">
    <linearGradient
       id="linearGradient855"
       x1="30.644"
       x2="30.373"
       y1="48.678"
       y2="15.051"
       gradientUnits="userSpaceOnUse">
      <stop
         stop-color="#2673cf"
         offset="0"
         id="stop2" />
      <stop
         stop-color="#26bbcf"
         offset="1"
         id="stop4" />
    </linearGradient>
    <linearGradient
       id="linearGradient863"
       x1="31.322"
       x2="31.051"
       y1="48.136"
       y2="15.322"
       gradientUnits="userSpaceOnUse">
      <stop
         stop-color="#2e2e2e"
         offset="0"
         id="stop7" />
      <stop
         stop-color="#606060"
         offset="1"
         id="stop9" />
    </linearGradient>
    <filter
       id="filter883"
       x="-.06"
       y="-.06"
       width="1.12"
       height="1.12"
       color-interpolation-filters="sRGB">
      <feGaussianBlur
         stdDeviation="0.8"
         id="feGaussianBlur12" />
    </filter>
    <filter
       id="filter905"
       x="-.06"
       y="-.06"
       width="1.12"
       height="1.12"
       color-interpolation-filters="sRGB">
      <feGaussianBlur
         stdDeviation="0.8"
         id="feGaussianBlur15" />
    </filter>
    <linearGradient
       id="linearGradient862-3"
       x1="7.9373"
       x2="7.9373"
       y1="15.081"
       y2="1.852"
       gradientTransform="matrix(3.7795,0,0,3.7795,8.7434899,-8.4340134)"
       gradientUnits="userSpaceOnUse">
      <stop
         stop-color="#f1efeb"
         offset="0"
         id="stop18" />
      <stop
         stop-color="#fdfcfc"
         offset="1"
         id="stop20" />
    </linearGradient>
    <filter
       id="filter2761"
       x="-.024"
       y="-.024"
       width="1.048"
       height="1.048"
       color-interpolation-filters="sRGB">
      <feGaussianBlur
         stdDeviation="0.14552168"
         id="feGaussianBlur2" />
    </filter>
    <linearGradient
       id="a-9"
       x1="23.487"
       x2="23.487"
       y1="15.18"
       y2="32.913"
       gradientTransform="matrix(.12676 0 0 .12676 -27.515 6.7925)"
       gradientUnits="userSpaceOnUse">
      <stop
         stop-color="#141414"
         offset="0"
         id="stop5" />
      <stop
         stop-color="#30277f"
         offset="1"
         id="stop7-3" />
    </linearGradient>
    <radialGradient
       id="c-7"
       cx="24.047"
       cy="23.949"
       r="2.9867"
       gradientTransform="matrix(0.2056,-3.7539e-8,2.8431e-8,0.15571,-39.607,5.456)"
       gradientUnits="userSpaceOnUse">
      <stop
         stop-color="#2839e6"
         offset="0"
         id="stop10" />
      <stop
         stop-opacity="0"
         offset="1"
         id="stop12" />
    </radialGradient>
    <linearGradient
       id="d-6"
       x1="361.36"
       x2="361.36"
       y1="616.07"
       y2="722.79"
       gradientTransform="matrix(.0040372 0 0 .0040372 -25.925 7.1257)"
       gradientUnits="userSpaceOnUse">
      <stop
         stop-color="#fff"
         offset="0"
         id="stop15" />
      <stop
         stop-color="#fff"
         stop-opacity="0"
         offset="1"
         id="stop17" />
    </linearGradient>
    <radialGradient
       id="radialGradient123131"
       cx="-24.473"
       cy="9.8348"
       r="1.1409"
       gradientTransform="matrix(1.4202,0,0,1.0512,0.054505,-1.1471)"
       gradientUnits="userSpaceOnUse"
       xlink:href="#a-9" />
    <linearGradient
       id="linearGradient123141"
       x1="-24.485"
       x2="-24.485"
       y1="8.6962"
       y2="9.7506"
       gradientTransform="translate(-10.196,-0.6431)"
       gradientUnits="userSpaceOnUse"
       xlink:href="#d-6" />
    <linearGradient
       id="linearGradient123149"
       x1="-24.478"
       x2="-24.478"
       y1="11.104"
       y2="8.4912"
       gradientTransform="translate(-10.229,-0.6431)"
       gradientUnits="userSpaceOnUse">
      <stop
         stop-color="#2d1edc"
         offset="0"
         id="stop22" />
      <stop
         stop-color="#141414"
         offset="1"
         id="stop24" />
    </linearGradient>
    <radialGradient
       id="radialGradient123155"
       cx="-24.473"
       cy="9.8348"
       r="1.1409"
       gradientTransform="matrix(1.1403,0,0,0.84405,-6.7958,0.89063)"
       gradientUnits="userSpaceOnUse"
       xlink:href="#a-9" />
    <linearGradient
       id="linearGradient123157"
       x1="-24.478"
       x2="-24.478"
       y1="11.104"
       y2="8.4912"
       gradientTransform="matrix(0.8029,0,0,0.8029,-15.053,1.2953)"
       gradientUnits="userSpaceOnUse"
       xlink:href="#a-9" />
    <radialGradient
       id="radialGradient123159"
       cx="-24.473"
       cy="9.8348"
       r="1.5211"
       gradientTransform="matrix(0.93082,0,0,0.93082,-11.889,0.037279)"
       gradientUnits="userSpaceOnUse">
      <stop
         stop-color="#291dc0"
         offset="0"
         id="stop29" />
      <stop
         stop-color="#1b1b23"
         offset="1"
         id="stop31" />
    </radialGradient>
    <linearGradient
       id="linearGradient123161"
       x1="361.36"
       x2="361.36"
       y1="616.07"
       y2="722.79"
       gradientTransform="matrix(0.0040372,0,0,0.0040372,-36.122,6.4826)"
       gradientUnits="userSpaceOnUse"
       xlink:href="#d-6" />
    <linearGradient
       id="linearGradient123197"
       x1="-36.117"
       x2="-33.22"
       y1="10.638"
       y2="7.7404"
       gradientUnits="userSpaceOnUse">
      <stop
         offset="0"
         id="stop35" />
      <stop
         stop-opacity="0"
         offset="1"
         id="stop37" />
    </linearGradient>
    <linearGradient
       id="linearGradient952"
       x1="-20.384"
       x2="-23.272"
       y1="6.1331"
       y2="15.312"
       gradientUnits="userSpaceOnUse">
      <stop
         stop-color="#232323"
         offset="0"
         id="stop40" />
      <stop
         stop-color="#323296"
         offset=".95004"
         id="stop42" />
      <stop
         stop-color="#232323"
         offset="1"
         id="stop44" />
    </linearGradient>
    <linearGradient
       id="linearGradient1000"
       x1="-25.122"
       x2="-15.582"
       y1="9.3424"
       y2="9.3424"
       gradientUnits="userSpaceOnUse">
      <stop
         stop-color="#407fff"
         offset="0"
         id="stop47" />
      <stop
         stop-color="#ff407a"
         offset="1"
         id="stop49" />
    </linearGradient>
    <linearGradient
       id="linearGradient1024"
       x1="1.3315"
       x2="15.65"
       y1="15.576"
       y2="1.17"
       gradientUnits="userSpaceOnUse">
      <stop
         stop-color="#dddfe1"
         offset="0"
         id="stop52" />
      <stop
         stop-color="#f3f4f6"
         stop-opacity=".99608"
         offset="1"
         id="stop54" />
    </linearGradient>
    <filter
       color-interpolation-filters="sRGB"
       height="1.048"
       width="1.048"
       y="-.024"
       x="-.024"
       id="filter2761-3">
      <feGaussianBlur
         id="feGaussianBlur2-3"
         stdDeviation="0.14552168" />
    </filter>
    <linearGradient
       gradientUnits="userSpaceOnUse"
       gradientTransform="matrix(3.7796 0 0 3.7796 -.0026448 .53066)"
       y2="1.17"
       y1="15.576"
       x2="15.65"
       x1="1.3315"
       id="linearGradient1024-6">
      <stop
         id="stop5-7"
         offset="0"
         stop-color="#dddfe1" />
      <stop
         id="stop7-5"
         offset="1"
         stop-opacity=".99608"
         stop-color="#f3f4f6" />
    </linearGradient>
    <filter
       inkscape:collect="always"
       style="color-interpolation-filters:sRGB"
       id="filter1057"
       x="-0.027000001"
       width="1.054"
       y="-0.027000001"
       height="1.054">
      <feGaussianBlur
         inkscape:collect="always"
         stdDeviation="0.61875"
         id="feGaussianBlur1059" />
    </filter>
    <linearGradient
       inkscape:collect="always"
       xlink:href="#linearGradient1051"
       id="linearGradient1053"
       x1="-127"
       y1="60"
       x2="-72"
       y2="5"
       gradientUnits="userSpaceOnUse"
       gradientTransform="translate(131.5,-0.50999736)" />
    <linearGradient
       inkscape:collect="always"
       id="linearGradient1051">
      <stop
         style="stop-color:#dee0e2;stop-opacity:1"
         offset="0"
         id="stop1047" />
      <stop
         style="stop-color:#f1f3f5;stop-opacity:0.99607843"
         offset="1"
         id="stop1049" />
    </linearGradient>
  </defs>
  <rect
     ry="15"
     y="4.4999995"
     x="4.4999995"
     height="55"
     width="55"
     id="rect1055"
     style="opacity:0.3;fill:#141414;fill-opacity:1;stroke-width:2.74436;stroke-linecap:round;filter:url(#filter1057)" />
  <rect
     style="fill:url(#linearGradient1053);fill-opacity:1;stroke-width:2.74436;stroke-linecap:round"
     id="rect1045"
     width="54.999996"
     height="54.999996"
     x="4.5000019"
     y="4.5000019"
     ry="14.999999" />
  <path
     d="m 18.667,16 c -1.4787,0 -2.6667,1.188 -2.6667,2.6667 v 10.667 c 0,1.4733 1.188,2.6667 2.6667,2.6667 h 10.667 c 1.4733,0 2.6667,-1.1933 2.6667,-2.6667 V 18.6667 C 32.0007,17.188 30.8074,16 29.334,16 Z m 0,1.3333 h 10.667 c 0.74,0 1.3333,0.59333 1.3333,1.3333 v 10.667 c 0,0.74 -0.59333,1.3333 -1.3333,1.3333 H 18.667 c -0.74,0 -1.3333,-0.59333 -1.3333,-1.3333 v -10.667 c 0,-0.74 0.59333,-1.3333 1.3333,-1.3333 z m 1.3333,1.3333 c -0.74,0 -1.3333,0.59333 -1.3333,1.3333 v 8 c 0,0.73467 0.59333,1.3333 1.3333,1.3333 h 8 c 0.73467,0 1.3333,-0.59867 1.3333,-1.3333 v -8 c 0,-0.74 -0.59867,-1.3333 -1.3333,-1.3333 z m 14.667,13.333 c -1.4787,0 -2.6667,1.188 -2.6667,2.6667 v 10.667 c 0,1.4733 1.188,2.6667 2.6667,2.6667 h 10.667 c 1.4733,0 2.6667,-1.1933 2.6667,-2.6667 v -10.667 c 0,-1.4787 -1.1933,-2.6667 -2.6667,-2.6667 z m 0,1.3333 h 10.667 c 0.74,0 1.3333,0.59333 1.3333,1.3333 v 10.667 c 0,0.74 -0.59333,1.3333 -1.3333,1.3333 h -10.667 c -0.74,0 -1.3333,-0.59333 -1.3333,-1.3333 v -10.667 c 0,-0.74 0.59333,-1.3333 1.3333,-1.3333 z m 1.3333,1.3333 c -0.74,0 -1.3333,0.59333 -1.3333,1.3333 v 8 c 0,0.73467 0.59333,1.3333 1.3333,1.3333 h 8 c 0.73467,0 1.3333,-0.59867 1.3333,-1.3333 v -8 c 0,-0.74 -0.59867,-1.3333 -1.3333,-1.3333 z"
     filter="url(#filter883)"
     opacity="0.15"
     id="path41"
     style="stroke-width:1.3333" />
  <path
     style="color:#000000;font-style:normal;font-variant:normal;font-weight:normal;font-stretch:normal;font-size:medium;line-height:normal;font-family:sans-serif;font-variant-ligatures:normal;font-variant-position:normal;font-variant-caps:normal;font-variant-numeric:normal;font-variant-alternates:normal;font-variant-east-asian:normal;font-feature-settings:normal;font-variation-settings:normal;text-indent:0;text-align:start;text-decoration:none;text-decoration-line:none;text-decoration-style:solid;text-decoration-color:#000000;letter-spacing:normal;word-spacing:normal;text-transform:none;writing-mode:lr-tb;direction:ltr;text-orientation:mixed;dominant-baseline:auto;baseline-shift:baseline;text-anchor:start;white-space:normal;shape-padding:0;shape-margin:0;inline-size:0;clip-rule:nonzero;display:inline;overflow:visible;visibility:visible;isolation:auto;mix-blend-mode:normal;color-interpolation:sRGB;color-interpolation-filters:linearRGB;solid-color:#000000;solid-opacity:1;vector-effect:none;fill:#2e2e2e;fill-opacity:1;fill-rule:nonzero;stroke-width:1.3333;stroke-linecap:butt;stroke-linejoin:miter;stroke-miterlimit:4;stroke-dasharray:none;stroke-dashoffset:0;stroke-opacity:1;color-rendering:auto;image-rendering:auto;shape-rendering:auto;text-rendering:auto;enable-background:accumulate;stop-color:#000000;stop-opacity:1;stroke:none;opacity:1"
     d="m 18.667,16 c -1.4787,0 -2.6667,1.188 -2.6667,2.6667 v 10.667 c 0,1.4733 1.188,2.6667 2.6667,2.6667 h 10.667 c 1.4733,0 2.6667,-1.1933 2.6667,-2.6667 V 18.6667 C 32.0007,17.188 30.8074,16 29.334,16 Z m 0,1.3333 h 10.667 c 0.74,0 1.3333,0.59333 1.3333,1.3333 v 10.667 c 0,0.74 -0.59333,1.3333 -1.3333,1.3333 H 18.667 c -0.74,0 -1.3333,-0.59333 -1.3333,-1.3333 v -10.667 c 0,-0.74 0.59333,-1.3333 1.3333,-1.3333 z m 1.3333,1.3333 c -0.74,0 -1.3333,0.59333 -1.3333,1.3333 v 8 c 0,0.73467 0.59333,1.3333 1.3333,1.3333 h 8 c 0.73467,0 1.3333,-0.59867 1.3333,-1.3333 v -8 c 0,-0.74 -0.59867,-1.3333 -1.3333,-1.3333 z m 14.667,13.333 c -1.4787,0 -2.6667,1.188 -2.6667,2.6667 v 10.667 c 0,1.4733 1.188,2.6667 2.6667,2.6667 h 10.667 c 1.4733,0 2.6667,-1.1933 2.6667,-2.6667 v -10.667 c 0,-1.4787 -1.1933,-2.6667 -2.6667,-2.6667 z m 0,1.3333 h 10.667 c 0.74,0 1.3333,0.59333 1.3333,1.3333 v 10.667 c 0,0.74 -0.59333,1.3333 -1.3333,1.3333 h -10.667 c -0.74,0 -1.3333,-0.59333 -1.3333,-1.3333 v -10.667 c 0,-0.74 0.59333,-1.3333 1.3333,-1.3333 z m 1.3333,1.3333 c -0.74,0 -1.3333,0.59333 -1.3333,1.3333 v 8 c 0,0.73467 0.59333,1.3333 1.3333,1.3333 h 8 c 0.73467,0 1.3333,-0.59867 1.3333,-1.3333 v -8 c 0,-0.74 -0.59867,-1.3333 -1.3333,-1.3333 z"
     id="path43" />
  <path
     d="m 34.667,16 c -1.4787,0 -2.6667,1.188 -2.6667,2.6667 v 10.667 c 0,1.4733 1.188,2.6667 2.6667,2.6667 h 10.667 c 1.4733,0 2.6667,-1.1933 2.6667,-2.6667 V 18.6667 C 48.0007,17.188 46.8074,16 45.334,16 Z m 0,1.3333 h 10.667 c 0.74,0 1.3333,0.59333 1.3333,1.3333 v 10.667 c 0,0.74 -0.59333,1.3333 -1.3333,1.3333 H 34.667 c -0.74,0 -1.3333,-0.59333 -1.3333,-1.3333 v -10.667 c 0,-0.74 0.59333,-1.3333 1.3333,-1.3333 z m 1.3333,1.3333 c -0.74,0 -1.3333,0.59333 -1.3333,1.3333 v 8 c 0,0.73467 0.59333,1.3333 1.3333,1.3333 h 8 c 0.73467,0 1.3333,-0.59867 1.3333,-1.3333 v -8 c 0,-0.74 -0.59867,-1.3333 -1.3333,-1.3333 z m -17.333,13.333 c -1.4787,0 -2.6667,1.188 -2.6667,2.6667 v 10.667 c 0,1.4733 1.188,2.6667 2.6667,2.6667 h 10.667 c 1.4733,0 2.6667,-1.1933 2.6667,-2.6667 v -10.667 c 0,-1.4787 -1.1933,-2.6667 -2.6667,-2.6667 z m 0,1.3333 h 10.667 c 0.74,0 1.3333,0.59333 1.3333,1.3333 v 10.667 c 0,0.74 -0.59333,1.3333 -1.3333,1.3333 h -10.667 c -0.74,0 -1.3333,-0.59333 -1.3333,-1.3333 v -10.667 c 0,-0.74 0.59333,-1.3333 1.3333,-1.3333 z m 1.3333,1.3333 c -0.74,0 -1.3333,0.59333 -1.3333,1.3333 v 8 c 0,0.73467 0.59333,1.3333 1.3333,1.3333 h 8 c 0.73467,0 1.3333,-0.59867 1.3333,-1.3333 v -8 c 0,-0.74 -0.59867,-1.3333 -1.3333,-1.3333 z"
     filter="url(#filter905)"
     opacity="0.15"
     id="path45"
     style="stroke-width:1.3333" />
  <path
     style="color:#000000;font-style:normal;font-variant:normal;font-weight:normal;font-stretch:normal;font-size:medium;line-height:normal;font-family:sans-serif;font-variant-ligatures:normal;font-variant-position:normal;font-variant-caps:normal;font-variant-numeric:normal;font-variant-alternates:normal;font-variant-east-asian:normal;font-feature-settings:normal;font-variation-settings:normal;text-indent:0;text-align:start;text-decoration:none;text-decoration-line:none;text-decoration-style:solid;text-decoration-color:#000000;letter-spacing:normal;word-spacing:normal;text-transform:none;writing-mode:lr-tb;direction:ltr;text-orientation:mixed;dominant-baseline:auto;baseline-shift:baseline;text-anchor:start;white-space:normal;shape-padding:0;shape-margin:0;inline-size:0;clip-rule:nonzero;display:inline;overflow:visible;visibility:visible;isolation:auto;mix-blend-mode:normal;color-interpolation:sRGB;color-interpolation-filters:linearRGB;solid-color:#000000;solid-opacity:1;vector-effect:none;fill:#2673cf;fill-opacity:1;fill-rule:nonzero;stroke-width:1.3333;stroke-linecap:butt;stroke-linejoin:miter;stroke-miterlimit:4;stroke-dasharray:none;stroke-dashoffset:0;stroke-opacity:1;color-rendering:auto;image-rendering:auto;shape-rendering:auto;text-rendering:auto;enable-background:accumulate;stop-color:#000000;stop-opacity:1;stroke:none;opacity:1"
     d="m 34.667,16 c -1.4787,0 -2.6667,1.188 -2.6667,2.6667 v 10.667 c 0,1.4733 1.188,2.6667 2.6667,2.6667 h 10.667 c 1.4733,0 2.6667,-1.1933 2.6667,-2.6667 V 18.6667 C 48.0007,17.188 46.8074,16 45.334,16 Z m 0,1.3333 h 10.667 c 0.74,0 1.3333,0.59333 1.3333,1.3333 v 10.667 c 0,0.74 -0.59333,1.3333 -1.3333,1.3333 H 34.667 c -0.74,0 -1.3333,-0.59333 -1.3333,-1.3333 v -10.667 c 0,-0.74 0.59333,-1.3333 1.3333,-1.3333 z m 1.3333,1.3333 c -0.74,0 -1.3333,0.59333 -1.3333,1.3333 v 8 c 0,0.73467 0.59333,1.3333 1.3333,1.3333 h 8 c 0.73467,0 1.3333,-0.59867 1.3333,-1.3333 v -8 c 0,-0.74 -0.59867,-1.3333 -1.3333,-1.3333 z m -17.333,13.333 c -1.4787,0 -2.6667,1.188 -2.6667,2.6667 v 10.667 c 0,1.4733 1.188,2.6667 2.6667,2.6667 h 10.667 c 1.4733,0 2.6667,-1.1933 2.6667,-2.6667 v -10.667 c 0,-1.4787 -1.1933,-2.6667 -2.6667,-2.6667 z m 0,1.3333 h 10.667 c 0.74,0 1.3333,0.59333 1.3333,1.3333 v 10.667 c 0,0.74 -0.59333,1.3333 -1.3333,1.3333 h -10.667 c -0.74,0 -1.3333,-0.59333 -1.3333,-1.3333 v -10.667 c 0,-0.74 0.59333,-1.3333 1.3333,-1.3333 z m 1.3333,1.3333 c -0.74,0 -1.3333,0.59333 -1.3333,1.3333 v 8 c 0,0.73467 0.59333,1.3333 1.3333,1.3333 h 8 c 0.73467,0 1.3333,-0.59867 1.3333,-1.3333 v -8 c 0,-0.74 -0.59867,-1.3333 -1.3333,-1.3333 z"
     id="path47" />
</svg>
