<?xml version="1.0" encoding="UTF-8" standalone="no"?>
<svg
   viewBox="0 0 64 64"
   version="1.1"
   id="svg46"
   sodipodi:docname="lightworks.svg"
   width="64"
   height="64"
   inkscape:version="1.1 (c4e8f9ed74, 2021-05-24)"
   xmlns:inkscape="http://www.inkscape.org/namespaces/inkscape"
   xmlns:sodipodi="http://sodipodi.sourceforge.net/DTD/sodipodi-0.dtd"
   xmlns:xlink="http://www.w3.org/1999/xlink"
   xmlns="http://www.w3.org/2000/svg"
   xmlns:svg="http://www.w3.org/2000/svg">
  <sodipodi:namedview
     id="namedview48"
     pagecolor="#ffffff"
     bordercolor="#999999"
     borderopacity="1"
     inkscape:pageshadow="0"
     inkscape:pageopacity="0"
     inkscape:pagecheckerboard="0"
     showgrid="false"
     inkscape:zoom="2.078125"
     inkscape:cx="-57.503759"
     inkscape:cy="-13.473684"
     inkscape:window-width="1920"
     inkscape:window-height="954"
     inkscape:window-x="0"
     inkscape:window-y="40"
     inkscape:window-maximized="1"
     inkscape:current-layer="svg46" />
  <defs
     id="defs12">
    <linearGradient
       inkscape:collect="always"
       id="linearGradient1742">
      <stop
         style="stop-color:#ffffff;stop-opacity:1;"
         offset="0"
         id="stop1738" />
      <stop
         style="stop-color:#ff99b4;stop-opacity:1"
         offset="1"
         id="stop1740" />
    </linearGradient>
    <linearGradient
       id="linearGradient3764"
       x1="1"
       x2="47"
       gradientUnits="userSpaceOnUse"
       gradientTransform="rotate(-90,23.999998,24)">
      <stop
         style="stop-color:#1b3345;stop-opacity:1"
         id="stop2" />
      <stop
         offset="1"
         style="stop-color:#203d54;stop-opacity:1"
         id="stop4" />
    </linearGradient>
    <linearGradient
       id="linearGradient4239"
       y1="43"
       x2="0"
       y2="69"
       gradientUnits="userSpaceOnUse"
       gradientTransform="translate(73.828565,-32)">
      <stop
         style="stop-color:#d3dfe5;stop-opacity:1"
         id="stop7" />
      <stop
         offset="1"
         style="stop-color:#868c92;stop-opacity:1"
         id="stop9" />
    </linearGradient>
    <filter
       id="filter1057"
       x="-0.026999999"
       y="-0.026999999"
       width="1.054"
       height="1.054"
       color-interpolation-filters="sRGB">
      <feGaussianBlur
         stdDeviation="0.61875"
         id="feGaussianBlur886" />
    </filter>
    <linearGradient
       id="linearGradient1053"
       x1="-127"
       x2="-72"
       y1="60"
       y2="5"
       gradientTransform="matrix(1.0000071,0,0,1.0000071,158.27993,6.2796482)"
       gradientUnits="userSpaceOnUse">
      <stop
         stop-color="#ff7d50"
         offset="0"
         id="stop889" />
      <stop
         stop-color="#ff4b5a"
         offset=".50594"
         id="stop891" />
      <stop
         stop-color="#ff509b"
         offset="1"
         id="stop893" />
    </linearGradient>
    <linearGradient
       inkscape:collect="always"
       xlink:href="#linearGradient1742"
       id="linearGradient1744"
       x1="14.79281"
       y1="49.538773"
       x2="49.24976"
       y2="14.267911"
       gradientUnits="userSpaceOnUse" />
  </defs>
  <g
     id="g32">
    <g
       id="g30">
      <g
         transform="translate(1,1)"
         id="g28">
        <g
           style="opacity:0.1"
           id="g26">
          <!-- color: #1d384d -->
        </g>
      </g>
    </g>
  </g>
  <g
     id="g36">
    <g
       id="g34">
      <!-- color: #1d384d -->
    </g>
  </g>
  <g
     id="g890"
     transform="translate(-26.780245,-6.7898577)">
    <rect
       transform="matrix(1.0000071,0,0,1.0000071,26.780017,6.7896299)"
       x="4.5"
       y="4.5"
       width="55"
       height="55"
       ry="15"
       fill="#141414"
       filter="url(#filter1057)"
       opacity="0.3"
       stroke-linecap="round"
       stroke-width="2.7444"
       id="rect898" />
    <rect
       x="31.280012"
       y="11.289624"
       width="55.000767"
       height="55.000767"
       ry="15.000106"
       fill="url(#linearGradient1053)"
       stroke-linecap="round"
       stroke-width="2.74437"
       id="rect900"
       style="fill:url(#linearGradient1053)" />
  </g>
  <path
     d="m 22.576911,14.5 a 8.0769231,8.0769231 0 0 0 -8.076923,8.076923 8.0769231,8.0769231 0 0 0 8.076923,8.076923 8.0769231,8.0769231 0 0 0 0.107692,-0.0054 9.4230769,9.4230769 0 0 1 7.966539,-7.966539 8.0769231,8.0769231 0 0 0 0.0027,-0.105 A 8.0769231,8.0769231 0 0 0 22.576911,14.5 m 18.846161,0 a 8.0769231,8.0769231 0 0 0 -8.07693,8.076923 8.0769231,8.0769231 0 0 0 0.0054,0.107692 9.4230769,9.4230769 0 0 1 7.966546,7.966539 8.0769231,8.0769231 0 0 0 0.105,0.0027 8.0769231,8.0769231 0 0 0 8.076923,-8.076923 A 8.0769231,8.0769231 0 0 0 41.423072,14.5 m -10.769238,9.538846 a 8.0769231,8.0769231 0 0 0 -6.609615,6.615 h 6.609615 v -6.609615 m 2.692308,0.0054 v 6.604231 h 6.615007 a 8.0769231,8.0769231 0 0 0 -6.615007,-6.609631 m -10.769231,9.301923 a 8.0769231,8.0769231 0 0 0 -8.076923,8.076923 8.0769231,8.0769231 0 0 0 8.076923,8.076923 8.0769231,8.0769231 0 0 0 8.076923,-8.076923 8.0769231,8.0769231 0 0 0 -0.0054,-0.107692 9.4230769,9.4230769 0 0 1 -7.963847,-7.969231 8.0769231,8.0769231 0 0 0 -0.107692,0 m 1.461923,0 a 8.0769231,8.0769231 0 0 0 6.615,6.609615 v -6.609615 h -6.609615 m 9.301923,0 v 6.615 a 8.0769231,8.0769231 0 0 0 6.609622,-6.615 h -6.609622 m 8.07693,0 a 8.0769231,8.0769231 0 0 0 -0.107693,0 9.4230769,9.4230769 0 0 1 -7.969237,7.971923 8.0769231,8.0769231 0 0 0 0,0.105 8.0769231,8.0769231 0 0 0 8.076946,8.076923 8.0769231,8.0769231 0 0 0 8.076923,-8.076923 8.0769231,8.0769231 0 0 0 -8.076923,-8.076923 z"
     style="opacity:1;fill:url(#linearGradient1744);fill-opacity:1;stroke:none;stroke-width:1.34615"
     id="path892" />
</svg>
