<?xml version="1.0" encoding="UTF-8"?>
<svg width="64" height="64" version="1.1" viewBox="0 0 16.933 16.933" xmlns="http://www.w3.org/2000/svg" xmlns:cc="http://creativecommons.org/ns#" xmlns:dc="http://purl.org/dc/elements/1.1/" xmlns:rdf="http://www.w3.org/1999/02/22-rdf-syntax-ns#">
 <defs>
  <style type="text/css"/>
  <style type="text/css"/>
  <style type="text/css"/>
  <filter id="filter1057" x="-.027" y="-.027" width="1.054" height="1.054" color-interpolation-filters="sRGB">
   <feGaussianBlur stdDeviation="0.61875"/>
  </filter>
  <linearGradient id="linearGradient1053" x1="-127" x2="-72" y1="60" y2="5" gradientTransform="matrix(.26458 0 0 .26458 34.792 -.13493)" gradientUnits="userSpaceOnUse">
   <stop stop-color="#a0b9cd" offset="0"/>
   <stop stop-color="#96b4c8" offset=".48567"/>
   <stop stop-color="#a0b9cd" offset="1"/>
  </linearGradient>
 </defs>
 <metadata>
  <rdf:RDF>
   <cc:Work rdf:about="">
    <dc:format>image/svg+xml</dc:format>
    <dc:type rdf:resource="http://purl.org/dc/dcmitype/StillImage"/>
    <dc:title/>
   </cc:Work>
  </rdf:RDF>
 </metadata>
 <rect transform="scale(.26458)" x="4.5" y="4.5" width="55" height="55" ry="15" fill="#141414" filter="url(#filter1057)" opacity=".3" stroke-linecap="round" stroke-width="2.7444"/>
 <rect x="1.1906" y="1.1906" width="14.552" height="14.552" ry="3.9687" fill="url(#linearGradient1053)" stroke-linecap="round" stroke-width=".72611"/>
 <g fill="#5e4aa6" stroke-width=".26458">
  <circle cx="-349.19" cy="-328.5" r="0"/>
  <circle cx="-58.266" cy="6.31" r="0" fill-rule="evenodd"/>
  <circle cx="-369.32" cy="-328" r="0"/>
  <circle cx="-78.401" cy="6.83" r="0" fill-rule="evenodd"/>
 </g>
 <path d="m8.6422 4.6167c-0.28243 0-0.52739 0.019761-0.73431 0.05891v2.7894h0.44906v-1.187h0.28111c0.151 0 0.26535 0.039011 0.34364 0.1173 0.081088 0.0755 0.1412 0.20828 0.18035 0.39842 0.078291 0.36351 0.13974 0.58738 0.18448 0.67126h0.46973c-0.025167-0.047534-0.05697-0.14532-0.096116-0.29352-0.02517-0.089485-0.066034-0.2519-0.12195-0.48678-0.072702-0.302-0.20548-0.48953-0.39842-0.56223v-0.0082681c0.1482-0.053125 0.26842-0.13835 0.36069-0.25579 0.10346-0.13142 0.15554-0.28396 0.15554-0.45733 0-0.23767-0.078536-0.42336-0.23512-0.55758-0.17617-0.151-0.45561-0.22686-0.83869-0.22686zm5.3768 0.018086v2.8272h0.4196v-1.0738c0-0.48373-0.0098-0.88342-0.02946-1.1994l0.0124-0.00413c0.12583 0.288 0.29361 0.60915 0.50332 0.96426l0.28525 0.47955v-0.8511l-0.6878-1.1425zm-7.9911 0.0031-0.91 2.8272h0.46973l0.25166-0.83042h0.91827l0.26458 0.83042h0.48213l-0.91414-2.8272zm4.1816 0v2.8272h0.4196v-1.0738c0-0.48374-0.0099-0.88342-0.02946-1.1994l0.01292-0.00465c0.12581 0.28801 0.2936 0.60965 0.50332 0.96478l0.77978 1.3131h0.4656v-2.8272h-0.42374v1.0526c1e-6 0.46415 0.01574 0.85581 0.04651 1.1746l-0.0088 0.00413c-0.13977-0.32157-0.30036-0.63333-0.48212-0.93532l-0.7803-1.296zm2.7527 0v2.8272h0.45268v-2.8272zm-11.2 5.176e-4 0.6878 2.8266h0.48265l0.35191-1.3756c0.09228-0.36069 0.15825-0.6626 0.1974-0.90587h0.00827c0.03076 0.24883 0.08685 0.55074 0.16794 0.90587l0.31005 1.3756h0.47851l0.76325-2.8266h-0.46146l-0.31884 1.3296-0.016536 0.071312c-0.0755 0.32156-0.13695 0.62479-0.18448 0.91h-0.00878c-0.036355-0.27684-0.09647-0.59849-0.18035-0.96478l-0.29765-1.3461h-0.46973l-0.32711 1.3337c-0.10625 0.43062-0.17758 0.75896-0.21394 0.98545h-0.00827c-0.058718-0.34112-0.12202-0.66814-0.18913-0.98132l-0.28938-1.3379zm6.9219 0.32245c0.38586 0.00281 0.57876 0.16523 0.57876 0.48678 0 0.1482-0.053423 0.26842-0.15968 0.36069-0.10625 0.089478-0.2484 0.13384-0.42736 0.13384h-0.31884v-0.95186c0.0727-0.019571 0.1817-0.029455 0.32711-0.029455zm-2.3962 0.054259h0.00879c0.0699 0.27963 0.11746 0.45727 0.14262 0.53277l0.23874 0.73844h-0.75911l0.23512-0.73844c0.06151-0.23489 0.10587-0.41254 0.13384-0.53277zm-4.565 4.4244v1.1012l0.060977-0.1912c0.06151-0.23488 0.1064-0.41254 0.13436-0.53277h0.00827c0.06991 0.27962 0.11746 0.45728 0.14262 0.53277l0.23874 0.73792h-0.58497v0.34829h0.66506l0.26406 0.83042h0.48265l-0.91466-2.8266zm1.1916 0.0031 0.87642 1.6443v1.1823h0.45319v-1.1953l0.92241-1.6314h-0.51159l-0.35656 0.74206c-0.10905 0.22929-0.19294 0.42084-0.25166 0.57463h-0.00827c-0.064308-0.15659-0.14954-0.34814-0.25579-0.57463l-0.35243-0.74206zm7.3705 0.052192c-0.29919 0-0.5455 0.068656-0.73844 0.20567l0.1049 0.33124c0.16776-0.11465 0.3481-0.17208 0.54104-0.17208 0.1454 0 0.25626 0.034994 0.33176 0.1049 0.0755 0.067109 0.11317 0.15501 0.11317 0.26406 0 0.13422-0.0633 0.24054-0.18913 0.31884-0.10625 0.06431-0.23049 0.09663-0.3731 0.09663h-0.2098v0.33124h0.21394c0.18175 0 0.33028 0.04086 0.44492 0.12195 0.13422 0.08948 0.20102 0.21505 0.20102 0.37723 0.0028 0.12862-0.03889 0.23495-0.12557 0.31884-0.10346 0.10346-0.25065 0.15503-0.44079 0.15503-0.2181 0-0.41902-0.05424-0.60357-0.16329l-0.1049 0.34364c0.18456 0.12303 0.42633 0.18448 0.72552 0.18448 0.31598 0 0.56763-0.0807 0.75498-0.24288 0.17616-0.15098 0.26406-0.34388 0.26406-0.57876 0-0.18175-0.05558-0.33429-0.16743-0.45733-0.11185-0.12302-0.25317-0.20022-0.42374-0.23099v-0.0083c0.32996-0.12304 0.49505-0.33703 0.49505-0.64181 0-0.18455-0.06732-0.33658-0.20154-0.45681-0.1482-0.13422-0.35231-0.20153-0.61235-0.20153zm2.9098 0.00413c-0.06711 0-0.15367 0.00534-0.25993 0.016536-0.37748 0.041944-0.68257 0.17606-0.91466 0.40255-0.31038 0.3048-0.4656 0.71488-0.4656 1.2294 0 0.34673 0.08842 0.62752 0.26458 0.84283 0.17615 0.21531 0.4166 0.32297 0.72139 0.32297 0.27681 0 0.50152-0.09778 0.67488-0.29352 0.16777-0.18453 0.25166-0.40976 0.25166-0.6754 0-0.26562-0.07668-0.47829-0.23047-0.63768-0.151-0.16218-0.34522-0.24287-0.5829-0.24287-0.26285 0-0.47015 0.09325-0.62114 0.2806h-0.0124c0.03635-0.22091 0.1261-0.40524 0.26871-0.55344 0.16218-0.17057 0.37565-0.27422 0.64129-0.31057 0.09507-0.014039 0.18349-0.019383 0.26458-0.016536zm-6.8026 0.043412v0.37775h1.2831l-1.1405 2.3486h0.47386l1.1451-2.4324v-0.29403zm2.4597 0.72707c-0.083885 0-0.15254 0.02913-0.20567 0.08785-0.053127 0.05872-0.07958 0.13005-0.07958 0.21394 0 0.08668 0.02511 0.15935 0.075446 0.21807 0.053128 0.05593 0.12178 0.08371 0.20567 0.08371 0.086683 0 0.15668-0.02779 0.2098-0.08371 0.053127-0.05592 0.07958-0.12859 0.07958-0.21807 0-0.08669-0.026453-0.15802-0.07958-0.21394-0.050329-0.05872-0.11898-0.08785-0.20567-0.08785zm3.6591 0.52967c0.151 0 0.27122 0.05157 0.36069 0.15503 0.08948 0.10346 0.13436 0.24211 0.13436 0.41547h-5.17e-4c0 0.17057-0.03901 0.31004-0.1173 0.41909-0.08389 0.12024-0.19824 0.18035-0.34364 0.18035-0.17616 0-0.31213-0.07081-0.4072-0.21342-0.08382-0.12864-0.12684-0.29373-0.1297-0.49505-0.0028-0.05872 0.0084-0.11348 0.03359-0.16381 0.09787-0.19853 0.25443-0.29765 0.46973-0.29765zm-3.6633 0.9131c-0.083885 0-0.15254 0.02913-0.20567 0.08785-0.053126 0.05872-0.07958 0.13005-0.07958 0.21394 0 0.08668 0.02511 0.15935 0.075446 0.21807 0.053128 0.05593 0.12178 0.08423 0.20567 0.08423 0.086684 0 0.15668-0.0283 0.2098-0.08423 0.053127-0.05592 0.07958-0.12859 0.07958-0.21807 0-0.08669-0.026453-0.15802-0.07958-0.21394-0.050329-0.05872-0.11898-0.08785-0.20567-0.08785z" fill="#fff"/>
 <g transform="matrix(.26458 0 0 .26458 -18.54 2.4476e-8)" fill="#5e4aa6">
  <g transform="translate(-80.134,-57.985)" image-rendering="optimizeSpeed">
   <circle cx="-1248.7" cy="-1241.6" r="0"/>
   <circle cx="-149.15" cy="23.855" r="0" fill-rule="evenodd"/>
   <circle cx="-1248.7" cy="-1241.6" r="0"/>
   <circle cx="-149.15" cy="23.855" r="0" fill-rule="evenodd"/>
  </g>
  <circle cx="-1248.7" cy="-1241.6" r="0"/>
  <circle cx="-149.15" cy="23.855" r="0" fill-rule="evenodd"/>
  <g transform="matrix(3.7796,0,0,3.7796,5.8415e-4,-1.7177e-4)" stroke-width=".26458">
   <g transform="translate(-.0272 .0065001)">
    <circle cx="-330.35" cy="-328.38" r="0"/>
    <circle cx="-312.11" cy="-326.25" r="0"/>
    <circle cx="-306.02" cy="-333.07" r="0"/>
    <circle cx="-308.84" cy="-326.01" r="0"/>
    <circle cx="-330.35" cy="-328.38" r="0"/>
    <circle cx="-312.11" cy="-326.25" r="0"/>
    <circle cx="-306.02" cy="-333.07" r="0"/>
    <circle cx="-308.84" cy="-326.01" r="0"/>
   </g>
   <g transform="translate(-.02705 .0064503)">
    <circle cx="-330.35" cy="-328.38" r="0"/>
    <circle cx="-312.11" cy="-326.25" r="0"/>
    <circle cx="-306.02" cy="-333.07" r="0"/>
    <circle cx="-308.84" cy="-326.01" r="0"/>
   </g>
  </g>
  <g transform="translate(-79.199,-30.995)">
   <circle cx="-1248.7" cy="-1241.6" r="0"/>
   <circle cx="-1140.3" cy="-1301.8" r="0"/>
   <circle cx="-1158.1" cy="-1246" r="0"/>
  </g>
  <circle cx="-1236.5" cy="-1298.7" r="0"/>
  <circle cx="-136.95" cy="-33.178" r="0" fill-rule="evenodd"/>
 </g>
 <path transform="scale(.26458)" d="m19.5 4.5c-8.31 0-15 6.69-15 15v25c0 8.31 6.69 15 15 15h25c8.31 0 15-6.69 15-15v-25c0-8.31-6.69-15-15-15h-25zm0.087891 2.8105h24.824c6.802 0 12.277 5.4754 12.277 12.277v24.824c0 6.802-5.4754 12.277-12.277 12.277h-24.824c-6.802 0-12.277-5.4754-12.277-12.277v-24.824c0-6.802 5.4754-12.277 12.277-12.277z" fill="#cdebff"/>
</svg>
