<?xml version="1.0" encoding="UTF-8" standalone="no"?>
<svg
   xmlns:dc="http://purl.org/dc/elements/1.1/"
   xmlns:cc="http://creativecommons.org/ns#"
   xmlns:rdf="http://www.w3.org/1999/02/22-rdf-syntax-ns#"
   xmlns:svg="http://www.w3.org/2000/svg"
   xmlns="http://www.w3.org/2000/svg"
   xmlns:sodipodi="http://sodipodi.sourceforge.net/DTD/sodipodi-0.dtd"
   xmlns:inkscape="http://www.inkscape.org/namespaces/inkscape"
   height="64"
   width="64"
   version="1.1"
   id="svg22"
   sodipodi:docname="claws-mail.svg"
   inkscape:version="1.0.2 (e86c870879, 2021-01-15)">
  <metadata
     id="metadata28">
    <rdf:RDF>
      <cc:Work
         rdf:about="">
        <dc:format>image/svg+xml</dc:format>
        <dc:type
           rdf:resource="http://purl.org/dc/dcmitype/StillImage" />
        <dc:title></dc:title>
      </cc:Work>
    </rdf:RDF>
  </metadata>
  <defs
     id="defs26">
    <linearGradient
       id="b-3"
       x1="399.57001"
       x2="399.57001"
       y1="545.79999"
       y2="517.79999"
       gradientTransform="matrix(2.1429,0,0,2.1429,-826.34,-1107.5)"
       gradientUnits="userSpaceOnUse">
      <stop
         stop-color="#3889e9"
         offset="0"
         id="stop2-6" />
      <stop
         stop-color="#5ea5fb"
         offset="1"
         id="stop4-7" />
    </linearGradient>
    <linearGradient
       id="k"
       x1="543.79999"
       x2="503.79999"
       gradientTransform="matrix(0,1,-1.1667,0,-364.64085,-492.8)"
       gradientUnits="userSpaceOnUse">
      <stop
         stop-color="#197cf1"
         offset="0"
         id="stop7-5" />
      <stop
         stop-color="#21c9fb"
         offset="1"
         id="stop9-3" />
    </linearGradient>
    <linearGradient
       id="g"
       x2="0"
       y1="44"
       y2="20"
       gradientTransform="translate(88.029153,7)"
       gradientUnits="userSpaceOnUse">
      <stop
         stop-color="#eef1f2"
         offset="0"
         id="stop12" />
      <stop
         stop-color="#f9fafb"
         offset="1"
         id="stop14" />
    </linearGradient>
    <linearGradient
       id="i"
       x1="384.57001"
       x2="414.57001"
       gradientTransform="translate(-376.57,-492.8)"
       gradientUnits="userSpaceOnUse">
      <stop
         stop-opacity=".275"
         offset="0"
         id="stop17" />
      <stop
         stop-color="#fff"
         stop-opacity="0"
         offset="1"
         id="stop19" />
    </linearGradient>
    <linearGradient
       id="h"
       x1="432.57001"
       x2="421.01999"
       y1="547.79999"
       y2="527.79999"
       gradientTransform="translate(-376.57,-492.8)"
       gradientUnits="userSpaceOnUse">
      <stop
         stop-opacity=".082"
         offset="0"
         id="stop22" />
      <stop
         stop-opacity="0"
         offset="1"
         id="stop24" />
    </linearGradient>
    <linearGradient
       id="j"
       x1="384.57001"
       x2="394.57001"
       y1="547.79999"
       y2="530.47998"
       gradientTransform="translate(-376.57,-492.8)"
       gradientUnits="userSpaceOnUse">
      <stop
         stop-color="#fff"
         stop-opacity="0"
         offset="0"
         id="stop27" />
      <stop
         stop-color="#fff"
         stop-opacity=".314"
         offset="1"
         id="stop29" />
    </linearGradient>
    <filter
       id="f"
       x="-0.043714002"
       y="-0.0306"
       width="1.0874"
       height="1.0612"
       color-interpolation-filters="sRGB">
      <feGaussianBlur
         stdDeviation="0.51"
         id="feGaussianBlur32" />
    </filter>
    <filter
       id="d"
       x="-0.034200002"
       y="-0.037999999"
       width="1.0684"
       height="1.076"
       color-interpolation-filters="sRGB">
      <feGaussianBlur
         stdDeviation="0.57"
         id="feGaussianBlur35" />
    </filter>
    <filter
       id="a-5"
       x="-0.042844001"
       y="-0.10007"
       width="1.0857"
       height="1.2000999"
       color-interpolation-filters="sRGB">
      <feGaussianBlur
         stdDeviation="0.65543744"
         id="feGaussianBlur38" />
    </filter>
    <linearGradient
       id="linearGradient862"
       x1="7.9373002"
       x2="7.9373002"
       y1="15.081"
       y2="1.852"
       gradientTransform="matrix(3.7796,0,0,3.7796,80.029153,0)"
       gradientUnits="userSpaceOnUse">
      <stop
         stop-color="#343434"
         offset="0"
         id="stop41" />
      <stop
         stop-color="#767676"
         offset="1"
         id="stop43" />
    </linearGradient>
    <filter
       id="filter2761"
       x="-0.024"
       y="-0.024"
       width="1.048"
       height="1.048"
       color-interpolation-filters="sRGB">
      <feGaussianBlur
         stdDeviation="0.14552168"
         id="feGaussianBlur909" />
    </filter>
    <linearGradient
       id="linearGradient1024-1"
       x1="1.3315001"
       x2="15.65"
       y1="15.576"
       y2="1.17"
       gradientTransform="matrix(3.779602,0,0,3.779602,0.75200939,-15.469725)"
       gradientUnits="userSpaceOnUse">
      <stop
         stop-color="#00c8ff"
         offset="0"
         id="stop912" />
      <stop
         stop-color="#14a0ff"
         offset="1"
         id="stop914" />
    </linearGradient>
    <filter
       id="filter1655"
       x="-0.0735"
       y="-0.097999997"
       width="1.147"
       height="1.196"
       color-interpolation-filters="sRGB">
      <feGaussianBlur
         stdDeviation="0.32410824"
         id="feGaussianBlur917" />
    </filter>
    <filter
       id="filter2761-3"
       x="-0.024"
       y="-0.024"
       width="1.048"
       height="1.048"
       color-interpolation-filters="sRGB">
      <feGaussianBlur
         stdDeviation="0.14552168"
         id="feGaussianBlur2" />
    </filter>
    <linearGradient
       id="linearGradient1024"
       x1="1.3315001"
       x2="15.65"
       y1="15.576"
       y2="1.17"
       gradientUnits="userSpaceOnUse"
       gradientTransform="translate(0.7523229,-6.0494795)">
      <stop
         stop-color="#00c8ff"
         offset="0"
         id="stop5" />
      <stop
         stop-color="#14a0ff"
         offset="1"
         id="stop7-6" />
    </linearGradient>
    <filter
       id="filter914"
       x="-0.085106999"
       y="-0.082921997"
       width="1.1702"
       height="1.1658"
       color-interpolation-filters="sRGB">
      <feGaussianBlur
         stdDeviation="0.33551342"
         id="feGaussianBlur10" />
    </filter>
    <style
       type="text/css"
       id="style862" />
    <filter
       id="filter1057"
       x="-0.027000001"
       y="-0.027000001"
       width="1.054"
       height="1.054"
       color-interpolation-filters="sRGB">
      <feGaussianBlur
         stdDeviation="0.61875"
         id="feGaussianBlur864" />
    </filter>
    <linearGradient
       id="linearGradient1053"
       x1="-127"
       x2="-72"
       y1="60"
       y2="5"
       gradientTransform="translate(131.5,-0.51000031)"
       gradientUnits="userSpaceOnUse">
      <stop
         stop-color="#32d7ff"
         offset="0"
         id="stop867" />
      <stop
         stop-color="#329bff"
         offset="1"
         id="stop869" />
    </linearGradient>
    <style
       type="text/css"
       id="style872" />
    <style
       type="text/css"
       id="style874" />
    <style
       type="text/css"
       id="style876" />
    <style
       type="text/css"
       id="style878" />
    <style
       type="text/css"
       id="style880" />
    <style
       type="text/css"
       id="style882" />
    <style
       type="text/css"
       id="style884" />
  </defs>
  <sodipodi:namedview
     pagecolor="#ffffff"
     bordercolor="#666666"
     borderopacity="1"
     objecttolerance="10"
     gridtolerance="10"
     guidetolerance="10"
     inkscape:pageopacity="0"
     inkscape:pageshadow="2"
     inkscape:window-width="1920"
     inkscape:window-height="936"
     id="namedview24"
     showgrid="false"
     inkscape:zoom="5.7084141"
     inkscape:cx="24.252905"
     inkscape:cy="19.489167"
     inkscape:window-x="0"
     inkscape:window-y="38"
     inkscape:window-maximized="1"
     inkscape:current-layer="svg22" />
  <linearGradient
     id="a"
     gradientTransform="matrix(1.0155171,0,0,0.88638161,-65.086805,59.629401)"
     gradientUnits="userSpaceOnUse"
     x1="466.37592"
     x2="466.48874"
     y1="542.6795"
     y2="502.37723">
    <stop
       offset="0"
       stop-color="#197df1"
       id="stop2" />
    <stop
       offset="1"
       stop-color="#20bcfa"
       id="stop4" />
  </linearGradient>
  <linearGradient
     gradientUnits="userSpaceOnUse"
     x1="258.65744"
     x2="257.50476"
     y1="1.707616"
     y2="564.00525"
     id="linearGradient11">
    <stop
       offset="0"
       stop-color="#333"
       id="stop7" />
    <stop
       offset="1"
       stop-color="#353535"
       id="stop9" />
  </linearGradient>
  <linearGradient
     id="b"
     gradientUnits="userSpaceOnUse"
     x1="258.65744"
     x2="257.50476"
     y1="1.707616"
     y2="564.00525">
    <stop
       offset="0"
       stop-color="#e9e9e9"
       id="stop13" />
    <stop
       offset="1"
       stop-color="#f9f9f9"
       id="stop15" />
  </linearGradient>
  <g
     id="g997">
    <rect
       x="4.4999995"
       y="4.4999995"
       width="55"
       height="55"
       ry="15"
       fill="#141414"
       filter="url(#filter1057)"
       opacity="0.3"
       stroke-linecap="round"
       stroke-width="2.7444"
       id="rect900" />
    <rect
       x="4.5"
       y="4.5"
       width="55"
       height="55"
       ry="15"
       fill="url(#linearGradient1053)"
       stroke-linecap="round"
       stroke-width="2.7444"
       id="rect902"
       style="fill:url(#linearGradient1053)" />
    <circle
       cx="32.016998"
       cy="31.997999"
       r="0"
       fill="url(#b)"
       stroke-width="1.5715"
       id="circle54"
       style="fill:url(#b-3)" />
    <g
       transform="matrix(3.779602,0,0,3.779602,-1.8340138,-2.2804982)"
       fill="#0f9bff"
       filter="url(#filter1655)"
       id="g934">
      <rect
         x="3.6602001"
         y="5.027"
         width="10.583"
         height="7.9373002"
         ry="1.1978"
         id="rect928" />
      <path
         d="m 4.858,5.027 c -0.35542,0 -0.67034,0.15618 -0.88933,0.40048 l 4.6358,3.9051 a 0.4911,0.41369 0 0 0 0.025839,0.020153 0.4911,0.41369 0 0 0 0.038239,0.025321 0.4911,0.41369 0 0 0 0.04134,0.022221 0.4911,0.41369 0 0 0 0.043923,0.018603 0.4911,0.41369 0 0 0 0.046508,0.014469 0.4911,0.41369 0 0 0 0.047026,0.011369 0.4911,0.41369 0 0 0 0.048574,0.0062 0.4911,0.41369 0 0 0 0.048576,0.0031 0.4911,0.41369 0 0 0 0.04909,-0.00155 A 0.4911,0.41369 0 0 0 9.042161,9.446786 0.4911,0.41369 0 0 0 9.090219,9.436966 0.4911,0.41369 0 0 0 9.136726,9.42353 0.4911,0.41369 0 0 0 9.181167,9.40596 0.4911,0.41369 0 0 0 9.223023,9.384773 0.4911,0.41369 0 0 0 9.262813,9.360486 0.4911,0.41369 0 0 0 9.298986,9.332581 l 4.6358,-3.9051 c -0.21899,-0.24431 -0.53391,-0.40048 -0.88933,-0.40048 z"
         id="path930" />
      <path
         d="m 13.935,5.4275 -8.9471,7.5369 h 8.0577 c 0.66358,0 1.1978,-0.53426 1.1978,-1.1978 V 6.2249 c 0,-0.30816 -0.11863,-0.58553 -0.3085,-0.79735 z"
         id="path932" />
    </g>
    <g
       transform="matrix(3.779602,0,0,3.779602,-1.8340138,-2.2804982)"
       id="g942">
      <rect
         x="3.6602001"
         y="5.027"
         width="10.583"
         height="7.9373002"
         ry="1.1978"
         fill="#8cd2ff"
         id="rect936" />
      <path
         d="m 4.858,5.027 c -0.35542,0 -0.67034,0.15618 -0.88933,0.40048 l 4.6358,3.9051 a 0.4911,0.41369 0 0 0 0.025839,0.020153 0.4911,0.41369 0 0 0 0.038239,0.025321 0.4911,0.41369 0 0 0 0.04134,0.022221 0.4911,0.41369 0 0 0 0.043923,0.018603 0.4911,0.41369 0 0 0 0.046508,0.014469 0.4911,0.41369 0 0 0 0.047026,0.011369 0.4911,0.41369 0 0 0 0.048574,0.0062 0.4911,0.41369 0 0 0 0.048576,0.0031 0.4911,0.41369 0 0 0 0.04909,-0.00155 A 0.4911,0.41369 0 0 0 9.042161,9.446786 0.4911,0.41369 0 0 0 9.090219,9.436966 0.4911,0.41369 0 0 0 9.136726,9.42353 0.4911,0.41369 0 0 0 9.181167,9.40596 0.4911,0.41369 0 0 0 9.223023,9.384773 0.4911,0.41369 0 0 0 9.262813,9.360486 0.4911,0.41369 0 0 0 9.298986,9.332581 l 4.6358,-3.9051 c -0.21899,-0.24431 -0.53391,-0.40048 -0.88933,-0.40048 z"
         fill="#ffffff"
         id="path938" />
      <path
         d="m 13.935,5.4275 -8.9471,7.5369 h 8.0577 c 0.66358,0 1.1978,-0.53426 1.1978,-1.1978 V 6.2249 c 0,-0.30816 -0.11863,-0.58553 -0.3085,-0.79735 z"
         fill="#b4e1ff"
         id="path940" />
    </g>
    <circle
       cx="-1258.8849"
       cy="-1279.3"
       r="0"
       fill="#5e4aa6"
       id="circle888"
       style="stroke-width:1" />
    <circle
       cx="-1140.4314"
       cy="-1318.5997"
       r="0"
       id="circle890"
       style="fill:#5e4aa6;stroke-width:1.00001" />
    <circle
       cx="-40.893093"
       cy="-53.108513"
       r="0"
       fill-rule="evenodd"
       id="circle892"
       style="fill:#5e4aa6;stroke-width:1.00001" />
    <circle
       cx="-1061.9291"
       cy="-1390.1099"
       r="0"
       id="circle894"
       style="fill:#5e4aa6;stroke-width:1.00001" />
    <circle
       cx="37.60622"
       cy="-124.58192"
       r="0"
       fill-rule="evenodd"
       id="circle896"
       style="fill:#5e4aa6;stroke-width:1.00001" />
  </g>
</svg>
