<?xml version="1.0" encoding="UTF-8" standalone="no"?>
<svg
   width="64"
   height="64"
   version="1"
   id="svg17"
   sodipodi:docname="marktext.svg"
   inkscape:version="1.1.2 (0a00cf5339, 2022-02-04)"
   xmlns:inkscape="http://www.inkscape.org/namespaces/inkscape"
   xmlns:sodipodi="http://sodipodi.sourceforge.net/DTD/sodipodi-0.dtd"
   xmlns="http://www.w3.org/2000/svg"
   xmlns:svg="http://www.w3.org/2000/svg">
  <sodipodi:namedview
     id="namedview19"
     pagecolor="#ffffff"
     bordercolor="#999999"
     borderopacity="1"
     inkscape:pageshadow="0"
     inkscape:pageopacity="0"
     inkscape:pagecheckerboard="0"
     showgrid="false"
     inkscape:zoom="11.1875"
     inkscape:cx="61.675978"
     inkscape:cy="33.072626"
     inkscape:window-width="1920"
     inkscape:window-height="1046"
     inkscape:window-x="0"
     inkscape:window-y="0"
     inkscape:window-maximized="1"
     inkscape:current-layer="svg17" />
  <defs
     id="defs5">
    <filter
       id="filter1057"
       x="-0.026999999"
       y="-0.026999999"
       width="1.054"
       height="1.054"
       color-interpolation-filters="sRGB">
      <feGaussianBlur
         stdDeviation="0.61875"
         id="feGaussianBlur2" />
    </filter>
    <filter
       id="filter1057-7"
       x="-0.026999999"
       y="-0.026999999"
       width="1.054"
       height="1.054"
       color-interpolation-filters="sRGB">
      <feGaussianBlur
         stdDeviation="0.61875"
         id="feGaussianBlur37" />
    </filter>
    <linearGradient
       id="linearGradient1053"
       x1="-127"
       x2="-72"
       y1="60"
       y2="5"
       gradientTransform="translate(197.4464,-0.87022336)"
       gradientUnits="userSpaceOnUse">
      <stop
         stop-color="#dee0e2"
         offset="0"
         id="stop40" />
      <stop
         stop-color="#f1f3f5"
         stop-opacity=".99608"
         offset="1"
         id="stop42" />
    </linearGradient>
    <linearGradient
       id="linearGradient1274"
       x1="37.594"
       x2="24.588"
       y1="22.56"
       y2="46.263"
       gradientUnits="userSpaceOnUse">
      <stop
         stop-color="#f00"
         offset="0"
         id="stop45" />
      <stop
         stop-color="#ff7864"
         offset="1"
         id="stop47" />
    </linearGradient>
    <linearGradient
       id="linearGradient1672"
       x1="40.224"
       x2="35.203"
       y1="17.995"
       y2="26.733"
       gradientUnits="userSpaceOnUse">
      <stop
         stop-color="#389700"
         offset="0"
         id="stop50" />
      <stop
         stop-color="#34d710"
         offset="1"
         id="stop52" />
    </linearGradient>
  </defs>
  <g
     transform="translate(-70.613432,-0.00845607)"
     fill="#f2f2f2"
     id="g13">
    <rect
       x="76.934998"
       y="4.9558001"
       width="55"
       height="55"
       ry="15"
       filter="url(#filter1057)"
       opacity="0.3"
       stroke-linecap="round"
       stroke-width="2.7444"
       id="rect7" />
    <circle
       cx="104.44"
       cy="32"
       r="30.000999"
       fill-opacity="0"
       stroke-width="1.5715"
       id="circle11" />
  </g>
  <g
     id="g487"
     transform="translate(-64.119834,0.35176708)">
    <rect
       x="70.446404"
       y="4.1397762"
       width="55"
       height="55"
       ry="15"
       fill="#141414"
       filter="url(#filter1057-7)"
       opacity="0.3"
       stroke-linecap="round"
       stroke-width="2.7444"
       id="rect57" />
    <rect
       x="70.446404"
       y="4.1397767"
       width="55"
       height="55"
       ry="15"
       fill="url(#linearGradient1053)"
       stroke-linecap="round"
       stroke-width="2.7444"
       id="rect59"
       style="fill:url(#linearGradient1053)" />
    <path
       d="m 103.08756,43.22814 5.1141,-3.027 0.0136,-3.1113 c 0.008,-1.7111 8.2e-4,-3.1112 -0.0151,-3.1112 -0.0159,0 -2.3192,1.3027 -5.1184,2.8949 -2.7992,1.5922 -5.122499,2.9076 -5.162799,2.923 -0.04025,0.01512 -2.3875,-1.2873 -5.2159,-2.8949 -2.8284,-1.6077 -5.1554,-2.923 -5.1712,-2.923 -0.0155,0 -0.0223,1.3999 -0.01512,3.111 l 0.01361,3.111 5.1409,3.0483 c 2.8275,1.6766 5.177,3.0389 5.2212,3.0273 0.04411,-0.01134 2.381699,-1.3832 5.194399,-3.0481 z m -17.082999,-6.2373 -3.4e-4,-3.8423 -1.7665,-0.96079 v -3.0194 c 0,-2.6486 0.0098,-3.0156 0.07956,-2.9888 0.04362,0.01512 3.1263,1.7904 6.8501,3.9414 l 6.7705,3.9108 6.577699,-3.8349 c 3.6177,-2.1092 6.7042,-3.9066 6.8589,-3.9943 l 0.28116,-0.1595 v 6.1446 l -1.7665,0.96079 -3.2e-4,3.845 c -2.6e-4,3.1876 0.0117,3.8376 0.071,3.8021 0.0393,-0.02268 1.2803,-0.74071 2.7579,-1.5936 l 2.6865,-1.5507 v -10.324 c 0,-5.6782 -0.009,-10.324 -0.0208,-10.324 -0.0212,0 -17.105,9.8581 -17.308,9.9874 -0.10273,0.06539 -0.82777,-0.34167 -8.8295,-4.9581 -4.7947,-2.7661 -8.7265,-5.0293 -8.7373,-5.0293 -0.01058,0 -0.02003,4.6456 -0.02003,10.324 v 10.324 l 2.7445,1.5876 c 1.5095,0.87318 2.7505,1.5893 2.7578,1.5914 0.0072,0.0016 0.01323,-1.7253 0.01323,-3.8385 z"
       stroke-width="0.053551"
       id="path15" />
  </g>
</svg>
