<?xml version="1.0" encoding="UTF-8"?>
<svg width="64" height="64" version="1" xmlns="http://www.w3.org/2000/svg">
 <defs>
  <filter id="filter1057" x="-.027" y="-.027" width="1.054" height="1.054" color-interpolation-filters="sRGB">
   <feGaussianBlur stdDeviation="0.61875"/>
  </filter>
 </defs>
 <g transform="translate(-72.44)" fill="#f9f9f9">
  <rect x="76.935" y="4.9558" width="55" height="55" ry="15" filter="url(#filter1057)" opacity=".3" stroke-linecap="round" stroke-width="2.7444"/>
  <rect x="76.935" y="4.9558" width="55" height="55" ry="15" stroke-linecap="round" stroke-width="2.7444"/>
  <circle cx="104.44" cy="32" r="30.001" fill-opacity="0" stroke-width="1.5715"/>
 </g>
 <path d="m37.141 43.588 5.1141-3.027 0.01361-3.1113c0.0076-1.7111 8.17e-4 -3.1112-0.01512-3.1112-0.01587 0-2.3192 1.3027-5.1184 2.8949-2.7992 1.5922-5.1225 2.9076-5.1628 2.923-0.04025 0.01512-2.3875-1.2873-5.2159-2.8949-2.8284-1.6077-5.1554-2.923-5.1712-2.923-0.0155 0-0.0223 1.3999-0.01512 3.111l0.01361 3.111 5.1409 3.0483c2.8275 1.6766 5.177 3.0389 5.2212 3.0273 0.04411-0.01134 2.3817-1.3832 5.1944-3.0481zm-17.083-6.2373-3.4e-4 -3.8423-1.7665-0.96079v-3.0194c0-2.6486 0.0098-3.0156 0.07956-2.9888 0.04362 0.01512 3.1263 1.7904 6.8501 3.9414l6.7705 3.9108 6.5777-3.8349c3.6177-2.1092 6.7042-3.9066 6.8589-3.9943l0.28116-0.1595v6.1446l-1.7665 0.96079-3.21e-4 3.845c-2.64e-4 3.1876 0.01172 3.8376 0.07098 3.8021 0.03927-0.02268 1.2803-0.74071 2.7579-1.5936l2.6865-1.5507v-10.324c0-5.6782-0.0091-10.324-0.02079-10.324-0.02117 0-17.105 9.8581-17.308 9.9874-0.10273 0.06539-0.82777-0.34167-8.8295-4.9581-4.7947-2.7661-8.7265-5.0293-8.7373-5.0293-0.01058 0-0.02003 4.6456-0.02003 10.324v10.324l2.7445 1.5876c1.5095 0.87318 2.7505 1.5893 2.7578 1.5914 0.0072 0.0016 0.01323-1.7253 0.01323-3.8385z" fill="#109add" stroke-width=".053551"/>
</svg>
