<?xml version="1.0" encoding="UTF-8" standalone="no"?>
<svg
   xmlns:dc="http://purl.org/dc/elements/1.1/"
   xmlns:cc="http://creativecommons.org/ns#"
   xmlns:rdf="http://www.w3.org/1999/02/22-rdf-syntax-ns#"
   xmlns:svg="http://www.w3.org/2000/svg"
   xmlns="http://www.w3.org/2000/svg"
   xmlns:xlink="http://www.w3.org/1999/xlink"
   xmlns:sodipodi="http://sodipodi.sourceforge.net/DTD/sodipodi-0.dtd"
   xmlns:inkscape="http://www.inkscape.org/namespaces/inkscape"
   height="64"
   viewBox="0 0 64 64.000001"
   width="64"
   version="1.1"
   id="svg26"
   sodipodi:docname="matlab.svg"
   inkscape:version="1.0.2 (e86c870879, 2021-01-15)">
  <metadata
     id="metadata32">
    <rdf:RDF>
      <cc:Work
         rdf:about="">
        <dc:format>image/svg+xml</dc:format>
        <dc:type
           rdf:resource="http://purl.org/dc/dcmitype/StillImage" />
        <dc:title></dc:title>
      </cc:Work>
    </rdf:RDF>
  </metadata>
  <defs
     id="defs30">
    <linearGradient
       id="linearGradient4325"
       x1="1"
       x2="47"
       gradientUnits="userSpaceOnUse"
       gradientTransform="matrix(0,-1.3617021,1.3617021,0,-69.387687,63.999999)">
      <stop
         style="stop-color:#3b4c50;stop-opacity:1"
         id="stop857" />
      <stop
         offset="1"
         style="stop-color:#44575c;stop-opacity:1"
         id="stop859" />
    </linearGradient>
    <filter
       color-interpolation-filters="sRGB"
       height="1.048"
       width="1.048"
       y="-0.024"
       x="-0.024"
       id="filter2761">
      <feGaussianBlur
         id="feGaussianBlur4"
         stdDeviation="0.14552168" />
    </filter>
    <linearGradient
       gradientUnits="userSpaceOnUse"
       gradientTransform="matrix(3.7796,0,0,3.7796,90.949235,0.53085)"
       y2="1.17"
       y1="15.576"
       x2="15.65"
       x1="1.3315001"
       id="linearGradient1024">
      <stop
         id="stop7-3"
         offset="0"
         stop-color="#323741" />
      <stop
         id="stop9-6"
         offset="1"
         stop-opacity=".99608"
         stop-color="#465064" />
    </linearGradient>
    <clipPath
       id="clipPath13429-36">
      <path
         id="path12-7"
         d="m 481,318 h 22 v 22 h -22 z" />
    </clipPath>
    <clipPath
       id="clipPath13465-7">
      <path
         id="path15"
         d="m 507,318 h 22 v 22 h -22 z" />
    </clipPath>
    <clipPath
       id="clipPath13501-5">
      <path
         id="path18-5"
         d="m 530,318 h 22 v 22 h -22 z" />
    </clipPath>
    <clipPath
       id="clipPath13753-3">
      <path
         id="path21"
         d="m 672,1064 c 0,-1.105 4.925,-2 11,-2 6.075,0 11,0.895 11,2 0,1.105 -4.925,2 -11,2 -6.075,0 -11,-0.895 -11,-2" />
    </clipPath>
    <clipPath
       id="clipPath13771-5">
      <path
         id="path24"
         d="m 660,1057 h 51 v 65.001 h -51 z" />
    </clipPath>
    <clipPath
       id="clipPath14035-6">
      <path
         id="path27"
         d="m 659,517 h 53 v 18 h -53 z" />
    </clipPath>
    <clipPath
       id="clipPath14127-2">
      <path
         id="path30"
         d="m 659,500 h 53 v 18 h -53 z" />
    </clipPath>
    <clipPath
       id="clipPath14445-9">
      <path
         id="path33"
         d="m 648,112 h 73 v 60 h -73 z" />
    </clipPath>
    <clipPath
       id="clipPath14609-1">
      <path
         id="path36"
         d="m 826,1056 h 59 v 60 h -59 z" />
    </clipPath>
    <clipPath
       id="clipPath15305-27">
      <path
         id="path39"
         d="M 805,276 H 905 V 376 H 805 Z" />
    </clipPath>
    <clipPath
       id="clipPath15341-09">
      <path
         id="path42"
         d="m 145,1063.8 h 74.152 v 45.21 H 145 Z" />
    </clipPath>
    <clipPath
       id="clipPath15715-3">
      <path
         id="path45"
         d="m 151,667 h 57 v 57 h -57 z" />
    </clipPath>
    <clipPath
       id="clipPath15807-6">
      <path
         id="path48"
         d="m 154,697 h 51 v 51 h -51 z" />
    </clipPath>
    <clipPath
       id="clipPath16001-0">
      <path
         id="path51"
         d="m 500.04,864.45 h 36.012 v 67.52 H 500.04 Z" />
    </clipPath>
    <clipPath
       id="clipPath16093-6">
      <path
         id="path54"
         d="m 836,870.54 h 47 v 55.539 h -47 z" />
    </clipPath>
    <clipPath
       id="clipPath16477-2">
      <path
         id="path57"
         d="m 318.03,702.35 h 62.848 v 37.991 H 318.03 Z" />
    </clipPath>
    <clipPath
       id="clipPath16579-6">
      <path
         id="path60"
         d="m 485.03,133.35 h 62.847 v 37.991 H 485.03 Z" />
    </clipPath>
    <clipPath
       id="clipPath16709-1">
      <path
         id="path63"
         d="m 493.37,677.93 h 45.643 v 68.067 H 493.37 Z" />
    </clipPath>
    <clipPath
       id="clipPath24218-87">
      <path
         id="path66"
         d="m 144.34,1018.2 h 71.467 v 78 H 144.34 Z" />
    </clipPath>
    <clipPath
       id="clipPath24382-92">
      <path
         id="path69"
         d="m 293.21,1068.6 66.323,-38.292 36.047,62.435 -66.323,38.292 z" />
    </clipPath>
    <clipPath
       id="clipPath24650-0">
      <path
         id="path72"
         d="m 488.86,1054.5 h 10 v 10.706 h -10 z" />
    </clipPath>
    <clipPath
       id="clipPath24700-2">
      <path
         id="path75"
         d="m 508,1066.8 h 10.001 v 10.705 H 508 Z" />
    </clipPath>
    <clipPath
       id="clipPath24750-3">
      <path
         id="path78"
         d="m 525,1045.8 h 10 v 10.706 h -10 z" />
    </clipPath>
    <clipPath
       id="clipPath24864-7">
      <path
         id="path81"
         d="m 836,1043.7 h 25.5 v 31.5 H 836 Z" />
    </clipPath>
    <clipPath
       id="clipPath24896-5">
      <path
         id="path84"
         d="m 838,1062.2 h 24 v 24 h -24 z" />
    </clipPath>
    <clipPath
       id="clipPath25070-92">
      <path
         id="path87"
         d="m 134,489.24 h 7 v 6 h -7 z" />
    </clipPath>
    <clipPath
       id="clipPath25100-28">
      <path
         id="path90"
         d="m 216,489.24 h 7 v 6 h -7 z" />
    </clipPath>
    <clipPath
       id="clipPath25502-9">
      <path
         id="path93"
         d="m 838,477.24 h 22 v 22 h -22 z" />
    </clipPath>
    <clipPath
       id="clipPath25686-73">
      <path
         id="path96"
         d="m 704,1061.2 h 25 v 25 h -25 z" />
    </clipPath>
    <clipPath
       id="clipPath25788-6">
      <path
         id="path99"
         d="m 663.04,1078.6 -1.808,-3.514 -21.07,-47.453 c 13.336,-18.439 48.336,-26.938 73.836,-3.439 0.842,0 6.476,6.246 6,7 l -18.386,25.895 c -0.483,0.765 -1.453,0.946 -2.177,0.431 l -15.505,-11.011 c -0.359,-0.255 -0.847,-0.153 -1.07,0.238 l -18.272,31.869 c -0.218,0.384 -0.502,0.578 -0.782,0.578 -0.282,0 -0.561,-0.197 -0.766,-0.594" />
    </clipPath>
    <clipPath
       id="clipPath26420-1">
      <path
         id="path102"
         d="m 127,820.24 h 100 v 100 H 127 Z" />
    </clipPath>
    <clipPath
       id="clipPath26860-29">
      <path
         id="path105"
         d="m 809,680.24 c 0,-22.092 17.908,-40 40,-40 22.092,0 40,17.908 40,40 0,22.091 -17.908,40 -40,40 -22.092,0 -40,-17.909 -40,-40" />
    </clipPath>
    <clipPath
       id="clipPath27506-3">
      <path
         id="path108"
         d="m 658,469.24 h 44 v 45 h -44 z" />
    </clipPath>
    <clipPath
       id="clipPath27772-1">
      <path
         id="path111"
         d="m 651,271.24 h 58 v 58 h -58 z" />
    </clipPath>
    <clipPath
       id="clipPath27864-9">
      <path
         id="path114"
         d="m 662,307.24 h 38 v 8 h -38 z" />
    </clipPath>
    <clipPath
       id="clipPath28028-4">
      <path
         id="path117"
         d="m 858.98,137.24 c 0.013,-0.101 0.021,-0.203 0.021,-0.307 v -6.693 h 15.75 c 1.237,0 2.25,-1.013 2.25,-2.25 v -11.25 l -27,-4.5 -27,4.5 v -2.25 l 27,-4.5 27,4.5 v -27 c 0,-1.237 -1.013,-2.25 -2.25,-2.25 h -49.5 c -1.237,0 -2.25,1.013 -2.25,2.25 v -4.25 h 54 v 54 z m -35.979,0 v -9.25 c 0,1.237 1.013,2.25 2.25,2.25 h 15.75 v 6.693 c 0,0.104 0.007,0.207 0.02,0.307 z m 22.5,-7 h 9 v 4.5 h -9 z m 1.125,-9 c -0.62,0 -1.125,-0.506 -1.125,-1.125 v -2.25 c 0,-0.619 0.505,-1.125 1.125,-1.125 h 6.75 c 0.619,0 1.125,0.506 1.125,1.125 v 2.25 c 0,0.619 -0.506,1.125 -1.125,1.125 z" />
    </clipPath>
    <clipPath
       id="clipPath28200-7">
      <path
         id="path120"
         d="m 531.27,136.24 c 6.325,-2.29 10.727,-8.277 10.727,-15.484 0,-11.316 -10.2,-20.563 -25.65,-34.575 l -4.35,-3.941 -4.35,3.941 c -15.45,14.012 -25.65,23.259 -25.65,34.575 V 81.24 h 60 v 55 z m -26.983,0 c 2.995,-1.052 5.686,-2.883 7.71,-5.25 2.024,2.367 4.715,4.198 7.71,5.25 z m -22.29,0 v -15.484 c 0,7.207 4.402,13.194 10.727,15.484 z" />
    </clipPath>
    <clipPath
       id="clipPath28364-8">
      <path
         id="path123"
         d="m 648,79.241 h 64 v 64 h -64 z" />
    </clipPath>
    <clipPath
       id="clipPath28984-4">
      <path
         id="path126"
         d="m 500,691.74 c 0,-3.037 2.463,-5.5 5.5,-5.5 3.037,0 5.5,2.463 5.5,5.5 0,3.037 -2.463,5.5 -5.5,5.5 -3.037,0 -5.5,-2.463 -5.5,-5.5" />
    </clipPath>
    <clipPath
       id="clipPath29012-5">
      <path
         id="path129"
         d="m 500,669.74 c 0,-3.037 2.463,-5.5 5.5,-5.5 3.037,0 5.5,2.463 5.5,5.5 0,3.038 -2.463,5.5 -5.5,5.5 -3.037,0 -5.5,-2.462 -5.5,-5.5" />
    </clipPath>
    <clipPath
       id="clipPath29040-0">
      <path
         id="path132"
         d="m 494,680.74 c 0,-3.037 2.462,-5.5 5.5,-5.5 3.038,0 5.5,2.463 5.5,5.5 0,3.038 -2.462,5.5 -5.5,5.5 -3.038,0 -5.5,-2.462 -5.5,-5.5" />
    </clipPath>
    <clipPath
       id="clipPath29068-36">
      <path
         id="path135"
         d="m 513,691.74 c 0,-3.037 2.463,-5.5 5.5,-5.5 3.037,0 5.5,2.463 5.5,5.5 0,3.037 -2.463,5.5 -5.5,5.5 -3.037,0 -5.5,-2.463 -5.5,-5.5" />
    </clipPath>
    <clipPath
       id="clipPath29096-10">
      <path
         id="path138"
         d="m 513,669.74 c 0,-3.037 2.463,-5.5 5.5,-5.5 3.037,0 5.5,2.463 5.5,5.5 0,3.038 -2.463,5.5 -5.5,5.5 -3.037,0 -5.5,-2.462 -5.5,-5.5" />
    </clipPath>
    <clipPath
       id="clipPath29124-63">
      <path
         id="path141"
         d="m 507,680.74 c 0,-3.037 2.463,-5.5 5.5,-5.5 3.037,0 5.5,2.463 5.5,5.5 0,3.038 -2.463,5.5 -5.5,5.5 -3.037,0 -5.5,-2.462 -5.5,-5.5" />
    </clipPath>
    <clipPath
       id="clipPath29152-2">
      <path
         id="path144"
         d="m 520,680.74 c 0,-3.037 2.463,-5.5 5.5,-5.5 3.037,0 5.5,2.463 5.5,5.5 0,3.038 -2.463,5.5 -5.5,5.5 -3.037,0 -5.5,-2.462 -5.5,-5.5" />
    </clipPath>
    <clipPath
       id="clipPath29252-0">
      <path
         id="path147"
         d="m 321,322.24 c -4.97,0 -9,-4.029 -9,-9 0,-4.97 4.03,-9 9,-9 h 45 c 4.971,0 9,4.03 9,9 0,4.971 -4.029,9 -9,9 z" />
    </clipPath>
    <clipPath
       id="clipPath29280-6">
      <path
         id="path150"
         d="m 322,297.24 c -4.971,0 -9,-4.029 -9,-9 0,-4.97 4.029,-9 9,-9 h 45 c 4.971,0 9,4.03 9,9 0,4.971 -4.029,9 -9,9 z" />
    </clipPath>
    <clipPath
       id="clipPath29400-1">
      <path
         id="path153"
         d="m 155,83.24 h 44 v 53 h -44 z" />
    </clipPath>
    <linearGradient
       gradientUnits="userSpaceOnUse"
       gradientTransform="matrix(1.2346,0,0,1.2346,2.3832028,3.6047)"
       y2="4"
       y1="44"
       x2="0"
       id="linearGradient890">
      <stop
         id="stop4-3"
         offset="0"
         stop-color="#FFB900" />
      <stop
         id="stop6"
         offset="1"
         stop-color="#ff0" />
    </linearGradient>
    <filter
       color-interpolation-filters="sRGB"
       height="1.048"
       width="1.048"
       y="-0.024"
       x="-0.024"
       id="filter2761-67">
      <feGaussianBlur
         id="feGaussianBlur9"
         stdDeviation="0.14552168" />
    </filter>
    <linearGradient
       gradientUnits="userSpaceOnUse"
       gradientTransform="matrix(3.7796,0,0,3.7796,66.443573,0.53068)"
       y2="1.1082"
       y1="15.601"
       x2="15.644"
       x1="1.4377"
       id="linearGradient4673">
      <stop
         id="stop12"
         offset="0"
         stop-color="#dc2828" />
      <stop
         id="stop14"
         offset="1"
         stop-color="#fa4141" />
    </linearGradient>
    <linearGradient
       gradientUnits="userSpaceOnUse"
       y2="9.6700001"
       y1="54.591999"
       x2="34.133999"
       x1="34.133999"
       id="linearGradient915">
      <stop
         id="stop17"
         offset="0"
         stop-color="#ffb900" />
      <stop
         id="stop19"
         offset="1"
         stop-color="#ff0" />
    </linearGradient>
    <filter
       inkscape:collect="always"
       style="color-interpolation-filters:sRGB"
       id="filter1057"
       x="-0.027000001"
       width="1.054"
       y="-0.027000001"
       height="1.054">
      <feGaussianBlur
         inkscape:collect="always"
         stdDeviation="0.61875"
         id="feGaussianBlur1059" />
    </filter>
    <linearGradient
       inkscape:collect="always"
       xlink:href="#linearGradient1051"
       id="linearGradient1053"
       x1="-127"
       y1="60"
       x2="-72"
       y2="5"
       gradientUnits="userSpaceOnUse"
       gradientTransform="translate(131.5,-0.50999746)" />
    <linearGradient
       inkscape:collect="always"
       id="linearGradient1051">
      <stop
         style="stop-color:#323741;stop-opacity:1"
         offset="0"
         id="stop1047" />
      <stop
         style="stop-color:#465064;stop-opacity:1"
         offset="1"
         id="stop1049" />
    </linearGradient>
    <linearGradient
       id="linearGradient890-3"
       x2="0"
       y1="44"
       y2="4"
       gradientTransform="matrix(1.2346,0,0,1.2346,3.1419,3.6047)"
       gradientUnits="userSpaceOnUse">
      <stop
         stop-color="#FFB900"
         offset="0"
         id="stop861" />
      <stop
         stop-color="#ff0"
         offset="1"
         id="stop863" />
    </linearGradient>
    <filter
       id="filter2761-6"
       x="-0.024"
       y="-0.024"
       width="1.048"
       height="1.048"
       color-interpolation-filters="sRGB">
      <feGaussianBlur
         stdDeviation="0.14552168"
         id="feGaussianBlur866" />
    </filter>
    <filter
       inkscape:collect="always"
       style="color-interpolation-filters:sRGB"
       id="filter1814"
       x="-0.046139751"
       width="1.0922795"
       y="-0.050016553"
       height="1.1000331">
      <feGaussianBlur
         inkscape:collect="always"
         stdDeviation="0.49985666"
         id="feGaussianBlur1816" />
    </filter>
  </defs>
  <sodipodi:namedview
     pagecolor="#ffffff"
     bordercolor="#666666"
     borderopacity="1"
     objecttolerance="10"
     gridtolerance="10"
     guidetolerance="10"
     inkscape:pageopacity="0"
     inkscape:pageshadow="2"
     inkscape:window-width="1920"
     inkscape:window-height="940"
     id="namedview28"
     showgrid="false"
     inkscape:zoom="4.0364583"
     inkscape:cx="-45.288773"
     inkscape:cy="26.028952"
     inkscape:window-x="0"
     inkscape:window-y="38"
     inkscape:window-maximized="1"
     inkscape:current-layer="svg26" />
  <linearGradient
     id="a"
     gradientUnits="userSpaceOnUse"
     x1="16.440233"
     x2="35.620502"
     y1="1039.1924"
     y2="1010.9081">
    <stop
       offset="0"
       stop-color="#f67e17"
       id="stop2" />
    <stop
       offset="1"
       stop-color="#ff7f2a"
       id="stop4" />
  </linearGradient>
  <linearGradient
     id="b"
     gradientUnits="userSpaceOnUse"
     x1="3.4545259"
     x2="32.020584"
     y1="18.084646"
     y2="18.084646">
    <stop
       offset="0"
       stop-opacity=".156863"
       id="stop7" />
    <stop
       offset="1"
       stop-opacity="0"
       id="stop9" />
  </linearGradient>
  <style
     id="style158"
     type="text/css">.st0{opacity:0.15;fill:#45413C;}
	.st1{fill:#FFE500;}
	.st2{fill:#EBCB00;}
	.st3{fill:none;stroke:#45413C;stroke-linecap:round;stroke-linejoin:round;stroke-miterlimit:10;}
	.st4{fill:#FFAA54;}
	.st5{fill:#FF8A14;}
	.st6{fill:#FFB0CA;stroke:#45413C;stroke-linecap:round;stroke-linejoin:round;stroke-miterlimit:10;}
	.st7{fill:#FF87AF;stroke:#45413C;stroke-linecap:round;stroke-linejoin:round;stroke-miterlimit:10;}
	.st8{fill:#FFCC99;}
	.st9{fill:#FFFFFF;}
	.st10{fill:#F0F0F0;}
	.st11{fill:#BF8256;}
	.st12{fill:#915E3A;}
	.st13{fill:#DEA47A;}
	.st14{fill:#F0D5A8;}
	.st15{fill:#DEBB7E;}
	.st16{fill:#F7E5C6;}
	.st17{fill:#FF8A14;stroke:#45413C;stroke-linecap:round;stroke-linejoin:round;stroke-miterlimit:10;}
	.st18{fill:#FFF5E3;}
	.st19{fill:#FFF48C;}
	.st20{fill:#FFFACF;}
	.st21{fill:#FFFCE5;}
	.st22{fill:#FF87AF;}
	.st23{fill:#FFB0CA;}
	.st24{fill:#FFE500;stroke:#45413C;stroke-linecap:round;stroke-linejoin:round;stroke-miterlimit:10;}
	.st25{fill:#9CEB60;stroke:#45413C;stroke-linecap:round;stroke-linejoin:round;stroke-miterlimit:10;}
	.st26{fill:#FFFACF;stroke:#45413C;stroke-linecap:round;stroke-linejoin:round;stroke-miterlimit:10;}
	.st27{fill:#00F5BC;stroke:#45413C;stroke-linecap:round;stroke-linejoin:round;stroke-miterlimit:10;}
	.st28{fill:#BF8256;stroke:#45413C;stroke-linecap:round;stroke-linejoin:round;stroke-miterlimit:10;}
	.st29{fill:#FFE3CF;stroke:#45413C;stroke-linecap:round;stroke-linejoin:round;stroke-miterlimit:10;}
	.st30{fill:#FF6242;}
	.st31{fill:#FF866E;}
	.st32{fill:none;stroke:#E04122;stroke-linecap:round;stroke-linejoin:round;stroke-miterlimit:10;}
	.st33{fill:#FFFEF2;stroke:#45413C;stroke-linecap:round;stroke-linejoin:round;stroke-miterlimit:10;}
	.st34{fill:#FF6242;stroke:#45413C;stroke-linecap:round;stroke-linejoin:round;stroke-miterlimit:10;}
	.st35{fill:#FFA694;}
	.st36{fill:#FFFFFF;stroke:#45413C;stroke-linecap:round;stroke-linejoin:round;stroke-miterlimit:10;}
	.st37{fill:#FFFEF2;}
	.st38{fill:#FF6196;}
	.st39{fill:#B89558;}
	.st40{fill:none;stroke:#915E3A;stroke-linecap:round;stroke-linejoin:round;stroke-miterlimit:10;}
	.st41{fill:#DEBB7E;stroke:#45413C;stroke-linecap:round;stroke-linejoin:round;stroke-miterlimit:10;}
	.st42{fill:#6DD627;stroke:#45413C;stroke-linecap:round;stroke-linejoin:round;stroke-miterlimit:10;}
	.st43{fill:#E5F8FF;}
	.st44{fill:#E8F4FA;}
	.st45{fill:#E8F4FA;stroke:#45413C;stroke-linecap:round;stroke-linejoin:round;stroke-miterlimit:10;}
	.st46{fill:#FFCCDD;}
	.st47{fill:#E5F8FF;stroke:#45413C;stroke-linecap:round;stroke-linejoin:round;stroke-miterlimit:10;}
	.st48{fill:#00B8F0;stroke:#45413C;stroke-linecap:round;stroke-linejoin:round;stroke-miterlimit:10;}
	.st49{fill:#00B8F0;}
	.st50{fill:#4ACFFF;}
	.st51{fill:#E04122;}
	.st52{fill:#E04122;stroke:#45413C;stroke-linecap:round;stroke-linejoin:round;stroke-miterlimit:10;}
	.st53{fill:#87898C;}
	.st54{fill:#BDBEC0;}
	.st55{fill:#656769;}
	.st56{fill:#525252;}
	.st57{fill:#FFF48C;stroke:#45413C;stroke-linecap:round;stroke-linejoin:round;stroke-miterlimit:10;}
	.st58{fill:#6DD627;}
	.st59{fill:#EB6D00;}
	.st60{fill:#46B000;}
	.st61{fill:#80DDFF;}
	.st62{fill:#DAEDF7;}
	.st63{fill:#BF8DF2;stroke:#45413C;stroke-linecap:round;stroke-linejoin:round;stroke-miterlimit:10;}
	.st64{fill:#9F5AE5;stroke:#45413C;stroke-linecap:round;stroke-linejoin:round;stroke-miterlimit:10;}
	.st65{fill:#C8FFA1;}
	.st66{fill:#E4FFD1;}
	.st67{fill:#9CEB60;}
	.st68{fill:#E5FEFF;}
	.st69{fill:#B8ECFF;}
	.st70{fill:#E0E0E0;stroke:#45413C;stroke-linecap:round;stroke-linejoin:round;stroke-miterlimit:10;}
	.st71{fill:#E0E0E0;}
	.st72{fill:none;stroke:#4F4B45;stroke-linejoin:round;stroke-miterlimit:10;}
	.st73{fill:none;stroke:#4F4B45;stroke-linecap:round;stroke-linejoin:round;stroke-miterlimit:10;}
	.st74{fill:#E0366F;stroke:#45413C;stroke-linecap:round;stroke-linejoin:round;stroke-miterlimit:10;}
	.st75{fill:none;stroke:#45413C;stroke-miterlimit:10;}
	.st76{fill:#FF866E;stroke:#45413C;stroke-linecap:round;stroke-linejoin:round;stroke-miterlimit:10;}
	.st77{fill:#45413C;stroke:#45413C;stroke-linecap:round;stroke-linejoin:round;stroke-miterlimit:10;}
	.st78{fill:#9F5AE5;}
	.st79{fill:#803EC2;}
	.st80{fill:#803EC2;stroke:#45413C;stroke-linecap:round;stroke-linejoin:round;stroke-miterlimit:10;}
	.st81{fill:#BF8DF2;}
	.st82{fill:#FFAA54;stroke:#45413C;stroke-linecap:round;stroke-linejoin:round;stroke-miterlimit:10;}
	.st83{fill:none;stroke:#45413C;stroke-linejoin:round;stroke-miterlimit:10;}
	.st84{fill:#FFCCDD;stroke:#45413C;stroke-linecap:round;stroke-linejoin:round;stroke-miterlimit:10;}
	.st85{fill:#FF6196;stroke:#45413C;stroke-linecap:round;stroke-linejoin:round;stroke-miterlimit:10;}
	.st86{fill:#FFE5EE;}
	.st87{fill:#F7E5C6;stroke:#45413C;stroke-linecap:round;stroke-linejoin:round;stroke-miterlimit:10;}
	.st88{fill:#E5FFF9;}
	.st89{fill:none;stroke:#45413C;stroke-width:1.0064;stroke-linecap:round;stroke-linejoin:round;stroke-miterlimit:10;}
	.st90{fill:#4AEFF7;}
	.st91{fill:#A6FBFF;}
	.st92{fill:#E5FEFF;stroke:#45413C;stroke-linecap:round;stroke-linejoin:round;stroke-miterlimit:10;}
	.st93{fill:#46B000;stroke:#45413C;stroke-linecap:round;stroke-linejoin:round;stroke-miterlimit:10;}
	.st94{fill:#FFFFFF;stroke:#45413C;stroke-linejoin:round;stroke-miterlimit:10;}
	.st95{fill:#FFFFFF;stroke:#45413C;stroke-miterlimit:10;}
	.st96{fill:#009FD9;}
	.st97{fill:#00DFEB;}
	.st98{fill:#C0DCEB;stroke:#45413C;stroke-linecap:round;stroke-linejoin:round;stroke-miterlimit:10;}
	.st99{fill:#00DFEB;stroke:#45413C;stroke-linecap:round;stroke-linejoin:round;stroke-miterlimit:10;}
	.st100{fill:#FFE5EE;stroke:#45413C;stroke-linecap:round;stroke-linejoin:round;stroke-miterlimit:10;}
	.st101{fill:#8CA4B8;}
	.st102{fill:#ADC4D9;}
	.st103{fill:#656769;stroke:#45413C;stroke-linecap:round;stroke-linejoin:round;stroke-miterlimit:10;}
	.st104{fill:#F0F0F0;stroke:#45413C;stroke-linecap:round;stroke-linejoin:round;stroke-miterlimit:10;}
	.st105{fill:#C0DCEB;}
	.st106{fill:#45413C;}
	.st107{fill:#FFCABF;}
	.st108{fill:#87898C;stroke:#45413C;stroke-linecap:round;stroke-linejoin:round;stroke-miterlimit:10;}
	.st109{fill:#EBCB00;stroke:#45413C;stroke-linecap:round;stroke-linejoin:round;stroke-miterlimit:10;}</style>
  <style
     id="style160"
     type="text/css">.st0{opacity:0.15;fill:#45413C;}
	.st1{fill:#FFE500;}
	.st2{fill:#EBCB00;}
	.st3{fill:none;stroke:#45413C;stroke-linecap:round;stroke-linejoin:round;stroke-miterlimit:10;}
	.st4{fill:#FFAA54;}
	.st5{fill:#FF8A14;}
	.st6{fill:#FFB0CA;stroke:#45413C;stroke-linecap:round;stroke-linejoin:round;stroke-miterlimit:10;}
	.st7{fill:#FF87AF;stroke:#45413C;stroke-linecap:round;stroke-linejoin:round;stroke-miterlimit:10;}
	.st8{fill:#FFCC99;}
	.st9{fill:#FFFFFF;}
	.st10{fill:#F0F0F0;}
	.st11{fill:#BF8256;}
	.st12{fill:#915E3A;}
	.st13{fill:#DEA47A;}
	.st14{fill:#F0D5A8;}
	.st15{fill:#DEBB7E;}
	.st16{fill:#F7E5C6;}
	.st17{fill:#FF8A14;stroke:#45413C;stroke-linecap:round;stroke-linejoin:round;stroke-miterlimit:10;}
	.st18{fill:#FFF5E3;}
	.st19{fill:#FFF48C;}
	.st20{fill:#FFFACF;}
	.st21{fill:#FFFCE5;}
	.st22{fill:#FF87AF;}
	.st23{fill:#FFB0CA;}
	.st24{fill:#FFE500;stroke:#45413C;stroke-linecap:round;stroke-linejoin:round;stroke-miterlimit:10;}
	.st25{fill:#9CEB60;stroke:#45413C;stroke-linecap:round;stroke-linejoin:round;stroke-miterlimit:10;}
	.st26{fill:#FFFACF;stroke:#45413C;stroke-linecap:round;stroke-linejoin:round;stroke-miterlimit:10;}
	.st27{fill:#00F5BC;stroke:#45413C;stroke-linecap:round;stroke-linejoin:round;stroke-miterlimit:10;}
	.st28{fill:#BF8256;stroke:#45413C;stroke-linecap:round;stroke-linejoin:round;stroke-miterlimit:10;}
	.st29{fill:#FFE3CF;stroke:#45413C;stroke-linecap:round;stroke-linejoin:round;stroke-miterlimit:10;}
	.st30{fill:#FF6242;}
	.st31{fill:#FF866E;}
	.st32{fill:none;stroke:#E04122;stroke-linecap:round;stroke-linejoin:round;stroke-miterlimit:10;}
	.st33{fill:#FFFEF2;stroke:#45413C;stroke-linecap:round;stroke-linejoin:round;stroke-miterlimit:10;}
	.st34{fill:#FF6242;stroke:#45413C;stroke-linecap:round;stroke-linejoin:round;stroke-miterlimit:10;}
	.st35{fill:#FFA694;}
	.st36{fill:#FFFFFF;stroke:#45413C;stroke-linecap:round;stroke-linejoin:round;stroke-miterlimit:10;}
	.st37{fill:#FFFEF2;}
	.st38{fill:#FF6196;}
	.st39{fill:#B89558;}
	.st40{fill:none;stroke:#915E3A;stroke-linecap:round;stroke-linejoin:round;stroke-miterlimit:10;}
	.st41{fill:#DEBB7E;stroke:#45413C;stroke-linecap:round;stroke-linejoin:round;stroke-miterlimit:10;}
	.st42{fill:#6DD627;stroke:#45413C;stroke-linecap:round;stroke-linejoin:round;stroke-miterlimit:10;}
	.st43{fill:#E5F8FF;}
	.st44{fill:#E8F4FA;}
	.st45{fill:#E8F4FA;stroke:#45413C;stroke-linecap:round;stroke-linejoin:round;stroke-miterlimit:10;}
	.st46{fill:#FFCCDD;}
	.st47{fill:#E5F8FF;stroke:#45413C;stroke-linecap:round;stroke-linejoin:round;stroke-miterlimit:10;}
	.st48{fill:#00B8F0;stroke:#45413C;stroke-linecap:round;stroke-linejoin:round;stroke-miterlimit:10;}
	.st49{fill:#00B8F0;}
	.st50{fill:#4ACFFF;}
	.st51{fill:#E04122;}
	.st52{fill:#E04122;stroke:#45413C;stroke-linecap:round;stroke-linejoin:round;stroke-miterlimit:10;}
	.st53{fill:#87898C;}
	.st54{fill:#BDBEC0;}
	.st55{fill:#656769;}
	.st56{fill:#525252;}
	.st57{fill:#FFF48C;stroke:#45413C;stroke-linecap:round;stroke-linejoin:round;stroke-miterlimit:10;}
	.st58{fill:#6DD627;}
	.st59{fill:#EB6D00;}
	.st60{fill:#46B000;}
	.st61{fill:#80DDFF;}
	.st62{fill:#DAEDF7;}
	.st63{fill:#BF8DF2;stroke:#45413C;stroke-linecap:round;stroke-linejoin:round;stroke-miterlimit:10;}
	.st64{fill:#9F5AE5;stroke:#45413C;stroke-linecap:round;stroke-linejoin:round;stroke-miterlimit:10;}
	.st65{fill:#C8FFA1;}
	.st66{fill:#E4FFD1;}
	.st67{fill:#9CEB60;}
	.st68{fill:#E5FEFF;}
	.st69{fill:#B8ECFF;}
	.st70{fill:#E0E0E0;stroke:#45413C;stroke-linecap:round;stroke-linejoin:round;stroke-miterlimit:10;}
	.st71{fill:#E0E0E0;}
	.st72{fill:none;stroke:#4F4B45;stroke-linejoin:round;stroke-miterlimit:10;}
	.st73{fill:none;stroke:#4F4B45;stroke-linecap:round;stroke-linejoin:round;stroke-miterlimit:10;}
	.st74{fill:#E0366F;stroke:#45413C;stroke-linecap:round;stroke-linejoin:round;stroke-miterlimit:10;}
	.st75{fill:none;stroke:#45413C;stroke-miterlimit:10;}
	.st76{fill:#FF866E;stroke:#45413C;stroke-linecap:round;stroke-linejoin:round;stroke-miterlimit:10;}
	.st77{fill:#45413C;stroke:#45413C;stroke-linecap:round;stroke-linejoin:round;stroke-miterlimit:10;}
	.st78{fill:#9F5AE5;}
	.st79{fill:#803EC2;}
	.st80{fill:#803EC2;stroke:#45413C;stroke-linecap:round;stroke-linejoin:round;stroke-miterlimit:10;}
	.st81{fill:#BF8DF2;}
	.st82{fill:#FFAA54;stroke:#45413C;stroke-linecap:round;stroke-linejoin:round;stroke-miterlimit:10;}
	.st83{fill:none;stroke:#45413C;stroke-linejoin:round;stroke-miterlimit:10;}
	.st84{fill:#FFCCDD;stroke:#45413C;stroke-linecap:round;stroke-linejoin:round;stroke-miterlimit:10;}
	.st85{fill:#FF6196;stroke:#45413C;stroke-linecap:round;stroke-linejoin:round;stroke-miterlimit:10;}
	.st86{fill:#FFE5EE;}
	.st87{fill:#F7E5C6;stroke:#45413C;stroke-linecap:round;stroke-linejoin:round;stroke-miterlimit:10;}
	.st88{fill:#E5FFF9;}
	.st89{fill:none;stroke:#45413C;stroke-width:1.0064;stroke-linecap:round;stroke-linejoin:round;stroke-miterlimit:10;}
	.st90{fill:#4AEFF7;}
	.st91{fill:#A6FBFF;}
	.st92{fill:#E5FEFF;stroke:#45413C;stroke-linecap:round;stroke-linejoin:round;stroke-miterlimit:10;}
	.st93{fill:#46B000;stroke:#45413C;stroke-linecap:round;stroke-linejoin:round;stroke-miterlimit:10;}
	.st94{fill:#FFFFFF;stroke:#45413C;stroke-linejoin:round;stroke-miterlimit:10;}
	.st95{fill:#FFFFFF;stroke:#45413C;stroke-miterlimit:10;}
	.st96{fill:#009FD9;}
	.st97{fill:#00DFEB;}
	.st98{fill:#C0DCEB;stroke:#45413C;stroke-linecap:round;stroke-linejoin:round;stroke-miterlimit:10;}
	.st99{fill:#00DFEB;stroke:#45413C;stroke-linecap:round;stroke-linejoin:round;stroke-miterlimit:10;}
	.st100{fill:#FFE5EE;stroke:#45413C;stroke-linecap:round;stroke-linejoin:round;stroke-miterlimit:10;}
	.st101{fill:#8CA4B8;}
	.st102{fill:#ADC4D9;}
	.st103{fill:#656769;stroke:#45413C;stroke-linecap:round;stroke-linejoin:round;stroke-miterlimit:10;}
	.st104{fill:#F0F0F0;stroke:#45413C;stroke-linecap:round;stroke-linejoin:round;stroke-miterlimit:10;}
	.st105{fill:#C0DCEB;}
	.st106{fill:#45413C;}
	.st107{fill:#FFCABF;}
	.st108{fill:#87898C;stroke:#45413C;stroke-linecap:round;stroke-linejoin:round;stroke-miterlimit:10;}
	.st109{fill:#EBCB00;stroke:#45413C;stroke-linecap:round;stroke-linejoin:round;stroke-miterlimit:10;}</style>
  <circle
     id="circle166"
     fill="#5e4aa6"
     r="0"
     cy="-1247.3"
     cx="-1169.6" />
  <g
     id="g182"
     stroke-width="0.26458"
     fill="#5e4aa6"
     transform="matrix(3.7796,0,0,3.7796,71.322,-5.2179)">
    <g
       id="g176"
       transform="translate(-21.833,0.89722)">
      <circle
         id="circle168"
         r="0"
         cy="-328.38"
         cx="-330.35001" />
      <circle
         id="circle170"
         r="0"
         cy="-326.25"
         cx="-312.10999" />
      <circle
         id="circle172"
         r="0"
         cy="-333.07001"
         cx="-306.01999" />
      <circle
         id="circle174"
         r="0"
         cy="-326.01001"
         cx="-308.84" />
    </g>
    <circle
       id="circle178"
       r="0"
       cy="-330.42001"
       cx="-284.23001" />
    <circle
       id="circle180"
       fill-rule="evenodd"
       r="0"
       cy="4.3997998"
       cx="6.6785998" />
  </g>
  <g
     id="g190"
     transform="matrix(1.3333,0,0,-1.3333,822.48,912.85)">
    <g
       id="g188"
       clip-path="url(#clipPath13429-36)">
      <g
         id="g186"
         transform="translate(448,326)">
        <path
           id="path184"
           fill-rule="evenodd"
           fill="#ffffff"
           d="M 0,0 C 3.866,0 7,3.134 7,7 7,10.866 3.866,14 0,14 -3.866,14 -7,10.866 -7,7 -7,3.134 -3.866,0 0,0" />
      </g>
    </g>
  </g>
  <g
     id="g198"
     transform="matrix(1.3333,0,0,-1.3333,822.48,912.85)">
    <g
       id="g196"
       clip-path="url(#clipPath13465-7)">
      <g
         id="g194"
         transform="translate(474,326)">
        <path
           id="path192"
           fill-rule="evenodd"
           fill="#ffffff"
           d="M 0,0 C 3.866,0 7,3.134 7,7 7,10.866 3.866,14 0,14 -3.866,14 -7,10.866 -7,7 -7,3.134 -3.866,0 0,0" />
      </g>
    </g>
  </g>
  <g
     id="g206"
     transform="matrix(1.3333,0,0,-1.3333,822.48,912.85)">
    <g
       id="g204"
       clip-path="url(#clipPath13501-5)">
      <g
         id="g202"
         transform="translate(497,326)">
        <path
           id="path200"
           fill-rule="evenodd"
           fill="#ffffff"
           d="M 0,0 C 3.866,0 7,3.134 7,7 7,10.866 3.866,14 0,14 -3.866,14 -7,10.866 -7,7 -7,3.134 -3.866,0 0,0" />
      </g>
    </g>
  </g>
  <g
     id="g212"
     transform="matrix(1.3333,0,0,-1.3333,822.48,912.85)">
    <g
       id="g210"
       clip-path="url(#clipPath13753-3)">
      <path
         id="path208"
         fill-rule="evenodd"
         fill="#ffffff"
         d="m 593,1073 h 36 v -18 h -36 z m 18,-11 c 6.075,0 11,0.895 11,2 0,1.105 -4.925,2 -11,2 -6.075,0 -11,-0.895 -11,-2 0,-1.105 4.925,-2 11,-2" />
    </g>
  </g>
  <g
     id="g220"
     transform="matrix(1.3333,0,0,-1.3333,822.48,912.85)">
    <g
       id="g218"
       clip-path="url(#clipPath13771-5)">
      <g
         id="g216"
         transform="translate(583.42,1063)">
        <path
           id="path214"
           fill="#ffffff"
           d="M 0,0 C 0,0 21.582,23.182 21.582,35.147 21.582,47.195 11.898,57 0,57 c -11.816,0 -21.418,-9.805 -21.418,-21.853 0,-8.06 9.766,-21.188 16.002,-28.832 z m 0,42.542 c 3.938,0 7.14,-3.323 7.14,-7.395 0,-3.822 -3.202,-7.146 -7.14,-7.146 -3.856,0 -7.222,3.324 -7.222,7.146 0,4.072 3.366,7.395 7.222,7.395" />
      </g>
    </g>
  </g>
  <g
     id="g228"
     transform="matrix(1.3333,0,0,-1.3333,822.48,912.85)">
    <g
       id="g226"
       clip-path="url(#clipPath14035-6)">
      <g
         id="g224"
         transform="translate(562,535)">
        <path
           id="path222"
           fill-rule="evenodd"
           fill="#ffffff"
           d="m 0,0 h 35 c 2.762,0 5,-2.238 5,-5 0,-2.762 -2.238,-5 -5,-5 H 0 c -2.762,0 -5,2.238 -5,5 0,2.762 2.238,5 5,5" />
      </g>
    </g>
  </g>
  <g
     id="g236"
     transform="matrix(1.3333,0,0,-1.3333,822.48,912.85)">
    <g
       id="g234"
       clip-path="url(#clipPath14127-2)">
      <g
         id="g232"
         transform="translate(562,518)">
        <path
           id="path230"
           fill-rule="evenodd"
           fill="#ffffff"
           d="m 0,0 h 35 c 2.762,0 5,-2.238 5,-5 0,-2.762 -2.238,-5 -5,-5 H 0 c -2.762,0 -5,2.238 -5,5 0,2.762 2.238,5 5,5" />
      </g>
    </g>
  </g>
  <g
     id="g244"
     transform="matrix(1.3333,0,0,-1.3333,822.48,912.85)">
    <g
       id="g242"
       clip-path="url(#clipPath14445-9)">
      <g
         id="g240"
         transform="translate(536.43,133.83)">
        <path
           id="path238"
           fill="#ffffff"
           d="M 0,0 C -10.01,-12.916 -22.288,-9.047 -24.23,-8.072 -29.077,-6.779 -30.694,1.943 -24.556,4.846 -14.538,8.072 -5.496,4.521 0.968,1.293 0.324,0.326 0,0 0,0 m 10.667,3.553 c 4.521,8.072 6.139,15.826 6.139,15.826 H 1.617 v 5.812 h 17.767 v 2.26 H 1.617 v 8.723 h -8.074 v -8.723 h -16.156 v -2.584 h 16.156 v -5.812 h -13.57 V 16.47 H 7.756 c 0,-0.325 0,-0.325 -0.324,-0.968 0,-2.909 -1.936,-6.779 -3.554,-10.014 -20.677,8.079 -26.491,3.235 -28.108,2.584 -13.564,-9.689 -0.968,-21.963 1.293,-21.638 14.538,-3.227 23.905,2.91 30.369,10.657 0.324,-0.325 0.967,-0.325 1.292,-0.325 4.528,-2.578 25.848,-12.592 25.848,-12.592 V -3.552 C 30.694,-3.227 19.066,0.643 10.667,3.553" />
      </g>
    </g>
  </g>
  <g
     id="g252"
     transform="matrix(1.3333,0,0,-1.3333,822.48,912.85)">
    <g
       id="g250"
       clip-path="url(#clipPath14609-1)">
      <g
         id="g248"
         transform="translate(720.03,1091.5)">
        <path
           id="path246"
           fill="#ffffff"
           d="m 0,0 c -0.149,0.354 -0.224,0.837 -0.224,1.451 0,0.372 0.103,0.828 0.306,1.368 0.205,0.539 0.428,0.958 0.671,1.256 -0.019,0.409 0.051,0.902 0.209,1.478 0.159,0.576 0.368,0.976 0.629,1.2 0,2.586 0.86,5.269 2.581,8.05 1.722,2.782 3.744,4.73 6.07,5.846 2.585,1.228 5.6,1.842 9.041,1.842 2.475,0 4.949,-0.511 7.423,-1.534 0.912,-0.391 1.749,-0.837 2.512,-1.34 0.762,-0.502 1.423,-1.022 1.981,-1.562 0.559,-0.54 1.07,-1.172 1.534,-1.897 0.465,-0.725 0.856,-1.413 1.172,-2.064 0.318,-0.651 0.619,-1.437 0.908,-2.358 0.287,-0.921 0.524,-1.753 0.71,-2.497 0.186,-0.744 0.391,-1.655 0.614,-2.734 l 0.028,-0.14 C 37.188,4.822 37.7,3.426 37.7,2.179 37.7,1.919 37.616,1.547 37.448,1.064 37.28,0.58 37.196,0.227 37.196,0.003 c 0,-0.019 0.015,-0.052 0.043,-0.099 0.028,-0.047 0.061,-0.093 0.098,-0.139 0.038,-0.046 0.057,-0.077 0.057,-0.098 1.432,-2.121 2.553,-4.116 3.363,-5.985 0.809,-1.869 1.214,-3.808 1.214,-5.817 0,-0.8 -0.182,-1.73 -0.544,-2.791 -0.363,-1.06 -0.879,-1.59 -1.549,-1.59 -0.167,0 -0.349,0.069 -0.544,0.209 -0.194,0.14 -0.371,0.303 -0.529,0.489 -0.159,0.186 -0.335,0.428 -0.53,0.725 -0.195,0.297 -0.344,0.543 -0.447,0.739 -0.103,0.196 -0.228,0.438 -0.377,0.725 -0.147,0.288 -0.231,0.451 -0.251,0.489 -0.019,0.019 -0.047,0.028 -0.085,0.028 l -0.138,-0.111 c -1.099,-2.864 -2.327,-4.938 -3.684,-6.222 0.372,-0.372 0.944,-0.73 1.716,-1.075 0.772,-0.345 1.414,-0.73 1.925,-1.158 0.511,-0.426 0.841,-1.031 0.991,-1.814 -0.037,-0.074 -0.074,-0.223 -0.112,-0.447 -0.036,-0.224 -0.101,-0.391 -0.195,-0.501 -1.19,-1.804 -4,-2.706 -8.427,-2.706 -0.986,0 -2.013,0.084 -3.084,0.251 -1.069,0.168 -1.981,0.354 -2.734,0.558 -0.753,0.204 -1.726,0.483 -2.916,0.837 -0.279,0.093 -0.493,0.158 -0.643,0.196 -0.259,0.075 -0.687,0.115 -1.282,0.125 -0.595,0.009 -0.967,0.023 -1.116,0.042 -0.763,-0.838 -1.949,-1.442 -3.559,-1.814 -1.609,-0.372 -3.176,-0.558 -4.702,-0.558 -0.65,0 -1.293,0.014 -1.925,0.042 -0.632,0.028 -1.498,0.113 -2.595,0.252 -1.098,0.139 -2.038,0.33 -2.82,0.572 -0.781,0.241 -1.473,0.613 -2.078,1.115 -0.604,0.502 -0.906,1.098 -0.906,1.786 0,0.744 0.093,1.298 0.279,1.661 0.187,0.364 0.569,0.815 1.144,1.353 0.205,0.038 0.581,0.159 1.131,0.363 0.549,0.204 1.009,0.316 1.381,0.334 0.074,0 0.204,0.019 0.39,0.057 0.038,0.037 0.057,0.074 0.057,0.111 l -0.057,0.084 c -0.892,0.204 -1.897,1.185 -3.014,2.944 -1.117,1.758 -1.796,3.214 -2.038,4.367 l -0.139,0.084 c -0.074,0 -0.186,-0.185 -0.334,-0.557 -0.335,-0.763 -0.842,-1.455 -1.521,-2.079 -0.679,-0.622 -1.4,-0.971 -2.163,-1.046 h -0.028 c -0.073,0 -0.129,0.041 -0.167,0.125 -0.037,0.083 -0.084,0.134 -0.139,0.153 -0.428,1.004 -0.642,1.934 -0.642,2.79 0,5.116 2.343,9.45 7.032,13.002 z" />
      </g>
    </g>
  </g>
  <g
     id="g260"
     transform="matrix(1.3333,0,0,-1.3333,822.48,912.85)">
    <g
       id="g258"
       clip-path="url(#clipPath15305-27)">
      <g
         id="g256"
         transform="translate(655,300)">
        <path
           id="path254"
           stroke-width="8"
           stroke-miterlimit="10"
           stroke="#ffffff"
           fill="none"
           d="M 0,0 C 16.568,0 30,13.432 30,30 30,46.568 16.568,60 0,60 -16.568,60 -30,46.568 -30,30 -30,13.432 -16.568,0 0,0 Z" />
      </g>
    </g>
  </g>
  <g
     id="g268"
     transform="matrix(1.3333,0,0,-1.3333,822.48,912.85)">
    <g
       id="g266"
       clip-path="url(#clipPath15341-09)">
      <g
         id="g264"
         transform="translate(66.849,1083.1)">
        <path
           id="path262"
           fill="#ffffff"
           d="m 0,0 c 0,5.302 -3.661,9.749 -8.591,10.948 -0.209,8.314 -7.006,14.991 -15.366,14.991 -4.897,0 -9.254,-2.293 -12.07,-5.861 -1.579,2.041 -4.05,3.358 -6.828,3.358 -4.769,0 -8.633,-3.868 -8.633,-8.639 0,-0.416 0.031,-0.825 0.089,-1.224 -0.726,0.13 -1.47,0.203 -2.232,0.203 -6.913,0 -12.515,-5.607 -12.515,-12.524 0,-6.916 5.602,-12.523 12.515,-12.523 h 42.394 c 6.21,0.013 11.241,5.053 11.241,11.269 z" />
      </g>
    </g>
  </g>
  <g
     id="g276"
     transform="matrix(1.3333,0,0,-1.3333,822.48,912.85)">
    <g
       id="g274"
       clip-path="url(#clipPath15715-3)">
      <g
         id="g272"
         transform="translate(65.5,681)">
        <path
           id="path270"
           stroke-width="4"
           stroke-miterlimit="10"
           stroke="#ffffff"
           fill="none"
           d="M 0,0 C 9.113,0 16.5,7.387 16.5,16.5 16.5,25.613 9.113,33 0,33 -9.113,33 -16.5,25.613 -16.5,16.5 -16.5,7.387 -9.113,0 0,0 Z" />
      </g>
    </g>
  </g>
  <g
     id="g284"
     transform="matrix(1.3333,0,0,-1.3333,822.48,912.85)">
    <g
       id="g282"
       clip-path="url(#clipPath15807-6)">
      <g
         id="g280"
         transform="translate(77.5,711)">
        <path
           id="path278"
           stroke-width="4"
           stroke-miterlimit="10"
           stroke="#ffffff"
           fill="none"
           d="M 0,0 C 7.456,0 13.5,6.044 13.5,13.5 13.5,20.956 7.456,27 0,27 -7.456,27 -13.5,20.956 -13.5,13.5 -13.5,6.044 -7.456,0 0,0 Z" />
      </g>
    </g>
  </g>
  <g
     id="g292"
     transform="matrix(1.3333,0,0,-1.3333,822.48,912.85)">
    <g
       id="g290"
       clip-path="url(#clipPath16001-0)">
      <g
         id="g288"
         transform="translate(455.91,931.53)">
        <path
           id="path286"
           fill="#ffffff"
           d="m 0,0 c -0.742,-1.039 -4.75,-2.821 -8.165,-3.563 -4.305,-0.891 -6.531,-1.633 -8.758,-2.82 -2.969,-1.782 -4.601,-4.009 -4.305,-6.087 0.149,-0.445 3.711,-5.64 7.868,-11.578 4.304,-5.938 7.868,-10.985 8.016,-11.134 0.149,-0.297 -0.445,-0.297 -2.524,-0.148 -6.531,0.445 -12.469,-2.969 -15.142,-8.314 -0.742,-1.632 -0.89,-2.523 -0.89,-4.453 0,-4.453 2.376,-8.016 6.829,-10.094 1.781,-0.742 2.375,-0.891 6.086,-0.891 4.007,0 4.156,0 6.829,1.336 7.125,3.414 10.093,10.095 7.125,16.181 -0.594,1.336 -4.305,7.719 -8.313,14.251 l -7.274,12.024 h 1.187 c 4.75,0.297 8.017,1.781 10.244,4.305 1.929,2.227 2.523,4.453 2.374,8.016 C 1.039,0.297 0.742,1.039 0,0" />
      </g>
    </g>
  </g>
  <g
     id="g300"
     transform="matrix(1.3333,0,0,-1.3333,822.48,912.85)">
    <g
       id="g298"
       clip-path="url(#clipPath16093-6)">
      <g
         id="g296"
         transform="translate(784,902.31)">
        <path
           id="path294"
           fill="#ffffff"
           d="m 0,0 c 0,-1.565 -0.904,-2.931 -2.251,-3.674 l -27.781,-18.472 c -0.012,-0.008 -0.026,-0.014 -0.037,-0.02 l -0.017,-0.011 c -0.684,-0.376 -1.48,-0.592 -2.331,-0.592 -2.53,0 -4.583,1.913 -4.583,4.269 v 37 c 0,2.356 2.053,4.27 4.583,4.27 0.851,0 1.647,-0.217 2.331,-0.596 l 0.017,-0.008 c 0.011,-0.009 0.022,-0.014 0.037,-0.02 L -2.251,3.675 C -0.904,2.932 0,1.565 0,0" />
      </g>
    </g>
  </g>
  <g
     id="g308"
     transform="matrix(1.3333,0,0,-1.3333,822.48,912.85)">
    <g
       id="g306"
       clip-path="url(#clipPath16477-2)">
      <g
         id="g304"
         transform="translate(223.75,708.35)">
        <path
           id="path302"
           fill-rule="evenodd"
           fill="#ffffff"
           d="m 0,0 c -15.123,0 -27.418,12.329 -27.418,27.486 0,1.382 1.111,2.505 2.487,2.505 1.379,0 2.499,-1.123 2.499,-2.505 0,-12.4 10.06,-22.487 22.432,-22.487 12.375,0 22.443,10.087 22.443,22.487 0,1.382 1.112,2.505 2.488,2.505 1.378,0 2.499,-1.123 2.499,-2.505 C 27.43,12.329 15.126,0 0,0" />
      </g>
    </g>
  </g>
  <g
     id="g316"
     transform="matrix(1.3333,0,0,-1.3333,822.48,912.85)">
    <g
       id="g314"
       clip-path="url(#clipPath16579-6)">
      <g
         id="g312"
         transform="translate(390.75,139.35)">
        <path
           id="path310"
           fill-rule="evenodd"
           fill="#ffffff"
           d="m 0,0 c -15.123,0 -27.418,12.329 -27.418,27.485 0,1.383 1.111,2.506 2.487,2.506 1.379,0 2.499,-1.123 2.499,-2.506 0,-12.398 10.06,-22.486 22.432,-22.486 12.375,0 22.443,10.088 22.443,22.486 0,1.383 1.112,2.506 2.488,2.506 1.378,0 2.499,-1.123 2.499,-2.506 C 27.43,12.329 15.126,0 0,0" />
      </g>
    </g>
  </g>
  <g
     id="g324"
     transform="matrix(1.3333,0,0,-1.3333,822.48,912.85)">
    <g
       id="g322"
       clip-path="url(#clipPath16709-1)">
      <g
         id="g320"
         transform="translate(423.93,686.39)">
        <path
           id="path318"
           fill="#ffffff"
           d="m 0,0 c 0.245,-0.286 0.605,-0.456 0.986,-0.456 0.382,0 0.743,0.17 0.988,0.456 L 19.49,20.497 c 0.333,0.388 0.408,0.933 0.191,1.388 -0.211,0.463 -0.674,0.756 -1.184,0.756 h -9.93 c -2.118,4.172 -3.109,8.382 -2.973,12.63 0.135,4.248 1.954,12.361 5.455,24.34 C 0.093,53.021 -6.607,41.171 -6.607,28.386 v -5.745 h -9.93 c -0.51,0 -0.966,-0.293 -1.184,-0.756 -0.211,-0.462 -0.135,-1 0.191,-1.388 z" />
      </g>
    </g>
  </g>
  <g
     id="g332"
     transform="matrix(1.3333,0,0,-1.3333,689.55,1068.6)">
    <g
       id="g330"
       clip-path="url(#clipPath24218-87)">
      <g
         id="g328"
         transform="translate(9.1685,1040.9)">
        <path
           id="path326"
           fill-rule="evenodd"
           fill="#ffffff"
           d="M 0,0 25.314,21.067 -0.763,39.718 c 5.846,7.671 15.079,12.622 25.468,12.622 17.673,0 32,-14.327 32,-32 0,-17.673 -14.327,-32 -32,-32 C 14.757,-11.66 5.869,-7.121 0,0 m 27.349,31.812 c 2.835,0 5.132,2.297 5.132,5.132 0,2.834 -2.297,5.132 -5.132,5.132 -2.834,0 -5.132,-2.298 -5.132,-5.132 0,-2.835 2.298,-5.132 5.132,-5.132" />
      </g>
    </g>
  </g>
  <g
     id="g340"
     transform="matrix(1.3333,0,0,-1.3333,689.55,1068.6)">
    <g
       id="g338"
       clip-path="url(#clipPath24382-92)">
      <g
         id="g336"
         transform="translate(194.25,1130.3)">
        <path
           id="path334"
           fill-rule="evenodd"
           fill="#ffffff"
           d="M 0,0 C 20.173,-11.579 43.841,2 51.309,14.862 58.776,27.723 56.341,46 40.841,52.5 25.341,59 -4.646,59.111 -13.659,43.5 -22.672,27.889 -20.174,11.578 0,0" />
      </g>
    </g>
  </g>
  <g
     id="g348"
     transform="matrix(1.3333,0,0,-1.3333,689.55,1068.6)">
    <g
       id="g346"
       clip-path="url(#clipPath24650-0)">
      <g
         id="g344"
         transform="translate(473.86,1057.5)">
        <path
           id="path342"
           fill-rule="evenodd"
           fill="#ffffff"
           d="M 0,0 C 1.657,0 3,1.501 3,3.353 3,5.205 1.657,6.706 0,6.706 -1.656,6.706 -3,5.205 -3,3.353 -3,1.501 -1.656,0 0,0" />
      </g>
    </g>
  </g>
  <g
     id="g356"
     transform="matrix(1.3333,0,0,-1.3333,689.55,1068.6)">
    <g
       id="g354"
       clip-path="url(#clipPath24700-2)">
      <g
         id="g352"
         transform="translate(493,1069.8)">
        <path
           id="path350"
           fill-rule="evenodd"
           fill="#ffffff"
           d="M 0,0 C 1.657,0 3,1.501 3,3.353 3,5.205 1.657,6.706 0,6.706 -1.657,6.706 -3,5.205 -3,3.353 -3,1.501 -1.657,0 0,0" />
      </g>
    </g>
  </g>
  <g
     id="g364"
     transform="matrix(1.3333,0,0,-1.3333,689.55,1068.6)">
    <g
       id="g362"
       clip-path="url(#clipPath24750-3)">
      <g
         id="g360"
         transform="translate(510,1048.8)">
        <path
           id="path358"
           fill-rule="evenodd"
           fill="#ffffff"
           d="M 0,0 C 1.657,0 3,1.501 3,3.353 3,5.205 1.657,6.706 0,6.706 -1.657,6.706 -3,5.205 -3,3.353 -3,1.501 -1.657,0 0,0" />
      </g>
    </g>
  </g>
  <g
     id="g372"
     transform="matrix(1.3333,0,0,-1.3333,689.55,1068.6)">
    <g
       id="g370"
       clip-path="url(#clipPath24864-7)">
      <g
         id="g368"
         transform="translate(806.5,1072.2)">
        <path
           id="path366"
           stroke-miterlimit="10"
           stroke-linecap="round"
           stroke="#ffffff"
           fill="none"
           d="M 0,0 C -3.667,-14 -9.5,-21.833 -17.5,-23.5" />
      </g>
    </g>
  </g>
  <g
     id="g380"
     transform="matrix(1.3333,0,0,-1.3333,689.55,1068.6)">
    <g
       id="g378"
       clip-path="url(#clipPath24896-5)">
      <g
         id="g376"
         transform="translate(802,1066.2)">
        <path
           id="path374"
           fill-rule="evenodd"
           fill="#ffffff"
           d="m 0,0 c -4.971,0 -9,4.029 -9,9 0,4.971 4.029,9 9,9 C 4.971,18 9,13.971 9,9 9,4.029 4.971,0 0,0 m 0,6 c 1.657,0 3,1.343 3,3 0,1.657 -1.343,3 -3,3 -1.657,0 -3,-1.343 -3,-3 0,-1.657 1.343,-3 3,-3" />
      </g>
    </g>
  </g>
  <g
     id="g388"
     transform="matrix(1.3333,0,0,-1.3333,689.55,1068.6)">
    <g
       id="g386"
       clip-path="url(#clipPath25070-92)">
      <g
         id="g384"
         transform="translate(122,495.24)">
        <path
           id="path382"
           fill-rule="evenodd"
           fill="#ffffff"
           d="M 0,0 H 3 C 3.553,0 4,-0.447 4,-1 V -3 C 4,-3.553 3.553,-4 3,-4 H 0 c -0.553,0 -1,0.447 -1,1 v 2 c 0,0.553 0.447,1 1,1" />
      </g>
    </g>
  </g>
  <g
     id="g396"
     transform="matrix(1.3333,0,0,-1.3333,689.55,1068.6)">
    <g
       id="g394"
       clip-path="url(#clipPath25100-28)">
      <g
         id="g392"
         transform="translate(204,495.24)">
        <path
           id="path390"
           fill-rule="evenodd"
           fill="#ffffff"
           d="M 0,0 H 3 C 3.553,0 4,-0.447 4,-1 V -3 C 4,-3.553 3.553,-4 3,-4 H 0 c -0.553,0 -1,0.447 -1,1 v 2 c 0,0.553 0.447,1 1,1" />
      </g>
    </g>
  </g>
  <g
     id="g404"
     transform="matrix(1.3333,0,0,-1.3333,689.55,1068.6)">
    <g
       id="g402"
       clip-path="url(#clipPath25502-9)">
      <g
         id="g400"
         transform="translate(805,482.24)">
        <path
           id="path398"
           fill-rule="evenodd"
           fill="#ffffff"
           d="M 0,0 C 4.418,0 8,3.582 8,8 8,12.418 4.418,16 0,16 -4.418,16 -8,12.418 -8,8 -8,3.582 -4.418,0 0,0" />
      </g>
    </g>
  </g>
  <g
     id="g412"
     transform="matrix(1.3333,0,0,-1.3333,689.55,1068.6)">
    <g
       id="g410"
       clip-path="url(#clipPath25686-73)">
      <g
         id="g408"
         transform="translate(658,1075.7)">
        <path
           id="path406"
           fill="#ffffff"
           d="M 0,0 C 0,-4.694 3.806,-8.5 8.5,-8.5 13.194,-8.5 17,-4.694 17,0 17,4.694 13.194,8.5 8.5,8.5 3.806,8.5 0,4.694 0,0" />
      </g>
    </g>
  </g>
  <g
     id="g418"
     transform="matrix(1.3333,0,0,-1.3333,689.55,1068.6)">
    <g
       id="g416"
       clip-path="url(#clipPath25788-6)">
      <path
         id="path414"
         fill-rule="evenodd"
         fill="#ffffff"
         d="m 465.44,1082.2 h 85.864 v -75.319 H 465.44 Z m 64.45,-25.106 c -0.483,0.765 -1.453,0.947 -2.178,0.431 l -15.504,-11.01 c -0.359,-0.255 -0.847,-0.153 -1.071,0.238 l -18.271,31.869 c -0.438,0.771 -1.139,0.776 -1.549,-0.016 l -1.807,-3.514 -21.07,-47.452 c 13.336,-18.44 48.336,-26.94 73.836,-3.44 0.841,0 6.477,6.246 6,7 z" />
    </g>
  </g>
  <g
     id="g426"
     transform="matrix(1.3333,0,0,-1.3333,689.55,1068.6)">
    <g
       id="g424"
       clip-path="url(#clipPath26420-1)">
      <g
         id="g422"
         transform="translate(-23,837.24)">
        <path
           id="path420"
           stroke-width="8"
           stroke-miterlimit="10"
           stroke="#ffffff"
           fill="none"
           d="M 0,0 C 18.778,0 34,15.222 34,34 34,52.778 18.778,68 0,68 -18.778,68 -34,52.778 -34,34 -34,15.222 -18.778,0 0,0 Z" />
      </g>
    </g>
  </g>
  <g
     id="g432"
     transform="matrix(1.3333,0,0,-1.3333,689.55,1068.6)">
    <g
       id="g430"
       clip-path="url(#clipPath26860-29)">
      <path
         id="path428"
         fill-rule="evenodd"
         fill="#ffffff"
         d="m 644,721.24 h 82 v -82 h -82 z m 41,-81 c 22.092,0 40,17.908 40,40 0,22.092 -17.908,40 -40,40 -22.092,0 -40,-17.908 -40,-40 0,-22.092 17.908,-40 40,-40" />
    </g>
  </g>
  <g
     id="g440"
     transform="matrix(1.3333,0,0,-1.3333,689.55,1068.6)">
    <g
       id="g438"
       clip-path="url(#clipPath27506-3)">
      <g
         id="g436"
         transform="translate(613.88,476.03)">
        <path
           id="path434"
           fill="#ffffff"
           d="m 0,0 c 0.187,-0.771 0.148,-1.502 -0.116,-2.193 -0.266,-0.692 -0.678,-1.303 -1.239,-1.833 -0.561,-0.531 -1.247,-0.949 -2.057,-1.255 -0.81,-0.305 -1.683,-0.457 -2.617,-0.457 -5.889,-0.033 -11.156,-0.049 -15.798,-0.049 h -15.891 c -1.122,0 -2.111,0.209 -2.968,0.627 -0.857,0.418 -1.543,0.932 -2.056,1.543 -0.515,0.611 -0.858,1.279 -1.029,2.002 -0.171,0.723 -0.148,1.375 0.071,1.953 0.186,0.451 0.373,0.917 0.56,1.398 0.157,0.418 0.343,0.893 0.561,1.424 0.219,0.53 0.452,1.069 0.701,1.615 l 1.776,4.438 h 5.329 l -2.01,-6.077 h 30.099 l -2.009,6.077 h 5.094 C -2.944,7.573 -2.353,6.094 -1.822,4.775 -1.604,4.197 -1.387,3.635 -1.168,3.088 -0.95,2.541 -0.756,2.051 -0.584,1.616 -0.413,1.183 -0.272,0.812 -0.163,0.507 -0.055,0.201 0,0.033 0,0 m -22.922,9.236 c -0.601,0.698 -1.289,1.571 -2.064,2.618 -0.776,1.046 -1.575,2.125 -2.398,3.235 -0.822,1.11 -1.637,2.204 -2.443,3.283 -0.808,1.079 -1.527,2.015 -2.16,2.808 -0.728,0.856 -1.013,1.562 -0.855,2.117 0.158,0.555 0.696,0.832 1.614,0.832 0.506,-0.031 1.187,-0.024 2.041,0.024 0.855,0.048 1.567,0.072 2.136,0.072 0.633,0 1.029,0.19 1.187,0.57 0.158,0.381 0.237,0.889 0.237,1.523 0,0.698 -0.008,1.467 -0.024,2.308 -0.016,0.841 -0.024,1.705 -0.024,2.593 0,0.888 -0.008,1.76 -0.023,2.617 -0.016,0.856 -0.024,1.65 -0.024,2.379 0,0.318 0.024,0.65 0.071,1 0.047,0.348 0.158,0.666 0.333,0.951 0.173,0.285 0.426,0.523 0.758,0.714 0.332,0.19 0.784,0.285 1.353,0.285 0.665,0 1.274,0.009 1.827,0.024 0.555,0.016 1.195,0.024 1.923,0.024 1.044,0 1.748,-0.246 2.112,-0.737 0.364,-0.492 0.562,-1.277 0.593,-2.356 v -1.855 c 0,-0.73 0.008,-1.507 0.023,-2.331 0.017,-0.826 0.025,-1.651 0.025,-2.475 v -2.236 c 0,-0.92 0.095,-1.659 0.284,-2.213 0.191,-0.555 0.617,-0.817 1.282,-0.785 0.475,0 1.052,-0.016 1.732,-0.047 0.68,-0.032 1.274,-0.049 1.78,-0.049 0.855,0 1.4,-0.23 1.638,-0.69 0.237,-0.46 0.071,-1.054 -0.498,-1.784 -0.602,-0.76 -1.298,-1.68 -2.089,-2.759 -0.791,-1.08 -1.606,-2.197 -2.445,-3.355 -0.838,-1.158 -1.661,-2.284 -2.467,-3.379 -0.807,-1.094 -1.528,-2.037 -2.16,-2.83 -0.57,-0.73 -1.116,-1.103 -1.637,-1.119 -0.523,-0.016 -1.069,0.326 -1.638,1.023" />
      </g>
    </g>
  </g>
  <g
     id="g448"
     transform="matrix(1.3333,0,0,-1.3333,689.55,1068.6)">
    <g
       id="g446"
       clip-path="url(#clipPath27772-1)">
      <g
         id="g444"
         transform="translate(588.67,331.24)">
        <path
           id="path442"
           fill="#ffffff"
           d="m 0,0 h -49.301 c -2.41,0 -4.367,-1.941 -4.367,-4.299 v -49.402 c 0,-2.393 1.957,-4.299 4.367,-4.299 H 0 c 2.41,0 4.332,1.941 4.332,4.299 V -4.334 C 4.332,-1.941 2.375,0 0,0 m -33.403,-53.008 h -8.839 v 6.795 h 8.839 z m -8.91,24.58 h 8.84 v -6.795 h -8.84 z m 8.945,-15.566 h -8.84 v 6.795 h 8.84 z m 12.998,-9.014 h -8.84 v 6.795 h 8.84 z m -8.91,24.58 h 8.84 v -6.795 h -8.84 z m 8.944,-15.566 h -8.839 v 6.795 h 8.839 z m 13.277,-9.014 h -8.84 v 6.795 h 8.84 z m -8.909,24.58 h 8.84 v -6.795 h -8.84 z m 8.945,-15.566 h -8.84 v 6.795 h 8.84 z m 5.276,24.441 c 0,-2.392 -1.957,-4.299 -4.368,-4.299 h -37.77 c -2.411,-0.035 -4.367,1.907 -4.367,4.299 v 10.054 c 0,2.392 1.956,4.333 4.332,4.333 h 37.805 c 2.411,0 4.368,-1.941 4.368,-4.333 z" />
      </g>
    </g>
  </g>
  <g
     id="g456"
     transform="matrix(1.3333,0,0,-1.3333,689.55,1068.6)">
    <g
       id="g454"
       clip-path="url(#clipPath27864-9)">
      <g
         id="g452"
         transform="translate(609.3,312.46)">
        <path
           id="path450"
           fill="#ffffff"
           d="m 0,0 h -0.72 c -0.206,0 -0.377,0 -0.514,-0.212 -0.103,-0.142 -0.103,-0.283 -0.103,-0.46 v -0.566 c 0,-0.178 0,-0.319 0.103,-0.461 0.137,-0.212 0.308,-0.212 0.514,-0.212 H 0 c 0.205,0 0.376,0 0.514,0.212 0.102,0.142 0.102,0.283 0.102,0.461 v 0.566 c 0,0.213 0,0.318 -0.102,0.46 C 0.376,0 0.239,0 0,0 M -5.003,4.779 H -7.95 c -0.548,0 -0.993,-0.46 -0.993,-1.026 V 1.346 h 0.993 v 2.407 h 2.947 V 1.346 h 0.993 v 2.407 c 0,0.566 -0.445,1.026 -0.993,1.026 m 0,-6.973 H -7.95 v 2.407 h -0.993 v -2.407 c 0,-0.567 0.411,-1.027 0.993,-1.027 h 2.947 c 0.582,0 0.993,0.46 0.993,1.027 v 2.407 h -0.993 z m -14.357,0 h -2.947 V 0.39 h -0.994 v -2.584 c 0,-0.567 0.411,-1.027 0.994,-1.027 h 2.947 c 0.583,0 0.994,0.46 0.994,1.027 V 0.39 h -0.994 z m 0,6.973 h -2.947 c -0.548,0 -0.994,-0.46 -0.994,-1.026 V 1.522 h 0.994 v 2.231 h 2.947 V 1.522 h 0.994 v 2.231 c 0,0.566 -0.446,1.026 -0.994,1.026 m 7.195,0 h -2.946 c -0.549,0 -0.994,-0.46 -0.994,-1.026 V 1.522 h 0.994 v 2.231 h 2.946 V 1.522 h 0.994 v 2.231 c 0,0.566 -0.445,1.026 -0.994,1.026 m 0,-6.973 h -2.946 V 0.39 h -0.994 v -2.584 c 0,-0.567 0.445,-1.027 0.994,-1.027 h 2.946 c 0.583,0 0.994,0.46 0.994,1.027 V 0.39 h -0.994 z M 6.51,4.779 H 3.563 C 3.015,4.779 2.569,4.319 2.569,3.753 V 1.169 H 3.563 V 3.753 H 6.51 V 1.169 h 0.994 v 2.584 c 0,0.566 -0.445,1.026 -0.994,1.026 m 0,-6.973 H 3.563 v 2.23 H 2.569 v -2.23 c 0,-0.567 0.446,-1.027 0.994,-1.027 H 6.51 c 0.583,0 0.994,0.46 0.994,1.027 v 2.23 H 6.51 Z m 7.195,0 h -2.946 v 2.053 H 9.765 v -2.053 c 0,-0.567 0.411,-1.027 0.994,-1.027 h 2.946 c 0.583,0 0.994,0.46 0.994,1.027 v 2.053 h -0.994 z m 0,6.973 h -2.946 c -0.548,0 -0.994,-0.46 -0.994,-1.026 V 0.992 h 0.994 v 2.761 h 2.946 V 0.992 h 0.994 v 2.761 c 0,0.566 -0.479,1.026 -0.994,1.026" />
      </g>
    </g>
  </g>
  <g
     id="g464"
     transform="matrix(1.3333,0,0,-1.3333,689.55,1068.6)">
    <g
       id="g462"
       clip-path="url(#clipPath28028-4)">
      <g
         id="g460"
         transform="translate(766.75,130.24)">
        <path
           id="path458"
           fill="#ffffff"
           d="M 0,0 H -15.75 V 6.693 C -15.75,7.932 -16.763,9 -18.057,9 H -31.443 C -32.682,9 -33.75,7.987 -33.75,6.693 V 0 H -49.5 c -1.237,0 -2.25,-1.013 -2.25,-2.25 V -13.5 l 27,-4.5 27,4.5 V -2.25 C 2.25,-1.013 1.237,0 0,0 m -29.25,4.5 h 9 V 0 h -9 z m 9,-16.875 c 0,-0.619 -0.506,-1.125 -1.125,-1.125 h -6.75 c -0.619,0 -1.125,0.506 -1.125,1.125 v 2.25 c 0,0.619 0.506,1.125 1.125,1.125 h 6.75 c 0.619,0 1.125,-0.506 1.125,-1.125 z m -4.5,-7.875 27,4.5 v -27 C 2.25,-43.987 1.237,-45 0,-45 h -49.5 c -1.237,0 -2.25,1.013 -2.25,2.25 v 27 z" />
      </g>
    </g>
  </g>
  <g
     id="g472"
     transform="matrix(1.3333,0,0,-1.3333,689.55,1068.6)">
    <g
       id="g470"
       clip-path="url(#clipPath28200-7)">
      <g
         id="g468"
         transform="translate(392,82.24)">
        <path
           id="path466"
           fill="#ffffff"
           d="M 0,0 -4.35,3.941 C -19.8,17.953 -30,27.2 -30,38.516 -30,47.762 -22.755,55 -13.5,55 -8.28,55 -3.27,52.572 0,48.75 3.27,52.572 8.28,55 13.5,55 22.755,55 30,47.762 30,38.516 30,27.2 19.8,17.953 4.35,3.941 Z" />
      </g>
    </g>
  </g>
  <g
     id="g480"
     transform="matrix(1.3333,0,0,-1.3333,689.55,1068.6)">
    <g
       id="g478"
       clip-path="url(#clipPath28364-8)">
      <g
         id="g476"
         transform="translate(542.77,113.24)">
        <path
           id="path474"
           fill="#ffffff"
           d="m 0,0 c 0,2.621 0.885,4.8 2.689,6.604 1.804,1.804 3.983,2.689 6.604,2.689 2.622,0 4.801,-0.885 6.604,-2.689 1.805,-1.804 2.69,-3.983 2.69,-6.604 0,-2.621 -0.885,-4.834 -2.69,-6.639 -1.803,-1.803 -3.982,-2.689 -6.604,-2.689 -2.621,0 -4.809,0.877 -6.604,2.689 C 0.876,-4.809 0,-2.588 0,0 m -13.141,-6.06 c 0.545,-1.94 1.363,-3.846 2.35,-5.617 l -6.128,-7.523 6.944,-6.945 7.524,6.127 c 1.769,-0.986 3.71,-1.803 5.65,-2.382 L 4.221,-32 h 10.008 l 1.022,9.6 c 1.94,0.579 3.778,1.396 5.651,2.382 l 7.49,-6.127 7.012,6.945 -6.162,7.523 c 0.953,1.771 1.805,3.677 2.383,5.617 l 9.601,1.056 V 5.004 l -9.601,1.021 c -0.578,1.941 -1.43,3.745 -2.383,5.618 l 6.162,7.523 -7.012,7.013 -7.49,-6.161 c -1.907,0.953 -3.711,1.803 -5.651,2.382 L 14.229,32 H 4.221 L 3.199,22.4 c -2.008,-0.579 -3.88,-1.429 -5.65,-2.382 l -7.524,6.161 -6.944,-7.013 6.128,-7.523 C -11.744,9.77 -12.562,7.966 -13.141,6.025 L -22.774,5.004 V -5.004 Z" />
      </g>
    </g>
  </g>
  <g
     id="g486"
     transform="matrix(1.3333,0,0,-1.3333,689.55,1068.6)">
    <g
       id="g484"
       clip-path="url(#clipPath28984-4)">
      <path
         id="path482"
         fill-rule="evenodd"
         fill="#ffffff"
         d="m 473,698.24 h 13 v -13 h -13 z m 6.5,-12 c 3.037,0 5.5,2.463 5.5,5.5 0,3.038 -2.463,5.5 -5.5,5.5 -3.037,0 -5.5,-2.462 -5.5,-5.5 0,-3.037 2.463,-5.5 5.5,-5.5" />
    </g>
  </g>
  <g
     id="g492"
     transform="matrix(1.3333,0,0,-1.3333,689.55,1068.6)">
    <g
       id="g490"
       clip-path="url(#clipPath29012-5)">
      <path
         id="path488"
         fill-rule="evenodd"
         fill="#ffffff"
         d="m 473,676.24 h 13 v -13 h -13 z m 6.5,-12 c 3.037,0 5.5,2.463 5.5,5.5 0,3.038 -2.463,5.5 -5.5,5.5 -3.037,0 -5.5,-2.462 -5.5,-5.5 0,-3.037 2.463,-5.5 5.5,-5.5" />
    </g>
  </g>
  <g
     id="g498"
     transform="matrix(1.3333,0,0,-1.3333,689.55,1068.6)">
    <g
       id="g496"
       clip-path="url(#clipPath29040-0)">
      <path
         id="path494"
         fill-rule="evenodd"
         fill="#ffffff"
         d="m 467,687.24 h 13 v -13 h -13 z m 6.5,-12 c 3.037,0 5.5,2.463 5.5,5.5 0,3.038 -2.463,5.5 -5.5,5.5 -3.037,0 -5.5,-2.462 -5.5,-5.5 0,-3.037 2.463,-5.5 5.5,-5.5" />
    </g>
  </g>
  <g
     id="g504"
     transform="matrix(1.3333,0,0,-1.3333,689.55,1068.6)">
    <g
       id="g502"
       clip-path="url(#clipPath29068-36)">
      <path
         id="path500"
         fill-rule="evenodd"
         fill="#ffffff"
         d="m 486,698.24 h 13 v -13 h -13 z m 6.5,-12 c 3.037,0 5.5,2.463 5.5,5.5 0,3.038 -2.463,5.5 -5.5,5.5 -3.037,0 -5.5,-2.462 -5.5,-5.5 0,-3.037 2.463,-5.5 5.5,-5.5" />
    </g>
  </g>
  <g
     id="g510"
     transform="matrix(1.3333,0,0,-1.3333,689.55,1068.6)">
    <g
       id="g508"
       clip-path="url(#clipPath29096-10)">
      <path
         id="path506"
         fill-rule="evenodd"
         fill="#ffffff"
         d="m 486,676.24 h 13 v -13 h -13 z m 6.5,-12 c 3.037,0 5.5,2.463 5.5,5.5 0,3.038 -2.463,5.5 -5.5,5.5 -3.037,0 -5.5,-2.462 -5.5,-5.5 0,-3.037 2.463,-5.5 5.5,-5.5" />
    </g>
  </g>
  <g
     id="g516"
     transform="matrix(1.3333,0,0,-1.3333,689.55,1068.6)">
    <g
       id="g514"
       clip-path="url(#clipPath29124-63)">
      <path
         id="path512"
         fill-rule="evenodd"
         fill="#ffffff"
         d="m 480,687.24 h 13 v -13 h -13 z m 6.5,-12 c 3.037,0 5.5,2.463 5.5,5.5 0,3.038 -2.463,5.5 -5.5,5.5 -3.037,0 -5.5,-2.462 -5.5,-5.5 0,-3.037 2.463,-5.5 5.5,-5.5" />
    </g>
  </g>
  <g
     id="g522"
     transform="matrix(1.3333,0,0,-1.3333,689.55,1068.6)">
    <g
       id="g520"
       clip-path="url(#clipPath29152-2)">
      <path
         id="path518"
         fill-rule="evenodd"
         fill="#ffffff"
         d="m 493,687.24 h 13 v -13 h -13 z m 6.5,-12 c 3.037,0 5.5,2.463 5.5,5.5 0,3.038 -2.463,5.5 -5.5,5.5 -3.037,0 -5.5,-2.462 -5.5,-5.5 0,-3.037 2.463,-5.5 5.5,-5.5" />
    </g>
  </g>
  <g
     id="g528"
     transform="matrix(1.3333,0,0,-1.3333,689.55,1068.6)">
    <g
       id="g526"
       clip-path="url(#clipPath29252-0)">
      <path
         id="path524"
         fill-rule="evenodd"
         fill="#ffffff"
         d="m 161,327.24 h 73 v -28 h -73 z m 14,-5 h 45 c 4.971,0 9,-4.029 9,-9 0,-4.97 -4.029,-9 -9,-9 h -45 c -4.971,0 -9,4.03 -9,9 0,4.971 4.029,9 9,9" />
    </g>
  </g>
  <g
     id="g534"
     transform="matrix(1.3333,0,0,-1.3333,689.55,1068.6)">
    <g
       id="g532"
       clip-path="url(#clipPath29280-6)">
      <path
         id="path530"
         fill-rule="evenodd"
         fill="#ffffff"
         d="m 162,302.24 h 73 v -28 h -73 z m 14,-5 h 45 c 4.971,0 9,-4.029 9,-9 0,-4.97 -4.029,-9 -9,-9 h -45 c -4.971,0 -9,4.03 -9,9 0,4.971 4.029,9 9,9" />
    </g>
  </g>
  <g
     id="g542"
     transform="matrix(1.3333,0,0,-1.3333,689.55,1068.6)">
    <g
       id="g540"
       clip-path="url(#clipPath29400-1)">
      <g
         id="g538"
         transform="translate(104.49,129.57)">
        <path
           id="path536"
           fill="#ffffff"
           d="m 0,0 c -4.298,-0.338 -8.165,-0.637 -11.604,-0.898 -1.458,-0.113 -2.906,-0.225 -4.344,-0.336 -1.44,-0.114 -2.747,-0.207 -3.924,-0.282 -1.178,-0.074 -2.168,-0.149 -2.972,-0.224 -0.803,-0.074 -1.28,-0.113 -1.428,-0.113 -0.188,-0.037 -0.403,-0.065 -0.645,-0.084 -0.244,-0.018 -0.459,-0.065 -0.645,-0.139 l -0.673,-0.225 -2.467,1.121 c 0.187,0.263 0.412,0.506 0.674,0.731 0.185,0.186 0.42,0.364 0.7,0.533 0.28,0.168 0.569,0.27 0.868,0.309 0.225,0.037 0.822,0.093 1.795,0.168 0.971,0.074 2.167,0.168 3.588,0.28 0,0.486 0.047,1.15 0.14,1.992 0.092,0.841 0.317,1.674 0.672,2.497 0.356,0.822 0.869,1.553 1.541,2.188 0.673,0.636 1.589,1.009 2.747,1.123 1.346,0.111 2.439,-0.094 3.281,-0.618 0.84,-0.523 1.494,-1.169 1.961,-1.935 0.467,-0.768 0.795,-1.553 0.981,-2.358 0.187,-0.804 0.299,-1.43 0.337,-1.878 1.606,0.111 2.942,0.205 4.008,0.279 1.064,0.076 1.653,0.131 1.765,0.169 0.412,0.038 0.87,-0.038 1.373,-0.225 0.505,-0.186 0.907,-0.43 1.206,-0.729 C -0.99,1.271 -0.888,1.158 -0.757,1.01 -0.626,0.859 -0.505,0.71 -0.392,0.561 -0.243,0.41 -0.112,0.224 0,0 m -15.528,6.676 c -0.709,-0.074 -1.28,-0.326 -1.709,-0.757 -0.43,-0.431 -0.758,-0.944 -0.982,-1.543 -0.223,-0.599 -0.374,-1.206 -0.448,-1.823 -0.075,-0.617 -0.112,-1.114 -0.112,-1.488 1.159,0.076 2.344,0.169 3.559,0.281 1.215,0.112 2.402,0.206 3.56,0.281 -0.037,0.336 -0.121,0.804 -0.252,1.402 -0.131,0.599 -0.346,1.178 -0.645,1.74 -0.299,0.561 -0.691,1.028 -1.176,1.403 -0.487,0.373 -1.084,0.542 -1.795,0.504 m 21.919,-41.24 c 0.186,-1.047 0.159,-1.917 -0.084,-2.61 -0.244,-0.691 -0.925,-1.168 -2.046,-1.43 -0.374,-0.113 -1.187,-0.299 -2.439,-0.562 -1.252,-0.262 -2.747,-0.579 -4.485,-0.953 -1.737,-0.374 -3.597,-0.777 -5.577,-1.207 -1.982,-0.43 -3.878,-0.832 -5.691,-1.205 -1.812,-0.375 -3.437,-0.711 -4.877,-1.011 -1.438,-0.3 -2.457,-0.505 -3.054,-0.617 -1.383,-0.3 -2.402,-0.206 -3.055,0.28 -0.654,0.486 -0.982,1.217 -0.982,2.189 v 34.452 c 0,0.934 0.197,1.691 0.589,2.271 0.393,0.58 0.962,0.889 1.709,0.926 0.299,0 0.664,0.02 1.094,0.057 0.43,0.037 0.85,0.074 1.261,0.112 0.485,0.037 0.991,0.075 1.514,0.112 l 0.504,-8.023 c -0.037,-0.038 -0.112,-0.057 -0.224,-0.057 -0.074,0 -0.187,-0.01 -0.336,-0.027 -0.15,-0.02 -0.318,-0.029 -0.505,-0.029 -0.784,-0.075 -1.159,-0.542 -1.121,-1.403 0.038,-0.336 0.075,-0.805 0.112,-1.402 0.037,-0.599 0.066,-1.225 0.084,-1.88 0.019,-0.655 0.047,-1.29 0.084,-1.907 0.037,-0.617 0.074,-1.114 0.113,-1.488 0.037,-0.711 0.149,-1.112 0.336,-1.206 0.186,-0.093 0.598,-0.14 1.233,-0.14 h 0.785 c 0.225,0 0.439,0.01 0.645,0.027 0.205,0.02 0.439,0.038 0.701,0.057 0.261,0.018 0.597,0.047 1.008,0.084 0.785,0.075 1.29,0.243 1.513,0.506 0.225,0.261 0.319,0.654 0.281,1.177 0,0.262 -0.028,0.721 -0.084,1.375 -0.056,0.655 -0.113,1.337 -0.168,2.048 -0.056,0.71 -0.103,1.384 -0.14,2.02 -0.037,0.635 -0.074,1.085 -0.112,1.346 -0.076,0.45 -0.168,0.768 -0.281,0.954 -0.112,0.187 -0.318,0.262 -0.617,0.224 -0.148,0 -0.299,-0.009 -0.447,-0.027 -0.151,-0.019 -0.3,-0.028 -0.449,-0.028 h -0.449 l -0.505,7.967 c 2.542,0.225 4.877,0.412 7.008,0.561 0.897,0.076 1.803,0.15 2.719,0.224 0.916,0.076 1.766,0.141 2.551,0.198 0.785,0.055 1.476,0.111 2.074,0.168 0.598,0.056 1.046,0.103 1.346,0.14 1.083,0.074 1.942,-0.113 2.578,-0.561 0.635,-0.449 1.027,-1.122 1.178,-2.021 0.037,-0.299 0.168,-1.196 0.391,-2.693 0.224,-1.496 0.505,-3.291 0.841,-5.386 0.336,-2.095 0.691,-4.349 1.065,-6.761 0.374,-2.413 0.729,-4.667 1.066,-6.761 0.336,-2.095 0.625,-3.891 0.869,-5.387 0.242,-1.496 0.4,-2.395 0.476,-2.693 m -35.261,-4.881 c 0,-0.525 0.028,-0.983 0.084,-1.375 0.057,-0.393 0.122,-0.701 0.197,-0.926 0.074,-0.299 0.168,-0.524 0.279,-0.674 -0.933,0.486 -1.831,0.973 -2.69,1.459 -0.747,0.412 -1.495,0.832 -2.242,1.263 -0.747,0.43 -1.383,0.795 -1.906,1.094 -0.972,0.561 -1.635,1.235 -1.99,2.02 -0.355,0.785 -0.439,1.608 -0.253,2.469 0.076,0.224 0.244,1.047 0.505,2.469 0.262,1.421 0.588,3.142 0.981,5.162 0.392,2.019 0.803,4.189 1.233,6.508 0.43,2.32 0.831,4.49 1.205,6.509 0.374,2.02 0.701,3.76 0.982,5.218 0.28,1.459 0.439,2.319 0.476,2.581 0.15,0.823 0.42,1.459 0.813,1.908 0.392,0.449 0.849,0.561 1.373,0.336 0.299,-0.149 0.543,-0.317 0.728,-0.504 0.114,-0.113 0.188,-0.207 0.225,-0.281 z" />
      </g>
    </g>
  </g>
  <g
     fill="#5e4aa6"
     id="g30">
    <circle
       cx="-1248.7"
       cy="-1241.6"
       r="0"
       id="circle24" />
    <circle
       cx="-1140.3"
       cy="-1301.8"
       r="0"
       id="circle26" />
    <circle
       cx="-1158.1"
       cy="-1246"
       r="0"
       id="circle28" />
  </g>
  <circle
     cx="-1157.3"
     cy="-1267.7"
     r="0"
     fill="#5e4aa6"
     id="circle36" />
  <circle
     cx="-57.756001"
     cy="-2.1829"
     r="0"
     fill="#5e4aa6"
     fill-rule="evenodd"
     id="circle38" />
  <rect
     ry="15"
     y="4.5"
     x="4.5"
     height="55"
     width="55"
     id="rect1055"
     style="opacity:0.3;fill:#141414;fill-opacity:1;stroke-width:2.74436;stroke-linecap:round;filter:url(#filter1057)" />
  <rect
     style="fill:url(#linearGradient1053);fill-opacity:1;stroke-width:2.74436;stroke-linecap:round"
     id="rect1045"
     width="54.999996"
     height="54.999996"
     x="4.5000019"
     y="4.5000019"
     ry="14.999999" />
  <g
     id="g1812"
     transform="translate(68.022702,1.9940657e-4)">
    <g
       id="g1798"
       transform="matrix(1.3617021,0,0,1.3617021,-69.387687,-1.3617014)">
      <g
         id="g1796">
        <g
           transform="translate(1,1)"
           id="g1794">
          <g
             style="opacity:0.1"
             id="g1792">
            <!-- color: #d8466e -->
            <g
               id="g1790">
              <path
                 d="m 29.23,12.06 c -0.426,0.34 -1.68,2.719 -2.934,5.555 -0.508,1.156 -1.227,2.668 -1.59,3.363 -1.078,2.059 -3.711,5.805 -4.93,7 l -1.137,1.125 0.848,0.926 c 0.52,0.57 1.207,1.754 1.777,3.078 1.082,2.523 1.27,2.887 1.477,2.887 0.098,0 0.652,-0.313 1.27,-0.707 1.379,-0.895 2.668,-2.098 4.422,-4.145 2.738,-3.191 4.793,-3.867 7.324,-2.402 0.684,0.398 1.246,0.648 1.246,0.555 0,-0.098 -0.348,-1.059 -0.766,-2.141 -0.418,-1.082 -1.559,-4.137 -2.527,-6.789 -0.691,-1.164 -2.949,-9.117 -4.48,-8.297 m -5.457,6.527 c -0.012,0 -0.027,0 -0.043,0.008 -2.316,1.039 -3.152,1.512 -3.836,2.172 -0.449,0.441 -0.816,0.91 -0.816,1.047 0,0.426 1.824,1.563 2.125,1.324 0.145,-0.117 0.715,-0.953 1.266,-1.863 0.973,-1.621 1.477,-2.664 1.305,-2.688 m -6.484,4.59 c -0.395,0 -5.992,2.168 -6.258,2.426 -0.078,0.074 0.004,0.211 0.184,0.313 0.18,0.105 1.203,0.805 2.289,1.559 1.082,0.754 2.023,1.367 2.09,1.371 0.066,0 0.563,-0.266 1.094,-0.594 1.117,-0.688 3.273,-2.816 3.262,-3.223 -0.008,-0.363 -2.156,-1.855 -2.664,-1.855 m 0.004,0.004"
                 style="fill:#000000;fill-opacity:1;fill-rule:nonzero;stroke:none;filter:url(#filter1814);opacity:1"
                 id="path1788" />
            </g>
          </g>
        </g>
      </g>
    </g>
    <path
       d="m -29.183432,14.992341 c -0.137532,-0.0177 -0.270979,0.0041 -0.401703,0.07489 v -0.01089 c -0.580085,0.462979 -2.287659,3.702468 -3.995234,7.564255 -0.691744,1.574128 -1.673531,3.633021 -2.167829,4.579404 -1.467915,2.803745 -5.053277,7.904681 -6.713192,9.531915 l -1.548255,1.531915 1.154723,1.260936 c 0.708086,0.77617 1.643575,2.388425 2.419745,4.191319 1.473362,3.435574 1.729362,3.931234 2.011234,3.931234 0.133447,0 0.889192,-0.426213 1.730723,-0.962724 1.877788,-1.218723 3.633022,-2.856851 6.021447,-5.644255 3.72834,-4.345191 6.526638,-5.265702 9.973106,-3.270808 0.931405,0.541957 1.696681,0.882383 1.696681,0.755745 0,-0.133447 -0.476596,-1.442043 -1.045787,-2.915405 -0.569192,-1.473361 -2.12017,-5.633361 -3.438298,-9.244595 -0.882383,-1.485617 -3.63983,-11.096511 -5.700085,-11.372936 z"
       style="fill:#f67e17;fill-opacity:1;fill-rule:nonzero;stroke:none;stroke-width:1.3617"
       id="path1800" />
    <path
       d="m -37.015943,23.960511 c -0.01634,0 -0.03677,0 -0.05855,0.01089 -3.153702,1.414809 -4.292085,2.058894 -5.223489,2.957617 -0.611405,0.600511 -1.111149,1.239149 -1.111149,1.425703 0,0.580085 2.483744,2.12834 2.893617,1.802893 0.197446,-0.159319 0.973617,-1.297702 1.723914,-2.536851 1.324937,-2.207319 2.011234,-3.626213 1.777022,-3.660255 z m -8.832,6.244766 0.0027,0.0054 c -0.537873,0 -8.159319,2.952171 -8.521532,3.30349 -0.106213,0.100766 0.0082,0.285957 0.253276,0.426213 0.245107,0.142978 1.638128,1.09617 3.116937,2.122893 1.473361,1.026723 2.754723,1.861447 2.845957,1.866894 0.08987,0 0.766638,-0.362213 1.489702,-0.808851 1.521021,-0.936851 4.456851,-3.834553 4.441872,-4.388766 -0.01089,-0.494298 -2.935829,-2.525958 -3.627574,-2.525958 z"
       style="fill:#62cbcb;fill-opacity:1;fill-rule:nonzero;stroke:none;stroke-width:1.3617"
       id="path1802" />
  </g>
</svg>
