<?xml version="1.0" encoding="UTF-8" standalone="no"?>
<svg
   xmlns:dc="http://purl.org/dc/elements/1.1/"
   xmlns:cc="http://creativecommons.org/ns#"
   xmlns:rdf="http://www.w3.org/1999/02/22-rdf-syntax-ns#"
   xmlns:svg="http://www.w3.org/2000/svg"
   xmlns="http://www.w3.org/2000/svg"
   xmlns:sodipodi="http://sodipodi.sourceforge.net/DTD/sodipodi-0.dtd"
   xmlns:inkscape="http://www.inkscape.org/namespaces/inkscape"
   viewBox="0 0 64 64"
   version="1.1"
   id="svg37"
   sodipodi:docname="mattermost-desktop.svg"
   width="64"
   height="64"
   inkscape:version="1.0.2 (e86c870879, 2021-01-15)">
  <metadata
     id="metadata41">
    <rdf:RDF>
      <cc:Work
         rdf:about="">
        <dc:format>image/svg+xml</dc:format>
        <dc:type
           rdf:resource="http://purl.org/dc/dcmitype/StillImage" />
        <dc:title></dc:title>
      </cc:Work>
    </rdf:RDF>
  </metadata>
  <sodipodi:namedview
     pagecolor="#ffffff"
     bordercolor="#666666"
     borderopacity="1"
     objecttolerance="10"
     gridtolerance="10"
     guidetolerance="10"
     inkscape:pageopacity="0"
     inkscape:pageshadow="2"
     inkscape:window-width="1920"
     inkscape:window-height="992"
     id="namedview39"
     showgrid="false"
     inkscape:zoom="6.1208931"
     inkscape:cx="19.909014"
     inkscape:cy="16.349326"
     inkscape:window-x="0"
     inkscape:window-y="0"
     inkscape:window-maximized="1"
     inkscape:current-layer="svg37" />
  <defs
     id="defs7">
    <linearGradient
       id="linearGradient3764"
       x1="1"
       x2="47"
       gradientUnits="userSpaceOnUse"
       gradientTransform="rotate(-90,23.999998,24)">
      <stop
         style="stop-color:#0c90c0;stop-opacity:1"
         id="stop2" />
      <stop
         offset="1"
         style="stop-color:#0d9ed3;stop-opacity:1"
         id="stop4" />
    </linearGradient>
    <linearGradient
       id="linearGradient3092"
       gradientUnits="userSpaceOnUse"
       gradientTransform="rotate(-90,72.706689,-24.706691)"
       x1="1"
       x2="47">
      <stop
         style="stop-color:#26a8de;stop-opacity:1"
         id="stop2-6" />
      <stop
         offset="1"
         style="stop-color:#38aee1;stop-opacity:1"
         id="stop4-7" />
    </linearGradient>
    <style
       type="text/css"
       id="style858" />
    <filter
       id="filter1057"
       x="-0.027000001"
       y="-0.027000001"
       width="1.054"
       height="1.054"
       color-interpolation-filters="sRGB">
      <feGaussianBlur
         stdDeviation="0.61875"
         id="feGaussianBlur860" />
    </filter>
    <linearGradient
       id="linearGradient1053"
       x1="-127"
       x2="-72"
       y1="60"
       y2="5"
       gradientTransform="translate(131.5,-0.51)"
       gradientUnits="userSpaceOnUse">
      <stop
         stop-color="#32d7ff"
         offset="0"
         id="stop863" />
      <stop
         stop-color="#329bff"
         offset="1"
         id="stop865" />
    </linearGradient>
    <style
       type="text/css"
       id="style868" />
    <style
       type="text/css"
       id="style870" />
    <style
       type="text/css"
       id="style872" />
    <style
       type="text/css"
       id="style874" />
    <style
       type="text/css"
       id="style876" />
    <style
       type="text/css"
       id="style878" />
    <style
       type="text/css"
       id="style880" />
  </defs>
  <g
     id="g27">
    <g
       id="g25">
      <g
         transform="translate(1,1)"
         id="g23">
        <g
           style="opacity:0.1"
           id="g21">
          <!-- color: #3a569c -->
        </g>
      </g>
    </g>
  </g>
  <circle
     cx="-1124.8"
     cy="-1279.3"
     r="0"
     fill="#5e4aa6"
     id="circle884" />
  <g
     transform="matrix(3.7796,0,0,3.7796,123.83,-38.184)"
     fill="#5e4aa6"
     stroke-width="0.26458"
     id="g894">
    <circle
       cx="-299.01999"
       cy="-338.76999"
       r="0"
       id="circle886" />
    <circle
       cx="-8.1062002"
       cy="-3.9487"
       r="0"
       fill-rule="evenodd"
       id="circle888" />
    <circle
       cx="-278.25"
       cy="-357.69"
       r="0"
       id="circle890" />
    <circle
       cx="12.663"
       cy="-22.858999"
       r="0"
       fill-rule="evenodd"
       id="circle892" />
  </g>
  <rect
     x="4.5"
     y="4.5"
     width="55"
     height="55"
     ry="15"
     fill="#141414"
     filter="url(#filter1057)"
     opacity="0.3"
     stroke-linecap="round"
     stroke-width="2.7444"
     id="rect896" />
  <rect
     x="4.5"
     y="4.5"
     width="55"
     height="55"
     ry="15"
     fill="url(#linearGradient1053)"
     stroke-linecap="round"
     stroke-width="2.7444"
     id="rect898"
     style="fill:url(#linearGradient1053)" />
  <path
     d="M 32,14.5 A 17.5,17.5 0 0 0 14.5,32 17.5,17.5 0 0 0 32,49.5 17.5,17.5 0 0 0 49.5,32 17.5,17.5 0 0 0 42.5,18.023333 V 20.8735 A 12.833333,12.833333 0 0 1 46,29.666667 12.833333,12.833333 0 0 1 33.166667,42.5 12.833333,12.833333 0 0 1 20.333333,29.666667 12.833333,12.833333 0 0 1 30.761,17.070167 l 1.810667,-2.546834 A 17.5,17.5 0 0 0 32,14.5 m 5.635,1.166667 c -0.1015,0.0023 -0.1645,0.0315 -0.2345,0.114333 L 29.48,26.933167 c -0.5985,0.841166 -0.98,1.706833 -0.98,2.7335 0,2.577166 2.0895,4.666666 4.666667,4.666666 2.577166,0 4.666666,-2.0895 4.666666,-4.666666 V 15.898833 c 0,-0.138833 -0.09567,-0.2345 -0.198333,-0.232166"
     style="opacity:1;fill:#e3f6fd;fill-opacity:1;stroke:none;stroke-width:1.16667"
     id="path931" />
</svg>
