<?xml version="1.0" encoding="UTF-8" standalone="no"?>
<svg
   xmlns:dc="http://purl.org/dc/elements/1.1/"
   xmlns:cc="http://creativecommons.org/ns#"
   xmlns:rdf="http://www.w3.org/1999/02/22-rdf-syntax-ns#"
   xmlns:svg="http://www.w3.org/2000/svg"
   xmlns="http://www.w3.org/2000/svg"
   xmlns:sodipodi="http://sodipodi.sourceforge.net/DTD/sodipodi-0.dtd"
   xmlns:inkscape="http://www.inkscape.org/namespaces/inkscape"
   viewBox="0 0 64 64"
   version="1.1"
   id="svg41"
   sodipodi:docname="mendeleydesktop.svg"
   width="64"
   height="64"
   inkscape:version="1.0.2 (e86c870879, 2021-01-15)">
  <metadata
     id="metadata45">
    <rdf:RDF>
      <cc:Work
         rdf:about="">
        <dc:format>image/svg+xml</dc:format>
        <dc:type
           rdf:resource="http://purl.org/dc/dcmitype/StillImage" />
        <dc:title></dc:title>
      </cc:Work>
    </rdf:RDF>
  </metadata>
  <sodipodi:namedview
     pagecolor="#ffffff"
     bordercolor="#666666"
     borderopacity="1"
     objecttolerance="10"
     gridtolerance="10"
     guidetolerance="10"
     inkscape:pageopacity="0"
     inkscape:pageshadow="2"
     inkscape:window-width="1920"
     inkscape:window-height="992"
     id="namedview43"
     showgrid="false"
     inkscape:zoom="6.1208931"
     inkscape:cx="25.381363"
     inkscape:cy="15.352904"
     inkscape:window-x="0"
     inkscape:window-y="0"
     inkscape:window-maximized="1"
     inkscape:current-layer="svg41" />
  <defs
     id="defs7">
    <linearGradient
       id="linearGradient3764"
       x1="1"
       x2="47"
       gradientUnits="userSpaceOnUse"
       gradientTransform="rotate(-90,23.999998,24)">
      <stop
         style="stop-color:#b12d42;stop-opacity:1"
         id="stop2" />
      <stop
         offset="1"
         style="stop-color:#c13148;stop-opacity:1"
         id="stop4" />
    </linearGradient>
    <filter
       id="filter1057"
       x="-0.027000001"
       y="-0.027000001"
       width="1.054"
       height="1.054"
       color-interpolation-filters="sRGB">
      <feGaussianBlur
         stdDeviation="0.61875"
         id="feGaussianBlur872" />
    </filter>
    <linearGradient
       id="linearGradient1053"
       x1="-127"
       x2="-72"
       y1="60"
       y2="5"
       gradientTransform="translate(131.5,-0.51)"
       gradientUnits="userSpaceOnUse">
      <stop
         stop-color="#df2a2a"
         offset="0"
         id="stop875" />
      <stop
         stop-color="#f83f3f"
         offset="1"
         id="stop877" />
    </linearGradient>
  </defs>
  <g
     id="g27">
    <g
       id="g25">
      <g
         transform="translate(1,1)"
         id="g23">
        <g
           style="opacity:0.1"
           id="g21">
          <!-- color: #37b8d5 -->
        </g>
      </g>
    </g>
  </g>
  <g
     id="g31">
    <g
       id="g29">
      <!-- color: #37b8d5 -->
    </g>
  </g>
  <g
     fill="#5e4aa6"
     id="g892">
    <circle
       cx="-1248.7"
       cy="-1241.6"
       r="0"
       id="circle882" />
    <circle
       cx="-1140.3"
       cy="-1301.8"
       r="0"
       id="circle884" />
    <circle
       cx="-1158.1"
       cy="-1246"
       r="0"
       id="circle886" />
    <circle
       cx="-1157.3"
       cy="-1267.7"
       r="0"
       id="circle888" />
    <circle
       cx="-57.756001"
       cy="-2.1829"
       r="0"
       fill-rule="evenodd"
       id="circle890" />
  </g>
  <rect
     x="4.5"
     y="4.5"
     width="55"
     height="55"
     ry="15"
     fill="#141414"
     filter="url(#filter1057)"
     opacity="0.3"
     stroke-linecap="round"
     stroke-width="2.7444"
     id="rect894" />
  <rect
     x="4.5"
     y="4.5"
     width="55"
     height="55"
     ry="15"
     fill="url(#linearGradient1053)"
     stroke-linecap="round"
     stroke-width="2.7444"
     id="rect896"
     style="fill:url(#linearGradient1053)" />
  <path
     d="m 23.538462,20.461538 c -2.973846,0 -5.384616,2.410769 -5.384616,5.384616 v 6.923077 c 0,3.076922 -1.584615,3.076922 -2.307693,3.076922 -2.124615,0 -3.846153,1.721539 -3.846153,3.846154 0,2.124615 1.721538,3.846154 3.846153,3.846154 2.124616,0 3.846154,-1.721539 3.846154,-3.846154 0,-2.307692 -1.112307,-2.307692 -0.463076,-4.30923 0.361538,-1.113845 2.001538,-2.613845 4.309231,-2.613845 2.307692,0 4.615384,1.538461 4.615384,3.076922 0,1.538462 -0.769231,1.538462 -0.769231,3.846154 0,2.124615 2.066154,3.846154 4.615385,3.846154 2.549231,0 4.615384,-1.721539 4.615384,-3.846154 0,-2.307692 -0.923077,-2.307692 -0.923077,-3.846154 0,-1.538461 2.461539,-3.076922 4.769231,-3.076922 2.307693,0 3.990769,1.486154 4.309231,2.613845 0.684616,2.426155 -0.463076,2.001539 -0.463076,4.30923 0,2.124615 1.721538,3.846154 3.846153,3.846154 2.124616,0 3.846154,-1.721539 3.846154,-3.846154 0,-2.124616 -1.721538,-3.846154 -3.846154,-3.846154 -0.723077,0 -2.307693,0 -2.307693,-3.076922 v -6.923077 c 0,-2.973847 -2.410769,-5.384616 -5.384615,-5.384616 -5.384615,0 -4.792307,3.076923 -8.461538,3.076923 -3.669231,0 -3.076923,-3.076923 -8.461538,-3.076923 M 32,25.076923 A 4.6153846,4.6153846 0 0 1 36.615384,29.692307 4.6153846,4.6153846 0 0 1 32,34.307692 4.6153846,4.6153846 0 0 1 27.384615,29.692307 4.6153846,4.6153846 0 0 1 32,25.076923 Z"
     style="opacity:1;fill:#ffffff;fill-opacity:1;stroke:none;stroke-width:1.53846"
     id="path951" />
</svg>
