<?xml version="1.0" encoding="UTF-8" standalone="no"?>
<svg
   xmlns:dc="http://purl.org/dc/elements/1.1/"
   xmlns:cc="http://creativecommons.org/ns#"
   xmlns:rdf="http://www.w3.org/1999/02/22-rdf-syntax-ns#"
   xmlns:svg="http://www.w3.org/2000/svg"
   xmlns="http://www.w3.org/2000/svg"
   xmlns:xlink="http://www.w3.org/1999/xlink"
   xmlns:sodipodi="http://sodipodi.sourceforge.net/DTD/sodipodi-0.dtd"
   xmlns:inkscape="http://www.inkscape.org/namespaces/inkscape"
   height="64"
   width="64"
   version="1.1"
   id="svg11"
   sodipodi:docname="mkvinfo.svg"
   inkscape:version="1.0.2 (e86c870879, 2021-01-15)">
  <metadata
     id="metadata17">
    <rdf:RDF>
      <cc:Work
         rdf:about="">
        <dc:format>image/svg+xml</dc:format>
        <dc:type
           rdf:resource="http://purl.org/dc/dcmitype/StillImage" />
        <dc:title></dc:title>
      </cc:Work>
    </rdf:RDF>
  </metadata>
  <defs
     id="defs15">
    <linearGradient
       id="lgrad"
       x1="32"
       y1="32"
       x2="32"
       y2="992"
       gradientUnits="userSpaceOnUse"
       gradientTransform="translate(0,-896)">
      <stop
         offset="0%"
         stop-color="#f8f8f8"
         id="stop2-3" />
      <stop
         offset="100%"
         stop-color="#ccc"
         id="stop4-6" />
    </linearGradient>
    <radialGradient
       id="rgrad"
       x1="0%"
       y1="0%"
       x2="0%"
       y2="100%"
       fx="512"
       fy="494.39999"
       cx="512"
       cy="512"
       r="440"
       gradientUnits="userSpaceOnUse"
       gradientTransform="translate(0,-896)">
      <stop
         offset="0%"
         stop-color="#00f0ff"
         id="stop7" />
      <stop
         offset="100%"
         stop-color="#0070e0"
         id="stop9" />
    </radialGradient>
    <radialGradient
       gradientTransform="matrix(0.03024122,0,0,0.02958968,1.132043,2.8247994)"
       gradientUnits="userSpaceOnUse"
       r="440"
       cy="306.1813"
       cx="523.57568"
       fy="306.1813"
       fx="523.57568"
       y2="100%"
       x2="0%"
       y1="0%"
       x1="0%"
       id="rgrad-3">
      <stop
         style="stop-color:#03d7e4;stop-opacity:1"
         id="stop7-6"
         stop-color="#00f0ff"
         offset="0%" />
      <stop
         id="stop9-7"
         stop-color="#0070e0"
         offset="100%" />
    </radialGradient>
    <clipPath
       clipPathUnits="userSpaceOnUse"
       id="clipPath971">
      <path
         style="opacity:1;fill:#917c6f;fill-opacity:1;stroke:none;stroke-width:0.30000001;stroke-linecap:round;stroke-linejoin:round;stroke-miterlimit:4;stroke-dasharray:none;stroke-opacity:1"
         d="m -0.55397135,-0.27595216 c -0.027071,2e-8 -0.0485759,0.0220216 -0.0485759,0.0490926 V 33.951415 c 2e-8,0.02707 0.0215048,0.04909 0.0485759,0.04909 H 33.76073 c 0.02707,0 0.04909,-0.02201 0.04909,-0.04909 V -0.22685954 c 0,-0.027071 -0.02201,-0.0490926 -0.04909,-0.0490926 z M 8.8459717,2.5187093 H 25.034131 c 3.572997,0 6.449735,2.8762216 6.449735,6.4492187 v 16.188676 c 0,3.572997 -2.876738,6.449219 -6.449735,6.449219 H 8.8459717 c -3.5729971,0 -6.4497356,-2.876222 -6.4497356,-6.449219 V 8.967928 c 0,-3.5729971 2.8767385,-6.4492187 6.4497356,-6.4492187 z"
         id="path973"
         inkscape:connector-curvature="0" />
    </clipPath>
    <linearGradient
       id="linearGradient862-3"
       x1="7.9373"
       x2="7.9373"
       y1="15.081"
       y2="1.852"
       gradientTransform="matrix(3.7795,0,0,3.7795,-85.599291,-0.9685624)"
       gradientUnits="userSpaceOnUse">
      <stop
         stop-color="#f1efeb"
         offset="0"
         id="stop857" />
      <stop
         stop-color="#fdfcfc"
         offset="1"
         id="stop859" />
    </linearGradient>
    <linearGradient
       id="linearGradient898"
       x1="29.969"
       x2="29.969"
       y1="18.796"
       y2="45.449"
       gradientTransform="matrix(2.1429,0,0,2.1429,-911.94943,-1108.5001)"
       gradientUnits="userSpaceOnUse">
      <stop
         stop-color="#cf30ac"
         offset="0"
         id="stop862" />
      <stop
         stop-color="#ab31f8"
         offset="1"
         id="stop864" />
    </linearGradient>
    <filter
       id="filter1022"
       x="-.108"
       y="-.108"
       width="1.216"
       height="1.216"
       color-interpolation-filters="sRGB">
      <feGaussianBlur
         stdDeviation="1.44"
         id="feGaussianBlur867" />
    </filter>
    <filter
       id="filter2761"
       x="-.024"
       y="-.024"
       width="1.048"
       height="1.048"
       color-interpolation-filters="sRGB">
      <feGaussianBlur
         stdDeviation="0.14552168"
         id="feGaussianBlur2" />
    </filter>
    <linearGradient
       id="linearGradient4673"
       x1="1.2573"
       x2="15.644"
       y1="15.429"
       y2="1.1082"
       gradientUnits="userSpaceOnUse"
       gradientTransform="translate(0.66635014,-2.2680373)">
      <stop
         stop-color="#32dcff"
         offset="0"
         id="stop5" />
      <stop
         stop-color="#3296ff"
         offset="1"
         id="stop7-3" />
    </linearGradient>
    <style
       type="text/css"
       id="style861" />
    <filter
       id="filter1057"
       x="-.027"
       y="-.027"
       width="1.054"
       height="1.054"
       color-interpolation-filters="sRGB">
      <feGaussianBlur
         stdDeviation="0.61875"
         id="feGaussianBlur863" />
    </filter>
    <linearGradient
       id="linearGradient1053"
       x1="-127"
       x2="-72"
       y1="60"
       y2="5"
       gradientTransform="translate(124.06087,-19.567871)"
       gradientUnits="userSpaceOnUse">
      <stop
         stop-color="#32d7ff"
         offset="0"
         id="stop866" />
      <stop
         stop-color="#329bff"
         offset="1"
         id="stop868" />
    </linearGradient>
    <style
       type="text/css"
       id="style871" />
    <style
       type="text/css"
       id="style873" />
    <style
       type="text/css"
       id="style875" />
    <style
       type="text/css"
       id="style877" />
    <style
       type="text/css"
       id="style879" />
    <style
       type="text/css"
       id="style881" />
    <style
       type="text/css"
       id="style883" />
    <filter
       color-interpolation-filters="sRGB"
       height="1.048"
       width="1.048"
       y="-.024"
       x="-.024"
       id="filter2761-2">
      <feGaussianBlur
         id="feGaussianBlur4"
         stdDeviation="0.14552168" />
    </filter>
    <linearGradient
       gradientUnits="userSpaceOnUse"
       gradientTransform="matrix(3.7796,0,0,3.7796,93.808377,0.53085)"
       y2="1.1269"
       y1="15.576"
       x2="15.673"
       x1="1.3315"
       id="linearGradient1024">
      <stop
         id="stop7-9"
         offset="0"
         stop-color="#a53cff" />
      <stop
         id="stop9-1"
         offset="1"
         stop-color="#b496ff" />
    </linearGradient>
    <linearGradient
       gradientUnits="userSpaceOnUse"
       gradientTransform="matrix(1.2346,0,0,1.2346,2.3832028,3.6047)"
       y2="4"
       y1="44"
       x2="0"
       id="linearGradient890">
      <stop
         id="stop4-2"
         offset="0"
         stop-color="#FFB900" />
      <stop
         id="stop6"
         offset="1"
         stop-color="#ff0" />
    </linearGradient>
    <filter
       color-interpolation-filters="sRGB"
       height="1.048"
       width="1.048"
       y="-.024"
       x="-.024"
       id="filter2761-67">
      <feGaussianBlur
         id="feGaussianBlur9"
         stdDeviation="0.14552168" />
    </filter>
    <linearGradient
       gradientUnits="userSpaceOnUse"
       gradientTransform="matrix(3.7796,0,0,3.7796,66.443573,0.53068)"
       y2="1.1082"
       y1="15.601"
       x2="15.644"
       x1="1.4377"
       id="linearGradient4673-7">
      <stop
         id="stop12"
         offset="0"
         stop-color="#dc2828" />
      <stop
         id="stop14"
         offset="1"
         stop-color="#fa4141" />
    </linearGradient>
    <linearGradient
       gradientUnits="userSpaceOnUse"
       y2="9.67"
       y1="54.592"
       x2="34.134"
       x1="34.134"
       id="linearGradient915">
      <stop
         id="stop17"
         offset="0"
         stop-color="#ffb900" />
      <stop
         id="stop19"
         offset="1"
         stop-color="#ff0" />
    </linearGradient>
    <filter
       inkscape:collect="always"
       style="color-interpolation-filters:sRGB"
       id="filter1057-0"
       x="-0.027000001"
       width="1.054"
       y="-0.027000001"
       height="1.054">
      <feGaussianBlur
         inkscape:collect="always"
         stdDeviation="0.61875"
         id="feGaussianBlur1059" />
    </filter>
    <linearGradient
       inkscape:collect="always"
       xlink:href="#linearGradient1051"
       id="linearGradient1053-9"
       x1="-127"
       y1="60"
       x2="-72"
       y2="5"
       gradientUnits="userSpaceOnUse"
       gradientTransform="translate(131.5,-0.50999537)" />
    <linearGradient
       inkscape:collect="always"
       id="linearGradient1051">
      <stop
         style="stop-color:#a53cff;stop-opacity:1"
         offset="0"
         id="stop1047" />
      <stop
         style="stop-color:#b496ff;stop-opacity:1"
         offset="1"
         id="stop1049" />
    </linearGradient>
    <linearGradient
       id="linearGradient890-3"
       x2="0"
       y1="44"
       y2="4"
       gradientTransform="matrix(1.2346,0,0,1.2346,3.1419,3.6047)"
       gradientUnits="userSpaceOnUse">
      <stop
         stop-color="#FFB900"
         offset="0"
         id="stop861" />
      <stop
         stop-color="#ff0"
         offset="1"
         id="stop863" />
    </linearGradient>
    <filter
       id="filter2761-6"
       x="-.024"
       y="-.024"
       width="1.048"
       height="1.048"
       color-interpolation-filters="sRGB">
      <feGaussianBlur
         stdDeviation="0.14552168"
         id="feGaussianBlur866" />
    </filter>
  </defs>
  <sodipodi:namedview
     pagecolor="#ffffff"
     bordercolor="#666666"
     borderopacity="1"
     objecttolerance="10"
     gridtolerance="10"
     guidetolerance="10"
     inkscape:pageopacity="0"
     inkscape:pageshadow="2"
     inkscape:window-width="1920"
     inkscape:window-height="940"
     id="namedview13"
     showgrid="false"
     inkscape:zoom="5.7084141"
     inkscape:cx="22.362776"
     inkscape:cy="31.692112"
     inkscape:window-x="0"
     inkscape:window-y="38"
     inkscape:window-maximized="1"
     inkscape:current-layer="svg11" />
  <linearGradient
     id="a"
     gradientUnits="userSpaceOnUse"
     x1="17.386789"
     x2="17.386789"
     y1="1045.8689"
     y2="1006.8689"
     gradientTransform="matrix(1.4999996,0,0,1.4999996,-57.966099,-1508.3029)">
    <stop
       offset="0"
       stop-color="#30cf41"
       id="stop2" />
    <stop
       offset="1"
       stop-color="#47f383"
       id="stop4" />
  </linearGradient>
  <rect
     ry="15"
     y="4.4999995"
     x="4.4999995"
     height="55"
     width="55"
     id="rect1055"
     style="opacity:0.3;fill:#141414;fill-opacity:1;stroke-width:2.74436;stroke-linecap:round;filter:url(#filter1057-0)" />
  <rect
     style="fill:url(#linearGradient1053-9);fill-opacity:1;stroke-width:2.74436;stroke-linecap:round"
     id="rect1045"
     width="54.999996"
     height="54.999996"
     x="4.5000019"
     y="4.5000019"
     ry="14.999999" />
  <circle
     cx="-1031.6833"
     cy="-1279.3"
     r="0"
     fill="#5e4aa6"
     id="circle887"
     style="stroke-width:1" />
  <circle
     cx="-913.22986"
     cy="-1318.5997"
     r="0"
     id="circle889"
     style="fill:#5e4aa6;stroke-width:1.00001" />
  <circle
     cx="186.30849"
     cy="-53.108513"
     r="0"
     fill-rule="evenodd"
     id="circle891"
     style="fill:#5e4aa6;stroke-width:1.00001" />
  <circle
     cx="-834.72754"
     cy="-1390.1099"
     r="0"
     id="circle893"
     style="fill:#5e4aa6;stroke-width:1.00001" />
  <circle
     cx="264.8078"
     cy="-124.58192"
     r="0"
     fill-rule="evenodd"
     id="circle895"
     style="fill:#5e4aa6;stroke-width:1.00001" />
  <path
     d="m 32.000001,17.130237 a 16,16 0 0 0 -16,16 16,16 0 0 0 16,16 16,16 0 0 0 16,-16 16,16 0 0 0 -16,-16 z m -4.2598,6.6602 c 0.34816,0.01806 0.67355,0.13305 0.97656,0.34375 l 11.213,7.7266 c 0.3532,0.2488 0.59792,0.57707 0.73437,0.98242 0.13645,0.4054 0.13645,0.81524 0,1.2246 -0.13642,0.40535 -0.38109,0.7337 -0.73828,0.97852 l -11.209,7.7266 c -0.40534,0.27692 -0.84641,0.38832 -1.332,0.32812 -0.48561,-0.0602 -0.88781,-0.27346 -1.2129,-0.63867 -0.32508,-0.36523 -0.49023,-0.79357 -0.49023,-1.2832 v -15.451 c 0,-0.48963 0.16515,-0.91994 0.49023,-1.2852 0.32512,-0.36522 0.72727,-0.57847 1.2129,-0.63867 0.12107,-0.01538 0.23942,-0.01969 0.35547,-0.01367 z"
     filter="url(#filter1022)"
     opacity="0.15"
     stroke-width="0"
     id="path1011"
     style="image-rendering:optimizeSpeed" />
  <path
     id="rect1073"
     style="fill:#ffffff;fill-opacity:1;stroke-width:0.5;stroke-linecap:round;paint-order:stroke fill markers"
     d="M 32,16 A 16,16 0 0 0 16,32 16,16 0 0 0 32,48 16,16 0 0 0 48,32 16,16 0 0 0 32,16 Z m -4.259766,6.660156 c 0.34816,0.01806 0.673553,0.13305 0.976563,0.34375 l 11.212891,7.726563 c 0.3532,0.2488 0.597925,0.577072 0.734374,0.982422 0.136451,0.4054 0.136451,0.815249 0,1.224609 -0.13642,0.40535 -0.381091,0.733696 -0.738281,0.978516 l -11.208984,7.726562 c -0.40534,0.27692 -0.846441,0.388325 -1.332031,0.328125 -0.48561,-0.0602 -0.887801,-0.273462 -1.212891,-0.638672 -0.32508,-0.36523 -0.490234,-0.793573 -0.490234,-1.283203 V 24.597656 c 0,-0.48963 0.165154,-0.919896 0.490234,-1.285156 0.32512,-0.36522 0.727261,-0.578472 1.212891,-0.638672 0.12107,-0.01539 0.239418,-0.01969 0.355468,-0.01367 z" />
  <g
     fill="#5e4aa6"
     id="g30"
     transform="translate(-5.1222741e-7,-72.838486)">
    <circle
       cx="-1248.7"
       cy="-1241.6"
       r="0"
       id="circle24" />
    <circle
       cx="-1140.3"
       cy="-1301.8"
       r="0"
       id="circle26" />
    <circle
       cx="-1158.1"
       cy="-1246"
       r="0"
       id="circle28" />
  </g>
  <circle
     cx="-1157.3"
     cy="-1340.5385"
     r="0"
     fill="#5e4aa6"
     id="circle36" />
  <circle
     cx="-57.756001"
     cy="-75.021385"
     r="0"
     fill="#5e4aa6"
     fill-rule="evenodd"
     id="circle38" />
</svg>
