<?xml version="1.0" encoding="UTF-8"?>
<svg width="64" height="64" version="1.1" viewBox="0 0 64 64" xmlns="http://www.w3.org/2000/svg" xmlns:cc="http://creativecommons.org/ns#" xmlns:dc="http://purl.org/dc/elements/1.1/" xmlns:rdf="http://www.w3.org/1999/02/22-rdf-syntax-ns#">
 <metadata>
  <rdf:RDF>
   <cc:Work rdf:about="">
    <dc:format>image/svg+xml</dc:format>
    <dc:type rdf:resource="http://purl.org/dc/dcmitype/StillImage"/>
    <dc:title/>
   </cc:Work>
  </rdf:RDF>
 </metadata>
 <defs>
  <linearGradient id="linearGradient1030" x1="78.5" x2="106.56" y1="55.812" y2="27.75" gradientTransform="matrix(1.0489 0 0 1.0489 -50.005 2.2535)" gradientUnits="userSpaceOnUse">
   <stop stop-color="#32915a" offset="0"/>
   <stop stop-color="#1e8250" offset="1"/>
  </linearGradient>
  <style type="text/css"/>
  <style type="text/css"/>
  <style type="text/css"/>
  <filter id="filter1057" x="-.027" y="-.027" width="1.054" height="1.054" color-interpolation-filters="sRGB">
   <feGaussianBlur stdDeviation="0.61875"/>
  </filter>
  <linearGradient id="linearGradient1053" x1="-99.053" x2="-99.053" y1="4.9332" y2="60.005" gradientTransform="translate(76.898 -.51)" gradientUnits="userSpaceOnUse">
   <stop stop-color="#14d296" offset="0"/>
   <stop stop-color="#40e89b" offset=".24059"/>
   <stop stop-color="#23c878" offset=".24059"/>
   <stop stop-color="#2cbc76" offset=".48137"/>
   <stop stop-color="#1ea064" offset=".4854"/>
   <stop stop-color="#318356" offset=".7644"/>
   <stop stop-color="#235f3c" offset=".76588"/>
   <stop stop-color="#274b37" offset="1"/>
  </linearGradient>
 </defs>
 <rect x="4.5" y="4.5" width="55" height="55" ry="15" fill="#141414" filter="url(#filter1057)" opacity=".3" stroke-linecap="round" stroke-width="2.7444"/>
 <g transform="translate(54.602)">
  <rect x="-50.102" y="4.5" width="55" height="55" ry="15" fill="url(#linearGradient1053)" stroke-linecap="round" stroke-width="2.7444"/>
  <path d="m-35.102 4.5c-8.31 0-15 6.69-15 15v25c0 0.69927 0.06258 1.3814 0.1543 2.0547h22.529v-42.055z" fill="#288c55" opacity=".6"/>
 </g>
 <circle cx="47.219" cy="45.719" r="15.406" fill="url(#linearGradient1030)" fill-rule="evenodd" style="paint-order:stroke fill markers"/>
 <path d="m38.719 36.895 6.1648 8.8222-6.1648 8.8255h4.6734l3.8266-5.4791 3.8266 5.4791h4.6734l-6.1647-8.8255 6.1647-8.8222h-4.6734l-3.8266 5.4791-3.8266-5.4791z" fill="#fff" stroke-width=".88237"/>
 <g transform="translate(-71.045)" fill="#5e4aa6">
  <g transform="translate(-80.134,-57.985)" image-rendering="optimizeSpeed">
   <circle cx="-1248.7" cy="-1241.6" r="0"/>
   <circle cx="-149.15" cy="23.855" r="0" fill-rule="evenodd"/>
   <circle cx="-1248.7" cy="-1241.6" r="0"/>
   <circle cx="-149.15" cy="23.855" r="0" fill-rule="evenodd"/>
  </g>
  <circle cx="-1248.7" cy="-1241.6" r="0"/>
  <circle cx="-149.15" cy="23.855" r="0" fill-rule="evenodd"/>
  <g transform="matrix(3.7796,0,0,3.7796,5.8415e-4,-1.7177e-4)" stroke-width=".26458">
   <g transform="translate(-.0272 .0065001)">
    <circle cx="-330.35" cy="-328.38" r="0"/>
    <circle cx="-312.11" cy="-326.25" r="0"/>
    <circle cx="-306.02" cy="-333.07" r="0"/>
    <circle cx="-308.84" cy="-326.01" r="0"/>
    <circle cx="-330.35" cy="-328.38" r="0"/>
    <circle cx="-312.11" cy="-326.25" r="0"/>
    <circle cx="-306.02" cy="-333.07" r="0"/>
    <circle cx="-308.84" cy="-326.01" r="0"/>
   </g>
   <g transform="translate(-.02705 .0064503)">
    <circle cx="-330.35" cy="-328.38" r="0"/>
    <circle cx="-312.11" cy="-326.25" r="0"/>
    <circle cx="-306.02" cy="-333.07" r="0"/>
    <circle cx="-308.84" cy="-326.01" r="0"/>
   </g>
  </g>
  <g transform="translate(-79.199,-30.995)">
   <circle cx="-1248.7" cy="-1241.6" r="0"/>
   <circle cx="-1140.3" cy="-1301.8" r="0"/>
   <circle cx="-1158.1" cy="-1246" r="0"/>
  </g>
  <circle cx="-1236.5" cy="-1298.7" r="0"/>
  <circle cx="-136.95" cy="-33.178" r="0" fill-rule="evenodd"/>
 </g>
</svg>
