<?xml version="1.0" encoding="UTF-8"?>
<svg width="64" height="64" version="1.1" viewBox="0 0 64 64" xmlns="http://www.w3.org/2000/svg" xmlns:cc="http://creativecommons.org/ns#" xmlns:dc="http://purl.org/dc/elements/1.1/" xmlns:rdf="http://www.w3.org/1999/02/22-rdf-syntax-ns#" xmlns:xlink="http://www.w3.org/1999/xlink">
 <metadata>
  <rdf:RDF>
   <cc:Work rdf:about="">
    <dc:format>image/svg+xml</dc:format>
    <dc:type rdf:resource="http://purl.org/dc/dcmitype/StillImage"/>
    <dc:title/>
   </cc:Work>
  </rdf:RDF>
 </metadata>
 <defs>
  <linearGradient id="linearGradient1030" x1="78.5" x2="106.56" y1="55.812" y2="27.75" gradientTransform="matrix(1.0489,0,0,1.0489,-50.005,2.2535)" gradientUnits="userSpaceOnUse">
   <stop stop-color="#ff5a3c" offset="0"/>
   <stop stop-color="#be3c23" offset="1"/>
  </linearGradient>
  <linearGradient id="linearGradient1017" x1="8.9333" x2="8.9333" y1="1.1166" y2="15.677" gradientTransform="matrix(4.1348 0 0 4.1348 -3.0105 -2.2467)" gradientUnits="userSpaceOnUse">
   <stop stop-color="#e16e46" offset="0"/>
   <stop stop-color="#e6653c" offset=".515"/>
   <stop stop-color="#c84b28" offset=".515"/>
   <stop stop-color="#d23c23" offset="1"/>
  </linearGradient>
  <style type="text/css"/>
  <style type="text/css"/>
  <style type="text/css"/>
  <filter id="filter1057" x="-.027" y="-.027" width="1.054" height="1.054" color-interpolation-filters="sRGB">
   <feGaussianBlur stdDeviation="0.61875"/>
  </filter>
  <linearGradient id="linearGradient1053" x1="-97.573" x2="-97.573" y1="60.022" y2="5.0837" gradientTransform="translate(131.5 -.51)" gradientUnits="userSpaceOnUse">
   <stop stop-color="#d23c23" offset="0"/>
   <stop stop-color="#c84b28" offset=".4768"/>
   <stop stop-color="#ff9b69" offset=".4768"/>
   <stop stop-color="#f5a078" offset="1"/>
  </linearGradient>
  <linearGradient id="linearGradient1055" x1="35.572" x2="35.572" y1="9.6794" y2="-45.321" gradientTransform="matrix(1.1072 0 0 1.1072 -3.2312 51.91)" gradientUnits="userSpaceOnUse">
   <stop offset="0"/>
   <stop stop-opacity="0" offset="1"/>
  </linearGradient>
 </defs>
 <rect x="4.5" y="4.5" width="55" height="55" ry="15" fill="#141414" filter="url(#filter1057)" opacity=".3" stroke-linecap="round" stroke-width="2.7444"/>
 <rect x="4.5" y="4.5" width="55" height="55" ry="15" fill="url(#linearGradient1053)" stroke-linecap="round" stroke-width="2.7444"/>
 <path d="m19.5 4.5c-8.31 0-15 6.69-15 15v25c0 8.31 6.69 15 15 15h25c8.31 0 15-6.69 15-15v-25c0-8.31-6.69-15-15-15h-25z" fill="url(#linearGradient1055)" fill-rule="evenodd" opacity=".15"/>
 <path d="m19.5 4.5c-8.31 0-15 6.69-15 15v25c0 8.31 6.69 15 15 15h12.504v-55h-12.504z" fill="url(#linearGradient1017)"/>
 <g transform="translate(-64.618)" fill="#5e4aa6">
  <g transform="translate(-80.134,-57.985)" image-rendering="optimizeSpeed">
   <circle cx="-1248.7" cy="-1241.6" r="0"/>
   <circle cx="-149.15" cy="23.855" r="0" fill-rule="evenodd"/>
   <circle cx="-1248.7" cy="-1241.6" r="0"/>
   <circle cx="-149.15" cy="23.855" r="0" fill-rule="evenodd"/>
  </g>
  <circle cx="-1248.7" cy="-1241.6" r="0"/>
  <circle cx="-149.15" cy="23.855" r="0" fill-rule="evenodd"/>
  <g transform="matrix(3.7796,0,0,3.7796,5.8415e-4,-1.7177e-4)" stroke-width=".26458">
   <g transform="translate(-.0272 .0065001)">
    <circle cx="-330.35" cy="-328.38" r="0"/>
    <circle cx="-312.11" cy="-326.25" r="0"/>
    <circle cx="-306.02" cy="-333.07" r="0"/>
    <circle cx="-308.84" cy="-326.01" r="0"/>
    <circle cx="-330.35" cy="-328.38" r="0"/>
    <circle cx="-312.11" cy="-326.25" r="0"/>
    <circle cx="-306.02" cy="-333.07" r="0"/>
    <circle cx="-308.84" cy="-326.01" r="0"/>
   </g>
   <g transform="translate(-.02705 .0064503)">
    <circle cx="-330.35" cy="-328.38" r="0"/>
    <circle cx="-312.11" cy="-326.25" r="0"/>
    <circle cx="-306.02" cy="-333.07" r="0"/>
    <circle cx="-308.84" cy="-326.01" r="0"/>
   </g>
  </g>
  <g transform="translate(-79.199,-30.995)">
   <circle cx="-1248.7" cy="-1241.6" r="0"/>
   <circle cx="-1140.3" cy="-1301.8" r="0"/>
   <circle cx="-1158.1" cy="-1246" r="0"/>
  </g>
  <circle cx="-1236.5" cy="-1298.7" r="0"/>
  <circle cx="-136.95" cy="-33.178" r="0" fill-rule="evenodd"/>
 </g>
 <circle cx="47.219" cy="45.719" r="15.406" fill="url(#linearGradient1030)" fill-rule="evenodd" style="paint-order:stroke fill markers"/>
 <path d="m40.326 35.207-0.1069 21.025h5.5451v-6.4872c7.595 0.01591 11.455-0.97442 11.455-7.2154 0-6.9079-3.7773-7.3478-11.455-7.3222zm7.4559 4.4395c1.842 0.04391 4.2991 0.55427 4.2991 2.963 0 3.8539-6.2901 2.8461-6.2901 2.8461v-5.6955s0.88576-0.13993 1.9909-0.11358z" fill="#fff" stroke-width="1.0513"/>
</svg>
