<?xml version="1.0" encoding="UTF-8"?>
<!-- Created with Inkscape (http://www.inkscape.org/) -->
<svg width="64" height="64" version="1.1" viewBox="0 0 16.933 16.933" xmlns="http://www.w3.org/2000/svg">
 <defs>
  <filter id="filter1057" x="-.027" y="-.027" width="1.054" height="1.054" color-interpolation-filters="sRGB">
   <feGaussianBlur stdDeviation="0.61875"/>
  </filter>
  <linearGradient id="linearGradient1053" x1="-127" x2="-72" y1="60" y2="5" gradientTransform="matrix(.26458 0 0 .26458 34.793 -.13494)" gradientUnits="userSpaceOnUse">
   <stop stop-color="#32d7ff" offset="0"/>
   <stop stop-color="#329bff" offset="1"/>
  </linearGradient>
 </defs>
 <rect transform="scale(.26458)" x="4.5" y="4.5" width="55" height="55" ry="15" fill="#141414" filter="url(#filter1057)" opacity=".3" stroke-linecap="round" stroke-width="2.7444"/>
 <rect x="1.1906" y="1.1906" width="14.552" height="14.552" ry="3.9688" fill="url(#linearGradient1053)" stroke-linecap="round" stroke-width=".72612"/>
 <g transform="translate(1.0231 .23217)" stroke-width=".014525">
  <path d="m7.8392 3.9523h-5.8211c-0.22162 0-0.39893 0.17731-0.39893 0.39893v4.0435c0 0.22162 0.17731 0.39893 0.39893 0.39893h5.8166c0.22162 0 0.39893-0.17731 0.39893-0.39893v-4.0435c0.00492-0.22162-0.17731-0.39893-0.39401-0.39893z" fill="#f1f3f7"/>
  <rect x="2.0178" y="4.9324" width="5.8211" height="3.4426" fill="#fcfcfd"/>
  <circle cx="7.7113" cy="4.4695" r=".12805" fill="#f0582f"/>
  <circle cx="7.263" cy="4.4695" r=".12805" fill="#fbd303"/>
  <circle cx="6.8147" cy="4.4695" r=".12805" fill="#6eb1e1"/>
  <path d="m10.356 5.8138h-5.8211c-0.22162 0-0.39893 0.17731-0.39893 0.39893v4.0435c0 0.22162 0.17731 0.39893 0.39893 0.39893h5.8166c0.22162 0 0.39893-0.17731 0.39893-0.39893v-4.0435c0.0049-0.22162-0.17731-0.39893-0.39401-0.39893z" fill="#f1f3f7"/>
  <rect x="4.5351" y="6.7939" width="5.8211" height="3.4426" fill="#fcfcfd"/>
  <circle cx="10.229" cy="6.331" r=".12805" fill="#f0582f"/>
  <circle cx="9.7802" cy="6.331" r=".12805" fill="#fbd303"/>
  <circle cx="9.3319" cy="6.331" r=".12805" fill="#6eb1e1"/>
  <path d="m12.874 7.6754h-5.8211c-0.22162 0-0.39893 0.17731-0.39893 0.39893v4.0435c0 0.22162 0.17731 0.39893 0.39893 0.39893h5.8166c0.22162 0 0.39893-0.17731 0.39893-0.39893v-4.0435c0.0049-0.22162-0.17731-0.39893-0.39401-0.39893z" fill="#f1f3f7"/>
  <rect x="7.0523" y="8.6555" width="5.8211" height="3.4426" fill="#fcfcfd"/>
  <circle cx="12.746" cy="8.1925" r=".12805" fill="#f0582f"/>
  <circle cx="12.297" cy="8.1925" r=".12805" fill="#fbd303"/>
  <circle cx="11.849" cy="8.1925" r=".12805" fill="#6eb1e1"/>
 </g>
</svg>
