<?xml version="1.0" encoding="UTF-8" standalone="no"?>
<svg
   xmlns:dc="http://purl.org/dc/elements/1.1/"
   xmlns:cc="http://creativecommons.org/ns#"
   xmlns:rdf="http://www.w3.org/1999/02/22-rdf-syntax-ns#"
   xmlns:svg="http://www.w3.org/2000/svg"
   xmlns="http://www.w3.org/2000/svg"
   xmlns:xlink="http://www.w3.org/1999/xlink"
   xmlns:sodipodi="http://sodipodi.sourceforge.net/DTD/sodipodi-0.dtd"
   xmlns:inkscape="http://www.inkscape.org/namespaces/inkscape"
   height="64"
   width="64"
   version="1.1"
   id="svg21"
   sodipodi:docname="mysql-workbench.svg"
   inkscape:version="1.0.1 (3bc2e813f5, 2020-09-07, custom)">
  <metadata
     id="metadata27">
    <rdf:RDF>
      <cc:Work
         rdf:about="">
        <dc:format>image/svg+xml</dc:format>
        <dc:type
           rdf:resource="http://purl.org/dc/dcmitype/StillImage" />
        <dc:title></dc:title>
      </cc:Work>
    </rdf:RDF>
  </metadata>
  <defs
     id="defs25">
    <linearGradient
       gradientUnits="userSpaceOnUse"
       gradientTransform="matrix(0.53033,0,0,0.53033,11.509,71.86151)"
       y2="-98.292"
       y1="-140.25"
       x2="-6.1472"
       x1="-6.1472"
       id="a-3">
      <stop
         id="stop837"
         offset="0"
         stop-color="#ff3c69" />
      <stop
         id="stop839"
         offset="1"
         stop-color="#ff462b" />
    </linearGradient>
    <linearGradient
       id="linearGradient1029"
       x1="8.6487"
       x2="8.6487"
       y1="1.483"
       y2="15.436"
       gradientUnits="userSpaceOnUse">
      <stop
         stop-color="#17b7f1"
         offset="0"
         id="stop2-6" />
      <stop
         stop-color="#1763e1"
         offset="1"
         id="stop4-75" />
    </linearGradient>
    <filter
       id="filter2761"
       x="-.024"
       y="-.024"
       width="1.048"
       height="1.048"
       color-interpolation-filters="sRGB">
      <feGaussianBlur
         stdDeviation="0.14552168"
         id="feGaussianBlur2" />
    </filter>
    <linearGradient
       id="linearGradient4673"
       x1="1.2573"
       x2="15.644"
       y1="15.429"
       y2="1.1082"
       gradientUnits="userSpaceOnUse">
      <stop
         stop-color="#ff8228"
         offset="0"
         id="stop5" />
      <stop
         stop-color="#ff7346"
         offset=".47728"
         id="stop7-35" />
      <stop
         stop-color="#ff8c55"
         offset="1"
         id="stop9-62" />
    </linearGradient>
    <linearGradient
       id="linearGradient865"
       x1="7.9373"
       x2="7.9373"
       y1="6.879"
       y2="1.0583"
       gradientTransform="matrix(1.0000066,0,0,1.0000066,19.187825,0)"
       gradientUnits="userSpaceOnUse">
      <stop
         stop-color="#fff"
         offset="0"
         id="stop2-36" />
      <stop
         stop-color="#fcc"
         offset="1"
         id="stop4-7" />
    </linearGradient>
    <linearGradient
       id="linearGradient855"
       x1="2.6278"
       x2="12.314"
       y1="14.579"
       y2="3.9327"
       gradientUnits="userSpaceOnUse"
       gradientTransform="translate(19.187825)">
      <stop
         stop-color="#d462aa"
         offset="0"
         id="stop7-3" />
      <stop
         stop-color="#56c7d9"
         offset=".15178"
         id="stop9-6" />
      <stop
         stop-color="#2da8b8"
         offset=".33294"
         id="stop11" />
      <stop
         stop-color="#72cb6b"
         offset=".53353"
         id="stop13" />
      <stop
         stop-color="#c4dc2b"
         offset=".71019"
         id="stop15" />
      <stop
         stop-color="#f9da3e"
         offset=".8623"
         id="stop17" />
      <stop
         stop-color="#f69429"
         offset="1"
         id="stop19" />
    </linearGradient>
    <linearGradient
       id="linearGradient910"
       x1="45"
       x2="57.008"
       y1="19"
       y2="6.9915"
       gradientTransform="matrix(0.26458,0,0,0.26458,19.187825,0)"
       gradientUnits="userSpaceOnUse">
      <stop
         stop-color="#fff"
         offset="0"
         id="stop22" />
      <stop
         stop-color="#ffe3cc"
         offset="1"
         id="stop24" />
    </linearGradient>
    <style
       id="style872"
       type="text/css" />
    <filter
       color-interpolation-filters="sRGB"
       height="1.048"
       width="1.048"
       y="-.024"
       x="-.024"
       id="filter2761-7">
      <feGaussianBlur
         id="feGaussianBlur874"
         stdDeviation="0.14552168" />
    </filter>
    <linearGradient
       gradientUnits="userSpaceOnUse"
       gradientTransform="matrix(3.7796,0,0,3.7796,-0.0026448,0.53066)"
       y2="1.1082"
       y1="15.429"
       x2="15.644"
       x1="1.2573"
       id="linearGradient4673-5">
      <stop
         id="stop877"
         offset="0"
         stop-color="#32dcff" />
      <stop
         id="stop879"
         offset="1"
         stop-color="#3296ff" />
    </linearGradient>
    <style
       type="text/css"
       id="style4" />
    <style
       type="text/css"
       id="style6" />
    <style
       type="text/css"
       id="style8" />
    <filter
       id="filter2761-36"
       x="-.024"
       y="-.024"
       width="1.048"
       height="1.048"
       color-interpolation-filters="sRGB">
      <feGaussianBlur
         stdDeviation="0.14552168"
         id="feGaussianBlur10" />
    </filter>
    <linearGradient
       id="linearGradient1024-6"
       x1="1.3315"
       x2="15.65"
       y1="15.576"
       y2="1.17"
       gradientTransform="matrix(3.7796,0,0,3.7796,111.78704,0.53107)"
       gradientUnits="userSpaceOnUse">
      <stop
         stop-color="#00dc96"
         offset="0"
         id="stop13-7" />
      <stop
         stop-color="#14d29b"
         offset="1"
         id="stop15-5" />
    </linearGradient>
    <linearGradient
       id="b-9"
       x1="45.628"
       x2="45.628"
       y1="57.955"
       y2="12.461"
       gradientTransform="matrix(0.27476,0,0,0.27476,-24.952118,-0.32515)"
       gradientUnits="userSpaceOnUse">
      <stop
         offset="0"
         id="stop2-3" />
      <stop
         stop-opacity="0"
         offset="1"
         id="stop4-5" />
    </linearGradient>
    <style
       id="style872-0"
       type="text/css" />
    <style
       id="style874"
       type="text/css" />
    <style
       id="style876"
       type="text/css" />
    <filter
       color-interpolation-filters="sRGB"
       height="1.048"
       width="1.048"
       y="-.024"
       x="-.024"
       id="filter2761-3">
      <feGaussianBlur
         id="feGaussianBlur878"
         stdDeviation="0.14552168" />
    </filter>
    <linearGradient
       gradientUnits="userSpaceOnUse"
       gradientTransform="matrix(3.7796,0,0,3.7796,-0.0020773,0.53047)"
       y2="1.17"
       y1="15.576"
       x2="15.65"
       x1="1.3315"
       id="linearGradient1024-6-6">
      <stop
         id="stop881"
         offset="0"
         stop-color="#00dc96" />
      <stop
         id="stop883"
         offset="1"
         stop-color="#14d29b" />
    </linearGradient>
    <linearGradient
       id="linearGradient1057">
      <stop
         stop-color="#fff"
         offset="0"
         id="stop4-3" />
      <stop
         stop-color="#fff"
         stop-opacity="0"
         offset="1"
         id="stop6-3" />
    </linearGradient>
    <linearGradient
       id="linearGradient982"
       x1="34.999"
       x2="34.999"
       y1="27.545"
       y2="52.847"
       gradientTransform="matrix(1.5625,0,0,1.5625,0.40633,-5.1891)"
       gradientUnits="userSpaceOnUse">
      <stop
         stop-color="#32b4ff"
         offset="0"
         id="stop9-67" />
      <stop
         stop-color="#3287ff"
         offset="1"
         id="stop11-5" />
    </linearGradient>
    <style
       type="text/css"
       id="style14" />
    <style
       type="text/css"
       id="style16" />
    <linearGradient
       id="linearGradient1047"
       x1="21.314"
       x2="21.314"
       y1="18.052"
       y2="43.681"
       gradientTransform="matrix(1.5625,0,0,1.5625,-9.2253,1.3231)"
       gradientUnits="userSpaceOnUse">
      <stop
         stop-color="#14dc78"
         offset="0"
         id="stop18" />
      <stop
         stop-color="#14a03c"
         offset="1"
         id="stop20" />
    </linearGradient>
    <linearGradient
       id="linearGradient1049"
       x1="41.729"
       x2="41.729"
       y1="12.316"
       y2="37.368"
       gradientTransform="matrix(1.5625,0,0,1.5625,-8.1072,-10.908)"
       gradientUnits="userSpaceOnUse">
      <stop
         stop-color="#ff3c64"
         offset="0"
         id="stop23" />
      <stop
         stop-color="#ff4628"
         offset="1"
         id="stop25" />
    </linearGradient>
    <linearGradient
       id="linearGradient1059"
       x1="34.427"
       x2="34.427"
       y1="32.234"
       y2="39.768"
       gradientTransform="matrix(1,0,0,1.2271,0.20646,-10.975)"
       gradientUnits="userSpaceOnUse"
       xlink:href="#linearGradient1057" />
    <linearGradient
       id="linearGradient1063"
       x1="34.427"
       x2="34.427"
       y1="32.234"
       y2="39.768"
       gradientTransform="matrix(1,0,0,1.2271,-12.55,-19.793)"
       gradientUnits="userSpaceOnUse"
       xlink:href="#linearGradient1057" />
    <linearGradient
       id="linearGradient1067"
       x1="34.427"
       x2="34.427"
       y1="32.234"
       y2="39.768"
       gradientTransform="matrix(1,0,0,1.2271,5.7554,-25.761)"
       gradientUnits="userSpaceOnUse"
       xlink:href="#linearGradient1057" />
    <filter
       id="filter2761-35"
       x="-.024"
       y="-.024"
       width="1.048"
       height="1.048"
       color-interpolation-filters="sRGB">
      <feGaussianBlur
         stdDeviation="0.14552168"
         id="feGaussianBlur31" />
    </filter>
    <linearGradient
       id="linearGradient1024"
       x1="1.3315"
       x2="15.65"
       y1="15.576"
       y2="1.17"
       gradientTransform="matrix(3.7796,0,0,3.7796,72.4059,0.53085)"
       gradientUnits="userSpaceOnUse">
      <stop
         stop-color="#dddfe1"
         offset="0"
         id="stop34" />
      <stop
         stop-color="#f3f4f6"
         stop-opacity=".99608"
         offset="1"
         id="stop36" />
    </linearGradient>
    <filter
       id="filter2761-3-6"
       x="-.024"
       y="-.024"
       width="1.048"
       height="1.048"
       color-interpolation-filters="sRGB">
      <feGaussianBlur
         stdDeviation="0.14552168"
         id="feGaussianBlur2-2" />
    </filter>
    <linearGradient
       id="linearGradient1024-6-9"
       x1="1.3315"
       x2="15.65"
       y1="15.576"
       y2="1.17"
       gradientTransform="translate(0 -.07421)"
       gradientUnits="userSpaceOnUse">
      <stop
         stop-color="#dddfe1"
         offset="0"
         id="stop5-1" />
      <stop
         stop-color="#f3f4f6"
         stop-opacity=".99608"
         offset="1"
         id="stop7-2" />
    </linearGradient>
    <filter
       height="1.054"
       y="-0.027000001"
       width="1.054"
       x="-0.027000001"
       id="filter1057-7"
       style="color-interpolation-filters:sRGB"
       inkscape:collect="always">
      <feGaussianBlur
         id="feGaussianBlur1059-0"
         stdDeviation="0.61875"
         inkscape:collect="always" />
    </filter>
    <linearGradient
       gradientTransform="translate(131.5,-0.50999935)"
       gradientUnits="userSpaceOnUse"
       y2="5"
       x2="-72"
       y1="60"
       x1="-127"
       id="linearGradient1053"
       xlink:href="#linearGradient1051"
       inkscape:collect="always" />
    <linearGradient
       id="linearGradient1051"
       inkscape:collect="always">
      <stop
         id="stop1047"
         offset="0"
         style="stop-color:#dee0e2;stop-opacity:1" />
      <stop
         id="stop1049"
         offset="1"
         style="stop-color:#f1f3f5;stop-opacity:0.99607843" />
    </linearGradient>
  </defs>
  <sodipodi:namedview
     pagecolor="#ffffff"
     bordercolor="#666666"
     borderopacity="1"
     objecttolerance="10"
     gridtolerance="10"
     guidetolerance="10"
     inkscape:pageopacity="0"
     inkscape:pageshadow="2"
     inkscape:window-width="1920"
     inkscape:window-height="992"
     id="namedview23"
     showgrid="false"
     inkscape:zoom="6.1208931"
     inkscape:cx="72.044531"
     inkscape:cy="23.894682"
     inkscape:window-x="0"
     inkscape:window-y="0"
     inkscape:window-maximized="1"
     inkscape:current-layer="svg21" />
  <linearGradient
     gradientUnits="userSpaceOnUse"
     x1="0"
     x2="47"
     y1="23.5"
     y2="23.5"
     id="linearGradient8">
    <stop
       offset="0"
       stop-color="#a9a3d4"
       id="stop2" />
    <stop
       offset=".47001833"
       stop-color="#87baff"
       id="stop4" />
    <stop
       offset="1"
       stop-color="#89ec85"
       id="stop6" />
  </linearGradient>
  <linearGradient
     id="a"
     gradientUnits="userSpaceOnUse"
     x1="400.57144"
     x2="400.57144"
     y1="545.79797"
     y2="517.79797"
     gradientTransform="matrix(2.1428563,0,0,2.1428563,-745.3187,-1108.453)">
    <stop
       offset="0"
       stop-color="#8cbdf8"
       id="stop10" />
    <stop
       offset="1"
       stop-color="#d5e8ff"
       id="stop12" />
  </linearGradient>
  <rect
     style="opacity:0.3;fill:#141414;fill-opacity:1;stroke-width:2.74436;stroke-linecap:round;filter:url(#filter1057-7)"
     id="rect1055-9"
     width="55"
     height="55"
     x="4.4999995"
     y="4.4999995"
     ry="15" />
  <rect
     ry="14.999999"
     y="4.5000019"
     x="4.5000019"
     height="54.999996"
     width="54.999996"
     id="rect1045"
     style="fill:url(#linearGradient1053);fill-opacity:1;stroke-width:2.74436;stroke-linecap:round" />
  <circle
     cx="-1248.6936"
     cy="-1241.6389"
     r="0"
     fill="#5e4aa6"
     stroke-width="1.00001"
     id="circle844" />
  <circle
     cx="-149.14687"
     cy="23.855032"
     r="0"
     fill="#5e4aa6"
     fill-rule="evenodd"
     stroke-width="1.00001"
     id="ellipse846" />
  <circle
     id="circle41"
     fill="#5e4aa6"
     r="0"
     cy="-1241.6"
     cx="-1163.3359"
     style="stroke-width:1" />
  <circle
     id="circle43"
     fill-rule="evenodd"
     fill="#5e4aa6"
     r="0"
     cy="23.855"
     cx="-63.785969"
     style="stroke-width:1" />
  <path
     d="m 15.902862,28.203271 c 0.452848,0.480115 1.120073,0.480115 1.339386,0.480115 0.406658,0 0.909456,-0.06734 1.629923,-0.21849 0.565912,-0.118707 1.053197,-0.237061 1.482891,-0.341311 0.845284,-0.205327 1.456216,-0.353769 2.031296,-0.353769 0.32415,0 0.91556,0.14045 1.54189,0.289244 0.97515,0.231654 2.18866,0.519841 3.36245,0.519841 1.18506,0 2.43242,-0.09214 3.21835,-0.163251 0.26104,0.978565 0.88208,2.592268 2.29175,3.747365 1.91658,1.570217 3.33753,2.270702 3.39712,2.299733 0.36399,0.177472 0.80168,0.08451 1.06177,-0.225895 0.2601,-0.310165 0.27561,-0.757489 0.0375,-1.084813 -0.008,-0.01117 -0.96576,-1.365243 -0.92897,-2.887037 0.0146,-0.605403 0.0366,-1.079759 0.059,-1.44105 1.19376,0.351889 3.22635,1.138525 4.27485,2.619301 1.58831,2.242848 2.2399,5.695914 2.06537,6.82868 -0.1817,1.180248 -0.20345,1.180248 -0.76348,1.180248 -1.22021,0 -2.24532,0.04995 -3.39994,0.678508 -1.02135,0.555805 -1.58385,1.163911 -1.6445,1.231492 -0.22907,0.254455 -0.29007,0.618566 -0.15643,0.933668 0.13363,0.315336 0.43768,0.524659 0.77981,0.536882 0.33003,0.01234 1.32869,0.09555 1.97053,0.3285 0.34084,0.12376 0.63444,0.268559 0.91839,0.408656 0.45426,0.224132 0.88337,0.435805 1.38393,0.494924 0.16278,0.01928 0.32991,0.02868 0.48811,0.02574 0.18452,0.428636 0.49857,0.939544 1.02675,1.34491 0.40431,0.310399 0.81567,0.501858 1.1786,0.670633 0.44568,0.207442 0.79781,0.371281 1.06813,0.70648 0.70848,0.878545 0.94624,1.831136 0.94847,1.840656 0.0926,0.380448 0.4257,0.656176 0.81685,0.673924 0.0135,7.05e-4 0.0271,9.4e-4 0.0407,9.4e-4 0.37504,0 0.71154,-0.236473 0.83389,-0.594238 0.0551,-0.160665 0.51972,-1.633213 -0.0986,-3.788618 -0.22108,-0.770535 -0.56357,-1.437524 -0.89465,-2.08277 -0.53876,-1.049437 -1.00407,-1.95572 -0.80885,-3.066272 0.91768,-5.219678 0.85433,-9.46373 -0.18817,-12.613801 -1.62099,-4.89917 -5.54512,-7.628833 -6.3153,-8.126107 -0.3821,-0.246933 -0.72599,-0.464131 -1.01582,-0.644659 0.26879,-0.214142 0.61045,-0.439096 1.01664,-0.61175 0.9245,-0.393024 1.31306,-0.500447 1.42072,-0.526069 0.007,2.35e-4 0.0136,2.35e-4 0.0203,2.35e-4 0.38374,1.17e-4 0.67874,-0.25328 0.79099,-0.627499 0.11659,-0.388558 -0.10002,-0.805677 -0.44921,-1.011944 -0.0664,-0.03937 -1.6546,-0.962698 -3.74772,-0.962698 -0.43192,0 -0.86103,0.03961 -1.27533,0.117766 -1.29084,0.243642 -2.20312,0.607637 -3.08531,0.959525 -0.86138,0.343661 -1.67505,0.668282 -2.88986,0.924148 -0.59012,0.124348 -1.13358,0.220253 -1.65907,0.313103 -1.80798,0.319215 -3.36938,0.594943 -5.7039,1.787062 -3.046881,1.556113 -4.760133,3.25867 -4.824305,4.793745 -0.01352,0.323563 -0.0065,0.61269 0.02127,0.866792 -0.285131,0.142566 -0.631613,0.322741 -0.981621,0.521839 -1.424831,0.810378 -2.022359,1.417309 -2.062202,2.094641 -0.02762,0.4713 0.09873,0.859036 0.375629,1.152746 z"
     fill="#3f546c"
     stroke-width="0.154838"
     id="path1055" />
</svg>
