<?xml version="1.0" encoding="UTF-8" standalone="no"?>
<svg
   xmlns:dc="http://purl.org/dc/elements/1.1/"
   xmlns:cc="http://creativecommons.org/ns#"
   xmlns:rdf="http://www.w3.org/1999/02/22-rdf-syntax-ns#"
   xmlns:svg="http://www.w3.org/2000/svg"
   xmlns="http://www.w3.org/2000/svg"
   xmlns:sodipodi="http://sodipodi.sourceforge.net/DTD/sodipodi-0.dtd"
   xmlns:inkscape="http://www.inkscape.org/namespaces/inkscape"
   width="64"
   height="64"
   version="1.1"
   viewBox="0 0 16.933 16.933"
   id="svg26"
   sodipodi:docname="netease-cloud-music.svg"
   inkscape:version="1.0.1 (3bc2e813f5, 2020-09-07)">
  <sodipodi:namedview
     pagecolor="#ffffff"
     bordercolor="#666666"
     borderopacity="1"
     objecttolerance="10"
     gridtolerance="10"
     guidetolerance="10"
     inkscape:pageopacity="0"
     inkscape:pageshadow="2"
     inkscape:window-width="1920"
     inkscape:window-height="942"
     id="namedview28"
     showgrid="false"
     inkscape:zoom="6.0546875"
     inkscape:cx="-9.1714901"
     inkscape:cy="30.135352"
     inkscape:window-x="0"
     inkscape:window-y="38"
     inkscape:window-maximized="1"
     inkscape:current-layer="svg26" />
  <defs
     id="defs12">
    <filter
       id="filter2761"
       x="-.024"
       y="-.024"
       width="1.048"
       height="1.048"
       color-interpolation-filters="sRGB">
      <feGaussianBlur
         stdDeviation="0.14552168"
         id="feGaussianBlur2" />
    </filter>
    <linearGradient
       id="linearGradient4673"
       x1="2.2495"
       x2="15.644"
       y1="14.536"
       y2="1.1082"
       gradientUnits="userSpaceOnUse">
      <stop
         stop-color="#ff7d50"
         offset="0"
         id="stop5" />
      <stop
         stop-color="#fa4b5a"
         offset=".47728"
         id="stop7" />
      <stop
         stop-color="#ff509b"
         offset="1"
         id="stop9" />
    </linearGradient>
    <linearGradient
       id="b-3"
       x1="399.57"
       x2="399.57"
       y1="545.8"
       y2="517.8"
       gradientTransform="matrix(0.56696445,0,0,0.56696445,-274.42324,-302.49216)"
       gradientUnits="userSpaceOnUse">
      <stop
         stop-color="#3889e9"
         offset="0"
         id="stop855" />
      <stop
         stop-color="#5ea5fb"
         offset="1"
         id="stop857" />
    </linearGradient>
    <style
       type="text/css"
       id="style860" />
    <linearGradient
       id="linearGradient927"
       x1="39.034"
       x2="-7.7455"
       y1="24.542"
       y2="71.322"
       gradientTransform="matrix(2.0044,0,0,2.0044,123.77,261.85)"
       gradientUnits="userSpaceOnUse">
      <stop
         stop-color="#ffbe14"
         offset="0"
         id="stop862" />
      <stop
         stop-color="#ff8214"
         offset="1"
         id="stop864" />
    </linearGradient>
    <style
       type="text/css"
       id="style867" />
    <style
       type="text/css"
       id="style869" />
    <filter
       id="filter1057"
       x="-.027"
       y="-.027"
       width="1.054"
       height="1.054"
       color-interpolation-filters="sRGB">
      <feGaussianBlur
         stdDeviation="0.61875"
         id="feGaussianBlur871" />
    </filter>
    <linearGradient
       id="linearGradient1053"
       x1="-127"
       x2="-72"
       y1="60"
       y2="5"
       gradientTransform="matrix(0.26457812,0,0,0.26457812,34.792024,-0.13493486)"
       gradientUnits="userSpaceOnUse">
      <stop
         stop-color="#df2a2a"
         offset="0"
         id="stop874" />
      <stop
         stop-color="#f83f3f"
         offset="1"
         id="stop876" />
    </linearGradient>
  </defs>
  <metadata
     id="metadata14">
    <rdf:RDF>
      <cc:Work
         rdf:about="">
        <dc:format>image/svg+xml</dc:format>
        <dc:type
           rdf:resource="http://purl.org/dc/dcmitype/StillImage" />
        <dc:title></dc:title>
      </cc:Work>
    </rdf:RDF>
  </metadata>
  <rect
     x="4.5"
     y="4.5"
     width="55"
     height="55"
     ry="15"
     fill="#141414"
     filter="url(#filter1057)"
     opacity="0.3"
     stroke-linecap="round"
     stroke-width="2.7444"
     id="rect881"
     transform="scale(0.26457812)" />
  <rect
     x="1.1906016"
     y="1.1906016"
     width="14.551797"
     height="14.551797"
     ry="3.9686718"
     fill="url(#linearGradient1053)"
     stroke-linecap="round"
     stroke-width="0.726108"
     id="rect883"
     style="fill:url(#linearGradient1053)" />
  <circle
     cx="-355.96"
     cy="-323.89"
     r="0"
     fill="#5e4aa6"
     stroke-width=".26236"
     id="circle20" />
  <circle
     cx="-65.049"
     cy="5.3223"
     r="0"
     fill="#5e4aa6"
     fill-rule="evenodd"
     stroke-width=".26236"
     id="circle22" />
  <path
     d="m9.3909 8.772a0.79772 0.79772 0 0 1-0.81175 0.78251c-0.49711 0-0.77081-0.43629-0.81526-0.83983-0.08422-0.77198 0.33453-1.1919 0.69946-1.4071 0.14855-0.0877 0.3123-0.15557 0.48191-0.20586 0 0 0.39535 1.2094 0.42576 1.3966 0.03392 0.20703 0.01871 0.27371 0.01871 0.27371m1.9393-2.4247a3.1733 3.1733 0 0 0-1.5217-0.45032l-0.12399-0.43395 0.0047 5e-3 -0.01404-0.0386-0.03509-0.12866c-0.08422-0.37196 0.06784-0.54858 0.14621-0.61174l0.04211-0.0292c0.36026-0.23043 0.87024 0.13802 0.89948 0.16024 0.22692 0.21054 0.64215 0.26317 0.86556 0.0468 0.22692-0.21756 0.17311-0.62578-0.05264-0.84333-0.35207-0.33921-1.4352-0.88428-2.3557-0.29242-0.82696 0.53103-0.8445 1.2784-0.70765 1.7101l0.16493 0.58484a3.2517 3.2517 0 0 0-0.78368 0.32984c-0.9065 0.53454-1.3603 1.4387-1.2469 2.475 0.11697 1.0656 0.94393 1.8399 1.9674 1.8399 1.0878 0 1.9721-0.85153 1.9721-1.8984-0.0152-0.24914-0.0117-0.2468-0.04679-0.47021-0.03509-0.21756-0.36845-1.2422-0.36845-1.2422 0.20586 0.0468 0.39769 0.12047 0.56261 0.2234 1.8691 1.1697 1.0913 3.033 1.0562 3.1137-0.51466 1.1896-1.6375 1.9007-3.0798 1.9487a3.5277 3.5277 0 0 1-2.5359-0.95212 3.5956 3.5956 0 0 1-1.1533-2.6201c0-1.482 0.96615-2.8271 2.406-3.3464 0.30061-0.10877 0.54156-0.41757 0.37663-0.77549-0.131-0.28072-0.48424-0.37898-0.78368-0.26903-1.8902 0.68192-3.1593 2.447-3.1593 4.3898 0 1.2855 0.54975 2.5335 1.5089 3.4248a4.7021 4.7021 0 0 0 3.3827 1.2644c1.8879-0.0632 3.4236-1.048 4.1079-2.6294 0.42693-0.9603 0.66554-3.1347-1.4937-4.4845"
     fill="#fff"
     stroke-width="1.1697"
     id="path24" />
  <g
     transform="matrix(0.26457812,0,0,0.26457812,-55.783822,-9.327437)"
     fill="#5e4aa6"
     id="g915">
    <g
       image-rendering="optimizeSpeed"
       id="g897">
      <circle
         cx="-1248.6"
         cy="-1241.1"
         r="0"
         id="circle885" />
      <g
         transform="matrix(3.7796,0,0,3.7796,-6.9956e-4,6.044e-4)"
         stroke-width="0.26458"
         id="g893">
        <circle
           cx="-330.35001"
           cy="-328.38"
           r="0"
           id="circle887" />
        <circle
           cx="-330.35001"
           cy="-328.38"
           r="0"
           id="circle889" />
        <circle
           cx="-352.63"
           cy="-336.84"
           r="0"
           id="circle891" />
      </g>
      <circle
         cx="-1248.6"
         cy="-1241.1"
         r="0"
         id="circle895" />
    </g>
    <g
       transform="translate(92.643,0.35997)"
       image-rendering="optimizeSpeed"
       id="g911">
      <circle
         cx="-1248.6"
         cy="-1241.1"
         r="0"
         id="circle899" />
      <g
         transform="matrix(3.7796,0,0,3.7796,-6.9956e-4,6.044e-4)"
         stroke-width="0.26458"
         id="g907">
        <circle
           cx="-330.35001"
           cy="-328.38"
           r="0"
           id="circle901" />
        <circle
           cx="-330.35001"
           cy="-328.38"
           r="0"
           id="circle903" />
        <circle
           cx="-352.63"
           cy="-336.84"
           r="0"
           id="circle905" />
      </g>
      <circle
         cx="-1248.6"
         cy="-1241.1"
         r="0"
         id="circle909" />
    </g>
    <circle
       cx="-1152.9"
       cy="-1242.3"
       r="0"
       id="circle913" />
  </g>
  <circle
     cx="-47.314674"
     cy="-0.98163772"
     r="0"
     fill="url(#b-3)"
     stroke-width="0.415785"
     id="circle917"
     style="fill:url(#b-3)" />
  <circle
     cx="-331.49539"
     cy="-335.56445"
     r="0"
     fill="#5e4aa6"
     id="circle919"
     style="stroke-width:0.264578" />
  <circle
     cx="-329.98727"
     cy="-325.21942"
     r="0"
     fill="#5e4aa6"
     image-rendering="optimizeSpeed"
     id="circle921"
     style="stroke-width:0.264578" />
  <g
     transform="matrix(0.26457812,0,0,0.26457812,25.989338,2.1082379)"
     id="g927">
    <g
       transform="translate(1,1)"
       id="g925">
      <g
         opacity="0.1"
         id="g923">
        <!-- color: #e57e29 -->
      </g>
    </g>
  </g>
  <g
     fill="#5e4aa6"
     id="g959"
     transform="matrix(0.26457812,0,0,0.26457812,-19.478412,2.4475832e-8)">
    <circle
       cx="-1080"
       cy="-1247.9"
       r="0"
       id="circle935" />
    <circle
       cx="19.546"
       cy="17.545"
       r="0"
       fill-rule="evenodd"
       id="circle937" />
    <g
       transform="translate(-66.881,-15.741)"
       id="g957">
      <circle
         cx="-1158.1"
         cy="-1246"
         r="0"
         id="circle939" />
      <circle
         cx="-1157.3"
         cy="-1267.7"
         r="0"
         id="circle941" />
      <circle
         cx="-57.756001"
         cy="-2.1829"
         r="0"
         fill-rule="evenodd"
         id="circle943" />
      <g
         transform="translate(-72.958)"
         id="g951">
        <circle
           cx="-1248.7"
           cy="-1241.6"
           r="0"
           id="circle945" />
        <circle
           cx="-1140.3"
           cy="-1301.8"
           r="0"
           id="circle947" />
        <circle
           cx="-1158.1"
           cy="-1246"
           r="0"
           id="circle949" />
      </g>
      <circle
         cx="-1230.3"
         cy="-1267.7"
         r="0"
         id="circle953" />
      <circle
         cx="-130.71001"
         cy="-2.1829"
         r="0"
         fill-rule="evenodd"
         id="circle955" />
    </g>
  </g>
</svg>
