<?xml version="1.0" encoding="UTF-8" standalone="no"?>
<svg
   xmlns:dc="http://purl.org/dc/elements/1.1/"
   xmlns:cc="http://creativecommons.org/ns#"
   xmlns:rdf="http://www.w3.org/1999/02/22-rdf-syntax-ns#"
   xmlns:svg="http://www.w3.org/2000/svg"
   xmlns="http://www.w3.org/2000/svg"
   xmlns:sodipodi="http://sodipodi.sourceforge.net/DTD/sodipodi-0.dtd"
   xmlns:inkscape="http://www.inkscape.org/namespaces/inkscape"
   width="64"
   height="64"
   version="1.1"
   viewBox="0 0 16.933 16.933"
   id="svg43"
   sodipodi:docname="network-workgroup.svg"
   inkscape:version="1.0.1 (3bc2e813f5, 2020-09-07)">
  <sodipodi:namedview
     pagecolor="#ffffff"
     bordercolor="#666666"
     borderopacity="1"
     objecttolerance="10"
     gridtolerance="10"
     guidetolerance="10"
     inkscape:pageopacity="0"
     inkscape:pageshadow="2"
     inkscape:window-width="1920"
     inkscape:window-height="935"
     id="namedview45"
     showgrid="false"
     inkscape:zoom="4.2813106"
     inkscape:cx="34.094734"
     inkscape:cy="39.574055"
     inkscape:window-x="0"
     inkscape:window-y="38"
     inkscape:window-maximized="1"
     inkscape:current-layer="svg43" />
  <defs
     id="defs21">
    <filter
       id="filter2761"
       x="-.024"
       y="-.024"
       width="1.048"
       height="1.048"
       color-interpolation-filters="sRGB">
      <feGaussianBlur
         stdDeviation="0.14552168"
         id="feGaussianBlur2" />
    </filter>
    <linearGradient
       id="linearGradient1024"
       x1="1.3315"
       x2="15.65"
       y1="15.576"
       y2="1.17"
       gradientUnits="userSpaceOnUse">
      <stop
         stop-color="#00c8ff"
         offset="0"
         id="stop5" />
      <stop
         stop-color="#14a0ff"
         offset="1"
         id="stop7" />
    </linearGradient>
    <filter
       id="filter985"
       x="-.059096"
       y="-.060921"
       width="1.1182"
       height="1.1218"
       color-interpolation-filters="sRGB">
      <feGaussianBlur
         stdDeviation="0.21619832"
         id="feGaussianBlur10" />
    </filter>
    <filter
       id="filter1015"
       x="-.084"
       y="-.084"
       width="1.168"
       height="1.168"
       color-interpolation-filters="sRGB">
      <feGaussianBlur
         stdDeviation="0.3089756"
         id="feGaussianBlur13" />
    </filter>
    <linearGradient
       id="linearGradient1025"
       x1="7.9876"
       x2="12.91"
       y1="7.7203"
       y2="12.495"
       gradientUnits="userSpaceOnUse">
      <stop
         stop-color="#fafaff"
         offset="0"
         id="stop16" />
      <stop
         stop-color="#a1d8ff"
         offset="1"
         id="stop18" />
    </linearGradient>
    <style
       type="text/css"
       id="style872" />
    <filter
       id="filter1057"
       x="-.027"
       y="-.027"
       width="1.054"
       height="1.054"
       color-interpolation-filters="sRGB">
      <feGaussianBlur
         stdDeviation="0.61875"
         id="feGaussianBlur874" />
    </filter>
    <linearGradient
       id="linearGradient1053"
       x1="-127"
       x2="-72"
       y1="60"
       y2="5"
       gradientTransform="matrix(0.26457812,0,0,0.26457812,34.792023,-0.13493486)"
       gradientUnits="userSpaceOnUse">
      <stop
         stop-color="#32d7ff"
         offset="0"
         id="stop877" />
      <stop
         stop-color="#329bff"
         offset="1"
         id="stop879" />
    </linearGradient>
    <style
       type="text/css"
       id="style882" />
    <style
       type="text/css"
       id="style884" />
    <style
       type="text/css"
       id="style886" />
    <style
       type="text/css"
       id="style888" />
    <style
       type="text/css"
       id="style890" />
    <style
       type="text/css"
       id="style892" />
    <style
       type="text/css"
       id="style894" />
  </defs>
  <metadata
     id="metadata23">
    <rdf:RDF>
      <cc:Work
         rdf:about="">
        <dc:format>image/svg+xml</dc:format>
        <dc:type
           rdf:resource="http://purl.org/dc/dcmitype/StillImage" />
        <dc:title></dc:title>
      </cc:Work>
    </rdf:RDF>
  </metadata>
  <rect
     x="4.5"
     y="4.5"
     width="55"
     height="55"
     ry="15"
     fill="#141414"
     filter="url(#filter1057)"
     opacity="0.3"
     stroke-linecap="round"
     stroke-width="2.7444"
     id="rect910"
     transform="scale(0.26457812)" />
  <rect
     x="1.1906016"
     y="1.1906016"
     width="14.551797"
     height="14.551797"
     ry="3.9686718"
     fill="url(#linearGradient1053)"
     stroke-linecap="round"
     stroke-width="0.726108"
     id="rect912"
     style="fill:url(#linearGradient1053)" />
  <circle
     cx="8.4674"
     cy="8.326"
     r="4.4139"
     fill="#1496ff"
     filter="url(#filter1015)"
     id="circle29" />
  <g
     transform="translate(-.24043 -.2924)"
     id="g41">
    <path
       d="m13.048 7.8742a2.6848 5.7985 52.956 0 1-0.18913 0.32349 2.6848 5.7985 52.956 0 1-0.27698 0.40824 2.6848 5.7985 52.956 0 1-0.31625 0.40927 2.6848 5.7985 52.956 0 1-0.35191 0.4072 2.6848 5.7985 52.956 0 1-0.38395 0.39997 2.6848 5.7985 52.956 0 1-0.41289 0.38912 2.6848 5.7985 52.956 0 1-0.43666 0.37465 2.6848 5.7985 52.956 0 1-0.32194 0.25424 2.6848 5.7985 52.956 0 1-0.46818 0.34106 2.6848 5.7985 52.956 0 1-0.48058 0.31677 2.6848 5.7985 52.956 0 1-0.48782 0.28887 2.6848 5.7985 52.956 0 1-0.48988 0.25838 2.6848 5.7985 52.956 0 1-0.4873 0.22582 2.6848 5.7985 52.956 0 1-0.48058 0.19068 2.6848 5.7985 52.956 0 1-0.3979 0.13022 4.4139 4.4139 0 0 0 1.6159 0.31057 4.4139 4.4139 0 0 0 4.4136-4.4141 4.4139 4.4139 0 0 0-0.04754-0.61442z"
       fill="#fff"
       opacity=".55"
       id="path31" />
    <path
       transform="matrix(.93108 0 0 .94458 .98435 .77737)"
       d="m8.6817 4.075a4.4139 4.4139 0 0 0-4.4141 4.4136 4.4139 4.4139 0 0 0 0.11989 0.99889 4.4139 4.4139 0 0 0 2.6783 3.1047 2.6848 5.7985 52.956 0 0 0.3979-0.13022 2.6848 5.7985 52.956 0 0 0.48058-0.19068 2.6848 5.7985 52.956 0 0 0.4873-0.22582 2.6848 5.7985 52.956 0 0 0.48988-0.25838 2.6848 5.7985 52.956 0 0 0.48782-0.28887 2.6848 5.7985 52.956 0 0 0.48058-0.31677 2.6848 5.7985 52.956 0 0 0.46818-0.34106 2.6848 5.7985 52.956 0 0 0.32194-0.25424 2.6848 5.7985 52.956 0 0 0.43666-0.37465 2.6848 5.7985 52.956 0 0 0.41289-0.38912 2.6848 5.7985 52.956 0 0 0.38395-0.39997 2.6848 5.7985 52.956 0 0 0.35191-0.4072 2.6848 5.7985 52.956 0 0 0.31625-0.40927 2.6848 5.7985 52.956 0 0 0.27698-0.40824 2.6848 5.7985 52.956 0 0 0.18913-0.32349 4.4139 4.4139 0 0 0-2.0665-3.147 4.4139 4.4139 0 0 0-2.2996-0.65214z"
       fill="#0096ff"
       filter="url(#filter985)"
       opacity=".25"
       id="path33" />
    <path
       d="m8.6817 4.075a4.4139 4.4139 0 0 0-4.4141 4.4136 4.4139 4.4139 0 0 0 0.11989 0.99889 4.4139 4.4139 0 0 0 2.6783 3.1047 2.6848 5.7985 52.956 0 0 0.3979-0.13022 2.6848 5.7985 52.956 0 0 0.48058-0.19068 2.6848 5.7985 52.956 0 0 0.4873-0.22582 2.6848 5.7985 52.956 0 0 0.48988-0.25838 2.6848 5.7985 52.956 0 0 0.48782-0.28887 2.6848 5.7985 52.956 0 0 0.48058-0.31677 2.6848 5.7985 52.956 0 0 0.46818-0.34106 2.6848 5.7985 52.956 0 0 0.32194-0.25424 2.6848 5.7985 52.956 0 0 0.43666-0.37465 2.6848 5.7985 52.956 0 0 0.41289-0.38912 2.6848 5.7985 52.956 0 0 0.38395-0.39997 2.6848 5.7985 52.956 0 0 0.35191-0.4072 2.6848 5.7985 52.956 0 0 0.31625-0.40927 2.6848 5.7985 52.956 0 0 0.27698-0.40824 2.6848 5.7985 52.956 0 0 0.18913-0.32349 4.4139 4.4139 0 0 0-2.0665-3.147 4.4139 4.4139 0 0 0-2.2996-0.65214z"
       fill="url(#linearGradient1025)"
       id="path35" />
    <path
       d="m13.039 7.8737a2.6848 5.7985 52.956 0 0 0.2408-2.6515 2.6848 5.7985 52.956 0 0-2.3083-0.49505 4.4139 4.4139 0 0 1 0.19327 0.11885 4.4139 4.4139 0 0 1 0.35139 0.26665 4.4139 4.4139 0 0 1 0.32297 0.30075 4.4139 4.4139 0 0 1 0.29093 0.33176 4.4139 4.4139 0 0 1 0.25683 0.35863 4.4139 4.4139 0 0 1 0.21962 0.38292 4.4139 4.4139 0 0 1 0.18035 0.40255 4.4139 4.4139 0 0 1 0.13901 0.41857 4.4139 4.4139 0 0 1 0.09663 0.43046 4.4139 4.4139 0 0 1 0.01654 0.13539z"
       fill="#fff"
       opacity=".55"
       id="path37" />
    <path
       d="m4.4055 9.4875a2.6848 5.7985 52.956 0 0-0.31315 2.7755 2.6848 5.7985 52.956 0 0 2.9915 0.32917 4.4139 4.4139 0 0 1-0.10335-0.03772 4.4139 4.4139 0 0 1-0.39739-0.19223 4.4139 4.4139 0 0 1-0.37568-0.23047 4.4139 4.4139 0 0 1-0.35139-0.26716 4.4139 4.4139 0 0 1-0.32297-0.30075 4.4139 4.4139 0 0 1-0.29093-0.33124 4.4139 4.4139 0 0 1-0.25683-0.35914 4.4139 4.4139 0 0 1-0.21962-0.3824 4.4139 4.4139 0 0 1-0.18035-0.40307 4.4139 4.4139 0 0 1-0.13901-0.41857 4.4139 4.4139 0 0 1-0.04082-0.1819z"
       fill="#fff"
       opacity=".55"
       id="path39" />
  </g>
  <circle
     cx="-271.82236"
     cy="-338.47479"
     r="0"
     fill="#5e4aa6"
     id="circle898"
     style="stroke-width:0.264578" />
  <circle
     cx="-240.48215"
     cy="-348.87265"
     r="0"
     id="circle900"
     style="fill:#5e4aa6;stroke-width:0.26458" />
  <circle
     cx="50.431637"
     cy="-14.051351"
     r="0"
     fill-rule="evenodd"
     id="circle902"
     style="fill:#5e4aa6;stroke-width:0.26458" />
  <circle
     cx="-219.71216"
     cy="-367.79266"
     r="0"
     id="circle904"
     style="fill:#5e4aa6;stroke-width:0.26458" />
  <circle
     cx="71.200836"
     cy="-32.961651"
     r="0"
     fill-rule="evenodd"
     id="circle906"
     style="fill:#5e4aa6;stroke-width:0.26458" />
</svg>
