<?xml version="1.0" encoding="UTF-8"?>
<svg width="64" height="64" version="1.1" viewBox="0 0 64 64" xmlns="http://www.w3.org/2000/svg" xmlns:xlink="http://www.w3.org/1999/xlink">
 <defs>
  <filter id="filter1057-2" x="-.027" y="-.027" width="1.054" height="1.054" color-interpolation-filters="sRGB">
   <feGaussianBlur stdDeviation="0.61875"/>
  </filter>
  <linearGradient id="linearGradient1053-9" x1="-127" x2="-72" y1="60" y2="5" gradientTransform="matrix(1 0 0 1 131.5 -.5101)" gradientUnits="userSpaceOnUse">
   <stop stop-color="#747474" offset="0"/>
   <stop stop-color="#929292" offset="1"/>
  </linearGradient>
  <linearGradient id="linearGradient11822" x1="4.5204" x2="61.348" y1="32" y2="32" gradientUnits="userSpaceOnUse">
   <stop stop-color="#5bb365" offset="0"/>
   <stop stop-color="#5ab760" offset="1"/>
  </linearGradient>
 </defs>
 <rect transform="matrix(1 0 0 1 -.00022773 -.00022777)" x="4.5" y="4.5" width="55" height="55" ry="15" fill="#141414" filter="url(#filter1057-2)" opacity=".3" stroke-linecap="round" stroke-width="2.7444"/>
 <rect x="4.5" y="4.4998" width="55.001" height="55.001" ry="15" fill="url(#linearGradient1053-9)" stroke-linecap="round" stroke-width="2.7444"/>
 <g>
  <path d="m4.6973 17.16c-0.11901 0.76398-0.19727 1.5415-0.19727 2.3398v25c0 0.79808 0.078349 1.5761 0.19727 2.3398h54.605c0.11892-0.7637 0.19727-1.5418 0.19727-2.3398v-25c0-0.79838-0.078259-1.5759-0.19727-2.3398h-54.605z" fill="url(#linearGradient11822)" stroke-opacity="0"/>
  <text x="12.056955" y="36.238773" fill="#ffffff" font-family="TSCu_Paranar" font-size="21.896px" stroke-width=".54739" style="font-variant-caps:normal;font-variant-east-asian:normal;font-variant-ligatures:normal;font-variant-numeric:normal;line-height:1.25" xml:space="preserve"><tspan x="12.056955" y="36.238773" stroke-width=".54739">nqq</tspan></text>
  <path d="m48.084 4.9453v54.109c0.92896-0.22652 1.8226-0.53407 2.6738-0.92383v-52.26c-0.85129-0.38981-1.7448-0.69924-2.6738-0.92578z" fill="#414342" stroke-opacity="0"/>
 </g>
</svg>
