<?xml version="1.0" encoding="UTF-8"?>
<svg width="64" height="64" version="1.1" xmlns="http://www.w3.org/2000/svg" xmlns:cc="http://creativecommons.org/ns#" xmlns:dc="http://purl.org/dc/elements/1.1/" xmlns:rdf="http://www.w3.org/1999/02/22-rdf-syntax-ns#" xmlns:xlink="http://www.w3.org/1999/xlink">
 <metadata>
  <rdf:RDF>
   <cc:Work rdf:about="">
    <dc:format>image/svg+xml</dc:format>
    <dc:type rdf:resource="http://purl.org/dc/dcmitype/StillImage"/>
    <dc:title/>
   </cc:Work>
  </rdf:RDF>
 </metadata>
 <defs>
  <linearGradient id="linearGradient890" x1="29.794" x2="29.794" y1="18.047" y2="45.675" gradientUnits="userSpaceOnUse">
   <stop stop-color="#505459" offset="0"/>
   <stop stop-color="#2d2f32" offset="1"/>
  </linearGradient>
  <filter x="-.10872" y="-.10729" width="1.2174" height="1.2146" color-interpolation-filters="sRGB">
   <feGaussianBlur stdDeviation="1.4304909"/>
  </filter>
  <style type="text/css"/>
  <style type="text/css"/>
  <filter id="filter1057" x="-.027" y="-.027" width="1.054" height="1.054" color-interpolation-filters="sRGB">
   <feGaussianBlur stdDeviation="0.61875"/>
  </filter>
  <linearGradient id="linearGradient1053" x1="-127" x2="-72" y1="60" y2="5" gradientTransform="translate(131.5 -.51)" gradientUnits="userSpaceOnUse">
   <stop stop-color="#dee0e2" offset="0"/>
   <stop stop-color="#f1f3f5" stop-opacity=".99608" offset="1"/>
  </linearGradient>
 </defs>
 <rect x="4.5" y="4.5" width="55" height="55" ry="15" fill="#141414" filter="url(#filter1057)" opacity=".3" stroke-linecap="round" stroke-width="2.7444"/>
 <rect x="4.5" y="4.5" width="55" height="55" ry="15" fill="url(#linearGradient1053)" stroke-linecap="round" stroke-width="2.7444"/>
 <g aria-label="N">
  <path d="m16.211 47.155v-1.1525q2.3433-0.26891 3.0348-0.76831 1.0372-0.76831 1.0372-2.9196v-21.858q-1.8055-2.1897-2.6891-2.8427-0.65306-0.46098-1.2293-0.46098v-1.1525h9.7191l15.981 19.669 0.11525-13.945q0-2.3818-0.72989-3.3421-0.92197-1.2293-3.5726-1.2293v-1.1525h9.9112v1.1525q-2.3433 0.26891-2.9964 1.0372-0.57623 0.80672-0.57623 2.6507v27.16h-1.3061l-20.514-25.008-0.07683 18.439q0 2.497 0.84514 3.419 0.88355 0.88355 3.5342 1.1525v1.1525z" fill="url(#linearGradient890)" stroke-width=".98343"/>
 </g>
 <circle cx="-1320.6" cy="-1254.4" r="0" fill="#5e4aa6"/>
 <circle cx="-221.04" cy="11.089" r="0" fill="#5e4aa6" fill-rule="evenodd"/>
</svg>
