<svg width="64" height="64" version="1.1" xmlns="http://www.w3.org/2000/svg">
 <defs>
  <filter id="filter904" x="-.061616" y="-.058467" width="1.1232" height="1.1169" color-interpolation-filters="sRGB">
   <feGaussianBlur stdDeviation="0.97558723"/>
  </filter>
  <linearGradient id="linearGradient862-3" x1="7.9373" x2="7.9373" y1="15.081" y2="1.852" gradientTransform="matrix(3.7795 0 0 3.7795 .00014324 .031541)" gradientUnits="userSpaceOnUse">
   <stop stop-color="#1a1a1a" offset="0"/>
   <stop stop-color="#4d4d4d" offset="1"/>
  </linearGradient>
 </defs>
 <g transform="scale(3.7796)" shape-rendering="auto">
  <path d="m4.3693 0.52916c-2.1142 0-3.8402 1.7835-3.8402 3.9682v8.4675c0 2.1846 1.726 3.9682 3.8402 3.9682h8.1944c2.1142 0 3.8402-1.7835 3.8402-3.9682v-8.4675c0-2.1846-1.726-3.9682-3.8402-3.9682zm0.25704 0.52089h7.6808c1.8443 0 3.3291 1.5342 3.3291 3.44v7.9368c0 1.9058-1.4847 3.44-3.3291 3.44h-7.6808c-1.8443 0-3.3291-1.5342-3.3291-3.44v-7.9368c0-1.9058 1.4847-3.44 3.3291-3.44z" color="#000000" color-rendering="auto" dominant-baseline="auto" image-rendering="auto" opacity=".01" solid-color="#000000" stop-color="#000000" style="font-feature-settings:normal;font-variant-alternates:normal;font-variant-caps:normal;font-variant-east-asian:normal;font-variant-ligatures:normal;font-variant-numeric:normal;font-variant-position:normal;font-variation-settings:normal;inline-size:0;isolation:auto;mix-blend-mode:normal;shape-margin:0;shape-padding:0;text-decoration-color:#000000;text-decoration-line:none;text-decoration-style:solid;text-indent:0;text-orientation:mixed;text-transform:none;white-space:normal"/>
  <path d="m4.3587 0.79373c-1.9668 0-3.5639 1.6528-3.5639 3.6876v8.4996c0 2.0348 1.5971 3.6876 3.5639 3.6876h8.2162c1.9668 0 3.5644-1.6528 3.5644-3.6876v-8.4996c0-2.0348-1.5976-3.6876-3.5644-3.6876zm0.27222 0.25631h7.6718c1.8422 0 3.3251 1.5342 3.3251 3.44v7.9368c0 1.9058-1.483 3.44-3.3251 3.44h-7.6718c-1.8422 0-3.3251-1.5342-3.3251-3.44v-7.9368c0-1.9058 1.483-3.44 3.3251-3.44z" color="#000000" color-rendering="auto" dominant-baseline="auto" image-rendering="auto" opacity=".01" solid-color="#000000" stop-color="#000000" style="font-feature-settings:normal;font-variant-alternates:normal;font-variant-caps:normal;font-variant-east-asian:normal;font-variant-ligatures:normal;font-variant-numeric:normal;font-variant-position:normal;font-variation-settings:normal;inline-size:0;isolation:auto;mix-blend-mode:normal;shape-margin:0;shape-padding:0;text-decoration-color:#000000;text-decoration-line:none;text-decoration-style:solid;text-indent:0;text-orientation:mixed;text-transform:none;white-space:normal"/>
  <path d="m4.3097 1.0583c-1.8657 0-3.3751 1.5383-3.3751 3.439v8.4675c0 1.9007 1.57 3.439 3.4357 3.439h8.1996c1.8657 0 3.4274-1.5383 3.4274-3.439v-8.4675c0-1.9007-1.51-3.439-3.3756-3.439h-0.09688c1.794 0.086515 3.2138 1.5819 3.2138 3.4318v7.9368c0 1.9058-1.5059 3.44-3.3766 3.44h-7.7905c-1.8707 0-3.3766-1.5342-3.3766-3.44v-7.9368c0-1.8498 1.4199-3.3451 3.2138-3.4318z" color="#000000" color-rendering="auto" dominant-baseline="auto" image-rendering="auto" opacity=".03" solid-color="#000000" stop-color="#000000" style="font-feature-settings:normal;font-variant-alternates:normal;font-variant-caps:normal;font-variant-east-asian:normal;font-variant-ligatures:normal;font-variant-numeric:normal;font-variant-position:normal;font-variation-settings:normal;inline-size:0;isolation:auto;mix-blend-mode:normal;shape-margin:0;shape-padding:0;text-decoration-color:#000000;text-decoration-line:none;text-decoration-style:solid;text-indent:0;text-orientation:mixed;text-transform:none;white-space:normal"/>
  <path transform="scale(.26458)" d="m4 46.969v2.0312c0 6.6479 5.8957 12 12.544 12h30.961c6.6479 0 12.495-5.3521 12.495-12v-1.9922c-0.02117 7.1849-5.81 12.963-13 12.963h-29.998c-7.2032 0-13.002-5.7987-13.002-13.002z" color="#000000" color-rendering="auto" dominant-baseline="auto" image-rendering="auto" opacity=".03" solid-color="#000000" stop-color="#000000" style="font-feature-settings:normal;font-variant-alternates:normal;font-variant-caps:normal;font-variant-east-asian:normal;font-variant-ligatures:normal;font-variant-numeric:normal;font-variant-position:normal;font-variation-settings:normal;inline-size:0;isolation:auto;mix-blend-mode:normal;shape-margin:0;shape-padding:0;text-decoration-color:#000000;text-decoration-line:none;text-decoration-style:solid;text-indent:0;text-orientation:mixed;text-transform:none;white-space:normal"/>
  <path d="m1.0583 11.906v0.59234c0 1.9386 1.5729 3.4993 3.3318 3.4993h8.1603c1.7589 0 3.3243-1.5608 3.3243-3.4993v-0.58095c-0.0056 2.0952-1.5372 3.7801-3.4395 3.7801h-7.9368c-1.9058 0-3.44-1.691-3.44-3.7915z" color="#000000" color-rendering="auto" dominant-baseline="auto" image-rendering="auto" opacity=".05" solid-color="#000000" stop-color="#000000" style="font-feature-settings:normal;font-variant-alternates:normal;font-variant-caps:normal;font-variant-east-asian:normal;font-variant-ligatures:normal;font-variant-numeric:normal;font-variant-position:normal;font-variation-settings:normal;inline-size:0;isolation:auto;mix-blend-mode:normal;shape-margin:0;shape-padding:0;text-decoration-color:#000000;text-decoration-line:none;text-decoration-style:solid;text-indent:0;text-orientation:mixed;text-transform:none;white-space:normal"/>
 </g>
 <rect x="4" y="4" width="56" height="56" rx="13.002" ry="13.002" fill="url(#linearGradient862-3)" stroke-width="3.7795"/>
 <path d="m26.553 10.074c-3.9348 2.0764-7.2277 5.9591-7.3223 10.581-0.07543 2.3987 0.42516 4.9277 1.5978 6.9946 4.1144 0.06995 8.351 2.4193 9.7938 6.4213 2.1135 5.2898-0.37442 12.312-5.9358 14.261-2.8527 1.0272-6.0249 0.56916-8.7816-0.53762 3.7688 2.3727 8.7871 3.2806 12.837 1.0423 2.1203-1.1232 3.9869-2.8225 5.2583-4.8358-2.001-3.607-2.0805-8.4456 0.66105-11.703 3.5137-4.4793 10.835-5.859 15.308-2.0202 2.3164 1.9544 3.5041 4.9305 3.9238 7.8696 0.16869-4.4463-1.547-9.2411-5.4996-11.632-2.0325-1.2961-4.4326-2.0065-6.8149-2.1711-2.1244 3.5371-6.2745 6.0277-10.467 5.2857-5.6327-0.79546-10.495-6.4364-9.407-12.228 0.53214-2.9843 2.5194-5.4996 4.8523-7.3292z" fill-rule="evenodd" filter="url(#filter904)" opacity=".5"/>
 <path d="m26.553 10.074c-3.9348 2.0764-7.2277 5.9591-7.3223 10.581-0.07543 2.3987 0.42516 4.9277 1.5978 6.9946 4.1144 0.06995 8.351 2.4193 9.7938 6.4213 2.1135 5.2898-0.37442 12.312-5.9358 14.261-2.8527 1.0272-6.0249 0.56916-8.7816-0.53762 3.7688 2.3727 8.7871 3.2806 12.837 1.0423 2.1203-1.1232 3.9869-2.8225 5.2583-4.8358-2.001-3.607-2.0805-8.4456 0.66105-11.703 3.5137-4.4793 10.835-5.859 15.308-2.0202 2.3164 1.9544 3.5041 4.9305 3.9238 7.8696 0.16869-4.4463-1.547-9.2411-5.4996-11.632-2.0325-1.2961-4.4326-2.0065-6.8149-2.1711-2.1244 3.5371-6.2745 6.0277-10.467 5.2857-5.6327-0.79546-10.495-6.4364-9.407-12.228 0.53214-2.9843 2.5194-5.4996 4.8523-7.3292z" fill="#f9f9f9" fill-rule="evenodd"/>
</svg>
