<?xml version="1.0" encoding="UTF-8"?>
<svg width="64" height="64" version="1.1" viewBox="0 0 64 64" xmlns="http://www.w3.org/2000/svg" xmlns:cc="http://creativecommons.org/ns#" xmlns:dc="http://purl.org/dc/elements/1.1/" xmlns:rdf="http://www.w3.org/1999/02/22-rdf-syntax-ns#" xmlns:xlink="http://www.w3.org/1999/xlink">
 <metadata>
  <rdf:RDF>
   <cc:Work rdf:about="">
    <dc:format>image/svg+xml</dc:format>
    <dc:type rdf:resource="http://purl.org/dc/dcmitype/StillImage"/>
   </cc:Work>
  </rdf:RDF>
 </metadata>
 <defs>
  <linearGradient id="b-3" x1="399.57" x2="399.57" y1="545.8" y2="517.8" gradientTransform="matrix(2.1429 0 0 2.1429 -753.93 -1107.5)" gradientUnits="userSpaceOnUse">
   <stop stop-color="#3889e9" offset="0"/>
   <stop stop-color="#5ea5fb" offset="1"/>
  </linearGradient>
  <style type="text/css"/>
  <style type="text/css"/>
  <filter id="filter1057" x="-.027" y="-.027" width="1.054" height="1.054" color-interpolation-filters="sRGB">
   <feGaussianBlur stdDeviation="0.61875"/>
  </filter>
  <linearGradient id="linearGradient1053" x1="-127" x2="-72" y1="60" y2="5" gradientTransform="translate(203.93 -.054156)" gradientUnits="userSpaceOnUse">
   <stop stop-color="#0a0a0a" offset="0"/>
   <stop stop-color="#323232" stop-opacity=".99608" offset="1"/>
  </linearGradient>
  <linearGradient id="linearGradient2011" x1="-2.0601" x2="-.34393" y1="-105.59" y2="-71.35" gradientUnits="userSpaceOnUse">
   <stop stop-color="#8e7be0" offset="0"/>
   <stop stop-color="#6a54ca" offset="1"/>
  </linearGradient>
 </defs>
 <linearGradient id="a" x1="399.57" x2="399.57" y1="545.8" y2="517.8" gradientTransform="matrix(1.9175 0 0 1.9175 -657.77 -987.8)" gradientUnits="userSpaceOnUse">
  <stop stop-color="#3889e9" offset="0"/>
  <stop stop-color="#5ea5fb" offset="1"/>
 </linearGradient>
 <circle cx="110.31" cy="31.913" r="0" fill="url(#a)" stroke-width="1.9175"/>
 <g transform="translate(-72.44)">
  <rect x="76.935" y="4.9558" width="55" height="55" ry="15" fill="#141414" filter="url(#filter1057)" opacity=".3" stroke-linecap="round" stroke-width="2.7444"/>
  <rect x="76.935" y="4.9558" width="55" height="55" ry="15" fill="url(#linearGradient1053)" stroke-linecap="round" stroke-width="2.7444"/>
  <circle cx="104.44" cy="32" r="30.001" fill-opacity="0" stroke-width="1.5715"/>
 </g>
 <g transform="matrix(3.7796 0 0 3.7796 72.439 .45588)" fill="#5e4aa6" stroke-width=".26458">
  <circle cx="-330.35" cy="-328.37" r="0" image-rendering="optimizeSpeed"/>
  <circle cx="-330.35" cy="-328.38" r="0" image-rendering="optimizeSpeed"/>
  <circle cx="-330.35" cy="-328.38" r="0" image-rendering="optimizeSpeed"/>
  <circle cx="-352.63" cy="-336.84" r="0" image-rendering="optimizeSpeed"/>
  <circle cx="-330.35" cy="-328.37" r="0" image-rendering="optimizeSpeed"/>
  <circle cx="-305.84" cy="-328.27" r="0" image-rendering="optimizeSpeed"/>
  <circle cx="-305.84" cy="-328.28" r="0" image-rendering="optimizeSpeed"/>
  <circle cx="-305.84" cy="-328.28" r="0" image-rendering="optimizeSpeed"/>
  <circle cx="-328.12" cy="-336.74" r="0" image-rendering="optimizeSpeed"/>
  <circle cx="-305.84" cy="-328.27" r="0" image-rendering="optimizeSpeed"/>
  <circle cx="-305.03" cy="-328.69" r="0"/>
 </g>
 <circle cx="104.44" cy="32" r="0" fill="url(#b-3)" stroke-width="1.5715"/>
 <circle cx="-1250.1" cy="-1241.1" r="0" fill="#5e4aa6"/>
 <circle cx="-150.58" cy="24.311" r="0" fill="#5e4aa6" fill-rule="evenodd"/>
 <g transform="translate(0 3.3487)">
  <path d="m37.253 8.5508-12.641 7.2187-5.2656 11.215 7.7637 17.953 11.289 3.8145 2.1699-4.1973 4.084-25.307z" fill="#34208c"/>
  <g transform="translate(38.743 120.1)">
   <path d="m-2.0601-105.59-10.862 8.4444 12.578 25.798 2.1702-4.1975 4.0838-25.307z" fill="url(#linearGradient2011)"/>
   <path d="m-1.4916-111.55-0.56852 5.9597 7.9702 4.7376z" fill="#af9ff4"/>
   <path d="m-1.4916-111.55-12.64 7.219 1.2095 7.1851 10.862-8.4444z" fill="#4a37a0"/>
   <path d="m-14.132-104.33-5.2649 11.215 7.7624 17.953-1.288-21.983z" fill="#34208c"/>
   <path d="m-0.34393-71.35-11.29-3.8149-1.288-21.983z" fill="#4a37a0"/>
  </g>
 </g>
</svg>
