<?xml version="1.0" encoding="UTF-8"?>
<svg width="64" height="64" version="1.1" viewBox="0 0 64 64" xmlns="http://www.w3.org/2000/svg" xmlns:cc="http://creativecommons.org/ns#" xmlns:dc="http://purl.org/dc/elements/1.1/" xmlns:rdf="http://www.w3.org/1999/02/22-rdf-syntax-ns#">
 <metadata>
  <rdf:RDF>
   <cc:Work rdf:about="">
    <dc:format>image/svg+xml</dc:format>
    <dc:type rdf:resource="http://purl.org/dc/dcmitype/StillImage"/>
    <dc:title/>
   </cc:Work>
  </rdf:RDF>
 </metadata>
 <defs>
  <linearGradient id="h-9" x1="156" x2="156" y1="80" y2="232" gradientUnits="userSpaceOnUse">
   <stop stop-color="#fff" offset="0"/>
   <stop stop-color="#fff" stop-opacity=".098039" offset=".125"/>
   <stop stop-color="#fff" stop-opacity=".098039" offset=".925"/>
   <stop stop-color="#fff" stop-opacity=".49804" offset="1"/>
  </linearGradient>
  <clipPath id="m">
   <path d="m266 205c0 25-9.7826 24.708-35 25h-158c-25.217-0.29153-35 0-35-25v-98.001c0-25 9.7826-24.708 35-25h158c25.217 0.29154 35 0 35 25z" color="#000000" fill="#808080"/>
  </clipPath>
  <filter id="k" x="-.0098948" y="-.015243" width="1.0198" height="1.0305" color-interpolation-filters="sRGB">
   <feGaussianBlur stdDeviation="0.9400002"/>
  </filter>
  <linearGradient id="g-1" x1="330" x2="333" y1="79.5" y2="79.5" gradientTransform="matrix(.42423 0 0 .61108 -105.2 -85.442)" gradientUnits="userSpaceOnUse">
   <stop stop-color="#ff4628" offset="0"/>
   <stop stop-color="#ff3c69" offset="1"/>
  </linearGradient>
  <linearGradient id="e-9" x1="330" x2="333" y1="79.5" y2="79.5" gradientTransform="matrix(.42423 0 0 .61108 -105.21 -94.775)" gradientUnits="userSpaceOnUse">
   <stop stop-color="#3287ff" offset="0"/>
   <stop stop-color="#32b4ff" offset="1"/>
  </linearGradient>
  <linearGradient id="f-2" x1="330" x2="333" y1="79.5" y2="79.5" gradientTransform="matrix(.42423 0 0 .61108 -105.2 -90.108)" gradientUnits="userSpaceOnUse">
   <stop stop-color="#ff8214" offset="0"/>
   <stop stop-color="#ffbe14" offset="1"/>
  </linearGradient>
  <style type="text/css"/>
  <style type="text/css"/>
  <style type="text/css"/>
  <style type="text/css"/>
  <style type="text/css"/>
  <style type="text/css"/>
  <style type="text/css"/>
  <style type="text/css"/>
  <style type="text/css"/>
  <style type="text/css"/>
  <style type="text/css"/>
  <filter id="filter1057-9" x="-.027" y="-.027" width="1.054" height="1.054" color-interpolation-filters="sRGB">
   <feGaussianBlur stdDeviation="0.61875"/>
  </filter>
  <linearGradient id="linearGradient1053-6" x1="-127" x2="-72" y1="60" y2="5" gradientTransform="translate(131.5 -.51)" gradientUnits="userSpaceOnUse">
   <stop stop-color="#dee0e2" offset="0"/>
   <stop stop-color="#f1f3f5" stop-opacity=".99608" offset="1"/>
  </linearGradient>
 </defs>
 <rect x="4.5" y="4.5" width="55" height="55" ry="15" fill="#141414" filter="url(#filter1057-9)" image-rendering="optimizeSpeed" opacity=".3" stroke-linecap="round" stroke-width="2.7444"/>
 <rect x="4.5" y="4.5" width="55" height="55" ry="15" fill="url(#linearGradient1053-6)" image-rendering="optimizeSpeed" stroke-linecap="round" stroke-width="2.7444"/>
 <path transform="matrix(.16666 0 0 .16666 6.6674 8.6768)" d="m272 211c0 25-9.7826 24.708-35 25h-170c-25.217-0.29153-35 0-35-25v-110c0-25 9.7826-24.708 35-25h170c25.217 0.29154 35 0 35 25z" clip-path="url(#m)" color="#000000" fill="#fff" fill-opacity=".78431" filter="url(#k)" stroke="url(#h-9)" stroke-width="4"/>
 <g stroke-width="2.5196">
  <path d="m52 43.843c0 4.1664-1.6304 4.1178-5.8331 4.1664h-28.333c-4.2027-0.04858-5.8331 0-5.8331-4.1664v-18.333c0-4.1664 1.6304-4.1178 5.8331-4.1664h28.333c4.2027 0.04859 5.8331 0 5.8331 4.1664z" color="#000000" fill="#f3f4f5"/>
  <path d="m12 38.008-1.63e-4 5.8334c-1.16e-4 4.1664 1.6304 4.1178 5.8331 4.1664h28.33c4.2027-0.04858 5.8331 0 5.8331-4.1664l1.64e-4 -5.8334z" color="#000000" fill="#fff"/>
  <path d="m18.667 22.676h26.665c0.73862 0 1.3333 0.27874 1.3333 0.62496v0.70828h-29.331v-0.70828c0-0.34624 0.59462-0.62496 1.3333-0.62496z" enable-background="new" opacity=".3"/>
  <path d="m16 40.008h31.999v4.6663c0 0.73862-0.59462 1.3333-1.3333 1.3333h-29.331c-0.73862 0-1.3333-0.59463-1.3333-1.3333v-3.3332z" enable-background="new" opacity=".3"/>
  <rect x="12" y="37.675" width="39.999" height=".33332" enable-background="new" fill="#fff" opacity=".15"/>
  <path d="m24.713 15.99c-5.201 0-5.7603 0.60488-5.7346 6.5061v1.5133h25.932v-1.5133c0-5.9014-0.53385-6.5061-5.7346-6.5061z" color="#000000" fill="#fff"/>
  <rect transform="rotate(90)" x="34.675" y="-38.001" width="1.3333" height="1.9999" rx=".66664" ry=".99996" enable-background="new" fill="url(#g-1)"/>
  <rect transform="rotate(90)" x="34.659" y="-47.333" width="1.3333" height="1.9999" rx=".66664" ry=".99996" enable-background="new" fill="url(#e-9)"/>
  <rect transform="rotate(90)" x="34.675" y="-42.667" width="1.3333" height="1.9999" rx=".66664" ry=".99996" enable-background="new" fill="url(#f-2)"/>
  <path d="m16 40.008h31.999v4.6663c0 0.73862-0.59462 1.3333-1.3333 1.3333h-29.331c-0.73862 0-1.3333-0.59463-1.3333-1.3333v-3.3332z" enable-background="new" fill="#414141"/>
 </g>
 <rect x="19.001" y="40.008" width="26" height="1.3842" enable-background="new" fill="#a3a3a3" stroke-width="5.1345"/>
</svg>
