<?xml version="1.0" encoding="UTF-8"?>
<svg width="64" height="64" version="1.1" xmlns="http://www.w3.org/2000/svg" xmlns:xlink="http://www.w3.org/1999/xlink">
 <defs>
  <filter id="filter1057-3" x="-.027" y="-.027" width="1.054" height="1.054" color-interpolation-filters="sRGB">
   <feGaussianBlur stdDeviation="0.61875"/>
  </filter>
  <linearGradient id="linearGradient980" x1="-17.007" x2="-2.455" y1="15.742" y2="1.1906" gradientTransform="matrix(3.7796 0 0 3.7796 109.17 11.928)" gradientUnits="userSpaceOnUse">
   <stop stop-color="#1b1b1b" offset="0"/>
   <stop stop-color="#4c4c4c" offset="1"/>
  </linearGradient>
 </defs>
 <g transform="translate(-40.391 -11.928)">
  <rect x="44.891" y="16.428" width="55" height="55" ry="15" fill="#141414" filter="url(#filter1057-3)" image-rendering="optimizeSpeed" opacity=".3" stroke-linecap="round" stroke-width="2.7444"/>
  <rect x="44.891" y="16.428" width="55" height="55" ry="14.895" fill="url(#linearGradient980)" image-rendering="optimizeSpeed"/>
  <path d="m59.283 16.433v23.996l4.0018-4.0018 3.9981 3.9981v-23.996z" fill="#c83737" stroke-width="3.7796"/>
  <path d="m99.262 27.039c-1.0341 0.41613-2.0675 0.92905-3.1016 1.5723-2.1071 1.3107-4.103 2.9608-5.9883 4.9512-1.8298 1.9417-3.4929 4.1513-4.9902 6.627-1.4417 2.4271-2.5233 4.9507-3.2441 7.5723-0.77629 2.6213-1.1089 5.0248-0.99805 7.209 0.16635 2.1359 0.69293 3.9324 1.5801 5.3887 0.88722 1.4563 2.1056 2.4998 3.6582 3.1309 1.5526 0.63104 3.3834 0.7516 5.4902 0.36328 2.0516-0.38835 4.1312-1.2362 6.2383-2.5469 0.50907-0.31997 1.0033-0.6661 1.4922-1.0215 0.31004-1.2004 0.49219-2.452 0.49219-3.752v-1.1797c-0.40488 0.27544-0.81542 0.5387-1.2344 0.7832-1.6635 0.9223-3.2738 1.4559-4.8262 1.6016-1.608 0.14563-2.9634-0.09751-4.0723-0.72852-1.109-0.63104-1.9701-1.5777-2.5801-2.8398-0.55447-1.2621-0.83203-2.7662-0.83203-4.5137 0-1.7961 0.33265-3.7387 0.99805-5.8262 0.6654-2.0873 1.6083-4.0775 2.8281-5.9707 1.2199-1.9417 2.5505-3.6415 3.9922-5.0977 1.4971-1.5048 3.0501-2.7183 4.6582-3.6406 0.27584-0.16101 0.54994-0.29573 0.82422-0.43164-0.09954-0.56131-0.22461-1.1131-0.38476-1.6504z" fill="#1c95f5" stroke-width="3.7796"/>
 </g>
</svg>
