<?xml version="1.0" encoding="UTF-8"?>
<svg width="64" height="64" version="1.1" viewBox="0 0 64 64" xmlns="http://www.w3.org/2000/svg" xmlns:cc="http://creativecommons.org/ns#" xmlns:dc="http://purl.org/dc/elements/1.1/" xmlns:rdf="http://www.w3.org/1999/02/22-rdf-syntax-ns#" xmlns:xlink="http://www.w3.org/1999/xlink">
 <metadata>
  <rdf:RDF>
   <cc:Work rdf:about="">
    <dc:format>image/svg+xml</dc:format>
    <dc:type rdf:resource="http://purl.org/dc/dcmitype/StillImage"/>
    <dc:title/>
   </cc:Work>
  </rdf:RDF>
 </metadata>
 <defs>
  <style type="text/css"/>
  <style type="text/css"/>
  <style type="text/css"/>
  <filter id="filter1057" x="-.027" y="-.027" width="1.054" height="1.054" color-interpolation-filters="sRGB">
   <feGaussianBlur stdDeviation="0.61875"/>
  </filter>
  <linearGradient id="linearGradient1053" x1="-127" x2="-72" y1="60" y2="5" gradientTransform="translate(131.5 -.51)" gradientUnits="userSpaceOnUse">
   <stop stop-color="#393a6b" offset="0"/>
   <stop stop-color="#464783" offset="1"/>
  </linearGradient>
  <style type="text/css"/>
  <style type="text/css"/>
  <style type="text/css"/>
 </defs>
 <g fill="#5e4aa6">
  <circle cx="-1248.7" cy="-1241.6" r="0"/>
  <circle cx="-149.15" cy="23.855" r="0" fill-rule="evenodd"/>
  <circle cx="-1248.7" cy="-1241.6" r="0"/>
  <circle cx="-149.15" cy="23.855" r="0" fill-rule="evenodd"/>
  <circle cx="-1150.9" cy="-1256.6" r="0"/>
  <circle cx="-51.327" cy="8.8744" r="0" fill-rule="evenodd"/>
  <g transform="matrix(3.7796,0,0,3.7796,167.86,4.61)" stroke-width=".26458">
   <g transform="translate(-.0272 .0065001)">
    <circle cx="-330.35" cy="-328.38" r="0"/>
    <circle cx="-312.11" cy="-326.25" r="0"/>
    <circle cx="-306.02" cy="-333.07" r="0"/>
    <circle cx="-308.84" cy="-326.01" r="0"/>
    <circle cx="-330.35" cy="-328.38" r="0"/>
    <circle cx="-312.11" cy="-326.25" r="0"/>
    <circle cx="-306.02" cy="-333.07" r="0"/>
    <circle cx="-308.84" cy="-326.01" r="0"/>
   </g>
   <g transform="translate(-.02705 .0064503)">
    <circle cx="-330.35" cy="-328.38" r="0"/>
    <circle cx="-312.11" cy="-326.25" r="0"/>
    <circle cx="-306.02" cy="-333.07" r="0"/>
    <circle cx="-308.84" cy="-326.01" r="0"/>
   </g>
  </g>
 </g>
 <rect x="4.5" y="4.5" width="55" height="55" ry="15" fill="#141414" filter="url(#filter1057)" opacity=".3" stroke-linecap="round" stroke-width="2.7444"/>
 <rect x="4.5" y="4.5" width="55" height="55" ry="15" fill="url(#linearGradient1053)" stroke-linecap="round" stroke-width="2.7444"/>
 <path d="m43.627 17.318c-2.4677 0-4.4683 2.0011-4.4668 4.4688 5.1e-4 0.83631 0.23913 1.6548 0.68359 2.3633l-0.82812 0.82812h-10.852l-4.127 4.127c-0.46677-0.19527-0.96669-0.29676-1.4727-0.29688-2.1152-4.72e-4 -3.8301 1.715-3.8301 3.8301 0 2.1151 1.7149 3.8301 3.8301 3.8301s3.8307-1.715 3.8301-3.8301c-1.73e-4 -0.63475-0.16087-1.2601-0.46289-1.8184l3.2891-3.2891h10.852l1.6914-1.6895c0.58457 0.2708 1.2191 0.41367 1.8633 0.41406 2.4677 0.0013 4.4688-2.0011 4.4688-4.4688 0-2.4677-2.0011-4.4688-4.4688-4.4688zm-21.701 1.2773c-1.0576 0-1.9141 0.85649-1.9141 1.9141s0.85649 1.916 1.9141 1.916c1.0576 0 1.9141-0.85844 1.9141-1.916s-0.85649-1.9141-1.9141-1.9141zm6.3828 0c-1.0576 0-1.9141 0.85649-1.9141 1.9141s0.8565 1.916 1.9141 1.916c1.0576 0 1.9141-0.85844 1.9141-1.916s-0.85649-1.9141-1.9141-1.9141zm6.3828 0c-1.0576 0-1.9141 0.85649-1.9141 1.9141s0.85649 1.916 1.9141 1.916c1.0576 0 1.916-0.85844 1.916-1.916s-0.85845-1.9141-1.916-1.9141zm8.9355 1.2773c1.0576 0 1.916 0.85649 1.916 1.9141 0 1.0576-0.85845 1.9141-1.916 1.9141s-1.9141-0.85649-1.9141-1.9141c0-1.0576 0.85649-1.9141 1.9141-1.9141zm0.63867 10.213c-1.621 9.83e-4 -3.0652 1.0244-3.6055 2.5527h-10.564l-8.1367 7.748c-0.2186-0.05949-0.44532-0.087891-0.67188-0.087891-1.4101-2.5e-5 -2.5527 1.1426-2.5527 2.5527s1.1426 2.5527 2.5527 2.5527c1.4101 0 2.5539-1.1426 2.5527-2.5527-1.85e-4 -0.21811-0.029388-0.43583-0.085938-0.64648l7.3613-7.0137h9.543c0.54065 1.5292 1.9854 2.5522 3.6074 2.5527 2.1152 6.89e-4 3.8301-1.715 3.8301-3.8301s-1.7149-3.8294-3.8301-3.8281zm-10.852 7.6582c-1.7626 0-3.1914 1.4288-3.1914 3.1914s1.4288 3.1922 3.1914 3.1914c0.62531-2.68e-4 1.2385-0.18584 1.7598-0.53125l1.8066 1.8086h22.473c0.017839-0.30094 0.046875-0.59873 0.046875-0.9043v-0.37305h-21.992l-1.4336-1.4336c0.34541-0.52126 0.53098-1.1324 0.53125-1.7578 7.39e-4 -1.7626-1.4288-3.1914-3.1914-3.1914zm0 1.2773c1.0576 0 1.916 0.85649 1.916 1.9141s-0.85845 1.916-1.916 1.916c-1.0576 0-1.9141-0.85844-1.9141-1.916s0.85649-1.9141 1.9141-1.9141zm-12.127 2.5527c0.70504 0 1.2773 0.57231 1.2773 1.2773 0 0.70504-0.57231 1.2754-1.2773 1.2754s-1.2754-0.57035-1.2754-1.2754c0-0.70504 0.57035-1.2773 1.2754-1.2773z" fill="#f9f9f9" stroke-width="1.2766" style="paint-order:normal"/>
</svg>
