<?xml version="1.0" encoding="UTF-8"?>
<svg width="64" height="64" version="1.1" xmlns="http://www.w3.org/2000/svg" xmlns:xlink="http://www.w3.org/1999/xlink">
 <defs>
  <filter id="filter2076" x="-.048" y="-.048" width="1.096" height="1.096" color-interpolation-filters="sRGB">
   <feGaussianBlur stdDeviation="1.1"/>
  </filter>
  <linearGradient id="linearGradient1021" x1="-72.168" x2="-17.552" y1="59.492" y2="4.8762" gradientTransform="translate(119.64 15.219)" gradientUnits="userSpaceOnUse">
   <stop stop-color="#ff7832" offset="0"/>
   <stop stop-color="#ffbe37" offset=".50754"/>
   <stop stop-color="#ffdc32" offset="1"/>
  </linearGradient>
  <filter id="filter2747" x="-.26525" y="-.11892" width="1.5305" height="1.2378" color-interpolation-filters="sRGB">
   <feGaussianBlur stdDeviation="0.16528108"/>
  </filter>
  <linearGradient id="linearGradient2727-0" x1="-82.91" x2="-82.91" y1="280.31" y2="283.98" gradientTransform="matrix(5.5677 0 0 5.5677 523.34 -1524.3)" gradientUnits="userSpaceOnUse">
   <stop stop-color="#faf0c8" offset="0"/>
   <stop stop-color="#ffc85a" offset="1"/>
  </linearGradient>
  <linearGradient id="linearGradient2735-6" x1="-76.928" x2="-83.608" y1="278.35" y2="285.69" gradientTransform="matrix(5.5677 0 0 5.5677 523.34 -1524.3)" gradientUnits="userSpaceOnUse">
   <stop stop-color="#fafadc" offset="0"/>
   <stop stop-color="#faf0a0" offset="1"/>
  </linearGradient>
 </defs>
 <g transform="translate(-43.188 -15.219)">
  <rect x="47.688" y="19.719" width="55" height="55" rx="13.002" ry="13.002" filter="url(#filter2076)" opacity=".3"/>
  <path d="m60.69 19.719c-7.2031 0-13.002 5.7988-13.002 13.002v28.996c0 7.2031 5.7988 13.002 13.002 13.002h28.996c7.2031 0 13.002-5.7988 13.002-13.002v-28.996c0-7.2031-5.7988-13.002-13.002-13.002z" fill="url(#linearGradient1021)" stroke-linecap="round" stroke-width="4.648"/>
  <g fill-rule="evenodd">
   <path transform="matrix(5.5677 0 0 5.5677 445.08 -1526.7)" d="m-68.837 281.7a0.74769 0.74769 0 0 0-0.74776 0.74673 0.74769 0.74769 0 0 0 0 5.1e-4v2.5885h1.4955v-2.5885a0.74769 0.74769 0 0 0 0-5.1e-4 0.74769 0.74769 0 0 0-0.74776-0.74673z" fill="#fa7846" filter="url(#filter2747)"/>
   <path transform="matrix(5.5677 0 0 5.5677 445.08 -1526.7)" d="m-68.604 279.23a0.73279 0.73279 0 0 0-0.65216 0.36639 0.73279 0.73279 0 0 0 0.2682 1.0004 0.73279 0.73279 0 0 0 5.18e-4 5.2e-4v5.2e-4l0.74259 0.42839 2.9755 1.7441s-1.7859 1.0253-2.9352 1.7033c-1.1493 0.67799-1.3808-0.50436-1.3808-0.50436v1.1327c0.1819 1.356 1.48 1.0335 1.6702 0.96739 0.1902-0.0661 4.1119-2.4102 4.1119-2.4102 0.66019-0.40426 0.70708-1.2998 0.05271-1.7715-0.10894-0.0934-3.2659-1.8506-3.6587-2.0691l0.0015-2e-3 -0.84646-0.48886-5.16e-4 5.2e-4a0.73279 0.73279 0 0 0-5.19e-4 0 0.73279 0.73279 0 0 0-0.34882-0.0982z" fill="#fa7846" filter="url(#filter2747)"/>
   <path d="m61.814 41.74a4.1629 4.1629 0 0 0-4.1633 4.1576 4.1629 4.1629 0 0 0 0 0.0028v14.412h8.3265v-14.412a4.1629 4.1629 0 0 0 0-0.0028 4.1629 4.1629 0 0 0-4.1633-4.1576z" fill="url(#linearGradient2727-0)" stroke-width="5.5677"/>
   <path d="m63.111 27.987a4.08 4.08 0 0 0-3.631 2.04 4.08 4.08 0 0 0 1.4933 5.5699 4.08 4.08 0 0 0 0.0029 0.0029v0.0029l4.1345 2.3851 16.567 9.7106s-9.9434 5.7086-16.342 9.4835c-6.399 3.7748-7.6879-2.8081-7.6879-2.8081v6.3065c1.0128 7.5498 8.2402 5.7542 9.2992 5.3861 1.059-0.36801 22.894-13.419 22.894-13.419 3.6757-2.2508 3.9368-7.2369 0.29348-9.8632-0.60655-0.52002-18.184-10.304-20.371-11.52l0.0084-0.01096-4.7128-2.7218-0.0029 0.0029a4.08 4.08 0 0 0-0.0029 0 4.08 4.08 0 0 0-1.9421-0.54675z" fill="url(#linearGradient2735-6)" stroke-width="5.5677"/>
  </g>
 </g>
</svg>
