<?xml version="1.0" encoding="UTF-8"?>
<svg width="64" height="64" version="1" xmlns="http://www.w3.org/2000/svg">
 <defs>
  <filter id="filter1057" x="-.027" y="-.027" width="1.054" height="1.054" color-interpolation-filters="sRGB">
   <feGaussianBlur stdDeviation="0.61875"/>
  </filter>
  <linearGradient id="linearGradient1053" x1="-127" x2="-72" y1="60" y2="5" gradientTransform="translate(131.5 -.51)" gradientUnits="userSpaceOnUse">
   <stop stop-color="#df2a2a" offset="0"/>
   <stop stop-color="#f83f3f" offset="1"/>
  </linearGradient>
 </defs>
 <rect x="4.5" y="4.5" width="55" height="55" ry="15" fill="#141414" filter="url(#filter1057)" opacity=".3" stroke-linecap="round" stroke-width="2.7444"/>
 <rect x="4.5" y="4.5" width="55" height="55" ry="15" fill="url(#linearGradient1053)" stroke-linecap="round" stroke-width="2.7444"/>
 <path d="m37.486 14.014c-2.1721 0.10496-4.008 0.71539-5.8145 1.9316-0.76829 0.51719-1.9247 1.4734-2.4355 2.125-0.25665 0.32797-0.2579 0.32784-0.65234 0.22656-0.22267-0.0562-1.0442-0.099786-1.8887-0.097656-1.3237 0.0028-1.5947 0.029863-2.3477 0.23242-4.253 1.1428-7.2055 4.8421-7.4395 9.1699l-0.050781 0.98633-0.33789 0.10156c-1.2103 0.36506-2.722 1.3185-3.7852 2.3887-1.268 1.2763-2.1232 2.7884-2.6055 4.6016-0.20403 0.76703-0.22852 1.018-0.22852 2.4062 0 1.3883 0.024488 1.6391 0.22852 2.4062 1.0492 3.9443 4.2276 6.8475 8.127 7.4199v-0.003906c0.28633 0.04219 6.3001 0.080521 13.367 0.087891 13.768 0.01105 13.568 0.016892 15.182-0.43164 1.5243-0.42348 3.611-1.6695 4.8047-2.8711 1.2493-1.2575 2.4543-3.3416 2.8887-4.9922 1.0649-4.0467-0.013143-8.1014-2.9277-11.012-0.51499-0.51424-1.2578-1.148-1.6504-1.4082l-0.71484-0.47266 0.044922-0.99609c0.08407-1.9176-0.28112-3.6789-1.1191-5.4043-1.1655-2.3996-2.8563-4.1004-5.2402-5.2734-1.7328-0.85235-3.4747-1.2134-5.4043-1.1211zm0.14258 2.9961h0.001953c1.4701-0.07001 2.6177 0.16815 3.9355 0.81641 1.8574 0.91397 2.9566 2.0176 3.8672 3.8926 0.63673 1.311 0.88232 2.5021 0.81836 3.9609l-0.042969 0.99609a3.0003 3.0003 0 0 0 1.3398 2.6328l0.71289 0.47266c-0.02466-0.01635 0.82317 0.66551 1.1895 1.0312 2.1904 2.1872 2.9591 5.0372 2.1465 8.125-0.24483 0.93025-1.3554 2.8739-2.1172 3.6406-0.69364 0.69822-2.7376 1.8899-3.4785 2.0957-0.83445 0.2319-0.5508 0.23108-2.3164 0.28125s-5.1759 0.046536-12.061 0.041016c-3.5289-0.0037-6.7945-0.01536-9.209-0.03125-1.2072-0.0079-2.2024-0.015861-2.9043-0.025391-0.35093-0.0048-0.62926-0.009102-0.81445-0.013672-0.02701-6.72e-4 -0.059973-0.006665-0.095704-0.009765-2.6472-0.42698-4.8269-2.3838-5.5742-5.1934-0.1771-0.6659-0.12695-0.28293-0.12695-1.6367 0-1.3538-0.05012-0.97106 0.12695-1.6367 0.36207-1.3612 0.92692-2.3428 1.8359-3.2578 0.68859-0.69315 2.0315-1.4811 2.5215-1.6289a3.0003 3.0003 0 0 0 0.003906-0.001953l0.33789-0.10156a3.0003 3.0003 0 0 0 2.127-2.7129l0.050781-0.98242v-0.001953c0.16633-3.0613 2.1995-5.6198 5.2207-6.4316a3.0003 3.0003 0 0 0 0.001953 0c0.64282-0.17294 0.29053-0.12814 1.5742-0.13086a3.0003 3.0003 0 0 0 0.001953 0c0.36916-9.31e-4 0.74298 0.009397 1.0156 0.023437 0.10258 0.00528 0.19457 0.021385 0.26953 0.033203 0.27935 0.10602 0.85518 0.30576 1.9609-0.080078 1.3133-0.45825 1.5185-1.0907 1.6465-1.2559l0.001953-0.001953c0.03521-0.04386 1.2449-1.1444 1.75-1.4844 1.4102-0.94949 2.5887-1.3418 4.2812-1.4238zm-2.5527 7.9902v3h-11.076v3h11.076v3l6.9238-4.2832-6.9238-4.7168zm-4.1523 9-6.9238 4.7168 6.9238 4.2832v-3h11.076v-3h-11.076v-3z" fill="#fff"/>
 <path d="m18.628 45.1c0.0288 0.0042-0.0026 2.93e-4 0.03296 0.0055a2.8127 2.8336 0 0 0-0.01097 0c-0.0076-0.0011-0.01443-0.0043-0.02198-0.0055z" fill="#fff"/>
</svg>
