<?xml version="1.0" encoding="UTF-8" standalone="no"?>
<svg
   xmlns:dc="http://purl.org/dc/elements/1.1/"
   xmlns:cc="http://creativecommons.org/ns#"
   xmlns:rdf="http://www.w3.org/1999/02/22-rdf-syntax-ns#"
   xmlns:svg="http://www.w3.org/2000/svg"
   xmlns="http://www.w3.org/2000/svg"
   xmlns:xlink="http://www.w3.org/1999/xlink"
   xmlns:sodipodi="http://sodipodi.sourceforge.net/DTD/sodipodi-0.dtd"
   xmlns:inkscape="http://www.inkscape.org/namespaces/inkscape"
   id="Apps-Opera"
   width="64"
   height="64"
   enable-background="new 0 0 1024 1024"
   image-rendering="optimizeSpeed"
   version="1.1"
   viewBox="0 0 64 64"
   sodipodi:docname="opera-beta.svg"
   inkscape:version="1.0.2 (e86c870879, 2021-01-15)">
  <sodipodi:namedview
     pagecolor="#ffffff"
     bordercolor="#666666"
     borderopacity="1"
     objecttolerance="10"
     gridtolerance="10"
     guidetolerance="10"
     inkscape:pageopacity="0"
     inkscape:pageshadow="2"
     inkscape:window-width="1920"
     inkscape:window-height="935"
     id="namedview68"
     showgrid="false"
     inkscape:zoom="6.0546875"
     inkscape:cx="30.104791"
     inkscape:cy="32.754095"
     inkscape:window-x="0"
     inkscape:window-y="38"
     inkscape:window-maximized="1"
     inkscape:current-layer="Apps-Opera" />
  <metadata
     id="metadata2">
    <rdf:RDF>
      <cc:Work
         rdf:about="">
        <dc:format>image/svg+xml</dc:format>
        <dc:type
           rdf:resource="http://purl.org/dc/dcmitype/StillImage" />
        <dc:title></dc:title>
      </cc:Work>
    </rdf:RDF>
  </metadata>
  <defs
     id="defs21">
    <filter
       id="filter2761-3"
       x="-.024"
       y="-.024"
       width="1.048"
       height="1.048"
       color-interpolation-filters="sRGB">
      <feGaussianBlur
         stdDeviation="0.14552168"
         id="feGaussianBlur4" />
    </filter>
    <style
       type="text/css"
       id="style7" />
    <linearGradient
       id="linearGradient4673"
       x1="1.2573"
       x2="15.644"
       y1="15.429"
       y2="1.1082"
       gradientTransform="matrix(3.7796,0,0,3.7796,-3.7243027,-14.407872)"
       gradientUnits="userSpaceOnUse">
      <stop
         stop-color="#32dcff"
         offset="0"
         id="stop9" />
      <stop
         stop-color="#3296ff"
         offset="1"
         id="stop11" />
    </linearGradient>
    <linearGradient
       id="e"
       x1="74.643"
       x2="83.932"
       y1="18.269"
       y2="101.96"
       gradientUnits="userSpaceOnUse"
       xlink:href="#a-5" />
    <linearGradient
       id="a-5">
      <stop
         stop-color="#ccc"
         offset="0"
         id="stop15" />
      <stop
         stop-color="#fff"
         offset="1"
         id="stop17" />
    </linearGradient>
    <linearGradient
       id="d-3"
       x1="40.533"
       x2="37.578"
       y1="107.5"
       y2="15.159"
       gradientUnits="userSpaceOnUse"
       xlink:href="#a-5" />
    <filter
       id="filter2761"
       x="-.024"
       y="-.024"
       width="1.048"
       height="1.048"
       color-interpolation-filters="sRGB">
      <feGaussianBlur
         stdDeviation="0.14552168"
         id="feGaussianBlur2" />
    </filter>
    <linearGradient
       id="linearGradient1024"
       x1="1.3315"
       x2="15.65"
       y1="15.576"
       y2="1.17"
       gradientUnits="userSpaceOnUse"
       gradientTransform="translate(0.7523229,-6.0494795)">
      <stop
         stop-color="#00c8ff"
         offset="0"
         id="stop5" />
      <stop
         stop-color="#14a0ff"
         offset="1"
         id="stop7" />
    </linearGradient>
    <filter
       id="filter914"
       x="-.085107"
       y="-.082922"
       width="1.1702"
       height="1.1658"
       color-interpolation-filters="sRGB">
      <feGaussianBlur
         stdDeviation="0.33551342"
         id="feGaussianBlur10" />
    </filter>
    <style
       type="text/css"
       id="style862" />
    <filter
       id="filter1057"
       x="-.027"
       y="-.027"
       width="1.054"
       height="1.054"
       color-interpolation-filters="sRGB">
      <feGaussianBlur
         stdDeviation="0.61875"
         id="feGaussianBlur864" />
    </filter>
    <linearGradient
       id="linearGradient1053"
       x1="-127"
       x2="-72"
       y1="60"
       y2="5"
       gradientTransform="translate(131.5,-0.51000031)"
       gradientUnits="userSpaceOnUse">
      <stop
         stop-color="#32d7ff"
         offset="0"
         id="stop867" />
      <stop
         stop-color="#329bff"
         offset="1"
         id="stop869" />
    </linearGradient>
    <style
       type="text/css"
       id="style872" />
    <style
       type="text/css"
       id="style874" />
    <style
       type="text/css"
       id="style876" />
    <style
       type="text/css"
       id="style878" />
    <style
       type="text/css"
       id="style880" />
    <style
       type="text/css"
       id="style882" />
    <style
       type="text/css"
       id="style884" />
  </defs>
  <rect
     x="4.4999995"
     y="4.4999995"
     width="55"
     height="55"
     ry="15"
     fill="#141414"
     filter="url(#filter1057)"
     opacity="0.3"
     stroke-linecap="round"
     stroke-width="2.7444"
     id="rect900" />
  <rect
     x="4.5"
     y="4.5"
     width="55"
     height="55"
     ry="15"
     fill="url(#linearGradient1053)"
     stroke-linecap="round"
     stroke-width="2.7444"
     id="rect902"
     style="fill:url(#linearGradient1053)" />
  <g
     fill="#5e4aa6"
     id="g59">
    <g
       transform="matrix(3.7796 0 0 3.7796 2.9037 -9.3546)"
       stroke-width=".26458"
       id="g35">
      <circle
         cx="-330.35"
         cy="-328.38"
         r="0"
         id="circle27" />
      <circle
         cx="-312.11"
         cy="-326.25"
         r="0"
         id="circle29" />
      <circle
         cx="-306.02"
         cy="-333.07"
         r="0"
         id="circle31" />
      <circle
         cx="-308.84"
         cy="-326.01"
         r="0"
         id="circle33" />
    </g>
    <g
       transform="matrix(3.7796 0 0 3.7796 2.9037 -9.3546)"
       stroke-width=".26458"
       id="g45">
      <circle
         cx="-330.35"
         cy="-328.38"
         r="0"
         id="circle37" />
      <circle
         cx="-312.11"
         cy="-326.25"
         r="0"
         id="circle39" />
      <circle
         cx="-306.02"
         cy="-333.07"
         r="0"
         id="circle41" />
      <circle
         cx="-308.84"
         cy="-326.01"
         r="0"
         id="circle43" />
    </g>
    <circle
       cx="-1248.1"
       cy="-1311"
       r="0"
       id="circle47" />
    <g
       transform="matrix(3.7796 0 0 3.7796 .51016 -69.88)"
       stroke-width=".26458"
       id="g57">
      <circle
         cx="-299.02"
         cy="-338.77"
         r="0"
         id="circle49" />
      <circle
         cx="-8.1062"
         cy="-3.9487"
         r="0"
         fill-rule="evenodd"
         id="circle51" />
      <circle
         cx="-278.25"
         cy="-357.69"
         r="0"
         id="circle53" />
      <circle
         cx="12.663"
         cy="-22.859"
         r="0"
         fill-rule="evenodd"
         id="circle55" />
    </g>
  </g>
  <g
     transform="matrix(.43781 0 0 .43781 5.752 5.7313)"
     id="g65">
    <path
       d="m42.84 31.571c4.6462-5.4828 10.653-8.7986 17.204-8.7986 14.745 0 26.698 16.72 26.698 37.331 0 20.621-11.953 37.331-26.698 37.331-6.5612 0-12.558-3.3058-17.204-8.7885 7.2667 9.4336 18.061 15.42 30.125 15.42 7.4178 0 14.362-2.2677 20.298-6.1983 10.371-9.2723 16.892-22.747 16.892-37.754 0-14.997-6.5209-28.482-16.892-37.754-5.9363-3.9407-12.88-6.1983-20.298-6.1983-12.064 0-22.858 5.9867-30.125 15.42"
       fill="url(#e)"
       id="path61" />
    <path
       d="m60 9.75c-27.75 0-50.25 22.5-50.25 50.25 0 26.95 21.22 48.94 47.86 50.19 0.8 0.04 1.59 0.06 2.39 0.06 12.87 0 24.6-4.84 33.49-12.79-5.89 3.91-12.78 6.15-20.14 6.15-11.97 0-22.68-5.94-29.89-15.3-5.56-6.56-9.15-16.25-9.4-27.13v-2.37c0.25-10.88 3.84-20.58 9.4-27.13 7.21-9.36 17.93-15.3 29.89-15.3 7.36 0 14.25 2.25 20.14 6.16-8.84-7.91-20.51-12.74-33.3-12.79h-0.19z"
       fill="url(#d-3)"
       id="path63" />
  </g>
  <circle
     cx="-1119.7786"
     cy="-1279.3"
     r="0"
     fill="#5e4aa6"
     id="circle888"
     style="stroke-width:1" />
  <circle
     cx="-1001.3251"
     cy="-1318.5997"
     r="0"
     id="circle890"
     style="fill:#5e4aa6;stroke-width:1.00001" />
  <circle
     cx="98.213226"
     cy="-53.108513"
     r="0"
     fill-rule="evenodd"
     id="circle892"
     style="fill:#5e4aa6;stroke-width:1.00001" />
  <circle
     cx="-922.82275"
     cy="-1390.1099"
     r="0"
     id="circle894"
     style="fill:#5e4aa6;stroke-width:1.00001" />
  <circle
     cx="176.71254"
     cy="-124.58192"
     r="0"
     fill-rule="evenodd"
     id="circle896"
     style="fill:#5e4aa6;stroke-width:1.00001" />
</svg>
