<?xml version="1.0" encoding="UTF-8"?>
<svg width="64" height="64" version="1.1" xmlns="http://www.w3.org/2000/svg" xmlns:cc="http://creativecommons.org/ns#" xmlns:dc="http://purl.org/dc/elements/1.1/" xmlns:rdf="http://www.w3.org/1999/02/22-rdf-syntax-ns#" xmlns:xlink="http://www.w3.org/1999/xlink">
 <metadata>
  <rdf:RDF>
   <cc:Work rdf:about="">
    <dc:format>image/svg+xml</dc:format>
    <dc:type rdf:resource="http://purl.org/dc/dcmitype/StillImage"/>
   </cc:Work>
  </rdf:RDF>
 </metadata>
 <defs>
  <linearGradient id="linearGradient1138" x1="399.57" x2="399.57" y1="545.8" y2="517.8" gradientTransform="matrix(2.1429,0,0,2.1429,-826.36,-1107.5)" gradientUnits="userSpaceOnUse">
   <stop stop-color="#3889e9" offset="0"/>
   <stop stop-color="#5ea5fb" offset="1"/>
  </linearGradient>
  <filter id="filter1057" x="-.027" y="-.027" width="1.054" height="1.054" color-interpolation-filters="sRGB">
   <feGaussianBlur stdDeviation="0.61875"/>
  </filter>
  <linearGradient id="linearGradient1053" x1="-127" x2="-72" y1="60" y2="5" gradientTransform="translate(131.5 -.51)" gradientUnits="userSpaceOnUse">
   <stop stop-color="#ff8021" offset="0"/>
   <stop stop-color="#ffa53c" offset="1"/>
  </linearGradient>
 </defs>
 <g stroke-linecap="round">
  <rect x="4.5" y="4.5" width="55" height="55" ry="15" fill="#141414" filter="url(#filter1057)" opacity=".3" stroke-width="2.7444"/>
  <rect x="4.5" y="4.5" width="55" height="55" ry="15" fill="url(#linearGradient1053)" stroke-width="2.7444"/>
  <rect width="64" height="64" rx="0" ry="0" fill="none" stroke-linejoin="round" stroke-width="1.4464" style="paint-order:stroke fill markers"/>
 </g>
 <circle cx="32.02" cy="32.044" r="30.001" fill-opacity="0" stroke-width="1.5715"/>
 <circle cx="32.02" cy="32.044" r="0" fill="url(#linearGradient1138)" stroke-width="1.5715"/>
 <path d="m29.431 13.25c-0.6294 0-1.1394 0.48352-1.1394 1.0834v4.3356c0 2.4617-2.1486 5.8986-4.2235 9.1528-2.1942 3.4368-6.5774 6.992-7.0049 10.296-0.05209 0.40327-0.06728 0.79651-0.06296 1.1837 13.684 0.45543 25.805-7.2107 25.936-7.295l1.0418-0.67011c-0.68583-1.1757-2.3957-2.4567-3.5336-3.74-2.7503-3.1015-4.6101-6.5098-4.6101-8.9279v-4.3356c0-0.59989-0.5122-1.0834-1.1416-1.0834zm15.821 19.963-0.82907 0.52766c-6.8648 4.3718-17.374 7.8387-27.153 7.6481 1.3847 5.0278 6.8995 8.4225 7.1816 8.589 0.18446 0.10834 1.4802 0.77243 7.4204 0.77243 5.938 0 7.4356-0.66409 7.6179-0.77243 0.34293-0.20062 8.3384-5.07 7.4399-11.932-0.20618-1.5669-0.83992-3.19-1.6777-4.8332z" fill="#fff" stroke-width="3.75"/>
</svg>
