<?xml version="1.0" encoding="UTF-8" standalone="no"?>
<svg
   xmlns:dc="http://purl.org/dc/elements/1.1/"
   xmlns:cc="http://creativecommons.org/ns#"
   xmlns:rdf="http://www.w3.org/1999/02/22-rdf-syntax-ns#"
   xmlns:svg="http://www.w3.org/2000/svg"
   xmlns="http://www.w3.org/2000/svg"
   xmlns:sodipodi="http://sodipodi.sourceforge.net/DTD/sodipodi-0.dtd"
   xmlns:inkscape="http://www.inkscape.org/namespaces/inkscape"
   width="64"
   height="64"
   version="1.1"
   viewBox="0 0 16.933 16.933"
   id="svg131"
   sodipodi:docname="org.gnome.PasswordSafe.svg"
   inkscape:version="1.0.2 (e86c870879, 2021-01-15)">
  <metadata
     id="metadata135">
    <rdf:RDF>
      <cc:Work
         rdf:about="">
        <dc:format>image/svg+xml</dc:format>
        <dc:type
           rdf:resource="http://purl.org/dc/dcmitype/StillImage" />
        <dc:title></dc:title>
      </cc:Work>
    </rdf:RDF>
  </metadata>
  <sodipodi:namedview
     pagecolor="#ffffff"
     bordercolor="#666666"
     borderopacity="1"
     objecttolerance="10"
     gridtolerance="10"
     guidetolerance="10"
     inkscape:pageopacity="0"
     inkscape:pageshadow="2"
     inkscape:window-width="1920"
     inkscape:window-height="935"
     id="namedview133"
     showgrid="false"
     showguides="false"
     inkscape:zoom="8.5626212"
     inkscape:cx="43.026536"
     inkscape:cy="27.923099"
     inkscape:window-x="0"
     inkscape:window-y="38"
     inkscape:window-maximized="1"
     inkscape:current-layer="svg131" />
  <defs
     id="defs59">
    <radialGradient
       id="radialGradient4514-5"
       cx="259.52"
       cy="558.97"
       r="34"
       gradientTransform="matrix(.1323 7.0812e-8 -7.0812e-8 .1323 -25.866 -65.48)"
       gradientUnits="userSpaceOnUse">
      <stop
         stop-color="#65257e"
         offset="0"
         id="stop2" />
      <stop
         stop-color="#672680"
         offset=".72383"
         id="stop4" />
      <stop
         stop-color="#a558c5"
         offset=".80104"
         id="stop6" />
      <stop
         stop-color="#b363d5"
         offset=".94118"
         id="stop8" />
      <stop
         stop-color="#66267f"
         offset="1"
         id="stop10" />
    </radialGradient>
    <linearGradient
       id="linearGradient1019-1"
       x1="16.933"
       x2="16.933"
       y1="291.12"
       y2="268.25"
       gradientTransform="matrix(.37026 0 0 .37026 2.1972 -95.086)"
       gradientUnits="userSpaceOnUse">
      <stop
         stop-color="#4e1d61"
         offset="0"
         id="stop13" />
      <stop
         stop-color="#c68ede"
         offset="1"
         id="stop15" />
    </linearGradient>
    <linearGradient
       id="linearGradient1033-0"
       x1="16.933"
       x2="16.933"
       y1="288.26"
       y2="272.06"
       gradientTransform="matrix(.37026 0 0 .37026 2.1972 -95.086)"
       gradientUnits="userSpaceOnUse">
      <stop
         stop-color="#e5e5e5"
         offset="0"
         id="stop18" />
      <stop
         stop-color="#f1f1f1"
         offset="1"
         id="stop20" />
    </linearGradient>
    <linearGradient
       id="linearGradient4590-6"
       x1="47.902"
       x2="47.902"
       y1="1016.9"
       y2="991.52"
       gradientTransform="matrix(.067905 0 0 .067905 -12.692 -12.307)"
       gradientUnits="userSpaceOnUse">
      <stop
         stop-color="#fff"
         offset="0"
         id="stop23" />
      <stop
         stop-color="#fff"
         stop-opacity="0"
         offset="1"
         id="stop25" />
    </linearGradient>
    <linearGradient
       id="linearGradient4574-2"
       x1="48.543"
       x2="48.543"
       y1="1016.1"
       y2="993.68"
       gradientTransform="matrix(.067905 0 0 .067905 -12.692 -12.307)"
       gradientUnits="userSpaceOnUse">
      <stop
         stop-color="#d6d6d6"
         offset="0"
         id="stop28" />
      <stop
         stop-color="#d0d0d0"
         offset="1"
         id="stop30" />
    </linearGradient>
    <linearGradient
       id="linearGradient1011-8"
       x1="31.807"
       x2="31.807"
       y1="26.918"
       y2="36.986"
       gradientTransform="matrix(.26459 0 0 .26459 -6.3305e-5 .0036804)"
       gradientUnits="userSpaceOnUse">
      <stop
         offset="0"
         id="stop33" />
      <stop
         stop-opacity=".5"
         offset="1"
         id="stop35" />
    </linearGradient>
    <linearGradient
       id="linearGradient4612-2"
       x1="299.74"
       x2="323.46"
       y1="304.59"
       y2="304.59"
       gradientTransform="matrix(.066937 0 0 .066426 -12.391 -11.497)"
       gradientUnits="userSpaceOnUse">
      <stop
         stop-color="#1a1d1e"
         offset="0"
         id="stop38" />
      <stop
         stop-color="#282d30"
         offset=".16667"
         id="stop40" />
      <stop
         stop-color="#34393d"
         offset=".50565"
         id="stop42" />
      <stop
         stop-color="#2a2e32"
         offset=".83333"
         id="stop44" />
      <stop
         stop-color="#1b1d1f"
         offset="1"
         id="stop46" />
    </linearGradient>
    <linearGradient
       id="linearGradient1000"
       x1="8.5867"
       x2="8.5867"
       y1="15.747"
       y2="1.0975"
       gradientUnits="userSpaceOnUse"
       gradientTransform="translate(-1.8151766,-3.7883)">
      <stop
         stop-color="#333"
         offset="0"
         id="stop49" />
      <stop
         stop-color="#808080"
         offset="1"
         id="stop51" />
    </linearGradient>
    <linearGradient
       id="linearGradient987"
       x1="8.3788"
       x2="8.3788"
       y1="13.822"
       y2="3.4058"
       gradientUnits="userSpaceOnUse">
      <stop
         stop-color="#e0e0e0"
         offset="0"
         id="stop54" />
      <stop
         stop-color="#fff"
         offset="1"
         id="stop56" />
    </linearGradient>
    <linearGradient
       id="linearGradient891"
       x1="26.678"
       x2="26.678"
       y1="35.381"
       y2="17.782"
       gradientUnits="userSpaceOnUse"
       gradientTransform="matrix(0.26457812,0,0,0.26457812,19.322838,1.6e-7)">
      <stop
         stop-color="#e14664"
         offset="0"
         id="stop962" />
      <stop
         stop-color="#ff5c7b"
         offset="1"
         id="stop964" />
    </linearGradient>
    <linearGradient
       id="linearGradient899"
       x1="37.2"
       x2="37.2"
       y1="36.124"
       y2="18.096"
       gradientUnits="userSpaceOnUse"
       gradientTransform="matrix(0.26457812,0,0,0.26457812,19.322838,1.6e-7)">
      <stop
         stop-color="#aad22d"
         offset="0"
         id="stop967" />
      <stop
         stop-color="#dbf97c"
         offset="1"
         id="stop969" />
    </linearGradient>
    <linearGradient
       id="linearGradient907"
       x1="23.688"
       x2="23.688"
       y1="45.978"
       y2="31.186"
       gradientUnits="userSpaceOnUse"
       gradientTransform="matrix(0.26457812,0,0,0.26457812,19.322838,1.6e-7)">
      <stop
         stop-color="#0077c2"
         offset="0"
         id="stop972" />
      <stop
         stop-color="#1ba7ff"
         offset="1"
         id="stop974" />
    </linearGradient>
    <linearGradient
       id="linearGradient915"
       x1="34.38"
       x2="34.38"
       y1="46.935"
       y2="30.814"
       gradientUnits="userSpaceOnUse"
       gradientTransform="matrix(0.26457812,0,0,0.26457812,19.322838,1.6e-7)">
      <stop
         stop-color="#1abda2"
         offset="0"
         id="stop977" />
      <stop
         stop-color="#27f1d1"
         stop-opacity=".99608"
         offset="1"
         id="stop979" />
    </linearGradient>
    <linearGradient
       id="b-3"
       x1="399.57"
       x2="399.57"
       y1="545.8"
       y2="517.8"
       gradientTransform="matrix(0.56696445,0,0,0.56696445,-160.76491,-293.02027)"
       gradientUnits="userSpaceOnUse">
      <stop
         stop-color="#3889e9"
         offset="0"
         id="stop982" />
      <stop
         stop-color="#5ea5fb"
         offset="1"
         id="stop984" />
    </linearGradient>
    <style
       type="text/css"
       id="style987" />
    <style
       type="text/css"
       id="style989" />
    <filter
       id="filter1057"
       x="-.027"
       y="-.027"
       width="1.054"
       height="1.054"
       color-interpolation-filters="sRGB">
      <feGaussianBlur
         stdDeviation="0.61875"
         id="feGaussianBlur991" />
    </filter>
    <linearGradient
       id="linearGradient1053"
       x1="-127"
       x2="-72"
       y1="60"
       y2="5"
       gradientTransform="translate(203.93,-0.054156)"
       gradientUnits="userSpaceOnUse">
      <stop
         stop-color="#1d2123"
         offset="0"
         id="stop994" />
      <stop
         stop-color="#33393e"
         stop-opacity=".99608"
         offset="1"
         id="stop996" />
    </linearGradient>
  </defs>
  <g
     transform="matrix(0.26457812,0,0,0.26457812,-19.166039,1.6e-7)"
     id="g1007">
    <rect
       x="76.934998"
       y="4.9558001"
       width="55"
       height="55"
       ry="15"
       fill="#141414"
       filter="url(#filter1057)"
       opacity="0.3"
       stroke-linecap="round"
       stroke-width="2.7444"
       id="rect1001" />
    <rect
       x="76.934998"
       y="4.9558001"
       width="55"
       height="55"
       ry="15"
       fill="url(#linearGradient1053)"
       stroke-linecap="round"
       stroke-width="2.7444"
       id="rect1003"
       style="fill:url(#linearGradient1053)" />
    <circle
       cx="104.44"
       cy="32"
       r="30.000999"
       fill-opacity="0"
       stroke-width="1.5715"
       id="circle1005" />
  </g>
  <g
     stroke-width=".35931"
     id="g83">
    <rect
       x="2.6459"
       y="3.1436"
       width="11.642"
       height="11.642"
       rx="5.8212"
       ry="5.8212"
       opacity=".0375"
       id="rect65" />
    <rect
       x="2.6459"
       y="2.9103"
       width="11.642"
       height="11.642"
       rx="5.8212"
       ry="5.8212"
       opacity=".0625"
       id="rect67" />
    <rect
       x="3.9688"
       y="4.2321"
       width="8.9962"
       height="8.9962"
       rx="4.4983"
       ry="4.4983"
       opacity=".25"
       id="rect69" />
    <rect
       x="4.0218"
       y="4.284"
       width="8.8903"
       height="8.8903"
       rx="4.4453"
       ry="4.4453"
       opacity=".25"
       id="rect71" />
    <rect
       x="4.0218"
       y="4.284"
       width="8.8903"
       height="8.8903"
       rx="4.4453"
       ry="4.4453"
       opacity=".0875"
       id="rect73" />
    <rect
       x="5.0272"
       y="5.2911"
       width="6.8794"
       height="6.8794"
       rx="3.4397"
       ry="3.4397"
       opacity=".25"
       id="rect75" />
    <rect
       x="6.6433"
       y="6.9054"
       width="3.6469"
       height="3.6469"
       rx="1.8235"
       ry="1.8235"
       opacity=".25"
       id="rect77" />
    <rect
       x="6.7836"
       y="7.0461"
       width="3.3664"
       height="3.3664"
       rx="1.6832"
       ry="1.6832"
       opacity=".25"
       id="rect79" />
    <rect
       x="6.6148"
       y="6.8795"
       width="3.7044"
       height="3.7044"
       rx="1.8521"
       ry="1.8521"
       opacity=".25"
       id="rect81" />
  </g>
  <path
     d="m8.4669 6.8778c-1.0261 0-1.8522 0.82606-1.8522 1.8522s0.82606 1.8522 1.8522 1.8522 1.8522-0.82606 1.8522-1.8522-0.82606-1.8522-1.8522-1.8522zm0 0.056845c0.99448 0 1.7953 0.80085 1.7953 1.7953 0 0.99448-0.80085 1.7953-1.7953 1.7953-0.99448 0-1.7953-0.80085-1.7953-1.7953 0-0.99448 0.80085-1.7953 1.7953-1.7953z"
     opacity=".0875"
     stroke-width=".25677"
     id="path85" />
  <path
     d="m7.8076 6.084c-0.074533 0-0.13436 0.05983-0.13436 0.13436v1.4563l0.52609 0.51212-0.52609 0.51265v2.5421c0 0.07453 0.05983 0.13436 0.13436 0.13436h1.3188c0.074533 0 0.13436-0.05983 0.13436-0.13436v-1.4671l-0.52919-0.51524 0.52919-0.51524v-2.5255c0-0.074533-0.05983-0.13436-0.13436-0.13436z"
     opacity=".25"
     stroke-width=".25677"
     id="path87" />
  <g
     stroke-width=".35931"
     id="g105">
    <rect
       x="2.6459"
       y="2.7701"
       width="11.642"
       height="11.642"
       rx="5.8212"
       ry="5.8212"
       opacity=".175"
       id="rect89" />
    <rect
       x="3.9688"
       y="4.0919"
       width="8.9962"
       height="8.9962"
       rx="4.4983"
       ry="4.4983"
       opacity=".35"
       id="rect91" />
    <rect
       x="4.0218"
       y="4.1437"
       width="8.8903"
       height="8.8903"
       rx="4.4453"
       ry="4.4453"
       opacity=".35"
       id="rect93" />
    <rect
       x="4.0218"
       y="4.1437"
       width="8.8903"
       height="8.8903"
       rx="4.4453"
       ry="4.4453"
       opacity=".1225"
       id="rect95" />
    <rect
       x="5.0272"
       y="5.1508"
       width="6.8794"
       height="6.8794"
       rx="3.4397"
       ry="3.4397"
       opacity=".35"
       id="rect97" />
    <rect
       x="6.6433"
       y="6.7652"
       width="3.6469"
       height="3.6469"
       rx="1.8235"
       ry="1.8235"
       opacity=".35"
       id="rect99" />
    <rect
       x="6.7836"
       y="6.9059"
       width="3.3664"
       height="3.3664"
       rx="1.6832"
       ry="1.6832"
       opacity=".35"
       id="rect101" />
    <rect
       x="6.6148"
       y="6.7393"
       width="3.7044"
       height="3.7044"
       rx="1.8521"
       ry="1.8521"
       opacity=".35"
       id="rect103" />
  </g>
  <path
     d="m8.4669 6.7376c-1.0261 0-1.8522 0.82606-1.8522 1.8522s0.82606 1.8522 1.8522 1.8522 1.8522-0.82606 1.8522-1.8522-0.82606-1.8522-1.8522-1.8522zm0 0.056845c0.99448 0 1.7953 0.80085 1.7953 1.7953 0 0.99448-0.80085 1.7953-1.7953 1.7953-0.99448 0-1.7953-0.80085-1.7953-1.7953 0-0.99448 0.80085-1.7953 1.7953-1.7953z"
     opacity=".1225"
     stroke-width=".25677"
     id="path107" />
  <path
     d="m7.8076 5.9438c-0.074533 0-0.13436 0.05983-0.13436 0.13436v1.4563l0.52609 0.51212-0.52609 0.51265v2.5421c0 0.07453 0.05983 0.13436 0.13436 0.13436h1.3188c0.074533 0 0.13436-0.05983 0.13436-0.13436v-1.4671l-0.52919-0.51524 0.52919-0.51524v-2.5255c0-0.074533-0.05983-0.13436-0.13436-0.13436z"
     opacity=".35"
     stroke-width=".25677"
     id="path109" />
  <g
     stroke-width=".37026"
     id="g125">
    <rect
       x="2.6459"
       y="2.651"
       width="11.642"
       height="11.642"
       rx="5.8212"
       ry="5.8212"
       fill="url(#linearGradient987)"
       id="rect111" />
    <rect
       x="4.0218"
       y="4.0247"
       width="8.8903"
       height="8.8903"
       rx="4.4453"
       ry="4.4453"
       fill="url(#radialGradient4514-5)"
       id="rect113" />
    <rect
       x="4.0217"
       y="4.0247"
       width="8.8903"
       height="8.8903"
       rx="4.4453"
       ry="4.4453"
       fill="url(#linearGradient1019-1)"
       opacity=".35"
       id="rect115" />
    <rect
       x="5.0272"
       y="5.0318"
       width="6.8794"
       height="6.8794"
       rx="3.4397"
       ry="3.4397"
       fill="url(#linearGradient1033-0)"
       id="rect117" />
    <rect
       x="6.6433"
       y="6.6461"
       width="3.6469"
       height="3.6469"
       rx="1.8235"
       ry="1.8235"
       fill="url(#linearGradient4590-6)"
       id="rect119" />
    <rect
       x="6.7836"
       y="6.7868"
       width="3.3664"
       height="3.3664"
       rx="1.6832"
       ry="1.6832"
       fill="url(#linearGradient4574-2)"
       id="rect121" />
    <rect
       x="6.6148"
       y="6.6202"
       width="3.7044"
       height="3.7044"
       rx="1.8521"
       ry="1.8521"
       fill="#dfdfdf"
       id="rect123" />
  </g>
  <path
     d="m8.4669 6.6185c-1.0261 0-1.8522 0.82606-1.8522 1.8522s0.82606 1.8522 1.8522 1.8522 1.8522-0.82606 1.8522-1.8522-0.82606-1.8522-1.8522-1.8522zm0 0.056845c0.99448 0 1.7953 0.80085 1.7953 1.7953 0 0.99448-0.80085 1.7953-1.7953 1.7953-0.99448 0-1.7953-0.80085-1.7953-1.7953 0-0.99448 0.80085-1.7953 1.7953-1.7953z"
     fill="url(#linearGradient1011-8)"
     opacity=".35"
     stroke-width=".26459"
     id="path127" />
  <path
     d="m7.8076 5.8247c-0.074533 0-0.13436 0.05983-0.13436 0.13436v1.4563l0.52609 0.51212-0.52609 0.51265v2.5421c0 0.07453 0.05983 0.13436 0.13436 0.13436h1.3188c0.074533 0 0.13436-0.05983 0.13436-0.13436v-1.4671l-0.52919-0.51524 0.52919-0.51524v-2.5255c0-0.074533-0.05983-0.13436-0.13436-0.13436h-1.3188z"
     fill="url(#linearGradient4612-2)"
     stroke-width=".26459"
     id="path129" />
  <g
     transform="translate(57.87187,0.12061603)"
     fill="#5e4aa6"
     stroke-width="0.26458"
     id="g1041">
    <circle
       cx="-330.35001"
       cy="-328.37"
       r="0"
       image-rendering="optimizeSpeed"
       id="circle1019" />
    <circle
       cx="-330.35001"
       cy="-328.38"
       r="0"
       image-rendering="optimizeSpeed"
       id="circle1021" />
    <circle
       cx="-330.35001"
       cy="-328.38"
       r="0"
       image-rendering="optimizeSpeed"
       id="circle1023" />
    <circle
       cx="-352.63"
       cy="-336.84"
       r="0"
       image-rendering="optimizeSpeed"
       id="circle1025" />
    <circle
       cx="-330.35001"
       cy="-328.37"
       r="0"
       image-rendering="optimizeSpeed"
       id="circle1027" />
    <circle
       cx="-305.84"
       cy="-328.26999"
       r="0"
       image-rendering="optimizeSpeed"
       id="circle1029" />
    <circle
       cx="-305.84"
       cy="-328.28"
       r="0"
       image-rendering="optimizeSpeed"
       id="circle1031" />
    <circle
       cx="-305.84"
       cy="-328.28"
       r="0"
       image-rendering="optimizeSpeed"
       id="circle1033" />
    <circle
       cx="-328.12"
       cy="-336.73999"
       r="0"
       image-rendering="optimizeSpeed"
       id="circle1035" />
    <circle
       cx="-305.84"
       cy="-328.26999"
       r="0"
       image-rendering="optimizeSpeed"
       id="circle1037" />
    <circle
       cx="-305.03"
       cy="-328.69"
       r="0"
       id="circle1039" />
  </g>
  <circle
     cx="66.341019"
     cy="8.4665003"
     r="0"
     fill="url(#b-3)"
     stroke-width="0.415785"
     id="circle1043"
     style="fill:url(#b-3)" />
  <circle
     cx="-292.03271"
     cy="-328.36789"
     r="0"
     fill="#5e4aa6"
     id="circle1045"
     style="stroke-width:0.264578" />
  <circle
     cx="-1.1324911"
     cy="6.4321589"
     r="0"
     fill="#5e4aa6"
     fill-rule="evenodd"
     id="circle1047"
     style="stroke-width:0.264578" />
</svg>
