<?xml version="1.0" encoding="UTF-8" standalone="no"?>
<svg
   width="64"
   height="64"
   version="1.1"
   viewBox="0 0 64 64"
   id="svg22"
   sodipodi:docname="parigp.svg"
   inkscape:version="1.1.2 (0a00cf5339, 2022-02-04)"
   xmlns:inkscape="http://www.inkscape.org/namespaces/inkscape"
   xmlns:sodipodi="http://sodipodi.sourceforge.net/DTD/sodipodi-0.dtd"
   xmlns:xlink="http://www.w3.org/1999/xlink"
   xmlns="http://www.w3.org/2000/svg"
   xmlns:svg="http://www.w3.org/2000/svg">
  <sodipodi:namedview
     id="namedview24"
     pagecolor="#ffffff"
     bordercolor="#666666"
     borderopacity="1.0"
     inkscape:pageshadow="2"
     inkscape:pageopacity="0.0"
     inkscape:pagecheckerboard="0"
     showgrid="false"
     inkscape:zoom="5.6568543"
     inkscape:cx="-8.6620581"
     inkscape:cy="38.006989"
     inkscape:window-width="1920"
     inkscape:window-height="1050"
     inkscape:window-x="0"
     inkscape:window-y="0"
     inkscape:window-maximized="1"
     inkscape:current-layer="svg22" />
  <defs
     id="defs10">
    <filter
       id="filter1057-2"
       x="-0.026999999"
       y="-0.026999999"
       width="1.054"
       height="1.054"
       color-interpolation-filters="sRGB">
      <feGaussianBlur
         stdDeviation="0.61875"
         id="feGaussianBlur2" />
    </filter>
    <linearGradient
       id="linearGradient1053-0"
       x1="-127"
       x2="-72"
       y1="60"
       y2="5"
       gradientTransform="translate(131.77752,-0.415658)"
       gradientUnits="userSpaceOnUse">
      <stop
         stop-color="#dee0e2"
         offset="0"
         id="stop5" />
      <stop
         stop-color="#f1f3f5"
         stop-opacity=".99608"
         offset="1"
         id="stop7" />
    </linearGradient>
    <filter
       id="filter1057"
       x="-0.026999999"
       y="-0.026999999"
       width="1.054"
       height="1.054"
       color-interpolation-filters="sRGB">
      <feGaussianBlur
         stdDeviation="0.61875"
         id="feGaussianBlur1118" />
    </filter>
    <filter
       id="e"
       x="-0.34809443"
       y="-0.14399971"
       width="1.6961889"
       height="1.2879994"
       color-interpolation-filters="sRGB">
      <feGaussianBlur
         stdDeviation="0.59999875"
         id="feGaussianBlur1121" />
    </filter>
    <linearGradient
       id="c"
       x1="31.458"
       x2="31.458"
       y1="51.726"
       y2="62.898"
       gradientTransform="matrix(0.32565,0,0,0.32565,-1.7776,-7.7826)"
       gradientUnits="userSpaceOnUse">
      <stop
         stop-color="#1776ff"
         offset="0"
         id="stop1124" />
      <stop
         stop-color="#2fceff"
         offset="1"
         id="stop1126" />
    </linearGradient>
    <linearGradient
       id="linearGradient941"
       x1="31.458"
       x2="31.458"
       y1="36.898"
       y2="59.898"
       gradientTransform="matrix(0.32565,0,0,0.32565,-1.7776,-7.7826)"
       gradientUnits="userSpaceOnUse">
      <stop
         stop-color="#ff5514"
         offset="0"
         id="stop1129" />
      <stop
         stop-color="#ff9014"
         offset="1"
         id="stop1131" />
    </linearGradient>
    <linearGradient
       id="a"
       x1="31.458"
       x2="31.458"
       y1="46.898"
       y2="56.898"
       gradientTransform="matrix(0.32565,0,0,0.32565,-1.7776,-7.7826)"
       gradientUnits="userSpaceOnUse">
      <stop
         stop-color="#c0e5fb"
         offset="0"
         id="stop1134" />
      <stop
         stop-color="#c3faff"
         offset="1"
         id="stop1136" />
    </linearGradient>
    <linearGradient
       id="linearGradient1053-6"
       x1="-127"
       x2="-72"
       y1="60"
       y2="5"
       gradientTransform="matrix(1.0000071,0,0,1.0000071,76.522721,38.730573)"
       gradientUnits="userSpaceOnUse">
      <stop
         stop-color="#dee0e2"
         offset="0"
         id="stop1139" />
      <stop
         stop-color="#f1f3f5"
         stop-opacity=".99608"
         offset="1"
         id="stop1141" />
    </linearGradient>
    <linearGradient
       inkscape:collect="always"
       xlink:href="#linearGradient1053-6"
       id="linearGradient2549"
       x1="4.7815242"
       y1="32.093842"
       x2="59.781525"
       y2="32.093842"
       gradientUnits="userSpaceOnUse" />
  </defs>
  <rect
     x="4.7815242"
     y="4.5938425"
     width="55"
     height="55"
     ry="15"
     fill="#141414"
     filter="url(#filter1057-2)"
     opacity="0.3"
     id="rect12"
     style="stroke-width:2.7444;stroke-linecap:round" />
  <rect
     x="4.7815242"
     y="4.5938425"
     width="55"
     height="55"
     ry="15"
     fill="url(#linearGradient1053-0)"
     id="rect14"
     style="fill:url(#linearGradient2549);stroke-width:2.7444;stroke-linecap:round;fill-opacity:1.0" />
  <g
     id="logo"
     transform="matrix(0.19797934,0,0,0.19797934,3.8703035,16.497228)">
	<g
   id="Base_Rouge">
		<path
   fill="#cd2e32"
   d="m 221.76,39.086 v 10.528 l 11.212,2.354 V 41.347 c 0,-1.494 -0.133,-2.798 -0.404,-3.946 -0.279,-1.14 -0.667,-2.118 -1.166,-2.95 -0.501,-0.835 -1.107,-1.515 -1.808,-2.014 -0.707,-0.516 -1.485,-0.863 -2.337,-1.071 -1.79,-0.425 -3.156,-0.01 -4.084,1.279 -0.944,1.286 -1.413,3.428 -1.413,6.441 z"
   id="path912" />

		<path
   fill="#cd2e32"
   d="m 257.216,28.551 -28.424,-6.792 c 0.896,0.392 1.775,0.893 2.626,1.54 1.355,1.03 2.554,2.39 3.603,4.08 1.036,1.667 1.857,3.675 2.469,6 0.612,2.319 0.916,4.968 0.916,7.96 v 11.77 l 11.565,2.43 v 9.752 L 215.993,58.662 V 36.643 c 0,-3.141 0.277,-5.789 0.827,-7.947 0.549,-2.158 1.313,-3.873 2.312,-5.124 0.984,-1.26 2.16,-2.075 3.524,-2.455 0.757,-0.209 1.562,-0.286 2.403,-0.25 l -18.05,-4.313 v 104.704 l 23.995,2.963 c -1.788,-0.384 -3.46,-0.994 -4.999,-1.861 -2.195,-1.237 -4.074,-2.975 -5.639,-5.196 -1.557,-2.243 -2.774,-4.982 -3.621,-8.214 -0.856,-3.255 -1.279,-6.999 -1.279,-11.246 0,-3.089 0.216,-5.807 0.658,-8.136 0.436,-2.341 1.057,-4.338 1.867,-6.002 0.808,-1.668 1.776,-3.01 2.91,-4.024 1.124,-1.023 2.381,-1.775 3.769,-2.247 l 2.023,9.652 c -0.729,0.305 -1.41,0.741 -2.064,1.33 -0.651,0.59 -1.223,1.36 -1.712,2.303 -0.486,0.95 -0.881,2.069 -1.171,3.38 -0.287,1.3 -0.435,2.812 -0.435,4.546 0,2.522 0.289,4.756 0.856,6.663 0.575,1.91 1.388,3.528 2.449,4.846 1.053,1.321 2.316,2.348 3.773,3.083 1.462,0.745 3.083,1.213 4.871,1.421 1.763,0.201 3.372,0.101 4.834,-0.295 1.45,-0.409 2.695,-1.144 3.732,-2.185 1.033,-1.043 1.831,-2.416 2.41,-4.121 0.573,-1.71 0.857,-3.769 0.857,-6.182 0,-1.429 -0.077,-2.791 -0.23,-4.133 -0.154,-1.335 -0.36,-2.579 -0.612,-3.737 -0.265,-1.164 -0.552,-2.219 -0.896,-3.172 -0.335,-0.953 -0.675,-1.743 -1.039,-2.385 l -4.601,-0.725 V 99.17 l -5.23,-0.728 v -20.85 l 12.283,2.104 c 0.762,1.196 1.484,2.604 2.171,4.224 0.682,1.622 1.284,3.407 1.798,5.362 0.508,1.952 0.923,4.067 1.23,6.327 0.303,2.26 0.455,4.631 0.455,7.117 0,4.115 -0.414,7.61 -1.253,10.484 -0.836,2.881 -1.999,5.203 -3.507,6.968 -1.506,1.768 -3.314,3.006 -5.412,3.713 -1.762,0.601 -3.68,0.839 -5.736,0.767 l 22.698,2.805 V 28.551 Z"
   id="path914" />

	</g>

	<g
   id="Base_noir_90_x25_">
		<path
   fill="#3d3732"
   d="m 61.777,80.259 c 0,3.525 -0.326,6.996 -0.985,10.393 -0.649,3.401 -1.645,6.49 -2.981,9.257 -1.331,2.711 -3.012,5.02 -5.032,6.83 -2.005,1.771 -4.36,2.915 -7.056,3.349 l -10.368,1.685 v 27.381 l -8.403,0.902 V 63.607 l 18.407,-4.913 c 2.733,-0.741 5.127,-0.773 7.171,-0.104 2.06,0.728 3.78,2.046 5.151,3.956 1.382,1.896 2.41,4.41 3.082,7.374 0.675,3.037 1.014,6.494 1.014,10.339 z m -9.402,2.304 c 0,-4.16 -0.678,-7.076 -2.03,-8.965 -1.341,-1.854 -3.342,-2.412 -5.981,-1.74 l -9.009,2.139 v 25.242 l 9.251,-1.775 c 1.326,-0.226 2.474,-0.756 3.441,-1.612 0.967,-0.835 1.776,-1.861 2.423,-3.165 0.648,-1.303 1.13,-2.87 1.436,-4.545 0.315,-1.712 0.469,-3.588 0.469,-5.579 z"
   id="path917" />

		<path
   fill="#3d3732"
   d="m 158.574,84.896 c 2.051,-1.108 3.957,-2.634 5.723,-4.534 1.771,-1.956 3.313,-4.223 4.617,-6.885 1.313,-2.631 2.341,-5.571 3.088,-8.833 0.748,-3.266 1.126,-6.743 1.126,-10.484 0,-4.59 -0.521,-8.598 -1.555,-12.009 -1.029,-3.408 -2.587,-6.119 -4.658,-8.168 -2.059,-2.007 -4.608,-3.305 -7.63,-3.865 -2.996,-0.573 -6.459,-0.331 -10.378,0.727 l -29.602,7.968 v 91.357 l 12.042,-1.313 V 93.439 l 14.784,-2.511 14.692,34.752 15.676,-1.675 z m -2.116,-15.621 c -0.921,1.491 -2.096,2.708 -3.519,3.72 -1.419,0.999 -3.1,1.654 -5.045,2.056 l -16.547,3.221 V 50.731 l 16.193,-3.924 c 3.69,-0.919 6.564,-0.451 8.598,1.355 2.049,1.834 3.077,5.137 3.077,9.904 0,2.174 -0.228,4.199 -0.687,6.098 -0.455,1.912 -1.148,3.61 -2.07,5.111 z"
   id="path919" />

		<g
   id="g923">
			<polygon
   fill="#3d3732"
   points="187.001,37.436 202.128,33.813 202.128,16.554 187.001,20.614 "
   id="polygon921" />

		</g>

		<g
   id="g927">
			<polygon
   fill="#3d3732"
   points="202.128,121.258 202.128,38.835 187.001,42.458 187.001,122.876 "
   id="polygon925" />

		</g>

	</g>

	<g
   id="Lignes_BX1">
		<path
   fill="#008d4c"
   d="m 89.789,46.828 c -0.83,0.156 -1.832,0.451 -1.832,0.451 1.832,20.309 6.54,57.806 16.473,84.493 l 5.306,-0.547 C 98.204,101.496 91.67,66.249 89.789,46.828 Z"
   id="path930" />

		<path
   fill="#008d4c"
   d="m 87.275,47.479 -1.899,0.551 c 0.615,21.379 1.705,61.175 4.594,85.293 L 94.246,132.9 C 90.482,109.48 88.013,69.085 87.275,47.479 Z"
   id="path932" />

		<path
   fill="#0076b8"
   d="M 84.757,48.221 82.9,48.724 c -0.727,21.772 -3.108,62.432 -6.679,86.103 l 4.046,-0.471 c 2.852,-24.245 4.04,-64.471 4.49,-86.135 z"
   id="path934" />

		<path
   fill="#0076b8"
   d="m 82.226,48.922 -1.78,0.478 c -1.803,19.93 -7.87,56.305 -17.938,86.875 l 4.512,-0.482 C 75.689,108.212 80.438,69.84 82.226,48.922 Z"
   id="path936" />

	</g>

</g>
  <g
     id="g940"
     transform="matrix(0.22069124,0,0,0.22069124,-1.8844559,16.74003)">
</g>
  <g
     id="g942"
     transform="matrix(0.22069124,0,0,0.22069124,-1.8844559,16.74003)">
</g>
  <g
     id="g944"
     transform="matrix(0.22069124,0,0,0.22069124,-1.8844559,16.74003)">
</g>
  <g
     id="g946"
     transform="matrix(0.22069124,0,0,0.22069124,-1.8844559,16.74003)">
</g>
  <g
     id="g948"
     transform="matrix(0.22069124,0,0,0.22069124,-1.8844559,16.74003)">
</g>
  <g
     id="g950"
     transform="matrix(0.22069124,0,0,0.22069124,-1.8844559,16.74003)">
</g>
</svg>
