<?xml version="1.0" encoding="UTF-8" standalone="no"?>
<svg
   xmlns:dc="http://purl.org/dc/elements/1.1/"
   xmlns:cc="http://creativecommons.org/ns#"
   xmlns:rdf="http://www.w3.org/1999/02/22-rdf-syntax-ns#"
   xmlns:svg="http://www.w3.org/2000/svg"
   xmlns="http://www.w3.org/2000/svg"
   xmlns:xlink="http://www.w3.org/1999/xlink"
   xmlns:sodipodi="http://sodipodi.sourceforge.net/DTD/sodipodi-0.dtd"
   xmlns:inkscape="http://www.inkscape.org/namespaces/inkscape"
   width="64"
   height="64"
   version="1.1"
   id="svg44"
   sodipodi:docname="pcloud.svg"
   inkscape:version="1.0.2 (e86c870879, 2021-01-15)">
  <metadata
     id="metadata48">
    <rdf:RDF>
      <cc:Work
         rdf:about="">
        <dc:format>image/svg+xml</dc:format>
        <dc:type
           rdf:resource="http://purl.org/dc/dcmitype/StillImage" />
        <dc:title></dc:title>
      </cc:Work>
    </rdf:RDF>
  </metadata>
  <sodipodi:namedview
     pagecolor="#ffffff"
     bordercolor="#666666"
     borderopacity="1"
     objecttolerance="10"
     gridtolerance="10"
     guidetolerance="10"
     inkscape:pageopacity="0"
     inkscape:pageshadow="2"
     inkscape:window-width="1920"
     inkscape:window-height="935"
     id="namedview46"
     showgrid="false"
     inkscape:zoom="6.0546875"
     inkscape:cx="54.214385"
     inkscape:cy="51.640751"
     inkscape:window-x="0"
     inkscape:window-y="38"
     inkscape:window-maximized="1"
     inkscape:current-layer="svg44" />
  <defs
     id="defs18">
    <linearGradient
       id="b"
       x1="399.57"
       x2="399.57"
       y1="545.8"
       y2="517.8"
       gradientTransform="matrix(2.1429,0,0,2.1429,-826.36,-1107.5)"
       gradientUnits="userSpaceOnUse">
      <stop
         stop-color="#3889e9"
         offset="0"
         id="stop2" />
      <stop
         stop-color="#5ea5fb"
         offset="1"
         id="stop4" />
    </linearGradient>
    <filter
       id="d"
       x="-.032008"
       y="-.04113"
       width="1.064"
       height="1.0823"
       color-interpolation-filters="sRGB">
      <feGaussianBlur
         stdDeviation="0.77372435"
         id="feGaussianBlur7" />
    </filter>
    <linearGradient
       id="linearGradient862"
       x1="7.9373"
       x2="7.9373"
       y1="11.58"
       y2="1.6491"
       gradientTransform="matrix(3.7796,0,0,3.7796,-66.089057,-11.523468)"
       gradientUnits="userSpaceOnUse">
      <stop
         stop-color="#0ba4ae"
         offset="0"
         id="stop10" />
      <stop
         stop-color="#00d2ec"
         offset="1"
         id="stop12" />
    </linearGradient>
    <filter
       id="filter991"
       x="-.04675"
       y="-.049318"
       width="1.0935"
       height="1.0986"
       color-interpolation-filters="sRGB">
      <feGaussianBlur
         stdDeviation="0.62333984"
         id="feGaussianBlur15" />
    </filter>
    <radialGradient
       id="radialGradient5521-1"
       cx="10.255"
       cy="9.9089003"
       r="12.672"
       fx="9.7251997"
       gradientTransform="matrix(0,4.9373698,-9.7202819,0,51.659243,-52.216526)"
       gradientUnits="userSpaceOnUse">
      <stop
         stop-color="#90dbec"
         offset="0"
         id="stop2-36" />
      <stop
         stop-color="#42baea"
         offset=".26238"
         id="stop4-7" />
      <stop
         stop-color="#3689e6"
         offset=".70495"
         id="stop6" />
      <stop
         stop-color="#2b63a0"
         offset="1"
         id="stop8" />
    </radialGradient>
    <filter
       id="filter975"
       x="-0.048"
       y="-0.048"
       width="1.096"
       height="1.096"
       color-interpolation-filters="sRGB">
      <feGaussianBlur
         stdDeviation="0.56"
         id="feGaussianBlur11" />
    </filter>
    <filter
       id="filter862"
       x="-0.097593002"
       y="-0.12089"
       width="1.1952"
       height="1.2418"
       color-interpolation-filters="sRGB">
      <feGaussianBlur
         stdDeviation="0.7574652"
         id="feGaussianBlur14" />
    </filter>
    <filter
       id="filter866"
       x="-0.1055"
       y="-0.13327"
       width="1.211"
       height="1.2665"
       color-interpolation-filters="sRGB">
      <feGaussianBlur
         stdDeviation="0.7574652"
         id="feGaussianBlur17" />
    </filter>
    <linearGradient
       id="linearGradient963"
       x1="30.479"
       x2="31.073999"
       y1="14.368"
       y2="49.608002"
       gradientUnits="userSpaceOnUse">
      <stop
         stop-color="#f9f9f9"
         offset="0"
         id="stop959" />
      <stop
         stop-color="#ccf2f6"
         offset="1"
         id="stop961"
         style="stop-color:#07b6ff;stop-opacity:1" />
    </linearGradient>
    <linearGradient
       id="f"
       x1="30.479"
       x2="31.073999"
       y1="14.368"
       y2="49.608002"
       gradientUnits="userSpaceOnUse">
      <stop
         stop-color="#f9f9f9"
         offset="0"
         id="stop7" />
      <stop
         stop-color="#ccf2f6"
         offset="1"
         id="stop9" />
    </linearGradient>
    <linearGradient
       id="linearGradient874"
       x1="357.79999"
       x2="357.79999"
       y1="546.72998"
       y2="523.47998"
       gradientTransform="matrix(2.1429,0,0,2.1429,-657.87719,-1114)"
       gradientUnits="userSpaceOnUse">
      <stop
         stop-color="#197ff1"
         offset="0"
         id="stop12-5" />
      <stop
         stop-color="#21c6fb"
         offset="1"
         id="stop14" />
    </linearGradient>
    <filter
       id="filter2761"
       x="-0.024"
       y="-0.024"
       width="1.048"
       height="1.048"
       color-interpolation-filters="sRGB">
      <feGaussianBlur
         stdDeviation="0.14552168"
         id="feGaussianBlur2" />
    </filter>
    <linearGradient
       id="linearGradient1024"
       x1="1.3315001"
       x2="15.65"
       y1="15.576"
       y2="1.17"
       gradientUnits="userSpaceOnUse"
       gradientTransform="translate(0.7523229,-6.0494795)">
      <stop
         stop-color="#00c8ff"
         offset="0"
         id="stop5" />
      <stop
         stop-color="#14a0ff"
         offset="1"
         id="stop7-7" />
    </linearGradient>
    <filter
       id="filter914"
       x="-0.085106999"
       y="-0.082921997"
       width="1.1702"
       height="1.1658"
       color-interpolation-filters="sRGB">
      <feGaussianBlur
         stdDeviation="0.33551342"
         id="feGaussianBlur10" />
    </filter>
    <style
       type="text/css"
       id="style862" />
    <filter
       id="filter1057"
       x="-0.027000001"
       y="-0.027000001"
       width="1.054"
       height="1.054"
       color-interpolation-filters="sRGB">
      <feGaussianBlur
         stdDeviation="0.61875"
         id="feGaussianBlur864" />
    </filter>
    <linearGradient
       id="linearGradient1053"
       x1="-127"
       x2="-72"
       y1="60"
       y2="5"
       gradientTransform="translate(131.5,-0.51000007)"
       gradientUnits="userSpaceOnUse">
      <stop
         stop-color="#32d7ff"
         offset="0"
         id="stop867" />
      <stop
         stop-color="#329bff"
         offset="1"
         id="stop869" />
    </linearGradient>
    <style
       type="text/css"
       id="style872" />
    <style
       type="text/css"
       id="style874" />
    <style
       type="text/css"
       id="style876" />
    <style
       type="text/css"
       id="style878" />
    <style
       type="text/css"
       id="style880" />
    <style
       type="text/css"
       id="style882" />
    <style
       type="text/css"
       id="style884" />
    <linearGradient
       inkscape:collect="always"
       xlink:href="#b"
       id="linearGradient982"
       gradientUnits="userSpaceOnUse"
       gradientTransform="matrix(2.1429,0,0,2.1429,-754.86702,-1107.5)"
       x1="399.57"
       y1="545.8"
       x2="399.57"
       y2="517.8" />
    <linearGradient
       inkscape:collect="always"
       xlink:href="#b"
       id="linearGradient998"
       gradientUnits="userSpaceOnUse"
       gradientTransform="matrix(2.1429,0,0,2.1429,-826.36,-1107.5)"
       x1="399.57"
       y1="545.8"
       x2="399.57"
       y2="517.8" />
    <linearGradient
       inkscape:collect="always"
       xlink:href="#b"
       id="linearGradient1000"
       gradientUnits="userSpaceOnUse"
       gradientTransform="matrix(2.1429,0,0,2.1429,-826.36,-1107.5)"
       x1="399.57"
       y1="545.8"
       x2="399.57"
       y2="517.8" />
  </defs>
  <rect
     x="4.4999995"
     y="4.4999995"
     width="55"
     height="55"
     ry="15"
     fill="#141414"
     filter="url(#filter1057)"
     opacity="0.3"
     stroke-linecap="round"
     stroke-width="2.7444"
     id="rect900" />
  <rect
     x="4.5"
     y="4.5"
     width="55"
     height="55"
     ry="15"
     fill="url(#linearGradient1053)"
     stroke-linecap="round"
     stroke-width="2.7444"
     id="rect902"
     style="fill:url(#linearGradient1053)" />
  <circle
     cx="32.02"
     cy="32.043999"
     r="30.000999"
     fill-opacity="0"
     id="circle24"
     style="stroke-width:1.5715" />
  <circle
     cx="32.02"
     cy="32.043999"
     r="0"
     fill="url(#b)"
     id="circle26"
     style="fill:url(#linearGradient998);stroke-width:1.5715" />
  <circle
     cx="32.02"
     cy="32.043999"
     r="30.000999"
     fill-opacity="0"
     id="circle28"
     style="stroke-width:1.5715" />
  <circle
     cx="32.02"
     cy="32.043999"
     r="0"
     fill="url(#b)"
     id="circle30"
     style="fill:url(#linearGradient1000);stroke-width:1.5715" />
  <path
     d="M 21.256,15.264 A 12.602,12.602 0 0 0 8.672,27.498 12.602,12.602 0 0 0 4.0001,30.3828 v 8.9004 c 1.1722,-0.24441 2.3505,-0.44958 3.541,-0.58203 0.10579,-4.6079 3.8775,-8.2893 8.4941,-8.293 0.0065,7e-4 0.01303,0.0013 0.01953,0.002 0.07408,-6.6454 5.4897,-11.994 12.146,-11.996 0.49802,5e-4 0.99217,0.04244 1.4844,0.10352 a 12.602,12.602 0 0 0 -8.4297,-3.2539 z M 54.91,28.93 c 0.11422,0.72611 0.19135,1.4645 0.19141,2.2227 -0.0055,1.9453 -0.40958,3.8689 -1.1875,5.6523 2.1074,0.71919 4.1407,1.6325 6.0879,2.709 V 30.4925 A 9.1854,9.1854 0 0 0 54.91001,28.93 Z"
     fill="#ffffff"
     opacity="0.5"
     id="path32"
     style="stroke-width:1.5715" />
  <path
     d="m 40.823,14.896 a 14.28,14.257 0 0 0 -7.974,2.4453 12.151,12.131 0 0 0 -4.6482,-0.92774 12.151,12.131 0 0 0 -12.147,11.996 8.5014,8.4875 0 0 0 -0.01956,-0.002 8.5014,8.4875 0 0 0 -8.4924,8.293 37.852,37.79 0 0 0 -4.615,0.80469 30.05,30.001 0 0 0 29.083,22.539 30.05,30.001 0 0 0 28.932,-22.008 37.852,37.79 0 0 0 -7.0271,-3.2324 14.28,14.257 0 0 0 1.1875,-5.6523 14.28,14.257 0 0 0 -14.279,-14.256 z"
     filter="url(#d)"
     opacity="0.05"
     id="path34"
     style="stroke-width:1.5715" />
  <path
     id="path36"
     style="stroke-width:1.5715;fill:#ffffff;fill-opacity:1"
     d="M 40.822266 16.896484 C 37.979766 16.901084 35.204609 17.752517 32.849609 19.341797 C 31.376209 18.730907 29.796472 18.415672 28.201172 18.414062 C 21.544372 18.415862 16.128687 23.764856 16.054688 30.410156 C 16.048188 30.409482 16.041676 30.408903 16.035156 30.408203 C 11.418456 30.411903 7.6468156 34.093272 7.5410156 38.701172 C 6.519211 38.814854 5.5076867 38.989798 4.5 39.189453 L 4.5 44.5 C 4.5 52.81 11.19 59.5 19.5 59.5 L 44.5 59.5 C 52.81 59.5 59.5 52.81 59.5 44.5 L 59.5 39.25 C 57.704963 38.29052 55.842447 37.462794 53.914062 36.804688 C 54.691983 35.021188 55.096063 33.097544 55.101562 31.152344 C 55.101011 23.279244 48.707766 16.897484 40.822266 16.896484 z " />
  <path
     id="rect1174"
     style="fill:#31abf9;fill-opacity:1;stroke:none;stroke-linecap:round;stroke-linejoin:round;paint-order:stroke fill markers"
     d="M 32 23 C 23.1773 23 16 30.1773 16 39 C 16 47.8227 23.1773 55 32 55 C 40.8227 55 48 47.8227 48 39 C 48 30.1773 40.8227 23 32 23 z M 32 25.666016 C 39.352 25.666016 45.333984 31.648 45.333984 39 C 45.333984 46.352 39.352 52.333984 32 52.333984 C 24.648 52.333984 18.666016 46.352 18.666016 39 C 18.666016 31.648 24.648 25.666016 32 25.666016 z M 27.333984 31 C 26.228684 31 25.333984 31.896 25.333984 33 L 25.333984 46.333984 C 25.333984 47.437984 26.228654 48.333984 27.333984 48.333984 C 28.439284 48.333984 29.333984 47.437984 29.333984 46.333984 L 29.333984 43 L 34 43 C 37.308 43 40 40.308 40 37 C 40 33.692 37.308 31 34 31 L 27.333984 31 z M 29.333984 35 L 34 35 C 35.1027 35 36 35.89733 36 37 C 36 38.10267 35.10267 39 34 39 L 29.333984 39 L 29.333984 35 z " />
  <path
     style="color:#000000;font-style:normal;font-variant:normal;font-weight:normal;font-stretch:normal;font-size:medium;line-height:normal;font-family:sans-serif;font-variant-ligatures:normal;font-variant-position:normal;font-variant-caps:normal;font-variant-numeric:normal;font-variant-alternates:normal;font-variant-east-asian:normal;font-feature-settings:normal;font-variation-settings:normal;text-indent:0;text-align:start;text-decoration:none;text-decoration-line:none;text-decoration-style:solid;text-decoration-color:#000000;letter-spacing:normal;word-spacing:normal;text-transform:none;writing-mode:lr-tb;direction:ltr;text-orientation:mixed;dominant-baseline:auto;baseline-shift:baseline;text-anchor:start;white-space:normal;shape-padding:0;shape-margin:0;inline-size:0;clip-rule:nonzero;display:inline;overflow:visible;visibility:visible;isolation:auto;mix-blend-mode:normal;color-interpolation:sRGB;color-interpolation-filters:linearRGB;solid-color:#000000;solid-opacity:1;vector-effect:none;fill:#000000;fill-opacity:1;fill-rule:nonzero;stroke-width:0.53333;stroke-linecap:butt;stroke-linejoin:miter;stroke-miterlimit:4;stroke-dasharray:none;stroke-dashoffset:0;stroke-opacity:1;color-rendering:auto;image-rendering:auto;shape-rendering:auto;text-rendering:auto;enable-background:accumulate;stop-color:#000000;stop-opacity:1;stroke:none;opacity:0.15;filter:url(#filter991)"
     d="m 32,23 c -8.8227,0 -16,7.1773 -16,16 0,0.16886 0.02017,0.33238 0.02539,0.5 0.26749,-8.59 7.3208,-15.5 15.975,-15.5 8.6538,0 15.707,6.91 15.975,15.5 0.0052,-0.16762 0.02539,-0.33114 0.02539,-0.5 0,-8.8227 -7.1773,-16 -16,-16 z m -4.666,8 c -1.1053,0 -2,0.896 -2,2 v 1 c 0,-1.104 0.89467,-2 2,-2 H 34 c 3.1394,0 5.7194,2.4253 5.9746,5.5 0.0137,-0.16509 0.02539,-0.33144 0.02539,-0.5 0,-3.308 -2.692,-6 -6,-6 h -6.666 z m 8.5938,6.5 C 35.70399,38.35985 34.92893,39 34.0001,39 h -4.666 v 1 h 4.666 c 1.1027,0 2,-0.89733 2,-2 0,-0.1738 -0.03039,-0.33911 -0.07227,-0.5 z m -17.236,2 c -0.0062,0.16727 -0.02539,0.33123 -0.02539,0.5 0,7.352 5.982,13.334 13.334,13.334 7.352,0 13.334,-5.982 13.334,-13.334 0,-0.16877 -0.01914,-0.33273 -0.02539,-0.5 -0.26597,7.1194 -6.1254,12.834 -13.309,12.834 -7.1832,0 -13.043,-5.7146 -13.309,-12.834 z"
     id="path42" />
  <circle
     cx="103.51299"
     cy="32.043999"
     r="0"
     fill="url(#b)"
     stroke-width="1.5715"
     id="circle25"
     style="fill:url(#linearGradient982)" />
  <circle
     cx="-1126.7037"
     cy="-1279.3"
     r="0"
     fill="#5e4aa6"
     id="circle888"
     style="stroke-width:1" />
  <circle
     cx="-1008.2503"
     cy="-1318.5997"
     r="0"
     id="circle890"
     style="fill:#5e4aa6;stroke-width:1.00001" />
  <circle
     cx="91.287987"
     cy="-53.108513"
     r="0"
     fill-rule="evenodd"
     id="circle892"
     style="fill:#5e4aa6;stroke-width:1.00001" />
  <circle
     cx="-929.74805"
     cy="-1390.1099"
     r="0"
     id="circle894"
     style="fill:#5e4aa6;stroke-width:1.00001" />
  <circle
     cx="169.78731"
     cy="-124.58192"
     r="0"
     fill-rule="evenodd"
     id="circle896"
     style="fill:#5e4aa6;stroke-width:1.00001" />
</svg>
