<svg width="64" height="64" version="1.1" viewBox="0 0 16.933 16.933" xmlns="http://www.w3.org/2000/svg">
 <defs>
  <filter id="h" x="-.06" y="-.06" width="1.12" height="1.12" color-interpolation-filters="sRGB">
   <feGaussianBlur stdDeviation="0.85"/>
  </filter>
  <linearGradient id="g" x1="32" x2="32" y1="15" y2="49" gradientTransform="scale(.26458)" gradientUnits="userSpaceOnUse">
   <stop stop-color="#303030" offset="0"/>
   <stop stop-color="#424242" offset="1"/>
  </linearGradient>
  <linearGradient id="linearGradient862-3" x1="7.9373" x2="7.9373" y1="15.081" y2="1.852" gradientTransform="matrix(.99996 0 0 .99996 3.7873e-5 .0083453)" gradientUnits="userSpaceOnUse">
   <stop stop-color="#873df0" offset="0"/>
   <stop stop-color="#f25ef3" offset="1"/>
  </linearGradient>
 </defs>
 <g shape-rendering="auto">
  <path d="m4.3693 0.52916c-2.1142 0-3.8402 1.7835-3.8402 3.9682v8.4675c0 2.1846 1.726 3.9682 3.8402 3.9682h8.1944c2.1142 0 3.8402-1.7835 3.8402-3.9682v-8.4675c0-2.1846-1.726-3.9682-3.8402-3.9682zm0.25704 0.52089h7.6808c1.8443 0 3.3291 1.5342 3.3291 3.44v7.9368c0 1.9058-1.4847 3.44-3.3291 3.44h-7.6808c-1.8443 0-3.3291-1.5342-3.3291-3.44v-7.9368c0-1.9058 1.4847-3.44 3.3291-3.44z" color="#000000" color-rendering="auto" dominant-baseline="auto" image-rendering="auto" opacity=".01" solid-color="#000000" stop-color="#000000" style="font-feature-settings:normal;font-variant-alternates:normal;font-variant-caps:normal;font-variant-east-asian:normal;font-variant-ligatures:normal;font-variant-numeric:normal;font-variant-position:normal;font-variation-settings:normal;inline-size:0;isolation:auto;mix-blend-mode:normal;shape-margin:0;shape-padding:0;text-decoration-color:#000000;text-decoration-line:none;text-decoration-style:solid;text-indent:0;text-orientation:mixed;text-transform:none;white-space:normal"/>
  <path d="m4.3587 0.79373c-1.9668 0-3.5639 1.6528-3.5639 3.6876v8.4996c0 2.0348 1.5971 3.6876 3.5639 3.6876h8.2162c1.9668 0 3.5644-1.6528 3.5644-3.6876v-8.4996c0-2.0348-1.5976-3.6876-3.5644-3.6876zm0.27222 0.25631h7.6718c1.8422 0 3.3251 1.5342 3.3251 3.44v7.9368c0 1.9058-1.483 3.44-3.3251 3.44h-7.6718c-1.8422 0-3.3251-1.5342-3.3251-3.44v-7.9368c0-1.9058 1.483-3.44 3.3251-3.44z" color="#000000" color-rendering="auto" dominant-baseline="auto" image-rendering="auto" opacity=".01" solid-color="#000000" stop-color="#000000" style="font-feature-settings:normal;font-variant-alternates:normal;font-variant-caps:normal;font-variant-east-asian:normal;font-variant-ligatures:normal;font-variant-numeric:normal;font-variant-position:normal;font-variation-settings:normal;inline-size:0;isolation:auto;mix-blend-mode:normal;shape-margin:0;shape-padding:0;text-decoration-color:#000000;text-decoration-line:none;text-decoration-style:solid;text-indent:0;text-orientation:mixed;text-transform:none;white-space:normal"/>
  <g>
   <path d="m4.3097 1.0583c-1.8657 0-3.3751 1.5383-3.3751 3.439v8.4675c0 1.9007 1.57 3.439 3.4357 3.439h8.1996c1.8657 0 3.4274-1.5383 3.4274-3.439v-8.4675c0-1.9007-1.51-3.439-3.3756-3.439h-0.09688c1.794 0.086515 3.2138 1.5819 3.2138 3.4318v7.9368c0 1.9058-1.5059 3.44-3.3766 3.44h-7.7905c-1.8707 0-3.3766-1.5342-3.3766-3.44v-7.9368c0-1.8498 1.4199-3.3451 3.2138-3.4318z" color="#000000" color-rendering="auto" dominant-baseline="auto" image-rendering="auto" opacity=".03" solid-color="#000000" stop-color="#000000" style="font-feature-settings:normal;font-variant-alternates:normal;font-variant-caps:normal;font-variant-east-asian:normal;font-variant-ligatures:normal;font-variant-numeric:normal;font-variant-position:normal;font-variation-settings:normal;inline-size:0;isolation:auto;mix-blend-mode:normal;shape-margin:0;shape-padding:0;text-decoration-color:#000000;text-decoration-line:none;text-decoration-style:solid;text-indent:0;text-orientation:mixed;text-transform:none;white-space:normal"/>
   <path transform="scale(.26458)" d="m4 46.969v2.0312c0 6.6479 5.8957 12 12.544 12h30.961c6.6479 0 12.495-5.3521 12.495-12v-1.9922c-0.021173 7.1849-5.81 12.963-13 12.963h-29.998c-7.2032 0-13.002-5.7987-13.002-13.002z" color="#000000" color-rendering="auto" dominant-baseline="auto" image-rendering="auto" opacity=".03" solid-color="#000000" stop-color="#000000" style="font-feature-settings:normal;font-variant-alternates:normal;font-variant-caps:normal;font-variant-east-asian:normal;font-variant-ligatures:normal;font-variant-numeric:normal;font-variant-position:normal;font-variation-settings:normal;inline-size:0;isolation:auto;mix-blend-mode:normal;shape-margin:0;shape-padding:0;text-decoration-color:#000000;text-decoration-line:none;text-decoration-style:solid;text-indent:0;text-orientation:mixed;text-transform:none;white-space:normal"/>
   <path d="m1.0583 11.906v0.59234c0 1.9386 1.5729 3.4993 3.3318 3.4993h8.1603c1.7589 0 3.3243-1.5608 3.3243-3.4993v-0.58095c-0.0056 2.0952-1.5372 3.7801-3.4395 3.7801h-7.9368c-1.9058 0-3.44-1.691-3.44-3.7915z" color="#000000" color-rendering="auto" dominant-baseline="auto" image-rendering="auto" opacity=".05" solid-color="#000000" stop-color="#000000" style="font-feature-settings:normal;font-variant-alternates:normal;font-variant-caps:normal;font-variant-east-asian:normal;font-variant-ligatures:normal;font-variant-numeric:normal;font-variant-position:normal;font-variation-settings:normal;inline-size:0;isolation:auto;mix-blend-mode:normal;shape-margin:0;shape-padding:0;text-decoration-color:#000000;text-decoration-line:none;text-decoration-style:solid;text-indent:0;text-orientation:mixed;text-transform:none;white-space:normal"/>
  </g>
 </g>
 <rect x="1.0583" y="1.0583" width="14.816" height="14.816" rx="3.4399" ry="3.4399" fill="url(#linearGradient862-3)" stroke-width=".99996"/>
 <rect transform="matrix(.26458 0 0 .26458 -.042436 -.04234)" x="15.16" y="15.16" width="34" height="34" ry="5" fill="#303030" fill-rule="evenodd" filter="url(#h)" opacity=".5" style="paint-order:stroke fill markers"/>
 <rect x="3.9687" y="3.9687" width="8.9957" height="8.9957" ry="1.3229" fill="url(#g)" fill-rule="evenodd" stroke-width=".26458" style="paint-order:stroke fill markers"/>
 <path d="m5.2916 11.02h3.1059v0.62118h-3.1059z" fill="#f9f9f9" stroke-width=".26457"/>
 <path d="m5.9128 5.4287v3.4165h0.62118v-1.2423h0.62118c0.74772 0 1.2423-0.30489 1.2423-1.0713v-0.015771c0-0.69164-0.33726-1.0871-1.141-1.0871zm4.3561 6.066e-4c-0.67294 0-1.2569 0.33795-1.2569 0.95482v0.018806c0 0.43285 0.43413 0.81752 1.1071 0.98576 0.56078 0.14954 0.77101 0.28502 0.77101 0.47194v0.018806c0 0.20562-0.32209 0.34516-0.62118 0.34516-0.37385 0-0.63268-0.13976-0.93176-0.38277l-0.40583 0.4398c0.39255 0.35516 0.83288 0.54546 1.3375 0.56415 0.71033 0 1.229-0.44413 1.229-1.0222v-0.018806c0-0.51188-0.40077-0.72542-1.0737-0.91236-0.56078-0.14954-0.77648-0.25431-0.77648-0.47862v-0.058235c0-0.16823 0.34078-0.30513 0.62118-0.30513s0.49072 0.02004 0.78981 0.22566l0.34577-0.47134c-0.35323-0.21339-0.64958-0.3755-1.1356-0.3755zm-3.735 0.62057h0.62118c0.37385 0 0.62118 0.12941 0.62118 0.46589v0.015771c0 0.2804-0.24732 0.45011-0.62118 0.45011h-0.62118z" fill="#f9f9f9" stroke-width=".26457"/>
</svg>
