<?xml version="1.0" encoding="UTF-8"?>
<svg width="64" height="64" version="1" xmlns="http://www.w3.org/2000/svg">
 <defs>
  <filter id="filter2076" x="-.048" y="-.048" width="1.096" height="1.096" color-interpolation-filters="sRGB">
   <feGaussianBlur stdDeviation="1.1"/>
  </filter>
  <linearGradient id="linearGradient1123" x1="59.5" x2="4.5" y1="4.5" y2="59.5" gradientTransform="translate(0)" gradientUnits="userSpaceOnUse">
   <stop stop-color="#f68048" offset="0"/>
   <stop stop-color="#8d259c" offset="1"/>
  </linearGradient>
 </defs>
 <rect x="4.5" y="4.5" width="55" height="55" rx="13.002" ry="13.002" filter="url(#filter2076)" opacity=".3"/>
 <path d="m19.5 4.5c-8.31 0-15 6.69-15 15v25c0 8.31 6.69 15 15 15h25c8.31 0 15-6.69 15-15v-25c0-8.31-6.69-15-15-15z" fill="url(#linearGradient1123)" stroke-linecap="round" stroke-width=".5" style="paint-order:stroke fill markers"/>
 <path d="m23.045 19.675-6.9013 3.377-3.744 20.43 6.5933-1.6971 5.55 3.9902 3.7456-20.43zm-1.367 7.2136c-1.1608-0.21944-1.9269-1.3521-1.7107-2.5304 0.21619-1.1787 1.3321-1.9563 2.4929-1.7369 1.1616 0.21945 1.9277 1.3525 1.7115 2.5308-0.21581 1.1783-1.3329 1.9559-2.4937 1.7365z" fill="#f68048"/>
 <path d="m42.586 14.119c-0.79503 0-1.5204 0.40351-1.9414 1.0762-0.25424 0.403-0.36849 0.85349-0.35547 1.2969 2.6e-5 9.31e-4 -2.7e-5 0.002906 0 0.003906 0.0068 0.22074 0.044847 0.43897 0.11328 0.64844v0.001953c0.0687 0.20949 0.16949 0.41168 0.29688 0.5957-0.17115 0.19434-0.34925 0.36486-0.5332 0.51562-9.88e-4 8.12e-4 -0.002907 0.001054-0.003907 0.001954-0.18294 0.14967-0.37063 0.2786-0.55859 0.39062-0.0011 6.47e-4 -7.54e-4 0.003206-0.001954 0.003906-1.1332 0.67405-2.2909 0.91382-2.6387 0.9082-1.0399-0.45352-2.3471-0.68632-3.2246-0.79883-1.322-0.15914-3.6578-0.3113-5.5977-0.24609-1.8629 0.11461-3.9353 0.95304-5.6328 3.7344-0.16486-0.02941-0.33168-0.044922-0.49805-0.044922-1.3674 0-2.5413 0.97933-2.791 2.3301-0.13933 0.74945 0.019602 1.5102 0.44922 2.1387 0.42925 0.62806 1.0776 1.0503 1.8242 1.1895 0.17237 0.03242 0.34686 0.048829 0.52148 0.048828 1.3674 0 2.5429-0.98091 2.793-2.332 0.19078-1.0292-0.19986-2.0334-0.93555-2.6758 1.3252-2.0934 2.8729-2.7688 4.334-2.875 2.5751-0.19741 3.885 0.00974 6.2383 0.38086 0.5564 0.12664 1.4489 0.31448 2.0488 0.58789 0.001899 7.54e-4 0.004059 0.002706 0.005859 0.003906 0.32344 0.14731 0.63466 0.31131 0.93164 0.49609 0.29698 0.18478 0.57783 0.38971 0.84766 0.61133 0.54056 0.44409 1.1255 1.4927 1.5527 2.0801-0.05105 0.06515-0.098657 0.1306-0.14258 0.20117-0.16862 0.26898-0.27605 0.55963-0.32422 0.85547-1.44e-4 8.89e-4 1.46e-4 0.002906 0 0.003906-0.02375 0.147-0.033857 0.29417-0.029297 0.44141 2.9e-5 9.4e-4 -2.9e-5 0.002907 0 0.003907 0.0048 0.14723 0.024541 0.29429 0.056641 0.4375 0.03257 0.14536 0.078889 0.28504 0.13867 0.42188 0.11804 0.27017 0.2894 0.51916 0.50781 0.73047 0.11011 0.1067 0.2291 0.20384 0.36328 0.28906 0.36803 0.23452 0.79521 0.35938 1.2305 0.35938 0.79352 0 1.5222-0.40275 1.9473-1.0762 0.16956-0.26871 0.27573-0.55778 0.32422-0.85352 0.07274-0.4436 0.013866-0.89885-0.16406-1.3066-0.17796-0.40779-0.47432-0.76938-0.87695-1.0254-0.13072-0.08261-0.26853-0.14853-0.41211-0.20117-0.14161-0.0523-0.2888-0.089752-0.4375-0.11328-9.27e-4 -1.45e-4 -0.002907 1.44e-4 -0.003907 0-0.14963-0.02349-0.29974-0.032634-0.45117-0.027344-0.15163 0.0055-0.3033 0.024794-0.45117 0.058594-0.57759-0.81202-1.3461-2.0489-2.1055-2.6328 0.23551-0.073039 0.48113-0.36437 0.72852-0.47461 0.12385-0.05513 0.25005-0.13345 0.375-0.19922 0.1262-0.06658 0.25093-0.11886 0.37695-0.19726 0.2508-0.15551 0.49783-0.33724 0.74023-0.54492 0.24178-0.20733 0.47587-0.44059 0.69922-0.70703 0.21481 0.0646 0.43919 0.10156 0.66602 0.10156 0.19771 0 0.39235-0.026489 0.57812-0.074219 0.18645-0.04824 0.36639-0.12061 0.5332-0.21289 0.334-0.18443 0.62154-0.45148 0.83203-0.78711 0.08206-0.12962 0.14899-0.26422 0.20312-0.4043 0.16239-0.42023 0.19988-0.87908 0.099609-1.3301-0.06704-0.3014-0.19268-0.58244-0.36523-0.82812-0.08587-0.12226-0.1841-0.23585-0.29297-0.33984-0.10991-0.10498-0.23011-0.19987-0.36133-0.2832-0.18328-0.11598-0.38029-0.20554-0.58594-0.26562-8.92e-4 -2.61e-4 -0.002906 2.56e-4 -0.003906 0-0.20653-0.060101-0.41965-0.091797-0.63672-0.091797zm0 1.5117c0.14909 0 0.29727 0.045747 0.42383 0.125 0.08995 0.05728 0.16476 0.13004 0.22461 0.21484 0.0589 0.08436 0.10386 0.17945 0.12695 0.2832 1.95e-4 8.64e-4 -1.92e-4 0.003007 0 0.003906 4.22e-4 0.0019-4.07e-4 0.00396 0 0.00586 0.04332 0.20351 0.009375 0.41054-0.10352 0.58789-0.11267 0.17926-0.29659 0.29985-0.49609 0.3457-0.19902 0.04452-0.41786 0.018323-0.59961-0.097657l-0.035156-0.023437c-0.17245-0.12247-0.28323-0.30212-0.32031-0.49609-0.03673-0.19212-0.001295-0.39916 0.11133-0.57812 0.14496-0.23126 0.39344-0.36914 0.66797-0.36914v-0.001953zm7.7246 3.334c-0.7939 0-1.52 0.4015-1.9414 1.0742-0.602 0.95452-0.42077 2.1865 0.38476 2.9258 0.0079 0.0054 0.018694 0.017997 0.027344 0.023437-0.50661 1.7032-1.1199 4.6073-0.70312 6.1504-0.0537 0.04887-0.11059 0.095558-0.16016 0.15039-0.086 0.096091-0.1673 0.19817-0.23828 0.31055-0.11943 0.18946-0.20592 0.39007-0.26563 0.5957-1.266 0.18403-1.653 0.49374-2.2637 0.89258-0.76423 0.49889-1.4879 0.96884-3.6191 1.0039-0.73757-0.08685-2.2012-0.066309-2.8535-0.042969-0.5374 0.02172-1.0921 0.038853-1.8203 0.001953-0.50135-0.02714-0.79034-0.33303-1.2988-0.91406-0.6771-0.77477-1.6245-1.7535-3.5586-1.8945v1.5078c1.2374 0.11291 1.8399 0.71216 2.4258 1.3828 0.55843 0.63863 1.1926 1.3628 2.3496 1.4258 0.7954 0.04343 1.4132 0.02133 1.957 0 0.93548-0.03257 2.5388-0.060848 3.8164 0.25781 0.97904 0.24212 4.2438 3.7474 5.248 5.5-0.04056 0.05429-0.081513 0.10511-0.11719 0.16211-0.65457 1.0386-0.38589 2.4079 0.60742 3.1113 0.02704 0.02172 0.055897 0.038065 0.10547 0.072265 0.36841 0.23398 0.79364 0.35742 1.2285 0.35742 0.79465 0 1.5204-0.40296 1.9414-1.0742 0.3286-0.5179 0.43606-1.1354 0.30273-1.7363-0.13445-0.60318-0.4952-1.1175-1.0176-1.4492-0.36803-0.23235-0.79206-0.35547-1.2266-0.35547-0.19828 0-0.39381 0.028079-0.58008 0.074219-0.96177-1.5784-2.9485-4.0408-4.6523-5.2988 0.68086-0.23669 1.1456-0.54198 1.582-0.82617 0.53665-0.34961 0.68305-0.50046 1.5254-0.64258 0.15961 0.39032 0.42561 0.741 0.79102 1 0.02704 0.02172 0.05785 0.038065 0.10742 0.072265 0.36841 0.23398 0.79168 0.35742 1.2266 0.35742 0.79465 0 1.5224-0.40296 1.9434-1.0742 0.3286-0.51844 0.43605-1.1354 0.30274-1.7363-0.13445-0.60242-0.4952-1.1175-1.0176-1.4492-0.36803-0.23235-0.79206-0.35547-1.2266-0.35547-0.04694 0-0.093682 0.003459-0.14062 0.005859-0.26663-1.1901 0.3429-3.645 0.70117-4.9629 0.04208 0.0041 0.084891 0.009766 0.12695 0.009766 0.79465 0 1.5224-0.40052 1.9434-1.0723 0.3286-0.51844 0.4341-1.135 0.30078-1.7363-0.13445-0.6028-0.4952-1.1175-1.0176-1.4492-0.36803-0.23235-0.79206-0.35547-1.2266-0.35547zm0 1.5117c0.14984 0 0.29803 0.04184 0.42383 0.12109 0.18026 0.11455 0.30499 0.29241 0.35156 0.50195 0.045799 0.20575 0.008411 0.41742-0.10547 0.59766-0.22457 0.35829-0.72797 0.47952-1.0938 0.24609l-0.035157-0.021484c-0.34475-0.24375-0.43543-0.71495-0.20898-1.0742v-0.001953c0.14571-0.23126 0.3942-0.36914 0.66797-0.36914zm-28.273 3.2031c0.050549-0.008897 0.15902 0.04527 0.2207 0.05664 0.7263 0.13572 1.2067 0.83926 1.0723 1.5684-0.13332 0.71778-0.84266 1.2092-1.5645 1.0762-0.72705-0.13572-1.2051-0.83731-1.0703-1.5664 0.1183-0.63673 0.6704-1.1016 1.3145-1.1016 0-0.02083 0.010494-0.030238 0.027343-0.033203zm19.596 1.1523c0.15022 0 0.29915 0.040347 0.42383 0.11914 0.09266 0.05909 0.16767 0.13541 0.22656 0.2207 0.05889 0.08529 0.1006 0.18163 0.12305 0.28125 0.04427 0.19958 0.013444 0.41433-0.10352 0.59961-0.14721 0.23289-0.39893 0.37109-0.67383 0.37109-0.14909 0-0.29457-0.041283-0.42188-0.12109-0.09239-0.05881-0.16984-0.13736-0.22852-0.22266-0.05817-0.08458-0.098649-0.17843-0.12109-0.27734v-0.001953c-0.02232-0.09983-0.024443-0.20423-0.007813-0.30664 0.01667-0.1024 0.051082-0.2019 0.10938-0.29492 0.06347-0.10043 0.1495-0.18345 0.25391-0.24805 0.12581-0.07804 0.27008-0.11914 0.41992-0.11914zm7.9902 5.2051c0.14984 0 0.29607 0.043792 0.42188 0.12305 0.18026 0.11455 0.30499 0.291 0.35156 0.5 0.0458 0.20575 0.010365 0.41759-0.10352 0.59766-0.22457 0.35829-0.72797 0.47953-1.0938 0.24609l-0.035157-0.021484c-0.34475-0.24375-0.43739-0.71495-0.21094-1.0742v-0.001953c0.14571-0.23126 0.39615-0.36914 0.66992-0.36914zm-9.9355 5.9785c-0.80592 0-1.5615 0.43035-1.9746 1.125-0.31471 0.52984-0.40645 1.1501-0.25586 1.748 0.13182 0.52495 0.43636 0.9767 0.86524 1.293-1.5221 3.4751-3.929 5.4305-5.1855 6.0352-0.04807 0.01628-0.092706 0.038943-0.13477 0.064453-0.44577 0.20032-0.8108 0.2656-1.002 0.30469v1.5078c0.10328-0.01088 0.74773-0.043155 1.6348-0.44922 2.0084-0.51138 2.5694-0.13501 3.1582 0.26562 0.38343 0.26058 0.85904 0.58651 1.5996 0.625 0.03753 0.0019 0.077751 0.001953 0.11719 0.001953 0.79202 0 3.6865-0.91949 4.3809-1.1836 0.42962 0.42072 1.0032 0.6582 1.6074 0.6582 0.54867 0 1.0804-0.19585 1.4961-0.55469 0.46568-0.40064 0.74993-0.95975 0.79688-1.5742 0.04695-0.61485-0.14888-1.213-0.54883-1.6797-0.43751-0.51247-1.0719-0.80664-1.7441-0.80664-0.54792 0-1.08 0.19998-1.4961 0.55859-0.60538 0.52115-0.87296 1.2913-0.7832 2.0332-0.73156 0.26383-3.3443 1.0515-3.7461 1.0391-0.30832-0.01628-0.48773-0.13104-0.83398-0.36719-0.44014-0.29966-0.33236-0.57099-0.98242-0.69726 1.1026-1.0409 2.1463-3.0745 3.1133-5.3379 0.774-0.02714 1.4938-0.45071 1.8926-1.1211 0.64781-1.0918 0.29107-2.51-0.79688-3.1641-0.35639-0.2128-0.76388-0.32422-1.1777-0.32422zm0 1.5117c0.14196 0 0.28187 0.037504 0.4043 0.11133 0.37554 0.22638 0.50117 0.71521 0.27734 1.0918-0.14458 0.24375-0.40081 0.39062-0.68359 0.39062-0.14234 0-0.2827-0.039772-0.40625-0.11524-0.18138-0.10858-0.3095-0.28004-0.36133-0.48633-0.05181-0.20629-0.022223-0.42225 0.085937-0.60547 0.14496-0.2432 0.40081-0.38672 0.68359-0.38672zm9.9355 2.3906c0.14984 0 0.29607 0.043792 0.42188 0.12305 0.18026 0.11455 0.30499 0.29241 0.35156 0.50195 0.0458 0.20629 0.008412 0.41547-0.10547 0.5957-0.22457 0.35829-0.72797 0.47953-1.0938 0.24609l-0.035157-0.021485c-0.34475-0.24375-0.43543-0.71457-0.20898-1.0742v-0.001953c0.14571-0.23126 0.39615-0.36914 0.66992-0.36914zm-5.125 4.9902c0.23171 0 0.44984 0.10178 0.60156 0.2793 0.1382 0.16232 0.2056 0.36635 0.18945 0.57812-0.016159 0.21172-0.11391 0.404-0.27539 0.54297v0.001953c-0.18402 0.15852-0.38231 0.19141-0.51562 0.19141-0.23322 0-0.45292-0.102-0.60352-0.27734-0.28466-0.33332-0.24446-0.8369 0.087891-1.123 0.18476-0.1596 0.38231-0.19336 0.51562-0.19336z" fill="#fff"/>
</svg>
