<?xml version="1.0" encoding="UTF-8"?>
<svg width="64" height="64" version="1.1" viewBox="0 0 64 64" xmlns="http://www.w3.org/2000/svg">
 <defs>
  <filter id="filter1057" x="-.027" y="-.027" width="1.054" height="1.054" color-interpolation-filters="sRGB">
   <feGaussianBlur stdDeviation="0.61875"/>
  </filter>
  <linearGradient id="linearGradient1053" x1="-127" x2="-72" y1="60" y2="5" gradientTransform="translate(203.93 -.054156)" gradientUnits="userSpaceOnUse">
   <stop stop-color="#1d2123" offset="0"/>
   <stop stop-color="#33393e" stop-opacity=".99608" offset="1"/>
  </linearGradient>
 </defs>
 <g transform="translate(-72.44)">
  <rect x="76.935" y="4.9558" width="55" height="55" ry="15" fill="#141414" filter="url(#filter1057)" opacity=".3" stroke-linecap="round" stroke-width="2.7444"/>
  <rect x="76.935" y="4.9558" width="55" height="55" ry="15" fill="url(#linearGradient1053)" stroke-linecap="round" stroke-width="2.7444"/>
  <circle cx="104.44" cy="32" r="30.001" fill-opacity="0" stroke-width="1.5715"/>
 </g>
 <g fill="#20c8ca">
  <circle cx="32" cy="32.001" r="13.612" opacity=".15" stroke-width="3.9569" style="paint-order:stroke markers fill"/>
  <path d="m31.518 16c-0.89267 0.03323-1.3833 0.33291-1.7031 0.97661-0.20518 0.41304-0.37287 1.1011-0.37306 1.5293-6.64e-4 1.5708-1.5866 3.004-3.3263 3.004-0.85355 0-1.3224-0.23496-3.0509-1.5293-0.78669-0.58913-1.2833-0.4359-2.5039 0.76563-1.1596 1.1417-1.189 1.6884-0.16212 3.0509 0.42434 0.56316 0.85427 1.3138 0.9551 1.6699 0.24934 0.88057-0.15888 2.4925-0.81447 3.2091-0.53735 0.58731-1.8717 1.0449-3.0353 1.0449-1.1064 0-1.5039 0.62987-1.5039 2.373 0 1.3574 0.05208 1.5427 0.51758 1.8516 0.28446 0.1889 1.1063 0.42785 1.8282 0.53126 0.72194 0.10337 1.5553 0.34765 1.8496 0.54298 0.62133 0.41239 1.3415 1.8884 1.3477 2.7637 0.0049 0.63543-0.48417 1.759-0.98833 2.2695-0.54944 0.55655-0.9514 1.5694-0.80664 2.0312 0.18542 0.59174 1.4414 1.857 2.0918 2.1074 0.37255 0.14351 0.64318 0.10167 1.0039-0.15428 1.0573-0.7501 2.8662-1.5645 3.4767-1.5645 0.92018 0 2.4465 0.81208 2.7812 1.4805 0.15759 0.31484 0.35406 1.0487 0.43749 1.6289 0.2023 1.4071 0.52208 2.0693 1.0586 2.1836 0.24391 0.05171 0.63641 0.13943 0.87108 0.19336 0.2347 0.05537 0.7631 0.05537 1.1738 0 1.0713-0.14385 1.6424-0.94263 1.8223-2.5488 0.16452-1.4686 0.29938-1.7049 1.381-2.3965 1.0982-0.70225 1.9578-0.83937 2.8027-0.44728 0.70055 0.32516 0.98368 0.49365 2.1328 1.2599 0.84194 0.56146 1.3666 0.46867 2.3398-0.42188 1.4634-1.3392 1.4929-1.9214 0.18165-3.4513-1.2481-1.4559-1.2623-3.2472-0.03515-4.6228 0.46992-0.52688 0.89131-0.71015 2.2832-0.98829 2.1016-0.41991 2.4431-0.7631 2.4492-2.4688 6e-3 -1.7037-0.26495-1.982-2.2383-2.291-1.8777-0.29402-2.4789-0.71824-3.1387-2.2051-0.54853-1.2363-0.3972-1.9608 0.77346-3.6583 0.60031-0.87037 0.89913-1.5056 0.83008-1.7734-0.15428-0.59763-2.0995-2.3809-2.5978-2.3809-0.23074 0-0.8452 0.33231-1.3652 0.73438-1.4346 1.1094-2.289 1.3601-3.5157 1.0312-1.4414-0.38609-1.9544-0.9949-2.3184-2.7539-0.41806-2.0202-0.68762-2.3838-1.877-2.5195-0.39625-0.04554-0.73763-0.06381-1.0352-0.05273v-0.0039zm0.48243 10a6.0001 6.0001 0 0 1 6.0001 6.0001 6.0001 6.0001 0 0 1-6.0001 6.0001 6.0001 6.0001 0 0 1-6.0001-6.0001 6.0001 6.0001 0 0 1 6.0001-6.0001z"/>
  <ellipse cx="32" cy="32" rx="7.7868" ry="7.7868" stroke-opacity="0"/>
 </g>
 <path d="m27.466 24v16h3v-4h1c3.3137 0 6-2.6863 6-6s-2.6863-6-6-6zm3 3h1c1.6569 0 3 1.3431 3 3s-1.3431 3-3 3h-1z" fill="#fff"/>
</svg>
