<?xml version="1.0" encoding="UTF-8"?>
<svg width="64" height="64" version="1.1" xmlns="http://www.w3.org/2000/svg" xmlns:cc="http://creativecommons.org/ns#" xmlns:dc="http://purl.org/dc/elements/1.1/" xmlns:rdf="http://www.w3.org/1999/02/22-rdf-syntax-ns#" xmlns:xlink="http://www.w3.org/1999/xlink">
 <metadata>
  <rdf:RDF>
   <cc:Work rdf:about="">
    <dc:format>image/svg+xml</dc:format>
    <dc:type rdf:resource="http://purl.org/dc/dcmitype/StillImage"/>
    <dc:title/>
   </cc:Work>
  </rdf:RDF>
 </metadata>
 <defs>
  <filter id="filter1057" x="-.027" y="-.027" width="1.054" height="1.054" color-interpolation-filters="sRGB">
   <feGaussianBlur stdDeviation="0.61875"/>
  </filter>
  <linearGradient id="linearGradient1053" x1="-127" x2="-80.659" y1="60" y2="13.659" gradientTransform="translate(131.5 -.51)" gradientUnits="userSpaceOnUse">
   <stop stop-color="#ff7d1e" offset="0"/>
   <stop stop-color="#ffa53c" offset="1"/>
  </linearGradient>
 </defs>
 <rect x="4.5" y="4.5" width="55" height="55" ry="15" fill="#141414" filter="url(#filter1057)" opacity=".3" stroke-linecap="round" stroke-width="2.7444"/>
 <rect x="4.5" y="4.5" width="55" height="55" ry="15" fill="url(#linearGradient1053)" stroke-linecap="round" stroke-width="2.7444"/>
 <g fill="#5e4aa6">
  <g transform="translate(71.977)">
   <circle cx="-1248.7" cy="-1241.6" r="0"/>
   <circle cx="-1140.3" cy="-1301.8" r="0"/>
   <circle cx="-1158.1" cy="-1246" r="0"/>
  </g>
  <circle cx="-1085.3" cy="-1267.7" r="0"/>
  <circle cx="14.221" cy="-2.1829" r="0" fill-rule="evenodd"/>
 </g>
 <g fill="#fffffe" stroke-linecap="round" stroke-width="1.045">
  <path d="m19.785 43.352-1.8887 1.9023c-0.01442 0.04324-0.01442 0.10055 0 0.1582 0.01441 0.043237 0.07321 0.087143 0.13086 0.10156l4.209 0.27344-2.4512-2.4355z" style="paint-order:stroke fill markers"/>
  <path d="m31.344 34.676-3.6465 0.77734-7.5234 7.5371 2.4512 2.5234c0.07206 0.07206 0.20063 0.07206 0.28711 0 0.086485-0.05765 0.14406-0.17376 0.11524-0.28906l-0.40234-1.7285c-0.04324-0.20177 0.056781-0.40498 0.24414-0.50586h0.015625v-0.027343c1.8302-0.87195 3.6026-1.8592 5.3066-2.9531 1.704-1.094 3.3399-2.2947 4.8965-3.5918l-1.7441-1.7422z" style="paint-order:stroke fill markers"/>
  <path d="m29.932 33.307-1.3398 1.3398c-0.02882 0.04323-0.02882 0.10129 0 0.14453 0.043244 0.028839 0.085666 0.028839 0.12891 0l2.2051-0.5625-0.99414-0.92188z" style="paint-order:stroke fill markers"/>
  <path d="m27.654 30.957-2.3496 2.3496-0.042969 0.05664c-0.043239 0.04324-0.057379 0.086883-0.042969 0.14453 0.01441 0.086483 0.10102 0.14333 0.1875 0.12891l4.0215-0.86328-1.7734-1.8164z" style="paint-order:stroke fill markers"/>
  <path d="m41.404 25.941c-0.07206 0.10089-0.15961 0.18771-0.24609 0.25977l-9.3809 8.2578 1.6719 1.6719c1.9385-1.8516 3.852-3.7292 5.3184-5.4785 0.73316-0.87464 1.3535-1.7162 1.8105-2.5078s0.75051-1.533 0.82617-2.2031z" style="paint-order:stroke fill markers"/>
  <path d="m40.021 23.711c-0.31708 0-0.63585 0.11767-0.88086 0.35547l-8.877 8.8223 1.1953 1.2539 9.3828-8.2734c0.25943-0.2306 0.40356-0.54863 0.41797-0.89453 0.0144-0.33148-0.11436-0.66319-0.35938-0.9082-0.24502-0.23781-0.56183-0.35547-0.87891-0.35547z" style="paint-order:stroke fill markers"/>
  <path d="m40.021 23.711c0.31708 0 0.63389 0.11766 0.87891 0.35547 0.24501 0.24501 0.37378 0.57672 0.35938 0.9082-0.01441 0.3459-0.15854 0.66393-0.41797 0.89453l-9.3828 8.2734-1.1953-1.2539 8.877-8.8223c0.24501-0.2378 0.56378-0.35547 0.88086-0.35547zm1.3828 2.2305c-0.075665 0.67018-0.36908 1.4116-0.82617 2.2031s-1.0774 1.6332-1.8105 2.5078c-1.4663 1.7493-3.3799 3.627-5.3184 5.4785l-1.6719-1.6719 9.3809-8.2578c0.08648-0.07206 0.17403-0.15888 0.24609-0.25977z" style="paint-order:stroke fill markers"/>
  <path d="m38.664 22.543c-0.3869-0.03125-0.83568 0.051664-1.3945 0.29492-0.55885 0.24326-1.2272 0.64641-2.0527 1.2598-1.651 1.2267-3.9307 3.2897-7.2168 6.5703l1.9023 1.9023 8.9082-8.9062c0.31699-0.31708 0.73485-0.48949 1.1816-0.50391-0.4071-0.33149-0.8122-0.57553-1.3281-0.61719z" style="paint-order:stroke fill markers"/>
  <path d="m45.91 20.025c-0.059449-0.01081-0.12399-8.78e-4 -0.18164 0.035156-0.12971 0.05765-0.20218 0.21599-0.14453 0.3457 0 0.01442 0.013672 0.014877 0.013672 0.029297 0.14412 0.28825 0.11658 0.64757-0.099609 0.89258-0.10089 0.10089-0.1165 0.27411-0.015625 0.375l0.015625 0.015625c0.05765 0.01442 0.12985 0.01442 0.1875 0 0.07206 0 0.15793-0.043916 0.20117-0.10156 0.36031-0.41796 0.43128-1.008 0.17188-1.498-0.03603-0.05044-0.088986-0.08294-0.14844-0.09375z" style="paint-order:stroke fill markers"/>
  <path d="m46.031 18.172-3.0703 3.0703 2.4062 2.4082c0.20178-0.12971 0.37588-0.28873 0.54883-0.44727 0.34951-0.34585 0.615-0.74487 0.79492-1.1699 0.17992-0.42505 0.27331-0.87682 0.2832-1.3301 0.009895-0.45326-0.06404-0.90741-0.22461-1.3379-0.16057-0.43048-0.40681-0.83666-0.73828-1.1934zm-0.12109 1.8535c0.059452 0.01081 0.11241 0.04331 0.14844 0.09375 0.25941 0.49 0.18844 1.0801-0.17188 1.498-0.04324 0.057646-0.12911 0.10156-0.20117 0.10156-0.05765 0.01442-0.12985 0.01442-0.1875 0l-0.015625-0.015625c-0.10088-0.10089-0.085265-0.27411 0.015625-0.375 0.21619-0.24501 0.24373-0.60433 0.099609-0.89258 0-0.01442-0.013672-0.014877-0.013672-0.029297-0.05765-0.12971 0.014822-0.28805 0.14453-0.3457 0.05765-0.036034 0.12219-0.045966 0.18164-0.035156z" style="paint-order:stroke fill markers"/>
  <path d="m43.248 17.033c-0.8558 0.03609-1.7003 0.37562-2.3633 1.0098-0.36391 0.34952-0.63987 0.75583-0.82812 1.1914-0.18826 0.43558-0.28803 0.90052-0.29883 1.3672-0.010802 0.46666 0.065926 0.93418 0.23438 1.377 0.16845 0.44278 0.42784 0.86068 0.77734 1.2246l-0.013672-0.029297c0.5477 0.56208 1.2476 0.91489 1.9863 1.041 0.73877 0.12613 1.5165 0.025587 2.2227-0.32031l-2.5078-2.4941c-0.086479-0.10089-0.086479-0.24481 0-0.3457l3.2285-3.2129c-0.7134-0.57648-1.5818-0.84462-2.4375-0.80859z" style="paint-order:stroke fill markers"/>
 </g>
</svg>
