<?xml version="1.0" encoding="UTF-8" standalone="no"?>
<svg
   xmlns:dc="http://purl.org/dc/elements/1.1/"
   xmlns:cc="http://creativecommons.org/ns#"
   xmlns:rdf="http://www.w3.org/1999/02/22-rdf-syntax-ns#"
   xmlns:svg="http://www.w3.org/2000/svg"
   xmlns="http://www.w3.org/2000/svg"
   xmlns:sodipodi="http://sodipodi.sourceforge.net/DTD/sodipodi-0.dtd"
   xmlns:inkscape="http://www.inkscape.org/namespaces/inkscape"
   width="64"
   height="64"
   version="1.1"
   id="svg17"
   sodipodi:docname="preferences-web-browser-ssl.svg"
   inkscape:version="1.0.1 (3bc2e813f5, 2020-09-07)">
  <metadata
     id="metadata21">
    <rdf:RDF>
      <cc:Work
         rdf:about="">
        <dc:format>image/svg+xml</dc:format>
        <dc:type
           rdf:resource="http://purl.org/dc/dcmitype/StillImage" />
        <dc:title></dc:title>
      </cc:Work>
    </rdf:RDF>
  </metadata>
  <sodipodi:namedview
     pagecolor="#ffffff"
     bordercolor="#666666"
     borderopacity="1"
     objecttolerance="10"
     gridtolerance="10"
     guidetolerance="10"
     inkscape:pageopacity="0"
     inkscape:pageshadow="2"
     inkscape:window-width="1920"
     inkscape:window-height="985"
     id="namedview19"
     showgrid="false"
     inkscape:zoom="4.5409514"
     inkscape:cx="47.811125"
     inkscape:cy="28.192472"
     inkscape:window-x="0"
     inkscape:window-y="0"
     inkscape:window-maximized="1"
     inkscape:current-layer="svg17" />
  <defs
     id="defs7">
    <linearGradient
       id="a"
       x1="40"
       x2="40"
       y1="59"
       y2="15"
       gradientUnits="userSpaceOnUse"
       gradientTransform="translate(75.268543)">
      <stop
         offset="0"
         id="stop2" />
      <stop
         stop-opacity="0"
         offset="1"
         id="stop4" />
    </linearGradient>
    <linearGradient
       id="a-35"
       x1="40"
       x2="40"
       y1="59"
       y2="15"
       gradientUnits="userSpaceOnUse"
       gradientTransform="translate(70.885227)">
      <stop
         offset="0"
         id="stop2-6" />
      <stop
         stop-opacity="0"
         offset="1"
         id="stop4-2" />
    </linearGradient>
    <linearGradient
       id="a-3"
       x1="40"
       x2="40"
       y1="59"
       y2="15"
       gradientUnits="userSpaceOnUse"
       gradientTransform="translate(73.448499)">
      <stop
         offset="0"
         id="stop2-5" />
      <stop
         stop-opacity="0"
         offset="1"
         id="stop4-6" />
    </linearGradient>
    <filter
       id="filter2761"
       x="-.024"
       y="-.024"
       width="1.048"
       height="1.048"
       color-interpolation-filters="sRGB">
      <feGaussianBlur
         stdDeviation="0.14552168"
         id="feGaussianBlur846" />
    </filter>
    <linearGradient
       id="linearGradient1024"
       x1="1.3315"
       x2="15.65"
       y1="15.576"
       y2="1.17"
       gradientUnits="userSpaceOnUse"
       gradientTransform="matrix(3.779602,0,0,3.779602,-0.00321238,0.53084538)">
      <stop
         stop-color="#00c8ff"
         offset="0"
         id="stop849" />
      <stop
         stop-color="#14a0ff"
         offset="1"
         id="stop851" />
    </linearGradient>
    <filter
       id="filter985"
       x="-.059096"
       y="-.060921"
       width="1.1182"
       height="1.1218"
       color-interpolation-filters="sRGB">
      <feGaussianBlur
         stdDeviation="0.21619832"
         id="feGaussianBlur854" />
    </filter>
    <filter
       id="filter1015"
       x="-.084"
       y="-.084"
       width="1.168"
       height="1.168"
       color-interpolation-filters="sRGB">
      <feGaussianBlur
         stdDeviation="0.3089756"
         id="feGaussianBlur857" />
    </filter>
    <linearGradient
       id="linearGradient1025"
       x1="7.9876"
       x2="12.91"
       y1="7.7203"
       y2="12.495"
       gradientUnits="userSpaceOnUse">
      <stop
         stop-color="#fafaff"
         offset="0"
         id="stop860" />
      <stop
         stop-color="#a1d8ff"
         offset="1"
         id="stop862" />
    </linearGradient>
    <filter
       id="filter2761-3"
       x="-.024"
       y="-.024"
       width="1.048"
       height="1.048"
       color-interpolation-filters="sRGB">
      <feGaussianBlur
         stdDeviation="0.14552168"
         id="feGaussianBlur2" />
    </filter>
    <linearGradient
       id="linearGradient1024-6"
       x1="1.3315"
       x2="15.65"
       y1="15.576"
       y2="1.17"
       gradientUnits="userSpaceOnUse"
       gradientTransform="translate(0.7523229,-6.0494795)">
      <stop
         stop-color="#00c8ff"
         offset="0"
         id="stop5" />
      <stop
         stop-color="#14a0ff"
         offset="1"
         id="stop7" />
    </linearGradient>
    <filter
       id="filter914"
       x="-.085107"
       y="-.082922"
       width="1.1702"
       height="1.1658"
       color-interpolation-filters="sRGB">
      <feGaussianBlur
         stdDeviation="0.33551342"
         id="feGaussianBlur10" />
    </filter>
    <style
       type="text/css"
       id="style862" />
    <filter
       id="filter1057"
       x="-.027"
       y="-.027"
       width="1.054"
       height="1.054"
       color-interpolation-filters="sRGB">
      <feGaussianBlur
         stdDeviation="0.61875"
         id="feGaussianBlur864" />
    </filter>
    <linearGradient
       id="linearGradient1053"
       x1="-127"
       x2="-72"
       y1="60"
       y2="5"
       gradientTransform="translate(131.5,-0.51000031)"
       gradientUnits="userSpaceOnUse">
      <stop
         stop-color="#32d7ff"
         offset="0"
         id="stop867" />
      <stop
         stop-color="#329bff"
         offset="1"
         id="stop869" />
    </linearGradient>
    <style
       type="text/css"
       id="style872" />
    <style
       type="text/css"
       id="style874" />
    <style
       type="text/css"
       id="style876" />
    <style
       type="text/css"
       id="style878" />
    <style
       type="text/css"
       id="style880" />
    <style
       type="text/css"
       id="style882" />
    <style
       type="text/css"
       id="style884" />
  </defs>
  <rect
     x="4.4999995"
     y="4.4999995"
     width="55"
     height="55"
     ry="15"
     fill="#141414"
     filter="url(#filter1057)"
     opacity="0.3"
     stroke-linecap="round"
     stroke-width="2.7444"
     id="rect900" />
  <rect
     x="4.5"
     y="4.5"
     width="55"
     height="55"
     ry="15"
     fill="url(#linearGradient1053)"
     stroke-linecap="round"
     stroke-width="2.7444"
     id="rect902"
     style="fill:url(#linearGradient1053)" />
  <circle
     cx="8.4673996"
     cy="8.3260002"
     r="4.4138999"
     fill="#1496ff"
     filter="url(#filter1015)"
     id="circle873"
     transform="matrix(3.779602,0,0,3.779602,-0.00321238,0.53084538)" />
  <g
     transform="matrix(3.779602,0,0,3.779602,-0.91194209,-0.57431024)"
     id="g885">
    <path
       d="m 13.048,7.8742 a 2.6848,5.7985 52.956 0 1 -0.18913,0.32349 2.6848,5.7985 52.956 0 1 -0.27698,0.40824 2.6848,5.7985 52.956 0 1 -0.31625,0.40927 2.6848,5.7985 52.956 0 1 -0.35191,0.4072 2.6848,5.7985 52.956 0 1 -0.38395,0.39997 2.6848,5.7985 52.956 0 1 -0.41289,0.38912 2.6848,5.7985 52.956 0 1 -0.43666,0.37465 2.6848,5.7985 52.956 0 1 -0.32194,0.25424 2.6848,5.7985 52.956 0 1 -0.46818,0.34106 2.6848,5.7985 52.956 0 1 -0.48058,0.31677 2.6848,5.7985 52.956 0 1 -0.48782,0.28887 2.6848,5.7985 52.956 0 1 -0.48988,0.25838 2.6848,5.7985 52.956 0 1 -0.4873,0.22582 2.6848,5.7985 52.956 0 1 -0.48058,0.19068 2.6848,5.7985 52.956 0 1 -0.3979,0.13022 4.4139,4.4139 0 0 0 1.6159,0.31057 4.4139,4.4139 0 0 0 4.4136,-4.4141 4.4139,4.4139 0 0 0 -0.04754,-0.61442 z"
       fill="#ffffff"
       opacity="0.55"
       id="path875" />
    <path
       transform="matrix(0.93108,0,0,0.94458,0.98435,0.77737)"
       d="m 8.6817,4.075 a 4.4139,4.4139 0 0 0 -4.4141,4.4136 4.4139,4.4139 0 0 0 0.11989,0.99889 4.4139,4.4139 0 0 0 2.6783,3.1047 2.6848,5.7985 52.956 0 0 0.3979,-0.13022 2.6848,5.7985 52.956 0 0 0.48058,-0.19068 2.6848,5.7985 52.956 0 0 0.4873,-0.22582 2.6848,5.7985 52.956 0 0 0.48988,-0.25838 2.6848,5.7985 52.956 0 0 0.48782,-0.28887 2.6848,5.7985 52.956 0 0 0.48058,-0.31677 2.6848,5.7985 52.956 0 0 0.46818,-0.34106 2.6848,5.7985 52.956 0 0 0.32194,-0.25424 2.6848,5.7985 52.956 0 0 0.43666,-0.37465 2.6848,5.7985 52.956 0 0 0.41289,-0.38912 2.6848,5.7985 52.956 0 0 0.38395,-0.39997 2.6848,5.7985 52.956 0 0 0.35191,-0.4072 2.6848,5.7985 52.956 0 0 0.31625,-0.40927 2.6848,5.7985 52.956 0 0 0.27698,-0.40824 2.6848,5.7985 52.956 0 0 0.18913,-0.32349 4.4139,4.4139 0 0 0 -2.0665,-3.147 4.4139,4.4139 0 0 0 -2.2996,-0.65214 z"
       fill="#0096ff"
       filter="url(#filter985)"
       opacity="0.25"
       id="path877" />
    <path
       d="m 8.6817,4.075 a 4.4139,4.4139 0 0 0 -4.4141,4.4136 4.4139,4.4139 0 0 0 0.11989,0.99889 4.4139,4.4139 0 0 0 2.6783,3.1047 2.6848,5.7985 52.956 0 0 0.3979,-0.13022 2.6848,5.7985 52.956 0 0 0.48058,-0.19068 2.6848,5.7985 52.956 0 0 0.4873,-0.22582 2.6848,5.7985 52.956 0 0 0.48988,-0.25838 2.6848,5.7985 52.956 0 0 0.48782,-0.28887 2.6848,5.7985 52.956 0 0 0.48058,-0.31677 2.6848,5.7985 52.956 0 0 0.46818,-0.34106 2.6848,5.7985 52.956 0 0 0.32194,-0.25424 2.6848,5.7985 52.956 0 0 0.43666,-0.37465 2.6848,5.7985 52.956 0 0 0.41289,-0.38912 2.6848,5.7985 52.956 0 0 0.38395,-0.39997 2.6848,5.7985 52.956 0 0 0.35191,-0.4072 2.6848,5.7985 52.956 0 0 0.31625,-0.40927 2.6848,5.7985 52.956 0 0 0.27698,-0.40824 2.6848,5.7985 52.956 0 0 0.18913,-0.32349 4.4139,4.4139 0 0 0 -2.0665,-3.147 4.4139,4.4139 0 0 0 -2.2996,-0.65214 z"
       fill="url(#linearGradient1025)"
       id="path879"
       style="fill:url(#linearGradient1025)" />
    <path
       d="m 13.039,7.8737 a 2.6848,5.7985 52.956 0 0 0.2408,-2.6515 2.6848,5.7985 52.956 0 0 -2.3083,-0.49505 4.4139,4.4139 0 0 1 0.19327,0.11885 4.4139,4.4139 0 0 1 0.35139,0.26665 4.4139,4.4139 0 0 1 0.32297,0.30075 4.4139,4.4139 0 0 1 0.29093,0.33176 4.4139,4.4139 0 0 1 0.25683,0.35863 4.4139,4.4139 0 0 1 0.21962,0.38292 4.4139,4.4139 0 0 1 0.18035,0.40255 4.4139,4.4139 0 0 1 0.13901,0.41857 4.4139,4.4139 0 0 1 0.09663,0.43046 4.4139,4.4139 0 0 1 0.01654,0.13539 z"
       fill="#ffffff"
       opacity="0.55"
       id="path881" />
    <path
       d="M 4.4055,9.4875 A 2.6848,5.7985 52.956 0 0 4.09235,12.263 2.6848,5.7985 52.956 0 0 7.08385,12.59217 4.4139,4.4139 0 0 1 6.9805,12.55445 4.4139,4.4139 0 0 1 6.58311,12.36222 4.4139,4.4139 0 0 1 6.20743,12.13175 4.4139,4.4139 0 0 1 5.85604,11.86459 4.4139,4.4139 0 0 1 5.53307,11.56384 4.4139,4.4139 0 0 1 5.24214,11.2326 4.4139,4.4139 0 0 1 4.98531,10.87346 4.4139,4.4139 0 0 1 4.76569,10.49106 4.4139,4.4139 0 0 1 4.58534,10.08799 4.4139,4.4139 0 0 1 4.44633,9.66942 4.4139,4.4139 0 0 1 4.40551,9.48752 Z"
       fill="#ffffff"
       opacity="0.55"
       id="path883" />
  </g>
  <circle
     cx="-1288.4114"
     cy="-1279.3"
     r="0"
     fill="#5e4aa6"
     id="circle888"
     style="stroke-width:1" />
  <circle
     cx="-1169.9579"
     cy="-1318.5997"
     r="0"
     id="circle890"
     style="fill:#5e4aa6;stroke-width:1.00001" />
  <circle
     cx="-70.419533"
     cy="-53.108513"
     r="0"
     fill-rule="evenodd"
     id="circle892"
     style="fill:#5e4aa6;stroke-width:1.00001" />
  <circle
     cx="-1091.4556"
     cy="-1390.1099"
     r="0"
     id="circle894"
     style="fill:#5e4aa6;stroke-width:1.00001" />
  <circle
     cx="8.0797834"
     cy="-124.58192"
     r="0"
     fill-rule="evenodd"
     id="circle896"
     style="fill:#5e4aa6;stroke-width:1.00001" />
  <path
     style="color:#000000;font-style:normal;font-variant:normal;font-weight:normal;font-stretch:normal;font-size:medium;line-height:normal;font-family:sans-serif;font-variant-ligatures:normal;font-variant-position:normal;font-variant-caps:normal;font-variant-numeric:normal;font-variant-alternates:normal;font-variant-east-asian:normal;font-feature-settings:normal;font-variation-settings:normal;text-indent:0;text-align:start;text-decoration:none;text-decoration-line:none;text-decoration-style:solid;text-decoration-color:#000000;letter-spacing:normal;word-spacing:normal;text-transform:none;writing-mode:lr-tb;direction:ltr;text-orientation:mixed;dominant-baseline:auto;baseline-shift:baseline;text-anchor:start;white-space:normal;shape-padding:0;shape-margin:0;inline-size:0;clip-rule:nonzero;display:inline;overflow:visible;visibility:visible;isolation:auto;mix-blend-mode:normal;color-interpolation:sRGB;color-interpolation-filters:linearRGB;solid-color:#000000;solid-opacity:1;vector-effect:none;fill:#004b87;fill-opacity:1;fill-rule:nonzero;stroke:none;stroke-width:0.769231;stroke-linecap:butt;stroke-linejoin:miter;stroke-miterlimit:4;stroke-dasharray:none;stroke-dashoffset:0;stroke-opacity:1;color-rendering:auto;image-rendering:auto;shape-rendering:auto;text-rendering:auto;enable-background:accumulate;stop-color:#000000"
     d="m 44.196496,31.025197 c -2.556923,0 -4.615384,2.058462 -4.615384,4.615385 v 4.615384 H 36.504191 V 51.025197 H 51.888804 V 40.255966 h -3.076923 v -4.615384 c 0,-2.556923 -2.058462,-4.615385 -4.615385,-4.615385 z m 0,1.538462 c 1.916923,0 3.076923,0.84 3.076923,3.076923 v 4.615384 h -6.153846 v -4.615384 c 0,-2.236923 1.16,-3.076923 3.076923,-3.076923 z"
     id="path977" />
</svg>
