<?xml version="1.0" encoding="UTF-8"?>
<svg width="64" height="64" version="1.1" viewBox="0 0 16.933 16.933" xmlns="http://www.w3.org/2000/svg" xmlns:cc="http://creativecommons.org/ns#" xmlns:dc="http://purl.org/dc/elements/1.1/" xmlns:rdf="http://www.w3.org/1999/02/22-rdf-syntax-ns#" xmlns:xlink="http://www.w3.org/1999/xlink">
 <defs>
  <filter id="filter1057-36" x="-.027" y="-.027" width="1.054" height="1.054" color-interpolation-filters="sRGB">
   <feGaussianBlur stdDeviation="0.61875"/>
  </filter>
  <linearGradient id="linearGradient1068" x1="1.3315" x2="13.449" y1="15.576" y2="3.4588" gradientTransform="matrix(1 0 0 1 8.9666 9.0135)" gradientUnits="userSpaceOnUse">
   <stop stop-color="#3caaff" offset="0"/>
   <stop stop-color="#b496ff" offset="1"/>
  </linearGradient>
 </defs>
 <metadata>
  <rdf:RDF>
   <cc:Work rdf:about="">
    <dc:format>image/svg+xml</dc:format>
    <dc:type rdf:resource="http://purl.org/dc/dcmitype/StillImage"/>
    <dc:title/>
   </cc:Work>
  </rdf:RDF>
 </metadata>
 <g transform="translate(-8.9675 -8.873)">
  <rect transform="matrix(.26458 0 0 .26458 9.7652 9.6707)" x="1.485" y="1.485" width="55" height="55" ry="15" fill="#141414" filter="url(#filter1057-36)" opacity=".3" stroke-linecap="round" stroke-width="2.7444"/>
  <path d="m15.192 10.064c-0.66533 0-1.235 0.01867-1.7389 0.06098-1.6041 0.27254-2.8749 1.497-3.2086 3.0789-3.4e-5 3.21e-4 3.3e-5 7.12e-4 0 1e-3 -0.06492 0.6219-0.08682 1.3632-0.08682 2.2469v3.7765c0 0.88366 0.02189 1.625 0.08682 2.2469 3.3e-5 3.22e-4 -3.4e-5 7.13e-4 0 1e-3 0.33367 1.5819 1.6045 2.8063 3.2086 3.0789 0.50391 0.0423 1.0736 0.06098 1.7389 0.06098h4.4834c0.66532 0 1.235-0.01867 1.7389-0.06098 1.6041-0.27254 2.8749-1.497 3.2086-3.0789 6.9e-5 -3.29e-4 -7e-5 -7.05e-4 0-1e-3 0.06492-0.6219 0.08681-1.3632 0.08681-2.2469v-3.7765c0-0.88366-0.02189-1.625-0.08681-2.2469-7e-5 -3.29e-4 6.9e-5 -7.05e-4 0-1e-3 -0.33367-1.5819-1.6045-2.8063-3.2086-3.0789-0.50391-0.04231-1.0736-0.06098-1.7389-0.06098z" fill="url(#linearGradient1068)"/>
  <g stroke-width=".019409">
   <path d="m22.138 13.511h-7.7784c-0.29614 0-0.53306 0.23693-0.53306 0.53306v5.403c0 0.29614 0.23693 0.53306 0.53306 0.53306h7.7724c0.29614 0 0.53306-0.23693 0.53306-0.53306v-5.403c0.0066-0.29614-0.23693-0.53306-0.52649-0.53306z" fill="#f1f3f7"/>
   <rect x="14.36" y="14.821" width="7.7784" height="4.6001" fill="#fcfcfd"/>
   <circle cx="21.968" cy="14.202" r=".17111" fill="#f0582f"/>
   <circle cx="21.369" cy="14.202" r=".17111" fill="#fbd303"/>
   <circle cx="20.769" cy="14.202" r=".17111" fill="#6eb1e1"/>
  </g>
  <path d="m11.811 20.471h2.1866v2.1866h-2.1866z" fill="#fff" opacity=".1" stroke-width="1.3322"/>
  <path d="m12.625 15.876-0.814 1.7561c0.1314-0.07437 0.27436-0.12809 0.42229-0.1628l0.39502 3.832 0.39419-3.8328c0.1471 0.03471 0.28841 0.08843 0.4165 0.16363zm4.3477 5.1542c0.07437 0.1314 0.12809 0.27436 0.1628 0.42229l-3.9684 0.39502 3.9692 0.39502a1.5206 1.5206 0 0 1-0.16363 0.41568l1.7561-0.814z" fill="#fff" stroke-width="1.3322"/>
  <path d="m11.946 18.727h3.7981v3.7981h-3.7981z" fill="none" opacity=".2" stroke="#fff" stroke-dasharray="0.704881, 0.704881" stroke-dashoffset=".8264" stroke-width=".43732"/>
 </g>
</svg>
