<?xml version="1.0" encoding="UTF-8" standalone="no"?>
<svg
   xmlns:dc="http://purl.org/dc/elements/1.1/"
   xmlns:cc="http://creativecommons.org/ns#"
   xmlns:rdf="http://www.w3.org/1999/02/22-rdf-syntax-ns#"
   xmlns:svg="http://www.w3.org/2000/svg"
   xmlns="http://www.w3.org/2000/svg"
   xmlns:xlink="http://www.w3.org/1999/xlink"
   xmlns:sodipodi="http://sodipodi.sourceforge.net/DTD/sodipodi-0.dtd"
   xmlns:inkscape="http://www.inkscape.org/namespaces/inkscape"
   width="64"
   height="64"
   version="1.1"
   viewBox="0 0 16.933 16.933"
   id="svg210"
   sodipodi:docname="preferences-color2.svg"
   inkscape:version="1.0.2 (e86c870879, 2021-01-15)">
  <metadata
     id="metadata214">
    <rdf:RDF>
      <cc:Work
         rdf:about="">
        <dc:format>image/svg+xml</dc:format>
        <dc:type
           rdf:resource="http://purl.org/dc/dcmitype/StillImage" />
        <dc:title></dc:title>
      </cc:Work>
    </rdf:RDF>
  </metadata>
  <sodipodi:namedview
     pagecolor="#ffffff"
     bordercolor="#666666"
     borderopacity="1"
     objecttolerance="10"
     gridtolerance="10"
     guidetolerance="10"
     inkscape:pageopacity="0"
     inkscape:pageshadow="2"
     inkscape:window-width="1920"
     inkscape:window-height="940"
     id="namedview212"
     showgrid="false"
     inkscape:zoom="6.0546875"
     inkscape:cx="-2.8218869"
     inkscape:cy="24.334224"
     inkscape:window-x="0"
     inkscape:window-y="38"
     inkscape:window-maximized="1"
     inkscape:current-layer="svg210" />
  <defs
     id="defs80">
    <linearGradient
       id="linearGradient862-3"
       x1="7.9373"
       x2="7.9373"
       y1="15.081"
       y2="1.852"
       gradientTransform="matrix(0.99997,0,0,0.99997,0.18441016,-1.8240685)"
       gradientUnits="userSpaceOnUse">
      <stop
         stop-color="#f1efeb"
         offset="0"
         id="stop2" />
      <stop
         stop-color="#fdfcfc"
         offset="1"
         id="stop4" />
    </linearGradient>
    <linearGradient
       id="linearGradient921"
       x1="4.7162"
       x2="4.7162"
       y1="12.46"
       y2="10.806"
       gradientTransform="translate(.031579 -.025181)"
       gradientUnits="userSpaceOnUse">
      <stop
         stop-color="#8290ae"
         offset="0"
         id="stop7" />
      <stop
         stop-color="#fff"
         offset="1"
         id="stop9" />
    </linearGradient>
    <linearGradient
       id="linearGradient925"
       x1="4.7162"
       x2="4.7162"
       y1="12.56"
       y2="10.806"
       gradientTransform="matrix(.60872 0 0 .60872 1.8827 4.5398)"
       gradientUnits="userSpaceOnUse">
      <stop
         stop-color="#c0c6d4"
         offset="0"
         id="stop12" />
      <stop
         stop-color="#515769"
         offset="1"
         id="stop14" />
    </linearGradient>
    <linearGradient
       id="linearGradient929"
       x1="4.7162"
       x2="4.7162"
       y1="12.56"
       y2="10.806"
       gradientTransform="matrix(.38175 0 0 .38175 2.9564 7.1877)"
       gradientUnits="userSpaceOnUse">
      <stop
         stop-color="#2f323b"
         offset="0"
         id="stop17" />
      <stop
         stop-color="#111419"
         offset="1"
         id="stop19" />
    </linearGradient>
    <radialGradient
       id="radialGradient981"
       cx="18"
       cy="44"
       r="4"
       gradientTransform="translate(0 -.00063009)"
       gradientUnits="userSpaceOnUse">
      <stop
         stop-color="#8290ae"
         offset="0"
         id="stop22" />
      <stop
         stop-color="#020403"
         offset=".75"
         id="stop24" />
      <stop
         stop-color="#2b402c"
         offset=".84466"
         id="stop26" />
      <stop
         stop-color="#3a5635"
         offset=".88874"
         id="stop28" />
      <stop
         stop-color="#4a8242"
         offset=".94376"
         id="stop30" />
      <stop
         stop-color="#010201"
         offset="1"
         id="stop32" />
    </radialGradient>
    <filter
       id="filter1037"
       x="-.012"
       y="-.012"
       width="1.024"
       height="1.024"
       color-interpolation-filters="sRGB">
      <feGaussianBlur
         stdDeviation="0.040000286"
         id="feGaussianBlur35" />
    </filter>
    <radialGradient
       id="radialGradient1043"
       cx="4.7624"
       cy="11.377"
       r="1.0583"
       gradientUnits="userSpaceOnUse">
      <stop
         stop-opacity="0"
         offset="0"
         id="stop38" />
      <stop
         stop-opacity="0"
         offset=".70384"
         id="stop40" />
      <stop
         offset="1"
         id="stop42" />
    </radialGradient>
    <radialGradient
       id="radialGradient1057"
       cx="4.7624"
       cy="11.641"
       r=".64421"
       gradientTransform="scale(3.7796)"
       gradientUnits="userSpaceOnUse">
      <stop
         stop-opacity="0"
         offset="0"
         id="stop45" />
      <stop
         stop-opacity="0"
         offset=".8214"
         id="stop47" />
      <stop
         offset="1"
         id="stop49" />
    </radialGradient>
    <radialGradient
       id="radialGradient1076"
       cx="4.7624"
       cy="11.641"
       r="1.0583"
       gradientTransform="matrix(1.25 0 0 1.25 -1.1906 -2.6458)"
       gradientUnits="userSpaceOnUse">
      <stop
         offset="0"
         id="stop52" />
      <stop
         stop-color="#111419"
         stop-opacity="0"
         offset="1"
         id="stop54" />
    </radialGradient>
    <linearGradient
       id="linearGradient1226"
       x1="4.7624"
       x2="4.7624"
       y1="12.725"
       y2="3.9687"
       gradientUnits="userSpaceOnUse">
      <stop
         stop-color="#4dae33"
         offset="0"
         id="stop57" />
      <stop
         stop-color="#6fc84a"
         offset="1"
         id="stop59" />
    </linearGradient>
    <linearGradient
       id="linearGradient1234"
       x1="4.7624"
       x2="4.7624"
       y1="12.171"
       y2="3.7041"
       gradientUnits="userSpaceOnUse">
      <stop
         stop-color="#fcaa00"
         offset="0"
         id="stop62" />
      <stop
         stop-color="#fdc500"
         offset="1"
         id="stop64" />
    </linearGradient>
    <linearGradient
       id="linearGradient1242"
       x1="4.7624"
       x2="4.7624"
       y1="12.435"
       y2="3.7041"
       gradientUnits="userSpaceOnUse">
      <stop
         stop-color="#f36d01"
         offset="0"
         id="stop67" />
      <stop
         stop-color="#f69901"
         offset="1"
         id="stop69" />
    </linearGradient>
    <linearGradient
       id="linearGradient1250"
       x1="4.7624"
       x2="4.7624"
       y1="12.435"
       y2="3.7041"
       gradientTransform="rotate(90,5.19,12.069)"
       gradientUnits="userSpaceOnUse">
      <stop
         stop-color="#db2f2f"
         offset="0"
         id="stop72" />
      <stop
         stop-color="#e54243"
         offset="1"
         id="stop74" />
    </linearGradient>
    <filter
       id="filter1275"
       x="-.10778"
       y="-.10822"
       width="1.2156"
       height="1.2164"
       color-interpolation-filters="sRGB">
      <feGaussianBlur
         stdDeviation="0.47804664"
         id="feGaussianBlur77" />
    </filter>
    <filter
       id="filter2761"
       x="-.024"
       y="-.024"
       width="1.048"
       height="1.048"
       color-interpolation-filters="sRGB">
      <feGaussianBlur
         stdDeviation="0.14552168"
         id="feGaussianBlur4" />
    </filter>
    <linearGradient
       id="linearGradient1024-6"
       x1="1.3315"
       x2="15.65"
       y1="15.576"
       y2="1.17"
       gradientTransform="matrix(3.7796,0,0,3.7796,-78.105,-30.394)"
       gradientUnits="userSpaceOnUse">
      <stop
         stop-color="#dddfe1"
         offset="0"
         id="stop7-3" />
      <stop
         stop-color="#f3f4f6"
         stop-opacity=".99608"
         offset="1"
         id="stop9-6" />
    </linearGradient>
    <filter
       id="filter2761-3"
       x="-.024"
       y="-.024"
       width="1.048"
       height="1.048"
       color-interpolation-filters="sRGB">
      <feGaussianBlur
         stdDeviation="0.14552168"
         id="feGaussianBlur4-7" />
    </filter>
    <linearGradient
       id="linearGradient1024"
       x1="1.3315"
       x2="15.65"
       y1="15.576"
       y2="1.17"
       gradientTransform="translate(-.00084984 .14045)"
       gradientUnits="userSpaceOnUse">
      <stop
         stop-color="#dddfe1"
         offset="0"
         id="stop7-5" />
      <stop
         stop-color="#f3f4f6"
         stop-opacity=".99608"
         offset="1"
         id="stop9-3" />
    </linearGradient>
    <filter
       color-interpolation-filters="sRGB"
       height="1.048"
       width="1.048"
       y="-.024"
       x="-.024"
       id="filter2761-3-3">
      <feGaussianBlur
         id="feGaussianBlur2"
         stdDeviation="0.14552168" />
    </filter>
    <linearGradient
       gradientUnits="userSpaceOnUse"
       gradientTransform="matrix(3.7796 0 0 3.7796 -.0026448 .53066)"
       y2="1.17"
       y1="15.576"
       x2="15.65"
       x1="1.3315"
       id="linearGradient1024-6-5">
      <stop
         id="stop5"
         offset="0"
         stop-color="#dddfe1" />
      <stop
         id="stop7-7"
         offset="1"
         stop-opacity=".99608"
         stop-color="#f3f4f6" />
    </linearGradient>
    <filter
       inkscape:collect="always"
       style="color-interpolation-filters:sRGB"
       id="filter1057"
       x="-0.027000001"
       width="1.054"
       y="-0.027000001"
       height="1.054">
      <feGaussianBlur
         inkscape:collect="always"
         stdDeviation="0.61875"
         id="feGaussianBlur1059" />
    </filter>
    <linearGradient
       inkscape:collect="always"
       xlink:href="#linearGradient1051"
       id="linearGradient1053"
       x1="-127"
       y1="60"
       x2="-72"
       y2="5"
       gradientUnits="userSpaceOnUse"
       gradientTransform="matrix(0.26457812,0,0,0.26457812,34.792023,-0.13493408)" />
    <linearGradient
       inkscape:collect="always"
       id="linearGradient1051">
      <stop
         style="stop-color:#dee0e2;stop-opacity:1"
         offset="0"
         id="stop1047" />
      <stop
         style="stop-color:#f1f3f5;stop-opacity:0.99607843"
         offset="1"
         id="stop1049" />
    </linearGradient>
  </defs>
  <rect
     ry="15"
     y="4.4999995"
     x="4.4999995"
     height="55"
     width="55"
     id="rect1055"
     style="opacity:0.3;fill:#141414;fill-opacity:1;stroke-width:2.74436;stroke-linecap:round;filter:url(#filter1057)"
     transform="scale(0.26457812)" />
  <rect
     style="fill:url(#linearGradient1053);fill-opacity:1;stroke-width:0.726098;stroke-linecap:round"
     id="rect1045"
     width="14.551796"
     height="14.551796"
     x="1.1906021"
     y="1.1906021"
     ry="3.9686716" />
  <path
     transform="rotate(90 4.9631 12.296)"
     d="m-3.5091 11.696c0 1.1726 0.94401 2.1166 2.1166 2.1166h6.3499c0.55884 0 1.0642-0.21602 1.4417-0.5674 0.00686-0.0062 0.013885-0.01226 0.02067-0.0186 0.032601-0.03115 0.063498-0.06398 0.094049-0.09715 0.022668-0.0241 0.045514-0.04805 0.067178-0.07338 0.00977-0.01166 0.018906-0.02379 0.028422-0.03566 0.072627-0.08869 0.14072-0.1826 0.19998-0.28525 0.24373-0.42215 0.3241-0.89122 0.26458-1.3379v-6.1127c0-1.1726-0.94401-2.1166-2.1166-2.1166-0.84158 0-1.5631 0.48774-1.9048 1.1958-0.65912-0.51324-1.5861-0.60543-2.3564-0.16071-0.79216 0.45735-1.1743 1.3422-1.0268 2.1916-0.79644-0.073476-1.5976 0.30853-2.0252 1.049-0.43389 0.75153-0.35663 1.6527 0.12402 2.3083-0.75256 0.32381-1.2774 1.0701-1.2774 1.944z"
     filter="url(#filter1275)"
     opacity=".15"
     id="path96" />
  <g
     stroke-linecap="round"
     stroke-linejoin="round"
     id="g208">
    <path
       d="m14.084 11.641c0 1.1726-0.94401 2.1166-2.1166 2.1166h-6.3499c-1.1726 0-2.1166-0.94401-2.1166-2.1166s0.94402-2.1166 2.1166-2.1166h6.3499c1.1726 0 2.1166 0.94401 2.1166 2.1166z"
       fill="url(#linearGradient1250)"
       stroke="#7f7f7f"
       stroke-opacity=".2"
       stroke-width=".052916"
       id="path98" />
    <g
       transform="rotate(90,5.19,12.069)"
       stroke-opacity=".15"
       id="g118">
      <g
         stroke-width=".052916"
         id="g114">
        <rect
           x="3.1749"
           y="8.7925"
           width="3.1749"
           height="1.3229"
           rx=".26458"
           ry=".26458"
           fill="none"
           stroke="#fdfdfd"
           id="rect100" />
        <rect
           x="3.1749"
           y="7.2051"
           width="3.1749"
           height="1.3229"
           rx=".26458"
           ry=".26458"
           fill="none"
           stroke="#fdfdfd"
           id="rect102" />
        <rect
           x="3.1749"
           y="8.7311"
           width="3.1749"
           height="1.3229"
           rx=".26458"
           ry=".26458"
           fill="#bb1112"
           stroke="#000"
           id="rect104" />
        <rect
           x="3.1749"
           y="5.6176"
           width="3.1749"
           height="1.3229"
           rx=".26458"
           ry=".26458"
           fill="none"
           stroke="#fdfdfd"
           id="rect106" />
        <rect
           x="3.1749"
           y="7.1436"
           width="3.1749"
           height="1.3229"
           rx=".26458"
           ry=".26458"
           fill="#c72020"
           stroke="#000"
           id="rect108" />
        <path
           d="m4.7624 3.7656c-0.81246 0-1.4773 0.60462-1.574 1.3901 0.030141 0.113 0.12838 0.1974 0.25114 0.1974h2.6458c0.12276 0 0.221-0.084398 0.25114-0.1974-0.096781-0.78545-0.76157-1.3901-1.574-1.3901z"
           fill="none"
           stroke="#fdfdfd"
           id="path110" />
        <rect
           x="3.1749"
           y="5.5561"
           width="3.1749"
           height="1.3229"
           rx=".26458"
           ry=".26458"
           fill="#d22b2b"
           stroke="#000"
           id="rect112" />
      </g>
      <path
         transform="scale(.26458)"
         d="m18 14c-3.0708 0-5.5834 2.2852-5.9492 5.2539 0.11392 0.4271 0.48524 0.74609 0.94922 0.74609h10c0.46398 0 0.8353-0.31899 0.94922-0.74609-0.36579-2.9687-2.8784-5.2539-5.9492-5.2539z"
         fill="#db3636"
         stroke="#000"
         stroke-width=".2"
         id="path116" />
    </g>
    <g
       transform="rotate(60 5.264 12.454)"
       id="g142">
      <path
         d="m4.7624 3.1749c1.1726 0 2.1166 0.94401 2.1166 2.1166v6.3499c0 1.1726-0.94401 2.1166-2.1166 2.1166s-2.1166-0.94402-2.1166-2.1166v-6.3499c0-1.1726 0.94401-2.1166 2.1166-2.1166z"
         fill="url(#linearGradient1242)"
         stroke="#7f7f7f"
         stroke-opacity=".2"
         stroke-width=".052916"
         id="path120" />
      <g
         stroke-opacity=".15"
         id="g140">
        <g
           stroke-width=".052916"
           id="g136">
          <rect
             x="3.1749"
             y="8.7925"
             width="3.1749"
             height="1.3229"
             rx=".26458"
             ry=".26458"
             fill="none"
             stroke="#fdfdfd"
             id="rect122" />
          <rect
             x="3.1749"
             y="7.2051"
             width="3.1749"
             height="1.3229"
             rx=".26458"
             ry=".26458"
             fill="none"
             stroke="#fdfdfd"
             id="rect124" />
          <rect
             x="3.1749"
             y="8.7311"
             width="3.1749"
             height="1.3229"
             rx=".26458"
             ry=".26458"
             fill="#ce5801"
             stroke="#000"
             id="rect126" />
          <rect
             x="3.1749"
             y="5.6176"
             width="3.1749"
             height="1.3229"
             rx=".26458"
             ry=".26458"
             fill="none"
             stroke="#fdfdfd"
             id="rect128" />
          <rect
             x="3.1749"
             y="7.1436"
             width="3.1749"
             height="1.3229"
             rx=".26458"
             ry=".26458"
             fill="#dd6d01"
             stroke="#000"
             id="rect130" />
          <path
             d="m4.7624 3.7656c-0.81246 0-1.4773 0.60462-1.574 1.3901 0.030141 0.113 0.12838 0.1974 0.25114 0.1974h2.6458c0.12276 0 0.221-0.084398 0.25114-0.1974-0.096781-0.78545-0.76157-1.3901-1.574-1.3901z"
             fill="none"
             stroke="#fdfdfd"
             id="path132" />
          <rect
             x="3.1749"
             y="5.5561"
             width="3.1749"
             height="1.3229"
             rx=".26458"
             ry=".26458"
             fill="#e57d00"
             stroke="#000"
             id="rect134" />
        </g>
        <path
           transform="scale(.26458)"
           d="m18 14c-3.0708 0-5.5834 2.2852-5.9492 5.2539 0.11392 0.4271 0.48524 0.74609 0.94922 0.74609h10c0.46398 0 0.8353-0.31899 0.94922-0.74609-0.36579-2.9687-2.8784-5.2539-5.9492-5.2539z"
           fill="#ed8b01"
           stroke="#000"
           stroke-width=".2"
           id="path138" />
      </g>
    </g>
    <g
       transform="rotate(30 5.1333 13.168)"
       id="g166">
      <path
         d="m4.7624 3.1749c1.1726 0 2.1166 0.94401 2.1166 2.1166v6.3499c0 1.1726-0.94401 2.1166-2.1166 2.1166s-2.1166-0.94402-2.1166-2.1166v-6.3499c0-1.1726 0.94401-2.1166 2.1166-2.1166z"
         fill="url(#linearGradient1234)"
         stroke="#7f7f7f"
         stroke-opacity=".2"
         stroke-width=".052916"
         id="path144" />
      <g
         stroke-opacity=".15"
         id="g164">
        <g
           stroke-width=".052916"
           id="g160">
          <rect
             x="3.1749"
             y="8.7925"
             width="3.1749"
             height="1.3229"
             rx=".26458"
             ry=".26458"
             fill="none"
             stroke="#fdfdfd"
             id="rect146" />
          <rect
             x="3.1749"
             y="7.2051"
             width="3.1749"
             height="1.3229"
             rx=".26458"
             ry=".26458"
             fill="none"
             stroke="#fdfdfd"
             id="rect148" />
          <rect
             x="3.1749"
             y="8.7311"
             width="3.1749"
             height="1.3229"
             rx=".26458"
             ry=".26458"
             fill="#d68f01"
             stroke="#000"
             id="rect150" />
          <rect
             x="3.1749"
             y="5.6176"
             width="3.1749"
             height="1.3229"
             rx=".26458"
             ry=".26458"
             fill="none"
             stroke="#fdfdfd"
             id="rect152" />
          <rect
             x="3.1749"
             y="7.1436"
             width="3.1749"
             height="1.3229"
             rx=".26458"
             ry=".26458"
             fill="#e3a101"
             stroke="#000"
             id="rect154" />
          <path
             d="m4.7624 3.7656c-0.81246 0-1.4773 0.60462-1.574 1.3901 0.030141 0.113 0.12838 0.1974 0.25114 0.1974h2.6458c0.12276 0 0.221-0.084398 0.25114-0.1974-0.096781-0.78545-0.76157-1.3901-1.574-1.3901z"
             fill="none"
             stroke="#fdfdfd"
             id="path156" />
          <rect
             x="3.1749"
             y="5.5561"
             width="3.1749"
             height="1.3229"
             rx=".26458"
             ry=".26458"
             fill="#eaad01"
             stroke="#000"
             id="rect158" />
        </g>
        <path
           transform="scale(.26458)"
           d="m18 14c-3.0708 0-5.5834 2.2852-5.9492 5.2539 0.11392 0.4271 0.48524 0.74609 0.94922 0.74609h10c0.46398 0 0.8353-0.31899 0.94922-0.74609-0.36579-2.9687-2.8784-5.2539-5.9492-5.2539z"
           fill="#f2b800"
           stroke="#000"
           stroke-width=".2"
           id="path162" />
      </g>
    </g>
    <g
       transform="translate(.79373)"
       id="g190">
      <path
         d="m4.7624 3.1749c1.1726 0 2.1166 0.94401 2.1166 2.1166v6.3499c0 1.1726-0.94401 2.1166-2.1166 2.1166s-2.1166-0.94402-2.1166-2.1166v-6.3499c0-1.1726 0.94401-2.1166 2.1166-2.1166z"
         fill="url(#linearGradient1226)"
         stroke="#7f7f7f"
         stroke-opacity=".2"
         stroke-width=".052916"
         id="path168" />
      <g
         stroke-opacity=".15"
         id="g188">
        <g
           stroke-width=".052916"
           id="g184">
          <rect
             x="3.1749"
             y="8.7925"
             width="3.1749"
             height="1.3229"
             rx=".26458"
             ry=".26458"
             fill="none"
             stroke="#fdfdfd"
             id="rect170" />
          <rect
             x="3.1749"
             y="7.2051"
             width="3.1749"
             height="1.3229"
             rx=".26458"
             ry=".26458"
             fill="none"
             stroke="#fdfdfd"
             id="rect172" />
          <rect
             x="3.1749"
             y="8.7311"
             width="3.1749"
             height="1.3229"
             rx=".26458"
             ry=".26458"
             fill="#29860a"
             stroke="#000"
             id="rect174" />
          <rect
             x="3.1749"
             y="5.6176"
             width="3.1749"
             height="1.3229"
             rx=".26458"
             ry=".26458"
             fill="none"
             stroke="#fdfdfd"
             id="rect176" />
          <rect
             x="3.1749"
             y="7.1436"
             width="3.1749"
             height="1.3229"
             rx=".26458"
             ry=".26458"
             fill="#3b9a1a"
             stroke="#000"
             id="rect178" />
          <path
             d="m4.7624 3.7656c-0.81246 0-1.4773 0.60462-1.574 1.3901 0.030141 0.113 0.12838 0.1974 0.25114 0.1974h2.6458c0.12276 0 0.221-0.084398 0.25114-0.1974-0.096781-0.78545-0.76157-1.3901-1.574-1.3901z"
             fill="none"
             stroke="#fdfdfd"
             id="path180" />
          <rect
             x="3.1749"
             y="5.5561"
             width="3.1749"
             height="1.3229"
             rx=".26458"
             ry=".26458"
             fill="#4eaa2a"
             stroke="#000"
             id="rect182" />
        </g>
        <path
           transform="scale(.26458)"
           d="m18 14c-3.0708 0-5.5834 2.2852-5.9492 5.2539 0.11392 0.4271 0.48524 0.74609 0.94922 0.74609h10c0.46398 0 0.8353-0.31899 0.94922-0.74609-0.36579-2.9687-2.8784-5.2539-5.9492-5.2539z"
           fill="#5db837"
           stroke="#000"
           stroke-width=".2"
           id="path186" />
      </g>
    </g>
    <g
       transform="translate(.79373)"
       id="g206">
      <circle
         cx="4.7624"
         cy="11.906"
         r="1.3229"
         fill="url(#radialGradient1076)"
         stroke-width="1.0162"
         id="circle192" />
      <circle
         cx="4.7624"
         cy="11.641"
         r="1.0583"
         fill="url(#linearGradient921)"
         stroke-width=".81296"
         id="circle194" />
      <circle
         cx="4.7624"
         cy="11.641"
         r="1.0583"
         fill="url(#radialGradient1043)"
         opacity=".35"
         stroke-width=".81296"
         id="circle196" />
      <circle
         cx="4.7624"
         cy="11.641"
         r=".64421"
         fill="url(#linearGradient925)"
         stroke-width=".49486"
         id="circle198" />
      <circle
         cx="4.7624"
         cy="11.641"
         r=".40401"
         fill="url(#linearGradient929)"
         stroke-width=".31034"
         id="circle200" />
      <path
         transform="scale(.26458)"
         d="m17.939 40a4 4 0 0 0-0.04492 2e-3 3.7708 3.5 0 0 1 0.10547-2e-3 4 4 0 0 0-0.06055 0zm-0.04492 2e-3a4 4 0 0 0-0.16602 0.0078 3.7708 3.5 0 0 1 0.16602-0.0078zm-2.293 0.79688a4 4 0 0 0-0.125 0.09961 3.7708 3.5 0 0 1 0.125-0.09961zm-0.125 0.09961a4 4 0 0 0-1.4766 3.1015 4 4 0 0 0 4 4 4 4 0 0 0 4-4 4 4 0 0 0-1.5547-3.1641 3.7708 3.5 0 0 1 1.3262 2.6641 3.7708 3.5 0 0 1-3.7715 3.5 3.7708 3.5 0 0 1-3.7715-3.5 3.7708 3.5 0 0 1 1.248-2.6016z"
         fill="url(#radialGradient981)"
         filter="url(#filter1037)"
         stroke-width="3.0727"
         id="path202" />
      <path
         transform="scale(.26458)"
         d="m17.98 41.564a2.4349 2.4349 0 0 0-2.416 2.4355 2.4349 2.4349 0 0 0 2.4355 2.4355 2.4349 2.4349 0 0 0 2.4355-2.4355 2.4349 2.4349 0 0 0-2.4355-2.4355 2.4349 2.4349 0 0 0-0.01953 0zm-0.029297 0.43555a2 2 0 0 1 0.048828 0 2 2 0 0 1 2 2 2 2 0 0 1-2 2 2 2 0 0 1-2-2 2 2 0 0 1 1.9512-2z"
         fill="url(#radialGradient1057)"
         opacity=".35"
         stroke-width="1.8704"
         id="path204" />
    </g>
  </g>
</svg>
