<?xml version="1.0" encoding="UTF-8"?>
<svg width="64" height="64" version="1.1" viewBox="0 0 16.933 16.933" xmlns="http://www.w3.org/2000/svg" xmlns:cc="http://creativecommons.org/ns#" xmlns:dc="http://purl.org/dc/elements/1.1/" xmlns:rdf="http://www.w3.org/1999/02/22-rdf-syntax-ns#" xmlns:xlink="http://www.w3.org/1999/xlink">
 <defs>
  <filter id="filter1057-7" x="-.027" y="-.027" width="1.054" height="1.054" color-interpolation-filters="sRGB">
   <feGaussianBlur stdDeviation="0.61875"/>
  </filter>
  <linearGradient id="linearGradient1053-3" x1="-127" x2="-72" y1="60" y2="5" gradientTransform="matrix(.26458 0 0 .26458 35.823 1.1313)" gradientUnits="userSpaceOnUse">
   <stop stop-color="#32d7ff" offset="0"/>
   <stop stop-color="#329bff" offset="1"/>
  </linearGradient>
 </defs>
 <metadata>
  <rdf:RDF>
   <cc:Work rdf:about="">
    <dc:format>image/svg+xml</dc:format>
    <dc:type rdf:resource="http://purl.org/dc/dcmitype/StillImage"/>
    <dc:title/>
   </cc:Work>
  </rdf:RDF>
 </metadata>
 <g transform="translate(-1.03 -1.2662)">
  <rect transform="matrix(.26458 0 0 .26458 1.03 1.2662)" x="4.5" y="4.5" width="55" height="55" ry="15" fill="#141414" filter="url(#filter1057-7)" opacity=".3" stroke-linecap="round" stroke-width="2.7444"/>
  <rect x="2.2206" y="2.4568" width="14.552" height="14.552" ry="3.9688" fill="url(#linearGradient1053-3)" stroke-linecap="round" stroke-width=".72612"/>
  <g fill="#fff">
   <g stroke-width=".013034">
    <path d="m10.992 14.242c-0.0642 0.07336-0.14728 0.14194-0.22561 0.20515-0.50603-0.52298-1.1002-1.1026-1.6648-1.1026-0.35011 0-0.60227 0.26651-0.89645 0.45455-0.40824 0.26095-0.96826 0.40791-1.4482 0.21638-0.25812-0.098-0.5082-0.24236-0.6951-0.47688 0.37771 0.2605 0.94335 0.29551 1.3698 0.11861 0.47133-0.19554 0.95105-0.45517 1.4882-0.45517 0.7918 0 1.5443 0.53559 2.0722 1.04zm-5.8521-1.6448c0.52424 0.59674 1.3793 0.40476 2.0791 0.55379 0.09741 0.02074 0.18892 0.05309 0.29349 0.03704-0.083203-0.05275-0.19348-0.0587-0.2896-0.0949-0.543-0.20456-0.62765-0.78569-0.92481-1.1857 0.37955 0.25232 0.69401 0.59779 1.0489 0.92245 0.24703 0.22595 0.5548 0.32261 0.87397 0.38756-0.076697 0.02803-0.17703 0.02142-0.25964 0.04191-0.57334 0.14222-1.209 0.36674-1.8191 0.16541-0.3937-0.12993-0.8034-0.43761-1.0024-0.82762zm-0.84032-1.3812c0.327 0.74034 1.1486 0.79833 1.6948 1.2525 0.10387 0.08636 0.20683 0.16584 0.32094 0.21906l0.00589-6e-3c-0.12606-0.11402-0.26248-0.24995-0.3601-0.39181-0.31222-0.45365-0.20832-1.0737-0.44905-1.5547 0.21871 0.26188 0.42385 0.53156 0.54979 0.83138 0.20267 0.48251 0.27151 1.033 0.72604 1.3996-0.49195-0.1623-1.0594-0.13-1.5024-0.42016-0.46566-0.305-0.89721-0.78639-0.9859-1.33zm-0.35028-1.4978c0.047281 0.65227 0.74172 1.0007 1.0728 1.5369 0.070721 0.11452 0.1435 0.23274 0.2462 0.32521-0.016007-0.06945-0.07315-0.13098-0.10461-0.19911-0.1062-0.23006-0.15427-0.49631-0.12776-0.77006 0.032252-0.33307 0.17111-0.64238 0.11782-0.99278 0.28541 0.61605 0.19334 1.3862 0.35829 2.0523 0.036491 0.14736 0.12623 0.2763 0.18152 0.41587-0.28042-0.21332-0.64791-0.40269-0.95572-0.64531-0.29768-0.23464-0.55606-0.50966-0.69038-0.86749-0.096781-0.25785-0.12195-0.56542-0.098196-0.85553zm0.019397-1.2018c0.033501-0.14557 0.059131-0.29625 0.12247-0.42979-0.11992 0.61531 0.28943 1.0598 0.42917 1.5921 0.052667 0.20061 0.070685 0.41377 0.15181 0.60096 0.00757 0.0041 0.014127-0.0038 0.018803-0.0099-0.20196-0.56652 0.094094-1.0901 0.3825-1.5367 0.075807-0.11738 0.1123-0.25406 0.1477-0.39225 0.031174 0.25647-0.023413 0.55334-0.070857 0.81801-0.06108 0.34072-0.17754 0.66007-0.2701 0.9888-0.060937 0.20537-0.044881 0.43715-0.013607 0.65232l-0.029391-0.02346c-0.21473-0.39639-0.63836-0.70606-0.76629-1.1387-0.10225-0.34578-0.17299-0.74525-0.1022-1.1214zm0.22648-0.6619c0-0.46563 0.1813-0.84547 0.45326-1.1922 0.00789-0.00393 0.013508-0.01185 0.023702-0.01-0.2994 0.45541-0.026891 1.0303-0.065365 1.5468l-0.039489 0.53015c0.00586 0.00386 0.00586 0.019767 0.019768 0.013681 0.01769-0.059107 0.023058-0.12197 0.03335-0.18301 0.072076-0.4274 0.44738-0.72487 0.76565-1.0266 0.075288-0.071374 0.13041-0.15577 0.16591-0.24646-0.026472 0.21289-0.08586 0.43115-0.18143 0.6246-0.24498 0.49597-0.71815 0.89633-0.80326 1.46-0.041268-0.54019-0.37211-0.94176-0.37211-1.5169zm0.78915-1.5707c0.15055-0.16692 0.31927-0.29694 0.52014-0.34837-0.39006 0.26822-0.36889 0.74756-0.4883 1.1484-0.043668 0.14655-0.10785 0.28386-0.14196 0.43532l0.00987 0.00789c0.064898-0.17123 0.17624-0.33584 0.3213-0.47269 0.27435-0.25886 0.68683-0.41551 0.82259-0.79416-0.0062101 0.52617-0.45472 0.92612-0.86434 1.2356-0.18373 0.13878-0.33987 0.32511-0.43515 0.52045 0.01592-0.14538 0.02315-0.26632 0.010169-0.40822-0.042047-0.45963-0.069315-0.97491 0.24568-1.3241zm1.5832-0.8846c-0.28948 0.25402-0.48265 0.58096-0.70504 0.87488-0.18496 0.24446-0.43875 0.39592-0.65702 0.60106 0.11782-0.24444 0.13957-0.52453 0.2892-0.761 0.25585-0.40436 0.67871-0.56133 1.0729-0.71493z" opacity=".9"/>
    <path d="m8.0011 14.242c0.064202 0.07336 0.14728 0.14194 0.22561 0.20515 0.50603-0.52298 1.1002-1.1026 1.6648-1.1026 0.35011 0 0.60227 0.26651 0.89645 0.45455 0.40824 0.26095 0.96826 0.40791 1.4482 0.21638 0.25812-0.098 0.5082-0.24236 0.6951-0.47688-0.37771 0.2605-0.94335 0.29551-1.3698 0.11861-0.47133-0.19554-0.95105-0.45517-1.4882-0.45517-0.7918 0-1.5443 0.53559-2.0722 1.04zm5.8521-1.6448c-0.52424 0.59674-1.3793 0.40476-2.0791 0.55379-0.09741 0.02074-0.18892 0.05309-0.29349 0.03704 0.0832-0.05275 0.19348-0.0587 0.2896-0.0949 0.543-0.20456 0.62765-0.78569 0.92481-1.1857-0.37955 0.25232-0.69401 0.59779-1.0489 0.92245-0.24703 0.22595-0.5548 0.32261-0.87397 0.38756 0.0767 0.02803 0.17703 0.02142 0.25964 0.04191 0.57334 0.14223 1.209 0.36675 1.8191 0.16542 0.3937-0.12993 0.8034-0.43761 1.0024-0.82762zm0.84032-1.3812c-0.327 0.74034-1.1486 0.79833-1.6948 1.2525-0.10387 0.08636-0.20683 0.16584-0.32094 0.21906l-0.0059-6e-3c0.12606-0.11406 0.26248-0.24999 0.3601-0.39185 0.31222-0.45365 0.20832-1.0737 0.44904-1.5547-0.21871 0.26188-0.42385 0.53156-0.54979 0.83138-0.20267 0.48251-0.27151 1.033-0.72604 1.3996 0.49195-0.1623 1.0594-0.13 1.5024-0.42016 0.46566-0.305 0.89721-0.78639 0.9859-1.33zm0.35028-1.4978c-0.04728 0.65227-0.74172 1.0007-1.0728 1.5369-0.07072 0.11452-0.1435 0.23274-0.2462 0.32521 0.01601-0.06945 0.07315-0.13098 0.1046-0.19911 0.1062-0.23006 0.15427-0.49631 0.12776-0.77006-0.03225-0.33307-0.17111-0.64238-0.11782-0.99278-0.28541 0.61605-0.19334 1.3862-0.35829 2.0523-0.03649 0.14736-0.12623 0.2763-0.18152 0.41587 0.28042-0.21332 0.64791-0.40269 0.95572-0.64531 0.29768-0.23464 0.55606-0.50966 0.69038-0.86749 0.09678-0.25785 0.12195-0.56542 0.0982-0.85553zm-0.0194-1.2018c-0.0335-0.14557-0.05913-0.29625-0.12247-0.42979 0.11992 0.61531-0.28943 1.0598-0.42917 1.5921-0.05267 0.20061-0.07068 0.41377-0.15181 0.60096-0.0076 0.0041-0.01413-0.0038-0.0188-0.0099 0.20196-0.56655-0.09409-1.0901-0.3825-1.5367-0.07581-0.11738-0.1123-0.25406-0.1477-0.39225-0.03117 0.25647 0.02341 0.55334 0.07085 0.81801 0.06108 0.34072 0.17754 0.66007 0.2701 0.9888 0.06094 0.20537 0.04488 0.43715 0.01361 0.65232l0.02939-0.02345c0.21472-0.3964 0.63836-0.70607 0.76629-1.1387 0.10225-0.34578 0.17299-0.74525 0.1022-1.1214zm-0.22648-0.6619c0-0.46563-0.1813-0.84547-0.45326-1.1922-0.0079-0.00393-0.01351-0.01185-0.0237-0.01 0.2994 0.45541 0.02689 1.0303 0.06536 1.5468l0.03949 0.53015c-0.0059 0.00386-0.0059 0.019767-0.01977 0.013681-0.01769-0.059107-0.02306-0.12197-0.03335-0.18301-0.07207-0.42741-0.44738-0.72487-0.76565-1.0266-0.07529-0.071374-0.13041-0.15577-0.16591-0.24646 0.02647 0.21289 0.08586 0.43115 0.18142 0.6246 0.24498 0.49597 0.71815 0.89633 0.80326 1.46 0.04127-0.54019 0.37211-0.94176 0.37211-1.5169zm-0.78915-1.5707c-0.15055-0.16692-0.31927-0.29694-0.52014-0.34837 0.39006 0.26822 0.36889 0.74756 0.4883 1.1484 0.04367 0.14655 0.10785 0.28386 0.14196 0.43532l-0.0099 0.00789c-0.06487-0.17123-0.17621-0.33584-0.32127-0.47269-0.27435-0.25886-0.68683-0.41551-0.82259-0.79416 0.0062 0.52617 0.45472 0.92612 0.86434 1.2356 0.18373 0.13878 0.33987 0.32511 0.43515 0.52045-0.01592-0.14538-0.02315-0.26632-0.01017-0.40822 0.04205-0.45963 0.06931-0.97491-0.24568-1.3241zm-1.5832-0.8846c0.28948 0.25402 0.48265 0.58096 0.70504 0.87488 0.18496 0.24446 0.43875 0.39592 0.65702 0.60106-0.11782-0.24444-0.13957-0.52453-0.2892-0.761-0.25585-0.40436-0.67871-0.56133-1.0729-0.71493z" opacity=".81"/>
    <path d="m13.032 10.659-0.0855-0.04665c-0.18129 0.37385-0.42133 0.71407-0.70848 1.0083l-0.49953-0.49952c0.24472-0.25218 0.44204-0.53842 0.5874-0.84778l-0.08512-0.04653c-0.1437 0.30676-0.33703 0.58587-0.57019 0.82635l-0.4525-0.4525c0.19426-0.20195 0.3484-0.43236 0.45965-0.68138l-0.08445-0.04608c-0.10895 0.24541-0.25926 0.46859-0.44292 0.65988l-0.50007-0.50007c0.13907-0.14738 0.24644-0.31694 0.31951-0.50043l-0.08447-0.04608c-0.06982 0.17893-0.17304 0.34137-0.30233 0.47915l-0.45388-0.45381c0.1293-0.14429 0.20429-0.32533 0.2149-0.51874h0.64246c-0.0055 0.17359-0.04103 0.33965-0.10113 0.49342l0.08447 0.04608c0.06761-0.17001 0.10579-0.35185 0.11126-0.53952h0.70821c-0.0064 0.31267-0.07608 0.60999-0.19602 0.88015l0.08445 0.04608c0.12878-0.28841 0.19994-0.60182 0.20624-0.92626h0.64124c-0.0067 0.44032-0.10832 0.85784-0.28445 1.2338l0.08511 0.04653c0.18619-0.39621 0.28738-0.83048 0.29406-1.2803h0.70816c-0.0071 0.57961-0.1436 1.1284-0.38162 1.6192l0.08554 0.04663c0.25604-0.52736 0.39196-1.1097 0.39196-1.7132 0-0.51321-0.09832-1.0111-0.28514-1.473l-0.08775 0.037717c0.17595 0.43587 0.27132 0.9046 0.27718 1.3879h-0.70826c-0.0057-0.38558-0.08151-0.75948-0.22012-1.108l-0.0871 0.037328c0.1337 0.33696 0.20689 0.69818 0.21254 1.0707h-0.64131c-0.0055-0.28395-0.06085-0.55947-0.16079-0.81725l-0.0871 0.037421c0.09505 0.24601 0.14777 0.50892 0.1533 0.77983h-0.70828c-5e-3 -0.17313-0.03781-0.34149-0.09597-0.50007l-0.08708 0.037364c0.05342 0.14689 0.08344 0.30257 0.08846 0.4627h-0.64246c-0.010609-0.19343-0.085598-0.37444-0.2149-0.51873l0.45434-0.45427c0.1403 0.14922 0.24642 0.32249 0.31458 0.51032l0.08709-0.037364c-0.072949-0.19868-0.18584-0.38198-0.33482-0.53988l0.50081-0.50076c0.21371 0.22244 0.37683 0.4807 0.48494 0.76086l0.0871-0.037421c-0.11287-0.29101-0.28278-0.55932-0.5051-0.79037l0.45346-0.45353c0.28083 0.28962 0.4966 0.6257 0.64119 0.99047l0.0871-0.037328c-0.1494-0.37566-0.37192-0.7218-0.66135-1.02l0.50074-0.50084c0.35414 0.36279 0.62732 0.78376 0.81179 1.2409l0.08775-0.037717c-0.19492-0.48236-0.48632-0.92541-0.8653-1.3044-0.38036-0.38041-0.82535-0.67246-1.3098-0.86742l-0.03489 0.088832c0.45815 0.18454 0.88005 0.45803 1.2435 0.81284l-0.50074 0.50081c-0.29315-0.2841-0.63278-0.50432-1.0015-0.65351l-0.03456 0.08807c0.35653 0.14465 0.68517 0.35764 0.96914 0.63311l-0.45343 0.45346c-0.22043-0.21205-0.47462-0.37674-0.75016-0.48947l-0.03462 0.08807c0.26364 0.10804 0.5068 0.26562 0.71786 0.46835l-0.50074 0.50074c-0.14085-0.13277-0.30192-0.23697-0.47595-0.30964l-0.03463 0.088144c0.16218 0.067965 0.31217 0.16493 0.44366 0.28846l-0.45427 0.45427c-0.14439-0.12932-0.32535-0.20429-0.51883-0.21484v-0.64243c0.18463 0.00569 0.36339 0.044907 0.52944 0.11457l0.03463-0.088144c-0.17694-0.073928-0.36746-0.11532-0.56406-0.1211v-0.70824c0.28676 0.00576 0.56461 0.064045 0.82292 0.1699l0.03462-0.08807c-0.26918-0.11014-0.5588-0.17066-0.85756-0.17642v-0.6416c0.38029 0.0058 0.74901 0.081642 1.092 0.22067l0.03456-0.08807c-0.35386-0.14334-0.73414-0.22142-1.1265-0.22723v-0.70831c0.48239 0.00583 0.95026 0.10091 1.3853 0.27609l0.03489-0.088832c-0.46032-0.18534-0.95634-0.283-1.4675-0.283-0.63147 0-1.2281 0.15067-1.7572 0.41654l0.043163 0.082607c0.51199-0.25654 1.0784-0.3963 1.6667-0.40341v0.70833c-0.47979 0.0071348-0.93315 0.12356-1.3375 0.32433l0.043012 0.082383c0.39833-0.19719 0.83803-0.30521 1.2944-0.31217v0.64133c-0.35676 0.00702-0.69434 0.092827-0.99648 0.24029l0.043272 0.082755c0.29413-0.14277 0.61755-0.22168 0.95322-0.22844v0.70831c-0.22259 0.00658-0.4337 0.059307-0.62432 0.14875l0.043496 0.083072c0.18032-0.083816 0.37705-0.13093 0.58082-0.13723v0.64253c-0.099662 0.00554-0.19472 0.028279-0.28233 0.065234l0.043422 0.083034c0.089612-0.036697 0.18643-0.056018 0.28622-0.056018 0.2018 0 0.39149 0.078575 0.5342 0.22125 0.1427 0.1427 0.22127 0.33245 0.22127 0.53427 0 0.41656-0.33884 0.75557-0.75547 0.75557-0.20185 0-0.39158-0.078613-0.53427-0.22131-0.14269-0.14277-0.22129-0.33245-0.22129-0.53428 0-0.20182 0.078594-0.39158 0.22129-0.53427 0.072182-0.072147 0.15637-0.1277 0.24803-0.16523l-0.043422-0.083033c-0.087066 0.03677-0.16674 0.087586-0.23619 0.14979l-0.45453-0.45453c0.11743-0.11035 0.24966-0.19957 0.3922-0.26581l-0.043496-0.083072c-0.1533 0.07196-0.29332 0.16759-0.41518 0.28247l-0.50127-0.50129c0.17579-0.16886 0.37404-0.30607 0.58757-0.40979l-0.043272-0.082754c-0.22551 0.11003-0.43136 0.25426-0.6104 0.42638l-0.45427-0.45422c0.22928-0.22246 0.48801-0.40372 0.76668-0.54162l-0.043012-0.082383c-0.2917 0.14489-0.55811 0.33345-0.7896 0.55811l-0.50179-0.50181c0.28767-0.28083 0.61226-0.51018 0.96211-0.68552l-0.043162-0.082607c-0.76474 0.38431-1.3873 1.0106-1.7665 1.7784l0.08229 0.044407c0.17681-0.3596 0.41065-0.69301 0.69832-0.98778l0.50184 0.50184c-0.23344 0.2405-0.42848 0.51835-0.57536 0.82359l0.081976 0.044259c0.13991-0.29227 0.3275-0.56297 0.55923-0.80195l0.45429 0.45424c-0.18311 0.19048-0.3346 0.41132-0.4469 0.6539l0.082162 0.044333c0.10577-0.2306 0.25032-0.44414 0.43088-0.63209l0.50127 0.50129c-0.12813 0.13593-0.23249 0.29446-0.30657 0.46888l0.082829 0.044798c0.068077-0.1636 0.16566-0.31489 0.29012-0.44728l0.45453 0.45448c-0.12478 0.13948-0.20401 0.3198-0.21501 0.51852h-0.6426c0.005704-0.18322 0.044333-0.36074 0.11295-0.52574l-0.082828-0.044797c-0.07484 0.17619-0.11873 0.36868-0.12473 0.57053h-0.70821c0.00637-0.31872 0.07785-0.62649 0.20733-0.90863l-0.082161-0.044333c-0.13476 0.29096-0.21308 0.61328-0.21969 0.95298h-0.64143c0.006726-0.44292 0.10834-0.87021 0.29453-1.2592l-0.081975-0.044259c-0.19052 0.39564-0.30009 0.83725-0.30705 1.3034h-0.70835c0.0069675-0.57846 0.14214-1.1359 0.39056-1.6411l-0.08229-0.044407c-0.25824 0.52305-0.40402 1.1111-0.40402 1.7328 0 0.38029 0.054309 0.75197 0.15806 1.107l0.09277-0.02334c-0.097546-0.33271-0.15078-0.68051-0.15507-1.0363h0.70824c0.00437 0.29668 0.050074 0.58657 0.13398 0.86332l0.09184-0.02315c-0.082142-0.26925-0.12679-0.55141-0.13123-0.84018h0.64131c0.00463 0.23521 0.043422 0.4647 0.11326 0.68311l0.09199-0.023207c-0.068097-0.21084-0.10598-0.43262-0.11059-0.6599h0.70821c0.00494 0.1682 0.036046 0.33188 0.091135 0.48649l0.092045-0.023244c-0.05338-0.14702-0.083592-0.30295-0.088589-0.46323h0.64253c0.010609 0.19342 0.085543 0.37445 0.21484 0.51874l-0.45429 0.45431c-0.14015-0.14916-0.24625-0.3222-0.31451-0.50982l-0.092045 0.023243c0.072705 0.20386 0.18729 0.39199 0.33963 0.55346l-0.50074 0.50079c-0.24358-0.25359-0.42185-0.55413-0.52743-0.88065l-0.09199 0.023207c0.10964 0.34287 0.29658 0.65828 0.55272 0.9245l-0.45353 0.45355c-0.33915-0.34973-0.58411-0.76694-0.72251-1.221l-0.09184 0.02315c0.14262 0.4704 0.39604 0.90274 0.74742 1.2648l-0.50077 0.50079c-0.44321-0.45412-0.75976-0.99917-0.9338-1.5925l-0.09277 0.02334c0.18255 0.6247 0.51933 1.1973 0.99238 1.6703 0.32035 0.32042 0.6865 0.57832 1.0834 0.76837l0.047007-0.08337c-0.37569-0.17904-0.7232-0.4203-1.0293-0.71922l0.50074-0.50072c0.26026 0.25261 0.55704 0.45405 0.87793 0.6008l0.046728-0.08288c-0.31358-0.14231-0.60358-0.33849-0.85767-0.58481l0.45348-0.4535c0.21254 0.20447 0.45658 0.36477 0.72084 0.47705l0.046692-0.08274c-0.25669-0.10772-0.49407-0.26264-0.70047-0.46094l0.50081-0.50079c0.16092 0.15182 0.34825 0.26615 0.55134 0.33889l0.047324-0.083815c-0.19602-0.067873-0.37681-0.17642-0.53172-0.32197l0.45429-0.45434c0.14429 0.12941 0.32523 0.20432 0.51874 0.21493v0.64253c-0.15239-0.0047-0.30078-0.03255-0.4413-0.08112l-0.047324 0.08381c0.15524 0.05568 0.31956 0.08692 0.48863 0.0919v0.70816c-0.29306-0.0059-0.57701-0.06654-0.84011-0.1769l-0.046692 0.08274c0.27745 0.11793 0.57713 0.18285 0.8868 0.18883v0.64133c-0.422-0.006503-0.82955-0.099254-1.2034-0.26891l-0.046728 0.08288c0.38813 0.17735 0.81167 0.27411 1.2502 0.28066v0.70814c-0.56252-0.006798-1.1054-0.13428-1.5995-0.36966l-0.047007 0.08337c0.52217 0.24994 1.0978 0.38208 1.6938 0.38208 0.62525 0 1.2277-0.1461 1.7699-0.42042l-0.04478-0.08684c-0.50563 0.25607-1.0748 0.40407-1.6778 0.41148v-0.70816c0.47808-0.0071 0.93828-0.12166 1.3541-0.33081l-0.0442-0.08569c-0.39523 0.19905-0.83946 0.31451-1.3099 0.32182v-0.64134c0.35869-0.0069 0.70392-0.09297 1.0167-0.24896l-0.04394-0.08528c-0.29422 0.14675-0.62384 0.23248-0.97272 0.2396v-0.70816c0.22844-0.0067 0.44836-0.06167 0.64851-0.15964l-0.04364-0.08478c-0.18383 0.08972-0.38851 0.14294-0.60489 0.14978v-0.64243c0.19347-0.010609 0.37445-0.085524 0.51883-0.21493l0.45381 0.45386c-0.10866 0.10199-0.23253 0.18772-0.36775 0.25376l0.04364 0.08478c0.14178-0.06943 0.2738-0.16014 0.39149-0.27115l0.49998 0.5c-0.16692 0.16036-0.35819 0.29513-0.56728 0.39935l0.04394 0.08528c0.21445-0.10691 0.4138-0.24642 0.59105-0.4169l0.4525 0.45245c-0.22043 0.21378-0.47345 0.39368-0.75033 0.53294l0.0442 0.08569c0.28116-0.14138 0.54216-0.32557 0.77402-0.5507l0.49953 0.49953c-0.27868 0.27201-0.5991 0.50107-0.94979 0.67861l0.04478 0.08684c0.36749-0.18595 0.70769-0.43024 1.0074-0.73002 0.31513-0.31506 0.5694-0.67461 0.7585-1.064z" opacity=".9"/>
   </g>
   <polygon transform="matrix(.018672 0 0 .01895 -.063829 3.9307)" points="522.77 216.72 522.83 218.22 524.11 218.16 524.04 216.67" opacity=".9" stroke-width=".54688"/>
   <rect x="9.6626" y="7.9988" width=".031648" height=".024124" opacity=".9" stroke-width=".013034"/>
   <polygon transform="matrix(.018672 0 0 .01895 -.063829 3.9307)" points="519.34 214.45 519.52 213.19 518.03 212.98 517.85 214.23" opacity=".9" stroke-width=".54688"/>
   <rect transform="matrix(-.98971 -.14306 .13897 -.9903 0 0)" x="-10.598" y="-6.5295" width=".027942" height=".024155" opacity=".9" stroke-width=".013034"/>
   <rect x="9.3537" y="7.9505" width=".031648" height=".024143" opacity=".9" stroke-width=".013034"/>
   <polygon transform="matrix(.018672 0 0 .01895 -.063829 3.9307)" points="502.15 214.87 502.33 213.61 500.85 213.4 500.67 214.66" opacity=".9" stroke-width=".54688"/>
   <rect transform="matrix(-.96919 -.24631 .23955 -.97088 0 0)" x="-10.942" y="-5.4999" width=".032759" height=".024103" opacity=".9" stroke-width=".013034"/>
   <rect transform="matrix(-.16106 -.98694 .98617 -.16576 0 0)" x="-9.4833" y="7.8115" width=".024456" height=".023799" opacity=".9" stroke-width=".013034"/>
   <g stroke-width=".54688">
    <polygon transform="matrix(.018672 0 0 .01895 -.063829 3.9307)" points="330.58 346.22 329.52 346.22 329.52 348.34 331.22 348.34 331.22 351.1 332.5 351.1 332.28 347.92 330.58 347.28" opacity=".9"/>
    <polygon transform="matrix(.018672 0 0 .01895 -.063829 3.9307)" points="346.5 366.16 344.17 364.04 342.47 361.71 341.62 359.8 340.13 355.98 343.31 357.46 344.38 360.43 345.86 361.5 347.35 364.68" opacity=".9"/>
    <polygon transform="matrix(.018672 0 0 .01895 -.063829 3.9307)" points="390.21 421.12 388.51 418.57 391.06 419 393.81 421.33 394.88 424.09 393.39 424.94 392.54 423.67 390.42 423.03" opacity=".9"/>
   </g>
   <path d="m9.3735 8.2963h-0.043563l-0.00794-0.088441 0.02377-0.016146v-0.044211h-0.13867l-0.00396-0.044192 0.019867-0.012071-0.031742-0.012071-0.023789 0.03214-0.00786 0.036196-0.03964 0.00807v0.020068h-0.027709v0.052264l-0.11097 0.092479-0.22184-8e-3c-0.015908 0.036158-0.055549-0.00407-0.055549-0.00407-0.00786-0.024105-0.063297 0-0.063297 0 0 0.044288-0.075285-0.020068-0.075285-0.020068l-0.13869-0.10055c-0.079224-0.07237-0.19807 0.020144-0.20201 0.040212 0.00394 0.056302-0.09112 0.012071-0.09112 0.012071s-0.079224-0.024105-0.091139 0.00807c-0.011857 0.03214-0.063447 0.024143-0.063447 0.024143l-0.00794 0.016069-0.03964 0.00803-0.00786 0.024105-0.047576 0.00807 0.11883-0.00404c0.031725-0.00402-0.011913 0.068373-0.031668 0.064355l-0.055417 0.00402-0.019867 0.020068h-0.051497l-0.023751 0.032235-0.07523-0.00404s-0.043637 0.036177-0.039621 0.048229c0.00396 0.012071-0.00794 0.048268-0.019848 0.048268-0.011894 0-0.035665 0.036177-0.027728 0.048229 0.00797 0.012071-0.023751 0.052283-0.023751 0.052283l-0.0079 0.04025-0.023751 8e-3v0.10859l-0.047576 0.032178v0.04823l-0.071364 0.076408 0.00797 0.064298-0.059395 0.064355 0.00786 0.064336-0.035646 0.012071-0.00788 0.028141-0.015833 0.084404 0.039604 0.00407c0.019755-0.00807 0.015834 0.052264 0 0.06026-0.015908 0.00807-0.059488 0.024124-0.035665 0.040193 0.023789 0.016146-0.063411 0.01209-0.063411-0.012052 0-0.024066-0.047557-0.044211-0.059395-0.036139-0.011912 8e-3 -0.031742-0.036196-0.031742-0.036196-0.043563-0.044211-0.17828 4e-3 -0.17828 4e-3l-0.019867 0.064336c-0.043525 0.00807-0.071252 0.080443-0.071252 0.080443-0.035665 0.012071-0.063392 0.056264-0.051497 0.068335 0.011856 0.012071-0.019867 0.016069-0.019867 0.016069v0.088499l-0.019773 0.028141 0.00392 0.096476c0.023806 0 0.019867 0.044268 0.019867 0.044268-0.03964 4e-3 -0.031761 0.056302-0.031761 0.056302l-0.083165 0.028124-0.015833 0.024105-0.10299-0.00404-0.027728 0.028178-0.027801-0.028178h-0.19808l-0.00786-0.020087-0.03964-0.00809-4e-3 -0.044192-0.059395 4e-3 -0.011875 0.024124-0.063428 4e-3c0.00396 0.040231-0.063392 0.10057-0.071252 0.084519-0.00803-0.016107-0.051571-0.060394-0.031725-0.068354 0.019829-0.00809 0.071364-0.016164 0.071364-0.016164v-0.028121l-0.14665-4e-3 -0.015796 0.024143-0.059507 0.00398v0.064355l-0.02769 0.00805c-0.019848 0.012014 0.00392 0.056302 0.00392 0.056302 0.027728 0.028105-0.00392 0.072314-0.00392 0.072314-0.023806 0.02414 0.019755 0.06843 0.019755 0.06843 0.031742 8e-3 -0.019755 0.03212-0.019755 0.03212 0.00786 0.04019 0.031668 0.05226 0.031668 0.05226-0.023807 0.04019 0.015908 0.06026 0.015908 0.06026l0.00392 0.06843 0.027728 0.01611v0.04413l0.015834 0.02818h0.063392l-0.00396-0.10051c-0.055494-0.06436 0.047503-0.08044 0.051535-0.05636 4e-3 0.02414 0.047557 0.03622 0.047557 0.03622 0.00794 0.06034 0.075304 0.09648 0.09506 0.03623 0.019829-0.06039 0.035665-0.02414 0.047557 4e-3 0.011894 0.02818 0.087085 0.09655 0.087085 0.09655h0.059469l0.00797 0.0563c0.067332-4e-3 0.087088 0.0041 0.11482 0.09647 0.027801 0.09244 0.10303 0.11658 0.10303 0.11658l0.055494-4e-3c0-0.04817 0.055475 0.0081 0.055475 0.03227 0 0.02403 0.10695 0.11652 0.10695 0.11652l0.10693 0.02409 0.099166 0.08052 0.075211-8e-3h0.031742c0.019754-0.06843 0.11489 4e-3 0.12275 0.0281 0.00799 0.02414 0.071364 0.06436 0.079225 0.04421 0.00797-0.02007 0.051535-8e-3 0.059488 0.05226 0.0079 0.06039 0.035588 0.0483 0.035588 0.0483l0.22587-4e-3 0.079225-0.06843 0.20209-4e-3c0.10299-4e-3 0.039604-0.14478 0.019848-0.14478-0.035665-0.0281 0.011838-0.14472 0.011838-0.14472l-0.28921-0.26944c-0.067332 0-0.00794-0.09655-0.00794-0.09655 0.051501-0.0322-0.011908-0.08439-0.011908-0.08439 0.00797-0.04832-0.027728-0.1046-0.027728-0.1046-0.071252-0.04825-0.051497-0.14076-0.051497-0.14076v-0.064352c-0.059395-0.056225 0.023788-0.064355 0.023788-0.064355 0.02769-0.048153-0.019848-0.084366-0.019848-0.084366l-0.0039399-0.052283-0.063411-0.0080702-0.0078603-0.18899-0.14262-0.20502c-0.027802-0.00811-0.00797-0.056302-0.00797-0.056302 0.035665-0.020125-0.00797-0.068316-0.00797-0.068316l-0.00394-0.08848 0.083165-0.00809 0.019848-0.032121h0.039604l-0.00394-0.10457c0.019773-0.052264 0.067312-0.024144 0.067312-0.024144l0.055475 0.00404 0.031725-0.060318 0.00786-0.048267-0.043525-0.00398c-0.047562-0.028184-0.023793-0.1327-0.023793-0.1327 0.075285-0.11262 0.16239-0.048284 0.16239-0.048284l0.055529-0.00398c0.083165 0.056264 0.00786 0.16081 0.00786 0.16081-0.015834 0.024143-0.00786 0.10053-0.00786 0.10053l0.019773 0.12861-0.051497 0.044288c-0.043563 0.024144-0.043563 0.080405 4e-3 0.092476 0.031668 0.00398 0.019773 0.080407-0.027786 0.028124-0.071252 0 0.039697 0.064336 0.00797 0.048191 0.071345 0.036215 0.055418-0.03214 0.055418-0.03214l0.095173-0.076408c0.035665-0.028123 0.099073 0.060356 0.099073 0.072427 0 0.012052 0.15845 0.00398 0.15845 0.00398 0.043563 0.028141 0.059395 0.10055 0.059395 0.10055 0.043637-0.05634 0.13472-0.00407 0.067386 0.028123 0.063335 0.040212 0.063335 0.076389 0.063335 0.076389 0.051571-0.016069 0.051571 0.024124 0.051571 0.036196 0 0.012071 0.015834-0.060299 0.015834-0.060299-0.059433-0.044249 0.079225-0.060318 0.03964 0.020106l-0.023806 0.036215 0.03964 0.03214 0.00392 0.092514c0.087197-0.00807 0.063411-0.11666 0.063411-0.11666l0.039621-8e-3c0-0.036215 0.02769-0.016107 0.02769-0.016107-0.02769-0.13674 0.063428-0.16081 0.063428-0.16081 0.051497-0.012071 0.055436-0.1207 0.055436-0.1207-0.035588-0.016069-0.015852-0.072332 0.023789-0.024047 0.039585 0.048172-0.023789-0.096571-0.023789-0.096571l-0.031668-0.028123-0.043563-0.00402-4e-3 -0.04423h-0.071252l-0.011913 0.056321-0.027728 0.00803-0.00797-0.016108-0.011856 0.04423h-0.07129l-0.00394-0.048248 0.043563-0.012052 0.015852-0.024124 0.011859-0.064344h0.051535l0.067332-0.020068c0.00392-0.068373 0.039621-0.052264 0.039621-0.052264l0.023752 0.020087 0.035665 0.028141 0.00398 0.024086-0.023807 0.012052-0.00392 0.032216 0.011894 0.044211h0.031668c0.011875-0.064336 0.095134-0.064336 0.11888-0.024124l0.023788-0.056283c-0.055456-0.028141-0.00103-0.072408 0.014806-0.052284 0.015834 0.020125 0.052524-0.052264 0.052524-0.052264s0.027728 0.036196 0-0.012071c-0.027727-0.048267 0.019773-0.07237 0.019773-0.07237-0.00788-0.048229 0.051535-0.040212 0.051535-0.040212l4e-3 -0.064298-0.05553-0.00407c-0.0118 0.056302-0.059376 0.00807-0.035608-0.00398 0.023807-0.01209 0.047503-0.036215 0.047503-0.036215v-0.040212l0.023789-0.00803 0.00394-0.040212h0.059469l0.051497-0.024105 0.011912-0.020125 0.055418-4e-3 0.079225-0.072408-0.00786-0.03214c-0.047557 0 0-0.036196 0-0.036196l0.00782-0.060192z" opacity=".9" stroke-width=".013034"/>
   <path d="m7.7769 9.0923-0.071326-0.00803 4e-3 0.028124h0.019773c0.031668 0.056321 0.00398 0.19301 0.00398 0.19301s-0.047503 0.00398-0.055475-0.020087c-0.00786-0.024124-0.027728 0.052284-0.011894 0.064355 0.015833 0.011995 0.071345 0 0.075286 0.044249 0.00392 0.044192 0.035665-0.028179 0.035665-0.028179v-0.27344z" opacity=".9" stroke-width=".013034"/>
   <g stroke-width=".54688">
    <polygon transform="matrix(.018672 0 0 .01895 -.063829 3.9307)" points="418.21 290.84 416.09 289.57 416.09 294.66 419.49 299.11 420.76 296.14 421.19 294.23 419.7 293.6 419.91 290.42 421.19 290.2 421.4 288.71" opacity=".9"/>
    <polygon transform="matrix(.018672 0 0 .01895 -.063829 3.9307)" points="421.61 301.66 420.13 301.87 419.91 303.57 421.61 303.78" opacity=".9"/>
    <polygon transform="matrix(.018672 0 0 .01895 -.063829 3.9307)" points="419.7 312.48 417.9 312.69 417.9 314.18 419.7 313.97" opacity=".9"/>
   </g>
   <path d="m7.8196 9.7568c0.00928 0 0.016748-0.0076 0.016748-0.016998 0-0.00947-0.00747-0.017093-0.016748-0.017093-0.00928 0-0.016804 0.0076-0.016804 0.017093 0 0.0094 0.00752 0.016998 0.016804 0.016998z" opacity=".9" stroke-width=".013034"/>
   <ellipse cx="7.8472" cy="9.8242" rx=".016805" ry=".017055" opacity=".9" stroke-width=".010287"/>
   <ellipse cx="7.8481" cy="9.3649" rx=".016805" ry=".017055" opacity=".9" stroke-width=".010287"/>
   <polygon transform="matrix(.018672 0 0 .01895 -.063829 3.9307)" points="485.9 273.86 487.18 272.38 487.6 270.68 489.72 269.41 492.27 268.98 493.33 267.71 493.76 265.17 493.91 263.26 494.82 261.98 497.36 260.92 497.36 256.89 496.09 256.89 495.88 255.4 493.54 255.19 493.12 256.25 492.06 256.25 491.84 257.95 493.12 257.95 493.33 259.22 492.48 260.07 492.06 261.13 490.36 261.56 486.54 265.17 486.33 266.86 485.27 268.35 484 271.53 479.54 271.74 478.69 275.56 479.32 278.74 483.14 280.23 483.57 278.11 484.84 277.47 485.06 275.35" opacity=".9" stroke-width=".54688"/>
   <g stroke-width=".013034">
    <path d="m9.3061 9.0442v-0.056302l-0.00797-0.052284-0.05936-0.028121-0.043563 0.040212-0.00797 0.056302v0.036158l-0.039604 0.00807-0.00797 0.10855-0.031649 0.01209 0.00396 0.040212-0.043563 0.012052-0.043563 0.012071-0.00794 0.052264-0.031649 0.020087-0.015945 0.048265-0.019773 0.1166s0.0357 0.068354 0.055475 0.036177c0.019829-0.03214 0.051497-0.036177 0.051497-0.036177l0.011894-0.028159 0.10697 0.00402c0.00794-0.044268 0.059433-0.02812 0.059433-0.00803 0 0.020106 0.03964 4e-3 0.03964 4e-3l0.027709-0.044211h0.043544l0.00396-0.04823 0.019848-0.012071v-0.072408c0.063411-0.020087 0.055417-0.080405 0.055417-0.080405l0.015946-0.020068-0.00795-0.028122c-0.031742-0.012109-0.015927-0.040288 0.00392-0.032235 0.019867 0.00803-0.027727-0.036196-0.027727-0.036196-0.023751 0.020144-0.043525-0.024106-0.043525-0.024106h-0.059488z" opacity=".9"/>
    <path d="m9.3695 9.5306c-0.00394 0.04823-0.063409 0.064336-0.063409 0.064336l-0.043563-0.012052-0.023751-0.020106-0.00398-0.056321 0.035627-0.00398 0.00794 0.024143 0.091139 0.00398z" opacity=".9"/>
    <path d="m9.5835 9.2735c0.00857 0.035059 0.00786-0.056359 0.023713-0.052283 0.015834 4e-3 4e-3 -0.056264 4e-3 -0.056264l-0.071326 0.052188c0.035646 0.00407 0.039585 0.040288 0.043618 0.056359z" opacity=".9"/>
    <path d="m9.7935 9.0642c0.015833 0.036215 0.011912 0.088499 0.071252 0.12871 0.020072 0.013549-0.011875 0.040212-0.031725 0.028123-0.019773-0.012052-0.075191-0.10055-0.075191-0.10055v-0.052264c0.011875-0.03214 0.028791-0.019594 0.035665-0.00402z" opacity=".9"/>
   </g>
   <polygon transform="matrix(.018672 0 0 .01895 -.063829 3.9307)" points="529.4 334.33 527.92 335.4 528.55 336.03 529.18 337.09 530.67 334.76" opacity=".9" stroke-width=".54688"/>
   <line x1="9.6943" x2="9.6943" y1="10.222" y2="10.271" opacity=".9" stroke-width=".013034"/>
   <polygon transform="matrix(.018672 0 0 .01895 -.063829 3.9307)" points="554.99 327.87 554.31 326.8 552.62 327.85 553.29 328.93" opacity=".9" stroke-width=".54688"/>
   <g stroke-width=".013034">
    <path d="m11.414 11.002 0.0357 0.01603 0.0039 0.06836c0.04758 0.04825 0.20209 0.0081 0.20209-4e-3 0-0.01209-8e-3 -0.14876-8e-3 -0.14876l-0.01985-0.02013-0.0039-0.10059c0.01583-0.05226-0.0753-0.12867-0.0832-0.11251-0.0079 0.01603-0.05943 0.0039-0.05943 0.02007 0 0.01603-0.03165 0.09648-0.01583 0.12465 0.01583 0.02816-0.01191 0.02816-0.01583 0.05628-0.0039 0.02814-0.0436 0.07646-0.03566 0.1006z" opacity=".9"/>
    <path d="m11.327 10.841c-0.0075 0.03047-0.03559 0.04825-0.05142 0.03616-0.01594-0.01209 0.0197 0.02007 0.02769 0.03623 0.0079 0.01603 0.03165 0.01603 0.03962 0 0.0079-0.01618 0.0039-0.05226 0.01191-0.06836 0.0079-0.01611-0.02381-0.02013-0.0278-4e-3z" opacity=".9"/>
    <rect x="11.142" y="10.104" width=".02769" height=".076427" opacity=".9"/>
    <path d="m11.553 9.3297c-0.01729-0.023422 0.07922-0.064336 0.09506-0.01607 0.01583 0.048191 0 0.040212-0.01583 0.036196-0.01589-0.00406-0.05544 0.012014-0.07922-0.020125z" opacity=".9"/>
   </g>
   <polygon transform="matrix(.018672 0 0 .01895 -.063829 3.9307)" points="626.47 257.73 628.8 258.15 629.03 256.9 626.69 256.48" opacity=".9" stroke-width=".54688"/>
   <polygon transform="matrix(.018672 0 0 .01895 -.063829 3.9307)" points="620.75 258.67 619.17 259.55 617.79 258.69 617.12 259.76 618.82 260.82 619.14 261.02 619.46 260.84 620.74 260.13 620.9 260.52 622.08 260.05 621.65 258.99 621.38 258.32" opacity=".9" stroke-width=".54688"/>
   <g stroke-width=".013034">
    <path d="m11.675 7.8821h-0.05947s0.01983 0.00803-0.03559-0.044249c-0.05555-0.052264-0.09114 0.012071-0.09114 0.012071l-0.06339 0.00803v0.064336l-0.03174 0.012052 4e-3 0.040231 0.04356-4e-3s0 0.048229 0.01189 0.028141c0.01191-0.020125 0.11097 0.00398 0.10301 0.052264-0.0032 0.019821 0.09909 0.072332 0.0872 0.13667 0.0515 0.00807 0.03962 0.060356 0.03962 0.060356l0.06731 0.00803 0.01985-0.040212 0.01977 0.00404v-0.024142l-0.04364-0.012052-0.0079-0.12869-0.02773-0.020106 0.0079-0.032178-0.03167-0.012071 0.01585-0.052264-0.02777-0.056263z" opacity=".9"/>
    <path d="m11.85 8.2922-0.03167-0.00398-0.07142 0.012052-0.03953 0.076389s0.01977 0.012071 0.03559 0.040212c0.01583 0.028178 0.02379 0.19299-0.02375 0.22117-0.0475 0.02816 4e-3 0.012014 4e-3 0.012014l-8e-3 0.08848c0.01191 0.040212 0.03167 0.020144 0.04356 0 0.01199-0.020049 0.02388-0.024086 0.03972-0.044192 0.01583-0.020144 0.03958-0.056302 0.04356-0.084481 0.0039-0.028124 0.02375-0.072332 0.01186-0.084404-0.01186-0.012071 0.01191-0.068335 0.01191-0.068335s0.01583-0.032216 0-0.064355c-0.01583-0.032197 0.0039-0.068373 0.01583-0.084481l-0.03169-0.016088z" opacity=".9"/>
    <rect transform="matrix(.12487 -.99217 .9917 .12856 0 0)" x="-6.8566" y="12.86" width=".032435" height=".02383" opacity=".9"/>
    <rect transform="matrix(-.89145 -.45312 .44253 -.89675 0 0)" x="-14.46" y="-2.2472" width=".023784" height=".026886" opacity=".9"/>
    <path d="m11.861 8.2481-0.01591-0.036215s0-0.032121 0.0079-0.048267c8e-3 -0.016069-0.01583-0.032121-0.02769-0.036158-0.01189-0.00404-0.0079-0.036177-0.01189-0.052283-0.0039-0.01607-0.03165-0.028124-0.03165-0.028124s-8e-3 -0.060317-8e-3 -0.07237c0-0.012071-0.03565-0.028141-0.02375-0.040231 0.01191-0.012052 0.01985-0.028121 0.03174-0.036196 0.01189-0.00803-0.01191-0.064336 0.0079-0.052283 0.01985 0.01209 0.01985 0.032178 0.02778 0.048268 0.0079 0.016069-4e-3 0.072389 0.01585 0.084461 0.01975 0.012033-4e-3 0.052226 0.02771 0.052226 0.03167 0 0.01191 0.076427 0.01191 0.076427s-8e-3 0.056264 0.0118 0.060317c0.01985 0.00402 8e-3 0.10051 8e-3 0.10051l-0.03169-0.020087z" opacity=".9"/>
    <path d="m11.604 7.5965c0.01184 0.016069 0.03562 0.028121 0.03562 0.044249 0 0.016108-0.0079 0.028124 0.01591 0.032159 0.02371 4e-3 0.0396-0.00404 0.0475 0.016069 0.0079 0.020087 0.0079 0.052264 4e-3 0.068354-4e-3 0.016107 0.0039 0.040212 0.02371 0.040212 0.01985 0 0.02379 0.00404 0.02379 0.016107 0 0.012033 0.02379-0.044268 0.02379-0.044268-0.01987-0.01607-0.0357-0.052283-0.0357-0.052283s-0.01977-0.056283-0.01977-0.064317c0-0.00803-0.02771-0.016108-0.03958-0.020106-0.01191-0.00404-0.03176-0.040193-0.03176-0.040193l-0.0475 0.00402z" opacity=".9"/>
    <path d="m11.644 7.5605c-0.01191-0.016126-0.02381-0.028179-0.03964-0.036177-0.0158-0.00807-0.02769-0.016108-0.0436-0.016108-0.01583 0-0.03165-0.016107-0.02379-0.036177 8e-3 -0.020125-0.01191-0.02816-0.01191-0.044268 0-0.01607 0.01191-0.01607 0.03174-4e-3 0.01985 0.012071 0.01583 0.016069 0.03176 0.036215 0.0158 0.020087 0.02369 0.040193 0.03951 0.036158 0.01593-0.00404 0.0278 0.036177 0.04364 0.024125 0.01583-0.012052 0.01191 0.028141 0.01191 0.028141l-0.03962 0.01209z" opacity=".9"/>
    <path d="m11.18 8.0148c0.02185 0.02221-0.11883 0.016051-0.11883 0 0-0.016069 0.01191-0.072332 0.0475-0.060356 0.03566 0.012109 0.03959-0.072332 0.03959-0.072332s-0.03165 0.00398-0.0039-0.012071c0.02773-0.01607 0-0.040212-0.01191-0.052264-0.01186-0.01209-0.02375-0.032178-0.02375-0.032178h0.05551c0.02379-0.016107 0.03165-0.092476 0.03165-0.092476 0.0475 0.016069 0.07129-0.016107 0.07129-0.016107s8e-3 0.024125 0.02386 0.044268c0.01583 0.020068-0.0397 0.028122-0.01987 0.040212 0.01987 0.012071 0.02773 0.04823 0.01987 0.060263-8e-3 0.012071-0.05161 0.00404-0.05161-0.012033 0-0.016107-0.01583 0.020106 0 0.040212s-0.01977 0.048229-0.02773 0.048229c-0.0079 0-0.05936 0.00807-0.01583 0.032178 0.04356 0.024106 0.09119 0.012109 0.09119 0.012109s0.03562-0.00407 0.0475 0.016069c0.01191 0.020087-0.0039 0.024125-0.02375 0.024125-0.01977 0-0.11493-0.00807-0.11493-0.00807s-0.02771 0.02816-0.01583 0.040231z" opacity=".9"/>
    <path d="m10.926 8.051c0.01987-0.00402 0.06731-0.00807 0.07529 4e-3 8e-3 0.012052-0.02773 0.028124-0.02773 0.028124l-0.04756 0.00807c-0.01583-0.020125-0.01977-0.036177 0-0.040194z" opacity=".9"/>
    <path d="m11.438 7.7133c0.03167-0.016069 0.099-0.016069 0.09506-0.040212-0.0039-0.024125 0.0396-0.032159 0.0396-0.032159l0.01189 0.048229 0.03566 0.024125 4e-3 0.04423s0.01186-0.00803-0.03167 0.00404c-0.04364 0.012071-0.01583 0.03214-0.01583 0.03214l-0.09513 0.00402-0.01189-0.040212-0.03167-0.044192z" opacity=".9"/>
    <path d="m11.283 7.4962c0.02409 0-0.0079 0.092477 0.05544 0.084442 0.06341-0.00807 4e-3 0.028141 0.05153 0.03214 0.04756 0.00407 0.03566-0.036177 0.0515-0.064298 0.01591-0.028141 8e-3 -0.044249-0.01977-0.052284-0.0278-0.00803-0.0278-0.00803-0.03566-0.04025-0.0079-0.03214-0.03962-0.040212-0.03962-0.040212l-0.01191-0.04821-0.0515 0.03214-0.0515 0.068354c0 0.052322 0.02771 0.028178 0.0515 0.028178z" opacity=".9"/>
    <rect transform="matrix(.44249 -.89677 .89147 .45308 0 0)" x="-1.826" y="13.681" width=".026908" height=".023898" opacity=".9"/>
    <rect x="11.346" y="7.7977" width=".023788" height=".02814" opacity=".9"/>
    <rect transform="matrix(.10978 .99396 -.99359 .11304 0 0)" x="8.5003" y="-10.501" width=".03638" height=".023774" opacity=".9"/>
    <rect x="11.299" y="7.6368" width=".023788" height=".020144" opacity=".9"/>
    <rect transform="matrix(-.096671 -.99532 .99503 -.099545 0 0)" x="-8.7171" y="10.446" width=".024141" height=".039816" opacity=".9"/>
    <rect transform="matrix(-.91663 -.39974 .38988 -.92087 0 0)" x="-13.175" y="-2.9933" width=".023751" height=".030555" opacity=".9"/>
    <rect transform="matrix(-.096866 -.9953 .99501 -.099746 0 0)" x="-8.9861" y="9.9647" width=".024084" height=".039873" opacity=".9"/>
   </g>
   <polygon transform="matrix(.018672 0 0 .01895 -.063829 3.9307)" points="539.56 211.91 539.62 213.18 544.28 212.97 544.22 211.7" opacity=".9" stroke-width=".54688"/>
   <g stroke-width=".013034">
    <rect transform="matrix(-.21328 -.97699 .97564 -.21938 0 0)" x="-9.9666" y="8.0223" width=".037001" height=".023823" opacity=".9"/>
    <rect transform="matrix(-.31192 -.95011 .9473 -.32034 0 0)" x="-10.764" y="6.9444" width=".024089" height=".012529" opacity=".9"/>
    <path d="m10.134 7.9345-0.0039 0.028141 0.04352 0.00404s0.01977 0.016107 0.01977 0.028124c0 0.012071 0.0278 0.024124 0.04364 0.024124 0.01583 0 0.0594-0.032178 0.0594-0.032178s0.01985-0.056302 4e-3 -0.052284c-0.01591 4e-3 -0.04758 0.028141-0.0515 4e-3 -4e-3 -0.024124-0.0515-0.012071-0.0515-0.012071l-0.06341 0.00811z" opacity=".9"/>
    <path d="m10.332 7.8902c0 0.012033-0.0079 0.028124 0.01583 0.032178 0.02388 0.00398 0.06744-0.016069 0.07136 0.00803 4e-3 0.024106 4e-3 0.04025 0.03567 0.052322 0.03165 0.012033 0.05153 0.016069 0.07529 0.016069 0.02371 0 0.0753-0.00809 0.0753-0.00809s0.05605 0.00877 0.06731 0.020144c0.04356 0.044211 0.07129 0.056264 0.08316 0.036177 0.01189-0.020125-0.0039-0.064317-0.0079-0.080405-4e-3 -0.016126-0.05947-0.092515-0.07928-0.076426-0.01977 0.016108-0.02373 0-0.05941 0.012033-0.03566 0.012071-0.11095 0.00407-0.11487-0.012033-0.0039-0.016107-0.05941-0.024087-0.05941-0.040212 0-0.016107-0.03959-0.036177-0.03566-0.012071 0.0039 0.024105-0.02771 0.036177-0.03576 0.028179-0.0079-0.00805-0.03165 0.024105-0.03165 0.024105z" opacity=".9"/>
    <path d="m11.243 7.3754 0.02778-0.088403c-0.03958-0.00807-0.03172-0.052264-0.03172-0.052264-0.0039-0.036213-0.05939-0.076408-0.07922-0.064336-0.01977 0.012014-0.01191-0.084481-0.01191-0.084481s0.0357-0.024086 0.05153-0.012033c0.01585 0.012033-0.13468-0.20104-0.1664-0.18094-0.03167 0.020106-0.10294-0.020106-0.099-0.056321 0.0039-0.036158-0.14264-0.15681-0.14264-0.15681s-0.04756-0.032121-0.05546-8e-3c-0.0079 0.024106-0.02377 0.040212 0 0.052226 0.02373 0.01209 0.01977-0.020087 0.04748 0.00803 0.02773 0.028141 0.0793 0.064355 0.05947 0.08848-0.01983 0.024163-0.04362 0.032197-0.04362 0.032197l0.02779 0.032178h0.04356l0.0079 0.068316s0.0475 0.024144 0.05941 0.052283c0.01189 0.028123 0.01189 0.04423 0 0.060337-0.01191 0.016069-0.03559 0.044211-0.03167 0.072332 0.0039 0.028141 0.03567 0.040212 0.03567 0.040212l0.03165 0.00404 0.02381 0.01209v0.052303c0.03165-0.00807 0.08315 0.03612 0.07922 0.064298-0.0039 0.02814 0.0079 0.012052 0.04748 0.040212 0.03968 0.028141 0.0278 0.032178 0.05551 0.052283 0.02775 0.020049 0.05153 8e-3 0.06333-0.028236z" opacity=".9"/>
    <path d="m10.59 6.8286c-0.0039-0.016108-0.01191-0.072427 0.01189-0.068411 0.02375 0.00407 0.0079 0 0.03566 0.01209 0.02773 0.01209 0.03167-0.020087 0.03167-0.020087h0.04362l0.05544 0.044192-0.0079 0.036213-0.03962 0.00398c-0.01977-0.032121-0.05941-0.020068-0.0515 0.00809 0.0079 0.028123-0.01977 0.080407-0.03559 0.084404-0.01585 0.00404-0.06744 0.00404-0.06341-0.020068 0.0039-0.024125 0.01977-0.080405 0.01977-0.080405z" opacity=".9"/>
    <path d="m10.558 6.7199v-0.03214s-4e-3 -0.032159-0.02379-0.032159c-0.01976 0-0.05544-0.024106-0.04758-0.040212 8e-3 -0.016107-0.06731-0.032178-0.06731-0.032178s-0.06731-0.064336-0.04356-0.056264c0.02379 0.00803 0.01191-0.028179 0.01191-0.028179s-0.04758 0.00803-0.05947 0.00404c-0.01191-0.00404-8e-3 -0.040212-8e-3 -0.040212s-0.04746-0.012071-0.04746 0 0.01583 0.012071 0.0237 0.036158c8e-3 0.024106 4e-3 0.064355 0.03972 0.07237 0.03566 0.00807 0.04352 0.016069 0.04756 0.032178 0.0039 0.016107 0.0475 0.020106 0.0475 0.020106l0.03172 0.01607 0.09504 0.080424z" opacity=".9"/>
   </g>
   <polygon transform="matrix(.018672 0 0 .01895 -.063829 3.9307)" points="545.32 123.85 543.62 123.43 543.62 125.34 545.95 125.55" opacity=".9" stroke-width=".54688"/>
   <g stroke-width=".013034">
    <path d="m10.118 6.141c-0.04142-0.031439 0.05542 0.024144 0.05542 0.024144 0.03167 0 0.0515 0.024125 0.0515 0.036215 0 0.012052 0.04358 0.00803 0.04358 0.00803l4e-3 -0.028179-0.03176-0.040212-0.02769-0.020049s-0.04356-0.00404-0.04356-0.016107c-1.9e-5 -0.012033-0.03568 0.048249-0.05152 0.036158z" opacity=".9"/>
    <path d="m10.847 6.1651c-0.01158 0.03519-0.01583 0.084461-0.03566 0.084461-0.01977 0-0.01189 0.052322-0.01189 0.052322s0.05159 0 0.06743 0.00398c0.0158 0.00398 0.0158 0.044192 0.0158 0.044192 0.05947-0.00398 0.08326 0.076427 0.07528 0.096533-0.0079 0.020087 0.02379 0.020087 0.02379 0.020087s0 0.064355-8e-3 0.080407c-0.0079 0.016107 0.05154 0.028179 0.06737 0.052283 0.01583 0.024143-8e-3 0.10455-0.01981 0.10857-0.01187 0.00404 0.03165 0.01607 0.02773 0.036177-4e-3 0.020144 0.01189 0 0.01583 0.032197 0.0039 0.03214 0.01191 0.10049 0.01191 0.10049l0.05542 0.00406c8e-3 -0.052264 0.11011-0.054274 0.1268-0.048268 0.06735 0.024124 0.11892 0.12867 0.11892 0.15278 0 0.024105-0.04364 0.028179-0.04364 0.028179l8e-3 0.11656c0.06731 0.020125 0.12279 0.11666 0.11489 0.13273-0.0079 0.016069 0.04748 0.01209 0.04748 0.01209 8e-3 -0.072427 0.0753-0.048284 0.07922-0.024144 0.0041 0.024144 0.01585 0.076408 0.01585 0.076408l0.01983 0.036139 0.02773 0.02816 0.04356-0.00402 0.01191 0.024144 0.0515 0.00807s0.04364 0.048191 0.04756 0.060298c4e-3 0.012033 0.06341 0.00803 0.07922 0.012033 0.01583 0.00404 0.03964 0.016107 0.04356 0.036196 4e-3 0.020125 0.0278 0.052283 0.0278 0.052283s0.0475 0.01209 0.0515 0.02814c0.0039 0.01605 0.02379 0.052264 0.02379 0.052264l0.03953 0.032178 4e-3 0.036213 0.04356 0.00402 0.01191 0.048191 0.07125-0.00398 0.0397-0.028141c0.0515-0.028122 0.08716-0.064336 0.09114-0.080443 0.0039-0.016069 0.01186-0.076351 0.0515-0.064298 0.03958 0.012071 0.01189-0.08848 0.01189-0.08848s-0.05546-0.040212-0.05153-0.060356c4e-3 -0.020068-0.05542-0.060263-0.0515-0.076369 0.0039-0.016108-0.0515-0.048229-0.04756-0.064317 0.0039-0.016107-0.02773-0.060356-0.02773-0.060356l-0.05947-0.056263-0.0079-0.036215-0.0475-0.00398-0.09506-0.11662 0.0039-0.032197-0.02773-4e-3v-0.044211l-0.02769-0.016107-0.04364-0.00402-0.08712-0.096476-0.0079-0.044249h-0.04356l0.0079-0.084461c0.02777-0.036196 0.01187-0.10455 0.01187-0.10455s-0.05551 0.028141-0.08316 0.01607c-0.02778-0.012014 0.01184-0.040212 0.01184-0.040212v-0.032134l-0.02373-0.024125s-0.0674 0.00807-0.07132-0.00398c-4e-3 -0.012071-0.01583-0.064355-0.01583-0.064355l-4e-3 -0.068373-0.02769-0.012014-4e-3 -0.024163-0.04352 4e-3v-0.04823l-0.02381-0.00803-0.02375-0.012071-4e-3 -0.048268-0.08716-0.00398-0.02773-0.040212-0.03167-0.048265-0.09905-0.00803-0.02379-0.024087-0.0396-0.00807-0.02773-0.012071-0.01189 0.020144-0.0753 0.00398-0.0039 0.024125c-0.0396 0.020106-0.19807 4e-3 -0.2021 0.01605z" opacity=".9"/>
    <path d="m11.263 6.0607c-0.0063-0.031742 0.0793-0.060317 0.09907-0.036215 0.01985 0.024125 0.07528 0.028217 0.08322 0.14884 0.0028 0.043189-0.07132-0.04423-0.07132-0.04423l-0.05947-0.020106c-0.03167-0.00807-0.04756-0.028124-0.0515-0.048287z" opacity=".9"/>
    <rect transform="matrix(-.91112 -.41214 .40209 -.9156 0 0)" x="-11.706" y="-1.4038" width=".023773" height=".03953" opacity=".9"/>
    <path d="m9.8964 5.7149-0.051609-0.052283v-0.04423l-0.015833-0.016126-0.015834-0.056263-0.051497-0.01607-0.051497 0.020068-0.055475 0.036196-0.059395 0.00809-0.031742 0.036158 0.1268 0.012014 0.023732 0.040269 0.091213 0.00803 0.059357 0.060298c0.051609 0.016107 0.063447-0.00803 0.03178-0.036158z" opacity=".9"/>
    <path d="m9.8886 5.5178c-0.00872-0.035343-0.059469 0.044211-0.00786 0.06026 0.051497 0.016164 0.10292 0 0.10292 0l0.011913-0.024105 0.19804 0.00404c0.01595-0.016107 0.02379-0.040212 0.02379-0.040212s0.04758-0.016108 0.06733-0.00807c0.01985 0.00807 4e-3 -0.056264-0.01583-0.048229-0.01977 0.00803-0.05938 0.00402-0.05938 0.00402h-0.07135c-0.0039-0.02812-0.06733-0.016107-0.07129 0-4e-3 0.01607-0.02769 0.020087-0.02769 0.020087l-0.091139 0.00807c-0.00795 0.024143-0.055436 0.040212-0.059452 0.024143z" opacity=".9"/>
    <path d="m9.4963 6.1963c0.060928 0.019329 0.083165 0.00502 0.087197-0.011048 0.00394-0.016107 0.00786-0.020144 0.031668-0.024124 0.023751-0.00404-0.00398-0.052284-0.027728-0.048268-0.023806 0.00402-0.047576-0.00803-0.051497-0.028141-0.00405-0.020087-0.043637-0.07237-0.047576-0.03214-0.00396 0.040212-0.027728 0.040212-0.023788 0.068354 4e-3 0.028086 0.01589 0.070287 0.031725 0.075367z" opacity=".9"/>
    <path d="m9.0408 6.2416c-0.00286-0.014231 0.079225-0.016069 0.091139-0.00406 0.011912 0.01209 0.00394 0.032178 0.039604 0.032178 0.035608 0 0.019792 0.024143 0.015834 0.036215-0.00394 0.012052-0.043525 0.00803-0.047576-0.00398-0.00392-0.01209-0.063392-0.016164-0.063392-0.016164s-0.031668-0.024144-0.035607-0.044192z" opacity=".9"/>
   </g>
   <g stroke-width=".54688">
    <polygon transform="matrix(.018672 0 0 .01895 -.063829 3.9307)" points="558.09 77.802 557.01 76.721 556.11 77.62 557.59 79.105 558 79.51 558.44 79.154 560.57 77.455 559.77 76.462" opacity=".9"/>
    <polygon transform="matrix(.018672 0 0 .01895 -.063829 3.9307)" points="546.71 71.752 546.04 72.832 547.74 73.89 548.07 74.105 548.41 73.89 550.75 72.403 550.07 71.33 548.07 72.599" opacity=".9"/>
    <polygon transform="matrix(.018672 0 0 .01895 -.063829 3.9307)" points="540.92 116.22 538.8 116 538.67 117.27 540.49 117.45 541.81 119.52 542.88 118.84 541.4 116.51 541.23 116.25" opacity=".9"/>
   </g>
   <path d="m8.7317 7.2548 0.00405 0.044249h0.059359c0.023788 0-0.019773-0.028141-0.019773-0.028141s-0.047557 0.00404-0.043637-0.016107z" opacity=".9" stroke-width=".013034"/>
   <rect transform="matrix(.63291 -.77423 .76494 .6441 0 0)" x=".12221" y="11.412" width=".023998" height=".031091" opacity=".9" stroke-width=".013034"/>
   <rect transform="matrix(.70246 -.71172 .70125 .71291 0 0)" x="1.2035" y="10.324" width=".023964" height=".03386" opacity=".9" stroke-width=".013034"/>
   <polygon transform="matrix(.018672 0 0 .01895 -.063829 3.9307)" points="495.95 407.82 495.38 408.96 496.71 409.62 496.27 410.06 497.18 410.96 498.24 409.9 498.86 409.28 498.07 408.88" opacity=".9" stroke-width=".54688"/>
   <polygon transform="matrix(.018672 0 0 .01895 -.063829 3.9307)" points="480.83 392.62 479.55 393.68 478.92 394.21 479.59 394.69 481.08 395.75 481.82 394.72 481 394.13 481.64 393.6" opacity=".9" stroke-width=".54688"/>
   <path d="m11.876 10.627c-0.0052-0.02049-0.02834-0.0289-0.03096-0.02975l-0.0076 0.02293v-1.43e-4c0.0019 7.2e-4 0.0046 0.0022 0.0074 4e-3l0.0049 0.02084c-0.0018 0.0027-0.0037 0.0052-0.0052 7e-3l0.01744 0.01632c0.01272-0.01416 0.01742-0.02787 0.0141-0.04112z" opacity=".9" stroke-width=".013034"/>
   <polygon transform="matrix(.018672 0 0 .01895 -.063829 3.9307)" points="639.31 349.19 639.47 347.28 641.54 347.6 641.38 349.34" opacity=".9" stroke-width=".54688"/>
   <g stroke-width=".013034">
    <path d="m12.83 10.237c0.01694-0.01071 0.0386-0.03021 0.03566 0.0151-3e-3 0.04521-0.02082 0.03019-0.03566 0.04521-0.01484 0.0151-0.02377-0.04521 0-0.06032z" opacity=".9"/>
    <path d="m13.032 10.067c-3.36e-4 -7.96e-4 -5.41e-4 -0.0036-7.11e-4 -0.0056-5.22e-4 -0.0066-0.0014-0.01567-0.0061-0.02517l-0.02123 0.01078c0.0026 0.0054 0.0032 0.01107 0.0036 0.01652 5.99e-4 0.0071 0.0014 0.0151 0.0081 0.0202 0.0043 0.0032 0.0096 0.0042 0.01604 0.0029l-0.0045-0.02335c0.0018 2.84e-4 0.0042 0.0019 0.0048 0.0037z" opacity=".9"/>
    <path d="m12.979 10.086c6e-3 0.02445 0.01484 0.04853 0.01524 0.04954l0.02229-0.0085c-1.67e-4 -2.15e-4 -0.0088-0.0238-0.01451-0.04696l-0.02302 0.0059z" opacity=".9"/>
    <path d="m12.893 10.181-0.02367-0.0024c-0.0019 0.01897 0.0027 0.04241 0.0214 0.04622l0.0046-0.02365c1.67e-4 0 3.91e-4 1.43e-4 4.48e-4 1.43e-4 -0.0019-0.0017-0.0037-0.01141-0.0028-0.02033z" opacity=".9"/>
    <path d="m12.788 9.7015c-0.0012-0.00773-0.0059-0.013739-0.013-0.016903-0.01759-0.00773-0.04724 0.00506-0.06177 0.014914l0.01314 0.020087c0.01505-0.010195 0.0348-0.015103 0.03921-0.012848-3.91e-4 -1.429e-4 -9.34e-4 -8.532e-4 -0.0011-0.00133l0.02349-0.00392z" opacity=".9"/>
    <path d="m11.691 8.4169c-0.01583 0.016107-0.0515 0.024143-0.0515 0.024143l-0.01191 0.04423-0.01975 0.016069s0.0039 0.012052 0 0.040212c-4e-3 0.028124-0.03964 0.04423-0.03964 0.04423l-0.01583 0.020106s-0.09551 0.00517-0.10697 0c-0.03566-0.016069-0.01186-0.064336 0.01191-0.060317 0.02373 0.00404-4e-3 -0.068373-4e-3 -0.068373l0.03174-4e-3s0.0039-0.072408 0.01583-0.072408c0.01189 0-0.0039-0.024105-0.01985-0.036177-0.01583-0.012014-0.03563-0.052226-0.05153-0.048229-0.01583 4e-3 -0.07922 0-0.07922 0l-0.01189 0.024143-0.0436 0.00802s0.0038 0.031098-0.0039 0.040231c-0.02386 0.028124-0.11492 0.088441-0.07536-0.012071l0.01186-0.024086v-0.036215l-0.07123-0.00398s-0.03566-0.01209-0.03566-0.028178c0-0.016089-4e-3 -0.036158-4e-3 -0.036158l-0.08322-0.092476-0.099-0.012052-8e-3 -0.020144-0.05936-0.00803c-0.07136-0.036158-0.13477-0.00402-0.12286 0.056302 0.01188 0.060356 0.03165 0.084461-0.0079 0.084461-0.03968 0-0.04758-0.032159-0.04758-0.032159s-0.03165-0.01209-0.03165 0.00398c0 0.016107-0.01191 0.048268 0 0.064336 0.01184 0.01607-0.01591 0.040212-0.0278 0.028141-0.0118-0.012071-0.04352-0.048191-0.03559-0.06026 0.0079-0.012071-0.05553-0.088499 0.0079-0.10055 0.06341-0.012071-4e-3 -0.048267 0.01985-0.056263l0.03165-0.016107h0.03167l0.01983-0.016107-0.0515-8e-3 -0.03165-0.00404-0.05947-0.00402c-0.05939 0.040212-0.07125 0.08848-0.07125 0.08848-0.03176 0.060298-0.10697-0.024143-0.07922-0.056302 0.02769-0.032178-0.0872-0.00404-0.10703 0.012052-0.01985 0.01607-0.07926 0.00803-0.07926 0.00803-0.01186 0.036215-0.06731-0.00398-0.0515-0.028122 0.01585-0.024125 0.01585-0.040212 0.01585-0.040212l-0.01977-0.00404-0.02375 0.04423c-0.05547 0-0.07136 0.03214-0.05949 0.052264 0.01187 0.020068-0.01583-0.00402-0.02379 0.024124-0.0079 0.028141 4e-3 0.028141 0.0278 0.040212 0.02379 0.012071-0.01191 0.012071 0.0039 0.03214 0.01583 0.020144 0.06339 0 0.03568 0.028179-0.02773 0.028124-0.08326 0.016107-0.08326 0.016107-0.0039 0.03612-0.079224 0.028124-0.087085 0.01607-0.00797-0.012071-0.067351-0.084461-0.067351-0.084461l-0.075378-0.00402c-0.00786-0.056264 0.0357-0.028141 0.051535-0.07237 0.015927-0.044249 0.023843-0.11658 0.023843-0.11658s-0.063466-0.00402-0.067406 0.016069c-0.00392 0.020125-0.043563 0.032178-0.043563 0.032178s-0.031725 0.012033-0.019829 0.028141c0.011894 0.016108-0.023789 0.024086-0.023789 0.024086s0.00618 0.025981-0.00394 0.036196c-0.031649 0.032216-0.11095 4e-3 -0.12279-0.00803l-0.047576-0.020106-0.047557-0.032159-0.055436 0.024086-0.015833 0.016107h-0.059469l-0.00392 0.048191 0.10697 0.012052 0.00794 0.099526-0.043637-0.015027h-0.027727l-0.011857-0.024144-0.023788-0.00404v0.088441l0.023788 0.020144 0.019848 0.020049 0.039621 0.00404 0.00794 0.04823 0.099 0.00407 0.011894 0.020068 0.059469 0.00404 0.11489 0.11656-0.00794 0.036215-0.019848 0.012071c0.00797 0.028141-0.051442 0.012071-0.051442 0.012071v0.024086l0.027654 0.00402 0.027801 0.016069 0.039585-0.068335c0.043563-0.028141 0.063335 0.012071 0.067367 0.036196 0.00392 0.024125-0.019867 0.020087-0.019867 0.020087v0.05634l0.023789 8e-3c0.039678 0.048265-0.015834 0.076426-0.015834 0.076426l-0.011912 0.040193c-0.011831 0.036197-0.055393 0.028125-0.055393 0.028125l-0.015796 0.024143-0.047615 0.012071 0.094071 0.012052c0.00894-0.032178 0.032657-0.040212 0.044552-0.024124 0.011912 0.016107 0.011912 0.044249 0.011912 0.044249l0.023862 0.00402-0.00403 0.044211 0.023788 0.00807v0.12865l0.027728 0.032159c0.047557-0.020049 0.047557 0.01209 0.023751 0.028141-0.023751 0.016051-0.00794 0.08848-0.00794 0.08848l-0.01981 0.020068v0.032197l-0.023751 0.01607v0.044211c-0.03964-0.020087-0.087197-0.01209-0.099111 0-0.035588-0.024143-0.11087-0.016069-0.11087 0.00406 0.023732 0.032159-0.027689 0.040212-0.027689 0.040212l-0.027802 0.032159c0.019848 0.040231-0.019754 0.044211-0.019754 0.044211v0.076427l-0.047576 0.04423 0.00401 0.10455c0 0.028141 0.059395 0.03214 0.071233 0.01607 0.011913-0.01607 0.059488 0.032197 0.059488 0.032197h0.035588l0.00797-0.072408-0.023807-0.012071v-0.11663l0.03964-0.044249c0.047557-0.01607 0.031725 0.1046 0.031725 0.11666 0.00394 0.044211 0.023695 0.040212 0.043563 0.03214 0.039604-0.01607 0.00786 0.044288-0.023789 0.040212-0.031668-0.00398-0.011912 0.040212-0.011912 0.040212l0.019867 0.00807-0.0357 0.02814-0.031613 0.036215-0.039716-0.01209-0.047483-0.00398-0.015852-0.028216-0.027785-4e-3 -0.00394 0.056264-0.019773 0.024125-0.047557 0.048322c0.063411 0-0.00797 0.044135-0.023789 0.044135 0.035646 0.012071-0.00394 0.048303-0.09506 0.020182v0.028104l-0.031742 4e-3 0.027802 0.03212 0.031649 4e-3 -0.011894 0.06835c0 0.05226-0.13072 0.01603-0.14264 4e-3l-0.00394 0.07239-0.023789 4e-3 0.00394 0.0483-0.00394 0.06837 0.043563-0.0081v0.02816l0.10703 4e-3 0.15451-0.16491 0.091101-0.02007c0.0079-0.04027 0.047484 0.0081 0.047484 0.0081 0.03964-0.0041 0.047576 0.02409 0.047576 0.02409l0.051535 0.0081c0.043525 0.01209 0.017215 0.01632 0.019773 0.03222 0.00392 0.02409 0.02375 0.01603 0.02375 0.01603l0.00797-0.05226 0.023789 4e-3 -0.023789-0.02816-0.043637-0.02014-0.047503-0.02007c-0.031725-0.04421 0.00792-0.03616 0.03964-0.03212h0.051497s0.059469 0.08037 0.059469 0.10049c0 0.02014 0.027728 0.02416 0.027728 0.02416l0.035589-4e-3 0.011912 0.02811h0.03565l0.01191 0.02409h0.07133l4e-3 -0.03616-0.06743-0.01199-0.0039-0.04027-0.0475-0.01207c-0.015908-0.0683 0.01184-0.08844 0.03165-0.05623l0.02377 0.0039-0.0079-0.06032 0.02771-0.0081-0.0079-0.084461-0.02375-0.00798v-0.028178l0.099 0.00409c-0.0079-0.052341 4e-3 -0.076446 4e-3 -0.076446h0.02773l0.0039 0.020163 0.12122 0.011427 0.0857-0.098313c-0.0043-0.0075 0.0086-0.01209-8.04e-4 -0.021736-0.01191-0.012052-0.0278 0-0.04769-0.012052-0.01975-0.011995 0-0.080407-0.0039-0.096476-0.0039-0.01607 0.06743-0.040269 0.05553-0.00402-0.01189 0.036215 0 0.052284 0 0.052284 0.0515-0.048268 0.09508 0.00398 0.09114 0.016069-4e-3 0.012052 0.02769 0.024124 0.04746 0.012052 0.01985-0.012052 0.04362 0.036215 0.03568 0.060279-8e-3 0.024124-0.07921 0.020144-0.08315-4e-3 -4e-3 -0.024144-0.01595-0.016069-0.02379-4e-3 -8e-3 0.012071-0.04356 0.020068-0.06341 8e-3 -4e-3 -0.00244-0.0059-0.00447-0.0071-0.00641l-0.0857 0.098313 0.0056 5.672e-4c0.0475 0.028179 0.02379 0.064355 8e-3 0.072389-0.01591 0.00805-0.04364 0.00805-0.04364 0.00805l-0.0079 0.016108-0.10303 8e-3 -8e-3 0.04025c-0.0515-0.0081-0.07125 0.04823-0.05938 0.07633 0.01191 0.02811 0 0.05226 0 0.05226l0.04358 0.02014 0.05542-0.01603c8e-3 -0.04027 0.04356-0.04832 0.0753-0.07239 0.03165-0.02414 0.08322 0.04413 0.06731 0.07635-0.01583 0.03212-0.01583 0.04421-0.01583 0.04421l0.0039 0.03621-0.03959 0.01605-0.03167 0.01611-4e-3 0.02013h-0.1069l-0.01977 0.02007-0.05153 0.0041-0.01591 0.02409-0.03559 4e-3s-0.059469 0.02816-0.035664 0.06032c0.02377 0.0322-0.099019 0.02816-0.12682-0.01611-0.00794 0.04017-0.051497 4e-3 -0.051497 4e-3l-0.043563-0.01209-0.00394-0.06025c-0.00794-0.04025-0.083222-0.04025-0.079225-0.01207 0.00394 0.02816-0.14269 0.01207-0.14269 0.01207l-0.047502 0.02308-0.043637 0.02517-0.00392 0.02007-0.071364 0.0081-0.031649 0.01611-0.011875-0.02414h-0.031669l-0.031725 0.04427c-0.083184 4e-3 -0.16241 0.05228-0.15451 0.07239 0.00794 0.02007-0.031649 0.04027-0.031649 0.04027l-0.0357 0.01192-0.023713 0.03623-0.047557 0.01611-0.00797 0.08448-0.023713 0.01603v0.03623l-0.027786 8e-3v0.02014l-0.039604 4e-3 0.023714 0.06034 0.031799 0.01611c0.055456 8e-3 0.031649 0.07641 0.031649 0.07641l0.031668 4e-3 0.015908 0.04421 0.031649 0.06434c0.011912 0.04832 0.047576 0.03623 0.063411 0.03222 0.015833-4e-3 0.031649 0.04823 0.031649 0.04823l0.15845 4e-3s-0.00786 0.01611 0.019867 0.02414c0.027689 8e-3 0.20995 0.01611 0.21792 4e-3 -0.00797-0.03623 0.09898-0.04429 0.14262-0.01209 0.043525 0.03212 0.10299 0.01209 0.10299 0.01209l0.059414 0.0723 0.039697 0.0885 0.067313 0.02007 0.047502 0.01209 0.015908 0.06835 0.03559 4e-3 0.01191 0.04427c0.04362 0.03214-0.01191 0.10051-0.01191 0.10051v0.08842l0.03172 0.01611-4e-3 0.03221 0.05157 0.05219 0.0594 0.0041 0.15059 0.16081 0.11881 0.03616 0.01977 0.06435 0.03176-4e-3 0.02375-0.02007 0.09506-4e-3 0.04758-0.04429 0.0515-8e-3 0.43978-0.37397-0.03968-0.02414v-0.08842c0.07132-0.05226 0.07528-0.1448 0.0079-0.15284-0.05109-0.0061-0.02769-0.06032 0.01987-0.06835l0.02769-0.01201v-0.03623l0.09112-0.08438v-0.06436l-0.198-0.16491c-0.0872-0.03212 0-0.22517 0.05936-0.22113 0.05947 4e-3 -0.0039-0.29754-0.0039-0.29754l-0.03174-0.01605 8e-3 -0.09655h-0.04356l-0.07135 0.09253-0.01977 0.06428c-0.0079 0.08454-0.25359 0.06836-0.2655 0.05628-0.01189-0.01207-0.09506-0.04823-0.09506-0.04823s-0.06339-0.05226-0.07529-0.03616c-0.01189 0.01611-0.06731-0.02014-0.06731-0.0081 0 0.01207-0.0515-0.0281-0.0515-0.0281l-0.07922-0.02818 0.05947-0.01209-0.01191-0.04823 0.10292 0.05226c0.01191 0.01603 0.06341 0.01209 0.06341 0.01209l0.01583 0.02013s0.03174-0.0041 0.05161 0.02007c0.01977 0.02414 0.12275 4e-3 0.12275 4e-3l0.02773 0.02409 0.04356 0.01611 0.12286 4e-3 0.0039-0.07635 0.02379-0.02414-4e-3 -0.0483 0.02773-0.02409v-0.04017l0.02379-0.0081 0.0039-0.08842 0.01977-4e-3v-0.19276l-0.05941-0.056321c-0.0039 0.020144-0.06731 0.020144-0.06731 0.020144s-0.01583 0.028105-0.02773 0.028105c-0.01186 0 0.01585 0.036158 0.0079 0.060318-0.0079 0.024087-0.03962 0.024087-0.03962 0.024087l-0.05947 0.016126-0.01583 0.020126h-0.06341l-0.0079-0.052264 0.07125-0.020144 0.03962-0.020049 0.01985-0.040269c0.0039-0.040155 0.0515-0.036177 0.0515-0.036177s0.09112-0.076408 0.09506-0.11253c4e-3 -0.036213 0.0357-0.13674 0.09114-0.13674h0.10303c0.03958-0.016126 0.02771-0.068373 0.02771-0.068373l0.05151-8e-3 0.0079 0.02814s0.07134 0.00803 0.07922-0.00404c8e-3 -0.012014 0.02379-0.040212 0.04364-0.028143 0.01979 0.012052 0.08318-0.02816 0.08318-0.02816 0.0039-0.028141 0.10299-0.016069 0.10299-0.016069l0.01191-0.036177s-0.06733-0.092479-0.07922-0.092479c-0.01191 0-0.07528-0.05634-0.08324-0.036213-0.06332-0.01607-0.05939-0.10455-0.05939-0.10455l-0.02379-0.056264c0-0.032216-0.05936-0.10055-0.07132-0.092476-0.05947-0.04423-0.01583-0.096514 0-0.10053 0.01583-4e-3 0.05551-0.060317 0.05551-0.060317l0.01977-0.056302 0.06735-0.020049 0.0079-0.052283-0.03559-0.00404s0.03955-0.072389 0.05939-0.072389c0.01985 0 0.15059 0 0.16239-0.00807 0.01189-8e-3 0.03565-0.072332 0.03565-0.084404 0-0.012071 0.03178-0.016107 0.04358-0.020144 0.01189-0.00398 0.03962-0.036158 0.04756-0.052264 0.0079-0.016183-0.01974-0.11673-0.03563-0.10064z" opacity=".9"/>
    <path d="m9.4963 9.8664c0.00594-0.00595 0.011912 0.018116 0.023787 0.015103 0.011801-0.00301 0.017813 0.021129 0.00596 0.021129-0.011912 0-0.011912 0.015103-0.011912 0.02113 0 0.00605 0 0.021072-0.00894 0.030131-0.00891 0.00906-0.01785 0.00301-0.029764-0.00301-0.011856-0.00603-0.017738-0.00603-0.032657-0.00603-0.014825 0-0.00301 0.024143-0.00301 0.024143s-0.062401-0.00301-0.050489-0.01209c0.011894-0.00898 0.023788-0.012071 0.0149-0.018116-0.00894-0.00603 0-0.012014 0-0.024086 0-0.01209 0.029726-0.00603 0.020744-0.015103-0.00885-0.00906 1.907e-4 -0.04404 0.014844-0.024143l0.00896-0.021148c-0.00896-0.00902-0.00295-0.012071-0.020781-0.018002-0.017813-0.00604-0.00302-0.042259-0.00302-0.042259l0.00302-0.024124c0.00594-0.030093 0.065332-0.033162 0.06834-0.00605 0.00293 0.027155 0 0.045253 0 0.045253l0.01785 0.00601s-0.00301 0.018192-0.01785 0.018192c-0.014919 0 0 0.00893-0.00894 0.018021l0.00896 0.015046z" opacity=".9"/>
    <path d="m9.3001 9.8967c0.00894-0.018116 0.029707-0.096514 0.053513-0.07237 0.023694 0.024125 0.038596 0 0.038596 0s0.011894 0.01209 0.00594 0.036215c-0.00594 0.024086-0.011913 0.048249-0.026813 0.051261-0.014807 0.00301-0.02672 0.012071-0.044459 0.015084-0.017813 0.00303-0.026774-0.030188-0.026774-0.030188z" opacity=".9"/>
   </g>
  </g>
 </g>
</svg>
