<?xml version="1.0" encoding="UTF-8"?>
<svg width="64" height="64" version="1" xmlns="http://www.w3.org/2000/svg" xmlns:xlink="http://www.w3.org/1999/xlink">
 <defs>
  <filter id="filter1057" x="-.027" y="-.027" width="1.054" height="1.054" color-interpolation-filters="sRGB">
   <feGaussianBlur stdDeviation="0.61875"/>
  </filter>
  <linearGradient id="linearGradient1053" x1="-127" x2="-72" y1="60" y2="5" gradientTransform="translate(190.41 27.599)" gradientUnits="userSpaceOnUse">
   <stop stop-color="#32d7ff" offset="0"/>
   <stop stop-color="#329bff" offset="1"/>
  </linearGradient>
  <linearGradient id="linearGradient13955" x1="2.0208" x2="14.938" y1="12.86" y2="4.0527" gradientTransform="matrix(3.6508 .97823 -.97823 3.6508 68.41 21.028)" gradientUnits="userSpaceOnUse">
   <stop stop-color="#fff" offset="0"/>
   <stop stop-color="#fff" offset="1"/>
  </linearGradient>
  <linearGradient id="linearGradient2393" x1="12.902" x2="51.847" y1="30.471" y2="30.471" gradientTransform="matrix(.091861 -.012702 .012702 .091861 71.55 32.255)" gradientUnits="userSpaceOnUse" xlink:href="#linearGradient13963"/>
  <linearGradient id="linearGradient13963" x1="12.902" x2="51.847" y1="30.471" y2="30.471" gradientTransform="matrix(.88217 -.12198 .12198 .88217 32.107 -4.6962)" gradientUnits="userSpaceOnUse">
   <stop stop-color="#00c8ff" offset="0"/>
   <stop stop-color="#14b4ff" offset="1"/>
  </linearGradient>
  <linearGradient id="linearGradient2407" x1="12.902" x2="51.847" y1="30.471" y2="30.471" gradientTransform="matrix(.88218 -.12198 .12198 .88218 90.64 24.941)" gradientUnits="userSpaceOnUse" xlink:href="#linearGradient13963"/>
  <linearGradient id="linearGradient2457" x1="12.902" x2="51.847" y1="30.471" y2="30.471" gradientTransform="matrix(.88218 -.12198 .12198 .88218 90.64 24.606)" gradientUnits="userSpaceOnUse" xlink:href="#linearGradient13963"/>
 </defs>
 <g transform="translate(-58.908 -28.109)">
  <rect x="63.408" y="32.609" width="55" height="55" ry="15" fill="#141414" filter="url(#filter1057)" image-rendering="optimizeSpeed" opacity=".3" stroke-linecap="round" stroke-width="2.7444"/>
  <rect x="63.408" y="32.609" width="55" height="55" ry="15" fill="url(#linearGradient1053)" image-rendering="optimizeSpeed" stroke-linecap="round" stroke-width="2.7444"/>
  <path d="m111.6 71.493-41.379 1.36e-4c-1.1103-1.1e-5 -2.0105-1.0358-2.0105-2.3136l2.41e-4 -18.141c1.5e-5 -1.2778 0.90022-2.3136 2.0105-2.3136l41.379-1.37e-4c1.1104 1.6e-5 2.0105 1.0359 2.0105 2.3136l-2.4e-4 18.141c-2e-5 1.2778-0.90023 2.3136-2.0105 2.3136z" fill="url(#linearGradient13955)" stroke="#fafafa" stroke-width=".5"/>
  <g fill="url(#linearGradient2393)" stroke-width=".10413">
   <path d="m109.92 60.624-2.2438 8e-6c-0.25584 0-0.46317 0.20733-0.46317 0.46318l1e-5 2.7876c0 0.25585 0.20731 0.46317 0.46317 0.46317l2.2438-7e-6c0.25584-1e-6 0.46318-0.20743 0.46317-0.46318v-2.7876c0-0.25574-0.20731-0.46317-0.46318-0.46317z"/>
   <path d="m110.38 59.432-1e-5 -3.152c0-0.25585-0.20743-0.46317-0.46318-0.46317l-2.2438 8e-6c-0.25584 1e-6 -0.46317 0.20743-0.46317 0.46318l1e-5 3.152c0 0.25585 0.20731 0.46317 0.46318 0.46317l2.2438-7e-6c0.25584-1e-6 0.46317-0.20733 0.46317-0.46318z"/>
   <path d="m103.87 64.338 2.1453-7e-6c0.25585-1e-6 0.46318-0.20743 0.46318-0.46318l-1e-5 -2.7876c0-0.25585-0.20743-0.46317-0.46318-0.46317l-2.1453 8e-6c-0.25584 0-0.46317 0.20733-0.46317 0.46318l1e-5 2.7876c0 0.25575 0.20731 0.46317 0.46317 0.46317z"/>
   <path d="m103.87 69.145 2.1453-8e-6c0.25584 0 0.46318-0.20742 0.46318-0.46318l-2e-5 -3.152c0-0.25585-0.20742-0.46317-0.46317-0.46317l-2.1453 7e-6c-0.25584 1e-6 -0.46317 0.20733-0.46317 0.46318v3.152c1e-5 0.25584 0.20731 0.46317 0.46318 0.46317z"/>
   <path d="m103.87 59.895 2.1453-7e-6c0.25584-1e-6 0.46317-0.20743 0.46317-0.46318l-1e-5 -3.152c0-0.25585-0.20742-0.46317-0.46317-0.46317l-2.1453 7e-6c-0.25585 0-0.46318 0.20743-0.46318 0.46318l1e-5 3.152c1e-5 0.25585 0.20731 0.46317 0.46318 0.46317z"/>
   <path d="m107.21 65.531 1e-5 3.152c0 0.25584 0.20731 0.46317 0.46318 0.46317l2.2438-8e-6c0.25584 0 0.46317-0.20742 0.46317-0.46318l-1e-5 -3.152c0-0.25585-0.20743-0.46317-0.46318-0.46317l-2.2438 7e-6c-0.25584 1e-6 -0.46317 0.20733-0.46317 0.46318z"/>
  </g>
  <g fill="url(#linearGradient2407)">
   <g stroke-width=".10413">
    <path d="m80.554 68.701-1.1e-5 -3.1885c-1e-6 -0.24575-0.1992-0.44495-0.44495-0.44495l-3.223 1.1e-5c-0.24575 1e-6 -0.44495 0.1992-0.44495 0.44495l1e-5 3.1885c1e-6 0.24575 0.1992 0.44495 0.44496 0.44495l3.223-1.1e-5c0.24575 0 0.44495-0.19918 0.44495-0.44495z"/>
    <path d="m82.763 60.624-3.223 1.1e-5c-0.24575 0-0.44495 0.1992-0.44495 0.44495l9e-6 2.824c1e-6 0.24575 0.1992 0.44495 0.44496 0.44495l3.223-1.1e-5c0.24575-1e-6 0.44495-0.1992 0.44495-0.44495l-1e-5 -2.824c1.03e-4 -0.24575-0.1992-0.44495-0.44495-0.44495z"/>
    <path d="m89.792 65.068-8.0648 2.7e-5c-0.24575 1e-6 -0.44495 0.1992-0.44495 0.44495l1.1e-5 3.1885c1e-6 0.24575 0.1992 0.44495 0.44495 0.44495l8.0648-2.6e-5c0.24575-4e-6 0.44495-0.19918 0.44495-0.44496l-1e-5 -3.1885c1.03e-4 -0.24575-0.1992-0.44495-0.44496-0.44495z"/>
    <path d="m74.566 61.069 9e-6 2.824c1e-6 0.24575 0.1992 0.44495 0.44496 0.44495l2.9106-1e-5c0.24575 0 0.44495-0.1992 0.44495-0.44495l-9e-6 -2.824c-1e-6 -0.24575-0.1992-0.44495-0.44496-0.44495l-2.9105 1e-5c-0.24575-1.04e-4 -0.44506 0.1991-0.44506 0.44495z"/>
    <path d="m83.938 61.069 9e-6 2.824c0 0.24575 0.1992 0.44495 0.44495 0.44495l3.2228-1.1e-5c0.24575-1e-6 0.44495-0.1992 0.44495-0.44495l-9e-6 -2.824c-1e-6 -0.24575-0.1992-0.44495-0.44496-0.44495l-3.2228 1.1e-5c-0.24575-1.04e-4 -0.44495 0.1991-0.44495 0.44495z"/>
    <path d="m91.412 69.145 3.223-1.2e-5c0.24575 0 0.44495-0.19918 0.44495-0.44495l-1.1e-5 -3.1885c0-0.24575-0.1992-0.44495-0.44495-0.44495l-3.223 1.1e-5c-0.24575 1e-6 -0.44495 0.1992-0.44495 0.44496l1.1e-5 3.1885c0 0.24575 0.1992 0.44495 0.44495 0.44495z"/>
    <path d="m80.554 59.451-1.1e-5 -3.1885c0-0.24575-0.1992-0.44495-0.44495-0.44495l-3.223 1.1e-5c-0.24575 1e-6 -0.44495 0.1992-0.44495 0.44496l1e-5 3.1885c1e-6 0.24575 0.1992 0.44495 0.44496 0.44495l3.223-1.1e-5c0.24575 0 0.44495-0.1992 0.44495-0.44495z"/>
    <path d="m71.88 64.339 1.5124-5e-6c0.24575-1e-6 0.44495-0.1992 0.44495-0.44495l-9e-6 -2.824c-1e-6 -0.24575-0.1992-0.44495-0.44496-0.44495l-1.5124 5e-6c-0.24575 1e-6 -0.44495 0.1992-0.44495 0.44496l9e-6 2.824c-1.03e-4 0.24564 0.1991 0.44495 0.44496 0.44495z"/>
    <path d="m71.88 69.145 3.3866-1.1e-5c0.24575 0 0.44495-0.19919 0.44495-0.44495l-1e-5 -3.1885c-1e-6 -0.24575-0.1992-0.44495-0.44496-0.44495l-3.3866 1.1e-5c-0.24575 1e-6 -0.44495 0.1992-0.44495 0.44496l1.1e-5 3.1885c-1.03e-4 0.24575 0.1991 0.44495 0.44496 0.44495z"/>
    <path d="m71.88 59.896 3.3866-1.1e-5c0.24575-1e-6 0.44495-0.1992 0.44495-0.44496l-1.1e-5 -3.1885c-1e-6 -0.24575-0.1992-0.44495-0.44495-0.44495l-3.3866 1.1e-5c-0.24575 1e-6 -0.44495 0.1992-0.44495 0.44495l1e-5 3.1885c-1.03e-4 0.24575 0.1991 0.44495 0.44496 0.44495z"/>
    <path d="m85.396 59.451-1.1e-5 -3.1885c-1e-6 -0.24575-0.1992-0.44495-0.44496-0.44495l-3.223 1.1e-5c-0.24575 1e-6 -0.44495 0.1992-0.44495 0.44496l1e-5 3.1885c1e-6 0.24575 0.1992 0.44495 0.44496 0.44495l3.223-1e-5c0.24564-1e-6 0.44495-0.1992 0.44495-0.44496z"/>
    <path d="m92.448 60.624-3.223 1e-5c-0.24575 1e-6 -0.44495 0.1992-0.44495 0.44496l9e-6 2.824c1e-6 0.24575 0.1992 0.44495 0.44496 0.44495l3.223-1.1e-5c0.24575 0 0.44495-0.1992 0.44495-0.44495l-9e-6 -2.824c1.03e-4 -0.24575-0.1992-0.44495-0.44496-0.44495z"/>
    <path d="m90.237 59.451-1.1e-5 -3.1885c0-0.24575-0.1992-0.44495-0.44495-0.44495l-3.2228 1e-5c-0.24575 1e-6 -0.44495 0.1992-0.44495 0.44496l1.1e-5 3.1885c0 0.24575 0.1992 0.44495 0.44495 0.44495l3.2228-1e-5c0.24564-1e-6 0.44495-0.1992 0.44495-0.44496z"/>
   </g>
   <path d="m99.45 60.624-5.3685 1.8e-5c-0.25398 0-0.45985 0.1992-0.45985 0.44495l9e-6 2.824c1e-6 0.24575 0.20587 0.44495 0.45986 0.44495l5.3685-1.8e-5c0.25399-1e-6 0.45985-0.1992 0.45985-0.44495l-1.2e-5 -2.824c0-0.24575-0.20588-0.44495-0.45985-0.44495z" stroke-width=".10586"/>
   <g stroke-width=".10413">
    <path d="m95.079 59.451-1e-5 -3.1885c-1e-6 -0.24575-0.1992-0.44495-0.44496-0.44495l-3.223 1e-5c-0.24575 1e-6 -0.44495 0.1992-0.44495 0.44496l1e-5 3.1885c1e-6 0.24575 0.1992 0.44495 0.44496 0.44495l3.223-1.1e-5c0.24564 0 0.44495-0.1992 0.44495-0.44495z"/>
    <path d="m80.554 54.705-1.1e-5 -3.1885c-1e-6 -0.24575-0.1992-0.44495-0.44496-0.44495l-3.223 1.1e-5c-0.24575 0-0.44495 0.1992-0.44495 0.44495l1e-5 3.1885c1e-6 0.24575 0.1992 0.44495 0.44496 0.44495l3.223-1e-5c0.24575-1e-6 0.44495-0.1992 0.44495-0.44496z"/>
    <path d="m71.88 55.15 3.3866-1.1e-5c0.24575-1e-6 0.44495-0.1992 0.44495-0.44496l-1e-5 -3.1885c-1e-6 -0.24575-0.1992-0.44495-0.44496-0.44495l-3.3866 1.1e-5c-0.24575 1e-6 -0.44495 0.1992-0.44495 0.44495l1.1e-5 3.1885c-1.03e-4 0.24575 0.1991 0.44495 0.44495 0.44495z"/>
    <path d="m85.396 54.705-1.1e-5 -3.1885c-1e-6 -0.24575-0.1992-0.44495-0.44495-0.44495l-3.223 1e-5c-0.24575 1e-6 -0.44495 0.1992-0.44495 0.44496l1.1e-5 3.1885c1e-6 0.24575 0.1992 0.44495 0.44495 0.44495l3.223-1e-5c0.24564-1e-6 0.44495-0.1992 0.44495-0.44496z"/>
    <path d="m90.237 54.705-1.1e-5 -3.1885c0-0.24575-0.1992-0.44495-0.44495-0.44495l-3.2228 1e-5c-0.24575 1e-6 -0.44495 0.1992-0.44495 0.44496l1e-5 3.1885c1e-6 0.24575 0.1992 0.44495 0.44496 0.44495l3.2228-1e-5c0.24564-1e-6 0.44495-0.1992 0.44495-0.44496z"/>
    <path d="m95.079 54.705-1.1e-5 -3.1885c-1e-6 -0.24575-0.1992-0.44495-0.44496-0.44495l-3.223 1.1e-5c-0.24575 0-0.44495 0.1992-0.44495 0.44495l1e-5 3.1885c1e-6 0.24575 0.1992 0.44495 0.44496 0.44495l3.223-1.1e-5c0.24564-1e-6 0.44495-0.1992 0.44495-0.44496z"/>
    <path d="m99.922 54.705-1.2e-5 -3.1885c0-0.24575-0.19918-0.44495-0.44496-0.44495l-3.223 1.1e-5c-0.24575 0-0.44495 0.1992-0.44495 0.44495l1.1e-5 3.1885c1e-6 0.24575 0.1992 0.44495 0.44495 0.44495l3.223-1e-5c0.24564-1e-6 0.44495-0.1992 0.44495-0.44496z"/>
    <path d="m99.922 59.451-1.2e-5 -3.1885c0-0.24575-0.19918-0.44495-0.44495-0.44495l-3.223 1.1e-5c-0.24575 1e-6 -0.44495 0.1992-0.44495 0.44496l1e-5 3.1885c1e-6 0.24575 0.1992 0.44495 0.44496 0.44495l3.223-1e-5c0.24564-1e-6 0.44495-0.1992 0.44495-0.44496z"/>
    <path d="m99.922 68.701-1.1e-5 -3.1885c0-0.24575-0.19922-0.44495-0.44495-0.44495l-3.223 1.1e-5c-0.24575 1e-6 -0.44495 0.1992-0.44495 0.44496l1.1e-5 3.1885c1e-6 0.24575 0.1992 0.44495 0.44495 0.44495l3.223-1.1e-5c0.24564 0 0.44495-0.19918 0.44495-0.44495z"/>
   </g>
  </g>
  <g fill="url(#linearGradient2457)">
   <path d="m104.8 53.105a0.69512 0.69512 0 0 1-0.66756 0.69459 0.69512 0.69512 0 0 1-0.72051-0.63949 0.69512 0.69512 0 0 1 0.61042-0.7453 0.69512 0.69512 0 0 1 0.76892 0.58039" style="paint-order:stroke fill markers"/>
   <path d="m107.59 53.105a0.69512 0.69512 0 0 1-0.66756 0.69459 0.69512 0.69512 0 0 1-0.72051-0.63949 0.69512 0.69512 0 0 1 0.61042-0.7453 0.69512 0.69512 0 0 1 0.76892 0.58039" style="paint-order:stroke fill markers"/>
   <path d="m110.38 53.105a0.69512 0.69512 0 0 1-0.66756 0.69459 0.69512 0.69512 0 0 1-0.72051-0.63949 0.69512 0.69512 0 0 1 0.61042-0.7453 0.69512 0.69512 0 0 1 0.76892 0.58039" style="paint-order:stroke fill markers"/>
  </g>
 </g>
</svg>
