<?xml version="1.0" encoding="UTF-8"?>
<svg width="64" height="64" version="1.1" viewBox="0 0 16.933 16.933" xmlns="http://www.w3.org/2000/svg" xmlns:cc="http://creativecommons.org/ns#" xmlns:dc="http://purl.org/dc/elements/1.1/" xmlns:rdf="http://www.w3.org/1999/02/22-rdf-syntax-ns#">
 <defs>
  <filter id="filter1057-6" x="-.027" y="-.027" width="1.054" height="1.054" color-interpolation-filters="sRGB">
   <feGaussianBlur stdDeviation="0.61875"/>
  </filter>
  <filter id="filter2369" x="-.026948" y="-.027052" width="1.0539" height="1.0541" color-interpolation-filters="sRGB">
   <feGaussianBlur stdDeviation="0.10729283"/>
  </filter>
  <radialGradient id="radialGradient989-6" cx="1.852" cy="-3.8191e-5" r="7.4085" gradientTransform="matrix(-.81197 .72498 -.89285 -.99998 17.337 1.7979)" gradientUnits="userSpaceOnUse">
   <stop stop-color="#ff8100" offset="0"/>
   <stop stop-color="#f69429" stop-opacity="0" offset="1"/>
  </radialGradient>
  <radialGradient id="radialGradient969-5" cx="1.852" cy="-3.8191e-5" r="7.4085" gradientTransform="matrix(.60516 -.53793 .85713 .96427 27.413 17.366)" gradientUnits="userSpaceOnUse">
   <stop stop-color="#18bdd3" offset="0"/>
   <stop stop-color="#2da8b8" stop-opacity="0" offset="1"/>
  </radialGradient>
  <radialGradient id="radialGradient979-3" cx="1.852" cy="-3.8191e-5" r="7.4085" gradientTransform="matrix(.83601 .80813 -1.0357 1.0714 14.02 14.609)" gradientUnits="userSpaceOnUse">
   <stop stop-color="#dcff00" offset="0"/>
   <stop stop-color="#c4dc2b" stop-opacity="0" offset="1"/>
  </radialGradient>
  <radialGradient id="radialGradient901-5" cx="8.4665" cy="1.0583" r="7.4085" gradientTransform="matrix(-2.1991 8.1713e-8 -1.2786e-7 -1.2499 40.803 3.6699)" gradientUnits="userSpaceOnUse">
   <stop stop-color="#ff5c9e" offset="0"/>
   <stop stop-color="#f566a0" stop-opacity="0" offset="1"/>
  </radialGradient>
  <radialGradient id="radialGradient907-7" cx="1.852" cy="-3.8191e-5" r="7.4085" gradientTransform="matrix(-.68686 -.77845 1.2142 -1.0714 30.07 4.847)" gradientUnits="userSpaceOnUse">
   <stop stop-color="#ff29b0" offset="0"/>
   <stop stop-color="#d462aa" stop-opacity="0" offset="1"/>
  </radialGradient>
  <radialGradient id="radialGradient959-6" cx="8.4665" cy="1.0583" r="7.4085" gradientTransform="matrix(6.5372e-8 1.7918 -.99998 1.0417e-7 15.833 -5.4158)" gradientUnits="userSpaceOnUse">
   <stop stop-color="#ffdb29" offset="0"/>
   <stop stop-color="#f9da3e" stop-opacity="0" offset="1"/>
  </radialGradient>
  <radialGradient id="radialGradient949-3" cx="8.4665" cy="1.0583" r="7.4085" gradientTransform="matrix(1.3274 -6.5372e-8 7.7173e-8 .99998 10.945 16.105)" gradientUnits="userSpaceOnUse">
   <stop stop-color="#53eb47" offset="0"/>
   <stop stop-color="#72cb6b" stop-opacity="0" offset="1"/>
  </radialGradient>
  <radialGradient id="radialGradient917-2" cx="8.4665" cy="1.0583" r="7.4085" gradientTransform="matrix(7.2363e-6 -1.3214 1.1071 6.0713e-6 28.42 20.943)" gradientUnits="userSpaceOnUse">
   <stop stop-color="#34d7f4" offset="0"/>
   <stop stop-color="#56c7d9" stop-opacity="0" offset="1"/>
  </radialGradient>
 </defs>
 <metadata>
  <rdf:RDF>
   <cc:Work rdf:about="">
    <dc:format>image/svg+xml</dc:format>
    <dc:type rdf:resource="http://purl.org/dc/dcmitype/StillImage"/>
    <dc:title/>
   </cc:Work>
  </rdf:RDF>
 </metadata>
 <rect transform="matrix(.26459 0 0 .26459 -6.02e-5 -6.019e-5)" x="4.5" y="4.5" width="55" height="55" ry="15" fill="#141414" filter="url(#filter1057-6)" opacity=".3" stroke-linecap="round" stroke-width="2.7444"/>
 <g transform="translate(-13.717 -1.2887)">
  <path d="m29.592 5.7868c0-1.9058-1.5342-3.4401-3.4401-3.4401h-7.937c-1.9058 0-3.4401 1.5342-3.4401 3.4401v7.937c0 1.9058 1.5342 3.4401 3.4401 3.4401h7.937c1.9058 0 3.4401-1.5342 3.4401-3.4401z" fill="#fff"/>
  <path d="m14.775 13.724c0 1.9058 1.5342 3.4401 3.4401 3.4401h7.937c1.9058 0 3.4401-1.5342 3.4401-3.4401v-7.937c0-1.9058-1.5342-3.4401-3.4401-3.4401h-7.937c-1.9058 0-3.4401 1.5342-3.4401 3.4401z" fill="url(#radialGradient989-6)"/>
  <path d="m29.592 5.7868c0-1.9058-1.5342-3.4401-3.4401-3.4401h-7.937c-1.9058 0-3.4401 1.5342-3.4401 3.4401v7.937c0 1.9058 1.5342 3.4401 3.4401 3.4401h7.937c1.9058 0 3.4401-1.5342 3.4401-3.4401z" fill="url(#radialGradient969-5)"/>
  <path d="m26.152 17.164c1.9058 0 3.4401-1.5342 3.4401-3.4401v-7.937c0-1.9058-1.5342-3.4401-3.4401-3.4401h-7.937c-1.9058 0-3.4401 1.5342-3.4401 3.4401v7.937c0 1.9058 1.5342 3.4401 3.4401 3.4401z" fill="url(#radialGradient979-3)"/>
  <path d="m18.215 2.3467c-1.9058 0-3.4401 1.5342-3.4401 3.4401v7.937c0 1.9058 1.5342 3.4401 3.4401 3.4401h7.937c1.9058 0 3.4401-1.5342 3.4401-3.4401v-7.937c0-1.9058-1.5342-3.4401-3.4401-3.4401z" fill="url(#radialGradient901-5)"/>
  <path d="m18.215 2.3467c-1.9058 0-3.4401 1.5342-3.4401 3.4401v7.937c0 1.9058 1.5342 3.4401 3.4401 3.4401h7.937c1.9058 0 3.4401-1.5342 3.4401-3.4401v-7.937c0-1.9058-1.5342-3.4401-3.4401-3.4401z" fill="url(#radialGradient907-7)"/>
  <path d="m14.775 13.724c0 1.9058 1.5342 3.4401 3.4401 3.4401h7.937c1.9058 0 3.4401-1.5342 3.4401-3.4401v-7.937c0-1.9058-1.5342-3.4401-3.4401-3.4401h-7.937c-1.9058 0-3.4401 1.5342-3.4401 3.4401z" fill="url(#radialGradient959-6)"/>
  <path d="m26.152 17.164c1.9058 0 3.4401-1.5342 3.4401-3.4401v-7.937c0-1.9058-1.5342-3.4401-3.4401-3.4401h-7.937c-1.9058 0-3.4401 1.5342-3.4401 3.4401v7.937c0 1.9058 1.5342 3.4401 3.4401 3.4401z" fill="url(#radialGradient949-3)"/>
  <path d="m29.592 5.7868c0-1.9058-1.5342-3.4401-3.4401-3.4401h-7.937c-1.9058 0-3.4401 1.5342-3.4401 3.4401v7.937c0 1.9058 1.5342 3.4401 3.4401 3.4401h7.937c1.9058 0 3.4401-1.5342 3.4401-3.4401z" fill="url(#radialGradient917-2)"/>
 </g>
 <path transform="matrix(1 0 0 1 -6.02e-5 -6.019e-5)" d="m6.4694 11.295 0.88317 0.87733c0.27667 0.27478 0.72292 0.27536 1.0001 0.0011l3.6525-3.6145c0.27721-0.27424 0.27741-0.71619 7.31e-4 -0.99097l-0.90763-0.90183z" filter="url(#filter2369)" opacity=".29"/>
 <path transform="matrix(1 0 0 1 -6.02e-5 -6.019e-5)" d="m6.4694 11.295 4.6289-4.6289-2.5494-2.5319c-0.27668-0.27477-0.72292-0.27536-1.0001-0.0011l-3.6525 3.6145c-0.27718 0.27426-0.27741 0.71619-7.309e-4 0.99097z" filter="url(#filter2369)" opacity=".29"/>
 <path transform="matrix(.70713 -.70713 .70713 .70713 -15.072 17.123)" d="m21.695 13.562v2.5507c-8.7e-5 0.02189 6.09e-4 0.04378 0.0021 0.06563 0.0022 0.03083 6e-3 0.06153 0.01137 0.09198 0.0052 0.03029 0.01195 0.0603 0.02015 0.08992 0.0083 0.02976 0.01818 0.05907 0.02945 0.08785 0.01115 0.02886 0.02374 0.05715 0.03772 0.08475 0.01399 0.02745 0.02934 0.05418 0.04599 0.0801 0.01665 0.02603 0.03458 0.05121 0.05374 0.07545 0.01916 0.02408 0.03951 0.04719 0.06098 0.06924 0.02166 0.02232 0.04442 0.04353 0.06821 0.06356 0.02352 0.01981 0.04801 0.03844 0.07338 0.05581 0.02553 0.0175 0.05191 0.03372 0.07906 0.04858 0.02704 0.01481 0.05481 0.02826 0.0832 0.04031 0.0284 0.01195 0.05737 0.02247 0.08681 0.03152 0.02957 0.0091 0.05958 0.01667 0.08992 0.02274 0.03024 0.0062 0.06076 0.01083 0.09146 0.01395 0.03074 0.0031 0.06161 0.0046 0.0925 0.0047 0.02189 8.7e-5 0.04378-6.08e-4 0.06563-0.0021 0.03083-0.0022 0.06153-6e-3 0.09198-0.01137 0.03029-0.0052 0.0603-0.01195 0.08992-0.02015 0.02976-0.0083 0.05907-0.01818 0.08785-0.02945 0.02886-0.01115 0.05715-0.02374 0.08475-0.03772 0.02745-0.01399 0.05418-0.02934 0.0801-0.04599 0.02603-0.01664 0.05121-0.03458 0.07545-0.05374 0.02408-0.01916 0.04719-0.03951 0.06925-0.06098 0.02232-0.02166 0.04353-0.04442 0.06356-0.06821 0.01981-0.02352 0.03844-0.04801 0.05581-0.07338 0.0175-0.02553 0.03371-0.05191 0.04857-0.07906 0.01481-0.02704 0.02826-0.05481 0.04031-0.0832 0.01195-0.0284 0.02247-0.05737 0.03152-0.08681 0.0091-0.02957 0.01667-0.05958 0.02274-0.08992 0.0062-0.03024 0.01083-0.06076 0.01395-0.09147 0.0031-0.03074 0.0046-0.06161 0.0047-0.0925v-2.5507z" filter="url(#filter2369)" opacity=".29"/>
 <path transform="matrix(.70713 -.70713 .70713 .70713 -15.072 17.123)" d="m21.695 13.599s0-0.54958-0.52916-0.54958l2.9104 0.02046s-0.52916-0.08268-0.52916 0.52916z" filter="url(#filter2369)" opacity=".29"/>
 <g>
  <path d="m6.4696 11.001 0.88321 0.87737c0.27669 0.2748 0.72294 0.27538 1.0001 0.0011l3.6527-3.6147c0.27723-0.27426 0.27743-0.71621 7.31e-4 -0.99101l-0.90767-0.90187z" fill="#fff"/>
  <path d="m6.4696 11.001 4.6291-4.6291-2.5494-2.5319c-0.27669-0.27479-0.72294-0.27538-1.0001-0.0010999l-3.6527 3.6147c-0.2772 0.27428-0.27743 0.71621-7.31e-4 0.99101z" fill="#ebebeb"/>
  <path d="m9.8599 11.077 1.8037 1.8037c0.01542 0.01554 0.03139 0.03053 0.04789 0.04492 0.02336 0.02024 0.04775 0.03927 0.07308 0.057 0.0251 0.01774 0.05109 0.03419 0.07783 0.04933 0.02691 0.01517 0.05462 0.02891 0.08294 0.04129 0.02829 0.01252 0.0572 0.02362 0.0866 0.03326 0.0293 0.0095 0.05906 0.01756 0.08916 0.02412 0.03018 0.0066 0.06066 0.01176 0.09135 0.01535 0.03058 0.0035 0.06131 0.0054 0.09208 0.0058 0.0311 4.67e-4 0.06219-6.29e-4 0.09318-0.0033 0.03064-0.0026 0.06113-0.0068 0.09135-0.01242 0.03043-0.0057 0.06055-0.01286 0.09026-0.02155 0.02959-0.0086 0.05874-0.01877 0.08733-0.03033 0.02853-0.01163 0.05645-0.02468 0.08367-0.0391 0.02734-0.01447 0.05392-0.03034 0.07966-0.0475 0.02577-0.017 0.05062-0.0353 0.07454-0.05481 0.02393-0.01954 0.04682-0.04031 0.06873-0.06208 0.01554-0.01542 0.03053-0.03139 0.04492-0.04789 0.02024-0.02336 0.03927-0.04775 0.057-0.07308 0.01774-0.0251 0.03419-0.05109 0.04934-0.07783 0.01517-0.02691 0.02891-0.05462 0.04129-0.08294 0.01252-0.02829 0.02362-0.0572 0.03326-0.0866 0.0095-0.0293 0.01756-0.05906 0.02412-0.08916 0.0066-0.03017 0.01176-0.06066 0.01535-0.09135 0.0035-0.03058 0.0054-0.06131 0.0058-0.09209 4.67e-4 -0.0311-6.3e-4 -0.06219-0.0033-0.09318-0.0026-0.03064-0.0068-0.06113-0.01242-0.09135-0.0057-0.03043-0.01287-0.06054-0.02156-0.09025-0.0086-0.02959-0.01877-0.05874-0.03033-0.08734-0.01163-0.02853-0.02468-0.05645-0.0391-0.08367-0.01447-0.02734-0.03034-0.05392-0.0475-0.07966-0.017-0.02577-0.03531-0.05062-0.05481-0.07454-0.01955-0.02393-0.04031-0.04682-0.06208-0.06873l-1.8036-1.8037z" fill="#fff"/>
  <path d="m9.8859 11.103s-0.38863-0.38863-0.76282-0.01444l2.0725-2.0435s-0.43265 0.31573 0 0.74837z" fill="#fff"/>
 </g>
</svg>
