<?xml version="1.0" encoding="UTF-8"?>
<svg width="64" height="64" version="1.1" viewBox="0 0 64 64" xmlns="http://www.w3.org/2000/svg">
 <defs>
  <filter id="filter1057-3" x="-.027" y="-.027" width="1.054" height="1.054" color-interpolation-filters="sRGB">
   <feGaussianBlur stdDeviation="0.61875"/>
  </filter>
  <linearGradient id="linearGradient1053-6" x1="-127" x2="-72" y1="60" y2="5" gradientTransform="translate(131.5 -.51)" gradientUnits="userSpaceOnUse">
   <stop stop-color="#32d7ff" offset="0"/>
   <stop stop-color="#329bff" offset="1"/>
  </linearGradient>
 </defs>
 <rect x="4.5" y="4.5" width="55" height="55" ry="15" fill="#141414" filter="url(#filter1057-3)" opacity=".3" stroke-linecap="round" stroke-width="2.7444"/>
 <rect x="4.5" y="4.5" width="55" height="55" ry="15" fill="url(#linearGradient1053-6)" stroke-linecap="round" stroke-width="2.7444"/>
 <path d="m35.002 17.998c-6.0553 0-11.056 4.9562-11.056 11.011 0 2.2994 0.77678 4.4134 1.9993 6.1921l-7.3706 7.3793a2.0081 2.0126 0 0 0 2.807 2.8776l7.3706-7.3838c1.7786 1.2226 3.9455 1.9419 6.2496 1.9419a11.029 11.029 0 0 0 10.998-11.007 11.029 11.029 0 0 0-10.998-11.011zm0 4.003c3.8926 0 6.9998 3.1115 6.9998 7.0085 0 3.8926-3.1071 7.0044-6.9998 7.0044a6.9688 6.9688 0 0 1-6.9953-7.0044c0-3.8971 3.1027-7.0085 6.9953-7.0085z" fill="#fff" stroke-width="3.7796"/>
</svg>
