<?xml version="1.0" encoding="UTF-8" standalone="no"?>
<svg
   xmlns:dc="http://purl.org/dc/elements/1.1/"
   xmlns:cc="http://creativecommons.org/ns#"
   xmlns:rdf="http://www.w3.org/1999/02/22-rdf-syntax-ns#"
   xmlns:svg="http://www.w3.org/2000/svg"
   xmlns="http://www.w3.org/2000/svg"
   xmlns:xlink="http://www.w3.org/1999/xlink"
   xmlns:sodipodi="http://sodipodi.sourceforge.net/DTD/sodipodi-0.dtd"
   xmlns:inkscape="http://www.inkscape.org/namespaces/inkscape"
   viewBox="0 0 64 64"
   version="1.1"
   id="svg45"
   sodipodi:docname="preferences-desktop-peripherals.svg"
   width="64"
   height="64"
   inkscape:version="1.0.2 (e86c870879, 2021-01-15)">
  <metadata
     id="metadata49">
    <rdf:RDF>
      <cc:Work
         rdf:about="">
        <dc:format>image/svg+xml</dc:format>
        <dc:type
           rdf:resource="http://purl.org/dc/dcmitype/StillImage" />
        <dc:title></dc:title>
      </cc:Work>
    </rdf:RDF>
  </metadata>
  <sodipodi:namedview
     pagecolor="#ffffff"
     bordercolor="#666666"
     borderopacity="1"
     objecttolerance="10"
     gridtolerance="10"
     guidetolerance="10"
     inkscape:pageopacity="0"
     inkscape:pageshadow="2"
     inkscape:window-width="1920"
     inkscape:window-height="992"
     id="namedview47"
     showgrid="false"
     inkscape:zoom="6.1208931"
     inkscape:cx="-2.6908787"
     inkscape:cy="30.917388"
     inkscape:window-x="0"
     inkscape:window-y="0"
     inkscape:window-maximized="1"
     inkscape:current-layer="svg45" />
  <defs
     id="defs7">
    <linearGradient
       id="linearGradient3764"
       x1="1"
       x2="47"
       gradientUnits="userSpaceOnUse"
       gradientTransform="rotate(-90,23.999998,24)">
      <stop
         style="stop-color:#e4e4e4;stop-opacity:1"
         id="stop2" />
      <stop
         offset="1"
         style="stop-color:#eee;stop-opacity:1"
         id="stop4" />
    </linearGradient>
    <linearGradient
       id="linearGradient851"
       y2="1"
       gradientUnits="userSpaceOnUse"
       x2="0"
       y1="47">
      <stop
         style="stop-color:#f7cbcd"
         offset="0"
         id="stop2-6" />
      <stop
         style="stop-color:#fadcde"
         offset="1"
         id="stop4-7" />
    </linearGradient>
    <linearGradient
       inkscape:collect="always"
       id="linearGradient2445">
      <stop
         style="stop-color:#1e1e1e;stop-opacity:1"
         offset="0"
         id="stop2441" />
      <stop
         style="stop-color:#3c3c3c;stop-opacity:1"
         offset="1"
         id="stop2443" />
    </linearGradient>
    <style
       type="text/css"
       id="style835" />
    <style
       type="text/css"
       id="style837" />
    <filter
       id="filter1057"
       x="-0.027000001"
       y="-0.027000001"
       width="1.054"
       height="1.054"
       color-interpolation-filters="sRGB">
      <feGaussianBlur
         stdDeviation="0.61875"
         id="feGaussianBlur839" />
    </filter>
    <linearGradient
       id="linearGradient1053"
       x1="-127"
       x2="-72"
       y1="60"
       y2="5"
       gradientTransform="matrix(0.26458333,0,0,0.26458333,34.792708,-0.1349375)"
       gradientUnits="userSpaceOnUse">
      <stop
         stop-color="#dee0e2"
         offset="0"
         id="stop842"
         style="stop-color:#32373c;stop-opacity:1" />
      <stop
         stop-color="#f1f3f5"
         stop-opacity=".99608"
         offset="1"
         id="stop844"
         style="stop-color:#46505a;stop-opacity:0.99607843" />
    </linearGradient>
    <linearGradient
       inkscape:collect="always"
       xlink:href="#linearGradient2445"
       id="linearGradient2447"
       x1="31.738337"
       y1="6.2139182"
       x2="31.738337"
       y2="58.771091"
       gradientUnits="userSpaceOnUse" />
  </defs>
  <g
     fill="#5e4aa6"
     id="g867">
    <g
       transform="translate(-76.881,-23.026)"
       id="g861">
      <circle
         cx="-1248.7"
         cy="-1241.6"
         r="0"
         id="circle849" />
      <circle
         cx="-1140.3"
         cy="-1301.8"
         r="0"
         id="circle851" />
      <circle
         cx="-978.95001"
         cy="-1316.3"
         r="0"
         id="circle853" />
      <circle
         cx="120.52"
         cy="-50.805"
         r="0"
         fill-rule="evenodd"
         id="circle855" />
      <circle
         cx="-972.45001"
         cy="-1325.3"
         r="0"
         id="circle857" />
      <circle
         cx="127.04"
         cy="-59.816002"
         r="0"
         fill-rule="evenodd"
         id="circle859" />
    </g>
    <circle
       cx="-1248.7"
       cy="-1241.6"
       r="0"
       id="circle863" />
    <circle
       cx="-149.14999"
       cy="23.855"
       r="0"
       fill-rule="evenodd"
       id="circle865" />
  </g>
  <rect
     x="4.5"
     y="4.5"
     width="55"
     height="55"
     ry="15"
     fill="#141414"
     filter="url(#filter1057)"
     opacity="0.3"
     stroke-linecap="round"
     stroke-width="2.7444"
     id="rect869" />
  <path
     id="rect2438"
     style="fill:url(#linearGradient2447);fill-opacity:1;stroke-width:1.00157;stroke-linecap:round;stroke-linejoin:round;paint-order:stroke fill markers"
     d="m 19.5,4.5 c -8.31,0 -15,6.69 -15,15 v 25 c 0,8.31 6.69,15 15,15 h 25 c 8.31,0 15,-6.69 15,-15 v -25 c 0,-8.31 -6.69,-15 -15,-15 z" />
  <g
     transform="matrix(1.1999997,0,0,1.1999997,11.17686,-1199.9344)"
     id="g1020"
     style="stroke-width:1.31742">
    <path
       d="m 11.167281,1034.8565 c -0.02334,0 -0.04669,0 -0.07003,-0.01 -0.08276,-0.019 -0.154911,-0.071 -0.200182,-0.1421 -0.526272,-0.8418 1.254849,-2.1596 5.444516,-4.9628 1.121158,-0.7513 2.492013,-1.6673 3.428552,-2.3853 -0.949271,0.6119 -2.22817,1.4685 -3.417942,2.2657 -5.290312,3.5432 -6.4397655,4.2441 -6.8316405,4.1593 -0.08418,-0.018 -0.181083,-0.084 -0.227061,-0.1578 -0.09196,-0.1464 -0.04951,-0.3395 0.09549,-0.435 5.0151515,-3.2814 10.1710665,-7.053 11.5228225,-8.6213 -2.127725,1.2867 -8.35882,5.2246 -12.6892527,7.9762 -0.07215,0.045 -0.15774,0.062 -0.241208,0.042 -0.08276,-0.018 -0.154204,-0.07 -0.199475,-0.1407 -0.07215,-0.1153 -0.1443,-0.3099 -0.07993,-0.5829 0.07852,-0.3332 0.370655,-0.7434 0.8304365,-1.2138 -0.4894905,0.3112 -0.9655415,0.6161 -1.4210785,0.9075 -0.07215,0.045 -0.158447,0.06 -0.241208,0.044 -0.08347,-0.018 -0.154911,-0.071 -0.200181,-0.1422 -0.05659,-0.091 -0.113885,-0.2448 -0.06154,-0.4591 0.05588,-0.2299 0.277283,-0.5397 0.627424,-0.9026 -0.990298,0.6048 -1.13672,0.6289 -1.271825,0.6013 -0.08347,-0.018 -0.163399,-0.074 -0.20867,-0.1471 -0.858022,-1.3716 3.4073312,-4.5321 11.0651647,-9.5281 0.781627,-0.5107 1.537083,-1.0024 2.014548,-1.3299 -1.392076,0.4089 -5.175013,2.8698 -9.2875785,5.8598 -0.9421987,0.7137 -1.9940362,1.5031 -3.1668322,2.3781 -0.381264,0.2837 -0.734942,0.5475 -0.996664,0.7449 -0.154203,0.1195 -0.307699,0.239 -0.461196,0.3586 -0.07144,0.055 -0.163399,0.074 -0.251111,0.062 -0.08842,-0.015 -0.166936,-0.069 -0.214329,-0.145 -0.08276,-0.133 -0.123079,-0.198 0.08842,-0.4018 l -0.01344,-0.017 c 0.485246,-0.3778 2.387325,-1.8519 4.6911832,-3.5297 2.2210965,-1.6814 4.8255805,-3.6931 6.3478095,-5.0124 -1.454323,0.909 -3.606806,2.2841 -5.477054,3.4781 -6.2296822,3.9789 -6.2360484,3.9789 -6.4447183,3.928 -0.082761,-0.018 -0.1563256,-0.071 -0.2015963,-0.1422 -0.3211394,-0.5143 0.3062849,-1.2068 5.3313394,-5.1036 0.5545677,-0.4301 1.1452087,-0.8877 1.6283332,-1.2725 -1.2506055,0.7519 -3.1717837,2.1617 -4.3721657,3.0423 -2.3583237,1.7309 -2.6914882,1.9417 -2.9581612,1.8915 -0.087005,-0.016 -0.1796683,-0.078 -0.2270612,-0.1542 -0.3098217,-0.4952 0.3218468,-0.9974 3.4002584,-3.1166 0.273039,-0.1889 0.57225,-0.3947 0.878535,-0.6069 -3.8168902,2.4814 -4.0885147,2.5655 -4.3056729,2.5181 -0.083468,-0.018 -0.1655212,-0.076 -0.2114993,-0.1485 -0.1421784,-0.2271 -0.1846198,-0.2943 2.3569082,-2.6278 -0.9761502,0.6118 -1.7372647,1.0058 -2.0025231,0.9599 -0.086297,-0.016 -0.203011,-0.094 -0.2496965,-0.1684 -0.1011518,-0.1613 -0.3126511,-0.5008 1.390661,-2.3498 l 0.099737,-0.5199 -0.062955,0.3119 -0.1754242,-0.2645 c 0.017684,-0.014 0.060125,-0.047 0.1195431,-0.094 1.0942787,-0.8708 1.3998557,-1.0024 1.6424787,-0.9627 0.08913,0.015 0.207963,0.093 0.256063,0.169 0.07922,0.1273 0.05942,0.2922 -0.04739,0.3976 -0.935124,0.9131 -1.945227,2.0081 -2.402886,2.6391 0.969077,-0.5256 3.050824,-1.9332 4.913998,-3.2835 0.1372275,-0.1 0.3275065,-0.074 0.4343175,0.057 0.10681,0.1309 0.09196,0.3226 -0.03325,0.4358 -1.1600635,1.0511 -2.7233195,2.4793 -3.9208725,3.5905 1.142379,-0.7257 2.505454,-1.6184 3.443407,-2.2331 2.0301117,-1.3284 2.0272827,-1.3249 2.1843157,-1.2916 0.08347,0.018 0.156326,0.071 0.202304,0.1428 0.146422,0.2349 0.08983,0.4987 -0.241916,0.8772 0.535468,-0.2816 0.904,-0.3969 1.143794,-0.3502 0.137227,0.026 0.251111,0.1026 0.321139,0.2137 0.206548,0.3303 0.219281,0.3501 -2.8124455,2.7006 -1.1643082,0.9019 -2.8166912,2.1836 -3.9350202,3.1506 1.213822,-0.7625 2.927037,-1.8575 4.5178812,-2.8733 7.2164415,-4.6084 7.2525165,-4.5978 7.4668455,-4.5539 0.08276,0.018 0.157033,0.071 0.202303,0.1428 0.142886,0.2292 0.275869,0.4414 -1.363074,1.8816 1.538499,-0.899 2.787689,-1.4571 3.354988,-1.3602 0.250404,0.044 0.380557,0.1796 0.447048,0.285 0.210085,0.3374 0.210085,0.3374 -2.69078,2.2289 -2.666023,1.7394 -10.4108607,6.792 -10.8897407,8.3694 0.964126,-0.5432 3.8232587,-2.4113 6.3860077,-4.0864 7.153487,-4.6749 8.015753,-5.1622 8.329112,-5.095 0.08347,0.018 0.167643,0.077 0.213621,0.1499 0.04527,0.073 0.05942,0.1606 0.04032,0.2434 -0.01981,0.083 -0.07356,0.1549 -0.145715,0.198 -5.616403,3.3677 -11.4025715,7.2214 -13.2629177,9.0025 13.2466487,-8.4706 13.4440007,-8.4182 13.6010337,-8.3793 0.08276,0.018 0.158448,0.071 0.203011,0.1436 0.04527,0.072 0.06012,0.162 0.04103,0.2461 -0.04527,0.1917 -0.04598,0.196 -2.257172,1.5499 -2.962405,1.8129 -9.5896195,5.871 -10.8925692,7.6974 12.7720132,-8.1169 12.9021662,-8.0844 13.0712242,-8.0546 0.08276,0.019 0.155618,0.071 0.200889,0.1428 0.338823,0.5419 -0.801434,1.7847 -2.598824,3.2843 1.54345,-1.003 1.810123,-1.1056 1.994743,-1.0667 0.08417,0.018 0.169058,0.076 0.215743,0.15 0.430072,0.6896 -0.876414,1.6509 -4.720891,4.2229 -1.398442,0.9358 -3.464627,2.318 -4.540515,3.2566 3.514012,-1.5235 3.789029,-1.1308 3.955257,-1.099 0.08205,0.018 0.156326,0.071 0.200889,0.1422 0.09408,0.1493 0.0481,0.3445 -0.100444,0.4386 -0.029,0.017 -0.05942,0.031 -0.09054,0.04 -0.48666,0.2384 -1.756796,-0.1785 -4.781448,1.7547 -0.05659,0.033 -0.116007,0.049 -0.176132,0.049 z"
       fill="#ffffff"
       fill-opacity="0.852041"
       stroke-width="0.931886"
       id="path1016" />
    <path
       d="m 29.46566,1016.0049 c -0.05734,0 -0.114168,0.01 -0.169291,0.024 -0.110268,0.038 -0.201583,0.1179 -0.252542,0.2231 l -0.611248,1.2647 3.05892,1.4811 0.611248,-1.2647 c 0.106115,-0.2192 0.01444,-0.4822 -0.204814,-0.5884 l -2.265638,-1.0975 c -0.05267,-0.025 -0.109291,-0.039 -0.166635,-0.043 z m -1.225603,1.9078 -0.211641,0.4391 3.05892,1.4811 0.211641,-0.4391 z m -0.404386,0.8365 -0.213253,0.4388 3.05892,1.4811 0.213254,-0.4388 z m -0.405997,0.8362 -6.454687,14.1769 c -0.02972,0.062 -0.0458,0.1294 -0.04528,0.1975 l 0.0314,2.8253 c 0.0022,0.1676 0.09759,0.3178 0.248479,0.3908 0.106859,0.052 0.228677,0.058 0.337316,0.02 0.04427,-0.015 0.08572,-0.037 0.124194,-0.067 l 2.234236,-1.7279 c 0.05414,-0.042 0.0987,-0.095 0.128349,-0.1565 l 6.456521,-14.1783 z"
       fill="#ffffff"
       fill-opacity="0.85098"
       stroke-width="0.034844"
       id="path1018" />
  </g>
</svg>
