<?xml version="1.0" encoding="UTF-8"?>
<svg width="64" height="64" version="1.1" viewBox="0 0 64 64" xmlns="http://www.w3.org/2000/svg">
 <defs>
  <linearGradient id="linearGradient862-3" x1="7.9373" x2="7.9373" y1="15.081" y2="1.852" gradientTransform="matrix(3.7795 0 0 3.7795 87.282 30.167)" gradientUnits="userSpaceOnUse">
   <stop stop-color="#1a1a1a" offset="0"/>
   <stop stop-color="#4d4d4d" offset="1"/>
  </linearGradient>
 </defs>
 <g transform="translate(-87.282 -30.136)">
  <g shape-rendering="auto">
   <g stroke-width="3.7796">
    <path d="m103.8 32.135c-7.9908 0-14.514 6.7409-14.514 14.998v32.004c0 8.2569 6.5236 14.998 14.514 14.998h30.972c7.9908 0 14.514-6.7409 14.514-14.998v-32.004c0-8.2569-6.5236-14.998-14.514-14.998zm0.97151 1.9688h29.03c6.9707 0 12.583 5.7987 12.583 13.002v29.998c0 7.2032-5.6116 13.002-12.583 13.002h-29.03c-6.9707 0-12.583-5.7987-12.583-13.002v-29.998c0-7.2032 5.6116-13.002 12.583-13.002z" color="#000000" color-rendering="auto" dominant-baseline="auto" image-rendering="auto" opacity=".01" solid-color="#000000" stop-color="#000000" style="font-feature-settings:normal;font-variant-alternates:normal;font-variant-caps:normal;font-variant-east-asian:normal;font-variant-ligatures:normal;font-variant-numeric:normal;font-variant-position:normal;font-variation-settings:normal;inline-size:0;isolation:auto;mix-blend-mode:normal;shape-margin:0;shape-padding:0;text-decoration-color:#000000;text-decoration-line:none;text-decoration-style:solid;text-indent:0;text-orientation:mixed;text-transform:none;white-space:normal"/>
    <path d="m103.76 33.135c-7.4337 0-13.47 6.2469-13.47 13.938v32.125c0 7.6907 6.0364 13.938 13.47 13.938h31.054c7.4337 0 13.472-6.2469 13.472-13.938v-32.125c0-7.6907-6.0383-13.938-13.472-13.938zm1.0289 0.96875h28.996c6.9628 0 12.568 5.7987 12.568 13.002v29.998c0 7.2032-5.6052 13.002-12.568 13.002h-28.996c-6.9628 0-12.568-5.7987-12.568-13.002v-29.998c0-7.2032 5.6052-13.002 12.568-13.002z" color="#000000" color-rendering="auto" dominant-baseline="auto" image-rendering="auto" opacity=".01" solid-color="#000000" stop-color="#000000" style="font-feature-settings:normal;font-variant-alternates:normal;font-variant-caps:normal;font-variant-east-asian:normal;font-variant-ligatures:normal;font-variant-numeric:normal;font-variant-position:normal;font-variation-settings:normal;inline-size:0;isolation:auto;mix-blend-mode:normal;shape-margin:0;shape-padding:0;text-decoration-color:#000000;text-decoration-line:none;text-decoration-style:solid;text-indent:0;text-orientation:mixed;text-transform:none;white-space:normal"/>
    <path d="m103.57 34.135c-7.0516 0-12.757 5.8142-12.757 12.998v32.004c0 7.1839 5.934 12.998 12.986 12.998h30.991c7.0516 0 12.954-5.8142 12.954-12.998v-32.004c0-7.1839-5.7072-12.998-12.758-12.998h-0.36617c6.7806 0.32699 12.147 5.979 12.147 12.971v29.998c0 7.2032-5.6917 13.002-12.762 13.002h-29.445c-7.0705 0-12.762-5.7987-12.762-13.002v-29.998c0-6.9915 5.3667-12.643 12.147-12.971z" color="#000000" color-rendering="auto" dominant-baseline="auto" image-rendering="auto" opacity=".03" solid-color="#000000" stop-color="#000000" style="font-feature-settings:normal;font-variant-alternates:normal;font-variant-caps:normal;font-variant-east-asian:normal;font-variant-ligatures:normal;font-variant-numeric:normal;font-variant-position:normal;font-variation-settings:normal;inline-size:0;isolation:auto;mix-blend-mode:normal;shape-margin:0;shape-padding:0;text-decoration-color:#000000;text-decoration-line:none;text-decoration-style:solid;text-indent:0;text-orientation:mixed;text-transform:none;white-space:normal"/>
   </g>
   <path d="m91.282 77.105v2.0312c0 6.6479 5.8957 12 12.544 12h30.961c6.648 0 12.495-5.3521 12.495-12v-1.9922c-0.0212 7.185-5.81 12.963-13 12.963h-29.998c-7.2032 0-13.002-5.7987-13.002-13.002z" color="#000000" color-rendering="auto" dominant-baseline="auto" image-rendering="auto" opacity=".03" solid-color="#000000" stop-color="#000000" style="font-feature-settings:normal;font-variant-alternates:normal;font-variant-caps:normal;font-variant-east-asian:normal;font-variant-ligatures:normal;font-variant-numeric:normal;font-variant-position:normal;font-variation-settings:normal;inline-size:0;isolation:auto;mix-blend-mode:normal;shape-margin:0;shape-padding:0;text-decoration-color:#000000;text-decoration-line:none;text-decoration-style:solid;text-indent:0;text-orientation:mixed;text-transform:none;white-space:normal"/>
   <path d="m91.282 75.135v2.2388c0 7.3271 5.9449 13.226 12.593 13.226h30.843c6.6479 0 12.565-5.8992 12.565-13.226v-2.1958c-0.0212 7.919-5.81 14.287-13 14.287h-29.998c-7.2032 0-13.002-6.3913-13.002-14.33z" color="#000000" color-rendering="auto" dominant-baseline="auto" image-rendering="auto" opacity=".05" solid-color="#000000" stop-color="#000000" stroke-width="3.7796" style="font-feature-settings:normal;font-variant-alternates:normal;font-variant-caps:normal;font-variant-east-asian:normal;font-variant-ligatures:normal;font-variant-numeric:normal;font-variant-position:normal;font-variation-settings:normal;inline-size:0;isolation:auto;mix-blend-mode:normal;shape-margin:0;shape-padding:0;text-decoration-color:#000000;text-decoration-line:none;text-decoration-style:solid;text-indent:0;text-orientation:mixed;text-transform:none;white-space:normal"/>
  </g>
  <rect x="91.282" y="34.135" width="56" height="56" rx="13.002" ry="13.002" fill="url(#linearGradient862-3)" stroke-width="3.7795"/>
  <path d="m136.78 73.785a0.26833 0.26833 0 0 1-0.0738 0.18822 0.25667 0.25667 0 0 1-0.18358 0.07933h-4.921a0.25667 0.25667 0 0 1-0.18508-0.07933 0.27611 0.27611 0 0 1-0.0755-0.18822v-23.224c0-0.14778 0.11668-0.26756 0.26057-0.26756h4.921c0.14234 0 0.25743 0.119 0.25743 0.26756zm-19.689 0a0.26833 0.26833 0 0 1-0.0747 0.18822 0.25667 0.25667 0 0 1-0.18197 0.07933h-4.9249a0.26211 0.26211 0 0 1-0.18357-0.0793 0.26756 0.26756 0 0 1-0.0724-0.18822v-13.971c0-0.14623 0.11436-0.26755 0.25589-0.26755h4.9249c0.14155 0 0.25669 0.12132 0.25669 0.26755zm9.9454 0v-16.644c0-3.7823-2.9369-6.8475-6.5605-6.8475h-18.438a0.26211 0.26211 0 0 0-0.25744 0.266v23.226c0 0.14933 0.11511 0.26752 0.25744 0.26752h4.9257a0.26211 0.26211 0 0 0 0.25667-0.26752v-18.231c0-0.14778 0.11511-0.26833 0.25665-0.26833h10.593c1.988 0 3.6011 1.6831 3.6011 3.7598v14.739c0 0.14933 0.11434 0.26831 0.25668 0.26831h4.8518a0.26289 0.26289 0 0 0 0.25743-0.26752z" fill="#fff" stroke-width=".024306" p-id="148380"/>
 </g>
</svg>
