<?xml version="1.0" encoding="UTF-8"?>
<svg width="64" height="64" version="1.1" xmlns="http://www.w3.org/2000/svg" xmlns:xlink="http://www.w3.org/1999/xlink">
 <defs>
  <filter id="filter1057" x="-.027" y="-.027" width="1.054" height="1.054" color-interpolation-filters="sRGB">
   <feGaussianBlur stdDeviation="0.61875"/>
  </filter>
  <linearGradient id="linearGradient1053" x1="-127" x2="-72" y1="60" y2="5" gradientTransform="translate(131.5 -.50996)" gradientUnits="userSpaceOnUse">
   <stop stop-color="#1d2123" offset="0"/>
   <stop stop-color="#33393e" stop-opacity=".99608" offset="1"/>
  </linearGradient>
 </defs>
 <rect x="4.5" y="4.5" width="55" height="55" ry="15" fill="#141414" filter="url(#filter1057)" opacity=".3" stroke-linecap="round" stroke-width="2.7444"/>
 <rect x="4.5" y="4.5" width="55" height="55" ry="15" fill="url(#linearGradient1053)" stroke-linecap="round" stroke-width="2.7444"/>
 <path d="m30.627 19.549c-0.24096 0.0175-0.385 0.27462-0.27327 0.48865l0.84942 1.82c-0.12519-0.18173-0.33385-0.28942-0.54923-0.28942-0.37154 0-0.67308 0.30154-0.67308 0.67308 0 0.37154 0.30154 0.67308 0.67308 0.67308v1.3462h-0.67308c-1.3462 0-2.0192-2.6923-3.3654-2.6923-9.4231 0-12.115 2.6923-12.115 5.3846 0 1.3462 2.6923 2.6923 4.0385 2.6923 0 1.4619 1.3462 2.6923 4.8462 2.6923 0.53846 0 0.53846 1.3462 0 1.3462-3.5 0 0.53846 2.6923 3.2308 5.3846v4.7115c0 0.37288 0.30019 0.67308 0.67308 0.67308 0.37288 0 0.67308-0.30019 0.67308-0.67308v-3.7437c0.70808 0.33923 1.3192 1.0513 1.851 1.0513 0.84135 0 2.1875-2.0192 2.1875-2.0192s1.3462 2.0192 2.1875 2.0192c0.53173 0 1.1429-0.71212 1.851-1.0513v3.7437c0 0.37288 0.30019 0.67308 0.67308 0.67308 0.37288 0 0.67308-0.30019 0.67308-0.67308v-4.7115c2.6923-2.6923 6.7308-5.3846 3.2308-5.3846-0.53846 0-0.53846-1.3462 0-1.3462 3.5 0 4.8462-1.225 4.8462-2.6923 1.3462 0 4.0385-1.3462 4.0385-2.6923 0-2.6923-2.6923-5.3846-12.115-5.3846-1.3462 0-2.0192 2.6923-3.3654 2.6923h-0.67308v-1.3462c0.37154 0 0.67308-0.30154 0.67308-0.67308 0-0.37154-0.30154-0.67308-0.67308-0.67308-0.21942 0.0013-0.42404 0.10904-0.54923 0.28942l0.84942-1.82c0.11981-0.23019-0.05654-0.50346-0.315-0.48865-0.1225 0.0054-0.23288 0.07808-0.28673 0.18981l-1.0433 1.8294-1.0433-1.8294c-0.05923-0.12519-0.19115-0.20058-0.32846-0.18981" fill="#f9f9f9"/>
</svg>
