<?xml version="1.0" encoding="UTF-8" standalone="no"?>
<svg
   xmlns:dc="http://purl.org/dc/elements/1.1/"
   xmlns:cc="http://creativecommons.org/ns#"
   xmlns:rdf="http://www.w3.org/1999/02/22-rdf-syntax-ns#"
   xmlns:svg="http://www.w3.org/2000/svg"
   xmlns="http://www.w3.org/2000/svg"
   xmlns:sodipodi="http://sodipodi.sourceforge.net/DTD/sodipodi-0.dtd"
   xmlns:inkscape="http://www.inkscape.org/namespaces/inkscape"
   width="64"
   height="64"
   version="1.1"
   viewBox="0 0 16.933 16.933"
   id="svg62"
   sodipodi:docname="qq.svg"
   inkscape:version="1.0.2 (e86c870879, 2021-01-15)">
  <sodipodi:namedview
     pagecolor="#ffffff"
     bordercolor="#666666"
     borderopacity="1"
     objecttolerance="10"
     gridtolerance="10"
     guidetolerance="10"
     inkscape:pageopacity="0"
     inkscape:pageshadow="2"
     inkscape:window-width="1920"
     inkscape:window-height="936"
     id="namedview64"
     showgrid="false"
     inkscape:zoom="4.2813106"
     inkscape:cx="12.460988"
     inkscape:cy="31.777311"
     inkscape:window-x="0"
     inkscape:window-y="38"
     inkscape:window-maximized="1"
     inkscape:current-layer="svg62" />
  <defs
     id="defs15">
    <filter
       id="filter2761"
       x="-.024"
       y="-.024"
       width="1.048"
       height="1.048"
       color-interpolation-filters="sRGB">
      <feGaussianBlur
         stdDeviation="0.14552168"
         id="feGaussianBlur2" />
    </filter>
    <linearGradient
       id="linearGradient1024"
       x1="1.3315"
       x2="15.65"
       y1="15.576"
       y2="1.17"
       gradientUnits="userSpaceOnUse"
       gradientTransform="translate(1.1902151,-4.762997)">
      <stop
         stop-color="#00c8ff"
         offset="0"
         id="stop5" />
      <stop
         stop-color="#14a0ff"
         offset="1"
         id="stop7" />
    </linearGradient>
    <linearGradient
       id="linearGradient968"
       x1=".22195"
       x2="25.798"
       y1="31.117"
       y2="-.031267"
       gradientUnits="userSpaceOnUse">
      <stop
         stop-color="#fafaff"
         offset="0"
         id="stop10" />
      <stop
         stop-color="#7dd7ff"
         offset="1"
         id="stop12" />
    </linearGradient>
    <style
       type="text/css"
       id="style841" />
    <filter
       id="filter1057"
       x="-.027"
       y="-.027"
       width="1.054"
       height="1.054"
       color-interpolation-filters="sRGB">
      <feGaussianBlur
         stdDeviation="0.61875"
         id="feGaussianBlur843" />
    </filter>
    <linearGradient
       id="linearGradient1053"
       x1="-127"
       x2="-72"
       y1="60"
       y2="5"
       gradientTransform="matrix(0.26457812,0,0,0.26457812,34.792022,-0.1349349)"
       gradientUnits="userSpaceOnUse">
      <stop
         stop-color="#32d7ff"
         offset="0"
         id="stop846" />
      <stop
         stop-color="#329bff"
         offset="1"
         id="stop848" />
    </linearGradient>
    <style
       type="text/css"
       id="style851" />
    <style
       type="text/css"
       id="style853" />
    <style
       type="text/css"
       id="style855" />
    <style
       type="text/css"
       id="style857" />
    <style
       type="text/css"
       id="style859" />
    <style
       type="text/css"
       id="style861" />
    <style
       type="text/css"
       id="style863" />
  </defs>
  <metadata
     id="metadata17">
    <rdf:RDF>
      <cc:Work
         rdf:about="">
        <dc:format>image/svg+xml</dc:format>
        <dc:type
           rdf:resource="http://purl.org/dc/dcmitype/StillImage" />
        <dc:title></dc:title>
      </cc:Work>
    </rdf:RDF>
  </metadata>
  <rect
     x="4.5"
     y="4.5"
     width="55"
     height="55"
     ry="15"
     fill="#141414"
     filter="url(#filter1057)"
     opacity="0.3"
     stroke-linecap="round"
     stroke-width="2.7444"
     id="rect879"
     transform="scale(0.26457812)" />
  <rect
     x="1.1906016"
     y="1.1906016"
     width="14.551797"
     height="14.551797"
     ry="3.9686718"
     fill="url(#linearGradient1053)"
     stroke-linecap="round"
     stroke-width="0.726108"
     id="rect881"
     style="fill:url(#linearGradient1053)" />
  <g
     id="Group"
     transform="matrix(.34287 0 0 .34287 4.0446 2.9842)"
     fill="url(#linearGradient968)">
    <path
       d="m23.368 29.074c-0.1848 1.4608-2.5688 2.36-5.3224 2.0104-2.7528-0.3512-4.8352-1.82-4.648-3.2816 0.1856-1.4608 2.5688-2.3608 5.3216-2.0096 2.7544 0.3504 4.8344 1.82 4.6488 3.2808"
       id="path23" />
    <path
       d="m2.5898 28.932c0.2168 1.4648 2.6928 2.4024 5.5336 2.096 2.84-0.308 4.9656-1.7448 4.7488-3.2104-0.216-1.464-2.6952-2.4024-5.5344-2.0944-2.84 0.3072-4.9672 1.744-4.748 3.2088"
       id="path25" />
    <path
       d="m23.122 9.8872c0 5.4592-4.46 9.8864-9.964 9.8864-5.5008 0-9.9616-4.4272-9.9616-9.8864 0-5.4616 4.4608-9.8872 9.9616-9.8872 5.504 0 9.964 4.4256 9.964 9.8872"
       id="path27" />
    <path
       d="m2.5023 28.641c0.2168 1.4648 2.6928 2.4024 5.5336 2.096 2.84-0.308 4.9656-1.7448 4.7488-3.2104-0.216-1.464-2.6952-2.4024-5.5344-2.0944-2.84 0.3072-4.9672 1.744-4.748 3.2088"
       id="path29" />
    <path
       d="m23.481 28.72c-0.1848 1.4608-2.5688 2.36-5.3224 2.0104-2.7528-0.3512-4.8352-1.82-4.648-3.2816 0.1856-1.4608 2.5688-2.3608 5.3216-2.0096 2.7544 0.3504 4.8344 1.82 4.6488 3.2808"
       id="path31" />
    <path
       d="m22.624 20.836c0 4.4232-4.3048 8.0088-9.6128 8.0088s-9.6112-3.5856-9.6112-8.0088 4.3032-8.0088 9.6112-8.0088 9.6128 3.5856 9.6128 8.0088"
       id="path33" />
    <path
       d="m4.9726 19.245c-1.4112 2.8168-3.6248 4.6-4.2824 4.2504-0.8696-0.464-1.08-3.3096 0.332-6.1256 1.4136-2.8152 3.692-4.6192 4.7832-4.0728 1.0888 0.548 0.5792 3.132-0.8328 5.948"
       id="path35" />
    <path
       d="m21.201 19.6c1.2912 2.5592 3.1512 4.5456 3.9464 4.3704 0.6416-0.1408 1.1-3.1336-0.0752-6-1.1944-2.9144-3.3608-5.0072-4.4528-4.46-1.0904 0.5472-0.8376 3.2776 0.5816 6.0896"
       id="path37" />
    <path
       d="m5.9601 15.805c-0.5936 1.2176-0.9336 2.6016-0.9336 4.072 0 4.8544 3.6568 8.7896 8.168 8.7896s8.1672-3.9352 8.1672-8.7896c0-1.4304-0.324-2.7768-0.8872-3.9704-4.1568 2.1192-11.768 0.5664-14.514-0.1016"
       id="path39" />
    <path
       d="m12.473 7.6075c0 1.3184-0.8728 2.3872-1.9504 2.3872-1.0768 0-1.9496-1.0688-1.9496-2.3872s0.8728-2.3872 1.9496-2.3872c1.0776 0 1.9504 1.0688 1.9504 2.3872"
       id="path41" />
    <path
       d="m18.072 7.6208c0 1.3184-0.8728 2.3872-1.9504 2.3872-1.076 0-1.9496-1.0688-1.9496-2.3872s0.8736-2.3872 1.9496-2.3872c1.0776 0 1.9504 1.0688 1.9504 2.3872"
       id="path43" />
    <path
       d="m13.499 10.661c-2.7152 0-5.0864 0.6344-6.4024 1.5808 0.3296 0.7768 1.3256 1.3816 2.3024 1.9432 1.18 0.6784 3.1184 1.1376 4.0936 1.1376 0.9 0 3.128-0.6064 4.3312-1.3928 0.8464-0.552 1.7392-1.0392 2.064-1.6976-1.3184-0.9408-3.6824-1.5712-6.3888-1.5712"
       id="path45" />
    <path
       d="m12.171 7.6208c0 0.8344-0.5464 1.5112-1.2192 1.5112-0.6736 0-1.22-0.6768-1.22-1.5112s0.5464-1.5112 1.22-1.5112c0.6728 0 1.2192 0.6768 1.2192 1.5112"
       id="path47" />
    <path
       d="m11.716 7.277c0 0.3368-0.2288 0.6104-0.5112 0.6104s-0.5112-0.2736-0.5112-0.6104c0-0.336 0.2288-0.6088 0.5112-0.6088s0.5112 0.2728 0.5112 0.6088"
       id="path49" />
    <path
       d="m15.168 8.0134c-0.1144 0-0.2152-0.0824-0.236-0.1984-0.0128-0.0728-0.0192-0.1488-0.0192-0.2264 0-0.6384 0.4528-1.1576 1.0088-1.1576s1.0088 0.5192 1.0088 1.1576c0 0.056-0.0032 0.1104-0.0096 0.164-0.0168 0.1312-0.1384 0.224-0.2688 0.208-0.1312-0.0168-0.224-0.1368-0.208-0.268 0.0048-0.0336 0.0072-0.0688 0.0072-0.104 0-0.3736-0.2376-0.6776-0.5296-0.6776s-0.5296 0.304-0.5296 0.6776c0 0.0488 0.0048 0.0968 0.0128 0.1424 0.0232 0.1312-0.064 0.2552-0.1944 0.2784-0.0144 0.0024-0.028 4e-3 -0.0424 4e-3"
       id="path51" />
    <path
       d="m8.0574 11.847s1.4992 1.284 2.8784 1.6672c1.6128 0.448 3.9432 0.2368 4.8264-0.0592 1.6056-0.5392 3.312-1.7008 3.312-1.7008s-1.508 1.1536-3.0632 2.1704c-0.7816 0.5104-1.6376 1.2376-3.4392 0.8472-0.4568-0.0984-1.2744-0.652-1.5344-0.8024-1.3312-0.7704-2.668-1.812-2.98-2.1224"
       id="path53" />
    <path
       d="m9.7121 18.69v4.348s-1.7968 0.8504-3.4064-0.6856c-0.6168-0.588 0.3304-4.7728 0.3304-4.7728z"
       id="path55" />
    <path
       d="m6.3926 17.85 3.2936 2.6376s0.0552-1.6488-0.016-2.1184c-0.072-0.4688-3.2776-0.752-3.2776-0.752"
       id="path57" />
    <path
       d="m13.498 19.432c-4.1464 0-8.0552-1.4736-11.142-4.1744-0.0752-0.0656-0.052-0.2752-0.052-0.2752s0.1184-0.4592 0.3152-1.5592c0.1376-0.7688 0.4496-1.712 0.6152-1.712 0.1056 0.0872 0.2328 0.2032 0.3584 0.3208 0.2264 0.212 0.4456 0.4304 0.5176 0.4984 2.5552 2.3912 5.8656 3.7016 9.3872 3.7016 3.504 0 6.8256-1.3104 9.3808-3.696 0.0208-0.0192 0.5752 0.6992 0.824 1.4296 0.2664 0.7824 0.536 1.6336 0.2904 1.828-2.98 2.3568-6.648 3.6384-10.495 3.6384"
       id="path59" />
  </g>
  <circle
     cx="-338.24399"
     cy="-338.47479"
     r="0"
     fill="#5e4aa6"
     id="circle867"
     style="stroke-width:0.264578" />
  <circle
     cx="-306.90378"
     cy="-348.87265"
     r="0"
     id="circle869"
     style="fill:#5e4aa6;stroke-width:0.26458" />
  <circle
     cx="-15.989992"
     cy="-14.051351"
     r="0"
     fill-rule="evenodd"
     id="circle871"
     style="fill:#5e4aa6;stroke-width:0.26458" />
  <circle
     cx="-286.13379"
     cy="-367.79266"
     r="0"
     id="circle873"
     style="fill:#5e4aa6;stroke-width:0.26458" />
  <circle
     cx="4.7792087"
     cy="-32.961651"
     r="0"
     fill-rule="evenodd"
     id="circle875"
     style="fill:#5e4aa6;stroke-width:0.26458" />
</svg>
