<?xml version="1.0" encoding="UTF-8"?>
<svg id="SimpleNote" width="64" height="64" enable-background="new 0 0 1024 1024" image-rendering="optimizeSpeed" version="1.1" viewBox="0 0 64 64" xmlns="http://www.w3.org/2000/svg" xmlns:cc="http://creativecommons.org/ns#" xmlns:dc="http://purl.org/dc/elements/1.1/" xmlns:rdf="http://www.w3.org/1999/02/22-rdf-syntax-ns#">
 <metadata>
  <rdf:RDF>
   <cc:Work rdf:about="">
    <dc:format>image/svg+xml</dc:format>
    <dc:type rdf:resource="http://purl.org/dc/dcmitype/StillImage"/>
    <dc:title/>
   </cc:Work>
  </rdf:RDF>
 </metadata>
 <defs>
  <linearGradient id="linearGradient1046" x1="467.8" x2="467.8" y1="122.8" y2="-61.12" gradientTransform="matrix(.1911 0 0 .1911 -58.641 26.695)" gradientUnits="userSpaceOnUse">
   <stop stop-color="#03bc6f" offset="0"/>
   <stop stop-color="#00dcb4" offset="1"/>
  </linearGradient>
  <style type="text/css"/>
  <style type="text/css"/>
  <filter id="filter1057" x="-.027" y="-.027" width="1.054" height="1.054" color-interpolation-filters="sRGB">
   <feGaussianBlur stdDeviation="0.61875"/>
  </filter>
  <linearGradient id="linearGradient1053" x1="-127" x2="-72" y1="60" y2="5" gradientTransform="translate(131.5 -.51)" gradientUnits="userSpaceOnUse">
   <stop stop-color="#ebb300" offset="0"/>
   <stop stop-color="#ffe433" offset="1"/>
  </linearGradient>
  <style type="text/css"/>
  <style type="text/css"/>
  <style type="text/css"/>
  <style type="text/css"/>
  <style type="text/css"/>
  <style type="text/css"/>
  <style type="text/css"/>
 </defs>
 <rect x="4.5" y="4.5" width="55" height="55" ry="15" fill="#141414" filter="url(#filter1057)" opacity=".3" stroke-linecap="round" stroke-width="2.7444"/>
 <rect x="4.5" y="4.5" width="55" height="55" ry="15" fill="url(#linearGradient1053)" stroke-linecap="round" stroke-width="2.7444"/>
 <path d="m42.847 11c-2.3315 1.8987-6.4134 3.5276-9.9258 4.3995-2.5093 0.6229-6.5462 0.64771-7.5408 0.64498-0.4419-0.218-0.98018-0.21776-1.4407 0.04815-0.7335 0.42349-0.98299 1.3548-0.5595 2.0883l10.604 18.366a9.9374 8.4086 0 0 0-2.8927-0.3643 9.9374 8.4086 0 0 0-9.9374 8.4086 9.9374 8.4086 0 0 0 9.9374 8.4086 9.9374 8.4086 0 0 0 9.9374-8.4086 9.9374 8.4086 0 0 0-1.1593-3.9415c-0.02398-0.05601-0.05051-0.11123-0.08174-0.16536l-9.0857-15.737c5.5396-2.75 10.788-8.3246 12.145-13.748z" fill="url(#linearGradient1046)" stroke-linecap="square" stroke-width=".25084"/>
 <g fill="#5e4aa6">
  <g transform="translate(68.384)">
   <circle cx="-1248.7" cy="-1241.6" r="0"/>
   <circle cx="-149.15" cy="23.855" r="0" fill-rule="evenodd"/>
   <circle cx="-1248.7" cy="-1241.6" r="0"/>
   <circle cx="-149.15" cy="23.855" r="0" fill-rule="evenodd"/>
   <circle cx="-1124.8" cy="-1279.3" r="0"/>
   <g transform="matrix(3.7796,0,0,3.7796,123.83,-38.184)" stroke-width=".26458">
    <circle cx="-299.02" cy="-338.77" r="0"/>
    <circle cx="-8.1062" cy="-3.9487" r="0" fill-rule="evenodd"/>
    <circle cx="-278.25" cy="-357.69" r="0"/>
    <circle cx="12.663" cy="-22.859" r="0" fill-rule="evenodd"/>
   </g>
  </g>
  <circle cx="-966.72" cy="-1279.3" r="0"/>
  <g transform="matrix(3.7796 0 0 3.7796 281.91 -38.184)" stroke-width=".26458">
   <circle cx="-299.02" cy="-338.77" r="0"/>
   <circle cx="-8.1062" cy="-3.9487" r="0" fill-rule="evenodd"/>
   <circle cx="-278.25" cy="-357.69" r="0"/>
   <circle cx="12.663" cy="-22.859" r="0" fill-rule="evenodd"/>
  </g>
 </g>
</svg>
