<?xml version="1.0" encoding="UTF-8"?>
<svg width="64" height="64" version="1.1" viewBox="0 0 64 64" xmlns="http://www.w3.org/2000/svg" xmlns:xlink="http://www.w3.org/1999/xlink">
 <defs>
  <filter id="filter1057" x="-.027" y="-.027" width="1.054" height="1.054" color-interpolation-filters="sRGB">
   <feGaussianBlur stdDeviation="0.61875"/>
  </filter>
  <linearGradient id="linearGradient1053" x1="-127" x2="-72" y1="60" y2="5" gradientTransform="translate(135.47 -5.6829)" gradientUnits="userSpaceOnUse">
   <stop stop-color="#ff7d50" offset="0"/>
   <stop stop-color="#ff4b5a" offset=".50594"/>
   <stop stop-color="#ff509b" offset="1"/>
  </linearGradient>
  <filter id="filter2174" x="-.15989" y="-.094877" width="1.3198" height="1.1898" color-interpolation-filters="sRGB">
   <feGaussianBlur stdDeviation="0.25608494"/>
  </filter>
 </defs>
 <g transform="matrix(1 0 0 -1 -3.9699 58.827)">
  <rect x="8.4699" y="-.67293" width="55" height="55" ry="15" fill="#141414" filter="url(#filter1057)" opacity=".3" stroke-linecap="round" stroke-width="2.7444"/>
  <rect x="8.4699" y="-.67293" width="55" height="55" ry="15" fill="url(#linearGradient1053)" stroke-linecap="round" stroke-width="2.7444"/>
  <circle cx="32.311" cy="33.41" r="7.5868" fill="none" stroke="#fff" stroke-dashoffset=".42096" stroke-width="5.3999"/>
  <path transform="matrix(3.4966 0 0 3.4783 4.2795 -2.0217)" d="m9.3776 3.1823v6.4778h1.4265v-4.1276s0.45602 0.22216 0.54956 0.24555c0.09354 0.023386 1.9176 0.72495 0.99389 2.7595l0.04099 0.023665s1.4708-1.8189 0.50345-3.208c-0.96736-1.389-1.7125-1.1671-3.5144-2.171z" fill="#f54655" filter="url(#filter2174)"/>
  <path d="m37.203 9.1747v24.484h5.3916v-15.601s1.7236 0.83968 2.0771 0.92808c0.35354 0.08839 7.2478 2.74 3.7565 10.43l0.15493 0.08944s5.559-6.8747 1.9028-12.125c-3.6562-5.2499-6.4726-4.4112-13.283-8.2055z" fill="#fff" stroke-width="3.7796"/>
 </g>
</svg>
