<?xml version="1.0" encoding="UTF-8"?>
<svg width="64" height="64" version="1.1" xmlns="http://www.w3.org/2000/svg">
 <defs>
  <filter id="filter2004" x="-.1549" y="-.1634" width="1.3098" height="1.3268" color-interpolation-filters="sRGB">
   <feGaussianBlur stdDeviation="3.077478"/>
  </filter>
  <filter id="filter1057" x="-.027" y="-.027" width="1.054" height="1.054" color-interpolation-filters="sRGB">
   <feGaussianBlur stdDeviation="0.61875"/>
  </filter>
  <linearGradient id="linearGradient1053" x1="-127" x2="-72" y1="60" y2="5" gradientTransform="matrix(1 0 0 1 131.5 -.51036)" gradientUnits="userSpaceOnUse">
   <stop stop-color="#e9ebec" offset="0"/>
   <stop stop-color="#f6f7f9" stop-opacity=".99608" offset="1"/>
  </linearGradient>
 </defs>
 <rect transform="matrix(1 0 0 1 -.00022781 -.00022781)" x="4.5" y="4.5" width="55" height="55" ry="15" fill="#141414" filter="url(#filter1057)" opacity=".3" stroke-linecap="round" stroke-width="2.7444"/>
 <rect x="4.4996" y="4.4996" width="55.001" height="55.001" ry="15" fill="url(#linearGradient1053)" stroke-linecap="round" stroke-width="2.7444"/>
 <g transform="matrix(.84524 0 0 .84524 11.051 14.56)" clip-rule="evenodd" fill-opacity=".44332" filter="url(#filter2004)" opacity=".13288" stroke-linejoin="round" stroke-miterlimit="1.4142" stroke-width=".68344">
  <path d="m45.727 21.836c-1.5077-2.6114-3.7015-4.5797-6.2227-5.8086-0.32258 1.7223-0.9329 3.4199-1.8576 5.0219l-1.4591 2.5321c0.97185 0.53992 1.818 1.3348 2.4146 2.3681 1.753 3.0358 0.71215 6.9192-2.3244 8.6722-3.0358 1.753-6.9192 0.71283-8.6722-2.3237l-2.9443-5.0916h-4.7513l-2.3756 4.1143 2.9463 5.0909c4.0255 6.9718 12.94 9.3604 19.911 5.3349 6.9711-4.0248 9.3597-12.939 5.3349-19.911"/>
  <path d="m31.128 0.45457c-6.9718-4.0248-15.886-1.6362-19.911 5.3349-1.5084 2.6114-2.1153 5.4955-1.9191 8.2935 1.6526-0.58161 3.4281-0.90214 5.2782-0.90214l2.9217-0.0027c-0.01845-1.1113 0.24741-2.2417 0.84337-3.2744 1.7537-3.0365 5.6363-4.0774 8.6729-2.3237 3.0365 1.753 4.0767 5.6357 2.3237 8.6722l-2.9367 5.0957 2.375 4.115 4.7513-6.83e-4 2.9354-5.0971c4.0255-6.9711 1.6368-15.886-5.3349-19.911"/>
  <path d="m19.298 37.096-1.4639-2.5294c-0.9534 0.57204-2.0647 0.90692-3.2573 0.90692-3.5067 0-6.3492-2.8424-6.3492-6.3492 0-3.506 2.8424-6.3485 6.3492-6.3485l5.881-0.0041 2.3763-4.1143-2.3763-4.1143-5.8817 0.0055c-8.0503-7.8e-5 -14.576 6.5261-14.576 14.576 0 8.0502 6.5255 14.576 14.576 14.576 3.0147 0 5.8147-0.91581 8.1391-2.4829-1.33-1.1407-2.4925-2.5205-3.4172-4.1218"/>
 </g>
 <g transform="matrix(.8043 0 0 .8043 12.423 15.602)" clip-rule="evenodd" stroke-linejoin="round" stroke-miterlimit="1.4142" stroke-width=".68344">
  <path d="m45.727 21.836c-1.5077-2.6114-3.7015-4.5797-6.2227-5.8086-0.32258 1.7223-0.9329 3.4199-1.8576 5.0219l-1.4591 2.5321c0.97185 0.53992 1.818 1.3348 2.4146 2.3681 1.753 3.0358 0.71215 6.9192-2.3244 8.6722-3.0358 1.753-6.9192 0.71283-8.6722-2.3237l-2.9443-5.0916h-4.7513l-2.3756 4.1143 2.9463 5.0909c4.0255 6.9718 12.94 9.3604 19.911 5.3349 6.9711-4.0248 9.3597-12.939 5.3349-19.911" fill="#70caf2"/>
  <path d="m31.128 0.45457c-6.9718-4.0248-15.886-1.6362-19.911 5.3349-1.5084 2.6114-2.1153 5.4955-1.9191 8.2935 1.6526-0.58161 3.4281-0.90214 5.2782-0.90214l2.9217-0.0027c-0.01845-1.1113 0.24741-2.2417 0.84337-3.2744 1.7537-3.0365 5.6363-4.0774 8.6729-2.3237 3.0365 1.753 4.0767 5.6357 2.3237 8.6722l-2.9367 5.0957 2.375 4.115 4.7513-6.83e-4 2.9354-5.0971c4.0255-6.9711 1.6368-15.886-5.3349-19.911" fill="#b4e3f9"/>
  <path d="m19.298 37.096-1.4639-2.5294c-0.9534 0.57204-2.0647 0.90692-3.2573 0.90692-3.5067 0-6.3492-2.8424-6.3492-6.3492 0-3.506 2.8424-6.3485 6.3492-6.3485l5.881-0.0041 2.3763-4.1143-2.3763-4.1143-5.8817 0.0055c-8.0503-7.8e-5 -14.576 6.5261-14.576 14.576 0 8.0502 6.5255 14.576 14.576 14.576 3.0147 0 5.8147-0.91581 8.1391-2.4829-1.33-1.1407-2.4925-2.5205-3.4172-4.1218" fill="#3f79ad"/>
 </g>
</svg>
