<?xml version="1.0" encoding="UTF-8"?>
<!-- Created with Inkscape (http://www.inkscape.org/) -->
<svg width="64" height="64" version="1.1" viewBox="0 0 16.933 16.933" xmlns="http://www.w3.org/2000/svg" xmlns:xlink="http://www.w3.org/1999/xlink">
 <defs>
  <filter id="filter1057-3" x="-.027" y="-.027" width="1.054" height="1.054" color-interpolation-filters="sRGB">
   <feGaussianBlur stdDeviation="0.61875"/>
  </filter>
  <linearGradient id="linearGradient1053-6" x1="-127" x2="-80.659" y1="60" y2="13.659" gradientTransform="matrix(.26459 0 0 .26459 34.793 -.135)" gradientUnits="userSpaceOnUse">
   <stop stop-color="#ff7d1e" offset="0"/>
   <stop stop-color="#ffa53c" offset="1"/>
  </linearGradient>
  <radialGradient id="radialGradient22954" cx="32" cy="25.829" r="15.266" gradientTransform="matrix(1 0 0 1.0813 0 -2.1001)" gradientUnits="userSpaceOnUse">
   <stop stop-color="#fff" offset="0"/>
   <stop stop-color="#fff" stop-opacity=".25" offset="1"/>
  </radialGradient>
 </defs>
 <rect transform="matrix(.26459 0 0 .26459 -6e-5 -6.0216e-5)" x="4.5" y="4.5" width="55" height="55" ry="15" fill="#141414" filter="url(#filter1057-3)" opacity=".3" stroke-linecap="round" stroke-width="2.7444"/>
 <rect x="1.1906" y="1.1906" width="14.552" height="14.552" ry="3.9688" fill="url(#linearGradient1053-6)" stroke-linecap="round" stroke-width=".72613"/>
 <g>
  <path transform="scale(.26458)" d="m32 9.3223c-8.4071 0-15.266 6.6369-15.266 14.602 0 3.0974 1.7704 7.3011 4.6465 10.398 1.9568 2.1073 3.5019 5.0342 4.291 8.0137 0.33425-0.31781 0.78749-0.49024 1.2402-0.49024h10.398c0.43328 0 0.79781 0.13516 1.082 0.35352 0.80696-2.8992 2.3212-5.825 4.2266-7.877 2.8761-3.0974 4.6465-7.7436 4.6465-10.398 0-7.9647-6.8585-14.602-15.266-14.602z" fill="url(#radialGradient22954)" stroke-width=".056174"/>
  <path transform="scale(.26458)" d="m26.836 52.906 0.73828 1.3281c0.22124 0.22123 0.44282 0.44336 0.66406 0.44336h7.5234c0.22124 0 0.66406-0.2221 0.66406-0.44336l0.58984-1.3262h-10.104c-0.025425 0-0.051216-0.001029-0.076171-0.001953z" fill="#fff" opacity=".5" stroke-width=".056174"/>
  <path d="m9.8715 13.998h-2.7512c-0.29268 0-0.46829-0.23415-0.46829-0.46829v-1.9902c0-0.29268 0.23415-0.46829 0.46829-0.46829h2.7512c0.29268 0 0.46829 0.23415 0.46829 0.46829v1.9902c0 0.29268-0.17561 0.46829-0.46829 0.46829" fill="#fff" stroke-width=".014863" p-id="5160"/>
 </g>
 <g fill="#efeff3">
  <path transform="scale(.26458)" d="m25.141 43.615v1.5488h8.1875c0.44248 0 0.88477-0.44281 0.88477-0.66406 0-0.44248-0.44228-0.88477-0.88477-0.88477h-8.1875z" stroke-width=".056174"/>
  <path transform="scale(.26458)" d="m25.141 46.713v1.5488h13.939v-1.5488h-13.939z" stroke-width=".056174"/>
  <path d="m10.34 13.589h-2.0488c-0.11707 0-0.23415-0.11707-0.23415-0.23415s0.11707-0.23415 0.23415-0.23415h2.0488z" stroke-width=".014863"/>
 </g>
</svg>
