<?xml version="1.0" encoding="UTF-8"?>
<!-- Created with Inkscape (http://www.inkscape.org/) -->
<svg width="64" height="64" version="1.1" viewBox="0 0 16.933 16.933" xmlns="http://www.w3.org/2000/svg" xmlns:xlink="http://www.w3.org/1999/xlink">
 <defs>
  <filter id="filter1057" x="-.027" y="-.027" width="1.054" height="1.054" color-interpolation-filters="sRGB">
   <feGaussianBlur stdDeviation="0.61875"/>
  </filter>
  <linearGradient id="linearGradient1053" x1="-127" x2="-72" y1="60" y2="5" gradientTransform="matrix(.26458 0 0 .26458 47.932 8.6367)" gradientUnits="userSpaceOnUse">
   <stop stop-color="#02db96" offset="0"/>
   <stop stop-color="#13d39b" offset="1"/>
  </linearGradient>
  <filter id="filter890" x="-.08856" y="-.13837" width="1.1771" height="1.2767" color-interpolation-filters="sRGB">
   <feGaussianBlur stdDeviation="0.32049257"/>
  </filter>
 </defs>
 <g transform="translate(-13.139 -8.7716)">
  <rect transform="matrix(.26458 0 0 .26458 13.139 8.7716)" x="4.5" y="4.5" width="55" height="55" ry="15" fill="#141414" filter="url(#filter1057)" opacity=".3" stroke-linecap="round" stroke-width="2.7444"/>
  <rect x="14.33" y="9.9622" width="14.552" height="14.552" ry="3.9687" fill="url(#linearGradient1053)" stroke-linecap="round" stroke-width=".72611"/>
  <path transform="matrix(1 -.00096844 .00096844 1 13.131 8.7798)" d="m5.1662 6.2104-1.0423 3.8216h0.69483l1.0423-3.8216zm0.69483 0 1.0423 3.8216h0.69483l-1.0423-3.8216zm1.7371 3.8216h0.69483v-0.69483h-0.69483zm2.0845-3.8216-1.0423 3.8216h0.69484l1.0423-3.8216zm1.9142 1.0423c-0.24456 0.00211-0.46404 0.041776-0.65888 0.12553-0.19482 0.079566-0.36058 0.19271-0.49736 0.33927-0.13264 0.14238-0.2342 0.31401-0.30467 0.51501-0.07046 0.19682-0.10585 0.41475-0.10585 0.65346 0 0.2722 0.03734 0.50685 0.11197 0.70366 0.07461 0.19682 0.17617 0.36201 0.30467 0.49601 0.1285 0.12983 0.27789 0.22624 0.44786 0.28906 0.44202 0.15352 0.8337 0.08043 1.22-0.11332v0.13842c0 0.30151 0 0.54822-0.10722 0.65954-0.14923 0.1382-0.39626 0.20696-0.74031 0.20696-0.18239 0-0.35794-0.01863-0.5279-0.05632-0.16581-0.0335-0.30667-0.07336-0.42274-0.11943l-0.10585 0.5089c0.13264 0.04606 0.28792 0.08593 0.46616 0.11943 0.18239 0.0335 0.375 0.05021 0.57814 0.05021 0.52231 0 0.91214-0.11314 1.1691-0.33927 0.257-0.22614 0.38542-0.59061 0.38542-1.0932v-2.9144c-0.39652-0.08684-0.78632-0.17332-1.2126-0.16964zm0.02714 0.52384c0.15623 0.00278 0.31903 0.030541 0.49059 0.060392v1.9094c-0.34579 0.25235-0.58682 0.26522-0.94046 0.15742-0.26347-0.080322-0.3765-0.31498-0.47228-0.5279-0.05806-0.12909-0.06853-0.29536-0.06853-0.48381 0-0.3392 0.06185-0.62969 0.24835-0.81629 0.23918-0.23929 0.48194-0.30389 0.74233-0.29924z" filter="url(#filter890)" opacity=".15" stroke-width=".34742"/>
  <path d="m17.955 14.638-1.0386 3.8227 0.69484-6.74e-4 1.0386-3.8227zm4.5165-0.0044-1.0386 3.8227 0.69484-6.73e-4 1.0386-3.8227zm1.9152 1.0405c-0.24456 0.0023-0.46401 0.04223-0.65877 0.12617-0.19475 0.07976-0.3604 0.19306-0.49704 0.33976-0.1325 0.14251-0.2339 0.31424-0.30418 0.51531-0.07028 0.19689-0.10545 0.41486-0.10522 0.65358 2.64e-4 0.2722 0.03783 0.50682 0.11265 0.70356 0.0748 0.19675 0.17652 0.36185 0.30516 0.49572 0.12863 0.1297 0.27811 0.22598 0.44815 0.28863 0.44218 0.1531 0.83379 0.07963 1.2199-0.1145l1.39e-4 0.13843c2.87e-4 0.30152 5.31e-4 0.54823-0.10657 0.65966-0.1491 0.13835-0.39607 0.20735-0.74012 0.20768-0.18239 1.72e-4 -0.35796-0.01828-0.52796-0.0558-0.16585-0.03334-0.30675-0.07306-0.42286-0.11903l-0.10536 0.50901c0.13269 0.04593 0.28801 0.08564 0.46628 0.11898 0.18243 0.03327 0.37506 0.04985 0.5782 0.04965 0.52232-5.09e-4 0.91205-0.11402 1.1688-0.34041 0.25678-0.22638 0.38486-0.59099 0.38437-1.0935l-0.0028-2.9145c-0.39661-0.08646-0.7865-0.17256-1.2128-0.16847zm0.5183 0.58373 0.0018 1.9094c-0.34553 0.25269-0.58656 0.26579-0.94031 0.15833-0.26355-0.08006-0.37681-0.31462-0.4728-0.52745-0.05818-0.12904-0.06881-0.2953-0.069-0.48375-3.29e-4 -0.33921 0.06124-0.62976 0.24756-0.81655 0.38232-0.38323 0.77511-0.31921 1.2327-0.24005z" fill="#2a2a2a" stroke-width=".34743"/>
  <path d="m18.65 14.638 1.046 3.8207 0.69484-6.73e-4 -1.046-3.8207zm1.7408 3.82 0.69484-6.73e-4 -6.73e-4 -0.69484-0.69484 6.72e-4z" fill="#f9f9f9" stroke-width=".34743"/>
 </g>
</svg>
