<?xml version="1.0" encoding="UTF-8" standalone="no"?>
<svg
   xmlns:dc="http://purl.org/dc/elements/1.1/"
   xmlns:cc="http://creativecommons.org/ns#"
   xmlns:rdf="http://www.w3.org/1999/02/22-rdf-syntax-ns#"
   xmlns:svg="http://www.w3.org/2000/svg"
   xmlns="http://www.w3.org/2000/svg"
   xmlns:sodipodi="http://sodipodi.sourceforge.net/DTD/sodipodi-0.dtd"
   xmlns:inkscape="http://www.inkscape.org/namespaces/inkscape"
   width="64"
   height="64"
   version="1.1"
   id="svg38"
   sodipodi:docname="remmina.svg"
   inkscape:version="1.0.2 (e86c870879, 2021-01-15)">
  <sodipodi:namedview
     pagecolor="#ffffff"
     bordercolor="#666666"
     borderopacity="1"
     objecttolerance="10"
     gridtolerance="10"
     guidetolerance="10"
     inkscape:pageopacity="0"
     inkscape:pageshadow="2"
     inkscape:window-width="1920"
     inkscape:window-height="936"
     id="namedview40"
     showgrid="false"
     inkscape:zoom="6.0546875"
     inkscape:cx="11.373591"
     inkscape:cy="32.002035"
     inkscape:window-x="0"
     inkscape:window-y="38"
     inkscape:window-maximized="1"
     inkscape:current-layer="svg38" />
  <metadata
     id="metadata2">
    <rdf:RDF>
      <cc:Work
         rdf:about="">
        <dc:format>image/svg+xml</dc:format>
        <dc:type
           rdf:resource="http://purl.org/dc/dcmitype/StillImage" />
        <dc:title></dc:title>
      </cc:Work>
    </rdf:RDF>
  </metadata>
  <defs
     id="defs12">
    <filter
       id="filter2761"
       x="-.024"
       y="-.024"
       width="1.048"
       height="1.048"
       color-interpolation-filters="sRGB">
      <feGaussianBlur
         stdDeviation="0.14552168"
         id="feGaussianBlur4" />
    </filter>
    <linearGradient
       id="linearGradient4673"
       x1="1.2573"
       x2="15.644"
       y1="15.429"
       y2="1.1082"
       gradientTransform="matrix(3.7796,0,0,3.7796,0.0245344,-14.013776)"
       gradientUnits="userSpaceOnUse">
      <stop
         stop-color="#32dcff"
         offset="0"
         id="stop7" />
      <stop
         stop-color="#3296ff"
         offset="1"
         id="stop9" />
    </linearGradient>
    <style
       type="text/css"
       id="style867" />
    <filter
       id="filter1057"
       x="-.027"
       y="-.027"
       width="1.054"
       height="1.054"
       color-interpolation-filters="sRGB">
      <feGaussianBlur
         stdDeviation="0.61875"
         id="feGaussianBlur869" />
    </filter>
    <linearGradient
       id="linearGradient1053"
       x1="-127"
       x2="-72"
       y1="60"
       y2="5"
       gradientTransform="translate(131.5,-0.51)"
       gradientUnits="userSpaceOnUse">
      <stop
         stop-color="#32d7ff"
         offset="0"
         id="stop872" />
      <stop
         stop-color="#329bff"
         offset="1"
         id="stop874" />
    </linearGradient>
    <style
       type="text/css"
       id="style877" />
    <style
       type="text/css"
       id="style879" />
    <style
       type="text/css"
       id="style881" />
    <style
       type="text/css"
       id="style883" />
    <style
       type="text/css"
       id="style885" />
    <style
       type="text/css"
       id="style887" />
    <style
       type="text/css"
       id="style889" />
  </defs>
  <rect
     x="4.4999995"
     y="4.4999995"
     width="55"
     height="55"
     ry="15"
     fill="#141414"
     filter="url(#filter1057)"
     opacity="0.3"
     stroke-linecap="round"
     stroke-width="2.7444"
     id="rect905" />
  <rect
     x="4.5"
     y="4.5"
     width="55"
     height="55"
     ry="15"
     fill="url(#linearGradient1053)"
     stroke-linecap="round"
     stroke-width="2.7444"
     id="rect907"
     style="fill:url(#linearGradient1053)" />
  <g
     transform="matrix(.52053 0 0 .52053 12 12)"
     enable-background="new"
     fill="#fff"
     id="g26">
    <polygon
       class="st1"
       points="20.618 17.742 20.618 26.923 29.549 32.877 20.618 38.831 20.618 48.012 43.32 32.877"
       id="polygon18" />
    <polygon
       class="st2"
       points="55.388 59.232 55.388 50.051 46.457 44.097 55.388 38.143 55.388 28.962 32.685 44.097"
       id="polygon20" />
    <path
       class="st1"
       d="m64.776 23.074c2.632 4.509 4.147 9.75 4.147 15.348 0 16.845-13.656 30.5-30.5 30.5-9.922 0-18.734-4.741-24.304-12.077l-6.589 4.393c7.005 9.461 18.243 15.607 30.892 15.607 21.186 0 38.423-17.236 38.423-38.423 0-7.215-2.002-13.97-5.476-19.744z"
       id="path22" />
    <path
       class="st2"
       d="m7.922 38.423c0-16.845 13.656-30.5 30.5-30.5 9.826 0 18.561 4.652 24.139 11.868l6.596-4.397c-7.015-9.341-18.181-15.394-30.734-15.394-21.187 0-38.423 17.236-38.423 38.423 0 7.12 1.954 13.789 5.343 19.513l6.594-4.396c-2.55-4.457-4.015-9.615-4.015-15.117z"
       id="path24" />
  </g>
  <g
     transform="matrix(3.7796 0 0 3.7796 -.10224 .024379)"
     fill="#5e4aa6"
     stroke-width=".26458"
     id="g36">
    <circle
       cx="-330.35"
       cy="-328.38"
       r="0"
       id="circle28" />
    <circle
       cx="-312.11"
       cy="-326.25"
       r="0"
       id="circle30" />
    <circle
       cx="-306.02"
       cy="-333.07"
       r="0"
       id="circle32" />
    <circle
       cx="-308.84"
       cy="-326.01"
       r="0"
       id="circle34" />
  </g>
  <circle
     cx="-1196.4816"
     cy="-1279.3"
     r="0"
     fill="#5e4aa6"
     id="circle893" />
  <g
     transform="matrix(3.7796,0,0,3.7796,52.148542,-38.184)"
     fill="#5e4aa6"
     stroke-width="0.26458"
     id="g903">
    <circle
       cx="-299.01999"
       cy="-338.76999"
       r="0"
       id="circle895" />
    <circle
       cx="-8.1062002"
       cy="-3.9487"
       r="0"
       fill-rule="evenodd"
       id="circle897" />
    <circle
       cx="-278.25"
       cy="-357.69"
       r="0"
       id="circle899" />
    <circle
       cx="12.663"
       cy="-22.858999"
       r="0"
       fill-rule="evenodd"
       id="circle901" />
  </g>
</svg>
