<?xml version="1.0" encoding="UTF-8"?>
<svg width="64" height="64" version="1.1" viewBox="0 0 64 64" xmlns="http://www.w3.org/2000/svg">
 <defs>
  <filter id="filter1057-3" x="-.027" y="-.027" width="1.054" height="1.054" color-interpolation-filters="sRGB">
   <feGaussianBlur stdDeviation="0.61875"/>
  </filter>
  <linearGradient id="linearGradient1053-6-9" x1="-127" x2="-80.659" y1="60" y2="13.659" gradientTransform="matrix(1 0 0 1 131.5 -.51062)" gradientUnits="userSpaceOnUse">
   <stop stop-color="#ff7d1e" offset="0"/>
   <stop stop-color="#ffa53c" offset="1"/>
  </linearGradient>
 </defs>
 <rect transform="matrix(1 0 0 1 -.0014374 -.0014374)" x="4.5" y="4.5" width="55" height="55" ry="15" fill="#141414" filter="url(#filter1057-3)" opacity=".3" stroke-linecap="round" stroke-width="2.7444"/>
 <rect x="4.4996" y="4.4996" width="55.001" height="55.001" ry="15" fill="url(#linearGradient1053-6-9)" stroke-linecap="round" stroke-width="2.7445"/>
 <path d="m32 14.5a17.5 17.5 0 0 0-17.5 17.5 17.5 17.5 0 0 0 17.5 17.5 17.5 17.5 0 0 0 17.5-17.5 17.5 17.5 0 0 0-17.5-17.5zm0 9.3333a8.1667 8.1667 0 0 1 8.1667 8.1667 8.1667 8.1667 0 0 1-8.1667 8.1667 8.1667 8.1667 0 0 1-8.1667-8.1667 8.1667 8.1667 0 0 1 8.1667-8.1667z" fill="#333" stroke-width="1.1667"/>
 <path d="m31.999 16.833a2.3333 2.3333 0 0 0-2.3333 2.3333 2.3333 2.3333 0 0 0 2.3333 2.3333 2.3333 2.3333 0 0 0 2.3333-2.3333 2.3333 2.3333 0 0 0-2.3333-2.3333zm-6.4167 1.7204a2.3333 2.3333 0 0 0-2.3333 2.3333 2.3333 2.3333 0 0 0 2.3333 2.3333 2.3333 2.3333 0 0 0 2.3333-2.3333 2.3333 2.3333 0 0 0-2.3333-2.3333zm12.833 0a2.3333 2.3333 0 0 0-2.3333 2.3333 2.3333 2.3333 0 0 0 2.3333 2.3333 2.3333 2.3333 0 0 0 2.3333-2.3333 2.3333 2.3333 0 0 0-2.3333-2.3333zm-17.529 4.6963a2.3333 2.3333 0 0 0-2.3333 2.3333 2.3333 2.3333 0 0 0 2.3333 2.3333 2.3333 2.3333 0 0 0 2.3333-2.3333 2.3333 2.3333 0 0 0-2.3333-2.3333zm22.226 0a2.3333 2.3333 0 0 0-2.3333 2.3333 2.3333 2.3333 0 0 0 2.3333 2.3333 2.3333 2.3333 0 0 0 2.3333-2.3333 2.3333 2.3333 0 0 0-2.3333-2.3333zm-23.946 6.4167a2.3333 2.3333 0 0 0-2.3333 2.3333 2.3333 2.3333 0 0 0 2.3333 2.3333 2.3333 2.3333 0 0 0 2.3333-2.3333 2.3333 2.3333 0 0 0-2.3333-2.3333zm25.667 0a2.3333 2.3333 0 0 0-2.3333 2.3333 2.3333 2.3333 0 0 0 2.3333 2.3333 2.3333 2.3333 0 0 0 2.3333-2.3333 2.3333 2.3333 0 0 0-2.3333-2.3333zm-23.946 6.4167a2.3333 2.3333 0 0 0-2.3333 2.3333 2.3333 2.3333 0 0 0 2.3333 2.3333 2.3333 2.3333 0 0 0 2.3333-2.3333 2.3333 2.3333 0 0 0-2.3333-2.3333zm22.226 0a2.3333 2.3333 0 0 0-2.3333 2.3333 2.3333 2.3333 0 0 0 2.3333 2.3333 2.3333 2.3333 0 0 0 2.3333-2.3333 2.3333 2.3333 0 0 0-2.3333-2.3333zm-17.529 4.6963a2.3333 2.3333 0 0 0-2.3333 2.3333 2.3333 2.3333 0 0 0 2.3333 2.3333 2.3333 2.3333 0 0 0 2.3333-2.3333 2.3333 2.3333 0 0 0-2.3333-2.3333zm12.833 0a2.3333 2.3333 0 0 0-2.3333 2.3333 2.3333 2.3333 0 0 0 2.3333 2.3333 2.3333 2.3333 0 0 0 2.3333-2.3333 2.3333 2.3333 0 0 0-2.3333-2.3333zm-6.4167 1.7204a2.3333 2.3333 0 0 0-2.3333 2.3333 2.3333 2.3333 0 0 0 2.3333 2.3333 2.3333 2.3333 0 0 0 2.3333-2.3333 2.3333 2.3333 0 0 0-2.3333-2.3333z" fill="#faf8f0" stroke-width="1.1667" style="paint-order:normal"/>
</svg>
