<?xml version="1.0" encoding="UTF-8" standalone="no"?>
<svg
   xmlns:dc="http://purl.org/dc/elements/1.1/"
   xmlns:cc="http://creativecommons.org/ns#"
   xmlns:rdf="http://www.w3.org/1999/02/22-rdf-syntax-ns#"
   xmlns:svg="http://www.w3.org/2000/svg"
   xmlns="http://www.w3.org/2000/svg"
   xmlns:sodipodi="http://sodipodi.sourceforge.net/DTD/sodipodi-0.dtd"
   xmlns:inkscape="http://www.inkscape.org/namespaces/inkscape"
   id="App-Store"
   width="64"
   height="64"
   enable-background="new 0 0 1024 1024"
   image-rendering="optimizeSpeed"
   version="1.1"
   viewBox="0 0 64 64"
   sodipodi:docname="session-properties.svg"
   inkscape:version="1.0.2 (e86c870879, 2021-01-15)">
  <metadata
     id="metadata28">
    <rdf:RDF>
      <cc:Work
         rdf:about="">
        <dc:format>image/svg+xml</dc:format>
        <dc:type
           rdf:resource="http://purl.org/dc/dcmitype/StillImage" />
        <dc:title></dc:title>
      </cc:Work>
    </rdf:RDF>
  </metadata>
  <sodipodi:namedview
     pagecolor="#ffffff"
     bordercolor="#666666"
     borderopacity="1"
     objecttolerance="10"
     gridtolerance="10"
     guidetolerance="10"
     inkscape:pageopacity="0"
     inkscape:pageshadow="2"
     inkscape:window-width="1920"
     inkscape:window-height="936"
     id="namedview26"
     showgrid="false"
     inkscape:zoom="4.2813106"
     inkscape:cx="28.815294"
     inkscape:cy="32.967655"
     inkscape:window-x="0"
     inkscape:window-y="38"
     inkscape:window-maximized="1"
     inkscape:current-layer="App-Store" />
  <defs
     id="defs15">
    <linearGradient
       id="a"
       x1="32"
       x2="32"
       y1="14.666"
       y2="49.334"
       gradientUnits="userSpaceOnUse">
      <stop
         stop-color="#e7e7e7"
         offset="0"
         id="stop2" />
      <stop
         stop-color="#fff"
         offset="1"
         id="stop4" />
    </linearGradient>
    <filter
       id="c"
       x="-.0625"
       y="-.057692"
       width="1.125"
       height="1.1154"
       color-interpolation-filters="sRGB">
      <feGaussianBlur
         stdDeviation="0.83333784"
         id="feGaussianBlur7" />
    </filter>
    <linearGradient
       id="linearGradient862-3"
       x1="7.9373"
       x2="7.9373"
       y1="15.081"
       y2="1.852"
       gradientTransform="matrix(3.7796,0,0,3.7796,-2.8740184,-19.595825)"
       gradientUnits="userSpaceOnUse">
      <stop
         stop-color="#373737"
         offset="0"
         id="stop10" />
      <stop
         stop-color="#6b6b6b"
         offset="1"
         id="stop12" />
    </linearGradient>
    <linearGradient
       id="linearGradient938"
       x1="99.523003"
       x2="103.24"
       y1="38.493999"
       y2="41.915001"
       gradientTransform="matrix(1.3333,0,0,1.3333,-103.146,-21.795)"
       gradientUnits="userSpaceOnUse">
      <stop
         stop-color="#6eb92e"
         offset="0"
         id="stop866" />
      <stop
         stop-color="#4592d6"
         offset="1"
         id="stop868" />
    </linearGradient>
    <linearGradient
       id="b-3"
       x1="399.57001"
       x2="399.57001"
       y1="545.79999"
       y2="517.79999"
       gradientTransform="matrix(2.1429,0,0,2.1429,-826.84338,-1107.5)"
       gradientUnits="userSpaceOnUse">
      <stop
         stop-color="#3889e9"
         offset="0"
         id="stop871" />
      <stop
         stop-color="#5ea5fb"
         offset="1"
         id="stop873" />
    </linearGradient>
    <style
       type="text/css"
       id="style876" />
    <style
       type="text/css"
       id="style878" />
    <filter
       id="filter1057"
       x="-0.027000001"
       y="-0.027000001"
       width="1.054"
       height="1.054"
       color-interpolation-filters="sRGB">
      <feGaussianBlur
         stdDeviation="0.61875"
         id="feGaussianBlur880" />
    </filter>
    <linearGradient
       id="linearGradient1053"
       x1="-127"
       x2="-72"
       y1="60"
       y2="5"
       gradientTransform="translate(203.93,-0.054156)"
       gradientUnits="userSpaceOnUse">
      <stop
         stop-color="#1d2123"
         offset="0"
         id="stop883" />
      <stop
         stop-color="#33393e"
         stop-opacity=".99608"
         offset="1"
         id="stop885" />
    </linearGradient>
  </defs>
  <g
     transform="translate(-72.440002)"
     id="g896">
    <rect
       x="76.934998"
       y="4.9558001"
       width="55"
       height="55"
       ry="15"
       fill="#141414"
       filter="url(#filter1057)"
       opacity="0.3"
       stroke-linecap="round"
       stroke-width="2.7444"
       id="rect890" />
    <rect
       x="76.934998"
       y="4.9558001"
       width="55"
       height="55"
       ry="15"
       fill="url(#linearGradient1053)"
       stroke-linecap="round"
       stroke-width="2.7444"
       id="rect892"
       style="fill:url(#linearGradient1053)" />
    <circle
       cx="104.44"
       cy="32"
       r="30.000999"
       fill-opacity="0"
       stroke-width="1.5715"
       id="circle894" />
  </g>
  <path
     d="m46.324 26.187c-1.1182-2.2359-2.6908-4.111-4.7186-5.6248-0.58325-0.44443-1.243-0.61806-1.9792-0.52089-0.73621 0.0972-1.3195 0.44443-1.7501 1.0415-0.44443 0.58323-0.61445 1.2394-0.5104 1.9687 0.10363 0.72957 0.44801 1.3161 1.0313 1.7605 1.3606 1.0277 2.4134 2.2848 3.156 3.771 0.74309 1.4859 1.1144 3.0695 1.1144 4.7498 0 1.4447-0.2813 2.823-0.84361 4.1356-0.56256 1.3125-1.323 2.4479-2.2814 3.4063-0.9584 0.95812-2.0935 1.7186-3.4061 2.2812-1.3126 0.56256-2.6911 0.84408-4.1356 0.84408-1.4443 0-2.8228-0.28152-4.1353-0.84408-1.3126-0.56258-2.4479-1.323-3.4063-2.2812-0.95814-0.9584-1.7186-2.0938-2.2812-3.4063-0.56257-1.3125-0.84385-2.6909-0.84385-4.1356 0-1.6803 0.37154-3.2636 1.1147-4.7498 0.74309-1.4859 1.7951-2.743 3.1562-3.771 0.58327-0.44466 0.92693-1.0312 1.0313-1.7605 0.10401-0.72902-0.066-1.3855-0.5104-1.9687-0.43061-0.59711-1.0103-0.94435-1.7396-1.0415-0.72928-0.0972-1.3926 0.0764-1.9897 0.52089-2.028 1.5138-3.6006 3.3889-4.7188 5.6248-1.1182 2.2362-1.6772 4.6181-1.6772 7.1458 0 2.1669 0.42372 4.2361 1.2709 6.2084 0.84743 1.9723 1.9861 3.6735 3.4168 5.1042 1.4304 1.4304 3.1319 2.5696 5.1042 3.4163 1.9723 0.84741 4.0418 1.2714 6.2084 1.2714s4.2361-0.42397 6.2084-1.2714c1.9723-0.84692 3.6738-1.9859 5.1042-3.4163s2.5691-3.1319 3.4165-5.1042c0.84718-1.9723 1.2706-4.0417 1.2706-6.2084 0-2.5277-0.55822-4.9096-1.6764-7.1458zm-14.324 7.1461c0.72212 0 1.3476-0.26363 1.8749-0.79168 0.52776-0.52753 0.79218-1.1527 0.79218-1.8748v-13.334c0-0.7224-0.26414-1.3473-0.79218-1.8749-0.52729-0.52804-1.1525-0.79192-1.8749-0.79192-0.72236 0-1.3473 0.26412-1.8751 0.79192-0.52778 0.52753-0.79166 1.1527-0.79166 1.8749v13.334c0 0.72208 0.26386 1.3473 0.79166 1.8748 0.52778 0.52806 1.153 0.79168 1.8751 0.79168z"
     fill-rule="evenodd"
     filter="url(#c)"
     opacity=".35"
     id="path21" />
  <path
     d="m46.324 26.187c-1.1182-2.2359-2.6908-4.111-4.7186-5.6248-0.58325-0.44443-1.243-0.61806-1.9792-0.52089-0.73621 0.0972-1.3195 0.44443-1.7501 1.0415-0.44443 0.58323-0.61445 1.2394-0.5104 1.9687 0.10363 0.72957 0.44801 1.3161 1.0313 1.7605 1.3606 1.0277 2.4134 2.2848 3.156 3.771 0.74309 1.4859 1.1144 3.0695 1.1144 4.7498 0 1.4447-0.2813 2.823-0.84361 4.1356-0.56256 1.3125-1.323 2.4479-2.2814 3.4063-0.9584 0.95812-2.0935 1.7186-3.4061 2.2812-1.3126 0.56256-2.6911 0.84408-4.1356 0.84408-1.4443 0-2.8228-0.28152-4.1353-0.84408-1.3126-0.56258-2.4479-1.323-3.4063-2.2812-0.95814-0.9584-1.7186-2.0938-2.2812-3.4063-0.56257-1.3125-0.84385-2.6909-0.84385-4.1356 0-1.6803 0.37154-3.2636 1.1147-4.7498 0.74309-1.4859 1.7951-2.743 3.1562-3.771 0.58327-0.44466 0.92693-1.0312 1.0313-1.7605 0.10401-0.72902-0.066-1.3855-0.5104-1.9687-0.43061-0.59711-1.0103-0.94435-1.7396-1.0415-0.72928-0.0972-1.3926 0.0764-1.9897 0.52089-2.028 1.5138-3.6006 3.3889-4.7188 5.6248-1.1182 2.2362-1.6772 4.6181-1.6772 7.1458 0 2.1669 0.42372 4.2361 1.2709 6.2084 0.84743 1.9723 1.9861 3.6735 3.4168 5.1042 1.4304 1.4304 3.1319 2.5696 5.1042 3.4163 1.9723 0.84741 4.0418 1.2714 6.2084 1.2714s4.2361-0.42397 6.2084-1.2714c1.9723-0.84692 3.6738-1.9859 5.1042-3.4163s2.5691-3.1319 3.4165-5.1042c0.84718-1.9723 1.2706-4.0417 1.2706-6.2084 0-2.5277-0.55822-4.9096-1.6764-7.1458zm-14.324 7.1461c0.72212 0 1.3476-0.26363 1.8749-0.79168 0.52776-0.52753 0.79218-1.1527 0.79218-1.8748v-13.334c0-0.7224-0.26414-1.3473-0.79218-1.8749-0.52729-0.52804-1.1525-0.79192-1.8749-0.79192-0.72236 0-1.3473 0.26412-1.8751 0.79192-0.52778 0.52753-0.79166 1.1527-0.79166 1.8749v13.334c0 0.72208 0.26386 1.3473 0.79166 1.8748 0.52778 0.52806 1.153 0.79168 1.8751 0.79168z"
     fill="url(#a)"
     fill-rule="evenodd"
     id="path23" />
  <circle
     cx="37.397312"
     cy="31.912609"
     fill="url(#a)"
     id="ellipse17"
     r="0"
     style="fill:url(#a-3);stroke-width:1.91748" />
  <g
     transform="matrix(3.7796,0,0,3.7796,-0.478387,0.45588)"
     fill="#5e4aa6"
     stroke-width="0.26458"
     id="g924">
    <circle
       cx="-330.35001"
       cy="-328.37"
       r="0"
       image-rendering="optimizeSpeed"
       id="circle902" />
    <circle
       cx="-330.35001"
       cy="-328.38"
       r="0"
       image-rendering="optimizeSpeed"
       id="circle904" />
    <circle
       cx="-330.35001"
       cy="-328.38"
       r="0"
       image-rendering="optimizeSpeed"
       id="circle906" />
    <circle
       cx="-352.63"
       cy="-336.84"
       r="0"
       image-rendering="optimizeSpeed"
       id="circle908" />
    <circle
       cx="-330.35001"
       cy="-328.37"
       r="0"
       image-rendering="optimizeSpeed"
       id="circle910" />
    <circle
       cx="-305.84"
       cy="-328.26999"
       r="0"
       image-rendering="optimizeSpeed"
       id="circle912" />
    <circle
       cx="-305.84"
       cy="-328.28"
       r="0"
       image-rendering="optimizeSpeed"
       id="circle914" />
    <circle
       cx="-305.84"
       cy="-328.28"
       r="0"
       image-rendering="optimizeSpeed"
       id="circle916" />
    <circle
       cx="-328.12"
       cy="-336.73999"
       r="0"
       image-rendering="optimizeSpeed"
       id="circle918" />
    <circle
       cx="-305.84"
       cy="-328.26999"
       r="0"
       image-rendering="optimizeSpeed"
       id="circle920" />
    <circle
       cx="-305.03"
       cy="-328.69"
       r="0"
       id="circle922" />
  </g>
  <circle
     cx="31.526615"
     cy="32"
     r="0"
     fill="url(#b-3)"
     stroke-width="1.5715"
     id="circle926"
     style="fill:url(#b-3)" />
  <circle
     cx="-1323.0133"
     cy="-1241.1"
     r="0"
     fill="#5e4aa6"
     id="circle928" />
  <circle
     cx="-223.49339"
     cy="24.311001"
     r="0"
     fill="#5e4aa6"
     fill-rule="evenodd"
     id="circle930" />
</svg>
