<?xml version="1.0" encoding="UTF-8" standalone="no"?>
<svg
   xmlns:dc="http://purl.org/dc/elements/1.1/"
   xmlns:cc="http://creativecommons.org/ns#"
   xmlns:rdf="http://www.w3.org/1999/02/22-rdf-syntax-ns#"
   xmlns:svg="http://www.w3.org/2000/svg"
   xmlns="http://www.w3.org/2000/svg"
   xmlns:sodipodi="http://sodipodi.sourceforge.net/DTD/sodipodi-0.dtd"
   xmlns:inkscape="http://www.inkscape.org/namespaces/inkscape"
   width="64"
   height="64"
   version="1.1"
   viewBox="0 0 16.933 16.933"
   id="svg19"
   sodipodi:docname="signal-desktop.svg"
   inkscape:version="1.0.1 (3bc2e813f5, 2020-09-07)">
  <metadata
     id="metadata23">
    <rdf:RDF>
      <cc:Work
         rdf:about="">
        <dc:format>image/svg+xml</dc:format>
        <dc:type
           rdf:resource="http://purl.org/dc/dcmitype/StillImage" />
        <dc:title></dc:title>
      </cc:Work>
    </rdf:RDF>
  </metadata>
  <sodipodi:namedview
     pagecolor="#ffffff"
     bordercolor="#666666"
     borderopacity="1"
     objecttolerance="10"
     gridtolerance="10"
     guidetolerance="10"
     inkscape:pageopacity="0"
     inkscape:pageshadow="2"
     inkscape:window-width="1920"
     inkscape:window-height="998"
     id="namedview21"
     showgrid="false"
     inkscape:zoom="4.5906698"
     inkscape:cx="22.182251"
     inkscape:cy="18.583259"
     inkscape:window-x="0"
     inkscape:window-y="0"
     inkscape:window-maximized="1"
     inkscape:current-layer="svg19" />
  <defs
     id="defs7">
    <linearGradient
       id="linearGradient1029"
       x1="8.6487"
       x2="8.6487"
       y1="1.483"
       y2="15.436"
       gradientUnits="userSpaceOnUse"
       gradientTransform="translate(0.27035933,-6.1263526)">
      <stop
         stop-color="#17b7f1"
         offset="0"
         id="stop2" />
      <stop
         stop-color="#1763e1"
         offset="1"
         id="stop4" />
    </linearGradient>
    <style
       type="text/css"
       id="style850" />
    <filter
       id="filter1057"
       x="-.027"
       y="-.027"
       width="1.054"
       height="1.054"
       color-interpolation-filters="sRGB">
      <feGaussianBlur
         stdDeviation="0.61875"
         id="feGaussianBlur852" />
    </filter>
    <linearGradient
       id="linearGradient1053"
       x1="-127"
       x2="-72"
       y1="60"
       y2="5"
       gradientTransform="matrix(0.26457812,0,0,0.26457812,34.792021,-0.13493521)"
       gradientUnits="userSpaceOnUse">
      <stop
         stop-color="#32d7ff"
         offset="0"
         id="stop855" />
      <stop
         stop-color="#329bff"
         offset="1"
         id="stop857" />
    </linearGradient>
    <style
       type="text/css"
       id="style860" />
    <style
       type="text/css"
       id="style862" />
    <style
       type="text/css"
       id="style864" />
    <style
       type="text/css"
       id="style866" />
    <style
       type="text/css"
       id="style868" />
    <style
       type="text/css"
       id="style870" />
    <style
       type="text/css"
       id="style872" />
  </defs>
  <rect
     x="4.5"
     y="4.5"
     width="55"
     height="55"
     ry="15"
     fill="#141414"
     filter="url(#filter1057)"
     opacity="0.3"
     stroke-linecap="round"
     stroke-width="2.7444"
     id="rect888"
     transform="scale(0.26457812)" />
  <rect
     x="1.1906016"
     y="1.1906016"
     width="14.551797"
     height="14.551797"
     ry="3.9686718"
     fill="url(#linearGradient1053)"
     stroke-linecap="round"
     stroke-width="0.726108"
     id="rect890"
     style="fill:url(#linearGradient1053)" />
  <path
     d="m8.4665 5.0155a3.451 3.1011 0 0 0-3.451 3.1009 3.451 3.1011 0 0 0 1.0179 2.1963l0.08687 1.4735a0.1435 0.13926 0 0 0 0.21523 0.11256l1.3514-0.76475a3.451 3.1011 0 0 0 0.77965 0.0832 3.451 3.1011 0 0 0 3.451-3.1008 3.451 3.1011 0 0 0-3.451-3.1009z"
     fill="#f9f9f9"
     stroke-width=".3451"
     id="path15" />
  <path
     d="m8.2498 3.9891 0.012783 0.28726c0.44159-0.031749 0.88125 0.026573 1.3106 0.12572l0.064787-0.27981c-0.46635-0.11947-1.1472-0.1623-1.3881-0.13317zm-1.7195 0.39273 0.11405 0.26359c0.37637-0.16548 0.70197-0.23843 1.0602-0.31294l-0.038465-0.28523c-0.40432 0.055941-0.81278 0.20161-1.1358 0.33458zm3.5759 0.18042c0.34548 0.15678 0.69428 0.33616 0.97854 0.52521l0.15994-0.2386c-0.33711-0.22722-0.7096-0.41343-1.0447-0.55762-0.0246 0.092626-0.06249 0.18104-0.0938 0.27101zm-5.0285 0.82055 0.20178 0.20482c0.26348-0.27677 0.57359-0.49539 0.86382-0.68941l-0.13767-0.2521c-0.35366 0.20803-0.6784 0.49094-0.92794 0.73669zm6.4299 0.051351c0.28812 0.27008 0.50219 0.57176 0.68903 0.85972l0.25307-0.13587c-0.19923-0.3588-0.49256-0.68182-0.74035-0.92863zm-7.3493 1.4748 0.27602 0.07907c0.10843-0.35639 0.28287-0.66304 0.49671-0.98068l-0.23755-0.16089c-0.25037 0.34728-0.39424 0.69086-0.53515 1.0625zm8.28-0.11084c0.1447 0.34103 0.20123 0.70601 0.22743 1.0726l0.28682-0.016213c0.0014-0.40415-0.1182-0.78783-0.24839-1.1645zm-8.3981 1.8776 0.28344-0.048c-0.079291-0.36256-0.055392-0.73082-0.01553-1.0956l-0.28277-0.047974c-0.07457 0.39556-0.048987 0.79722 0.01484 1.1916zm8.3128 0.80902 0.26589 0.10881c0.1715-0.38407 0.26142-0.79398 0.3206-1.1483-0.09573-0.013109-0.18971-0.020009-0.28479-0.031057-0.03753 0.37523-0.16087 0.72509-0.3017 1.0713zm-8.1624-0.22373c0.15146 0.37972 0.35787 0.7447 0.56221 1.049 0.068302-0.067813 0.15032-0.11833 0.22541-0.17707-0.22818-0.29751-0.38282-0.63309-0.521-0.97867zm7.1581 1.5187 0.18154 0.22304c0.3138-0.24737 0.56635-0.55637 0.79094-0.88405l-0.23755-0.16085c-0.19606 0.32409-0.4966 0.59917-0.73493 0.82186zm-6.2073-0.0283 0.1235 0.12164 0.050616 0.86514 0.28681-0.0169-0.057356-0.97529-0.20178-0.19871zm4.7545 0.82931 0.089087 0.27305c0.42789-0.13193 0.72416-0.30158 1.0724-0.50288l-0.15995-0.2386c-0.32075 0.20661-0.693 0.36087-1.0015 0.46844zm-3.3149 0.61435 0.14172 0.2501 0.79228-0.4488 0.13565 0.02174 0.045222-0.28454-0.23485-0.03716zm1.6703-0.40011-0.016187 0.28726c0.43317 0.02898 0.80595-0.02313 1.183-0.07913l-0.064787-0.2805c-0.36319 0.07492-0.73313 0.08645-1.102 0.07237zm-2.9019 0.51703 0.021604 0.36567c-0.00277 0.13921 0.050212 0.23042 0.16939 0.26763 0.11918 0.03724 0.41126-0.06288 0.68296-0.21693l-0.14172-0.2501c-0.118 0.1087-0.35942 0.23184-0.40356 0.20482-0.044131-0.02692-0.036436-0.27442-0.04184-0.38796z"
     fill="#b4dcf3"
     stroke-width=".3451"
     id="path17" />
  <circle
     cx="-317.9942"
     cy="-345.0394"
     r="0"
     fill="#5e4aa6"
     id="circle876"
     style="stroke-width:0.264578" />
  <circle
     cx="-286.65399"
     cy="-355.43723"
     r="0"
     id="circle878"
     style="fill:#5e4aa6;stroke-width:0.26458" />
  <circle
     cx="4.2597947"
     cy="-20.615932"
     r="0"
     fill-rule="evenodd"
     id="circle880"
     style="fill:#5e4aa6;stroke-width:0.26458" />
  <circle
     cx="-265.884"
     cy="-374.35724"
     r="0"
     id="circle882"
     style="fill:#5e4aa6;stroke-width:0.26458" />
  <circle
     cx="25.028996"
     cy="-39.526234"
     r="0"
     fill-rule="evenodd"
     id="circle884"
     style="fill:#5e4aa6;stroke-width:0.26458" />
</svg>
