<?xml version="1.0" encoding="UTF-8" standalone="no"?>
<svg
   xmlns:dc="http://purl.org/dc/elements/1.1/"
   xmlns:cc="http://creativecommons.org/ns#"
   xmlns:rdf="http://www.w3.org/1999/02/22-rdf-syntax-ns#"
   xmlns:svg="http://www.w3.org/2000/svg"
   xmlns="http://www.w3.org/2000/svg"
   xmlns:xlink="http://www.w3.org/1999/xlink"
   xmlns:sodipodi="http://sodipodi.sourceforge.net/DTD/sodipodi-0.dtd"
   xmlns:inkscape="http://www.inkscape.org/namespaces/inkscape"
   width="64"
   height="64"
   version="1.1"
   id="svg37"
   sodipodi:docname="simplescreenrecorder.svg"
   inkscape:version="1.0.1 (3bc2e813f5, 2020-09-07)">
  <metadata
     id="metadata41">
    <rdf:RDF>
      <cc:Work
         rdf:about="">
        <dc:format>image/svg+xml</dc:format>
        <dc:type
           rdf:resource="http://purl.org/dc/dcmitype/StillImage" />
        <dc:title></dc:title>
      </cc:Work>
    </rdf:RDF>
  </metadata>
  <sodipodi:namedview
     pagecolor="#ffffff"
     bordercolor="#666666"
     borderopacity="1"
     objecttolerance="10"
     gridtolerance="10"
     guidetolerance="10"
     inkscape:pageopacity="0"
     inkscape:pageshadow="2"
     inkscape:window-width="1920"
     inkscape:window-height="998"
     id="namedview39"
     showgrid="false"
     inkscape:zoom="4.5906698"
     inkscape:cx="-8.1496679"
     inkscape:cy="17.576443"
     inkscape:window-x="0"
     inkscape:window-y="0"
     inkscape:window-maximized="1"
     inkscape:current-layer="svg37" />
  <defs
     id="defs23">
    <linearGradient
       id="e"
       x1="31.995"
       x2="31.995"
       y1="17.647"
       y2="46.337"
       gradientUnits="userSpaceOnUse">
      <stop
         stop-color="#289dc7"
         offset="0"
         id="stop2" />
      <stop
         stop-color="#393f95"
         offset="1"
         id="stop4" />
    </linearGradient>
    <linearGradient
       id="d"
       x1="32"
       x2="32"
       y1="28.113"
       y2="38.548"
       gradientUnits="userSpaceOnUse">
      <stop
         stop-color="#f80095"
         offset="0"
         id="stop7" />
      <stop
         stop-color="#f8004e"
         offset="1"
         id="stop9" />
    </linearGradient>
    <filter
       id="f"
       x="-.099687"
       y="-.11783"
       width="1.1994"
       height="1.2357"
       color-interpolation-filters="sRGB">
      <feGaussianBlur
         stdDeviation="1.4085099"
         id="feGaussianBlur12" />
    </filter>
    <filter
       id="g"
       x="-.06"
       y="-.06"
       width="1.12"
       height="1.12"
       color-interpolation-filters="sRGB">
      <feGaussianBlur
         stdDeviation="0.26086955"
         id="feGaussianBlur15" />
    </filter>
    <linearGradient
       id="linearGradient862"
       x1="7.9373"
       x2="7.9373"
       y1="15.081"
       y2="1.852"
       gradientTransform="matrix(3.7796,0,0,3.7796,1.5502529,-23.874972)"
       gradientUnits="userSpaceOnUse">
      <stop
         stop-color="#f1efeb"
         offset="0"
         id="stop18" />
      <stop
         stop-color="#fff"
         offset="1"
         id="stop20" />
    </linearGradient>
    <filter
       id="filter2761"
       x="-.024"
       y="-.024"
       width="1.048"
       height="1.048"
       color-interpolation-filters="sRGB">
      <feGaussianBlur
         stdDeviation="0.14552168"
         id="feGaussianBlur2" />
    </filter>
    <linearGradient
       id="a-9"
       x1="23.487"
       x2="23.487"
       y1="15.18"
       y2="32.913"
       gradientTransform="matrix(.12676 0 0 .12676 -27.515 6.7925)"
       gradientUnits="userSpaceOnUse">
      <stop
         stop-color="#141414"
         offset="0"
         id="stop5" />
      <stop
         stop-color="#30277f"
         offset="1"
         id="stop7-3" />
    </linearGradient>
    <radialGradient
       id="c-7"
       cx="24.047"
       cy="23.949"
       r="2.9867"
       gradientTransform="matrix(0.2056,-3.7539e-8,2.8431e-8,0.15571,-39.607,5.456)"
       gradientUnits="userSpaceOnUse">
      <stop
         stop-color="#2839e6"
         offset="0"
         id="stop10" />
      <stop
         stop-opacity="0"
         offset="1"
         id="stop12" />
    </radialGradient>
    <linearGradient
       id="d-6"
       x1="361.36"
       x2="361.36"
       y1="616.07"
       y2="722.79"
       gradientTransform="matrix(.0040372 0 0 .0040372 -25.925 7.1257)"
       gradientUnits="userSpaceOnUse">
      <stop
         stop-color="#fff"
         offset="0"
         id="stop15" />
      <stop
         stop-color="#fff"
         stop-opacity="0"
         offset="1"
         id="stop17" />
    </linearGradient>
    <radialGradient
       id="radialGradient123131"
       cx="-24.473"
       cy="9.8348"
       r="1.1409"
       gradientTransform="matrix(1.4202,0,0,1.0512,0.054505,-1.1471)"
       gradientUnits="userSpaceOnUse"
       xlink:href="#a-9" />
    <linearGradient
       id="linearGradient123141"
       x1="-24.485"
       x2="-24.485"
       y1="8.6962"
       y2="9.7506"
       gradientTransform="translate(-10.196,-0.6431)"
       gradientUnits="userSpaceOnUse"
       xlink:href="#d-6" />
    <linearGradient
       id="linearGradient123149"
       x1="-24.478"
       x2="-24.478"
       y1="11.104"
       y2="8.4912"
       gradientTransform="translate(-10.229,-0.6431)"
       gradientUnits="userSpaceOnUse">
      <stop
         stop-color="#2d1edc"
         offset="0"
         id="stop22" />
      <stop
         stop-color="#141414"
         offset="1"
         id="stop24" />
    </linearGradient>
    <radialGradient
       id="radialGradient123155"
       cx="-24.473"
       cy="9.8348"
       r="1.1409"
       gradientTransform="matrix(1.1403,0,0,0.84405,-6.7958,0.89063)"
       gradientUnits="userSpaceOnUse"
       xlink:href="#a-9" />
    <linearGradient
       id="linearGradient123157"
       x1="-24.478"
       x2="-24.478"
       y1="11.104"
       y2="8.4912"
       gradientTransform="matrix(0.8029,0,0,0.8029,-15.053,1.2953)"
       gradientUnits="userSpaceOnUse"
       xlink:href="#a-9" />
    <radialGradient
       id="radialGradient123159"
       cx="-24.473"
       cy="9.8348"
       r="1.5211"
       gradientTransform="matrix(0.93082,0,0,0.93082,-11.889,0.037279)"
       gradientUnits="userSpaceOnUse">
      <stop
         stop-color="#291dc0"
         offset="0"
         id="stop29" />
      <stop
         stop-color="#1b1b23"
         offset="1"
         id="stop31" />
    </radialGradient>
    <linearGradient
       id="linearGradient123161"
       x1="361.36"
       x2="361.36"
       y1="616.07"
       y2="722.79"
       gradientTransform="matrix(0.0040372,0,0,0.0040372,-36.122,6.4826)"
       gradientUnits="userSpaceOnUse"
       xlink:href="#d-6" />
    <linearGradient
       id="linearGradient123197"
       x1="-36.117"
       x2="-33.22"
       y1="10.638"
       y2="7.7404"
       gradientUnits="userSpaceOnUse">
      <stop
         offset="0"
         id="stop35" />
      <stop
         stop-opacity="0"
         offset="1"
         id="stop37" />
    </linearGradient>
    <linearGradient
       id="linearGradient952"
       x1="-20.384"
       x2="-23.272"
       y1="6.1331"
       y2="15.312"
       gradientUnits="userSpaceOnUse">
      <stop
         stop-color="#232323"
         offset="0"
         id="stop40" />
      <stop
         stop-color="#323296"
         offset=".95004"
         id="stop42" />
      <stop
         stop-color="#232323"
         offset="1"
         id="stop44" />
    </linearGradient>
    <linearGradient
       id="linearGradient1000"
       x1="-25.122"
       x2="-15.582"
       y1="9.3424"
       y2="9.3424"
       gradientUnits="userSpaceOnUse">
      <stop
         stop-color="#407fff"
         offset="0"
         id="stop47" />
      <stop
         stop-color="#ff407a"
         offset="1"
         id="stop49" />
    </linearGradient>
    <linearGradient
       id="linearGradient1024"
       x1="1.3315"
       x2="15.65"
       y1="15.576"
       y2="1.17"
       gradientUnits="userSpaceOnUse">
      <stop
         stop-color="#dddfe1"
         offset="0"
         id="stop52" />
      <stop
         stop-color="#f3f4f6"
         stop-opacity=".99608"
         offset="1"
         id="stop54" />
    </linearGradient>
    <filter
       color-interpolation-filters="sRGB"
       height="1.048"
       width="1.048"
       y="-.024"
       x="-.024"
       id="filter2761-3">
      <feGaussianBlur
         id="feGaussianBlur2-3"
         stdDeviation="0.14552168" />
    </filter>
    <linearGradient
       gradientUnits="userSpaceOnUse"
       gradientTransform="matrix(3.7796 0 0 3.7796 -.0026448 .53066)"
       y2="1.17"
       y1="15.576"
       x2="15.65"
       x1="1.3315"
       id="linearGradient1024-6">
      <stop
         id="stop5-7"
         offset="0"
         stop-color="#dddfe1" />
      <stop
         id="stop7-5"
         offset="1"
         stop-opacity=".99608"
         stop-color="#f3f4f6" />
    </linearGradient>
    <filter
       inkscape:collect="always"
       style="color-interpolation-filters:sRGB"
       id="filter1057"
       x="-0.027000001"
       width="1.054"
       y="-0.027000001"
       height="1.054">
      <feGaussianBlur
         inkscape:collect="always"
         stdDeviation="0.61875"
         id="feGaussianBlur1059" />
    </filter>
    <linearGradient
       inkscape:collect="always"
       xlink:href="#linearGradient1051"
       id="linearGradient1053"
       x1="-127"
       y1="60"
       x2="-72"
       y2="5"
       gradientUnits="userSpaceOnUse"
       gradientTransform="translate(131.5,-0.50999673)" />
    <linearGradient
       inkscape:collect="always"
       id="linearGradient1051">
      <stop
         style="stop-color:#dee0e2;stop-opacity:1"
         offset="0"
         id="stop1047" />
      <stop
         style="stop-color:#f1f3f5;stop-opacity:0.99607843"
         offset="1"
         id="stop1049" />
    </linearGradient>
  </defs>
  <rect
     ry="15"
     y="4.4999995"
     x="4.4999995"
     height="55"
     width="55"
     id="rect1055"
     style="opacity:0.3;fill:#141414;fill-opacity:1;stroke-width:2.74436;stroke-linecap:round;filter:url(#filter1057)" />
  <rect
     style="fill:url(#linearGradient1053);fill-opacity:1;stroke-width:2.74436;stroke-linecap:round"
     id="rect1045"
     width="54.999996"
     height="54.999996"
     x="4.5000019"
     y="4.5000019"
     ry="14.999999" />
  <path
     d="m27.475 17.652c-0.62609 0-1.2378 0.20348-1.8339 0.61174s-0.99913 0.90652-1.2274 1.4622l-0.89739 3.1383h-3.9522c-1.2483 0-2.2983 0.44348-3.18 1.3043-0.88696 0.86609-1.3448 1.9213-1.3448 3.1383v14.633c0 1.2183 0.45913 2.237 1.3448 3.0978 0.88174 0.86087 1.9304 1.2991 3.18 1.2991h24.861c1.2483 0 2.3387-0.44348 3.2204-1.2991 0.88174-0.86609 1.3043-1.8848 1.3043-3.0978v-14.633c0-1.2183-0.42261-2.2722-1.3043-3.1383s-1.9722-1.3043-3.2204-1.3043h-3.9522l-0.89739-3.1383c-0.21913-0.56087-0.62609-1.0552-1.2235-1.4674-0.59609-0.40826-1.213-0.61174-1.8339-0.61174m-5.1 7.8261c4.2848-0.31565 8.4065 3.5309 8.3974 7.8209 0 4.1022-3.7291 7.8261-7.8209 7.8261-4.1022 0-7.8261-3.7291-7.8261-7.8261-0.01044-3.913 3.3522-7.5404 7.2561-7.8209"
     filter="url(#f)"
     opacity=".15"
     id="path29" />
  <path
     d="m27.475 17.652c-0.62609 0-1.2378 0.20348-1.8339 0.61174s-0.99913 0.90652-1.2274 1.4622l-0.89739 3.1383h-3.9522c-1.2483 0-2.2983 0.44348-3.18 1.3043-0.88696 0.86609-1.3448 1.9213-1.3448 3.1383v14.633c0 1.2183 0.45913 2.237 1.3448 3.0978 0.88174 0.86087 1.9304 1.2991 3.18 1.2991h24.861c1.2483 0 2.3387-0.44348 3.2204-1.2991 0.88174-0.86609 1.3043-1.8848 1.3043-3.0978v-14.633c0-1.2183-0.42261-2.2722-1.3043-3.1383s-1.9722-1.3043-3.2204-1.3043h-3.9522l-0.89739-3.1383c-0.21913-0.56087-0.62609-1.0552-1.2235-1.4674-0.59609-0.40826-1.213-0.61174-1.8339-0.61174m-5.1 7.8261c4.2848-0.31565 8.4065 3.5309 8.3974 7.8209 0 4.1022-3.7291 7.8261-7.8209 7.8261-4.1022 0-7.8261-3.7291-7.8261-7.8261-0.01044-3.913 3.3522-7.5404 7.2561-7.8209"
     fill="url(#e)"
     id="path31" />
  <path
     d="m37.217 33.33c0 2.8839-2.3387 5.2174-5.2174 5.2174-2.8839 0-5.2174-2.3335-5.2174-5.2174s2.3335-5.2174 5.2174-5.2174c2.8787 0 5.2174 2.3335 5.2174 5.2174"
     filter="url(#g)"
     opacity=".15"
     id="path33" />
  <path
     d="m37.217 33.33c0 2.8839-2.3387 5.2174-5.2174 5.2174-2.8839 0-5.2174-2.3335-5.2174-5.2174s2.3335-5.2174 5.2174-5.2174c2.8787 0 5.2174 2.3335 5.2174 5.2174"
     fill="url(#d)"
     id="path35" />
</svg>
