<?xml version="1.0" encoding="UTF-8" standalone="no"?>
<svg
   width="64"
   height="64"
   version="1.1"
   viewBox="0 0 16.933 16.933"
   id="svg49"
   sodipodi:docname="4kslideshowmaker.svg"
   inkscape:version="1.1.2 (0a00cf5339, 2022-02-04)"
   xmlns:inkscape="http://www.inkscape.org/namespaces/inkscape"
   xmlns:sodipodi="http://sodipodi.sourceforge.net/DTD/sodipodi-0.dtd"
   xmlns:xlink="http://www.w3.org/1999/xlink"
   xmlns="http://www.w3.org/2000/svg"
   xmlns:svg="http://www.w3.org/2000/svg"
   xmlns:rdf="http://www.w3.org/1999/02/22-rdf-syntax-ns#"
   xmlns:cc="http://creativecommons.org/ns#"
   xmlns:dc="http://purl.org/dc/elements/1.1/">
  <sodipodi:namedview
     id="namedview51"
     pagecolor="#ffffff"
     bordercolor="#666666"
     borderopacity="1.0"
     inkscape:pageshadow="2"
     inkscape:pageopacity="0.0"
     inkscape:pagecheckerboard="0"
     showgrid="false"
     showguides="false"
     inkscape:zoom="7.5351066"
     inkscape:cx="31.651841"
     inkscape:cy="26.940561"
     inkscape:window-width="1920"
     inkscape:window-height="1050"
     inkscape:window-x="0"
     inkscape:window-y="0"
     inkscape:window-maximized="1"
     inkscape:current-layer="svg49" />
  <metadata
     id="metadata2">
    <rdf:RDF>
      <cc:Work
         rdf:about="">
        <dc:format>image/svg+xml</dc:format>
        <dc:type
           rdf:resource="http://purl.org/dc/dcmitype/StillImage" />
      </cc:Work>
    </rdf:RDF>
  </metadata>
  <defs
     id="defs19">
    <linearGradient
       id="linearGradient64681">
      <stop
         stop-color="#99c2e6"
         offset="0"
         id="stop4" />
      <stop
         stop-color="#6493bd"
         offset="1"
         id="stop6" />
    </linearGradient>
    <filter
       id="filter1057"
       x="-0.026999999"
       y="-0.026999999"
       width="1.054"
       height="1.054"
       color-interpolation-filters="sRGB">
      <feGaussianBlur
         stdDeviation="0.61875"
         id="feGaussianBlur9" />
    </filter>
    <linearGradient
       id="linearGradient1053"
       x1="-127"
       x2="-72"
       y1="60"
       y2="5"
       gradientTransform="matrix(0.26458,0,0,0.26458,34.792,-0.13493)"
       gradientUnits="userSpaceOnUse">
      <stop
         stop-color="#32d7ff"
         offset="0"
         id="stop12" />
      <stop
         stop-color="#329bff"
         offset="1"
         id="stop14" />
    </linearGradient>
    <linearGradient
       id="linearGradient1050"
       x1="31.803"
       x2="31.803"
       y1="8.0244"
       y2="8.241"
       gradientTransform="matrix(.82927 0 0 .8636 -17.745 1.0542)"
       gradientUnits="userSpaceOnUse"
       xlink:href="#linearGradient64681" />
    <linearGradient
       id="linearGradient1052"
       x1="31.803"
       x2="31.803"
       y1="8.0244"
       y2="8.241"
       gradientTransform="matrix(.8636 0 0 .8636 -18.831 .94954)"
       gradientUnits="userSpaceOnUse"
       xlink:href="#linearGradient64681" />
  </defs>
  <rect
     transform="scale(0.26458)"
     x="4.5"
     y="4.5"
     width="55"
     height="55"
     ry="15"
     fill="#141414"
     filter="url(#filter1057)"
     opacity="0.3"
     stroke-width="2.7444"
     id="rect21"
     style="stroke-linecap:round" />
  <rect
     x="1.1906"
     y="1.1906"
     width="14.552"
     height="14.552"
     ry="3.9686999"
     fill="url(#linearGradient1053)"
     stroke-width="0.72611"
     id="rect23"
     style="fill:url(#linearGradient1053);stroke-linecap:round" />
  <g
     id="g1401"
     transform="translate(8.913412,0.27316085)">
    <path
       d="m 1.9342911,2.3725722 c 0,1.1112281 -3.2741543,7.6727658 -5.5561406,7.6727658 -1.1409931,0 -1.5874687,-0.9789394 -1.5874687,-1.7197581 0,-0.7408188 0.4464756,-1.7197578 1.5874687,-1.7197578 2.2966032,-0.00797 5.5561406,6.5615369 5.5561406,7.6727659"
       style="opacity:0.2;fill:none;stroke:#000000;stroke-width:0.793734;stroke-linecap:round;stroke-linejoin:round"
       id="path1195" />
    <path
       style="fill:none;stroke:#ffffff;stroke-width:0.793734;stroke-linecap:round;stroke-linejoin:round"
       d="m 1.9342911,2.1080903 c 0,1.1112281 -3.2741543,7.6727655 -5.5561406,7.6727655 -1.1409931,0 -1.5874687,-0.978939 -1.5874687,-1.7197578 0,-0.7408187 0.4464756,-1.7197577 1.5874687,-1.7197577 2.2966032,-0.00797 5.5561406,6.5615377 5.5561406,7.6727657"
       id="path1197" />
    <path
       d="m 3.5217598,3.4308846 c 0,1.0722224 -2.64578122,4.8946953 -2.64578122,4.8946953 0,0 2.65601242,3.9226911 2.64578122,4.8946951"
       style="opacity:0.2;fill:none;stroke:#000000;stroke-width:0.793734;stroke-linecap:round;stroke-linejoin:round"
       id="path1199" />
    <path
       style="fill:none;stroke:#ffffff;stroke-width:0.793734;stroke-linecap:round;stroke-linejoin:round"
       d="m 3.5217598,3.1664028 c 0,1.0722224 -2.64578122,4.8946952 -2.64578122,4.8946952 0,0 2.65601242,3.922691 2.64578122,4.894695"
       id="path1201" />
    <path
       d="M 4.3154941,5.5420625 C 4.1832829,6.2035078 2.7280254,8.3201327 2.7280254,8.3201327 c 0,0 1.4552575,2.1166253 1.5874687,2.7780703"
       style="opacity:0.2;fill:none;stroke:#000000;stroke-width:0.793734;stroke-linecap:round;stroke-linejoin:round"
       id="path1203" />
    <path
       style="fill:none;stroke:#ffffff;stroke-width:0.793734;stroke-linecap:round;stroke-linejoin:round"
       d="M 4.3154941,5.2830278 C 4.1832829,5.9444731 2.7280254,8.061098 2.7280254,8.061098 c 0,0 1.4552575,2.116625 1.5874687,2.77807"
       id="path1205" />
  </g>
  <path
     style="opacity:0.2;fill:#ffffff;stroke-width:0.264578"
     d="m -5.6557938,0.65291068 c -0.4122457,0 -0.7441259,0.33061187 -0.7441259,0.74102542 v 0.2645781 c 0,-0.4104136 0.3318802,-0.7410254 0.7441259,-0.7410254 H 4.7619697 c 0.4122458,0 0.744126,0.3306119 0.744126,0.7410254 V 1.3939361 c 0,-0.41041355 -0.3318802,-0.74102542 -0.744126,-0.74102542 z"
     id="path1207" />
</svg>
