<?xml version="1.0" encoding="UTF-8"?>
<svg width="64" height="64" version="1.1" viewBox="0 0 64 64" xmlns="http://www.w3.org/2000/svg">
 <defs>
  <filter id="filter1057-3" x="-.027" y="-.027" width="1.054" height="1.054" color-interpolation-filters="sRGB">
   <feGaussianBlur stdDeviation="0.61875"/>
  </filter>
  <linearGradient id="linearGradient1053-6" x1="-127" x2="-72" y1="60" y2="5" gradientTransform="translate(131.5 -.51)" gradientUnits="userSpaceOnUse">
   <stop stop-color="#32d7ff" offset="0"/>
   <stop stop-color="#329bff" offset="1"/>
  </linearGradient>
  <linearGradient id="linearGradient864" x1=".44868" x2="23.785" y1=".87915" y2="23.018" gradientTransform="matrix(1.7082 0 0 1.7082 11.432 11.433)" gradientUnits="userSpaceOnUse">
   <stop stop-color="#fff" offset="0"/>
   <stop stop-color="#c8f0ff" offset="1"/>
  </linearGradient>
 </defs>
 <rect x="4.5" y="4.5" width="55" height="55" ry="15" fill="#141414" filter="url(#filter1057-3)" opacity=".3" stroke-linecap="round" stroke-width="2.7444"/>
 <rect x="4.5" y="4.5" width="55" height="55" ry="15" fill="url(#linearGradient1053-6)" stroke-linecap="round" stroke-width="2.7444"/>
 <path d="m50.772 34.484c0.58081 0.82165 1.0232 1.7134 1.3324 2.6904 0.30747 0.9737 0.46293 1.9815 0.46293 3.0253 0 1.4947-0.30237 2.8988-0.90023 4.2143-0.5996 1.3119-1.4247 2.4684-2.4769 3.4728-1.0522 0.99419-2.2771 1.7749-3.6847 2.342-1.4076 0.56713-2.8886 0.84557-4.4637 0.84557-2.2429 0-4.2551-0.52956-6.0402-1.5869-0.49539 0.06834-0.99419 0.11785-1.4981 0.15546-0.50564 0.03402-1.0061 0.04781-1.5066 0.04781-2.6204 0-5.0802-0.46977-7.3816-1.4059-2.2958-0.9412-4.3065-2.219-6.0387-3.8469-1.727-1.6211-3.0885-3.5326-4.0691-5.7208-0.98908-2.1882-1.4827-4.5268-1.4827-7.0123 0-0.48171 0.02393-0.93953 0.07516-1.3632 0.04612-0.42366 0.10932-0.85582 0.17424-1.288-1.2299-1.7065-1.8415-3.5396-1.8415-5.5057 0-1.4622 0.30236-2.8442 0.90196-4.144 0.59786-1.2983 1.4178-2.4274 2.4701-3.3857 1.0522-0.96002 2.2839-1.7151 3.683-2.2685 1.4025-0.55348 2.8903-0.82335 4.4652-0.82335 1.1343 0 2.1985 0.13324 3.2098 0.40483 1.0113 0.27502 1.9576 0.65765 2.8305 1.1582 0.49369-0.07004 0.99933-0.11958 1.4981-0.15886 0.50564-0.03077 1.0113-0.04954 1.5049-0.04954 2.6289 0 5.0972 0.45782 7.405 1.3683 2.3027 0.90366 4.3182 2.1558 6.0504 3.7444 1.7322 1.5955 3.097 3.4421 4.0876 5.5432 0.98738 2.1045 1.481 4.3628 1.481 6.7678 0.0017 0.88658-0.08028 1.8141-0.24942 2.7793zm-9.7302 5.4695c0.8097-1.0659 1.2094-2.318 1.2094-3.7564 0-1.1326-0.22549-2.084-0.6696-2.8561-0.46292-0.7687-1.1155-1.4127-1.9576-1.9269-0.77384-0.49879-1.78-0.94123-3.0116-1.3376-1.2385-0.31089-2.5521-0.61494-3.941-0.92585l-1.522-0.34678c-0.40827-0.08712-0.73283-0.16057-0.9771-0.22719-0.27161-0.06662-0.52272-0.14007-0.76186-0.22719-0.22548-0.08029-0.46463-0.17424-0.70376-0.27673-0.46463-0.19474-0.85412-0.45952-1.1633-0.7704-0.23915-0.26819-0.35873-0.62862-0.35873-1.0762 0-0.65425 0.38949-1.2385 1.1633-1.7561 0.87634-0.48345 1.9474-0.71574 3.22-0.70036 1.4708 0 2.5043 0.21694 3.0867 0.65251 0.70376 0.51588 1.2555 1.1513 1.6501 1.9013 0.34335 0.55005 0.69182 0.96002 1.0522 1.2299 0.34335 0.26306 0.81995 0.40483 1.4195 0.42366 0.67474 0 1.2333-0.22378 1.7031-0.67473 0.45952-0.42022 0.67987-0.89342 0.66789-1.4263 0-0.61668-0.17424-1.2231-0.51588-1.8073-0.33824-0.54834-0.90707-1.1326-1.6911-1.7526-0.39629-0.26648-0.83189-0.51078-1.3017-0.73453-0.47147-0.22548-1.001-0.42366-1.5767-0.59105-0.603-0.16399-1.2368-0.2904-1.9047-0.37581-0.66959-0.0837-1.4008-0.12299-2.2105-0.12299-2.0396 0-3.7598 0.2494-5.1607 0.74821-1.5049 0.51932-2.6443 1.2333-3.4165 2.1592-0.7721 0.88144-1.1582 1.9405-1.1582 3.1773 0 1.3017 0.3741 2.3607 1.112 3.1773 0.74307 0.88314 1.7492 1.5511 3.0219 2.0038 1.2094 0.48345 2.7554 0.90707 4.6516 1.2726 0.7089 0.16741 1.329 0.30919 1.8773 0.41682 0.5398 0.10591 1.0301 0.22719 1.4588 0.35873 0.808 0.22036 1.4639 0.58935 1.9644 1.1137 0.5347 0.45438 0.80286 1.0386 0.80286 1.7595 0 0.99589-0.48855 1.8022-1.4537 2.4171-0.91221 0.63032-2.1455 0.94124-3.6984 0.91905-1.2436 0-2.1438-0.14347-2.7144-0.4339-0.7089-0.32285-1.2316-0.73283-1.575-1.2214-0.4356-0.55689-0.78408-1.1753-1.0642-1.8432-0.24428-0.63373-0.57397-1.112-1.0044-1.4349-0.40143-0.32627-0.8712-0.48855-1.4229-0.48855-0.70376 0-1.2846 0.19644-1.7441 0.58251-0.45952 0.439-0.67988 0.95322-0.66959 1.5306 0 1.0061 0.3724 2.0123 1.1103 3.0201 0.73283 1.0369 1.6741 1.8466 2.8203 2.4291 1.6792 0.8678 3.7887 1.3068 6.3237 1.3239 2.0687 0 3.9119-0.30747 5.5156-0.92075 1.575-0.69866 2.7502-1.5647 3.5172-2.6051z" fill="url(#linearGradient864)" stroke-width="26.686"/>
</svg>
