<?xml version="1.0" encoding="UTF-8"?>
<svg width="64" height="64" version="1.1" viewBox="0 0 64 64" xmlns="http://www.w3.org/2000/svg">
 <defs>
  <filter id="filter1057" x="-.027" y="-.027" width="1.054" height="1.054" color-interpolation-filters="sRGB">
   <feGaussianBlur stdDeviation="0.61875"/>
  </filter>
  <linearGradient id="linearGradient1053" x1="-127" x2="-72" y1="60" y2="5" gradientTransform="translate(203.94,7.5907)" gradientUnits="userSpaceOnUse">
   <stop stop-color="#dee0e2" offset="0"/>
   <stop stop-color="#f1f3f5" stop-opacity=".99608" offset="1"/>
  </linearGradient>
 </defs>
 <g transform="translate(-72.443 -8.101)" stroke-linecap="round" stroke-width="2.7444">
  <rect x="76.943" y="12.601" width="55" height="55" ry="15" fill="#141414" filter="url(#filter1057)" opacity=".3"/>
  <rect x="76.943" y="12.601" width="55" height="55" ry="15" fill="url(#linearGradient1053)"/>
 </g>
 <g stroke-width="1.3043">
  <path d="m36.565 15.043a3.2609 3.2609 0 0 0-3.2609 3.2609v9.1304a3.2609 3.2609 0 0 0 3.2609 3.2609 3.2609 3.2609 0 0 0 3.2609-3.2609v-9.1304a3.2609 3.2609 0 0 0-3.2609-3.2609zm9.1304 9.1304a3.2609 3.2609 0 0 0-3.2609 3.2609v3.2609h3.2609a3.2609 3.2609 0 0 0 3.2609-3.2609 3.2609 3.2609 0 0 0-3.2609-3.2609z" fill="#2eb67d"/>
  <path d="m48.957 36.565a3.2609 3.2609 0 0 0-3.2609-3.2609h-9.1304a3.2609 3.2609 0 0 0-3.2609 3.2609 3.2609 3.2609 0 0 0 3.2609 3.2609h9.1304a3.2609 3.2609 0 0 0 3.2609-3.2609zm-9.1304 9.1304a3.2609 3.2609 0 0 0-3.2609-3.2609h-3.2609v3.2609a3.2609 3.2609 0 0 0 3.2609 3.2609 3.2609 3.2609 0 0 0 3.2609-3.2609z" fill="#ecb22e"/>
  <path d="m27.435 48.957a3.2609 3.2609 0 0 0 3.2609-3.2609v-9.1304a3.2609 3.2609 0 0 0-3.2609-3.2609 3.2609 3.2609 0 0 0-3.2609 3.2609v9.1304a3.2609 3.2609 0 0 0 3.2609 3.2609zm-9.1304-9.1304a3.2609 3.2609 0 0 0 3.2609-3.2609v-3.2609h-3.2609a3.2609 3.2609 0 0 0-3.2609 3.2609 3.2609 3.2609 0 0 0 3.2609 3.2609z" fill="#d6285e"/>
  <path d="m15.043 27.435a3.2609 3.2609 0 0 0 3.2609 3.2609h9.1304a3.2609 3.2609 0 0 0 3.2609-3.2609 3.2609 3.2609 0 0 0-3.2609-3.2609h-9.1304a3.2609 3.2609 0 0 0-3.2609 3.2609zm9.1304-9.1304a3.2609 3.2609 0 0 0 3.2609 3.2609h3.2609v-3.2609a3.2609 3.2609 0 0 0-3.2609-3.2609 3.2609 3.2609 0 0 0-3.2609 3.2609z" fill="#36c5f0"/>
 </g>
</svg>
