<?xml version="1.0" encoding="UTF-8"?>
<svg width="64" height="64" version="1.1" viewBox="0 0 64 64" xmlns="http://www.w3.org/2000/svg">
 <defs>
  <filter id="filter1057-8" x="-.027" y="-.027" width="1.054" height="1.054" color-interpolation-filters="sRGB">
   <feGaussianBlur stdDeviation="0.61875"/>
  </filter>
  <linearGradient id="linearGradient980" x1="-17.007" x2="-2.455" y1="15.742" y2="1.1906" gradientTransform="matrix(3.7796 0 0 3.7796 4.6079 -5.0397)" gradientUnits="userSpaceOnUse">
   <stop stop-color="#ff8228" offset="0"/>
   <stop stop-color="#ff7346" offset=".49173"/>
   <stop stop-color="#ff8c55" offset="1"/>
  </linearGradient>
 </defs>
 <g transform="translate(64.171 5.0397)">
  <rect x="-59.671" y="-.53967" width="55" height="55" ry="15" fill="#141414" filter="url(#filter1057-8)" opacity=".3" stroke-linecap="round" stroke-width="2.7444"/>
  <rect x="-59.671" y="-.53967" width="55" height="55" ry="14.895" fill="url(#linearGradient980)"/>
  <path d="m-19.678 5.2018a12.5 12.5 0 0 1 0.0102 0.49996 12.5 12.5 0 0 1-12.5 12.5 12.5 12.5 0 0 1-12.5-12.5 12.5 12.5 0 0 1 0.0098-0.50068" fill="none" stroke="#fff" stroke-dashoffset=".42096" stroke-width="2"/>
  <text x="-46.321136" y="36.978416" fill="#ffffff" font-family="sans-serif" font-size="10.078px" letter-spacing="0px" stroke-width=".25196" word-spacing="0px" style="line-height:1.25" xml:space="preserve"><tspan x="-46.321136" y="36.978416" fill="#ffffff" stroke-width=".25196">SHOP</tspan></text>
 </g>
 <g transform="translate(-.030163 -16.342)">
  <circle cx="48.03" cy="64.342" r="16" fill="#323232" stroke-linecap="round" stroke-width="2.2865"/>
  <circle cx="48.03" cy="64.341" r="6.9935" fill="none" opacity=".5" stroke="#fff" stroke-dashoffset=".42096" stroke-width="1.3321"/>
  <path d="m47.958 50.344c-0.66153 0.06714-0.65092 0.62718-0.86506 2.0073a12.074 12.041 30 0 0-1.3477 0.18082c-0.62038-1.4249-0.83196-1.9183-1.3867-1.7197-0.62958 0.22538-0.47794 0.76882-0.35385 2.1776a12.074 12.041 30 0 0-1.228 0.50474c-0.89084-1.0767-1.1663-1.5636-1.7692-1.2827-0.53318 0.24844-0.33884 0.74837 0.21986 2.192a12.074 12.041 30 0 0-1.0745 0.82084c-1.1282-0.80205-1.522-1.1972-2.0294-0.77141-0.4464 0.37462-0.13442 0.80645 0.75969 2.0294a12.074 12.041 30 0 0-0.81044 1.0589c-1.3081-0.45147-1.7979-0.71919-2.1646-0.16781-0.3185 0.4789 0.09539 0.80765 1.2618 1.7015a12.074 12.041 30 0 0-0.53466 1.3139c-1.3546-0.15043-1.89-0.29844-2.1244 0.31613-0.20866 0.54732 0.27762 0.77088 1.6703 1.4114a12.074 12.041 30 0 0-0.18342 1.3958c-1.3342 0.18225-1.8852 0.17382-1.9617 0.82343-0.06875 0.584 0.45803 0.67963 1.9786 0.96264a12.074 12.041 30 0 0 0.17432 1.2775c-1.2845 0.61943-1.8315 0.76442-1.7028 1.4231 0.11222 0.57458 0.64319 0.50724 2.1621 0.3148a12.074 12.041 30 0 0 0.51905 1.2606c-1.1032 0.93366-1.6006 1.2091-1.31 1.8186 0.25453 0.5338 0.75243 0.33003 2.2089-0.24847l-0.13529-0.24065a12.074 12.041 30 0 0 0.92494 1.2332c-0.77987 1.1624-1.1697 1.5674-0.72852 2.0658 0.38198 0.43148 0.80632 0.11539 1.9747-0.787a12.074 12.041 30 0 0 1.0927 0.84168c-0.54886 1.4673-0.74298 1.9691-0.20425 2.2128 0.60485 0.27361 0.87765-0.216 1.7523-1.2983a12.074 12.041 30 0 0 1.2839 0.53205c-0.2002 1.4838-0.26631 2.0112 0.3018 2.127 0.65244 0.13293 0.80718-0.40631 1.4245-1.6638a12.074 12.041 30 0 0 1.3412 0.18603c0.22065 1.5058 0.29987 2.0336 0.88198 1.9877 0.66089-0.05208 0.66377-0.61156 0.90669-1.9774a12.074 12.041 30 0 0 1.3919-0.18082c0.56797 1.3519 0.78214 1.8348 1.3256 1.6482 0.61893-0.21249 0.49365-0.75063 0.38896-2.0944a12.074 12.041 30 0 0 1.2254-0.49303c0.98302 1.1492 1.331 1.5514 1.7978 1.2033 0.52128-0.38875 0.24466-0.86173-0.25886-2.0918a12.074 12.041 30 0 0 1.1331-0.8586c1.2293 0.87039 1.6651 1.1755 2.032 0.72459 0.41106-0.50525 0.0257-0.89723-0.76622-1.9708a12.074 12.041 30 0 0 0.86639-1.1409c1.3422 0.5568 1.8336 0.7469 2.0879 0.23415 0.29096-0.58675-0.17711-0.88032-1.1981-1.764a12.074 12.041 30 0 0 0.51124-1.254c1.4802 0.15999 2.0083 0.20928 2.1087-0.36035 0.11407-0.64688-0.41943-0.79519-1.656-1.3594a12.074 12.041 30 0 0 0.17953-1.3594c1.4993-0.23328 2.0257-0.31798 1.9747-0.8989-0.0579-0.65977-0.61617-0.65833-1.9812-0.8885a12.074 12.041 30 0 0-0.18343-1.349c1.3781-0.63433 1.8613-0.86013 1.6534-1.405-0.23358-0.6121-0.76702-0.46768-2.11-0.31741a12.074 12.041 30 0 0-0.53336-1.2813c1.2101-0.93606 1.6338-1.2639 1.3074-1.7497-0.37566-0.55917-0.8652-0.27296-2.2232 0.19903a12.074 12.041 30 0 0-0.82476-1.068c0.88697-1.2764 1.1954-1.7149 0.73498-2.0827-0.51631-0.41253-0.9003-0.01092-2.0033 0.81437a12.074 12.041 30 0 0-1.0992-0.83122c0.55778-1.4281 0.7527-1.927 0.22375-2.1764h-1e-3c-0.60135-0.28167-0.88004 0.20476-1.7744 1.2787a12.074 12.041 30 0 0-1.2501-0.50734c0.20032-1.5229 0.27047-2.0548-0.30441-2.1698-0.66097-0.13236-0.80638 0.41714-1.4388 1.7107a12.074 12.041 30 0 0-1.3282-0.17693c-0.25999-1.5331-0.34633-2.0629-0.93273-2.0033zm2.9686 4.2369c0.42178-0.05777 1.0914 0.20514 1.7926 0.5945 1.1686 0.64886 2.4233 1.6491 2.7578 2.1009 1.6014 1.7144 2.7699 3.8411 2.8372 7.2586 0.0125 0.63651-0.0472 1.2132-0.19642 1.6846-0.16234 0.4926-0.49124 0.98468-1.0082 1.2241-0.42862 0.18025-0.90475 0.30838-1.3477 0.10405-1.3799-0.63315-3.1154-1.7271-4.5075-2.551-0.23418-0.13871-0.40448-0.36386-0.42928-0.47742-0.26401-0.50116-0.21389-1.2323-0.58409-1.6599-0.54125-0.76895-1.0071-0.65432-1.1279-1.4076-0.0567-1.6748-0.0684-3.3685-0.0246-5.0188 2e-3 -1.1451 0.82576-1.8184 1.8382-1.8524zm-5.9359 0.05724c0.35075-0.01946 0.7172 0.03794 1.0394 0.21074 0.0614 0.03292 0.12046 0.07024 0.17821 0.11188 0.36738 0.28499 0.71253 0.63646 0.7519 1.1226 0.12552 1.5131 0.0242 3.5617-0.0106 5.1788-6e-3 0.27213-0.11876 0.53148-0.20554 0.60881-0.30709 0.47597-0.96816 0.79053-1.1591 1.323-0.40433 0.84894-0.0756 1.198-0.67257 1.6729-1.4315 0.87132-2.9025 1.7129-4.3618 2.4847-0.999 0.55984-1.9894 0.17333-2.5159-0.69209-0.68623-0.90442-0.25154-4.4669 0.11578-5.2881 0.70787-2.2366 1.9868-4.2989 4.9316-6.0347 0.54843-0.3233 1.0809-0.55301 1.5649-0.65434 0.11131-0.02192 0.22651-0.03776 0.34342-0.04423zm3.0402 8.4268a1.2768 1.2768 0 0 1 1.2761 1.2761 1.2768 1.2768 0 0 1-1.2761 1.2775 1.2768 1.2768 0 0 1-1.2775-1.2775 1.2768 1.2768 0 0 1 1.2775-1.2761zm1.548 3.6541c0.12741-0.0049 0.26877 0.01852 0.4462 0.08844 0.73511 0.40204 1.4686 0.81644 2.1933 1.2397 0.72466 0.42332 1.4396 0.8554 2.1386 1.2944 0.98435 0.58517 1.1445 1.6364 0.65824 2.525-0.44011 1.0465-3.7416 2.452-4.6363 2.5445-2.2909 0.50527-4.7163 0.42828-7.6922-1.254-0.55422-0.31329-1.0205-0.65919-1.3503-1.0277-0.3413-0.39056-0.59704-0.92394-0.53987-1.4908 0.06312-0.46065 0.19574-0.93526 0.5971-1.2124 1.2476-0.86526 3.0728-1.8011 4.4906-2.5796 0.23861-0.131 0.5193-0.16267 0.62962-0.12616 0.56575 0.02797 1.1697 0.4417 1.7263 0.34084 0.70301-0.05575 0.95631-0.32773 1.3386-0.34213z" fill="#fff" image-rendering="optimizeSpeed" stroke-width=".64024"/>
 </g>
</svg>
