<?xml version="1.0" encoding="UTF-8"?>
<svg width="64" height="64" version="1.1" viewBox="0 0 64 64" xmlns="http://www.w3.org/2000/svg" xmlns:xlink="http://www.w3.org/1999/xlink">
 <defs>
  <filter id="filter1057" x="-.027" y="-.027" width="1.054" height="1.054" color-interpolation-filters="sRGB">
   <feGaussianBlur stdDeviation="0.61875"/>
  </filter>
  <linearGradient id="linearGradient980-7" x1="-17.007" x2="-2.455" y1="15.742" y2="1.1906" gradientTransform="matrix(3.7796 0 0 3.7796 152.84 5.6602)" gradientUnits="userSpaceOnUse">
   <stop stop-color="#ff8228" offset="0"/>
   <stop stop-color="#ff7346" offset=".49173"/>
   <stop stop-color="#ff8c55" offset="1"/>
  </linearGradient>
  <linearGradient id="h-5" x1="499.95" x2="499.95" y1="2.0078" y2="1026" gradientTransform="matrix(.99609 0 0 .99609 2 2)" gradientUnits="userSpaceOnUse">
   <stop stop-color="#ff981f" offset="0"/>
   <stop stop-color="#e24305" offset="1"/>
  </linearGradient>
 </defs>
 <g transform="translate(-84.062 -5.6602)">
  <rect x="88.562" y="10.16" width="55" height="55" ry="15" fill="#141414" filter="url(#filter1057)" opacity=".3" stroke-linecap="round" stroke-width="2.7444"/>
  <rect x="88.562" y="10.16" width="55" height="55" ry="14.895" fill="url(#linearGradient980-7)"/>
  <path d="m128.56 15.902a12.5 12.5 0 0 1 0.0102 0.49996 12.5 12.5 0 0 1-12.5 12.5 12.5 12.5 0 0 1-12.5-12.5 12.5 12.5 0 0 1 0.01-0.50068" fill="none" stroke="#fff" stroke-dashoffset=".42096" stroke-width="2"/>
  <text x="101.91245" y="47.678356" fill="#ffffff" font-family="sans-serif" font-size="10.078px" letter-spacing="0px" stroke-width=".25196" word-spacing="0px" style="line-height:1.25" xml:space="preserve"><tspan x="101.91245" y="47.678356" fill="#ffffff" stroke-width=".25196">SHOP</tspan></text>
 </g>
 <g transform="translate(-58.029 9.0322)">
  <g transform="matrix(.031373 0 0 .031373 89.966 22.905)" image-rendering="optimizeSpeed">
   <path d="m984.88 316.75q-9.2923-22.529-20.962-44.139c-4.376-8.1578-9.0222-16.261-13.938-24.203-21.124-34.252-46.894-66.614-77.311-97.029-99.568-99.568-219.83-149.38-360.67-149.38-140.85 0-261.05 49.811-360.61 149.38-99.569 99.572-149.38 219.78-149.38 360.61s49.811 261.11 149.38 360.67c99.568 99.568 219.78 149.32 360.61 149.32 140.84 0 261.11-49.758 360.67-149.32 54.836-54.89 94.598-116.04 119.23-183.42 20.043-54.943 30.092-113.99 30.092-177.25 0-48.515-5.8888-94.598-17.72-138.25-1.3507-4.9163-2.7553-9.8326-4.2139-14.695-4.4302-14.371-9.5085-28.471-15.181-42.302z" fill="url(#h-5)" stroke-width="42.388"/>
  </g>
  <path d="m111.31 28.968a2.1428 2.1428 0 0 0-2.1428 2.1428 2.1428 2.1428 0 0 0 2.1428 2.1428 2.1428 2.1428 0 0 0 2.1428-2.1428 2.1428 2.1428 0 0 0-2.1428-2.1428zm-5 1.4286c-1.1348 0.0016-2.2194 0.249-3.2254 0.66128l1.4482 2.5084c0.56274-0.18531 1.1526-0.3125 1.7773-0.3125 3.1558 0 5.7144 2.5584 5.7144 5.7144h2.8572c-4.1e-4 -2.0045-0.70334-3.9455-1.9866-5.4853-0.45457 0.30573-0.99981 0.48545-1.5849 0.48545-1.5694 0-2.8572-1.2876-2.8572-2.8572 0-0.14574 0.023-0.2868 0.0448-0.42687-0.71374-0.18966-1.449-0.28621-2.1874-0.28739zm-4.5008 1.3142c-1.686 1.0489-3.0131 2.6553-3.6496 4.6398 1.009 0.44244 1.7216 1.4511 1.7216 2.6171 0 1.1691-0.71661 2.1794-1.7298 2.62 0.51251 1.5966 1.4793 2.9434 2.7093 3.9622l1.4481-2.5084c-1.0555-1.0368-1.7131-2.4772-1.7131-4.0737 0-2.0189 1.0534-3.7826 2.634-4.7993l-1.4202-2.4581zm-4.785 5.1146a2.1428 2.1428 0 0 0-2.1428 2.1428 2.1428 2.1428 0 0 0 2.1428 2.1428 2.1428 2.1428 0 0 0 2.1428-2.1428 2.1428 2.1428 0 0 0-2.1428-2.1428zm14.796 3.5714c-0.63724 2.4604-2.851 4.2857-5.5107 4.2857-1.0417 0-2.005-0.29991-2.846-0.78684l-1.4286 2.4748c1.2734 0.73653 2.7311 1.1686 4.2747 1.1691 0.73781-0.0032 1.4722-0.10167 2.1847-0.29296-0.0212-0.1383-0.0416-0.27754-0.0416-0.42131 0-1.5694 1.2876-2.8572 2.8572-2.8572 0.58281 0 1.1257 0.17908 1.5793 0.48273 0.97615-1.169 1.6137-2.5694 1.8666-4.054h-2.9353zm-0.51062 4.2857a2.1428 2.1428 0 0 0-2.1428 2.1428 2.1428 2.1428 0 0 0 2.1428 2.1428 2.1428 2.1428 0 0 0 2.1428-2.1428 2.1428 2.1428 0 0 0-2.1428-2.1428z" fill="#fff" stroke-width="1.4286" style="paint-order:normal"/>
 </g>
</svg>
