<?xml version="1.0" encoding="UTF-8"?>
<svg width="64" height="64" version="1.1" viewBox="0 0 64 64" xmlns="http://www.w3.org/2000/svg" xmlns:xlink="http://www.w3.org/1999/xlink">
 <defs>
  <filter id="filter1057" x="-.027" y="-.027" width="1.054" height="1.054" color-interpolation-filters="sRGB">
   <feGaussianBlur stdDeviation="0.61875"/>
  </filter>
  <linearGradient id="linearGradient980-7" x1="-17.007" x2="-2.455" y1="15.742" y2="1.1906" gradientTransform="matrix(3.7796 0 0 3.7796 152.84 5.6602)" gradientUnits="userSpaceOnUse">
   <stop stop-color="#ff8228" offset="0"/>
   <stop stop-color="#ff7346" offset=".49173"/>
   <stop stop-color="#ff8c55" offset="1"/>
  </linearGradient>
  <linearGradient id="h" x1="499.95" x2="499.95" y1="2.0078" y2="1026" gradientTransform="matrix(.03125 0 0 .03125 146.76 35.66)" gradientUnits="userSpaceOnUse">
   <stop stop-color="#fc5fb5" offset="0"/>
   <stop stop-color="#ff1d52" offset="1"/>
  </linearGradient>
 </defs>
 <g transform="translate(-84.062 -5.6602)">
  <rect x="88.562" y="10.16" width="55" height="55" ry="15" fill="#141414" filter="url(#filter1057)" opacity=".3" stroke-linecap="round" stroke-width="2.7444"/>
  <rect x="88.562" y="10.16" width="55" height="55" ry="14.895" fill="url(#linearGradient980-7)"/>
  <path d="m128.56 15.902a12.5 12.5 0 0 1 0.0102 0.49996 12.5 12.5 0 0 1-12.5 12.5 12.5 12.5 0 0 1-12.5-12.5 12.5 12.5 0 0 1 0.01-0.50068" fill="none" stroke="#fff" stroke-dashoffset=".42096" stroke-width="2"/>
  <text x="101.91245" y="47.678356" fill="#ffffff" font-family="sans-serif" font-size="10.078px" letter-spacing="0px" stroke-width=".25196" word-spacing="0px" style="line-height:1.25" xml:space="preserve"><tspan x="101.91245" y="47.678356" fill="#ffffff" stroke-width=".25196">SHOP</tspan></text>
 </g>
 <g transform="translate(-114.76 -3.6598)">
  <path id="path" d="m177.6 45.535q-0.29152-0.7068-0.65764-1.3848c-0.13729-0.25594-0.28305-0.51016-0.43727-0.75932-0.66273-1.0746-1.4712-2.0899-2.4255-3.0441-3.1237-3.1237-6.8967-4.6865-11.315-4.6865-4.4189 0-8.1899 1.5627-11.313 4.6865-3.1238 3.1239-4.6865 6.8951-4.6865 11.313 0 4.4183 1.5627 8.1918 4.6865 11.315 3.1237 3.1237 6.8952 4.6846 11.313 4.6846 4.4186 0 8.1918-1.5611 11.315-4.6846 1.7204-1.7221 2.9678-3.6405 3.7406-5.7544 0.62881-1.7237 0.94407-3.5762 0.94407-5.5609 0-1.5221-0.18474-2.9678-0.55592-4.3373-0.0424-0.15424-0.0864-0.30849-0.13221-0.46102-0.13898-0.45086-0.29833-0.89322-0.47627-1.3271z" fill="url(#h)" image-rendering="optimizeSpeed" stroke-width="1.3298"/>
  <path d="m162.57 41.046c-1.3862 0.04983-2.6518 0.71034-3.8011 1.4555-0.6908 0.35842-1.2502 0.93175-1.8677 1.5531-0.65046 0.83499-0.97974 1.8795-1.6622 2.678-0.42415 1.0912-0.77028 2.2202-0.64801 3.4098-0.0441 1.8066-0.0144 3.6592 0.67175 5.3561 1.1373 3.0336 3.5773 5.6739 6.6593 6.5758 0.50272 0.15357 1.9696 0.2693 1.8888 0.15179-1.0039-0.0378-2.2598-0.64302-2.7212-1.2685 0.18604 0.30036-1.0772-0.23241-0.99048-0.68305-0.73026-0.51535-1.3822-1.0802-1.8545-1.8431-0.57922-0.67194-0.69503-1.2159-0.9088-1.8323-0.4178-0.50775-0.37154-0.89584-0.0659-0.78608-0.43571-0.81122-1.4448-1.1823-1.4014-2.2009-0.061-0.96251-0.43545-1.8576-0.2371-2.8515 0.11959-0.84758 0.0587-1.7531 0.50314-2.5072 0.31295-1.0439 0.81799-1.9637 1.6701-2.6564 0.29424-0.47884 1.3054-0.62772 1.4225-0.95681-0.43186 0.0014 0.65614-0.65376 1.0194-0.63426 0.32097-0.10916 0.80585-0.2086 0.29504-0.19246 0.40619-0.28971 1.7846-0.9666 1.8281-0.6451-0.64117 0.21007 0.78317-0.25312 1.1116-0.16808 1.6047-0.05087 3.2312 0.61532 4.2517 1.9164 1.2991 1.4795 1.6713 3.6306 1.2987 5.5458 0.417-0.32312-0.2408 1.2043-0.51898 1.4663-0.18002 0.55152-1.264 1.6679-1.4673 1.3526 0.16365-0.10458-0.75679 0.64881-1.138 0.66136-1.7224 0.61608-3.6661-0.50828-4.2808-2.2173-0.22032-0.91187-0.4771-1.5338-0.14756-2.4557 0.59162-1.9217 3.1846-2.727 4.6916-1.4257-1.0303-1.404-3.3289-1.4122-4.3492 0.0083-0.66853 0.83499-1.1926 1.8709-1.0642 2.9923 0.0231 1.4795 1.144 2.597 2.2259 3.4152-0.32965 0.57922-1.793-1.4948-0.91935-0.29001 0.49007 0.75199-1.5415-1.6388-0.64011-0.41742 1.0075 1.1113 2.5648 1.9317 4.0593 1.5667-0.77818-0.0745-1.7558 0.04982-2.3708-0.63157 0.59578-0.04615 1.9456 0.48719 2.8265 0.13554 1.1332-0.21842 2.1537-0.87543 2.9056-1.7646 0.3198-0.12692-0.066 0.60368 0.18177-0.07861-0.02-0.52064 0.4077-0.73687 0.52158-0.59359 0.1344-0.49328 0.62787-1.8841 0.6612-1.7401-5.9e-4 0.4511-0.11716 0.79413 0.0261 0.16532-0.10318-0.38336 0.064-0.92532 0.13694-0.31439 0.27266-0.96047 0.1564-1.8395-0.15542-2.7349 0.56101 0.52075 0.0283-0.96871-0.28188-1.1411 0.13565-0.83321 0.70036-0.0064 0.86137 0.57193-0.0906-0.48757-0.0136-0.93171-0.11063-1.3038-0.58863-1.4264-1.6863-2.6143-2.9951-3.3691 0.57722 0.79504-0.61891-0.6603-1.0142-0.25478-0.98893-0.17825-1.8802-0.9113-2.8924-0.68033-0.2905 0.17593-1.3118 0.05749-0.461-0.0813-0.34481-0.06982-1.7804 0.1604-0.75339-0.25749zm8.2267 5.9468c6e-3 0.03024 0.0117 0.06112 0.0185 0.09215-6e-3 -0.03099-9e-3 -0.05911-0.0185-0.09215zm0.0185 0.09215c0.0147 0.07397 0.0527 0.16479 0.0472 0.21956 0.099 0.5197 0.35887 1.1238 0.12907 0.26563-0.0878-0.16619-0.13999-0.32694-0.17647-0.48519zm-7.7316-5.9143c0.18116 0.03303 0.39569 0.05791 0.36348 0.10569 0.20501-0.04773 0.24674-0.08608-0.36348-0.10569zm-8.1054 4.2989c-0.28846 0.64276 0.21185 0.49468 0.13433 0.05692-0.0414 0.03024-0.14446 0.01852-0.13433-0.05692zm-0.37142 1.6236c-0.3678 0.80097-0.0546 0.8012 0 0zm12.257 2.3663c-0.36764 0.53436 0.34976 0.67262 0 0zm-0.22126 1.3173c-0.0219 0.13932-0.0745 0.27062-0.12646 0.40117 0.0888-0.11724 0.15334-0.2544 0.12646-0.40117zm-0.12646 0.40117c-0.23116 0.30524-0.64877 0.42502-0.20285-0.14366-0.45439 0.11305-0.11351 1.1054 0.1607 0.27648 0.02-0.04195 0.0253-0.08954 0.042-0.13282zm-1.275 0.95953c-0.43314 0.02797-1.3771 0.0745-0.42675 0.29814 0.19385 0.01928 0.2795-0.21559 0.42675-0.29814zm-4.3465 0.04879c0.12873 0.54721 0.54835 0.90639 0.0896 0.18161zm-0.26873 0.48791c-0.25236 0.46073 0.98667 1.4988 0.35033 0.63426-0.12499-0.20614-0.2425-0.4181-0.35033-0.63426z" fill="#fff" stroke-width="1.2091"/>
 </g>
</svg>
