<?xml version="1.0" encoding="UTF-8"?>
<svg width="64" height="64" version="1.1" viewBox="0 0 64 64" xmlns="http://www.w3.org/2000/svg" xmlns:xlink="http://www.w3.org/1999/xlink">
 <defs>
  <filter id="filter1057-2" x="-.027" y="-.027" width="1.054" height="1.054" color-interpolation-filters="sRGB">
   <feGaussianBlur stdDeviation="0.61875"/>
  </filter>
  <linearGradient id="linearGradient1053" x1="-127" x2="-72" y1="60" y2="5" gradientTransform="translate(86.36 12.801)" gradientUnits="userSpaceOnUse">
   <stop stop-color="#1d2123" offset="0"/>
   <stop stop-color="#33393e" stop-opacity=".99608" offset="1"/>
  </linearGradient>
  <linearGradient id="linearGradient1948" x1="404.23" x2="404.23" y1="537.38" y2="507.84" gradientTransform="matrix(1.2144 0 0 1.2144 -511.46 -591.03)" gradientUnits="userSpaceOnUse">
   <stop stop-color="#d8d8d8" offset="0"/>
   <stop stop-color="#fff" offset="1"/>
  </linearGradient>
 </defs>
 <g transform="translate(45.14 -13.311)">
  <rect x="-40.64" y="17.811" width="55" height="55" ry="15" fill="#141414" filter="url(#filter1057-2)" opacity=".3" stroke-linecap="round" stroke-width="2.7444"/>
  <rect x="-40.64" y="17.811" width="55" height="55" ry="15" fill="url(#linearGradient1053)" stroke-linecap="round" stroke-width="2.7444"/>
  <circle cx="-13.14" cy="45.311" r="30.001" fill-opacity="0" stroke-width="1.5715"/>
  <path d="m-40.644 51.802 11.872 4.1204c0.70532 3.2418 3.5947 5.6798 7.0428 5.6798 3.7349 0 6.8184-2.8635 7.1753-6.5071l9.2489-6.767c5.3331 0 9.6626-4.315 9.6626-9.6466 0-5.3346-4.329-9.6626-9.6626-9.6626-5.3043 0-9.6091 4.2792-9.6572 9.5724l-6.0192 8.6232c-0.24514-0.02453-0.49606-0.03753-0.74776-0.03753-1.3449 0-2.6009 0.36781-3.6805 1.013l-15.233-5.3838m35.337-10.605c3.5733 0 6.4806 2.9072 6.4806 6.4806-1.2e-5 3.5735-2.9073 6.4647-6.4806 6.4647s-6.4753-2.8912-6.4753-6.4647c0-3.5734 2.902-6.4806 6.4753-6.4806zm0.02672 1.2727c-2.8557 0-5.1707 2.3202-5.1707 5.176 0 2.8557 2.315 5.1759 5.1707 5.1759 2.8558 0 5.176-2.3202 5.176-5.1759 0-2.8558-2.3202-5.176-5.176-5.176zm-16.451 15.613c2.9397 0 5.3033 2.3636 5.3033 5.3034-2.5e-5 2.9396-2.3636 5.3032-5.3033 5.3032-2.0448 0-3.8078-1.1412-4.6934-2.8266 0.87208 0.35193 1.7435 0.70092 2.6145 1.0553 2.1614 0.86858 4.6254-0.17684 5.4942-2.3387 0.86879-2.1614-0.18753-4.6151-2.3494-5.4835l-2.2115-0.88567c0.36803-0.07954 0.75259-0.12746 1.1455-0.12746z" fill="url(#linearGradient1948)" stroke-width="1.2144"/>
 </g>
</svg>
