<svg id="Sublime-Text" width="64" height="64" enable-background="new 0 0 1024 1024" image-rendering="optimizeSpeed" version="1.1" viewBox="0 0 64 64" xmlns="http://www.w3.org/2000/svg" xmlns:xlink="http://www.w3.org/1999/xlink">
 <defs>
  <linearGradient id="linearGradient1022">
   <stop offset="0"/>
   <stop stop-opacity="0" offset="1"/>
  </linearGradient>
  <linearGradient id="sublime-icon-b" x1="116.53" x2="211.49" y1="400.49" y2="324.75" gradientTransform="matrix(.11943 0 0 .079621 10.946 9.5369)" gradientUnits="userSpaceOnUse">
   <stop stop-color="#FF9700" offset="0"/>
   <stop stop-color="#F48E00" offset=".57396"/>
   <stop stop-color="#CE6E00" offset="1"/>
  </linearGradient>
  <filter id="c" x="-.041377" y="-.03186" width="1.0828" height="1.0637" color-interpolation-filters="sRGB">
   <feGaussianBlur stdDeviation="6.7714073"/>
  </filter>
  <linearGradient id="linearGradient862-3" x1="7.9373" x2="7.9373" y1="15.081" y2="1.852" gradientTransform="matrix(3.7795 0 0 3.7795 .00014324 .031541)" gradientUnits="userSpaceOnUse">
   <stop stop-color="#1a1a1a" offset="0"/>
   <stop stop-color="#4d4d4d" offset="1"/>
  </linearGradient>
  <linearGradient id="linearGradient1024" x1="20.308" x2="45.273" y1="31.404" y2="31.404" gradientUnits="userSpaceOnUse" xlink:href="#linearGradient1022"/>
  <linearGradient id="linearGradient1038" x1="287.63" x2="79.111" y1="340.31" y2="340.31" gradientTransform="matrix(.11943 0 0 .079621 10.946 9.4682)" gradientUnits="userSpaceOnUse" xlink:href="#linearGradient1022"/>
  <linearGradient id="linearGradient1046" x1="20.308" x2="45.272" y1="23.514" y2="23.514" gradientUnits="userSpaceOnUse">
   <stop stop-color="#ff9800" offset="0"/>
   <stop stop-color="#ffc522" offset="1"/>
  </linearGradient>
 </defs>
 <g transform="scale(3.7796)" shape-rendering="auto">
  <path d="m4.3693 0.52916c-2.1142 0-3.8402 1.7835-3.8402 3.9682v8.4675c0 2.1846 1.726 3.9682 3.8402 3.9682h8.1944c2.1142 0 3.8402-1.7835 3.8402-3.9682v-8.4675c0-2.1846-1.726-3.9682-3.8402-3.9682zm0.25704 0.52089h7.6808c1.8443 0 3.3291 1.5342 3.3291 3.44v7.9368c0 1.9058-1.4847 3.44-3.3291 3.44h-7.6808c-1.8443 0-3.3291-1.5342-3.3291-3.44v-7.9368c0-1.9058 1.4847-3.44 3.3291-3.44z" color="#000000" color-rendering="auto" dominant-baseline="auto" enable-background="accumulate" image-rendering="auto" opacity=".01" solid-color="#000000" stop-color="#000000" style="font-feature-settings:normal;font-variant-alternates:normal;font-variant-caps:normal;font-variant-east-asian:normal;font-variant-ligatures:normal;font-variant-numeric:normal;font-variant-position:normal;font-variation-settings:normal;inline-size:0;isolation:auto;mix-blend-mode:normal;shape-margin:0;shape-padding:0;text-decoration-color:#000000;text-decoration-line:none;text-decoration-style:solid;text-indent:0;text-orientation:mixed;text-transform:none;white-space:normal"/>
  <path d="m4.3587 0.79373c-1.9668 0-3.5639 1.6528-3.5639 3.6876v8.4996c0 2.0348 1.5971 3.6876 3.5639 3.6876h8.2162c1.9668 0 3.5644-1.6528 3.5644-3.6876v-8.4996c0-2.0348-1.5976-3.6876-3.5644-3.6876zm0.27222 0.25631h7.6718c1.8422 0 3.3251 1.5342 3.3251 3.44v7.9368c0 1.9058-1.483 3.44-3.3251 3.44h-7.6718c-1.8422 0-3.3251-1.5342-3.3251-3.44v-7.9368c0-1.9058 1.483-3.44 3.3251-3.44z" color="#000000" color-rendering="auto" dominant-baseline="auto" enable-background="accumulate" image-rendering="auto" opacity=".01" solid-color="#000000" stop-color="#000000" style="font-feature-settings:normal;font-variant-alternates:normal;font-variant-caps:normal;font-variant-east-asian:normal;font-variant-ligatures:normal;font-variant-numeric:normal;font-variant-position:normal;font-variation-settings:normal;inline-size:0;isolation:auto;mix-blend-mode:normal;shape-margin:0;shape-padding:0;text-decoration-color:#000000;text-decoration-line:none;text-decoration-style:solid;text-indent:0;text-orientation:mixed;text-transform:none;white-space:normal"/>
  <path d="m4.3097 1.0583c-1.8657 0-3.3751 1.5383-3.3751 3.439v8.4675c0 1.9007 1.57 3.439 3.4357 3.439h8.1996c1.8657 0 3.4274-1.5383 3.4274-3.439v-8.4675c0-1.9007-1.51-3.439-3.3756-3.439h-0.09688c1.794 0.086515 3.2138 1.5819 3.2138 3.4318v7.9368c0 1.9058-1.5059 3.44-3.3766 3.44h-7.7905c-1.8707 0-3.3766-1.5342-3.3766-3.44v-7.9368c0-1.8498 1.4199-3.3451 3.2138-3.4318z" color="#000000" color-rendering="auto" dominant-baseline="auto" enable-background="accumulate" image-rendering="auto" opacity=".03" solid-color="#000000" stop-color="#000000" style="font-feature-settings:normal;font-variant-alternates:normal;font-variant-caps:normal;font-variant-east-asian:normal;font-variant-ligatures:normal;font-variant-numeric:normal;font-variant-position:normal;font-variation-settings:normal;inline-size:0;isolation:auto;mix-blend-mode:normal;shape-margin:0;shape-padding:0;text-decoration-color:#000000;text-decoration-line:none;text-decoration-style:solid;text-indent:0;text-orientation:mixed;text-transform:none;white-space:normal"/>
  <path transform="scale(.26458)" d="m4 46.969v2.0312c0 6.6479 5.8957 12 12.544 12h30.961c6.6479 0 12.495-5.3521 12.495-12v-1.9922c-0.02117 7.1849-5.81 12.963-13 12.963h-29.998c-7.2032 0-13.002-5.7987-13.002-13.002z" color="#000000" color-rendering="auto" dominant-baseline="auto" enable-background="accumulate" image-rendering="auto" opacity=".03" solid-color="#000000" stop-color="#000000" style="font-feature-settings:normal;font-variant-alternates:normal;font-variant-caps:normal;font-variant-east-asian:normal;font-variant-ligatures:normal;font-variant-numeric:normal;font-variant-position:normal;font-variation-settings:normal;inline-size:0;isolation:auto;mix-blend-mode:normal;shape-margin:0;shape-padding:0;text-decoration-color:#000000;text-decoration-line:none;text-decoration-style:solid;text-indent:0;text-orientation:mixed;text-transform:none;white-space:normal"/>
  <path d="m1.0583 11.906v0.59234c0 1.9386 1.5729 3.4993 3.3318 3.4993h8.1603c1.7589 0 3.3243-1.5608 3.3243-3.4993v-0.58095c-0.0056 2.0952-1.5372 3.7801-3.4395 3.7801h-7.9368c-1.9058 0-3.44-1.691-3.44-3.7915z" color="#000000" color-rendering="auto" dominant-baseline="auto" enable-background="accumulate" image-rendering="auto" opacity=".05" solid-color="#000000" stop-color="#000000" style="font-feature-settings:normal;font-variant-alternates:normal;font-variant-caps:normal;font-variant-east-asian:normal;font-variant-ligatures:normal;font-variant-numeric:normal;font-variant-position:normal;font-variation-settings:normal;inline-size:0;isolation:auto;mix-blend-mode:normal;shape-margin:0;shape-padding:0;text-decoration-color:#000000;text-decoration-line:none;text-decoration-style:solid;text-indent:0;text-orientation:mixed;text-transform:none;white-space:normal"/>
 </g>
 <rect x="4" y="4" width="56" height="56" rx="13.002" ry="13.002" fill="url(#linearGradient862-3)" stroke-width="3.7795"/>
 <path transform="matrix(.06356 0 0 .06356 .25416 -.42237)" d="m708.28 512.08c0-5.9816-4.4192-9.4308-9.8424-7.7171l-373.08 118.34c-5.434 1.7246-9.8424 7.979-9.8424 13.95v120.95c0 5.9816 4.4083 9.4417 9.8424 7.7171l373.08-118.33c5.4231-1.7246 9.8424-7.979 9.8424-13.961z" filter="url(#c)" opacity=".2" stroke-width="24.045"/>
 <path d="m45.272 31.49c0-0.38019-0.28089-0.59942-0.62558-0.49049l-23.713 7.5218c-0.34538 0.10962-0.62558 0.50715-0.62558 0.88663v7.6877c0 0.38019 0.28019 0.60011 0.62558 0.4905l23.713-7.5212c0.34469-0.10962 0.62558-0.50715 0.62558-0.88733z" fill="url(#sublime-icon-b)" stroke-width="1.5283"/>
 <path transform="matrix(.06356 0 0 .06356 .25416 -.42237)" d="m315.52 508.9c0 5.9812 4.4077 12.235 9.841 13.96l373.09 118.35c5.4333 1.7245 9.841-1.7354 9.841-7.7057v-120.96c0-5.9703-4.4077-12.224-9.841-13.949l-373.09-118.35c-5.4333-1.7245-9.841 1.7245-9.841 7.7057z" filter="url(#c)" opacity=".2" stroke-width="24.045"/>
 <path d="m45.272 31.421c0-0.38019-0.28089-0.59942-0.62558-0.49049l-23.713 7.5218c-0.34538 0.10962-0.62558 0.50715-0.62558 0.88663v7.6877c0 0.38019 0.28019 0.60011 0.62558 0.4905l23.713-7.5212c0.34469-0.10962 0.62558-0.50715 0.62558-0.88733z" fill="url(#linearGradient1038)" opacity=".15" stroke-width="1.5283"/>
 <path d="m20.308 31.287c0 0.38016 0.28015 0.77764 0.62549 0.88726l23.713 7.5218c0.34533 0.10961 0.62549-0.1103 0.62549-0.48977v-7.6877c0-0.37947-0.28015-0.777-0.62549-0.88656l-23.713-7.5218c-0.34533-0.10961-0.62549 0.10961-0.62549 0.48977z" fill="#ff9800" stroke-width="1.5283"/>
 <path transform="matrix(.06356 0 0 .06356 .25416 -.42237)" d="m708.28 263.84c0-5.9816-4.4192-9.4417-9.8424-7.7171l-373.08 118.33c-5.434 1.7246-9.8424 7.9791-9.8424 13.961v120.95c0 5.9816 4.4083 9.4308 9.8424 7.7171l373.08-118.34c5.4231-1.7246 9.8424-7.979 9.8424-13.95z" filter="url(#c)" opacity=".2" stroke-width="24.045"/>
 <path d="m20.308 31.287c0 0.38016 0.28015 0.77764 0.62549 0.88726l23.713 7.5218c0.34533 0.10961 0.62549-0.1103 0.62549-0.48977v-7.6877c0-0.37947-0.28015-0.777-0.62549-0.88656l-23.713-7.5218c-0.34533-0.10961-0.62549 0.10961-0.62549 0.48977z" fill="url(#linearGradient1024)" opacity=".15" stroke-width="1.5283"/>
 <path d="m45.272 15.712c0-0.38019-0.28089-0.60011-0.62558-0.4905l-23.713 7.5212c-0.34538 0.10962-0.62558 0.50715-0.62558 0.88733v7.6877c0 0.38019 0.28019 0.59942 0.62558 0.4905l23.713-7.5218c0.34469-0.10962 0.62558-0.50715 0.62558-0.88663z" fill="url(#linearGradient1046)" stroke-width="1.5283"/>
</svg>
