<?xml version="1.0" encoding="UTF-8" standalone="no"?>
<svg
   xmlns:dc="http://purl.org/dc/elements/1.1/"
   xmlns:cc="http://creativecommons.org/ns#"
   xmlns:rdf="http://www.w3.org/1999/02/22-rdf-syntax-ns#"
   xmlns:svg="http://www.w3.org/2000/svg"
   xmlns="http://www.w3.org/2000/svg"
   xmlns:xlink="http://www.w3.org/1999/xlink"
   xmlns:sodipodi="http://sodipodi.sourceforge.net/DTD/sodipodi-0.dtd"
   xmlns:inkscape="http://www.inkscape.org/namespaces/inkscape"
   inkscape:version="1.0 (4035a4fb49, 2020-05-01)"
   height="64"
   width="64"
   sodipodi:docname="supertux.svg"
   id="svg39"
   viewBox="0 0 64 64"
   version="1.1">
  <metadata
     id="metadata43">
    <rdf:RDF>
      <cc:Work
         rdf:about="">
        <dc:format>image/svg+xml</dc:format>
        <dc:type
           rdf:resource="http://purl.org/dc/dcmitype/StillImage" />
        <dc:title></dc:title>
      </cc:Work>
    </rdf:RDF>
  </metadata>
  <sodipodi:namedview
     inkscape:current-layer="svg39"
     inkscape:window-maximized="1"
     inkscape:window-y="0"
     inkscape:window-x="0"
     inkscape:cy="-19.092311"
     inkscape:cx="-16.625722"
     inkscape:zoom="3.0052038"
     showgrid="false"
     id="namedview41"
     inkscape:window-height="985"
     inkscape:window-width="1920"
     inkscape:pageshadow="2"
     inkscape:pageopacity="0"
     guidetolerance="10"
     gridtolerance="10"
     objecttolerance="10"
     borderopacity="1"
     bordercolor="#666666"
     pagecolor="#ffffff" />
  <defs
     id="defs7">
    <linearGradient
       gradientUnits="userSpaceOnUse"
       gradientTransform="rotate(-90,-20.115517,68.115517)"
       x2="47"
       x1="1"
       id="bg">
      <stop
         id="stop2"
         offset="0"
         style="stop-color:#c3cfdd" />
      <stop
         id="stop4"
         offset="1"
         style="stop-color:#d0d9e4" />
    </linearGradient>
    <filter
       inkscape:collect="always"
       style="color-interpolation-filters:sRGB"
       id="filter1057"
       x="-0.027000001"
       width="1.054"
       y="-0.027000001"
       height="1.054">
      <feGaussianBlur
         inkscape:collect="always"
         stdDeviation="0.61875"
         id="feGaussianBlur1059" />
    </filter>
    <linearGradient
       inkscape:collect="always"
       xlink:href="#linearGradient1051"
       id="linearGradient1053"
       x1="-127"
       y1="60"
       x2="-72"
       y2="5"
       gradientUnits="userSpaceOnUse"
       gradientTransform="translate(131.5,-0.5099982)" />
    <linearGradient
       inkscape:collect="always"
       id="linearGradient1051">
      <stop
         style="stop-color:#dee0e2;stop-opacity:1"
         offset="0"
         id="stop1047" />
      <stop
         style="stop-color:#f1f3f5;stop-opacity:0.99607843"
         offset="1"
         id="stop1049" />
    </linearGradient>
  </defs>
  <g
     id="g21"
     transform="translate(1,1)">
    <g
       id="g19"
       style="opacity:0.1" />
  </g>
  <rect
     ry="15"
     y="4.4999995"
     x="4.4999995"
     height="55"
     width="55"
     id="rect1055"
     style="opacity:0.3;fill:#141414;fill-opacity:1;stroke-width:2.74436;stroke-linecap:round;filter:url(#filter1057)" />
  <rect
     style="fill:url(#linearGradient1053);fill-opacity:1;stroke-width:2.74436;stroke-linecap:round"
     id="rect1045"
     width="54.999996"
     height="54.999996"
     x="4.5000019"
     y="4.5000019"
     ry="14.999999" />
  <g
     transform="matrix(1.1999786,0,0,1.1999786,108.47515,2.600425)"
     id="g896">
    <path
       d="m -63.218033,13 c -5,0 -7.3973,4.7233 -7.2539,8.1406 -0.008,0.566 0.02338,1.1212 0.10938,1.6562 0,0.004 0.0039,0.0076 0.0039,0.01563 -0.523,1.176 -0.84809,2.4769 -0.87109,3.8789 -0.04746,2.7481 1.0073,5.2721 2.7012,6.998 -0.24002,0.20969 -0.43458,0.45589 -0.55469,0.74024 -0.44651,1.0571 0.25168,2.1718 1.5566,2.4883 1.1733,0.28112 2.4355,-0.17882 3.0039,-1.0449 0.37453,0.06942 0.75419,0.12059 1.1445,0.12695 0.49818,0.0088 0.98436,-0.04324 1.459,-0.13672 0.5642,0.87086 1.8301,1.3372 3.0078,1.0547 1.309,-0.31623 2.0036,-1.4342 1.5586,-2.4883 -0.12628,-0.30032 -0.33702,-0.55892 -0.5957,-0.77539 1.626,-1.6612 2.6643,-4.0511 2.7172,-6.6895 0.031,-1.852 -0.16675,-3.591 -0.98675,-5.041 0.012,-0.188 -0.004,-0.35497 0,-0.54297 0,-5.1053 -3,-8.3809 -7,-8.3809 z"
       style="opacity:0.1"
       id="path17" />
    <path
       d="m -64.231033,12 c -5,0 -7.3973,4.7233 -7.2539,8.1406 -0.008,0.566 0.02338,1.1212 0.10938,1.6562 0,0.004 0.0039,0.0076 0.0039,0.01563 -0.523,1.176 -0.83637,2.4769 -0.85937,3.8789 -0.086,4.98 3.4258,9.2366 7.8398,9.3086 4.414,0.07799 8.0602,-4.0472 8.1602,-9.0352 0.031,-1.852 -0.18,-3.591 -1,-5.041 0.012,-0.188 -0.004,-0.35497 0,-0.54297 0,-5.1053 -3,-8.3809 -7,-8.3809 z"
       style="fill:#121919"
       id="path23" />
    <path
       d="m -66.444033,14.631 c -1.7871,-0.01109 -2.5634,1.5566 -2.5957,2.9356 -0.02712,1.16 0.49578,2.1764 1.3008,2.6914 -1.1398,0.82449 -2.0468,2.0579 -2.5762,3.5293 0.25076,0.44059 0.5319,0.90926 0.85938,1.3613 0.93663,1.297 2.0289,3.4797 0.35156,2.6797 -0.67931,-0.32443 -1.2672,-0.72572 -1.7188,-1.1816 -0.04879,4.1037 2.6282,7.3535 6.1621,7.3535 3.9148,0 6.4297,-2.8345 6.4297,-7 0,-0.1865 -0.01937,-0.3711 -0.0293,-0.55664 -0.52498,0.51143 -1.1773,0.96293 -1.9121,1.3359 -2.035,1.035 -0.7075,-1.8042 0.4375,-3.4922 0.26092,-0.38118 0.50207,-0.77864 0.72656,-1.168 -0.59844,-1.417 -1.5186,-2.6007 -2.7188,-3.2676 1.242,-0.145 2.1985,-0.99578 2.1895,-2.0098 -0.0099,-1.109 -0.64579,-1.8476 -2.3934,-1.8418 -0.83203,0.0027 -1.6992,0.39914 -2.3,1 -0.316,-1.168 -1.1116,-2.3623 -2.2129,-2.3691 z m 2.1934,4.2676 0.002,0.002 c 0.07,0.09 0.14652,0.16409 0.22852,0.24609 -0.09,-0.008 -0.17181,-0.01553 -0.25781,-0.01953 -0.023,0 -0.05494,-0.0058 -0.08594,-0.0098 0.039,-0.074 0.08228,-0.14075 0.11328,-0.21875 z"
       style="fill:#ececec"
       id="path25" />
    <path
       d="m -64.489033,18.03 c 0.047,0.516 -0.207,0.961 -0.566,0.992 -0.363,0.031 -0.691,-0.363 -0.738,-0.883 -0.043,-0.523 0.211,-0.965 0.57,-0.996 0.359,-0.027 0.691,0.367 0.734,0.887"
       style="fill:#2e3436"
       id="path27" />
    <path
       d="m -62.735033,17.939 c 0.047,0.35138 -0.043,0.69378 -0.234,0.89344 -0.191,0.19865 -0.453,0.22261 -0.676,0.0589 -0.223,-0.16371 -0.375,-0.48315 -0.391,-0.83454 -0.047,-0.34739 0.043,-0.68979 0.234,-0.88944 0.191,-0.19865 0.453,-0.22261 0.676,-0.06289 0.227,0.16371 0.375,0.48715 0.391,0.83454"
       style="fill:#2e3436"
       id="path29" />
    <path
       d="m -66.876033,20.09 c 0,0 1.559,-0.871 2.668,-0.762 1.105,0.105 2.063,0.941 2.063,0.941 0,0 -0.906,2.902 -2.594,2.656 -1.688,-0.25 -2.141,-2.836 -2.141,-2.836 m 0.004,0"
       style="fill:#ffb30a"
       id="path31" />
    <path
       d="m -70.096033,33.43 c -0.44651,1.0571 0.25158,2.1704 1.5565,2.4869 1.305,0.31265 2.7271,-0.28691 3.1736,-1.3478 0.44651,-1.0571 -0.25158,-2.1704 -1.5565,-2.4869 -1.305,-0.31265 -2.7271,0.29072 -3.1736,1.3478"
       style="fill:#ffb30a"
       id="path33" />
    <path
       d="m -61.045033,32.008 c -0.16464,0.01175 -0.32906,0.03651 -0.49219,0.07617 -1.305,0.31201 -2.0036,1.4322 -1.5586,2.4863 0.445,1.0583 1.8669,1.6607 3.1719,1.3477 1.309,-0.31623 2.0036,-1.4342 1.5586,-2.4883 -0.38938,-0.92602 -1.5272,-1.5042 -2.6797,-1.4219 z"
       style="fill:#ffb30a"
       id="path35" />
  </g>
</svg>
