<?xml version="1.0" encoding="UTF-8" standalone="no"?>
<svg
   xmlns:dc="http://purl.org/dc/elements/1.1/"
   xmlns:cc="http://creativecommons.org/ns#"
   xmlns:rdf="http://www.w3.org/1999/02/22-rdf-syntax-ns#"
   xmlns:svg="http://www.w3.org/2000/svg"
   xmlns="http://www.w3.org/2000/svg"
   xmlns:xlink="http://www.w3.org/1999/xlink"
   xmlns:sodipodi="http://sodipodi.sourceforge.net/DTD/sodipodi-0.dtd"
   xmlns:inkscape="http://www.inkscape.org/namespaces/inkscape"
   inkscape:version="1.0 (4035a4fb49, 2020-05-01)"
   height="64"
   width="64"
   sodipodi:docname="supertuxkart.svg"
   id="svg53"
   viewBox="0 0 64 64"
   version="1.1">
  <metadata
     id="metadata57">
    <rdf:RDF>
      <cc:Work
         rdf:about="">
        <dc:format>image/svg+xml</dc:format>
        <dc:type
           rdf:resource="http://purl.org/dc/dcmitype/StillImage" />
        <dc:title></dc:title>
      </cc:Work>
    </rdf:RDF>
  </metadata>
  <sodipodi:namedview
     inkscape:current-layer="svg53"
     inkscape:window-maximized="1"
     inkscape:window-y="0"
     inkscape:window-x="0"
     inkscape:cy="21.603659"
     inkscape:cx="-2.2236984"
     inkscape:zoom="4.25"
     showgrid="false"
     id="namedview55"
     inkscape:window-height="985"
     inkscape:window-width="1920"
     inkscape:pageshadow="2"
     inkscape:pageopacity="0"
     guidetolerance="10"
     gridtolerance="10"
     objecttolerance="10"
     borderopacity="1"
     bordercolor="#666666"
     pagecolor="#ffffff" />
  <defs
     id="defs7">
    <linearGradient
       gradientUnits="userSpaceOnUse"
       gradientTransform="rotate(-90,-13.576873,61.576873)"
       x2="47"
       x1="1"
       id="bg">
      <stop
         id="stop2"
         offset="0"
         style="stop-color:#c3cfdd" />
      <stop
         id="stop4"
         offset="1"
         style="stop-color:#d0d9e4" />
    </linearGradient>
    <filter
       inkscape:collect="always"
       style="color-interpolation-filters:sRGB"
       id="filter1057"
       x="-0.027000001"
       width="1.054"
       y="-0.027000001"
       height="1.054">
      <feGaussianBlur
         inkscape:collect="always"
         stdDeviation="0.61875"
         id="feGaussianBlur1059" />
    </filter>
    <linearGradient
       inkscape:collect="always"
       xlink:href="#linearGradient1051"
       id="linearGradient1053"
       x1="-127"
       y1="60"
       x2="-72"
       y2="5"
       gradientUnits="userSpaceOnUse"
       gradientTransform="translate(131.50001,-0.50999778)" />
    <linearGradient
       inkscape:collect="always"
       id="linearGradient1051">
      <stop
         style="stop-color:#dee0e2;stop-opacity:1"
         offset="0"
         id="stop1047" />
      <stop
         style="stop-color:#f1f3f5;stop-opacity:0.99607843"
         offset="1"
         id="stop1049" />
    </linearGradient>
  </defs>
  <g
     id="g21"
     transform="translate(1,1)">
    <g
       id="g19"
       style="opacity:0.1" />
  </g>
  <rect
     ry="15"
     y="4.4999995"
     x="4.4999995"
     height="55"
     width="55"
     id="rect1055"
     style="opacity:0.3;fill:#141414;fill-opacity:1;stroke-width:2.74436;stroke-linecap:round;filter:url(#filter1057)" />
  <rect
     style="fill:url(#linearGradient1053);fill-opacity:1;stroke-width:2.74436;stroke-linecap:round"
     id="rect1045"
     width="54.999996"
     height="54.999996"
     x="4.5000019"
     y="4.5000019"
     ry="14.999999" />
  <g
     transform="matrix(1.1111533,0,0,1.1111533,88.840505,5.8877293)"
     id="g917">
    <path
       d="m -61.800744,34.845 c 0.414,1.5525 1.9999,2.4702 3.5469,2.0547 l 1.832,-0.49024 c 0.45796,-0.12331 0.85228,-0.35905 1.1816,-0.6582 1.102,0.13034 2.451,0.24804 4.0859,0.24804 1.7851,0 3.4734,-0.1908 4.8281,-0.39258 0.35883,0.37101 0.81474,0.66014 1.3555,0.80273 l 1.8555,0.49024 c 1.5634,0.41548 3.1743,-0.50218 3.5938,-2.0547 l 1.2656,-4.6973 c 0.41946,-1.5485 -0.50681,-3.1431 -2.0742,-3.5586 l -0.26367,-0.07031 0.37305,-1.5 c 0.27969,-1.1275 -0.34047,-2.2859 -1.3848,-2.5879 l -0.42383,-0.12305 c -8.59e-4,-0.56828 -0.03801,-1.1303 -0.14844,-1.668 0.059,-0.148 0.11697,-0.29322 0.16797,-0.44922 1.293,-3.84 -0.26638,-7.8398 -3.4844,-8.9258 z"
       style="opacity:0.1"
       id="path17" />
    <path
       d="m -41.328744,25.589 -1.8562,-0.48974 c -1.5634,-0.41548 -3.1824,0.5058 -3.6019,2.0543 l -1.2705,4.6967 c -0.4073,1.5485 0.51065,3.1442 2.0862,3.5596 l 1.8562,0.48974 c 1.5634,0.41548 3.1743,-0.50178 3.5938,-2.0543 l 1.2665,-4.6967 c 0.41946,-1.5485 -0.5066,-3.1442 -2.074,-3.5596"
       style="fill:#2e3436"
       id="path23" />
    <path
       d="m -42.603744,21.431 -1.2381,-0.35864 c -1.0443,-0.30196 -2.1144,0.36998 -2.3941,1.4933 l -0.85052,3.4143 c -0.27969,1.1275 0.34269,2.2869 1.387,2.5888 l 1.2343,0.35864 c 1.0443,0.30196 2.1182,-0.36586 2.3979,-1.4933 l 0.8467,-3.4143 c 0.27969,-1.1275 -0.33887,-2.2869 -1.3832,-2.5888"
       style="fill:#2e3436"
       id="path25" />
    <path
       d="m -58.633744,20.431 1.297,-0.35864 c 1.094,-0.30196 2.219,0.36998 2.512,1.4933 l 0.887,3.4143 c 0.293,1.1275 -0.355,2.2869 -1.449,2.5888 l -1.297,0.35864 c -1.094,0.30196 -2.219,-0.36586 -2.512,-1.4933 l -0.887,-3.4143 c -0.293,-1.1275 0.352,-2.2869 1.449,-2.5888"
       style="fill:#2e3436"
       id="path27" />
    <path
       d="m -47.723744,10.02 c -2.871,-0.246 -5.805,1.875 -6.938,5.234 -0.16,0.473 -0.281,0.957 -0.359,1.43 V 16.7 c -0.754,0.852 -1.375,1.867 -1.77,3.043 -1.414,4.191 0.426,8.594 4.098,9.832 3.672,1.238 7.785,-1.148 9.195,-5.34 0.527,-1.559 0.617,-3.148 0.32,-4.594 0.059,-0.148 0.117,-0.293 0.168,-0.449 1.293,-3.84 -0.266,-7.84 -3.484,-8.926 -0.402,-0.137 -0.82,-0.211 -1.23,-0.246"
       style="fill:#121919"
       id="path29" />
    <path
       d="m -49.641744,12.036 c -0.961,0.023 -1.9098,0.55755 -2.3008,1.6826 -0.336,0.977 -0.16772,1.9731 0.36328,2.6211 -1.1815,0.3979 -2.2789,1.2107 -3.1211,2.3281 0.07005,0.36102 0.15399,0.73691 0.26172,1.1055 0.383,1.328 0.64078,3.4415 -0.44922,2.3555 -0.40281,-0.40281 -0.73294,-0.84067 -0.96289,-1.291 -1.198,3.4855 0.1838,7.119 3.0879,8.125 2.91,1.012 6.2499,-1.0002 7.4609,-4.4922 0.08624,-0.24918 0.14682,-0.50037 0.20703,-0.75 -0.6741,0.45796 -1.3321,0.97116 -2.2769,1.1293 -1.976,0.332 -0.15654,-1.5542 1.3047,-2.8359 0.44716,-0.39224 0.91366,-1.014 0.91366,-1.014 -0.21021,-1.1884 -0.53907,-2.5941 -1.293,-3.4043 1.078,0.211 1.905,-0.25428 2.171,-1.1133 0.289,-0.938 -0.24106,-1.9768 -1.4171,-2.3438 -0.699,-0.215 -1.3952,-0.14261 -1.9102,0.15039 0.051,-1.074 -0.46891,-1.8373 -1.3789,-2.1533 -0.219,-0.078 -0.43425,-0.10466 -0.65625,-0.09766 z m 1.3398,4.0986 c 0.035,0.09 0.078,0.17562 0.125,0.26562 -0.066,-0.027 -0.13703,-0.05894 -0.20703,-0.08594 -0.023,-0.008 -0.04731,-0.02034 -0.07031,-0.02734 0.051,-0.051 0.10534,-0.09753 0.15234,-0.14453 z"
       style="fill:#ececec"
       id="path31" />
    <path
       d="m -48.258744,15.32 c -0.059,0.301 -0.227,0.563 -0.438,0.676 -0.211,0.117 -0.434,0.066 -0.578,-0.129 -0.141,-0.195 -0.184,-0.5 -0.105,-0.801 0.102,-0.449 0.434,-0.758 0.742,-0.688 0.313,0.07 0.48,0.488 0.379,0.941"
       style="fill:#2e3436"
       id="path33" />
    <path
       d="m -46.786744,15.766 c -0.059,0.305 -0.227,0.563 -0.438,0.68 -0.211,0.113 -0.434,0.066 -0.574,-0.129 -0.145,-0.195 -0.184,-0.5 -0.105,-0.801 0.098,-0.449 0.43,-0.758 0.742,-0.691 0.309,0.07 0.477,0.492 0.375,0.941"
       style="fill:#2e3436"
       id="path35" />
    <path
       d="m -50.809744,16.418 c 0,0 1.539,-0.32 2.438,0.063 0.895,0.387 1.473,1.348 1.473,1.348 0,0 -1.539,2.211 -2.883,1.555 -1.344,-0.66 -1.023,-2.965 -1.023,-2.965 m -0.004,0"
       style="fill:#ffb30a"
       id="path37" />
    <path
       d="m -62.007744,25.589 1.832,-0.48974 c 1.543,-0.41548 3.133,0.5058 3.547,2.0543 l 1.254,4.6967 c 0.414,1.5485 -0.504,3.1442 -2.047,3.5596 l -1.832,0.48974 c -1.547,0.41548 -3.133,-0.50178 -3.547,-2.0543 l -1.254,-4.6967 c -0.414,-1.5485 0.504,-3.1442 2.047,-3.5596"
       style="fill:#2e3436"
       id="path39" />
    <path
       d="m -54.153744,28.5 c 0,1.9312 -1.5656,3.5 -3.502,3.5 -1.9314,0 -3.498,-1.5688 -3.498,-3.5 0,-1.9348 1.5656,-3.5 3.498,-3.5 1.9353,0 3.502,1.5652 3.502,3.5"
       style="fill:#ffb30a"
       id="path41" />
    <path
       d="m -51.153744,20 a 4,4 0 0 0 -4,4 4,4 0 0 0 4,4 4,4 0 0 0 4,-4 4,4 0 0 0 -4,-4 z m 0,1 a 3,3.0657 0 0 1 3,3.0664 3,3.0657 0 0 1 -3,3.0645 3,3.0657 0 0 1 -3,-3.0645 3,3.0657 0 0 1 3,-3.0664 z m 0,1 a 2,2 0 0 0 -2,2 2,2 0 0 0 2,2 2,2 0 0 0 2,-2 2,2 0 0 0 -2,-2 z"
       style="fill:#2e3436;paint-order:normal"
       id="path43" />
    <path
       d="m -43.153744,28.5 c 0,1.9348 -1.5656,3.5 -3.498,3.5 -1.9314,0 -3.502,-1.5652 -3.502,-3.5 0,-1.9312 1.5695,-3.5 3.502,-3.5 1.9314,0 3.498,1.5688 3.498,3.5"
       style="fill:#ffb30a"
       id="path45" />
    <path
       d="m -44.655744,22.98 -2.498,0.01953 -0.78516,1.375 -0.9668,-0.96484 c 0,0 -0.60041,-0.41016 -2.4746,-0.41016 -1.6299,0 -3.0098,0.26758 -3.0098,0.26758 l -1.1465,1.0801 -0.61719,-1.3477 h -2.0469 c -0.74747,0 -0.95312,0.20848 -0.95312,1 h 2.25 c 0.47223,0 0.91362,0.48195 1.0156,0.62695 -1.336,1.078 -3.2656,3.3182 -3.2656,4.7402 0,2.045 0.39453,4.9922 0.39453,4.9922 0,0 2.6955,0.64062 6.6055,0.64062 3.91,0 7.5625,-0.89062 7.5625,-0.89062 0,0 0.4375,-2.1097 0.4375,-3.3047 0,-2.805 -1.5036,-4.6097 -3.4219,-6.1484 0.09,-0.145 0.34025,-0.65625 1.0312,-0.65625 h 2.3906 c 0,0 -9.53e-4,-0.99953 -0.50195,-1.0195 z"
       style="fill:#e25136"
       id="path47" />
    <rect
       x="-57.153744"
       y="28"
       width="11"
       height="6"
       ry="2.5"
       style="fill:#693d36;paint-order:normal"
       id="rect51" />
  </g>
</svg>
