<svg width="64" height="64" version="1.1" xmlns="http://www.w3.org/2000/svg" xmlns:xlink="http://www.w3.org/1999/xlink">
 <defs>
  <linearGradient id="a">
   <stop stop-color="#68b0e3" offset="0"/>
   <stop stop-color="#6884e3" offset="1"/>
  </linearGradient>
  <linearGradient id="f" x1="18.002" x2="18.002" y1="12" y2="24.003" gradientUnits="userSpaceOnUse" xlink:href="#a"/>
  <linearGradient id="e" x1="30.004" x2="30.004" y1="12" y2="24.003" gradientUnits="userSpaceOnUse" xlink:href="#a"/>
  <linearGradient id="d" x1="30.004" x2="30.004" y1="24" y2="35.999" gradientUnits="userSpaceOnUse" xlink:href="#a"/>
  <linearGradient id="c" x1="18.002" x2="18.002" y1="24" y2="35.999" gradientUnits="userSpaceOnUse">
   <stop stop-color="#eeee4c" offset="0"/>
   <stop stop-color="#ebf06f" offset="1"/>
  </linearGradient>
  <filter id="h" x="-.059995" y="-.060005" width="1.12" height="1.12" color-interpolation-filters="sRGB">
   <feGaussianBlur stdDeviation="0.78264129"/>
  </filter>
  <linearGradient id="linearGradient862-3" x1="7.9373" x2="7.9373" y1="15.081" y2="1.852" gradientTransform="matrix(3.7795 0 0 3.7795 .00014324 .031541)" gradientUnits="userSpaceOnUse">
   <stop stop-color="#1a1a1a" offset="0"/>
   <stop stop-color="#4d4d4d" offset="1"/>
  </linearGradient>
 </defs>
 <g transform="scale(3.7796)" shape-rendering="auto">
  <path d="m4.3693 0.52916c-2.1142 0-3.8402 1.7835-3.8402 3.9682v8.4675c0 2.1846 1.726 3.9682 3.8402 3.9682h8.1944c2.1142 0 3.8402-1.7835 3.8402-3.9682v-8.4675c0-2.1846-1.726-3.9682-3.8402-3.9682zm0.25704 0.52089h7.6808c1.8443 0 3.3291 1.5342 3.3291 3.44v7.9368c0 1.9058-1.4847 3.44-3.3291 3.44h-7.6808c-1.8443 0-3.3291-1.5342-3.3291-3.44v-7.9368c0-1.9058 1.4847-3.44 3.3291-3.44z" color="#000000" color-rendering="auto" dominant-baseline="auto" image-rendering="auto" opacity=".01" solid-color="#000000" stop-color="#000000" style="font-feature-settings:normal;font-variant-alternates:normal;font-variant-caps:normal;font-variant-east-asian:normal;font-variant-ligatures:normal;font-variant-numeric:normal;font-variant-position:normal;font-variation-settings:normal;inline-size:0;isolation:auto;mix-blend-mode:normal;shape-margin:0;shape-padding:0;text-decoration-color:#000000;text-decoration-line:none;text-decoration-style:solid;text-indent:0;text-orientation:mixed;text-transform:none;white-space:normal"/>
  <path d="m4.3587 0.79373c-1.9668 0-3.5639 1.6528-3.5639 3.6876v8.4996c0 2.0348 1.5971 3.6876 3.5639 3.6876h8.2162c1.9668 0 3.5644-1.6528 3.5644-3.6876v-8.4996c0-2.0348-1.5976-3.6876-3.5644-3.6876zm0.27222 0.25631h7.6718c1.8422 0 3.3251 1.5342 3.3251 3.44v7.9368c0 1.9058-1.483 3.44-3.3251 3.44h-7.6718c-1.8422 0-3.3251-1.5342-3.3251-3.44v-7.9368c0-1.9058 1.483-3.44 3.3251-3.44z" color="#000000" color-rendering="auto" dominant-baseline="auto" image-rendering="auto" opacity=".01" solid-color="#000000" stop-color="#000000" style="font-feature-settings:normal;font-variant-alternates:normal;font-variant-caps:normal;font-variant-east-asian:normal;font-variant-ligatures:normal;font-variant-numeric:normal;font-variant-position:normal;font-variation-settings:normal;inline-size:0;isolation:auto;mix-blend-mode:normal;shape-margin:0;shape-padding:0;text-decoration-color:#000000;text-decoration-line:none;text-decoration-style:solid;text-indent:0;text-orientation:mixed;text-transform:none;white-space:normal"/>
  <path d="m4.3097 1.0583c-1.8657 0-3.3751 1.5383-3.3751 3.439v8.4675c0 1.9007 1.57 3.439 3.4357 3.439h8.1996c1.8657 0 3.4274-1.5383 3.4274-3.439v-8.4675c0-1.9007-1.51-3.439-3.3756-3.439h-0.09688c1.794 0.086515 3.2138 1.5819 3.2138 3.4318v7.9368c0 1.9058-1.5059 3.44-3.3766 3.44h-7.7905c-1.8707 0-3.3766-1.5342-3.3766-3.44v-7.9368c0-1.8498 1.4199-3.3451 3.2138-3.4318z" color="#000000" color-rendering="auto" dominant-baseline="auto" image-rendering="auto" opacity=".03" solid-color="#000000" stop-color="#000000" style="font-feature-settings:normal;font-variant-alternates:normal;font-variant-caps:normal;font-variant-east-asian:normal;font-variant-ligatures:normal;font-variant-numeric:normal;font-variant-position:normal;font-variation-settings:normal;inline-size:0;isolation:auto;mix-blend-mode:normal;shape-margin:0;shape-padding:0;text-decoration-color:#000000;text-decoration-line:none;text-decoration-style:solid;text-indent:0;text-orientation:mixed;text-transform:none;white-space:normal"/>
  <path transform="scale(.26458)" d="m4 46.969v2.0312c0 6.6479 5.8957 12 12.544 12h30.961c6.6479 0 12.495-5.3521 12.495-12v-1.9922c-0.02117 7.1849-5.81 12.963-13 12.963h-29.998c-7.2032 0-13.002-5.7987-13.002-13.002z" color="#000000" color-rendering="auto" dominant-baseline="auto" image-rendering="auto" opacity=".03" solid-color="#000000" stop-color="#000000" style="font-feature-settings:normal;font-variant-alternates:normal;font-variant-caps:normal;font-variant-east-asian:normal;font-variant-ligatures:normal;font-variant-numeric:normal;font-variant-position:normal;font-variation-settings:normal;inline-size:0;isolation:auto;mix-blend-mode:normal;shape-margin:0;shape-padding:0;text-decoration-color:#000000;text-decoration-line:none;text-decoration-style:solid;text-indent:0;text-orientation:mixed;text-transform:none;white-space:normal"/>
  <path d="m1.0583 11.906v0.59234c0 1.9386 1.5729 3.4993 3.3318 3.4993h8.1603c1.7589 0 3.3243-1.5608 3.3243-3.4993v-0.58095c-0.0056 2.0952-1.5372 3.7801-3.4395 3.7801h-7.9368c-1.9058 0-3.44-1.691-3.44-3.7915z" color="#000000" color-rendering="auto" dominant-baseline="auto" image-rendering="auto" opacity=".05" solid-color="#000000" stop-color="#000000" style="font-feature-settings:normal;font-variant-alternates:normal;font-variant-caps:normal;font-variant-east-asian:normal;font-variant-ligatures:normal;font-variant-numeric:normal;font-variant-position:normal;font-variation-settings:normal;inline-size:0;isolation:auto;mix-blend-mode:normal;shape-margin:0;shape-padding:0;text-decoration-color:#000000;text-decoration-line:none;text-decoration-style:solid;text-indent:0;text-orientation:mixed;text-transform:none;white-space:normal"/>
 </g>
 <rect x="4" y="4" width="56" height="56" rx="13.002" ry="13.002" fill="url(#linearGradient862-3)" stroke-width="3.7795"/>
 <g transform="translate(-7.8136 11.068)" filter="url(#h)" opacity=".5">
  <g transform="matrix(1.3043 0 0 1.3043 8.5092 -10.372)">
   <path d="m26.402 12h7.203c1.324 0 2.398 1.074 2.398 2.398v7.207c0 1.324-1.074 2.398-2.398 2.398h-7.203c-1.324 0-2.398-1.074-2.398-2.398v-7.207c0-1.324 1.074-2.398 2.398-2.398"/>
   <path d="m14.398 12h7.207c1.324 0 2.398 1.074 2.398 2.398v7.207c0 1.324-1.074 2.398-2.398 2.398h-7.207c-1.324 0-2.398-1.074-2.398-2.398v-7.207c0-1.324 1.074-2.398 2.398-2.398"/>
   <path d="m26.402 24h7.203c1.324 0 2.398 1.074 2.398 2.398v7.203c0 1.324-1.074 2.398-2.398 2.398h-7.203c-1.324 0-2.398-1.074-2.398-2.398v-7.203c0-1.324 1.074-2.398 2.398-2.398"/>
   <path d="m14.398 24h7.207c1.324 0 2.398 1.074 2.398 2.398v7.203c0 1.324-1.074 2.398-2.398 2.398h-7.207c-1.324 0-2.398-1.074-2.398-2.398v-7.203c0-1.324 1.074-2.398 2.398-2.398"/>
  </g>
 </g>
 <g transform="translate(-7.8136 11.068)">
  <g transform="matrix(1.3043 0 0 1.3043 8.5092 -10.372)">
   <path d="m26.402 12h7.203c1.324 0 2.398 1.074 2.398 2.398v7.207c0 1.324-1.074 2.398-2.398 2.398h-7.203c-1.324 0-2.398-1.074-2.398-2.398v-7.207c0-1.324 1.074-2.398 2.398-2.398" fill="url(#e)"/>
   <path d="m14.398 12h7.207c1.324 0 2.398 1.074 2.398 2.398v7.207c0 1.324-1.074 2.398-2.398 2.398h-7.207c-1.324 0-2.398-1.074-2.398-2.398v-7.207c0-1.324 1.074-2.398 2.398-2.398" fill="url(#f)"/>
   <path d="m26.402 24h7.203c1.324 0 2.398 1.074 2.398 2.398v7.203c0 1.324-1.074 2.398-2.398 2.398h-7.203c-1.324 0-2.398-1.074-2.398-2.398v-7.203c0-1.324 1.074-2.398 2.398-2.398" fill="url(#d)"/>
   <path d="m14.398 24h7.207c1.324 0 2.398 1.074 2.398 2.398v7.203c0 1.324-1.074 2.398-2.398 2.398h-7.207c-1.324 0-2.398-1.074-2.398-2.398v-7.203c0-1.324 1.074-2.398 2.398-2.398" fill="url(#c)"/>
  </g>
 </g>
</svg>
