<?xml version="1.0" encoding="UTF-8"?>
<svg width="64" height="64" version="1.1" viewBox="0 0 64 64" xmlns="http://www.w3.org/2000/svg" xmlns:xlink="http://www.w3.org/1999/xlink">
 <defs>
  <filter id="filter1057-1" x="-.027" y="-.027" width="1.054" height="1.054" color-interpolation-filters="sRGB">
   <feGaussianBlur stdDeviation="0.61875"/>
  </filter>
  <linearGradient id="linearGradient980-8" x1="-17.007" x2="-2.455" y1="15.742" y2="1.1906" gradientTransform="matrix(3.7796 0 0 3.7796 125.14 23.053)" gradientUnits="userSpaceOnUse">
   <stop stop-color="#ff8228" offset="0"/>
   <stop stop-color="#ff7346" offset=".49173"/>
   <stop stop-color="#ff8c55" offset="1"/>
  </linearGradient>
  <filter id="filter859-2" x="-.19864" y="-.085966" width="1.3973" height="1.1719" color-interpolation-filters="sRGB">
   <feGaussianBlur stdDeviation="0.18176567"/>
  </filter>
 </defs>
 <g transform="translate(-56.357 -23.053)">
  <rect x="60.857" y="27.553" width="55" height="55" ry="15" fill="#141414" filter="url(#filter1057-1)" opacity=".3" stroke-linecap="round" stroke-width="2.7444"/>
  <rect x="60.857" y="27.553" width="55" height="55" ry="14.895" fill="url(#linearGradient980-8)"/>
  <path d="m100.85 33.826a12.5 12.5 0 0 1 0.0102 0.49997 12.5 12.5 0 0 1-12.5 12.5 12.5 12.5 0 0 1-12.5-12.5 12.5 12.5 0 0 1 0.0098-0.50068" fill="none" stroke="#fff" stroke-dashoffset=".42096" stroke-width="2"/>
  <rect transform="rotate(225)" x="-101.82" y="14.171" width="1.9644" height="10.923" ry=".98217" fill="#fafafa" stroke-width="2.3333"/>
  <path transform="matrix(4.0049 0 0 -3.7796 54.012 102.14)" d="m8.4673 7.8556c-0.14396 0-0.25968 0.11603-0.25968 0.25999v4.5548c0 0.0135 0.0019 0.02631 0.0038 0.03924 5.06e-4 0.0033 3.27e-4 0.0066 9.88e-4 0.0099 0.0029 0.01507 0.0077 0.02937 0.01308 0.04339 6.79e-4 0.0017 9.26e-4 0.0035 0.0016 0.0051 0.02629 0.06489 0.0777 0.11662 0.1426 0.14291 0.0022 9.26e-4 0.0044 0.0014 0.0067 0.0022 0.01352 0.0051 0.0273 0.0094 0.04179 0.01212 0.01637 0.0032 0.03284 0.0048 0.04945 0.0048 0.0169-2.1e-5 0.03347-0.0017 0.04945-0.0048 1e-4 -1.9e-5 2.12e-4 2e-5 3.26e-4 0 0.01228-0.0024 0.02382-0.0065 0.03541-0.01052 0.0044-0.0015 0.0091-0.0021 0.0134-0.0038 0.0142-0.0058 0.0274-0.01325 0.04019-0.02137 0.0014-9.26e-4 3e-3 -0.0016 0.0044-0.0025 0.01456-0.0096 0.02822-0.02087 0.04052-0.03318l1.6761-1.6761c0.1018-0.1018 0.1018-0.2657 0-0.3675s-0.2657-0.1018-0.3675 0l-1.2326 1.2326v-3.9274c5.5e-5 -0.14396-0.11597-0.25999-0.25994-0.25999z" fill="#ff6446" filter="url(#filter859-2)" stroke-width=".61734"/>
  <path d="m88.357 72.454c-0.54411 0-0.98149-0.43855-0.98149-0.98266v-17.215c0-0.05102 0.0072-0.09944 0.01436-0.14831 0.0019-0.01247 0.0012-0.02495 0.0037-0.03742 0.01096-0.05696 0.0291-0.11101 0.04944-0.164 0.0026-0.0064 0.0035-0.01323 6e-3 -0.01928 0.09937-0.24526 0.29368-0.44078 0.53897-0.54014 0.0083-0.0035 0.01663-0.0053 0.02532-0.0083 0.0511-0.01928 0.10318-0.03553 0.15795-0.04581 0.06187-0.0121 0.12412-0.01814 0.1869-0.01814 0.06388 7.9e-5 0.1265 0.0064 0.1869 0.01814 3.78e-4 7.2e-5 8.02e-4 -7.6e-5 0.0012 0 0.04641 0.0091 0.09003 0.02457 0.13384 0.03976 0.01663 0.0057 0.03439 0.0079 0.05065 0.01436 0.05367 0.02192 0.10356 0.05008 0.1519 0.08077 0.0053 0.0035 0.01134 6e-3 0.01663 0.0094 0.05503 0.03628 0.10666 0.07888 0.15315 0.12541l6.335 6.335c0.38476 0.38476 0.38476 1.0042 0 1.389-0.38476 0.38476-1.0042 0.38476-1.389 0l-4.6586-4.6587v14.844c2.08e-4 0.54411-0.43832 0.98266-0.98247 0.98266z" fill="#fafafa" stroke-width="2.3333"/>
 </g>
</svg>
