<?xml version="1.0" encoding="UTF-8"?>
<svg width="64" height="64" version="1.1" viewBox="0 0 64 64" xmlns="http://www.w3.org/2000/svg">
 <defs>
  <linearGradient id="linearGradient939" x1="158.75" x2="169.33" y1="129.65" y2="116.42" gradientTransform="matrix(.28418 0 0 .28418 4.6855 -6.5406)" gradientUnits="userSpaceOnUse">
   <stop stop-color="#c8652d" offset="0"/>
   <stop stop-color="#ff9852" stop-opacity=".96863" offset="1"/>
  </linearGradient>
  <linearGradient id="linearGradient1013" x1="116.42" x2="111.12" y1="158.75" y2="185.21" gradientTransform="matrix(.28418 0 0 .28418 4.6855 -6.5406)" gradientUnits="userSpaceOnUse">
   <stop stop-color="#d45f32" offset="0"/>
   <stop stop-color="#d25c31" offset="1"/>
  </linearGradient>
  <linearGradient id="linearGradient1005" x1="100.54" x2="100.54" y1="164.04" y2="187.85" gradientTransform="matrix(.28418 0 0 .28418 4.6855 -6.5406)" gradientUnits="userSpaceOnUse">
   <stop stop-color="#f1be4d" offset="0"/>
   <stop stop-color="#f3cb53" offset="1"/>
  </linearGradient>
  <linearGradient id="linearGradient979" x1="37.042" x2="42.333" y1="145.52" y2="130.97" gradientTransform="matrix(.28418 0 0 .28418 4.6855 -6.5406)" gradientUnits="userSpaceOnUse">
   <stop stop-color="#dd6a34" offset="0"/>
   <stop stop-color="#dd6a34" offset="1"/>
  </linearGradient>
  <linearGradient id="linearGradient987" x1="87.312" x2="89.958" y1="137.58" y2="171.98" gradientTransform="matrix(.28418 0 0 .28418 4.6855 -6.5406)" gradientUnits="userSpaceOnUse">
   <stop stop-color="#f1bf4a" offset="0"/>
   <stop stop-color="#f7e359" offset="1"/>
  </linearGradient>
  <linearGradient id="linearGradient971" x1="44.979" x2="68.792" y1="119.06" y2="133.61" gradientTransform="matrix(.28418 0 0 .28418 4.6855 -6.5406)" gradientUnits="userSpaceOnUse">
   <stop stop-color="#ea9540" offset="0"/>
   <stop stop-color="#e7793b" offset="1"/>
  </linearGradient>
  <linearGradient id="linearGradient963" x1="63.256" x2="79.536" y1="103.21" y2="103.21" gradientTransform="matrix(.28418 0 0 .28418 4.6855 -6.5406)" gradientUnits="userSpaceOnUse">
   <stop stop-color="#eb9e41" stop-opacity=".96471" offset="0"/>
   <stop stop-color="#e9913f" offset="1"/>
  </linearGradient>
  <linearGradient id="linearGradient955" x1="75.406" x2="113.77" y1="91.281" y2="87.312" gradientTransform="matrix(.28418 0 0 .28418 4.6855 -6.5406)" gradientUnits="userSpaceOnUse">
   <stop stop-color="#e47f3a" offset="0"/>
   <stop stop-color="#ca522f" offset="1"/>
  </linearGradient>
  <linearGradient id="linearGradient947" x1="116.42" x2="134.94" y1="89.958" y2="103.19" gradientTransform="matrix(.28418 0 0 .28418 4.6855 -6.5406)" gradientUnits="userSpaceOnUse">
   <stop stop-color="#dc7b39" offset="0"/>
   <stop stop-color="#c36a34" stop-opacity=".98039" offset="1"/>
  </linearGradient>
  <linearGradient id="linearGradient919" x1="66.146" x2="141.55" y1="129.65" y2="112.45" gradientTransform="matrix(.28418 0 0 .28418 4.6855 -6.5406)" gradientUnits="userSpaceOnUse">
   <stop stop-color="#f2c34d" offset="0"/>
   <stop stop-color="#f5d454" offset=".67692"/>
   <stop stop-color="#f1c14b" offset=".68152"/>
   <stop stop-color="#f4cf51" offset="1"/>
  </linearGradient>
  <linearGradient id="linearGradient931" x1="140.23" x2="156.1" y1="116.42" y2="134.94" gradientTransform="matrix(.28418 0 0 .28418 4.6855 -6.5406)" gradientUnits="userSpaceOnUse">
   <stop stop-color="#f2831a" offset="0"/>
   <stop stop-color="#ffb050" stop-opacity=".98039" offset="1"/>
  </linearGradient>
  <linearGradient id="linearGradient1021" x1="50.271" x2="71.438" y1="177.27" y2="166.69" gradientTransform="matrix(.28418 0 0 .28418 4.6855 -6.5406)" gradientUnits="userSpaceOnUse">
   <stop stop-color="#eb9b41" offset="0"/>
   <stop stop-color="#e9903f" offset="1"/>
  </linearGradient>
  <linearGradient id="linearGradient1029" x1="44.979" x2="39.688" y1="169.33" y2="182.56" gradientTransform="matrix(.28418 0 0 .28418 4.6855 -6.5406)" gradientUnits="userSpaceOnUse">
   <stop stop-color="#e87d3c" offset="0"/>
   <stop stop-color="#ec9941" stop-opacity=".98824" offset="1"/>
  </linearGradient>
  <linearGradient id="linearGradient1037" x1="37.042" x2="34.396" y1="156.1" y2="169.33" gradientTransform="matrix(.28418 0 0 .28418 4.6855 -6.5406)" gradientUnits="userSpaceOnUse">
   <stop stop-color="#e77d3c" offset="0"/>
   <stop stop-color="#eb9e41" offset="1"/>
  </linearGradient>
  <linearGradient id="linearGradient997" x1="42.333" x2="84.667" y1="142.88" y2="169.33" gradientTransform="matrix(.28418 0 0 .28418 4.6855 -6.5406)" gradientUnits="userSpaceOnUse">
   <stop stop-color="#eda245" offset="0"/>
   <stop stop-color="#f3cc53" offset="1"/>
  </linearGradient>
  <filter id="filter1057-2-2" x="-.027" y="-.027" width="1.054" height="1.054" color-interpolation-filters="sRGB">
   <feGaussianBlur stdDeviation="0.61875"/>
  </filter>
  <linearGradient id="linearGradient1053-0" x1="-127" x2="-72" y1="60" y2="5" gradientTransform="translate(131.5 -.51)" gradientUnits="userSpaceOnUse">
   <stop stop-color="#1d2123" offset="0"/>
   <stop stop-color="#33393e" stop-opacity=".99608" offset="1"/>
  </linearGradient>
 </defs>
 <rect x="4.5" y="4.5" width="55" height="55" ry="15" fill="#141414" filter="url(#filter1057-2-2)" opacity=".3" stroke-linecap="round" stroke-width="2.7444"/>
 <rect x="4.5" y="4.5" width="55" height="55" ry="15" fill="url(#linearGradient1053-0)" stroke-linecap="round" stroke-width="2.7444"/>
 <g transform="translate(-.50458 .19515)" stroke-width=".28418">
  <path d="m48.218 29.248 4.2106-4.2106 1.1278 1.5038-3.3834 5.2632z" fill="url(#linearGradient939)"/>
  <path d="m13.708 41.579-2.2556-1.8045v-0.45113l2.4812 1.1278v0.30074z" fill="#d25c30" fill-opacity=".99608"/>
  <path d="m21.828 46.467h2.0301l2.2556-5.7142z" fill="#d25c30" fill-opacity=".99608"/>
  <path d="m39.949 35.188-3.3084 11.278h-2.2556z" fill="url(#linearGradient1013)"/>
  <path d="m28.746 41.579 1.8797 5.6392h4.1353l5.1879-12.03z" fill="url(#linearGradient1005)"/>
  <path d="m15.964 28.046 1.5038 5.2632-3.0074 3.0074z" fill="url(#linearGradient979)"/>
  <path d="m40.776 33.684-2.2556 4.1353-8.2706 4.5113-15.789-6.0151 3.0074-3.0074 10.15-6.7668 13.534 6.3911z" fill="url(#linearGradient987)"/>
  <path d="m15.964 28.046 9.7745-3.0074-0.75187 7.5187-7.5187 0.75187z" fill="url(#linearGradient971)"/>
  <path d="m24.986 18.271 2.2556 4.5113-4.5113 4.5113z" fill="url(#linearGradient963)"/>
  <path d="m24.986 18.271 4.1353 0.37594-1.5038-2.2556 10.15 1.1278-1.5038 1.5038-9.0226 3.7594z" fill="url(#linearGradient955)"/>
  <path d="m36.263 19.023 1.5038-1.5038 7.1428 6.3911z" fill="url(#linearGradient947)"/>
  <path d="m44.91 31.806v-7.8947l-8.6466-4.8872-9.0226 3.7594-4.5113 4.5113 9.3985 8.2706 8.6466-2.2556z" fill="url(#linearGradient919)"/>
  <path d="m44.91 30.303 2.6316 2.6316 2.6316-1.1278-5.2632-7.1427z" fill="url(#linearGradient931)"/>
  <path d="m14.46 36.316 7.1428 10.526 4.5113-6.0902z" fill="url(#linearGradient1021)"/>
  <path d="m15.964 39.325 1.8797 7.5187h3.7594l-5.2632-7.8947z" fill="url(#linearGradient1029)"/>
  <path d="m14.46 36.316-0.75187 5.2632 0.75187 0.75187 1.8797-3.3834z" fill="url(#linearGradient1037)"/>
  <path d="m24.986 32.556 5.2632 9.7745-15.789-6.0151 3.0074-3.0074z" fill="url(#linearGradient997)"/>
 </g>
</svg>
