<?xml version="1.0" encoding="UTF-8"?>
<svg width="64" height="64" version="1.1" xmlns="http://www.w3.org/2000/svg" xmlns:xlink="http://www.w3.org/1999/xlink">
 <defs>
  <filter id="filter2076-61" x="-.048" y="-.048" width="1.096" height="1.096" color-interpolation-filters="sRGB">
   <feGaussianBlur stdDeviation="1.1"/>
  </filter>
  <linearGradient id="linearGradient848" x1="145" x2="200" y1="59" y2="4" gradientTransform="matrix(1 0 0 1 -140.5 .49857)" gradientUnits="userSpaceOnUse">
   <stop stop-color="#e1e1e1" offset="0"/>
   <stop stop-color="#f5f5f5" offset="1"/>
  </linearGradient>
  <linearGradient id="linearGradient1053" x1="-127" x2="-72" y1="60" y2="5" gradientTransform="translate(131.5 -.51)" gradientUnits="userSpaceOnUse">
   <stop stop-color="#32d7ff" offset="0"/>
   <stop stop-color="#329bff" offset="1"/>
  </linearGradient>
 </defs>
 <rect transform="matrix(1 0 0 1 -.001436 -.0014356)" x="4.5" y="4.5" width="55" height="55" rx="13.002" ry="13.002" filter="url(#filter2076-61)" opacity=".3"/>
 <rect x="4.5" y="4.5" width="55" height="55" ry="15" fill="url(#linearGradient1053)" stroke-linecap="round" stroke-width="2.7444"/>
 <rect x="7.5" y="7.5" width="49" height="49" ry="12" fill="#262626" stroke-linecap="round" stroke-width="2.445"/>
 <rect x="6.9987" y="6.9983" width="50" height="50" rx="11.82" ry="11.82" fill="url(#linearGradient848)" fill-opacity="0" stroke-width=".90907"/>
 <path class="cls-1" d="m49.535 31.998-13.111-6.062 1.0533 3.8842h-10.954l1.0533-3.8842-13.111 6.0664 13.12 6.062-1.0533-3.8842h10.954l-1.0533 3.8842 13.102-6.062" fill="#fff" stroke-width=".70062"/>
</svg>
