<?xml version="1.0" encoding="UTF-8" standalone="no"?>
<svg
   xmlns:dc="http://purl.org/dc/elements/1.1/"
   xmlns:cc="http://creativecommons.org/ns#"
   xmlns:rdf="http://www.w3.org/1999/02/22-rdf-syntax-ns#"
   xmlns:svg="http://www.w3.org/2000/svg"
   xmlns="http://www.w3.org/2000/svg"
   xmlns:sodipodi="http://sodipodi.sourceforge.net/DTD/sodipodi-0.dtd"
   xmlns:inkscape="http://www.inkscape.org/namespaces/inkscape"
   version="1.1"
   viewBox="0 0 64 64"
   id="svg35"
   sodipodi:docname="teamspeak.svg"
   width="64"
   height="64"
   inkscape:version="1.0.2 (e86c870879, 2021-01-15)">
  <metadata
     id="metadata39">
    <rdf:RDF>
      <cc:Work
         rdf:about="">
        <dc:format>image/svg+xml</dc:format>
        <dc:type
           rdf:resource="http://purl.org/dc/dcmitype/StillImage" />
        <dc:title></dc:title>
      </cc:Work>
    </rdf:RDF>
  </metadata>
  <sodipodi:namedview
     pagecolor="#ffffff"
     bordercolor="#666666"
     borderopacity="1"
     objecttolerance="10"
     gridtolerance="10"
     guidetolerance="10"
     inkscape:pageopacity="0"
     inkscape:pageshadow="2"
     inkscape:window-width="1920"
     inkscape:window-height="992"
     id="namedview37"
     showgrid="false"
     inkscape:zoom="4.328125"
     inkscape:cx="-22.765866"
     inkscape:cy="35.40001"
     inkscape:window-x="0"
     inkscape:window-y="0"
     inkscape:window-maximized="1"
     inkscape:current-layer="svg35" />
  <defs
     id="defs7">
    <linearGradient
       id="linearGradient3764"
       x1="1"
       x2="47"
       gradientTransform="rotate(-90,-12.419837,60.419837)"
       gradientUnits="userSpaceOnUse">
      <stop
         style="stop-color:#c4ccd2"
         offset="0"
         id="stop2" />
      <stop
         style="stop-color:#cfd6db"
         offset="1"
         id="stop4" />
    </linearGradient>
    <filter
       id="filter2761"
       x="-0.024"
       y="-0.024"
       width="1.048"
       height="1.048"
       color-interpolation-filters="sRGB">
      <feGaussianBlur
         stdDeviation="0.14552168"
         id="feGaussianBlur4" />
    </filter>
    <linearGradient
       id="linearGradient1024-6"
       x1="1.3315001"
       x2="15.65"
       y1="15.576"
       y2="1.17"
       gradientUnits="userSpaceOnUse"
       gradientTransform="translate(-8.4984e-4,0.14045)">
      <stop
         stop-color="#dddfe1"
         offset="0"
         id="stop7" />
      <stop
         stop-color="#f3f4f6"
         stop-opacity=".99608"
         offset="1"
         id="stop9" />
    </linearGradient>
    <linearGradient
       id="linearGradient947"
       x1="31.952"
       x2="31.952"
       y1="49.044998"
       y2="12.132"
       gradientUnits="userSpaceOnUse"
       gradientTransform="matrix(0.26457812,0,0,0.26457812,17.009915,-0.01800424)">
      <stop
         stop-color="#2d2d2d"
         offset="0"
         id="stop853" />
      <stop
         stop-color="#6b6b6b"
         offset="1"
         id="stop855" />
    </linearGradient>
    <style
       type="text/css"
       id="style858" />
    <style
       type="text/css"
       id="style860" />
    <filter
       id="filter1057"
       x="-0.027000001"
       y="-0.027000001"
       width="1.054"
       height="1.054"
       color-interpolation-filters="sRGB">
      <feGaussianBlur
         stdDeviation="0.61875"
         id="feGaussianBlur862" />
    </filter>
    <linearGradient
       id="linearGradient1053"
       x1="-127"
       x2="-72"
       y1="60"
       y2="5"
       gradientTransform="translate(131.5,-0.51000019)"
       gradientUnits="userSpaceOnUse">
      <stop
         stop-color="#dee0e2"
         offset="0"
         id="stop865" />
      <stop
         stop-color="#f1f3f5"
         stop-opacity=".99608"
         offset="1"
         id="stop867" />
    </linearGradient>
  </defs>
  <g
     transform="translate(1,1)"
     id="g17" />
  <rect
     x="4.4999995"
     y="4.4999995"
     width="55"
     height="55"
     ry="15"
     fill="#141414"
     filter="url(#filter1057)"
     opacity="0.3"
     stroke-linecap="round"
     stroke-width="2.7444"
     id="rect872" />
  <rect
     x="4.5"
     y="4.5"
     width="55"
     height="55"
     ry="15"
     fill="url(#linearGradient1053)"
     stroke-linecap="round"
     stroke-width="2.7444"
     id="rect874"
     style="fill:url(#linearGradient1053)" />
  <g
     transform="matrix(3.779602,0,0,3.779602,53.682172,0.0794609)"
     id="g880" />
  <circle
     cx="-1189.9729"
     cy="-1265.568"
     r="0"
     fill="#5e4aa6"
     id="circle884"
     style="stroke-width:1" />
  <circle
     cx="-90.382828"
     cy="-0.1532231"
     r="0"
     fill="#5e4aa6"
     fill-rule="evenodd"
     id="circle886"
     style="stroke-width:1" />
  <g
     id="g963"
     transform="matrix(1.4583333,0,0,1.4583333,103.22452,-3.0072764)">
    <path
       style="color:#000000;font-style:normal;font-variant:normal;font-weight:normal;font-stretch:normal;font-size:medium;line-height:normal;font-family:sans-serif;font-variant-ligatures:normal;font-variant-position:normal;font-variant-caps:normal;font-variant-numeric:normal;font-variant-alternates:normal;font-variant-east-asian:normal;font-feature-settings:normal;font-variation-settings:normal;text-indent:0;text-align:start;text-decoration:none;text-decoration-line:none;text-decoration-style:solid;text-decoration-color:#000000;letter-spacing:normal;word-spacing:normal;text-transform:none;writing-mode:lr-tb;direction:ltr;text-orientation:mixed;dominant-baseline:auto;baseline-shift:baseline;text-anchor:start;white-space:normal;shape-padding:0;shape-margin:0;inline-size:0;clip-rule:nonzero;display:inline;overflow:visible;visibility:visible;isolation:auto;mix-blend-mode:normal;color-interpolation:sRGB;color-interpolation-filters:linearRGB;solid-color:#000000;solid-opacity:1;vector-effect:none;fill:#ffffff;fill-opacity:1;fill-rule:evenodd;stroke-width:1;stroke-linecap:butt;stroke-linejoin:miter;stroke-miterlimit:4;stroke-dasharray:none;stroke-dashoffset:0;stroke-opacity:1;color-rendering:auto;image-rendering:auto;shape-rendering:auto;text-rendering:auto;enable-background:accumulate;stop-color:#000000;stop-opacity:1;stroke:none;opacity:1"
       d="m -52.839672,14 c 0.76429,0.68456 2.7485,2.4074 3.5645,5.9434 0.14013,0.39369 0.02754,0.8663 -0.02149,1.2676 -0.109,0.266 -0.38086,0.68359 -0.38086,0.68359 -0.074,0.098 -0.14642,0.26956 0.01758,0.47656 0.85609,1.098 1.8696,2.0973 2.2129,3.2266 0.20728,0.68186 -0.43508,0.78101 -0.99219,1.0176 -0.41,0.102 -0.99184,0.34161 -0.58984,0.84961 0.0036,0.01141 0.01721,0.02151 0.02344,0.02929 0.031,0.035 0.08597,0.10538 0.16797,0.23438 0.078,0.164 0.14525,0.43019 -0.09375,0.61719 -0.125,0.082 -0.53698,0.26566 -0.33398,0.47266 l -0.01172,-0.01563 c 0.23082,0.24215 0.14158,0.59168 -0.0098,0.80859 -0.16845,0.18913 -0.10081,0.41236 -0.08593,0.5996 0.05194,0.65357 -0.05566,1.1811 -0.22266,1.7871 5.9005,0.0019 8.7559,-4.9981 8.7559,-8.9981 0,-5.3552 -5.1727,-9 -12,-9 z"
       id="path945" />
    <path
       style="color:#000000;font-style:normal;font-variant:normal;font-weight:normal;font-stretch:normal;font-size:medium;line-height:normal;font-family:sans-serif;font-variant-ligatures:normal;font-variant-position:normal;font-variant-caps:normal;font-variant-numeric:normal;font-variant-alternates:normal;font-variant-east-asian:normal;font-feature-settings:normal;font-variation-settings:normal;text-indent:0;text-align:start;text-decoration:none;text-decoration-line:none;text-decoration-style:solid;text-decoration-color:#000000;letter-spacing:normal;word-spacing:normal;text-transform:none;writing-mode:lr-tb;direction:ltr;text-orientation:mixed;dominant-baseline:auto;baseline-shift:baseline;text-anchor:start;white-space:normal;shape-padding:0;shape-margin:0;inline-size:0;clip-rule:nonzero;display:inline;overflow:visible;visibility:visible;isolation:auto;mix-blend-mode:normal;color-interpolation:sRGB;color-interpolation-filters:linearRGB;solid-color:#000000;solid-opacity:1;vector-effect:none;fill:#8595b9;fill-opacity:1;fill-rule:evenodd;stroke-width:1;stroke-linecap:butt;stroke-linejoin:miter;stroke-miterlimit:4;stroke-dasharray:none;stroke-dashoffset:0;stroke-opacity:1;color-rendering:auto;image-rendering:auto;shape-rendering:auto;text-rendering:auto;enable-background:accumulate;stop-color:#000000;stop-opacity:1;stroke:none;opacity:1"
       d="m -51.839672,15 c 1,1 2.123,2.846 2.611,5.32 1.389,0.09 2.977,1.862 2.938,3.539 -0.046,1.965 -1.311,3.878 -2.711,4.803 -0.027,0.016 -0.059,0.03 -0.094,0.051 -0.063,0.079 -0.093,0.179 -0.02,0.285 0.043,0.008 0.093,-0.012 0.15,-0.031 0.768,-0.254 1.486,-0.623 2.102,-1.025 1.807,-1.182 3.057,-2.145 3.715,-3.994 0.33,-0.928 0.432,-2.087 0.123,-3.148 -1.137,-3.915 -5.59,-5.507 -8.814,-5.799"
       id="path947" />
    <path
       style="color:#000000;font-style:normal;font-variant:normal;font-weight:normal;font-stretch:normal;font-size:medium;line-height:normal;font-family:sans-serif;font-variant-ligatures:normal;font-variant-position:normal;font-variant-caps:normal;font-variant-numeric:normal;font-variant-alternates:normal;font-variant-east-asian:normal;font-feature-settings:normal;font-variation-settings:normal;text-indent:0;text-align:start;text-decoration:none;text-decoration-line:none;text-decoration-style:solid;text-decoration-color:#000000;letter-spacing:normal;word-spacing:normal;text-transform:none;writing-mode:lr-tb;direction:ltr;text-orientation:mixed;dominant-baseline:auto;baseline-shift:baseline;text-anchor:start;white-space:normal;shape-padding:0;shape-margin:0;inline-size:0;clip-rule:nonzero;display:inline;overflow:visible;visibility:visible;isolation:auto;mix-blend-mode:normal;color-interpolation:sRGB;color-interpolation-filters:linearRGB;solid-color:#000000;solid-opacity:1;vector-effect:none;fill:#445277;fill-opacity:1;fill-rule:evenodd;stroke-width:1;stroke-linecap:butt;stroke-linejoin:miter;stroke-miterlimit:4;stroke-dasharray:none;stroke-dashoffset:0;stroke-opacity:1;color-rendering:auto;image-rendering:auto;shape-rendering:auto;text-rendering:auto;enable-background:accumulate;stop-color:#000000;stop-opacity:1;stroke:none;opacity:1"
       d="m -48.599672,25.25 c -0.66,-0.957 -1.289,-1.824 -1.844,-2.855 -0.098,-0.176 -0.223,-0.367 -0.191,-0.598 0.043,-0.293 0.32,-0.441 0.445,-0.656 0.289,-0.512 0.09,-1.188 -0.09,-1.727 -0.80176,-2.3608 -2.4398,-4.8089 -4.56,-5.414 v 5.218 c 0.07,0.07 0.376,0.164 0.446,0.219 2.079,1.563 2.76,4.174 2.797,6.04 0.049,2.483 -0.84,4.931 -2.621,6.469 -0.039,0.035 -0.125,0.066 -0.113,0.137 1.207,0.242 3.812,0.557 4.106,-0.582 0.27,-1.048 -0.4088,-1.6285 0.171,-2.363 0.23186,-0.29372 0.05029,-0.26679 -0.043,-0.333 -0.10014,-0.07107 -0.188,-0.141 -0.188,-0.285 0,-0.316 0.493,-0.332 0.496,-0.574 0.004,-0.314 -0.17,-0.613 -0.27,-0.887 -0.035,-0.199 -0.043,-0.43 0.273,-0.602 0.48,-0.141 0.99597,-0.28704 1.344,-0.554 0.14997,-0.11504 -0.058,-0.5 -0.164,-0.652"
       id="path949" />
    <path
       style="color:#000000;font-style:normal;font-variant:normal;font-weight:normal;font-stretch:normal;font-size:medium;line-height:normal;font-family:sans-serif;font-variant-ligatures:normal;font-variant-position:normal;font-variant-caps:normal;font-variant-numeric:normal;font-variant-alternates:normal;font-variant-east-asian:normal;font-feature-settings:normal;font-variation-settings:normal;text-indent:0;text-align:start;text-decoration:none;text-decoration-line:none;text-decoration-style:solid;text-decoration-color:#000000;letter-spacing:normal;word-spacing:normal;text-transform:none;writing-mode:lr-tb;direction:ltr;text-orientation:mixed;dominant-baseline:auto;baseline-shift:baseline;text-anchor:start;white-space:normal;shape-padding:0;shape-margin:0;inline-size:0;clip-rule:nonzero;display:inline;overflow:visible;visibility:visible;isolation:auto;mix-blend-mode:normal;color-interpolation:sRGB;color-interpolation-filters:linearRGB;solid-color:#000000;solid-opacity:1;vector-effect:none;fill:#445277;fill-opacity:1;fill-rule:nonzero;stroke-width:1;stroke-linecap:butt;stroke-linejoin:miter;stroke-miterlimit:4;stroke-dasharray:none;stroke-dashoffset:0;stroke-opacity:1;color-rendering:auto;image-rendering:auto;shape-rendering:auto;text-rendering:auto;enable-background:accumulate;stop-color:#000000;stop-opacity:1;stroke:none;opacity:1"
       d="m -51.872672,12.01 c -1.6679,0.0028 -2.699,0.26165 -3.967,0.599 -0.949,0.221 -1.559,0.71 -1.699,1.393 l -1.301,6.322 3,-0.322 v -6.453 c 1.291,-0.358 2.641,-0.54836 4,-0.549 7.18,-0.0034 13,4.927 13,11.002 0,6.075 -5.82,10.999 -13,11 -2.179,2.33e-4 -4.322,-0.462 -6.234,-1.346 l -0.516,0.738 c 2.75,1.2598 4.3212,1.606 6.75,1.606 6.4777,0 15,-2.7847 15,-12 0,-8.2373 -9.161,-12 -15.033,-11.99 z"
       id="path951" />
    <path
       style="color:#000000;font-style:normal;font-variant:normal;font-weight:normal;font-stretch:normal;font-size:medium;line-height:normal;font-family:sans-serif;font-variant-ligatures:normal;font-variant-position:normal;font-variant-caps:normal;font-variant-numeric:normal;font-variant-alternates:normal;font-variant-east-asian:normal;font-feature-settings:normal;font-variation-settings:normal;text-indent:0;text-align:start;text-decoration:none;text-decoration-line:none;text-decoration-style:solid;text-decoration-color:#000000;letter-spacing:normal;word-spacing:normal;text-transform:none;writing-mode:lr-tb;direction:ltr;text-orientation:mixed;dominant-baseline:auto;baseline-shift:baseline;text-anchor:start;white-space:normal;shape-padding:0;shape-margin:0;inline-size:0;clip-rule:nonzero;display:inline;overflow:visible;visibility:visible;isolation:auto;mix-blend-mode:normal;color-interpolation:sRGB;color-interpolation-filters:linearRGB;solid-color:#000000;solid-opacity:1;vector-effect:none;fill:#445277;fill-opacity:1;fill-rule:nonzero;stroke-width:1;stroke-linecap:butt;stroke-linejoin:miter;stroke-miterlimit:4;stroke-dasharray:none;stroke-dashoffset:0;stroke-opacity:1;color-rendering:auto;image-rendering:auto;shape-rendering:auto;text-rendering:auto;enable-background:accumulate;stop-color:#000000;stop-opacity:1;stroke:none;opacity:1"
       d="m -53.839672,22.5 c 0,1.932997 -1.567003,3.5 -3.5,3.5 -1.932997,0 -3.5,-1.567003 -3.5,-3.5 0,-1.932997 1.567003,-3.5 3.5,-3.5 1.932997,0 3.5,1.567003 3.5,3.5 z"
       id="circle953" />
    <path
       style="color:#000000;font-style:normal;font-variant:normal;font-weight:normal;font-stretch:normal;font-size:medium;line-height:normal;font-family:sans-serif;font-variant-ligatures:normal;font-variant-position:normal;font-variant-caps:normal;font-variant-numeric:normal;font-variant-alternates:normal;font-variant-east-asian:normal;font-feature-settings:normal;font-variation-settings:normal;text-indent:0;text-align:start;text-decoration:none;text-decoration-line:none;text-decoration-style:solid;text-decoration-color:#000000;letter-spacing:normal;word-spacing:normal;text-transform:none;writing-mode:lr-tb;direction:ltr;text-orientation:mixed;dominant-baseline:auto;baseline-shift:baseline;text-anchor:start;white-space:normal;shape-padding:0;shape-margin:0;inline-size:0;clip-rule:nonzero;display:inline;overflow:visible;visibility:visible;isolation:auto;mix-blend-mode:normal;color-interpolation:sRGB;color-interpolation-filters:linearRGB;solid-color:#000000;solid-opacity:1;vector-effect:none;fill:#4cba36;fill-opacity:1;fill-rule:nonzero;stroke-width:1;stroke-linecap:butt;stroke-linejoin:miter;stroke-miterlimit:4;stroke-dasharray:none;stroke-dashoffset:0;stroke-opacity:1;color-rendering:auto;image-rendering:auto;shape-rendering:auto;text-rendering:auto;enable-background:accumulate;stop-color:#000000;stop-opacity:1;stroke:none;opacity:1"
       d="m -55.839672,23 c 0,1.104569 -0.895431,2 -2,2 -1.10457,0 -2,-0.895431 -2,-2 0,-1.104569 0.89543,-2 2,-2 1.104569,0 2,0.895431 2,2 z"
       id="circle955" />
  </g>
</svg>
