<?xml version="1.0" encoding="UTF-8" standalone="no"?>
<svg
   xmlns:dc="http://purl.org/dc/elements/1.1/"
   xmlns:cc="http://creativecommons.org/ns#"
   xmlns:rdf="http://www.w3.org/1999/02/22-rdf-syntax-ns#"
   xmlns:svg="http://www.w3.org/2000/svg"
   xmlns="http://www.w3.org/2000/svg"
   xmlns:sodipodi="http://sodipodi.sourceforge.net/DTD/sodipodi-0.dtd"
   xmlns:inkscape="http://www.inkscape.org/namespaces/inkscape"
   width="64"
   height="64"
   version="1.1"
   viewBox="0 0 64 64"
   id="svg78"
   sodipodi:docname="texmaker.svg"
   inkscape:version="1.0.2 (e86c870879, 2021-01-15)">
  <sodipodi:namedview
     pagecolor="#ffffff"
     bordercolor="#666666"
     borderopacity="1"
     objecttolerance="10"
     gridtolerance="10"
     guidetolerance="10"
     inkscape:pageopacity="0"
     inkscape:pageshadow="2"
     inkscape:window-width="1920"
     inkscape:window-height="992"
     id="namedview80"
     showgrid="false"
     inkscape:zoom="6.4921875"
     inkscape:cx="29.883361"
     inkscape:cy="32.403571"
     inkscape:window-x="0"
     inkscape:window-y="0"
     inkscape:window-maximized="1"
     inkscape:current-layer="svg78" />
  <metadata
     id="metadata2">
    <rdf:RDF>
      <cc:Work
         rdf:about="">
        <dc:format>image/svg+xml</dc:format>
        <dc:type
           rdf:resource="http://purl.org/dc/dcmitype/StillImage" />
        <dc:title></dc:title>
      </cc:Work>
    </rdf:RDF>
  </metadata>
  <defs
     id="defs18">
    <style
       type="text/css"
       id="style4" />
    <style
       type="text/css"
       id="style6" />
    <style
       type="text/css"
       id="style8" />
    <filter
       id="filter2761"
       x="-.024"
       y="-.024"
       width="1.048"
       height="1.048"
       color-interpolation-filters="sRGB">
      <feGaussianBlur
         stdDeviation="0.14552168"
         id="feGaussianBlur10" />
    </filter>
    <linearGradient
       id="linearGradient1024-6"
       x1="1.3315"
       x2="15.65"
       y1="15.576"
       y2="1.17"
       gradientTransform="matrix(3.7796 0 0 3.7796 -.002077 .53107)"
       gradientUnits="userSpaceOnUse">
      <stop
         stop-color="#00dc96"
         offset="0"
         id="stop13" />
      <stop
         stop-color="#14d29b"
         offset="1"
         id="stop15" />
    </linearGradient>
    <linearGradient
       id="linearGradient840"
       x2="0"
       y1="47"
       y2="1"
       gradientUnits="userSpaceOnUse">
      <stop
         style="stop-color:#3a568e"
         offset="0"
         id="stop2" />
      <stop
         style="stop-color:#405f9b"
         offset="1"
         id="stop4" />
    </linearGradient>
    <linearGradient
       id="linearGradient3764"
       x1="1"
       x2="47"
       gradientUnits="userSpaceOnUse"
       gradientTransform="rotate(-90,23.999998,24)">
      <stop
         style="stop-color:#43cd50;stop-opacity:1"
         id="stop2-6" />
      <stop
         offset="1"
         style="stop-color:#54d160;stop-opacity:1"
         id="stop4-7" />
    </linearGradient>
    <style
       type="text/css"
       id="style876" />
    <style
       type="text/css"
       id="style878" />
    <style
       type="text/css"
       id="style880" />
    <style
       type="text/css"
       id="style882" />
    <filter
       id="filter1057"
       x="-0.027000001"
       y="-0.027000001"
       width="1.054"
       height="1.054"
       color-interpolation-filters="sRGB">
      <feGaussianBlur
         stdDeviation="0.61875"
         id="feGaussianBlur884" />
    </filter>
    <linearGradient
       id="linearGradient1053"
       x1="-127"
       x2="-72"
       y1="60"
       y2="5"
       gradientTransform="translate(131.5,-0.51)"
       gradientUnits="userSpaceOnUse">
      <stop
         stop-color="#02db96"
         offset="0"
         id="stop887" />
      <stop
         stop-color="#13d39b"
         offset="1"
         id="stop889" />
    </linearGradient>
    <style
       type="text/css"
       id="style892" />
    <style
       type="text/css"
       id="style894" />
    <style
       type="text/css"
       id="style896" />
  </defs>
  <rect
     x="4.4999995"
     y="4.4999995"
     width="55"
     height="55"
     ry="15"
     fill="#141414"
     filter="url(#filter1057)"
     opacity="0.3"
     stroke-linecap="round"
     stroke-width="2.7444"
     id="rect900" />
  <rect
     x="4.5"
     y="4.5"
     width="55"
     height="55"
     ry="15"
     fill="url(#linearGradient1053)"
     stroke-linecap="round"
     stroke-width="2.7444"
     id="rect902"
     style="fill:url(#linearGradient1053)" />
  <circle
     cx="-1248.7"
     cy="-1241.6"
     r="0"
     fill="#5e4aa6"
     id="circle24" />
  <g
     fill="#5e4aa6"
     id="g32">
    <circle
       cx="-149.15"
       cy="23.855"
       r="0"
       fill-rule="evenodd"
       id="circle26" />
    <circle
       cx="-1150.9"
       cy="-1256.6"
       r="0"
       id="circle28" />
    <circle
       cx="-51.327"
       cy="8.8744"
       r="0"
       fill-rule="evenodd"
       id="circle30" />
  </g>
  <g
     transform="matrix(1.3705 0 0 1.3705 -.89131 -.89269)"
     fill="#fff"
     id="g44">
    <!-- color: #f7d9cc -->
    <g
       fill="#fff"
       id="g42">
      <g
         fill="#fff"
         id="g40">
        <path
           d="m20.2 17.02h-8.938l-0.262 3.441h0.277c0.199-2.578 0.422-3.03 2.82-3.03h0.855c0.297 0.047 0.297 0.238 0.297 0.594v8.473c0 0.566-0.047 0.734-1.352 0.734h-0.441v0.375h4.554v-0.375h-0.441c-1.285 0-1.332-0.172-1.332-0.734v-8.473c0-0.344 0-0.527 0.281-0.594h0.848c2.367 0 2.605 0.449 2.809 3.03h0.27"
           id="path34" />
        <path
           d="m27.969 27.07h-0.277c-0.34 2.309-0.543 3.563-3.266 3.563h-2.148c-0.617 0-0.645-0.078-0.645-0.613v-4.352h1.457c1.461 0 1.602 0.539 1.602 1.852h0.25v-4.047h-0.25c0 1.289-0.141 1.82-1.602 1.82h-1.457v-3.859c0-0.523 0.027-0.602 0.645-0.602h2.117c2.395 0 2.676 0.957 2.891 3.01h0.281l-0.371-3.441h-7.84v0.43c1.098 0 1.273 0 1.273 0.699v8.398c0 0.699-0.176 0.699-1.273 0.699v0.375h8.05"
           id="path36" />
        <path
           d="m32.14 21.719 2.289-3.328c0.23-0.324 0.699-0.996 1.969-1.016v-0.375h-2.847v0.375c0.496 0.047 0.621 0.359 0.621 0.609 0 0.188-0.078 0.313-0.188 0.465l-2.043 2.98-2.289-3.367c-0.109-0.172-0.125-0.219-0.125-0.266 0-0.141 0.168-0.406 0.684-0.422v-0.375h-3.313v0.375c0.852 0 1.129 0.031 1.469 0.516l2.988 4.41-2.695 3.957c-0.664 0.965-1.668 0.984-1.965 0.984v0.375h2.843v-0.375c-0.477-0.047-0.617-0.359-0.617-0.609 0-0.203 0.078-0.313 0.156-0.422l2.477-3.633 2.691 3.977c0.121 0.172 0.121 0.219 0.121 0.266 0 0.125-0.137 0.391-0.68 0.422v0.379h3.313v-0.379c-0.992 0-1.148-0.074-1.453-0.516"
           id="path38" />
      </g>
    </g>
  </g>
  <g
     transform="matrix(3.7796 0 0 3.7796 -72.539 -25.496)"
     fill="#5e4aa6"
     stroke-width=".26458"
     id="g76">
    <g
       transform="translate(-.0272 .0065001)"
       id="g54">
      <circle
         cx="-330.35"
         cy="-328.38"
         r="0"
         id="circle46" />
      <circle
         cx="-312.11"
         cy="-326.25"
         r="0"
         id="circle48" />
      <circle
         cx="-306.02"
         cy="-333.07"
         r="0"
         id="circle50" />
      <circle
         cx="-308.84"
         cy="-326.01"
         r="0"
         id="circle52" />
    </g>
    <g
       transform="translate(-.0272 .0065001)"
       id="g64">
      <circle
         cx="-330.35"
         cy="-328.38"
         r="0"
         id="circle56" />
      <circle
         cx="-312.11"
         cy="-326.25"
         r="0"
         id="circle58" />
      <circle
         cx="-306.02"
         cy="-333.07"
         r="0"
         id="circle60" />
      <circle
         cx="-308.84"
         cy="-326.01"
         r="0"
         id="circle62" />
    </g>
    <g
       transform="translate(-.02705 .0064503)"
       id="g74">
      <circle
         cx="-330.35"
         cy="-328.38"
         r="0"
         id="circle66" />
      <circle
         cx="-312.11"
         cy="-326.25"
         r="0"
         id="circle68" />
      <circle
         cx="-306.02"
         cy="-333.07"
         r="0"
         id="circle70" />
      <circle
         cx="-308.84"
         cy="-326.01"
         r="0"
         id="circle72" />
    </g>
  </g>
  <circle
     cx="-1263.4791"
     cy="-1261.2"
     r="0"
     fill="#5e4aa6"
     id="circle908" />
  <circle
     cx="-1269.105"
     cy="-1272.89"
     r="0"
     id="circle910"
     style="fill:#5e4aa6" />
  <circle
     cx="-169.55513"
     cy="-7.4350004"
     r="0"
     fill-rule="evenodd"
     id="circle912"
     style="fill:#5e4aa6" />
  <circle
     cx="-1269.105"
     cy="-1272.89"
     r="0"
     id="circle914"
     style="fill:#5e4aa6" />
  <circle
     cx="-169.55513"
     cy="-7.4350004"
     r="0"
     fill-rule="evenodd"
     id="circle916"
     style="fill:#5e4aa6" />
  <circle
     cx="-1171.3051"
     cy="-1287.89"
     r="0"
     id="circle918"
     style="fill:#5e4aa6" />
  <circle
     cx="-71.732124"
     cy="-22.4156"
     r="0"
     fill-rule="evenodd"
     id="circle920"
     style="fill:#5e4aa6" />
  <g
     transform="matrix(3.7796,0,0,3.7796,147.45487,-26.68)"
     stroke-width="0.26458"
     id="g950"
     style="fill:#5e4aa6">
    <g
       transform="translate(-0.0272,0.0065001)"
       id="g938">
      <circle
         cx="-330.35001"
         cy="-328.38"
         r="0"
         id="circle922" />
      <circle
         cx="-312.10999"
         cy="-326.25"
         r="0"
         id="circle924" />
      <circle
         cx="-306.01999"
         cy="-333.07001"
         r="0"
         id="circle926" />
      <circle
         cx="-308.84"
         cy="-326.01001"
         r="0"
         id="circle928" />
      <circle
         cx="-330.35001"
         cy="-328.38"
         r="0"
         id="circle930" />
      <circle
         cx="-312.10999"
         cy="-326.25"
         r="0"
         id="circle932" />
      <circle
         cx="-306.01999"
         cy="-333.07001"
         r="0"
         id="circle934" />
      <circle
         cx="-308.84"
         cy="-326.01001"
         r="0"
         id="circle936" />
    </g>
    <g
       transform="translate(-0.02705,0.0064503)"
       id="g948">
      <circle
         cx="-330.35001"
         cy="-328.38"
         r="0"
         id="circle940" />
      <circle
         cx="-312.10999"
         cy="-326.25"
         r="0"
         id="circle942" />
      <circle
         cx="-306.01999"
         cy="-333.07001"
         r="0"
         id="circle944" />
      <circle
         cx="-308.84"
         cy="-326.01001"
         r="0"
         id="circle946" />
    </g>
  </g>
</svg>
