<?xml version="1.0" encoding="UTF-8"?>
<svg width="64" height="64" version="1.1" viewBox="0 0 16.933 16.933" xmlns="http://www.w3.org/2000/svg" xmlns:cc="http://creativecommons.org/ns#" xmlns:dc="http://purl.org/dc/elements/1.1/" xmlns:rdf="http://www.w3.org/1999/02/22-rdf-syntax-ns#" xmlns:xlink="http://www.w3.org/1999/xlink">
 <defs>
  <filter id="filter2076-0-2" x="-.048" y="-.048" width="1.096" height="1.096" color-interpolation-filters="sRGB">
   <feGaussianBlur stdDeviation="1.1"/>
  </filter>
  <linearGradient id="linearGradient2070-5-6" x1="145" x2="200" y1="59" y2="4" gradientTransform="matrix(.26459 0 0 .26459 -22.631 -3.6099)" gradientUnits="userSpaceOnUse">
   <stop stop-color="#e1e1e1" offset="0"/>
   <stop stop-color="#f5f5f5" offset="1"/>
  </linearGradient>
  <filter id="filter1091" x="-.084016" y="-.084016" width="1.168" height="1.168" color-interpolation-filters="sRGB">
   <feGaussianBlur stdDeviation="0.30215974"/>
  </filter>
  <linearGradient id="linearGradient1063" x1="8.5858" x2="16.465" y1="-5.5948" y2="-13.703" gradientTransform="matrix(1 0 0 1 11.204 13.637)" gradientUnits="userSpaceOnUse">
   <stop stop-color="#f5f5f5" offset="0"/>
   <stop stop-color="#fff" offset="1"/>
  </linearGradient>
  <linearGradient id="linearGradient1071" x1="8.9222" x2="15.926" y1="-5.3552" y2="-11.992" gradientTransform="matrix(1 0 0 1 11.204 13.637)" gradientUnits="userSpaceOnUse">
   <stop stop-color="#c8c8c8" offset="0"/>
   <stop stop-color="#fff" offset="1"/>
  </linearGradient>
 </defs>
 <metadata>
  <rdf:RDF>
   <cc:Work rdf:about="">
    <dc:format>image/svg+xml</dc:format>
    <dc:type rdf:resource="http://purl.org/dc/dcmitype/StillImage"/>
    <dc:title/>
   </cc:Work>
  </rdf:RDF>
 </metadata>
 <g transform="translate(-14.543 3.742)">
  <rect transform="matrix(.26459 0 0 .26459 14.543 -3.742)" x="4.5" y="4.5" width="55" height="55" rx="13.002" ry="13.002" filter="url(#filter2076-0-2)" image-rendering="optimizeSpeed" opacity=".3"/>
  <rect x="15.733" y="-2.5515" width="14.552" height="14.552" rx="3.4401" ry="3.4401" fill="url(#linearGradient2070-5-6)" image-rendering="optimizeSpeed" stroke-width=".26458"/>
  <g stroke-linecap="round" stroke-linejoin="round" stroke-opacity=".35" stroke-width=".074836">
   <rect x="16.924" y=".49134" width="12.171" height=".13229" rx="0" ry=".066146" opacity=".1875"/>
   <rect x="16.924" y="2.608" width="12.171" height=".13229" rx="0" ry=".066146" opacity=".1875"/>
   <rect x="16.924" y="4.7246" width="12.171" height=".13229" rx="0" ry=".066146" opacity=".1875"/>
   <rect x="16.924" y="6.5768" width="12.171" height=".13229" rx="0" ry=".066146" opacity=".1875"/>
   <rect x="16.924" y="8.6938" width="12.171" height=".13229" rx="0" ry=".066146" opacity=".1875"/>
  </g>
  <path transform="matrix(.98857 0 0 .9511 11.424 13.398)" d="m8.8145-5.537s-0.19283-0.13005-0.19283-0.19731c0-0.067264 0.5286-1.9107 0.58567-2.0122 0.057077-0.10147 6.1025-6.1025 6.1025-6.1025s0.27603-0.21726 0.44643-0.08272c0.17041 0.13453 0.74406 0.74406 0.74406 0.74406z" fill="#323232" filter="url(#filter1091)" opacity=".5"/>
  <path transform="matrix(.98857 0 0 .9511 11.424 13.398)" d="m8.8145-5.537s0.13005 0.19283 0.19731 0.19283c0.067264 0 1.9107-0.5286 2.0122-0.58567 0.10147-0.057077 6.1025-6.1025 6.1025-6.1025s0.21725-0.27603 0.08272-0.44643c-0.13453-0.17041-0.74406-0.74406-0.74406-0.74406z" fill="#323232" filter="url(#filter1091)" opacity=".5"/>
  <path d="m20.019 8.1002s-0.19283-0.13005-0.19283-0.19731c0-0.067261 0.52861-1.9107 0.58568-2.0122 0.05708-0.10147 6.1026-6.1026 6.1026-6.1026s0.27604-0.21726 0.44644-0.082722c0.17041 0.13453 0.74407 0.74407 0.74407 0.74407z" fill="url(#linearGradient1063)"/>
  <path d="m20.019 8.1002s0.13005 0.19283 0.19731 0.19283c0.06726 0 1.9107-0.52861 2.0122-0.58568 0.10147-0.057081 6.1026-6.1026 6.1026-6.1026s0.21725-0.27604 0.08272-0.44644c-0.13453-0.17041-0.74407-0.74407-0.74407-0.74407z" fill="url(#linearGradient1071)"/>
 </g>
</svg>
