<?xml version="1.0" encoding="UTF-8"?>
<svg width="64" height="64" version="1.1" viewBox="0 0 64 64" xmlns="http://www.w3.org/2000/svg">
 <defs>
  <filter id="filter2076-3" x="-.048" y="-.048" width="1.096" height="1.096" color-interpolation-filters="sRGB">
   <feGaussianBlur stdDeviation="1.1"/>
  </filter>
  <linearGradient id="linearGradient2070-0" x1="145" x2="200" y1="59" y2="4" gradientTransform="matrix(1 0 0 1 -54.005 30.791)" gradientUnits="userSpaceOnUse">
   <stop stop-color="#dc2828" offset="0"/>
   <stop stop-color="#fa4141" offset="1"/>
  </linearGradient>
 </defs>
 <g transform="translate(1,1)">
  <g opacity=".1">
   <!-- color: #3a569c --></g>
 </g>
 <g transform="translate(-86.494 -30.291)">
  <rect transform="matrix(1 0 0 1 86.494 30.291)" x="4.5" y="4.5" width="55" height="55" rx="13.002" ry="13.002" filter="url(#filter2076-3)" opacity=".3"/>
  <rect x="90.994" y="34.791" width="55.001" height="55.001" rx="13.002" ry="13.002" fill="url(#linearGradient2070-0)"/>
  <g fill="#fff" stroke-width=".042796">
   <path d="m132.59 54.912c-2.98-2.98-8.2387-3.5935-13.059-3.5935s-10.079 0.61353-13.059 3.5935c-2.6294 2.6294-3.1553 7.45-3.1553 11.219 0 3.5059 0.52588 8.5019 2.7171 10.956 2.98 3.4182 8.3265 3.8565 13.41 3.8565s10.518-0.43824 13.41-3.8565c2.1912-2.5418 2.7171-7.5377 2.7171-10.956 0.1753-3.7688-0.35059-8.5892-2.98-11.219z" p-id="7354"/>
   <path d="m101.92 53.422c0.26294 0.26294 0.52588 0.52588 0.87647 0.70118 0.61353 0.43824 1.2271 0.78882 1.9282 1.0518 1.4024 0.52588 2.8924 0.35059 4.1194-0.52588 0.96412-1.0518 1.3147-2.6294 0.96412-4.0318-0.1753-0.70118-0.43824-1.4024-0.78883-2.0159-0.17529-0.35059-0.43823-0.61353-0.61353-0.96412-0.43823-0.35059-1.0518-1.0518-1.49-1.5776-0.43823-0.43824-0.87647-0.87647-1.4024-1.2271l-0.1753-0.17529c-2.0159-1.4024-3.9441-1.3147-5.5216 0-1.49 1.49-1.7529 3.4182-0.61353 5.5216l0.08764 0.17529c0.35059 0.52588 0.70118 1.0518 1.0518 1.49 0.52588 0.52588 1.1394 1.2271 1.5776 1.5776zm33.13 0c-0.26295 0.26294-0.52588 0.52588-0.87647 0.70118-0.61353 0.43824-1.2271 0.78882-1.9282 1.0518-1.4024 0.52588-2.8924 0.35059-4.1194-0.52588-0.96412-1.0518-1.3147-2.6294-0.96412-4.0318 0.17529-0.70118 0.43824-1.4024 0.78882-2.0159 0.1753-0.35059 0.43824-0.61353 0.61353-0.96412 0.43824-0.35059 1.0518-1.0518 1.49-1.5776 0.43824-0.43824 0.87647-0.87647 1.4024-1.2271l0.17529-0.17529c2.0159-1.4024 3.9441-1.3147 5.5216 0 1.4024 1.4024 1.7529 3.3306 0.61353 5.5216l-0.0876 0.17529c-0.35059 0.52588-0.70118 1.0518-1.0518 1.49-0.52589 0.52588-1.1394 1.2271-1.5777 1.5776z" p-id="7355"/>
   <path d="m136.71 57.016c-1.0518-2.1912-2.5418-4.1194-4.2946-5.7848-1.8406-1.5776-3.8565-2.8047-6.1353-3.5935-2.1912-0.70118-4.3824-0.96412-6.6613-0.87647-2.2788-0.08765-4.5578 0.17529-6.6613 0.87647-2.2788 0.78882-4.2946 2.0159-6.1353 3.5935-1.8406 1.6653-3.2429 3.5935-4.2946 5.7848-2.1035 4.7329-1.8406 10.167-1.5776 15.338 0.1753 2.6294 0 6.3981 4.9083 4.7329 0.0876 0 0.26294 0 0.35059 0.08765-2.2788-2.5418-2.8047-7.5377-2.8047-10.956 0-3.8565 0.52588-8.5892 3.1553-11.219 2.98-2.98 8.2387-3.5935 13.059-3.5935s10.079 0.61353 13.059 3.5935c2.6294 2.6294 3.1553 7.45 3.1553 11.219 0 3.5059-0.52588 8.5019-2.7171 11.044 0.0876-0.08765 0.26295-0.08765 0.35059-0.08765 4.8206 1.6653 4.7329-2.1035 4.9083-4.7329 0.1753-5.2588 0.43824-10.78-1.6653-15.426z" p-id="7356"/>
   <path d="m110.86 71.127a1.5776 1.8406 0 1 0 3.1553 0 1.5776 1.8406 0 1 0-3.1553 0z" p-id="7357"/>
   <path d="m122.95 71.127a1.5776 1.8406 0 1 0 3.1553 0 1.5776 1.8406 0 1 0-3.1553 0z" p-id="7358"/>
   <path d="m134.87 66.219c0.96412 0 1.7529-0.78882 1.7529-1.7529v-0.08765c-0.17529-3.5059-0.96412-7.3623-3.2429-9.6412-3.1553-3.1553-8.7647-3.7688-13.848-3.7688s-10.693 0.70118-13.761 3.8565c-2.2788 2.2788-3.0676 6.1353-3.2429 9.6412 0 0.96412 0.70118 1.7529 1.6653 1.8406h0.0876z" p-id="7359"/>
  </g>
 </g>
</svg>
