<?xml version="1.0" encoding="UTF-8" standalone="no"?>
<svg
   xmlns:dc="http://purl.org/dc/elements/1.1/"
   xmlns:cc="http://creativecommons.org/ns#"
   xmlns:rdf="http://www.w3.org/1999/02/22-rdf-syntax-ns#"
   xmlns:svg="http://www.w3.org/2000/svg"
   xmlns="http://www.w3.org/2000/svg"
   xmlns:xlink="http://www.w3.org/1999/xlink"
   xmlns:sodipodi="http://sodipodi.sourceforge.net/DTD/sodipodi-0.dtd"
   xmlns:inkscape="http://www.inkscape.org/namespaces/inkscape"
   width="64"
   height="64"
   version="1.1"
   viewBox="0 0 16.933 16.933"
   id="svg67"
   sodipodi:docname="tomboy.svg"
   inkscape:version="1.0.2 (e86c870879, 2021-01-15)">
  <sodipodi:namedview
     pagecolor="#ffffff"
     bordercolor="#666666"
     borderopacity="1"
     objecttolerance="10"
     gridtolerance="10"
     guidetolerance="10"
     inkscape:pageopacity="0"
     inkscape:pageshadow="2"
     inkscape:window-width="1920"
     inkscape:window-height="992"
     id="namedview69"
     showgrid="false"
     inkscape:zoom="12.984375"
     inkscape:cx="43.194528"
     inkscape:cy="37.42106"
     inkscape:window-x="0"
     inkscape:window-y="0"
     inkscape:window-maximized="1"
     inkscape:current-layer="svg67"
     inkscape:document-rotation="0" />
  <defs
     id="defs13">
    <filter
       id="filter2761"
       x="-.024"
       y="-.024"
       width="1.048"
       height="1.048"
       color-interpolation-filters="sRGB">
      <feGaussianBlur
         stdDeviation="0.14552168"
         id="feGaussianBlur2" />
    </filter>
    <linearGradient
       id="linearGradient888"
       x1="-81.49"
       x2="-76.144"
       y1="-33.072"
       y2="-23.812"
       gradientUnits="userSpaceOnUse">
      <stop
         stop-color="#f89f39"
         offset="0"
         id="stop5" />
      <stop
         stop-color="#ff5f1c"
         offset="1"
         id="stop7" />
    </linearGradient>
    <filter
       id="filter967"
       x="-.058135"
       y="-.061988"
       width="1.1163"
       height="1.124"
       color-interpolation-filters="sRGB">
      <feGaussianBlur
         stdDeviation="0.24586246"
         id="feGaussianBlur10" />
    </filter>
    <filter
       id="filter2761-3"
       x="-.024"
       y="-.024"
       width="1.048"
       height="1.048"
       color-interpolation-filters="sRGB">
      <feGaussianBlur
         stdDeviation="0.14552168"
         id="feGaussianBlur4" />
    </filter>
    <linearGradient
       id="linearGradient1024-6"
       x1="1.3315"
       x2="15.65"
       y1="15.576"
       y2="1.17"
       gradientUnits="userSpaceOnUse"
       gradientTransform="translate(-8.4984e-4,0.14045)">
      <stop
         stop-color="#dddfe1"
         offset="0"
         id="stop7-6" />
      <stop
         stop-color="#f3f4f6"
         stop-opacity=".99608"
         offset="1"
         id="stop9" />
    </linearGradient>
    <linearGradient
       id="linearGradient947"
       x1="31.952"
       x2="31.952"
       y1="49.045"
       y2="12.132"
       gradientUnits="userSpaceOnUse"
       gradientTransform="matrix(0.26457812,0,0,0.26457812,17.009915,-0.01800424)">
      <stop
         stop-color="#2d2d2d"
         offset="0"
         id="stop853" />
      <stop
         stop-color="#6b6b6b"
         offset="1"
         id="stop855" />
    </linearGradient>
    <style
       type="text/css"
       id="style858" />
    <style
       type="text/css"
       id="style860" />
    <filter
       id="filter1057"
       x="-.027"
       y="-.027"
       width="1.054"
       height="1.054"
       color-interpolation-filters="sRGB">
      <feGaussianBlur
         stdDeviation="0.61875"
         id="feGaussianBlur862" />
    </filter>
    <linearGradient
       id="linearGradient1053"
       x1="-127"
       x2="-72"
       y1="60"
       y2="5"
       gradientTransform="matrix(0.26457812,0,0,0.26457812,34.792023,-0.1349349)"
       gradientUnits="userSpaceOnUse">
      <stop
         stop-color="#dee0e2"
         offset="0"
         id="stop865" />
      <stop
         stop-color="#f1f3f5"
         stop-opacity=".99608"
         offset="1"
         id="stop867" />
    </linearGradient>
    <linearGradient
       inkscape:collect="always"
       xlink:href="#linearGradient888"
       id="linearGradient879"
       gradientUnits="userSpaceOnUse"
       x1="-81.49"
       y1="-33.072"
       x2="-76.144"
       y2="-23.812" />
  </defs>
  <metadata
     id="metadata15">
    <rdf:RDF>
      <cc:Work
         rdf:about="">
        <dc:format>image/svg+xml</dc:format>
        <dc:type
           rdf:resource="http://purl.org/dc/dcmitype/StillImage" />
        <dc:title></dc:title>
      </cc:Work>
    </rdf:RDF>
  </metadata>
  <rect
     x="4.4999995"
     y="4.4999995"
     width="55"
     height="55"
     ry="15"
     fill="#141414"
     filter="url(#filter1057)"
     opacity="0.3"
     stroke-linecap="round"
     stroke-width="2.7444"
     id="rect872"
     transform="scale(0.26457812)" />
  <rect
     x="1.1906016"
     y="1.1906016"
     width="14.551797"
     height="14.551797"
     ry="3.9686718"
     fill="url(#linearGradient1053)"
     stroke-linecap="round"
     stroke-width="0.726108"
     id="rect874"
     style="fill:url(#linearGradient1053)" />
  <path
     d="m3.7041-10.848a0.92602 0.92602 0 0 0-0.06563 0.0021 0.92602 0.92602 0 0 0-0.09198 0.01137 0.92602 0.92602 0 0 0-0.08992 0.02015 0.92602 0.92602 0 0 0-0.08785 0.02945 0.92602 0.92602 0 0 0-0.08475 0.03772 0.92602 0.92602 0 0 0-0.0801 0.04599 0.92602 0.92602 0 0 0-0.07545 0.05374 0.92602 0.92602 0 0 0-0.06925 0.06149 0.92602 0.92602 0 0 0-0.06356 0.0677 0.92602 0.92602 0 0 0-0.05581 0.07338 0.92602 0.92602 0 0 0-0.04858 0.07906 0.92602 0.92602 0 0 0-0.04031 0.0832 0.92602 0.92602 0 0 0-0.03152 0.08681 0.92602 0.92602 0 0 0-0.02274 0.08992 0.92602 0.92602 0 0 0-0.01395 0.09146 0.92602 0.92602 0 0 0-0.0047 0.0925v6.6145a0.92602 0.92602 0 0 0 0.0021 0.06563 0.92602 0.92602 0 0 0 0.01137 0.09198 0.92602 0.92602 0 0 0 0.02015 0.08992 0.92602 0.92602 0 0 0 0.02946 0.08785 0.92602 0.92602 0 0 0 0.03772 0.08475 0.92602 0.92602 0 0 0 0.04599 0.0801 0.92602 0.92602 0 0 0 0.05374 0.07545 0.92602 0.92602 0 0 0 0.06149 0.06924 0.92602 0.92602 0 0 0 0.0677 0.06356 0.92602 0.92602 0 0 0 0.07338 0.05581 0.92602 0.92602 0 0 0 0.07906 0.04857 0.92602 0.92602 0 0 0 0.0832 0.04031 0.92602 0.92602 0 0 0 0.08681 0.03152 0.92602 0.92602 0 0 0 0.08992 0.02274 0.92602 0.92602 0 0 0 0.09146 0.01395 0.92602 0.92602 0 0 0 0.0925 0.0047h4.4978a0.92602 0.92602 0 0 0 0.06563-0.0021 0.92602 0.92602 0 0 0 0.09198-0.01137 0.92602 0.92602 0 0 0 0.08992-0.02015 0.92602 0.92602 0 0 0 0.08785-0.02945 0.92602 0.92602 0 0 0 0.08475-0.03772 0.92602 0.92602 0 0 0 0.0801-0.04599 0.92602 0.92602 0 0 0 0.07545-0.05374 0.92602 0.92602 0 0 0 0.06976-0.06098 0.92602 0.92602 0 0 0 0.06304-0.06821 0.92602 0.92602 0 0 0 0.05581-0.07338 0.92602 0.92602 0 0 0 0.04858-0.07906 0.92602 0.92602 0 0 0 0.04031-0.0832 0.92602 0.92602 0 0 0 0.03152-0.08681 0.92602 0.92602 0 0 0 0.02274-0.08992 0.92602 0.92602 0 0 0 0.01395-0.09146 0.92602 0.92602 0 0 0 0.0047-0.0925v-6.6145a0.92602 0.92602 0 0 0-0.0021-0.06563 0.92602 0.92602 0 0 0-0.01137-0.09198 0.92602 0.92602 0 0 0-0.02015-0.08992 0.92602 0.92602 0 0 0-0.02946-0.08785 0.92602 0.92602 0 0 0-0.03772-0.08475 0.92602 0.92602 0 0 0-0.04599-0.0801 0.92602 0.92602 0 0 0-0.05374-0.07545 0.92602 0.92602 0 0 0-0.06098-0.06925 0.92602 0.92602 0 0 0-0.06821-0.06356 0.92602 0.92602 0 0 0-0.07338-0.05581 0.92602 0.92602 0 0 0-0.07906-0.04858 0.92602 0.92602 0 0 0-0.0832-0.04031 0.92602 0.92602 0 0 0-0.08681-0.03152 0.92602 0.92602 0 0 0-0.08992-0.02274 0.92602 0.92602 0 0 0-0.09146-0.01395 0.92602 0.92602 0 0 0-0.0925-0.0047z"
     fill="#fafafa"
     id="path21" />
  <g
     transform="matrix(1.0922 0 0 1.0922 69.955 33.758)"
     filter="url(#filter967)"
     id="g43">
    <g
       transform="translate(17.699 5.8148)"
       style=""
       id="g27">
      <path
         d="m-72.098-30.036a1.4616 1.4616 0 0 0-1.4614 1.4614 1.4616 1.4616 0 0 0 1.4614 1.4614 1.4616 1.4616 0 0 0 1.4614-1.4614 1.4616 1.4616 0 0 0-1.4614-1.4614zm0.78185 0.72036 0.24701 0.24701-1.2345 1.235-0.82319-0.82319 0.24649-0.24701 0.5767 0.57618z"
         fill="#fff"
         id="path25" />
    </g>
    <g
       transform="translate(21.043 4.7624)"
       style=""
       id="g41">
      <g
         transform="translate(.0010063 .094556)"
         fill="#fff"
         style=""
         id="g39">
        <rect
           x="-81.218"
           y="-30.891"
           width="3.9522"
           height=".4911"
           id="rect31" />
        <rect
           x="-81.218"
           y="-29.573"
           width="3.9522"
           height=".4911"
           id="rect33" />
        <rect
           x="-81.218"
           y="-28.256"
           width="3.9522"
           height=".4911"
           id="rect35" />
        <rect
           x="-81.218"
           y="-26.938"
           width="3.9522"
           height=".4911"
           id="rect37" />
      </g>
    </g>
  </g>
  <g
     transform="matrix(1.0922,0,0,1.0922,89.285848,40.108925)"
     id="g49">
    <path
       d="m -74.346,-32.808 a 0.92602,0.92602 0 0 0 -0.06563,0.0021 0.92602,0.92602 0 0 0 -0.09198,0.01137 0.92602,0.92602 0 0 0 -0.08992,0.02015 0.92602,0.92602 0 0 0 -0.08785,0.02945 0.92602,0.92602 0 0 0 -0.08475,0.03772 0.92602,0.92602 0 0 0 -0.0801,0.04599 0.92602,0.92602 0 0 0 -0.07545,0.05374 0.92602,0.92602 0 0 0 -0.06925,0.06149 0.92602,0.92602 0 0 0 -0.06356,0.0677 0.92602,0.92602 0 0 0 -0.05581,0.07338 0.92602,0.92602 0 0 0 -0.04858,0.07906 0.92602,0.92602 0 0 0 -0.04031,0.0832 0.92602,0.92602 0 0 0 -0.03152,0.08681 0.92602,0.92602 0 0 0 -0.02274,0.08992 0.92602,0.92602 0 0 0 -0.01395,0.09146 0.92602,0.92602 0 0 0 -0.0047,0.0925 v 6.6145 a 0.92602,0.92602 0 0 0 0.0021,0.06563 0.92602,0.92602 0 0 0 0.01137,0.09198 0.92602,0.92602 0 0 0 0.02015,0.08992 0.92602,0.92602 0 0 0 0.02946,0.08785 0.92602,0.92602 0 0 0 0.03772,0.08475 0.92602,0.92602 0 0 0 0.04599,0.0801 0.92602,0.92602 0 0 0 0.05374,0.07545 0.92602,0.92602 0 0 0 0.06149,0.06924 0.92602,0.92602 0 0 0 0.0677,0.06356 0.92602,0.92602 0 0 0 0.07338,0.05581 0.92602,0.92602 0 0 0 0.07906,0.04857 0.92602,0.92602 0 0 0 0.0832,0.04031 0.92602,0.92602 0 0 0 0.08681,0.03152 0.92602,0.92602 0 0 0 0.08992,0.02274 0.92602,0.92602 0 0 0 0.09146,0.01395 0.92602,0.92602 0 0 0 0.0925,0.0047 h 4.4978 a 0.92602,0.92602 0 0 0 0.06563,-0.0021 0.92602,0.92602 0 0 0 0.09198,-0.01137 0.92602,0.92602 0 0 0 0.08992,-0.02015 0.92602,0.92602 0 0 0 0.08785,-0.02945 0.92602,0.92602 0 0 0 0.08475,-0.03772 0.92602,0.92602 0 0 0 0.0801,-0.04599 0.92602,0.92602 0 0 0 0.07545,-0.05374 0.92602,0.92602 0 0 0 0.06976,-0.06098 0.92602,0.92602 0 0 0 0.06304,-0.06821 0.92602,0.92602 0 0 0 0.05581,-0.07338 0.92602,0.92602 0 0 0 0.04858,-0.07906 0.92602,0.92602 0 0 0 0.04031,-0.0832 0.92602,0.92602 0 0 0 0.03152,-0.08681 0.92602,0.92602 0 0 0 0.02274,-0.08992 0.92602,0.92602 0 0 0 0.01395,-0.09146 0.92602,0.92602 0 0 0 0.0047,-0.0925 v -6.6145 a 0.92602,0.92602 0 0 0 -0.0021,-0.06563 0.92602,0.92602 0 0 0 -0.01137,-0.09198 0.92602,0.92602 0 0 0 -0.02015,-0.08992 0.92602,0.92602 0 0 0 -0.02946,-0.08785 0.92602,0.92602 0 0 0 -0.03772,-0.08475 0.92602,0.92602 0 0 0 -0.04599,-0.0801 0.92602,0.92602 0 0 0 -0.05374,-0.07545 0.92602,0.92602 0 0 0 -0.06098,-0.06925 0.92602,0.92602 0 0 0 -0.06821,-0.06356 0.92602,0.92602 0 0 0 -0.07338,-0.05581 0.92602,0.92602 0 0 0 -0.07906,-0.04858 0.92602,0.92602 0 0 0 -0.0832,-0.04031 0.92602,0.92602 0 0 0 -0.08681,-0.03152 0.92602,0.92602 0 0 0 -0.08992,-0.02274 0.92602,0.92602 0 0 0 -0.09146,-0.01395 0.92602,0.92602 0 0 0 -0.0925,-0.0047 z"
       fill="#fcc105"
       id="path45" />
    <path
       d="m -72.098,-30.036 a 1.4616,1.4616 0 0 0 -1.4614,1.4614 1.4616,1.4616 0 0 0 1.4614,1.4614 1.4616,1.4616 0 0 0 1.4614,-1.4614 1.4616,1.4616 0 0 0 -1.4614,-1.4614 z m 0.78185,0.72036 0.24701,0.24701 -1.2345,1.235 -0.82319,-0.82319 0.24649,-0.24701 0.5767,0.57618 z"
       fill="#ffffff"
       id="path47" />
  </g>
  <g
     transform="matrix(1.0922,0,0,1.0922,92.938165,38.959493)"
     id="g63">
    <path
       d="m -81.49,-32.808 a 0.92602,0.92602 0 0 0 -0.06563,0.0021 0.92602,0.92602 0 0 0 -0.09198,0.01137 0.92602,0.92602 0 0 0 -0.08992,0.02015 0.92602,0.92602 0 0 0 -0.08785,0.02945 0.92602,0.92602 0 0 0 -0.08475,0.03772 0.92602,0.92602 0 0 0 -0.0801,0.04599 0.92602,0.92602 0 0 0 -0.07545,0.05374 0.92602,0.92602 0 0 0 -0.06925,0.06149 0.92602,0.92602 0 0 0 -0.06356,0.0677 0.92602,0.92602 0 0 0 -0.05581,0.07338 0.92602,0.92602 0 0 0 -0.04858,0.07906 0.92602,0.92602 0 0 0 -0.04031,0.0832 0.92602,0.92602 0 0 0 -0.03152,0.08681 0.92602,0.92602 0 0 0 -0.02274,0.08992 0.92602,0.92602 0 0 0 -0.01395,0.09146 0.92602,0.92602 0 0 0 -0.0047,0.0925 v 6.6145 a 0.92602,0.92602 0 0 0 0.0021,0.06563 0.92602,0.92602 0 0 0 0.01137,0.09198 0.92602,0.92602 0 0 0 0.02015,0.08992 0.92602,0.92602 0 0 0 0.02946,0.08785 0.92602,0.92602 0 0 0 0.03772,0.08475 0.92602,0.92602 0 0 0 0.04599,0.0801 0.92602,0.92602 0 0 0 0.05374,0.07545 0.92602,0.92602 0 0 0 0.06149,0.06924 0.92602,0.92602 0 0 0 0.0677,0.06356 0.92602,0.92602 0 0 0 0.07338,0.05581 0.92602,0.92602 0 0 0 0.07906,0.04857 0.92602,0.92602 0 0 0 0.0832,0.04031 0.92602,0.92602 0 0 0 0.08681,0.03152 0.92602,0.92602 0 0 0 0.08992,0.02274 0.92602,0.92602 0 0 0 0.09146,0.01395 0.92602,0.92602 0 0 0 0.0925,0.0047 h 4.4978 a 0.92602,0.92602 0 0 0 0.06563,-0.0021 0.92602,0.92602 0 0 0 0.09198,-0.01137 0.92602,0.92602 0 0 0 0.08992,-0.02015 0.92602,0.92602 0 0 0 0.08785,-0.02945 0.92602,0.92602 0 0 0 0.08475,-0.03772 0.92602,0.92602 0 0 0 0.0801,-0.04599 0.92602,0.92602 0 0 0 0.07545,-0.05374 0.92602,0.92602 0 0 0 0.06976,-0.06098 0.92602,0.92602 0 0 0 0.06304,-0.06821 0.92602,0.92602 0 0 0 0.05581,-0.07338 0.92602,0.92602 0 0 0 0.04858,-0.07906 0.92602,0.92602 0 0 0 0.04031,-0.0832 0.92602,0.92602 0 0 0 0.03152,-0.08681 0.92602,0.92602 0 0 0 0.02274,-0.08992 0.92602,0.92602 0 0 0 0.01395,-0.09146 0.92602,0.92602 0 0 0 0.0047,-0.0925 v -6.6145 a 0.92602,0.92602 0 0 0 -0.0021,-0.06563 0.92602,0.92602 0 0 0 -0.01137,-0.09198 0.92602,0.92602 0 0 0 -0.02015,-0.08992 0.92602,0.92602 0 0 0 -0.02946,-0.08785 0.92602,0.92602 0 0 0 -0.03772,-0.08475 0.92602,0.92602 0 0 0 -0.04599,-0.0801 0.92602,0.92602 0 0 0 -0.05374,-0.07545 0.92602,0.92602 0 0 0 -0.06098,-0.06925 0.92602,0.92602 0 0 0 -0.06821,-0.06356 0.92602,0.92602 0 0 0 -0.07338,-0.05581 0.92602,0.92602 0 0 0 -0.07906,-0.04858 0.92602,0.92602 0 0 0 -0.0832,-0.04031 0.92602,0.92602 0 0 0 -0.08681,-0.03152 0.92602,0.92602 0 0 0 -0.08992,-0.02274 0.92602,0.92602 0 0 0 -0.09146,-0.01395 0.92602,0.92602 0 0 0 -0.0925,-0.0047 z"
       fill="url(#linearGradient888)"
       id="path51"
       style="fill:url(#linearGradient879)" />
    <g
       transform="translate(0.0010063,0.094556)"
       fill="#ffffff"
       id="g61">
      <rect
         x="-81.218002"
         y="-30.891001"
         width="3.9521999"
         height="0.49110001"
         id="rect53" />
      <rect
         x="-81.218002"
         y="-29.573"
         width="3.9521999"
         height="0.49110001"
         id="rect55" />
      <rect
         x="-81.218002"
         y="-28.256001"
         width="3.9521999"
         height="0.49110001"
         id="rect57" />
      <rect
         x="-81.218002"
         y="-26.938"
         width="3.9521999"
         height="0.49110001"
         id="rect59" />
    </g>
  </g>
  <g
     transform="translate(36.618638,0.02102377)"
     id="g880" />
  <circle
     cx="-292.42529"
     cy="-334.84161"
     r="0"
     fill="#5e4aa6"
     id="circle884"
     style="stroke-width:0.264578" />
  <circle
     cx="-1.4978087"
     cy="-0.040539328"
     r="0"
     fill="#5e4aa6"
     fill-rule="evenodd"
     id="circle886"
     style="stroke-width:0.264578" />
</svg>
