<?xml version="1.0" encoding="UTF-8"?>
<svg width="64" height="64" version="1.1" viewBox="0 0 16.933 16.933" xmlns="http://www.w3.org/2000/svg" xmlns:cc="http://creativecommons.org/ns#" xmlns:dc="http://purl.org/dc/elements/1.1/" xmlns:rdf="http://www.w3.org/1999/02/22-rdf-syntax-ns#" xmlns:xlink="http://www.w3.org/1999/xlink">
 <defs>
  <filter id="filter2076-0-2" x="-.048" y="-.048" width="1.096" height="1.096" color-interpolation-filters="sRGB">
   <feGaussianBlur stdDeviation="1.1"/>
  </filter>
  <linearGradient id="linearGradient2070-5-6" x1="145" x2="200" y1="59" y2="4" gradientTransform="matrix(.26459 0 0 .26459 -37.174 .13209)" gradientUnits="userSpaceOnUse">
   <stop stop-color="#e1e1e1" offset="0"/>
   <stop stop-color="#f5f5f5" offset="1"/>
  </linearGradient>
  <filter id="filter998" x="-.0552" y="-.042462" width="1.1104" height="1.0849" color-interpolation-filters="sRGB">
   <feGaussianBlur stdDeviation="0.46"/>
  </filter>
  <linearGradient id="linearGradient996" x1="19.5" x2="19.5" y1="34" y2="17" gradientTransform="matrix(.39688 .0012682 -.0012682 .39688 -.82246 -.25761)" gradientUnits="userSpaceOnUse">
   <stop stop-color="#f60" offset="0"/>
   <stop stop-color="#f80" offset="1"/>
  </linearGradient>
  <linearGradient id="linearGradient998" x1="32" x2="32" y1="37" y2="11" gradientTransform="matrix(.39688 .0012682 -.0012682 .39688 -.82246 -.25761)" gradientUnits="userSpaceOnUse">
   <stop stop-color="#2d2d2d" offset="0"/>
   <stop stop-color="#535353" offset="1"/>
  </linearGradient>
 </defs>
 <metadata>
  <rdf:RDF>
   <cc:Work rdf:about="">
    <dc:format>image/svg+xml</dc:format>
    <dc:type rdf:resource="http://purl.org/dc/dcmitype/StillImage"/>
    <dc:title/>
   </cc:Work>
  </rdf:RDF>
 </metadata>
 <rect transform="matrix(.26459 0 0 .26459 -6e-5 -5.97e-5)" x="4.5" y="4.5" width="55" height="55" rx="13.002" ry="13.002" filter="url(#filter2076-0-2)" image-rendering="optimizeSpeed" opacity=".3"/>
 <rect x="1.1905" y="1.1905" width="14.552" height="14.552" rx="3.4401" ry="3.4401" fill="url(#linearGradient2070-5-6)" image-rendering="optimizeSpeed" stroke-width=".26458"/>
 <g transform="translate(-.3776 -.39138)">
  <path transform="matrix(.26279 .030772 -.030772 .26279 .44152 -.078225)" d="m47.275 46.422c0.94175-0.93243 1.8319-1.9282 2.6816-2.9707l-3.7324-32.775-2.9805 0.33984 4.0312 35.406z" filter="url(#filter998)" opacity=".15" stroke-width="1.5"/>
  <path d="m4.3154 6.5056-0.011836 3.71c-0.00143 0.44966 0.04409 0.85937 0.13417 1.2335 0.090517 0.36423 0.22917 0.68932 0.44662 0.95393 0.5436 0.66133 1.3455 0.85481 2.0825 0.85794 0.89931 0.0041 1.6934-0.09183 2.4881-0.38893l0.020252-6.3484-1.1906-0.0037964-0.017709 5.5546c-0.3972 0.10152-0.79421 0.14233-1.1708 0.14471-0.59097 0.003671-1.0103-0.17666-1.2604-0.52432-0.24854-0.34765-0.34272-0.92423-0.34017-1.7283l0.011031-3.4567" fill="url(#linearGradient996)" stroke-width=".39688"/>
  <path d="m11.436 13.576c0.33701 0 0.44207-1.31e-4 0.82461-1.31e-4l-7.59e-4 -9.4257-0.7937-0.00241-0.03018 9.4283z" fill="url(#linearGradient998)" stroke-width=".39688"/>
 </g>
</svg>
