<?xml version="1.0" encoding="UTF-8"?>
<svg width="64" height="64" version="1.1" viewBox="0 0 16.933 16.933" xmlns="http://www.w3.org/2000/svg" xmlns:cc="http://creativecommons.org/ns#" xmlns:dc="http://purl.org/dc/elements/1.1/" xmlns:rdf="http://www.w3.org/1999/02/22-rdf-syntax-ns#" xmlns:xlink="http://www.w3.org/1999/xlink">
 <defs>
  <filter id="filter1057" x="-.027" y="-.027" width="1.054" height="1.054" color-interpolation-filters="sRGB">
   <feGaussianBlur stdDeviation="0.61875"/>
  </filter>
  <linearGradient id="linearGradient1053" x1="-127" x2="-72" y1="60" y2="5" gradientTransform="matrix(.26458 0 0 .26458 37.098 44.126)" gradientUnits="userSpaceOnUse">
   <stop stop-color="#02db96" offset="0"/>
   <stop stop-color="#13d39b" offset="1"/>
  </linearGradient>
  <filter id="filter1311" x="-.055746" y="-.042144" width="1.1115" height="1.0843" color-interpolation-filters="sRGB">
   <feGaussianBlur stdDeviation="0.37163933"/>
  </filter>
 </defs>
 <metadata>
  <rdf:RDF>
   <cc:Work rdf:about="">
    <dc:format>image/svg+xml</dc:format>
    <dc:type rdf:resource="http://purl.org/dc/dcmitype/StillImage"/>
    <dc:title/>
   </cc:Work>
  </rdf:RDF>
 </metadata>
 <g transform="translate(-2.3057 -44.261)">
  <rect transform="matrix(.26458 0 0 .26458 2.3057 44.261)" x="4.5" y="4.5" width="55" height="55" ry="15" fill="#141414" filter="url(#filter1057)" opacity=".3" stroke-linecap="round" stroke-width="2.7444"/>
  <rect x="3.4963" y="45.452" width="14.552" height="14.552" ry="3.9687" fill="url(#linearGradient1053)" stroke-linecap="round" stroke-width=".72611"/>
  <g fill="#089168">
   <rect transform="matrix(.26458 0 0 .26458 2.3057 44.261)" x="24" y="38.944" width="16" height="4" ry="2" filter="url(#filter1311)" style="paint-order:stroke fill markers"/>
   <rect transform="matrix(.18709 .18709 -.18709 .18709 41.054 41.305)" x="-56.746" y="112.15" width="11" height="4" ry="2" filter="url(#filter1311)" style="paint-order:stroke fill markers"/>
   <rect transform="matrix(-.18709 .18709 .18709 .18709 41.054 41.305)" x="105.15" y="-49.746" width="11" height="4" ry="2" filter="url(#filter1311)" style="paint-order:stroke fill markers"/>
   <rect transform="matrix(0 -.26458 .26458 0 41.053 41.305)" x="-48.953" y="-116.47" width="16" height="4" ry="2" filter="url(#filter1311)" style="paint-order:stroke fill markers"/>
  </g>
  <g fill="#fff" stroke-width=".26458">
   <rect x="8.6556" y="54.349" width="4.2333" height="1.0583" ry=".52917" style="paint-order:stroke fill markers"/>
   <rect transform="rotate(45)" x="43.069" y="29.697" width="2.9104" height="1.0583" ry=".52917" style="paint-order:stroke fill markers"/>
   <rect transform="matrix(-.70711 .70711 .70711 .70711 0 0)" x="27.845" y="44.922" width="2.9104" height="1.0583" ry=".52917" style="paint-order:stroke fill markers"/>
   <rect transform="rotate(-90)" x="-54.041" y="10.237" width="4.2333" height="1.0583" ry=".52917" style="paint-order:stroke fill markers"/>
  </g>
 </g>
</svg>
