<?xml version="1.0" encoding="UTF-8"?>
<svg width="64" height="64" version="1.1" viewBox="0 0 16.933 16.933" xmlns="http://www.w3.org/2000/svg" xmlns:cc="http://creativecommons.org/ns#" xmlns:dc="http://purl.org/dc/elements/1.1/" xmlns:rdf="http://www.w3.org/1999/02/22-rdf-syntax-ns#">
 <defs>
  <filter id="filter1057-3" x="-.027" y="-.027" width="1.054" height="1.054" color-interpolation-filters="sRGB">
   <feGaussianBlur stdDeviation="0.61875"/>
  </filter>
  <linearGradient id="linearGradient1053-7" x1="-127" x2="-72" y1="60" y2="5" gradientTransform="matrix(.26458 0 0 .26458 44.5 4.1605)" gradientUnits="userSpaceOnUse">
   <stop stop-color="#eb3f78" offset="0"/>
   <stop stop-color="#ec497e" offset="1"/>
  </linearGradient>
  <filter id="filter1311-3" x="-.055746" y="-.042144" width="1.1115" height="1.0843" color-interpolation-filters="sRGB">
   <feGaussianBlur stdDeviation="0.37163933"/>
  </filter>
 </defs>
 <metadata>
  <rdf:RDF>
   <cc:Work rdf:about="">
    <dc:format>image/svg+xml</dc:format>
    <dc:type rdf:resource="http://purl.org/dc/dcmitype/StillImage"/>
    <dc:title/>
   </cc:Work>
  </rdf:RDF>
 </metadata>
 <g transform="translate(-9.7077 -4.2955)">
  <rect transform="matrix(.26458 0 0 .26458 9.7077 4.2955)" x="4.5" y="4.5" width="55" height="55" ry="15" fill="#141414" filter="url(#filter1057-3)" opacity=".3" stroke-linecap="round" stroke-width="2.7444"/>
  <path d="m14.867 5.4861h6.6146c2.1987 0 3.9688 1.7701 3.9688 3.9687v6.6146c0 2.1987-1.7701 3.9688-3.9688 3.9688h-6.6146c-2.1987 0-3.9688-1.7701-3.9688-3.9688v-6.6146c0-2.1987 1.7701-3.9687 3.9688-3.9687z" color="#000000" color-rendering="auto" dominant-baseline="auto" fill="url(#linearGradient1053-7)" image-rendering="auto" shape-rendering="auto" solid-color="#000000" stop-color="#000000" style="font-feature-settings:normal;font-variant-alternates:normal;font-variant-caps:normal;font-variant-east-asian:normal;font-variant-ligatures:normal;font-variant-numeric:normal;font-variant-position:normal;font-variation-settings:normal;inline-size:0;isolation:auto;mix-blend-mode:normal;shape-margin:0;shape-padding:0;text-decoration-color:#000000;text-decoration-line:none;text-decoration-style:solid;text-indent:0;text-orientation:mixed;text-transform:none;white-space:normal"/>
  <g fill="#ab1157">
   <rect transform="matrix(.26458 0 0 .26458 9.7077 4.2955)" x="24" y="38.944" width="16" height="4" ry="2" filter="url(#filter1311-3)" style="paint-order:stroke fill markers"/>
   <rect transform="matrix(.18709 .18709 -.18709 .18709 48.456 1.3393)" x="-56.746" y="112.15" width="11" height="4" ry="2" filter="url(#filter1311-3)" style="paint-order:stroke fill markers"/>
   <rect transform="matrix(-.18709 .18709 .18709 .18709 48.456 1.3392)" x="105.15" y="-49.746" width="11" height="4" ry="2" filter="url(#filter1311-3)" style="paint-order:stroke fill markers"/>
   <rect transform="matrix(0 -.26458 .26458 0 48.455 1.3392)" x="-48.953" y="-116.47" width="16" height="4" ry="2" filter="url(#filter1311-3)" style="paint-order:stroke fill markers"/>
  </g>
  <g fill="#fff" stroke-width=".26458">
   <rect x="16.058" y="14.384" width="4.2333" height="1.0583" ry=".52917" style="paint-order:stroke fill markers"/>
   <rect transform="rotate(45)" x="20.044" y="-3.7971" width="2.9104" height="1.0583" ry=".52917" style="paint-order:stroke fill markers"/>
   <rect transform="matrix(-.70711 .70711 .70711 .70711 0 0)" x="-5.6491" y="21.896" width="2.9104" height="1.0583" ry=".52917" style="paint-order:stroke fill markers"/>
   <rect transform="rotate(-90)" x="-14.076" y="17.639" width="4.2333" height="1.0583" ry=".52917" style="paint-order:stroke fill markers"/>
  </g>
 </g>
</svg>
