<?xml version="1.0" encoding="UTF-8"?>
<svg width="64" height="64" version="1.1" xmlns="http://www.w3.org/2000/svg" xmlns:cc="http://creativecommons.org/ns#" xmlns:dc="http://purl.org/dc/elements/1.1/" xmlns:rdf="http://www.w3.org/1999/02/22-rdf-syntax-ns#">
 <metadata>
  <rdf:RDF>
   <cc:Work rdf:about="">
    <dc:format>image/svg+xml</dc:format>
    <dc:type rdf:resource="http://purl.org/dc/dcmitype/StillImage"/>
    <dc:title/>
   </cc:Work>
  </rdf:RDF>
 </metadata>
 <defs>
  <filter id="a" x="-.103" y="-.068" width="1.235" height="1.189">
   <feOffset dx="0" dy="1" in="SourceAlpha" result="shadowOffsetOuter1"/>
   <feGaussianBlur in="shadowOffsetOuter1" result="shadowBlurOuter1" stdDeviation="1"/>
   <feComposite in="shadowBlurOuter1" in2="SourceAlpha" operator="out" result="shadowBlurOuter1"/>
   <feColorMatrix in="shadowBlurOuter1" result="shadowMatrixOuter1" values="0 0 0 0 0   0 0 0 0 0   0 0 0 0 0  0 0 0 0.2 0"/>
   <feMerge>
    <feMergeNode in="shadowMatrixOuter1"/>
    <feMergeNode in="SourceGraphic"/>
   </feMerge>
  </filter>
  <filter id="filter1057-2" x="-.048" y="-.048" width="1.096" height="1.096" color-interpolation-filters="sRGB">
   <feGaussianBlur stdDeviation="1.1"/>
  </filter>
  <linearGradient id="linearGradient1053-3" x1="-127" x2="-72" y1="60" y2="5" gradientTransform="matrix(1 0 0 1 131.5 -.51062)" gradientUnits="userSpaceOnUse">
   <stop stop-color="#dee0e2" offset="0"/>
   <stop stop-color="#f1f3f5" stop-opacity=".99608" offset="1"/>
  </linearGradient>
 </defs>
 <rect transform="matrix(1 0 0 1 -.00022771 -.00022771)" x="4.5" y="4.5" width="55" height="55" ry="15" fill="#141414" filter="url(#filter1057-2)" opacity=".3" stroke-linecap="round" stroke-width="2.7444"/>
 <rect x="4.4996" y="4.4996" width="55.001" height="55.001" ry="15" fill="url(#linearGradient1053-3)" stroke-linecap="round" stroke-width="2.7444"/>
 <g transform="translate(7.5277 8.39)" fill="none">
  <g transform="translate(4,4)">
   <g id="ulauncher" transform="translate(3,2)">
    <g transform="translate(24.049)" fill="#599ccd">
     <path id="Shape" d="m0.37566 19.497v-14.974l9.0009-3.8102v19.4c0 2.34-9.0009 2.6114-9.0009-0.61996z"/>
    </g>
    <g transform="translate(4.9756,5.7556)" fill="#7ec183">
     <path d="m11.874 30.643c-2.8162 0-5.2534-0.39384-7.3025-1.1791s-2.6288-2.2628-3.9067-3.6153c-0.6858-0.72191 5.7087 0.42262 9.9695-0.50649 4.09-0.84442 6.0628-3.6416 6.7436-4.3076 1.3807-1.3484 2.0657-3.6375 2.0657-6.8688v-13.83c3.7118 1.4356 8.3972 6.336 9.0017 11.658v2.7882c0 2.3392-0.32756 4.486-0.98351 6.4372s-1.6627 3.6285-3.0127 5.0221c-1.3559 1.3986-3.0716 2.4798-5.1597 3.2437-2.0873 0.7696-4.5577 1.1478-7.4211 1.1478z"/>
    </g>
    <g transform="translate(0,10.689)" fill="#4675ab">
     <path d="m22 16.944c-0.85083 1.605-4.7708 6.4216-12.269 7.1805l-1.0822 0.02796c-1.6486-0.74658-3.0418-1.7094-4.1712-2.8959-1.3335-1.3978-2.3178-3.0628-2.9522-4.9975-0.63937-1.9347-0.95863-4.0725-0.95863-6.4076v-5.4365l9.0017-3.9664v8.7863c0 1.6181 0.18327 2.9954 0.55395 4.1284 0.36571 1.1355 0.87322 2.0556 1.5167 2.7692 0.64351 0.71533 1.4189 1.2251 2.3302 1.5293 0.9122 0.30833 1.9131 0.46127 2.9995 0.46127 2.2117 0 4.0087-0.67669 5.3902-2.0235l-0.35493 0.84442z"/>
    </g>
   </g>
  </g>
  <g transform="translate(7,6)" filter="url(#a)">
   <g transform="translate(24.049)" fill="#599ccd">
    <path d="m0.37566 19.497v-14.974l9.0009-3.8102v19.4c0 2.34-9.0009 2.6114-9.0009-0.61996z"/>
   </g>
   <g transform="translate(4.9756,5.7556)" fill="#7ec183">
    <path d="m11.874 30.643c-2.8162 0-5.2534-0.39384-7.3025-1.1791s-2.6288-2.2628-3.9067-3.6153c-0.6858-0.72191 5.7087 0.42262 9.9695-0.50649 4.09-0.84442 6.0628-3.6416 6.7436-4.3076 1.3807-1.3484 2.0657-3.6375 2.0657-6.8688v-13.83c3.7118 1.4356 8.3972 6.336 9.0017 11.658v2.7882c0 2.3392-0.32756 4.486-0.98351 6.4372s-1.6627 3.6285-3.0127 5.0221c-1.3559 1.3986-3.0716 2.4798-5.1597 3.2437-2.0873 0.7696-4.5577 1.1478-7.4211 1.1478z"/>
   </g>
   <g transform="translate(0,10.689)" fill="#4675ab">
    <path d="m22 16.944c-0.85083 1.605-4.7708 6.4216-12.269 7.1805l-1.0822 0.02796c-1.6486-0.74658-3.0418-1.7094-4.1712-2.8959-1.3335-1.3978-2.3178-3.0628-2.9522-4.9975-0.63937-1.9347-0.95863-4.0725-0.95863-6.4076v-5.4365l9.0017-3.9664v8.7863c0 1.6181 0.18327 2.9954 0.55395 4.1284 0.36571 1.1355 0.87322 2.0556 1.5167 2.7692 0.64351 0.71533 1.4189 1.2251 2.3302 1.5293 0.9122 0.30833 1.9131 0.46127 2.9995 0.46127 2.2117 0 4.0087-0.67669 5.3902-2.0235l-0.35493 0.84442z"/>
   </g>
  </g>
 </g>
</svg>
