<?xml version="1.0" encoding="UTF-8"?>
<svg width="64" height="64" version="1.1" viewBox="0 0 64 64" xmlns="http://www.w3.org/2000/svg" xmlns:xlink="http://www.w3.org/1999/xlink">
 <defs>
  <filter id="filter1057-2" x="-.027" y="-.027" width="1.054" height="1.054" color-interpolation-filters="sRGB">
   <feGaussianBlur stdDeviation="0.61875"/>
  </filter>
  <linearGradient id="linearGradient1053-5" x1="-127" x2="-72" y1="60" y2="5" gradientTransform="translate(220.8 25.8)" gradientUnits="userSpaceOnUse">
   <stop stop-color="#32d7ff" offset="0"/>
   <stop stop-color="#329bff" offset="1"/>
  </linearGradient>
 </defs>
 <g transform="translate(1,1)">
  <g opacity=".1">
   <!-- color: #3a569c --></g>
 </g>
 <g transform="translate(-89.304 -26.31)" stroke-linecap="round">
  <rect x="93.804" y="30.81" width="55" height="55" ry="15" fill="#141414" filter="url(#filter1057-2)" opacity=".3" stroke-width="2.7444"/>
  <rect x="93.804" y="30.81" width="55" height="55" ry="15" fill="url(#linearGradient1053-5)" stroke-width="2.7444"/>
  <path d="m121.55 40.81c-0.19951 3.55e-4 -0.38399 0.08717-0.47617 0.22988l-3.4481 5.3396c-0.0856 0.13303-0.0801 0.29519 0.0164 0.42363 0.0969 0.12884 0.2702 0.20662 0.45646 0.20689l1.7372 0.0033-0.0328 15.316-5.3758-2.9293 3e-3 -2.2955c0.83436-0.44343 1.3872-1.2069 1.3891-2.0722 3e-3 -1.373-1.3751-2.4874-3.0803-2.4892-1.702-0.0032-3.0834 1.1096-3.0869 2.4826-3e-3 0.86589 0.5467 1.6264 1.3792 2.0722l-6e-3 3.0278c-1e-3 0.45639 0.27887 0.88136 0.74873 1.1362l8.0226 4.3676-0.01 4.7223c-1.1314 0.48874-1.9089 1.4409-1.9112 2.5483-2e-3 1.6051 1.6076 2.9062 3.5992 2.9096 1.9939 0.0027 3.6122-1.294 3.6156-2.8997 3e-3 -1.1071-0.77528-2.0591-1.9047-2.5516l0.0197-8.9815 7.6482-4.1312c0.0918-0.0497 0.17608-0.10584 0.25286-0.16748 0.31592-0.25368 0.49855-0.60175 0.49916-0.96876l7e-3 -3.6222h0.66007c0.17954-1.07e-4 0.34914-0.05561 0.47617-0.15763 0.12694-0.10198 0.19964-0.23944 0.20031-0.38422l6e-3 -3.7995c1e-3 -0.30117-0.2996-0.54493-0.6732-0.54513l-4.7124-0.0065c-0.17955 1.07e-4 -0.35251 0.05892-0.47945 0.16091-0.12695 0.10202-0.19963 0.23949-0.20032 0.38422l-6e-3 3.7962c-2e-3 0.30085 0.30309 0.54525 0.67649 0.54513l0.65678 0.0033-6e-3 2.8931-4.9981 2.6994 0.023-11.06 1.7405 0.0033c0.18636 2.58e-4 0.35662-0.07895 0.45318-0.20689 0.0974-0.12861 0.10529-0.28676 0.0197-0.42034l-3.4251-5.3528c-0.0918-0.14228-0.27359-0.22932-0.47288-0.22987z" fill="#fff" stroke-width="3.3627"/>
 </g>
</svg>
