<?xml version="1.0" encoding="UTF-8"?>
<svg width="64" height="64" version="1.1" viewBox="0 0 16.933 16.933" xmlns="http://www.w3.org/2000/svg" xmlns:cc="http://creativecommons.org/ns#" xmlns:dc="http://purl.org/dc/elements/1.1/" xmlns:rdf="http://www.w3.org/1999/02/22-rdf-syntax-ns#" xmlns:xlink="http://www.w3.org/1999/xlink">
 <metadata>
  <rdf:RDF>
   <cc:Work rdf:about="">
    <dc:format>image/svg+xml</dc:format>
    <dc:type rdf:resource="http://purl.org/dc/dcmitype/StillImage"/>
   </cc:Work>
  </rdf:RDF>
 </metadata>
 <defs>
  <filter id="filter1057-3" x="-.027" y="-.027" width="1.054" height="1.054" color-interpolation-filters="sRGB">
   <feGaussianBlur stdDeviation="0.61875"/>
  </filter>
  <linearGradient id="linearGradient1286" x1="-91.474" x2="-52.626" y1="59.73" y2="20.882" gradientTransform="matrix(.26458 0 0 .26458 22.133 2.6935)" gradientUnits="userSpaceOnUse">
   <stop stop-color="#2f113d" offset="0"/>
   <stop stop-color="#5b2177" offset="1"/>
  </linearGradient>
 </defs>
 <g fill="#5e4aa6" stroke-width=".26458">
  <circle cx="-330.38" cy="-328.37" r="0"/>
  <circle cx="-312.55" cy="-328.38" r="0"/>
  <circle cx="-295.13" cy="-341.25" r="0"/>
 </g>
 <g transform="translate(3.3289 -2.6935)">
  <g stroke-linecap="round">
   <rect transform="matrix(.26458 0 0 .26458 -2.5312 3.4912)" x="1.485" y="1.485" width="55" height="55" ry="15" fill="#141414" filter="url(#filter1057-3)" opacity=".3" stroke-width="2.7444"/>
   <path d="m2.8959 3.8841c-0.66532 0-1.235 0.018667-1.7389 0.060977-1.604 0.27253-2.8749 1.497-3.2085 3.0788-3.41e-5 3.212e-4 3.31e-5 7.154e-4 0 0.00103-0.06492 0.62188-0.086815 1.3632-0.086815 2.2468v3.7764c0 0.88364 0.021885 1.625 0.086815 2.2468 3.31e-5 3.22e-4 -3.41e-5 7.47e-4 0 1e-3 0.33366 1.5819 1.6045 2.8063 3.2085 3.0788 0.5039 0.0423 1.0736 0.06098 1.7389 0.06098h4.4834c0.6653 0 1.235-0.01867 1.7389-0.06098 1.604-0.27253 2.8749-1.497 3.2085-3.0788 6.9e-5 -3.29e-4 -7.1e-5 -7.39e-4 0-1e-3 0.06492-0.62188 0.08681-1.3632 0.08681-2.2468v-3.7764c0-0.88364-0.02189-1.625-0.08681-2.2468-7.1e-5 -3.289e-4 6.9e-5 -7.086e-4 0-0.00103-0.33367-1.5819-1.6045-2.8063-3.2085-3.0788-0.5039-0.04231-1.0736-0.060977-1.7389-0.060977z" fill="url(#linearGradient1286)" stroke-width=".52916"/>
   <circle cx="5.1376" cy="11.16" r="4.2333" fill="#642c68" stroke-width=".63285"/>
  </g>
  <path d="m2.4921 12.789c0 0.56153 0.45571 1.0172 1.0172 1.0172 0.56198 0 1.0176-0.45557 1.0176-1.0176 0-0.18156-0.056584-0.34848-0.13992-0.49606l0.75069-0.80162 0.75043 0.80129c-0.083332 0.14758-0.13992 0.31449-0.13992 0.49606 0 0.56153 0.45571 1.0172 1.0179 1.0172 0.56153 0 1.0172-0.45571 1.0172-1.0172 0-0.56198-0.45557-1.0176-1.0176-1.0176-0.09327 0-0.18129 0.01465-0.26711 0.03814l-0.83945-0.86493 1.7171-1.8189v-0.61053h-0.40701l-3.1926 3.2943c-0.08582-0.02352-0.17383-0.03813-0.26711-0.03813-0.56219 0-1.0179 0.45571-1.0179 1.0179zm0.61052 0c0-0.22479 0.18223-0.40701 0.40701-0.40701s0.40701 0.18223 0.40701 0.40701-0.18223 0.40701-0.40701 0.40701-0.40701-0.18223-0.40701-0.40701zm-0.20351-3.6631 1.5137 1.6027 0.52149-0.5342-1.628-1.679h-0.40701zm3.4597 3.6631c0-0.22479 0.18223-0.40701 0.40701-0.40701 0.22479 0 0.40701 0.18223 0.40701 0.40701s-0.18223 0.40701-0.40701 0.40701c-0.22479 0-0.40701-0.18223-0.40701-0.40701z" fill="#fff" stroke-width=".3307"/>
 </g>
</svg>
