<?xml version="1.0" encoding="UTF-8"?>
<svg width="64" height="64" version="1.1" viewBox="0 0 16.933 16.933" xmlns="http://www.w3.org/2000/svg" xmlns:cc="http://creativecommons.org/ns#" xmlns:dc="http://purl.org/dc/elements/1.1/" xmlns:rdf="http://www.w3.org/1999/02/22-rdf-syntax-ns#" xmlns:xlink="http://www.w3.org/1999/xlink">
 <metadata>
  <rdf:RDF>
   <cc:Work rdf:about="">
    <dc:format>image/svg+xml</dc:format>
    <dc:type rdf:resource="http://purl.org/dc/dcmitype/StillImage"/>
   </cc:Work>
  </rdf:RDF>
 </metadata>
 <defs>
  <filter id="filter1057-2" x="-.027" y="-.027" width="1.054" height="1.054" color-interpolation-filters="sRGB">
   <feGaussianBlur stdDeviation="0.61875"/>
  </filter>
  <linearGradient id="linearGradient1053-9" x1="-127" x2="-72" y1="60" y2="5" gradientTransform="matrix(.26458 0 0 .26458 37.286 6.3261)" gradientUnits="userSpaceOnUse">
   <stop stop-color="#02db96" offset="0"/>
   <stop stop-color="#13d39b" offset="1"/>
  </linearGradient>
  <filter id="g" x="-.053572" y="-.068181" width="1.1071" height="1.1364" color-interpolation-filters="sRGB">
   <feGaussianBlur stdDeviation="0.81521739"/>
  </filter>
  <linearGradient id="linearGradient1851" x1="32" x2="32" y1="17.652" y2="46.348" gradientTransform="matrix(.26458 0 0 .26458 2.494 6.4611)" gradientUnits="userSpaceOnUse">
   <stop stop-color="#fbfbfb" offset="0"/>
   <stop stop-color="#c4e4de" offset="1"/>
  </linearGradient>
 </defs>
 <g fill="#5e4aa6" stroke-width=".26458">
  <circle cx="-330.38" cy="-328.37" r="0"/>
  <circle cx="-312.55" cy="-328.38" r="0"/>
  <circle cx="-295.13" cy="-341.25" r="0"/>
 </g>
 <g transform="translate(-2.4937 -6.4611)">
  <rect transform="matrix(.26458 0 0 .26458 2.4937 6.4611)" x="4.5" y="4.5" width="55" height="55" ry="15" fill="#141414" filter="url(#filter1057-2)" opacity=".3" stroke-linecap="round" stroke-width="2.7444"/>
  <rect x="3.6843" y="7.6517" width="14.552" height="14.552" ry="3.9687" fill="url(#linearGradient1053-9)" stroke-linecap="round" stroke-width=".7261"/>
  <path d="m10.961 10.096 4.8315 4.8315-4.8315 4.8315-4.8315-4.8315z" opacity=".25" stroke-width=".26458"/>
  <path transform="matrix(.26458 0 0 .26458 2.4937 6.4611)" d="m14.392 17.652-0.65217 0.65217v1.3043l0.65217 0.65217h1.9565v25.435l0.65218 0.65217h1.9565l28.696-26.739v-1.3043l-0.65217-0.65217h-11.739l-0.65218 0.65217v1.3043l0.65218 0.65217h1.9565v1.3043l-14.348 13.043v-14.348h1.9565l0.65218-0.65217v-1.3043l-0.65218-0.65217zm20.08 15.652-0.92479 0.65217-0.43826 1.3043 0.48913 0.65217h1.4113l0.92478-0.65217 0.43565-1.3043-0.48652-0.65217m-4.7948 3.913-0.39261 1.3043h1.1739l-2.4783 6.5217h3.913l0.48131-1.3043h-1.1335l2.4783-6.5217m1.5639 0-0.45652 1.3043h0.97826l-2.4783 6.5217h3.3274l0.45653-1.3043h-0.7187l1.3709-3.913h2.7717l-1.86 5.2174h3.2609l0.52174-1.3043h-0.71609l1.3683-3.913h2.6087l-1.8261 5.2174h3.4187l0.59869-1.3043h-0.91174l1.8522-5.2174-1.0448-1.3043h-1.5639l-1.3044 1.3043h-1.1087l-1.11-1.3043h-1.2378l-1.2391 1.3043h-1.3044l-1.1739-1.3043" filter="url(#g)" opacity=".25"/>
  <path d="m6.3016 11.131-0.17255 0.17255v0.34509l0.17255 0.17255h0.51765v6.7295l0.17255 0.17255h0.51765l7.5923-7.0746v-0.34509l-0.17255-0.17255h-3.1059l-0.17255 0.17255v0.34509l0.17255 0.17255h0.51765v0.34509l-3.7962 3.4509v-3.7962h0.51765l0.17255-0.17255v-0.34509l-0.17255-0.17255zm5.3127 4.1412-0.24468 0.17255-0.11595 0.34509 0.12941 0.17255h0.3734l0.24468-0.17255 0.11526-0.34509-0.12872-0.17255m-1.2686 1.0353-0.10388 0.34509h0.31059l-0.6557 1.7255h1.0353l0.12734-0.34509h-0.2999l0.6557-1.7255m0.41377 0-0.12078 0.34509h0.25883l-0.6557 1.7255h0.88036l0.12079-0.34509h-0.19015l0.36271-1.0353h0.73333l-0.49212 1.3804h0.86276l0.13804-0.34509h-0.18946l0.36202-1.0353h0.6902l-0.48315 1.3804h0.90451l0.1584-0.34509h-0.24123l0.49005-1.3804-0.27643-0.34509h-0.41377l-0.34512 0.34509h-0.29334l-0.29368-0.34509h-0.32749l-0.32784 0.34509h-0.34512l-0.31059-0.34509" fill="url(#linearGradient1851)" stroke-width=".26458"/>
 </g>
</svg>
