<?xml version="1.0" encoding="UTF-8"?>
<svg width="64" height="64" version="1.1" viewBox="0 0 16.933 16.933" xmlns="http://www.w3.org/2000/svg" xmlns:cc="http://creativecommons.org/ns#" xmlns:dc="http://purl.org/dc/elements/1.1/" xmlns:rdf="http://www.w3.org/1999/02/22-rdf-syntax-ns#" xmlns:xlink="http://www.w3.org/1999/xlink">
 <metadata>
  <rdf:RDF>
   <cc:Work rdf:about="">
    <dc:format>image/svg+xml</dc:format>
    <dc:type rdf:resource="http://purl.org/dc/dcmitype/StillImage"/>
   </cc:Work>
  </rdf:RDF>
 </metadata>
 <defs>
  <filter id="filter1057-27" x="-.027" y="-.027" width="1.054" height="1.054" color-interpolation-filters="sRGB">
   <feGaussianBlur stdDeviation="0.61875"/>
  </filter>
  <linearGradient id="linearGradient1053-93" x1="-127" x2="-72" y1="60" y2="5" gradientTransform="matrix(.26458 0 0 .26458 38.941 4.0998)" gradientUnits="userSpaceOnUse">
   <stop stop-color="#dee0e2" offset="0"/>
   <stop stop-color="#f1f3f5" stop-opacity=".99608" offset="1"/>
  </linearGradient>
  <filter id="filter929" x="-.076235" y="-.18514" width="1.1525" height="1.3703" color-interpolation-filters="sRGB">
   <feGaussianBlur stdDeviation="1.62"/>
  </filter>
  <linearGradient id="linearGradient2800" x1="428.37" x2="428.37" y1="530.8" y2="525.8" gradientTransform="matrix(1.1339 0 0 1.1112 -477.22 -574.48)" gradientUnits="userSpaceOnUse">
   <stop stop-color="#da4453" offset="0"/>
   <stop stop-color="#fa4e5f" offset="1"/>
  </linearGradient>
  <linearGradient id="linearGradient2802" x1="29" x2="29" y1="17" y2="31" gradientTransform="matrix(.39687 0 0 .39687 2.9585 3.0442)" gradientUnits="userSpaceOnUse">
   <stop stop-color="#31363b" offset="0"/>
   <stop stop-color="#4d4d4d" offset="1"/>
  </linearGradient>
  <linearGradient id="linearGradient2804" x1="26" x2="26" y1="17" y2="31" gradientTransform="matrix(.39687 0 0 .39687 2.9585 3.0442)" gradientUnits="userSpaceOnUse">
   <stop stop-color="#7f8c8d" offset="0"/>
   <stop stop-color="#afb0b3" offset="1"/>
  </linearGradient>
  <linearGradient id="linearGradient2806" x1="32" x2="32" y1="31" y2="17" gradientTransform="matrix(.39687 0 0 .39687 2.9585 3.0442)" gradientUnits="userSpaceOnUse">
   <stop stop-color="#afb0b3" offset="0"/>
   <stop stop-color="#bdc3c7" offset="1"/>
  </linearGradient>
  <linearGradient id="linearGradient2808" x1="34" x2="34" y1="31" y2="17" gradientTransform="matrix(.39687 0 0 .39687 2.9585 3.0442)" gradientUnits="userSpaceOnUse">
   <stop stop-color="#4d4d4d" offset="0"/>
   <stop stop-color="#585858" offset="1"/>
  </linearGradient>
 </defs>
 <g fill="#5e4aa6" stroke-width=".26458">
  <circle cx="-330.38" cy="-328.37" r="0"/>
  <circle cx="-312.55" cy="-328.38" r="0"/>
  <circle cx="-295.13" cy="-341.25" r="0"/>
 </g>
 <g transform="translate(-4.1491 -4.2348)">
  <rect transform="matrix(.26458 0 0 .26458 4.1493 4.2348)" x="4.5" y="4.5" width="55" height="55" ry="15" fill="#141414" filter="url(#filter1057-27)" opacity=".3" stroke-linecap="round" stroke-width="2.7444"/>
  <rect x="5.3399" y="5.4254" width="14.552" height="14.552" ry="3.9687" fill="url(#linearGradient1053-93)" stroke-linecap="round" stroke-width=".7261"/>
  <path transform="matrix(.26458 0 0 .26458 4.1493 4.2348)" d="m6.4992 22.103 7.5 21h13.5l3-8.4004 3 8.4004h9l3-8.4004 3 8.4004h9l-7.5-21h-9l-3 8.4004-3-8.4004h-13.5l-5.25 15-5.25-15z" filter="url(#filter929)" opacity=".25" stroke-width="1.5"/>
  <g stroke-width=".39687">
   <path d="m5.7366 9.7909h1.1906l1.389 3.9687 1.389-3.9687h1.1906l-1.9843 5.5561-1.1906-2.6e-5z" fill="url(#linearGradient2800)"/>
   <path d="m10.102 15.347 1.9843-5.5561h1.1906l-1.9843 5.5561zm3.9687 0 1.9843-5.5561h1.1906l-1.9843 5.5561z" fill="url(#linearGradient2802)"/>
   <path d="m8.9115 15.347 1.9843-5.5561h1.1906l-1.9843 5.5561zm3.9687 0 1.9843-5.5561h1.1906l-1.9843 5.5561z" fill="url(#linearGradient2804)"/>
   <path d="m14.071 15.347h-1.1906l-1.9843-5.5561h1.1906zm3.9687 0h-1.1906l-1.9843-5.5561h1.1906z" fill="url(#linearGradient2806)"/>
   <path d="m12.086 9.7909 1.9843 5.5561h1.1906l-1.9843-5.5561zm3.9687 0 1.9843 5.5561h1.1906l-1.9843-5.5561z" fill="url(#linearGradient2808)"/>
  </g>
 </g>
</svg>
