<?xml version="1.0" encoding="UTF-8"?>
<svg width="64" height="64" version="1.1" viewBox="0 0 16.933 16.933" xmlns="http://www.w3.org/2000/svg" xmlns:cc="http://creativecommons.org/ns#" xmlns:dc="http://purl.org/dc/elements/1.1/" xmlns:rdf="http://www.w3.org/1999/02/22-rdf-syntax-ns#" xmlns:xlink="http://www.w3.org/1999/xlink">
 <defs>
  <filter id="filter1208" x="-.07843" y="-.071857" width="1.1569" height="1.1437" color-interpolation-filters="sRGB">
   <feGaussianBlur stdDeviation="0.4323125"/>
  </filter>
  <filter id="filter1057-4-7" x="-.027" y="-.027" width="1.054" height="1.054" color-interpolation-filters="sRGB">
   <feGaussianBlur stdDeviation="0.61875"/>
  </filter>
  <linearGradient id="linearGradient1053-5-5" x1="-127" x2="-72" y1="60" y2="5" gradientTransform="matrix(.2646 0 0 .2646 34.795 -.13542)" gradientUnits="userSpaceOnUse">
   <stop stop-color="#32d7ff" offset="0"/>
   <stop stop-color="#329bff" offset="1"/>
  </linearGradient>
 </defs>
 <metadata>
  <rdf:RDF>
   <cc:Work rdf:about="">
    <dc:format>image/svg+xml</dc:format>
    <dc:type rdf:resource="http://purl.org/dc/dcmitype/StillImage"/>
    <dc:title/>
   </cc:Work>
  </rdf:RDF>
 </metadata>
 <rect transform="matrix(.2646 0 0 .2646 -.00038019 -.0003802)" x="4.5" y="4.5" width="55" height="55" ry="15" fill="#141414" filter="url(#filter1057-4-7)" opacity=".3" stroke-linecap="round" stroke-width="2.7444"/>
 <rect x="1.1905" y="1.1902" width="14.552" height="14.552" ry="3.9689" fill="url(#linearGradient1053-5-5)" stroke-linecap="round" stroke-width=".72613"/>
 <g transform="translate(-1.9277 -1.3607)">
  <g fill="#0087ff">
   <g fill-rule="evenodd" stroke-width=".015243">
    <path transform="matrix(.70001 0 0 .70001 4.4656 3.8135)" d="m8.4658 15.671 6.6152-3.7386-0.04503-7.0332-6.5701 3.6002z" filter="url(#filter1208)" opacity=".6"/>
    <path transform="matrix(.70001 0 0 .70001 4.4656 3.8135)" d="m8.4672 15.686-6.6152-3.7386 0.045025-7.0332 6.5701 3.6002z" filter="url(#filter1208)" opacity=".3"/>
    <path transform="matrix(.70001 0 0 .70001 4.4656 3.8135)" d="m1.878 4.9333 6.6205-3.6863 6.5618 3.6878-6.5973 3.6146z" filter="url(#filter1208)"/>
   </g>
   <path transform="matrix(.70001 0 0 .70001 4.4656 3.8135)" d="m9.4829 5.2897c-0.051527 0.044681-0.14489 0.050032-0.20844 0.011627l-0.70395-0.4256c-0.057483-0.034751-0.071673-0.093824-0.032627-0.13855l0.60212-0.70525-2.1207 1.4692c-0.050056 0.034525-0.12916 0.038571-0.18765 0.00807-0.00344-0.00178-0.00641-0.0032-0.00985-0.00534-0.051323-0.031038-0.069143-0.082186-0.041974-0.12573l0.70895-1.1658-0.93877 0.2713c-0.056427 0.016385-0.12357 0.00653-0.16478-0.02698-0.042914-0.032769-0.053627-0.080369-0.027858-0.12004l0.40426-0.6147-0.86581-0.52345c-0.063261-0.038197-0.07299-0.10597-0.021522-0.15059 0.051705-0.044829 0.1453-0.049788 0.20853-0.011556l0.95538 0.57763c0.052678 0.031851 0.069763 0.085154 0.040742 0.12891l-0.28859 0.43888 0.92318-0.26653c0.05581-0.016515 0.12159-7e-3 0.16307 0.025497 0.042617 0.031702 0.054837 0.07859 0.031405 0.11841l-0.55304 0.9093 2.427-1.6807c0.052868-0.03685 0.13647-0.038571 0.19555-0.00394 0.060188 0.042972 0.073132 0.09461 0.034442 0.13999l-1.1542 1.3504 0.60392 0.36512c0.06332 0.038334 0.072669 0.10582 0.021202 0.15045zm0.70171 0.28666-0.36361-0.21983c-0.06319-0.038203-0.15702-0.033042-0.20849 0.011627-0.051527 0.044681-0.041739 0.1124 0.021451 0.1506l0.36361 0.21983c0.063059 0.038132 0.15695 0.033102 0.20849-0.011627 0.0515-0.044657 0.04162-0.11247-0.02145-0.1506zm0.78297 0.47337-0.38695-0.23394c-0.06306-0.038132-0.15702-0.033042-0.20848 0.011627-0.05154 0.044681-0.04162 0.11247 0.02145 0.1506l0.38695 0.23394c0.06302 0.038096 0.15695 0.033102 0.20848-0.011627 0.0515-0.044657 0.04157-0.1125-0.02145-0.1506z" filter="url(#filter1208)" stroke-width=".044893"/>
  </g>
  <g fill-rule="evenodd" stroke-width=".01067">
   <path d="m10.392 14.783 4.6307-2.6171-0.03152-4.9233-4.5992 2.5202z" fill="#fff" opacity=".6"/>
   <path d="m10.393 14.794-4.6307-2.6171 0.031518-4.9233 4.5992 2.5202z" fill="#fffeff" opacity=".3"/>
   <path d="m5.7803 7.2669 4.6344-2.5805 4.5934 2.5815-4.6182 2.5303z" fill="#fafafa"/>
  </g>
  <path d="m11.104 7.5164c-0.03607 0.031278-0.10142 0.035023-0.14591 0.00814l-0.49278-0.29793c-0.04024-0.024326-0.05017-0.065678-0.02284-0.096987l0.42149-0.49368-1.4845 1.0285c-0.03504 0.024168-0.090414 0.027001-0.13136 0.00565-0.00241-0.00125-0.00449-0.00224-0.0069-0.00374-0.035927-0.021727-0.048401-0.057531-0.029383-0.088013l0.49628-0.81608-0.65715 0.18991c-0.0395 0.011469-0.086501 0.00457-0.11535-0.018886-0.030041-0.022938-0.03754-0.056259-0.019501-0.08403l0.28299-0.4303-0.60608-0.36642c-0.044284-0.026739-0.051094-0.07418-0.015065-0.10542 0.036195-0.031381 0.10171-0.034853 0.14597-0.00809l0.66878 0.40435c0.036876 0.022296 0.048835 0.059609 0.02852 0.090239l-0.20202 0.30722 0.64624-0.18657c0.039068-0.01156 0.085115-0.0049 0.11415 0.017848 0.029833 0.022191 0.038387 0.055014 0.021985 0.082889l-0.38714 0.63652 1.6989-1.1765c0.03701-0.025796 0.09553-0.027001 0.13689-0.00276 0.04213 0.030081 0.05119 0.066228 0.02411 0.097995l-0.80796 0.9453 0.42275 0.25559c0.04432 0.026835 0.05087 0.074076 0.01484 0.10532zm0.49121 0.20067-0.25453-0.15388c-0.04423-0.026743-0.10992-0.023129-0.14595 0.00814-0.03607 0.031278-0.02922 0.078681 0.01502 0.10542l0.25453 0.15388c0.04414 0.026692 0.10987 0.023171 0.14594-0.00814 0.03605-0.031261 0.02914-0.07873-0.01502-0.10542zm0.54809 0.33137-0.27087-0.16376c-0.04414-0.026693-0.10992-0.023129-0.14594 0.00814-0.03608 0.031278-0.02913 0.07873 0.01501 0.10542l0.27087 0.16376c0.04411 0.026667 0.10987 0.023172 0.14594-0.00814 0.03605-0.031261 0.0291-0.078751-0.01501-0.10542z" fill="#11a7ff" stroke-width=".031426"/>
 </g>
</svg>
