<?xml version="1.0" encoding="UTF-8"?>
<svg width="64" height="64" version="1.1" viewBox="0 0 16.933 16.933" xmlns="http://www.w3.org/2000/svg" xmlns:cc="http://creativecommons.org/ns#" xmlns:dc="http://purl.org/dc/elements/1.1/" xmlns:rdf="http://www.w3.org/1999/02/22-rdf-syntax-ns#">
 <metadata>
  <rdf:RDF>
   <cc:Work rdf:about="">
    <dc:format>image/svg+xml</dc:format>
    <dc:type rdf:resource="http://purl.org/dc/dcmitype/StillImage"/>
   </cc:Work>
  </rdf:RDF>
 </metadata>
 <defs>
  <filter id="filter1057-2" x="-.027" y="-.027" width="1.054" height="1.054" color-interpolation-filters="sRGB">
   <feGaussianBlur stdDeviation="0.61875"/>
  </filter>
  <linearGradient id="linearGradient1053-9-9" x1="-127" x2="-72" y1="60" y2="5" gradientTransform="matrix(.26458 0 0 .26458 34.792 -.1351)" gradientUnits="userSpaceOnUse">
   <stop stop-color="#02db96" offset="0"/>
   <stop stop-color="#13d39b" offset="1"/>
  </linearGradient>
 </defs>
 <rect transform="matrix(.26458 0 0 .26458 -6.0163e-5 -6.0163e-5)" x="4.5" y="4.5" width="55" height="55" ry="15" fill="#141414" filter="url(#filter1057-2)" opacity=".3" stroke-linecap="round" stroke-width="2.7444"/>
 <rect x="1.1905" y="1.1905" width="14.552" height="14.552" ry="3.9687" fill="url(#linearGradient1053-9-9)" stroke-linecap="round" stroke-width=".7261"/>
 <g fill="#5e4aa6" stroke-width=".26458">
  <circle cx="-330.38" cy="-328.37" r="0"/>
  <circle cx="-312.55" cy="-328.38" r="0"/>
  <circle cx="-295.13" cy="-341.25" r="0"/>
 </g>
 <g transform="translate(0 -.0071586)" fill="#fff" fill-rule="evenodd" stroke-width=".26458">
  <path d="m10.377 4.2539c-0.09052 0.010099-0.17861 0.0411-0.26665 0.0992 0.13773 0.17144-0.1403 1.7855 0.20786 2.004l0.2717 0.17053v3.8923l-0.4268 0.31978c-0.32896 0.24647 0.02978 1.6662-0.05651 1.8488 0.09533 0.0582 0.23775 0.1203 0.36237 0.10514 0.03992-5e-3 0.08033-0.016 0.12041-0.0356l1.7369-0.85164c0.18929-0.0928 0.38034-0.16954 0.38034-0.38034v-5.9044c0-0.21081-0.19104-0.28758-0.38034-0.38034l-1.7369-0.85164c-0.04007-0.0196-0.08048-0.0308-0.12041-0.0357-0.03116-4e-3 -0.06181-3e-3 -0.09199 0z" style="paint-order:stroke fill markers"/>
  <path d="m4.3503 9.6639 5.6512-5.2229c0.25657-0.23713 0.58888-0.15304 0.58888 0.33742v1.7579l-5.2245 3.9957c-0.09136 0.0718-0.32943 0.24314-0.53716 0.0456l-0.52856-0.50252c-0.1387-0.13187-0.05988-0.30962 0.0501-0.41127z" style="paint-order:stroke fill markers"/>
  <path d="m4.3503 7.2939 5.6512 5.2229c0.25657 0.23712 0.58888 0.15304 0.58888-0.33742v-1.7579l-5.2245-3.9957c-0.09136-0.0718-0.32943-0.24313-0.53716-0.0456l-0.52856 0.50252c-0.1387 0.13187-0.05988 0.30961 0.0501 0.41127z" style="paint-order:stroke fill markers"/>
 </g>
</svg>
