<?xml version="1.0" encoding="UTF-8"?>
<svg width="64" height="64" version="1.1" viewBox="0 0 16.933 16.933" xmlns="http://www.w3.org/2000/svg" xmlns:cc="http://creativecommons.org/ns#" xmlns:dc="http://purl.org/dc/elements/1.1/" xmlns:rdf="http://www.w3.org/1999/02/22-rdf-syntax-ns#">
 <defs>
  <filter id="filter1057" x="-.027" y="-.027" width="1.054" height="1.054" color-interpolation-filters="sRGB">
   <feGaussianBlur stdDeviation="0.61875"/>
  </filter>
  <linearGradient id="linearGradient980-7" x1="-17.007" x2="-2.455" y1="15.742" y2="1.1906" gradientTransform="translate(18.197 5.2975e-5)" gradientUnits="userSpaceOnUse">
   <stop stop-color="#ff8228" offset="0"/>
   <stop stop-color="#ff7346" offset=".49173"/>
   <stop stop-color="#ff8c55" offset="1"/>
  </linearGradient>
 </defs>
 <metadata>
  <rdf:RDF>
   <cc:Work rdf:about="">
    <dc:format>image/svg+xml</dc:format>
    <dc:type rdf:resource="http://purl.org/dc/dcmitype/StillImage"/>
   </cc:Work>
  </rdf:RDF>
 </metadata>
 <rect transform="matrix(.26458 0 0 .26458 -22.241 -1.4975)" x="88.562" y="10.16" width="55" height="55" ry="15" fill="#141414" filter="url(#filter1057)" opacity=".3" stroke-linecap="round" stroke-width="2.7444"/>
 <rect x="1.1906" y="1.1906" width="14.552" height="14.552" ry="3.9409" fill="url(#linearGradient980-7)" stroke-width=".26458"/>
 <path d="m7.0748 3.1749c-0.49117 0-0.88709 0.40028-0.88709 0.89487 0 0.34518 0.19547 0.64088 0.47903 0.79028l-0.28573 2.0403c-0.044824-0.00216-0.089024-0.00654-0.13446-0.00654-1.4739 0-2.6653 1.2021-2.6653 2.6858 0 1.4837 1.1946 2.6871 2.6653 2.6871 0.67512 0 1.2889-0.25461 1.758-0.67108l0.27111 1.0767c-0.1522 0.108-0.25181 0.28636-0.25181 0.4893 0 0.32931 0.26332 0.59637 0.59078 0.59637 0.32775 0 0.59139-0.26706 0.59139-0.59637 0-0.33087-0.26395-0.59762-0.59139-0.59762-0.02895 0-0.056651 0.0043-0.084351 0.0084l-0.30286-1.1999c0.42362-0.47592 0.68321-1.1028 0.68321-1.7929 0-0.015561-0.00217-0.030816-0.00244-0.046066l1.768-1.4663c0.26893 0.37289 0.70251 0.61692 1.1952 0.61692 0.81893 0 1.4804-0.66796 1.4804-1.4931 0-0.82328-0.66205-1.4912-1.4804-1.4912-0.81893 0-1.4804 0.66796-1.4804 1.4912 0 0.21726 0.04825 0.42238 0.13072 0.60852l-1.6456 1.3648c-0.083111-0.54004-0.32495-1.0256-0.6773-1.4085l0.19142-0.52042c0.092755 0.042332 0.19485 0.067543 0.30286 0.067543 0.40837 0 0.73924-0.33398 0.73924-0.74578 0-0.4118-0.33212-0.74547-0.73924-0.74547-0.40993 0-0.74111 0.33336-0.74111 0.74547 0 0.18427 0.06941 0.35141 0.17991 0.48152l-0.1768 0.4809c-0.35795-0.30192-0.79621-0.50797-1.2774-0.58734l0.27671-1.9787c0.039527 0.00529 0.078746 0.01214 0.11984 0.01214 0.49117 0 0.88864-0.4009 0.88864-0.89549s-0.39748-0.89487-0.88864-0.89487" fill="#fff" stroke-width=".31126"/>
</svg>
