<?xml version="1.0" encoding="UTF-8"?>
<svg id="Activity-Monitor" width="64" height="64" enable-background="new 0 0 1024 1024" image-rendering="optimizeSpeed" version="1.1" viewBox="0 0 64 64" xmlns="http://www.w3.org/2000/svg" xmlns:cc="http://creativecommons.org/ns#" xmlns:dc="http://purl.org/dc/elements/1.1/" xmlns:rdf="http://www.w3.org/1999/02/22-rdf-syntax-ns#">
 <defs>
  <filter id="filter1057-27" x="-.027" y="-.027" width="1.054" height="1.054" color-interpolation-filters="sRGB">
   <feGaussianBlur stdDeviation="0.61875"/>
  </filter>
  <linearGradient id="linearGradient1053-93" x1="-127" x2="-72" y1="60" y2="5" gradientTransform="translate(131.5 -.51072)" gradientUnits="userSpaceOnUse">
   <stop stop-color="#dee0e2" offset="0"/>
   <stop stop-color="#f1f3f5" stop-opacity=".99608" offset="1"/>
  </linearGradient>
 </defs>
 <metadata>
  <rdf:RDF>
   <cc:Work rdf:about="">
    <dc:format>image/svg+xml</dc:format>
    <dc:type rdf:resource="http://purl.org/dc/dcmitype/StillImage"/>
   </cc:Work>
  </rdf:RDF>
 </metadata>
 <g stroke-linecap="round">
  <rect x="4.5" y="4.5" width="55" height="55" ry="15" fill="#141414" filter="url(#filter1057-27)" opacity=".3" stroke-width="2.7444"/>
  <rect x="4.4995" y="4.4995" width="55.001" height="55.001" ry="15" fill="url(#linearGradient1053-93)" stroke-width="2.7444"/>
  <g transform="matrix(.67857 0 0 .67857 -31.107 8.9286)" stroke-linejoin="round" stroke-width="2">
   <path d="m84 6c-2.77 0-5 2.23-5 5v31c0 2.77 2.23 5 5 5h32c2.77 0 5-2.23 5-5v-31c0-2.77-2.23-5-5-5zm6 7h20c1.662 0 3 1.338 3 3v21c0 1.662-1.338 3-3 3h-20c-1.662 0-3-1.338-3-3v-21c0-1.662 1.338-3 3-3z" fill="#1c9ef1"/>
   <path d="m70 21c-2.77 0-5 2.23-5 5v31c0 2.77 2.23 5 5 5h32c2.77 0 5-2.23 5-5v-31c0-2.77-2.23-5-5-5zm6 7h20c1.662 0 3 1.338 3 3v21c0 1.662-1.338 3-3 3h-20c-1.662 0-3-1.338-3-3v-21c0-1.662 1.338-3 3-3z" fill="#fd9206"/>
   <rect x="99" y="40" width="8" height="7" ry="0" fill="#1c9ef1"/>
  </g>
 </g>
</svg>
