<?xml version="1.0" encoding="UTF-8"?>
<svg width="64" height="64" version="1.1" viewBox="0 0 64 64" xmlns="http://www.w3.org/2000/svg" xmlns:xlink="http://www.w3.org/1999/xlink">
 <defs>
  <filter id="filter1057-4" x="-.027" y="-.027" width="1.054" height="1.054" color-interpolation-filters="sRGB">
   <feGaussianBlur stdDeviation="0.61875"/>
  </filter>
  <linearGradient id="linearGradient1053-7" x1="-127" x2="-72" y1="60" y2="5" gradientTransform="translate(131.5 -.51)" gradientUnits="userSpaceOnUse">
   <stop stop-color="#dee0e2" offset="0"/>
   <stop stop-color="#f1f3f5" stop-opacity=".99608" offset="1"/>
  </linearGradient>
  <linearGradient id="l" x1="-112.45" x2="-112.42" y1="271.04" y2="265.14" gradientUnits="userSpaceOnUse">
   <stop stop-color="#0094eb" offset="0"/>
   <stop stop-color="#06cfeb" offset="1"/>
  </linearGradient>
  <linearGradient id="f-5" x1="11.713" x2="14.149" y1="291.6" y2="286.73" gradientUnits="userSpaceOnUse">
   <stop stop-color="#3a7aec" offset="0"/>
   <stop stop-color="#7892f2" offset="1"/>
  </linearGradient>
  <linearGradient id="h-6" x1="11.571" x2="11.096" y1="293.43" y2="289.55" gradientUnits="userSpaceOnUse">
   <stop stop-color="#0bc3fc" offset="0"/>
   <stop stop-color="#0dd4fe" offset="1"/>
  </linearGradient>
  <linearGradient id="g" x1="11.607" x2="11.217" y1="294.76" y2="291.42" gradientUnits="userSpaceOnUse">
   <stop stop-color="#09a7f8" offset="0"/>
   <stop stop-color="#0fbffb" offset="1"/>
  </linearGradient>
  <linearGradient id="i" x1="8.9981" x2="10.294" y1="289.45" y2="291.56" gradientUnits="userSpaceOnUse">
   <stop stop-color="#059af2" offset="0"/>
   <stop stop-color="#0598f3" stop-opacity="0" offset="1"/>
  </linearGradient>
  <linearGradient id="k" x1="7.0401" x2="5.7667" y1="286.24" y2="293.71" gradientUnits="userSpaceOnUse">
   <stop stop-color="#29f2ff" offset="0"/>
   <stop stop-color="#16d5fb" offset="1"/>
  </linearGradient>
  <linearGradient id="j" x1="32.799" x2="27.072" y1="42.111" y2="39.572" gradientUnits="userSpaceOnUse">
   <stop stop-color="#19dafc" offset="0"/>
   <stop stop-color="#17c2f9" offset="1"/>
  </linearGradient>
  <linearGradient id="e" x1="5.2503" x2="5.5641" y1="287.3" y2="285.59" gradientUnits="userSpaceOnUse">
   <stop stop-color="#08e3ff" offset="0"/>
   <stop stop-color="#5cfbfc" offset="1"/>
  </linearGradient>
  <radialGradient id="a" cx="8.6605" cy="283.81" r="1.5041" gradientTransform="matrix(1.9106 .078065 -.047151 1.154 5.4527 -44.482)" gradientUnits="userSpaceOnUse">
   <stop stop-color="#8df5fe" offset="0"/>
   <stop stop-color="#46eaff" offset="1"/>
  </radialGradient>
  <linearGradient id="d" x1="10.855" x2="11.759" y1="283.68" y2="282.57" gradientUnits="userSpaceOnUse">
   <stop stop-color="#6ee8fe" offset="0"/>
   <stop stop-color="#a3f0fe" offset="1"/>
  </linearGradient>
  <linearGradient id="c" x1="30.379" x2="45.719" y1="24.664" y2="24.664" gradientUnits="userSpaceOnUse">
   <stop stop-color="#b6fdfe" offset="0"/>
   <stop stop-color="#cafefe" offset="1"/>
  </linearGradient>
  <linearGradient id="b" x1="38.878" x2="41.802" y1="24.172" y2="27.079" gradientUnits="userSpaceOnUse">
   <stop stop-color="#abe7f8" offset="0"/>
   <stop stop-color="#bef6fd" offset="1"/>
  </linearGradient>
 </defs>
 <rect x="4.5" y="4.5" width="55" height="55" ry="15" fill="#141414" filter="url(#filter1057-4)" opacity=".3" stroke-linecap="round" stroke-width="2.7444"/>
 <rect x="4.5" y="4.5" width="55" height="55" ry="15" fill="url(#linearGradient1053-7)" stroke-linecap="round" stroke-width="2.7444"/>
 <g transform="matrix(2.8581 0 0 2.8581 7.7782 -792.63)">
  <path transform="matrix(.92176 -.38775 .4003 .91639 0 0)" d="m-112.36 264.53c0.73666 0 1.5053 0.66631 1.5029 1.403l-0.0216 6.6115c-2e-3 0.73668-0.7176 1.1739-1.4543 1.1739s-1.4573-0.62167-1.4582-1.3583l-8e-3 -6.3663c-9.2e-4 -0.73665 0.70255-1.4638 1.4392-1.4638z" fill="url(#l)" style="paint-order:normal"/>
  <path d="m14.627 285.98c-0.67903-0.28564-1.6543 0.0269-1.9469 0.70293l-2.6267 6.0671c-0.29305 0.67586 0.17974 1.4485 0.85876 1.7341 0.67903 0.28564 1.604-0.0991 1.8997-0.7738l2.5558-5.8308c0.29573-0.6747-0.06162-1.6138-0.74064-1.8995z" fill="url(#f-5)" style="paint-order:normal"/>
  <path d="m9.4787 286.92c0.74869 0.97276 1.3095 2.1081 1.7264 2.8238 0.41692 0.71564 0.48742 0.86607 0.80484 1.4515 0.31743 0.58542 1.0304 1.0651 1.7583 0.33374-0.06556 0.16646-0.63891 1.5792-0.92787 2.1644-0.19233 0.38953-0.31829 0.52394-0.65837 0.71608-0.64137 0.36238-1.6181 0.13869-1.9925-0.49576l-3.2294-5.4734c1.153-0.69533 1.3235-0.83713 2.5186-1.5204z" fill="url(#h-6)" style="paint-order:normal"/>
  <path d="m7.5214 287.46c0.83279 0.98115 2.8291 4.5533 3.1749 5.0159 0.34575 0.46256 0.98119 0.95821 1.6226 0.59583 0.34008-0.19214 0.50591-0.37395 0.78858-0.70383 0.22693-0.26483 0.48073-0.57508 0.67748-0.83303 0.0015-2e-3 0.0031-3e-3 0.0047-4e-3 -0.06556 0.16646-0.65672 1.5764-0.94568 2.1616-0.19233 0.38953-0.31828 0.52358-0.65836 0.71572-0.64137 0.36238-1.6183 0.13887-1.9926-0.49558l-3.2293-5.4737c0.23046-0.38236 0.31257-0.51306 0.55777-0.97893z" fill="url(#g)" style="paint-order:normal"/>
  <path d="m9.4787 286.92c0.74869 0.97276 1.3095 2.1081 1.7264 2.8238 0.41692 0.71564 0.48742 0.86607 0.80484 1.4515 0.31743 0.58542 1.0304 1.0651 1.7583 0.33374-0.06556 0.16646-0.63891 1.5792-0.92787 2.1644-0.19233 0.38953-0.31829 0.52394-0.65837 0.71608-0.64137 0.36238-1.6181 0.13869-1.9925-0.49576l-3.2294-5.4734c1.153-0.69533 1.3235-0.83713 2.5186-1.5204z" fill="url(#i)" style="paint-order:normal"/>
  <path d="m9.7114 285.37c-0.80203 0.16087-1.789 0.92972-2.2383 1.5136-0.74869 0.97276-1.3095 2.1081-1.7264 2.8238-0.41692 0.71564-0.48742 0.86607-0.80484 1.4515-0.31743 0.58542-1.0481 1.0681-1.776 0.33669 0.065564 0.16646 0.65662 1.5762 0.94559 2.1614 0.19233 0.38953 0.31829 0.52394 0.65837 0.71608 0.64137 0.36238 1.6181 0.13869 1.9925-0.49576l3.2294-5.4734c0.18717-0.31723 0.54304-0.83477 1.0511-1.347 0.54335-0.54774 1.1977-0.85163 0.97604-1.2056-0.47647-0.76079-1.4745-0.65242-2.2765-0.49156z" fill="url(#k)" style="paint-order:normal"/>
  <path transform="matrix(.26458 0 0 .26458 0 280.07)" d="m44.643 21.932c-0.18143-0.01305-0.37094-0.013-0.57031 2e-3 -2.7191 0.20398-6.1896 3.0272-7.5328 4.6097-3.1476 3.7083-11.577 18.472-12.883 20.22-1.3068 1.7483-3.7084 3.6216-6.1325 2.252-1.2853-0.7262-1.9121-1.4134-2.9805-2.6602-0.85767-1.0009-1.8169-2.1735-2.5605-3.1484-0.0058-0.0058-0.01175-0.0098-0.01758-0.01563 0.2478 0.62914 2.4821 5.958 3.5742 8.1699 0.72693 1.4722 1.203 1.9789 2.4883 2.7051 2.4241 1.3696 6.1164 0.52488 7.5312-1.873l12.205-20.688c0.70742-1.199 1.9834-3.1816 3.9038-5.1174 1.8616-1.8766 4.1184-2.9594 3.9117-4.1575-0.32136-0.12555-0.54599-0.27117-0.93649-0.29926z" fill="url(#j)" style="paint-order:normal"/>
  <path d="m5.801 287.44c-0.45626-0.16508-0.8287-0.49434-0.87998-1.1136-0.051274-0.61926 0.31706-1.0637 0.74271-1.0421s0.57116 0.37722 0.47182 0.70906c-0.099344 0.33185-0.19943 0.45763-0.26153 0.68705s-0.0636 0.46943-0.07302 0.75954z" fill="url(#e)"/>
  <path d="m6.9991 286.19c-0.38464-0.65771-0.28243-1.4041-0.058465-1.9544 0.22396-0.55032 0.76373-1.1601 1.3614-1.3196s1.1417-0.0736 1.3865 0.53454c0.2448 0.60812-0.28531 1.361-0.91874 1.5368s-1.219 0.51572-1.7707 1.2027z" fill="url(#a)"/>
  <circle cx="11.342" cy="283.14" r=".67653" fill="url(#d)" style="paint-order:normal"/>
  <path transform="matrix(.26458 0 0 .26458 0 280.07)" d="m40.379 19.467c-1.2434-0.0014-2.5176 0.18998-3.6543 0.41797-1.4267 0.28617-3.0086 1.1241-4.4648 2.1523-1.0042 1.2503-1.745 2.7416-1.8555 4.459-0.29625 3.4556 2.1038 4.2135 4.1875 2.4375 0.31882-0.27175 0.4981-0.50086 0.6875-0.71289 0.89753-0.83277 6.3117-2.9258 9.7676-4.6992 0.58502-0.59856 0.87259-1.1468 0.51562-1.7168-1.1255-1.7971-3.1113-2.3355-5.1836-2.3379z" fill="url(#c)" style="paint-order:normal"/>
  <path transform="matrix(.26458 0 0 .26458 0 280.07)" d="m44.643 21.932c-0.18143-0.01305-0.37094-0.01305-0.57031 2e-3 -2.7191 0.20398-6.19 3.0269-7.5332 4.6094-0.35325 0.41618-0.77928 0.98777-1.248 1.6484 0.96322 1.4549 2.679 1.6774 4.3945 0.5625 0.59158-0.75002 1.2594-1.5401 2.0508-2.3379 1.8616-1.8766 4.1735-3.0421 3.9668-4.2402-0.32136-0.12555-0.67-0.21605-1.0605-0.24414z" fill="url(#b)" style="paint-order:normal"/>
 </g>
</svg>
