<?xml version="1.0" encoding="UTF-8"?>
<svg width="64" height="64" version="1.1" viewBox="0 0 16.933 16.933" xmlns="http://www.w3.org/2000/svg" xmlns:cc="http://creativecommons.org/ns#" xmlns:dc="http://purl.org/dc/elements/1.1/" xmlns:rdf="http://www.w3.org/1999/02/22-rdf-syntax-ns#" xmlns:xlink="http://www.w3.org/1999/xlink">
 <metadata>
  <rdf:RDF>
   <cc:Work rdf:about="">
    <dc:format>image/svg+xml</dc:format>
    <dc:type rdf:resource="http://purl.org/dc/dcmitype/StillImage"/>
   </cc:Work>
  </rdf:RDF>
 </metadata>
 <defs>
  <filter id="filter2076" x="-.048" y="-.048" width="1.096" height="1.096" color-interpolation-filters="sRGB">
   <feGaussianBlur stdDeviation="1.1"/>
  </filter>
  <linearGradient id="linearGradient2070" x1="145" x2="200" y1="59" y2="4" gradientTransform="translate(-92.852,10.228)" gradientUnits="userSpaceOnUse">
   <stop stop-color="#ffc841" offset="0"/>
   <stop stop-color="#ffbe37" offset=".4925"/>
   <stop stop-color="#ffc841" offset="1"/>
  </linearGradient>
  <linearGradient id="linearGradient1077" x1="16.314" x2="16.314" y1="11.111" y2="25.944" gradientTransform="matrix(.5 0 0 .5 .14804 -.49642)" gradientUnits="userSpaceOnUse">
   <stop stop-color="#fff" offset="0"/>
   <stop stop-color="#fdf8e5" offset="1"/>
  </linearGradient>
 </defs>
 <g transform="matrix(.26458 0 0 .26458 -12.607 -2.5738)">
  <rect x="52.148" y="14.228" width="55" height="55" rx="13.002" ry="13.002" filter="url(#filter2076)" opacity=".3"/>
  <rect x="52.148" y="14.228" width="55" height="55" rx="13.002" ry="13.002" fill="url(#linearGradient2070)"/>
 </g>
 <path d="m12.378 3.5352c0.20312 9.3e-6 0.31662 0.15317 0.34054 0.45948l-0.17027 1.4425h0.06273l0.13442-0.10685h0.03585v0.03205c-0.18521 0.13536-0.36443 0.5058-0.53767 1.1113-0.06573 0.52004-0.17625 1.0009-0.33157 1.4425-0.13742 0.4559-0.20612 0.87621-0.20611 1.2609l-0.25988 0.75866c-5e-6 0.06411 0.09857 0.12823 0.29573 0.19234-0.03585 0.1496-0.08962 0.2244-0.16131 0.2244v0.04275h0.06273v0.03206c-6e-6 0.07836-0.10157 0.11754-0.30469 0.11754l0.03584 0.04275v0.14959h-0.06273c0.04181 0.1496 0.13143 0.2244 0.26884 0.2244v0.0748h-0.26884v0.04275c0.08961 0 0.13441 0.06412 0.13442 0.19234l-0.37638 0.1496 0.03585 0.04275v0.03206c-1e-5 0.04987-0.04481 0.0748-0.13442 0.0748v0.04275c0.1135 0 0.17026 0.02497 0.17027 0.0748-0.16131 0.06411-0.3734 0.38113-0.63627 0.95101-0.26885 0.50577-0.50183 0.75866-0.69899 0.75866h-0.07169c-0.14936-0.11401-0.27183-0.49156-0.36741-1.1327-0.38236-0.97594-0.57355-1.5494-0.57355-1.7204-3e-6 -0.44166-0.12248-0.91181-0.36742-1.4105-0.065723-0.22082-0.11053-0.49865-0.13442-0.83346l-0.16131-0.042745c-0.40625 0.73375-0.61836 1.3072-0.63627 1.7204-0.11352 0.24221-0.20313 0.53428-0.26884 0.87621 0.24494 0.07836 0.36742 0.15316 0.36742 0.22439v0.04275c-0.19118-0.02851-0.32559-0.08192-0.40326-0.16028-0.08364 0.19234-0.19417 0.7266-0.33157 1.6028-0.10754 0.40604-0.24196 0.60908-0.40326 0.60908-0.45405-0.17809-0.83343-0.47014-1.1381-0.87621-0.04779 0-0.12546-0.20303-0.233-0.60908-0.06572 0-0.11053-0.20303-0.13442-0.60908-0.22702-0.57703-0.38236-1.236-0.46598-1.9768v-1.1113h-0.03584l-0.16131 0.042735v-0.042735c0-0.049865 0.05377-0.074794 0.16131-0.074801l-0.03585-0.64114v-0.5022l-0.25988-1.6028v-0.68389c0.11351-0.42739 0.31068-0.64111 0.59145-0.64114 0 0 0.02496-0.00156 0.10754 0.10685l-0.10753-0.032057c0.43612 0.56991 0.69301 1.0507 0.77068 1.4425h0.30469v0.074801h-0.233v0.085488c0.08961 0.32769 0.15533 0.49153 0.19715 0.49153h0.07169l0.16131-0.042745 0.03585 0.042745 0.03584-0.042745 0.03585 0.042745v0.03206c-0.11949 0.085487-0.20014 0.20303-0.24196 0.35262h-0.02688v0.074794h0.06273c0.08364 1.1897 0.23897 2.0908 0.46598 2.7034l0.13443 0.10685h0.07169c0.08961 3e-6 0.27781-0.41673 0.56458-1.2502 0.1852-0.37756 0.31961-0.70879 0.40326-0.99373l-0.03585-0.11754c0.18521-0.27781 0.3764-0.41673 0.57352-0.41673h0.06273c0.12546 9.5e-6 0.21507 0.078369 0.26884 0.23508 0.16728 0.23509 0.3017 0.58772 0.40326 1.0579l0.50186 1.1113c0.06572 0.078368 0.09857 0.16741 0.09857 0.26714 0.1852 0.4203 0.35247 0.69812 0.50183 0.83346h0.10753c0.12546 0 0.29274-0.52001 0.50186-1.5601 0.03584 6e-6 0.13441-0.27782 0.29572-0.83346v-0.042745l-0.56458-0.074802-0.13442 0.042745h-0.17027v-0.085488l0.34054-0.03205h0.66314c0.25689-0.91896 0.49286-1.6313 0.70796-2.1371 0.07168-1.0401 0.17026-1.5601 0.29573-1.5601l0.40326-0.19235m-3.4143 0.91896h0.09858v0.032057c-6e-6 0.049873-0.03286 0.074809-0.09858 0.074801l-0.03584 0.042735v0.042745l-0.098585-0.042745v-0.074794l0.13442-0.074793m-0.50183 0.41673v0.042735c-3e-6 0.057001-0.14338 0.11755-0.43014 0.18166v-0.0748l0.19716-0.10686 0.03584 0.03205h0.02688l0.17026-0.074801m-0.96784 0.38468v0.03205c-0.12546 0.11399-0.32858 0.21728-0.60938 0.30987v-0.074801c0.04779 6e-6 0.07169-0.03917 0.07169-0.11754l0.5377-0.1496m1.7027 0.37398 0.03585 0.042745v0.03205l-0.06273 0.085482h-0.03585l-0.0717-0.085484v-0.03205l0.13442-0.042745m1.2367 0.042745h0.03585v0.03205l-0.06273 0.085482h-0.03584v-0.042746l0.06273-0.074793m-0.56458 0.53428 0.13443 0.10685c-0.02389 0.078365-0.08962 0.11754-0.19716 0.11754l-0.07168-0.11754c-6e-6 -0.035605 0.0448-0.071229 0.13442-0.10685m0.80652 0.49153 0.02687 0.042745v0.03206l-0.02687 0.042745h-0.07169v-0.042745l0.07169-0.074801m-1.2725 0.38468v0.032055l-0.17027 0.16028h-0.09858v-0.042745c-7e-6 -0.064108 0.08961-0.11397 0.26884-0.1496m-1.1739 3.2698h0.03584v0.0748l-0.26884 0.16028-0.03585-0.04275v-0.0748l0.26884-0.11754m-0.09858 0.99376h0.02688l0.10754 0.11754-0.03584 0.03206h-0.03585l-0.06273-0.10685v-0.04274" fill="url(#linearGradient1077)" stroke-width=".30821"/>
</svg>
