<?xml version="1.0" encoding="UTF-8"?>
<svg width="64" height="64" version="1.1" viewBox="0 0 16.933 16.933" xmlns="http://www.w3.org/2000/svg" xmlns:cc="http://creativecommons.org/ns#" xmlns:dc="http://purl.org/dc/elements/1.1/" xmlns:rdf="http://www.w3.org/1999/02/22-rdf-syntax-ns#" xmlns:xlink="http://www.w3.org/1999/xlink">
 <defs>
  <filter id="filter1015" x="-.084" y="-.084" width="1.168" height="1.168" color-interpolation-filters="sRGB">
   <feGaussianBlur stdDeviation="0.3089756"/>
  </filter>
  <filter id="filter985" x="-.059096" y="-.060921" width="1.1182" height="1.1218" color-interpolation-filters="sRGB">
   <feGaussianBlur stdDeviation="0.21619832"/>
  </filter>
  <linearGradient id="linearGradient1025" x1="7.9876" x2="12.91" y1="7.7203" y2="12.495" gradientTransform="matrix(1 0 0 1 -.24128 -.15195)" gradientUnits="userSpaceOnUse">
   <stop stop-color="#fafaff" offset="0"/>
   <stop stop-color="#a1d8ff" offset="1"/>
  </linearGradient>
  <filter id="filter1057-4-4" x="-.027" y="-.027" width="1.054" height="1.054" color-interpolation-filters="sRGB">
   <feGaussianBlur stdDeviation="0.61875"/>
  </filter>
  <linearGradient id="linearGradient1053-5-2" x1="-127" x2="-72" y1="60" y2="5" gradientTransform="matrix(.2646 0 0 .2646 32.942 1.0363)" gradientUnits="userSpaceOnUse">
   <stop stop-color="#32d7ff" offset="0"/>
   <stop stop-color="#329bff" offset="1"/>
  </linearGradient>
 </defs>
 <metadata>
  <rdf:RDF>
   <cc:Work rdf:about="">
    <dc:format>image/svg+xml</dc:format>
    <dc:type rdf:resource="http://purl.org/dc/dcmitype/StillImage"/>
    <dc:title/>
   </cc:Work>
  </rdf:RDF>
 </metadata>
 <g transform="translate(1.8521 -1.1717)" stroke-linecap="round">
  <rect transform="matrix(.2646 0 0 .2646 -1.8525 1.1713)" x="4.5" y="4.5" width="55" height="55" ry="15" fill="#141414" filter="url(#filter1057-4-4)" opacity=".3" stroke-width="2.7444"/>
  <rect x="-.66188" y="2.3619" width="14.552" height="14.552" ry="3.9689" fill="url(#linearGradient1053-5-2)" stroke-width=".72613"/>
 </g>
 <circle transform="matrix(1 0 0 1 -.00085 .14045)" cx="8.4674" cy="8.326" r="4.4139" fill="#1496ff" filter="url(#filter1015)"/>
 <path d="m12.807 7.7224a2.6849 5.7986 52.956 0 1-0.18913 0.3235 2.6849 5.7986 52.956 0 1-0.27699 0.40825 2.6849 5.7986 52.956 0 1-0.31626 0.40928 2.6849 5.7986 52.956 0 1-0.35192 0.40721 2.6849 5.7986 52.956 0 1-0.38396 0.39998 2.6849 5.7986 52.956 0 1-0.4129 0.38913 2.6849 5.7986 52.956 0 1-0.43667 0.37466 2.6849 5.7986 52.956 0 1-0.32195 0.25424 2.6849 5.7986 52.956 0 1-0.46819 0.34107 2.6849 5.7986 52.956 0 1-0.48059 0.31678 2.6849 5.7986 52.956 0 1-0.48783 0.28888 2.6849 5.7986 52.956 0 1-0.48989 0.25839 2.6849 5.7986 52.956 0 1-0.48731 0.22582 2.6849 5.7986 52.956 0 1-0.48059 0.19068 2.6849 5.7986 52.956 0 1-0.39791 0.13022 4.414 4.414 0 0 0 1.6159 0.31058 4.414 4.414 0 0 0 4.4137-4.4142 4.414 4.414 0 0 0-0.04754-0.61443z" fill="#fff" opacity=".55"/>
 <path transform="matrix(.9311 0 0 .9446 .74308 .62543)" d="m8.6817 4.075a4.4139 4.4139 0 0 0-4.4141 4.4136 4.4139 4.4139 0 0 0 0.11989 0.99889 4.4139 4.4139 0 0 0 2.6783 3.1047 2.6848 5.7985 52.956 0 0 0.3979-0.13022 2.6848 5.7985 52.956 0 0 0.48058-0.19068 2.6848 5.7985 52.956 0 0 0.4873-0.22582 2.6848 5.7985 52.956 0 0 0.48988-0.25838 2.6848 5.7985 52.956 0 0 0.48782-0.28887 2.6848 5.7985 52.956 0 0 0.48058-0.31677 2.6848 5.7985 52.956 0 0 0.46818-0.34106 2.6848 5.7985 52.956 0 0 0.32194-0.25424 2.6848 5.7985 52.956 0 0 0.43666-0.37465 2.6848 5.7985 52.956 0 0 0.41289-0.38912 2.6848 5.7985 52.956 0 0 0.38395-0.39997 2.6848 5.7985 52.956 0 0 0.35191-0.4072 2.6848 5.7985 52.956 0 0 0.31625-0.40927 2.6848 5.7985 52.956 0 0 0.27698-0.40824 2.6848 5.7985 52.956 0 0 0.18913-0.32349 4.4139 4.4139 0 0 0-2.0665-3.147 4.4139 4.4139 0 0 0-2.2996-0.65214z" fill="#0096ff" filter="url(#filter985)" opacity=".25"/>
 <g>
  <path d="m8.4406 3.9231a4.414 4.414 0 0 0-4.4142 4.4137 4.414 4.414 0 0 0 0.11989 0.99891 4.414 4.414 0 0 0 2.6784 3.1048 2.6849 5.7986 52.956 0 0 0.39791-0.13022 2.6849 5.7986 52.956 0 0 0.48059-0.19068 2.6849 5.7986 52.956 0 0 0.48731-0.22582 2.6849 5.7986 52.956 0 0 0.48989-0.25839 2.6849 5.7986 52.956 0 0 0.48783-0.28888 2.6849 5.7986 52.956 0 0 0.48059-0.31678 2.6849 5.7986 52.956 0 0 0.46819-0.34107 2.6849 5.7986 52.956 0 0 0.32195-0.25424 2.6849 5.7986 52.956 0 0 0.43667-0.37466 2.6849 5.7986 52.956 0 0 0.4129-0.38913 2.6849 5.7986 52.956 0 0 0.38396-0.39998 2.6849 5.7986 52.956 0 0 0.35192-0.40721 2.6849 5.7986 52.956 0 0 0.31626-0.40928 2.6849 5.7986 52.956 0 0 0.27699-0.40825 2.6849 5.7986 52.956 0 0 0.18913-0.3235 4.414 4.414 0 0 0-2.0665-3.1471 4.414 4.414 0 0 0-2.2996-0.65215z" fill="url(#linearGradient1025)"/>
  <path d="m12.798 7.7219a2.6849 5.7986 52.956 0 0 0.2408-2.6516 2.6849 5.7986 52.956 0 0-2.3083-0.49506 4.414 4.414 0 0 1 0.19327 0.11885 4.414 4.414 0 0 1 0.3514 0.26666 4.414 4.414 0 0 1 0.32298 0.30076 4.414 4.414 0 0 1 0.29094 0.33177 4.414 4.414 0 0 1 0.25684 0.35864 4.414 4.414 0 0 1 0.21962 0.38293 4.414 4.414 0 0 1 0.18035 0.40256 4.414 4.414 0 0 1 0.13901 0.41858 4.414 4.414 0 0 1 0.09663 0.43047 4.414 4.414 0 0 1 0.01654 0.13539z" fill="#fff" opacity=".55"/>
  <path d="m4.1643 9.3357a2.6849 5.7986 52.956 0 0-0.31316 2.7756 2.6849 5.7986 52.956 0 0 2.9916 0.32918 4.414 4.414 0 0 1-0.10335-0.03772 4.414 4.414 0 0 1-0.3974-0.19223 4.414 4.414 0 0 1-0.37569-0.23048 4.414 4.414 0 0 1-0.3514-0.26716 4.414 4.414 0 0 1-0.32298-0.30076 4.414 4.414 0 0 1-0.29094-0.33125 4.414 4.414 0 0 1-0.25684-0.35915 4.414 4.414 0 0 1-0.21962-0.38241 4.414 4.414 0 0 1-0.18035-0.40308 4.414 4.414 0 0 1-0.13901-0.41858 4.414 4.414 0 0 1-0.040821-0.1819z" fill="#fff" opacity=".55"/>
 </g>
</svg>
