<?xml version="1.0" encoding="UTF-8"?>
<svg width="64" height="64" version="1.1" viewBox="0 0 16.933 16.933" xmlns="http://www.w3.org/2000/svg">
 <defs>
  <filter id="filter1057" x="-.027" y="-.027" width="1.054" height="1.054" color-interpolation-filters="sRGB">
   <feGaussianBlur stdDeviation="0.61875"/>
  </filter>
  <linearGradient id="linearGradient1053" x1="-127" x2="-72" y1="60" y2="5" gradientTransform="matrix(.26458 0 0 .26458 34.792 -.13493)" gradientUnits="userSpaceOnUse">
   <stop stop-color="#32d7ff" offset="0"/>
   <stop stop-color="#329bff" offset="1"/>
  </linearGradient>
 </defs>
 <rect transform="scale(.26458)" x="4.5" y="4.5" width="55" height="55" ry="15" fill="#141414" filter="url(#filter1057)" opacity=".3" stroke-linecap="round" stroke-width="2.7444"/>
 <rect x="1.1906" y="1.1906" width="14.552" height="14.552" ry="3.9687" fill="url(#linearGradient1053)" stroke-linecap="round" stroke-width=".72611"/>
 <path d="m9.2603 4.7749c-0.88345 0-1.6485 0.50877-2.0277 1.2472-0.24579-0.15706-0.53676-0.24944-0.84957-0.24944-0.87674 0-1.5875 0.71474-1.5875 1.5964 0 0.14018 0.02204 0.27579 0.0558 0.40533-0.63322 0.42949-1.048 1.1601-1.048 1.9892 0 1.3266 1.062 2.3946 2.3812 2.3946h4.564c1.3192 0 2.3812-1.068 2.3812-2.3946 0-1.0594-0.68004-1.9525-1.6247-2.2699 0.02564-0.13768 0.03721-0.27887 0.03721-0.42403 0-1.2674-1.0217-2.2948-2.282-2.2948z" color="#000000" fill="#fff" stroke-width=".54126"/>
</svg>
