<?xml version="1.0" encoding="UTF-8"?>
<svg width="64" height="64" version="1.1" viewBox="0 0 64 64" xmlns="http://www.w3.org/2000/svg">
 <defs>
  <filter id="filter2076" x="-.048" y="-.048" width="1.096" height="1.096" color-interpolation-filters="sRGB">
   <feGaussianBlur stdDeviation="1.1"/>
  </filter>
 </defs>
 <rect transform="matrix(1 0 0 1 -.000226 -.000226)" x="4.5" y="4.5" width="55" height="55" rx="13.002" ry="13.002" filter="url(#filter2076)" opacity=".3"/>
 <rect x="4.4998" y="4.4998" width="55.001" height="55.001" rx="13.002" ry="13.002" fill="#f5aa1e"/>
 <rect x="8.4997" y="8.4997" width="46.999" height="46.999" rx="11.111" ry="11.111" fill="#fafafa" stroke-width=".85453"/>
 <g fill="#f08705">
  <path d="m9.9699 26.497c-0.02876 0.14986-0.04655 0.30615-0.07413 0.45972h44.208c-0.02608-0.15355-0.04524-0.30997-0.07703-0.45972z" opacity=".6" stroke-width="3.0193" style="paint-order:normal"/>
  <path d="m10.695 16.51c0.02563 0.15355 0.05001 0.30681 0.07846 0.45972h42.458c0.02646-0.16519 0.04917-0.29667 0.07287-0.45972z" opacity=".6" stroke-width="2.964" style="paint-order:normal"/>
  <path d="m9.9699 36.484c-0.02876 0.14986-0.04655 0.30615-0.07413 0.45972h44.208c-0.02608-0.15355-0.04524-0.30997-0.07703-0.45972z" opacity=".6" stroke-width="3.0193" style="paint-order:normal"/>
  <path d="m9.9699 46.47c-0.02876 0.14986-0.04655 0.30615-0.07413 0.45972h44.208c-0.02608-0.15356-0.04524-0.30996-0.07703-0.45972z" opacity=".6" stroke-width="3.0193" style="paint-order:normal"/>
 </g>
 <path d="m4.5 24.742v4.1309c0.0011 0.67628 0.0019531 1.1992 0.0019531 1.9395v11.705c1e-5 2.6676 0.081662 4.9085 0.3125 6.8047 1.499e-4 0.001231-1.5e-4 0.002675 0 0.003906 0.064708 0.29359 0.13858 0.58349 0.22266 0.86914 0.030247 0.10678 0.06495 0.21347 0.097656 0.32031 0.11524 0.35707 0.23837 0.71009 0.38281 1.0527 0.16405 0.38914 0.34718 0.7682 0.54688 1.1367 0.19969 0.36851 0.4172 0.72652 0.65039 1.0723 0.23319 0.34574 0.48154 0.68113 0.74609 1.002s0.54413 0.62812 0.83789 0.92188 0.603 0.57334 0.92383 0.83789c0.32082 0.26455 0.65426 0.5129 1 0.74609 0.34574 0.2332 0.70375 0.4507 1.0723 0.65039s0.74758 0.38283 1.1367 0.54688c0.38914 0.16405 0.78769 0.30929 1.1953 0.43555 0.40762 0.12625 0.82409 0.23204 1.248 0.31836s0.85482 0.15304 1.293 0.19727c0.43814 0.04423 0.8838 0.066406 1.334 0.066406h28.996c0.45019 0 0.89584-0.022176 1.334-0.066406 0.43814-0.044231 0.86901-0.11095 1.293-0.19727s0.84043-0.19211 1.248-0.31836c0.40762-0.12625 0.80617-0.2715 1.1953-0.43555 0.38914-0.16405 0.7682-0.34718 1.1367-0.54688s0.72652-0.4172 1.0723-0.65039 0.67918-0.48154 1-0.74609c0.32082-0.26455 0.63007-0.54413 0.92383-0.83789s0.57334-0.60105 0.83789-0.92188c0.26455-0.32082 0.5129-0.65621 0.74609-1.002s0.4507-0.70375 0.65039-1.0723 0.38283-0.74758 0.54688-1.1367c0.14612-0.34662 0.27244-0.70307 0.38867-1.0645 0.03197-0.10488 0.064147-0.20964 0.09375-0.31445 0.084655-0.28812 0.15771-0.58077 0.22266-0.87695 8.7e-4 -0.00397 0.00304-0.007749 0.003906-0.011719 0.21899-1.8109 0.30198-3.949 0.30859-6.459v-15.006c-0.03628-5.7231-0.45922-5.5234-4.8262-5.5234h-20c-4.105 0-4.6729-1.1162-6.9766-5.7422-1.1111-2.7336-3.9688-2.459-3.9688-2.459h-10.6c-1.1447 0-2.1381-0.017349-3-0.011719-5.1206 0.03351-5.6002 0.8917-5.6289 10.643z" fill="#ffc841"/>
 <path d="m41.111 29.744-9.7185 1.5527v7.7814h9.7185zm-10.936 1.7464-7.2916 1.0856 0.0066 6.5024 7.2852-0.0016zm-7.2852 8.9176v6.5723l7.2886 1.097-0.0032-0.0032v-7.6662zm8.5026 0.0032v7.8336l9.7185 1.499 0.0031-9.3326z" fill="#fafafa" stroke-linecap="round" stroke-width="1.6217"/>
</svg>
