<?xml version="1.0" encoding="UTF-8"?>
<svg width="64" height="64" version="1.1" viewBox="0 0 64 64" xmlns="http://www.w3.org/2000/svg" xmlns:cc="http://creativecommons.org/ns#" xmlns:dc="http://purl.org/dc/elements/1.1/" xmlns:rdf="http://www.w3.org/1999/02/22-rdf-syntax-ns#" xmlns:xlink="http://www.w3.org/1999/xlink">
 <metadata>
  <rdf:RDF>
   <cc:Work rdf:about="">
    <dc:format>image/svg+xml</dc:format>
    <dc:type rdf:resource="http://purl.org/dc/dcmitype/StillImage"/>
    <dc:title/>
   </cc:Work>
  </rdf:RDF>
 </metadata>
 <defs>
  <style type="text/css"/>
  <filter id="filter1057" x="-.027" y="-.027" width="1.054" height="1.054" color-interpolation-filters="sRGB">
   <feGaussianBlur stdDeviation="0.61875"/>
  </filter>
  <linearGradient id="linearGradient1053" x1="-127" x2="-72" y1="60" y2="5" gradientTransform="translate(131.5 -.51)" gradientUnits="userSpaceOnUse">
   <stop stop-color="#2b93c9" offset="0"/>
   <stop stop-color="#6cb8e0" offset="1"/>
  </linearGradient>
  <style type="text/css"/>
  <style type="text/css"/>
  <style type="text/css"/>
  <style type="text/css"/>
  <style type="text/css"/>
  <style type="text/css"/>
  <style type="text/css"/>
 </defs>
 <circle cx="-1124.8" cy="-1279.3" r="0" fill="#5e4aa6"/>
 <g transform="matrix(3.7796,0,0,3.7796,123.83,-38.184)" fill="#5e4aa6" stroke-width=".26458">
  <circle cx="-299.02" cy="-338.77" r="0"/>
  <circle cx="-8.1062" cy="-3.9487" r="0" fill-rule="evenodd"/>
  <circle cx="-278.25" cy="-357.69" r="0"/>
  <circle cx="12.663" cy="-22.859" r="0" fill-rule="evenodd"/>
 </g>
 <g>
  <rect x="4.5" y="4.5" width="55" height="55" ry="15" fill="#141414" filter="url(#filter1057)" opacity=".3" stroke-linecap="round" stroke-width="2.7444"/>
  <rect x="4.5" y="4.5" width="55" height="55" ry="15" fill="url(#linearGradient1053)" stroke-linecap="round" stroke-width="2.7444"/>
  <path d="m45.01 15.967c-12.551 0.18996-19.576 7.3465-23.281 14.314-3.3896 6.3778-3.9003 11.651-4 12.672h-13.229v1.5469c0 0.38805 0.029934 0.76797 0.058594 1.1484h14.221c0.38396 0 0.75978-0.17323 1.0117-0.46289 0.14146-0.1684 0.24776-0.37159 0.29492-0.58984 0.0057-0.05793 0.005699-0.11738 0-0.16992 0 0 0.63116-6.3833 4.041-12.799 3.1835-5.9831 8.8445-11.767 18.943-12.672-6.01 12.031 0.29883 25.936 0.29883 25.936 0.04717 0.05793 0.10664 0.11543 0.16992 0.16797 0.23172 0.3422 0.63193 0.56829 1.0469 0.58984h14.855c0.02866-0.38047 0.058594-0.76039 0.058594-1.1484v-1.5469h-13.904c-0.51599-1.1519-6.3258-14.441 0.63672-24.924 0.17918-0.31525 0.22664-0.70319 0.12695-1.0508-0.04717-0.21556-0.15211-0.42339-0.29492-0.5918-0.26809-0.28427-0.66339-0.44013-1.0527-0.41992h-0.001953z" fill="#19536f" stroke-width="1.3472"/>
 </g>
</svg>
