<?xml version="1.0" encoding="UTF-8"?>
<svg width="64" height="64" version="1.1" viewBox="0 0 64 64" xmlns="http://www.w3.org/2000/svg" xmlns:cc="http://creativecommons.org/ns#" xmlns:dc="http://purl.org/dc/elements/1.1/" xmlns:rdf="http://www.w3.org/1999/02/22-rdf-syntax-ns#">
 <metadata>
  <rdf:RDF>
   <cc:Work rdf:about="">
    <dc:format>image/svg+xml</dc:format>
    <dc:type rdf:resource="http://purl.org/dc/dcmitype/StillImage"/>
   </cc:Work>
  </rdf:RDF>
 </metadata>
 <defs>
  <filter id="filter1057" x="-.027" y="-.027" width="1.054" height="1.054" color-interpolation-filters="sRGB">
   <feGaussianBlur stdDeviation="0.61875"/>
  </filter>
  <linearGradient id="linearGradient1053" x1="-127" x2="-72" y1="60" y2="5" gradientTransform="translate(131.5 -.51)" gradientUnits="userSpaceOnUse">
   <stop stop-color="#dee0e2" offset="0"/>
   <stop stop-color="#f1f3f5" stop-opacity=".99608" offset="1"/>
  </linearGradient>
 </defs>
 <rect x="4.5" y="4.5" width="55" height="55" ry="15" fill="#141414" filter="url(#filter1057)" opacity=".3" stroke-linecap="round" stroke-width="2.7444"/>
 <rect x="4.5" y="4.5" width="55" height="55" ry="15" fill="url(#linearGradient1053)" stroke-linecap="round" stroke-width="2.7444"/>
 <g transform="matrix(3.7796 0 0 3.7796 -77.052 2.8161)">
  <path transform="matrix(.26458 0 0 .26458 20.993 -.039028)" d="m43.527 12.188c-0.33691-0.0068-0.7585 0.05434-1.2871 0.17383l-8.8652 1.7988-0.19336 0.03906-8.0469 1.5879c-1.4787 0.31609-1.7654 1.1408-1.7305 2.4453v0.49805c-0.03266-1.2971 0.25663-2.1185 1.7305-2.4336l8.0469-1.5879 0.19336-0.03906 8.8652-1.7988c0.52861-0.11949 0.9502-0.18063 1.2871-0.17383v2e-3c1.0107 0.0202 1.2494 0.63959 1.25 2.0332v-0.50977c-6.24e-4 -1.3936-0.23926-2.013-1.25-2.0332v-2e-3zm-17.957 14.119c-0.0084 0.23157 0.0032 0.49155 2e-3 0.78906v-0.50976c4.52e-4 -0.10447-5.56e-4 -0.18322-2e-3 -0.2793zm17.053 8.5156c-0.06741 1.4234-0.21139 2.0771-1.8535 2.3398-5.8266 0.86728-6.973 2.8035-6.9375 5.3691 7.52e-4 0.05466 0.01494 0.10414 0.01758 0.1582 0.07917-2.3881 1.3666-4.1929 6.9199-5.0195 1.6464-0.2634 1.7863-0.9185 1.8535-2.3496v-0.49805zm-19.195 3.7793c-0.06737 1.427-0.22528 2.2116-1.8691 2.4746-5.8266 0.86728-6.9574 2.6706-6.9219 5.2363 7.64e-4 0.05554 0.0149 0.10706 0.01758 0.16211 0.07792-2.3767 1.3511-4.0621 6.9043-4.8887 1.6464-0.2634 1.8019-1.0494 1.8691-2.4805v-0.50391zm2.168 4.1816v0.50977c0.02034 0.34036 0.02314 0.67489 0.02539 1.0078 0.01104-0.49244 0.0055-1.001-0.02539-1.5176z" fill="#fff" opacity=".1"/>
 </g>
 <path d="m32 16.769c-1.7308 0-3.2051 0.69888-4.151 1.7632-0.94569 1.0648-1.3874 2.43-1.3874 3.7758v12.461c0 2.9631 1.4155 5.7216 3.4047 7.9399-1.5203 1.008-3.1583 1.7529-4.7894 1.7529-4.8461 0-8.3076-3.4615-8.3076-8.3076v-16.615a1.3847 1.3847 0 1 0-2.7692 0v16.615c0 6.2307 4.8461 11.077 11.077 11.077 2.5463 0 4.8777-1.1455 6.923-2.6827 2.0453 1.5372 4.3767 2.6827 6.923 2.6827 6.2307 0 11.077-4.8461 11.077-11.077v-16.615a1.3847 1.3847 0 1 0-2.7692 0v16.615c0 4.8461-3.4615 8.3076-8.3076 8.3076-1.6315 0-3.2689-0.74489-4.7893-1.7524 1.9897-2.2181 3.4047-4.9763 3.4047-7.9393v-12.461c0-1.3462-0.44124-2.7109-1.3874-3.7753-0.94568-1.0634-2.4203-1.7626-4.151-1.7626zm0 2.7692c1.0385 0 1.641 0.33956 2.0797 0.83292 0.43892 0.49292 0.68953 1.2046 0.68953 1.9357v12.461c0 2.1592-1.1115 4.4206-2.7692 6.2307-1.6576-1.8101-2.7692-4.0716-2.7692-6.2307v-12.461c0-0.73077 0.25106-1.4429 0.6896-1.9362 0.43892-0.4943 1.0412-0.83353 2.0797-0.83353z" color="#000000" color-rendering="auto" fill="#2c2c2c" fill-rule="evenodd" image-rendering="auto" shape-rendering="auto" solid-color="#000000" stroke-width="1.3846" style="isolation:auto;mix-blend-mode:normal;text-decoration-color:#000000;text-decoration-line:none;text-decoration-style:solid;text-indent:0;text-transform:none;white-space:normal"/>
</svg>
