<?xml version="1.0" encoding="UTF-8"?>
<!-- Created with Inkscape (http://www.inkscape.org/) -->
<svg width="64" height="64" version="1.1" viewBox="0 0 16.933 16.933" xmlns="http://www.w3.org/2000/svg">
 <defs>
  <filter id="filter1057" x="-.027" y="-.027" width="1.054" height="1.054" color-interpolation-filters="sRGB">
   <feGaussianBlur stdDeviation="0.61875"/>
  </filter>
  <linearGradient id="linearGradient1053" x1="-127" x2="-72" y1="60" y2="5" gradientTransform="matrix(.26458 0 0 .26458 34.793 -.13494)" gradientUnits="userSpaceOnUse">
   <stop stop-color="#32d7ff" offset="0"/>
   <stop stop-color="#329bff" offset="1"/>
  </linearGradient>
 </defs>
 <rect transform="scale(.26458)" x="4.5" y="4.5" width="55" height="55" ry="15" fill="#141414" filter="url(#filter1057)" opacity=".3" stroke-linecap="round" stroke-width="2.7444"/>
 <rect x="1.1906" y="1.1906" width="14.552" height="14.552" ry="3.9688" fill="url(#linearGradient1053)" stroke-linecap="round" stroke-width=".72612"/>
 <g transform="translate(-3.3543 -10.094)" stroke-width=".01743">
  <path d="m12.009 11.285h-6.9853c-0.26594 0-0.47871 0.21277-0.47871 0.47871v4.8521c0 0.26594 0.21277 0.47871 0.47871 0.47871h6.9799c0.26594 0 0.47871-0.21277 0.47871-0.47871v-4.8521c0.0059-0.26594-0.21277-0.47871-0.47281-0.47871z" fill="#f1f3f7"/>
  <rect x="5.0234" y="12.461" width="6.9853" height="4.1311" fill="#fcfcfd"/>
  <circle cx="11.856" cy="11.905" r=".15366" fill="#f0582f"/>
  <circle cx="11.318" cy="11.905" r=".15366" fill="#fbd303"/>
  <circle cx="10.78" cy="11.905" r=".15366" fill="#6eb1e1"/>
 </g>
 <path d="m8.4064 7.9098c-0.11158 4e-3 -0.17291 0.0416-0.21288 0.12208-0.02565 0.0516-0.04661 0.13763-0.04663 0.19116-8.2e-5 0.19634-0.19832 0.37548-0.41577 0.37548-0.10669 0-0.1653-0.0294-0.38135-0.19116-0.09833-0.0736-0.16041-0.0545-0.31299 0.0957-0.14494 0.1427-0.14861 0.21104-0.02026 0.38134 0.05304 0.0704 0.10678 0.16422 0.11938 0.20874 0.03117 0.11007-0.01986 0.31156-0.10181 0.40112-0.06717 0.0734-0.23396 0.13061-0.3794 0.13061-0.1383 0-0.18798 0.0787-0.18798 0.29663 0 0.16967 0.0065 0.19283 0.0647 0.23144 0.03556 0.0236 0.13827 0.0535 0.22851 0.0664 0.09024 0.0129 0.19441 0.0435 0.2312 0.0679 0.07767 0.0515 0.16768 0.23604 0.16846 0.34546 6.14e-4 0.0794-0.06052 0.21986-0.12353 0.28368-0.06868 0.0696-0.11892 0.19617-0.10083 0.2539 0.02318 0.074 0.18017 0.23212 0.26148 0.26342 0.04657 0.018 0.0804 0.0127 0.12548-0.0193 0.13216-0.0938 0.35827-0.19556 0.43457-0.19556 0.11502 0 0.30581 0.10151 0.34765 0.18506 0.0197 0.0394 0.04426 0.13108 0.05469 0.20361 0.02529 0.17588 0.06526 0.25866 0.13232 0.27294 0.03049 6e-3 0.07955 0.0174 0.10888 0.0242 0.02934 7e-3 0.09539 7e-3 0.14672 0 0.13391-0.018 0.20528-0.11783 0.22778-0.31861 0.02057-0.18357 0.03742-0.2131 0.17261-0.29956 0.13727-0.0878 0.24472-0.10492 0.35034-0.0559 0.08757 0.0406 0.12296 0.0617 0.2666 0.15747 0.10524 0.0702 0.17082 0.0586 0.29248-0.0527 0.18292-0.16739 0.18661-0.24018 0.02271-0.4314-0.15601-0.18198-0.15779-0.40589-0.0044-0.57785 0.05874-0.0659 0.11141-0.0888 0.28539-0.12353 0.2627-0.0525 0.30539-0.0954 0.30615-0.3086 7.56e-4 -0.21295-0.03312-0.24774-0.27978-0.28638-0.23471-0.0368-0.30986-0.0898-0.39234-0.27564-0.06857-0.15454-0.04965-0.2451 0.09668-0.45728 0.07504-0.10879 0.11239-0.18819 0.10376-0.22167-0.01928-0.0747-0.26242-0.29761-0.32472-0.29761-0.02884 0-0.10564 0.0415-0.17064 0.0918-0.17932 0.13867-0.28612 0.16999-0.43945 0.12889-0.18016-0.0483-0.24428-0.12435-0.2898-0.34423-0.05226-0.25252-0.08595-0.29798-0.23462-0.31495-0.04953-6e-3 -0.0922-8e-3 -0.1294-7e-3v-4.7e-4zm0.0603 1.25a0.75001 0.75001 0 0 1 0.75002 0.75 0.75001 0.75001 0 0 1-0.75002 0.75002 0.75001 0.75001 0 0 1-0.75002-0.75002 0.75001 0.75001 0 0 1 0.75002-0.75z" fill="#fff" stroke-width=".125"/>
</svg>
