<?xml version="1.0" encoding="UTF-8"?>
<!-- Created with Inkscape (http://www.inkscape.org/) -->
<svg width="64" height="64" version="1.1" viewBox="0 0 16.933 16.933" xmlns="http://www.w3.org/2000/svg">
 <defs>
  <filter id="filter1057" x="-.027" y="-.027" width="1.054" height="1.054" color-interpolation-filters="sRGB">
   <feGaussianBlur stdDeviation="0.61875"/>
  </filter>
  <linearGradient id="linearGradient1053" x1="-127" x2="-72" y1="60" y2="5" gradientTransform="matrix(.26458 0 0 .26458 34.793 -.13494)" gradientUnits="userSpaceOnUse">
   <stop stop-color="#32d7ff" offset="0"/>
   <stop stop-color="#329bff" offset="1"/>
  </linearGradient>
 </defs>
 <rect transform="scale(.26458)" x="4.5" y="4.5" width="55" height="55" ry="15" fill="#141414" filter="url(#filter1057)" opacity=".3" stroke-linecap="round" stroke-width="2.7444"/>
 <rect x="1.1906" y="1.1906" width="14.552" height="14.552" ry="3.9688" fill="url(#linearGradient1053)" stroke-linecap="round" stroke-width=".72612"/>
 <path d="m7.6719 7.8655 0.62972-1.3194-0.57069-1.2016s-0.12722-0.35751-0.54069-0.35751h-3.0507s-0.56455 0.055301-0.46383 0.56424l2.8307 6.0404s0.41877 0.79249 0.98598 0l2.4734-5.276s0.09746-0.21553 0.19866-0.21553h1.415s0.14243-0.0112 0.07872 0.12745c-0.06372 0.13869-1.6661 3.5787-1.6661 3.5787s-0.09558 0.24364-0.20241 0l-0.55288-1.2135-0.6091 1.3081 0.69084 1.5052s0.58045 1.2165 1.1476 0c0.5672-1.2165 2.738-5.8072 2.738-5.8072s0.30216-0.61226-0.39227-0.61226h-3.2621s-0.20616 8e-3 -0.32611 0.25879c-0.11994 0.25114-2.1356 4.5955-2.1356 4.5955s-0.07497 0.15087-0.15462 0c-0.07965-0.15087-1.6986-3.6013-1.6986-3.6013s-0.080182-0.14776 0.13384-0.14776h1.3473s0.12182-0.0218 0.22302 0.2012c0.1012 0.22303 0.7328 1.5724 0.7328 1.5724z" fill="#fff"/>
</svg>
