<?xml version="1.0" encoding="UTF-8"?>
<svg width="64" height="64" version="1.1" viewBox="0 0 16.933 16.933" xmlns="http://www.w3.org/2000/svg" xmlns:cc="http://creativecommons.org/ns#" xmlns:dc="http://purl.org/dc/elements/1.1/" xmlns:rdf="http://www.w3.org/1999/02/22-rdf-syntax-ns#" xmlns:xlink="http://www.w3.org/1999/xlink">
 <metadata>
  <rdf:RDF>
   <cc:Work rdf:about="">
    <dc:format>image/svg+xml</dc:format>
    <dc:type rdf:resource="http://purl.org/dc/dcmitype/StillImage"/>
   </cc:Work>
  </rdf:RDF>
 </metadata>
 <defs>
  <filter id="filter1057-6" x="-.027" y="-.027" width="1.054" height="1.054" color-interpolation-filters="sRGB">
   <feGaussianBlur stdDeviation="0.61875"/>
  </filter>
  <linearGradient id="linearGradient2354" x1="4.5" x2="59.5" y1="59.5" y2="4.5" gradientTransform="scale(.26458)" gradientUnits="userSpaceOnUse">
   <stop stop-color="#343944" offset="0"/>
   <stop stop-color="#444e61" offset="1"/>
  </linearGradient>
 </defs>
 <g fill="#5e4aa6" stroke-width=".26458">
  <circle cx="-330.38" cy="-328.37" r="0"/>
  <circle cx="-312.55" cy="-328.38" r="0"/>
  <circle cx="-295.13" cy="-341.25" r="0"/>
 </g>
 <rect transform="scale(.26458)" x="4.5" y="4.5" width="55" height="55" ry="15" fill="#141414" filter="url(#filter1057-6)" opacity=".3" stroke-linecap="round" stroke-width="2.7444"/>
 <g>
  <path d="m5.1593 1.1906c-2.1986 0-3.9687 1.77-3.9687 3.9687v6.6145c0 2.1986 1.77 3.9687 3.9687 3.9687h6.6145c2.1986 0 3.9687-1.77 3.9687-3.9687v-6.6145c0-2.1986-1.77-3.9687-3.9687-3.9687z" fill="url(#linearGradient2354)" stroke-linecap="round" stroke-linejoin="round" stroke-width=".73366" style="paint-order:stroke fill markers"/>
  <path d="m6.8681 2.9095-0.01496 11.114h0.04568l0.01698-11.114zm1.5816 0-0.01536 11.114h0.04771l0.01496-11.114zm1.5998 0-0.01496 11.114h0.04568l0.01537-11.114zm-4.7274 0.0113c-0.01583 0.00201-0.03196 0.00201-0.04771 3e-3l-0.01496 11.083c0.01519 2e-3 0.03042 3e-3 0.04568 5e-3zm6.332 7.672e-4 -0.01537 11.09c0.01526-2e-3 0.03091-2e-3 0.04609-3e-3l0.01658-11.083c-0.01571-0.00201-0.0315-3e-3 -0.0473-5e-3zm1.5695 0.71277-0.01294 9.6759c0.01515-0.0142 0.03129-0.0275 0.04609-0.042l0.01415-9.591c-0.01505-0.014999-0.03189-0.028199-0.0473-0.042899zm-9.5012 0.014599c-0.01529 0.014801-0.03076 0.029299-0.04569 0.044399l-0.01455 9.5299c0.01532 0.0158 0.03038 0.0318 0.04609 0.0473z" color="#000000" color-rendering="auto" dominant-baseline="auto" fill="#42d2b2" image-rendering="auto" shape-rendering="auto" solid-color="#000000" style="font-feature-settings:normal;font-variant-alternates:normal;font-variant-caps:normal;font-variant-ligatures:normal;font-variant-numeric:normal;font-variant-position:normal;isolation:auto;mix-blend-mode:normal;shape-padding:0;text-decoration-color:#000000;text-decoration-line:none;text-decoration-style:solid;text-indent:0;text-orientation:mixed;text-transform:none;white-space:normal"/>
  <path d="m3.6738 3.6807c-0.01467 0.0147-0.02773 0.030999-0.04205 0.046099h9.6694c-0.01433-0.015099-0.02738-0.031399-0.04204-0.046099zm-0.75077 1.5876c-0.0015 0.0152-0.0012 0.0308-0.0024 0.0461h11.092c-0.0013-0.0152-9.26e-4 -0.030899-0.0024-0.0461zm-0.013745 1.5909v0.045699h11.114v-0.045699zm0 1.5828v0.0473h11.114v-0.0473zm0 1.5877v0.0461h11.114v-0.0461zm0.01132 1.586c0.0013 0.0158 8.73e-4 0.032 0.0024 0.0477h11.087c0.0016-0.0157 0.0011-0.0319 0.0024-0.0477zm0.71155 1.5909c0.0142 0.0149 0.0271 0.0311 0.04164 0.0457h9.5853c0.01454-0.0146 0.02745-0.0307 0.04165-0.0457z" color="#000000" color-rendering="auto" dominant-baseline="auto" fill="#42d2b2" image-rendering="auto" shape-rendering="auto" solid-color="#000000" style="font-feature-settings:normal;font-variant-alternates:normal;font-variant-caps:normal;font-variant-ligatures:normal;font-variant-numeric:normal;font-variant-position:normal;isolation:auto;mix-blend-mode:normal;shape-padding:0;text-decoration-color:#000000;text-decoration-line:none;text-decoration-style:solid;text-indent:0;text-orientation:mixed;text-transform:none;white-space:normal"/>
  <path d="m7.969 5.0549c-0.02087 3e-3 -0.03758 0.030299-0.05972 0.088398-0.0428 0.11237-0.05265 0.27411-0.10884 1.7832-0.02966 0.7965-0.09426 1.5102-0.14988 1.6562-0.072 0.18902-0.192 0.12989-0.49362-0.24296-0.15522-0.19189-0.33092-0.38716-0.39051-0.43395-0.10255-0.080498-0.11416-0.081199-0.21827-0.013099-0.0605 0.039599-0.13936 0.14293-0.17518 0.22975-0.0925 0.22418-0.21924 0.3456-0.39551 0.3786-0.08397 0.0157-0.51716 4e-3 -0.96253-0.0269l-0.77294-0.0529c1.28e-4 0.0431 3.17e-4 0.0862 2.91e-4 0.12934l0.40507 0.0351c0.24278 0.0211 0.67484 0.0385 0.96018 0.0385 0.60506 0 0.70856-0.0425 0.84295-0.34572 0.04583-0.10341 0.10239-0.19972 0.12561-0.21404 0.08919-0.054999 0.2128 0.0363 0.46641 0.34468 0.1446 0.17585 0.31067 0.35101 0.36904 0.38919 0.14205 0.0929 0.27644 0.0446 0.34712-0.12465 0.07194-0.17224 0.14337-0.89226 0.17327-1.7473 0.02584-0.7389 0.04821-0.91122 0.10649-0.81711 0.03368 0.054399 0.0669 0.35892 0.10781 0.98902 0.0084 0.13002 0.04642 0.58449 0.08443 1.01 0.12757 1.4285 0.17337 1.6835 0.29535 1.6432 0.06423-0.0213 0.14902-0.37542 0.15444-0.6452 0.0023-0.11306 0.03231-0.27255 0.06663-0.35454 0.07088-0.16931 0.10525-0.17579 0.52392-0.0988 0.38013 0.0699 0.46085 0.0258 0.62408-0.34059 0.21922-0.492 0.22747-0.504 0.35404-0.51866 0.09866-0.011401 0.1574 0.028999 0.34242 0.23636 0.67936 0.76109 0.75665 0.79154 1.1252 0.44365 0.12522-0.11821 0.24621-0.21493 0.26902-0.21493 0.02281 0 0.14371 0.087 0.26858 0.19334 0.18553 0.15807 0.25794 0.19349 0.3964 0.19349h0.0403v-0.12889h-0.01442c-0.10702 0-0.1999-0.0487-0.36992-0.1935-0.30554-0.2603-0.40675-0.25707-0.6638 0.0214-0.2905 0.31474-0.3044 0.30999-0.84692-0.29404-0.55731-0.62052-0.68622-0.61268-0.94694 0.057699-0.05516 0.14183-0.14555 0.3053-0.20077 0.36332-0.09708 0.10202-0.10867 0.10381-0.35154 0.0538-0.36758-0.0758-0.5093-0.066-0.60996 0.0419-0.04802 0.0515-0.09852 0.1288-0.11223 0.17192-0.03159 0.0993-0.09252 0.10097-0.12223 3e-3 -0.034423-0.11328-0.10706-0.75859-0.13179-1.1714-0.03138-0.52369-0.19006-2.192-0.22166-2.3304-0.01468-0.064299-0.05324-0.13896-0.08575-0.16589-0.01755-0.014599-0.0316-0.021701-0.04412-0.019999z" opacity=".25" stroke-width=".33936"/>
  <path d="m7.969 5.0086c-0.02087 3e-3 -0.03758 0.030299-0.05972 0.088398-0.0428 0.11236-0.05265 0.27411-0.10884 1.7832-0.02966 0.7965-0.09426 1.5102-0.14988 1.6562-0.072 0.18903-0.192 0.1299-0.49362-0.24296-0.15522-0.19189-0.33092-0.38717-0.39051-0.43395-0.10255-0.080498-0.11416-0.081198-0.21827-0.013099-0.0605 0.039599-0.13936 0.14294-0.17518 0.22975-0.0925 0.22419-0.21924 0.34561-0.39551 0.37861-0.08397 0.0157-0.51716 4e-3 -0.96253-0.0269l-0.77294-0.0529c1.28e-4 0.0431 3.17e-4 0.0862 2.91e-4 0.12933l0.40507 0.0351c0.24278 0.0211 0.67484 0.0385 0.96018 0.0385 0.60506 0 0.70856-0.0425 0.84295-0.34572 0.04583-0.10341 0.10239-0.19972 0.12561-0.21404 0.08919-0.054999 0.2128 0.036299 0.46641 0.34469 0.1446 0.17584 0.31067 0.351 0.36904 0.38917 0.14205 0.0929 0.27644 0.0446 0.34712-0.12464 0.07194-0.17224 0.14337-0.89226 0.17327-1.7473 0.02584-0.7389 0.04821-0.91122 0.10649-0.81711 0.03368 0.054399 0.0669 0.35892 0.10781 0.98901 0.0084 0.13003 0.04642 0.5845 0.08443 1.01 0.12757 1.4285 0.17337 1.6835 0.29535 1.6432 0.06423-0.0213 0.14902-0.37542 0.15444-0.6452 0.0023-0.11305 0.03231-0.27255 0.06663-0.35454 0.07088-0.16931 0.10525-0.17579 0.52392-0.0988 0.38013 0.0699 0.46085 0.0258 0.62408-0.34058 0.21922-0.492 0.22747-0.504 0.35404-0.51866 0.09866-0.011401 0.1574 0.028999 0.34242 0.23636 0.67936 0.76107 0.75665 0.79154 1.1252 0.44364 0.12522-0.1182 0.24621-0.21492 0.26902-0.21492 0.02281 0 0.14371 0.087 0.26858 0.19334 0.18553 0.15807 0.25794 0.19349 0.3964 0.19349h0.0403v-0.12889h-0.01442c-0.10702 0-0.1999-0.0487-0.36992-0.19349-0.30554-0.26031-0.40675-0.25708-0.6638 0.0214-0.2905 0.31475-0.3044 0.30999-0.84692-0.29405-0.55731-0.62051-0.68622-0.61267-0.94694 0.057699-0.05516 0.14185-0.14555 0.3053-0.20077 0.36333-0.09708 0.10202-0.10867 0.10381-0.35154 0.0538-0.36758-0.0758-0.5093-0.066-0.60996 0.0419-0.04802 0.0515-0.09852 0.12879-0.11223 0.17191-0.03159 0.0993-0.09252 0.10097-0.12223 3e-3 -0.034423-0.11327-0.10706-0.75859-0.13179-1.1714-0.03138-0.52368-0.19006-2.192-0.22166-2.3304-0.01468-0.064299-0.05324-0.13895-0.08575-0.16589-0.01755-0.014499-0.0316-0.021701-0.04412-0.019899z" fill="#00e6b5" stroke-width=".33936"/>
 </g>
</svg>
