<?xml version="1.0" encoding="UTF-8"?>
<svg width="64" height="64" version="1.1" viewBox="0 0 16.933 16.933" xmlns="http://www.w3.org/2000/svg" xmlns:cc="http://creativecommons.org/ns#" xmlns:dc="http://purl.org/dc/elements/1.1/" xmlns:rdf="http://www.w3.org/1999/02/22-rdf-syntax-ns#">
 <metadata>
  <rdf:RDF>
   <cc:Work rdf:about="">
    <dc:format>image/svg+xml</dc:format>
    <dc:type rdf:resource="http://purl.org/dc/dcmitype/StillImage"/>
   </cc:Work>
  </rdf:RDF>
 </metadata>
 <defs>
  <filter id="filter1057" x="-.027" y="-.027" width="1.054" height="1.054" color-interpolation-filters="sRGB">
   <feGaussianBlur stdDeviation="0.61875"/>
  </filter>
  <linearGradient id="linearGradient1053" x1="-127" x2="-72" y1="60" y2="5" gradientTransform="matrix(.26458 0 0 .26458 14.208 .079836)" gradientUnits="userSpaceOnUse">
   <stop stop-color="#32d7ff" offset="0"/>
   <stop stop-color="#329bff" offset="1"/>
  </linearGradient>
 </defs>
 <g transform="translate(20.584 -.21477)" stroke-linecap="round">
  <rect transform="matrix(.26458 0 0 .26458 -20.584 .21477)" x="4.5" y="4.5" width="55" height="55" ry="15" fill="#141414" filter="url(#filter1057)" opacity=".3" stroke-width="2.7444"/>
  <rect x="-19.394" y="1.4054" width="14.552" height="14.552" ry="3.9687" fill="url(#linearGradient1053)" stroke-width=".72611"/>
 </g>
 <path d="m12.175 6.0003c0.35051-0.46918 0.56031-0.95631 0.56133-1.3043-5.48e-4 -0.1127-0.02303-0.20077-0.06604-0.26638-0.0045-0.00803-0.01692-0.029024-0.03878-0.049715-0.02175-0.021561-0.04127-0.033095-0.0455-0.035427-0.06882-0.045933-0.15731-0.068089-0.27003-0.068089-0.34715 5.284e-4 -0.83441 0.21024-1.3037 0.56133-0.37935 0.28387-0.75873 0.68365-1.2839 1.2373-0.08909 0.093889-0.18284 0.1926-0.28199 0.29612l-1.0172-0.30487 3e-3 -0.00289c0.04228-0.042726 0.06635-0.10148 0.06577-0.15922 5.98e-4 -0.060946-0.02406-0.1197-0.06649-0.16198l-0.18366-0.184c-0.04243-0.042725-0.10105-0.067212-0.16169-0.067212-0.06124 0-0.11839 0.023616-0.16112 0.066779l-0.27483 0.27498-0.14552-0.043448c0.03135-0.039808 0.0487-0.089523 0.04811-0.13851 5.98e-4 -0.061826-0.02333-0.11941-0.06633-0.16213l-0.18459-0.18459c-0.042136-0.042276-0.10046-0.066486-0.16169-0.066486-0.06095 0-0.11796 0.023775-0.16024 0.06678l-0.25223 0.25209-1.0343-0.30982c-0.02318-0.00686-0.04768-0.010489-0.07392-0.010489-0.07348 7.977e-4 -0.14157 0.028142-0.19128 0.077424l-0.36363 0.36377c-0.04127 0.041259-0.06445 0.097099-0.064 0.15002-0.0013 0.077998 0.04185 0.15002 0.11095 0.18705l2.175 1.2151c0.01064 0.00598 0.04141 0.028726 0.05278 0.040097l0.62008 0.61994c-0.58 0.61104-1.0967 1.2029-1.4994 1.7177-0.03762 0.04783-0.0732 0.094476-0.10819 0.1407l-1.6827-0.15281c-0.0082-0.00105-0.01736-0.00184-0.02902-0.00184-0.07713 0.0016-0.15251 0.032091-0.20848 0.086174l-0.16957 0.16941c-0.04185 0.040975-0.06547 0.096367-0.06488 0.14988-0.0013 0.081651 0.04811 0.15716 0.12233 0.19026l1.1837 0.56221c0.0102 0.0051 0.03674 0.02391 0.04535 0.03251l0.09827 0.09755c-0.03076 0.0866-0.04636 0.16168-0.04725 0.2276-3.03e-4 0.0882 0.02814 0.16372 0.08253 0.21811l0.0042 0.0036 0.0012 7.98e-4c0.05584 0.0541 0.12816 0.08165 0.21768 0.08165 0.06445-1e-3 0.1388-0.01633 0.2257-0.04694l0.09972 0.09958c0.0077 0.0082 0.02625 0.03411 0.03106 0.04447l0.56104 1.1811c0.03427 0.07537 0.10818 0.12421 0.18866 0.12421h0.0011c0.0557 0 0.10892-0.02231 0.14959-0.06312l0.17364-0.17423c0.05146-0.05424 0.08179-0.12902 0.08295-0.2079 0-0.0096-4.35e-4 -0.01705-7.48e-4 -0.02116l-0.15325-1.6888c0.04608-0.0347 0.09273-0.07042 0.14069-0.10775 0.51555-0.40328 1.1075-0.92045 1.7174-1.4996l0.62053 0.62112c0.01006 0.00961 0.03353 0.040391 0.0404 0.053216l1.2128 2.1711c0.03703 0.07012 0.10833 0.11344 0.18736 0.11344 0.05643 0 0.11008-0.02231 0.1512-0.06371l0.36624-0.36597c0.04754-0.0497 0.07422-0.11722 0.07494-0.19099 0-0.02479-0.0035-0.04884-0.0099-0.07144l-0.30983-1.0346 0.25208-0.25252c0.04243-0.042151 0.0665-0.10075 0.0665-0.16096 0-0.060513-0.02348-0.11737-0.06619-0.16068l-0.18488-0.18472c-0.04228-0.04243-0.10076-0.066624-0.16096-0.066624-0.05103 0-0.10088 0.01705-0.13982 0.04783l-0.04331-0.14493 0.27512-0.27513c0.04228-0.04243 0.06635-0.10105 0.06635-0.16141 0-0.060793-0.02348-0.11779-0.06635-0.16052l-0.18392-0.18401c-0.04242-0.043019-0.10132-0.067367-0.16183-0.067367-0.06079 0-0.1197 0.024628-0.16125 0.067073l-0.0019 0.00184-0.30473-1.0171c0.10528-0.10031 0.20514-0.19582 0.30064-0.28577 0.55163-0.52345 0.94995-0.90136 1.2331-1.2798z" fill="#fcfcfc" stroke-width=".30497"/>
</svg>
