<?xml version="1.0" encoding="UTF-8"?>
<svg width="64" height="64" version="1.1" viewBox="0 0 16.933 16.933" xmlns="http://www.w3.org/2000/svg" xmlns:cc="http://creativecommons.org/ns#" xmlns:dc="http://purl.org/dc/elements/1.1/" xmlns:rdf="http://www.w3.org/1999/02/22-rdf-syntax-ns#" xmlns:xlink="http://www.w3.org/1999/xlink">
 <metadata>
  <rdf:RDF>
   <cc:Work rdf:about="">
    <dc:format>image/svg+xml</dc:format>
    <dc:type rdf:resource="http://purl.org/dc/dcmitype/StillImage"/>
   </cc:Work>
  </rdf:RDF>
 </metadata>
 <defs>
  <filter id="filter1057-2-1" x="-.027" y="-.027" width="1.054" height="1.054" color-interpolation-filters="sRGB">
   <feGaussianBlur stdDeviation="0.61875"/>
  </filter>
  <linearGradient id="linearGradient1053-7" x1="-127" x2="-72" y1="60" y2="5" gradientTransform="matrix(.26458 0 0 .26458 51.785 10.636)" gradientUnits="userSpaceOnUse">
   <stop stop-color="#8cd750" offset="0"/>
   <stop stop-color="#7dcd32" stop-opacity=".99608" offset=".49585"/>
   <stop stop-color="#87d241" stop-opacity=".99608" offset="1"/>
  </linearGradient>
  <linearGradient id="linearGradient1277" x1="32.153" x2="32.153" y1="46.593" y2="4.0937" gradientTransform="matrix(.27223 0 0 .27223 16.757 10.747)" gradientUnits="userSpaceOnUse">
   <stop stop-color="#d1ecba" offset="0"/>
   <stop stop-color="#d1ecba" stop-opacity="0" offset="1"/>
  </linearGradient>
  <filter id="filter2105" x="-.29795" y="-.12895" width="1.5959" height="1.2579" color-interpolation-filters="sRGB">
   <feGaussianBlur stdDeviation="0.44165673"/>
  </filter>
 </defs>
 <g fill="#5e4aa6" stroke-width=".26458">
  <circle cx="-330.38" cy="-328.37" r="0"/>
  <circle cx="-312.55" cy="-328.38" r="0"/>
  <circle cx="-295.13" cy="-341.25" r="0"/>
 </g>
 <g transform="translate(-16.993 -10.771)">
  <rect transform="matrix(.26458 0 0 .26458 16.993 10.771)" x="4.5" y="4.5" width="55" height="55" ry="15" fill="#141414" filter="url(#filter1057-2-1)" opacity=".3" stroke-linecap="round" stroke-width="2.7444"/>
  <rect x="18.184" y="11.962" width="14.552" height="14.552" ry="3.9687" fill="url(#linearGradient1053-7)" stroke-linecap="round" stroke-width=".7261"/>
  <path d="m22.152 11.962c-2.1986 0-3.9687 1.77-3.9687 3.9687v0.74051l7.3265 6.7597 7.2253-6.7576v-0.74258c0-2.1986-1.77-3.9687-3.9687-3.9687z" fill="url(#linearGradient1277)" stroke-width=".26458"/>
  <rect transform="matrix(-.70711 .70711 .70711 .70711 0 0)" x="-2.1142" y="30.022" width=".84188" height="4.6813" ry=".42094" fill="#fafafa"/>
  <path d="m25.067 15.245c-0.2332 0-0.42064 0.18795-0.42064 0.42115v7.3782c0 0.02186 3e-3 0.04261 0.0062 0.06356 8.24e-4 0.0053 5.2e-4 0.01072 0.0016 0.01602 0.0047 0.02441 0.01253 0.04758 0.02119 0.07028 1e-3 0.0027 0.0015 0.0056 0.0026 0.0083 0.04259 0.10511 0.12587 0.18891 0.23099 0.2315 0.0036 0.0015 0.0072 0.0023 0.01085 0.0036 0.0219 0.0082 0.04422 0.01515 0.0677 0.01964 0.02651 0.0052 0.0532 0.0078 0.0801 0.0078 0.02737-3.4e-5 0.05421-0.0028 0.0801-0.0078 1.62e-4 -3.1e-5 3.55e-4 3.2e-5 5.17e-4 0 0.0199-0.0039 0.03858-0.01052 0.05736-0.01705 0.0071-0.0025 0.01479-0.0034 0.0217-0.0062 0.023-0.0094 0.04438-0.02147 0.06511-0.03462 0.0023-0.0015 0.0049-0.0026 0.0072-0.0041 0.02359-0.01563 0.04572-0.0338 0.06563-0.05374l2.715-2.715c0.1649-0.1649 0.1649-0.4304 0-0.5953s-0.4304-0.1649-0.5953 0l-1.9967 1.9967v-6.3618c0-0.2332-0.18795-0.42115-0.42115-0.42115z" fill="#80d03a" filter="url(#filter2105)"/>
  <path d="m25.439 15.245c-0.2332 0-0.42064 0.18795-0.42064 0.42115v7.3782c0 0.02186 3e-3 0.04261 0.0062 0.06356 8.2e-4 0.0053 5.29e-4 0.01072 0.0016 0.01602 0.0047 0.02441 0.01253 0.04758 0.02119 0.07028 0.0011 0.0027 0.0015 0.0056 0.0026 0.0083 0.04259 0.10511 0.12587 0.18891 0.23099 0.2315 0.0036 0.0015 0.0072 0.0023 0.01085 0.0036 0.0219 0.0082 0.04422 0.01515 0.0677 0.01964 0.02651 0.0052 0.0532 0.0078 0.0801 0.0078 0.02737-3.4e-5 0.05421-0.0028 0.0801-0.0078 1.62e-4 -3.1e-5 3.44e-4 3.2e-5 5.29e-4 0 0.0199-0.0039 0.03858-0.01052 0.05736-0.01705 0.0071-0.0025 0.01479-0.0034 0.0217-0.0062 0.023-0.0094 0.04438-0.02147 0.06511-0.03462 0.0023-0.0015 0.0049-0.0026 0.0072-0.0041 0.02359-0.01563 0.04572-0.0338 0.06563-0.05374l2.715-2.715c0.1649-0.1649 0.1649-0.4304 0-0.5953s-0.4304-0.1649-0.5953 0l-1.9967 1.9967v-6.3618c0-0.2332-0.18795-0.42115-0.42115-0.42115z" fill="#fafafa"/>
 </g>
</svg>
