<?xml version="1.0" encoding="UTF-8"?>
<svg width="64" height="64" version="1.1" xmlns="http://www.w3.org/2000/svg" xmlns:cc="http://creativecommons.org/ns#" xmlns:dc="http://purl.org/dc/elements/1.1/" xmlns:rdf="http://www.w3.org/1999/02/22-rdf-syntax-ns#" xmlns:xlink="http://www.w3.org/1999/xlink">
 <metadata>
  <rdf:RDF>
   <cc:Work rdf:about="">
    <dc:format>image/svg+xml</dc:format>
    <dc:type rdf:resource="http://purl.org/dc/dcmitype/StillImage"/>
   </cc:Work>
  </rdf:RDF>
 </metadata>
 <defs>
  <linearGradient id="b" x1="399.57" x2="399.57" y1="545.8" y2="517.8" gradientTransform="matrix(2.1429 0 0 2.1429 -723.44 -1107.5)" gradientUnits="userSpaceOnUse">
   <stop stop-color="#3889e9" offset="0"/>
   <stop stop-color="#5ea5fb" offset="1"/>
  </linearGradient>
  <linearGradient id="b-3" x1="399.57" x2="399.57" y1="545.8" y2="517.8" gradientTransform="matrix(2.1429 0 0 2.1429 -753.02 -1107.5)" gradientUnits="userSpaceOnUse">
   <stop stop-color="#3889e9" offset="0"/>
   <stop stop-color="#5ea5fb" offset="1"/>
  </linearGradient>
  <filter id="filter1057" x="-.027" y="-.027" width="1.054" height="1.054" color-interpolation-filters="sRGB">
   <feGaussianBlur stdDeviation="0.61875"/>
  </filter>
  <linearGradient id="linearGradient1053-3" x1="-127" x2="-72" y1="60" y2="5" gradientTransform="matrix(1 0 0 1 131.5 -.50998)" gradientUnits="userSpaceOnUse">
   <stop stop-color="#32d7ff" offset="0"/>
   <stop stop-color="#329bff" offset="1"/>
  </linearGradient>
 </defs>
 <circle cx="134.94" cy="32.044" r="0" fill="url(#b)" stroke-width="1.5715"/>
 <circle cx="105.36" cy="32.044" r="0" fill="url(#b-3)" stroke-width="1.5715"/>
 <rect transform="matrix(1 0 0 1 -.000228 -.00022781)" x="4.5" y="4.5" width="55" height="55" ry="15" fill="#141414" filter="url(#filter1057)" opacity=".3" stroke-linecap="round" stroke-width="2.7444"/>
 <rect x="4.5" y="4.5" width="55.001" height="55.001" ry="15" fill="url(#linearGradient1053-3)" stroke-linecap="round" stroke-width="2.7444"/>
 <rect x="10" y="37" width="43.998" height="16" rx="5" ry="5" fill="#fff" opacity=".6" stroke-width="3.7796"/>
 <g transform="translate(-.386)" stroke-width="4.629">
  <g transform="translate(-11.709)">
   <rect x="27" y="41.001" width="15" height="10" rx="0" ry="2" fill="#008bff" opacity=".15"/>
   <rect x="27" y="40" width="15" height="10" rx="0" ry="2" fill="#f9f9f9"/>
  </g>
  <rect x="34.412" y="41.001" width="15" height="10" rx="0" ry="2" fill="#008bff" opacity=".15"/>
  <rect x="34.481" y="40" width="15" height="10" rx="0" ry="2" fill="#f9f9f9"/>
 </g>
</svg>
