<?xml version="1.0" encoding="UTF-8"?>
<svg width="64" height="64" version="1.1" viewBox="0 0 16.933 16.933" xmlns="http://www.w3.org/2000/svg" xmlns:cc="http://creativecommons.org/ns#" xmlns:dc="http://purl.org/dc/elements/1.1/" xmlns:rdf="http://www.w3.org/1999/02/22-rdf-syntax-ns#" xmlns:xlink="http://www.w3.org/1999/xlink">
 <defs>
  <filter id="filter1057" x="-.027" y="-.027" width="1.054" height="1.054" color-interpolation-filters="sRGB">
   <feGaussianBlur stdDeviation="0.61875"/>
  </filter>
  <linearGradient id="linearGradient1053" x1="-127" x2="-80.659" y1="60" y2="13.659" gradientTransform="matrix(.26458 0 0 .26458 34.792 -.13493)" gradientUnits="userSpaceOnUse">
   <stop stop-color="#ff7d1e" offset="0"/>
   <stop stop-color="#ffa53c" offset="1"/>
  </linearGradient>
 </defs>
 <metadata>
  <rdf:RDF>
   <cc:Work rdf:about="">
    <dc:format>image/svg+xml</dc:format>
    <dc:type rdf:resource="http://purl.org/dc/dcmitype/StillImage"/>
   </cc:Work>
  </rdf:RDF>
 </metadata>
 <g stroke-linecap="round">
  <rect transform="scale(.26458)" x="4.5" y="4.5" width="55" height="55" ry="15" fill="#141414" filter="url(#filter1057)" opacity=".3" stroke-width="2.7444"/>
  <rect x="1.1906" y="1.1906" width="14.552" height="14.552" ry="3.9687" fill="url(#linearGradient1053)" stroke-width=".7261"/>
  <rect x="4.4505e-7" y="5.412e-7" width="16.933" height="16.933" rx="0" ry="0" fill="none" stroke-linejoin="round" stroke-width=".38269" style="paint-order:stroke fill markers"/>
 </g>
 <circle cx="8.4667" cy="8.4783" r="7.9378" fill-opacity="0" stroke-width=".41579"/>
 <path d="m9.9729 5.0885-1.324 1.6001c-0.72836 0.87979-1.3246 1.6175-1.3246 1.6389 0 0.021497 0.62326 0.8215 1.3845 1.7781l1.3836 1.7393h1.45c1.1539 0 1.4423-0.0102 1.411-0.05181-0.07857-0.10387-2.6395-3.3287-2.6972-3.3961-0.05376-0.063064 0.06219-0.21728 1.2208-1.6164 0.70452-0.85094 1.3063-1.5798 1.3371-1.6195 0.05291-0.068673-0.01991-0.072535-1.3923-0.072535zm-5.6506 0s2.4489 3.2361 2.3993 3.2252c0.00561 0.016028-0.56132 0.74656-1.2601 1.6243-0.6988 0.87753-1.3259 1.6658-1.3929 1.7511l-0.12145 0.15564h2.9042l0.67935-0.85148c0.47128-0.59085 0.66775-0.86656 0.64161-0.90139-0.020894-0.027325-0.34431-0.43667-0.71931-0.90868l-0.68168-0.85811 0.71356-0.8607c0.39272-0.47325 0.71003-0.86361 0.70551-0.86813z" fill="#fff" fill-rule="evenodd" stroke-width=".03128"/>
</svg>
