<svg version="1.1" viewBox="0 0 48 48" xmlns="http://www.w3.org/2000/svg">
 <defs>
  <linearGradient id="bg" x1="1" x2="47" gradientTransform="matrix(0 -1 1 0 -1.5e-6 48)" gradientUnits="userSpaceOnUse">
   <stop style="stop-color:#dbdbdb" offset="0"/>
   <stop style="stop-color:#e5e5e5" offset="1"/>
  </linearGradient>
 </defs>
 <path d="m36.31 5c5.859 4.062 9.688 10.831 9.688 18.5 0 12.426-10.07 22.5-22.5 22.5-7.669 0-14.438-3.828-18.5-9.688 1.037 1.822 2.306 3.499 3.781 4.969 4.085 3.712 9.514 5.969 15.469 5.969 12.703 0 23-10.298 23-23 0-5.954-2.256-11.384-5.969-15.469-1.469-1.475-3.147-2.744-4.969-3.781zm4.969 3.781c3.854 4.113 6.219 9.637 6.219 15.719 0 12.703-10.297 23-23 23-6.081 0-11.606-2.364-15.719-6.219 4.16 4.144 9.883 6.719 16.219 6.719 12.703 0 23-10.298 23-23 0-6.335-2.575-12.06-6.719-16.219z" style="opacity:.05"/>
 <path d="m41.28 8.781c3.712 4.085 5.969 9.514 5.969 15.469 0 12.703-10.297 23-23 23-5.954 0-11.384-2.256-15.469-5.969 4.113 3.854 9.637 6.219 15.719 6.219 12.703 0 23-10.298 23-23 0-6.081-2.364-11.606-6.219-15.719z" style="opacity:.1"/>
 <path d="m31.25 2.375c8.615 3.154 14.75 11.417 14.75 21.13 0 12.426-10.07 22.5-22.5 22.5-9.708 0-17.971-6.135-21.12-14.75a23 23 0 0 0 44.875-7 23 23 0 0 0-16-21.875z" style="opacity:.2"/>
 <path d="m24 1c12.703 0 23 10.297 23 23s-10.297 23-23 23-23-10.297-23-23 10.297-23 23-23z" style="fill:url(#bg)"/>
 <g transform="translate(1,1)">
  <g style="opacity:.1">
   <path transform="translate(-1,-1)" d="m32.602 13c-0.842-0.062-2.08 0.626-3.404 2.615h0.016l-3.492 3.969-9.949 13.695c-2.045 4.684 0.397 4.078 1.898 2.775 0.655 0.457 1.312 0.224 1.967 0.018 0.016-0.091 0.031-0.181 0.047-0.271l3.686-1.088s3.399-3.152 5.934-5.498l2.504 2.867c0.832 0.211 4.639-0.141 2.604-2.59l-2.424-2.764c1.301-1.206 2.087-1.928 3-2.777 0 0 0.192-0.637-0.979-1.883-0.85-0.899-1.478-1.043-1.738-1.059l-2.979 2.645-1.74-1.984 5.688-5.895c0.877-1.378 0.446-2.696-0.637-2.775m-7.549 11.348 1.563 1.789c-2.546 2.363-6.04 5.607-6.04 5.607l-1.203 3.266c-0.247 0.16-0.772 0.012-0.816 0.012z"/>
  </g>
 </g>
 <path d="m19.598 12.742 13.813 15.75c2.035 2.449-1.773 2.801-2.605 2.59l-14.406-16.496c-1.895-2.078 1.93-2.852 3.199-1.844" style="fill:#3d3d3d"/>
 <path d="m28.21 14.617-5.676 6.453-7.762 11.211c-2.559 5.863 1.937 3.457 2.781 1.742l6.645-10.91 8.04-8.336c1.559-2.449-1.012-4.707-4.04-0.16" style="fill:#3d3d3d"/>
 <path d="m16.555 33.922c1.168 0.223 1.582 0.313 2.305-0.133-0.074 0.43-0.148 0.855-0.223 1.285-0.707 0.223-1.418 0.488-2.125-0.133" style="fill:#3d3d3d"/>
 <path d="m31.27 20.01-11.697 10.734-1.57 4.258 4.367-1.289 0.012 0.012 0.023-0.023h4e-3l11.578-10.75s0.192-0.637-0.979-1.883c-0.85-0.899-1.478-1.043-1.738-1.059z" style="fill:#3686dd"/>
 <path d="m40.03 7.531c3.712 4.084 5.969 9.514 5.969 15.469 0 12.703-10.297 23-23 23-5.954 0-11.384-2.256-15.469-5.969 4.178 4.291 10.01 6.969 16.469 6.969 12.703 0 23-10.298 23-23 0-6.462-2.677-12.291-6.969-16.469z" style="opacity:.1"/>
</svg>
