<?xml version="1.0" encoding="UTF-8"?>
<svg width="64" height="64" version="1.1" viewBox="0 0 16.933 16.933" xmlns="http://www.w3.org/2000/svg" xmlns:cc="http://creativecommons.org/ns#" xmlns:dc="http://purl.org/dc/elements/1.1/" xmlns:rdf="http://www.w3.org/1999/02/22-rdf-syntax-ns#" xmlns:xlink="http://www.w3.org/1999/xlink">
 <metadata>
  <rdf:RDF>
   <cc:Work rdf:about="">
    <dc:format>image/svg+xml</dc:format>
    <dc:type rdf:resource="http://purl.org/dc/dcmitype/StillImage"/>
   </cc:Work>
  </rdf:RDF>
 </metadata>
 <defs>
  <filter id="filter1057-6" x="-.027" y="-.027" width="1.054" height="1.054" color-interpolation-filters="sRGB">
   <feGaussianBlur stdDeviation="0.61875"/>
  </filter>
  <linearGradient id="linearGradient1053-2" x1="-99.836" x2="-99.836" y1="56.135" y2="7.1877" gradientTransform="matrix(.26458 0 0 .26458 34.792 -.1351)" gradientUnits="userSpaceOnUse">
   <stop stop-color="#87e1aa" offset="0"/>
   <stop stop-color="#c3fa46" offset="1"/>
  </linearGradient>
  <linearGradient id="linearGradient1260" x1="15.744" x2="20.15" y1="12.149" y2="24.489" gradientTransform="matrix(.46514 0 0 .46514 -17.363 .5718)" gradientUnits="userSpaceOnUse">
   <stop stop-color="#fff" offset="0"/>
   <stop stop-color="#c5efbe" offset="1"/>
  </linearGradient>
  <radialGradient id="radialGradient1262" cx="26.204" cy="13.899" r="1.5651" gradientTransform="matrix(.49854 0 0 .49854 -18.029 .055048)" gradientUnits="userSpaceOnUse" xlink:href="#linearGradient1021"/>
  <linearGradient id="linearGradient1021">
   <stop stop-color="#3eb12c" offset="0"/>
   <stop stop-color="#3eb12c" stop-opacity="0" offset="1"/>
  </linearGradient>
  <radialGradient id="radialGradient1264" cx="26.039" cy="14.005" r=".76186" gradientTransform="matrix(.49854 0 0 .49854 -17.94 .007939)" gradientUnits="userSpaceOnUse" xlink:href="#linearGradient1021"/>
 </defs>
 <rect transform="matrix(.26458 0 0 .26458 -6.0163e-5 -6.0163e-5)" x="4.5" y="4.5" width="55" height="55" ry="15" fill="#141414" filter="url(#filter1057-6)" opacity=".3" stroke-linecap="round" stroke-width="2.7444"/>
 <rect x="1.1905" y="1.1905" width="14.552" height="14.552" ry="3.9688" fill="url(#linearGradient1053-2)" stroke-linecap="round" stroke-width=".72612"/>
 <g transform="translate(17.944 -.041693)">
  <path d="m-6.5127 5.3913c-0.27503 0.00547-0.39247 0.14296-0.58918 0.3774-0.15512 0.19678-0.21985 0.16787-0.4948 0.09298-0.69348-0.1883-1.3447-0.26731-1.9534-0.26526-2.0447 0.00691-3.4811 0.41945-4.6304 1.4443-0.50217 0.41766-0.85514 1.0187-1.0032 1.5443-0.2477 0.8503-0.1624 1.8262 0.44298 2.4034 0.46886 0.484 1.0405 0.72166 1.6485 0.60937 0.85414-0.15776 1.2429-0.75664 1.2605-1.4025 0.01332-0.49052-0.32465-1.1732-1.0178-1.3898-0.35522-0.11101-0.61399-0.052058-0.86904 0.08718-0.25505 0.13924-0.40296 0.36932-0.44032 0.60896-0.05287 0.33916 0.03173 0.43556 0.09437 0.57148 0.12904 0.24522 0.5677 0.59562 0.81154 0.33544 0.23822-0.23158-0.53049-0.56536-0.12776-0.82205 0.04721-0.02577 0.17089-0.0635 0.41829-0.02481 0.22394 0.03503 0.39248 0.29046 0.3859 0.60958-0.0066 0.31912-0.13888 0.61369-0.65812 0.70959-0.24196 0.04469-0.66995-0.08966-0.9716-0.40105-0.34222-0.39219-0.54783-1.0952-0.0025-1.7643 0.34118-0.31794 0.54431-0.32542 0.97516-0.32508 1.7391 0.21029 1.9124 1.1787 2.0884 1.8396 0.11917 0.46685 0.74811 0.40012 0.74998 1e-3 4e-3 -0.18456-0.04818-0.32856-0.01754-0.4929 0.07479-0.39706 0.22573-0.64038 0.78312-0.68352 0.3057-0.01587 0.59498 0.03397 0.86498 0.16091 0.31026 0.12522 0.45285 0.36032 0.65536 0.62748l0.34518 0.45536c0.24473 0.33123 0.56265 0.2411 0.66422 0.04946 0.0679-0.17494-0.17841-0.80256-0.09893-1.1094 0.15317-0.59228 1.5754-0.22659 2.4026-0.29679 0.39083-0.03566 0.66626-0.13922 0.96936-0.42934 0.0939-0.11403 0.15177-0.21267 0.17266-0.36473 0.03713-0.30942-0.01746-0.60672-0.08208-1.0008-0.14797-0.64284-0.45267-0.98155-0.93589-1.205-0.36539-0.1434-0.73525-0.29811-1.1242-0.4101-0.32965-0.09934-0.55137-0.14364-0.71639-0.14036zm1.5622 0.92778c0.35325 7e-6 0.6396 0.28639 0.63957 0.63965-7e-6 0.35322-0.28635 0.63956-0.63957 0.63957-0.35325 3.48e-5 -0.63964-0.28632-0.63964-0.63957-3.6e-5 -0.35328 0.28636-0.63968 0.63964-0.63965zm0 0.14492c-0.27323-5.5e-6 -0.49473 0.22149-0.49473 0.49473-5e-6 0.27323 0.2215 0.49473 0.49473 0.49473 0.2732-3.79e-5 0.49466-0.22152 0.49465-0.49473 7e-6 -0.2732-0.22145-0.49469-0.49465-0.49473zm0 0.29331c0.11121 3.04e-5 0.20135 0.090202 0.20134 0.20142-3e-5 0.11118-0.09015 0.20131-0.20134 0.20134-0.11121 1.25e-5 -0.20138-0.090125-0.20142-0.20134-1.2e-5 -0.11124 0.09017-0.20143 0.20142-0.20142z" fill="url(#linearGradient1260)"/>
  <path d="m-4.9647 6.2039a0.78024 0.78024 0 0 0-0.78035 0.78035 0.78024 0.78024 0 0 0 0.78035 0.78009 0.78024 0.78024 0 0 0 0.78035-0.78009 0.78024 0.78024 0 0 0-0.78035-0.78035zm0.02345 0.24732a0.51525 0.51525 0 0 1 0.51525 0.51525 0.51525 0.51525 0 0 1-0.51525 0.51525 0.51525 0.51525 0 0 1-0.51525-0.51525 0.51525 0.51525 0 0 1 0.51525-0.51525z" fill="url(#radialGradient1262)" opacity=".59"/>
  <circle cx="-4.9587" cy="6.99" r=".37981" fill="url(#radialGradient1264)" opacity=".59"/>
 </g>
</svg>
