<?xml version="1.0" encoding="UTF-8" standalone="no"?>
<svg
   xmlns:dc="http://purl.org/dc/elements/1.1/"
   xmlns:cc="http://creativecommons.org/ns#"
   xmlns:rdf="http://www.w3.org/1999/02/22-rdf-syntax-ns#"
   xmlns:svg="http://www.w3.org/2000/svg"
   xmlns="http://www.w3.org/2000/svg"
   xmlns:xlink="http://www.w3.org/1999/xlink"
   xmlns:sodipodi="http://sodipodi.sourceforge.net/DTD/sodipodi-0.dtd"
   xmlns:inkscape="http://www.inkscape.org/namespaces/inkscape"
   width="64"
   height="64"
   version="1.1"
   id="svg16"
   sodipodi:docname="yast-update.svg"
   inkscape:version="1.0 (4035a4fb49, 2020-05-01)">
  <metadata
     id="metadata22">
    <rdf:RDF>
      <cc:Work
         rdf:about="">
        <dc:format>image/svg+xml</dc:format>
        <dc:type
           rdf:resource="http://purl.org/dc/dcmitype/StillImage" />
        <dc:title></dc:title>
      </cc:Work>
    </rdf:RDF>
  </metadata>
  <defs
     id="defs20">
    <linearGradient
       id="b"
       x1="-6.1472"
       x2="-6.1472"
       y1="-137.82"
       y2="-100.78"
       gradientTransform="matrix(0.53033,0,0,0.53033,11.536,352.06)"
       gradientUnits="userSpaceOnUse">
      <stop
         stop-color="#14dc78"
         offset="0"
         id="stop849" />
      <stop
         stop-color="#14a03c"
         offset="1"
         id="stop851" />
    </linearGradient>
    <linearGradient
       id="a"
       x1="-6.1738"
       x2="-6.1738"
       y1="-126.08"
       y2="-126.7"
       gradientTransform="matrix(0.53033,0,0,0.53033,11.537,352.06)"
       gradientUnits="userSpaceOnUse">
      <stop
         stop-color="#14e650"
         offset="0"
         id="stop854" />
      <stop
         stop-color="#148232"
         offset="1"
         id="stop856" />
    </linearGradient>
    <linearGradient
       id="linearGradient978"
       inkscape:collect="always">
      <stop
         id="stop974"
         offset="0"
         style="stop-color:#ff8228;stop-opacity:1" />
      <stop
         style="stop-color:#ff7346;stop-opacity:1"
         offset="0.49173453"
         id="stop982" />
      <stop
         id="stop976"
         offset="1"
         style="stop-color:#ff8c55;stop-opacity:1" />
    </linearGradient>
    <filter
       color-interpolation-filters="sRGB"
       height="1.048"
       width="1.048"
       y="-.024"
       x="-.024"
       id="filter2761">
      <feGaussianBlur
         id="feGaussianBlur2"
         stdDeviation="0.14552168" />
    </filter>
    <linearGradient
       gradientUnits="userSpaceOnUse"
       y2="1.1082"
       y1="15.429"
       x2="15.644"
       x1="1.2573"
       id="linearGradient4673">
      <stop
         id="stop5"
         offset="0"
         stop-color="#ff8228" />
      <stop
         id="stop7"
         offset=".47728"
         stop-color="#ff7346" />
      <stop
         id="stop9"
         offset="1"
         stop-color="#ff8c55" />
    </linearGradient>
    <linearGradient
       gradientUnits="userSpaceOnUse"
       gradientTransform="matrix(1.0000066,0,0,1.0000066,19.187825,0)"
       y2="1.0583"
       y1="6.879"
       x2="7.9373"
       x1="7.9373"
       id="linearGradient865">
      <stop
         id="stop2"
         offset="0"
         stop-color="#fff" />
      <stop
         id="stop4"
         offset="1"
         stop-color="#fcc" />
    </linearGradient>
    <linearGradient
       gradientTransform="translate(19.187825)"
       gradientUnits="userSpaceOnUse"
       y2="3.9327"
       y1="14.579"
       x2="12.314"
       x1="2.6278"
       id="linearGradient855">
      <stop
         id="stop7-3"
         offset="0"
         stop-color="#d462aa" />
      <stop
         id="stop9-6"
         offset=".15178"
         stop-color="#56c7d9" />
      <stop
         id="stop11"
         offset=".33294"
         stop-color="#2da8b8" />
      <stop
         id="stop13"
         offset=".53353"
         stop-color="#72cb6b" />
      <stop
         id="stop15"
         offset=".71019"
         stop-color="#c4dc2b" />
      <stop
         id="stop17"
         offset=".8623"
         stop-color="#f9da3e" />
      <stop
         id="stop19"
         offset="1"
         stop-color="#f69429" />
    </linearGradient>
    <linearGradient
       gradientUnits="userSpaceOnUse"
       gradientTransform="matrix(0.26458,0,0,0.26458,19.187825,0)"
       y2="6.9915"
       y1="19"
       x2="57.008"
       x1="45"
       id="linearGradient910">
      <stop
         id="stop22"
         offset="0"
         stop-color="#fff" />
      <stop
         id="stop24"
         offset="1"
         stop-color="#ffe3cc" />
    </linearGradient>
    <filter
       inkscape:collect="always"
       style="color-interpolation-filters:sRGB"
       id="filter1057"
       x="-0.027000001"
       width="1.054"
       y="-0.027000001"
       height="1.054">
      <feGaussianBlur
         inkscape:collect="always"
         stdDeviation="0.61875"
         id="feGaussianBlur1059" />
    </filter>
    <style
       type="text/css"
       id="style872" />
    <filter
       id="filter2761-7"
       x="-.024"
       y="-.024"
       width="1.048"
       height="1.048"
       color-interpolation-filters="sRGB">
      <feGaussianBlur
         stdDeviation="0.14552168"
         id="feGaussianBlur874" />
    </filter>
    <linearGradient
       id="linearGradient4673-5"
       x1="1.2573"
       x2="15.644"
       y1="15.429"
       y2="1.1082"
       gradientTransform="matrix(3.7796,0,0,3.7796,-0.0026448,0.53066)"
       gradientUnits="userSpaceOnUse">
      <stop
         stop-color="#32dcff"
         offset="0"
         id="stop877" />
      <stop
         stop-color="#3296ff"
         offset="1"
         id="stop879" />
    </linearGradient>
    <style
       id="style4"
       type="text/css" />
    <style
       id="style6"
       type="text/css" />
    <style
       id="style8"
       type="text/css" />
    <filter
       color-interpolation-filters="sRGB"
       height="1.048"
       width="1.048"
       y="-.024"
       x="-.024"
       id="filter2761-36">
      <feGaussianBlur
         id="feGaussianBlur10"
         stdDeviation="0.14552168" />
    </filter>
    <linearGradient
       gradientUnits="userSpaceOnUse"
       gradientTransform="matrix(3.7796,0,0,3.7796,111.78704,0.53107)"
       y2="1.17"
       y1="15.576"
       x2="15.65"
       x1="1.3315"
       id="linearGradient1024-6">
      <stop
         id="stop13-7"
         offset="0"
         stop-color="#00dc96" />
      <stop
         id="stop15-5"
         offset="1"
         stop-color="#14d29b" />
    </linearGradient>
    <linearGradient
       gradientUnits="userSpaceOnUse"
       gradientTransform="matrix(0.27476,0,0,0.27476,-24.952118,-0.32515)"
       y2="12.461"
       y1="57.955"
       x2="45.628"
       x1="45.628"
       id="b-3">
      <stop
         id="stop2-3"
         offset="0" />
      <stop
         id="stop4-5"
         offset="1"
         stop-opacity="0" />
    </linearGradient>
    <style
       type="text/css"
       id="style872-0" />
    <style
       type="text/css"
       id="style874" />
    <style
       type="text/css"
       id="style876" />
    <filter
       id="filter2761-3"
       x="-.024"
       y="-.024"
       width="1.048"
       height="1.048"
       color-interpolation-filters="sRGB">
      <feGaussianBlur
         stdDeviation="0.14552168"
         id="feGaussianBlur878" />
    </filter>
    <linearGradient
       id="linearGradient1024-6-6"
       x1="1.3315"
       x2="15.65"
       y1="15.576"
       y2="1.17"
       gradientTransform="matrix(3.7796,0,0,3.7796,-0.0020773,0.53047)"
       gradientUnits="userSpaceOnUse">
      <stop
         stop-color="#00dc96"
         offset="0"
         id="stop881" />
      <stop
         stop-color="#14d29b"
         offset="1"
         id="stop883" />
    </linearGradient>
    <linearGradient
       gradientTransform="matrix(3.779602,0,0,3.779602,-19.572232,-63.697903)"
       gradientUnits="userSpaceOnUse"
       y2="1.1906016"
       x2="-2.4549837"
       y1="15.742398"
       x1="-17.006781"
       id="linearGradient980"
       xlink:href="#linearGradient978"
       inkscape:collect="always" />
  </defs>
  <sodipodi:namedview
     inkscape:document-rotation="0"
     pagecolor="#ffffff"
     bordercolor="#666666"
     borderopacity="1"
     objecttolerance="10"
     gridtolerance="10"
     guidetolerance="10"
     inkscape:pageopacity="0"
     inkscape:pageshadow="2"
     inkscape:window-width="1920"
     inkscape:window-height="1000"
     id="namedview18"
     showgrid="false"
     inkscape:zoom="2.9804688"
     inkscape:cx="38.322507"
     inkscape:cy="5.8251053"
     inkscape:window-x="0"
     inkscape:window-y="0"
     inkscape:window-maximized="1"
     inkscape:current-layer="svg16" />
  <g
     id="g976"
     transform="translate(88.351097,63.697902)">
    <rect
       style="opacity:0.3;fill:#141414;fill-opacity:1;stroke-width:2.74436;stroke-linecap:round;filter:url(#filter1057)"
       id="rect1055"
       width="55"
       height="55"
       x="-83.851097"
       y="-59.197903"
       ry="15" />
    <rect
       style="fill:url(#linearGradient980);fill-opacity:1;stroke:none;stroke-width:2.64721;stroke-linecap:round"
       id="rect853"
       width="55"
       height="55"
       x="-83.851097"
       y="-59.197903"
       ry="14.894929" />
    <path
       d="m -43.857622,-53.456315 a 12.4999,12.4999 0 0 1 0.0102,0.499965 12.4999,12.4999 0 0 1 -12.4999,12.4999 12.4999,12.4999 0 0 1 -12.4999,-12.4999 12.4999,12.4999 0 0 1 0.0098,-0.500684"
       fill="none"
       stroke="#ffffff"
       stroke-dashoffset="0.42096"
       stroke-width="2.00001"
       id="path20" />
  </g>
  <circle
     cx="-1248.6936"
     cy="-1241.6389"
     r="0"
     fill="#5e4aa6"
     stroke-width="1.00001"
     id="circle861" />
  <circle
     cx="-149.14687"
     cy="23.855019"
     r="0"
     fill="#5e4aa6"
     fill-rule="evenodd"
     stroke-width="1.00001"
     id="circle879" />
  <path
     id="path904"
     fill="#ffffff"
     d="m 32,35 a 9.9333333,9.9333333 0 0 0 -5.051667,1.406667 L 31.426667,40.885 32.625,39.688333 29.916667,36.98 c 0.325,-0.08667 0.65,-0.163333 0.99,-0.208333 0.08667,-0.01333 0.171666,-0.04333 0.26,-0.05333 0.28,-0.02833 0.545,-0.05167 0.833333,-0.05167 A 8.3333333,8.3333333 0 0 1 40.333333,45 c 0,0.405 -0.04667,0.81 -0.105,1.198333 C 40.195,46.425 40.176667,46.655 40.125,46.875 a 7.895,7.895 0 0 1 -0.468333,1.355 c -0.02333,0.05 -0.03,0.105 -0.05333,0.155 -0.06667,0.153333 -0.18,0.273333 -0.26,0.416667 -0.0067,0.01333 0.0083,0.03833 0,0.05333 l 1.25,1.196667 A 9.9333333,9.9333333 0 0 0 42,45 10,10 0 0 0 32,35 Z m -8.593333,4.948333 A 9.9333333,9.9333333 0 0 0 22,45 10,10 0 0 0 32,55 9.9333333,9.9333333 0 0 0 37.051667,53.593333 l -1.25,-1.25 -3.228334,-3.176666 -1.146666,1.146666 2.656666,2.708334 c -0.325,0.08333 -0.65,0.161666 -0.99,0.208333 -0.08667,0.01167 -0.171666,0.04167 -0.26,0.05 -0.28,0.03 -0.545,0.05333 -0.833333,0.05333 -0.288333,0 -0.553333,-0.02333 -0.833333,-0.05167 -0.28,-0.02833 -0.561667,-0.05 -0.833334,-0.105 A 8.3616667,8.3616667 0 0 1 23.666667,45 c 0,-0.413333 0.04667,-0.8 0.105,-1.198333 C 23.805,43.575 23.823333,43.345 23.875,43.125 c 0.111667,-0.478333 0.278333,-0.913333 0.468333,-1.355 0.02167,-0.05 0.03,-0.105 0.05333,-0.155 0.06667,-0.15 0.18,-0.275 0.26,-0.416667 V 41.145 Z"
     style="stroke-width:0.833333" />
  <circle
     cx="-1327.7162"
     cy="-1301.3058"
     r="0"
     fill="#5e4aa6"
     stroke-width="1.00001"
     id="circle861-9" />
  <circle
     cx="-228.16943"
     cy="-35.811924"
     r="0"
     fill="#5e4aa6"
     fill-rule="evenodd"
     stroke-width="1.00001"
     id="circle879-1" />
</svg>
