<?xml version="1.0" encoding="UTF-8"?>
<svg width="64" height="64" version="1.1" xmlns="http://www.w3.org/2000/svg">
 <defs>
  <linearGradient id="linearGradient1100" x1="399.57" x2="399.57" y1="545.8" y2="517.8" gradientTransform="matrix(2.1429,0,0,2.1429,-826.36,-1107.5)" gradientUnits="userSpaceOnUse">
   <stop stop-color="#3889e9" offset="0"/>
   <stop stop-color="#5ea5fb" offset="1"/>
  </linearGradient>
  <filter id="filter10677" x="-.17623" y="-.12609" width="1.3525" height="1.2522" color-interpolation-filters="sRGB">
   <feGaussianBlur stdDeviation="1.6811947"/>
  </filter>
  <filter id="filter1057" x="-.027" y="-.027" width="1.054" height="1.054" color-interpolation-filters="sRGB">
   <feGaussianBlur stdDeviation="0.61875"/>
  </filter>
  <linearGradient id="linearGradient1053" x1="-127" x2="-72" y1="60" y2="5" gradientTransform="translate(60.622 -7.3054)" gradientUnits="userSpaceOnUse">
   <stop stop-color="#02db96" offset="0"/>
   <stop stop-color="#13d39b" offset="1"/>
  </linearGradient>
 </defs>
 <g transform="translate(70.878 6.7954)" stroke-linecap="round" stroke-width="2.7444">
  <rect x="-66.378" y="-2.2954" width="55" height="55" ry="15" fill="#141414" filter="url(#filter1057)" opacity=".3"/>
  <rect x="-66.378" y="-2.2954" width="55" height="55" ry="15" fill="url(#linearGradient1053)"/>
 </g>
 <rect width="64" height="64" rx="0" ry="0" fill="none" stroke-linecap="round" stroke-linejoin="round" stroke-width="1.4464" style="paint-order:stroke fill markers"/>
 <circle cx="32.02" cy="32.044" r="30.001" fill-opacity="0" stroke-width="1.5715"/>
 <circle cx="32.02" cy="32.044" r="0" fill="url(#linearGradient1100)" stroke-width="1.5715"/>
 <g fill="#fff" stroke-linecap="square" stroke-width="7.5865" aria-label="y">
  <path d="m25.149 49.722h6.2816l3.5505-9.8777 8.4666-22.122h-5.7809l-5.5078 16.751-5.1892-16.751h-6.4182l8.6031 22.122z" fill="#000" filter="url(#filter10677)" opacity=".15"/>
  <path d="m25.149 48h6.2816l3.5505-9.8777 8.4666-22.122h-5.7809l-5.5078 16.751-5.1892-16.751h-6.4182l8.6031 22.122z"/>
 </g>
 <g transform="translate(-46.967 16.415)">
  <circle cx="94.967" cy="31.585" r="16" fill="#323232" stroke-linecap="round" stroke-width="2.2865"/>
  <circle cx="94.967" cy="31.585" r="11.911" opacity=".15" stroke-width="3.4623" style="paint-order:stroke markers fill"/>
  <path d="m94.545 17.585c-0.78109 0.02908-1.2104 0.29129-1.4902 0.8545-0.17952 0.36141-0.32625 0.96346-0.32642 1.3381-5.78e-4 1.3745-1.3883 2.6284-2.9104 2.6284-0.74686 0-1.1571-0.20559-2.6695-1.3381-0.68836-0.51549-1.1229-0.38141-2.1909 0.66993-1.0147 0.99899-1.0403 1.4774-0.14185 2.6695 0.37129 0.49277 0.74748 1.1496 0.83569 1.4612 0.21817 0.7705-0.13902 2.1809-0.71266 2.8079-0.47018 0.5139-1.6377 0.91429-2.6558 0.91429-0.9681 0-1.3159 0.55114-1.3159 2.0764 0 1.1877 0.04559 1.3499 0.45287 1.6202 0.24891 0.1653 0.96793 0.37437 1.5996 0.46485 0.6317 0.09046 1.3609 0.3042 1.6184 0.47511 0.54366 0.36084 1.1738 1.6524 1.1792 2.4182 0.0044 0.556-0.42365 1.539-0.86476 1.9858-0.48076 0.48698-0.83244 1.3732-0.70581 1.7773 0.16224 0.51776 1.2612 1.6249 1.8303 1.844 0.32597 0.12557 0.56278 0.08896 0.87841-0.135 0.92514-0.65634 2.5079-1.3689 3.042-1.3689 0.80516 0 2.1407 0.71057 2.4336 1.2954 0.13789 0.27549 0.3098 0.91761 0.3828 1.4253 0.17701 1.2312 0.45682 1.8106 0.92628 1.9107 0.21341 0.04524 0.55685 0.122 0.7622 0.16919 0.20536 0.04845 0.66771 0.04845 1.0271 0 0.93739-0.12587 1.437-0.8248 1.5945-2.2302 0.14396-1.285 0.26195-1.4918 1.2083-2.0969 0.96093-0.61447 1.7131-0.73445 2.4524-0.39137 0.61298 0.28452 0.86072 0.43194 1.8662 1.1023 0.7367 0.49128 1.1958 0.41009 2.0473-0.36915 1.2805-1.1717 1.3063-1.6812 0.15894-3.0198-1.0921-1.2739-1.1045-2.8412-0.0308-4.045 0.41118-0.46102 0.77986-0.62138 1.9978-0.86476 1.8389-0.36742 2.1377-0.66771 2.143-2.1602 5e-3 -1.4907-0.23183-1.7343-1.9585-2.0046-1.643-0.25727-2.169-0.62846-2.7464-1.9295-0.47996-1.0818-0.34755-1.7157 0.67678-3.2009 0.52527-0.76158 0.78674-1.3174 0.72632-1.5517-0.135-0.52293-1.837-2.0833-2.273-2.0833-0.20191 0-0.73952 0.29076-1.1946 0.64258-1.2553 0.97073-2.0029 1.19-3.0762 0.9023-1.2611-0.33783-1.71-0.87051-2.0286-2.4097-0.3658-1.7677-0.60167-2.0858-1.6424-2.2046-0.34672-0.03985-0.64543-0.05583-0.9058-0.04614v-0.0034zm0.42213 8.75a5.2501 5.2501 0 0 1 5.2501 5.2501 5.2501 5.2501 0 0 1-5.2501 5.2501 5.2501 5.2501 0 0 1-5.2501-5.2501 5.2501 5.2501 0 0 1 5.2501-5.2501z" fill="#fff" stroke-width=".875"/>
 </g>
</svg>
