<?xml version="1.0" encoding="UTF-8"?>
<svg width="64" height="64" version="1.1" viewBox="0 0 16.933 16.933" xmlns="http://www.w3.org/2000/svg" xmlns:cc="http://creativecommons.org/ns#" xmlns:dc="http://purl.org/dc/elements/1.1/" xmlns:rdf="http://www.w3.org/1999/02/22-rdf-syntax-ns#" xmlns:xlink="http://www.w3.org/1999/xlink">
 <metadata>
  <rdf:RDF>
   <cc:Work rdf:about="">
    <dc:format>image/svg+xml</dc:format>
    <dc:type rdf:resource="http://purl.org/dc/dcmitype/StillImage"/>
   </cc:Work>
  </rdf:RDF>
 </metadata>
 <defs>
  <filter id="filter1057-4" x="-.027" y="-.027" width="1.054" height="1.054" color-interpolation-filters="sRGB">
   <feGaussianBlur stdDeviation="0.61875"/>
  </filter>
  <linearGradient id="linearGradient1053-74" x1="-127" x2="-72" y1="60" y2="5" gradientTransform="matrix(.26458 0 0 .26458 52.698 8.581)" gradientUnits="userSpaceOnUse">
   <stop stop-color="#323741" offset="0"/>
   <stop stop-color="#465064" offset="1"/>
  </linearGradient>
 </defs>
 <g fill="#5e4aa6" stroke-width=".26458">
  <circle cx="-330.38" cy="-328.37" r="0"/>
  <circle cx="-312.55" cy="-328.38" r="0"/>
  <circle cx="-295.13" cy="-341.25" r="0"/>
 </g>
 <g transform="translate(-17.906 -8.7159)">
  <g>
   <rect transform="matrix(.26458 0 0 .26458 17.906 8.7159)" x="4.5" y="4.5" width="55" height="55" ry="15" fill="#141414" filter="url(#filter1057-4)" opacity=".3" stroke-linecap="round" stroke-width="2.7444"/>
   <rect x="19.097" y="9.9065" width="14.552" height="14.552" ry="3.9687" fill="url(#linearGradient1053-74)" stroke-linecap="round" stroke-width=".7261"/>
   <path d="m23.066 9.9065c-0.6413 0-1.2441 0.1543-1.7792 0.42219v4.61l1.0583-1.0588 1.0578 1.0578v-5.0311z" fill="#28aafa" stroke-width=".26458"/>
  </g>
  <path d="m26.373 14.536c-0.76934 8e-3 -1.5442 0.19563-2.2143 0.60074-0.2671 0.18558-0.58777 0.42515-0.8294 0.66662-0.38024 0.39717-0.70538 0.86006-0.92501 1.3785 0.60272 1.4182 1.9271 2.4587 3.3847 2.6122 0.95617 0.11545 1.9577-0.06117 2.7983-0.56584 0.26709-0.18558 0.58777-0.42515 0.8294-0.66662 0.38027-0.39717 0.70538-0.86138 0.92501-1.3798-0.60275-1.4182-1.9271-2.4575-3.3847-2.6109-0.19342-0.02408-0.38923-0.03488-0.58393-0.03488zm0.0013 1.3229c0.70766-0.01568 1.335 0.61763 1.3216 1.3216 0.02267 0.77804-0.75297 1.4501-1.5193 1.3048-0.77397-0.09088-1.3178-0.95944-1.0632-1.695 0.16256-0.54147 0.69393-0.93814 1.2609-0.93146zm-0.0013 0.66146a0.66146 0.66146 0 0 0-0.66146 0.66146 0.66146 0.66146 0 0 0 0.66146 0.66146 0.66146 0.66146 0 0 0 0.66146-0.66146 0.66146 0.66146 0 0 0-0.66146-0.66017z" fill="#fff" fill-rule="evenodd" stroke-width=".66146"/>
 </g>
</svg>
