<?xml version="1.0" encoding="UTF-8"?>
<svg width="64" height="64" version="1.1" viewBox="0 0 64 64" xmlns="http://www.w3.org/2000/svg" xmlns:cc="http://creativecommons.org/ns#" xmlns:dc="http://purl.org/dc/elements/1.1/" xmlns:rdf="http://www.w3.org/1999/02/22-rdf-syntax-ns#">
 <metadata>
  <rdf:RDF>
   <cc:Work rdf:about="">
    <dc:format>image/svg+xml</dc:format>
    <dc:type rdf:resource="http://purl.org/dc/dcmitype/StillImage"/>
    <dc:title/>
   </cc:Work>
  </rdf:RDF>
 </metadata>
 <defs>
  <filter id="filter1057" x="-.027" y="-.027" width="1.054" height="1.054" color-interpolation-filters="sRGB">
   <feGaussianBlur stdDeviation="0.61875"/>
  </filter>
  <linearGradient id="linearGradient1053" x1="-127" x2="-72" y1="60" y2="5" gradientTransform="matrix(1 0 0 1 131.5 -.51047)" gradientUnits="userSpaceOnUse">
   <stop stop-color="#32d7ff" offset="0"/>
   <stop stop-color="#329bff" offset="1"/>
  </linearGradient>
 </defs>
 <linearGradient id="a" x1="399.57" x2="399.57" y1="545.8" y2="517.8" gradientUnits="userSpaceOnUse">
  <stop stop-color="#3889e9" offset="0"/>
  <stop stop-color="#5ea5fb" offset="1"/>
 </linearGradient>
 <circle transform="matrix(1.6375 0 0 1.6375 -643.76 -848.88)" cx="400.57" cy="531.8" r="0" fill="url(#a)"/>
 <g stroke-linecap="round">
  <rect transform="matrix(1 0 0 1 -.00022759 -.00022773)" x="4.5" y="4.5" width="55" height="55" ry="15" fill="#141414" filter="url(#filter1057)" opacity=".3" stroke-width="2.7444"/>
  <rect x="4.4999" y="4.4998" width="55.001" height="55.001" ry="15" fill="url(#linearGradient1053)" stroke-width="2.7444"/>
  <path d="m26.832 33.348c-0.52915-2.4739 1.5495-4.6526 3.9054-4.9684 3.3249-0.44583 6.141 2.3392 6.4315 5.5395 0.3787 4.1712-3.1294 7.6373-7.1737 7.8946-5.016 0.31905-9.1379-3.9197-9.3576-8.8079-0.26345-5.8603 4.7101-10.641 10.442-10.821 6.7042-0.21027 12.146 5.5005 12.284 12.076 0.15866 7.548-6.2909 13.651-13.71 13.747-8.3917 0.1081-15.158-7.0814-15.21-15.345-0.05831-9.2354 7.8719-16.665 16.979-16.673 10.079-0.0091 18.172 8.6624 18.136 18.613-0.01576 4.3339-1.5344 8.5955-4.223 11.99" fill="none" stroke="#fff" stroke-linejoin="round" stroke-opacity=".85081" stroke-width="2.9812"/>
 </g>
</svg>
