<?xml version="1.0" encoding="UTF-8"?>
<svg width="64" height="64" version="1.1" viewBox="0 0 64 64" xmlns="http://www.w3.org/2000/svg" xmlns:xlink="http://www.w3.org/1999/xlink">
 <defs>
  <filter id="filter1057-27" x="-.027" y="-.027" width="1.054" height="1.054" color-interpolation-filters="sRGB">
   <feGaussianBlur stdDeviation="0.61875"/>
  </filter>
  <linearGradient id="linearGradient1053-0" x1="-127" x2="-72" y1="60" y2="5" gradientTransform="translate(191.77 32.826)" gradientUnits="userSpaceOnUse">
   <stop stop-color="#323741" offset="0"/>
   <stop stop-color="#465064" offset="1"/>
  </linearGradient>
 </defs>
 <g transform="translate(1,1)">
  <g opacity=".1">
   <!-- color: #3a569c --></g>
 </g>
 <g transform="translate(-60.266 -33.336)">
  <g>
   <rect x="64.766" y="37.836" width="55" height="55" ry="15" fill="#141414" filter="url(#filter1057-27)" opacity=".3" stroke-linecap="round" stroke-width="2.7444"/>
   <rect x="64.766" y="37.836" width="55" height="55" ry="15" fill="url(#linearGradient1053-0)" stroke-linecap="round" stroke-width="2.7444"/>
   <path d="m79.766 37.836c-2.4238 0-4.7022 0.58319-6.7246 1.5957v17.424l4-4.002 3.998 3.998v-19.016z" fill="#28aafa"/>
  </g>
  <path d="m94.539 56.765c-3.336 0-5.4876 0.058-6.866 0.25708-0.69027 0.09954-1.1935 0.24227-1.5827 0.46274-0.40793 0.23116-0.69783 0.62564-0.69783 1.0925 0 0.30438 0.14593 0.52775 0.38643 0.65565 0.17144 0.09131 0.34493 0.10859 0.49845 0.10284 0.29866-0.01073 0.6157-0.10448 0.97219-0.24433 0.04078-0.01603 0.31382-0.08185 0.67311-0.14149 0.35887-0.05964 0.82104-0.1234 1.3458-0.18016 1.0515-0.11312 2.369-0.21389 3.6762-0.26983l3.2276-0.1415-0.63562 0.60424c-0.97574 0.91315-4.1867 3.3683-7.3525 5.6815-1.5827 1.1566-3.1538 2.2865-4.4614 3.1878-1.3071 0.9012-2.3746 1.5906-2.8033 1.8123-0.55549 0.28094-1.1058 0.57299-1.6572 0.86133 0.09131 0.31632 0.15787 0.66922 0.22451 0.9514 0.68906 0.03099 1.3789 0.04441 2.0688 0.06418 0.40752 0.01096 1.5775 0.14355 3.0158 0.35989 1.4387 0.21634 3.1797 0.50756 4.8723 0.82267 3.5928 0.66842 6.2934 1.0633 8.3242 1.1698 2.0293 0.10613 3.409-0.04399 4.3862-0.56558 0.73491-0.39198 1.4415-1.1727 2.0313-2.0052 0.58697-0.83087 1.0862-1.6848 1.0842-2.4926 0-0.05719-0.0106-0.21963-0.0873-0.35989-0.0654-0.12012-0.14197-0.17851-0.22451-0.23158-0.0825-0.05265-0.17145-0.09914-0.3114-0.10284-0.13796-0.0037-0.2879 0.03863-0.38643 0.10284-0.37841 0.27969-0.60372 0.74201-0.82263 1.0411-0.56543 0.95673-1.0994 1.4762-2.0189 1.8255-0.91516 0.34716-2.2685 0.48866-4.3363 0.48866-1.8343 0-4.6878-0.2575-7.14-0.59147-1.2254-0.1666-2.3562-0.34924-3.202-0.52691h-0.01247c-0.39799-0.08391-0.77796-0.17235-1.0172-0.24435 0.28271-0.3122 0.86889-0.79262 1.6652-1.4524 5.6146-4.4115 10.325-7.9081 15.986-11.994h-8.8204z" color="#000000" fill="#f1f2f2" stroke-width="3.7796"/>
 </g>
</svg>
