<?xml version="1.0" encoding="UTF-8"?>
<svg width="64" height="64" version="1.1" viewBox="0 0 16.933 16.933" xmlns="http://www.w3.org/2000/svg" xmlns:cc="http://creativecommons.org/ns#" xmlns:dc="http://purl.org/dc/elements/1.1/" xmlns:rdf="http://www.w3.org/1999/02/22-rdf-syntax-ns#" xmlns:xlink="http://www.w3.org/1999/xlink">
 <metadata>
  <rdf:RDF>
   <cc:Work rdf:about="">
    <dc:format>image/svg+xml</dc:format>
    <dc:type rdf:resource="http://purl.org/dc/dcmitype/StillImage"/>
   </cc:Work>
  </rdf:RDF>
 </metadata>
 <defs>
  <filter id="filter1057-3" x="-.027" y="-.027" width="1.054" height="1.054" color-interpolation-filters="sRGB">
   <feGaussianBlur stdDeviation="0.61875"/>
  </filter>
  <linearGradient id="linearGradient1053-7" x1="-127" x2="-72" y1="60" y2="5" gradientTransform="matrix(.26458 0 0 .26458 48.931 11.664)" gradientUnits="userSpaceOnUse">
   <stop stop-color="#2e55e7" offset="0"/>
   <stop stop-color="#0d7eef" offset="1"/>
  </linearGradient>
  <filter id="filter981" x="-.084859" y="-.1485" width="1.1697" height="1.297" color-interpolation-filters="sRGB">
   <feGaussianBlur stdDeviation="1.237486"/>
  </filter>
 </defs>
 <g fill="#5e4aa6" stroke-width=".26458">
  <circle cx="-330.38" cy="-328.37" r="0"/>
  <circle cx="-312.55" cy="-328.38" r="0"/>
  <circle cx="-295.13" cy="-341.25" r="0"/>
 </g>
 <g transform="translate(-14.139 -11.798)">
  <rect transform="matrix(.26458 0 0 .26458 14.139 11.798)" x="4.5" y="4.5" width="55" height="55" ry="15" fill="#141414" filter="url(#filter1057-3)" opacity=".3" stroke-linecap="round" stroke-width="2.7444"/>
  <rect x="15.329" y="12.989" width="14.552" height="14.552" ry="3.9687" fill="url(#linearGradient1053-7)" stroke-linecap="round" stroke-width=".7261"/>
  <path transform="matrix(.26458 0 0 .26458 14.139 11.798)" d="m16.667 23c-1.2003 0-2.166 0.95547-2.166 2.1426v12.143c0 3.1656 2.5765 5.7148 5.7773 5.7148h18.057c1.2003 0 2.166-0.95547 2.166-2.1426v-12.143c0-3.1656-2.5765-5.7148-5.7773-5.7148h-14.445zm31.564 0.0039c-0.42486-0.03143-0.90846 0.17568-1.3691 0.63477-1.6201 1.6144-3.5196 2.9767-4.8477 4.9062-0.54689 0.7946-0.50937 1.8466-0.51367 2.8359-2e-3 0.54283 3e-3 1.0835 0 1.6191 3e-3 0.53569-2e-3 1.0763 0 1.6191 4e-3 0.98936-0.0332 2.0413 0.51367 2.8359 1.328 1.9296 3.2276 3.2918 4.8477 4.9062 0.46068 0.45908 0.94428 0.66619 1.3691 0.63477 0.70809-0.05239 1.252-0.77105 1.252-2.1035 0-2.6086 0.0382-5.2482 0-7.8926 0.0382-2.6443 0-5.284 0-7.8926 0-1.3325-0.54386-2.0511-1.252-2.1035z" filter="url(#filter981)" opacity=".15"/>
  <path d="m18.549 17.619c-0.31757 0-0.57308 0.2528-0.57308 0.56688v3.2128c0 0.83755 0.68169 1.512 1.5285 1.512h4.7775c0.31757 0 0.57308-0.2528 0.57308-0.56688v-3.2128c0-0.83755-0.68169-1.512-1.5285-1.512h-3.8218zm8.3511 1e-3c-0.11241-0.0083-0.24036 0.04648-0.36223 0.16795-0.42864 0.42714-0.93121 0.78757-1.2826 1.2981-0.1447 0.21023-0.13477 0.48857-0.13591 0.75032-5.29e-4 0.14362 7.94e-4 0.28667 0 0.42838 7.94e-4 0.14173-5.29e-4 0.28477 0 0.42838 0.0011 0.26176-0.0088 0.54008 0.13591 0.75032 0.35136 0.51053 0.85395 0.87094 1.2826 1.2981 0.12189 0.12146 0.24984 0.17626 0.36223 0.16795 0.18734-0.01386 0.33125-0.204 0.33125-0.55654 0-0.69018 0.01011-1.3886 0-2.0882 0.01011-0.69962 0-1.398 0-2.0882 0-0.35255-0.14389-0.54268-0.33125-0.55654z" fill="#fff" stroke-width=".26458"/>
 </g>
</svg>
