<?xml version="1.0" encoding="UTF-8"?>
<svg width="64" height="64" version="1.1" viewBox="0 0 16.933 16.933" xmlns="http://www.w3.org/2000/svg" xmlns:cc="http://creativecommons.org/ns#" xmlns:dc="http://purl.org/dc/elements/1.1/" xmlns:rdf="http://www.w3.org/1999/02/22-rdf-syntax-ns#" xmlns:xlink="http://www.w3.org/1999/xlink">
 <metadata>
  <rdf:RDF>
   <cc:Work rdf:about="">
    <dc:format>image/svg+xml</dc:format>
    <dc:type rdf:resource="http://purl.org/dc/dcmitype/StillImage"/>
   </cc:Work>
  </rdf:RDF>
 </metadata>
 <defs>
  <filter id="filter1057-7" x="-.027" y="-.027" width="1.054" height="1.054" color-interpolation-filters="sRGB">
   <feGaussianBlur stdDeviation="0.61875"/>
  </filter>
  <linearGradient id="linearGradient1053-1" x1="-127" x2="-72" y1="60" y2="5" gradientTransform="matrix(.26458 0 0 .26458 45.963 14.917)" gradientUnits="userSpaceOnUse">
   <stop stop-color="#dee0e2" offset="0"/>
   <stop stop-color="#f1f3f5" stop-opacity=".99608" offset="1"/>
  </linearGradient>
 </defs>
 <g fill="#5e4aa6" stroke-width=".26458">
  <circle cx="-330.38" cy="-328.37" r="0"/>
  <circle cx="-312.55" cy="-328.38" r="0"/>
  <circle cx="-295.13" cy="-341.25" r="0"/>
 </g>
 <g transform="translate(-11.171 -15.052)" stroke-linecap="round">
  <rect transform="matrix(.26458 0 0 .26458 11.171 15.052)" x="4.5" y="4.5" width="55" height="55" ry="15" fill="#141414" filter="url(#filter1057-7)" opacity=".3" stroke-width="2.7444"/>
  <rect x="12.361" y="16.243" width="14.552" height="14.552" ry="3.9687" fill="url(#linearGradient1053-1)" stroke-width=".7261"/>
  <path d="m16.33 19.55v1.3227h4.5765l-4.4316 5.5398a0.66151 0.66151 0 0 0-0.0038 0.0044 0.66151 0.66151 0 0 0-0.01631 0.02195 0.66151 0.66151 0 0 0-0.01568 0.02258 0.66151 0.66151 0 0 0-0.01474 0.02321 0.66151 0.66151 0 0 0-0.01349 0.02384 0.66151 0.66151 0 0 0-0.01286 0.02415 0.66151 0.66151 0 0 0-0.0116 0.02478 0.66151 0.66151 0 0 0-0.01035 0.0254 0.66151 0.66151 0 0 0-0.0097 0.02572 0.66151 0.66151 0 0 0-0.0085 0.02603 0.66151 0.66151 0 0 0-0.0072 0.02635 0.66151 0.66151 0 0 0-0.0063 0.02666 0.66151 0.66151 0 0 0-0.0053 0.02698 0.66151 0.66151 0 0 0-0.0041 0.02698 0.66151 0.66151 0 0 0-0.0028 0.02729 0.66151 0.66151 0 0 0-0.0019 0.0276 0.66151 0.66151 0 0 0-6.35e-4 0.02729 0.66151 0.66151 0 0 0 6.35e-4 0.02729 0.66151 0.66151 0 0 0 0.0016 0.02729 0.66151 0.66151 0 0 0 0.0028 0.02729 0.66151 0.66151 0 0 0 0.0038 0.02729 0.66151 0.66151 0 0 0 5e-3 0.02697 0.66151 0.66151 0 0 0 6e-3 0.02666 0.66151 0.66151 0 0 0 0.0072 0.02635 0.66151 0.66151 0 0 0 0.0085 0.02635 0.66151 0.66151 0 0 0 0.0094 0.02572 0.66151 0.66151 0 0 0 0.01035 0.02509 0.66151 0.66151 0 0 0 0.0116 0.02509 0.66151 0.66151 0 0 0 0.01223 0.02446 0.66151 0.66151 0 0 0 0.01349 0.02384 0.66151 0.66151 0 0 0 0.01474 0.02321 0.66151 0.66151 0 0 0 0.01537 0.02258 0.66151 0.66151 0 0 0 0.01631 0.02195 0.66151 0.66151 0 0 0 0.01725 0.02133 0.66151 0.66151 0 0 0 0.01788 0.0207 0.66151 0.66151 0 0 0 0.01913 0.01976 0.66151 0.66151 0 0 0 0.01976 0.01882 0.66151 0.66151 0 0 0 0.02039 0.01819 0.66151 0.66151 0 0 0 0.02133 0.01756 0.66151 0.66151 0 0 0 0.02195 0.01631 0.66151 0.66151 0 0 0 0.02258 0.01537 0.66151 0.66151 0 0 0 0.02321 0.01474 0.66151 0.66151 0 0 0 0.02384 0.01349 0.66151 0.66151 0 0 0 0.02446 0.01255 0.66151 0.66151 0 0 0 0.02478 0.0116 0.66151 0.66151 0 0 0 0.0254 0.01035 0.66151 0.66151 0 0 0 0.02572 0.0094 0.66151 0.66151 0 0 0 0.02604 0.0085 0.66151 0.66151 0 0 0 0.02635 0.0072 0.66151 0.66151 0 0 0 0.02666 0.0063 0.66151 0.66151 0 0 0 0.02698 5e-3 0.66151 0.66151 0 0 0 0.02729 0.0038 0.66151 0.66151 0 0 0 0.02729 0.0028 0.66151 0.66151 0 0 0 0.02729 0.0019 0.66151 0.66151 0 0 0 0.02729 6.35e-4h5.9531v-1.323h-4.5772l4.4316-5.5394a0.66151 0.66151 0 0 0 0.0034-0.0041 0.66151 0.66151 0 0 0 0.0163-0.02196 0.66151 0.66151 0 0 0 0.01569-0.02258 0.66151 0.66151 0 0 0 0.01474-0.02321 0.66151 0.66151 0 0 0 0.01349-0.02384 0.66151 0.66151 0 0 0 0.01254-0.02415 0.66151 0.66151 0 0 0 0.01193-0.02478 0.66151 0.66151 0 0 0 0.01035-0.0254 0.66151 0.66151 0 0 0 0.0097-0.02572 0.66151 0.66151 0 0 0 0.0085-0.02603 0.66151 0.66151 0 0 0 0.0075-0.02635 0.66151 0.66151 0 0 0 0.0063-0.02666 0.66151 0.66151 0 0 0 5e-3 -0.02698 0.66151 0.66151 0 0 0 0.0041-0.02697 0.66151 0.66151 0 0 0 0.0031-0.02729 0.66151 0.66151 0 0 0 0.0016-0.02729 0.66151 0.66151 0 0 0 0.0011-0.02729 0.66151 0.66151 0 0 0-5.29e-4 -0.0276 0.66151 0.66151 0 0 0-0.0016-0.02729 0.66151 0.66151 0 0 0-0.0028-0.02729 0.66151 0.66151 0 0 0-0.0038-0.02697 0.66151 0.66151 0 0 0-5e-3 -0.02697 0.66151 0.66151 0 0 0-6e-3 -0.02697 0.66151 0.66151 0 0 0-0.0072-0.02635 0.66151 0.66151 0 0 0-0.0081-0.02603 0.66151 0.66151 0 0 0-0.0094-0.02572 0.66151 0.66151 0 0 0-0.01034-0.0254 0.66151 0.66151 0 0 0-0.01162-0.02509 0.66151 0.66151 0 0 0-0.01254-0.02415 0.66151 0.66151 0 0 0-0.01318-0.02415 0.66151 0.66151 0 0 0-0.01474-0.02321 0.66151 0.66151 0 0 0-0.01537-0.02258 0.66151 0.66151 0 0 0-0.01632-0.02195 0.66151 0.66151 0 0 0-0.01725-0.02133 0.66151 0.66151 0 0 0-0.01789-0.0207 0.66151 0.66151 0 0 0-0.01913-0.01976 0.66151 0.66151 0 0 0-0.01945-0.01913 0.66151 0.66151 0 0 0-0.02069-0.01819 0.66151 0.66151 0 0 0-0.02132-0.01725 0.66151 0.66151 0 0 0-0.02164-0.01631 0.66151 0.66151 0 0 0-0.02289-0.01568 0.66151 0.66151 0 0 0-0.0232-0.01442 0.66151 0.66151 0 0 0-0.02352-0.01349 0.66151 0.66151 0 0 0-0.02447-0.01286 0.66151 0.66151 0 0 0-0.02476-0.01129 0.66151 0.66151 0 0 0-0.0254-0.01066 0.66151 0.66151 0 0 0-0.02572-0.0094 0.66151 0.66151 0 0 0-0.02603-0.0085 0.66151 0.66151 0 0 0-0.02635-0.0072 0.66151 0.66151 0 0 0-0.02666-0.0063 0.66151 0.66151 0 0 0-0.02697-5e-3 0.66151 0.66151 0 0 0-0.02729-0.0041 0.66151 0.66151 0 0 0-0.02729-0.0028 0.66151 0.66151 0 0 0-0.02729-0.0016 0.66151 0.66151 0 0 0-0.02729-6.35e-4h-5.2919z" fill="#ff3232" stroke-width=".32118"/>
 </g>
</svg>
