<?xml version="1.0" encoding="UTF-8"?>
<svg width="64" height="64" version="1.1" viewBox="0 0 64 64" xmlns="http://www.w3.org/2000/svg" xmlns:cc="http://creativecommons.org/ns#" xmlns:dc="http://purl.org/dc/elements/1.1/" xmlns:rdf="http://www.w3.org/1999/02/22-rdf-syntax-ns#">
 <metadata>
  <rdf:RDF>
   <cc:Work rdf:about="">
    <dc:format>image/svg+xml</dc:format>
    <dc:type rdf:resource="http://purl.org/dc/dcmitype/StillImage"/>
    <dc:title/>
   </cc:Work>
  </rdf:RDF>
 </metadata>
 <defs>
  <filter id="filter1057" x="-.027" y="-.027" width="1.054" height="1.054" color-interpolation-filters="sRGB">
   <feGaussianBlur stdDeviation="0.61875"/>
  </filter>
  <linearGradient id="linearGradient1053" x1="-127" x2="-72" y1="60" y2="5" gradientTransform="translate(131.5 -.51)" gradientUnits="userSpaceOnUse">
   <stop stop-color="#02db96" offset="0"/>
   <stop stop-color="#13d39b" offset="1"/>
  </linearGradient>
 </defs>
 <rect x="4.5" y="4.5" width="55" height="55" ry="15" fill="#141414" filter="url(#filter1057)" opacity=".3" stroke-linecap="round" stroke-width="2.7444"/>
 <rect x="4.5" y="4.5" width="55" height="55" ry="15" fill="url(#linearGradient1053)" stroke-linecap="round" stroke-width="2.7444"/>
 <path d="m32 48.156c3.0248 0 6.5897-0.38072 8.1986-2.1224 1.1978-1.2967 1.5129-3.6798 1.4841-5.278-0.64787-0.90704-3.6196-3.3546-9.6827-3.3546-6.0631 0-9.0348 2.4476-9.6827 3.3546-0.02878 1.5982 0.28631 3.9813 1.4841 5.278 1.6089 1.7417 5.1738 2.1224 8.1986 2.1224zm-4.6472-6.4074c0 1.5519 0.14668 2.942 0.92409 2.942 0.77732 0 0.92409-1.3524 0.92409-2.9043 0-1.5519-0.0334-2.9043-0.87693-2.9043-0.84335 0-0.97125 1.3146-0.97125 2.8665zm9.2944 0c0 1.5519-0.14686 2.942-0.92409 2.942-0.77733 0-0.92409-1.3524-0.92409-2.9043 0-1.5519 0.0334-2.9043 0.87695-2.9043 0.84337 0 0.97123 1.3146 0.97123 2.8665zm-20.875-8.9551c0 1.0827 0.11568 2.0227 0.32085 2.8462 2.5863-2.0436 4.0564-7.8405 2.5967-12.128-1.9742 3.1993-2.9176 6.8054-2.9176 9.2816zm5.6569 10.147c-3.0077-1.1096-6.9866-3.6745-6.9866-10.145 0-6.47 5.3496-18.296 17.558-18.296 12.208 0 17.558 11.826 17.558 18.296 0 6.47-3.9789 9.0349-6.9866 10.145-0.40377 4.7532-4.073 6.5597-10.571 6.5597-6.498 0-10.167-1.8065-10.571-6.5597zm23.881-19.428c-1.4597 4.2874 0.0111 10.084 2.5967 12.128 0.20511-0.82353 0.32087-1.7636 0.32087-2.8462 0-2.4762-0.94329-6.0822-2.9176-9.2816zm-13.31-6.4209c-4.5713 0-8.277 3.5923-8.277 8.0236 0 4.4313 3.7057 8.0237 8.277 8.0237 4.5713 0 8.277-3.5923 8.277-8.0237 0-4.4313-3.7058-8.0236-8.277-8.0236z" color="#000000" color-rendering="auto" dominant-baseline="auto" fill="#fff" image-rendering="auto" shape-rendering="auto" solid-color="#000000" stop-color="#000000" style="font-feature-settings:normal;font-variant-alternates:normal;font-variant-caps:normal;font-variant-east-asian:normal;font-variant-ligatures:normal;font-variant-numeric:normal;font-variant-position:normal;font-variation-settings:normal;inline-size:0;isolation:auto;mix-blend-mode:normal;shape-margin:0;shape-padding:0;text-decoration-color:#000000;text-decoration-line:none;text-decoration-style:solid;text-indent:0;text-orientation:mixed;text-transform:none;white-space:normal"/>
</svg>
