<svg viewBox="0 0 16 16" xmlns="http://www.w3.org/2000/svg">
 <path style="fill:#54cdee;fill-opacity:1;stroke-width:1" d="m 6.74 0 c 1.22 -0.016 1.85 0.537 2.545 1.234 0.288 -0.186 1.064 -0.571 1.023 -0.281 -0.059 0.43 0.193 0.814 -0.491 1.279 0.453 1.559 0.192 2.34 -0.157 2.848 -0.347 0.507 -0.937 0.857 -1.38 1.244 -0.443 0.386 -0.623 0.728 0.281 0.603 0.904 -0.123 2.26 0.371 3.01 0.916 c 0.747 0.544 1 -0.13 1.234 -0.456 0.233 -0.326 0.994 -1.497 1.623 -0.881 0.63 0.616 0.72 2.053 0.583 3.553 -0.136 1.499 -1.825 5.903 -6.494 5.94 c -4.67 0.035 -7.01 -1.386 -7.253 -3.863 -0.243 -2.477 1.022 -3.282 1.633 -4.19 0.611 -0.908 1.48 -1.752 0.66 -2.522 -0.545 -0.695 -2.284 0.205 -2.499 -0.742 -0.151 -0.584 2.066 -0.064 0.591 -0.976 -0.521 -0.335 -1.113 -1.866 -0.328 -1.672 0.987 0.256 1.971 0.667 2.277 -0.335 0.307 -1 1.921 -1.682 3.141 -1.698 z"/>
</svg>
