<svg xmlns="http://www.w3.org/2000/svg" viewBox="0 0 16 16">
 <path style="fill:#ececec;fill-opacity:1;stroke:none;fill-rule:nonzero" d="m 7.651 0 -0.003 0.003 c -1.164 0 -2.269 0.196 -3.276 0.628 c -1.621 0.695 -2.742 1.708 -3.716 2.976 6.643 -3.767 11.122 0.265 11.06 1.541 c -0.044 0.937 -0.865 0.764 -2.693 0.251 c -3.886 -1.088 -8.235 0.511 -8.913 3.645 -0.901 4.167 3.874 6.931 7.539 6.956 4.68 -0.004 8.343 -3.333 8.35 -8 -0.007 -4.665 -3.952 -7.969 -8.35 -8 z m -0.317728 8 a 4.666955 2.666667 0 0 1 4.666956 2.666666 4.666955 2.666667 0 0 1 -4.666956 2.666667 4.666955 2.666667 0 0 1 -4.666955 -2.666667 4.666955 2.666667 0 0 1 4.666955 -2.666666 z"/>
</svg>
