<svg xmlns="http://www.w3.org/2000/svg" viewBox="0 0 16 16">
 <path d="m 2.785 0.911 c -0.033 0.003 -0.07 0.007 -0.103 0.011 -0.032 0.005 -0.06 0.015 -0.092 0.023 -0.004 0.001 -0.008 -0.001 -0.011 0 -0.034 0.01 -0.07 0.022 -0.103 0.034 -0.66 0.22 -1.621 1.064 -1.941 1.79 -0.137 0.298 -0.254 0.63 -0.356 1.032 -0.188 0.746 -0.241 1.743 -0.092 2.916 0.121 0.99 0.399 2.146 0.942 3.386 0.337 0.898 1.01 2 2.263 3.099 0.147 0.109 0.29 0.213 0.436 0.309 1.177 0.781 2.233 1.127 3.055 1.262 1.35 0.301 2.561 0.362 3.595 0.298 1.229 -0.07 2.252 -0.307 2.986 -0.643 0.309 -0.168 0.719 -0.418 0.942 -0.62 0.657 -0.594 1.175 -1.109 1.459 -1.56 0.011 -0.015 0.023 -0.03 0.034 -0.045 0.032 -0.052 0.056 -0.098 0.08 -0.15 0.012 -0.023 0.025 -0.044 0.034 -0.069 0.018 -0.043 0.033 -0.084 0.045 -0.126 0.003 -0.025 0.008 -0.026 0.011 -0.045 0.004 -0.015 0.008 -0.032 0.011 -0.045 0.005 -0.033 0.008 -0.089 0.011 -0.103 0.005 -0.027 0 -0.023 0 -0.023 0 0 0.001 -0.007 0 -0.034 -0.001 -0.029 0 -0.078 0 -0.184 -0.008 -0.07 -0.025 -0.147 -0.045 -0.219 -0.043 -0.139 -0.106 -0.275 -0.195 -0.414 c -0.173 -0.268 -0.429 -0.532 -0.757 -0.792 -0.612 -0.483 -1.468 -0.949 -2.469 -1.401 -0.852 -0.385 -1.789 -0.737 -2.699 -1.125 -0.635 -0.309 -1.137 -0.473 -1.321 -0.62 -0.023 -0.018 -0.033 -0.038 -0.045 -0.058 -0.166 -0.033 -0.432 -0.483 -0.896 -1.045 -0.536 -0.725 -1.048 -1.49 -1.562 -2.193 -0.602 -0.822 -1.184 -1.515 -1.735 -1.985 -0.297 -0.254 -0.584 -0.44 -0.862 -0.551 -0.143 -0.056 -0.278 -0.1 -0.414 -0.114 c -0.069 -0.007 -0.14 -0.004 -0.206 0 z" style="fill:#ececec;opacity:0.4;fill-opacity:1;stroke-width:1"/>
 <path d="m 6.692 4.528 -6.067 4.505 c 0.117 0.349 0.246 0.705 0.406 1.072 0.337 0.898 1.01 2 2.263 3.099 0.147 0.109 0.291 0.213 0.437 0.311 1.177 0.781 2.231 1.126 3.055 1.262 1.35 0.301 2.561 0.362 3.595 0.298 1.229 -0.07 2.252 -0.307 2.987 -0.642 0.309 -0.168 0.719 -0.418 0.942 -0.619 0.657 -0.594 1.175 -1.111 1.459 -1.562 0.011 -0.015 0.025 -0.029 0.036 -0.045 0.032 -0.052 0.055 -0.099 0.08 -0.15 0.012 -0.023 0.025 -0.044 0.036 -0.069 0.018 -0.043 0.033 -0.085 0.045 -0.126 0.003 -0.025 0.008 -0.025 0.011 -0.045 0.004 -0.015 0.008 -0.033 0.011 -0.047 0.005 -0.033 0.008 -0.089 0.011 -0.103 0.006 -0.027 0 -0.022 0 -0.022 0 0 0.001 -0.007 0 -0.036 -0.001 -0.029 0 -0.078 0 -0.184 -0.008 -0.07 -0.026 -0.148 -0.047 -0.219 -0.043 -0.139 -0.106 -0.275 -0.195 -0.412 -0.173 -0.268 -0.428 -0.532 -0.757 -0.793 c -0.612 -0.483 -1.47 -0.949 -2.47 -1.4 -0.852 -0.385 -1.789 -0.737 -2.699 -1.125 -0.635 -0.309 -1.137 -0.472 -1.32 -0.619 -0.023 -0.018 -0.034 -0.04 -0.047 -0.059 -0.166 -0.033 -0.432 -0.483 -0.896 -1.045 -0.3 -0.406 -0.586 -0.814 -0.874 -1.226" style="fill:#ececec;fill-opacity:1;stroke-width:1"/>
</svg>
