
<!-- Generator: Adobe Illustrator 16.0.0, SVG Export Plug-In . SVG Version: 6.00 Build 0)  -->
<svg viewBox="0 0 16 16" xmlns="http://www.w3.org/2000/svg">
 <g transform="matrix(0.0323 0 0 0.0323 0.559 -0.882)" style="opacity:0.4;stroke-width:0.857">
  <g>
   <path transform="matrix(30.96429 0 0 30.96429 -17.303 27.321)" style="fill:#ececec;fill-opacity:1;stroke-width:0.028" d="m 8 0 c -3.871 0 -7 3.129 -7 7 c 0 3.871 3.129 7 7 7 l 0 2 c 4.04 -1.894 7 -5 7 -9 c 0 -3.871 -3.129 -7 -7 -7 z m -0.105 3.25 l 0.002 0 c 0.415 0 0.757 0.058 1.027 0.176 c 0.27 0.111 0.486 0.253 0.645 0.426 c 0.159 0.173 0.27 0.363 0.332 0.57 c 0.062 0.208 0.094 0.411 0.094 0.605 c 0 0.236 -0.047 0.445 -0.137 0.633 c -0.083 0.187 -0.188 0.361 -0.32 0.52 c -0.131 0.159 -0.274 0.312 -0.426 0.457 c -0.152 0.139 -0.295 0.283 -0.426 0.436 c -0.131 0.146 -0.244 0.3 -0.334 0.467 c -0.083 0.167 -0.123 0.355 -0.123 0.563 l 0 0.123 c 0 0.041 0.002 0.084 0.01 0.125 l -1.078 0 c -0.014 -0.069 -0.026 -0.142 -0.033 -0.219 c -0.007 -0.083 -0.01 -0.159 -0.01 -0.229 c 0 -0.229 0.038 -0.431 0.113 -0.611 c 0.077 -0.18 0.173 -0.348 0.291 -0.5 c 0.118 -0.152 0.244 -0.295 0.375 -0.426 c 0.139 -0.131 0.265 -0.263 0.383 -0.395 c 0.118 -0.131 0.216 -0.266 0.293 -0.404 c 0.077 -0.139 0.113 -0.291 0.113 -0.457 c 0 -0.229 -0.079 -0.415 -0.238 -0.561 c -0.152 -0.152 -0.383 -0.23 -0.695 -0.23 c -0.242 0 -0.475 0.031 -0.697 0.094 c -0.221 0.055 -0.453 0.15 -0.695 0.281 l -0.355 -0.967 c 0.257 -0.146 0.548 -0.259 0.873 -0.342 c 0.332 -0.09 0.672 -0.135 1.018 -0.135 z m -0.166 5.848 c 0.236 0 0.433 0.081 0.592 0.24 c 0.159 0.152 0.238 0.35 0.238 0.592 c 0 0.242 -0.079 0.44 -0.238 0.592 c -0.159 0.152 -0.356 0.229 -0.592 0.229 c -0.229 0 -0.425 -0.076 -0.592 -0.229 c -0.159 -0.152 -0.238 -0.35 -0.238 -0.592 c 0 -0.242 0.079 -0.44 0.238 -0.592 c 0.167 -0.159 0.363 -0.24 0.592 -0.24 z"/>
  </g>
 </g>
</svg>
