
<!-- Generator: Adobe Illustrator 16.0.0, SVG Export Plug-In . SVG Version: 6.00 Build 0)  -->
<svg xmlns="http://www.w3.org/2000/svg" viewBox="0 0 16 16">
 <g style="stroke-width:0.857" transform="matrix(0.0323 0 0 0.0323 0.559 -0.882)">
  <g>
   <path d="m 8 0 c -3.871 0 -7 3.129 -7 7 c 0 3.871 3.129 7 7 7 l 0 2 c 4.04 -1.894 7 -5 7 -9 c 0 -3.871 -3.129 -7 -7 -7 z m -4 5 l 3 0 l 0 3 l -0.75 2 l -1.5 0 l 1 -2 l -1.75 0 l 0 -3 z m 5 0 l 3 0 l 0 3 l -1.25 2 l -1.5 0 l 1 -2 l -1.25 0 l 0 -3 z" style="fill:#ececec;fill-opacity:1;stroke-width:0.028" transform="matrix(30.96429 0 0 30.96429 -17.303 27.321)"/>
  </g>
 </g>
</svg>
