
<!-- Generator: Adobe Illustrator 16.0.0, SVG Export Plug-In . SVG Version: 6.00 Build 0)  -->
<svg xmlns="http://www.w3.org/2000/svg" viewBox="0 0 16 16">
 <g transform="matrix(0.0323 0 0 0.0323 0.559 -0.882)" style="stroke-width:0.857">
  <g>
   <path transform="matrix(30.96429 0 0 30.96429 -17.303 27.321)" d="m 8 0 c -3.871 0 -7 3.129 -7 7 c 0 3.871 3.129 7 7 7 l 0 2 c 4.04 -1.894 7 -5 7 -9 c 0 -3.871 -3.129 -7 -7 -7 z m -4 6 l 2 0 l 0 2 l -2 0 l 0 -2 z m 3 0 l 2 0 l 0 2 l -2 0 l 0 -2 z m 3 0 l 2 0 l 0 2 l -2 0 l 0 -2 z" style="fill:#ececec;fill-opacity:1;stroke-width:0.028"/>
  </g>
 </g>
</svg>
