<svg viewBox="0 0 16 16" xmlns="http://www.w3.org/2000/svg">
 <g style="fill:#ececec;fill-opacity:1;stroke:none" transform="matrix(1 0 0 1 0.039 -1037.04)">
  <path d="m 8.752,1043.59 q 0.469,0.121 0.712,0.422 0.245,0.298 0.245,0.761 0,0.69 -0.528,1.05 -0.528,0.357 -1.541,0.357 -0.357,0 -0.718,-0.059 -0.357,-0.056 -0.708,-0.171 v -0.923 q 0.336,0.168 0.665,0.255 0.332,0.084 0.653,0.084 0.475,0 0.727,-0.165 0.255,-0.165 0.255,-0.472 0,-0.317 -0.261,-0.478 -0.258,-0.165 -0.764,-0.165 H 7.01 v -0.771 h 0.503 q 0.451,0 0.671,-0.14 0.221,-0.143 0.221,-0.432 0,-0.267 -0.214,-0.413 -0.214,-0.146 -0.606,-0.146 -0.289,0 -0.584,0.065 -0.295,0.065 -0.587,0.193 v -0.876 q 0.354,-0.099 0.702,-0.149 0.348,-0.05 0.684,-0.05 0.904,0 1.352,0.298 0.451,0.295 0.451,0.892 0,0.407 -0.214,0.668 -0.214,0.258 -0.634,0.364 z"/>
 </g>
 <path d="m 1 1 c -0.554 0 -1 0.446 -1 1 l 0 9 c 0 0.554 0.454 1.091 1 1 l 6 0 l 0 2 l -2.998 2 l 8 0 l -3 -2 l 0 -2 l 6 0 c 0.554 0 1 -0.446 1 -1 l 0 -9 c 0 -0.554 -0.446 -1 -1 -1 z m 0.5 1 l 13 0 c 0.277 0 0.5 0.223 0.5 0.5 l 0 8 c 0 0.277 -0.223 0.5 -0.5 0.5 l -13 0 c -0.277 0 -0.5 -0.223 -0.5 -0.5 l 0 -8 c 0 -0.277 0.223 -0.5 0.5 -0.5 z" style="fill:#ececec;fill-opacity:1;stroke-width:1"/>
</svg>
