<svg viewBox="0 0 16 16" xmlns="http://www.w3.org/2000/svg">
 <g transform="matrix(1 0 0 1 -0.138 -1037.04)" style="fill:#ececec;fill-opacity:1;stroke:none">
  <path d="M 4.594,1045.26 H 5.65 v -2.998 l -1.084,0.224 v -0.814 l 1.078,-0.224 h 1.137 v 3.813 h 1.056 v 0.826 H 4.593 v -0.826 z"/>
  <path d="m 8.402,1041.45 h 2.974 v 0.879 h -2.02 v 0.718 q 0.137,-0.037 0.273,-0.056 0.14,-0.022 0.289,-0.022 0.848,0 1.321,0.426 0.472,0.423 0.472,1.181 0,0.752 -0.516,1.178 -0.513,0.426 -1.426,0.426 -0.395,0 -0.783,-0.078 -0.385,-0.075 -0.767,-0.23 v -0.941 q 0.379,0.217 0.718,0.326 0.342,0.109 0.643,0.109 0.435,0 0.684,-0.211 0.252,-0.214 0.252,-0.578 0,-0.367 -0.252,-0.578 -0.249,-0.211 -0.684,-0.211 -0.258,0 -0.55,0.068 -0.292,0.065 -0.628,0.205 v -2.61 z"/>
 </g>
 <path d="M 1,1 C 0.446,1 0,1.446 0,2 v 9 c 0,0.554 0.453538,1.091077 1,1 h 6 v 2 l -2.998047,2 h 8 L 9,14 v -2 h 6 c 0.554,0 1,-0.446 1,-1 V 2 C 16,1.446 15.554,1 15,1 Z m 0.5,1 h 13 C 14.777,2 15,2.223 15,2.5 v 8 C 15,10.777 14.777,11 14.5,11 H 1.5 C 1.223,11 1,10.777 1,10.5 v -8 C 1,2.223 1.223,2 1.5,2 Z" style="fill:#ececec;fill-opacity:1;stroke-width:1"/>
</svg>
