<svg xmlns="http://www.w3.org/2000/svg" viewBox="0 0 16 16">
 <g style="fill:#ececec;fill-opacity:1;stroke:none" transform="matrix(1 0 0 1 -0.031 -1037.04)">
  <path d="m 5.681,1045.21 h 2.041 v 0.879 H 4.351 v -0.879 l 1.693,-1.495 q 0.227,-0.205 0.336,-0.401 0.109,-0.196 0.109,-0.407 0,-0.326 -0.221,-0.525 -0.218,-0.199 -0.581,-0.199 -0.28,0 -0.612,0.121 -0.332,0.118 -0.712,0.354 v -1.019 q 0.404,-0.134 0.799,-0.202 0.395,-0.071 0.774,-0.071 0.833,0 1.293,0.367 0.463,0.367 0.463,1.022 0,0.379 -0.196,0.708 -0.196,0.326 -0.823,0.876 l -0.991,0.87 z"/>
  <path d="m 8.402,1041.45 h 2.974 v 0.879 h -2.02 v 0.718 q 0.137,-0.037 0.273,-0.056 0.14,-0.022 0.289,-0.022 0.848,0 1.321,0.426 0.472,0.423 0.472,1.181 0,0.752 -0.516,1.178 -0.513,0.426 -1.426,0.426 -0.395,0 -0.783,-0.078 -0.385,-0.075 -0.767,-0.23 v -0.941 q 0.379,0.217 0.718,0.326 0.342,0.109 0.643,0.109 0.435,0 0.684,-0.211 0.252,-0.214 0.252,-0.578 0,-0.367 -0.252,-0.578 -0.249,-0.211 -0.684,-0.211 -0.258,0 -0.55,0.068 -0.292,0.065 -0.628,0.205 v -2.61 z"/>
 </g>
 <path style="fill:#ececec;fill-opacity:1;stroke-width:1" d="M 1,1 C 0.446,1 0,1.446 0,2 v 9 c 0,0.554 0.453537,1.091077 1,1 h 6 v 2 l -2.998047,2 h 8 L 9,14 v -2 h 6 c 0.554,0 1,-0.446 1,-1 V 2 C 16,1.446 15.554,1 15,1 Z m 0.5,1 h 13 C 14.777,2 15,2.223 15,2.5 v 8 C 15,10.777 14.777,11 14.5,11 H 1.5 C 1.223,11 1,10.777 1,10.5 v -8 C 1,2.223 1.223,2 1.5,2 Z"/>
</svg>
