<svg viewBox="0 0 16 16" xmlns="http://www.w3.org/2000/svg">
 <g transform="matrix(1 0 0 1 -0.163 -1037.04)" style="fill:#ececec;fill-opacity:1;stroke:none">
  <path d="M 4.594,1045.26 H 5.65 v -2.998 l -1.084,0.224 v -0.814 l 1.078,-0.224 h 1.137 v 3.813 h 1.056 v 0.826 H 4.593 v -0.826 z"/>
  <path d="m 9.943 1044.01 q -0.336 0 -0.516 0.183 -0.18 0.183 -0.18 0.525 0 0.342 0.18 0.525 0.18 0.18 0.516 0.18 0.332 0 0.51 -0.18 0.177 -0.183 0.177 -0.525 0 -0.345 -0.177 -0.525 -0.177 -0.183 -0.51 -0.183 z m -0.873 -0.395 q -0.423 -0.127 -0.637 -0.391 -0.214 -0.264 -0.214 -0.659 0 -0.587 0.438 -0.895 0.438 -0.308 1.286 -0.308 0.842 0 1.28 0.308 0.438 0.304 0.438 0.895 0 0.395 -0.218 0.659 -0.214 0.264 -0.637 0.391 0.472 0.13 0.712 0.426 0.242 0.292 0.242 0.739 0 0.69 -0.46 1.044 -0.457 0.351 -1.358 0.351 -0.904 0 -1.367 -0.351 -0.46 -0.354 -0.46 -1.044 0 -0.447 0.239 -0.739 0.242 -0.295 0.715 -0.426 z m 0.28 -0.929 q 0 0.276 0.152 0.426 0.155 0.149 0.441 0.149 0.28 0 0.432 -0.149 0.152 -0.149 0.152 -0.426 0 -0.277 -0.152 -0.423 -0.152 -0.149 -0.432 -0.149 -0.286 0 -0.441 0.149 -0.152 0.149 -0.152 0.423 z"/>
 </g>
 <path d="M 1,1 C 0.446,1 0,1.446 0,2 v 9 c 0,0.554 0.453538,1.091077 1,1 h 6 v 2 l -2.998047,2 h 8 L 9,14 v -2 h 6 c 0.554,0 1,-0.446 1,-1 V 2 C 16,1.446 15.554,1 15,1 Z m 0.5,1 h 13 C 14.777,2 15,2.223 15,2.5 v 8 C 15,10.777 14.777,11 14.5,11 H 1.5 C 1.223,11 1,10.777 1,10.5 v -8 C 1,2.223 1.223,2 1.5,2 Z" style="fill:#ececec;fill-opacity:1;stroke-width:1"/>
</svg>
