<svg viewBox="0 0 16 16" xmlns="http://www.w3.org/2000/svg">
 <g transform="matrix(1 0 0 1 0.002 -1037.04)" style="fill:#ececec;fill-opacity:1;stroke:none">
  <path d="m 8,1044.01 q -0.336,0 -0.516,0.183 -0.18,0.183 -0.18,0.525 0,0.342 0.18,0.525 0.18,0.18 0.516,0.18 0.332,0 0.51,-0.18 0.177,-0.183 0.177,-0.525 0,-0.345 -0.177,-0.525 Q 8.333,1044.01 8,1044.01 Z m -0.873,-0.395 q -0.423,-0.127 -0.637,-0.391 -0.214,-0.264 -0.214,-0.659 0,-0.587 0.438,-0.895 0.438,-0.308 1.286,-0.308 0.842,0 1.28,0.308 0.438,0.304 0.438,0.895 0,0.395 -0.218,0.659 -0.214,0.264 -0.637,0.391 0.472,0.13 0.712,0.426 0.242,0.292 0.242,0.739 0,0.69 -0.46,1.044 -0.457,0.351 -1.358,0.351 -0.904,0 -1.367,-0.351 -0.46,-0.354 -0.46,-1.044 0,-0.447 0.239,-0.739 0.242,-0.295 0.715,-0.426 z m 0.28,-0.929 q 0,0.276 0.152,0.426 0.155,0.149 0.441,0.149 0.28,0 0.432,-0.149 0.152,-0.149 0.152,-0.426 0,-0.277 -0.152,-0.423 -0.152,-0.149 -0.432,-0.149 -0.286,0 -0.441,0.149 -0.152,0.149 -0.152,0.423 z"/>
 </g>
 <path d="m 1 1 c -0.554 0 -1 0.446 -1 1 l 0 9 c 0 0.554 0.454 1.091 1 1 l 6 0 l 0 2 l -2.998 2 l 8 0 l -3 -2 l 0 -2 l 6 0 c 0.554 0 1 -0.446 1 -1 l 0 -9 c 0 -0.554 -0.446 -1 -1 -1 z m 0.5 1 l 13 0 c 0.277 0 0.5 0.223 0.5 0.5 l 0 8 c 0 0.277 -0.223 0.5 -0.5 0.5 l -13 0 c -0.277 0 -0.5 -0.223 -0.5 -0.5 l 0 -8 c 0 -0.277 0.223 -0.5 0.5 -0.5 z" style="fill:#ececec;fill-opacity:1;stroke-width:1"/>
</svg>
