<svg xmlns="http://www.w3.org/2000/svg" viewBox="0 0 16 16">
 <g transform="matrix(1 0 0 1 -0.062 -1037.04)" style="fill:#ececec;fill-opacity:1;stroke:none">
  <path d="m 6.812,1043.59 q 0.469,0.121 0.712,0.422 0.245,0.298 0.245,0.761 0,0.69 -0.528,1.05 -0.528,0.357 -1.541,0.357 -0.357,0 -0.718,-0.059 -0.357,-0.056 -0.708,-0.171 v -0.923 q 0.336,0.168 0.665,0.255 0.332,0.084 0.653,0.084 0.475,0 0.727,-0.165 0.255,-0.165 0.255,-0.472 0,-0.317 -0.261,-0.478 -0.258,-0.165 -0.764,-0.165 H 5.07 v -0.771 h 0.503 q 0.451,0 0.671,-0.14 0.221,-0.143 0.221,-0.432 0,-0.267 -0.214,-0.413 -0.214,-0.146 -0.606,-0.146 -0.289,0 -0.584,0.065 -0.295,0.065 -0.587,0.193 v -0.876 q 0.354,-0.099 0.702,-0.149 0.348,-0.05 0.684,-0.05 0.904,0 1.352,0.298 0.451,0.295 0.451,0.892 0,0.407 -0.214,0.668 -0.214,0.258 -0.634,0.364 z"/>
  <path d="m 10.655 1043.77 q 0 -0.87 -0.165 -1.224 -0.162 -0.357 -0.547 -0.357 -0.385 0 -0.55 0.357 -0.165 0.354 -0.165 1.224 0 0.879 0.165 1.24 0.165 0.36 0.55 0.36 0.382 0 0.547 -0.36 0.165 -0.361 0.165 -1.24 z m 1.196 0.01 q 0 1.153 -0.497 1.78 -0.497 0.625 -1.411 0.625 -0.917 0 -1.414 -0.625 -0.497 -0.628 -0.497 -1.78 0 -1.156 0.497 -1.781 0.497 -0.628 1.414 -0.628 0.914 0 1.411 0.628 0.497 0.625 0.497 1.781 z"/>
 </g>
 <path style="fill:#ececec;fill-opacity:1;stroke-width:1" d="M 1,1 C 0.446,1 0,1.446 0,2 v 9 c 0,0.554 0.453538,1.091077 1,1 h 6 v 2 l -2.998047,2 h 8 L 9,14 v -2 h 6 c 0.554,0 1,-0.446 1,-1 V 2 C 16,1.446 15.554,1 15,1 Z m 0.5,1 h 13 C 14.777,2 15,2.223 15,2.5 v 8 C 15,10.777 14.777,11 14.5,11 H 1.5 C 1.223,11 1,10.777 1,10.5 v -8 C 1,2.223 1.223,2 1.5,2 Z"/>
</svg>
