<svg width="16" viewBox="0 0 4.5155556 4.5155556" xmlns="http://www.w3.org/2000/svg" height="16">
 <path style="fill:#ececec;fill-opacity:1;stroke:none" d="m 1.976 0 c -0.191 0 -0.282 0.047 -0.282 0.226 l 0 3.161 c 0 0.18 0.293 0.377 0.485 0.377 l 0.158 0 c 0.191 0 0.485 -0.138 0.485 -0.318 l 0 -0.905 l -0.565 0 l 0 -0.282 l 0.565 0 l 0 -0.282 l -0.565 0 l 0.001 -0.282 l 0.565 0 l -0.001 -0.282 l -0.565 0 l 0 -0.282 l 0.565 0 l 0.001 -0.282 l -0.567 0 l 0 -0.282 l 0.565 0 l 0 -0.263 c 0 -0.18 -0.091 -0.303 -0.282 -0.303 z"/>
 <circle cx="2.258" style="fill:#ececec;fill-opacity:1;stroke:none" r="0.847" cy="3.669"/>
</svg>
