<svg viewBox="0 0 16 16" xmlns="http://www.w3.org/2000/svg">
 <path d="m 8.963 4.795 c 1.93 0.027 2.183 1.472 2.747 1.507 0.699 0.043 1.097 0.887 0.814 1.458 -0.282 0.57 -0.715 0.28 -0.731 0.958 -0.009 0.394 0.179 0.687 0.334 0.693 0.434 -0.32 0.89 -0.326 1.119 -0.118 0.229 0.208 0.23 0.629 0.226 1.162 1.032 1.141 1.289 1.23 1.561 1.765 0.21 0.415 0.418 1.157 -0.15 1.393 -0.407 1.565 -1.561 2.102 -2.714 1.965 c -0.385 -0.038 -1.378 0.718 -3.44 0.29 -1.594 -0.33 -8.752 -2.02 -7.91 -5.123 0.743 -2.741 3.299 -8.872 4.058 -9.583 c 0 0 -0.152 1.494 0.518 2.102 c 0.295 -2.41 2.181 -3.186 2.842 -3.264 -0.648 0.744 -0.976 1.599 -0.786 2.338 1.47 -1.76 3.934 -1.582 5.073 -1 -4.915 0.841 -3.561 3.463 -3.561 3.463 z" style="fill:#54cdee;fill-opacity:1;stroke:none;fill-rule:evenodd"/>
</svg>
