<svg viewBox="0 0 4.5155556 4.5155556" height="16" xmlns="http://www.w3.org/2000/svg" width="16">
 <g transform="matrix(0.99988 0 0 0.99988 -0.847 -0.847)" style="stroke-width:0.727">
  <path transform="matrix(0.28222 0 0 0.28222 0 0)" d="m 11,3 c -4.418,0 -8,3.582 -8,8 0,3.163 1.836,5.889 4.5,7.188 0.127,0.062 0.244,0.132 0.375,0.188 0.217,0.095 0.447,0.175 0.688,0.25 0.019,0.006 0.044,-0.006 0.063,0 0.175,0.053 0.345,0.115 0.531,0.156 0.075,0.018 0.143,0.047 0.219,0.063 0.137,0.026 0.263,0.042 0.406,0.063 0.224,0.034 0.458,0.047 0.688,0.063 0.237,0.016 0.499,0.031 0.75,0.031 h 0.281 c 0.105,0 0.208,-0.025 0.313,-0.031 0.276,-0.016 0.542,-0.069 0.813,-0.125 0.433,-0.09 0.851,-0.231 1.25,-0.406 0.079,-0.03 0.172,-0.03 0.25,-0.063 0.032,-0.016 0.062,-0.046 0.094,-0.063 2.816,-1.239 4.781,-4.04 4.781,-7.313 0,-4.418 -3.582,-8 -8,-8 m 0,1 c 3.866,0 7,3.134 7,7 0,2.112 -0.958,3.998 -2.438,5.281 -0.099,0.021 -0.202,0.062 -0.313,0.063 1.846,-1.524 2.239,-3.81 0.594,-6 0.122,1.428 -0.67,2.169 -1.344,2.656 1.054,-2.01 1.07,-4.294 -1,-6.313 0.165,0.495 0.301,0.892 0.188,1.344 C 13.798,7.499 12.264,5.092 10.033,4.063 10.35,4.019 10.673,4 11.002,4 M 9.877,4.094 c 1.496,2.556 0.06,3.052 -0.25,5.125 0.155,-0.12 0.286,-0.235 0.469,-0.313 0.273,-0.116 0.59,-0.188 0.906,-0.188 0.316,0 0.633,0.072 0.906,0.188 0.273,0.116 0.512,0.262 0.719,0.469 0.207,0.207 0.353,0.445 0.469,0.719 0.116,0.273 0.188,0.59 0.188,0.906 0,0.316 -0.072,0.633 -0.188,0.906 -0.116,0.273 -0.262,0.512 -0.469,0.719 -0.207,0.207 -0.445,0.353 -0.719,0.469 -0.273,0.116 -0.59,0.188 -0.906,0.188 -0.316,0 -0.633,-0.072 -0.906,-0.188 C 9.823,12.978 9.584,12.832 9.377,12.625 9.17,12.418 9.024,12.18 8.908,11.906 8.792,11.633 8.72,11.316 8.72,11 8.72,10.684 8.792,10.367 8.908,10.094 8.956,9.982 9.031,9.915 9.096,9.813 8.88,9.493 8.582,9.236 7.94,9.094 9.464,11.761 6.123,11.46 6.44,13.782 6.03,13.669 5.661,12.913 5.971,11.969 4.899,13.294 5.303,14.42 6.065,15.563 5.303,14.801 5.29,15.197 4.909,14.125 4.917,14.278 4.952,14.414 4.972,14.563 4.354,13.52 4.003,12.301 4.003,11 4.003,7.518 6.548,4.633 9.878,4.094 m 1.125,5.75 c -0.316,0 -0.606,0.137 -0.813,0.344 -0.207,0.207 -0.344,0.497 -0.344,0.813 0,0.316 0.137,0.606 0.344,0.813 0.207,0.207 0.497,0.344 0.813,0.344 0.316,0 0.606,-0.137 0.813,-0.344 0.207,-0.207 0.344,-0.497 0.344,-0.813 0,-0.316 -0.137,-0.606 -0.344,-0.813 C 11.609,9.981 11.319,9.844 11.003,9.844" style="fill:#ececec;fill-opacity:1"/>
 </g>
</svg>
