<svg viewBox="0 0 4.5155556 4.5155556" width="16" xmlns="http://www.w3.org/2000/svg" height="16">
 <g style="fill:#ececec;fill-opacity:1;stroke-width:0.727" transform="matrix(0.64618 0 0 0.62274 -2.116 -178.12)">
  <g transform="matrix(0.66942 0 0 0.66942 -7.834 95.42)">
   <path d="m 18,293.03 -0.094,0.188 c 0,0 -0.415,0.786 -1.031,1.844 l -0.281,0.5 h 0.563 9.313 0.563 l -0.281,-0.5 -0.938,-1.844 -0.094,-0.188 h -0.188 -7.344 z m 6.27,1.988 0.751,-0.559 0.886,0.415 -0.609,-1.166 c 0.305,-0.541 -1.077,1.403 -1.028,1.31 z" style="visibility:visible;stroke:none;display:inline;color:#000;fill-rule:nonzero"/>
   <path d="m 21.792,284.73 c -0.172,10e-4 -0.336,0.114 -0.679,0.337 l -0.72,2.789 2.845,-0.002 -0.72,-2.787 c -0.376,-0.226 -0.555,-0.338 -0.726,-0.337 z m -1.724,4.381 -0.268,1.036 h 4.03 l -0.266,-1.033 z m 3.763,1.036 0.33,1.277 v 0 z m 0.33,1.277 -4.689,-0.003 -0.418,1.621 c 1.996,1.141 3.332,1.211 5.527,0.007 z"/>
  </g>
 </g>
</svg>
