<svg xmlns="http://www.w3.org/2000/svg" viewBox="0 0 16 16">
 <path d="m 8 0 c -4.432 0 -8 3.568 -8 8 0 4.432 3.568 8 8 8 4.432 0 8 -3.568 8 -8 0 -4.432 -3.568 -8 -8 -8 m -3.531 3.438 c 0.568 -0.054 1.145 0.408 1.437 1.125 0.018 0.041 0.048 0.081 0.062 0.125 0.077 0.228 0.12 0.466 0.125 0.688 0.003 0.11 -0.018 0.209 -0.032 0.312 c -0.028 0.209 -0.067 0.395 -0.157 0.562 -0.089 0.165 -0.232 0.303 -0.375 0.406 -0.066 0.045 -0.143 0.096 -0.219 0.125 -0.084 0.032 -0.164 0.055 -0.25 0.062 -0.186 0.018 -0.351 -0.012 -0.531 -0.094 -0.084 -0.034 -0.14 -0.072 -0.219 -0.125 -0.166 -0.111 -0.307 -0.254 -0.437 -0.437 -0.058 -0.08 -0.139 -0.158 -0.187 -0.25 c -0.004 -0.008 0.004 -0.023 0 -0.032 c -0.052 -0.102 -0.087 -0.198 -0.125 -0.312 -0.017 -0.051 -0.019 -0.106 -0.032 -0.157 -0.007 -0.014 -0.025 -0.018 -0.032 -0.032 -0.215 -0.847 0.066 -1.669 0.688 -1.906 0.084 -0.032 0.195 -0.055 0.282 -0.062 m 6.25 0.375 c 0.506 -0.076 1.045 0.296 1.313 0.906 0.077 0.175 0.14 0.359 0.157 0.531 0.011 0.136 -0.007 0.281 -0.032 0.406 -0.018 0.092 -0.058 0.169 -0.094 0.25 -0.004 0.008 0.004 0.023 0 0.032 -0.034 0.076 -0.076 0.157 -0.125 0.219 -0.018 0.022 -0.043 0.043 -0.062 0.062 -0.029 0.029 -0.062 0.037 -0.094 0.062 -0.058 0.045 -0.117 0.095 -0.187 0.125 -0.128 0.055 -0.27 0.07 -0.406 0.062 -0.01 -0.001 -0.022 0.001 -0.032 0 -0.138 -0.012 -0.274 -0.058 -0.406 -0.125 -0.007 -0.004 -0.025 0.004 -0.032 0 c -0.14 -0.076 -0.258 -0.183 -0.375 -0.312 -0.117 -0.129 -0.205 -0.294 -0.282 -0.469 -0.078 -0.177 -0.142 -0.355 -0.157 -0.531 c -0.01 -0.114 -0.015 -0.238 0 -0.344 0.003 0.021 0.027 0.041 0.032 0.062 0.044 -0.391 0.232 -0.734 0.562 -0.875 0.069 -0.029 0.146 -0.052 0.219 -0.062 z m 0.344 0.562 c -0.315 0 -0.594 0.248 -0.594 0.562 0 0.316 0.278 0.594 0.594 0.594 0.315 0 0.562 -0.278 0.562 -0.594 0 -0.316 -0.248 -0.562 -0.562 -0.562 z m -6.06 0.187 c -0.099 -0.006 -0.213 0.028 -0.312 0.062 -0.396 0.143 -0.58 0.573 -0.437 0.969 0.143 0.396 0.573 0.611 0.969 0.469 0.396 -0.143 0.58 -0.604 0.437 -1 -0.107 -0.297 -0.36 -0.484 -0.656 -0.501 m 6.126 0.344 c 0.078 0 0.157 0.077 0.157 0.157 0 0.078 -0.077 0.125 -0.157 0.125 -0.078 0 -0.125 -0.047 -0.125 -0.125 0 -0.078 0.047 -0.157 0.125 -0.157 z m -6.06 0.344 c 0.099 -0.036 0.183 -0.005 0.219 0.094 0.036 0.099 0.005 0.215 -0.094 0.25 c -0.099 0.036 -0.215 -0.026 -0.25 -0.125 -0.036 -0.099 0.026 -0.183 0.125 -0.219 m 2.875 1.594 c 0.032 -0.001 0.04 0.029 0.062 0.032 0.019 -0.003 0.039 -0.032 0.062 -0.032 0.176 0.005 0.505 0.12 1.063 0.626 0.744 0.674 0.781 1.282 0.781 1.282 -0.12 0.059 -0.253 0.164 -0.375 0.282 -0.333 1.172 -0.617 1.625 -1.532 1.625 -0.979 0 -1.44 -0.513 -1.562 -1.657 c -0.11 -0.099 -0.231 -0.194 -0.344 -0.25 c 0 0 0.037 -0.608 0.781 -1.282 c 0.558 -0.506 0.887 -0.62 1.063 -0.626" style="fill:#ececec;fill-opacity:1;fill-rule:evenodd;stroke-width:1"/>
</svg>
