<svg viewBox="0 0 16 16" xmlns="http://www.w3.org/2000/svg">
 <path d="M 11.499813 14.06223 A 7 7 0 0 0 14.06199 4.500051 7 7 0 0 0 14.01662 4.42927 1.5 1.5 0 0 0 13.939703 2.389803 1.5 1.5 0 0 0 11.979224 2.251966 7 7 0 0 0 4.499814 1.937872 7 7 0 0 0 1.749869 4.858421 1.5 1.5 0 0 0 0.403964 5.964748 1.5 1.5 0 0 0 1.015412 7.594116 a 7 7 0 0 0 0.922223 3.905935 7 7 0 0 0 1.602447 1.884896 1.5 1.5 0 0 0 0.385867 1.4574 1.5 1.5 0 0 0 1.889246 0.19024 1.5 1.5 0 0 0 0.232686 -0.190726 1.5 1.5 0 0 0 0.088459 -0.10069 7 7 0 0 0 5.363471 -0.678945 z M 10.999812 13.196204 A 6 6 0 0 1 6.485846 13.799658 1.5 1.5 0 0 0 6.0474 12.719931 1.5 1.5 0 0 0 5.835612 12.544506 L 6.568 9.81 A 1.5 1.5 0 0 0 7.899509 8.705225 1.5 1.5 0 0 0 7.879523 7.862014 L 12.05 4.703 a 1.5 1.5 0 0 0 1.09406 0.223093 6 6 0 0 1 0.04733 0.074163 6 6 0 0 1 -2.196153 8.196154 z M 4.869786 12.285719 A 1.5 1.5 0 0 0 4.113721 12.562108 6 6 0 0 1 2.803661 11.00005 6 6 0 0 1 2.00882 7.846003 1.5 1.5 0 0 0 2.954887 7.367449 l 2 0.855 A 1.5 1.5 0 0 0 5.602554 9.550998 z M 7.275176 7.06525 A 1.5 1.5 0 0 0 6.838962 6.868303 1.5 1.5 0 0 0 5.347611 7.300833 L 3.348 6.446 A 1.5 1.5 0 0 0 2.731054 5.139916 6 6 0 0 1 4.999813 2.803898 a 6 6 0 0 1 6.426403 0.279295 1.5 1.5 0 0 0 0.02473 0.820175 z" style="fill:#ececec;opacity:1;fill-opacity:1;stroke:none;fill-rule:nonzero"/>
</svg>
