<svg xmlns="http://www.w3.org/2000/svg" viewBox="0 0 16 16">
 <path style="fill:#ececec;opacity:1;fill-opacity:1;stroke:none;fill-rule:nonzero" d="M 0.9999 7.9999 A 7 7 0 0 0 7.9999 14.9999 7 7 0 0 0 8.08389 14.99599 1.5 1.5 0 0 0 9.888573 15.949117 1.5 1.5 0 0 0 10.988179 14.320213 7 7 0 0 0 14.9999 7.999901 7 7 0 0 0 13.845603 4.158104 1.5 1.5 0 0 0 13.560448 2.439353 1.5 1.5 0 0 0 11.84365 2.154198 7 7 0 0 0 7.999899 0.9999 7 7 0 0 0 5.566308 1.445211 1.5 1.5 0 0 0 4.111229 1.050682 1.5 1.5 0 0 0 3.00185 2.591697 a 1.5 1.5 0 0 0 0.04883 0.296875 1.5 1.5 0 0 0 0.04297 0.126953 7 7 0 0 0 -2.093751 4.984375 z m 0.999999 -0.000001 a 6 6 0 0 1 1.734377 -4.210936 1.5 1.5 0 0 0 1.154295 0.160156 1.5 1.5 0 0 0 0.257815 -0.095699 l 2 2 a 1.5 1.5 0 0 0 0.291015 1.705077 1.5 1.5 0 0 0 0.740235 0.404297 l 0.648 5.195 a 1.5 1.5 0 0 0 -0.740234 0.835937 6 6 0 0 1 -0.087898 0.0039 A 6 6 0 0 1 1.999893 7.999892 z M 5.853415 3.146383 A 1.5 1.5 0 0 0 5.992088 2.353417 6 6 0 0 1 7.9999 1.9999 6 6 0 0 1 11.128805 2.888572 1.5 1.5 0 0 0 11.07021 3.947166 L 9.33 5.252 A 1.5 1.5 0 0 0 7.855369 5.148338 z M 9.171775 7.839743 A 1.5 1.5 0 0 0 9.560447 7.560447 1.5 1.5 0 0 0 9.931541 6.05263 L 11.672 4.748 A 1.5 1.5 0 0 0 13.11123 4.867087 6 6 0 0 1 13.9999 7.9999 6 6 0 0 1 10.544822 13.425682 1.5 1.5 0 0 0 9.822165 13.03701 z"/>
</svg>
