<svg xmlns="http://www.w3.org/2000/svg" viewBox="0 0 16 16">
 <path style="fill:#ececec;opacity:1;fill-opacity:1;stroke:none;fill-rule:nonzero" d="m 4.499813 14.06213 a 7 7 0 0 0 9.562178 -2.562178 7 7 0 0 0 0.03861 -0.07469 1.5 1.5 0 0 0 1.727774 -1.086342 A 1.5 1.5 0 0 0 14.967506 8.572179 7 7 0 0 0 11.499814 1.937773 7 7 0 0 0 7.595572 1.016525 1.5 1.5 0 0 0 5.964512 0.4041 1.5 1.5 0 0 0 4.859162 1.748314 7 7 0 0 0 1.937635 4.499951 7 7 0 0 0 1.10649 6.830158 1.5 1.5 0 0 0 0.037278 7.893029 1.5 1.5 0 0 0 0.817149 9.624284 1.5 1.5 0 0 0 1.098665 9.730434 1.5 1.5 0 0 0 1.230094 9.756697 7 7 0 0 0 4.499813 14.06213 z M 4.999811 13.196102 A 6 6 0 0 1 2.220222 9.58862 1.5 1.5 0 0 0 2.936068 8.669049 1.5 1.5 0 0 0 2.982098 8.397925 L 5.717 7.665 a 1.5 1.5 0 0 0 1.622148 0.600512 1.5 1.5 0 0 0 0.720248 -0.438914 l 4.823 2.036 a 1.5 1.5 0 0 0 0.353826 1.05903 6 6 0 0 1 -0.04057 0.07807 6 6 0 0 1 -8.196155 2.196153 z M 2.723302 7.432102 A 1.5 1.5 0 0 0 2.105909 6.915525 6 6 0 0 1 2.803661 4.99995 6 6 0 0 1 5.137726 2.734574 1.5 1.5 0 0 0 6.0252 3.314615 L 6.285 5.474 A 1.5 1.5 0 0 0 5.458023 6.699337 z M 8.447051 6.904998 A 1.5 1.5 0 0 0 8.399509 6.42875 1.5 1.5 0 0 0 7.279252 5.353467 L 7.02 3.194 a 1.5 1.5 0 0 0 0.822905 -1.187032 6 6 0 0 1 3.157431 0.796794 6 6 0 0 1 2.971326 5.705076 1.5 1.5 0 0 0 -0.697928 0.431504 z"/>
</svg>
