<svg viewBox="0 0 16 16" xmlns="http://www.w3.org/2000/svg">
 <path style="fill:#ececec;opacity:1;fill-opacity:1;stroke:none;fill-rule:nonzero" d="m 1.937672 11.499913 a 7 7 0 0 0 9.562178 2.562178 7 7 0 0 0 0.07078 -0.04538 1.5 1.5 0 0 0 2.039467 -0.07691 1.5 1.5 0 0 0 0.137835 -1.960475 A 7 7 0 0 0 14.06203 4.499914 7 7 0 0 0 11.141479 1.749969 1.5 1.5 0 0 0 10.03515 0.404064 1.5 1.5 0 0 0 8.405784 1.015512 7 7 0 0 0 4.499849 1.937736 7 7 0 0 0 2.614953 3.540182 1.5 1.5 0 0 0 1.157553 3.926049 1.5 1.5 0 0 0 0.967313 5.815296 1.5 1.5 0 0 0 1.158038 6.04798 1.5 1.5 0 0 0 1.258728 6.136441 7 7 0 0 0 1.937673 11.499912 z M 2.803696 10.999912 A 6 6 0 0 1 2.200242 6.485946 1.5 1.5 0 0 0 3.279969 6.0475 1.5 1.5 0 0 0 3.455394 5.835712 L 6.19 6.568 A 1.5 1.5 0 0 0 7.294675 7.899609 1.5 1.5 0 0 0 8.137885 7.879623 l 3.159 4.175 a 1.5 1.5 0 0 0 -0.223093 1.09406 6 6 0 0 1 -0.07417 0.04733 A 6 6 0 0 1 2.803688 10.99991 z M 3.714181 4.869887 A 1.5 1.5 0 0 0 3.437792 4.113821 6 6 0 0 1 4.99985 2.803761 6 6 0 0 1 8.153897 2.00892 1.5 1.5 0 0 0 8.632451 2.954987 L 7.778 4.955 A 1.5 1.5 0 0 0 6.448902 5.602654 z M 8.934645 7.275276 A 1.5 1.5 0 0 0 9.131596 6.839062 1.5 1.5 0 0 0 8.699067 5.347711 l 0.855 -2 a 1.5 1.5 0 0 0 1.306173 -0.616547 6 6 0 0 1 2.336019 2.268759 6 6 0 0 1 -0.279294 6.426404 1.5 1.5 0 0 0 -0.820175 0.02473 z"/>
</svg>
