<svg viewBox="0 0 16 16" xmlns="http://www.w3.org/2000/svg">
 <path d="M 14.06203 11.500087 A 7 7 0 0 0 11.49985 1.937909 7 7 0 0 0 11.425164 1.899299 1.5 1.5 0 0 0 10.338821 0.171525 1.5 1.5 0 0 0 8.572079 1.032395 7 7 0 0 0 1.937672 4.500086 7 7 0 0 0 1.016425 8.404328 1.5 1.5 0 0 0 0.404 10.03539 a 1.5 1.5 0 0 0 1.344214 1.10535 7 7 0 0 0 2.751636 2.921527 7 7 0 0 0 2.330208 0.831145 1.5 1.5 0 0 0 1.06287 1.069212 1.5 1.5 0 0 0 1.731255 -0.779871 1.5 1.5 0 0 0 0.10615 -0.281516 1.5 1.5 0 0 0 0.026263 -0.13143 7 7 0 0 0 4.305429 -3.269719 z M 13.196002 11.00009 A 6 6 0 0 1 9.58852 13.779678 1.5 1.5 0 0 0 8.668948 13.06383 1.5 1.5 0 0 0 8.397825 13.0178 L 7.665 10.283 A 1.5 1.5 0 0 0 8.265571 8.660938 1.5 1.5 0 0 0 7.826657 7.94069 l 2.036 -4.823 a 1.5 1.5 0 0 0 1.059031 -0.353826 6 6 0 0 1 0.07807 0.040562 6 6 0 0 1 2.196153 8.196154 z m -5.764001 2.27651 A 1.5 1.5 0 0 0 6.915424 13.893991 6 6 0 0 1 4.99985 13.196239 6 6 0 0 1 2.734474 10.862174 1.5 1.5 0 0 0 3.314515 9.974701 L 5.474 9.715 A 1.5 1.5 0 0 0 6.699236 10.541877 z M 6.904898 7.552849 A 1.5 1.5 0 0 0 6.42865 7.600391 1.5 1.5 0 0 0 5.353367 8.720648 L 3.194 8.98 A 1.5 1.5 0 0 0 2.0069 8.157518 6 6 0 0 1 2.803697 5.00009 6 6 0 0 1 8.508773 2.028762 1.5 1.5 0 0 0 8.940276 2.72669 z" style="fill:#ececec;opacity:1;fill-opacity:1;stroke:none;fill-rule:nonzero"/>
</svg>
