<svg xmlns="http://www.w3.org/2000/svg" viewBox="0 0 16 16">
 <path style="fill:#ececec;opacity:1;fill-opacity:1;stroke:none;fill-rule:nonzero" d="m 14.06213 4.500087 a 7 7 0 0 0 -9.562178 -2.562178 7 7 0 0 0 -0.07078 0.045375 1.5 1.5 0 0 0 -2.039468 0.076913 1.5 1.5 0 0 0 -0.137836 1.960479 7 7 0 0 0 -0.314094 7.47941 7 7 0 0 0 2.920549 2.749945 1.5 1.5 0 0 0 1.106327 1.345905 1.5 1.5 0 0 0 1.629368 -0.611448 7 7 0 0 0 3.905934 -0.922224 7 7 0 0 0 1.884897 -1.602447 1.5 1.5 0 0 0 1.4574 -0.385866 1.5 1.5 0 0 0 0.190239 -1.889246 1.5 1.5 0 0 0 -0.190723 -0.232688 1.5 1.5 0 0 0 -0.100689 -0.08846 7 7 0 0 0 -0.678946 -5.36347 z m -0.866025 0.5 A 6 6 0 0 1 13.799558 9.514054 1.5 1.5 0 0 0 12.71983 9.952502 1.5 1.5 0 0 0 12.544405 10.164286 L 9.81 9.432 A 1.5 1.5 0 0 0 8.705124 8.100391 1.5 1.5 0 0 0 7.861914 8.120377 L 4.703 3.945 a 1.5 1.5 0 0 0 0.223093 -1.09406 6 6 0 0 1 0.074162 -0.047328 6 6 0 0 1 8.196154 2.196153 z m -0.910485 6.130026 a 1.5 1.5 0 0 0 0.27639 0.756066 6 6 0 0 1 -1.562058 1.31006 6 6 0 0 1 -3.154049 0.79484 1.5 1.5 0 0 0 -0.478553 -0.946066 L 8.222 11.05 A 1.5 1.5 0 0 0 9.550898 10.397346 z M 7.06515 8.724724 A 1.5 1.5 0 0 0 6.868203 9.160938 1.5 1.5 0 0 0 7.300733 10.652289 l -0.855 2 A 1.5 1.5 0 0 0 5.139816 13.268846 6 6 0 0 1 2.803797 11.00009 6 6 0 0 1 3.083092 4.573684 1.5 1.5 0 0 0 3.903267 4.548955 z"/>
</svg>
