<svg viewBox="0 0 16 16" xmlns="http://www.w3.org/2000/svg">
 <path style="fill:#ececec;opacity:1;fill-opacity:1;stroke:none;fill-rule:nonzero" d="M 8 1 A 7 7 0 0 0 1 8 7 7 0 0 0 1.00391 8.08398 1.5 1.5 0 0 0 0.050781 9.888672 1.5 1.5 0 0 0 1.679688 10.988281 7 7 0 0 0 8 15 7 7 0 0 0 11.841797 13.845703 1.5 1.5 0 0 0 13.560547 13.560547 1.5 1.5 0 0 0 13.845703 11.84375 7 7 0 0 0 15 8 7 7 0 0 0 14.554688 5.566406 1.5 1.5 0 0 0 14.949219 4.111328 1.5 1.5 0 0 0 13.408203 3.00195 1.5 1.5 0 0 0 13.11133 3.050781 1.5 1.5 0 0 0 12.984375 3.09375 7 7 0 0 0 8 1 z m 0 1 a 6 6 0 0 1 4.210938 1.734375 1.5 1.5 0 0 0 -0.160157 1.154297 1.5 1.5 0 0 0 0.0957 0.257813 L 10.145 7.148 A 1.5 1.5 0 0 0 8.439453 7.439453 1.5 1.5 0 0 0 8.03516 8.179688 L 2.84 8.828 A 1.5 1.5 0 0 0 2.00391 8.08789 6 6 0 0 1 2 8 6 6 0 0 1 8 2 z m 4.853516 3.853516 A 1.5 1.5 0 0 0 13.646484 5.992188 6 6 0 0 1 14 8 6 6 0 0 1 13.11133 11.128906 1.5 1.5 0 0 0 12.05273 11.07031 L 10.748 9.33 A 1.5 1.5 0 0 0 10.851562 7.855469 z M 8.160156 9.171875 A 1.5 1.5 0 0 0 8.439453 9.560547 1.5 1.5 0 0 0 9.947266 9.931641 L 11.252 11.672 A 1.5 1.5 0 0 0 11.132812 13.11133 6 6 0 0 1 8 14 6 6 0 0 1 2.574219 10.544922 1.5 1.5 0 0 0 2.962891 9.822266 z"/>
</svg>
