<svg xmlns="http://www.w3.org/2000/svg" viewBox="0 0 16 16">
 <path style="fill:#ececec;opacity:1;fill-opacity:1;stroke:none;fill-rule:nonzero" d="M 11.499987 1.937872 A 7 7 0 0 0 1.937809 4.50005 7 7 0 0 0 1.899199 4.574736 1.5 1.5 0 0 0 0.171425 5.661079 1.5 1.5 0 0 0 1.032295 7.427821 7 7 0 0 0 4.499987 14.06223 7 7 0 0 0 8.404229 14.983476 1.5 1.5 0 0 0 10.03529 15.595899 1.5 1.5 0 0 0 11.140639 14.251687 7 7 0 0 0 14.06216 11.50005 7 7 0 0 0 14.89331 9.16984 1.5 1.5 0 0 0 15.962523 8.106971 1.5 1.5 0 0 0 15.182651 6.375716 1.5 1.5 0 0 0 14.901136 6.269565 1.5 1.5 0 0 0 14.769707 6.243301 7 7 0 0 0 11.499987 1.937872 z m -0.5 0.866025 A 6 6 0 0 1 13.779578 6.41138 1.5 1.5 0 0 0 13.06373 7.330952 1.5 1.5 0 0 0 13.0177 7.602074 L 10.283 8.335 A 1.5 1.5 0 0 0 8.660838 7.734329 1.5 1.5 0 0 0 7.940589 8.173242 L 3.117 6.137 A 1.5 1.5 0 0 0 2.763272 5.078119 6 6 0 0 1 2.803834 5.00005 6 6 0 0 1 10.999987 2.803898 z m 2.27651 5.764 A 1.5 1.5 0 0 0 13.893891 9.08448 6 6 0 0 1 13.196139 11.00005 6 6 0 0 1 10.862073 13.265426 1.5 1.5 0 0 0 9.974601 12.685385 L 9.715 10.526 A 1.5 1.5 0 0 0 10.541777 9.300664 z M 7.552748 9.095 A 1.5 1.5 0 0 0 7.600291 9.57125 1.5 1.5 0 0 0 8.720548 10.646533 L 8.98 12.806 A 1.5 1.5 0 0 0 8.157417 13.992996 6 6 0 0 1 4.999987 13.196203 6 6 0 0 1 2.028661 7.491127 1.5 1.5 0 0 0 2.726589 7.05962 z"/>
</svg>
