<svg viewBox="0 0 16 16" xmlns="http://www.w3.org/2000/svg">
 <path d="m 8 0 c -0.777 0.001 -1.549 0.116 -2.293 0.34 c -1.878 -0.596 -3.626 -0.421 -4.707 0.66 c -1.081 1.081 -1.257 2.832 -0.66 4.711 c -0.224 0.743 -0.338 1.514 -0.34 2.289 c 0 4.418 3.582 8 8 8 c 0.777 -0.001 1.549 -0.116 2.293 -0.34 c 1.878 0.596 3.626 0.421 4.707 -0.66 c 1.081 -1.081 1.257 -2.832 0.66 -4.711 c 0.224 -0.743 0.338 -1.514 0.34 -2.289 c 0 -4.418 -3.582 -8 -8 -8 z m -4 7 l 8 0 l 0 2 l -8 0 l 0 -2 z" style="fill:#54cdee;opacity:1;fill-opacity:1;stroke:none;fill-rule:nonzero"/>
</svg>
