<svg viewBox="0 0 16 16" xmlns="http://www.w3.org/2000/svg">
 <path d="m 8 0 c -0.777 0.001 -1.549 0.116 -2.293 0.34 c -1.878 -0.596 -3.626 -0.421 -4.707 0.66 c -1.081 1.081 -1.257 2.832 -0.66 4.711 c -0.224 0.743 -0.338 1.514 -0.34 2.289 c 0 4.418 3.582 8 8 8 c 0.777 -0.001 1.549 -0.116 2.293 -0.34 c 1.878 0.596 3.626 0.421 4.707 -0.66 c 1.081 -1.081 1.257 -2.832 0.66 -4.711 c 0.224 -0.743 0.338 -1.514 0.34 -2.289 c 0 -4.418 -3.582 -8 -8 -8 z m 0.146 3.998 c 1.309 0.048 2.499 0.737 3.203 1.818 l 1.389 -0.463 l -1.572 3.146 l -3.145 -1.574 l 1.277 -0.426 c -0.338 -0.294 -0.761 -0.485 -1.227 -0.502 c -0.743 -0.027 -1.435 0.355 -1.807 0.998 l -1.732 -1 c 0.741 -1.282 2.133 -2.053 3.613 -1.998 z m -3.313 3.498 l 0.002 0 l 3.143 1.574 l -1.277 0.426 c 0.338 0.294 0.761 0.485 1.227 0.502 c 0.743 0.027 1.435 -0.355 1.807 -0.998 l 1.732 1 c -0.741 1.282 -2.133 2.053 -3.613 1.998 c -1.309 -0.048 -2.499 -0.737 -3.203 -1.818 l -1.389 0.463 l 1.572 -3.146 z" style="fill:#ececec;opacity:1;fill-opacity:1;stroke:none;fill-rule:nonzero"/>
</svg>
