<svg width="16" height="16" xmlns="http://www.w3.org/2000/svg" viewBox="0 0 4.5155556 4.5155556">
 <path d="m 2.258 0 c -1.251 0 -2.258 1.01 -2.258 2.258 0 1.251 1.01 2.258 2.258 2.258 c 1.251 0 2.258 -1.01 2.258 -2.258 c 0 -1.251 -1.01 -2.258 -2.258 -2.258 z m -0.6 1.389 c 0.67 -0.019 1.471 0.129 2.01 0.494 0.087 0.059 0.111 0.177 0.052 0.264 c -0.058 0.087 -0.169 0.111 -0.256 0.052 -0.626 -0.422 -1.7 -0.514 -2.328 -0.362 -0.102 0.025 -0.205 -0.04 -0.23 -0.142 -0.025 -0.1 0.04 -0.197 0.142 -0.22 0.18 -0.044 0.385 -0.081 0.609 -0.088 m 0.044 0.705 c 0.595 -0.011 1.218 0.154 1.667 0.468 0.072 0.05 0.084 0.14 0.036 0.212 c -0.05 0.072 -0.14 0.102 -0.212 0.052 -0.521 -0.364 -1.352 -0.518 -2 -0.362 -0.084 0.021 -0.165 -0.03 -0.186 -0.114 -0.021 -0.084 0.03 -0.165 0.114 -0.186 0.186 -0.045 0.384 -0.067 0.582 -0.07 m 0.018 0.653 c 0.535 -0.007 0.993 0.131 1.375 0.397 0.058 0.039 0.066 0.11 0.026 0.168 -0.04 0.056 -0.111 0.074 -0.168 0.036 c -0.455 -0.316 -1.055 -0.419 -1.764 -0.3 c -0.069 0.011 -0.129 -0.037 -0.142 -0.106 -0.011 -0.069 0.037 -0.129 0.106 -0.142 0.194 -0.033 0.386 -0.051 0.565 -0.052" style="fill:#ececec;fill-opacity:1;fill-rule:evenodd;stroke-width:1"/>
</svg>
