<svg xmlns="http://www.w3.org/2000/svg" viewBox="0 0 16 16">
 <path d="m 2 1 c -1.108 0 -2 0.892 -2 2 l 0 9.999 c 0 1.108 0.892 2 2 2 l 11.999 0 c 1.108 0 2 -0.892 2 -2 l 0 -9.999 c 0 -1.108 -0.892 -2 -2 -2 z m 9.03 2 c 0.055 0.006 0.136 0.036 0.187 0.062 l 1.562 0.781 c 0.208 0.106 0.269 0.367 0.157 0.562 l -4.874 8.374 c -0.087 0.148 -0.268 0.239 -0.437 0.219 -0.052 -0.005 -0.107 -0.007 -0.157 -0.032 c -0.005 -0.003 -4.25 -3.312 -4.25 -3.312 -0.208 -0.106 -0.269 -0.367 -0.157 -0.562 l 1.031 -1.25 c 0.113 -0.195 0.386 -0.263 0.594 -0.157 l 2.313 1.75 3.624 -6.218 c 0.085 -0.146 0.241 -0.235 0.406 -0.219" style="visibility:visible;fill:#ececec;opacity:1;fill-opacity:1;stroke:none;display:inline;fill-rule:nonzero"/>
</svg>
