<svg xmlns="http://www.w3.org/2000/svg" viewBox="0 0 16 16">
 <path d="m 8 3 c -2.759 0 -4.998 2.24 -4.998 5 l 0 0.063 c -0.163 -0.034 -0.328 -0.063 -0.5 -0.063 c -1.38 0 -2.502 1.117 -2.502 2.502 c 0 1.38 1.122 2.498 2.502 2.498 l 10 0 c 1.928 0 3.498 -1.566 3.498 -3.5 c 0 -1.91 -1.537 -3.467 -3.438 -3.5 c -0.777 -1.757 -2.519 -2.998 -4.563 -2.998 l 0 -0.002 z m -1.414 3.17 c 0.256 0 0.511 0.097 0.707 0.293 l 0.707 0.707 l 0.707 -0.707 c 0.196 -0.196 0.451 -0.293 0.707 -0.293 c 0.256 0 0.511 0.097 0.707 0.293 c 0.392 0.392 0.392 1.022 0 1.414 l -0.707 0.707 l 0.707 0.707 c 0.392 0.392 0.392 1.024 0 1.416 c -0.392 0.392 -1.022 0.392 -1.414 0 l -0.707 -0.707 l -0.707 0.707 c -0.392 0.392 -1.022 0.392 -1.414 0 c -0.392 -0.392 -0.392 -1.024 0 -1.416 l 0.707 -0.707 l -0.707 -0.707 c -0.392 -0.392 -0.392 -1.022 0 -1.414 c 0.196 -0.196 0.451 -0.293 0.707 -0.293 z" style="fill:#ef555c;opacity:1;fill-opacity:1;stroke-width:1"/>
</svg>
