<svg xmlns="http://www.w3.org/2000/svg" viewBox="0 0 16 16">
 <path d="m 8 3 c -2.759 0 -4.998 2.24 -4.998 5 l 0 0.063 c -0.163 -0.034 -0.328 -0.063 -0.5 -0.063 c -1.38 0 -2.502 1.117 -2.502 2.502 c 0 1.38 1.122 2.498 2.502 2.498 l 10 0 c 1.928 0 3.498 -1.566 3.498 -3.5 c 0 -1.91 -1.537 -3.467 -3.438 -3.5 c -0.777 -1.757 -2.519 -2.998 -4.563 -2.998 l 0 -0.002 z m -2 3 c 0.554 0 1 0.446 1 1 l 0 3 c 0 0.554 -0.446 1 -1 1 c -0.554 0 -1 -0.446 -1 -1 l 0 -3 c 0 -0.554 0.446 -1 1 -1 z m 4 0 c 0.554 0 1 0.446 1 1 l 0 3 c 0 0.554 -0.446 1 -1 1 c -0.554 0 -1 -0.446 -1 -1 l 0 -3 c 0 -0.554 0.446 -1 1 -1 z" style="fill:#ececec;opacity:1;fill-opacity:1;stroke-width:1"/>
</svg>
