<svg viewBox="0 0 16 16" xmlns="http://www.w3.org/2000/svg">
 <path style="fill:#ececec;opacity:1;fill-opacity:1;fill-rule:evenodd;stroke-width:1" d="m 7.5 2 c -3.59 0 -6.5 2.91 -6.5 6.5 c 0 3.59 2.91 6.5 6.5 6.5 c 1.767 -0.003 3.456 -0.725 4.68 -2 l 3.82 0 l -2.369 -2.369 c 0.241 -0.685 0.366 -1.405 0.369 -2.131 c 0 -3.59 -2.91 -6.5 -6.5 -6.5 z m 0 2 a 4.5 4.5 0 0 1 4.5 4.5 a 4.5 4.5 0 0 1 -4.5 4.5 a 4.5 4.5 0 0 1 -4.5 -4.5 a 4.5 4.5 0 0 1 4.5 -4.5 z"/>
 <path style="fill:#ececec;opacity:1;fill-opacity:1;stroke:none;fill-rule:nonzero" d="M 7.5 5 C 7.223 5 7 5.223 7 5.5 L 7 8.5 C 7 8.777 7.223 9 7.5 9 L 9.5 9 C 9.777 9 10 8.777 10 8.5 C 10 8.223 9.777 8 9.5 8 L 8 8 L 8 5.5 C 8 5.223 7.777 5 7.5 5 z "/>
</svg>
