<?xml version="1.0"?><svg fill="#cacbc7" xmlns="http://www.w3.org/2000/svg"  viewBox="0 0 24 24" width="100px" height="100px">    <path d="M 12.033203 2 A 1.0001 1.0001 0 0 0 11 3 L 11 9.4199219 L 7.6894531 6.2753906 A 1.0001 1.0001 0 0 0 6.9628906 5.9902344 A 1.0001 1.0001 0 0 0 6.3105469 7.7246094 L 10.810547 12 L 6.3105469 16.275391 A 1.0002019 1.0002019 0 1 0 7.6894531 17.724609 L 11 14.580078 L 11 21 A 1.0001 1.0001 0 0 0 12.669922 21.744141 L 17.669922 17.244141 A 1.0001 1.0001 0 0 0 17.689453 15.775391 L 13.714844 12 L 17.689453 8.2246094 A 1.0001 1.0001 0 0 0 17.669922 6.7558594 L 12.669922 2.2558594 A 1.0001 1.0001 0 0 0 12.033203 2 z M 13 5.2460938 L 15.525391 7.5214844 L 13 9.9199219 L 13 5.2460938 z M 6.6054688 10.792969 C 6.4774687 10.792969 6.3494531 10.841953 6.2519531 10.939453 L 5.5449219 11.646484 C 5.3499219 11.841484 5.3499219 12.158516 5.5449219 12.353516 L 6.2519531 13.060547 C 6.4469531 13.255547 6.7610312 13.255547 6.9570312 13.060547 L 7.6640625 12.353516 C 7.8590625 12.158516 7.8590625 11.841484 7.6640625 11.646484 L 6.9570312 10.939453 C 6.8595312 10.841953 6.7334688 10.792969 6.6054688 10.792969 z M 17.519531 10.792969 C 17.391531 10.792969 17.265469 10.841953 17.167969 10.939453 L 16.460938 11.646484 C 16.265937 11.841484 16.265937 12.158516 16.460938 12.353516 L 17.167969 13.060547 C 17.363969 13.255547 17.678047 13.255547 17.873047 13.060547 L 18.580078 12.353516 C 18.775078 12.158516 18.775078 11.841484 18.580078 11.646484 L 17.873047 10.939453 C 17.775547 10.841953 17.647531 10.792969 17.519531 10.792969 z M 13 14.080078 L 15.525391 16.478516 L 13 18.753906 L 13 14.080078 z"/></svg>