<?xml version="1.0" encoding="UTF-8"?>
<svg xmlns="http://www.w3.org/2000/svg" xmlns:xlink="http://www.w3.org/1999/xlink" viewBox="0 0 100 100" width="100px" height="100px">
<g id="surface313734">
<path style=" stroke:none;fill-rule:nonzero;fill:rgb(80.392158%,83.92157%,95.686275%);fill-opacity:1;" d="M 18.75 0 C 8.398438 0 0 8.398438 0 18.75 L 0 81.25 C 0 91.601562 8.398438 100 18.75 100 L 81.25 100 C 91.601562 100 100 91.601562 100 81.25 L 100 18.75 C 100 8.398438 91.601562 0 81.25 0 Z M 51.683594 10.578125 C 56.789062 10.578125 62.859375 15.535156 62.859375 39.183594 C 62.859375 47.640625 60.320312 60.320312 55.527344 70.433594 C 57.585938 73.273438 59.71875 74.519531 61.179688 74.519531 C 63.117188 74.082031 67.351562 66.359375 69.710938 58.894531 C 70.34375 56.867188 72.507812 55.738281 74.519531 56.371094 C 76.546875 57 77.675781 59.148438 77.042969 61.179688 C 75.046875 67.503906 69.546875 82.210938 61.179688 82.210938 C 58.519531 82.210938 54.957031 80.875 51.5625 77.402344 C 47.730469 82.828125 42.910156 86.539062 37.257812 86.539062 C 25.300781 86.539062 19.953125 77.042969 19.953125 67.667969 C 19.953125 57.722656 25.015625 46.996094 36.058594 46.996094 C 37.9375 46.996094 39.617188 47.3125 41.105469 47.835938 C 40.878906 45.011719 40.746094 41.976562 40.746094 38.703125 C 40.746094 38.417969 40.925781 10.578125 51.683594 10.578125 Z M 51.921875 18.871094 C 50.34375 21.695312 48.4375 29.914062 48.4375 38.703125 C 48.4375 48.242188 49.609375 55.515625 51.203125 60.9375 C 53.636719 53.964844 55.167969 46.035156 55.167969 39.183594 C 55.167969 26.277344 53.140625 20.671875 51.921875 18.871094 Z M 36.058594 54.6875 C 27.765625 54.6875 27.644531 67.140625 27.644531 67.667969 C 27.644531 71.019531 28.574219 78.847656 37.257812 78.847656 C 40.566406 78.847656 43.886719 75.554688 46.753906 70.671875 C 45.011719 67.277344 43.496094 63.039062 42.429688 57.691406 C 42.21875 57.542969 42.023438 57.40625 41.828125 57.210938 C 41.828125 57.210938 39.332031 54.6875 36.058594 54.6875 Z M 36.058594 54.6875 "/>
</g>
</svg>
