<?xml version="1.0" encoding="UTF-8"?>
<svg xmlns="http://www.w3.org/2000/svg" xmlns:xlink="http://www.w3.org/1999/xlink" viewBox="0 0 96 96" width="96px" height="96px">
<g id="surface322182">
<path style=" stroke:none;fill-rule:nonzero;fill:rgb(79.215688%,61.960787%,90.196079%);fill-opacity:1;" d="M 72 84 L 80 84 C 86.601562 84 92 78.601562 92 72 L 92 39.679688 L 68 58.398438 L 68 80 C 68 82.207031 69.792969 84 72 84 Z M 78 12 C 74.839844 12 71.839844 13.039062 69.359375 14.960938 L 68 16.039062 L 68 48.28125 L 92 29.519531 L 92 26 C 92 18.28125 85.71875 12 78 12 Z M 36 22.28125 L 36 54.519531 L 45.539062 61.960938 C 46.988281 63.089844 49.015625 63.089844 50.460938 61.960938 L 60 54.519531 L 60 22.28125 L 48 31.640625 Z M 4 72 C 4 78.601562 9.398438 84 16 84 L 24 84 C 26.207031 84 28 82.207031 28 80 L 28 58.398438 L 4 39.679688 Z M 18 12 C 10.28125 12 4 18.28125 4 26 L 4 29.519531 L 28 48.28125 L 28 16.039062 L 26.640625 14.960938 C 24.160156 13.039062 21.160156 12 18 12 Z M 18 12 "/>
</g>
</svg>
