<svg xmlns="http://www.w3.org/2000/svg" version="1.1" xmlns:xlink="http://www.w3.org/1999/xlink" xmlns:svgjs="http://svgjs.com/svgjs" width="512" height="512" x="0" y="0" viewBox="0 0 3873 3873" style="enable-background:new 0 0 512 512" xml:space="preserve" class=""><g><linearGradient xmlns="http://www.w3.org/2000/svg" id="SVGID_1_" gradientUnits="userSpaceOnUse" x1="4.095" x2="3873.331" y1="7.872" y2="3877.108"><stop stop-opacity="1" stop-color="#ca9ee6" offset="0"></stop><stop stop-opacity="1" stop-color="#e78284" offset="0.5"></stop><stop stop-opacity="1" stop-color="#ef9f76" offset="1"></stop></linearGradient><g xmlns="http://www.w3.org/2000/svg" id="Layer_1" clip-rule="evenodd" fill-rule="evenodd"><path d="m635.6 7.7h2605.9c347.4 0 631.7 284.3 631.7 631.7v2605.9c0 347.4-284.3 631.7-631.7 631.7h-2605.9c-347.4 0-631.7-284.3-631.7-631.7v-2605.9c0-347.4 284.3-631.7 631.7-631.7z" fill="url(#SVGID_1_)" data-original="url(#SVGID_1_)"></path><g fill="#fff"><path d="m1938.5 3199.6c-335.8 0-651.6-130.8-889.1-368.2-237.5-237.5-368.2-553.2-368.2-889.1 0-335.8 130.8-651.6 368.2-889 237.6-237.5 553.3-368.3 889.1-368.3s651.6 130.8 889.1 368.2c237.5 237.5 368.2 553.2 368.2 889s-130.8 651.6-368.2 889.1c-237.5 237.5-553.2 368.3-889.1 368.3zm0-2428.3c-645.7 0-1171 525.3-1171 1171s525.3 1171 1171 1171 1171-525.3 1171-1171-525.3-1171-1171-1171z" fill="#cdd6f4" data-original="#ffffff" class=""></path><path d="m1938.5 2260.1c-175.3 0-317.8-142.6-317.8-317.8 0-175.3 142.6-317.8 317.8-317.8s317.8 142.6 317.8 317.8c.1 175.3-142.5 317.8-317.8 317.8zm0-549.3c-127.7 0-231.5 103.9-231.5 231.5s103.9 231.5 231.5 231.5 231.5-103.9 231.5-231.5-103.8-231.5-231.5-231.5z" fill="#cdd6f4" data-original="#ffffff" class=""></path><path d="m3138 2175.9c-2.2 0-4.5-.2-6.7-.5l-928.5-144.9c-23.6-3.7-39.7-25.7-36-49.3s25.8-39.7 49.3-36l928.5 144.9c23.6 3.7 39.7 25.7 36 49.3-3.3 21.2-21.7 36.5-42.6 36.5z" fill="#cdd6f4" data-original="#ffffff" class=""></path><path d="m2709.2 2924.1c-12.5 0-24.9-5.4-33.4-15.8l-595.8-726.7c-15.1-18.4-12.4-45.6 6-60.8 18.4-15.1 45.6-12.4 60.8 6l595.8 726.7c15.1 18.4 12.4 45.6-6 60.8-8.1 6.6-17.8 9.8-27.4 9.8z" fill="#cdd6f4" data-original="#ffffff" class=""></path><path d="m1667.6 1940c-2.2 0-4.5-.2-6.7-.5l-928.5-144.9c-23.6-3.7-39.7-25.7-36-49.3s25.8-39.7 49.3-36l928.5 144.9c23.6 3.7 39.7 25.7 36 49.3-3.3 21.3-21.7 36.5-42.6 36.5z" fill="#cdd6f4" data-original="#ffffff" class=""></path><path d="m1763.7 1773.6c-12.5 0-24.9-5.4-33.4-15.8l-595.8-726.8c-15.1-18.4-12.4-45.6 6-60.8 18.4-15.1 45.6-12.4 60.8 6l595.8 726.7c15.1 18.4 12.4 45.6-6 60.8-8.1 6.6-17.8 9.9-27.4 9.9z" fill="#cdd6f4" data-original="#ffffff" class=""></path><path d="m2674.3 1560.7c-14.9 0-29.4-7.7-37.4-21.6-107.7-186.5-281.6-320-489.7-375.7-23-6.2-36.7-29.8-30.5-52.9 6.2-23 29.9-36.7 52.9-30.5 230.3 61.7 422.8 209.4 542.1 415.9 11.9 20.6 4.9 47-15.8 59-6.8 3.9-14.3 5.8-21.6 5.8z" fill="#cdd6f4" data-original="#ffffff" class=""></path><path d="m1718.7 2806.1c-3.7 0-7.5-.5-11.2-1.5-230.3-61.7-422.9-209.4-542.1-415.9-11.9-20.6-4.9-47 15.8-59 20.6-11.9 47-4.9 59 15.8 107.7 186.5 281.6 320 489.7 375.7 23 6.2 36.7 29.8 30.5 52.9-5.2 19.3-22.7 32-41.7 32z" fill="#cdd6f4" data-original="#ffffff" class=""></path></g></g></g></svg>