<?xml version="1.0" encoding="UTF-8"?>
<svg xmlns="http://www.w3.org/2000/svg" xmlns:xlink="http://www.w3.org/1999/xlink" viewBox="0 0 90 90" width="90px" height="90px">
<g id="surface330497">
<path style=" stroke:none;fill-rule:nonzero;fill:rgb(89.803922%,78.431374%,56.470591%);fill-opacity:1;" d="M 44.734375 15.9375 C 32.820312 15.9375 21.753906 16.785156 15.4375 18.105469 C 15.425781 18.109375 15.414062 18.113281 15.398438 18.117188 C 10.640625 19.183594 6.160156 22.589844 5.21875 27.925781 C 5.21875 27.933594 5.214844 27.941406 5.214844 27.949219 C 4.492188 32.25 3.75 37.859375 3.75 45.9375 C 3.75 54.003906 4.492188 59.460938 5.410156 63.988281 C 6.375 69.167969 10.75 72.679688 15.582031 73.757812 C 15.605469 73.765625 15.628906 73.769531 15.652344 73.777344 C 22.242188 75.074219 32.996094 75.9375 44.910156 75.9375 C 56.820312 75.9375 67.578125 75.074219 74.171875 73.777344 C 74.195312 73.769531 74.21875 73.765625 74.242188 73.757812 C 79 72.691406 83.480469 69.285156 84.421875 63.949219 C 84.425781 63.933594 84.425781 63.921875 84.429688 63.90625 C 85.144531 59.519531 86.066406 53.917969 86.25 45.824219 C 86.25 45.804688 86.25 45.78125 86.25 45.761719 C 86.25 37.664062 85.324219 32.023438 84.417969 27.554688 C 83.460938 22.363281 79.078125 18.84375 74.242188 17.761719 C 74.167969 17.746094 74.09375 17.730469 74.019531 17.722656 C 67.585938 16.816406 56.644531 15.9375 44.734375 15.9375 Z M 37.792969 31.878906 C 38.488281 31.863281 39.207031 32.027344 39.878906 32.410156 L 56.011719 41.523438 C 58.734375 43.0625 58.734375 46.941406 56.011719 48.480469 L 39.878906 57.59375 C 37.183594 59.117188 33.820312 57.1875 33.820312 54.113281 L 33.820312 35.886719 C 33.820312 33.582031 35.710938 31.921875 37.792969 31.878906 Z M 37.792969 31.878906 "/>
</g>
</svg>
