<svg version="1.1" viewBox="0 0 32 32" xmlns="http://www.w3.org/2000/svg">
 <path d="m5.34 0c-.687 0-1.34.676-1.34 1.39v29.2c0 .676.687 1.39 1.34 1.39h21.3c.648 0 1.34-.717 1.34-1.39l.001-21.6-9-9z" style="fill:#478cbf"/>
 <path d="m21 9 7 7v-7z" style="fill-opacity:.196"/>
 <path d="m19 0 8.99 9h-7.61c-.673 0-1.38-.713-1.38-1.39z" style="fill-opacity:.392;fill:#fff"/>
 <path d="m14.5 10-2.5 1v1.5l-1 1-1.5-.75-1.5 1.75 1 1.5v4h2.5c.277 0 .5.223.5.5v1.5h2v-1.5c0-.277.223-.5.5-.5h3c.277 0 .5.223.5.5v1.5h2v-1.5c0-.277.223-.5.5-.5h2.5v-4l1-1.5-1.5-1.75-1.5.75-1-1v-1.5l-2.5-1-.5 1.5h-2zm-2 6c.828 0 1.5.672 1.5 1.5s-.672 1.5-1.5 1.5-1.5-.672-1.5-1.5.672-1.5 1.5-1.5zm7 0c.828 0 1.5.672 1.5 1.5s-.672 1.5-1.5 1.5-1.5-.672-1.5-1.5.672-1.5 1.5-1.5zm-4 1h1c.277 0 .5.223.5.5v1c0 .277-.223.5-.5.5h-1c-.277 0-.5-.223-.5-.5v-1c0-.277.223-.5.5-.5zm-6.5 4v.5c0 1.94 3.12 3.5 7 3.5s7-1.56 7-3.5v-.5h-2v1.5c0 .277-.223.5-.5.5h-3c-.0173 0-.0339 5e-5-.0508-.002-.253-.0254-.449-.238-.449-.498v-1.5h-2v1.5c0 .26-.196.473-.449.498-.0168.0017-.0335.0019-.0508.0019h-3c-.277 0-.5-.223-.5-.5v-1.5z" style="fill:#ffffff;stroke-dashoffset:6.6;stroke-linecap:round;stroke-linejoin:round;stroke-opacity:.441"/>
</svg>
