<svg version="1.1" viewBox="0 0 32 32" xmlns="http://www.w3.org/2000/svg">
 <path d="m5.371 4c-0.684 0-1.371 0.687-1.371 1.371v21.297c0 0.645 0.688 1.332 1.332 1.332h21.336c0.645 0 1.332-0.688 1.332-1.332v-21.336c0-0.645-0.688-1.332-1.332-1.332z" style="fill:#c19553"/>
 <path d="m5.371 4c-0.684 0-1.371 0.687-1.371 1.371v6.629h24v-6.668c0-0.645-0.688-1.332-1.332-1.332z" style="fill-opacity:.196;fill:#fff"/>
 <path d="m14 7v10h4v-10z" style="fill-opacity:.392;fill:#fff"/>
 <path d="m11.406 20-1.9062 5h1.1191l0.35156-0.99805h1.8633l0.35352 0.99805h1.1523l-1.9062-5zm3.5938 0v5h3v-1h-2v-4zm4 0v5h1v-1.7051h0.41602c1.4598 0.0095 2.2409-0.52456 2.2363-1.6914-0.005206-1.3422-1.1721-1.6035-2.2168-1.6035h-1.4355zm1 1h0.50586c0.73496 0 1.0299 0.2015 1.0352 0.59961 0.0078 0.59337-0.54101 0.70346-1.125 0.71875h-0.41602v-1.3184zm-8.1035 0.13281 0.68359 1.8906h-1.3613z" style="fill:#fff"/>
</svg>
