<svg version="1.1" viewBox="0 0 32 32" xmlns="http://www.w3.org/2000/svg">
 <path d="m5.34 0c-.687 0-1.34.676-1.34 1.39v29.2c0 .676.687 1.39 1.34 1.39h21.3c.648 0 1.34-.717 1.34-1.39l.001-21.6-9-9z" style="fill:#38a34e"/>
 <path d="m21 9 7 7v-7z" style="fill-opacity:.196"/>
 <path d="m19 0 8.99 9h-7.61c-.673 0-1.38-.713-1.38-1.39z" style="fill-opacity:.392;fill:#fff"/>
 <path d="m11.6 11c-.352.033-.652.406-.645.802v8.42c.004.414.333.787.703.784h8.61c.363-.007.681-.373.685-.784v-8.42c.007-.417-.315-.798-.685-.802zm.355 1h8v5.7l-2.35-2.66-1.49 1.39-1.96-2.46-2.19 2.83" style="fill:#fff"/>
 <path d="m4 24v6.67c0 .648.688 1.33 1.33 1.33h21.3c.645 0 1.33-.684 1.33-1.33v-6.67z" style="fill-opacity:.196"/>
 <path d="m12.9 28.9c0 .283-.041.552-.119.808-.074.251-.196.472-.372.665-.172.189-.392.341-.666.454-.278.108-.609.162-1 .162-.413 0-.756-.049-1.03-.153-.274-.099-.507-.225-.699-.368l.462-.93c.164.099.343.198.54.292.204.094.409.144.617.144.315 0 .568-.081.756-.238.196-.166.294-.467.294-.903v-2.87h-2.03v-.97h3.25v3.91" style="fill:#fff"/>
 <path d="m17 31q-.184-.494-.456-1.1-.262-.601-.553-1.2-.281.572-.562 1.19-.281.611-.485 1.11h-1.29q.0969-.262.281-.63.194-.368.417-.795.233-.426.485-.872.252-.456.485-.872l-1.57-2.83h1.29l.95 1.92.998-1.92h1.2l-1.53 2.8q.262.417.514.872t.465.892q.223.426.388.805.165.368.262.63z" style="fill:#ffffff"/>
 <path d="m22.8 31h-3.77v-6h1.2v5.01h2.57z" style="fill:#ffffff"/>
</svg>
