<svg version="1.1" viewBox="0 0 32 32" xmlns="http://www.w3.org/2000/svg">
 <path d="m5.34 0c-.687 0-1.34.676-1.34 1.39v29.2c0 .676.687 1.39 1.34 1.39h21.3c.648 0 1.34-.717 1.34-1.39l.001-21.6-9-9z" style="fill:#38a34e"/>
 <path d="m21 9 7 7v-7z" style="fill-opacity:.196"/>
 <path d="m19 0 8.99 9h-7.61c-.673 0-1.38-.713-1.38-1.39z" style="fill-opacity:.392;fill:#fff"/>
 <path d="m4 24v6.67c0 .648.688 1.33 1.33 1.33h21.3c.645 0 1.33-.684 1.33-1.33v-6.67" style="fill-opacity:.196"/>
 <g transform="matrix(.401 0 0 .401 6.38 6.37)" style="fill:#fff">
  <g style="fill:#fff">
   <path transform="matrix(2.5 0 0 2.5 -15.9 -15.9)" d="m16.1 10c-1.65.023-3.25.7-4.39 1.94l2.87 2.89 1.52-4.82zm1.47.318-1.18 3.76 3.2-.537 1.81-.352c-.806-1.42-2.18-2.47-3.83-2.87zm-6.86 2.74c-.732 1.38-.908 3.01-.428 4.54l4.14-.676-.652-.793-3.06-3.07zm11.1 1.63-3.81.639 3.18 3.78c.768-1.32 1.01-2.91.625-4.42zm-4.24 2.46-1.82 4.33-.205.508c1.7.073 3.37-.574 4.59-1.8l-2.57-3.05zm-2.1 1.12-4.72.77c.763 1.19 1.94 2.1 3.33 2.52l1.38-3.29z" style="fill:#fff"/>
  </g>
 </g>
 <path d="m15.5 25.2q.492 0 .892.111t.687.344.437.594q.158.353.158.836 0 .502-.204.91-.204.409-.678.622.158.241.334.539.176.288.344.613.167.316.316.641.158.316.269.604h-1.2q-.214-.557-.502-1.07-.279-.52-.604-1.05h-.594v2.12h-1.14v-5.67q.167-.0372.362-.065.204-.0372.409-.0464.204-.0186.39-.0279.186-.0093.325-.0093zm1.01 1.88q0-.455-.279-.669-.279-.214-.734-.214-.065 0-.158.0093-.0929 0-.186.0186v1.73h.251q.585 0 .845-.223.26-.232.26-.65z" style="fill:#ffffff"/>
 <path d="m21.5 27.3q.044.176.132.437.0881.26.187.576.11.316.231.678.132.362.253.743 0-.483-.011-1.03-.011-.557-.022-1.13-.011-.576-.022-1.16-.011-.594-.011-1.14h1.26q-.033.706-.0661 1.46-.033.743-.0771 1.49-.044.734-.11 1.45-.0551.715-.132 1.36h-1.12q-.242-.585-.485-1.25-.242-.678-.485-1.29-.242.585-.507 1.27-.264.687-.485 1.27h-1.12q-.0881-.641-.154-1.36-.0661-.724-.121-1.46-.044-.743-.0771-1.49-.033-.752-.0551-1.45h1.26q-.011.548-.022 1.13-.011.585-.022 1.17-.011.576-.022 1.13-.011.548-.011 1.03.0991-.297.22-.65.132-.353.242-.697.121-.344.22-.632.0991-.288.154-.455z" style="fill:#ffffff"/>
 <g style="fill:#ffffff" aria-label="N">
  <path d="m11.9 31q-.4-.982-.877-1.95-.467-.982-1.01-1.96v3.92h-1.06v-5.9h.944q.267.419.534.915.267.486.515.972.257.486.467.944.219.458.372.801v-3.63h1.06v5.9z" style="fill:#ffffff"/>
 </g>
</svg>
