<svg version="1.1" viewBox="0 0 32 32" xmlns="http://www.w3.org/2000/svg">
 <path d="m5.336 0c-0.687 0-1.336 0.676-1.336 1.394v29.21c0 0.676 0.687 1.394 1.336 1.394h21.327c0.648 0 1.336-0.717 1.336-1.394l1e-3 -21.606-9-9z" style="fill:#dda06a"/>
 <path d="m21 9 7 7v-7z" style="fill-opacity:.196"/>
 <path d="m19 0 8.992 9h-7.613c-0.673 0-1.378-0.713-1.378-1.386z" style="fill-opacity:.392;fill:#fff"/>
 <path d="m15.551 9.406c-1.336 0.426-0.164 2.414-2.078 3.387-2.184 1.113-3.27-1.695-4.582 0.313-1.313 2 1.809 1.695 1.723 4.055-0.09 2.359-3.18 1.859-2.02 3.941s2.449-0.648 4.547 0.598 0.09 3.555 2.563 3.633 0.637-2.348 2.824-3.461c2.184-1.113 3.27 1.699 4.582-0.309 1.313-2-1.809-1.695-1.723-4.055 0.09-2.359 3.18-1.859 2.02-3.941-1.16-2.086-2.449 0.648-4.547-0.598s-0.09-3.555-2.563-3.633c-0.309-8e-3 -0.555 8e-3 -0.746 0.07m0.023 6.01c1.105-0.223 2.188 0.453 2.422 1.512s-0.469 2.102-1.57 2.328c-1.105 0.223-2.188-0.453-2.422-1.512s0.469-2.102 1.57-2.328z" style="fill:#fff"/>
</svg>
