<svg version="1.1" viewBox="0 0 32 32" xmlns="http://www.w3.org/2000/svg">
 <path d="m5.333 0c-0.686 0-1.333 0.676-1.333 1.391v29.22c0 0.676 0.686 1.391 1.333 1.391h21.333c0.648 0 1.333-0.716 1.333-1.391v-21.565l-9-9.04" style="fill:#bd75a9"/>
 <path d="m19 0 8.992 9h-7.609c-0.672 0-1.383-0.712-1.383-1.385v-7.615" style="fill-opacity:.392;fill:#fff"/>
 <path d="m21 9 7 7v-7z" style="fill-opacity:.196"/>
 <path d="m14 11c-2.216 0-4 1.784-4 4v5c0 2.216 1.784 4 4 4v5l4-5c2.216 0 4-1.784 4-4v-5c0-2.216-1.784-4-4-4zm2 2h2l2 2h-2v5c0 1.1046-1.1193 2-2.5 2s-2.5-0.89543-2.5-2 1.1193-2 2.5-2h0.5z" style="fill:#fff"/>
</svg>
