<svg version="1.1" viewBox="0 0 32 32" xmlns="http://www.w3.org/2000/svg">
 <path d="m5.336 0c-0.687 0-1.336 0.676-1.336 1.394v29.21c0 0.676 0.687 1.394 1.336 1.394h21.327c0.648 0 1.336-0.717 1.336-1.394l1e-3 -21.606-9-9z" style="fill:#a60a3f"/>
 <path d="m21 9 7 7v-7z" style="fill-opacity:.196"/>
 <path d="m19 0 8.992 9h-7.613c-0.673 0-1.378-0.713-1.378-1.386z" style="fill-opacity:.392;fill:#fff"/>
 <path d="m10 13c-1 1.248-2 3.0138-2 5 0 2.2672 0.79922 4.3848 2.0977 6h12.381c0.5444-0.58928 1.0547-1.2527 1.5215-2l-2.4629-1.3789c-1.0061 1.5529-2.628 2.8857-4.0371 2.8789-2.5-0.0121-3.5-1.9786-3.5-5.5h10c-3e-6 -1.9862-0.64632-3.6352-1.7207-5zm6.5 0.5c1.3807 0 2.5 1.1193 2.5 2.5h-5c0-1.3807 1.1193-2.5 2.5-2.5z" style="fill:#fff"/>
</svg>
