<?xml version="1.0" encoding="UTF-8"?>
<svg xmlns="http://www.w3.org/2000/svg" xmlns:xlink="http://www.w3.org/1999/xlink" viewBox="0 0 100 100" width="100px"
        height="100px">
        <g id="surface2140799">
                <path style=" stroke:none;fill-rule:nonzero;fill:rgb(49.019608%,50.980395%,49.411765%);fill-opacity:1;"
                        d="M 12.5 100 C 5.597656 100 0 94.402344 0 87.5 L 0 12.5 C 0 5.597656 5.597656 0 12.5 0 L 87.5 0 C 94.402344 0 100 5.597656 100 12.5 L 100 87.5 C 100 94.402344 94.402344 100 87.5 100 Z M 12.5 100 " />
                <path style=" stroke:none;fill-rule:nonzero;fill:rgb(76.862746%,65.098041%,43.137255%);fill-opacity:1;"
                        d="M 65.832031 58.332031 C 60.308594 58.332031 55.832031 62.808594 55.832031 68.332031 C 55.832031 73.855469 60.308594 78.332031 65.832031 78.332031 C 71.355469 78.332031 75.832031 73.855469 75.832031 68.332031 C 75.832031 62.808594 71.355469 58.332031 65.832031 58.332031 Z M 65.832031 58.332031 " />
                <path style=" stroke:none;fill-rule:nonzero;fill:rgb(76.862746%,65.098041%,43.137255%);fill-opacity:1;"
                        d="M 25.832031 61.667969 C 20.308594 61.667969 15.832031 66.144531 15.832031 71.667969 C 15.832031 77.191406 20.308594 81.667969 25.832031 81.667969 C 31.355469 81.667969 35.832031 77.191406 35.832031 71.667969 C 35.832031 66.144531 31.355469 61.667969 25.832031 61.667969 Z M 25.832031 61.667969 " />
                <path style=" stroke:none;fill-rule:nonzero;fill:rgb(63.529414%,56.078434%,41.960785%);fill-opacity:1;"
                        d="M 69.167969 20.648438 L 35.832031 27.894531 L 35.832031 42.894531 L 69.167969 35.648438 Z M 69.167969 20.648438 " />
                <path style=" stroke:none;fill-rule:nonzero;fill:rgb(76.862746%,65.098041%,43.137255%);fill-opacity:1;"
                        d="M 71.792969 18.410156 L 31.792969 27.101562 C 30.261719 27.4375 29.167969 28.792969 29.167969 30.363281 L 29.167969 71.667969 L 35.832031 71.667969 L 35.832031 35 L 69.167969 27.753906 L 69.167969 68.332031 L 75.832031 68.332031 L 75.832031 21.667969 C 75.832031 19.542969 73.871094 17.957031 71.792969 18.410156 Z M 71.792969 18.410156 " />
        </g>
</svg>