<svg version="1.1" viewBox="0 0 16 16" xmlns="http://www.w3.org/2000/svg">
 <g transform="translate(0,-1036.4)" style="fill:#ffca28">
  <path d="m10.545 1052.1788h-0.07273l-0.07273-0.074v-2.2857c0-0.5162-0.07273-0.9586-0.29091-1.3272 1.6727-0.295 3.4909-1.1798 3.4909-4.4977 0-0.8848-0.29091-1.6959-0.8-2.3595 0.14546-0.4424 0.21818-1.2534-0.14546-2.2857l-0.21818-0.2212s-0.14546-0.074-0.29091-0.074c-0.43636 0-1.0909 0.1474-2.1818 0.8848-0.58182-0.074-1.2364-0.2212-1.9636-0.2212s-1.3818 0.074-2.0364 0.2212c-1.0182-0.6636-1.7455-0.8111-2.1818-0.8111-0.14545 0-0.21818 0.074-0.29091 0.074-0.072727 0-0.21818 0.1475-0.21818 0.2212-0.36364 1.0323-0.29091 1.8434-0.14545 2.2858-0.50909 0.6636-0.8 1.4746-0.8 2.3594 0 3.2442 1.8909 4.129 3.4909 4.4977-0.072727 0.1475-0.14545 0.3687-0.21818 0.5899-0.14545 0.074-0.36364 0.1474-0.65455 0.1474s-0.58182-0.074-0.8-0.2949l-0.072727-0.074c-0.072722-0.073-0.072722-0.1469-0.14545-0.1469l-0.14545-0.148c0-0.074-0.58182-0.9585-1.6-1.0322-0.36364 0-0.65455 0.1474-0.72727 0.3686-0.14545 0.3687 0.29091 0.6636 0.50909 0.8111 0 0 0.43636 0.2212 0.72727 1.0323 0.14545 0.5161 0.8 1.4746 2.3273 1.4746h0.50909v1.0323l-0.072727 0.074s-0.072727 0 0 0c-3.2727-1.327-5.4545-4.4238-5.4545-7.8892 0-4.4977 3.5636-8.1106 8-8.1106s8 3.6129 8 8.1106c0 3.4654-2.1818 6.5622-5.4545 7.6682z" style="fill:#ffca28;stroke-width:.73228"/>
 </g>
</svg>
