<svg version="1.1" viewBox="0 0 16 16" xmlns="http://www.w3.org/2000/svg">
 <g transform="translate(0,-1036.3622)">
  <path d="m7.9997654 1036.3622a8.0002339 7.9999994 0 0 0-6.9279371 4 8.0002339 7.9999994 0 0 0 0 8 8.0002339 7.9999994 0 0 0 6.9279371 4h8.0002346v-1h-8.0002346a7.0002054 7.0000002 0 0 1-6.0626777-3.5 7.0002054 7.0000002 0 0 1 0-7 7.0002054 7.0000002 0 0 1 6.0626777-3.5zm0.1464883 2.002a6.0001756 5.9999997 0 0 0-4.3888007 1.7558 6.0001756 5.9999997 0 0 0-1.3008191 6.5391 6.0001756 5.9999997 0 0 0 5.5431315 3.7031h8.0002346v-1h-8.0002346a5.0001467 5.0000001 0 0 1-4.6192764-3.0859 5.0001467 5.0000001 0 0 1 1.0840168-5.4493 5.0001467 5.0000001 0 0 1 5.4493777-1.0839 5.0001467 5.0000001 0 0 1 0.085942 0.043v-1.0683a6.0001756 5.9999997 0 0 0-1.8535703-0.3535zm-0.1464883 1.998a4.0001169 3.9999996 0 0 0-4.0001173 4 4.0001169 3.9999996 0 0 0 4.0001173 4h8.0002346v-1h-8.0002346a3.0000883 3.0000004 0 0 1-2.7715652-1.8516 3.0000883 3.0000004 0 0 1 0.650409-3.2695 3.0000883 3.0000004 0 0 1 3.2696279-0.6504 3.0000883 3.0000004 0 0 1 1.6797359 1.7715h1.043a4.0001169 3.9999996 0 0 0-3.8712076-3z" style="-inkscape-stroke:none;fill:#ffca28;font-variation-settings:normal;stop-color:#000000;stroke-width:3.77953"/>
 </g>
</svg>
