<svg version="1.1" viewBox="0 0 22 22" xmlns="http://www.w3.org/2000/svg">
 <path d="m4 0c-0.473 0-1 0.527-1 1v20c0 0.445 0.555 1 1 1h14c0.445 0 0.992-0.555 1-1v-15l-6-6z" style="fill:#dcdcdc"/>
 <path d="m14 6 5 5v-5z" style="fill-opacity:.196"/>
 <path d="m13 0 6 6h-5c-0.445 0-1-0.555-1-1z" style="fill-opacity:.392;fill:#fff"/>
 <path d="m12.5 7-2.5 2.5v-1.5h-2v4h-2v2h2v4h2v-1.5l2 1.85-0.66602 0.65h2.666v-2.666l-1 1-3-2.834v-3l4-4v-0.5z" style="fill:#888;stroke-linejoin:round;stroke-opacity:.54328;stroke-width:2.8803"/>
</svg>
