<svg version="1.1" viewBox="0 0 22 22" xmlns="http://www.w3.org/2000/svg">
 <path d="m4 0c-0.473 0-1 0.527-1 1v20c0 0.445 0.555 1 1 1h14c0.445 0 0.992-0.555 1-1v-15l-6-6z" style="fill:#3161b3"/>
 <path d="m14 6 5 5v-5z" style="fill-opacity:.196"/>
 <path d="m13 0 6 6h-5c-0.445 0-1-0.555-1-1z" style="fill-opacity:.392;fill:#fff"/>
 <path d="m10.5 6.9999c-0.82843 0-1.5 0.67157-1.5 1.5 0 0.27614 0.22386 0.5 0.5 0.5 0.27614 0 0.5-0.22386 0.5-0.5s0.22386-0.5 0.5-0.5 0.5 0.22386 0.5 0.5v0.5l-3.4023 5.8809c-0.064806 0.11202-0.097618 0.23973-0.097656 0.36914-1.215e-4 0.41421 0.33579 0.75011 0.75 0.75 0.27017-7.4e-5 0.52487-0.14265 0.65234-0.38086l2.0977-3.9199v2.8008c0 0.82843 0.67157 1.5 1.5 1.5s1.5-0.67157 1.5-1.5c0-0.27614-0.22386-0.5-0.5-0.5s-0.5 0.22386-0.5 0.5-0.22386 0.5-0.5 0.5-0.5-0.22386-0.5-0.5v-6c0-0.82843-0.67157-1.5-1.5-1.5z" style="fill:#fff"/>
</svg>
