<svg version="1.1" viewBox="0 0 22 22" xmlns="http://www.w3.org/2000/svg">
 <path d="m3.889 0c-0.457 0-0.889 0.465-0.889 0.957v20.09c0 0.465 0.457 0.957 0.889 0.957h14.222c0.432 0 0.889-0.492 0.889-0.957v-15.04l-6-6" style="fill:#bd75a9"/>
 <path d="m13 0 6 6h-5.077c-0.448 0-0.923-0.475-0.923-0.923v-5.077" style="fill-opacity:.392;fill:#fff"/>
 <path d="m14 6 5 5v-5" style="fill-opacity:.196"/>
 <path d="m10 7c-1.662 0-3 1.338-3 3v3c0 1.662 1.338 3 3 3v3l2-3c1.662 0 3-1.338 3-3v-3c0-1.662-1.338-3-3-3zm1 2h1.5l1 1h-1.5v3c0 0.55228-0.67157 1-1.5 1s-1.5-0.44772-1.5-1 0.67157-1 1.5-1h0.5z" style="fill:#fff"/>
</svg>
