<svg version="1.1" viewBox="0 0 16 16" xmlns="http://www.w3.org/2000/svg">
 <path d="m2.668 0c-0.344 0-0.668 0.338-0.668 0.697v14.607c0 0.338 0.344 0.697 0.668 0.697h10.664c0.324 0 0.668-0.359 0.668-0.697v-11.304l-4-4z" style="fill:#0a5c0a"/>
 <path d="M 10.613,4 14,7.664 V 4 Z" style="fill-opacity:.196"/>
 <path d="m10 0 3.996 4h-3.384c-0.299 0-0.613-0.317-0.613-0.616z" style="fill-opacity:.392;fill:#fff"/>
 <path d="m6.5 6c-0.82843 0-1.5 0.67157-1.5 1.5 0 0.65221 0.41865 1.2016 1 1.4082v4.0918h1v-4.0918c0.58135-0.20659 1-0.75599 1-1.4082 0-0.82843-0.67157-1.5-1.5-1.5zm2.5 0v4.0918c-0.58135 0.20659-1 0.75599-1 1.4082 0 0.82843 0.67157 1.5 1.5 1.5 0.82843 0 1.5-0.67157 1.5-1.5 0-0.65222-0.41866-1.2016-1-1.4082v-4.0918zm-2.5 1c0.27614 0 0.5 0.22386 0.5 0.5s-0.22388 0.5032-0.5 0.5c-0.27161-0.003157-0.50004-0.22837-0.5-0.5 3.8e-5 -0.27614 0.22386-0.5 0.5-0.5zm3 4c0.27612-0.0032 0.5 0.22386 0.5 0.5s-0.22386 0.5-0.5 0.5-0.49996-0.22386-0.5-0.5c-3.7e-5 -0.27163 0.22839-0.49684 0.5-0.5z" style="fill:#dfbd8a;stroke-linejoin:round;stroke-opacity:.54328;stroke-width:1.8257"/>
</svg>
