<svg version="1.1" viewBox="0 0 16 16" xmlns="http://www.w3.org/2000/svg">
 <path d="m2.67 0c-.344 0-.668.338-.668.697v14.6c0 .338.344.697.668.697h10.7c.324 0 .668-.359.668-.697v-11.3l-4-4z" style="fill:#478cbf"/>
 <path d="m10.6 3.33.015.02.04-.02zm.03.668 3.39 3.66v-3.66z" style="fill-opacity:.196"/>
 <path d="m10 0 4 4h-3.38c-.299 0-.613-.317-.613-.616z" style="fill-opacity:.392;fill:#fff"/>
 <path d="m7 4.5-1 .4v1.1l-.9.5-.7-.5-.9 1 .5 1v3c0 1.11 1.78 2 4 2s4-.892 4-2v-3l.5-1-.9-1-.7.5-.9-.5v-1.1l-1-.4-.5 1h-1zm-1 3.5c.552 0 1 .448 1 1s-.448 1-1 1-1-.448-1-1 .448-1 1-1zm4 0c.552 0 1 .448 1 1s-.448 1-1 1c-.552 0-1-.448-1-1s.448-1 1-1z" style="fill:#ffffff;stroke-dashoffset:6.6;stroke-linecap:round;stroke-linejoin:round;stroke-opacity:.441"/>
</svg>
