<svg version="1.1" viewBox="0 0 16 16" xmlns="http://www.w3.org/2000/svg">
 <path d="m2.668 0c-0.344 0-0.668 0.338-0.668 0.697v14.607c0 0.338 0.344 0.697 0.668 0.697h10.664c0.324 0 0.668-0.359 0.668-0.697v-11.304l-4-4z" style="fill:#a31d23"/>
 <path d="m10.583 3.332 0.015 0.02 0.04-0.02zm0.03 0.668 3.387 3.664v-3.664z" style="fill-opacity:.196"/>
 <path d="m10 0 3.996 4h-3.384c-0.299 0-0.613-0.317-0.613-0.616z" style="fill-opacity:.392;fill:#fff"/>
 <path d="m11 8.0417c0 2.3334-2.1818 4.9583-3 4.9583s-3-2.7287-3-4.9583c0-1.3446 1.0182-2.0417 3-2.0417 1.9818 0 3 0.70448 3 2.0417z" style="fill:#fff;paint-order:normal;stroke-width:.28203"/>
</svg>
