<svg version="1.1" viewBox="0 0 16 16" xmlns="http://www.w3.org/2000/svg">
 <path d="m2.668 0c-0.344 0-0.668 0.338-0.668 0.697v14.607c0 0.338 0.344 0.697 0.668 0.697h10.664c0.324 0 0.668-0.359 0.668-0.697v-11.304l-4-4z" style="fill:#3161b3"/>
 <path d="M 10.613,4 14,7.664 V 4 Z" style="fill-opacity:.196"/>
 <path d="m10 0 3.996 4h-3.384c-0.299 0-0.613-0.317-0.613-0.616z" style="fill-opacity:.392;fill:#fff"/>
 <path d="m7.5 4c-0.82843 0-1.5 0.67157-1.5 1.5 0 0.27614 0.22386 0.5 0.5 0.5s0.5-0.22386 0.5-0.5 0.22386-0.5 0.5-0.5 0.5 0.22386 0.5 0.5v0.5l-3.4023 5.8809c-0.064806 0.11202-0.097618 0.23973-0.097656 0.36914-1.215e-4 0.41421 0.33579 0.75011 0.75 0.75 0.27017-7.4e-5 0.52487-0.14265 0.65234-0.38086l2.0977-3.9199v2.8008c0 0.82843 0.67157 1.5 1.5 1.5s1.5-0.67157 1.5-1.5c0-0.27614-0.22386-0.5-0.5-0.5s-0.5 0.22386-0.5 0.5-0.22386 0.5-0.5 0.5-0.5-0.22386-0.5-0.5v-6c0-0.82843-0.67157-1.5-1.5-1.5z" style="fill:#fff"/>
</svg>
