<svg xmlns="http://www.w3.org/2000/svg" viewBox="0 0 16 16">
 <g transform="translate(0,-1036.3622)">
  <rect width="8" height="1" x="4" y="1041.36" style="fill:#7a7a68;fill-opacity:1;stroke:none"/>
  <rect width="14" height="10" x="1" y="1040.36" rx="1.522" ry="1.562" style="fill:#f57c00;fill-opacity:1;stroke:none"/>
  <rect width="12" height="9" x="2" y="1038.36" style="fill:#eae7d1;fill-opacity:1;stroke:none"/>
  <path d="m 2.522 1040.36 c -0.843 0 -1.522 0.69 -1.522 1.546 l 0 0.619 c 0 -0.857 0.679 -1.165 1.522 -1.165 l 10.957 0 c 0.843 0 1.522 0.308 1.522 1.165 l 0 -0.619 c 0 -0.857 -0.679 -1.546 -1.522 -1.546 z" style="fill:#fff;opacity:0.2;fill-opacity:1;stroke:none"/>
  <rect width="8" height="1" x="4" y="1039.36" style="fill:#7a7a68;fill-opacity:1;stroke:none"/>
  <rect y="1041.36" x="4" height="1" width="8" style="fill:#7a7a68;fill-opacity:1;stroke:none"/>
  <rect y="1043.36" x="4" height="1" width="8" style="fill:#7a7a68;fill-opacity:1;stroke:none"/>
  <path d="m 2.522 1045.36 2.435 0 c 3.348 -0.333 2.739 -4 4.87 -4 l 3.652 0 c 0.843 0 1.522 0.743 1.522 1.667 l 0 5.667 c 0 0.923 -0.679 1.667 -1.522 1.667 l -10.957 0 c -0.843 0 -1.522 -0.743 -1.522 -1.667 l 0 -1.667 c 0 -1 0.609 -1.667 1.522 -1.667 z" style="fill:#ffb300;fill-opacity:1;stroke:none"/>
  <path d="m 1 1048.03 0 0.667 c 0 0.923 0.679 1.667 1.522 1.667 l 10.957 0 c 0.843 0 1.522 -0.743 1.522 -1.667 l 0 -0.667 c 0 0.923 -0.679 1.333 -1.522 1.333 l -10.957 0 c -0.843 0 -1.522 -0.41 -1.522 -1.333 z" style="fill:#000;opacity:0.15;fill-opacity:1;stroke:none"/>
  <path d="m 15.999 1048.36 a 4 3.921 0 1 1 -7.998 0 4 3.921 0 1 1 7.998 0 z" style="fill:#4caf50;fill-opacity:1;fill-rule:evenodd"/>
  <path d="m 14.187 1045.85 a 0.41 0.406 0 0 0 -0.205 0.162 l -2.18 2.11 -1.36 -1.299 a 0.41 0.406 0 1 0 -0.557 0.487 l 1.639 1.623 a 0.41 0.406 0 0 0 0.557 0 l 2.459 -2.435 a 0.41 0.406 0 0 0 -0.352 -0.649 z" style="fill:#fff;color:#000"/>
 </g>
</svg>
