<svg width="64" height="64" version="1.1" viewBox="0 0 16.933 16.933" xmlns="http://www.w3.org/2000/svg" xmlns:xlink="http://www.w3.org/1999/xlink">
 <defs>
  <linearGradient id="linearGradient6721-3" x1="7.9373" x2="7.9373" y1="15.346" y2="16.933" gradientUnits="userSpaceOnUse" xlink:href="#linearGradient6261"/>
  <linearGradient id="linearGradient6261">
   <stop offset="0"/>
   <stop stop-opacity="0" offset="1"/>
  </linearGradient>
  <radialGradient id="radialGradient6723-5" cx="35" cy="4" r="3.7275" gradientTransform="matrix(1.696 0 0 1.0731 -24.361 -.29238)" gradientUnits="userSpaceOnUse" xlink:href="#linearGradient6261"/>
  <linearGradient id="linearGradient6725-3" x1="43" x2="46.748" y1="12" y2="8.2517" gradientUnits="userSpaceOnUse" xlink:href="#linearGradient6261"/>
  <radialGradient id="radialGradient6727-5" cx="52" cy="22" r="5.2061" gradientTransform="matrix(.96042 0 0 1.3331 2.0581 -7.3283)" gradientUnits="userSpaceOnUse" xlink:href="#linearGradient6261"/>
  <linearGradient id="linearGradient6729-6" x1="5.8207" x2="5.8207" y1="1.0583" gradientUnits="userSpaceOnUse" xlink:href="#linearGradient6261"/>
  <radialGradient id="radialGradient6731-2" cx="3.1749" cy="1.3229" r=".79373" gradientTransform="matrix(-2.1078e-8 -1.3333 1.6667 -2.6348e-8 .97012 5.2916)" gradientUnits="userSpaceOnUse" xlink:href="#linearGradient6261"/>
  <linearGradient id="linearGradient6733-9" x1="13.758" x2="15.081" y1="10.583" y2="10.583" gradientUnits="userSpaceOnUse" xlink:href="#linearGradient6261"/>
  <linearGradient id="linearGradient6735-1" x1="3.1749" x2="1.852" y1="8.4665" y2="8.4665" gradientUnits="userSpaceOnUse" xlink:href="#linearGradient6261"/>
  <radialGradient id="radialGradient6737-2" cx="13.758" cy="15.346" r=".79373" gradientTransform="matrix(5.1718e-7,2,-1.6667,4.3098e-7,39.334,-12.171)" gradientUnits="userSpaceOnUse" xlink:href="#linearGradient6261"/>
  <radialGradient id="radialGradient6739-7" cx="3.1749" cy="15.346" r=".79373" gradientTransform="matrix(-1.6667,-1.37e-6,1.644e-6,-2,8.4665,46.037)" gradientUnits="userSpaceOnUse" xlink:href="#linearGradient6261"/>
  <linearGradient id="linearGradient6741-0" x1="7.9373" x2="7.9373" y1="15.346" y2="16.668" gradientUnits="userSpaceOnUse" xlink:href="#linearGradient6261"/>
  <radialGradient id="radialGradient6743-9" cx="35" cy="4" r="3.7275" gradientTransform="matrix(1.6115 -1.9122e-7 9.5496e-8 .80482 -21.403 .78072)" gradientUnits="userSpaceOnUse" xlink:href="#linearGradient6261"/>
  <linearGradient id="linearGradient6745-3" x1="43" x2="46.004" y1="12" y2="8.9965" gradientUnits="userSpaceOnUse" xlink:href="#linearGradient6261"/>
  <radialGradient id="radialGradient6747-6" cx="52" cy="22" r="5.2061" gradientTransform="matrix(.76834 -9.6042e-8 1.534e-7 1.2272 12.047 -4.9986)" gradientUnits="userSpaceOnUse" xlink:href="#linearGradient6261"/>
  <linearGradient id="linearGradient6749-0" x1="5.8207" x2="5.8207" y1="1.0583" y2=".26458" gradientUnits="userSpaceOnUse" xlink:href="#linearGradient6261"/>
  <radialGradient id="radialGradient6751-6" cx="3.1749" cy="1.3229" r=".79373" gradientTransform="matrix(-7.442e-8,-1,1.3333,-9.9226e-8,1.4111,4.2333)" gradientUnits="userSpaceOnUse" xlink:href="#linearGradient6261"/>
  <linearGradient id="linearGradient6753-2" x1="13.758" x2="14.816" y1="10.583" y2="10.583" gradientUnits="userSpaceOnUse" xlink:href="#linearGradient6261"/>
  <linearGradient id="linearGradient6755-6" x1="3.1749" x2="2.1166" y1="8.4665" y2="8.4665" gradientUnits="userSpaceOnUse" xlink:href="#linearGradient6261"/>
  <radialGradient id="radialGradient6757-1" cx="13.758" cy="15.346" r=".79373" gradientTransform="matrix(0,1.6667,-1.3333,0,34.219,-7.5846)" gradientUnits="userSpaceOnUse" xlink:href="#linearGradient6261"/>
  <radialGradient id="radialGradient6759-8" cx="3.1749" cy="15.346" r=".79373" gradientTransform="matrix(-1.3333,0,0,-1.6667,7.4082,40.921)" gradientUnits="userSpaceOnUse" xlink:href="#linearGradient6261"/>
  <linearGradient id="linearGradient6761-7" x1="21.039" x2="21.039" y1="2" y2="62" gradientTransform="matrix(.26458 0 0 .26458 45.221 -.50711)" gradientUnits="userSpaceOnUse">
   <stop stop-color="#42dfff" offset="0"/>
   <stop stop-color="#1f89e6" offset="1"/>
  </linearGradient>
  <radialGradient id="radialGradient6763-2" cx="40" cy="12" r="8" gradientTransform="matrix(.39687 0 0 -.52916 41.517 10.341)" gradientUnits="userSpaceOnUse" xlink:href="#linearGradient6261"/>
  <radialGradient id="radialGradient6765-3" cx="10.583" cy="4.2333" r="2.1166" gradientTransform="matrix(-2,3.1236e-7,-3.1236e-7,-2,76.971,12.457)" gradientUnits="userSpaceOnUse" xlink:href="#linearGradient6261"/>
  <radialGradient id="radialGradient6767-7" cx="40" cy="12" r="8" gradientTransform="matrix(0 -.39687 .52916 0 49.455 18.278)" gradientUnits="userSpaceOnUse" xlink:href="#linearGradient6261"/>
  <linearGradient id="linearGradient7282" x1="10.583" x2="6.3499" y1="3.1749" y2="3.1749" gradientTransform="matrix(1 0 0 .66667 45.221 1.1686)" gradientUnits="userSpaceOnUse" xlink:href="#linearGradient6261"/>
  <linearGradient id="linearGradient7284" x1="10.583" x2="8.7311" y1="3.0426" y2="3.0426" gradientTransform="matrix(1 0 0 .66667 45.221 1.1686)" gradientUnits="userSpaceOnUse" xlink:href="#linearGradient6261"/>
  <radialGradient id="radialGradient6773-5" cx="10.583" cy="4.2333" r="2.1166" gradientTransform="matrix(-.875 -1.6564e-7 1.6631e-7 -.87849 65.065 7.7096)" gradientUnits="userSpaceOnUse" xlink:href="#linearGradient6261"/>
  <radialGradient id="radialGradient6775-9" cx="40" cy="12" r="8" gradientTransform="matrix(0 -.34601 .23278 0 53.011 16.244)" gradientUnits="userSpaceOnUse" xlink:href="#linearGradient6261"/>
  <linearGradient id="linearGradient7286" x1="10.583" x2="6.3499" y1="3.1749" y2="3.1749" gradientTransform="matrix(1 0 0 .66667 -14.574 54.57)" gradientUnits="userSpaceOnUse" xlink:href="#linearGradient6261"/>
  <linearGradient id="linearGradient7288" x1="10.583" x2="8.7237" y1="3.0426" y2="3.0426" gradientTransform="matrix(1 0 0 .66667 -14.574 54.57)" gradientUnits="userSpaceOnUse" xlink:href="#linearGradient6261"/>
  <radialGradient id="radialGradient6781-2" cx="40" cy="12" r="8" gradientTransform="matrix(.3793 0 0 -.23243 42.22 6.7799)" gradientUnits="userSpaceOnUse" xlink:href="#linearGradient6261"/>
  <linearGradient id="linearGradient7290" x1="40" x2="46" y1="17" y2="11" gradientTransform="matrix(.26458 0 0 .26458 45.221 -.50711)" gradientUnits="userSpaceOnUse">
   <stop stop-color="#fefefe" offset="0"/>
   <stop stop-color="#e9e9e9" offset="1"/>
  </linearGradient>
 </defs>
 <g transform="translate(-45.227 .51358)">
  <g transform="translate(45.221 -.24253)" opacity=".15">
   <rect x="3.1749" y="15.346" width="10.583" height="1.5875" fill="url(#linearGradient6721-3)" opacity="1"/>
   <path transform="scale(.26458)" d="m35 0 1e-6 7 7-7z" fill="url(#radialGradient6723-5)" opacity="1"/>
   <path transform="scale(.26458)" d="m42 0-7 7 14 15 9-9 2e-6 -9.4551-3.5449-3.5449z" fill="url(#linearGradient6725-3)" opacity="1"/>
   <path transform="scale(.26458)" d="m58 13-9 9h9z" fill="url(#radialGradient6727-5)" opacity="1"/>
   <rect x="3.1749" width="6.0853" height="1.0583" fill="url(#linearGradient6729-6)" opacity="1"/>
   <rect x="1.5875" width="1.5875" height="1.0583" fill="url(#radialGradient6731-2)" opacity="1"/>
   <rect x="13.758" y="5.8207" width="1.5875" height="9.5248" fill="url(#linearGradient6733-9)" opacity="1"/>
   <rect x="1.5875" y="1.0583" width="1.5875" height="14.287" fill="url(#linearGradient6735-1)" opacity="1"/>
   <rect x="13.758" y="15.346" width="1.5875" height="1.5875" fill="url(#radialGradient6737-2)" opacity="1"/>
   <rect x="1.5875" y="15.346" width="1.5875" height="1.5875" fill="url(#radialGradient6739-7)" opacity="1"/>
  </g>
  <g transform="translate(45.221 -.24253)" opacity=".25">
   <rect x="3.1749" y="15.346" width="10.583" height="1.5875" fill="url(#linearGradient6741-0)" opacity="1"/>
   <path transform="scale(.26458)" d="m35 0 1e-6 7 7-7z" fill="url(#radialGradient6743-9)" opacity="1"/>
   <path transform="scale(.26458)" d="m42 0-7 7 14 15 9-9 2e-6 -9.4551-3.5449-3.5449z" fill="url(#linearGradient6745-3)" opacity="1"/>
   <path transform="scale(.26458)" d="m58 13-9 9h9z" fill="url(#radialGradient6747-6)" opacity="1"/>
   <rect x="3.1749" width="6.0853" height="1.0583" fill="url(#linearGradient6749-0)" opacity="1"/>
   <rect x="1.5875" width="1.5875" height="1.0583" ry="0" fill="url(#radialGradient6751-6)" opacity="1"/>
   <rect x="13.758" y="5.8207" width="1.5875" height="9.5248" fill="url(#linearGradient6753-2)" opacity="1"/>
   <rect x="1.5875" y="1.0583" width="1.5875" height="14.287" fill="url(#linearGradient6755-6)" opacity="1"/>
   <rect x="13.758" y="15.346" width="1.5875" height="1.5875" fill="url(#radialGradient6757-1)" opacity="1"/>
   <rect x="1.5875" y="15.346" width="1.5875" height="1.5875" fill="url(#radialGradient6759-8)" opacity="1"/>
  </g>
  <path d="m48.132 0.022053c-0.29316 0-0.52916 0.23601-0.52916 0.52916v14.816c0 0.29316 0.23601 0.52916 0.52916 0.52916h11.112c0.29316 0 0.52916-0.23601 0.52916-0.52916v-10.319c0-0.26458-0.16113-0.69029-0.52916-1.0583l-3.4395-3.4395c-0.35403-0.44799-0.79374-0.52916-1.0583-0.52916z" fill="url(#linearGradient6761-7)" stroke-width=".26458"/>
  <path d="m57.392 3.9907v4.2332h2.3812v-3.1749c0-0.034876-0.0069-0.079523-0.01034-0.11989-0.03935-0.26272-0.20199-0.6216-0.51882-0.93843z" fill="url(#radialGradient6763-2)" opacity=".05"/>
  <rect x="53.942" y="-.78463" width="6.6358" height="6.6348" fill="none"/>
  <rect x="51.571" y="3.9907" width="4.2333" height="4.2333" ry="0" fill="url(#radialGradient6765-3)" opacity=".05"/>
  <path d="m51.571 0.022051v2.3812h4.2332v-1.852c-0.35403-0.44799-0.79373-0.52916-1.0583-0.52916z" fill="url(#radialGradient6767-7)" opacity=".05"/>
  <rect x="51.571" y="2.4033" width="4.2333" height="1.5875" ry="0" fill="url(#linearGradient7282)" opacity=".05"/>
  <rect x="52.894" y="2.4033" width="2.9104" height="1.5875" ry="0" fill="url(#linearGradient7284)" opacity=".2"/>
  <rect x="52.894" y="3.9907" width="2.9104" height="2.9104" ry="0" fill="url(#radialGradient6773-5)" opacity=".2"/>
  <path d="m52.894 0.022051v2.3812h2.9104v-1.852c-0.14016-0.17736-0.29358-0.29558-0.44441-0.37568l-0.6139-0.15348z" fill="url(#radialGradient6775-9)" opacity=".2"/>
  <rect transform="rotate(-90)" x="-8.224" y="55.804" width="4.2333" height="1.5875" ry="0" fill="url(#linearGradient7286)" opacity=".05"/>
  <rect transform="rotate(-90)" x="-6.9011" y="55.804" width="2.9104" height="1.5875" ry="0" fill="url(#linearGradient7288)" opacity=".2"/>
  <path d="m57.392 3.9907v2.9104h2.3812v-1.852l-0.11627-0.4656c-0.085847-0.19266-0.2205-0.40033-0.41289-0.59272z" fill="url(#radialGradient6781-2)" opacity=".2"/>
  <path d="m55.275 0.13289v3.8561c0 0.29315 0.23601 0.52917 0.52917 0.52917h3.8272c-0.08627-0.1743-0.21103-0.35779-0.3824-0.52917l-3.4396-3.4396c-0.16657-0.21078-0.35183-0.33837-0.52917-0.4165z" fill="url(#linearGradient7290)"/>
 </g>
 <path class="ColorScheme-Text" d="m8.4592 6.3519c-0.17574 0.014868-0.1757 0.16261-0.23871 0.52708a3.2004 3.1843 0 0 0-0.35341 0.049616c-0.15586-0.37528-0.21032-0.50649-0.35754-0.45682-0.16927 0.057092-0.1296 0.202-0.10334 0.58186a3.2004 3.1843 0 0 0-0.32862 0.13539c-0.26286-0.31673-0.35276-0.42707-0.4795-0.3359-0.14295 0.10285-0.066571 0.23026 0.067169 0.57464a3.2004 3.1843 0 0 0-0.28521 0.21911c-0.33125-0.2443-0.44563-0.32865-0.54663-0.2098-0.11465 0.13486-0.0075039 0.23842 0.20772 0.54468a3.2004 3.1843 0 0 0-0.21494 0.27802c-0.34718-0.12879-0.47546-0.20399-0.57659-0.059934-0.089466 0.1274 0.021441 0.21662 0.34101 0.47334a3.2004 3.1843 0 0 0-0.13744 0.3297c-0.36527-0.034524-0.50834-0.07259-0.56834 0.09198-0.052821 0.14483 0.075993 0.20298 0.44332 0.36484a3.2004 3.1843 0 0 0-0.045469 0.34934c-0.36012 0.069566-0.50866 0.07224-0.51977 0.24701-0.00965 0.15179 0.12942 0.17276 0.51566 0.22324a3.2004 3.1843 0 0 0 0.050635 0.37206c-0.33089 0.14465-0.47306 0.18173-0.44538 0.35347 0.024635 0.15294 0.16583 0.13978 0.57043 0.1023a3.2004 3.1843 0 0 0 0.14362 0.34312c-0.28211 0.21816-0.41059 0.28964-0.34205 0.44854 0.061618 0.14285 0.19626 0.09492 0.58283-0.04132a3.2004 3.1843 0 0 0 0.20874 0.26975c-0.21277 0.31171-0.31938 0.41702-0.20254 0.55084 0.10191 0.11676 0.21523 0.03095 0.53839-0.21394a3.2004 3.1843 0 0 0 0.28624 0.22015c-0.12951 0.3597-0.20744 0.48898-0.059936 0.59011 0.12917 0.08859 0.21665-0.02424 0.4743-0.34934l-0.063035-0.03719a3.2004 3.1843 0 0 0 0.37615 0.16019c-0.024964 0.36933-0.0609 0.51367 0.10644 0.5695 0.14487 0.04831 0.19964-0.08015 0.34825-0.44132a3.2004 3.1843 0 0 0 0.36272 0.04858c0.068474 0.40862 0.091014 0.54875 0.24697 0.5333 0.1751-0.01731 0.17207-0.16565 0.22942-0.52918a3.2004 3.1843 0 0 0 0.36582-0.04754c0.1507 0.36628 0.20559 0.49611 0.35136 0.44751 0.16738-0.05584 0.13138-0.19985 0.10644-0.5695a3.2004 3.1843 0 0 0 0.33171-0.13539c0.25022 0.31568 0.33851 0.42646 0.46607 0.33899 0.14482-0.09932 0.07149-0.22765-0.05371-0.57255a3.2004 3.1843 0 0 0 0.29555-0.2253c0.30955 0.23451 0.42286 0.31613 0.52288 0.20154 0.11391-0.13052 0.014-0.23731-0.18807-0.53121a3.2004 3.1843 0 0 0 0.21598-0.27492c0.37796 0.13321 0.51149 0.17969 0.57247 0.03823 0.06813-0.15795-0.05828-0.22929-0.33688-0.4444a3.2004 3.1843 0 0 0 0.1457-0.34727c0.39756 0.03679 0.53872 0.04946 0.5632-0.10231 0.02739-0.17007-0.11307-0.20917-0.43712-0.35036a3.2004 3.1843 0 0 0 0.04753-0.37517c0.38188-0.04996 0.52005-0.07219 0.51048-0.22325-0.010966-0.17284-0.15797-0.17758-0.50944-0.24494a3.2004 3.1843 0 0 0-0.048571-0.35554c0.361-0.15907 0.48853-0.21696 0.43608-0.36069-0.059541-0.16322-0.20144-0.12732-0.56009-0.093015a3.2004 3.1843 0 0 0-0.13847-0.33486c0.31325-0.25168 0.42248-0.34086 0.33377-0.46713-0.10073-0.14344-0.22863-0.06888-0.57247 0.058926a3.2004 3.1843 0 0 0-0.22114-0.28421c0.23229-0.3275 0.31316-0.44324 0.19324-0.54052-0.13475-0.10931-0.23762-0.0063-0.52598 0.20567a3.2004 3.1843 0 0 0-0.29244-0.22326c0.15373-0.37437 0.20749-0.50444 0.0682-0.57255-0.16034-0.0784-0.23444 0.051338-0.48361 0.33899a3.2004 3.1843 0 0 0-0.33171-0.13539c0.034468-0.40962 0.047984-0.55126-0.10644-0.57464-0.17319-0.026208-0.20856 0.11677-0.35239 0.45165a3.2004 3.1843 0 0 0-0.36272-0.04446c-0.061275-0.4011-0.081874-0.54117-0.23664-0.52812zm-0.12814 0.97878c0.35427-0.00588 0.77475 0.05649 0.91144 0.11575 0.59479 0.18089 1.1447 0.51394 1.6131 1.2878 0.08723 0.14412 0.15056 0.28364 0.17878 0.41133 0.02801 0.13427 0.01769 0.29127-0.06923 0.41444-0.07449 0.097957-0.1668 0.18975-0.29555 0.20154-0.40068 0.03745-0.94462 0.015932-1.3733 0.01134-0.072147-7.91e-4 -0.14046-0.029988-0.16121-0.05271-0.12703-0.079869-0.2128-0.25281-0.35445-0.30178-0.22615-0.10452-0.31783-0.017136-0.44538-0.17363-0.23497-0.37607-0.46198-0.76249-0.67067-1.1462-0.1512-0.2626-0.052208-0.52602 0.17567-0.66767 0.089162-0.069006 0.27828-0.096697 0.49084-0.10025zm-1.579 0.80925c0.018446-5.698e-4 0.037022 1.722e-4 0.055802 0.0021 0.12211 0.016618 0.2479 0.051996 0.32138 0.15813 0.22935 0.32992 0.47773 0.81258 0.6841 1.1875 0.034726 0.063098 0.042732 0.13721 0.033068 0.16639-0.00742 0.14963-0.11665 0.3086-0.089902 0.4558 0.019701 0.24788 0.14127 0.28462 0.067168 0.47231-0.21312 0.38882-0.44002 0.77651-0.67275 1.1462-0.15512 0.2603-0.43305 0.30221-0.66859 0.17362-0.27739-0.11638-0.6503-0.98914-0.67478-1.2257-0.13392-0.60585-0.11318-1.248 0.33275-2.035 0.083046-0.14656 0.1741-0.26936 0.27178-0.35656 0.090584-0.078973 0.21082-0.14067 0.33999-0.14469zm1.7143 1.6504a0.26454 0.26458 0 0 1 0.26454 0.26458 0.26454 0.26458 0 0 1-0.26454 0.26458 0.26454 0.26458 0 0 1-0.26454-0.26458 0.26454 0.26458 0 0 1 0.26454-0.26458zm1.455 0.55399h1e-3c0.22211 0.0011 0.44408 0.0055 0.66243 0.01344 0.30352 0.0039 0.47954 0.22415 0.4857 0.49194 0.03768 0.29786-0.53436 1.0563-0.72748 1.1958-0.45889 0.41864-1.0263 0.72147-1.9324 0.72966-0.16874 0.0015-0.32085-0.0161-0.44538-0.05684-0.13011-0.04431-0.25939-0.13237-0.32138-0.26974-0.046565-0.11385-0.079166-0.24105-0.023769-0.3576 0.17171-0.36312 0.46593-0.81864 0.68822-1.1844 0.037408-0.06154 0.09798-0.10539 0.12814-0.11161 0.13358-0.0684 0.32686-0.05317 0.44125-0.14986 0.20532-0.14096 0.17616-0.26474 0.37615-0.29456 0.22169-5e-3 0.44545-0.0074 0.66756-0.0062z" fill="#fff" stroke-width=".46302"/>
</svg>
