<svg width="64" height="64" version="1.1" xmlns="http://www.w3.org/2000/svg" xmlns:xlink="http://www.w3.org/1999/xlink">
 <defs>
  <linearGradient id="linearGradient6721-3" x1="7.9373" x2="7.9373" y1="15.346" y2="16.933" gradientUnits="userSpaceOnUse" xlink:href="#linearGradient6261"/>
  <linearGradient id="linearGradient6261">
   <stop offset="0"/>
   <stop stop-opacity="0" offset="1"/>
  </linearGradient>
  <radialGradient id="radialGradient6723-5" cx="35" cy="4" r="3.7275" gradientTransform="matrix(1.696 0 0 1.0731 -24.361 -.29238)" gradientUnits="userSpaceOnUse" xlink:href="#linearGradient6261"/>
  <linearGradient id="linearGradient6725-3" x1="43" x2="46.748" y1="12" y2="8.2517" gradientUnits="userSpaceOnUse" xlink:href="#linearGradient6261"/>
  <radialGradient id="radialGradient6727-5" cx="52" cy="22" r="5.2061" gradientTransform="matrix(.96042 0 0 1.3331 2.0581 -7.3283)" gradientUnits="userSpaceOnUse" xlink:href="#linearGradient6261"/>
  <linearGradient id="linearGradient6729-6" x1="5.8207" x2="5.8207" y1="1.0583" gradientUnits="userSpaceOnUse" xlink:href="#linearGradient6261"/>
  <radialGradient id="radialGradient6731-2" cx="3.1749" cy="1.3229" r=".79373" gradientTransform="matrix(-2.1078e-8 -1.3333 1.6667 -2.6348e-8 .97012 5.2916)" gradientUnits="userSpaceOnUse" xlink:href="#linearGradient6261"/>
  <linearGradient id="linearGradient6733-9" x1="13.758" x2="15.081" y1="10.583" y2="10.583" gradientUnits="userSpaceOnUse" xlink:href="#linearGradient6261"/>
  <linearGradient id="linearGradient6735-1" x1="3.1749" x2="1.852" y1="8.4665" y2="8.4665" gradientUnits="userSpaceOnUse" xlink:href="#linearGradient6261"/>
  <radialGradient id="radialGradient6737-2" cx="13.758" cy="15.346" r=".79373" gradientTransform="matrix(5.1718e-7 2 -1.6667 4.3098e-7 39.334 -12.171)" gradientUnits="userSpaceOnUse" xlink:href="#linearGradient6261"/>
  <radialGradient id="radialGradient6739-7" cx="3.1749" cy="15.346" r=".79373" gradientTransform="matrix(-1.6667 -1.37e-6 1.644e-6 -2 8.4665 46.037)" gradientUnits="userSpaceOnUse" xlink:href="#linearGradient6261"/>
  <linearGradient id="linearGradient6741-0" x1="7.9373" x2="7.9373" y1="15.346" y2="16.668" gradientUnits="userSpaceOnUse" xlink:href="#linearGradient6261"/>
  <radialGradient id="radialGradient6743-9" cx="35" cy="4" r="3.7275" gradientTransform="matrix(1.6115 -1.9122e-7 9.5496e-8 .80482 -21.403 .78072)" gradientUnits="userSpaceOnUse" xlink:href="#linearGradient6261"/>
  <linearGradient id="linearGradient6745-3" x1="43" x2="46.004" y1="12" y2="8.9965" gradientUnits="userSpaceOnUse" xlink:href="#linearGradient6261"/>
  <radialGradient id="radialGradient6747-6" cx="52" cy="22" r="5.2061" gradientTransform="matrix(.76834 -9.6042e-8 1.534e-7 1.2272 12.047 -4.9986)" gradientUnits="userSpaceOnUse" xlink:href="#linearGradient6261"/>
  <linearGradient id="linearGradient6749-0" x1="5.8207" x2="5.8207" y1="1.0583" y2=".26458" gradientUnits="userSpaceOnUse" xlink:href="#linearGradient6261"/>
  <radialGradient id="radialGradient6751-6" cx="3.1749" cy="1.3229" r=".79373" gradientTransform="matrix(-7.442e-8 -1 1.3333 -9.9226e-8 1.4111 4.2333)" gradientUnits="userSpaceOnUse" xlink:href="#linearGradient6261"/>
  <linearGradient id="linearGradient6753-2" x1="13.758" x2="14.816" y1="10.583" y2="10.583" gradientUnits="userSpaceOnUse" xlink:href="#linearGradient6261"/>
  <linearGradient id="linearGradient6755-6" x1="3.1749" x2="2.1166" y1="8.4665" y2="8.4665" gradientUnits="userSpaceOnUse" xlink:href="#linearGradient6261"/>
  <radialGradient id="radialGradient6757-1" cx="13.758" cy="15.346" r=".79373" gradientTransform="matrix(0 1.6667 -1.3333 0 34.219 -7.5846)" gradientUnits="userSpaceOnUse" xlink:href="#linearGradient6261"/>
  <radialGradient id="radialGradient6759-8" cx="3.1749" cy="15.346" r=".79373" gradientTransform="matrix(-1.3333 0 0 -1.6667 7.4082 40.921)" gradientUnits="userSpaceOnUse" xlink:href="#linearGradient6261"/>
  <linearGradient id="linearGradient6761-7" x1="21.039" x2="21.039" y1="2" y2="62" gradientTransform="matrix(.26458 0 0 .26458 0 -.26458)" gradientUnits="userSpaceOnUse">
   <stop stop-color="#ff5b59" offset="0"/>
   <stop stop-color="#ff983d" offset="1"/>
  </linearGradient>
  <radialGradient id="radialGradient6763-2" cx="40" cy="12" r="8" gradientTransform="matrix(1.5 0 0 -2 -14 40)" gradientUnits="userSpaceOnUse" xlink:href="#linearGradient6261"/>
  <radialGradient id="radialGradient6765-3" cx="10.583" cy="4.2333" r="2.1166" gradientTransform="matrix(-2 3.1236e-7 -3.1236e-7 -2 31.749 12.7)" gradientUnits="userSpaceOnUse" xlink:href="#linearGradient6261"/>
  <radialGradient id="radialGradient6767-7" cx="40" cy="12" r="8" gradientTransform="matrix(0 -1.5 2 0 16 70)" gradientUnits="userSpaceOnUse" xlink:href="#linearGradient6261"/>
  <linearGradient id="linearGradient7282" x1="10.583" x2="6.3499" y1="3.1749" y2="3.1749" gradientTransform="matrix(1 0 0 .66667 0 1.4111)" gradientUnits="userSpaceOnUse" xlink:href="#linearGradient6261"/>
  <linearGradient id="linearGradient7284" x1="10.583" x2="8.7311" y1="3.0426" y2="3.0426" gradientTransform="matrix(1 0 0 .66667 0 1.4111)" gradientUnits="userSpaceOnUse" xlink:href="#linearGradient6261"/>
  <radialGradient id="radialGradient6773-5" cx="10.583" cy="4.2333" r="2.1166" gradientTransform="matrix(-.875 -1.6564e-7 1.6631e-7 -.87849 19.843 7.9521)" gradientUnits="userSpaceOnUse" xlink:href="#linearGradient6261"/>
  <radialGradient id="radialGradient6775-9" cx="40" cy="12" r="8" gradientTransform="matrix(0 -1.3078 .87983 0 29.442 62.311)" gradientUnits="userSpaceOnUse" xlink:href="#linearGradient6261"/>
  <linearGradient id="linearGradient7286" x1="10.583" x2="6.3499" y1="3.1749" y2="3.1749" gradientTransform="matrix(1 0 0 .66667 -14.816 9.3484)" gradientUnits="userSpaceOnUse" xlink:href="#linearGradient6261"/>
  <linearGradient id="linearGradient7288" x1="10.583" x2="8.7237" y1="3.0426" y2="3.0426" gradientTransform="matrix(1 0 0 .66667 -14.816 9.3484)" gradientUnits="userSpaceOnUse" xlink:href="#linearGradient6261"/>
  <radialGradient id="radialGradient6781-2" cx="40" cy="12" r="8" gradientTransform="matrix(1.4336 0 0 -.87849 -11.344 26.542)" gradientUnits="userSpaceOnUse" xlink:href="#linearGradient6261"/>
  <linearGradient id="linearGradient7290" x1="40" x2="46" y1="17" y2="11" gradientTransform="matrix(.26458 0 0 .26458 -1.6667e-7 -.26458)" gradientUnits="userSpaceOnUse">
   <stop stop-color="#fefefe" offset="0"/>
   <stop stop-color="#e9e9e9" offset="1"/>
  </linearGradient>
 </defs>
 <g transform="matrix(3.7796 0 0 3.7796 -.021092 1.0245)">
  <g opacity=".1">
   <rect x="3.1749" y="15.346" width="10.583" height="1.5875" fill="url(#linearGradient6721-3)" opacity="1"/>
   <path transform="scale(.26458)" d="m35 0 1e-6 7 7-7z" fill="url(#radialGradient6723-5)" opacity="1"/>
   <path transform="scale(.26458)" d="m42 0-7 7 14 15 9-9 2e-6 -9.4551-3.5449-3.5449z" fill="url(#linearGradient6725-3)" opacity="1"/>
   <path transform="scale(.26458)" d="m58 13-9 9h9z" fill="url(#radialGradient6727-5)" opacity="1"/>
   <rect x="3.1749" width="6.0853" height="1.0583" fill="url(#linearGradient6729-6)" opacity="1"/>
   <rect x="1.5875" width="1.5875" height="1.0583" fill="url(#radialGradient6731-2)" opacity="1"/>
   <rect x="13.758" y="5.8207" width="1.5875" height="9.5248" fill="url(#linearGradient6733-9)" opacity="1"/>
   <rect x="1.5875" y="1.0583" width="1.5875" height="14.287" fill="url(#linearGradient6735-1)" opacity="1"/>
   <rect x="13.758" y="15.346" width="1.5875" height="1.5875" fill="url(#radialGradient6737-2)" opacity="1"/>
   <rect x="1.5875" y="15.346" width="1.5875" height="1.5875" fill="url(#radialGradient6739-7)" opacity="1"/>
  </g>
  <g opacity=".2">
   <rect x="3.1749" y="15.346" width="10.583" height="1.5875" fill="url(#linearGradient6741-0)" opacity="1"/>
   <path transform="scale(.26458)" d="m35 0 1e-6 7 7-7z" fill="url(#radialGradient6743-9)" opacity="1"/>
   <path transform="scale(.26458)" d="m42 0-7 7 14 15 9-9 2e-6 -9.4551-3.5449-3.5449z" fill="url(#linearGradient6745-3)" opacity="1"/>
   <path transform="scale(.26458)" d="m58 13-9 9h9z" fill="url(#radialGradient6747-6)" opacity="1"/>
   <rect x="3.1749" width="6.0853" height="1.0583" fill="url(#linearGradient6749-0)" opacity="1"/>
   <rect x="1.5875" width="1.5875" height="1.0583" ry="0" fill="url(#radialGradient6751-6)" opacity="1"/>
   <rect x="13.758" y="5.8207" width="1.5875" height="9.5248" fill="url(#linearGradient6753-2)" opacity="1"/>
   <rect x="1.5875" y="1.0583" width="1.5875" height="14.287" fill="url(#linearGradient6755-6)" opacity="1"/>
   <rect x="13.758" y="15.346" width="1.5875" height="1.5875" fill="url(#radialGradient6757-1)" opacity="1"/>
   <rect x="1.5875" y="15.346" width="1.5875" height="1.5875" fill="url(#radialGradient6759-8)" opacity="1"/>
  </g>
  <path d="m2.9104 0.26458c-0.29315 0-0.52916 0.23601-0.52916 0.52916v14.816c0 0.29316 0.23601 0.52916 0.52916 0.52916h11.112c0.29316 0 0.52916-0.23601 0.52916-0.52916v-10.319c0-0.26458-0.16113-0.69029-0.52916-1.0583l-3.4395-3.4395c-0.35403-0.44799-0.79374-0.52916-1.0583-0.52916z" fill="url(#linearGradient6761-7)" stroke-width=".26458"/>
  <path transform="scale(.26458)" d="m46 16v16h9v-12c0-0.13182-0.02593-0.30056-0.03906-0.45312-0.14876-0.99298-0.76345-2.3494-1.9609-3.5469z" fill="url(#radialGradient6763-2)" opacity=".05"/>
  <rect x="8.7209" y="-.54211" width="6.6358" height="6.6348" fill="none"/>
  <g>
   <rect x="6.3499" y="4.2333" width="4.2333" height="4.2333" ry="0" fill="url(#radialGradient6765-3)" opacity=".05"/>
   <path transform="scale(.26458)" d="m24 1v9h16v-7c-1.3381-1.6932-3-2-4-2z" fill="url(#radialGradient6767-7)" opacity=".05"/>
   <rect x="6.3499" y="2.6458" width="4.2333" height="1.5875" ry="0" fill="url(#linearGradient7282)" opacity=".05"/>
   <rect x="7.6728" y="2.6458" width="2.9104" height="1.5875" ry="0" fill="url(#linearGradient7284)" opacity=".2"/>
   <rect x="7.6728" y="4.2333" width="2.9104" height="2.9104" ry="0" fill="url(#radialGradient6773-5)" opacity=".2"/>
   <path transform="scale(.26458)" d="m29 1v9h11v-7c-0.52975-0.67033-1.1096-1.1172-1.6797-1.4199l-2.3203-0.58008z" fill="url(#radialGradient6775-9)" opacity=".2"/>
   <rect transform="rotate(-90)" x="-8.4665" y="10.583" width="4.2333" height="1.5875" ry="0" fill="url(#linearGradient7286)" opacity=".05"/>
   <rect transform="rotate(-90)" x="-7.1436" y="10.583" width="2.9104" height="1.5875" ry="0" fill="url(#linearGradient7288)" opacity=".2"/>
   <path transform="scale(.26458)" d="m46 16v11h9v-7l-0.43945-1.7598c-0.32447-0.72817-0.83339-1.5131-1.5605-2.2402z" fill="url(#radialGradient6781-2)" opacity=".2"/>
  </g>
  <path d="m10.054 0.37542v3.8561c0 0.29315 0.23601 0.52917 0.52917 0.52917h3.8272c-0.08627-0.1743-0.21103-0.35779-0.3824-0.52917l-3.4396-3.4396c-0.16657-0.21078-0.35183-0.33837-0.52917-0.4165z" fill="url(#linearGradient7290)"/>
 </g>
 <path d="m30.662 23.784-1.291 1.666-2.0508-0.4668-0.55664 2.0293-2.0742 0.35547 0.26367 2.0879-1.7812 1.123 1.0449 1.8281-1.2168 1.7188 1.6621 1.2891-0.46289 2.0527 2.0293 0.55469 0.35547 2.0742 0.8125-0.10352v10.404l4.5938-3.3418 4.5938 3.3418v-9.832l0.09766 0.02344 0.55664-2.0293 2.0742-0.35742-0.26562-2.0879 1.7812-1.1211-1.043-1.8301 1.2148-1.7168-1.6621-1.291 0.46484-2.0508-2.0293-0.55664-0.35547-2.0723-2.0879 0.26367-1.123-1.7812-1.8281 1.043zm1.3379 4.3066a5 5 0 0 1 5 5 5 5 0 0 1-5 5 5 5 0 0 1-5-5 5 5 0 0 1 5-5z" color="#4d4d4d" color-rendering="auto" fill="#fff" fill-rule="evenodd" image-rendering="auto" shape-rendering="auto" solid-color="#000000" style="isolation:auto;mix-blend-mode:normal"/>
</svg>
