<svg xmlns="http://www.w3.org/2000/svg" viewBox="0 0 16 16">
 <g transform="translate(0,-1036.3622)">
  <rect width="14" height="10" x="1" y="1040.36" rx="1.522" ry="1.562" style="fill:#512da8;fill-opacity:1;stroke:none"/>
  <path d="m 2.522 1040.36 c -0.843 0 -1.522 0.69 -1.522 1.546 l 0 0.619 c 0 -0.857 0.679 -1.165 1.522 -1.165 l 10.957 0 c 0.843 0 1.522 0.308 1.522 1.165 l 0 -0.619 c 0 -0.857 -0.679 -1.546 -1.522 -1.546 z" style="fill:#fff;opacity:0.2;fill-opacity:1;stroke:none"/>
  <path d="m 2.522 1042.36 2.435 0 c 3.348 -0.333 2.739 -4 4.87 -4 l 3.652 0 c 0.843 0 1.522 0.743 1.522 1.667 l 0 8.667 c 0 0.923 -0.679 1.667 -1.522 1.667 l -10.957 0 c -0.843 0 -1.522 -0.743 -1.522 -1.667 l 0 -4.667 c 0 -1 0.609 -1.667 1.522 -1.667 z" style="fill:#7e57c2;fill-opacity:1;stroke:none"/>
  <path d="m 1 1048.03 0 0.667 c 0 0.923 0.679 1.667 1.522 1.667 l 10.957 0 c 0.843 0 1.522 -0.743 1.522 -1.667 l 0 -0.667 c 0 0.923 -0.679 1.333 -1.522 1.333 l -10.957 0 c -0.843 0 -1.522 -0.41 -1.522 -1.333 z" style="fill:#000;opacity:0.15;fill-opacity:1;stroke:none"/>
  <path d="m 16 1046.36 -4 0 0 -4 -2 0 0 4 -4 0 0 2 4 0 0 4 2 0 0 -4 4 0 z" style="fill:#4caf50;fill-opacity:1"/>
 </g>
</svg>
