/* XPM */
static char * bottom_right_active_xpm[] = {
"16 16 5 1",
"       c None",
"+      c #E0E0E0 s active_hilight_2",
"@      c #A0A0A0 s active_shadow_2",
"$      c #B0B0B0 s active_mid_2",
"#      c #C0C0C0 s active_color_2",
"            ###@",
"            ###@",
"            ###@",
"            ###@",
"            ###@",
"            ###@",
"            ###@",
"            ###@",
"            ###@",
"            ###@",
"            ###@",
"            ###@",
"###############@",
"##############$@",
"#############$@@",
"@@@@@@@@@@@@@@@ "};
