/* XPM */
static char * menu_active_xpm[] = {
"20 16 2 1",
" 	c None",
"@	c #C0C0C0 s active_color_2",
"  @@@@@@@@@@@@@@@@  ",
"  @@@@@@@@@@@@@@@@  ",
"  @@@@@@@@@@@@@@@@  ",
"  @@@@@@@@@@@@@@@@  ",
"  @@@@@@@@@@@@@@@@  ",
"  @@@@@@@@@@@@@@@@  ",
"  @@@@@@@@@@@@@@@@  ",
"  @@@@@@@@@@@@@@@@  ",
"  @@@@@@@@@@@@@@@@  ",
"  @@@@@@@@@@@@@@@@  ",
"  @@@@@@@@@@@@@@@@  ",
"  @@@@@@@@@@@@@@@@  ",
"  @@@@@@@@@@@@@@@@  ",
"  @@@@@@@@@@@@@@@@  ",
"  @@@@@@@@@@@@@@@@  ",
"  @@@@@@@@@@@@@@@@  "};
