/* XPM */
static char * menu_inactive_xpm[] = {
"20 16 2 1",
" 	c None",
"@	c #C0C0C0 s inactive_color_2",
"  @@@@@@@@@@@@@@@@  ",
"  @@@@@@@@@@@@@@@@  ",
"  @@@@@@@@@@@@@@@@  ",
"  @@@@@@@@@@@@@@@@  ",
"  @@@@@@@@@@@@@@@@  ",
"  @@@@@@@@@@@@@@@@  ",
"  @@@@@@@@@@@@@@@@  ",
"  @@@@@@@@@@@@@@@@  ",
"  @@@@@@@@@@@@@@@@  ",
"  @@@@@@@@@@@@@@@@  ",
"  @@@@@@@@@@@@@@@@  ",
"  @@@@@@@@@@@@@@@@  ",
"  @@@@@@@@@@@@@@@@  ",
"  @@@@@@@@@@@@@@@@  ",
"  @@@@@@@@@@@@@@@@  ",
"  @@@@@@@@@@@@@@@@  "};
