/* XPM */
static char * title_1_active_xpm[] = {
"4 23 6 1",
" 	c None",
".	c #A0A0FF s active_shadow_1",
"+	c #E0E0FF s active_hilight_1",
"@	c #C0C0FF s active_color_1",
"#	c #B0B0FF s active_mid_1",
"$	c #000000",
"....",
"++++",
"@@@@",
"@@@@",
"@@@@",
"@@@@",
"@@@@",
"@@@@",
"@@@@",
"@@@@",
"@@@@",
"@@@@",
"@@@@",
"@@@@",
"@@@@",
"@@@@",
"@@@@",
"@@@@",
"@@@@",
"@@@@",
"@@@@",
"@@@@",
"@@@@"};
