/* XPM */
static char * title_2_active_xpm[] = {
"4 23 8 1",
" 	c None",
".	c #A0A0A0 s active_shadow_2",
"+	c #E0E0E0 s active_hilight_2",
"@	c #C0C0C0 s active_color_2",
"#	c #B0B0B0 s active_mid_2",
"%	c #C0C0FF s active_color_1",
"&	c #E0E0FF s active_hilight_1",
"$	c #000000",
"....",
"+++&",
"@@@%",
"@@@%",
"@@@%",
"@@@%",
"@@@%",
"@@@%",
"@@@%",
"@@@%",
"@@@%",
"@@@%",
"@@@%",
"@@@%",
"@@@%",
"@@@%",
"@@@%",
"@@@%",
"@@@%",
"@@@%",
"@@@%",
"@@@%",
"@@@@"};
