/* XPM */
static char * top_right_active_xpm[] = {
"7 23 6 1",
" 	c None",
".	c #A0A0A0 s active_shadow_2",
"+	c #E0E0E0 s active_hilight_2",
"@	c #B0B0B0 s active_mid_2",
"#	c #C0C0C0 s active_color_2",
"$	c #000000",
"...    ",
"+@...  ",
"#+#@.. ",
"####@. ",
"#####..",
"#####@.",
"######.",
"######.",
"######.",
"######.",
"######.",
"######.",
"######.",
"######.",
"######.",
"######.",
"######.",
"######.",
"######.",
"######.",
"######.",
"######.",
"######."};
