<svg viewBox="0 0 24 24" xmlns="http://www.w3.org/2000/svg">
 <path style="fill:#000;opacity:0.03;fill-opacity:1;stroke:none" d="m 9 11.998 -0.5 1 -5.5 0 0 1 6.25 0 0.5 -1 3.75 0 c 0.25 0 0.5 0.265 0.5 0.531 l 0 -1 c 0 -0.267 -0.25 -0.531 -0.5 -0.531 z"/>
 <rect y="11.998" x="3" style="fill:#5d4037;fill-opacity:1;stroke:none" ry="1.25" rx="1.196" height="8" width="11"/>
 <path style="fill:#fff;opacity:0.2;fill-opacity:1;stroke:none" d="M 4.196,11.998 C 3.534,11.998 3,12.555 3,13.248 l 0,1 c 0,-0.693 0.533,-1.25 1.196,-1.25 l 8.609,0 c 0.662,0 1.196,0.557 1.196,1.25 l 0,-1 c 0,-0.693 -0.533,-1.25 -1.196,-1.25 z"/>
 <path style="fill:#8d6e63;fill-opacity:1;stroke:none" d="m 4.196,13.998 1.913,0 c 2.63,-0.25 2.152,-3 3.826,-3 l 2.87,0 c 0.662,0 1.196,0.557 1.196,1.25 l 0,6.5 c 0,0.693 -0.533,1.25 -1.196,1.25 l -8.609,0 C 3.534,19.998 3,19.44 3,18.748 l 0,-3.5 c 0,-0.75 0.478,-1.25 1.196,-1.25 z"/>
 <path style="fill:#000;opacity:0.15;fill-opacity:1;stroke:none" d="m 3,17.748 0,1 c 0,0.693 0.533,1.25 1.196,1.25 l 8.609,0 c 0.662,0 1.196,-0.557 1.196,-1.25 l 0,-1 c 0,0.693 -0.533,1.25 -1.196,1.25 l -8.609,0 C 3.534,18.998 3,18.44 3,17.748 Z"/>
 <path style="fill:#f00000;opacity:0.015;fill-opacity:0;stroke:none" d="m 9.936 10.998 c -0.674 0 -1 0.451 -1.32 1 l -4.42 0 c -0.577 0 -1.033 0.432 -1.146 1 l -0.049 0 l 0 0.25 l 0 0.75 l 0 0.25 l 0 1 l 0 2.5 l 0 1 c 0 0.173 0.033 0.337 0.094 0.486 c 0 0 0 0.002 0 0.002 c 0.121 0.299 0.348 0.538 0.635 0.664 c 0 0 0.002 0 0.002 0 c 0.143 0.063 0.3 0.098 0.465 0.098 l 8.609 0 c 0.083 0 0.164 -0.009 0.242 -0.025 c 0.077 -0.017 0.154 -0.041 0.225 -0.072 c 0.143 -0.063 0.271 -0.155 0.379 -0.268 c 0 0 0.002 0 0.002 0 c 0.216 -0.226 0.35 -0.538 0.35 -0.885 l 0 -1 l 0 -3.5 l 0 -1 l 0 -1 c 0 -0.693 -0.535 -1.25 -1.197 -1.25 l -2.869 0 z"/>
 <path style="fill:#000;opacity:0.03;fill-opacity:1;stroke:none" d="m 16 4.998 -0.5 1 -5.5 0 0 1 6.25 0 0.5 -1 3.75 0 c 0.25 0 0.5 0.265 0.5 0.531 l 0 -1 c 0 -0.267 -0.25 -0.531 -0.5 -0.531 z"/>
 <rect y="4.998" x="10" style="fill:#5d4037;fill-opacity:1;stroke:none" ry="1.25" rx="1.196" height="8" width="11"/>
 <path style="fill:#fff;opacity:0.2;fill-opacity:1;stroke:none" d="m 11.196 4.998 c -0.662 0 -1.196 0.557 -1.196 1.25 l 0 1 c 0 -0.693 0.533 -1.25 1.196 -1.25 l 8.609 0 c 0.662 0 1.196 0.557 1.196 1.25 l 0 -1 c 0 -0.693 -0.533 -1.25 -1.196 -1.25 z"/>
 <path style="fill:#fff;opacity:0.5;fill-opacity:1;stroke:none" d="m 9.936 10.998 c -0.674 0 -1 0.451 -1.32 1 l -4.42 0 c -0.497 0 -0.92 0.313 -1.102 0.762 c -0.029 0.073 -0.029 0.159 -0.045 0.238 l -0.049 0 l 0 1 l 0 0.25 l 0 3.5 l 0 1 c 0 0.173 0.033 0.337 0.094 0.486 c 0 0 0 0.002 0 0.002 c 0.06 0.15 0.148 0.284 0.256 0.396 c 0.108 0.113 0.236 0.205 0.379 0.268 c 0.144 0.063 0.301 0.098 0.467 0.098 l 8.609 0 c 0.083 0 0.162 -0.009 0.24 -0.025 c 0.001 0 0.001 0 0.002 0 c 0.077 -0.017 0.154 -0.041 0.225 -0.072 c 0.143 -0.063 0.271 -0.155 0.379 -0.268 c 0 0 0.002 0 0.002 0 c 0.216 -0.226 0.35 -0.538 0.35 -0.885 l 0 -1 l 0 -3.5 l 0 -1 l 0 -1 c 0 -0.693 -0.535 -1.25 -1.197 -1.25 l -2.869 0 z"/>
 <path style="fill:#8d6e63;fill-opacity:1;stroke:none" d="m 11.196 6.998 1.913 0 c 2.63 -0.25 2.152 -3 3.826 -3 l 2.87 0 c 0.662 0 1.196 0.557 1.196 1.25 l 0 6.5 c 0 0.693 -0.533 1.25 -1.196 1.25 l -8.609 0 c -0.662 0 -1.196 -0.558 -1.196 -1.25 l 0 -3.5 c 0 -0.75 0.478 -1.25 1.196 -1.25 z"/>
 <path style="fill:#000;opacity:0.15;fill-opacity:1;stroke:none" d="m 10 10.748 0 1 c 0 0.693 0.533 1.25 1.196 1.25 l 8.609 0 c 0.662 0 1.196 -0.557 1.196 -1.25 l 0 -1 c 0 0.693 -0.533 1.25 -1.196 1.25 l -8.609 0 c -0.662 0 -1.196 -0.558 -1.196 -1.25 z"/>
 <path style="fill:#4caf50;fill-opacity:1" d="m 21 11.998 -4 0 0 -4 -4 0 0 4 -4 0 0 4 4 0 0 4 4 0 0 -4 4 0 z"/>
</svg>
