/* XPM */
static char * close_pressed_xpm[] = {
"21 29 6 1",
"       c None",
"$      c #C0C0FF s active_color_2",
"@      c #949594 s active_shadow_2",
"#      c #000000 s active_text_color",
".      c #B4BAB4 s active_mid_2",
"+      c #B4BAB4 s active_hilight_2",
".....................",
".....................",
".....................",
".....................",
".....................",
".@@@@@@@@@@@@@@@@@@@.",
"@...................@",
"@...................@",
"@...................@",
"@...................@",
"@...................@",
"@...................@",
"@.....##@...@##.....@",
"@.....###@.@###.....@",
"@.....@###@###@.....@",
"@......@#####@......@",
"@.......@###@.......@",
"@......@#####@......@",
"@.....@###@###@.....@",
"@.....###@.@###.....@",
"@.....##@...@##.....@",
"@...................@",
"@...................@",
"@...................@",
"@...................@",
".@@@@@@@@@@@@@@@@@@@.",
".....................",
".....................",
"....................."};
