<svg xmlns="http://www.w3.org/2000/svg" viewBox="0 0 48 48">
 <defs>
  <radialGradient id="radialGradient3131" gradientUnits="userSpaceOnUse" gradientTransform="matrix(1.25,0,0,0.20833327,-6,1035.9247)" cx="24" cy="40.5" r="24">
   <stop style="stop-color:#000;stop-opacity:1"/>
   <stop offset="1" style="stop-color:#000;stop-opacity:0.196"/>
  </radialGradient>
 </defs>
 <g transform="translate(0,-1004.3622)">
  <path d="m 24 1039.36 c -9.827 0 -18.528 0.783 -24 2 l 0 6 c 5.472 1.217 14.173 2 24 2 9.827 0 18.528 -0.783 24 -2 l 0 -6 c -5.472 -1.217 -14.173 -2 -24 -2 z" style="fill:url(#radialGradient3131);opacity:0.1;fill-opacity:1;stroke:none"/>
  <rect width="46" height="32" x="1" y="1014.36" rx="5" style="fill:#5d4037;fill-opacity:1;stroke:none"/>
  <path d="m 6 1014.36 c -2.77 0 -5 2.23 -5 5 l 0 2 c 0 -2.77 2.23 -5 5 -5 l 36 0 c 2.77 0 5 2.23 5 5 l 0 -2 c 0 -2.77 -2.23 -5 -5 -5 l -36 0 z" style="fill:#fff;opacity:0.2;fill-opacity:1;stroke:none"/>
  <path d="m 6 1022.36 8 0 c 11 -1 9 -12 16 -12 l 12 0 c 2.77 0 5 2.23 5 5 l 0 26 c 0 2.77 -2.23 5 -5 5 l -36 0 c -2.77 0 -5 -2.23 -5 -5 l 0 -14 c 0 -3 2 -5 5 -5 z" style="fill:#8d6e63;fill-opacity:1;stroke:none"/>
  <path d="m 1 1039.36 0 2 c 0 2.77 2.23 5 5 5 l 36 0 c 2.77 0 5 -2.23 5 -5 l 0 -2 c 0 2.77 -2.23 5 -5 5 l -36 0 c -2.77 0 -5 -2.23 -5 -5 z" style="fill:#000;opacity:0.15;fill-opacity:1;stroke:none"/>
  <g transform="translate(5,1026.3622)" style="fill:#000;fill-opacity:0.098">
   <path d="M 5,1 C 4,1 3,2 3,3 l 0,10 c 0,1 1,2 2,2 l 6,0 c 1,0 2,-1 2,-2 L 13,5 9,1 z m 0,2 5,0 1,0 0,1 0,9 -6,0 z" style="fill:#000;fill-opacity:0.098;stroke:none"/>
   <path d="m 9 1 0 4 4 0 z" style="fill:#000;fill-opacity:0.098;stroke:none"/>
   <rect width="3" height="1" x="6" y="7" rx="0.25" style="fill:#000;fill-opacity:0.098;stroke:none"/>
   <rect rx="0.25" y="9" x="6" height="1" width="4" style="fill:#000;fill-opacity:0.098;stroke:none"/>
   <rect width="4" height="1" x="6" y="11" rx="0.25" style="fill:#000;fill-opacity:0.098;stroke:none"/>
  </g>
  <g transform="translate(5,1025.3622)" style="fill:#fff8e1;opacity:1;fill-opacity:1">
   <path d="M 5,1 C 4,1 3,2 3,3 l 0,10 c 0,1 1,2 2,2 l 6,0 c 1,0 2,-1 2,-2 L 13,5 9,1 z m 0,2 5,0 1,0 0,1 0,9 -6,0 z" style="stroke:none"/>
   <path d="m 9 1 0 4 4 0 z" style="stroke:none"/>
   <rect rx="0.25" y="7" x="6" height="1" width="3" style="stroke:none"/>
   <rect width="4" height="1" x="6" y="9" rx="0.25" style="stroke:none"/>
   <rect rx="0.25" y="11" x="6" height="1" width="4" style="stroke:none"/>
  </g>
 </g>
</svg>
