<svg xmlns="http://www.w3.org/2000/svg" viewBox="0 0 48 48">
 <defs>
  <radialGradient r="24" cy="40.5" cx="24" gradientTransform="matrix(1.25,0,0,0.20833327,-6,1035.9247)" gradientUnits="userSpaceOnUse" id="radialGradient3208">
   <stop style="stop-color:#000;stop-opacity:1"/>
   <stop offset="1" style="stop-color:#000;stop-opacity:0.196"/>
  </radialGradient>
 </defs>
 <g transform="translate(0,-1004.3622)">
  <path d="m 24 1039.36 c -9.827 0 -18.528 0.783 -24 2 l 0 6 c 5.472 1.217 14.173 2 24 2 9.827 0 18.528 -0.783 24 -2 l 0 -6 c -5.472 -1.217 -14.173 -2 -24 -2 z" style="fill:url(#radialGradient3208);opacity:0.1;fill-opacity:1;stroke:none"/>
  <rect width="46" height="32" x="1" y="1014.36" rx="5" style="fill:#388e3c;fill-opacity:1;stroke:none"/>
  <path d="m 6 1014.36 c -2.77 0 -5 2.23 -5 5 l 0 2 c 0 -2.77 2.23 -5 5 -5 l 36 0 c 2.77 0 5 2.23 5 5 l 0 -2 c 0 -2.77 -2.23 -5 -5 -5 l -36 0 z" style="fill:#fff;opacity:0.2;fill-opacity:1;stroke:none"/>
  <path d="m 6 1022.36 8 0 c 11 -1 9 -12 16 -12 l 12 0 c 2.77 0 5 2.23 5 5 l 0 26 c 0 2.77 -2.23 5 -5 5 l -36 0 c -2.77 0 -5 -2.23 -5 -5 l 0 -14 c 0 -3 2 -5 5 -5 z" style="fill:#66bb6a;fill-opacity:1;stroke:none"/>
  <path d="m 1 1039.36 0 2 c 0 2.77 2.23 5 5 5 l 36 0 c 2.77 0 5 -2.23 5 -5 l 0 -2 c 0 2.77 -2.23 5 -5 5 l -36 0 c -2.77 0 -5 -2.23 -5 -5 z" style="fill:#000;opacity:0.15;fill-opacity:1;stroke:none"/>
  <path d="m 12.13 1027.36 c -2.986 0 -6.125 3.14 -6.125 7 c 0 3.86 3.14 7 6.125 7 4.735 0 7.875 -3.14 7.875 -7 0 -3.86 -3.14 -7 -7 -7 z m 1.443 0.985 c 0.652 0.06 1.285 0.209 1.859 0.459 -0.044 0.055 -0.078 0.104 -0.109 0.197 -0.177 0.53 -0.441 0.277 -0.131 0.94 0.309 0.663 0.568 0.834 0.656 0.525 0.088 -0.309 -0.222 -0.745 0.131 -0.569 0.354 0.177 0.615 -0.048 0.35 0.35 -0.265 0.398 -0.259 0.613 -0.569 0.525 -0.309 -0.089 -0.303 0.524 -0.613 0.613 -0.309 0.088 -0.416 -0.133 -0.416 0.088 0 0.221 0.175 0.018 0.131 0.372 -0.013 0.108 -0.009 0.128 -0.022 0.175 -0.29 -0.083 -0.42 -0.129 -0.634 -0.045 -0.221 0.089 -0.481 0.656 -0.481 0.656 0.276 0.276 0.404 0.475 0.503 0.569 -0.062 0.031 -0.136 0.044 -0.197 0.088 -0.442 0.31 -0.786 0.368 -0.919 0.809 -0.133 0.442 -0.087 0.038 -0.087 0.569 0 0.531 -0.134 0.17 0.131 0.657 0.265 0.486 0.916 0.719 1.225 0.984 0.309 0.265 0.628 -0.577 1.247 0.219 0.619 0.795 0.658 0.477 0.438 0.919 -0.221 0.442 -0.437 0.589 -0.525 0.766 -0.088 0.177 0.172 0.786 0.481 0.919 0.006 0 0.015 0 0.022 0 -0.016 0.038 -0.027 0.072 -0.044 0.11 -0.401 0.182 -0.892 0.433 -0.984 0.459 -0.219 0.063 -0.991 0.194 -1.553 0.35 -0.07 0.02 -0.126 0.02 -0.153 0.023 0.07 -0.076 0.623 -0.365 0.897 -0.525 0.375 -0.219 -0.022 -0.197 -0.022 -0.197 0 0 -0.597 -0.067 -1.816 -0.067 -0.609 0 -0.873 0.027 -1.01 0.067 -0.066 0.02 -0.099 0.039 -0.131 0.066 -0.032 0.027 -0.055 0.056 -0.109 0.088 -0.219 0.125 0.128 0.256 -0.153 0.35 -0.211 0.07 -0.235 0 -0.416 -0.132 0.129 -0.128 0.306 -0.282 0.525 -0.547 0.398 -0.481 0.524 -0.393 0.656 -0.831 0.133 -0.438 -1.116 -0.306 -1.116 -0.569 0 -0.263 -0.215 -0.437 -0.613 -0.612 -0.398 -0.175 -0.127 -0.263 -0.569 -0.394 -0.442 -0.131 -0.939 0.656 -1.072 0.394 -0.133 -0.263 0.416 -0.263 0.416 -0.569 0 -0.299 -0.63 0.226 -0.744 -0.153 -0.003 -0.014 -0.02 -0.014 -0.022 -0.023 -0.011 -0.055 -0.004 -0.088 0 -0.131 0.028 -0.315 0.392 -0.437 0.547 -0.744 0.177 -0.35 0.085 0.263 0.306 0.569 0.221 0.306 0.133 -0.394 0 -0.787 -0.133 -0.394 0.084 -0.394 0.394 -0.919 0.309 -0.525 0.306 -0.831 0.306 -1.225 0 -0.394 0.214 -0.437 0.656 -0.831 0.203 -0.18 0.361 -0.338 0.481 -0.481 0.029 -0.014 0.058 -0.014 0.088 -0.023 0.469 -0.188 0.666 -0.469 1.072 -1.313 0.406 -0.843 -0.159 -0.056 -0.284 -0.087 -0.125 -0.031 -0.306 -0.253 -0.744 -0.503 -0.09 -0.052 -0.171 -0.076 -0.241 -0.087 l 0.809 -1.334 c 0.259 -0.07 0.538 -0.118 0.809 -0.153 0.099 0.566 0.044 1.094 0.044 1.094 0 0 -0.153 0.181 -0.153 0.306 0 0.125 0.838 -1.031 0.963 -1.094 0.125 -0.063 0.441 0.331 0.503 -0.263 0.004 -0.034 -0.004 -0.035 0 -0.066 z m 1.181 2.362 c -0.045 -0.014 -0.098 0 -0.153 0.023 0 0.155 -0.06 0.267 -0.087 0.328 -0.016 -0.028 -0.066 -0.066 -0.066 -0.066 -0.066 0.122 -0.209 0.23 -0.066 0.197 0.144 -0.032 0.253 0.056 0.153 -0.066 -0.019 -0.023 -0.01 -0.013 -0.022 -0.023 0.019 0.014 0.054 0.023 0.131 0.023 0.087 0 0.134 0 0.197 0 -0.107 0.079 -0.223 0.112 -0.066 0.153 0.21 0.055 0.306 0.066 0.306 0.023 0 -0.044 -0.066 -0.197 -0.066 -0.197 0.041 -0.017 0.079 -0.038 0.044 -0.11 -0.066 -0.132 -0.172 -0.264 -0.306 -0.284 z m 3.347 0.372 c 0.109 0.17 0.214 0.344 0.306 0.525 -0.061 0.353 -0.215 0.591 0.044 0.591 0.072 0 0.137 -0.016 0.197 -0.023 0.008 0.021 0.014 0.045 0.022 0.066 -0.442 0 -0.654 0.132 -0.875 0.088 -0.221 -0.045 -0.835 -0.084 -0.438 -0.481 0.232 -0.233 0.523 -0.602 0.744 -0.766 z m -2.756 0.81 c 0.041 0.013 0.076 0.055 0.109 0.13 0.133 0.31 0.352 0.568 0.175 0.613 -0.177 0.044 -0.263 0.088 -0.263 0.088 0 0 0.612 0.398 0.656 -0.044 0.044 -0.442 -0.175 -0.7 -0.175 -0.7 0 0 0.305 0.305 0.394 0.481 0.088 0.177 0.085 0 0.306 0.219 0.221 0.221 0.172 -0.878 0.481 -0.569 0.309 0.309 0.504 0.304 0.416 0.525 -0.088 0.221 0.569 -0.267 0.569 0.175 0 0.426 0.272 0.599 -0.262 0.809 -0.202 -0.014 -0.362 -0.048 -0.394 -0.11 -0.088 -0.177 -0.591 -0.044 -0.591 -0.044 -1.322 -0.33 -1.896 -0.435 -2.275 -0.372 0.007 -0.014 0.014 -0.014 0.022 -0.023 0.193 -0.348 0.557 -0.832 0.438 -1.01 0.168 -0.097 0.301 -0.203 0.394 -0.175 z m 3.719 2.209 c 0.004 0.089 0 0.173 0 0.263 0 0.249 -0.015 0.503 -0.044 0.744 -0.398 -0.354 -0.963 -0.35 -0.963 -0.35 0 0 0.345 -0.392 0.831 -0.569 0.061 -0.023 0.126 -0.052 0.175 -0.088 z" style="fill:#000;fill-opacity:0.098;color:#000"/>
  <path d="m 12.13 1026.36 c -2.986 0 -6.125 3.14 -6.125 7 c 0 3.86 3.14 7 6.125 7 4.735 0 7.875 -3.14 7.875 -7 0 -3.86 -3.14 -7 -7 -7 z m 1.443 0.985 c 0.652 0.06 1.285 0.209 1.859 0.459 -0.044 0.055 -0.078 0.104 -0.109 0.197 -0.177 0.53 -0.441 0.277 -0.131 0.94 0.309 0.663 0.568 0.834 0.656 0.525 0.088 -0.309 -0.222 -0.745 0.131 -0.569 0.354 0.177 0.615 -0.048 0.35 0.35 -0.265 0.398 -0.259 0.613 -0.569 0.525 -0.309 -0.089 -0.303 0.524 -0.613 0.613 -0.309 0.088 -0.416 -0.133 -0.416 0.088 0 0.221 0.175 0.018 0.131 0.372 -0.013 0.108 -0.009 0.128 -0.022 0.175 -0.29 -0.083 -0.42 -0.129 -0.634 -0.045 -0.221 0.089 -0.481 0.656 -0.481 0.656 0.276 0.276 0.404 0.475 0.503 0.569 -0.062 0.031 -0.136 0.044 -0.197 0.088 -0.442 0.31 -0.786 0.368 -0.919 0.809 -0.133 0.442 -0.087 0.038 -0.087 0.569 0 0.531 -0.134 0.17 0.131 0.657 0.265 0.486 0.916 0.719 1.225 0.984 0.309 0.265 0.628 -0.577 1.247 0.219 0.619 0.795 0.658 0.477 0.438 0.919 -0.221 0.442 -0.437 0.589 -0.525 0.766 -0.088 0.177 0.172 0.786 0.481 0.919 0.006 0 0.015 0 0.022 0 -0.016 0.038 -0.027 0.072 -0.044 0.11 -0.401 0.182 -0.892 0.433 -0.984 0.459 -0.219 0.063 -0.991 0.194 -1.553 0.35 -0.07 0.02 -0.126 0.02 -0.153 0.023 0.07 -0.076 0.623 -0.365 0.897 -0.525 0.375 -0.219 -0.022 -0.197 -0.022 -0.197 0 0 -0.597 -0.067 -1.816 -0.067 -0.609 0 -0.873 0.027 -1.01 0.067 -0.066 0.02 -0.099 0.039 -0.131 0.066 -0.032 0.027 -0.055 0.056 -0.109 0.088 -0.219 0.125 0.128 0.256 -0.153 0.35 -0.211 0.07 -0.235 0 -0.416 -0.132 0.129 -0.128 0.306 -0.282 0.525 -0.547 0.398 -0.481 0.524 -0.393 0.656 -0.831 0.133 -0.438 -1.116 -0.306 -1.116 -0.569 0 -0.263 -0.215 -0.437 -0.613 -0.612 -0.398 -0.175 -0.127 -0.263 -0.569 -0.394 -0.442 -0.131 -0.939 0.656 -1.072 0.394 -0.133 -0.263 0.416 -0.263 0.416 -0.569 0 -0.299 -0.63 0.226 -0.744 -0.153 -0.003 -0.014 -0.02 -0.014 -0.022 -0.023 -0.011 -0.055 -0.004 -0.088 0 -0.131 0.028 -0.315 0.392 -0.437 0.547 -0.744 0.177 -0.35 0.085 0.263 0.306 0.569 0.221 0.306 0.133 -0.394 0 -0.787 -0.133 -0.394 0.084 -0.394 0.394 -0.919 0.309 -0.525 0.306 -0.831 0.306 -1.225 0 -0.394 0.214 -0.437 0.656 -0.831 0.203 -0.18 0.361 -0.338 0.481 -0.481 0.029 -0.014 0.058 -0.014 0.088 -0.023 0.469 -0.188 0.666 -0.469 1.072 -1.313 0.406 -0.843 -0.159 -0.056 -0.284 -0.087 -0.125 -0.031 -0.306 -0.253 -0.744 -0.503 -0.09 -0.052 -0.171 -0.076 -0.241 -0.087 l 0.809 -1.334 c 0.259 -0.07 0.538 -0.118 0.809 -0.153 0.099 0.566 0.044 1.094 0.044 1.094 0 0 -0.153 0.181 -0.153 0.306 0 0.125 0.838 -1.031 0.963 -1.094 0.125 -0.063 0.441 0.331 0.503 -0.263 0.004 -0.034 -0.004 -0.035 0 -0.066 z m 1.181 2.362 c -0.045 -0.014 -0.098 0 -0.153 0.023 0 0.155 -0.06 0.267 -0.087 0.328 -0.016 -0.028 -0.066 -0.066 -0.066 -0.066 -0.066 0.122 -0.209 0.23 -0.066 0.197 0.144 -0.032 0.253 0.056 0.153 -0.066 -0.019 -0.023 -0.01 -0.013 -0.022 -0.023 0.019 0.014 0.054 0.023 0.131 0.023 0.087 0 0.134 0 0.197 0 -0.107 0.079 -0.223 0.112 -0.066 0.153 0.21 0.055 0.306 0.066 0.306 0.023 0 -0.044 -0.066 -0.197 -0.066 -0.197 0.041 -0.017 0.079 -0.038 0.044 -0.11 -0.066 -0.132 -0.172 -0.264 -0.306 -0.284 z m 3.347 0.372 c 0.109 0.17 0.214 0.344 0.306 0.525 -0.061 0.353 -0.215 0.591 0.044 0.591 0.072 0 0.137 -0.016 0.197 -0.023 0.008 0.021 0.014 0.045 0.022 0.066 -0.442 0 -0.654 0.132 -0.875 0.088 -0.221 -0.045 -0.835 -0.084 -0.438 -0.481 0.232 -0.233 0.523 -0.602 0.744 -0.766 z m -2.756 0.81 c 0.041 0.013 0.076 0.055 0.109 0.13 0.133 0.31 0.352 0.568 0.175 0.613 -0.177 0.044 -0.263 0.088 -0.263 0.088 0 0 0.612 0.398 0.656 -0.044 0.044 -0.442 -0.175 -0.7 -0.175 -0.7 0 0 0.305 0.305 0.394 0.481 0.088 0.177 0.085 0 0.306 0.219 0.221 0.221 0.172 -0.878 0.481 -0.569 0.309 0.309 0.504 0.304 0.416 0.525 -0.088 0.221 0.569 -0.267 0.569 0.175 0 0.426 0.272 0.599 -0.262 0.809 -0.202 -0.014 -0.362 -0.048 -0.394 -0.11 -0.088 -0.177 -0.591 -0.044 -0.591 -0.044 -1.322 -0.33 -1.896 -0.435 -2.275 -0.372 0.007 -0.014 0.014 -0.014 0.022 -0.023 0.193 -0.348 0.557 -0.832 0.438 -1.01 0.168 -0.097 0.301 -0.203 0.394 -0.175 z m 3.719 2.209 c 0.004 0.089 0 0.173 0 0.263 0 0.249 -0.015 0.503 -0.044 0.744 -0.398 -0.354 -0.963 -0.35 -0.963 -0.35 0 0 0.345 -0.392 0.831 -0.569 0.061 -0.023 0.126 -0.052 0.175 -0.088 z" style="fill:#fff8e1;opacity:1;fill-opacity:1;color:#000"/>
 </g>
</svg>
