<svg xmlns="http://www.w3.org/2000/svg" viewBox="0 0 48 48">
 <defs>
  <radialGradient r="24" cy="40.5" cx="24" gradientTransform="matrix(1.25,0,0,0.20833327,-6,31.5625)" gradientUnits="userSpaceOnUse" id="radialGradient3281">
   <stop style="stop-color:#000;stop-opacity:1"/>
   <stop offset="1" style="stop-color:#000;stop-opacity:0.196"/>
  </radialGradient>
 </defs>
 <path d="m 24 35 c -9.827 0 -18.528 0.783 -24 2 l 0 6 c 5.472 1.217 14.173 2 24 2 9.827 0 18.528 -0.783 24 -2 l 0 -6 c -5.472 -1.217 -14.173 -2 -24 -2 z" style="fill:url(#radialGradient3281);opacity:0.1;fill-opacity:1;stroke:none"/>
 <rect width="46" height="32" x="1" y="10" rx="5" style="fill:#757575;fill-opacity:1;stroke:none"/>
 <path d="m 6,10 c -2.77,0 -5,2.23 -5,5 l 0,2 c 0,-2.77 2.23,-5 5,-5 l 36,0 c 2.77,0 5,2.23 5,5 l 0,-2 c 0,-2.77 -2.23,-5 -5,-5 L 6,10 z" style="fill:#fff;opacity:0.2;fill-opacity:1;stroke:none"/>
 <path d="m 6,18 8,0 C 25,17 23,6 30,6 l 12,0 c 2.77,0 5,2.23 5,5 l 0,26 c 0,2.77 -2.23,5 -5,5 L 6,42 C 3.23,42 1,39.77 1,37 L 1,23 c 0,-3 2,-5 5,-5 z" style="fill:#bdbdbd;fill-opacity:1;stroke:none"/>
 <path d="m 1,35 0,2 c 0,2.77 2.23,5 5,5 l 36,0 c 2.77,0 5,-2.23 5,-5 l 0,-2 c 0,2.77 -2.23,5 -5,5 L 6,40 C 3.23,40 1,37.77 1,35 z" style="fill:#000;opacity:0.15;fill-opacity:1;stroke:none"/>
 <path d="m 11.625 23 4.688 8 4.688 0 -4.688 -8 -4.688 0 z m -0.75 0.5 -5.125 8 2.563 4 4.969 -7.938 l -2.406 -4.063 z m 0.688 8.5 -2.563 4 9.594 0 2.406 -4 -9.438 0 z" style="fill:#000;fill-opacity:0.098;fill-rule:evenodd"/>
 <path d="m 9 35 2.55 -4 9.45 0 -2.4 4 z" style="fill:#fff8e1;fill-opacity:1;fill-rule:evenodd"/>
 <path d="m 16.318 30 4.682 0 l -4.682 -8 -4.683 0 z" style="fill:#fff8e1;fill-opacity:1;fill-rule:evenodd"/>
 <path d="m 13.278 26.56 -2.416 -4.067 -5.112 8.01 2.556 4 z" style="fill:#fff8e1;fill-opacity:1;fill-rule:evenodd"/>
</svg>
