<svg xmlns="http://www.w3.org/2000/svg" viewBox="0 0 48 48">
 <defs>
  <radialGradient r="24" cy="40.5" cx="24" gradientTransform="matrix(1.25,0,0,0.20833327,-6,1035.9247)" gradientUnits="userSpaceOnUse" id="radialGradient3934">
   <stop style="stop-color:#000;stop-opacity:1"/>
   <stop offset="1" style="stop-color:#000;stop-opacity:0.196"/>
  </radialGradient>
 </defs>
 <g transform="translate(0,-1004.3622)">
  <path d="m 24 1039.36 c -9.827 0 -18.528 0.783 -24 2 l 0 6 c 5.472 1.217 14.173 2 24 2 9.827 0 18.528 -0.783 24 -2 l 0 -6 c -5.472 -1.217 -14.173 -2 -24 -2 z" style="fill:url(#radialGradient3934);opacity:0.1;fill-opacity:1;stroke:none"/>
  <rect width="46" height="32" x="1" y="1014.36" rx="5" style="fill:#e65100;fill-opacity:1;stroke:none"/>
  <path d="m 6 1014.36 c -2.77 0 -5 2.23 -5 5 l 0 2 c 0 -2.77 2.23 -5 5 -5 l 36 0 c 2.77 0 5 2.23 5 5 l 0 -2 c 0 -2.77 -2.23 -5 -5 -5 l -36 0 z" style="fill:#fff;opacity:0.2;fill-opacity:1;stroke:none"/>
  <path d="m 6 1022.36 8 0 c 11 -1 9 -12 16 -12 l 12 0 c 2.77 0 5 2.23 5 5 l 0 26 c 0 2.77 -2.23 5 -5 5 l -36 0 c -2.77 0 -5 -2.23 -5 -5 l 0 -14 c 0 -3 2 -5 5 -5 z" style="fill:#f57c00;fill-opacity:1;stroke:none"/>
  <path d="m 1 1039.36 0 2 c 0 2.77 2.23 5 5 5 l 36 0 c 2.77 0 5 -2.23 5 -5 l 0 -2 c 0 2.77 -2.23 5 -5 5 l -36 0 c -2.77 0 -5 -2.23 -5 -5 z" style="fill:#000;opacity:0.15;fill-opacity:1;stroke:none"/>
  <path d="m 14.71 1028.02 c -1.37 0 -2.5 1.039 -2.5 2.339 0.01 0.446 0.035 1.01 0.296 2.204 l 0.027 0 c 0.053 0.158 0.133 0.315 0.269 0.484 0.121 0.151 0.282 0.324 0.43 0.484 0.046 0.337 0.053 0.632 0 0.995 -0.407 0.309 -1.14 0.597 -1.801 0.86 -0.344 0.137 -0.663 0.264 -0.914 0.43 -0.24 0.159 -0.413 0.374 -0.43 0.645 -0.001 0.013 -0.027 0.014 -0.027 0.027 l -0.296 2.285 0 0.027 c 0 0.283 0.189 0.515 0.457 0.699 0.268 0.184 0.633 0.329 1.075 0.457 0.886 0.257 2.087 0.403 3.414 0.403 1.327 0 2.528 -0.146 3.414 -0.403 0.443 -0.129 0.807 -0.273 1.075 -0.457 0.268 -0.184 0.457 -0.416 0.457 -0.699 l 0 -0.027 -0.323 -2.285 c 0 -0.01 0.001 -0.018 0 -0.027 -0.008 -0.129 -0.055 -0.256 -0.134 -0.35 -0.085 -0.099 -0.197 -0.164 -0.323 -0.242 -0.25 -0.156 -0.569 -0.288 -0.914 -0.43 -0.669 -0.276 -1.401 -0.587 -1.801 -0.914 -0.03 -0.312 -0.031 -0.629 0 -0.941 0.144 -0.171 0.307 -0.347 0.43 -0.511 0.137 -0.183 0.241 -0.348 0.296 -0.511 0.294 -1.243 0.307 -1.75 0.323 -2.204 0 -1.3 -1.13 -2.339 -2.5 -2.339 z m -4.651 0.43 c -1.125 0 -2.043 0.869 -2.043 1.936 0.008 0.366 0.028 0.795 0.242 1.774 l 0 0.027 c 0.044 0.131 0.129 0.236 0.242 0.376 0.099 0.123 0.23 0.274 0.349 0.403 0.036 0.27 0.041 0.543 0 0.833 -0.332 0.255 -0.934 0.484 -1.479 0.699 -0.282 0.111 -0.52 0.214 -0.726 0.35 -0.195 0.128 -0.333 0.319 -0.349 0.538 -0.001 0.013 -0.027 0.014 -0.027 0.027 l -0.269 1.854 l 0 0.027 c 0 0.175 0.083 0.325 0.215 0.457 0.132 0.132 0.314 0.252 0.538 0.349 0.44 0.192 1.068 0.325 1.828 0.403 l 0.027 0 c 0.041 0 0.082 -0.011 0.108 -0.027 0.031 -0.02 0.067 -0.035 0.081 -0.053 0.027 -0.037 0.042 -0.074 0.054 -0.108 0.02 -0.059 0.024 -0.128 0.027 -0.188 0 -0.01 0 -0.018 0 -0.027 l 0.296 -2.285 c 0 -0.094 0.064 -0.206 0.215 -0.323 0.151 -0.117 0.379 -0.234 0.645 -0.35 0.532 -0.231 1.208 -0.445 1.747 -0.726 l 0.296 -0.161 -0.296 -0.134 c -0.213 -0.104 -0.376 -0.217 -0.511 -0.323 -0.026 -0.265 -0.028 -0.542 0 -0.806 0.001 -0.01 -0.001 -0.018 0 -0.027 0.205 -0.276 0.361 -0.563 0.43 -0.726 l 0.027 -0.053 -0.027 -0.053 c -0.023 -0.133 -0.016 -0.235 -0.054 -0.349 -0.258 -1.179 -0.286 -1.665 -0.296 -2.097 0 -0.181 0.043 -0.392 0.108 -0.591 l 0.054 -0.108 -0.108 -0.053 c -0.359 -0.287 -0.834 -0.484 -1.344 -0.484 z" style="fill:#000;fill-opacity:0.098;color:#000"/>
  <path d="m 14.71 1027.02 c -1.37 0 -2.5 1.039 -2.5 2.339 0.01 0.446 0.035 1.01 0.296 2.204 l 0.027 0 c 0.053 0.158 0.133 0.315 0.269 0.484 0.121 0.151 0.282 0.324 0.43 0.484 0.046 0.337 0.053 0.632 0 0.995 -0.407 0.309 -1.14 0.597 -1.801 0.86 -0.344 0.137 -0.663 0.264 -0.914 0.43 -0.24 0.159 -0.413 0.374 -0.43 0.645 -0.001 0.013 -0.027 0.014 -0.027 0.027 l -0.296 2.285 0 0.027 c 0 0.283 0.189 0.515 0.457 0.699 0.268 0.184 0.633 0.329 1.075 0.457 0.886 0.257 2.087 0.403 3.414 0.403 1.327 0 2.528 -0.146 3.414 -0.403 0.443 -0.129 0.807 -0.273 1.075 -0.457 0.268 -0.184 0.457 -0.416 0.457 -0.699 l 0 -0.027 -0.323 -2.285 c 0 -0.01 0.001 -0.018 0 -0.027 -0.008 -0.129 -0.055 -0.256 -0.134 -0.35 -0.085 -0.099 -0.197 -0.164 -0.323 -0.242 -0.25 -0.156 -0.569 -0.288 -0.914 -0.43 -0.669 -0.276 -1.401 -0.587 -1.801 -0.914 -0.03 -0.312 -0.031 -0.629 0 -0.941 0.144 -0.171 0.307 -0.347 0.43 -0.511 0.137 -0.183 0.241 -0.348 0.296 -0.511 0.294 -1.243 0.307 -1.75 0.323 -2.204 0 -1.3 -1.13 -2.339 -2.5 -2.339 z m -4.651 0.43 c -1.125 0 -2.043 0.869 -2.043 1.936 0.008 0.366 0.028 0.795 0.242 1.774 l 0 0.027 c 0.044 0.131 0.129 0.236 0.242 0.376 0.099 0.123 0.23 0.274 0.349 0.403 0.036 0.27 0.041 0.543 0 0.833 -0.332 0.255 -0.934 0.484 -1.479 0.699 -0.282 0.111 -0.52 0.214 -0.726 0.35 -0.195 0.128 -0.333 0.319 -0.349 0.538 -0.001 0.013 -0.027 0.014 -0.027 0.027 l -0.269 1.854 l 0 0.027 c 0 0.175 0.083 0.325 0.215 0.457 0.132 0.132 0.314 0.252 0.538 0.349 0.44 0.192 1.068 0.325 1.828 0.403 l 0.027 0 c 0.041 0 0.082 -0.011 0.108 -0.027 0.031 -0.02 0.067 -0.035 0.081 -0.053 0.027 -0.037 0.042 -0.074 0.054 -0.108 0.02 -0.059 0.024 -0.128 0.027 -0.188 0 -0.01 0 -0.018 0 -0.027 l 0.296 -2.285 c 0 -0.094 0.064 -0.206 0.215 -0.323 0.151 -0.117 0.379 -0.234 0.645 -0.35 0.532 -0.231 1.208 -0.445 1.747 -0.726 l 0.296 -0.161 -0.296 -0.134 c -0.213 -0.104 -0.376 -0.217 -0.511 -0.323 -0.026 -0.265 -0.028 -0.542 0 -0.806 0.001 -0.01 -0.001 -0.018 0 -0.027 0.205 -0.276 0.361 -0.563 0.43 -0.726 l 0.027 -0.053 -0.027 -0.053 c -0.023 -0.133 -0.016 -0.235 -0.054 -0.349 -0.258 -1.179 -0.286 -1.665 -0.296 -2.097 0 -0.181 0.043 -0.392 0.108 -0.591 l 0.054 -0.108 -0.108 -0.053 c -0.359 -0.287 -0.834 -0.484 -1.344 -0.484 z" style="fill:#fff8e1;fill-opacity:1;color:#000"/>
 </g>
</svg>
