<svg xmlns="http://www.w3.org/2000/svg" viewBox="0 0 48 48">
 <defs>
  <radialGradient r="24" cy="40.5" cx="24" gradientTransform="matrix(1.25,0,0,0.20833327,-6,1035.9247)" gradientUnits="userSpaceOnUse" id="radialGradient3179">
   <stop style="stop-color:#000;stop-opacity:1"/>
   <stop offset="1" style="stop-color:#000;stop-opacity:0.196"/>
  </radialGradient>
 </defs>
 <g transform="translate(0,-1004.3622)">
  <path d="m 24 1039.36 c -9.827 0 -18.528 0.783 -24 2 l 0 6 c 5.472 1.217 14.173 2 24 2 9.827 0 18.528 -0.783 24 -2 l 0 -6 c -5.472 -1.217 -14.173 -2 -24 -2 z" style="fill:url(#radialGradient3179);opacity:0.1;fill-opacity:1;stroke:none"/>
  <rect width="46" height="32" x="1" y="1014.36" rx="5" style="fill:#ec407a;fill-opacity:1;stroke:none"/>
  <path d="m 6 1014.36 c -2.77 0 -5 2.23 -5 5 l 0 2 c 0 -2.77 2.23 -5 5 -5 l 36 0 c 2.77 0 5 2.23 5 5 l 0 -2 c 0 -2.77 -2.23 -5 -5 -5 l -36 0 z" style="fill:#fff;opacity:0.2;fill-opacity:1;stroke:none"/>
  <path d="m 6 1022.36 8 0 c 11 -1 9 -12 16 -12 l 12 0 c 2.77 0 5 2.23 5 5 l 0 26 c 0 2.77 -2.23 5 -5 5 l -36 0 c -2.77 0 -5 -2.23 -5 -5 l 0 -14 c 0 -3 2 -5 5 -5 z" style="fill:#f06292;fill-opacity:1;stroke:none"/>
  <path d="m 1 1039.36 0 2 c 0 2.77 2.23 5 5 5 l 36 0 c 2.77 0 5 -2.23 5 -5 l 0 -2 c 0 2.77 -2.23 5 -5 5 l -36 0 c -2.77 0 -5 -2.23 -5 -5 z" style="fill:#000;opacity:0.15;fill-opacity:1;stroke:none"/>
  <path d="m 7.313 1033.06 c -0.725 0 -1.313 0.579 -1.313 1.295 c 0 0.715 0.588 1.294 1.313 1.294 0.725 0 1.313 -0.58 1.313 -1.294 0 -0.715 -0.588 -1.295 -1.313 -1.295 z m 9.375 5.883 c -0.628 0.358 -0.843 1.149 -0.481 1.768 0.363 0.619 1.165 0.831 1.793 0.474 0.628 -0.358 0.843 -1.149 0.48 -1.768 -0.362 -0.619 -1.165 -0.831 -1.793 -0.474 z m -6.523 -4.589 c 0 -1.279 0.645 -2.409 1.631 -3.093 l -0.96 -1.585 c -1.149 0.757 -2 1.914 -2.359 3.269 0.415 0.333 0.68 0.841 0.68 1.41 0 0.569 -0.265 1.076 -0.68 1.41 0.355 1.355 1.21 2.513 2.359 3.269 l 0.96 -1.585 c -0.986 -0.684 -1.631 -1.814 -1.631 -3.094 z m 3.835 -3.781 c 2 0 3.647 1.515 3.82 3.446 l 1.871 -0.027 c -0.092 -1.426 -0.724 -2.707 -1.695 -3.648 -0.499 0.186 -1.076 0.158 -1.574 -0.126 -0.499 -0.284 -0.812 -0.763 -0.898 -1.283 -0.485 -0.132 -0.996 -0.205 -1.524 -0.205 -0.908 0 -1.766 0.21 -2.528 0.582 l 0.912 1.612 c 0.491 -0.225 1.038 -0.352 1.616 -0.352 z m 0 7.563 c -0.577 0 -1.125 -0.127 -1.616 -0.352 l -0.912 1.612 c 0.762 0.372 1.62 0.582 2.528 0.582 0.528 0 1.039 -0.072 1.524 -0.205 0.086 -0.52 0.399 -0.999 0.898 -1.283 0.498 -0.284 1.075 -0.312 1.574 -0.126 0.971 -0.941 1.603 -2.222 1.695 -3.648 l -1.871 -0.027 c -0.172 1.932 -1.816 3.446 -3.819 3.446 z m 2.687 -8.371 c 0.628 0.358 1.431 0.146 1.793 -0.474 0.363 -0.619 0.148 -1.41 -0.48 -1.768 -0.628 -0.357 -1.431 -0.145 -1.793 0.474 -0.362 0.619 -0.147 1.41 0.48 1.768 z" style="fill:#000;fill-opacity:0.098;color:#000"/>
  <path d="m 7.313 1032.06 c -0.725 0 -1.313 0.579 -1.313 1.295 c 0 0.715 0.588 1.294 1.313 1.294 0.725 0 1.313 -0.58 1.313 -1.294 0 -0.715 -0.588 -1.295 -1.313 -1.295 z m 9.375 5.883 c -0.628 0.358 -0.843 1.149 -0.481 1.768 0.363 0.619 1.165 0.831 1.793 0.474 0.628 -0.358 0.843 -1.149 0.48 -1.768 -0.362 -0.619 -1.165 -0.831 -1.793 -0.474 z m -6.523 -4.589 c 0 -1.279 0.645 -2.409 1.631 -3.093 l -0.96 -1.585 c -1.149 0.757 -2 1.914 -2.359 3.269 0.415 0.333 0.68 0.841 0.68 1.41 0 0.569 -0.265 1.076 -0.68 1.41 0.355 1.355 1.21 2.513 2.359 3.269 l 0.96 -1.585 c -0.986 -0.684 -1.631 -1.814 -1.631 -3.094 z m 3.835 -3.781 c 2 0 3.647 1.515 3.819 3.446 l 1.871 -0.027 c -0.092 -1.426 -0.724 -2.707 -1.695 -3.648 -0.499 0.186 -1.076 0.158 -1.574 -0.126 -0.499 -0.284 -0.812 -0.763 -0.898 -1.283 -0.485 -0.132 -0.996 -0.205 -1.524 -0.205 -0.908 0 -1.766 0.21 -2.528 0.582 l 0.912 1.612 c 0.491 -0.225 1.038 -0.352 1.616 -0.352 z m 0 7.563 c -0.577 0 -1.125 -0.127 -1.616 -0.352 l -0.912 1.612 c 0.762 0.372 1.62 0.582 2.528 0.582 0.528 0 1.039 -0.072 1.524 -0.205 0.086 -0.52 0.399 -0.999 0.898 -1.283 0.498 -0.284 1.075 -0.312 1.574 -0.126 0.971 -0.941 1.603 -2.222 1.695 -3.648 l -1.871 -0.027 c -0.172 1.932 -1.816 3.446 -3.819 3.446 z m 2.687 -8.371 c 0.628 0.358 1.431 0.146 1.793 -0.474 0.363 -0.619 0.148 -1.41 -0.48 -1.768 -0.628 -0.357 -1.431 -0.145 -1.793 0.474 -0.362 0.619 -0.147 1.41 0.48 1.768 z" style="fill:#fff8e1;opacity:1;fill-opacity:1;color:#000"/>
 </g>
</svg>
