<svg xmlns="http://www.w3.org/2000/svg" viewBox="0 0 48 48">
 <defs>
  <radialGradient r="24" cy="40.5" cx="24" gradientTransform="matrix(1.25,0,0,0.20833327,-6,1035.9247)" gradientUnits="userSpaceOnUse" id="radialGradient3051">
   <stop style="stop-color:#000;stop-opacity:1"/>
   <stop offset="1" style="stop-color:#000;stop-opacity:0.196"/>
  </radialGradient>
 </defs>
 <g transform="translate(0,-1004.3622)">
  <path d="m 24 1039.36 c -9.827 0 -18.528 0.783 -24 2 l 0 6 c 5.472 1.217 14.173 2 24 2 9.827 0 18.528 -0.783 24 -2 l 0 -6 c -5.472 -1.217 -14.173 -2 -24 -2 z" style="fill:url(#radialGradient3051);opacity:0.1;fill-opacity:1;stroke:none"/>
  <rect width="46" height="32" x="1" y="1014.36" rx="5" style="fill:#ec407a;fill-opacity:1;stroke:none"/>
  <path d="m 6 1014.36 c -2.77 0 -5 2.23 -5 5 l 0 2 c 0 -2.77 2.23 -5 5 -5 l 36 0 c 2.77 0 5 2.23 5 5 l 0 -2 c 0 -2.77 -2.23 -5 -5 -5 l -36 0 z" style="fill:#fff;opacity:0.2;fill-opacity:1;stroke:none"/>
  <path d="m 6 1022.36 8 0 c 11 -1 9 -12 16 -12 l 12 0 c 2.77 0 5 2.23 5 5 l 0 26 c 0 2.77 -2.23 5 -5 5 l -36 0 c -2.77 0 -5 -2.23 -5 -5 l 0 -14 c 0 -3 2 -5 5 -5 z" style="fill:#f06292;fill-opacity:1;stroke:none"/>
  <path d="m 1 1039.36 0 2 c 0 2.77 2.23 5 5 5 l 36 0 c 2.77 0 5 -2.23 5 -5 l 0 -2 c 0 2.77 -2.23 5 -5 5 l -36 0 c -2.77 0 -5 -2.23 -5 -5 z" style="fill:#000;opacity:0.15;fill-opacity:1;stroke:none"/>
  <path d="m 9.75 1027.36 c -0.702 0 -1.315 0.406 -1.594 1 l 9.688 0 c -0.279 -0.594 -0.891 -1 -1.594 -1 l -6.5 0 z m -1.75 2 0 10 10 0 0 -10 -10 0 z m 2 1 6 0 0 1 -6 0 0 -1 z m 0 2 6 0 0 1 -6 0 0 -1 z m 3 4 c 0.552 0 1 0.448 1 1 0 0.552 -0.448 1 -1 1 -0.552 0 -1 -0.448 -1 -1 0 -0.552 0.448 -1 1 -1 z m -4.844 4 c 0.279 0.594 0.891 1 1.594 1 l 6.5 0 c 0.702 0 1.315 -0.406 1.594 -1 l -9.688 0 z" style="fill:#000;fill-opacity:0.098"/>
  <path d="m 9.75 22 c -0.702 0 -1.315 0.406 -1.594 1 l 9.688 0 c -0.279 -0.594 -0.891 -1 -1.594 -1 l -6.5 0 z m -1.75 2 l 0 10 l 10 0 l 0 -10 l -10 0 z m 2 1 l 6 0 l 0 1 l -6 0 l 0 -1 z m 0 2 l 6 0 l 0 1 l -6 0 l 0 -1 z m 3 4 c 0.552 0 1 0.448 1 1 c 0 0.552 -0.448 1 -1 1 c -0.552 0 -1 -0.448 -1 -1 c 0 -0.552 0.448 -1 1 -1 z m -4.844 4 c 0.279 0.594 0.891 1 1.594 1 l 6.5 0 c 0.702 0 1.315 -0.406 1.594 -1 l -9.688 0 z" transform="translate(0,1004.3622)" style="fill:#fff8e1;fill-opacity:1"/>
 </g>
</svg>
