<svg xmlns="http://www.w3.org/2000/svg" viewBox="0 0 48 48">
 <defs>
  <radialGradient r="24" cy="40.5" cx="24" gradientTransform="matrix(1.25,0,0,0.20833327,-6,1035.9247)" gradientUnits="userSpaceOnUse" id="radialGradient3150">
   <stop style="stop-color:#000;stop-opacity:1"/>
   <stop offset="1" style="stop-color:#000;stop-opacity:0.196"/>
  </radialGradient>
 </defs>
 <g transform="translate(0,-1004.3622)">
  <path d="m 24 1039.36 c -9.827 0 -18.528 0.783 -24 2 l 0 6 c 5.472 1.217 14.173 2 24 2 9.827 0 18.528 -0.783 24 -2 l 0 -6 c -5.472 -1.217 -14.173 -2 -24 -2 z" style="fill:url(#radialGradient3150);opacity:0.1;fill-opacity:1;stroke:none"/>
  <rect width="46" height="32" x="1" y="1014.36" rx="5" style="fill:#512da8;fill-opacity:1;stroke:none"/>
  <path d="m 6 1014.36 c -2.77 0 -5 2.23 -5 5 l 0 2 c 0 -2.77 2.23 -5 5 -5 l 36 0 c 2.77 0 5 2.23 5 5 l 0 -2 c 0 -2.77 -2.23 -5 -5 -5 l -36 0 z" style="fill:#fff;opacity:0.2;fill-opacity:1;stroke:none"/>
  <path d="m 6 1022.36 8 0 c 11 -1 9 -12 16 -12 l 12 0 c 2.77 0 5 2.23 5 5 l 0 26 c 0 2.77 -2.23 5 -5 5 l -36 0 c -2.77 0 -5 -2.23 -5 -5 l 0 -14 c 0 -3 2 -5 5 -5 z" style="fill:#7e57c2;fill-opacity:1;stroke:none"/>
  <path d="m 1 1039.36 0 2 c 0 2.77 2.23 5 5 5 l 36 0 c 2.77 0 5 -2.23 5 -5 l 0 -2 c 0 2.77 -2.23 5 -5 5 l -36 0 c -2.77 0 -5 -2.23 -5 -5 z" style="fill:#000;opacity:0.15;fill-opacity:1;stroke:none"/>
  <path d="m 7.75 1027.36 c -0.97 0 -1.75 0.781 -1.75 1.75 l 0 10.5 c 0 0.969 0.781 1.75 1.75 1.75 l 10.5 0 c 0.97 0 1.75 -0.781 1.75 -1.75 l 0 -10.5 c 0 -0.969 -0.781 -1.75 -1.75 -1.75 z m 0.25 2 2 0 0 2 -2 0 z m 8 0 2 0 0 2 -2 0 z m -8 4 2 0 0 2 -2 0 z m 8 0 2 0 0 2 -2 0 z m -8 4 2 0 0 2 -2 0 z m 8 0 2 0 0 2 -2 0 z" style="fill:#000;fill-opacity:0.098"/>
  <path d="m 7.75 1026.36 c -0.97 0 -1.75 0.781 -1.75 1.75 l 0 10.5 c 0 0.969 0.781 1.75 1.75 1.75 l 10.5 0 c 0.97 0 1.75 -0.781 1.75 -1.75 l 0 -10.5 c 0 -0.969 -0.781 -1.75 -1.75 -1.75 z m 0.25 2 2 0 0 2 -2 0 z m 8 0 2 0 0 2 -2 0 z m -8 4 2 0 0 2 -2 0 z m 8 0 2 0 0 2 -2 0 z m -8 4 2 0 0 2 -2 0 z m 8 0 2 0 0 2 -2 0 z" style="fill:#fff8e1;opacity:1;fill-opacity:1"/>
 </g>
</svg>
