<svg version="1.1" viewBox="0 0 48 48" xmlns="http://www.w3.org/2000/svg">
 <defs>
  <radialGradient id="radialGradient3092" cx="24" cy="40.5" r="24" gradientTransform="matrix(1.25 0 0 .20833327 -6 1035.9247)" gradientUnits="userSpaceOnUse">
   <stop offset="0"/>
   <stop style="stop-opacity:.196" offset="1"/>
  </radialGradient>
 </defs>
 <g transform="translate(0,-1004.3622)">
  <path d="m24 1039.36c-9.827 0-18.528 0.783-24 2v6c5.472 1.217 14.173 2 24 2s18.528-0.783 24-2v-6c-5.472-1.217-14.173-2-24-2z" style="fill:url(#radialGradient3092);opacity:.1"/>
  <rect x="1" y="1014.36" width="46" height="32" rx="5" style="fill:#d32f2f"/>
  <path d="m6 1014.36c-2.77 0-5 2.23-5 5v2c0-2.77 2.23-5 5-5h36c2.77 0 5 2.23 5 5v-2c0-2.77-2.23-5-5-5h-36z" style="fill:#fff;opacity:.2"/>
  <path d="m6 1022.36h8c11-1 9-12 16-12h12c2.77 0 5 2.23 5 5v26c0 2.77-2.23 5-5 5h-36c-2.77 0-5-2.23-5-5v-14c0-3 2-5 5-5z" style="fill:#ef5350"/>
  <path d="m1 1039.36v2c0 2.77 2.23 5 5 5h36c2.77 0 5-2.23 5-5v-2c0 2.77-2.23 5-5 5h-36c-2.77 0-5-2.23-5-5z" style="opacity:.15"/>
  <path d="m8.6159483 1028.3623c-0.1069228 0-0.2139742 0.059-0.2539011 0.1781l-1.2750472 3.8218h3.188l-1.4051495-3.8218c-0.03994-0.1188-0.1469809-0.1781-0.2539022-0.1781zm1.6590517 3.9999 2.725 8 2.725-8zm5.45 0h3.188l-1.275046-3.8218c-0.07985-0.2376-0.427909-0.2376-0.507803 0zm3.188 0-5.913 8 6.779853-4.2947c0.187076-0.1313 0.265448-0.3641 0.194007-0.5767zm-5.913 8-5.913-8-1.0608608 3.1286c-0.071441 0.2126 0.00692 0.4454 0.1940108 0.5767z" style="-inkscape-stroke:none;fill-opacity:.098;font-variation-settings:normal;stop-color:#000000"/>
  <path d="m8.6159483 1027.3623c-0.1069228 0-0.2139742 0.059-0.2539011 0.1781l-1.2750472 3.8218h3.188l-1.4051495-3.8218c-0.03994-0.1188-0.1469809-0.1781-0.2539022-0.1781zm1.6590517 3.9999 2.725 8 2.725-8zm5.45 0h3.188l-1.275046-3.8218c-0.07985-0.2376-0.427909-0.2376-0.507803 0zm3.188 0-5.913 8 6.779853-4.2947c0.187076-0.1313 0.265448-0.3641 0.194007-0.5767zm-5.913 8-5.913-8-1.0608608 3.1286c-0.071441 0.2126 0.00692 0.4454 0.1940108 0.5767z" style="-inkscape-stroke:none;fill:#fff8e1;font-variation-settings:normal;stop-color:#000000"/>
 </g>
</svg>
