<?xml version="1.0" encoding="UTF-8"?>
<svg xmlns="http://www.w3.org/2000/svg" xmlns:xlink="http://www.w3.org/1999/xlink" viewBox="0 0 100 100" width="100px" height="100px">
<g id="surface84670">
<path style=" stroke:none;fill-rule:nonzero;fill:rgb(79.215688%,79.607844%,78.039217%);fill-opacity:1;" d="M 87.8125 91.574219 C 81.789062 88.972656 74.351562 86.527344 65.722656 85.089844 C 63.351562 84.695312 61.667969 82.433594 62.074219 80.066406 C 62.320312 78.652344 62.445312 77.175781 62.445312 75.628906 C 62.445312 65.839844 57.207031 57.890625 50.773438 57.890625 C 44.296875 57.890625 39.058594 65.839844 39.058594 75.628906 C 39.058594 77.101562 39.179688 78.542969 39.414062 79.921875 C 39.808594 82.300781 38.125 84.570312 35.742188 84.945312 C 26.753906 86.359375 19.035156 88.925781 12.773438 91.621094 C 8.960938 92.171875 5.882812 87.808594 8.132812 84.316406 C 8.683594 83.488281 9.238281 82.617188 9.742188 81.742188 C 11.074219 79.628906 12.410156 77.511719 13.691406 75.308594 C 19.574219 65.613281 25.453125 55.085938 31.152344 43.785156 C 31.292969 43.507812 31.429688 43.183594 31.566406 42.910156 C 32.761719 40.566406 33.910156 38.222656 35.011719 35.878906 C 35.5625 34.773438 36.117188 33.625 36.621094 32.519531 C 37.496094 33.070312 38.367188 33.710938 39.378906 34.359375 C 40.480469 35.042969 41.566406 35.652344 42.625 36.199219 C 46.09375 48.429688 57.363281 57.414062 70.6875 57.414062 C 72.621094 57.414062 74.511719 57.222656 76.339844 56.863281 C 76.597656 57.328125 76.851562 57.792969 77.109375 58.253906 C 79.3125 62.339844 81.566406 66.296875 83.863281 70.113281 C 84.644531 71.539062 85.472656 72.917969 86.347656 74.296875 C 86.941406 75.261719 87.496094 76.226562 88.089844 77.144531 L 88.042969 77.144531 C 86.433594 76.273438 84.6875 75.445312 82.804688 74.707031 C 79.542969 73.421875 76.507812 72.640625 73.886719 72.179688 C 77.472656 73.972656 81.609375 76.316406 85.929688 79.441406 C 88.597656 81.417969 90.984375 83.347656 93.003906 85.277344 C 94.199219 88.585938 91.304688 92.171875 87.8125 91.574219 Z M 38.917969 27.511719 C 41.074219 22.734375 43.144531 18.046875 44.984375 13.496094 C 45.304688 12.761719 45.625 12.023438 45.902344 11.335938 C 46.558594 9.714844 47.863281 8.75 49.292969 8.441406 C 44.472656 13.648438 41.519531 20.609375 41.519531 28.246094 C 41.519531 29.085938 41.558594 29.914062 41.625 30.738281 C 40.648438 29.652344 39.746094 28.574219 38.917969 27.511719 Z M 38.917969 27.511719 "/>
<path style=" stroke:none;fill-rule:nonzero;fill:rgb(90.588236%,29.803923%,23.529412%);fill-opacity:1;" d="M 70.6875 7.414062 C 59.230469 7.414062 49.855469 16.789062 49.855469 28.246094 C 49.855469 39.703125 59.230469 49.078125 70.6875 49.078125 C 82.144531 49.078125 91.519531 39.703125 91.519531 28.246094 C 91.519531 16.789062 82.144531 7.414062 70.6875 7.414062 Z M 73.339844 39.460938 C 73.203125 39.8125 73.015625 40.113281 72.769531 40.367188 C 72.519531 40.621094 72.222656 40.824219 71.867188 40.96875 C 71.515625 41.109375 71.121094 41.179688 70.6875 41.179688 C 70.25 41.179688 69.859375 41.109375 69.503906 40.960938 C 69.160156 40.824219 68.855469 40.621094 68.609375 40.367188 C 68.363281 40.113281 68.175781 39.8125 68.039062 39.460938 C 67.902344 39.113281 67.832031 38.742188 67.832031 38.347656 C 67.832031 37.933594 67.90625 37.554688 68.039062 37.207031 C 68.175781 36.859375 68.367188 36.558594 68.613281 36.304688 C 68.859375 36.050781 69.164062 35.847656 69.507812 35.695312 C 69.863281 35.546875 70.253906 35.472656 70.6875 35.472656 C 71.121094 35.472656 71.515625 35.546875 71.867188 35.695312 C 72.222656 35.847656 72.519531 36.046875 72.769531 36.300781 C 73.015625 36.554688 73.207031 36.855469 73.34375 37.203125 C 73.476562 37.550781 73.546875 37.929688 73.546875 38.34375 C 73.542969 38.742188 73.476562 39.113281 73.339844 39.460938 Z M 73.113281 32.355469 L 68.261719 32.355469 L 67.574219 15.746094 L 73.804688 15.746094 Z M 73.113281 32.355469 "/>
</g>
</svg>
