<svg id="SvgjsSvg1059" width="288" height="288" xmlns="http://www.w3.org/2000/svg" version="1.1" xmlns:xlink="http://www.w3.org/1999/xlink" xmlns:svgjs="http://svgjs.com/svgjs"><defs id="SvgjsDefs1060"></defs><g id="SvgjsG1061"><svg xmlns="http://www.w3.org/2000/svg" width="288" height="288" viewBox="0 0 48 48"><path fill-opacity=".3" d="M31.33 8h-3.33v-4h-8v4h-3.33c-1.48 0-2.67 1.19-2.67 2.67v5.33h10.93l1.07-2v2h8v-5.33c0-1.48-1.19-2.67-2.67-2.67z" fill="#cacbc7" class="color000 svgShape"></path><path d="M26 25h4l-8 15v-11h-4l6.93-13h-10.93v25.33c0 1.47 1.19 2.67 2.67 2.67h14.67c1.47 0 2.67-1.19 2.67-2.67v-25.33h-8v9z" fill="#cacbc7" class="color000 svgShape"></path><path fill="none" d="M0 0h48v48h-48z"></path></svg></g></svg>