<svg id="SvgjsSvg1038" width="288" height="288" xmlns="http://www.w3.org/2000/svg" version="1.1" xmlns:xlink="http://www.w3.org/1999/xlink" xmlns:svgjs="http://svgjs.com/svgjs"><defs id="SvgjsDefs1039"></defs><g id="SvgjsG1040"><svg xmlns="http://www.w3.org/2000/svg" width="288" height="288" viewBox="0 0 48 48"><path fill="none" d="M0 0h48v48h-48zm18 29h4v11l6.93-13h-9.86zm8-4v-11l-5.87 11-1.06 2h9.86l1.07-2z"></path><path d="M28.93 27l-6.93 13v-11h-4l1.07-2h-5.07v14.33c0 1.47 1.19 2.67 2.67 2.67h14.67c1.47 0 2.67-1.19 2.67-2.67v-14.33h-5.08z" fill="#cacbc7" class="color000 svgShape"></path><path fill-opacity=".3" d="M31.33 8h-3.33v-4h-8v4h-3.33c-1.48 0-2.67 1.19-2.67 2.67v16.33h5.07l6.93-13v11h4l-1.07 2h5.07v-16.33c0-1.48-1.19-2.67-2.67-2.67z" fill="#cacbc7" class="color000 svgShape"></path></svg></g></svg>