<svg id="SvgjsSvg1045" width="288" height="288" xmlns="http://www.w3.org/2000/svg" version="1.1" xmlns:xlink="http://www.w3.org/1999/xlink" xmlns:svgjs="http://svgjs.com/svgjs"><defs id="SvgjsDefs1046"></defs><g id="SvgjsG1047"><svg xmlns="http://www.w3.org/2000/svg" width="288" height="288" viewBox="0 0 48 48"><path d="M22 40v-6h-8v7.33c0 1.47 1.19 2.67 2.67 2.67h14.67c1.47 0 2.67-1.19 2.67-2.67v-7.33h-8.8l-3.21 6z" fill="#cacbc7" class="color000 svgShape"></path><path fill-opacity=".3" d="M31.33 8h-3.33v-4h-8v4h-3.33c-1.48 0-2.67 1.19-2.67 2.67v23.33h8v-5h-4l8-15v11h4l-4.8 9h8.8v-23.33c0-1.48-1.19-2.67-2.67-2.67z" fill="#cacbc7" class="color000 svgShape"></path><path fill="none" d="M0 0h48v48h-48z"></path></svg></g></svg>