<svg id="SvgjsSvg1085" width="288" height="288" xmlns="http://www.w3.org/2000/svg" version="1.1" xmlns:xlink="http://www.w3.org/1999/xlink" xmlns:svgjs="http://svgjs.com/svgjs"><defs id="SvgjsDefs1086"></defs><g id="SvgjsG1087"><svg xmlns="http://www.w3.org/2000/svg" width="288" height="288" viewBox="0 0 24 24"><path fill="none" d="M0 0h24v24H0V0z"></path><path d="M20 15.31l1.9-1.9c.78-.78.78-2.05 0-2.83L20 8.69V6c0-1.1-.9-2-2-2h-2.69l-1.9-1.9c-.78-.78-2.05-.78-2.83 0L8.69 4H6c-1.1 0-2 .9-2 2v2.69l-1.9 1.9c-.78.78-.78 2.05 0 2.83l1.9 1.9V18c0 1.1.9 2 2 2h2.69l1.9 1.9c.78.78 2.05.78 2.83 0l1.9-1.9H18c1.1 0 2-.9 2-2v-2.69zM12 18c-3.31 0-6-2.69-6-6s2.69-6 6-6 6 2.69 6 6-2.69 6-6 6z" fill="#cacbc7" class="color000 svgShape"></path></svg></g></svg>