<svg id="SvgjsSvg1011" width="288" height="288" xmlns="http://www.w3.org/2000/svg" version="1.1" xmlns:xlink="http://www.w3.org/1999/xlink" xmlns:svgjs="http://svgjs.com/svgjs"><defs id="SvgjsDefs1012"></defs><g id="SvgjsG1013"><svg xmlns="http://www.w3.org/2000/svg" width="288" height="288" baseProfile="tiny" version="1.2" viewBox="0 0 24 24"><path d="M13.414 19.412a1.994 1.994 0 0 0 0-2.826 1.994 1.994 0 0 0-2.828-.002 2 2 0 1 0 2.828 2.828zm7.071-7.897a1.99 1.99 0 0 1-1.414-.586c-3.899-3.899-10.243-3.898-14.143 0A2 2 0 0 1 2.099 8.1c5.459-5.458 14.341-5.458 19.799 0a2 2 0 0 1-1.413 3.415zM7.757 15.757a2 2 0 0 1-1.414-3.414c3.118-3.119 8.194-3.119 11.313 0a2 2 0 0 1-2.829 2.829 4.005 4.005 0 0 0-5.657 0 1.99 1.99 0 0 1-1.413.585z" fill="#cacbc7" class="color000 svgShape"></path></svg></g></svg>