<?xml version="1.0" encoding="UTF-8" standalone="no"?>
<!-- Created with Inkscape (http://www.inkscape.org/) -->

<svg
   xmlns:dc="http://purl.org/dc/elements/1.1/"
   xmlns:cc="http://creativecommons.org/ns#"
   xmlns:rdf="http://www.w3.org/1999/02/22-rdf-syntax-ns#"
   xmlns:svg="http://www.w3.org/2000/svg"
   xmlns="http://www.w3.org/2000/svg"
   xmlns:sodipodi="http://sodipodi.sourceforge.net/DTD/sodipodi-0.dtd"
   xmlns:inkscape="http://www.inkscape.org/namespaces/inkscape"
   width="96"
   height="64"
   viewBox="0 0 25.399999 16.933334"
   version="1.1"
   id="svg8"
   inkscape:version="0.92.2 2405546, 2018-03-11"
   sodipodi:docname="no-bumblebee.svg">
  <defs
     id="defs2" />
  <sodipodi:namedview
     id="base"
     pagecolor="#ffffff"
     bordercolor="#666666"
     borderopacity="1.0"
     inkscape:pageopacity="0.0"
     inkscape:pageshadow="2"
     inkscape:zoom="3.1029619"
     inkscape:cx="176.81227"
     inkscape:cy="12.348858"
     inkscape:document-units="px"
     inkscape:current-layer="layer1"
     showgrid="false"
     units="px"
     inkscape:window-width="1920"
     inkscape:window-height="999"
     inkscape:window-x="0"
     inkscape:window-y="32"
     inkscape:window-maximized="1" />
  <metadata
     id="metadata5">
    <rdf:RDF>
      <cc:Work
         rdf:about="">
        <dc:format>image/svg+xml</dc:format>
        <dc:type
           rdf:resource="http://purl.org/dc/dcmitype/StillImage" />
        <dc:title></dc:title>
      </cc:Work>
    </rdf:RDF>
  </metadata>
  <g
     inkscape:label="Layer 1"
     inkscape:groupmode="layer"
     id="layer1"
     transform="translate(0,-280.06665)">
    <g
       transform="matrix(0.35277779,0,0,0.35277779,-97.599044,181.91339)"
       id="layer1-0"
       inkscape:label="Layer 1"
       style="fill:#ffffff" />
    <g
       id="g1515"
       transform="matrix(1.7272252,0,0,1.7272252,-144.59186,-233.87828)"
       style="fill:#ffffff">
      <path
         inkscape:connector-curvature="0"
         id="path861"
         d="m 90.730192,307.11573 c -0.62976,-0.79142 -1.064176,-1.47997 -1.208685,-1.91581 -0.173516,-0.52333 0.278706,-1.16753 0.938661,-1.33713 0.214187,-0.055 0.700572,-0.0547 0.944177,7.1e-4 0.191672,0.0436 0.445107,0.17676 0.586403,0.30812 0.131868,0.1226 0.281248,0.37649 0.332152,0.56454 0.07097,0.26219 0.04619,0.44585 -0.100365,0.74408 -0.181922,0.37017 -0.83938,1.33204 -1.220754,1.78598 l -0.07796,0.0928 -0.193631,-0.24332 z"
         style="fill:#ffffff;stroke-width:0.02736801" />
      <path
         id="path859"
         d="m 86.301587,305.94256 c -0.245974,-0.0644 -0.40254,-0.15825 -0.609885,-0.36545 -0.264003,-0.26381 -0.342319,-0.4441 -0.343367,-0.79043 -0.0029,-0.9608 1.147613,-2.11002 2.459356,-2.45658 0.749773,-0.19809 1.412517,-0.0614 1.94904,0.40213 l 0.08255,0.0713 -0.06794,0.21208 c -0.384125,1.19916 -1.216038,2.24067 -2.172806,2.72023 -0.466709,0.23394 -0.9183,0.30591 -1.296949,0.20671 z"
         style="fill:#ffffff;stroke-width:0.02157792"
         inkscape:connector-curvature="0" />
      <path
         id="path857"
         d="m 95.144187,305.95401 c -1.125252,-0.2257 -2.29102,-1.44404 -2.766157,-2.89091 l -0.08527,-0.25965 0.08249,-0.0713 c 0.382015,-0.33006 0.796302,-0.48465 1.301641,-0.48569 0.440262,-9.2e-4 0.833607,0.10038 1.328006,0.34195 1.052162,0.51411 1.779207,1.41807 1.779207,2.21214 0,0.33225 -0.0962,0.54509 -0.367234,0.81249 -0.314332,0.3101 -0.790465,0.43765 -1.272682,0.34093 z"
         style="fill:#ffffff;stroke-width:0.02157792"
         inkscape:connector-curvature="0" />
      <path
         id="path853"
         d="m 90.68845,303.48039 c -0.225742,-0.0776 -0.38167,-0.22078 -0.478759,-0.43958 -0.03303,-0.0745 -0.03932,-0.16931 -0.04571,-0.69049 l -0.0074,-0.60418 0.14721,-0.0505 c 0.30858,-0.10577 0.871348,-0.33661 1.166424,-0.47844 0.544452,-0.2617 0.876451,-0.51708 0.987473,-0.75959 0.141486,-0.30904 0.06487,-0.68289 -0.198166,-0.967 -0.148275,-0.16016 -0.310238,-0.25953 -0.558179,-0.34249 -0.524391,-0.17545 -1.276493,-0.12415 -1.940839,0.13238 l -0.194204,0.075 -0.01156,0.27825 c -0.0064,0.15303 -0.02529,0.32085 -0.04206,0.37292 -0.04454,0.13822 -0.212395,0.31094 -0.384564,0.3957 -0.131662,0.0648 -0.16046,0.0707 -0.348954,0.0707 -0.176884,0 -0.222298,-0.008 -0.326714,-0.0569 -0.145896,-0.0684 -0.283423,-0.18838 -0.353266,-0.30816 -0.08446,-0.14486 -0.09936,-0.31314 -0.09267,-1.04692 l 0.0062,-0.67829 0.280516,-0.12747 c 0.816912,-0.37125 1.439126,-0.57694 1.965041,-0.64961 1.812171,-0.25041 3.267024,0.44524 3.695095,1.76683 0.103018,0.31805 0.122915,0.46187 0.120897,0.87391 -0.0016,0.31692 -0.0094,0.40536 -0.04889,0.55024 -0.204702,0.75114 -0.776836,1.28003 -1.9733,1.82416 -0.175656,0.0799 -0.325492,0.15135 -0.33296,0.15882 -0.0075,0.007 -0.03139,0.0837 -0.05315,0.1694 -0.04464,0.1758 -0.149956,0.35029 -0.263822,0.43714 -0.175459,0.13383 -0.481025,0.17415 -0.713656,0.0942 z"
         style="fill:#ffffff;stroke-width:0.02157792"
         inkscape:connector-curvature="0" />
    </g>
  </g>
</svg>
