<?xml version="1.0" encoding="UTF-8" standalone="no"?>
<!-- Created with Inkscape (http://www.inkscape.org/) -->

<svg
   xmlns:dc="http://purl.org/dc/elements/1.1/"
   xmlns:cc="http://creativecommons.org/ns#"
   xmlns:rdf="http://www.w3.org/1999/02/22-rdf-syntax-ns#"
   xmlns:svg="http://www.w3.org/2000/svg"
   xmlns="http://www.w3.org/2000/svg"
   xmlns:sodipodi="http://sodipodi.sourceforge.net/DTD/sodipodi-0.dtd"
   xmlns:inkscape="http://www.inkscape.org/namespaces/inkscape"
   width="48"
   height="48"
   viewBox="0 0 12.7 12.7"
   version="1.1"
   id="svg8"
   inkscape:version="0.92.2 2405546, 2018-03-11"
   sodipodi:docname="ow-03d.svg">
  <defs
     id="defs2" />
  <sodipodi:namedview
     id="base"
     pagecolor="#ffffff"
     bordercolor="#666666"
     borderopacity="1.0"
     inkscape:pageopacity="0.0"
     inkscape:pageshadow="2"
     inkscape:zoom="3.959798"
     inkscape:cx="-23.421349"
     inkscape:cy="14.690337"
     inkscape:document-units="mm"
     inkscape:current-layer="layer1"
     showgrid="false"
     units="px"
     inkscape:window-width="1356"
     inkscape:window-height="723"
     inkscape:window-x="5"
     inkscape:window-y="40"
     inkscape:window-maximized="1" />
  <metadata
     id="metadata5">
    <rdf:RDF>
      <cc:Work
         rdf:about="">
        <dc:format>image/svg+xml</dc:format>
        <dc:type
           rdf:resource="http://purl.org/dc/dcmitype/StillImage" />
        <dc:title />
      </cc:Work>
    </rdf:RDF>
  </metadata>
  <g
     inkscape:label="Layer 1"
     inkscape:groupmode="layer"
     id="layer1"
     transform="translate(0,-284.29998)">
    <path
       style="color:#000000;font-style:normal;font-variant:normal;font-weight:normal;font-stretch:normal;font-size:medium;line-height:normal;font-family:sans-serif;font-variant-ligatures:normal;font-variant-position:normal;font-variant-caps:normal;font-variant-numeric:normal;font-variant-alternates:normal;font-feature-settings:normal;text-indent:0;text-align:start;text-decoration:none;text-decoration-line:none;text-decoration-style:solid;text-decoration-color:#000000;letter-spacing:normal;word-spacing:normal;text-transform:none;writing-mode:lr-tb;direction:ltr;text-orientation:mixed;dominant-baseline:auto;baseline-shift:baseline;text-anchor:start;white-space:normal;shape-padding:0;clip-rule:nonzero;display:inline;overflow:visible;visibility:visible;opacity:1;isolation:auto;mix-blend-mode:normal;color-interpolation:sRGB;color-interpolation-filters:linearRGB;solid-color:#000000;solid-opacity:1;vector-effect:none;fill:#ffffff;fill-opacity:1;fill-rule:nonzero;stroke:none;stroke-width:1.01425683;stroke-linecap:round;stroke-linejoin:round;stroke-miterlimit:4;stroke-dasharray:none;stroke-dashoffset:0;stroke-opacity:1;paint-order:markers stroke fill;color-rendering:auto;image-rendering:auto;shape-rendering:auto;text-rendering:auto;enable-background:accumulate"
       d="m 4.6374286,286.46816 c -1.4527397,10e-4 -2.6252186,1.04569 -2.9714556,2.43064 -0.99967471,0.54996 -1.66466676,1.56863 -1.665996193272,2.71987 C 8.9874673e-4,293.31648 1.3615067,294.71682 3.0585952,294.76644 a 0.50717915,0.50717915 0 0 0 0.00991,0 l 7.0819698,0.0654 a 0.50717915,0.50717915 0 0 0 0.004,0 c 1.399785,1.1e-4 2.545648,-1.14576 2.545548,-2.54555 10e-5,-1.39977 -1.145766,-2.54564 -2.545548,-2.54554 a 0.50717915,0.50717915 0 0 0 -0.002,0 c -0.0609,2.5e-4 -0.119638,0.0192 -0.1802678,0.0237 -0.2318364,-1.04475 -1.0397394,-1.89195 -2.1513346,-1.89183 a 0.50717915,0.50717915 0 0 0 -0.00198,0 c -0.2045786,7.1e-4 -0.3959959,0.0774 -0.5923102,0.13075 -0.5701248,-0.90344 -1.4983679,-1.53364 -2.5871474,-1.53525 a 0.50717915,0.50717915 0 0 0 -0.00198,0 z m 0.00198,0 0.2357354,0.0574 a 0.50717915,0.50717915 0 0 0 -0.2357354,-0.0574 z m -0.00198,1.01425 h 0.00198 c 0.8455845,0.002 1.6079119,0.5 1.949275,1.27377 a 0.50717915,0.50717915 0 0 0 0.6794727,0.25356 c 0.1730815,-0.0808 0.3617375,-0.12188 0.5526908,-0.12283 0.7352844,-8e-5 1.3203282,0.58431 1.3213073,1.31933 10e-7,6.7e-4 10e-8,0.001 0,0.002 -5.522e-4,0.0224 -0.00221,0.0464 -0.00397,0.0694 a 0.50717915,0.50717915 0 0 0 0.6358916,0.52892 c 0.1247182,-0.0329 0.253284,-0.0508 0.382328,-0.0515 0.851584,-6e-5 1.52937,0.67972 1.529308,1.53129 6.2e-5,0.8516 -0.677727,1.53136 -1.529308,1.53129 l -7.0681033,-0.0654 c -1.1598501,-0.0339 -2.0734461,-0.97318 -2.0740761,-2.13351 9.567e-4,-0.82845 0.4782381,-1.57745 1.2282017,-1.92946 a 0.50717915,0.50717915 0 0 0 0.2872407,-0.38431 c 0.1557689,-1.04905 1.0476669,-1.82071 2.1077525,-1.82249 z"
       id="circle818"
       inkscape:connector-curvature="0" />
  </g>
</svg>
