<?xml version="1.0" encoding="UTF-8" standalone="no"?>
<!-- Created with Inkscape (http://www.inkscape.org/) -->

<svg
   xmlns:dc="http://purl.org/dc/elements/1.1/"
   xmlns:cc="http://creativecommons.org/ns#"
   xmlns:rdf="http://www.w3.org/1999/02/22-rdf-syntax-ns#"
   xmlns:svg="http://www.w3.org/2000/svg"
   xmlns="http://www.w3.org/2000/svg"
   xmlns:sodipodi="http://sodipodi.sourceforge.net/DTD/sodipodi-0.dtd"
   xmlns:inkscape="http://www.inkscape.org/namespaces/inkscape"
   width="48"
   height="48"
   viewBox="0 0 12.7 12.7"
   version="1.1"
   id="svg8"
   inkscape:version="0.92.2 2405546, 2018-03-11"
   sodipodi:docname="ow-02d (kopia).svg">
  <defs
     id="defs2" />
  <sodipodi:namedview
     id="base"
     pagecolor="#ffffff"
     bordercolor="#666666"
     borderopacity="1.0"
     inkscape:pageopacity="0.0"
     inkscape:pageshadow="2"
     inkscape:zoom="5.6"
     inkscape:cx="37.41355"
     inkscape:cy="15.405905"
     inkscape:document-units="mm"
     inkscape:current-layer="layer1"
     showgrid="false"
     units="px"
     inkscape:window-width="1356"
     inkscape:window-height="723"
     inkscape:window-x="5"
     inkscape:window-y="40"
     inkscape:window-maximized="1" />
  <metadata
     id="metadata5">
    <rdf:RDF>
      <cc:Work
         rdf:about="">
        <dc:format>image/svg+xml</dc:format>
        <dc:type
           rdf:resource="http://purl.org/dc/dcmitype/StillImage" />
        <dc:title />
      </cc:Work>
    </rdf:RDF>
  </metadata>
  <g
     inkscape:label="Layer 1"
     inkscape:groupmode="layer"
     id="layer1"
     transform="translate(0,-284.29998)">
    <g
       id="g844"
       transform="translate(0,0.17139996)">
      <g
         style="fill:#ffffff"
         transform="translate(9.3363603e-8,-0.01190085)"
         id="g827">
        <path
           inkscape:connector-curvature="0"
           id="path822"
           d="m 4.6374286,288.30564 c -1.4527397,0.001 -2.6252186,1.04569 -2.9714556,2.43064 -0.99967471,0.54996 -1.66466676,1.56863 -1.665996193272,2.71987 C 8.9874673e-4,295.15396 1.3615067,296.5543 3.0585952,296.60392 a 0.50717915,0.50717915 0 0 0 0.00991,0 l 7.0819698,0.0654 a 0.50717915,0.50717915 0 0 0 0.004,0 c 1.399785,1.1e-4 2.545648,-1.14576 2.545548,-2.54555 10e-5,-1.39977 -1.145766,-2.54564 -2.545548,-2.54554 a 0.50717915,0.50717915 0 0 0 -0.002,0 c -0.0609,2.5e-4 -0.119638,0.0192 -0.1802678,0.0237 -0.2318364,-1.04475 -1.0397394,-1.89195 -2.1513346,-1.89183 a 0.50717915,0.50717915 0 0 0 -0.00198,0 c -0.2045786,7.1e-4 -0.3959959,0.0774 -0.5923102,0.13075 -0.5701248,-0.90344 -1.4983679,-1.53364 -2.5871474,-1.53525 a 0.50717915,0.50717915 0 0 0 -0.00198,0 z m 0.00198,0 0.2357354,0.0574 a 0.50717915,0.50717915 0 0 0 -0.2357354,-0.0574 z m -0.00198,1.01425 h 0.00198 c 0.8455845,0.002 1.6079119,0.5 1.949275,1.27377 a 0.50717915,0.50717915 0 0 0 0.6794727,0.25356 c 0.1730815,-0.0808 0.3617375,-0.12188 0.5526908,-0.12283 0.7352844,-8e-5 1.3203282,0.58431 1.3213073,1.31933 10e-7,6.7e-4 10e-8,10e-4 0,0.002 -5.522e-4,0.0224 -0.00221,0.0464 -0.00397,0.0694 a 0.50717915,0.50717915 0 0 0 0.6358916,0.52892 c 0.1247182,-0.0329 0.253284,-0.0508 0.382328,-0.0515 0.851584,-6e-5 1.52937,0.67972 1.529308,1.53129 6.2e-5,0.8516 -0.677727,1.53136 -1.529308,1.53129 l -7.0681033,-0.0654 c -1.1598501,-0.0339 -2.0734461,-0.97318 -2.0740761,-2.13351 9.567e-4,-0.82845 0.4782381,-1.57745 1.2282017,-1.92946 a 0.50717915,0.50717915 0 0 0 0.2872407,-0.38431 c 0.1557689,-1.04905 1.0476669,-1.82071 2.1077525,-1.82249 z"
           style="color:#000000;font-style:normal;font-variant:normal;font-weight:normal;font-stretch:normal;font-size:medium;line-height:normal;font-family:sans-serif;font-variant-ligatures:normal;font-variant-position:normal;font-variant-caps:normal;font-variant-numeric:normal;font-variant-alternates:normal;font-feature-settings:normal;text-indent:0;text-align:start;text-decoration:none;text-decoration-line:none;text-decoration-style:solid;text-decoration-color:#000000;letter-spacing:normal;word-spacing:normal;text-transform:none;writing-mode:lr-tb;direction:ltr;text-orientation:mixed;dominant-baseline:auto;baseline-shift:baseline;text-anchor:start;white-space:normal;shape-padding:0;clip-rule:nonzero;display:inline;overflow:visible;visibility:visible;opacity:1;isolation:auto;mix-blend-mode:normal;color-interpolation:sRGB;color-interpolation-filters:linearRGB;solid-color:#000000;solid-opacity:1;vector-effect:none;fill:#ffffff;fill-opacity:1;fill-rule:nonzero;stroke:none;stroke-width:1.01425683;stroke-linecap:round;stroke-linejoin:round;stroke-miterlimit:4;stroke-dasharray:none;stroke-dashoffset:0;stroke-opacity:1;paint-order:markers stroke fill;color-rendering:auto;image-rendering:auto;shape-rendering:auto;text-rendering:auto;enable-background:accumulate" />
      </g>
      <path
         id="ellipse827"
         transform="matrix(0.26458333,0,0,0.26458333,0,284.29998)"
         d="M 35.283203,0 C 27.793422,0.2743937 21.815062,6.3586581 21.810547,13.765625 a 1.3650144,1.3650144 0 0 0 0,0.002 c 1.42e-4,3.919833 1.679111,7.45057 4.351562,9.960938 a 6.7553947,6.3134531 0 0 1 2.564453,-0.476563 6.7553947,6.3134531 0 0 1 1.625,0.193359 C 26.880449,21.563501 24.54166,17.937577 24.541016,13.767578 24.544477,9.0142175 27.613865,4.9897142 31.941406,3.4375 30.829283,5.3181173 30.160121,7.4399995 30.15625,9.6640625 a 1.3650144,1.3650144 0 0 0 0,0.00195 c 1.32e-4,6.8869414 5.698848,12.4782514 12.664062,12.4785154 a 1.3650144,1.3650144 0 0 0 0.0039,0 c 0.07294,-1.51e-4 0.14389,-0.01953 0.216797,-0.01953 -2.001653,1.67195 -4.526446,2.689618 -7.238282,2.693359 -1.143782,-3.4e-5 -2.245365,-0.168281 -3.283203,-0.476562 a 6.7553947,6.3134531 0 0 1 2.587891,3.171875 c 0.231901,0.01135 0.46066,0.03515 0.695312,0.03516 4.916239,-0.0038 9.476965,-2.556534 12,-6.726562 a 1.3650144,1.3650144 0 0 0 -1.625,-1.992188 c -1.076228,0.383055 -2.212039,0.580659 -3.357422,0.583984 -5.513402,-2.26e-4 -9.932045,-4.358389 -9.933593,-9.7441401 v -0.00195 c 0.0056,-2.7791623 1.217308,-5.4242659 3.341797,-7.2734376 A 1.3650144,1.3650144 0 0 0 35.283203,0 Z"
         style="color:#000000;font-style:normal;font-variant:normal;font-weight:normal;font-stretch:normal;font-size:medium;line-height:normal;font-family:sans-serif;font-variant-ligatures:normal;font-variant-position:normal;font-variant-caps:normal;font-variant-numeric:normal;font-variant-alternates:normal;font-feature-settings:normal;text-indent:0;text-align:start;text-decoration:none;text-decoration-line:none;text-decoration-style:solid;text-decoration-color:#000000;letter-spacing:normal;word-spacing:normal;text-transform:none;writing-mode:lr-tb;direction:ltr;text-orientation:mixed;dominant-baseline:auto;baseline-shift:baseline;text-anchor:start;white-space:normal;shape-padding:0;clip-rule:nonzero;display:inline;overflow:visible;visibility:visible;opacity:1;isolation:auto;mix-blend-mode:normal;color-interpolation:sRGB;color-interpolation-filters:linearRGB;solid-color:#000000;solid-opacity:1;vector-effect:none;fill:#ffffff;fill-opacity:1;fill-rule:nonzero;stroke:none;stroke-width:2.72975588;stroke-linecap:round;stroke-linejoin:round;stroke-miterlimit:4;stroke-dasharray:none;stroke-dashoffset:0;stroke-opacity:1;paint-order:markers stroke fill;color-rendering:auto;image-rendering:auto;shape-rendering:auto;text-rendering:auto;enable-background:accumulate"
         inkscape:connector-curvature="0" />
      <circle
         style="opacity:1;fill:#ffffff;fill-opacity:1;stroke:none;stroke-width:0.12305801;stroke-linecap:round;stroke-linejoin:round;stroke-miterlimit:4;stroke-dasharray:none;paint-order:markers stroke fill"
         id="circle823"
         cx="10.243445"
         cy="285.96469"
         r="0.56447369" />
      <circle
         r="0.82105255"
         cy="287.79245"
         cx="11.409715"
         id="path819"
         style="opacity:1;fill:#ffffff;fill-opacity:1;stroke:none;stroke-width:0.17899345;stroke-linecap:round;stroke-linejoin:round;stroke-miterlimit:4;stroke-dasharray:none;paint-order:markers stroke fill" />
    </g>
  </g>
</svg>
