<?xml version="1.0" encoding="UTF-8" standalone="no"?>
<!-- Created with Inkscape (http://www.inkscape.org/) -->

<svg
   xmlns:dc="http://purl.org/dc/elements/1.1/"
   xmlns:cc="http://creativecommons.org/ns#"
   xmlns:rdf="http://www.w3.org/1999/02/22-rdf-syntax-ns#"
   xmlns:svg="http://www.w3.org/2000/svg"
   xmlns="http://www.w3.org/2000/svg"
   xmlns:sodipodi="http://sodipodi.sourceforge.net/DTD/sodipodi-0.dtd"
   xmlns:inkscape="http://www.inkscape.org/namespaces/inkscape"
   width="48"
   height="48"
   viewBox="0 0 12.7 12.7"
   version="1.1"
   id="svg8"
   inkscape:version="0.92.2 2405546, 2018-03-11"
   sodipodi:docname="ow-01n.svg">
  <defs
     id="defs2" />
  <sodipodi:namedview
     id="base"
     pagecolor="#ffffff"
     bordercolor="#666666"
     borderopacity="1.0"
     inkscape:pageopacity="0.0"
     inkscape:pageshadow="2"
     inkscape:zoom="7.919596"
     inkscape:cx="26.998887"
     inkscape:cy="25.197015"
     inkscape:document-units="mm"
     inkscape:current-layer="layer1"
     showgrid="false"
     units="px"
     inkscape:window-width="1910"
     inkscape:window-height="1035"
     inkscape:window-x="5"
     inkscape:window-y="40"
     inkscape:window-maximized="1" />
  <metadata
     id="metadata5">
    <rdf:RDF>
      <cc:Work
         rdf:about="">
        <dc:format>image/svg+xml</dc:format>
        <dc:type
           rdf:resource="http://purl.org/dc/dcmitype/StillImage" />
        <dc:title />
      </cc:Work>
    </rdf:RDF>
  </metadata>
  <g
     inkscape:label="Layer 1"
     inkscape:groupmode="layer"
     id="layer1"
     transform="translate(0,-284.29998)">
    <g
       id="g835"
       transform="translate(0.33555254)"
       style="fill:#ffffff">
      <path
         inkscape:connector-curvature="0"
         id="ellipse827"
         d="M 6.1879114,284.34647 C 2.7477116,284.47246 0.00207364,287.26657 7.4185313e-8,290.66874 a 0.62697724,0.62697724 0 0 0 0,6.1e-4 C 1.2654541e-4,294.16378 2.8902363,296.99986 6.4261837,296.99998 a 0.62697724,0.62697724 0 0 0 5.971e-4,0 c 2.258123,-0.002 4.3530322,-1.17439 5.5119102,-3.08977 a 0.62697724,0.62697724 0 0 0 -0.746466,-0.91487 c -0.494332,0.17593 -1.016404,0.26661 -1.542499,0.26813 -2.5324123,-10e-5 -4.561694,-2.00203 -4.5624052,-4.47581 v -6e-4 c 0,-2.1e-4 0,-4e-4 0,-6e-4 0.00257,-1.27652 0.5589173,-2.49124 1.5347358,-3.34059 a 0.62697724,0.62697724 0 0 0 -0.4341452,-1.0994 z m -1.5353329,1.57834 c -0.5108194,0.86381 -0.8175438,1.8389 -0.8193221,2.86046 a 0.62697724,0.62697724 0 0 0 0,10e-4 c 6.05e-5,3.1633 2.6172126,5.73095 5.8164696,5.73108 a 0.62697724,0.62697724 0 0 0 0.00179,0 c 0.033503,-8e-5 0.066255,-0.008 0.099728,-0.009 -0.9193973,0.76796 -2.0794635,1.23563 -3.3250618,1.23734 -2.8693159,-9e-5 -5.1716855,-2.27076 -5.1721193,-5.07597 v -6e-4 c 0.00159,-2.18332 1.4107917,-4.03157 3.3985141,-4.74454 z"
         style="color:#000000;font-style:normal;font-variant:normal;font-weight:normal;font-stretch:normal;font-size:medium;line-height:normal;font-family:sans-serif;font-variant-ligatures:normal;font-variant-position:normal;font-variant-caps:normal;font-variant-numeric:normal;font-variant-alternates:normal;font-feature-settings:normal;text-indent:0;text-align:start;text-decoration:none;text-decoration-line:none;text-decoration-style:solid;text-decoration-color:#000000;letter-spacing:normal;word-spacing:normal;text-transform:none;writing-mode:lr-tb;direction:ltr;text-orientation:mixed;dominant-baseline:auto;baseline-shift:baseline;text-anchor:start;white-space:normal;shape-padding:0;clip-rule:nonzero;display:inline;overflow:visible;visibility:visible;opacity:1;isolation:auto;mix-blend-mode:normal;color-interpolation:sRGB;color-interpolation-filters:linearRGB;solid-color:#000000;solid-opacity:1;vector-effect:none;fill:#ffffff;fill-opacity:1;fill-rule:nonzero;stroke:none;stroke-width:1.25382912;stroke-linecap:round;stroke-linejoin:round;stroke-miterlimit:4;stroke-dasharray:none;stroke-dashoffset:0;stroke-opacity:1;paint-order:markers stroke fill;color-rendering:auto;image-rendering:auto;shape-rendering:auto;text-rendering:auto;enable-background:accumulate" />
      <circle
         style="opacity:1;fill:#ffffff;fill-opacity:1;stroke:none;stroke-width:0.21362986;stroke-linecap:round;stroke-linejoin:round;stroke-miterlimit:4;stroke-dasharray:none;paint-order:markers stroke fill"
         id="circle823"
         cx="7.7642922"
         cy="287.23602"
         r="0.97993165" />
      <circle
         r="1.425355"
         cy="290.40903"
         cx="9.7889481"
         id="path819"
         style="opacity:1;fill:#ffffff;fill-opacity:1;stroke:none;stroke-width:0.3107343;stroke-linecap:round;stroke-linejoin:round;stroke-miterlimit:4;stroke-dasharray:none;paint-order:markers stroke fill" />
    </g>
  </g>
</svg>
