<?xml version="1.0" encoding="UTF-8" standalone="no"?>
<!-- Created with Inkscape (http://www.inkscape.org/) -->

<svg
   xmlns:dc="http://purl.org/dc/elements/1.1/"
   xmlns:cc="http://creativecommons.org/ns#"
   xmlns:rdf="http://www.w3.org/1999/02/22-rdf-syntax-ns#"
   xmlns:svg="http://www.w3.org/2000/svg"
   xmlns="http://www.w3.org/2000/svg"
   xmlns:sodipodi="http://sodipodi.sourceforge.net/DTD/sodipodi-0.dtd"
   xmlns:inkscape="http://www.inkscape.org/namespaces/inkscape"
   width="48"
   height="48"
   viewBox="0 0 12.7 12.7"
   version="1.1"
   id="svg8"
   inkscape:version="0.92.2 2405546, 2018-03-11"
   sodipodi:docname="ow-01d.svg">
  <defs
     id="defs2" />
  <sodipodi:namedview
     id="base"
     pagecolor="#ffffff"
     bordercolor="#666666"
     borderopacity="1.0"
     inkscape:pageopacity="0.0"
     inkscape:pageshadow="2"
     inkscape:zoom="5.6"
     inkscape:cx="27.783524"
     inkscape:cy="10.066925"
     inkscape:document-units="mm"
     inkscape:current-layer="layer1"
     showgrid="false"
     units="px"
     inkscape:window-width="1356"
     inkscape:window-height="723"
     inkscape:window-x="5"
     inkscape:window-y="40"
     inkscape:window-maximized="1" />
  <metadata
     id="metadata5">
    <rdf:RDF>
      <cc:Work
         rdf:about="">
        <dc:format>image/svg+xml</dc:format>
        <dc:type
           rdf:resource="http://purl.org/dc/dcmitype/StillImage" />
        <dc:title />
      </cc:Work>
    </rdf:RDF>
  </metadata>
  <g
     inkscape:label="Layer 1"
     inkscape:groupmode="layer"
     id="layer1"
     transform="translate(0,-284.29998)">
    <path
       style="color:#000000;font-style:normal;font-variant:normal;font-weight:normal;font-stretch:normal;font-size:medium;line-height:normal;font-family:sans-serif;font-variant-ligatures:normal;font-variant-position:normal;font-variant-caps:normal;font-variant-numeric:normal;font-variant-alternates:normal;font-feature-settings:normal;text-indent:0;text-align:start;text-decoration:none;text-decoration-line:none;text-decoration-style:solid;text-decoration-color:#000000;letter-spacing:normal;word-spacing:normal;text-transform:none;writing-mode:lr-tb;direction:ltr;text-orientation:mixed;dominant-baseline:auto;baseline-shift:baseline;text-anchor:start;white-space:normal;shape-padding:0;clip-rule:nonzero;display:inline;overflow:visible;visibility:visible;opacity:1;isolation:auto;mix-blend-mode:normal;color-interpolation:sRGB;color-interpolation-filters:linearRGB;solid-color:#000000;solid-opacity:1;vector-effect:none;fill:#ffffff;fill-opacity:1;fill-rule:nonzero;stroke:none;stroke-width:1.29981387;stroke-linecap:round;stroke-linejoin:round;stroke-miterlimit:4;stroke-dasharray:none;stroke-dashoffset:0;stroke-opacity:1;paint-order:markers stroke fill;color-rendering:auto;image-rendering:auto;shape-rendering:auto;text-rendering:auto;enable-background:accumulate"
       d="m 6.3409592,284.30001 a 0.49990682,0.50005001 0 0 0 -0.4918188,0.5054 v 1.67948 c -0.7815616,0.0938 -1.4969499,0.40423 -2.08713,0.8692 l -1.1892508,-1.19114 a 0.49990682,0.50005001 0 0 0 -0.359565,-0.15038 0.49990682,0.50005001 0 0 0 -0.3476828,0.85731 l 1.1892509,1.19114 c -0.4649124,0.5903 -0.7751041,1.30648 -0.8689488,2.08825 H 0.50887729 a 0.49990682,0.50005001 0 1 0 0,0.99994 H 2.1852973 c 0.093772,0.78196 0.4044539,1.49782 0.8694654,2.08824 l -1.1892509,1.18908 a 0.50009969,0.50024293 0 1 0 0.7072478,0.70745 l 1.1892508,-1.18959 c 0.5901949,0.465 1.3055369,0.77593 2.08713,0.86971 v 1.6769 a 0.49990682,0.50005001 0 1 0 0.9996527,0 v -1.67742 c 0.7815421,-0.0939 1.4975157,-0.40415 2.0876466,-0.86919 l 1.1908013,1.18959 a 0.49991707,0.50006026 0 1 0 0.706731,-0.70745 l -1.1908011,-1.18959 c 0.4648411,-0.59035 0.7751951,-1.30595 0.8689491,-2.08773 h 1.679003 a 0.49990682,0.50005001 0 1 0 0,-0.99994 H 10.51212 c -0.09383,-0.78177 -0.40405,-1.49794 -0.8689491,-2.08825 l 1.1908011,-1.19114 a 0.49990682,0.50005001 0 0 0 -0.363182,-0.85731 0.49990682,0.50005001 0 0 0 -0.343549,0.15038 l -1.1908013,1.19114 c -0.5901359,-0.46503 -1.3061056,-0.77534 -2.0876466,-0.8692 v -1.67948 a 0.49990682,0.50005001 0 0 0 -0.5078339,-0.5054 z m 0.00775,3.45096 c 1.6073805,0 2.897701,1.29069 2.897701,2.89853 0,1.60784 -1.2903205,2.89646 -2.897701,2.89646 -1.6073805,0 -2.8956347,-1.28862 -2.8956347,-2.89646 0,-1.60784 1.2882542,-2.89853 2.8956347,-2.89853 z"
       id="path4519"
       inkscape:connector-curvature="0" />
  </g>
</svg>
