<?xml version="1.0" encoding="UTF-8" standalone="no"?>
<!-- Created with Inkscape (http://www.inkscape.org/) -->

<svg
   xmlns:dc="http://purl.org/dc/elements/1.1/"
   xmlns:cc="http://creativecommons.org/ns#"
   xmlns:rdf="http://www.w3.org/1999/02/22-rdf-syntax-ns#"
   xmlns:svg="http://www.w3.org/2000/svg"
   xmlns="http://www.w3.org/2000/svg"
   xmlns:sodipodi="http://sodipodi.sourceforge.net/DTD/sodipodi-0.dtd"
   xmlns:inkscape="http://www.inkscape.org/namespaces/inkscape"
   width="48"
   height="48"
   viewBox="0 0 12.7 12.7"
   version="1.1"
   id="svg8"
   inkscape:version="0.92.2 2405546, 2018-03-11"
   sodipodi:docname="ow-11d.svg">
  <defs
     id="defs2" />
  <sodipodi:namedview
     id="base"
     pagecolor="#ffffff"
     bordercolor="#666666"
     borderopacity="1.0"
     inkscape:pageopacity="0.0"
     inkscape:pageshadow="2"
     inkscape:zoom="7.919596"
     inkscape:cx="30.968177"
     inkscape:cy="22.049594"
     inkscape:document-units="mm"
     inkscape:current-layer="layer1"
     showgrid="false"
     units="px"
     inkscape:window-width="1356"
     inkscape:window-height="723"
     inkscape:window-x="5"
     inkscape:window-y="40"
     inkscape:window-maximized="1" />
  <metadata
     id="metadata5">
    <rdf:RDF>
      <cc:Work
         rdf:about="">
        <dc:format>image/svg+xml</dc:format>
        <dc:type
           rdf:resource="http://purl.org/dc/dcmitype/StillImage" />
        <dc:title />
      </cc:Work>
    </rdf:RDF>
  </metadata>
  <g
     inkscape:label="Layer 1"
     inkscape:groupmode="layer"
     id="layer1"
     transform="translate(0,-284.29998)">
    <g
       id="g845"
       style="fill:#ffffff">
      <g
         style="fill:#ffffff"
         transform="matrix(0.99760156,0,0,0.99760156,2.3116152e-5,-1.9797785)"
         id="g839">
        <path
           style="color:#000000;font-style:normal;font-variant:normal;font-weight:normal;font-stretch:normal;font-size:medium;line-height:normal;font-family:sans-serif;font-variant-ligatures:normal;font-variant-position:normal;font-variant-caps:normal;font-variant-numeric:normal;font-variant-alternates:normal;font-feature-settings:normal;text-indent:0;text-align:start;text-decoration:none;text-decoration-line:none;text-decoration-style:solid;text-decoration-color:#000000;letter-spacing:normal;word-spacing:normal;text-transform:none;writing-mode:lr-tb;direction:ltr;text-orientation:mixed;dominant-baseline:auto;baseline-shift:baseline;text-anchor:start;white-space:normal;shape-padding:0;clip-rule:nonzero;display:inline;overflow:visible;visibility:visible;opacity:1;isolation:auto;mix-blend-mode:normal;color-interpolation:sRGB;color-interpolation-filters:linearRGB;solid-color:#000000;solid-opacity:1;vector-effect:none;fill:#ffffff;fill-opacity:1;fill-rule:nonzero;stroke:none;stroke-width:3.11921334;stroke-linecap:round;stroke-linejoin:round;stroke-miterlimit:4;stroke-dasharray:none;stroke-dashoffset:0;stroke-opacity:1;paint-order:markers stroke fill;color-rendering:auto;image-rendering:auto;shape-rendering:auto;text-rendering:auto;enable-background:accumulate"
           d="m 26.439453,10.083984 v 0.0039 c -3.232757,0.0054 -5.954165,2.34066 -6.466797,5.52539 1.013289,0.779565 1.894878,1.75158 2.597656,2.865235 0.613155,-0.166489 1.212597,-0.406011 1.851563,-0.408204 0.002,-4e-6 0.0039,-4e-6 0.0059,0 3.471877,-3.77e-4 5.994649,2.645111 6.71875,5.908204 0.189365,-0.01398 0.372288,-0.07343 0.5625,-0.07422 0.002,-4e-6 0.0039,-4e-6 0.0059,0 3.564932,-2.47e-4 6.601742,2.380138 7.601562,5.628906 l 4.095703,0.03711 c 2.618926,1.89e-4 4.703322,-2.089998 4.703125,-4.708984 1.97e-4,-2.61891 -2.084188,-4.709173 -4.703125,-4.708984 -0.396858,0.0019 -0.792208,0.05691 -1.175781,0.158203 -1.038001,0.275321 -2.037231,-0.556206 -1.955078,-1.626953 0.0053,-0.0703 0.01002,-0.144103 0.01172,-0.212891 0,-0.0083 4e-6,-0.0096 0,-0.01172 -0.003,-2.260422 -1.803182,-4.056905 -4.064453,-4.05664 -0.587251,0.003 -1.166929,0.12826 -1.699219,0.376953 C 33.737414,15.151788 32.794106,14.800031 32.439453,14 31.389635,11.620372 29.045794,10.095323 26.445312,10.083984 Z"
           id="path818"
           inkscape:connector-curvature="0"
           sodipodi:nodetypes="cccccccccccccccccccccc"
           transform="matrix(0.26458333,0,0,0.26458333,0,284.29998)" />
        <path
           style="color:#000000;font-style:normal;font-variant:normal;font-weight:normal;font-stretch:normal;font-size:medium;line-height:normal;font-family:sans-serif;font-variant-ligatures:normal;font-variant-position:normal;font-variant-caps:normal;font-variant-numeric:normal;font-variant-alternates:normal;font-feature-settings:normal;text-indent:0;text-align:start;text-decoration:none;text-decoration-line:none;text-decoration-style:solid;text-decoration-color:#000000;letter-spacing:normal;word-spacing:normal;text-transform:none;writing-mode:lr-tb;direction:ltr;text-orientation:mixed;dominant-baseline:auto;baseline-shift:baseline;text-anchor:start;white-space:normal;shape-padding:0;clip-rule:nonzero;display:inline;overflow:visible;visibility:visible;opacity:1;isolation:auto;mix-blend-mode:normal;color-interpolation:sRGB;color-interpolation-filters:linearRGB;solid-color:#000000;solid-opacity:1;vector-effect:none;fill:#ffffff;fill-opacity:1;fill-rule:nonzero;stroke:none;stroke-width:0.83816224;stroke-linecap:round;stroke-linejoin:round;stroke-miterlimit:4;stroke-dasharray:none;stroke-dashoffset:0;stroke-opacity:1;paint-order:markers stroke fill;color-rendering:auto;image-rendering:auto;shape-rendering:auto;text-rendering:auto;enable-background:accumulate"
           d="m 3.8322773,287.92026 c -1.200516,8.2e-4 -2.1694299,0.86414 -2.4555535,2.00863 -0.8261118,0.45448 -1.37564838,1.29629 -1.376746993272,2.24765 C 7.3868012e-4,293.57958 1.1251188,294.73679 2.5275599,294.7778 a 0.41912304,0.41912304 0 0 0 0.00819,0 l 5.8524029,0.054 a 0.41912304,0.41912304 0 0 0 0.00331,0 c 1.1567552,9e-5 2.1036742,-0.94683 2.1035912,-2.10359 8.3e-5,-1.15675 -0.9468385,-2.10367 -2.1035912,-2.10359 a 0.41912304,0.41912304 0 0 0 -0.00165,0 c -0.050327,2.1e-4 -0.098867,0.0159 -0.1489698,0.0196 -0.1915851,-0.86336 -0.8592206,-1.56347 -1.7778213,-1.56337 a 0.41912304,0.41912304 0 0 0 -0.00164,0 c -0.1690598,5.8e-4 -0.3272433,0.064 -0.4894737,0.10805 -0.4711401,-0.74659 -1.2382222,-1.26738 -2.1379686,-1.26871 a 0.41912304,0.41912304 0 0 0 -0.00164,0 z m 0.00164,0 0.1948072,0.0474 a 0.41912304,0.41912304 0 0 0 -0.1948072,-0.0474 z m -0.00164,0.83815 h 0.00164 c 0.6987747,0.002 1.3287473,0.41319 1.6108432,1.05262 a 0.41912304,0.41912304 0 0 0 0.5615031,0.20954 c 0.1430312,-0.0668 0.2989329,-0.10072 0.456733,-0.1015 0.6076248,-7e-5 1.0910937,0.48286 1.0919028,1.09026 8e-7,5.6e-4 1e-7,8.3e-4 0,0.002 -4.563e-4,0.0185 -0.00183,0.0383 -0.00328,0.0573 a 0.41912304,0.41912304 0 0 0 0.5254885,0.43709 c 0.1030647,-0.0272 0.209309,-0.042 0.3159485,-0.0426 0.7037325,-5e-5 1.2638418,0.56171 1.2637905,1.26543 5.13e-5,0.70374 -0.5600605,1.26548 -1.2637905,1.26543 l -5.8409439,-0.0541 c -0.9584777,-0.028 -1.71345581,-0.80422 -1.71397643,-1.76309 7.906e-4,-0.68462 0.39520673,-1.30358 1.01496213,-1.59447 a 0.41912304,0.41912304 0 0 0 0.2373702,-0.31759 c 0.1287244,-0.86691 0.8657716,-1.5046 1.7418059,-1.50607 z"
           id="path832"
           inkscape:connector-curvature="0" />
      </g>
      <path
         style="fill:#ffffff;fill-opacity:1;stroke:none;stroke-width:0.86660117;stroke-linecap:round;stroke-linejoin:round;stroke-miterlimit:4;stroke-dasharray:none;stroke-opacity:1;paint-order:markers stroke fill"
         d="m 3.4557793,290.34985 -1.0689127,3.06087 h 1.3550582 l -0.8375332,2.49656 2.5724528,-3.13615 H 3.994064 l 1.065235,-2.42128 z"
         id="path830"
         inkscape:connector-curvature="0"
         sodipodi:nodetypes="cccccccc" />
      <path
         sodipodi:nodetypes="cccccccc"
         inkscape:connector-curvature="0"
         id="path824"
         d="m 6.9861632,291.44255 -1.0689127,3.06087 h 1.3550582 l -0.8375332,2.49656 2.5724528,-3.13615 H 7.5244479 l 1.065235,-2.42128 z"
         style="fill:#ffffff;fill-opacity:1;stroke:none;stroke-width:0.86660117;stroke-linecap:round;stroke-linejoin:round;stroke-miterlimit:4;stroke-dasharray:none;stroke-opacity:1;paint-order:markers stroke fill" />
    </g>
  </g>
</svg>
