<?xml version="1.0" encoding="UTF-8" standalone="no"?>
<!-- Created with Inkscape (http://www.inkscape.org/) -->

<svg
   xmlns:dc="http://purl.org/dc/elements/1.1/"
   xmlns:cc="http://creativecommons.org/ns#"
   xmlns:rdf="http://www.w3.org/1999/02/22-rdf-syntax-ns#"
   xmlns:svg="http://www.w3.org/2000/svg"
   xmlns="http://www.w3.org/2000/svg"
   xmlns:sodipodi="http://sodipodi.sourceforge.net/DTD/sodipodi-0.dtd"
   xmlns:inkscape="http://www.inkscape.org/namespaces/inkscape"
   width="48"
   height="48"
   viewBox="0 0 12.7 12.7"
   version="1.1"
   id="svg8"
   inkscape:version="0.92.2 2405546, 2018-03-11"
   sodipodi:docname="ow-10d.svg">
  <defs
     id="defs2" />
  <sodipodi:namedview
     id="base"
     pagecolor="#ffffff"
     bordercolor="#666666"
     borderopacity="1.0"
     inkscape:pageopacity="0.0"
     inkscape:pageshadow="2"
     inkscape:zoom="4"
     inkscape:cx="43.292718"
     inkscape:cy="7.8036006"
     inkscape:document-units="mm"
     inkscape:current-layer="layer1"
     showgrid="false"
     units="px"
     inkscape:window-width="1356"
     inkscape:window-height="723"
     inkscape:window-x="5"
     inkscape:window-y="40"
     inkscape:window-maximized="1" />
  <metadata
     id="metadata5">
    <rdf:RDF>
      <cc:Work
         rdf:about="">
        <dc:format>image/svg+xml</dc:format>
        <dc:type
           rdf:resource="http://purl.org/dc/dcmitype/StillImage" />
        <dc:title></dc:title>
      </cc:Work>
    </rdf:RDF>
  </metadata>
  <g
     inkscape:label="Layer 1"
     inkscape:groupmode="layer"
     id="layer1"
     transform="translate(0,-284.29998)">
    <g
       id="g827"
       transform="matrix(0.87499682,0,0,0.87499682,0.79377027,35.228252)"
       style="fill:#ffffff">
      <path
         sodipodi:nodetypes="cccccccccccsssccccccccccccccccccc"
         inkscape:connector-curvature="0"
         id="path4519"
         transform="matrix(0.26458333,0,0,0.26458333,0,284.29998)"
         d="m 32.103516,1.3398438 c -0.687985,0.010589 -1.238004,0.5754493 -1.230469,1.2636718 v 4.1972656 c -1.95391,0.2347087 -3.743293,1.0113967 -5.21875,2.1738282 L 22.681641,5.9960938 c -0.236498,-0.2413318 -0.560597,-0.3766081 -0.898438,-0.375 -1.116333,0.00537 -1.666097,1.3606326 -0.869141,2.1425781 l 2.972657,2.9785161 c -1.162286,1.475792 -1.937262,3.266271 -2.171875,5.220703 h -0.126953 c 1.235411,0.515031 2.358377,1.265979 3.359375,2.175781 -0.03828,-0.303597 -0.06445,-0.611251 -0.06445,-0.925781 0,-4.019641 3.221772,-7.2460941 7.240235,-7.2460941 4.018466,0 7.244141,3.2264531 7.244141,7.2460941 0,2.695838 -1.455102,5.026625 -3.623047,6.273437 0.665541,0.828328 1.195586,1.784589 1.568359,2.820313 0.446259,-0.256424 0.876808,-0.538282 1.279297,-0.855469 l 2.445312,2.441406 c 0.674723,0.19555 1.321866,0.455926 1.927735,0.78711 0.797131,-0.359027 0.988917,-1.404763 0.371094,-2.023438 l -2.978516,-2.974609 c 1.162099,-1.47583 1.939433,-3.264281 2.173828,-5.21875 h 4.197266 c 1.690299,0.02429 1.690299,-2.524291 0,-2.5 H 42.53125 C 42.296768,14.008459 41.519676,12.21798 40.357422,10.742188 L 43.335938,7.7636719 C 44.1472,6.9684804 43.563157,5.5906444 42.427734,5.6210938 c -0.324255,0.00871 -0.632422,0.1431814 -0.859375,0.375 L 38.591797,8.9746094 C 37.116447,7.8120267 35.326906,7.0354521 33.373047,6.8007812 V 2.6035156 c 0.0077,-0.7035206 -0.566258,-1.274838 -1.269531,-1.2636718 z"
         style="color:#000000;font-style:normal;font-variant:normal;font-weight:normal;font-stretch:normal;font-size:medium;line-height:normal;font-family:sans-serif;font-variant-ligatures:normal;font-variant-position:normal;font-variant-caps:normal;font-variant-numeric:normal;font-variant-alternates:normal;font-feature-settings:normal;text-indent:0;text-align:start;text-decoration:none;text-decoration-line:none;text-decoration-style:solid;text-decoration-color:#000000;letter-spacing:normal;word-spacing:normal;text-transform:none;writing-mode:lr-tb;direction:ltr;text-orientation:mixed;dominant-baseline:auto;baseline-shift:baseline;text-anchor:start;white-space:normal;shape-padding:0;clip-rule:nonzero;display:inline;overflow:visible;visibility:visible;opacity:1;isolation:auto;mix-blend-mode:normal;color-interpolation:sRGB;color-interpolation-filters:linearRGB;solid-color:#000000;solid-opacity:1;vector-effect:none;fill:#ffffff;fill-opacity:1;fill-rule:nonzero;stroke:none;stroke-width:3.24954486;stroke-linecap:round;stroke-linejoin:round;stroke-miterlimit:4;stroke-dasharray:none;stroke-dashoffset:0;stroke-opacity:1;paint-order:markers stroke fill;color-rendering:auto;image-rendering:auto;shape-rendering:auto;text-rendering:auto;enable-background:accumulate" />
      <path
         style="color:#000000;font-style:normal;font-variant:normal;font-weight:normal;font-stretch:normal;font-size:medium;line-height:normal;font-family:sans-serif;font-variant-ligatures:normal;font-variant-position:normal;font-variant-caps:normal;font-variant-numeric:normal;font-variant-alternates:normal;font-feature-settings:normal;text-indent:0;text-align:start;text-decoration:none;text-decoration-line:none;text-decoration-style:solid;text-decoration-color:#000000;letter-spacing:normal;word-spacing:normal;text-transform:none;writing-mode:lr-tb;direction:ltr;text-orientation:mixed;dominant-baseline:auto;baseline-shift:baseline;text-anchor:start;white-space:normal;shape-padding:0;clip-rule:nonzero;display:inline;overflow:visible;visibility:visible;opacity:1;isolation:auto;mix-blend-mode:normal;color-interpolation:sRGB;color-interpolation-filters:linearRGB;solid-color:#000000;solid-opacity:1;vector-effect:none;fill:#ffffff;fill-opacity:1;fill-rule:nonzero;stroke:none;stroke-width:1.01425683;stroke-linecap:round;stroke-linejoin:round;stroke-miterlimit:4;stroke-dasharray:none;stroke-dashoffset:0;stroke-opacity:1;paint-order:markers stroke fill;color-rendering:auto;image-rendering:auto;shape-rendering:auto;text-rendering:auto;enable-background:accumulate"
         d="m 4.6374286,288.30564 c -1.4527397,0.001 -2.6252186,1.04569 -2.9714556,2.43064 -0.99967471,0.54996 -1.66466676,1.56863 -1.665996193272,2.71987 C 8.9874673e-4,295.15396 1.3615067,296.5543 3.0585952,296.60392 a 0.50717915,0.50717915 0 0 0 0.00991,0 l 7.0819698,0.0654 a 0.50717915,0.50717915 0 0 0 0.004,0 c 1.399785,1.1e-4 2.545648,-1.14576 2.545548,-2.54555 10e-5,-1.39977 -1.145766,-2.54564 -2.545548,-2.54554 a 0.50717915,0.50717915 0 0 0 -0.002,0 c -0.0609,2.5e-4 -0.119638,0.0192 -0.1802678,0.0237 -0.2318364,-1.04475 -1.0397394,-1.89195 -2.1513346,-1.89183 a 0.50717915,0.50717915 0 0 0 -0.00198,0 c -0.2045786,7.1e-4 -0.3959959,0.0774 -0.5923102,0.13075 -0.5701248,-0.90344 -1.4983679,-1.53364 -2.5871474,-1.53525 a 0.50717915,0.50717915 0 0 0 -0.00198,0 z m 0.00198,0 0.2357354,0.0574 a 0.50717915,0.50717915 0 0 0 -0.2357354,-0.0574 z m -0.00198,1.01425 h 0.00198 c 0.8455845,0.002 1.6079119,0.5 1.949275,1.27377 a 0.50717915,0.50717915 0 0 0 0.6794727,0.25356 c 0.1730815,-0.0808 0.3617375,-0.12188 0.5526908,-0.12283 0.7352844,-8e-5 1.3203282,0.58431 1.3213073,1.31933 10e-7,6.7e-4 10e-8,10e-4 0,0.002 -5.522e-4,0.0224 -0.00221,0.0464 -0.00397,0.0694 a 0.50717915,0.50717915 0 0 0 0.6358916,0.52892 c 0.1247182,-0.0329 0.253284,-0.0508 0.382328,-0.0515 0.851584,-6e-5 1.52937,0.67972 1.529308,1.53129 6.2e-5,0.8516 -0.677727,1.53136 -1.529308,1.53129 l -7.0681033,-0.0654 c -1.1598501,-0.0339 -2.0734461,-0.97318 -2.0740761,-2.13351 9.567e-4,-0.82845 0.4782381,-1.57745 1.2282017,-1.92946 a 0.50717915,0.50717915 0 0 0 0.2872407,-0.38431 c 0.1557689,-1.04905 1.0476669,-1.82071 2.1077525,-1.82249 z"
         id="path822"
         inkscape:connector-curvature="0" />
    </g>
    <g
       id="g839"
       transform="translate(-0.30401909,0.08022079)"
       style="fill:#ffffff">
      <path
         style="color:#000000;font-style:normal;font-variant:normal;font-weight:normal;font-stretch:normal;font-size:medium;line-height:normal;font-family:sans-serif;font-variant-ligatures:normal;font-variant-position:normal;font-variant-caps:normal;font-variant-numeric:normal;font-variant-alternates:normal;font-feature-settings:normal;text-indent:0;text-align:start;text-decoration:none;text-decoration-line:none;text-decoration-style:solid;text-decoration-color:#000000;letter-spacing:normal;word-spacing:normal;text-transform:none;writing-mode:lr-tb;direction:ltr;text-orientation:mixed;dominant-baseline:auto;baseline-shift:baseline;text-anchor:start;white-space:normal;shape-padding:0;clip-rule:nonzero;display:inline;overflow:visible;visibility:visible;opacity:1;isolation:auto;mix-blend-mode:normal;color-interpolation:sRGB;color-interpolation-filters:linearRGB;solid-color:#000000;solid-opacity:1;vector-effect:none;fill:#ffffff;fill-opacity:1;fill-rule:nonzero;stroke:none;stroke-width:0.69999999;stroke-linecap:round;stroke-linejoin:round;stroke-miterlimit:4;stroke-dasharray:none;stroke-dashoffset:0;stroke-opacity:1;color-rendering:auto;image-rendering:auto;shape-rendering:auto;text-rendering:auto;enable-background:accumulate"
         d="m 5.2376302,292.24805 a 0.35003499,0.35003499 0 0 0 -0.2734375,0.17773 l -2.2910157,3.96875 a 0.35042421,0.35042421 0 1 0 0.6074219,0.34961 l 2.2910157,-3.9668 a 0.35003499,0.35003499 0 0 0 -0.3339844,-0.52929 z"
         id="path829"
         inkscape:connector-curvature="0" />
      <path
         style="color:#000000;font-style:normal;font-variant:normal;font-weight:normal;font-stretch:normal;font-size:medium;line-height:normal;font-family:sans-serif;font-variant-ligatures:normal;font-variant-position:normal;font-variant-caps:normal;font-variant-numeric:normal;font-variant-alternates:normal;font-feature-settings:normal;text-indent:0;text-align:start;text-decoration:none;text-decoration-line:none;text-decoration-style:solid;text-decoration-color:#000000;letter-spacing:normal;word-spacing:normal;text-transform:none;writing-mode:lr-tb;direction:ltr;text-orientation:mixed;dominant-baseline:auto;baseline-shift:baseline;text-anchor:start;white-space:normal;shape-padding:0;clip-rule:nonzero;display:inline;overflow:visible;visibility:visible;opacity:1;isolation:auto;mix-blend-mode:normal;color-interpolation:sRGB;color-interpolation-filters:linearRGB;solid-color:#000000;solid-opacity:1;vector-effect:none;fill:#ffffff;fill-opacity:1;fill-rule:nonzero;stroke:none;stroke-width:0.69999999;stroke-linecap:round;stroke-linejoin:round;stroke-miterlimit:4;stroke-dasharray:none;stroke-dashoffset:0;stroke-opacity:1;color-rendering:auto;image-rendering:auto;shape-rendering:auto;text-rendering:auto;enable-background:accumulate"
         d="m 6.6597656,292.24805 a 0.35003499,0.35003499 0 0 0 -0.2734375,0.17773 l -2.2910157,3.96875 a 0.35042421,0.35042421 0 1 0 0.6074219,0.34961 l 2.2910157,-3.9668 a 0.35003499,0.35003499 0 0 0 -0.3339844,-0.52929 z"
         id="path831"
         inkscape:connector-curvature="0" />
      <path
         style="color:#000000;font-style:normal;font-variant:normal;font-weight:normal;font-stretch:normal;font-size:medium;line-height:normal;font-family:sans-serif;font-variant-ligatures:normal;font-variant-position:normal;font-variant-caps:normal;font-variant-numeric:normal;font-variant-alternates:normal;font-feature-settings:normal;text-indent:0;text-align:start;text-decoration:none;text-decoration-line:none;text-decoration-style:solid;text-decoration-color:#000000;letter-spacing:normal;word-spacing:normal;text-transform:none;writing-mode:lr-tb;direction:ltr;text-orientation:mixed;dominant-baseline:auto;baseline-shift:baseline;text-anchor:start;white-space:normal;shape-padding:0;clip-rule:nonzero;display:inline;overflow:visible;visibility:visible;opacity:1;isolation:auto;mix-blend-mode:normal;color-interpolation:sRGB;color-interpolation-filters:linearRGB;solid-color:#000000;solid-opacity:1;vector-effect:none;fill:#ffffff;fill-opacity:1;fill-rule:nonzero;stroke:none;stroke-width:0.69999999;stroke-linecap:round;stroke-linejoin:round;stroke-miterlimit:4;stroke-dasharray:none;stroke-dashoffset:0;stroke-opacity:1;color-rendering:auto;image-rendering:auto;shape-rendering:auto;text-rendering:auto;enable-background:accumulate"
         d="m 8.1480469,292.24805 a 0.35003499,0.35003499 0 0 0 -0.2734375,0.17773 l -2.2910157,3.96875 a 0.35042421,0.35042421 0 1 0 0.6074219,0.34961 l 2.2910157,-3.9668 a 0.35003499,0.35003499 0 0 0 -0.3339844,-0.52929 z"
         id="path833"
         inkscape:connector-curvature="0" />
      <path
         inkscape:connector-curvature="0"
         id="path825"
         d="m 9.7024738,292.24805 a 0.35003499,0.35003499 0 0 0 -0.2734374,0.17773 l -2.2910157,3.96875 a 0.35042421,0.35042421 0 1 0 0.6074219,0.34961 l 2.2910164,-3.9668 a 0.35003499,0.35003499 0 0 0 -0.3339852,-0.52929 z"
         style="color:#000000;font-style:normal;font-variant:normal;font-weight:normal;font-stretch:normal;font-size:medium;line-height:normal;font-family:sans-serif;font-variant-ligatures:normal;font-variant-position:normal;font-variant-caps:normal;font-variant-numeric:normal;font-variant-alternates:normal;font-feature-settings:normal;text-indent:0;text-align:start;text-decoration:none;text-decoration-line:none;text-decoration-style:solid;text-decoration-color:#000000;letter-spacing:normal;word-spacing:normal;text-transform:none;writing-mode:lr-tb;direction:ltr;text-orientation:mixed;dominant-baseline:auto;baseline-shift:baseline;text-anchor:start;white-space:normal;shape-padding:0;clip-rule:nonzero;display:inline;overflow:visible;visibility:visible;opacity:1;isolation:auto;mix-blend-mode:normal;color-interpolation:sRGB;color-interpolation-filters:linearRGB;solid-color:#000000;solid-opacity:1;vector-effect:none;fill:#ffffff;fill-opacity:1;fill-rule:nonzero;stroke:none;stroke-width:0.69999999;stroke-linecap:round;stroke-linejoin:round;stroke-miterlimit:4;stroke-dasharray:none;stroke-dashoffset:0;stroke-opacity:1;color-rendering:auto;image-rendering:auto;shape-rendering:auto;text-rendering:auto;enable-background:accumulate" />
    </g>
  </g>
</svg>
