<?xml version="1.0" encoding="UTF-8" standalone="no"?>
<!-- Created with Inkscape (http://www.inkscape.org/) -->

<svg
   xmlns:dc="http://purl.org/dc/elements/1.1/"
   xmlns:cc="http://creativecommons.org/ns#"
   xmlns:rdf="http://www.w3.org/1999/02/22-rdf-syntax-ns#"
   xmlns:svg="http://www.w3.org/2000/svg"
   xmlns="http://www.w3.org/2000/svg"
   xmlns:sodipodi="http://sodipodi.sourceforge.net/DTD/sodipodi-0.dtd"
   xmlns:inkscape="http://www.inkscape.org/namespaces/inkscape"
   width="48"
   height="48"
   viewBox="0 0 12.7 12.7"
   version="1.1"
   id="svg8"
   inkscape:version="0.92.2 2405546, 2018-03-11"
   sodipodi:docname="ow-02n.svg">
  <defs
     id="defs2" />
  <sodipodi:namedview
     id="base"
     pagecolor="#ffffff"
     bordercolor="#666666"
     borderopacity="1.0"
     inkscape:pageopacity="0.0"
     inkscape:pageshadow="2"
     inkscape:zoom="2.8"
     inkscape:cx="-43.355478"
     inkscape:cy="14.045174"
     inkscape:document-units="mm"
     inkscape:current-layer="layer1"
     showgrid="false"
     units="px"
     inkscape:window-width="1356"
     inkscape:window-height="723"
     inkscape:window-x="5"
     inkscape:window-y="40"
     inkscape:window-maximized="1" />
  <metadata
     id="metadata5">
    <rdf:RDF>
      <cc:Work
         rdf:about="">
        <dc:format>image/svg+xml</dc:format>
        <dc:type
           rdf:resource="http://purl.org/dc/dcmitype/StillImage" />
        <dc:title />
      </cc:Work>
    </rdf:RDF>
  </metadata>
  <g
     inkscape:label="Layer 1"
     inkscape:groupmode="layer"
     id="layer1"
     transform="translate(0,-284.29998)">
    <g
       id="g844"
       transform="matrix(0.87499682,0,0,0.87499682,0.79377019,35.513728)"
       style="fill:#ffffff">
      <g
         style="fill:#ffffff"
         transform="translate(9.3363603e-8,-0.01190085)"
         id="g827">
        <path
           inkscape:connector-curvature="0"
           id="path822"
           d="m 4.6374286,288.30564 c -1.4527397,0.001 -2.6252186,1.04569 -2.9714556,2.43064 -0.99967471,0.54996 -1.66466676,1.56863 -1.665996193272,2.71987 C 8.9874673e-4,295.15396 1.3615067,296.5543 3.0585952,296.60392 a 0.50717915,0.50717915 0 0 0 0.00991,0 l 7.0819698,0.0654 a 0.50717915,0.50717915 0 0 0 0.004,0 c 1.399785,1.1e-4 2.545648,-1.14576 2.545548,-2.54555 10e-5,-1.39977 -1.145766,-2.54564 -2.545548,-2.54554 a 0.50717915,0.50717915 0 0 0 -0.002,0 c -0.0609,2.5e-4 -0.119638,0.0192 -0.1802678,0.0237 -0.2318364,-1.04475 -1.0397394,-1.89195 -2.1513346,-1.89183 a 0.50717915,0.50717915 0 0 0 -0.00198,0 c -0.2045786,7.1e-4 -0.3959959,0.0774 -0.5923102,0.13075 -0.5701248,-0.90344 -1.4983679,-1.53364 -2.5871474,-1.53525 a 0.50717915,0.50717915 0 0 0 -0.00198,0 z m 0.00198,0 0.2357354,0.0574 a 0.50717915,0.50717915 0 0 0 -0.2357354,-0.0574 z m -0.00198,1.01425 h 0.00198 c 0.8455845,0.002 1.6079119,0.5 1.949275,1.27377 a 0.50717915,0.50717915 0 0 0 0.6794727,0.25356 c 0.1730815,-0.0808 0.3617375,-0.12188 0.5526908,-0.12283 0.7352844,-8e-5 1.3203282,0.58431 1.3213073,1.31933 10e-7,6.7e-4 10e-8,10e-4 0,0.002 -5.522e-4,0.0224 -0.00221,0.0464 -0.00397,0.0694 a 0.50717915,0.50717915 0 0 0 0.6358916,0.52892 c 0.1247182,-0.0329 0.253284,-0.0508 0.382328,-0.0515 0.851584,-6e-5 1.52937,0.67972 1.529308,1.53129 6.2e-5,0.8516 -0.677727,1.53136 -1.529308,1.53129 l -7.0681033,-0.0654 c -1.1598501,-0.0339 -2.0734461,-0.97318 -2.0740761,-2.13351 9.567e-4,-0.82845 0.4782381,-1.57745 1.2282017,-1.92946 a 0.50717915,0.50717915 0 0 0 0.2872407,-0.38431 c 0.1557689,-1.04905 1.0476669,-1.82071 2.1077525,-1.82249 z"
           style="color:#000000;font-style:normal;font-variant:normal;font-weight:normal;font-stretch:normal;font-size:medium;line-height:normal;font-family:sans-serif;font-variant-ligatures:normal;font-variant-position:normal;font-variant-caps:normal;font-variant-numeric:normal;font-variant-alternates:normal;font-feature-settings:normal;text-indent:0;text-align:start;text-decoration:none;text-decoration-line:none;text-decoration-style:solid;text-decoration-color:#000000;letter-spacing:normal;word-spacing:normal;text-transform:none;writing-mode:lr-tb;direction:ltr;text-orientation:mixed;dominant-baseline:auto;baseline-shift:baseline;text-anchor:start;white-space:normal;shape-padding:0;clip-rule:nonzero;display:inline;overflow:visible;visibility:visible;opacity:1;isolation:auto;mix-blend-mode:normal;color-interpolation:sRGB;color-interpolation-filters:linearRGB;solid-color:#000000;solid-opacity:1;vector-effect:none;fill:#ffffff;fill-opacity:1;fill-rule:nonzero;stroke:none;stroke-width:1.01425683;stroke-linecap:round;stroke-linejoin:round;stroke-miterlimit:4;stroke-dasharray:none;stroke-dashoffset:0;stroke-opacity:1;paint-order:markers stroke fill;color-rendering:auto;image-rendering:auto;shape-rendering:auto;text-rendering:auto;enable-background:accumulate" />
      </g>
      <path
         id="ellipse827"
         transform="matrix(0.26458333,0,0,0.26458333,0,284.29998)"
         d="M 34.787109,0.10742188 C 27.504673,0.37425652 21.69189,6.2902599 21.6875,13.492188 c 1.46e-4,4.029475 1.824615,7.636427 4.6875,10.09375 A 6.2053569,5.3125002 0 0 1 28.972656,23.089844 6.2053569,5.3125002 0 0 1 31,23.386719 c -3.923684,-1.634458 -6.657515,-5.445642 -6.658203,-9.892578 v -0.002 c 0.0034,-4.6217958 2.987574,-8.5336905 7.195312,-10.0429692 -1.081335,1.8285732 -1.73061,3.892193 -1.734375,6.0546874 a 1.3272258,1.3272258 0 0 0 0,0.00195 c 1.29e-4,6.6962648 5.540107,12.1325478 12.3125,12.1328128 a 1.3272258,1.3272258 0 0 0 0.0039,0 c 0.07094,-1.51e-4 0.140071,-0.01575 0.210937,-0.01953 -1.946241,1.625688 -4.4023,2.615512 -7.039062,2.61914 -1.247084,-3.9e-5 -2.438623,-0.21247 -3.552735,-0.585937 A 6.2053569,5.3125002 0 0 1 34.912109,26.875 c 0.127012,0.0035 0.251074,0.01953 0.378907,0.01953 a 1.3272258,1.3272258 0 0 0 0.002,0 c 4.780138,-0.0038 9.214779,-2.486414 11.667969,-6.541015 a 1.3272258,1.3272258 0 0 0 -1.580079,-1.9375 c -1.046434,0.372283 -2.151953,0.565146 -3.265625,0.568359 -5.360774,-1.89e-4 -9.656697,-4.237961 -9.658203,-9.4746094 v -0.00195 C 32.462478,6.8055658 33.63945,4.233508 35.705125,2.435549 A 1.3272258,1.3272258 0 0 0 34.787109,0.10742188 Z"
         style="color:#000000;font-style:normal;font-variant:normal;font-weight:normal;font-stretch:normal;font-size:medium;line-height:normal;font-family:sans-serif;font-variant-ligatures:normal;font-variant-position:normal;font-variant-caps:normal;font-variant-numeric:normal;font-variant-alternates:normal;font-feature-settings:normal;text-indent:0;text-align:start;text-decoration:none;text-decoration-line:none;text-decoration-style:solid;text-decoration-color:#000000;letter-spacing:normal;word-spacing:normal;text-transform:none;writing-mode:lr-tb;direction:ltr;text-orientation:mixed;dominant-baseline:auto;baseline-shift:baseline;text-anchor:start;white-space:normal;shape-padding:0;clip-rule:nonzero;display:inline;overflow:visible;visibility:visible;opacity:1;isolation:auto;mix-blend-mode:normal;color-interpolation:sRGB;color-interpolation-filters:linearRGB;solid-color:#000000;solid-opacity:1;vector-effect:none;fill:#ffffff;fill-opacity:1;fill-rule:nonzero;stroke:none;stroke-width:2.65418625;stroke-linecap:round;stroke-linejoin:round;stroke-miterlimit:4;stroke-dasharray:none;stroke-dashoffset:0;stroke-opacity:1;paint-order:markers stroke fill;color-rendering:auto;image-rendering:auto;shape-rendering:auto;text-rendering:auto;enable-background:accumulate"
         inkscape:connector-curvature="0" />
      <circle
         style="opacity:1;fill:#ffffff;fill-opacity:1;stroke:none;stroke-width:0.11965132;stroke-linecap:round;stroke-linejoin:round;stroke-miterlimit:4;stroke-dasharray:none;paint-order:markers stroke fill"
         id="circle823"
         cx="10.086841"
         cy="285.94696"
         r="0.54884702" />
      <circle
         r="0.79832286"
         cy="287.72412"
         cx="11.220824"
         id="path819"
         style="opacity:1;fill:#ffffff;fill-opacity:1;stroke:none;stroke-width:0.17403826;stroke-linecap:round;stroke-linejoin:round;stroke-miterlimit:4;stroke-dasharray:none;paint-order:markers stroke fill" />
    </g>
    <g
       id="g839"
       transform="translate(-0.20946015,0.08022079)"
       style="fill:#ffffff">
      <path
         style="color:#000000;font-style:normal;font-variant:normal;font-weight:normal;font-stretch:normal;font-size:medium;line-height:normal;font-family:sans-serif;font-variant-ligatures:normal;font-variant-position:normal;font-variant-caps:normal;font-variant-numeric:normal;font-variant-alternates:normal;font-feature-settings:normal;text-indent:0;text-align:start;text-decoration:none;text-decoration-line:none;text-decoration-style:solid;text-decoration-color:#000000;letter-spacing:normal;word-spacing:normal;text-transform:none;writing-mode:lr-tb;direction:ltr;text-orientation:mixed;dominant-baseline:auto;baseline-shift:baseline;text-anchor:start;white-space:normal;shape-padding:0;clip-rule:nonzero;display:inline;overflow:visible;visibility:visible;opacity:1;isolation:auto;mix-blend-mode:normal;color-interpolation:sRGB;color-interpolation-filters:linearRGB;solid-color:#000000;solid-opacity:1;vector-effect:none;fill:#ffffff;fill-opacity:1;fill-rule:nonzero;stroke:none;stroke-width:0.69999999;stroke-linecap:round;stroke-linejoin:round;stroke-miterlimit:4;stroke-dasharray:none;stroke-dashoffset:0;stroke-opacity:1;color-rendering:auto;image-rendering:auto;shape-rendering:auto;text-rendering:auto;enable-background:accumulate"
         d="m 5.2376302,292.24805 a 0.35003499,0.35003499 0 0 0 -0.2734375,0.17773 l -2.2910157,3.96875 a 0.35042421,0.35042421 0 1 0 0.6074219,0.34961 l 2.2910157,-3.9668 a 0.35003499,0.35003499 0 0 0 -0.3339844,-0.52929 z"
         id="path829"
         inkscape:connector-curvature="0" />
      <path
         style="color:#000000;font-style:normal;font-variant:normal;font-weight:normal;font-stretch:normal;font-size:medium;line-height:normal;font-family:sans-serif;font-variant-ligatures:normal;font-variant-position:normal;font-variant-caps:normal;font-variant-numeric:normal;font-variant-alternates:normal;font-feature-settings:normal;text-indent:0;text-align:start;text-decoration:none;text-decoration-line:none;text-decoration-style:solid;text-decoration-color:#000000;letter-spacing:normal;word-spacing:normal;text-transform:none;writing-mode:lr-tb;direction:ltr;text-orientation:mixed;dominant-baseline:auto;baseline-shift:baseline;text-anchor:start;white-space:normal;shape-padding:0;clip-rule:nonzero;display:inline;overflow:visible;visibility:visible;opacity:1;isolation:auto;mix-blend-mode:normal;color-interpolation:sRGB;color-interpolation-filters:linearRGB;solid-color:#000000;solid-opacity:1;vector-effect:none;fill:#ffffff;fill-opacity:1;fill-rule:nonzero;stroke:none;stroke-width:0.69999999;stroke-linecap:round;stroke-linejoin:round;stroke-miterlimit:4;stroke-dasharray:none;stroke-dashoffset:0;stroke-opacity:1;color-rendering:auto;image-rendering:auto;shape-rendering:auto;text-rendering:auto;enable-background:accumulate"
         d="m 6.6597656,292.24805 a 0.35003499,0.35003499 0 0 0 -0.2734375,0.17773 l -2.2910157,3.96875 a 0.35042421,0.35042421 0 1 0 0.6074219,0.34961 l 2.2910157,-3.9668 a 0.35003499,0.35003499 0 0 0 -0.3339844,-0.52929 z"
         id="path831"
         inkscape:connector-curvature="0" />
      <path
         style="color:#000000;font-style:normal;font-variant:normal;font-weight:normal;font-stretch:normal;font-size:medium;line-height:normal;font-family:sans-serif;font-variant-ligatures:normal;font-variant-position:normal;font-variant-caps:normal;font-variant-numeric:normal;font-variant-alternates:normal;font-feature-settings:normal;text-indent:0;text-align:start;text-decoration:none;text-decoration-line:none;text-decoration-style:solid;text-decoration-color:#000000;letter-spacing:normal;word-spacing:normal;text-transform:none;writing-mode:lr-tb;direction:ltr;text-orientation:mixed;dominant-baseline:auto;baseline-shift:baseline;text-anchor:start;white-space:normal;shape-padding:0;clip-rule:nonzero;display:inline;overflow:visible;visibility:visible;opacity:1;isolation:auto;mix-blend-mode:normal;color-interpolation:sRGB;color-interpolation-filters:linearRGB;solid-color:#000000;solid-opacity:1;vector-effect:none;fill:#ffffff;fill-opacity:1;fill-rule:nonzero;stroke:none;stroke-width:0.69999999;stroke-linecap:round;stroke-linejoin:round;stroke-miterlimit:4;stroke-dasharray:none;stroke-dashoffset:0;stroke-opacity:1;color-rendering:auto;image-rendering:auto;shape-rendering:auto;text-rendering:auto;enable-background:accumulate"
         d="m 8.1480469,292.24805 a 0.35003499,0.35003499 0 0 0 -0.2734375,0.17773 l -2.2910157,3.96875 a 0.35042421,0.35042421 0 1 0 0.6074219,0.34961 l 2.2910157,-3.9668 a 0.35003499,0.35003499 0 0 0 -0.3339844,-0.52929 z"
         id="path833"
         inkscape:connector-curvature="0" />
      <path
         inkscape:connector-curvature="0"
         id="path825"
         d="m 9.7024738,292.24805 a 0.35003499,0.35003499 0 0 0 -0.2734374,0.17773 l -2.2910157,3.96875 a 0.35042421,0.35042421 0 1 0 0.6074219,0.34961 l 2.2910164,-3.9668 a 0.35003499,0.35003499 0 0 0 -0.3339852,-0.52929 z"
         style="color:#000000;font-style:normal;font-variant:normal;font-weight:normal;font-stretch:normal;font-size:medium;line-height:normal;font-family:sans-serif;font-variant-ligatures:normal;font-variant-position:normal;font-variant-caps:normal;font-variant-numeric:normal;font-variant-alternates:normal;font-feature-settings:normal;text-indent:0;text-align:start;text-decoration:none;text-decoration-line:none;text-decoration-style:solid;text-decoration-color:#000000;letter-spacing:normal;word-spacing:normal;text-transform:none;writing-mode:lr-tb;direction:ltr;text-orientation:mixed;dominant-baseline:auto;baseline-shift:baseline;text-anchor:start;white-space:normal;shape-padding:0;clip-rule:nonzero;display:inline;overflow:visible;visibility:visible;opacity:1;isolation:auto;mix-blend-mode:normal;color-interpolation:sRGB;color-interpolation-filters:linearRGB;solid-color:#000000;solid-opacity:1;vector-effect:none;fill:#ffffff;fill-opacity:1;fill-rule:nonzero;stroke:none;stroke-width:0.69999999;stroke-linecap:round;stroke-linejoin:round;stroke-miterlimit:4;stroke-dasharray:none;stroke-dashoffset:0;stroke-opacity:1;color-rendering:auto;image-rendering:auto;shape-rendering:auto;text-rendering:auto;enable-background:accumulate" />
    </g>
  </g>
</svg>
