<?xml version="1.0" encoding="UTF-8" standalone="no"?>
<!-- Created with Inkscape (http://www.inkscape.org/) -->

<svg
   xmlns:dc="http://purl.org/dc/elements/1.1/"
   xmlns:cc="http://creativecommons.org/ns#"
   xmlns:rdf="http://www.w3.org/1999/02/22-rdf-syntax-ns#"
   xmlns:svg="http://www.w3.org/2000/svg"
   xmlns="http://www.w3.org/2000/svg"
   xmlns:sodipodi="http://sodipodi.sourceforge.net/DTD/sodipodi-0.dtd"
   xmlns:inkscape="http://www.inkscape.org/namespaces/inkscape"
   width="48"
   height="48"
   viewBox="0 0 12.7 12.7"
   version="1.1"
   id="svg8"
   inkscape:version="0.92.2 2405546, 2018-03-11"
   sodipodi:docname="ow-50d.svg">
  <defs
     id="defs2" />
  <sodipodi:namedview
     id="base"
     pagecolor="#ffffff"
     bordercolor="#666666"
     borderopacity="1.0"
     inkscape:pageopacity="0.0"
     inkscape:pageshadow="2"
     inkscape:zoom="11.2"
     inkscape:cx="34.95385"
     inkscape:cy="22.484417"
     inkscape:document-units="mm"
     inkscape:current-layer="layer1"
     showgrid="false"
     units="px"
     inkscape:window-width="1910"
     inkscape:window-height="1035"
     inkscape:window-x="5"
     inkscape:window-y="40"
     inkscape:window-maximized="1" />
  <metadata
     id="metadata5">
    <rdf:RDF>
      <cc:Work
         rdf:about="">
        <dc:format>image/svg+xml</dc:format>
        <dc:type
           rdf:resource="http://purl.org/dc/dcmitype/StillImage" />
        <dc:title></dc:title>
      </cc:Work>
    </rdf:RDF>
  </metadata>
  <g
     inkscape:label="Layer 1"
     inkscape:groupmode="layer"
     id="layer1"
     transform="translate(0,-284.29998)">
    <path
       style="color:#000000;font-style:normal;font-variant:normal;font-weight:normal;font-stretch:normal;font-size:medium;line-height:normal;font-family:sans-serif;font-variant-ligatures:normal;font-variant-position:normal;font-variant-caps:normal;font-variant-numeric:normal;font-variant-alternates:normal;font-feature-settings:normal;text-indent:0;text-align:start;text-decoration:none;text-decoration-line:none;text-decoration-style:solid;text-decoration-color:#000000;letter-spacing:normal;word-spacing:normal;text-transform:none;writing-mode:lr-tb;direction:ltr;text-orientation:mixed;dominant-baseline:auto;baseline-shift:baseline;text-anchor:start;white-space:normal;shape-padding:0;clip-rule:nonzero;display:inline;overflow:visible;visibility:visible;opacity:1;isolation:auto;mix-blend-mode:normal;color-interpolation:sRGB;color-interpolation-filters:linearRGB;solid-color:#000000;solid-opacity:1;vector-effect:none;fill:#ffffff;fill-opacity:1;fill-rule:nonzero;stroke:none;stroke-width:0.97231627;stroke-linecap:round;stroke-linejoin:round;stroke-miterlimit:4;stroke-dasharray:none;stroke-dashoffset:0;stroke-opacity:1;color-rendering:auto;image-rendering:auto;shape-rendering:auto;text-rendering:auto;enable-background:accumulate"
       d="m 9.3242188,294.45117 a 0.48620675,0.48620675 0 0 0 -0.2050782,0.041 l -2.7558594,1.20508 -2.3730468,-1.17579 a 0.48620675,0.48620675 0 0 0 -0.3925782,-0.0176 l -3.28124995,1.27734 a 0.48620675,0.48620675 0 1 0 0.3515625,0.90625 L 3.75,295.48828 l 2.3847656,1.18164 a 0.48620675,0.48620675 0 0 0 0.4101563,0.01 l 2.765625,-1.20899 2.6992191,1.20703 a 0.48655265,0.48655265 0 1 0 0.396484,-0.88867 l -2.8945312,-1.29492 a 0.48620675,0.48620675 0 0 0 -0.1875,-0.043 z"
       id="path868"
       inkscape:connector-curvature="0" />
    <path
       style="color:#000000;font-style:normal;font-variant:normal;font-weight:normal;font-stretch:normal;font-size:medium;line-height:normal;font-family:sans-serif;font-variant-ligatures:normal;font-variant-position:normal;font-variant-caps:normal;font-variant-numeric:normal;font-variant-alternates:normal;font-feature-settings:normal;text-indent:0;text-align:start;text-decoration:none;text-decoration-line:none;text-decoration-style:solid;text-decoration-color:#000000;letter-spacing:normal;word-spacing:normal;text-transform:none;writing-mode:lr-tb;direction:ltr;text-orientation:mixed;dominant-baseline:auto;baseline-shift:baseline;text-anchor:start;white-space:normal;shape-padding:0;clip-rule:nonzero;display:inline;overflow:visible;visibility:visible;opacity:1;isolation:auto;mix-blend-mode:normal;color-interpolation:sRGB;color-interpolation-filters:linearRGB;solid-color:#000000;solid-opacity:1;vector-effect:none;fill:#ffffff;fill-opacity:1;fill-rule:nonzero;stroke:none;stroke-width:0.97231627;stroke-linecap:round;stroke-linejoin:round;stroke-miterlimit:4;stroke-dasharray:none;stroke-dashoffset:0;stroke-opacity:1;color-rendering:auto;image-rendering:auto;shape-rendering:auto;text-rendering:auto;enable-background:accumulate"
       d="m 9.3242188,291.4043 a 0.48620675,0.48620675 0 0 0 -0.2050782,0.041 l -2.7558594,1.20508 -2.3730468,-1.17578 a 0.48620675,0.48620675 0 0 0 -0.3925782,-0.0176 l -3.28124995,1.27539 a 0.48620675,0.48620675 0 1 0 0.3515625,0.90625 L 3.75,292.44141 l 2.3847656,1.17968 a 0.48620675,0.48620675 0 0 0 0.4101563,0.01 l 2.765625,-1.20898 2.6992191,1.20898 a 0.48655265,0.48655265 0 1 0 0.396484,-0.88867 l -2.8945312,-1.29492 a 0.48620675,0.48620675 0 0 0 -0.1875,-0.043 z"
       id="path870"
       inkscape:connector-curvature="0" />
    <path
       style="color:#000000;font-style:normal;font-variant:normal;font-weight:normal;font-stretch:normal;font-size:medium;line-height:normal;font-family:sans-serif;font-variant-ligatures:normal;font-variant-position:normal;font-variant-caps:normal;font-variant-numeric:normal;font-variant-alternates:normal;font-feature-settings:normal;text-indent:0;text-align:start;text-decoration:none;text-decoration-line:none;text-decoration-style:solid;text-decoration-color:#000000;letter-spacing:normal;word-spacing:normal;text-transform:none;writing-mode:lr-tb;direction:ltr;text-orientation:mixed;dominant-baseline:auto;baseline-shift:baseline;text-anchor:start;white-space:normal;shape-padding:0;clip-rule:nonzero;display:inline;overflow:visible;visibility:visible;opacity:1;isolation:auto;mix-blend-mode:normal;color-interpolation:sRGB;color-interpolation-filters:linearRGB;solid-color:#000000;solid-opacity:1;vector-effect:none;fill:#ffffff;fill-opacity:0.66000003;fill-rule:nonzero;stroke:none;stroke-width:0.97231627;stroke-linecap:round;stroke-linejoin:round;stroke-miterlimit:4;stroke-dasharray:none;stroke-dashoffset:0;stroke-opacity:1;color-rendering:auto;image-rendering:auto;shape-rendering:auto;text-rendering:auto;enable-background:accumulate"
       d="m 9.3242188,288.12109 a 0.48620675,0.48620675 0 0 0 -0.2050782,0.041 l -2.7558594,1.20508 -2.3730468,-1.17578 a 0.48620675,0.48620675 0 0 0 -0.3925782,-0.0176 l -3.28124995,1.27539 a 0.48620675,0.48620675 0 1 0 0.3515625,0.90625 L 3.75,289.15625 l 2.3847656,1.18164 a 0.48620675,0.48620675 0 0 0 0.4101563,0.01 l 2.765625,-1.20899 2.6992191,1.20703 a 0.48620675,0.48620675 0 1 0 0.396484,-0.88672 l -2.8945312,-1.29492 a 0.48620675,0.48620675 0 0 0 -0.1875,-0.043 z"
       id="path872"
       inkscape:connector-curvature="0" />
    <path
       style="color:#000000;font-style:normal;font-variant:normal;font-weight:normal;font-stretch:normal;font-size:medium;line-height:normal;font-family:sans-serif;font-variant-ligatures:normal;font-variant-position:normal;font-variant-caps:normal;font-variant-numeric:normal;font-variant-alternates:normal;font-feature-settings:normal;text-indent:0;text-align:start;text-decoration:none;text-decoration-line:none;text-decoration-style:solid;text-decoration-color:#000000;letter-spacing:normal;word-spacing:normal;text-transform:none;writing-mode:lr-tb;direction:ltr;text-orientation:mixed;dominant-baseline:auto;baseline-shift:baseline;text-anchor:start;white-space:normal;shape-padding:0;clip-rule:nonzero;display:inline;overflow:visible;visibility:visible;opacity:1;isolation:auto;mix-blend-mode:normal;color-interpolation:sRGB;color-interpolation-filters:linearRGB;solid-color:#000000;solid-opacity:1;vector-effect:none;fill:#ffffff;fill-opacity:0.33000001;fill-rule:nonzero;stroke:none;stroke-width:0.97231627;stroke-linecap:round;stroke-linejoin:round;stroke-miterlimit:4;stroke-dasharray:none;stroke-dashoffset:0;stroke-opacity:1;color-rendering:auto;image-rendering:auto;shape-rendering:auto;text-rendering:auto;enable-background:accumulate"
       d="m 9.2517671,284.57812 a 0.48620675,0.48620675 0 0 0 -0.15625,0.0391 l -2.7558594,1.20508 -2.3730468,-1.17579 a 0.48620675,0.48620675 0 0 0 -0.3925782,-0.0176 l -3.28124996,1.27734 a 0.48620675,0.48620675 0 1 0 0.3515625,0.90625 l 3.08203126,-1.19922 2.3847656,1.18164 a 0.48620675,0.48620675 0 0 0 0.4101563,0.01 l 2.765625,-1.20899 2.6992186,1.20703 a 0.48620675,0.48620675 0 1 0 0.396484,-0.88671 l -2.8945307,-1.29688 a 0.48620675,0.48620675 0 0 0 -0.2363282,-0.041 z"
       id="path866"
       inkscape:connector-curvature="0" />
  </g>
</svg>
