<?xml version="1.0"?><svg fill="#cacbc7" xmlns="http://www.w3.org/2000/svg"  viewBox="0 0 30 30" width="100px" height="100px">    <path d="M 1.7070312 0.29296875 L 0.29296875 1.7070312 L 28.292969 29.707031 L 29.707031 28.292969 L 26.992188 25.578125 C 28.963279 22.474938 30 18.937386 30 15.255859 C 30 10.870859 28.47975 6.5658594 25.71875 3.1308594 C 25.37275 2.7018594 24.7425 2.6335156 24.3125 2.9785156 C 23.8815 3.3245156 23.814156 3.9547656 24.160156 4.3847656 C 26.672156 7.5087656 28 11.268859 28 15.255859 C 28 18.403042 27.145366 21.431087 25.533203 24.119141 L 22.714844 21.300781 C 23.559515 19.406077 24 17.357926 24 15.255859 C 24 11.896859 22.8975 8.7109687 20.8125 6.0429688 C 20.4715 5.6079688 19.843203 5.5301406 19.408203 5.8691406 C 18.973203 6.2091406 18.896328 6.8384375 19.236328 7.2734375 C 21.043328 9.5864375 22 12.346859 22 15.255859 C 22 16.810435 21.713763 18.328655 21.175781 19.761719 L 17.902344 16.488281 C 17.959493 16.080699 18 15.670252 18 15.255859 C 18 12.888859 17.094219 10.635156 15.449219 8.9101562 C 15.067219 8.5111562 14.435156 8.4959531 14.035156 8.8769531 C 13.636156 9.2579531 13.619953 9.8920156 14.001953 10.291016 C 15.125251 11.469258 15.808365 12.960725 15.964844 14.550781 L 11 9.5859375 L 11 7 L 9.6738281 8.2597656 L 1.7070312 0.29296875 z M 3 11 C 1.343 11 0 12.343 0 14 L 0 16 C 0 17.657 1.343 19 3 19 L 6.7949219 19 L 11 23 L 11 15.21875 L 6.78125 11 L 3 11 z M 14.865234 19.085938 C 14.712234 19.327938 14.564813 19.572875 14.382812 19.796875 C 14.034812 20.224875 14.098344 20.855125 14.527344 21.203125 C 14.713344 21.354125 14.936203 21.427734 15.158203 21.427734 C 15.449203 21.427734 15.736594 21.301594 15.933594 21.058594 C 16.070594 20.890594 16.196312 20.715063 16.320312 20.539062 L 14.865234 19.085938 z"/></svg>