<?xml version="1.0"?><svg fill="#cacbc7" xmlns="http://www.w3.org/2000/svg"  viewBox="0 0 30 30" width="100px" height="100px">    <path d="M 11 7 L 6.7929688 11 L 3 11 C 1.343 11 0 12.343 0 14 L 0 16 C 0 17.657 1.343 19 3 19 L 6.7929688 19 L 11 23 L 11 7 z M 16.990234 9.9902344 A 1.0001 1.0001 0 0 0 16.292969 11.707031 L 19.585938 15 L 16.292969 18.292969 A 1.0001 1.0001 0 1 0 17.707031 19.707031 L 21 16.414062 L 24.292969 19.707031 A 1.0001 1.0001 0 1 0 25.707031 18.292969 L 22.414062 15 L 25.707031 11.707031 A 1.0001 1.0001 0 0 0 24.980469 9.9902344 A 1.0001 1.0001 0 0 0 24.292969 10.292969 L 21 13.585938 L 17.707031 10.292969 A 1.0001 1.0001 0 0 0 16.990234 9.9902344 z"/></svg>