<?xml version="1.0"?><svg fill="#cacbc7" xmlns="http://www.w3.org/2000/svg"  viewBox="0 0 30 30" width="100px" height="100px">    <path d="M 11 7 L 6.7929688 11 L 3 11 C 1.343 11 0 12.343 0 14 L 0 16 C 0 17.657 1.343 19 3 19 L 6.7929688 19 L 11 23 L 11 7 z M 14.738281 8.5917969 A 1.0001 1.0001 0 0 0 14.001953 10.291016 C 15.239451 11.587484 16 13.328154 16 15.255859 C 16 16.979025 15.392559 18.553804 14.380859 19.796875 A 1.0001 1.0001 0 1 0 15.931641 21.058594 C 17.219941 19.475665 18 17.450694 18 15.255859 C 18 12.799565 17.023721 10.559688 15.449219 8.9101562 A 1.0001 1.0001 0 0 0 14.738281 8.5917969 z"/></svg>