<svg width="24" height="24" version="1.1" viewBox="0 0 54 54" xmlns="http://www.w3.org/2000/svg">
 <path d="m22.5 4.5a2.25 2.25 0 00-2.25 2.25 2.25 2.25 0 002.25 2.25c7.49 0 13.5 6.01 13.5 13.5a2.25 2.25 0 002.25 2.25 2.25 2.25 0 002.25-2.25c0-9.92-8.08-18-18-18zm0 9c-9.92 0-18 8.08-18 18a2.25 2.25 0 002.25 2.25 2.25 2.25 0 002.25-2.25c0-7.49 6.01-13.5 13.5-13.5a2.25 2.25 0 002.25-2.25 2.25 2.25 0 00-2.25-2.25zm24.8 6.75a2.25 2.25 0 00-2.25 2.25c0 7.49-6.01 13.5-13.5 13.5a2.25 2.25 0 00-2.25 2.25 2.25 2.25 0 002.25 2.25c9.92 0 18-8.08 18-18a2.25 2.25 0 00-2.25-2.25zm-31.5 9a2.25 2.25 0 00-2.25 2.25c0 9.92 8.08 18 18 18a2.25 2.25 0 002.25-2.25 2.25 2.25 0 00-2.25-2.25c-7.49 0-13.5-6.01-13.5-13.5a2.25 2.25 0 00-2.25-2.25z" style="fill:#ededed;stroke-width:2.25"/>
</svg>
