<svg viewBox="0 0 22 22" xmlns="http://www.w3.org/2000/svg">
 <defs>
  <radialGradient id="radialGradient3129" r="24" gradientTransform="matrix(0.625 0 0 0.10417 -4 14.781)" gradientUnits="userSpaceOnUse" cy="40.5" cx="24">
   <stop style="stop-color:#000;stop-opacity:1"/>
   <stop offset="1" style="stop-color:#000;stop-opacity:0.196"/>
  </radialGradient>
 </defs>
 <path d="m 11 16.498 c -4.913 0 -9.264 0.391 -12 1 l 0 3 c 2.736 0.609 7.087 1 12 1 4.913 0 9.264 -0.391 12 -1 l 0 -3 c -2.736 -0.609 -7.087 -1 -12 -1 z" style="fill:url(#radialGradient3129);opacity:0.1;fill-opacity:1;stroke:none"/>
 <rect ry="2.5" rx="2.391" height="16" width="22" y="3.998" style="fill:#1976d2;fill-opacity:1;stroke:none"/>
 <path d="M 2.391,3.9978 C 1.066,3.9978 0,5.1128 0,6.4978 l 0,1 c 0,-1.385 1.067,-2.5 2.391,-2.5 l 17.217,0 c 1.325,0 2.391,1.115 2.391,2.5 l 0,-1 c 0,-1.385 -1.067,-2.5 -2.391,-2.5 l -17.217,0 z" style="fill:#fff;opacity:0.2;fill-opacity:1;stroke:none"/>
 <path d="m 5 4.998 l -4 4 l 2 0 l 0 9 l 4 0 l 0 -9 l 2 0 l -4 -4 z" style="fill:#fff1ed;opacity:0.6;fill-opacity:1;stroke:none"/>
 <path d="m 2.391,10.9978 3.826,0 c 5.261,-0.361 4.304,-4 7.652,-4 l 5.739,0 c 1.325,0 2.391,0.805 2.391,1.806 l 0,9.389 c 0,1 -1.067,1.806 -2.391,1.806 l -17.217,0 C 1.066,19.9988 0,19.1938 0,18.1928 l 0,-5.055 c 0,-1.083 0.957,-2.139 2.391,-2.139 z" style="fill:#42a5f5;fill-opacity:1;stroke:none"/>
 <path d="m 0 16.498 0 1 c 0 1.385 1.067 2.5 2.391 2.5 l 17.217 0 c 1.325 0 2.391 -1.115 2.391 -2.5 l 0 -1 c 0 1.385 -1.067 2.5 -2.391 2.5 l -17.217 0 c -1.325 0 -2.391 -1.115 -2.391 -2.5 z" style="fill:#000;opacity:0.15;fill-opacity:1;stroke:none"/>
</svg>
