<svg xmlns="http://www.w3.org/2000/svg" viewBox="0 0 24 24">
 <g transform="translate(0,-1028.3622)">
  <rect width="11" height="7.5" x="3" y="1033.36" rx="1.196" ry="1.172" style="fill:#1976d2;fill-opacity:1;stroke:none"/>
  <path d="m 4.196 1033.36 c -0.662 0 -1.196 0.5 -1.196 1.25 l 0 0.75 c 0 -0.693 0.533 -1 1.196 -1 l 8.609 0 c 0.662 0 1.196 0.307 1.196 1 l 0 -0.75 c 0 -0.693 -0.533 -1.25 -1.196 -1.25 z" style="fill:#fff;opacity:0.2;fill-opacity:1;stroke:none"/>
  <path d="m 4.196 1035.36 1.913 0 c 2.63 -0.236 2.152 -3 3.826 -3 l 2.87 0 c 0.662 0 1.196 0.526 1.196 1.18 l 0 6.639 c 0 0.654 -0.533 1.181 -1.196 1.181 l -8.609 0 c -0.662 0 -1.196 -0.526 -1.196 -1.181 l 0 -3.806 c 0 -0.708 0.478 -1.014 1.196 -1.014 z" style="fill:#42a5f5;fill-opacity:1;stroke:none"/>
  <path d="m 3 1039.26 0 0.957 c 0 0.632 0.524 1.141 1.196 1.141 l 8.609 0 c 0.662 0 1.196 -0.509 1.196 -1.141 l 0 -0.957 c 0 0.632 -0.533 1.098 -1.196 1.098 l -8.609 0 c -0.662 0 -1.196 -0.466 -1.196 -1.098 z" style="fill:#000;opacity:0.15;fill-opacity:1;stroke:none"/>
  <rect width="11" height="7.5" x="10" y="1040.36" rx="1.196" ry="1.172" style="fill:#1976d2;fill-opacity:1;stroke:none"/>
  <path d="m 11.196 1040.36 c -0.662 0 -1.196 0.5 -1.196 1.25 l 0 0.75 c 0 -0.693 0.533 -1 1.196 -1 l 8.609 0 c 0.662 0 1.196 0.307 1.196 1 l 0 -0.75 c 0 -0.693 -0.533 -1.25 -1.196 -1.25 z" style="fill:#fff;opacity:0.2;fill-opacity:1;stroke:none"/>
  <path d="m 11.196 1042.36 1.913 0 c 2.63 -0.236 2.152 -3 3.826 -3 l 2.87 0 c 0.662 0 1.196 0.526 1.196 1.18 l 0 6.639 c 0 0.654 -0.533 1.181 -1.196 1.181 l -8.609 0 c -0.662 0 -1.196 -0.526 -1.196 -1.181 l 0 -3.806 c 0 -0.708 0.478 -1.014 1.196 -1.014 z" style="fill:#42a5f5;fill-opacity:1;stroke:none"/>
  <path d="m 10 1046.26 0 0.957 c 0 0.632 0.524 1.141 1.196 1.141 l 8.609 0 c 0.662 0 1.196 -0.509 1.196 -1.141 l 0 -0.957 c 0 0.632 -0.533 1.098 -1.196 1.098 l -8.609 0 c -0.662 0 -1.196 -0.466 -1.196 -1.098 z" style="fill:#000;opacity:0.15;fill-opacity:1;stroke:none"/>
 </g>
</svg>
