<svg version="1.1" viewBox="0 0 24 24" xmlns="http://www.w3.org/2000/svg">
 <defs>
  <radialGradient id="radialGradient3053" cx="24" cy="40.5" r="24" gradientTransform="matrix(.625 0 0 .10416663 -3 1044.1435)" gradientUnits="userSpaceOnUse">
   <stop offset="0"/>
   <stop style="stop-opacity:.196" offset="1"/>
  </radialGradient>
 </defs>
 <g transform="translate(0,-1028.3622)">
  <path d="m12 1045.86c-4.913 0-9.264 0.391-12 1v3c2.736 0.609 7.087 1 12 1s9.264-0.391 12-1v-3c-2.736-0.609-7.087-1-12-1z" style="fill:url(#radialGradient3053);opacity:.1"/>
  <rect x="1" y="1033.36" width="22" height="16" rx="2.391" ry="2.5" style="fill:#5d4037"/>
  <path d="m3.391 1033.36c-1.325 0-2.391 1.115-2.391 2.5v1c0-1.385 1.067-2.5 2.391-2.5h17.217c1.325 0 2.391 1.115 2.391 2.5v-1c0-1.385-1.067-2.5-2.391-2.5h-17.217z" style="fill:#fff;opacity:.2"/>
  <path d="m3.391 1037.36h3.826c5.261-0.5 4.304-6 7.652-6h5.739c1.325 0 2.391 1.115 2.391 2.5v13c0 1.385-1.067 2.5-2.391 2.5h-17.217c-1.325 0-2.391-1.115-2.391-2.5v-7c0-1.5 0.957-2.5 2.391-2.5z" style="fill:#8d6e63"/>
  <path d="m1 1045.86v1c0 1.385 1.067 2.5 2.391 2.5h17.217c1.325 0 2.391-1.115 2.391-2.5v-1c0 1.385-1.067 2.5-2.391 2.5h-17.217c-1.325 0-2.391-1.115-2.391-2.5z" style="opacity:.15"/>
  <path d="m6.5727909 1040.3629a3.5 3.5 0 0 0-2.546875 1.0254 3.5 3.5 0 0 0-0.7597656 3.8144 3.5 3.5 0 0 0 3.234375 2.1602h3.4999997v-1h-3.4999997a2.4999999 2.4999999 0 0 1-2.5-2.5 2.4999999 2.4999999 0 0 1 2.5-2.5 2.4999999 2.4999999 0 0 1 1.5 0.5v-1.1621a3.5 3.5 0 0 0-0.1601562-0.072 3.5 3.5 0 0 0-1.2675782-0.2656zm-0.035156 2a1.5 1.5 0 0 0-1.0976563 0.4395 1.5 1.5 0 0 0-0.3261719 1.6347 1.5 1.5 0 0 0 1.3867186 0.9258h3.4999997v-1h-3.4999997a0.49999993 0.49999993 0 0 1-0.5-0.5 0.49999993 0.49999993 0 0 1 0.5-0.5h1.4140625a1.5 1.5 0 0 0-0.8398437-0.8867 1.5 1.5 0 0 0-0.5371092-0.1133z" style="-inkscape-stroke:none;fill-opacity:.098;font-variation-settings:normal;stop-color:#000000"/>
  <path d="m6.5727909 1039.3629a3.5 3.5 0 0 0-2.546875 1.0254 3.5 3.5 0 0 0-0.7597656 3.8144 3.5 3.5 0 0 0 3.234375 2.1602h3.4999997v-1h-3.4999997a2.4999999 2.4999999 0 0 1-2.5-2.5 2.4999999 2.4999999 0 0 1 2.5-2.5 2.4999999 2.4999999 0 0 1 1.5 0.5v-1.1621a3.5 3.5 0 0 0-0.1601562-0.072 3.5 3.5 0 0 0-1.2675782-0.2656zm-0.035156 2a1.5 1.5 0 0 0-1.0976563 0.4395 1.5 1.5 0 0 0-0.3261719 1.6347 1.5 1.5 0 0 0 1.3867186 0.9258h3.4999997v-1h-3.4999997a0.49999993 0.49999993 0 0 1-0.5-0.5 0.49999993 0.49999993 0 0 1 0.5-0.5h1.4140625a1.5 1.5 0 0 0-0.8398437-0.8867 1.5 1.5 0 0 0-0.5371092-0.1133z" style="-inkscape-stroke:none;fill:#fff8e1;font-variation-settings:normal;stop-color:#000000"/>
 </g>
</svg>
