<svg xmlns="http://www.w3.org/2000/svg" viewBox="0 0 24 24">
 <defs>
  <radialGradient r="24" cy="40.5" cx="24" gradientTransform="matrix(0.625,0,0,0.10416663,-3,1044.1435)" gradientUnits="userSpaceOnUse" id="radialGradient3053">
   <stop style="stop-color:#000;stop-opacity:1"/>
   <stop offset="1" style="stop-color:#000;stop-opacity:0.196"/>
  </radialGradient>
 </defs>
 <g transform="translate(0,-1028.3622)">
  <path d="m 12 1045.86 c -4.913 0 -9.264 0.391 -12 1 l 0 3 c 2.736 0.609 7.087 1 12 1 4.913 0 9.264 -0.391 12 -1 l 0 -3 c -2.736 -0.609 -7.087 -1 -12 -1 z" style="fill:url(#radialGradient3053);opacity:0.1;fill-opacity:1;stroke:none"/>
  <rect width="22" height="16" x="1" y="1033.36" rx="2.391" ry="2.5" style="fill:#5d4037;fill-opacity:1;stroke:none"/>
  <path d="m 3.391 1033.36 c -1.325 0 -2.391 1.115 -2.391 2.5 l 0 1 c 0 -1.385 1.067 -2.5 2.391 -2.5 l 17.217 0 c 1.325 0 2.391 1.115 2.391 2.5 l 0 -1 c 0 -1.385 -1.067 -2.5 -2.391 -2.5 l -17.217 0 z" style="fill:#fff;opacity:0.2;fill-opacity:1;stroke:none"/>
  <path d="m 3.391 1037.36 3.826 0 c 5.261 -0.5 4.304 -6 7.652 -6 l 5.739 0 c 1.325 0 2.391 1.115 2.391 2.5 l 0 13 c 0 1.385 -1.067 2.5 -2.391 2.5 l -17.217 0 c -1.325 0 -2.391 -1.115 -2.391 -2.5 l 0 -7 c 0 -1.5 0.957 -2.5 2.391 -2.5 z" style="fill:#8d6e63;fill-opacity:1;stroke:none"/>
  <path d="m 1 1045.86 0 1 c 0 1.385 1.067 2.5 2.391 2.5 l 17.217 0 c 1.325 0 2.391 -1.115 2.391 -2.5 l 0 -1 c 0 1.385 -1.067 2.5 -2.391 2.5 l -17.217 0 c -1.325 0 -2.391 -1.115 -2.391 -2.5 z" style="fill:#000;opacity:0.15;fill-opacity:1;stroke:none"/>
  <path d="m 5.949 1040.36 c -0.194 0 -0.356 0.154 -0.356 0.348 l 0 0.454 c -0.123 0.042 -0.242 0.089 -0.356 0.146 l -0.316 -0.316 c -0.137 -0.137 -0.357 -0.137 -0.494 0 l -0.794 0.786 c -0.137 0.137 -0.137 0.357 0 0.494 l 0.316 0.316 c -0.058 0.117 -0.104 0.239 -0.146 0.364 l -0.446 0 c -0.194 0 -0.356 0.154 -0.356 0.348 l 0 1.118 c 0 0.194 0.162 0.348 0.356 0.348 l 0.446 0 c 0.042 0.125 0.088 0.248 0.146 0.365 l -0.316 0.316 c -0.137 0.137 -0.137 0.357 0 0.494 l 0.794 0.786 c 0.137 0.137 0.357 0.137 0.494 0 l 0.316 -0.316 c 0.115 0.057 0.234 0.104 0.356 0.146 l 0 0.454 c 0 0.194 0.162 0.349 0.356 0.349 l 1.11 0 c 0.194 0 0.348 -0.154 0.348 -0.349 l 0 -0.454 c 0.125 -0.042 0.248 -0.088 0.365 -0.146 l 0.316 0.316 c 0.137 0.137 0.357 0.137 0.494 0 l 0.794 -0.786 c 0.137 -0.137 0.137 -0.357 0 -0.494 l -0.324 -0.324 c 0.057 -0.115 0.105 -0.234 0.146 -0.357 l 0.454 0 c 0.194 0 0.348 -0.154 0.348 -0.348 l 0 -1.118 c 0 -0.194 -0.154 -0.348 -0.348 -0.348 l -0.454 0 c -0.041 -0.123 -0.089 -0.242 -0.146 -0.357 l 0.324 -0.324 c 0.137 -0.137 0.137 -0.357 0 -0.494 l -0.794 -0.786 c -0.137 -0.137 -0.357 -0.137 -0.494 0 l -0.316 0.316 c -0.117 -0.058 -0.24 -0.104 -0.365 -0.146 l 0 -0.454 c 0 -0.194 -0.154 -0.348 -0.348 -0.348 l -1.11 0 z m 0.551 2.592 c 0.501 0 0.907 0.407 0.907 0.908 0 0.501 -0.407 0.907 -0.907 0.907 -0.501 0 -0.907 -0.407 -0.907 -0.907 0 -0.501 0.407 -0.908 0.907 -0.908 z" style="fill:#000;fill-opacity:0.098;display:block;color:#000"/>
  <path d="m 5.949 1039.36 c -0.194 0 -0.356 0.154 -0.356 0.348 l 0 0.454 c -0.123 0.042 -0.242 0.089 -0.356 0.146 l -0.316 -0.316 c -0.137 -0.137 -0.357 -0.137 -0.494 0 l -0.794 0.786 c -0.137 0.137 -0.137 0.357 0 0.494 l 0.316 0.316 c -0.058 0.117 -0.104 0.239 -0.146 0.364 l -0.446 0 c -0.194 0 -0.356 0.154 -0.356 0.348 l 0 1.118 c 0 0.194 0.162 0.348 0.356 0.348 l 0.446 0 c 0.042 0.125 0.088 0.248 0.146 0.365 l -0.316 0.316 c -0.137 0.137 -0.137 0.357 0 0.494 l 0.794 0.786 c 0.137 0.137 0.357 0.137 0.494 0 l 0.316 -0.316 c 0.115 0.057 0.234 0.104 0.356 0.146 l 0 0.454 c 0 0.194 0.162 0.349 0.356 0.349 l 1.11 0 c 0.194 0 0.348 -0.154 0.348 -0.349 l 0 -0.454 c 0.125 -0.042 0.248 -0.088 0.365 -0.146 l 0.316 0.316 c 0.137 0.137 0.357 0.137 0.494 0 l 0.794 -0.786 c 0.137 -0.137 0.137 -0.357 0 -0.494 l -0.324 -0.324 c 0.057 -0.115 0.105 -0.234 0.146 -0.357 l 0.454 0 c 0.194 0 0.348 -0.154 0.348 -0.348 l 0 -1.118 c 0 -0.194 -0.154 -0.348 -0.348 -0.348 l -0.454 0 c -0.041 -0.123 -0.089 -0.242 -0.146 -0.357 l 0.324 -0.324 c 0.137 -0.137 0.137 -0.357 0 -0.494 l -0.794 -0.786 c -0.137 -0.137 -0.357 -0.137 -0.494 0 l -0.316 0.316 c -0.117 -0.058 -0.24 -0.104 -0.365 -0.146 l 0 -0.454 c 0 -0.194 -0.154 -0.348 -0.348 -0.348 l -1.11 0 z m 0.551 2.592 c 0.501 0 0.907 0.407 0.907 0.908 0 0.501 -0.407 0.907 -0.907 0.907 -0.501 0 -0.907 -0.407 -0.907 -0.907 0 -0.501 0.407 -0.908 0.907 -0.908 z" style="fill:#fff8e1;fill-opacity:1;display:block;color:#000"/>
 </g>
</svg>
