<svg xmlns="http://www.w3.org/2000/svg" viewBox="0 0 24 24">
 <defs>
  <radialGradient r="24" cy="40.5" cx="24" gradientTransform="matrix(0.625,0,0,0.10416663,-3,1044.1435)" gradientUnits="userSpaceOnUse" id="radialGradient3127">
   <stop style="stop-color:#000;stop-opacity:1"/>
   <stop offset="1" style="stop-color:#000;stop-opacity:0.196"/>
  </radialGradient>
 </defs>
 <g transform="translate(0,-1028.3622)">
  <path d="m 12 1045.86 c -4.913 0 -9.264 0.391 -12 1 l 0 3 c 2.736 0.609 7.087 1 12 1 4.913 0 9.264 -0.391 12 -1 l 0 -3 c -2.736 -0.609 -7.087 -1 -12 -1 z" style="fill:url(#radialGradient3127);opacity:0.1;fill-opacity:1;stroke:none"/>
  <rect width="22" height="16" x="1" y="1033.36" rx="2.391" ry="2.5" style="fill:#f57c00;fill-opacity:1;stroke:none"/>
  <path d="m 3.391 1033.36 c -1.325 0 -2.391 1.115 -2.391 2.5 l 0 1 c 0 -1.385 1.067 -2.5 2.391 -2.5 l 17.217 0 c 1.325 0 2.391 1.115 2.391 2.5 l 0 -1 c 0 -1.385 -1.067 -2.5 -2.391 -2.5 l -17.217 0 z" style="fill:#fff;opacity:0.2;fill-opacity:1;stroke:none"/>
  <path d="m 3.391 1037.36 3.826 0 c 5.261 -0.5 4.304 -6 7.652 -6 l 5.739 0 c 1.325 0 2.391 1.115 2.391 2.5 l 0 13 c 0 1.385 -1.067 2.5 -2.391 2.5 l -17.217 0 c -1.325 0 -2.391 -1.115 -2.391 -2.5 l 0 -7 c 0 -1.5 0.957 -2.5 2.391 -2.5 z" style="fill:#ffb300;fill-opacity:1;stroke:none"/>
  <path d="m 1 1045.86 0 1 c 0 1.385 1.067 2.5 2.391 2.5 l 17.217 0 c 1.325 0 2.391 -1.115 2.391 -2.5 l 0 -1 c 0 1.385 -1.067 2.5 -2.391 2.5 l -17.217 0 c -1.325 0 -2.391 -1.115 -2.391 -2.5 z" style="fill:#000;opacity:0.15;fill-opacity:1;stroke:none"/>
  <path d="m 8.848 1040.78 c -0.901 0 -1.637 0.709 -1.637 1.579 0 0.292 0.089 0.568 0.234 0.804 l 0 1.71 c -0.178 0.036 -0.343 0.114 -0.482 0.219 l -1.623 -0.702 c 0 -0.621 -0.526 -1.126 -1.17 -1.126 c -0.642 0 -1.17 0.505 -1.17 1.126 c 0 0.622 0.527 1.14 1.17 1.14 0.26 0 0.507 -0.093 0.702 -0.234 l 1.637 0.716 c 0.017 0.608 0.538 1.096 1.17 1.096 0.643 0 1.17 -0.504 1.17 -1.126 0 -0.259 -0.095 -0.496 -0.249 -0.687 l 0.015 0 0.863 -1.477 c 0.006 -0.011 0.009 -0.012 0.015 -0.014 0.577 -0.246 0.994 -0.802 0.994 -1.448 0 -0.869 -0.738 -1.579 -1.637 -1.579 z m 0 0.526 c 0.605 0 1.082 0.468 1.082 1.053 0 0.586 -0.477 1.053 -1.082 1.053 -0.606 0 -1.082 -0.467 -1.082 -1.053 0 -0.585 0.476 -1.053 1.082 -1.053 z m 0 0.38 c -0.387 0 -0.702 0.297 -0.702 0.672 0 0.374 0.315 0.672 0.702 0.672 0.388 0 0.702 -0.298 0.702 -0.672 0 -0.375 -0.314 -0.672 -0.702 -0.672 z m -4.678 2.032 c 0.384 0 0.603 0.15 0.672 0.453 l -0.409 -0.176 c -0.265 -0.109 -0.575 0.011 -0.687 0.263 -0.113 0.256 0.012 0.55 0.278 0.658 l 0.307 0.146 c -0.051 0.011 -0.102 0.014 -0.161 0.014 -0.468 0 -0.702 -0.234 -0.702 -0.687 0 -0.452 0.234 -0.672 0.702 -0.672 z m 3.509 1.506 c 0.433 0 0.775 0.342 0.775 0.76 0 0.418 -0.342 0.745 -0.775 0.745 -0.352 0 -0.648 -0.218 -0.746 -0.526 l 0.556 0.234 c 0.265 0.109 0.575 -0.02 0.687 -0.278 0.113 -0.256 -0.012 -0.55 -0.278 -0.658 l -0.512 -0.219 c 0.09 -0.035 0.189 -0.058 0.292 -0.058 z" style="fill:#000;fill-opacity:0.098;stroke:none;fill-rule:nonzero"/>
  <path d="m 8.848 1039.78 c -0.901 0 -1.637 0.709 -1.637 1.579 0 0.292 0.089 0.568 0.234 0.804 l 0 1.71 c -0.178 0.036 -0.343 0.114 -0.482 0.219 l -1.623 -0.702 c 0 -0.621 -0.526 -1.126 -1.17 -1.126 c -0.642 0 -1.17 0.505 -1.17 1.126 c 0 0.622 0.527 1.14 1.17 1.14 0.26 0 0.507 -0.093 0.702 -0.234 l 1.637 0.716 c 0.017 0.608 0.538 1.096 1.17 1.096 0.643 0 1.17 -0.504 1.17 -1.126 0 -0.259 -0.095 -0.496 -0.249 -0.687 l 0.015 0 0.863 -1.477 c 0.006 -0.011 0.009 -0.012 0.015 -0.014 0.577 -0.246 0.994 -0.802 0.994 -1.448 0 -0.869 -0.738 -1.579 -1.637 -1.579 z m 0 0.526 c 0.605 0 1.082 0.468 1.082 1.053 0 0.586 -0.477 1.053 -1.082 1.053 -0.606 0 -1.082 -0.467 -1.082 -1.053 0 -0.585 0.476 -1.053 1.082 -1.053 z m 0 0.38 c -0.387 0 -0.702 0.297 -0.702 0.672 0 0.374 0.315 0.672 0.702 0.672 0.388 0 0.702 -0.298 0.702 -0.672 0 -0.375 -0.314 -0.672 -0.702 -0.672 z m -4.678 2.032 c 0.384 0 0.603 0.15 0.672 0.453 l -0.409 -0.176 c -0.265 -0.109 -0.575 0.011 -0.687 0.263 -0.113 0.256 0.012 0.55 0.278 0.658 l 0.307 0.146 c -0.051 0.011 -0.102 0.014 -0.161 0.014 -0.468 0 -0.702 -0.234 -0.702 -0.687 0 -0.452 0.234 -0.672 0.702 -0.672 z m 3.509 1.506 c 0.433 0 0.775 0.342 0.775 0.76 0 0.418 -0.342 0.745 -0.775 0.745 -0.352 0 -0.648 -0.218 -0.746 -0.526 l 0.556 0.234 c 0.265 0.109 0.575 -0.02 0.687 -0.278 0.113 -0.256 -0.012 -0.55 -0.278 -0.658 l -0.512 -0.219 c 0.09 -0.035 0.189 -0.058 0.292 -0.058 z" style="fill:#fff8e1;fill-opacity:1;stroke:none;fill-rule:nonzero"/>
 </g>
</svg>
