<svg xmlns="http://www.w3.org/2000/svg" viewBox="0 0 24 24">
 <defs>
  <radialGradient r="24" cy="40.5" cx="24" gradientTransform="matrix(0.625,0,0,0.10416663,-3,1044.1435)" gradientUnits="userSpaceOnUse" id="radialGradient3053">
   <stop style="stop-color:#000;stop-opacity:1"/>
   <stop offset="1" style="stop-color:#000;stop-opacity:0.196"/>
  </radialGradient>
 </defs>
 <g transform="translate(0,-1028.3622)">
  <path d="m 12 1045.86 c -4.913 0 -9.264 0.391 -12 1 l 0 3 c 2.736 0.609 7.087 1 12 1 4.913 0 9.264 -0.391 12 -1 l 0 -3 c -2.736 -0.609 -7.087 -1 -12 -1 z" style="fill:url(#radialGradient3053);opacity:0.1;fill-opacity:1;stroke:none"/>
  <rect width="22" height="16" x="1" y="1033.36" rx="2.391" ry="2.5" style="fill:#388e3c;fill-opacity:1;stroke:none"/>
  <path d="m 3.391 1033.36 c -1.325 0 -2.391 1.115 -2.391 2.5 l 0 1 c 0 -1.385 1.067 -2.5 2.391 -2.5 l 17.217 0 c 1.325 0 2.391 1.115 2.391 2.5 l 0 -1 c 0 -1.385 -1.067 -2.5 -2.391 -2.5 l -17.217 0 z" style="fill:#fff;opacity:0.2;fill-opacity:1;stroke:none"/>
  <path d="m 3.391 1037.36 3.826 0 c 5.261 -0.5 4.304 -6 7.652 -6 l 5.739 0 c 1.325 0 2.391 1.115 2.391 2.5 l 0 13 c 0 1.385 -1.067 2.5 -2.391 2.5 l -17.217 0 c -1.325 0 -2.391 -1.115 -2.391 -2.5 l 0 -7 c 0 -1.5 0.957 -2.5 2.391 -2.5 z" style="fill:#66bb6a;fill-opacity:1;stroke:none"/>
  <path d="m 1 1045.86 0 1 c 0 1.385 1.067 2.5 2.391 2.5 l 17.217 0 c 1.325 0 2.391 -1.115 2.391 -2.5 l 0 -1 c 0 1.385 -1.067 2.5 -2.391 2.5 l -17.217 0 c -1.325 0 -2.391 -1.115 -2.391 -2.5 z" style="fill:#000;opacity:0.15;fill-opacity:1;stroke:none"/>
  <path d="m 3.5 1040.36 0 2 2 0 -0.627 -0.564 c 0.447 -0.351 1.014 -0.561 1.627 -0.561 1.45 0 2.625 1.175 2.625 2.625 0 1.45 -1.175 2.625 -2.625 2.625 -1.45 0 -2.625 -1.175 -2.625 -2.625 0 -0.306 -0.022 -0.226 0.075 -0.5 l -0.916 0 c -0.034 0 -0.034 0.199 -0.034 0.5 c 0 1.933 1.567 3.5 3.5 3.5 1.933 0 3.5 -1.567 3.5 -3.5 0 -1.933 -1.567 -3.5 -3.5 -3.5 -0.856 0 -1.648 0.296 -2.256 0.807 z m 2.959 1.299 c -0.018 0 -0.037 0.01 -0.055 0.014 -0.196 0.044 -0.347 0.237 -0.342 0.438 l 0 1.613 c -0.001 0.014 -0.001 0.027 0 0.041 -0.025 0.111 -0.005 0.232 0.055 0.328 0.005 0.01 0.009 0.01 0.014 0.014 0.004 0.01 0.009 0.018 0.014 0.027 0.004 0 0.009 0.01 0.014 0.014 0.005 0 0.009 0.01 0.014 0.014 0.004 0 0.009 0.01 0.014 0.014 0.004 0 0.009 0.01 0.014 0.014 0.009 0 0.018 0.01 0.027 0.013 0.005 0.01 0.009 0.01 0.014 0.014 0.004 0.01 0.009 0.01 0.014 0.014 0.009 0.01 0.018 0.01 0.027 0.014 0.018 0.011 0.036 0.02 0.055 0.027 l 1.08 0.629 c 0.201 0.117 0.489 0.039 0.604 -0.162 0.115 -0.201 0.035 -0.489 -0.167 -0.603 l -0.916 -0.537 l 0 -1.49 c 0.009 -0.248 -0.232 -0.475 -0.479 -0.451 z" style="fill:#000;fill-opacity:0.098;color:#000"/>
  <path d="m 3.5 1039.36 0 2 2 0 -0.627 -0.564 c 0.447 -0.351 1.014 -0.561 1.627 -0.561 1.45 0 2.625 1.175 2.625 2.625 0 1.45 -1.175 2.625 -2.625 2.625 -1.45 0 -2.625 -1.175 -2.625 -2.625 0 -0.306 0.012 -0.383 0.075 -0.5 l -0.916 0 c -0.007 0.051 -0.034 0.199 -0.034 0.5 c 0 1.933 1.567 3.5 3.5 3.5 1.933 0 3.5 -1.567 3.5 -3.5 0 -1.933 -1.567 -3.5 -3.5 -3.5 -0.856 0 -1.648 0.296 -2.256 0.807 z m 2.959 1.299 c -0.018 0 -0.037 0.01 -0.055 0.014 -0.196 0.044 -0.347 0.237 -0.342 0.438 l 0 1.613 c -0.001 0.014 -0.001 0.027 0 0.041 -0.025 0.111 -0.005 0.232 0.055 0.328 0.005 0.01 0.009 0.01 0.014 0.014 0.004 0.01 0.009 0.018 0.014 0.027 0.004 0 0.009 0.01 0.014 0.014 0.005 0 0.009 0.01 0.014 0.014 0.004 0 0.009 0.01 0.014 0.014 0.004 0 0.009 0.01 0.014 0.014 0.009 0 0.018 0.01 0.027 0.013 0.005 0.01 0.009 0.01 0.014 0.014 0.004 0.01 0.009 0.01 0.014 0.014 0.009 0.01 0.018 0.01 0.027 0.014 0.018 0.011 0.036 0.02 0.055 0.027 l 1.08 0.629 c 0.201 0.117 0.489 0.039 0.604 -0.162 0.115 -0.201 0.035 -0.489 -0.167 -0.603 l -0.916 -0.537 l 0 -1.49 c 0.009 -0.248 -0.232 -0.475 -0.479 -0.451 z" style="fill:#fff8e1;fill-opacity:1;color:#000"/>
 </g>
</svg>
