<svg version="1.1" viewBox="0 0 24 24" xmlns="http://www.w3.org/2000/svg">
 <defs>
  <radialGradient id="radialGradient3053" cx="24" cy="40.5" r="24" gradientTransform="matrix(.625 0 0 .10416663 -3 1044.1435)" gradientUnits="userSpaceOnUse">
   <stop offset="0"/>
   <stop style="stop-opacity:.196" offset="1"/>
  </radialGradient>
 </defs>
 <g transform="translate(0,-1028.3622)">
  <path d="m12 1045.86c-4.913 0-9.264 0.391-12 1v3c2.736 0.609 7.087 1 12 1s9.264-0.391 12-1v-3c-2.736-0.609-7.087-1-12-1z" style="fill:url(#radialGradient3053);opacity:.1"/>
  <rect x="1" y="1033.36" width="22" height="16" rx="2.391" ry="2.5" style="fill:#757575"/>
  <path d="m3.391 1033.36c-1.325 0-2.391 1.115-2.391 2.5v1c0-1.385 1.067-2.5 2.391-2.5h17.217c1.325 0 2.391 1.115 2.391 2.5v-1c0-1.385-1.067-2.5-2.391-2.5h-17.217z" style="fill:#fff;opacity:.2"/>
  <path d="m3.391 1037.36h3.826c5.261-0.5 4.304-6 7.652-6h5.739c1.325 0 2.391 1.115 2.391 2.5v13c0 1.385-1.067 2.5-2.391 2.5h-17.217c-1.325 0-2.391-1.115-2.391-2.5v-7c0-1.5 0.957-2.5 2.391-2.5z" style="fill:#bdbdbd"/>
  <path d="m1 1045.86v1c0 1.385 1.067 2.5 2.391 2.5h17.217c1.325 0 2.391-1.115 2.391-2.5v-1c0 1.385-1.067 2.5-2.391 2.5h-17.217c-1.325 0-2.391-1.115-2.391-2.5z" style="opacity:.15"/>
  <path d="m4.3079753 1041.3623c-0.053461 0-0.1069874 0.029-0.1269511 0.086l-0.6630238 1.9143h1.624l-0.707074-1.9143c-0.01997-0.057-0.07349-0.086-0.1269511-0.086zm0.8340251 2 1.3580011 4 1.358699-4zm2.7167001 0h1.6233l-0.663022-1.9144c-0.03992-0.1142-0.213956-0.1142-0.253902 0zm1.6233 0-2.981999 4 3.389926-2.2919c0.09354-0.063 0.1327245-0.1755 0.097-0.2776zm-2.981999 4-2.9820011-4-0.5049293 1.4304c-0.035721 0.1022 0.00345 0.2142 0.097004 0.2776z" style="-inkscape-stroke:none;fill-opacity:.098;font-variation-settings:normal;stop-color:#000000"/>
  <path d="m4.3079755 1040.3623c-0.053461 0-0.1069874 0.029-0.1269511 0.086l-0.6630239 1.9141h1.6240003l-0.7070741-1.9141c-0.01997-0.057-0.07349-0.086-0.1269512-0.086zm0.8340253 2 1.3580015 4 1.3586992-4zm2.7167007 0h1.6233003l-0.6630221-1.9144c-0.03992-0.1142-0.213956-0.1142-0.2539021 0zm1.6233003 0-2.9819995 4 3.3899266-2.2919c0.09354-0.063 0.1327241-0.1755 0.097-0.2776zm-2.9819995 4-2.9820018-4-0.5049294 1.4302c-0.035721 0.1024 0.00345 0.2142 0.097004 0.2776z" style="-inkscape-stroke:none;fill:#fff8e1;font-variation-settings:normal;stop-color:#000000"/>
 </g>
</svg>
