<svg xmlns="http://www.w3.org/2000/svg" viewBox="0 0 24 24">
 <rect rx="1.196" ry="1.172" height="7.5" x="3" width="11" y="4.998" style="fill:#ec407a;fill-opacity:1;stroke:none"/>
 <path d="m 4.196 4.998 c -0.662 0 -1.196 0.5 -1.196 1.25 l 0 0.75 c 0 -0.693 0.533 -1 1.196 -1 l 8.609 0 c 0.662 0 1.196 0.307 1.196 1 l 0 -0.75 c 0 -0.693 -0.533 -1.25 -1.196 -1.25 z" style="fill:#fff;opacity:0.1;fill-opacity:1;stroke:none"/>
 <path d="m 4.196,6.9978 1.913,0 c 2.63,-0.236 2.152,-3 3.826,-3 l 2.87,0 c 0.662,0 1.196,0.526 1.196,1.18 l 0,6.639 c 0,0.654 -0.533,1.181 -1.196,1.181 l -8.609,0 C 3.534,12.9978 3,12.4718 3,11.8168 l 0,-3.806 c 0,-0.708 0.478,-1.014 1.196,-1.014 z" style="fill:#f06292;fill-opacity:1;stroke:none"/>
 <path d="m 9.936 3.998 c -0.673 0 -0.999 0.451 -1.318 1 l -4.422 0 c -0.249 0 -0.465 0.089 -0.656 0.217 c -0.064 0.042 -0.135 0.074 -0.189 0.127 c -0.126 0.124 -0.212 0.281 -0.271 0.451 c -0.034 0.099 -0.056 0.207 -0.066 0.32 c -0.001 0.02 -0.012 0.037 -0.012 0.057 l 0 0.078 l 0 0.75 l 0 1.014 l 0 2.887 l 0 0.428 l 0 0.49 l 0 0.039 c 0 0.519 0.361 0.937 0.859 1.076 c 0.109 0.032 0.216 0.066 0.336 0.066 l 8.609 0 c 0.083 0 0.156 -0.031 0.234 -0.047 c 0.545 -0.106 0.963 -0.543 0.963 -1.096 l 0 -0.039 l 0 -4.818 l 0 -0.75 l 0 -1.07 c 0 -0.654 -0.535 -1.18 -1.197 -1.18 l -2.869 0 z" style="fill:#fff;opacity:0.5;fill-opacity:1;stroke:none"/>
 <path d="m 3,10.8978 0,0.957 c 0,0.632 0.524,1.141 1.196,1.141 l 8.609,0 c 0.662,0 1.196,-0.509 1.196,-1.141 l 0,-0.957 c 0,0.632 -0.533,1.098 -1.196,1.098 l -8.609,0 C 3.534,11.9958 3,11.5298 3,10.8978 Z" style="fill:#000;opacity:0.075;fill-opacity:1;stroke:none"/>
 <rect rx="1.196" ry="1.172" height="7.5" x="10" width="11" y="11.998" style="fill:#ec407a;fill-opacity:1;stroke:none"/>
 <path d="m 11.196 11.998 c -0.662 0 -1.196 0.5 -1.196 1.25 l 0 0.75 c 0 -0.693 0.533 -1 1.196 -1 l 8.609 0 c 0.662 0 1.196 0.307 1.196 1 l 0 -0.75 c 0 -0.693 -0.533 -1.25 -1.196 -1.25 z" style="fill:#fff;opacity:0.2;fill-opacity:1;stroke:none"/>
 <path d="m 11.196 13.998 1.913 0 c 2.63 -0.236 2.152 -3 3.826 -3 l 2.87 0 c 0.662 0 1.196 0.526 1.196 1.18 l 0 6.639 c 0 0.654 -0.533 1.181 -1.196 1.181 l -8.609 0 c -0.662 0 -1.196 -0.526 -1.196 -1.181 l 0 -3.806 c 0 -0.708 0.478 -1.014 1.196 -1.014 z" style="fill:#f06292;fill-opacity:1;stroke:none"/>
 <path d="m 10 17.898 0 0.957 c 0 0.632 0.524 1.141 1.196 1.141 l 8.609 0 c 0.662 0 1.196 -0.509 1.196 -1.141 l 0 -0.957 c 0 0.632 -0.533 1.098 -1.196 1.098 l -8.609 0 c -0.662 0 -1.196 -0.466 -1.196 -1.098 z" style="fill:#000;opacity:0.15;fill-opacity:1;stroke:none"/>
</svg>
