<svg xmlns="http://www.w3.org/2000/svg" viewBox="0 0 32 32">
 <defs>
  <radialGradient r="24" cy="40.5" cx="24" gradientTransform="matrix(0.83333334,0,0,0.13888885,-4,1041.4039)" gradientUnits="userSpaceOnUse" id="radialGradient3193">
   <stop style="stop-color:#000;stop-opacity:1"/>
   <stop offset="1" style="stop-color:#000;stop-opacity:0.196"/>
  </radialGradient>
 </defs>
 <g transform="translate(0,-1020.3622)">
  <path d="m 16 1043.7 c -6.551 0 -12.352 0.522 -16 1.333 l 0 4 c 3.648 0.811 9.449 1.333 16 1.333 6.551 0 12.352 -0.522 16 -1.333 l 0 -4 c -3.648 -0.811 -9.449 -1.333 -16 -1.333 z" style="fill:url(#radialGradient3193);opacity:0.1;fill-opacity:1;stroke:none"/>
  <rect width="30" height="21" x="1" y="1027.36" rx="3.261" ry="3.281" style="fill:#5d4037;fill-opacity:1;stroke:none"/>
  <path d="m 4.261 1027.03 c -1.807 0 -3.261 1.487 -3.261 3.333 l 0 1.333 c 0 -1.847 1.454 -3.333 3.261 -3.333 l 23.478 0 c 1.807 0 3.261 1.487 3.261 3.333 l 0 -1.333 c 0 -1.847 -1.454 -3.333 -3.261 -3.333 l -23.478 0 z" style="fill:#fff;opacity:0.2;fill-opacity:1;stroke:none"/>
  <path d="m 4.261 1032.36 5.217 0 c 7.174 -0.667 5.87 -8 10.435 -8 l 7.826 0 c 1.807 0 3.261 1.487 3.261 3.333 l 0 17.333 c 0 1.847 -1.454 3.333 -3.261 3.333 l -23.478 0 c -1.807 0 -3.261 -1.487 -3.261 -3.333 l 0 -9.333 c 0 -2 1.304 -3.333 3.261 -3.333 z" style="fill:#8d6e63;fill-opacity:1;stroke:none"/>
  <path d="m 1 1043.7 0 1.333 c 0 1.847 1.454 3.333 3.261 3.333 l 23.478 0 c 1.807 0 3.261 -1.487 3.261 -3.333 l 0 -1.333 c 0 1.847 -1.454 3.667 -3.261 3.667 l -23.478 0 c -1.807 0 -3.261 -1.82 -3.261 -3.667 z" style="fill:#000;opacity:0.15;fill-opacity:1;stroke:none"/>
  <path d="m 7 1037.36 3 5 3 0 -3 -5 -3 0 z m -0.563 0.281 -2.594 4.625 0.875 2.75 3.03 -4.938 -1.313 -2.438 z m 0.5 5.719 -1.531 2 6.06 0 1.531 -2 -6.06 0 z" style="fill:#000;fill-opacity:0.098;fill-rule:evenodd"/>
  <polygon transform="matrix(6.8311909e-5,0,0,5.202159e-5,3.9006019,1038.3621)" points="110963,115341 22194,115341 44385,76894 133156,76894 " style="fill:#fff8e1;opacity:1;fill-opacity:1;fill-rule:evenodd"/>
  <polygon transform="matrix(6.7518531e-5,0,0,6.5024579e-5,4.006245,1036.3622)" points="44385,0 88772,76894 133156,76894 88772,0 " style="fill:#fff8e1;opacity:1;fill-opacity:1;fill-rule:evenodd"/>
  <path d="m 6.428 1036.66 -2.589 4.605 0.871 2.759 3.039 -4.94 z" style="fill:#fff8e1;opacity:1;fill-opacity:1;fill-rule:evenodd"/>
 </g>
</svg>
