<svg xmlns="http://www.w3.org/2000/svg" viewBox="0 0 32 32">
 <defs>
  <radialGradient r="24" cy="40.5" cx="24" gradientTransform="matrix(0.83333334,0,0,0.13888885,-4,1041.4039)" gradientUnits="userSpaceOnUse" id="radialGradient3053">
   <stop style="stop-color:#000;stop-opacity:1"/>
   <stop offset="1" style="stop-color:#000;stop-opacity:0.196"/>
  </radialGradient>
 </defs>
 <g transform="translate(0,-1020.3622)">
  <path d="m 16 1043.7 c -6.551 0 -12.352 0.522 -16 1.333 l 0 4 c 3.648 0.811 9.449 1.333 16 1.333 6.551 0 12.352 -0.522 16 -1.333 l 0 -4 c -3.648 -0.811 -9.449 -1.333 -16 -1.333 z" style="fill:url(#radialGradient3053);opacity:0.1;fill-opacity:1;stroke:none"/>
  <rect width="30" height="21" x="1" y="1027.36" rx="3.261" ry="3.281" style="fill:#5d4037;fill-opacity:1;stroke:none"/>
  <path d="m 4.261 1027.03 c -1.807 0 -3.261 1.487 -3.261 3.333 l 0 1.333 c 0 -1.847 1.454 -3.333 3.261 -3.333 l 23.478 0 c 1.807 0 3.261 1.487 3.261 3.333 l 0 -1.333 c 0 -1.847 -1.454 -3.333 -3.261 -3.333 l -23.478 0 z" style="fill:#fff;opacity:0.2;fill-opacity:1;stroke:none"/>
  <path d="m 4.261 1032.36 5.217 0 c 7.174 -0.667 5.87 -8 10.435 -8 l 7.826 0 c 1.807 0 3.261 1.487 3.261 3.333 l 0 17.333 c 0 1.847 -1.454 3.333 -3.261 3.333 l -23.478 0 c -1.807 0 -3.261 -1.487 -3.261 -3.333 l 0 -9.333 c 0 -2 1.304 -3.333 3.261 -3.333 z" style="fill:#8d6e63;fill-opacity:1;stroke:none"/>
  <path d="m 1 1043.7 0 1.333 c 0 1.847 1.454 3.333 3.261 3.333 l 23.478 0 c 1.807 0 3.261 -1.487 3.261 -3.333 l 0 -1.333 c 0 1.847 -1.454 3.667 -3.261 3.667 l -23.478 0 c -1.807 0 -3.261 -1.82 -3.261 -3.667 z" style="fill:#000;opacity:0.15;fill-opacity:1;stroke:none"/>
  <path d="m 5 16 c -0.623 0 -1 0.377 -1 1 l 0 4.625 l 0 2.375 c 0 0.623 0.377 1 1 1 l 7 0 c 0.623 0 1 -0.377 1 -1 l 0 -0.688 l 0 -6.313 c 0 -0.623 -0.377 -1 -1 -1 l -7 0 z m 0 1 l 7 0 l 0 5.125 l -2.094 -2.469 l -1.25 1.219 l -1.844 -2.063 l -1.813 1.813 l 0 -3.625 z" transform="translate(0,1020.3622)" style="fill:#000;fill-opacity:0.098;fill-rule:evenodd"/>
  <g transform="matrix(0.56249997,0,0,0.56230168,16.611961,458.73811)" style="fill:#fff8e1;fill-opacity:1">
   <g transform="translate(-22.421265,1025.4767)">
    <g transform="translate(0,-1036.3622)" style="fill-rule:evenodd">
     <path d="m 0.045 1046.8 c 0.229 -0.168 0.76 -0.668 1.63 -1.533 0.867 -0.87 2.027 -2.06 3.529 -3.624 0.983 1.398 1.706 2.406 2.241 3.069 0.522 0.655 0.812 0.942 0.882 0.862 0.555 -0.497 1.023 -0.92 1.426 -1.29 0.397 -0.37 0.705 -0.674 0.949 -0.922 1.221 1.536 2.235 2.801 3.123 3.87 0.873 1.061 1.566 1.864 2.103 2.455 l -3.324 -2.762 c -0.275 0.707 -0.723 1.072 -1.358 1.105 -0.653 0.019 -1.645 -0.773 -2.445 -0.92 -0.8 -0.146 -1.597 0.304 -2.308 0.061 -0.727 -0.257 -1.288 -1.273 -1.969 -1.536 -0.684 -0.26 -1.377 -0.26 -2.103 0 -0.791 0.387 -1.581 0.776 -2.375 1.166 z"/>
     <path d="m 0 1046.36 5 -5 3.282 3.678 2.218 -2.178 5.5 6.5 -2.286 1.857 l -11.714 0.143 z"/>
    </g>
   </g>
   <path d="m -20.643 1025.47 c -1.108 0 -1.778 0.67 -1.778 1.778 l 0 12.449 c 0 1.108 0.67 1.778 1.778 1.778 l 12.444 0 c 1.108 0 1.778 -0.67 1.778 -1.778 l 0 -12.449 c 0 -1.108 -0.67 -1.778 -1.778 -1.778 z m 0 1.778 12.444 0 0 12.449 -12.444 0 z"/>
  </g>
 </g>
</svg>
