<svg xmlns="http://www.w3.org/2000/svg" viewBox="0 0 32 32">
 <defs>
  <radialGradient id="radialGradient3011" gradientUnits="userSpaceOnUse" gradientTransform="matrix(0.83333334,0,0,0.13888885,-4,1041.4039)" cx="24" cy="40.5" r="24">
   <stop style="stop-color:#000;stop-opacity:1"/>
   <stop offset="1" style="stop-color:#000;stop-opacity:0.196"/>
  </radialGradient>
 </defs>
 <g transform="translate(0,-1020.3622)">
  <path d="m 16 1043.7 c -6.551 0 -12.352 0.522 -16 1.333 l 0 4 c 3.648 0.811 9.449 1.333 16 1.333 6.551 0 12.352 -0.522 16 -1.333 l 0 -4 c -3.648 -0.811 -9.449 -1.333 -16 -1.333 z" style="fill:url(#radialGradient3011);opacity:0.1;fill-opacity:1;stroke:none"/>
  <rect width="30" height="21" x="1" y="1027.36" rx="3.261" ry="3.281" style="fill:#f57c00;fill-opacity:1;stroke:none"/>
  <path d="m 4.261 1027.36 c -1.807 0 -3.261 1.115 -3.261 2.5 l 0 1 c 0 -1.385 1.454 -2.5 3.261 -2.5 l 23.478 0 c 1.807 0 3.261 1.115 3.261 2.5 l 0 -1 c 0 -1.385 -1.454 -2.5 -3.261 -2.5 l -23.478 0 z" style="fill:#fff;opacity:0.2;fill-opacity:1;stroke:none"/>
  <path d="m 4.261 1032.36 5.217 0 c 7.174 -0.667 5.87 -8 10.435 -8 l 7.826 0 c 1.807 0 3.261 1.487 3.261 3.333 l 0 17.333 c 0 1.847 -1.454 3.333 -3.261 3.333 l -23.478 0 c -1.807 0 -3.261 -1.487 -3.261 -3.333 l 0 -9.333 c 0 -2 1.304 -3.333 3.261 -3.333 z" style="fill:#ffb300;fill-opacity:1;stroke:none"/>
  <path d="m 1 1043.7 0 1.333 c 0 1.847 1.454 3.333 3.261 3.333 l 23.478 0 c 1.807 0 3.261 -1.487 3.261 -3.333 l 0 -1.333 c 0 1.847 -1.454 3.667 -3.261 3.667 l -23.478 0 c -1.807 0 -3.261 -1.82 -3.261 -3.667 z" style="fill:#000;opacity:0.15;fill-opacity:1;stroke:none"/>
  <path d="m 9 1045.36 0 -6 -1 0 0 6 z m -2 -6.375 -3 -2.25 l 0 6 3 2.25 z m 6 3.751 l 0 -6 -3 2.249 0 6 z m -1 -6.375 c -1.687 0 -2.375 0.563 -3.5 1.5 -1.125 -0.938 -1.813 -1.5 -3.5 -1.5 l 3 2 1 0 z" style="fill:#000;fill-opacity:0.098;stroke:none;fill-rule:nonzero"/>
  <path d="m 9 1044.36 0 -6 -1 0 0 6 z m -2 -6.375 -3 -2.25 l 0 6 3 2.25 z m 6 3.751 l 0 -6 -3 2.249 0 6 z m -1 -6.375 c -1.687 0 -2.375 0.563 -3.5 1.5 -1.125 -0.938 -1.813 -1.5 -3.5 -1.5 l 3 2 1 0 z" style="fill:#fff8e1;fill-opacity:1;stroke:none;fill-rule:nonzero"/>
 </g>
</svg>
