<svg xmlns="http://www.w3.org/2000/svg" viewBox="0 0 32 32">
 <defs>
  <radialGradient id="radialGradient6769" gradientUnits="userSpaceOnUse" gradientTransform="matrix(0.83333334,0,0,0.13888885,-4,1041.4039)" cx="24" cy="40.5" r="24">
   <stop style="stop-color:#000;stop-opacity:1"/>
   <stop offset="1" style="stop-color:#000;stop-opacity:0.196"/>
  </radialGradient>
 </defs>
 <g transform="translate(0,-1020.3622)">
  <path d="m 16 1043.7 c -6.551 0 -12.352 0.522 -16 1.333 l 0 4 c 3.648 0.811 9.449 1.333 16 1.333 6.551 0 12.352 -0.522 16 -1.333 l 0 -4 c -3.648 -0.811 -9.449 -1.333 -16 -1.333 z" style="fill:url(#radialGradient6769);opacity:0.1;fill-opacity:1;stroke:none"/>
  <rect width="30" height="21" x="1" y="1027.36" rx="3.261" ry="3.281" style="fill:#ec407a;fill-opacity:1;stroke:none"/>
  <path d="m 4.261 1027.03 c -1.807 0 -3.261 1.487 -3.261 3.333 l 0 1.333 c 0 -1.847 1.454 -3.333 3.261 -3.333 l 23.478 0 c 1.807 0 3.261 1.487 3.261 3.333 l 0 -1.333 c 0 -1.847 -1.454 -3.333 -3.261 -3.333 l -23.478 0 z" style="fill:#fff;opacity:0.2;fill-opacity:1;stroke:none"/>
  <path d="m 4.261 1032.36 5.217 0 c 7.174 -0.667 5.87 -8 10.435 -8 l 7.826 0 c 1.807 0 3.261 1.487 3.261 3.333 l 0 17.333 c 0 1.847 -1.454 3.333 -3.261 3.333 l -23.478 0 c -1.807 0 -3.261 -1.487 -3.261 -3.333 l 0 -9.333 c 0 -2 1.304 -3.333 3.261 -3.333 z" style="fill:#f06292;fill-opacity:1;stroke:none"/>
  <path d="m 1 1043.7 0 1.333 c 0 1.847 1.454 3.333 3.261 3.333 l 23.478 0 c 1.807 0 3.261 -1.487 3.261 -3.333 l 0 -1.333 c 0 1.847 -1.454 3.667 -3.261 3.667 l -23.478 0 c -1.807 0 -3.261 -1.82 -3.261 -3.667 z" style="fill:#000;opacity:0.15;fill-opacity:1;stroke:none"/>
  <path d="m 8 1037.11 a 2.542 2.542 0 0 0 -2.375 2.531 2.542 2.542 0 0 0 0.25 1.094 l -0.25 0 0 0.031 a 1.815 1.815 0 0 0 -1.438 1.781 1.815 1.815 0 0 0 1.438 1.781 l 0 0.031 0.188 0 0.313 0 6.219 0 0.313 0 0.25 0 0 -0.031 a 1.815 1.815 0 0 0 1.438 -1.781 1.815 1.815 0 0 0 -1.438 -1.781 l 0 -0.031 -0.188 0 -0.188 0 a 1.815 1.815 0 0 0 0.375 -1.094 1.815 1.815 0 0 0 -1.813 -1.813 1.815 1.815 0 0 0 -0.938 0.219 2.542 2.542 0 0 0 -1.969 -0.938 2.542 2.542 0 0 0 -0.188 0 z" style="fill:#000;fill-opacity:0.098;stroke:none"/>
  <g transform="matrix(0.72619048,0,0,0.72619048,1.2797619,282.05155)" style="fill:#fff8e1;fill-opacity:1">
   <path d="m 9 1045.86 a 2.5 2.5 0 0 1 -2.5 2.5 2.5 2.5 0 0 1 -2.5 -2.5 2.5 2.5 0 0 1 2.5 -2.5 2.5 2.5 0 0 1 2.5 2.5 z" style="stroke:none"/>
   <path d="m 13 1041.86 a 3.5 3.5 0 0 1 -3.5 3.5 3.5 3.5 0 0 1 -3.5 -3.5 3.5 3.5 0 0 1 3.5 -3.5 3.5 3.5 0 0 1 3.5 3.5 z" style="stroke:none"/>
   <path d="m 16 1041.86 a 2.5 2.5 0 0 1 -2.5 2.5 2.5 2.5 0 0 1 -2.5 -2.5 2.5 2.5 0 0 1 2.5 -2.5 2.5 2.5 0 0 1 2.5 2.5 z" style="stroke:none"/>
   <path d="m 18 1045.86 a 2.5 2.5 0 0 1 -2.5 2.5 2.5 2.5 0 0 1 -2.5 -2.5 2.5 2.5 0 0 1 2.5 -2.5 2.5 2.5 0 0 1 2.5 2.5 z" style="stroke:none"/>
   <path d="m 6 1043.36 10 0 0 5 -10 0 z" style="stroke:none"/>
  </g>
 </g>
</svg>
