<svg version="1.1" viewBox="0 0 32 32" xmlns="http://www.w3.org/2000/svg">
 <defs>
  <radialGradient id="radialGradient3098" cx="24" cy="40.5" r="24" gradientTransform="matrix(.83333334 0 0 .13888885 -4 1041.4039)" gradientUnits="userSpaceOnUse">
   <stop offset="0"/>
   <stop style="stop-opacity:.196" offset="1"/>
  </radialGradient>
 </defs>
 <g transform="translate(0,-1020.3622)">
  <path d="m16 1043.7c-6.551 0-12.352 0.522-16 1.333v4c3.648 0.811 9.449 1.333 16 1.333s12.352-0.522 16-1.333v-4c-3.648-0.811-9.449-1.333-16-1.333z" style="fill:url(#radialGradient3098);opacity:.1"/>
  <rect x="1" y="1027.36" width="30" height="21" rx="3.261" ry="3.281" style="fill:#ec407a"/>
  <path d="m4.261 1027.03c-1.807 0-3.261 1.487-3.261 3.333v1.333c0-1.847 1.454-3.333 3.261-3.333h23.478c1.807 0 3.261 1.487 3.261 3.333v-1.333c0-1.847-1.454-3.333-3.261-3.333h-23.478z" style="fill:#fff;opacity:.2"/>
  <path d="m4.261 1032.36h5.217c7.174-0.667 5.87-8 10.435-8h7.826c1.807 0 3.261 1.487 3.261 3.333v17.333c0 1.847-1.454 3.333-3.261 3.333h-23.478c-1.807 0-3.261-1.487-3.261-3.333v-9.333c0-2 1.304-3.333 3.261-3.333z" style="fill:#f06292"/>
  <path d="m1 1043.7v1.333c0 1.847 1.454 3.333 3.261 3.333h23.478c1.807 0 3.261-1.487 3.261-3.333v-1.333c0 1.847-1.454 3.667-3.261 3.667h-23.478c-1.807 0-3.261-1.82-3.261-3.667z" style="opacity:.15"/>
  <path d="m5.6816735 1037.3623c-0.06874 0-0.137555 0.038-0.163223 0.1143l-0.965459 2.8856h2.289659l-0.997754-2.8856c-0.02568-0.076-0.09449-0.1143-0.163223-0.1143zm1.160977 2.9999 1.657343 5 1.6573435-5zm3.3146865 0h2.289655l-0.965455-2.8856c-0.05133-0.1525-0.275086-0.1525-0.326446 0zm2.289655 0-3.9469985 5 4.3584775-3.0559c0.120262-0.084 0.170647-0.2337 0.12472-0.3701zm-3.9469985 5-3.947002-5-0.536196 1.574c-0.045924 0.1364 0.0045 0.2858 0.124721 0.3701z" style="-inkscape-stroke:none;fill-opacity:.098;font-variation-settings:normal;stop-color:#000000"/>
  <path d="m5.6816735 1036.3623c-0.06874 0-0.137555 0.038-0.163223 0.1143l-0.965459 2.8856h2.289659l-0.997754-2.8856c-0.02568-0.076-0.09449-0.1143-0.163223-0.1143zm1.160977 2.9999 1.657343 5 1.6573435-5zm3.3146865 0h2.289655l-0.965455-2.8856c-0.05133-0.1525-0.275086-0.1525-0.326446 0zm2.289655 0-3.9469985 5 4.3584775-3.0559c0.120262-0.084 0.170647-0.2337 0.12472-0.3701zm-3.9469985 5-3.947002-5-0.536196 1.574c-0.045924 0.1364 0.0045 0.2858 0.124721 0.3701z" style="-inkscape-stroke:none;fill:#fff8e1;font-variation-settings:normal;stop-color:#000000"/>
 </g>
</svg>
