<svg xmlns="http://www.w3.org/2000/svg" viewBox="0 0 32 32">
 <defs>
  <radialGradient r="24" cy="40.5" cx="24" gradientTransform="matrix(0.83333334,0,0,0.13888885,-4,1041.4039)" gradientUnits="userSpaceOnUse" id="radialGradient3098">
   <stop style="stop-color:#000;stop-opacity:1"/>
   <stop offset="1" style="stop-color:#000;stop-opacity:0.196"/>
  </radialGradient>
 </defs>
 <g transform="translate(0,-1020.3622)">
  <path d="m 16 1043.7 c -6.551 0 -12.352 0.522 -16 1.333 l 0 4 c 3.648 0.811 9.449 1.333 16 1.333 6.551 0 12.352 -0.522 16 -1.333 l 0 -4 c -3.648 -0.811 -9.449 -1.333 -16 -1.333 z" style="fill:url(#radialGradient3098);opacity:0.1;fill-opacity:1;stroke:none"/>
  <rect width="30" height="21" x="1" y="1027.36" rx="3.261" ry="3.281" style="fill:#d32f2f;fill-opacity:1;stroke:none"/>
  <path d="m 4.261 1027.03 c -1.807 0 -3.261 1.487 -3.261 3.333 l 0 1.333 c 0 -1.847 1.454 -3.333 3.261 -3.333 l 23.478 0 c 1.807 0 3.261 1.487 3.261 3.333 l 0 -1.333 c 0 -1.847 -1.454 -3.333 -3.261 -3.333 l -23.478 0 z" style="fill:#fff;opacity:0.2;fill-opacity:1;stroke:none"/>
  <path d="m 4.261 1032.36 5.217 0 c 7.174 -0.667 5.87 -8 10.435 -8 l 7.826 0 c 1.807 0 3.261 1.487 3.261 3.333 l 0 17.333 c 0 1.847 -1.454 3.333 -3.261 3.333 l -23.478 0 c -1.807 0 -3.261 -1.487 -3.261 -3.333 l 0 -9.333 c 0 -2 1.304 -3.333 3.261 -3.333 z" style="fill:#ef5350;fill-opacity:1;stroke:none"/>
  <path d="m 1 1043.7 0 1.333 c 0 1.847 1.454 3.333 3.261 3.333 l 23.478 0 c 1.807 0 3.261 -1.487 3.261 -3.333 l 0 -1.333 c 0 1.847 -1.454 3.667 -3.261 3.667 l -23.478 0 c -1.807 0 -3.261 -1.82 -3.261 -3.667 z" style="fill:#000;opacity:0.15;fill-opacity:1;stroke:none"/>
  <path d="m 7.188 16 c -0.571 0 -1 0.43 -1.125 1 -0.035 0.088 -0.063 0.175 -0.063 0.281 l 0 4.813 c -0.154 -0.054 -0.327 -0.094 -0.5 -0.094 -0.828 0 -1.5 0.672 -1.5 1.5 0 0.828 0.672 1.5 1.5 1.5 0.828 0 1.5 -0.672 1.5 -1.5 c 0 -0.063 -0.024 -0.127 -0.031 -0.188 0.006 -0.019 -0.005 -0.043 0 -0.063 -0.003 -0.02 0.004 -0.043 0 -0.063 c 0.007 -0.043 0.031 -0.08 0.031 -0.125 l 0 -4.078 c 0.068 0.013 0.116 0.031 0.188 0.031 l 3.625 0 c 0.071 0 0.12 -0.019 0.188 -0.031 l 0 3.109 c -0.154 -0.054 -0.327 -0.094 -0.5 -0.094 -0.828 0 -1.5 0.672 -1.5 1.5 c 0 0.828 0.672 1.5 1.5 1.5 0.828 0 1.5 -0.672 1.5 -1.5 0 -0.063 -0.024 -0.127 -0.031 -0.188 0.006 -0.019 -0.005 -0.043 0 -0.063 -0.003 -0.02 0.004 -0.043 0 -0.063 c 0.007 -0.043 0.031 -0.08 0.031 -0.125 l 0 -5.781 c 0 -0.101 -0.042 -0.187 -0.063 -0.281 -0.123 -0.57 -0.554 -1 -1.125 -1 z" transform="translate(0,1020.3622)" style="fill:#000;fill-opacity:0.098;stroke:none"/>
  <path d="m -5 8.259 c 0 0.962 -0.816 1.741 -1.823 1.741 -1.01 0 -1.823 -0.78 -1.823 -1.741 0 -0.962 0.816 -1.741 1.823 -1.741 1.01 0 1.823 0.78 1.823 1.741 z" transform="matrix(0.8228963,0,0,0.86133751,11.114481,1035.7488)" style="fill:#fff8e1;fill-opacity:1;stroke:none"/>
  <path transform="matrix(0.8228963,0,0,0.86132673,16.114481,1035.7489)" d="m -5 8.259 c 0 0.962 -0.816 1.741 -1.823 1.741 -1.01 0 -1.823 -0.78 -1.823 -1.741 0 -0.962 0.816 -1.741 1.823 -1.741 1.01 0 1.823 0.78 1.823 1.741 z" style="fill:#fff8e1;fill-opacity:1;stroke:none"/>
  <rect width="1" height="7.07" x="6" y="1036.01" rx="0.5" ry="0.643" style="fill:#fff8e1;fill-opacity:1;stroke:none"/>
  <rect ry="0.643" rx="0.488" y="1036.01" x="11" height="7.07" width="1" style="fill:#fff8e1;fill-opacity:1;stroke:none"/>
  <rect width="6" height="3" x="6" y="1035.36" rx="1.2" ry="1.5" style="fill:#fff8e1;fill-opacity:1;stroke:none"/>
 </g>
</svg>
