<svg xmlns="http://www.w3.org/2000/svg" viewBox="0 0 32 32">
 <defs>
  <radialGradient r="24" cy="40.5" cx="24" gradientTransform="matrix(0.83333334,0,0,0.13888885,-4,1041.4039)" gradientUnits="userSpaceOnUse" id="radialGradient3098">
   <stop style="stop-color:#000;stop-opacity:1"/>
   <stop offset="1" style="stop-color:#000;stop-opacity:0.196"/>
  </radialGradient>
 </defs>
 <g transform="translate(0,-1020.3622)">
  <path d="m 16 1043.7 c -6.551 0 -12.352 0.522 -16 1.333 l 0 4 c 3.648 0.811 9.449 1.333 16 1.333 6.551 0 12.352 -0.522 16 -1.333 l 0 -4 c -3.648 -0.811 -9.449 -1.333 -16 -1.333 z" style="fill:url(#radialGradient3098);opacity:0.1;fill-opacity:1;stroke:none"/>
  <rect width="30" height="21" x="1" y="1027.36" rx="3.261" ry="3.281" style="fill:#d32f2f;fill-opacity:1;stroke:none"/>
  <path d="m 4.261 1027.03 c -1.807 0 -3.261 1.487 -3.261 3.333 l 0 1.333 c 0 -1.847 1.454 -3.333 3.261 -3.333 l 23.478 0 c 1.807 0 3.261 1.487 3.261 3.333 l 0 -1.333 c 0 -1.847 -1.454 -3.333 -3.261 -3.333 l -23.478 0 z" style="fill:#fff;opacity:0.2;fill-opacity:1;stroke:none"/>
  <path d="m 4.261 1032.36 5.217 0 c 7.174 -0.667 5.87 -8 10.435 -8 l 7.826 0 c 1.807 0 3.261 1.487 3.261 3.333 l 0 17.333 c 0 1.847 -1.454 3.333 -3.261 3.333 l -23.478 0 c -1.807 0 -3.261 -1.487 -3.261 -3.333 l 0 -9.333 c 0 -2 1.304 -3.333 3.261 -3.333 z" style="fill:#ef5350;fill-opacity:1;stroke:none"/>
  <path d="m 1 1043.7 0 1.333 c 0 1.847 1.454 3.333 3.261 3.333 l 23.478 0 c 1.807 0 3.261 -1.487 3.261 -3.333 l 0 -1.333 c 0 1.847 -1.454 3.667 -3.261 3.667 l -23.478 0 c -1.807 0 -3.261 -1.82 -3.261 -3.667 z" style="fill:#000;opacity:0.15;fill-opacity:1;stroke:none"/>
  <g transform="matrix(0.66689703,0,0,0.64285586,3.6662059,1035.0765)" style="fill:#000;fill-opacity:0.098">
   <path d="m 2 8 0 6 c 0 1.108 0.892 2 2 2 l 2.498 0 0 -4.667 2.999 0 0 4.667 l 2.503 0 c 1.108 0 2 -0.892 2 -2 l 0 -6 z" style="fill:#000;fill-opacity:0.098"/>
   <path d="m 2 7 c -2.203 2 -3 2.778 0 2.778 l 11.996 0 c 3 0 2.292 -0.778 0.004 -2.778 l -5 -5 c -1 -1 -1 -1 -2 0 z" style="fill:#000;fill-opacity:0.098;stroke:none"/>
   <path d="m 13.246 2 c 0.548 0 0.754 0.446 0.754 1 l 0 4 -1.504 -0.333 0 -3.687 c 0 -0.554 0.246 -0.98 0.75 -0.98 z" style="fill:#000;fill-opacity:0.098;stroke:none"/>
  </g>
  <g transform="matrix(0.66689703,0,0,0.64285586,3.6662059,1034.0765)" style="fill:#fff8e1;fill-opacity:1">
   <path d="m 2 8 0 6 c 0 1.108 0.892 2 2 2 l 2.498 0 0 -4.667 2.999 0 0 4.667 l 2.503 0 c 1.108 0 2 -0.892 2 -2 l 0 -6 z"/>
   <path d="m 2 7 c -2.203 2 -3 2.778 0 2.778 l 11.996 0 c 3 0 2.292 -0.778 0.004 -2.778 l -5 -5 c -1 -1 -1 -1 -2 0 z" style="stroke:none"/>
   <path d="m 13.246 2 c 0.548 0 0.754 0.446 0.754 1 l 0 4 -1.504 -0.333 0 -3.687 c 0 -0.554 0.246 -0.98 0.75 -0.98 z" style="stroke:none"/>
  </g>
 </g>
</svg>
