<svg version="1.1" viewBox="0 0 32 32" xmlns="http://www.w3.org/2000/svg">
 <defs>
  <radialGradient id="radialGradient3098" cx="24" cy="40.5" r="24" gradientTransform="matrix(.83333 0 0 .13889 -4 1041.4)" gradientUnits="userSpaceOnUse">
   <stop offset="0"/>
   <stop style="stop-opacity:.196" offset="1"/>
  </radialGradient>
 </defs>
 <g transform="translate(0,-1020.4)">
  <path d="m16 1043.7c-6.551 0-12.352 0.522-16 1.333v4c3.648 0.811 9.449 1.333 16 1.333s12.352-0.522 16-1.333v-4c-3.648-0.811-9.449-1.333-16-1.333z" style="fill:url(#radialGradient3098);opacity:.1"/>
  <rect x="1" y="1027.4" width="30" height="21" rx="3.2609999" ry="3.2809999" style="fill:#d32f2f"/>
  <path d="m4.261 1027c-1.807 0-3.261 1.487-3.261 3.333v1.333c0-1.847 1.454-3.333 3.261-3.333h23.478c1.807 0 3.261 1.487 3.261 3.333v-1.333c0-1.847-1.454-3.333-3.261-3.333z" style="fill:#fff;opacity:.2"/>
  <path d="m4.261 1032.4h5.217c7.174-0.667 5.87-8 10.435-8h7.826c1.807 0 3.261 1.487 3.261 3.333v17.333c0 1.847-1.454 3.333-3.261 3.333h-23.478c-1.807 0-3.261-1.487-3.261-3.333v-9.333c0-2 1.304-3.333 3.261-3.333z" style="fill:#ef5350"/>
  <path d="m1 1043.7v1.333c0 1.847 1.454 3.333 3.261 3.333h23.478c1.807 0 3.261-1.487 3.261-3.333v-1.333c0 1.847-1.454 3.667-3.261 3.667h-23.478c-1.807 0-3.261-1.82-3.261-3.667z" style="opacity:.15"/>
  <path d="m9.9318 1045.2771h-0.04091l-0.04091-0.042v-1.2857c0-0.2903-0.04091-0.5392-0.16364-0.7466 0.94091-0.1659 1.9636-0.6636 1.9636-2.5299 0-0.4977-0.16364-0.9539-0.45-1.3272 0.08182-0.2488 0.12273-0.7051-0.08182-1.2857l-0.12273-0.1244s-0.08182-0.042-0.16364-0.042c-0.24545 0-0.61364 0.083-1.2273 0.4977-0.32727-0.042-0.69546-0.1244-1.1045-0.1244s-0.77727 0.041-1.1455 0.1244c-0.57273-0.3733-0.98182-0.4562-1.2273-0.4562-0.08182 0-0.12273 0.041-0.16364 0.041s-0.12273 0.083-0.12273 0.1245c-0.20454 0.5806-0.16364 1.0368-0.08182 1.2857-0.28636 0.3732-0.45 0.8295-0.45 1.3272 0 1.8248 1.0636 2.3225 1.9636 2.5299-0.04091 0.083-0.08182 0.2074-0.12273 0.3318-0.08182 0.042-0.20454 0.083-0.36818 0.083s-0.32727-0.042-0.45-0.1659l-0.04091-0.042c-0.04091-0.042-0.04091-0.083-0.08182-0.083l-0.04091-0.041-0.04091-0.042c0-0.042-0.32727-0.5392-0.9-0.5807-0.20455 0-0.36818 0.083-0.40909 0.2074-0.08182 0.2074 0.16364 0.3733 0.28636 0.4562 0 0 0.24546 0.1245 0.40909 0.5807 0.08182 0.2903 0.45 0.8295 1.3091 0.8295h0.28636v0.5806l-0.04091 0.042s-0.04091 0 0 0c-1.8409-0.7465-3.0682-2.4885-3.0682-4.4378 0-2.5299 2.0045-4.5622 4.5-4.5622s4.5 2.0323 4.5 4.5622c0 1.9493-1.2273 3.6913-3.0682 4.3134z" style="fill-opacity:.098;stroke-width:.41191"/>
  <path d="m9.9318 1044.2771h-0.04091l-0.04091-0.042v-1.2857c0-0.2903-0.04091-0.5392-0.16364-0.7466 0.94091-0.1659 1.9636-0.6636 1.9636-2.5299 0-0.4977-0.16364-0.9539-0.45-1.3272 0.08182-0.2488 0.12273-0.7051-0.08182-1.2857l-0.12273-0.1244s-0.08182-0.042-0.16364-0.042c-0.24545 0-0.61364 0.083-1.2273 0.4977-0.32727-0.042-0.69546-0.1244-1.1045-0.1244s-0.77727 0.041-1.1455 0.1244c-0.57273-0.3733-0.98182-0.4562-1.2273-0.4562-0.08182 0-0.12273 0.041-0.16364 0.041s-0.12273 0.083-0.12273 0.1245c-0.20454 0.5806-0.16364 1.0368-0.08182 1.2857-0.28636 0.3732-0.45 0.8295-0.45 1.3272 0 1.8248 1.0636 2.3225 1.9636 2.5299-0.04091 0.083-0.08182 0.2074-0.12273 0.3318-0.08182 0.042-0.20454 0.083-0.36818 0.083s-0.32727-0.042-0.45-0.1659l-0.04091-0.042c-0.04091-0.042-0.04091-0.083-0.08182-0.083l-0.04091-0.041-0.04091-0.042c0-0.042-0.32727-0.5392-0.9-0.5807-0.20455 0-0.36818 0.083-0.40909 0.2074-0.08182 0.2074 0.16364 0.3733 0.28636 0.4562 0 0 0.24546 0.1245 0.40909 0.5807 0.08182 0.2903 0.45 0.8295 1.3091 0.8295h0.28636v0.5806l-0.04091 0.042s-0.04091 0 0 0c-1.8409-0.7465-3.0682-2.4885-3.0682-4.4378 0-2.5299 2.0045-4.5622 4.5-4.5622s4.5 2.0323 4.5 4.5622c0 1.9493-1.2273 3.6913-3.0682 4.3134z" style="fill:#fff8e1;stroke-width:.41191"/>
 </g>
</svg>
