<svg xmlns="http://www.w3.org/2000/svg" viewBox="0 0 32 32">
 <defs>
  <radialGradient r="24" cy="40.5" cx="24" gradientTransform="matrix(0.83333334,0,0,0.13888885,-4,1041.4039)" gradientUnits="userSpaceOnUse" id="radialGradient3098">
   <stop style="stop-color:#000;stop-opacity:1"/>
   <stop offset="1" style="stop-color:#000;stop-opacity:0.196"/>
  </radialGradient>
 </defs>
 <g transform="translate(0,-1020.3622)">
  <path d="m 16 1043.7 c -6.551 0 -12.352 0.522 -16 1.333 l 0 4 c 3.648 0.811 9.449 1.333 16 1.333 6.551 0 12.352 -0.522 16 -1.333 l 0 -4 c -3.648 -0.811 -9.449 -1.333 -16 -1.333 z" style="fill:url(#radialGradient3098);opacity:0.1;fill-opacity:1;stroke:none"/>
  <rect width="30" height="21" x="1" y="1027.36" rx="3.261" ry="3.281" style="fill:#ffb300;fill-opacity:1;stroke:none"/>
  <path d="m 4.261 1027.03 c -1.807 0 -3.261 1.487 -3.261 3.333 l 0 1.333 c 0 -1.847 1.454 -3.333 3.261 -3.333 l 23.478 0 c 1.807 0 3.261 1.487 3.261 3.333 l 0 -1.333 c 0 -1.847 -1.454 -3.333 -3.261 -3.333 l -23.478 0 z" style="fill:#fff;opacity:0.2;fill-opacity:1;stroke:none"/>
  <path d="m 4.261 1032.36 5.217 0 c 7.174 -0.667 5.87 -8 10.435 -8 l 7.826 0 c 1.807 0 3.261 1.487 3.261 3.333 l 0 17.333 c 0 1.847 -1.454 3.333 -3.261 3.333 l -23.478 0 c -1.807 0 -3.261 -1.487 -3.261 -3.333 l 0 -9.333 c 0 -2 1.304 -3.333 3.261 -3.333 z" style="fill:#ffca28;fill-opacity:1;stroke:none"/>
  <path d="m 1 1043.7 0 1.333 c 0 1.847 1.454 3.333 3.261 3.333 l 23.478 0 c 1.807 0 3.261 -1.487 3.261 -3.333 l 0 -1.333 c 0 1.847 -1.454 3.667 -3.261 3.667 l -23.478 0 c -1.807 0 -3.261 -1.82 -3.261 -3.667 z" style="fill:#000;opacity:0.15;fill-opacity:1;stroke:none"/>
  <path d="m 8.5 17 c -0.277 0 -0.5 0.1 -0.5 0.813 l 0 3.188 l -1 0 c -0.375 0 -0.375 -0.011 0 0.469 l 1.125 1.438 c 0.375 0.48 0.375 0.48 0.75 0 l 1.125 -1.438 c 0.375 -0.48 0.375 -0.469 0 -0.469 l -1 0 l 0 -3.188 c 0 -0.712 -0.223 -0.813 -0.5 -0.813 z m 4 4 c -0.277 0 -0.5 0.223 -0.5 0.5 l 0 2.5 l -7 0 l 0 -2 c 0 -0.277 -0.223 -0.5 -0.5 -0.5 c -0.277 0 -0.5 0.223 -0.5 0.5 l 0 2.5 c 0 0.139 0.055 0.253 0.156 0.344 c 0.045 0.045 0.096 0.1 0.156 0.125 c 0.073 0.031 0.163 0.031 0.25 0.031 l 7.875 0 c 0.312 0 0.563 -0.223 0.563 -0.5 c 0 -0.1 -0.038 -0.172 -0.094 -0.25 c 0.05 -0.078 0.094 -0.15 0.094 -0.25 l 0 -2.5 c 0 -0.277 -0.223 -0.5 -0.5 -0.5 z" transform="translate(0,1020.3622)" style="fill:#000;fill-opacity:0.098;stroke:none"/>
  <rect width="9" height="1" x="4" y="1043.36" rx="0.562" ry="0.5" style="fill:#fff8e1;fill-opacity:1;stroke:none"/>
  <rect rx="0.5" y="-5" x="1040.86" height="1" width="3.5" transform="matrix(0,1,-1,0,0,0)" style="fill:#fff8e1;fill-opacity:1;stroke:none"/>
  <rect transform="matrix(0,1,-1,0,0,0)" width="3.5" height="1" x="1040.36" y="-13" rx="0.5" style="fill:#fff8e1;fill-opacity:1;stroke:none"/>
  <path d="m 8.875 1042.28 c -0.375 0.48 -0.375 0.48 -0.75 0 l -1.125 -1.441 c -0.375 -0.48 -0.375 -0.48 0 -0.48 l 3 0 c 0.375 0 0.375 0 0 0.48 z" style="fill:#fff8e1;fill-opacity:1;stroke:none"/>
  <path d="m 8.5 1036.36 c -0.277 0 -0.5 0.106 -0.5 0.818 l 0 3.682 1 0 0 -3.682 c 0 -0.712 -0.223 -0.818 -0.5 -0.818 z" style="fill:#fff8e1;fill-opacity:1;stroke:none"/>
 </g>
</svg>
