<svg fill="#cacbc7" xmlns="http://www.w3.org/2000/svg"  viewBox="0 0 24 24" width="100px" height="100px"><path d="M 12.033203 2 A 1.0001 1.0001 0 0 0 11 3 L 11 9.4199219 L 7.6894531 6.2753906 A 1.0001 1.0001 0 0 0 6.9628906 5.9902344 A 1.0001 1.0001 0 0 0 6.3105469 7.7246094 L 10.810547 12 L 6.3105469 16.275391 A 1.0002019 1.0002019 0 1 0 7.6894531 17.724609 L 11 14.580078 L 11 21 A 1.0001 1.0001 0 0 0 12.669922 21.744141 L 17.669922 17.244141 A 1.0001 1.0001 0 0 0 17.689453 15.775391 L 13.714844 12 L 17.689453 8.2246094 A 1.0001 1.0001 0 0 0 17.669922 6.7558594 L 12.669922 2.2558594 A 1.0001 1.0001 0 0 0 12.033203 2 z M 13 5.2460938 L 15.525391 7.5214844 L 13 9.9199219 L 13 5.2460938 z M 13 14.080078 L 15.525391 16.478516 L 13 18.753906 L 13 14.080078 z"/></svg>