<?xml version="1.0" encoding="UTF-8"?>
<svg xmlns="http://www.w3.org/2000/svg" xmlns:xlink="http://www.w3.org/1999/xlink" viewBox="0 0 100 100" width="100px" height="100px">
<g id="surface543738">
<path style=" stroke:none;fill-rule:nonzero;fill:rgb(85.490197%,85.490197%,85.490197%);fill-opacity:1;" d="M 18 8 C 12.480469 8 8 12.480469 8 18 L 8 82 C 8 87.519531 12.480469 92 18 92 L 82 92 C 87.519531 92 92 87.519531 92 82 L 92 18 C 92 12.480469 87.519531 8 82 8 Z M 52.339844 22 C 56.28125 22 60 25.539062 60 43 C 60 49.238281 58.9375 58.300781 55.238281 65.761719 C 56.839844 67.839844 58.441406 68.5 59.5 68 C 62.5 66.558594 64.417969 61.5 66.21875 55.980469 C 66.71875 54.480469 68.382812 53.660156 69.921875 54.121094 C 71.480469 54.601562 72.359375 56.199219 71.859375 57.679688 C 70.339844 62.359375 66.082031 73.960938 59.640625 73.960938 C 57.601562 73.960938 54.859375 73.878906 52.238281 71.320312 C 49.296875 75.320312 45.640625 78 41.300781 78 C 32.121094 78 28 71.023438 28 64.101562 C 28 56.761719 31.761719 48.101562 40.261719 48.101562 C 41.703125 48.101562 43.019531 48.363281 44.160156 48.761719 C 44 46.761719 44 45.160156 44 42.761719 C 44 42.542969 44.078125 22 52.339844 22 Z M 52.578125 28.101562 C 51.359375 30.179688 49.921875 36.257812 49.921875 42.738281 C 49.921875 49.777344 50.742188 55.179688 51.980469 59.179688 C 53.839844 54.039062 54.078125 48.058594 54.078125 43 C 54.078125 33.480469 53.519531 29.421875 52.578125 28.101562 Z M 40.238281 54 C 33.878906 54 34 63.859375 34 64.238281 C 34 66.71875 34.578125 72 41.238281 72 C 43.796875 72 46.402344 69.960938 48.601562 66.359375 C 47.261719 63.859375 46 59.941406 45.160156 56 C 45 55.878906 44.839844 55.761719 44.699219 55.621094 C 44.699219 55.621094 42.757812 54 40.238281 54 Z M 40.238281 54 "/>
</g>
</svg>
