<?xml version="1.0" encoding="UTF-8"?>
<svg xmlns="http://www.w3.org/2000/svg" xmlns:xlink="http://www.w3.org/1999/xlink" viewBox="0 0 96 96" width="96px" height="96px">
<g id="surface523102">
<path style=" stroke:none;fill-rule:nonzero;fill:rgb(54.901963%,81.176472%,49.411765%);fill-opacity:1;" d="M 34.160156 89.925781 C 35.523438 89.335938 36.480469 87.980469 36.480469 86.398438 L 36.480469 76.03125 C 36.480469 75.652344 36.511719 75.261719 36.558594 74.859375 C 36.53125 74.867188 36.507812 74.875 36.480469 74.878906 C 36.480469 74.878906 30.71875 74.878906 29.566406 74.878906 C 26.6875 74.878906 24.191406 73.726562 23.039062 71.425781 C 21.695312 68.929688 21.121094 64.703125 17.664062 62.398438 C 17.089844 62.015625 17.472656 61.441406 18.625 61.441406 C 19.777344 61.632812 22.273438 63.167969 23.808594 65.28125 C 25.535156 67.390625 27.265625 69.121094 30.335938 69.121094 C 35.109375 69.121094 37.671875 68.878906 39.210938 68.054688 C 41.003906 65.386719 43.484375 63.359375 46.078125 63.359375 L 46.078125 63.3125 C 35.199219 62.960938 28.246094 59.34375 25.007812 53.761719 C 17.972656 53.839844 11.84375 54.539062 8.347656 55.117188 C 8.238281 54.488281 8.140625 53.859375 8.058594 53.222656 C 11.507812 52.652344 17.355469 51.980469 24.082031 51.851562 C 23.867188 51.320312 23.679688 50.777344 23.523438 50.222656 C 16.78125 49.878906 10.964844 50.148438 7.804688 50.40625 C 7.765625 49.769531 7.710938 49.132812 7.703125 48.488281 C 10.871094 48.230469 16.53125 47.972656 23.097656 48.277344 C 22.949219 47.316406 22.851562 46.335938 22.851562 45.3125 C 22.851562 42.050781 24 38.59375 26.113281 35.714844 C 25.152344 32.449219 23.808594 25.539062 26.496094 23.042969 C 31.683594 23.042969 35.328125 25.539062 37.058594 27.074219 C 40.320312 25.726562 43.96875 24.960938 48 24.960938 C 52.03125 24.960938 55.679688 25.726562 58.753906 27.070312 C 60.480469 25.535156 64.128906 23.039062 69.3125 23.039062 C 72.191406 25.726562 70.65625 32.640625 69.695312 35.710938 C 71.808594 38.59375 72.960938 41.855469 72.769531 45.3125 C 72.769531 46.242188 72.679688 47.136719 72.558594 48.015625 C 79.273438 47.6875 85.089844 47.953125 88.308594 48.214844 C 88.304688 48.859375 88.246094 49.492188 88.210938 50.132812 C 85.003906 49.867188 79.042969 49.59375 72.160156 49.960938 C 71.992188 50.605469 71.78125 51.234375 71.539062 51.84375 C 78.34375 51.929688 84.335938 52.589844 87.949219 53.164062 C 87.867188 53.800781 87.769531 54.433594 87.660156 55.058594 C 83.988281 54.472656 77.730469 53.785156 70.613281 53.75 C 67.414062 59.277344 60.589844 62.878906 49.921875 63.300781 L 49.921875 63.359375 C 54.910156 63.359375 59.519531 70.847656 59.519531 76.03125 L 59.519531 86.398438 C 59.519531 87.980469 60.476562 89.335938 61.839844 89.925781 C 79.429688 84.105469 92.160156 67.515625 92.160156 48 C 92.160156 23.652344 72.351562 3.839844 48 3.839844 C 23.648438 3.839844 3.839844 23.652344 3.839844 48 C 3.839844 67.515625 16.570312 84.105469 34.160156 89.925781 Z M 34.160156 89.925781 "/>
</g>
</svg>
