<?xml version="1.0" encoding="UTF-8"?>
<svg xmlns="http://www.w3.org/2000/svg" xmlns:xlink="http://www.w3.org/1999/xlink" viewBox="0 0 100 100" width="100px" height="100px">
<g id="surface534130">
<path style=" stroke:none;fill-rule:nonzero;fill:rgb(76.862746%,49.803922%,83.529413%);fill-opacity:1;" d="M 75 87.5 L 83.332031 87.5 C 90.207031 87.5 95.832031 81.875 95.832031 75 L 95.832031 41.332031 L 70.832031 60.832031 L 70.832031 83.332031 C 70.832031 85.632812 72.699219 87.5 75 87.5 Z M 81.25 12.5 C 77.957031 12.5 74.832031 13.582031 72.25 15.582031 L 70.832031 16.707031 L 70.832031 50.292969 L 95.832031 30.75 L 95.832031 27.082031 C 95.832031 19.042969 89.292969 12.5 81.25 12.5 Z M 37.5 23.207031 L 37.5 56.792969 L 47.4375 64.542969 C 48.945312 65.714844 51.058594 65.714844 52.5625 64.542969 L 62.5 56.792969 L 62.5 23.207031 L 50 32.957031 Z M 4.167969 75 C 4.167969 81.875 9.792969 87.5 16.667969 87.5 L 25 87.5 C 27.300781 87.5 29.167969 85.632812 29.167969 83.332031 L 29.167969 60.832031 L 4.167969 41.332031 Z M 18.75 12.5 C 10.707031 12.5 4.167969 19.042969 4.167969 27.082031 L 4.167969 30.75 L 29.167969 50.292969 L 29.167969 16.707031 L 27.75 15.582031 C 25.167969 13.582031 22.042969 12.5 18.75 12.5 Z M 18.75 12.5 "/>
</g>
</svg>
