<svg xmlns="http://www.w3.org/2000/svg" xmlns:svgjs="http://svgjs.com/svgjs" xmlns:xlink="http://www.w3.org/1999/xlink" id="SvgjsSvg1016" width="288" height="288" version="1.1"><g id="SvgjsG1018"><svg xmlns="http://www.w3.org/2000/svg" width="288" height="288" viewBox="0 0 512 512"><path fill="none" d="M416,512H96A96,96,0,0,1,0,416V96A96,96,0,0,1,96,0H416a96,96,0,0,1,96,96V416A96,96,0,0,1,416,512Zm0,0" data-name="Path 144"/><path fill="#7aa2f7" d="M234.672,384a40.052,40.052,0,0,0,39.184-32H195.473A40.069,40.069,0,0,0,234.672,384Zm0,0" class="colorffe777 svgShape" data-name="Path 145"/><path fill="#7aa2f7" d="M312,266.672H264a8.024,8.024,0,0,1-7.09-4.289,7.944,7.944,0,0,1,.516-8.254l39.293-56.785H264a8,8,0,1,1,0-16h48a8.024,8.024,0,0,1,7.09,4.289,7.944,7.944,0,0,1-.516,8.254l-39.293,56.785H312a8,8,0,0,1,0,16Zm0,0" class="colorffe777 svgShape" data-name="Path 146"/><g fill="#e0af68" class="color000 svgShape" data-name="Group 14"><path fill="#e0af68" d="M376,192H349.328a7.989,7.989,0,0,1-6.512-12.641l17.633-24.687H349.328a8,8,0,0,1,0-16H376a7.989,7.989,0,0,1,6.512,12.641L364.879,176H376a8,8,0,0,1,0,16Zm0,0" class="colorffd200 svgShape" data-name="Path 147"/><path fill="#e0af68" d="M334.7,308.4a71.3,71.3,0,0,1-19.344-26.078,23.138,23.138,0,0,1-3.359.336H264a23.993,23.993,0,0,1-19.711-37.664l21.918-31.664H264a24,24,0,0,1,0-48h16.656a74.56,74.56,0,0,0-35.312-15.152v-11.52a10.672,10.672,0,0,0-21.344.016v11.52A74.708,74.708,0,0,0,160,224v29.742A71.54,71.54,0,0,1,134.527,308.5a18.667,18.667,0,0,0,12.145,32.848h176A18.668,18.668,0,0,0,334.7,308.4Zm0,0" class="colorffd200 svgShape" data-name="Path 148"/></g></svg></g></svg>