<?xml version="1.0" encoding="UTF-8"?>
<svg xmlns="http://www.w3.org/2000/svg" xmlns:xlink="http://www.w3.org/1999/xlink" viewBox="0 0 90 90" width="90px" height="90px">
<g id="surface325908">
<path style=" stroke:none;fill-rule:nonzero;fill:rgb(90.588236%,50.980395%,51.764709%);fill-opacity:1;" d="M 50.59375 7.5 C 49.273438 7.515625 48.140625 8.445312 47.871094 9.738281 L 43.636719 30.050781 C 34.453125 30.308594 26.15625 33.101562 20.03125 37.539062 C 18.347656 36.339844 16.289062 35.625 14.0625 35.625 C 8.367188 35.625 3.75 40.242188 3.75 45.9375 C 3.75 49.972656 6.070312 53.457031 9.449219 55.152344 C 9.425781 55.519531 9.375 55.878906 9.375 56.25 C 9.375 70.746094 25.324219 82.5 45 82.5 C 64.675781 82.5 80.625 70.746094 80.625 56.25 C 80.625 55.878906 80.574219 55.519531 80.550781 55.152344 C 83.929688 53.457031 86.25 49.972656 86.25 45.9375 C 86.25 40.242188 81.632812 35.625 75.9375 35.625 C 73.710938 35.625 71.652344 36.339844 69.96875 37.539062 C 64.515625 33.585938 57.339844 30.9375 49.351562 30.214844 L 52.816406 13.59375 L 63.988281 15.722656 C 64.726562 18.535156 67.269531 20.625 70.3125 20.625 C 73.929688 20.625 76.875 17.679688 76.875 14.0625 C 76.875 10.445312 73.929688 7.5 70.3125 7.5 C 68.144531 7.5 66.230469 8.570312 65.035156 10.195312 L 51.152344 7.550781 C 50.96875 7.515625 50.78125 7.5 50.59375 7.5 Z M 30.9375 45 C 34.5625 45 37.5 47.9375 37.5 51.5625 C 37.5 55.1875 34.5625 58.125 30.9375 58.125 C 27.3125 58.125 24.375 55.1875 24.375 51.5625 C 24.375 47.9375 27.3125 45 30.9375 45 Z M 59.0625 45 C 62.6875 45 65.625 47.9375 65.625 51.5625 C 65.625 55.1875 62.6875 58.125 59.0625 58.125 C 55.4375 58.125 52.5 55.1875 52.5 51.5625 C 52.5 47.9375 55.4375 45 59.0625 45 Z M 32.8125 63.75 C 33.53125 63.75 34.25 64.023438 34.800781 64.574219 C 34.902344 64.664062 37.992188 67.5 44.996094 67.5 C 52.070312 67.5 55.167969 64.605469 55.195312 64.574219 C 56.292969 63.476562 58.074219 63.476562 59.171875 64.574219 C 60.269531 65.671875 60.273438 67.453125 59.175781 68.550781 C 58.707031 69.019531 54.332031 73.121094 45 73.121094 C 35.667969 73.121094 31.292969 69.019531 30.824219 68.550781 C 29.726562 67.453125 29.726562 65.671875 30.824219 64.574219 C 31.375 64.023438 32.09375 63.75 32.8125 63.75 Z M 32.8125 63.75 "/>
</g>
</svg>
