<?xml version="1.0" encoding="UTF-8"?>
<svg xmlns="http://www.w3.org/2000/svg" xmlns:xlink="http://www.w3.org/1999/xlink" viewBox="0 0 96 96" width="96px" height="96px">
<g id="surface328082">
<path style=" stroke:none;fill-rule:nonzero;fill:rgb(54.901963%,66.666669%,93.333334%);fill-opacity:1;" d="M 5.761719 13.441406 C 2.496094 13.441406 0 15.9375 0 19.199219 L 0 76.800781 C 0 80.0625 2.496094 82.558594 5.761719 82.558594 L 43.800781 82.558594 C 44.378906 83.324219 45.316406 83.738281 46.078125 84.121094 L 46.078125 19.199219 C 46.078125 15.9375 43.582031 13.441406 40.320312 13.441406 Z M 55.679688 13.441406 C 52.417969 13.441406 49.921875 15.9375 49.921875 19.199219 L 49.921875 84.121094 C 50.878906 83.738281 51.621094 83.324219 52.199219 82.558594 L 90.238281 82.558594 C 93.503906 82.558594 96 80.0625 96 76.800781 L 96 19.199219 C 96 15.9375 93.503906 13.441406 90.238281 13.441406 Z M 9.601562 26.878906 L 23.039062 26.878906 C 24.195312 26.878906 24.960938 27.644531 24.960938 28.800781 C 24.960938 29.953125 24.195312 30.71875 23.039062 30.71875 L 9.601562 30.71875 C 8.445312 30.71875 7.679688 29.953125 7.679688 28.800781 C 7.679688 27.644531 8.445312 26.878906 9.601562 26.878906 Z M 30.71875 26.878906 C 31.875 26.878906 32.640625 27.644531 32.640625 28.800781 C 32.640625 29.953125 31.875 30.71875 30.71875 30.71875 C 29.566406 30.71875 28.800781 29.953125 28.800781 28.800781 C 28.800781 27.644531 29.566406 26.878906 30.71875 26.878906 Z M 36.480469 26.878906 C 37.636719 26.878906 38.398438 27.644531 38.398438 28.800781 C 38.398438 29.953125 37.636719 30.71875 36.480469 30.71875 C 35.324219 30.71875 34.558594 29.953125 34.558594 28.800781 C 34.558594 27.644531 35.324219 26.878906 36.480469 26.878906 Z M 59.519531 26.878906 L 72.960938 26.878906 C 74.113281 26.878906 74.878906 27.644531 74.878906 28.800781 C 74.878906 29.953125 74.113281 30.71875 72.960938 30.71875 L 59.519531 30.71875 C 58.363281 30.71875 57.601562 29.953125 57.601562 28.800781 C 57.601562 27.644531 58.363281 26.878906 59.519531 26.878906 Z M 80.640625 26.878906 C 81.796875 26.878906 82.558594 27.644531 82.558594 28.800781 C 82.558594 29.953125 81.796875 30.71875 80.640625 30.71875 C 79.484375 30.71875 78.71875 29.953125 78.71875 28.800781 C 78.71875 27.644531 79.484375 26.878906 80.640625 26.878906 Z M 86.398438 26.878906 C 87.554688 26.878906 88.320312 27.644531 88.320312 28.800781 C 88.320312 29.953125 87.554688 30.71875 86.398438 30.71875 C 85.246094 30.71875 84.480469 29.953125 84.480469 28.800781 C 84.480469 27.644531 85.246094 26.878906 86.398438 26.878906 Z M 9.601562 36.480469 L 23.039062 36.480469 C 24.195312 36.480469 24.960938 37.246094 24.960938 38.398438 C 24.960938 39.554688 24.195312 40.320312 23.039062 40.320312 L 9.601562 40.320312 C 8.445312 40.320312 7.679688 39.554688 7.679688 38.398438 C 7.679688 37.246094 8.445312 36.480469 9.601562 36.480469 Z M 30.71875 36.480469 C 31.875 36.480469 32.640625 37.246094 32.640625 38.398438 C 32.640625 39.554688 31.875 40.320312 30.71875 40.320312 C 29.566406 40.320312 28.800781 39.554688 28.800781 38.398438 C 28.800781 37.246094 29.566406 36.480469 30.71875 36.480469 Z M 36.480469 36.480469 C 37.636719 36.480469 38.398438 37.246094 38.398438 38.398438 C 38.398438 39.554688 37.636719 40.320312 36.480469 40.320312 C 35.324219 40.320312 34.558594 39.554688 34.558594 38.398438 C 34.558594 37.246094 35.324219 36.480469 36.480469 36.480469 Z M 59.519531 36.480469 L 72.960938 36.480469 C 74.113281 36.480469 74.878906 37.246094 74.878906 38.398438 C 74.878906 39.554688 74.113281 40.320312 72.960938 40.320312 L 59.519531 40.320312 C 58.363281 40.320312 57.601562 39.554688 57.601562 38.398438 C 57.601562 37.246094 58.363281 36.480469 59.519531 36.480469 Z M 80.640625 36.480469 C 81.796875 36.480469 82.558594 37.246094 82.558594 38.398438 C 82.558594 39.554688 81.796875 40.320312 80.640625 40.320312 C 79.484375 40.320312 78.71875 39.554688 78.71875 38.398438 C 78.71875 37.246094 79.484375 36.480469 80.640625 36.480469 Z M 86.398438 36.480469 C 87.554688 36.480469 88.320312 37.246094 88.320312 38.398438 C 88.320312 39.554688 87.554688 40.320312 86.398438 40.320312 C 85.246094 40.320312 84.480469 39.554688 84.480469 38.398438 C 84.480469 37.246094 85.246094 36.480469 86.398438 36.480469 Z M 9.601562 46.078125 L 23.039062 46.078125 C 24.195312 46.078125 24.960938 46.84375 24.960938 48 C 24.960938 49.15625 24.195312 49.921875 23.039062 49.921875 L 9.601562 49.921875 C 8.445312 49.921875 7.679688 49.15625 7.679688 48 C 7.679688 46.84375 8.445312 46.078125 9.601562 46.078125 Z M 36.480469 46.078125 C 37.636719 46.078125 38.398438 46.84375 38.398438 48 C 38.398438 49.15625 37.636719 49.921875 36.480469 49.921875 C 35.324219 49.921875 34.558594 49.15625 34.558594 48 C 34.558594 46.84375 35.324219 46.078125 36.480469 46.078125 Z M 59.519531 46.078125 L 72.960938 46.078125 C 74.113281 46.078125 74.878906 46.84375 74.878906 48 C 74.878906 49.15625 74.113281 49.921875 72.960938 49.921875 L 59.519531 49.921875 C 58.363281 49.921875 57.601562 49.15625 57.601562 48 C 57.601562 46.84375 58.363281 46.078125 59.519531 46.078125 Z M 86.398438 46.078125 C 87.554688 46.078125 88.320312 46.84375 88.320312 48 C 88.320312 49.15625 87.554688 49.921875 86.398438 49.921875 C 85.246094 49.921875 84.480469 49.15625 84.480469 48 C 84.480469 46.84375 85.246094 46.078125 86.398438 46.078125 Z M 9.601562 55.679688 L 23.039062 55.679688 C 24.195312 55.679688 24.960938 56.445312 24.960938 57.601562 C 24.960938 58.753906 24.195312 59.519531 23.039062 59.519531 L 9.601562 59.519531 C 8.445312 59.519531 7.679688 58.753906 7.679688 57.601562 C 7.679688 56.445312 8.445312 55.679688 9.601562 55.679688 Z M 30.71875 55.679688 C 31.875 55.679688 32.640625 56.445312 32.640625 57.601562 C 32.640625 58.753906 31.875 59.519531 30.71875 59.519531 C 29.566406 59.519531 28.800781 58.753906 28.800781 57.601562 C 28.800781 56.445312 29.566406 55.679688 30.71875 55.679688 Z M 36.480469 55.679688 C 37.636719 55.679688 38.398438 56.445312 38.398438 57.601562 C 38.398438 58.753906 37.636719 59.519531 36.480469 59.519531 C 35.324219 59.519531 34.558594 58.753906 34.558594 57.601562 C 34.558594 56.445312 35.324219 55.679688 36.480469 55.679688 Z M 9.601562 65.28125 L 23.039062 65.28125 C 24.195312 65.28125 24.960938 66.046875 24.960938 67.199219 C 24.960938 68.355469 24.195312 69.121094 23.039062 69.121094 L 9.601562 69.121094 C 8.445312 69.121094 7.679688 68.355469 7.679688 67.199219 C 7.679688 66.046875 8.445312 65.28125 9.601562 65.28125 Z M 36.480469 65.28125 C 37.636719 65.28125 38.398438 66.046875 38.398438 67.199219 C 38.398438 68.355469 37.636719 69.121094 36.480469 69.121094 C 35.324219 69.121094 34.558594 68.355469 34.558594 67.199219 C 34.558594 66.046875 35.324219 65.28125 36.480469 65.28125 Z M 36.480469 65.28125 "/>
</g>
</svg>
