<?xml version="1.0" encoding="UTF-8"?>
<svg xmlns="http://www.w3.org/2000/svg" xmlns:xlink="http://www.w3.org/1999/xlink" viewBox="0 0 90 90" width="90px" height="90px">
<g id="surface540496">
<path style=" stroke:none;fill-rule:nonzero;fill:rgb(40.392157%,69.01961%,90.980393%);fill-opacity:1;" d="M 80.601562 13.125 L 56.25 13.125 C 51.589844 13.125 47.8125 16.902344 47.8125 21.5625 L 47.8125 70.3125 C 47.8125 71.863281 46.550781 73.125 45 73.125 C 43.449219 73.125 42.1875 71.863281 42.1875 70.3125 L 42.1875 21.5625 C 42.1875 16.902344 38.410156 13.125 33.75 13.125 L 9.375 13.125 C 6.269531 13.125 3.75 15.644531 3.75 18.75 L 3.75 71.25 C 3.75 74.355469 6.269531 76.875 9.375 76.875 L 38.539062 76.875 C 39.839844 79.109375 42.230469 80.625 45 80.625 C 47.769531 80.625 50.160156 79.109375 51.460938 76.875 L 80.601562 76.875 C 83.707031 76.875 86.226562 74.355469 86.226562 71.25 L 86.226562 18.75 C 86.226562 15.644531 83.707031 13.125 80.601562 13.125 Z M 30.9375 60.9375 L 15 60.9375 C 13.445312 60.9375 12.1875 59.675781 12.1875 58.125 C 12.1875 56.574219 13.445312 55.3125 15 55.3125 L 30.9375 55.3125 C 32.492188 55.3125 33.75 56.574219 33.75 58.125 C 33.75 59.675781 32.492188 60.9375 30.9375 60.9375 Z M 30.9375 47.8125 L 15 47.8125 C 13.445312 47.8125 12.1875 46.550781 12.1875 45 C 12.1875 43.449219 13.445312 42.1875 15 42.1875 L 30.9375 42.1875 C 32.492188 42.1875 33.75 43.449219 33.75 45 C 33.75 46.550781 32.492188 47.8125 30.9375 47.8125 Z M 30.9375 34.6875 L 15 34.6875 C 13.445312 34.6875 12.1875 33.425781 12.1875 31.875 C 12.1875 30.324219 13.445312 29.0625 15 29.0625 L 30.9375 29.0625 C 32.492188 29.0625 33.75 30.324219 33.75 31.875 C 33.75 33.425781 32.492188 34.6875 30.9375 34.6875 Z M 71.25 60.9375 L 59.0625 60.9375 C 57.507812 60.9375 56.25 59.675781 56.25 58.125 C 56.25 56.574219 57.507812 55.3125 59.0625 55.3125 L 71.25 55.3125 C 72.804688 55.3125 74.0625 56.574219 74.0625 58.125 C 74.0625 59.675781 72.804688 60.9375 71.25 60.9375 Z M 75 47.8125 L 59.0625 47.8125 C 57.507812 47.8125 56.25 46.550781 56.25 45 C 56.25 43.449219 57.507812 42.1875 59.0625 42.1875 L 75 42.1875 C 76.554688 42.1875 77.8125 43.449219 77.8125 45 C 77.8125 46.550781 76.554688 47.8125 75 47.8125 Z M 75 34.6875 L 59.0625 34.6875 C 57.507812 34.6875 56.25 33.425781 56.25 31.875 C 56.25 30.324219 57.507812 29.0625 59.0625 29.0625 L 75 29.0625 C 76.554688 29.0625 77.8125 30.324219 77.8125 31.875 C 77.8125 33.425781 76.554688 34.6875 75 34.6875 Z M 75 34.6875 "/>
</g>
</svg>
