<svg version="1.1" viewBox="0 0 64 64" xmlns="http://www.w3.org/2000/svg">
 <path d="m10.672 0c-1.375 0-2.672 1.355-2.672 2.789v58.42c0 1.355 1.375 2.789 2.672 2.789h42.656c1.297 0 2.672-1.434 2.672-2.789v-43.21l-18-18" style="fill:#dbdbdb"/>
 <path d="m42 18 14 14v-14" style="fill-opacity:.196"/>
 <path d="m38 0 17.984 18h-15.227c-1.348 0-2.758-1.426-2.758-2.773" style="fill-opacity:.392;fill:#fff"/>
 <path d="m26 24c-3.3137 0-6 2.6863-6 6 0 2.6089 1.6746 4.8064 4 5.6328v16.367h4v-16.367c2.3254-0.82637 4-3.024 4-5.6328 0-3.3137-2.6863-6-6-6zm10 0v16.367c-2.3254 0.82637-4 3.024-4 5.6328 0 3.3137 2.6863 6 6 6s6-2.6863 6-6c0-2.6089-1.6746-4.8064-4-5.6328v-16.367zm-10 4c1.1046 0 2 0.89543 2 2s-0.89551 2.0128-2 2c-1.0864-0.0128-2.0001-0.91348-2-2 1.52e-4 -1.1046 0.89543-2 2-2zm12 16c1.1045-0.0128 2 0.89543 2 2s-0.89543 2-2 2-1.9998-0.89543-2-2c-1.48e-4 -1.0865 0.91356-1.9874 2-2z" style="fill:#878787;stroke-linejoin:round;stroke-opacity:.54328;stroke-width:7.303"/>
</svg>
