<svg version="1.1" viewBox="0 0 64 64" xmlns="http://www.w3.org/2000/svg">
 <path d="m10.667 0c-1.371 0-2.667 1.352-2.667 2.783v58.43c0 1.352 1.371 2.783 2.667 2.783h42.667c1.295 0 2.667-1.431 2.667-2.783v-43.22l-17-18" style="fill:#376a94"/>
 <path d="m39-0.087 17 18.09h-14.385c-1.27 0-2.615-1.431-2.615-2.783v-15.304z" style="fill-opacity:.392;fill:#fff"/>
 <g transform="matrix(1.083 0 0 1.0521 6.0156 11.374)" style="fill:#fff">
  <g style="fill:#fff">
   <path d="m18.453 12.001c-4.0924 0-7.387 3.3913-7.387 7.6037v5.7028c0 4.2125 3.2946 7.6037 7.387 7.6037l-2.7701 7.6037 12.004-7.6037h1.8467c4.0924 0 7.387-3.3913 7.387-7.6037v-5.7028c0-4.2125-3.2946-7.6037-7.387-7.6037z" style="fill:#fff"/>
  </g>
 </g>
 <path d="m42 18 14 14v-14z" style="fill-opacity:.196"/>
</svg>
