<svg version="1.1" viewBox="0 0 64 64" xmlns="http://www.w3.org/2000/svg">
 <path d="m10.672 0c-1.375 0-2.672 1.355-2.672 2.789v58.42c0 1.355 1.375 2.789 2.672 2.789h42.656c1.297 0 2.672-1.434 2.672-2.789v-43.21l-18-18" style="fill:#a31d23"/>
 <path d="m42 18 14 14v-14" style="fill-opacity:.196"/>
 <path d="m38 0 17.984 18h-15.227c-1.348 0-2.758-1.426-2.758-2.773" style="fill-opacity:.392;fill:#fff"/>
 <path d="m42 26.417c0 7.3333-7.2727 15.583-10 15.583-2.7273 0-10-8.576-10-15.583 0-4.226 3.3941-6.4167 10-6.4167 6.6059 0 10 2.214 10 6.4167z" style="fill:#ffffff;paint-order:normal;stroke-width:.91287"/>
 <path d="m8.0003 48.037v13.336c0 1.297 1.375 2.664 2.664 2.664h42.672c1.289 0 2.664-1.367 2.664-2.664v-13.336" style="fill-opacity:.196"/>
 <path d="m21.874 51.825c-0.60313 0-1.1092 0.08855-1.5287 0.2686-0.408 0.18497-0.75026 0.44177-1.0226 0.76449-0.26504 0.31878-0.45287 0.70742-0.5833 1.1571-0.10956 0.44177-0.15861 0.93372-0.15861 1.4837 0 1.2525 0.23687 2.1911 0.71791 2.7943 0.48522 0.58837 1.1864 0.88354 2.1235 0.88354 0.14713 0 0.31826-0.0079 0.49774-0.02263 0.17948-0.0079 0.34226-0.02656 0.49356-0.05018v-3.847h2.5273v5.2658c-0.29739 0.08855-0.77426 0.19186-1.4139 0.30796-0.6313 0.11118-1.4024 0.16923-2.3071 0.16923-0.80348 0-1.5203-0.11512-2.1683-0.34928-0.6313-0.23023-1.1697-0.57657-1.6226-1.0301-0.45287-0.46538-0.80348-1.038-1.0539-1.7218-0.24835-0.69168-0.37461-1.4916-0.37461-2.3987 0-0.89535 0.14713-1.6835 0.43617-2.3673 0.28904-0.69168 0.68035-1.2722 1.1697-1.7336 0.49356-0.46538 1.0842-0.81073 1.7572-1.038 0.66887-0.24204 1.3941-0.36109 2.16-0.36109 0.49774 0 0.93391 0.03837 1.3169 0.10331 0.39965 0.05805 0.74191 0.13086 1.0351 0.19973 0.28904 0.08068 0.51757 0.16923 0.69704 0.26172 0.18783 0.088551 0.33391 0.15742 0.42783 0.2076l-0.65635 1.6677c-0.30156-0.16136-0.66887-0.30796-1.1123-0.42701-0.432-0.13086-0.88487-0.18792-1.3576-0.18792" style="fill:#fff"/>
 <path d="m37 50v1.8078h-3.2654v9.1922h-2.4775v-9.1922h-3.2571v-1.8078h9" style="fill:#fff"/>
 <path d="m42.851 50c1.3129 0 2.3393 0.29031 3.0614 0.86456 0.72308 0.56468 1.0881 1.4867 1.0881 2.7745 0 1.2963-0.36502 2.2428-1.103 2.8244-0.73004 0.57318-1.7565 0.86456-3.1002 0.86456h-0.73799v3.672h-2.0588v-10.73c0.2019-0.04147 0.42768-0.08295 0.67633-0.12442 0.25661-0.03296 0.51321-0.05849 0.76883-0.067 0.25661-0.02446 0.50526-0.04147 0.75391-0.04998 0.24069-0.01701 0.45851-0.02446 0.65246-0.02446m0.23274 1.8854c-0.12432 0-0.2954 0-0.52018 0.01701-0.20986 0-0.38093 0.0085-0.50526 0.03296v3.5146h0.83944c0.66041 0 1.1577-0.14144 1.4919-0.40729 0.33419-0.28287 0.4973-0.75609 0.4973-1.4207 0-0.63167-0.16311-1.0804-0.4973-1.3378-0.32623-0.26586-0.76186-0.39878-1.3059-0.39878" style="fill:#fff"/>
</svg>
