<svg version="1.1" viewBox="0 0 64 64" xmlns="http://www.w3.org/2000/svg">
 <path d="m10.7 0c-1.38 0-2.67 1.36-2.67 2.79v58.4c0 1.36 1.38 2.79 2.67 2.79h42.7c1.3 0 2.67-1.43 2.67-2.79v-43.2l-18-18" style="fill:#37a34d"/>
 <path d="m42 18 14 14v-14" style="fill-opacity:.196;fill:#000000"/>
 <path d="m38 0 18 18h-15.2c-1.35 0-2.76-1.43-2.76-2.77" style="fill-opacity:.392;fill:#ffffff"/>
 <path d="m23.3 22c-.703.066-1.3.813-1.29 1.6v16.8c.008.828.668 1.57 1.41 1.57h17.2c.727-.016 1.36-.746 1.37-1.57v-16.8c.016-.836-.629-1.6-1.37-1.6m-16.6 2h16v11.4l-4.7-5.32-2.98 2.77-3.93-4.92-4.39 5.66" style="fill:#ffffff"/>
 <path d="m8 48v13.3c0 1.3 1.38 2.66 2.66 2.66h42.7c1.29 0 2.66-1.37 2.66-2.66v-13.3" style="fill-opacity:.196;fill:#000000"/>
 <path d="m26 58.2c0 .524-.0843 1.02-.245 1.49-.152.469-.406.873-.767 1.23-.354.35-.808.631-1.37.841-.571.198-1.25.298-2.06.298-.848 0-1.56-.0915-2.12-.282-.563-.183-1.05-.417-1.44-.683l.953-1.72c.333.183.704.365 1.11.54.418.175.839.266 1.27.266.647 0 1.17-.15 1.56-.441.406-.306.607-.866.607-1.67v-5.11h-4.49v-2h7v7.24" style="fill:#ffffff"/>
 <path d="m34.4 62q-.46-.921-1.02-1.86-.54-.952-1.25-1.94-.222.286-.572.794-.333.508-.683 1.08-.333.571-.635 1.1t-.445.825h-2.83q.699-1.29 1.62-2.7.937-1.41 2.08-3l-3.54-5.3h3l2.14 3.43 2.1-3.43h2.83l-3.49 5.33q1.33 1.73 2.24 3.21.905 1.46 1.43 2.46z" style="fill:#ffffff"/>
 <path d="m46.2 60v2h-7.2v-11h2.44v9z" style="fill:#ffffff"/>
</svg>
