<svg version="1.1" viewBox="0 0 64 64" xmlns="http://www.w3.org/2000/svg">
 <path d="m10.672 0c-1.375 0-2.672 1.355-2.672 2.789v58.42c0 1.355 1.375 2.789 2.672 2.789h42.656c1.297 0 2.672-1.434 2.672-2.789v-43.21l-18-18" style="fill:#3161b3"/>
 <path d="m42 18 14 14v-14" style="fill-opacity:.196"/>
 <path d="m38 0 17.984 18h-15.227c-1.348 0-2.758-1.426-2.758-2.773" style="fill-opacity:.392;fill:#fff"/>
 <path d="m31 18c-3.3137 0-6 2.6863-6 6 0 1.1046 0.89543 2 2 2 1.1046 0 2-0.89543 2-2 0-1.1046 0.89543-2 2-2s2 0.89544 2 2v2l-13.609 23.523c-0.25924 0.44808-0.39048 0.95891-0.39064 1.4766-4.88e-4 1.6568 1.3432 3.0004 3 3 1.0807-2.96e-4 2.0995-0.5706 2.6093-1.5234l8.3907-15.68v11.203c0 3.3137 2.6863 6 6 6 3.3137 0 6-2.6863 6-6 0-1.1046-0.89543-2-2-2-1.1046 0-2 0.89543-2 2 0 1.1046-0.89543 2-2 2-1.1046 0-2-0.89543-2-2v-24c0-3.3137-2.6863-6-6-6z" style="fill:#fff"/>
</svg>
