<svg version="1.1" viewBox="0 0 64 64" xmlns="http://www.w3.org/2000/svg">
 <path d="m10.672 0c-1.375 0-2.672 1.355-2.672 2.789v58.42c0 1.355 1.375 2.789 2.672 2.789h42.656c1.297 0 2.672-1.434 2.672-2.789v-43.21l-18-18" style="fill:#f68712"/>
 <path d="m42 18 14 14v-14" style="fill-opacity:.196"/>
 <path d="m38 0 17.984 18h-15.227c-1.348 0-2.758-1.426-2.758-2.773" style="fill-opacity:.392;fill:#fff"/>
 <g transform="matrix(.01918 0 0 -.019181 20 56.707)">
  <path d="m1094.9 1079.6 156.43-625.63v312.81l-156.43 312.82 156.43 625.64v-312.81l-156.43-312.83m-938.45 0-156.41 625.64v-312.81l156.41-312.83-156.41-625.63v312.81l156.41 312.82m469.24-469.22-625.64-156.41h312.81l312.83 156.41 625.64-156.41h-312.83l-312.81 156.41m0 938.45 625.64 156.41h-312.83l-312.81-156.41-625.64 156.41h312.81l312.83-156.41m-625.64-1094.9 156.41 625.63 469.24-469.22-625.64-156.41m1251.3 0-625.64 156.41 469.22 469.22 156.43-625.63m0 1251.3-156.43-625.64-469.22 469.23 625.64 156.41m-1251.3 0 625.64-156.41-469.24-469.23-156.41 625.64m625.64-156.41-469.24-469.23 469.24-469.22 469.22 469.22-469.22 469.23" style="fill:#fff"/>
 </g>
</svg>
