<svg xmlns="http://www.w3.org/2000/svg" viewBox="0 0 32 32">
 <g transform="translate(0,-1020.3622)">
  <rect width="18" height="12" x="2" y="1026.36" rx="1.957" ry="2.187" style="fill:#1976d2;fill-opacity:1;stroke:none"/>
  <path d="m 3.957 1026.36 c -1.084 0 -1.957 1.115 -1.957 2.5 l 0 1 c 0 -1.385 0.873 -2.5 1.957 -2.5 l 14.09 0 c 1.084 0 1.957 1.115 1.957 2.5 l 0 -1 c 0 -1.385 -0.873 -2.5 -1.957 -2.5 z" style="fill:#fff;opacity:0.2;fill-opacity:1;stroke:none"/>
  <path d="m 3.957 1029.36 3.13 0 c 4.304 -0.444 3.522 -5 6.261 -5 l 4.696 0 c 1.084 0 1.957 0.991 1.957 2.222 l 0 9.556 c 0 1.231 -0.873 2.222 -1.957 2.222 l -14.09 0 c -1.084 0 -1.957 -0.991 -1.957 -2.222 l 0 -4.222 c 0 -1.333 0.783 -2.556 1.957 -2.556 z" style="fill:#42a5f5;fill-opacity:1;stroke:none"/>
  <path d="m 2 1035.25 0 0.889 c 0 1.231 0.873 2.222 1.957 2.222 l 14.09 0 c 1.084 0 1.957 -0.991 1.957 -2.222 l 0 -0.889 c 0 1.231 -0.873 2.111 -1.957 2.111 l -14.09 0 c -1.084 0 -1.957 -0.88 -1.957 -2.111 z" style="fill:#000;opacity:0.15;fill-opacity:1;stroke:none"/>
  <rect width="18" height="12" x="12" y="1036.36" rx="1.957" ry="2.187" style="fill:#1976d2;fill-opacity:1;stroke:none"/>
  <path d="m 13.957 1036.36 c -1.084 0 -1.957 1.115 -1.957 2.5 l 0 1 c 0 -1.385 0.873 -2.5 1.957 -2.5 l 14.09 0 c 1.084 0 1.957 1.115 1.957 2.5 l 0 -1 c 0 -1.385 -0.873 -2.5 -1.957 -2.5 z" style="fill:#fff;opacity:0.2;fill-opacity:1;stroke:none"/>
  <path d="m 13.957 1039.36 3.13 0 c 4.304 -0.444 3.522 -5 6.261 -5 l 4.696 0 c 1.084 0 1.957 0.991 1.957 2.222 l 0 9.555 c 0 1.231 -0.873 2.222 -1.957 2.222 l -14.09 0 c -1.084 0 -1.957 -0.991 -1.957 -2.222 l 0 -4.222 c 0 -1.333 0.783 -2.555 1.957 -2.556 z" style="fill:#42a5f5;fill-opacity:1;stroke:none"/>
  <path d="m 12 1045.25 0 0.889 c 0 1.231 0.873 2.222 1.957 2.222 l 14.09 0 c 1.084 0 1.957 -0.991 1.957 -2.222 l 0 -0.889 c 0 1.231 -0.873 2.111 -1.957 2.111 l -14.09 0 c -1.084 0 -1.957 -0.88 -1.957 -2.111 z" style="fill:#000;opacity:0.15;fill-opacity:1;stroke:none"/>
 </g>
</svg>
