<svg xmlns="http://www.w3.org/2000/svg" viewBox="0 0 32 32">
 <defs>
  <radialGradient r="24" cy="40.5" cx="24" gradientTransform="matrix(0.83333334,0,0,0.13888885,-4,1041.4039)" gradientUnits="userSpaceOnUse" id="radialGradient3098">
   <stop style="stop-color:#000;stop-opacity:1"/>
   <stop offset="1" style="stop-color:#000;stop-opacity:0.196"/>
  </radialGradient>
 </defs>
 <g transform="translate(0,-1020.3622)">
  <path d="m 16 1043.7 c -6.551 0 -12.352 0.522 -16 1.333 l 0 4 c 3.648 0.811 9.449 1.333 16 1.333 6.551 0 12.352 -0.522 16 -1.333 l 0 -4 c -3.648 -0.811 -9.449 -1.333 -16 -1.333 z" style="fill:url(#radialGradient3098);opacity:0.1;fill-opacity:1;stroke:none"/>
  <rect width="30" height="21" x="1" y="1027.36" rx="3.261" ry="3.281" style="fill:#5d4037;fill-opacity:1;stroke:none"/>
  <path d="m 4.261 1027.03 c -1.807 0 -3.261 1.487 -3.261 3.333 l 0 1.333 c 0 -1.847 1.454 -3.333 3.261 -3.333 l 23.478 0 c 1.807 0 3.261 1.487 3.261 3.333 l 0 -1.333 c 0 -1.847 -1.454 -3.333 -3.261 -3.333 l -23.478 0 z" style="fill:#fff;opacity:0.2;fill-opacity:1;stroke:none"/>
  <path d="m 4.261 1032.36 5.217 0 c 7.174 -0.667 5.87 -8 10.435 -8 l 7.826 0 c 1.807 0 3.261 1.487 3.261 3.333 l 0 17.333 c 0 1.847 -1.454 3.333 -3.261 3.333 l -23.478 0 c -1.807 0 -3.261 -1.487 -3.261 -3.333 l 0 -9.333 c 0 -2 1.304 -3.333 3.261 -3.333 z" style="fill:#8d6e63;fill-opacity:1;stroke:none"/>
  <path d="m 1 1043.7 0 1.333 c 0 1.847 1.454 3.333 3.261 3.333 l 23.478 0 c 1.807 0 3.261 -1.487 3.261 -3.333 l 0 -1.333 c 0 1.847 -1.454 3.667 -3.261 3.667 l -23.478 0 c -1.807 0 -3.261 -1.82 -3.261 -3.667 z" style="fill:#000;opacity:0.15;fill-opacity:1;stroke:none"/>
  <path d="m 7.792 1036.36 c -0.25 0 -0.458 0.198 -0.458 0.448 l 0 0.583 c -0.158 0.053 -0.311 0.115 -0.458 0.188 l -0.406 -0.406 c -0.176 -0.177 -0.459 -0.177 -0.635 0 l -1.021 1.01 c -0.176 0.177 -0.176 0.459 0 0.636 l 0.406 0.406 c -0.075 0.15 -0.134 0.308 -0.187 0.469 l -0.573 0 c -0.25 0 -0.458 0.198 -0.458 0.448 l 0 1.438 c 0 0.249 0.209 0.448 0.458 0.448 l 0.573 0 c 0.054 0.161 0.113 0.319 0.187 0.469 l -0.406 0.406 c -0.176 0.176 -0.176 0.459 0 0.635 l 1.021 1.01 c 0.176 0.176 0.459 0.176 0.635 0 l 0.406 -0.406 c 0.147 0.073 0.301 0.134 0.458 0.187 l 0 0.583 c 0 0.25 0.209 0.448 0.458 0.448 l 1.427 0 c 0.25 0 0.448 -0.198 0.448 -0.448 l 0 -0.583 c 0.161 -0.054 0.319 -0.113 0.469 -0.187 l 0.406 0.406 c 0.176 0.176 0.459 0.176 0.635 0 l 1.021 -1.01 c 0.176 -0.177 0.176 -0.459 0 -0.635 l -0.417 -0.417 c 0.073 -0.148 0.135 -0.301 0.188 -0.458 l 0.583 0 c 0.25 0 0.448 -0.198 0.448 -0.448 l 0 -1.438 c 0 -0.249 -0.198 -0.448 -0.448 -0.448 l -0.583 0 c -0.053 -0.158 -0.114 -0.311 -0.188 -0.458 l 0.417 -0.417 c 0.176 -0.177 0.176 -0.459 0 -0.636 l -1.021 -1.01 c -0.176 -0.177 -0.459 -0.177 -0.635 0 l -0.406 0.406 c -0.15 -0.075 -0.308 -0.134 -0.469 -0.188 l 0 -0.583 c 0 -0.25 -0.198 -0.448 -0.448 -0.448 l -1.427 0 z m 0.708 3.333 c 0.644 0 1.167 0.523 1.167 1.167 0 0.644 -0.523 1.167 -1.167 1.167 -0.644 0 -1.167 -0.523 -1.167 -1.167 0 -0.644 0.523 -1.167 1.167 -1.167 z" style="fill:#000;fill-opacity:0.098;display:block;color:#000"/>
  <path d="m 7.792 1035.36 c -0.25 0 -0.458 0.198 -0.458 0.448 l 0 0.583 c -0.158 0.053 -0.311 0.115 -0.458 0.188 l -0.406 -0.406 c -0.176 -0.177 -0.459 -0.177 -0.635 0 l -1.021 1.01 c -0.176 0.177 -0.176 0.459 0 0.636 l 0.406 0.406 c -0.075 0.15 -0.134 0.308 -0.187 0.469 l -0.573 0 c -0.25 0 -0.458 0.198 -0.458 0.448 l 0 1.438 c 0 0.249 0.209 0.448 0.458 0.448 l 0.573 0 c 0.054 0.161 0.113 0.319 0.187 0.469 l -0.406 0.406 c -0.176 0.176 -0.176 0.459 0 0.635 l 1.021 1.01 c 0.176 0.176 0.459 0.176 0.635 0 l 0.406 -0.406 c 0.147 0.073 0.301 0.134 0.458 0.187 l 0 0.583 c 0 0.25 0.209 0.448 0.458 0.448 l 1.427 0 c 0.25 0 0.448 -0.198 0.448 -0.448 l 0 -0.583 c 0.161 -0.054 0.319 -0.113 0.469 -0.187 l 0.406 0.406 c 0.176 0.176 0.459 0.176 0.635 0 l 1.021 -1.01 c 0.176 -0.177 0.176 -0.459 0 -0.635 l -0.417 -0.417 c 0.073 -0.148 0.135 -0.301 0.188 -0.458 l 0.583 0 c 0.25 0 0.448 -0.198 0.448 -0.448 l 0 -1.438 c 0 -0.249 -0.198 -0.448 -0.448 -0.448 l -0.583 0 c -0.053 -0.158 -0.114 -0.311 -0.188 -0.458 l 0.417 -0.417 c 0.176 -0.177 0.176 -0.459 0 -0.636 l -1.021 -1.01 c -0.176 -0.177 -0.459 -0.177 -0.635 0 l -0.406 0.406 c -0.15 -0.075 -0.308 -0.134 -0.469 -0.188 l 0 -0.583 c 0 -0.25 -0.198 -0.448 -0.448 -0.448 l -1.427 0 z m 0.708 3.333 c 0.644 0 1.167 0.523 1.167 1.167 0 0.644 -0.523 1.167 -1.167 1.167 -0.644 0 -1.167 -0.523 -1.167 -1.167 0 -0.644 0.523 -1.167 1.167 -1.167 z" style="fill:#fff8e1;fill-opacity:1;display:block;color:#000"/>
 </g>
</svg>
