<svg xmlns="http://www.w3.org/2000/svg" viewBox="0 0 32 32">
 <defs>
  <radialGradient r="24" cy="40.5" cx="24" gradientTransform="matrix(0.83333334,0,0,0.13888885,-4,1041.4039)" gradientUnits="userSpaceOnUse" id="radialGradient3098">
   <stop style="stop-color:#000;stop-opacity:1"/>
   <stop offset="1" style="stop-color:#000;stop-opacity:0.196"/>
  </radialGradient>
 </defs>
 <g transform="translate(0,-1020.3622)">
  <path d="m 16 1043.7 c -6.551 0 -12.352 0.522 -16 1.333 l 0 4 c 3.648 0.811 9.449 1.333 16 1.333 6.551 0 12.352 -0.522 16 -1.333 l 0 -4 c -3.648 -0.811 -9.449 -1.333 -16 -1.333 z" style="fill:url(#radialGradient3098);opacity:0.1;fill-opacity:1;stroke:none"/>
  <rect width="30" height="21" x="1" y="1027.36" rx="3.261" ry="3.281" style="fill:#5d4037;fill-opacity:1;stroke:none"/>
  <path d="m 4.261 1027.03 c -1.807 0 -3.261 1.487 -3.261 3.333 l 0 1.333 c 0 -1.847 1.454 -3.333 3.261 -3.333 l 23.478 0 c 1.807 0 3.261 1.487 3.261 3.333 l 0 -1.333 c 0 -1.847 -1.454 -3.333 -3.261 -3.333 l -23.478 0 z" style="fill:#fff;opacity:0.2;fill-opacity:1;stroke:none"/>
  <path d="m 4.261 1032.36 5.217 0 c 7.174 -0.667 5.87 -8 10.435 -8 l 7.826 0 c 1.807 0 3.261 1.487 3.261 3.333 l 0 17.333 c 0 1.847 -1.454 3.333 -3.261 3.333 l -23.478 0 c -1.807 0 -3.261 -1.487 -3.261 -3.333 l 0 -9.333 c 0 -2 1.304 -3.333 3.261 -3.333 z" style="fill:#8d6e63;fill-opacity:1;stroke:none"/>
  <path d="m 1 1043.7 0 1.333 c 0 1.847 1.454 3.333 3.261 3.333 l 23.478 0 c 1.807 0 3.261 -1.487 3.261 -3.333 l 0 -1.333 c 0 1.847 -1.454 3.667 -3.261 3.667 l -23.478 0 c -1.807 0 -3.261 -1.82 -3.261 -3.667 z" style="fill:#000;opacity:0.15;fill-opacity:1;stroke:none"/>
  <path d="m 4.844 1040.03 c -0.466 0 -0.844 0.372 -0.844 0.832 c 0 0.459 0.378 0.832 0.844 0.832 0.466 0 0.843 -0.372 0.843 -0.832 0 -0.459 -0.378 -0.832 -0.843 -0.832 z m 6.02 3.78 c -0.403 0.23 -0.542 0.738 -0.309 1.136 0.233 0.398 0.749 0.534 1.152 0.304 0.403 -0.23 0.542 -0.738 0.309 -1.136 -0.233 -0.398 -0.749 -0.534 -1.152 -0.304 z m -4.191 -2.948 c 0 -0.822 0.414 -1.548 1.048 -1.987 l -0.617 -1.018 c -0.738 0.486 -1.287 1.23 -1.515 2.1 0.266 0.214 0.437 0.54 0.437 0.906 0 0.365 -0.17 0.692 -0.437 0.906 0.228 0.871 0.777 1.614 1.515 2.1 l 0.617 -1.018 c -0.633 -0.439 -1.048 -1.166 -1.048 -1.988 z m 2.464 -2.429 c 1.287 0 2.343 0.973 2.454 2.214 l 1.202 -0.018 c -0.059 -0.916 -0.465 -1.739 -1.089 -2.344 -0.321 0.12 -0.691 0.101 -1.011 -0.081 -0.321 -0.183 -0.522 -0.49 -0.577 -0.824 -0.312 -0.085 -0.64 -0.131 -0.979 -0.131 -0.583 0 -1.134 0.135 -1.624 0.374 l 0.586 1.036 c 0.315 -0.145 0.667 -0.226 1.038 -0.226 z m 0 4.859 c -0.371 0 -0.722 -0.081 -1.038 -0.226 l -0.586 1.036 c 0.49 0.239 1.041 0.374 1.624 0.374 0.339 0 0.667 -0.046 0.979 -0.131 0.055 -0.334 0.256 -0.642 0.577 -0.825 0.32 -0.182 0.691 -0.2 1.011 -0.081 0.624 -0.605 1.03 -1.427 1.089 -2.343 l -1.202 -0.018 c -0.111 1.241 -1.167 2.214 -2.454 2.214 z m 1.726 -5.378 c 0.403 0.23 0.919 0.094 1.152 -0.304 0.233 -0.398 0.095 -0.906 -0.309 -1.136 -0.403 -0.23 -0.919 -0.093 -1.152 0.304 -0.233 0.398 -0.095 0.906 0.309 1.136 z" style="fill:#000;fill-opacity:0.098;color:#000"/>
  <path d="m 4.844 1039.03 c -0.466 0 -0.844 0.372 -0.844 0.832 c 0 0.459 0.378 0.832 0.844 0.832 0.466 0 0.843 -0.372 0.843 -0.832 0 -0.459 -0.378 -0.832 -0.843 -0.832 z m 6.02 3.78 c -0.403 0.23 -0.542 0.738 -0.309 1.136 0.233 0.398 0.749 0.534 1.152 0.304 0.403 -0.23 0.542 -0.738 0.309 -1.136 -0.233 -0.398 -0.749 -0.534 -1.152 -0.304 z m -4.191 -2.948 c 0 -0.822 0.414 -1.548 1.048 -1.987 l -0.617 -1.018 c -0.738 0.486 -1.287 1.23 -1.515 2.1 0.266 0.214 0.437 0.54 0.437 0.906 0 0.365 -0.17 0.692 -0.437 0.906 0.228 0.871 0.777 1.614 1.515 2.1 l 0.617 -1.018 c -0.633 -0.439 -1.048 -1.166 -1.048 -1.988 z m 2.464 -2.429 c 1.287 0 2.343 0.973 2.454 2.214 l 1.202 -0.018 c -0.059 -0.916 -0.465 -1.739 -1.089 -2.344 -0.321 0.12 -0.691 0.101 -1.011 -0.081 -0.321 -0.183 -0.522 -0.49 -0.577 -0.824 -0.312 -0.085 -0.64 -0.131 -0.979 -0.131 -0.583 0 -1.134 0.135 -1.624 0.374 l 0.586 1.036 c 0.315 -0.145 0.667 -0.226 1.038 -0.226 z m 0 4.859 c -0.371 0 -0.722 -0.081 -1.038 -0.226 l -0.586 1.036 c 0.49 0.239 1.041 0.374 1.624 0.374 0.339 0 0.667 -0.046 0.979 -0.131 0.055 -0.334 0.256 -0.642 0.577 -0.825 0.32 -0.182 0.691 -0.2 1.011 -0.081 0.624 -0.605 1.03 -1.427 1.089 -2.343 l -1.202 -0.018 c -0.111 1.241 -1.167 2.214 -2.454 2.214 z m 1.726 -5.378 c 0.403 0.23 0.919 0.094 1.152 -0.304 0.233 -0.398 0.095 -0.906 -0.309 -1.136 -0.403 -0.23 -0.919 -0.093 -1.152 0.304 -0.233 0.398 -0.095 0.906 0.309 1.136 z" style="fill:#fff8e1;fill-opacity:1;color:#000"/>
 </g>
</svg>
