<svg version="1.1" viewBox="0 0 32 32" xmlns="http://www.w3.org/2000/svg">
 <defs>
  <radialGradient id="radialGradient3098" cx="24" cy="40.5" r="24" gradientTransform="matrix(.83333334 0 0 .13888885 -4 1041.4039)" gradientUnits="userSpaceOnUse">
   <stop offset="0"/>
   <stop style="stop-opacity:.196" offset="1"/>
  </radialGradient>
 </defs>
 <g transform="translate(0,-1020.3622)">
  <path d="m16 1043.7c-6.551 0-12.352 0.522-16 1.333v4c3.648 0.811 9.449 1.333 16 1.333s12.352-0.522 16-1.333v-4c-3.648-0.811-9.449-1.333-16-1.333z" style="fill:url(#radialGradient3098);opacity:.1"/>
  <rect x="1" y="1027.36" width="30" height="21" rx="3.261" ry="3.281" style="fill:#f57c00"/>
  <path d="m4.261 1027.03c-1.807 0-3.261 1.487-3.261 3.333v1.333c0-1.847 1.454-3.333 3.261-3.333h23.478c1.807 0 3.261 1.487 3.261 3.333v-1.333c0-1.847-1.454-3.333-3.261-3.333h-23.478z" style="fill:#fff;opacity:.2"/>
  <path d="m4.261 1032.36h5.217c7.174-0.667 5.87-8 10.435-8h7.826c1.807 0 3.261 1.487 3.261 3.333v17.333c0 1.847-1.454 3.333-3.261 3.333h-23.478c-1.807 0-3.261-1.487-3.261-3.333v-9.333c0-2 1.304-3.333 3.261-3.333z" style="fill:#ffb300"/>
  <path d="m1 1043.7v1.333c0 1.847 1.454 3.333 3.261 3.333h23.478c1.807 0 3.261-1.487 3.261-3.333v-1.333c0 1.847-1.454 3.667-3.261 3.667h-23.478c-1.807 0-3.261-1.82-3.261-3.667z" style="opacity:.15"/>
  <path d="m8.6118272 1036.3636a4.4999992 4.4999992 0 0 0-3.2929687 1.3164 4.4999992 4.4999992 0 0 0-0.9765625 4.9043 4.4999992 4.4999992 0 0 0 4.1582031 2.7773h4.4999999v-1h-4.4999999a3.5 3.5 0 0 1-3.5-3.5 3.5 3.5 0 0 1 3.5-3.5 3.5 3.5 0 0 1 1.4999999 0.3477v-1.0821a4.4999992 4.4999992 0 0 0-1.3886718-0.2636zm-0.050781 1.998a2.4999999 2.4999999 0 0 0-1.828125 0.7324 2.4999999 2.4999999 0 0 0-0.5429688 2.7246 2.4999999 2.4999999 0 0 0 2.3105467 1.543h4.4999999v-1h-4.4999999a1.5 1.5 0 0 1-1.5-1.5 1.5 1.5 0 0 1 1.5-1.5 1.5 1.5 0 0 1 1.4121094 1h1.0371095a2.4999999 2.4999999 0 0 0-1.4921877-1.8105 2.4999999 2.4999999 0 0 0-0.8964841-0.1895z" style="-inkscape-stroke:none;fill-opacity:.098;font-variation-settings:normal;stop-color:#000000"/>
  <path d="m8.6118272 1035.3636a4.4999992 4.4999992 0 0 0-3.2929687 1.3164 4.4999992 4.4999992 0 0 0-0.9765625 4.9043 4.4999992 4.4999992 0 0 0 4.1582031 2.7773h4.4999999v-1h-4.4999999a3.5 3.5 0 0 1-3.5-3.5 3.5 3.5 0 0 1 3.5-3.5 3.5 3.5 0 0 1 1.4999999 0.3477v-1.0821a4.4999992 4.4999992 0 0 0-1.3886718-0.2636zm-0.050781 1.998a2.4999999 2.4999999 0 0 0-1.828125 0.7324 2.4999999 2.4999999 0 0 0-0.5429688 2.7246 2.4999999 2.4999999 0 0 0 2.3105467 1.543h4.4999999v-1h-4.4999999a1.5 1.5 0 0 1-1.5-1.5 1.5 1.5 0 0 1 1.5-1.5 1.5 1.5 0 0 1 1.4121094 1h1.0371095a2.4999999 2.4999999 0 0 0-1.4921877-1.8105 2.4999999 2.4999999 0 0 0-0.8964841-0.1895z" style="-inkscape-stroke:none;fill:#fff8e1;font-variation-settings:normal;stop-color:#000000"/>
 </g>
</svg>
