<svg xmlns="http://www.w3.org/2000/svg" viewBox="0 0 32 32">
 <defs>
  <radialGradient r="24" cy="40.5" cx="24" gradientTransform="matrix(0.83333334,0,0,0.13888885,-4,1041.4039)" gradientUnits="userSpaceOnUse" id="radialGradient3078">
   <stop style="stop-color:#000;stop-opacity:1"/>
   <stop offset="1" style="stop-color:#000;stop-opacity:0.196"/>
  </radialGradient>
 </defs>
 <g transform="translate(0,-1020.3622)">
  <path d="m 16 1043.7 c -6.551 0 -12.352 0.522 -16 1.333 l 0 4 c 3.648 0.811 9.449 1.333 16 1.333 6.551 0 12.352 -0.522 16 -1.333 l 0 -4 c -3.648 -0.811 -9.449 -1.333 -16 -1.333 z" style="fill:url(#radialGradient3078);opacity:0.1;fill-opacity:1;stroke:none"/>
  <rect width="30" height="21" x="1" y="1027.36" rx="3.261" ry="3.281" style="fill:#757575;fill-opacity:1;stroke:none"/>
  <path d="m 4.261 1027.03 c -1.807 0 -3.261 1.487 -3.261 3.333 l 0 1.333 c 0 -1.847 1.454 -3.333 3.261 -3.333 l 23.478 0 c 1.807 0 3.261 1.487 3.261 3.333 l 0 -1.333 c 0 -1.847 -1.454 -3.333 -3.261 -3.333 l -23.478 0 z" style="fill:#fff;opacity:0.2;fill-opacity:1;stroke:none"/>
  <path d="m 4.261 1032.36 5.217 0 c 7.174 -0.667 5.87 -8 10.435 -8 l 7.826 0 c 1.807 0 3.261 1.487 3.261 3.333 l 0 17.333 c 0 1.847 -1.454 3.333 -3.261 3.333 l -23.478 0 c -1.807 0 -3.261 -1.487 -3.261 -3.333 l 0 -9.333 c 0 -2 1.304 -3.333 3.261 -3.333 z" style="fill:#bdbdbd;fill-opacity:1;stroke:none"/>
  <path d="m 1 1043.7 0 1.333 c 0 1.847 1.454 3.333 3.261 3.333 l 23.478 0 c 1.807 0 3.261 -1.487 3.261 -3.333 l 0 -1.333 c 0 1.847 -1.454 3.667 -3.261 3.667 l -23.478 0 c -1.807 0 -3.261 -1.82 -3.261 -3.667 z" style="fill:#000;opacity:0.15;fill-opacity:1;stroke:none"/>
  <path d="m 11.364 1036.36 c -1.187 0 -2.158 0.991 -2.158 2.208 0 0.409 0.117 0.794 0.308 1.125 l 0 2.392 c -0.235 0.05 -0.452 0.16 -0.636 0.307 l -2.139 -0.982 c 0 -0.868 -0.694 -1.575 -1.542 -1.575 -0.846 0 -1.542 0.706 -1.542 1.575 0 0.87 0.695 1.595 1.542 1.595 0.343 0 0.668 -0.13 0.925 -0.327 l 2.158 1 c 0.022 0.85 0.709 1.534 1.542 1.534 0.848 0 1.542 -0.705 1.542 -1.574 0 -0.362 -0.125 -0.694 -0.328 -0.961 l 0.019 0 1.137 -2.065 c 0.008 -0.011 0.011 -0.017 0.019 -0.02 0.761 -0.344 1.31 -1.121 1.31 -2.024 0 -1.216 -0.972 -2.208 -2.158 -2.208 z m 0 0.736 c 0.798 0 1.426 0.655 1.426 1.472 0 0.819 -0.629 1.472 -1.426 1.472 -0.799 0 -1.426 -0.653 -1.426 -1.472 0 -0.818 0.627 -1.472 1.426 -1.472 z m 0 0.532 c -0.51 0 -0.925 0.415 -0.925 0.941 0 0.523 0.415 0.941 0.925 0.941 0.512 0 0.925 -0.417 0.925 -0.941 0 -0.525 -0.413 -0.941 -0.925 -0.941 z m -6.167 2.842 c 0.506 0 0.795 0.21 0.886 0.634 l -0.54 -0.245 c -0.35 -0.153 -0.757 0.011 -0.906 0.368 -0.148 0.359 0.016 0.769 0.366 0.92 l 0.405 0.204 c -0.068 0.011 -0.135 0.02 -0.212 0.02 -0.617 0 -0.925 -0.327 -0.925 -0.961 0 -0.632 0.308 -0.941 0.925 -0.941 z m 4.625 2.106 c 0.571 0 1.021 0.478 1.021 1.063 0 0.585 -0.451 1.043 -1.021 1.043 -0.463 0 -0.855 -0.306 -0.983 -0.736 l 0.732 0.327 c 0.35 0.152 0.757 -0.028 0.906 -0.389 0.148 -0.359 -0.016 -0.769 -0.366 -0.92 l -0.674 -0.307 c 0.118 -0.048 0.25 -0.081 0.385 -0.081 z" style="fill:#000;fill-opacity:0.098;stroke:none;fill-rule:nonzero"/>
  <path d="m 11.364 1035.36 c -1.187 0 -2.158 0.991 -2.158 2.208 0 0.409 0.117 0.794 0.308 1.125 l 0 2.392 c -0.235 0.05 -0.452 0.16 -0.636 0.307 l -2.139 -0.982 c 0 -0.868 -0.694 -1.575 -1.542 -1.575 -0.846 0 -1.542 0.706 -1.542 1.575 0 0.87 0.695 1.595 1.542 1.595 0.343 0 0.668 -0.13 0.925 -0.327 l 2.158 1 c 0.022 0.85 0.709 1.534 1.542 1.534 0.848 0 1.542 -0.705 1.542 -1.574 0 -0.362 -0.125 -0.694 -0.328 -0.961 l 0.019 0 1.137 -2.065 c 0.008 -0.011 0.011 -0.017 0.019 -0.02 0.761 -0.344 1.31 -1.121 1.31 -2.024 0 -1.216 -0.972 -2.208 -2.158 -2.208 z m 0 0.736 c 0.798 0 1.426 0.655 1.426 1.472 0 0.819 -0.629 1.472 -1.426 1.472 -0.799 0 -1.426 -0.653 -1.426 -1.472 0 -0.818 0.627 -1.472 1.426 -1.472 z m 0 0.532 c -0.51 0 -0.925 0.415 -0.925 0.941 0 0.523 0.415 0.941 0.925 0.941 0.512 0 0.925 -0.417 0.925 -0.941 0 -0.525 -0.413 -0.941 -0.925 -0.941 z m -6.167 2.842 c 0.506 0 0.795 0.21 0.886 0.634 l -0.54 -0.245 c -0.35 -0.153 -0.757 0.011 -0.906 0.368 -0.148 0.359 0.016 0.769 0.366 0.92 l 0.405 0.204 c -0.068 0.011 -0.135 0.02 -0.212 0.02 -0.617 0 -0.925 -0.327 -0.925 -0.961 0 -0.632 0.308 -0.941 0.925 -0.941 z m 4.625 2.106 c 0.571 0 1.021 0.478 1.021 1.063 0 0.585 -0.451 1.043 -1.021 1.043 -0.463 0 -0.855 -0.306 -0.983 -0.736 l 0.732 0.327 c 0.35 0.152 0.757 -0.028 0.906 -0.389 0.148 -0.359 -0.016 -0.769 -0.366 -0.92 l -0.674 -0.307 c 0.118 -0.048 0.25 -0.081 0.385 -0.081 z" style="fill:#fff8e1;opacity:1;fill-opacity:1;stroke:none;fill-rule:nonzero"/>
 </g>
</svg>
