<svg xmlns="http://www.w3.org/2000/svg" viewBox="0 0 32 32">
 <defs>
  <radialGradient r="24" cy="40.5" cx="24" gradientTransform="matrix(0.83333334,0,0,0.13888885,-4,1041.4039)" gradientUnits="userSpaceOnUse" id="radialGradient3145">
   <stop style="stop-color:#000;stop-opacity:1"/>
   <stop offset="1" style="stop-color:#000;stop-opacity:0.196"/>
  </radialGradient>
 </defs>
 <g transform="translate(0,-1020.3622)">
  <path d="m 16 1043.7 c -6.551 0 -12.352 0.522 -16 1.333 l 0 4 c 3.648 0.811 9.449 1.333 16 1.333 6.551 0 12.352 -0.522 16 -1.333 l 0 -4 c -3.648 -0.811 -9.449 -1.333 -16 -1.333 z" style="fill:url(#radialGradient3145);opacity:0.1;fill-opacity:1;stroke:none"/>
  <rect width="30" height="21" x="1" y="1027.36" rx="3.261" ry="3.281" style="fill:#757575;fill-opacity:1;stroke:none"/>
  <path d="m 4.261 1027.03 c -1.807 0 -3.261 1.487 -3.261 3.333 l 0 1.333 c 0 -1.847 1.454 -3.333 3.261 -3.333 l 23.478 0 c 1.807 0 3.261 1.487 3.261 3.333 l 0 -1.333 c 0 -1.847 -1.454 -3.333 -3.261 -3.333 l -23.478 0 z" style="fill:#fff;opacity:0.2;fill-opacity:1;stroke:none"/>
  <rect width="20" height="17" x="6" y="1023.36" ry="1.36" rx="1.333" style="fill:#eae7d1;fill-opacity:1;stroke:none"/>
  <rect y="1032.36" x="8" height="1" width="16" style="fill:#7a7a68;fill-opacity:1;stroke:none"/>
  <rect y="1028.36" x="8" height="1" width="16" style="fill:#7a7a68;fill-opacity:1;stroke:none"/>
  <rect width="16" height="1" x="8" y="1030.36" style="fill:#7a7a68;fill-opacity:1;stroke:none"/>
  <rect width="16" height="1" x="8" y="1034.36" style="fill:#7a7a68;fill-opacity:1;stroke:none"/>
  <path d="m 4.261 1036.36 5.217 0 c 7.174 -0.5 5.87 -6 10.435 -6 l 7.826 0 c 1.807 0 3.261 1.115 3.261 2.5 l 0 13 c 0 1.385 -1.454 2.5 -3.261 2.5 l -23.478 0 c -1.807 0 -3.261 -1.115 -3.261 -2.5 l 0 -7 c 0 -1.5 1.304 -2.5 3.261 -2.5 z" style="fill:#bdbdbd;fill-opacity:1;stroke:none"/>
  <rect width="16" height="1" x="8" y="1026.36" style="fill:#7a7a68;fill-opacity:1;stroke:none"/>
  <path d="m 1 1043.7 0 1.333 c 0 1.847 1.454 3.333 3.261 3.333 l 23.478 0 c 1.807 0 3.261 -1.487 3.261 -3.333 l 0 -1.333 c 0 1.847 -1.454 3.667 -3.261 3.667 l -23.478 0 c -1.807 0 -3.261 -1.82 -3.261 -3.667 z" style="fill:#000;opacity:0.15;fill-opacity:1;stroke:none"/>
 </g>
</svg>
