<svg xmlns="http://www.w3.org/2000/svg" viewBox="0 0 32 32">
 <defs>
  <radialGradient r="24" cy="40.5" cx="24" gradientTransform="matrix(0.83333334,0,0,0.13888885,-4,1041.4039)" gradientUnits="userSpaceOnUse" id="radialGradient3124">
   <stop style="stop-color:#000;stop-opacity:1"/>
   <stop offset="1" style="stop-color:#000;stop-opacity:0.196"/>
  </radialGradient>
 </defs>
 <g transform="translate(0,-1020.3622)">
  <path d="m 16 1043.7 c -6.551 0 -12.352 0.522 -16 1.333 l 0 4 c 3.648 0.811 9.449 1.333 16 1.333 6.551 0 12.352 -0.522 16 -1.333 l 0 -4 c -3.648 -0.811 -9.449 -1.333 -16 -1.333 z" style="fill:url(#radialGradient3124);opacity:0.1;fill-opacity:1;stroke:none"/>
  <rect width="30" height="21" x="1" y="1027.36" rx="3.261" ry="3.281" style="fill:#e65100;fill-opacity:1;stroke:none"/>
  <path d="m 4.261 1027.03 c -1.807 0 -3.261 1.487 -3.261 3.333 l 0 1.333 c 0 -1.847 1.454 -3.333 3.261 -3.333 l 23.478 0 c 1.807 0 3.261 1.487 3.261 3.333 l 0 -1.333 c 0 -1.847 -1.454 -3.333 -3.261 -3.333 l -23.478 0 z" style="fill:#fff;opacity:0.2;fill-opacity:1;stroke:none"/>
  <path d="m 4.261 1032.36 5.217 0 c 7.174 -0.667 5.87 -8 10.435 -8 l 7.826 0 c 1.807 0 3.261 1.487 3.261 3.333 l 0 17.333 c 0 1.847 -1.454 3.333 -3.261 3.333 l -23.478 0 c -1.807 0 -3.261 -1.487 -3.261 -3.333 l 0 -9.333 c 0 -2 1.304 -3.333 3.261 -3.333 z" style="fill:#f57c00;fill-opacity:1;stroke:none"/>
  <path d="m 1 1043.7 0 1.333 c 0 1.847 1.454 3.333 3.261 3.333 l 23.478 0 c 1.807 0 3.261 -1.487 3.261 -3.333 l 0 -1.333 c 0 1.847 -1.454 3.667 -3.261 3.667 l -23.478 0 c -1.807 0 -3.261 -1.82 -3.261 -3.667 z" style="fill:#000;opacity:0.15;fill-opacity:1;stroke:none"/>
  <path d="m 4.912 1036.61 c -0.297 0.011 -0.578 0.037 -0.861 0.135 -0.089 0.603 0.058 1.229 0.219 1.807 0.411 1.326 1.175 2.584 2.295 3.428 0.041 0.039 0.099 0.048 0.084 0.118 -0.006 0.294 -0.001 0.601 0 0.895 0.012 0.515 0.322 1.01 0.776 1.25 0.539 0.284 1.077 0.547 1.62 0.827 0.25 0.132 0.597 -0.02 0.675 -0.287 0.048 -0.176 0.014 -0.361 0.017 -0.54 -0.002 -0.378 -0.048 -0.758 -0.034 -1.132 0.494 -0.061 0.991 -0.301 1.283 -0.709 0.26 -0.348 0.352 -0.799 0.321 -1.233 0.529 -0.095 1.073 -0.175 1.603 -0.27 0.314 -0.063 0.45 -0.471 0.253 -0.726 -0.385 -0.489 -0.773 -0.967 -1.164 -1.453 -0.316 -0.378 -0.812 -0.588 -1.299 -0.524 -0.331 0.054 -0.669 0.124 -0.996 0.186 -1.053 -1 -2.469 -1.561 -3.898 -1.723 -0.293 -0.027 -0.597 -0.056 -0.894 -0.05 z m 1.789 1.098 c 0.345 -0.031 0.692 0.065 0.979 0.304 0.575 0.479 0.664 1.333 0.186 1.908 -0.478 0.575 -1.332 0.665 -1.907 0.186 -0.575 -0.479 -0.664 -1.333 -0.186 -1.908 0.239 -0.287 0.583 -0.458 0.928 -0.49 z m 5.518 4.138 c -0.118 -0.011 -0.236 0.079 -0.253 0.203 -0.151 0.685 -0.637 1.281 -1.283 1.554 -0.168 0.054 -0.205 0.278 -0.068 0.388 0.283 0.236 0.61 0.509 0.894 0.743 0.138 0.118 0.318 -0.012 0.321 -0.186 -0.005 -0.144 -0.021 -0.297 -0.034 -0.439 0.352 0.075 0.698 0.176 1.046 0.253 0.164 0.034 0.32 -0.164 0.253 -0.321 -0.138 -0.331 -0.28 -0.65 -0.422 -0.979 0.143 -0.017 0.28 -0.028 0.422 -0.051 0.176 -0.034 0.244 -0.291 0.101 -0.405 -0.285 -0.24 -0.572 -0.471 -0.861 -0.709 -0.034 -0.027 -0.079 -0.047 -0.118 -0.05 z" style="fill:#000;fill-opacity:0.098;stroke:none;fill-rule:nonzero"/>
  <path d="m 4.912 1035.61 c -0.297 0.011 -0.578 0.037 -0.861 0.135 -0.089 0.603 0.058 1.229 0.219 1.807 0.411 1.326 1.175 2.584 2.295 3.428 0.041 0.039 0.099 0.048 0.084 0.118 -0.006 0.294 -0.001 0.601 0 0.895 0.012 0.515 0.322 1.01 0.776 1.25 0.539 0.284 1.077 0.547 1.62 0.827 0.25 0.132 0.597 -0.02 0.675 -0.287 0.048 -0.176 0.014 -0.361 0.017 -0.54 -0.002 -0.378 -0.048 -0.758 -0.034 -1.132 0.494 -0.061 0.991 -0.301 1.283 -0.709 0.26 -0.348 0.352 -0.799 0.321 -1.233 0.529 -0.095 1.073 -0.175 1.603 -0.27 0.314 -0.063 0.45 -0.471 0.253 -0.726 -0.385 -0.489 -0.773 -0.967 -1.164 -1.453 -0.316 -0.378 -0.812 -0.588 -1.299 -0.524 -0.331 0.054 -0.669 0.124 -0.996 0.186 -1.053 -1 -2.469 -1.561 -3.898 -1.723 -0.293 -0.027 -0.597 -0.056 -0.894 -0.05 z m 1.789 1.098 c 0.345 -0.031 0.692 0.065 0.979 0.304 0.575 0.479 0.664 1.333 0.186 1.908 -0.478 0.575 -1.332 0.665 -1.907 0.186 -0.575 -0.479 -0.664 -1.333 -0.186 -1.908 0.239 -0.287 0.583 -0.458 0.928 -0.49 z m 5.518 4.138 c -0.118 -0.011 -0.236 0.079 -0.253 0.203 -0.151 0.685 -0.637 1.281 -1.283 1.554 -0.168 0.054 -0.205 0.278 -0.068 0.388 0.283 0.236 0.61 0.509 0.894 0.743 0.138 0.118 0.318 -0.012 0.321 -0.186 -0.005 -0.144 -0.021 -0.297 -0.034 -0.439 0.352 0.075 0.698 0.176 1.046 0.253 0.164 0.034 0.32 -0.164 0.253 -0.321 -0.138 -0.331 -0.28 -0.65 -0.422 -0.979 0.143 -0.017 0.28 -0.028 0.422 -0.051 0.176 -0.034 0.244 -0.291 0.101 -0.405 -0.285 -0.24 -0.572 -0.471 -0.861 -0.709 -0.034 -0.027 -0.079 -0.047 -0.118 -0.05 z" style="fill:#fff8e1;opacity:1;fill-opacity:1;stroke:none;fill-rule:nonzero"/>
 </g>
</svg>
