<svg xmlns="http://www.w3.org/2000/svg" viewBox="0 0 32 32">
 <defs>
  <radialGradient r="24" cy="40.5" cx="24" gradientTransform="matrix(0.83333334,0,0,0.13888885,-4,1041.4039)" gradientUnits="userSpaceOnUse" id="radialGradient3098">
   <stop style="stop-color:#000;stop-opacity:1"/>
   <stop offset="1" style="stop-color:#000;stop-opacity:0.196"/>
  </radialGradient>
 </defs>
 <g transform="translate(0,-1020.3622)">
  <path d="m 16 1043.7 c -6.551 0 -12.352 0.522 -16 1.333 l 0 4 c 3.648 0.811 9.449 1.333 16 1.333 6.551 0 12.352 -0.522 16 -1.333 l 0 -4 c -3.648 -0.811 -9.449 -1.333 -16 -1.333 z" style="fill:url(#radialGradient3098);opacity:0.1;fill-opacity:1;stroke:none"/>
  <rect width="30" height="21" x="1" y="1027.36" rx="3.261" ry="3.281" style="fill:#ec407a;fill-opacity:1;stroke:none"/>
  <path d="m 4.261 1027.03 c -1.807 0 -3.261 1.487 -3.261 3.333 l 0 1.333 c 0 -1.847 1.454 -3.333 3.261 -3.333 l 23.478 0 c 1.807 0 3.261 1.487 3.261 3.333 l 0 -1.333 c 0 -1.847 -1.454 -3.333 -3.261 -3.333 l -23.478 0 z" style="fill:#fff;opacity:0.2;fill-opacity:1;stroke:none"/>
  <path d="m 4.261 1032.36 5.217 0 c 7.174 -0.667 5.87 -8 10.435 -8 l 7.826 0 c 1.807 0 3.261 1.487 3.261 3.333 l 0 17.333 c 0 1.847 -1.454 3.333 -3.261 3.333 l -23.478 0 c -1.807 0 -3.261 -1.487 -3.261 -3.333 l 0 -9.333 c 0 -2 1.304 -3.333 3.261 -3.333 z" style="fill:#f06292;fill-opacity:1;stroke:none"/>
  <path d="m 1 1043.7 0 1.333 c 0 1.847 1.454 3.333 3.261 3.333 l 23.478 0 c 1.807 0 3.261 -1.487 3.261 -3.333 l 0 -1.333 c 0 1.847 -1.454 3.667 -3.261 3.667 l -23.478 0 c -1.807 0 -3.261 -1.82 -3.261 -3.667 z" style="fill:#000;opacity:0.15;fill-opacity:1;stroke:none"/>
  <path d="m 4.643 1036.36 0 2.571 2.571 0 -0.806 -0.726 c 0.575 -0.452 1.304 -0.721 2.092 -0.721 1.864 0 3.375 1.511 3.375 3.375 0 1.864 -1.511 3.375 -3.375 3.375 -1.864 0 -3.375 -1.511 -3.375 -3.375 0 -0.394 0.101 -0.934 0.225 -1.286 l -1.178 0 c -0.092 0.359 -0.172 0.898 -0.172 1.286 c 0 2.485 2.01 4.5 4.5 4.5 2.485 0 4.5 -2.01 4.5 -4.5 0 -2.485 -2.01 -4.5 -4.5 -4.5 -1.101 0 -2.118 0.381 -2.9 1.037 z m 3.804 1.67 c -0.024 0.01 -0.047 0.01 -0.07 0.017 -0.252 0.057 -0.446 0.305 -0.439 0.563 l 0 2.074 c -0.001 0.017 -0.001 0.035 0 0.053 -0.033 0.143 -0.007 0.298 0.07 0.422 0.006 0.01 0.012 0.012 0.018 0.017 0.005 0.012 0.011 0.023 0.018 0.035 0.006 0.01 0.012 0.012 0.018 0.017 0.006 0.01 0.012 0.012 0.018 0.017 0.006 0.01 0.012 0.012 0.018 0.017 0.006 0.01 0.012 0.012 0.018 0.017 0.012 0.01 0.023 0.012 0.035 0.017 0.006 0.01 0.012 0.012 0.018 0.017 0.006 0.01 0.012 0.012 0.018 0.017 0.012 0.01 0.023 0.012 0.035 0.017 0.023 0.014 0.046 0.025 0.07 0.035 l 1.389 0.809 c 0.258 0.15 0.629 0.05 0.777 -0.209 0.148 -0.259 0.046 -0.629 -0.214 -0.775 l -1.178 -0.686 0 -1.916 c 0.011 -0.319 -0.298 -0.61 -0.615 -0.58 z" style="fill:#000;fill-opacity:0.098;color:#000"/>
  <path d="m 4.643 1035.36 0 2.571 2.571 0 -0.806 -0.726 c 0.575 -0.452 1.304 -0.721 2.092 -0.721 1.864 0 3.375 1.511 3.375 3.375 0 1.864 -1.511 3.375 -3.375 3.375 -1.864 0 -3.375 -1.511 -3.375 -3.375 0 -0.394 0.101 -0.934 0.225 -1.286 l -1.178 0 c -0.092 0.359 -0.172 0.898 -0.172 1.286 c 0 2.485 2.01 4.5 4.5 4.5 2.485 0 4.5 -2.01 4.5 -4.5 0 -2.485 -2.01 -4.5 -4.5 -4.5 -1.101 0 -2.118 0.381 -2.9 1.037 z m 3.804 1.67 c -0.024 0.01 -0.047 0.01 -0.07 0.017 -0.252 0.057 -0.446 0.305 -0.439 0.563 l 0 2.074 c -0.001 0.017 -0.001 0.035 0 0.053 -0.033 0.143 -0.007 0.298 0.07 0.422 0.006 0.01 0.012 0.012 0.018 0.017 0.005 0.012 0.011 0.023 0.018 0.035 0.006 0.01 0.012 0.012 0.018 0.017 0.006 0.01 0.012 0.012 0.018 0.017 0.006 0.01 0.012 0.012 0.018 0.017 0.006 0.01 0.012 0.012 0.018 0.017 0.012 0.01 0.023 0.012 0.035 0.017 0.006 0.01 0.012 0.012 0.018 0.017 0.006 0.01 0.012 0.012 0.018 0.017 0.012 0.01 0.023 0.012 0.035 0.017 0.023 0.014 0.046 0.025 0.07 0.035 l 1.389 0.809 c 0.258 0.15 0.629 0.05 0.777 -0.209 0.148 -0.259 0.046 -0.629 -0.214 -0.775 l -1.178 -0.686 0 -1.916 c 0.011 -0.319 -0.298 -0.61 -0.615 -0.58 z" style="fill:#fff8e1;fill-opacity:1;color:#000"/>
 </g>
</svg>
