<svg xmlns="http://www.w3.org/2000/svg" viewBox="0 0 32 32">
 <defs>
  <radialGradient r="24" cy="40.5" cx="24" gradientTransform="matrix(0.83333334,0,0,0.13888885,-4,1041.4039)" gradientUnits="userSpaceOnUse" id="radialGradient3098">
   <stop style="stop-color:#000;stop-opacity:1"/>
   <stop offset="1" style="stop-color:#000;stop-opacity:0.196"/>
  </radialGradient>
 </defs>
 <g transform="translate(0,-1020.3622)">
  <path d="m 16 1043.7 c -6.551 0 -12.352 0.522 -16 1.333 l 0 4 c 3.648 0.811 9.449 1.333 16 1.333 6.551 0 12.352 -0.522 16 -1.333 l 0 -4 c -3.648 -0.811 -9.449 -1.333 -16 -1.333 z" style="fill:url(#radialGradient3098);opacity:0.1;fill-opacity:1;stroke:none"/>
  <rect width="30" height="21" x="1" y="1027.36" rx="3.261" ry="3.281" style="fill:#ec407a;fill-opacity:1;stroke:none"/>
  <path d="m 4.261 1027.03 c -1.807 0 -3.261 1.487 -3.261 3.333 l 0 1.333 c 0 -1.847 1.454 -3.333 3.261 -3.333 l 23.478 0 c 1.807 0 3.261 1.487 3.261 3.333 l 0 -1.333 c 0 -1.847 -1.454 -3.333 -3.261 -3.333 l -23.478 0 z" style="fill:#fff;opacity:0.2;fill-opacity:1;stroke:none"/>
  <path d="m 4.261 1032.36 5.217 0 c 7.174 -0.667 5.87 -8 10.435 -8 l 7.826 0 c 1.807 0 3.261 1.487 3.261 3.333 l 0 17.333 c 0 1.847 -1.454 3.333 -3.261 3.333 l -23.478 0 c -1.807 0 -3.261 -1.487 -3.261 -3.333 l 0 -9.333 c 0 -2 1.304 -3.333 3.261 -3.333 z" style="fill:#f06292;fill-opacity:1;stroke:none"/>
  <path d="m 7.938 1036.36 c -1.919 0 -3.938 2.02 -3.938 4.5 c 0 2.482 2.02 4.5 3.938 4.5 3.044 0 5.062 -2.02 5.062 -4.5 0 -2.482 -2.02 -4.5 -4.5 -4.5 z m 0.928 0.633 c 0.419 0.039 0.826 0.134 1.195 0.295 -0.028 0.035 -0.05 0.067 -0.07 0.127 -0.114 0.341 -0.283 0.178 -0.084 0.604 0.199 0.426 0.365 0.536 0.422 0.338 0.057 -0.199 -0.143 -0.479 0.084 -0.366 0.227 0.114 0.395 -0.031 0.225 0.225 -0.17 0.256 -0.167 0.394 -0.366 0.337 -0.199 -0.057 -0.195 0.337 -0.394 0.394 -0.199 0.056 -0.267 -0.086 -0.267 0.056 0 0.142 0.113 0.012 0.084 0.239 -0.009 0.07 -0.006 0.082 -0.014 0.112 -0.187 -0.053 -0.27 -0.083 -0.408 -0.029 -0.142 0.057 -0.309 0.422 -0.309 0.422 0.177 0.177 0.26 0.305 0.323 0.366 -0.04 0.021 -0.087 0.028 -0.127 0.056 -0.284 0.199 -0.505 0.236 -0.591 0.52 -0.085 0.284 -0.056 0.024 -0.056 0.366 0 0.341 -0.086 0.109 0.084 0.422 0.17 0.313 0.589 0.462 0.787 0.633 0.199 0.17 0.404 -0.371 0.802 0.141 0.398 0.511 0.423 0.306 0.281 0.591 -0.142 0.284 -0.281 0.379 -0.337 0.492 -0.057 0.113 0.111 0.505 0.309 0.591 0.004 0 0.01 0 0.014 0 -0.011 0.024 -0.018 0.047 -0.028 0.07 -0.258 0.117 -0.573 0.278 -0.633 0.295 -0.141 0.041 -0.637 0.124 -0.998 0.225 -0.045 0.013 -0.081 0.013 -0.098 0.015 0.045 -0.049 0.4 -0.235 0.577 -0.337 0.241 -0.141 -0.014 -0.127 -0.014 -0.127 0 0 -0.384 -0.043 -1.167 -0.043 -0.392 0 -0.561 0.017 -0.647 0.043 -0.043 0.013 -0.064 0.025 -0.084 0.043 -0.021 0.018 -0.035 0.036 -0.07 0.056 -0.141 0.081 0.082 0.165 -0.098 0.225 -0.136 0.045 -0.151 0 -0.267 -0.085 0.083 -0.082 0.197 -0.181 0.337 -0.352 0.256 -0.309 0.337 -0.253 0.422 -0.534 0.085 -0.282 -0.717 -0.197 -0.717 -0.366 0 -0.169 -0.138 -0.281 -0.394 -0.394 -0.256 -0.113 -0.082 -0.169 -0.366 -0.253 -0.284 -0.085 -0.604 0.422 -0.689 0.253 -0.085 -0.169 0.267 -0.169 0.267 -0.366 0 -0.192 -0.405 0.145 -0.478 -0.098 -0.002 -0.01 -0.013 -0.01 -0.014 -0.015 -0.007 -0.035 -0.003 -0.056 0 -0.085 0.018 -0.202 0.252 -0.281 0.352 -0.478 0.114 -0.225 0.055 0.169 0.197 0.366 0.142 0.197 0.085 -0.253 0 -0.506 -0.085 -0.253 0.054 -0.253 0.253 -0.591 0.199 -0.338 0.197 -0.534 0.197 -0.788 0 -0.253 0.138 -0.281 0.422 -0.534 0.13 -0.116 0.232 -0.217 0.309 -0.309 0.019 -0.01 0.037 -0.01 0.056 -0.015 0.301 -0.12 0.428 -0.301 0.689 -0.844 0.261 -0.542 -0.102 -0.036 -0.183 -0.055 -0.08 -0.02 -0.197 -0.163 -0.478 -0.323 -0.058 -0.033 -0.11 -0.049 -0.155 -0.056 l 0.52 -0.858 c 0.167 -0.045 0.346 -0.076 0.52 -0.099 0.064 0.364 0.028 0.703 0.028 0.703 0 0 -0.098 0.117 -0.098 0.197 0 0.081 0.538 -0.663 0.619 -0.703 0.08 -0.041 0.283 0.213 0.323 -0.169 0.002 -0.022 -0.003 -0.022 0 -0.043 z m 0.759 1.519 c -0.029 -0.01 -0.063 0 -0.098 0.015 0 0.099 -0.038 0.172 -0.056 0.211 -0.011 -0.017 -0.042 -0.043 -0.042 -0.043 -0.043 0.079 -0.135 0.148 -0.042 0.127 0.092 -0.02 0.162 0.036 0.098 -0.043 -0.012 -0.015 -0.007 -0.01 -0.014 -0.015 0.012 0.01 0.035 0.015 0.084 0.015 0.056 0 0.086 0 0.127 0 -0.069 0.051 -0.143 0.072 -0.042 0.098 0.135 0.035 0.197 0.043 0.197 0.015 0 -0.028 -0.042 -0.127 -0.042 -0.127 0.026 -0.011 0.051 -0.024 0.028 -0.07 -0.043 -0.084 -0.11 -0.169 -0.197 -0.183 z m 2.152 0.239 c 0.07 0.109 0.138 0.221 0.197 0.338 -0.039 0.227 -0.138 0.38 0.028 0.38 0.047 0 0.088 -0.011 0.127 -0.015 0.005 0.014 0.009 0.029 0.014 0.043 -0.284 0 -0.42 0.086 -0.562 0.056 -0.142 -0.029 -0.537 -0.054 -0.281 -0.309 0.149 -0.149 0.336 -0.387 0.478 -0.492 z m -1.772 0.521 c 0.026 0.01 0.049 0.035 0.07 0.084 0.085 0.199 0.226 0.365 0.113 0.394 -0.114 0.028 -0.169 0.056 -0.169 0.056 0 0 0.393 0.256 0.422 -0.028 0.028 -0.284 -0.113 -0.45 -0.113 -0.45 0 0 0.196 0.196 0.253 0.31 0.057 0.114 0.055 0 0.197 0.141 0.142 0.142 0.111 -0.564 0.309 -0.366 0.199 0.199 0.324 0.196 0.267 0.338 -0.057 0.142 0.366 -0.171 0.366 0.112 0 0.274 0.175 0.385 -0.169 0.52 -0.13 -0.01 -0.233 -0.031 -0.253 -0.07 -0.057 -0.114 -0.38 -0.028 -0.38 -0.028 -0.85 -0.212 -1.219 -0.28 -1.463 -0.239 0.005 -0.01 0.009 -0.01 0.014 -0.014 0.124 -0.224 0.358 -0.535 0.281 -0.647 0.108 -0.062 0.193 -0.131 0.253 -0.112 z m 2.391 1.42 c 0.002 0.057 0 0.111 0 0.169 0 0.16 -0.01 0.323 -0.028 0.478 -0.256 -0.227 -0.619 -0.225 -0.619 -0.225 0 0 0.222 -0.252 0.534 -0.366 0.039 -0.014 0.081 -0.033 0.113 -0.056 z" style="fill:#000;fill-opacity:0.098;color:#000"/>
  <path d="m 7.938 1035.36 c -1.919 0 -3.938 2.02 -3.938 4.5 c 0 2.482 2.02 4.5 3.938 4.5 3.044 0 5.062 -2.02 5.062 -4.5 0 -2.482 -2.02 -4.5 -4.5 -4.5 z m 0.928 0.633 c 0.419 0.039 0.826 0.134 1.195 0.295 -0.028 0.035 -0.05 0.067 -0.07 0.127 -0.114 0.341 -0.283 0.178 -0.084 0.604 0.199 0.426 0.365 0.536 0.422 0.338 0.057 -0.199 -0.143 -0.479 0.084 -0.366 0.227 0.114 0.395 -0.031 0.225 0.225 -0.17 0.256 -0.167 0.394 -0.366 0.337 -0.199 -0.057 -0.195 0.337 -0.394 0.394 -0.199 0.056 -0.267 -0.086 -0.267 0.056 0 0.142 0.113 0.012 0.084 0.239 -0.009 0.07 -0.006 0.082 -0.014 0.112 -0.187 -0.053 -0.27 -0.083 -0.408 -0.029 -0.142 0.057 -0.309 0.422 -0.309 0.422 0.177 0.177 0.26 0.305 0.323 0.366 -0.04 0.021 -0.087 0.028 -0.127 0.056 -0.284 0.199 -0.505 0.236 -0.591 0.52 -0.085 0.284 -0.056 0.024 -0.056 0.366 0 0.341 -0.086 0.109 0.084 0.422 0.17 0.313 0.589 0.462 0.787 0.633 0.199 0.17 0.404 -0.371 0.802 0.141 0.398 0.511 0.423 0.306 0.281 0.591 -0.142 0.284 -0.281 0.379 -0.337 0.492 -0.057 0.113 0.111 0.505 0.309 0.591 0.004 0 0.01 0 0.014 0 -0.011 0.024 -0.018 0.047 -0.028 0.07 -0.258 0.117 -0.573 0.278 -0.633 0.295 -0.141 0.041 -0.637 0.124 -0.998 0.225 -0.045 0.013 -0.081 0.013 -0.098 0.015 0.045 -0.049 0.4 -0.235 0.577 -0.337 0.241 -0.141 -0.014 -0.127 -0.014 -0.127 0 0 -0.384 -0.043 -1.167 -0.043 -0.392 0 -0.561 0.017 -0.647 0.043 -0.043 0.013 -0.064 0.025 -0.084 0.043 -0.021 0.018 -0.035 0.036 -0.07 0.056 -0.141 0.081 0.082 0.165 -0.098 0.225 -0.136 0.045 -0.151 0 -0.267 -0.085 0.083 -0.082 0.197 -0.181 0.337 -0.352 0.256 -0.309 0.337 -0.253 0.422 -0.534 0.085 -0.282 -0.717 -0.197 -0.717 -0.366 0 -0.169 -0.138 -0.281 -0.394 -0.394 -0.256 -0.113 -0.082 -0.169 -0.366 -0.253 -0.284 -0.085 -0.604 0.422 -0.689 0.253 -0.085 -0.169 0.267 -0.169 0.267 -0.366 0 -0.192 -0.405 0.145 -0.478 -0.098 -0.002 -0.01 -0.013 -0.01 -0.014 -0.015 -0.007 -0.035 -0.003 -0.056 0 -0.085 0.018 -0.202 0.252 -0.281 0.352 -0.478 0.114 -0.225 0.055 0.169 0.197 0.366 0.142 0.197 0.085 -0.253 0 -0.506 -0.085 -0.253 0.054 -0.253 0.253 -0.591 0.199 -0.338 0.197 -0.534 0.197 -0.788 0 -0.253 0.138 -0.281 0.422 -0.534 0.13 -0.116 0.232 -0.217 0.309 -0.309 0.019 -0.01 0.037 -0.01 0.056 -0.015 0.301 -0.12 0.428 -0.301 0.689 -0.844 0.261 -0.542 -0.102 -0.036 -0.183 -0.055 -0.08 -0.02 -0.197 -0.163 -0.478 -0.323 -0.058 -0.033 -0.11 -0.049 -0.155 -0.056 l 0.52 -0.858 c 0.167 -0.045 0.346 -0.076 0.52 -0.099 0.064 0.364 0.028 0.703 0.028 0.703 0 0 -0.098 0.117 -0.098 0.197 0 0.081 0.538 -0.663 0.619 -0.703 0.08 -0.041 0.283 0.213 0.323 -0.169 0.002 -0.022 -0.003 -0.022 0 -0.043 z m 0.759 1.519 c -0.029 -0.01 -0.063 0 -0.098 0.015 0 0.099 -0.038 0.172 -0.056 0.211 -0.011 -0.017 -0.042 -0.043 -0.042 -0.043 -0.043 0.079 -0.135 0.148 -0.042 0.127 0.092 -0.02 0.162 0.036 0.098 -0.043 -0.012 -0.015 -0.007 -0.01 -0.014 -0.015 0.012 0.01 0.035 0.015 0.084 0.015 0.056 0 0.086 0 0.127 0 -0.069 0.051 -0.143 0.072 -0.042 0.098 0.135 0.035 0.197 0.043 0.197 0.015 0 -0.028 -0.042 -0.127 -0.042 -0.127 0.026 -0.011 0.051 -0.024 0.028 -0.07 -0.043 -0.084 -0.11 -0.169 -0.197 -0.183 z m 2.152 0.239 c 0.07 0.109 0.138 0.221 0.197 0.338 -0.039 0.227 -0.138 0.38 0.028 0.38 0.047 0 0.088 -0.011 0.127 -0.015 0.005 0.014 0.009 0.029 0.014 0.043 -0.284 0 -0.42 0.086 -0.562 0.056 -0.142 -0.029 -0.537 -0.054 -0.281 -0.309 0.149 -0.149 0.336 -0.387 0.478 -0.492 z m -1.772 0.521 c 0.026 0.01 0.049 0.035 0.07 0.084 0.085 0.199 0.226 0.365 0.113 0.394 -0.114 0.028 -0.169 0.056 -0.169 0.056 0 0 0.393 0.256 0.422 -0.028 0.028 -0.284 -0.113 -0.45 -0.113 -0.45 0 0 0.196 0.196 0.253 0.31 0.057 0.114 0.055 0 0.197 0.141 0.142 0.142 0.111 -0.564 0.309 -0.366 0.199 0.199 0.324 0.196 0.267 0.338 -0.057 0.142 0.366 -0.171 0.366 0.112 0 0.274 0.175 0.385 -0.169 0.52 -0.13 -0.01 -0.233 -0.031 -0.253 -0.07 -0.057 -0.114 -0.38 -0.028 -0.38 -0.028 -0.85 -0.212 -1.219 -0.28 -1.463 -0.239 0.005 -0.01 0.009 -0.01 0.014 -0.014 0.124 -0.224 0.358 -0.535 0.281 -0.647 0.108 -0.062 0.193 -0.131 0.253 -0.112 z m 2.391 1.42 c 0.002 0.057 0 0.111 0 0.169 0 0.16 -0.01 0.323 -0.028 0.478 -0.256 -0.227 -0.619 -0.225 -0.619 -0.225 0 0 0.222 -0.252 0.534 -0.366 0.039 -0.014 0.081 -0.033 0.113 -0.056 z" style="fill:#fff8e1;fill-opacity:1;color:#000"/>
  <path d="m 1 1043.7 0 1.333 c 0 1.847 1.454 3.333 3.261 3.333 l 23.478 0 c 1.807 0 3.261 -1.487 3.261 -3.333 l 0 -1.333 c 0 1.847 -1.454 3.667 -3.261 3.667 l -23.478 0 c -1.807 0 -3.261 -1.82 -3.261 -3.667 z" style="fill:#000;opacity:0.15;fill-opacity:1;stroke:none"/>
 </g>
</svg>
