<svg xmlns="http://www.w3.org/2000/svg" viewBox="0 0 32 32">
 <defs>
  <radialGradient gradientTransform="matrix(0.83333 0 0 0.13889 -4 21.04)" id="radialGradient3068" cy="40.5" cx="24" gradientUnits="userSpaceOnUse" r="24">
   <stop style="stop-color:#000;stop-opacity:1"/>
   <stop offset="1" style="stop-color:#000;stop-opacity:0.196"/>
  </radialGradient>
 </defs>
 <path style="fill:url(#radialGradient3068);opacity:0.1;fill-opacity:1;stroke:none" d="m 16 23.338 c -6.551 0 -12.352 0.522 -16 1.333 l 0 4 c 3.648 0.811 9.449 1.333 16 1.333 6.551 0 12.352 -0.522 16 -1.333 l 0 -4 c -3.648 -0.811 -9.449 -1.333 -16 -1.333 z"/>
 <rect y="6.998" x="1" ry="3.281" style="fill:#512da8;fill-opacity:1;stroke:none" rx="3.261" height="21" width="30"/>
 <path style="fill:#fff1ed;opacity:0.6;fill-opacity:1;stroke:none" d="m 8 9 l -5 5 l 3 0 l 0 12 l 4 0 l 0 -12 l 3 0 l -5 -5 z"/>
 <path style="fill:#fff;opacity:0.2;fill-opacity:1;stroke:none" d="M 4.261,6.6678 C 2.454,6.6678 1,8.1548 1,10.0008 l 0,1.333 c 0,-1.847 1.454,-3.333 3.261,-3.333 l 23.478,0 c 1.807,0 3.261,1.487 3.261,3.333 l 0,-1.333 c 0,-1.847 -1.454,-3.333 -3.261,-3.333 l -23.478,0 z"/>
 <path style="fill:#7e57c2;fill-opacity:1;stroke:none" d="m 4.261 15.998 5.217 0 c 7.174 -0.5 5.87 -6 10.435 -6 l 7.826 0 c 1.807 0 3.261 1.115 3.261 2.5 l 0 13 c 0 1.385 -1.454 2.5 -3.261 2.5 l -23.478 0 c -1.807 0 -3.261 -1.115 -3.261 -2.5 l 0 -7 c 0 -1.5 1.304 -2.5 3.261 -2.5 z"/>
 <path style="fill:#000;opacity:0.15;fill-opacity:1;stroke:none" d="m 1,23.3378 0,1.333 c 0,1.847 1.454,3.333 3.261,3.333 l 23.478,0 c 1.807,0 3.261,-1.487 3.261,-3.333 l 0,-1.333 c 0,1.847 -1.454,3.667 -3.261,3.667 l -23.478,0 C 2.454,27.0048 1,25.1848 1,23.3378 Z"/>
</svg>
