<svg xmlns="http://www.w3.org/2000/svg" viewBox="0 0 32 32">
 <defs>
  <radialGradient r="24" cy="40.5" cx="24" gradientTransform="matrix(0.83333334,0,0,0.13888885,-4,1041.4039)" gradientUnits="userSpaceOnUse" id="radialGradient3098">
   <stop style="stop-color:#000;stop-opacity:1"/>
   <stop offset="1" style="stop-color:#000;stop-opacity:0.196"/>
  </radialGradient>
 </defs>
 <g transform="translate(0,-1020.3622)">
  <path d="m 16 1043.7 c -6.551 0 -12.352 0.522 -16 1.333 l 0 4 c 3.648 0.811 9.449 1.333 16 1.333 6.551 0 12.352 -0.522 16 -1.333 l 0 -4 c -3.648 -0.811 -9.449 -1.333 -16 -1.333 z" style="fill:url(#radialGradient3098);opacity:0.1;fill-opacity:1;stroke:none"/>
  <rect width="30" height="21" x="1" y="1027.36" rx="3.261" ry="3.281" style="fill:#512da8;fill-opacity:1;stroke:none"/>
  <path d="m 4.261 1027.03 c -1.807 0 -3.261 1.487 -3.261 3.333 l 0 1.333 c 0 -1.847 1.454 -3.333 3.261 -3.333 l 23.478 0 c 1.807 0 3.261 1.487 3.261 3.333 l 0 -1.333 c 0 -1.847 -1.454 -3.333 -3.261 -3.333 l -23.478 0 z" style="fill:#fff;opacity:0.2;fill-opacity:1;stroke:none"/>
  <path d="m 4.261 1032.36 5.217 0 c 7.174 -0.667 5.87 -8 10.435 -8 l 7.826 0 c 1.807 0 3.261 1.487 3.261 3.333 l 0 17.333 c 0 1.847 -1.454 3.333 -3.261 3.333 l -23.478 0 c -1.807 0 -3.261 -1.487 -3.261 -3.333 l 0 -9.333 c 0 -2 1.304 -3.333 3.261 -3.333 z" style="fill:#7e57c2;fill-opacity:1;stroke:none"/>
  <path d="m 1 1043.7 0 1.333 c 0 1.847 1.454 3.333 3.261 3.333 l 23.478 0 c 1.807 0 3.261 -1.487 3.261 -3.333 l 0 -1.333 c 0 1.847 -1.454 3.667 -3.261 3.667 l -23.478 0 c -1.807 0 -3.261 -1.82 -3.261 -3.667 z" style="fill:#000;opacity:0.15;fill-opacity:1;stroke:none"/>
  <path d="m 10.334 1036.39 c -0.996 0 -1.818 0.755 -1.818 1.701 0.007 0.324 0.025 0.735 0.215 1.603 l 0.02 0 c 0.038 0.115 0.097 0.229 0.195 0.352 0.088 0.11 0.205 0.235 0.313 0.352 0.033 0.245 0.038 0.46 0 0.723 -0.296 0.225 -0.829 0.434 -1.31 0.626 -0.25 0.1 -0.482 0.192 -0.665 0.313 -0.174 0.115 -0.301 0.272 -0.313 0.469 -0.001 0.01 -0.02 0.01 -0.02 0.02 l -0.215 1.662 0 0.02 c 0 0.206 0.137 0.374 0.332 0.508 0.195 0.134 0.46 0.239 0.782 0.332 0.644 0.187 1.518 0.293 2.483 0.293 0.965 0 1.839 -0.106 2.483 -0.293 0.322 -0.093 0.587 -0.198 0.782 -0.332 0.195 -0.134 0.332 -0.302 0.332 -0.508 l 0 -0.02 -0.235 -1.662 c 0 -0.01 0 -0.013 0 -0.02 -0.006 -0.094 -0.04 -0.187 -0.098 -0.254 -0.062 -0.072 -0.144 -0.119 -0.235 -0.176 -0.182 -0.114 -0.414 -0.21 -0.665 -0.313 -0.487 -0.2 -1.019 -0.427 -1.31 -0.665 -0.022 -0.227 -0.023 -0.458 0 -0.684 0.105 -0.124 0.223 -0.252 0.313 -0.371 0.1 -0.133 0.176 -0.253 0.215 -0.371 0.214 -0.904 0.223 -1.272 0.235 -1.603 0 -0.945 -0.822 -1.701 -1.818 -1.701 z m -3.382 0.313 c -0.818 0 -1.486 0.632 -1.486 1.408 0.006 0.266 0.02 0.578 0.176 1.29 l 0 0.02 c 0.032 0.095 0.094 0.171 0.176 0.274 0.072 0.089 0.167 0.199 0.254 0.293 0.026 0.197 0.03 0.395 0 0.606 -0.242 0.185 -0.679 0.352 -1.075 0.508 -0.205 0.081 -0.378 0.156 -0.528 0.254 -0.142 0.093 -0.242 0.232 -0.254 0.391 -0.001 0.01 -0.02 0.01 -0.02 0.02 l -0.195 1.348 l 0 0.02 c 0 0.127 0.061 0.237 0.156 0.332 0.096 0.096 0.229 0.184 0.391 0.254 0.32 0.139 0.777 0.236 1.329 0.293 l 0.02 0 c 0.03 0 0.06 -0.01 0.078 -0.02 0.023 -0.014 0.049 -0.025 0.059 -0.039 0.019 -0.027 0.031 -0.054 0.039 -0.078 0.015 -0.043 0.018 -0.093 0.02 -0.137 0 -0.01 0 -0.013 0 -0.02 l 0.215 -1.662 c 0 -0.068 0.047 -0.15 0.156 -0.235 0.11 -0.085 0.276 -0.17 0.469 -0.254 0.387 -0.168 0.878 -0.324 1.271 -0.528 l 0.215 -0.117 -0.215 -0.098 c -0.155 -0.075 -0.274 -0.158 -0.371 -0.235 -0.019 -0.193 -0.02 -0.394 0 -0.586 0.001 -0.01 -0.001 -0.013 0 -0.02 0.149 -0.201 0.263 -0.409 0.313 -0.528 l 0.02 -0.039 -0.02 -0.038 c -0.017 -0.097 -0.011 -0.171 -0.039 -0.254 -0.187 -0.858 -0.208 -1.211 -0.215 -1.525 0 -0.132 0.031 -0.285 0.078 -0.43 l 0.039 -0.078 -0.078 -0.038 c -0.261 -0.209 -0.607 -0.352 -0.977 -0.352 z" style="fill:#000;fill-opacity:0.098;color:#000"/>
  <path d="m 10.334 1035.39 c -0.996 0 -1.818 0.755 -1.818 1.701 0.007 0.324 0.025 0.735 0.215 1.603 l 0.02 0 c 0.038 0.115 0.097 0.229 0.195 0.352 0.088 0.11 0.205 0.236 0.313 0.352 0.033 0.245 0.038 0.46 0 0.723 -0.296 0.225 -0.829 0.434 -1.31 0.626 -0.25 0.1 -0.482 0.192 -0.665 0.313 -0.174 0.115 -0.301 0.272 -0.313 0.469 -0.001 0.01 -0.02 0.01 -0.02 0.02 l -0.215 1.662 0 0.02 c 0 0.206 0.137 0.374 0.332 0.508 0.195 0.134 0.46 0.239 0.782 0.332 0.644 0.187 1.518 0.293 2.483 0.293 0.965 0 1.839 -0.106 2.483 -0.293 0.322 -0.093 0.587 -0.198 0.782 -0.332 0.195 -0.134 0.332 -0.302 0.332 -0.508 l 0 -0.02 -0.235 -1.662 c 0 -0.01 0 -0.013 0 -0.02 -0.006 -0.094 -0.04 -0.187 -0.098 -0.254 -0.062 -0.072 -0.144 -0.119 -0.235 -0.176 -0.182 -0.114 -0.414 -0.21 -0.665 -0.313 -0.487 -0.2 -1.019 -0.427 -1.31 -0.665 -0.022 -0.227 -0.023 -0.458 0 -0.684 0.105 -0.124 0.223 -0.252 0.313 -0.371 0.1 -0.133 0.176 -0.253 0.215 -0.371 0.214 -0.904 0.223 -1.272 0.235 -1.603 0 -0.945 -0.822 -1.701 -1.818 -1.701 z m -3.382 0.313 c -0.818 0 -1.486 0.632 -1.486 1.408 0.006 0.266 0.02 0.578 0.176 1.29 l 0 0.02 c 0.032 0.095 0.094 0.171 0.176 0.274 0.072 0.089 0.167 0.199 0.254 0.293 0.026 0.197 0.03 0.395 0 0.606 -0.242 0.185 -0.679 0.352 -1.075 0.508 -0.205 0.081 -0.378 0.156 -0.528 0.254 -0.142 0.093 -0.242 0.232 -0.254 0.391 -0.001 0.01 -0.02 0.01 -0.02 0.02 l -0.195 1.348 l 0 0.02 c 0 0.127 0.061 0.237 0.156 0.332 0.096 0.096 0.229 0.184 0.391 0.254 0.32 0.139 0.777 0.236 1.329 0.293 l 0.02 0 c 0.03 0 0.06 -0.01 0.078 -0.02 0.023 -0.014 0.049 -0.025 0.059 -0.039 0.019 -0.027 0.031 -0.054 0.039 -0.078 0.015 -0.043 0.018 -0.093 0.02 -0.137 0 -0.01 0 -0.013 0 -0.02 l 0.215 -1.662 c 0 -0.068 0.047 -0.15 0.156 -0.235 0.11 -0.085 0.276 -0.17 0.469 -0.254 0.387 -0.168 0.878 -0.324 1.271 -0.528 l 0.215 -0.117 -0.215 -0.098 c -0.155 -0.075 -0.274 -0.158 -0.371 -0.235 -0.019 -0.193 -0.02 -0.394 0 -0.586 0.001 -0.01 -0.001 -0.013 0 -0.02 0.149 -0.201 0.263 -0.409 0.313 -0.528 l 0.02 -0.039 -0.02 -0.038 c -0.017 -0.097 -0.011 -0.171 -0.039 -0.254 -0.187 -0.858 -0.208 -1.211 -0.215 -1.525 0 -0.132 0.031 -0.285 0.078 -0.43 l 0.039 -0.078 -0.078 -0.039 c -0.261 -0.209 -0.607 -0.352 -0.977 -0.352 z" style="fill:#fff8e1;fill-opacity:1;color:#000"/>
 </g>
</svg>
