<svg xmlns="http://www.w3.org/2000/svg" viewBox="0 0 32 32">
 <defs>
  <radialGradient r="24" cy="40.5" cx="24" gradientTransform="matrix(0.83333334,0,0,0.13888885,-4,1041.4039)" gradientUnits="userSpaceOnUse" id="radialGradient3098">
   <stop style="stop-color:#000;stop-opacity:1"/>
   <stop offset="1" style="stop-color:#000;stop-opacity:0.196"/>
  </radialGradient>
 </defs>
 <g transform="translate(0,-1020.3622)">
  <path d="m 16 1043.7 c -6.551 0 -12.352 0.522 -16 1.333 l 0 4 c 3.648 0.811 9.449 1.333 16 1.333 6.551 0 12.352 -0.522 16 -1.333 l 0 -4 c -3.648 -0.811 -9.449 -1.333 -16 -1.333 z" style="fill:url(#radialGradient3098);opacity:0.1;fill-opacity:1;stroke:none"/>
  <rect width="30" height="21" x="1" y="1027.36" rx="3.261" ry="3.281" style="fill:#ffb300;fill-opacity:1;stroke:none"/>
  <path d="m 4.261 1027.03 c -1.807 0 -3.261 1.487 -3.261 3.333 l 0 1.333 c 0 -1.847 1.454 -3.333 3.261 -3.333 l 23.478 0 c 1.807 0 3.261 1.487 3.261 3.333 l 0 -1.333 c 0 -1.847 -1.454 -3.333 -3.261 -3.333 l -23.478 0 z" style="fill:#fff;opacity:0.2;fill-opacity:1;stroke:none"/>
  <path d="m 4.261 1032.36 5.217 0 c 7.174 -0.667 5.87 -8 10.435 -8 l 7.826 0 c 1.807 0 3.261 1.487 3.261 3.333 l 0 17.333 c 0 1.847 -1.454 3.333 -3.261 3.333 l -23.478 0 c -1.807 0 -3.261 -1.487 -3.261 -3.333 l 0 -9.333 c 0 -2 1.304 -3.333 3.261 -3.333 z" style="fill:#ffca28;fill-opacity:1;stroke:none"/>
  <path d="m 11.579 1037.34 c -0.325 0.01 -0.645 0.218 -0.696 0.615 -0.082 0.635 0.533 0.397 1.024 0.397 0.492 0 0.655 1.032 0.533 1.588 -0.123 0.556 -1.429 1.869 -4.383 0.556 -2.432 -1.081 -3.646 0.358 -3.707 0.387 0.23 2.147 2.106 4.476 4.383 4.476 2.432 0 4.404 -2.566 4.404 -4.923 0 -0.271 -0.032 -0.537 -0.082 -0.794 -0.045 -0.13 -0.09 -0.259 -0.123 -0.377 -0.06 -0.211 -0.127 -0.39 -0.184 -0.556 -0.002 -0.01 0.002 -0.014 0 -0.02 -0.233 -0.501 -0.559 -0.954 -0.963 -1.33 -0.002 -0.01 -0.008 0.01 -0.01 0 -0.063 -0.015 -0.13 -0.021 -0.195 -0.02 z" style="fill:#000;fill-opacity:0.098;color:#000"/>
  <path d="m 1 1043.7 0 1.333 c 0 1.847 1.454 3.333 3.261 3.333 l 23.478 0 c 1.807 0 3.261 -1.487 3.261 -3.333 l 0 -1.333 c 0 1.847 -1.454 3.667 -3.261 3.667 l -23.478 0 c -1.807 0 -3.261 -1.82 -3.261 -3.667 z" style="fill:#000;opacity:0.15;fill-opacity:1;stroke:none"/>
  <path d="m 11.453 1039.59 c 0 0.245 -0.199 0.444 -0.444 0.444 -0.245 0 -0.444 -0.199 -0.444 -0.444 0 -0.245 0.199 -0.444 0.444 -0.444 0.245 0 0.444 0.199 0.444 0.444 z" style="fill:#000;fill-opacity:0.098;color:#000"/>
  <path d="m 11.579 1036.34 c -0.325 0.01 -0.645 0.218 -0.696 0.615 -0.082 0.635 0.533 0.397 1.024 0.397 0.492 0 0.655 1.032 0.533 1.588 -0.123 0.556 -1.429 1.869 -4.383 0.556 -2.432 -1.081 -3.646 0.358 -3.707 0.387 0.23 2.147 2.106 4.476 4.383 4.476 2.432 0 4.404 -2.566 4.404 -4.923 0 -0.271 -0.032 -0.537 -0.082 -0.794 -0.045 -0.13 -0.09 -0.259 -0.123 -0.377 -0.06 -0.211 -0.127 -0.39 -0.184 -0.556 -0.002 -0.01 0.002 -0.014 0 -0.02 -0.233 -0.501 -0.559 -0.954 -0.963 -1.33 -0.002 -0.01 -0.008 0.01 -0.01 0 -0.063 -0.015 -0.13 -0.021 -0.195 -0.02 z" style="fill:#fff8e1;fill-opacity:1;color:#000"/>
  <path d="m 10.121 1038.04 c 0 0.123 -0.099 0.222 -0.222 0.222 -0.123 0 -0.222 -0.099 -0.222 -0.222 0 -0.123 0.099 -0.222 0.222 -0.222 0.123 0 0.222 0.099 0.222 0.222 z" style="fill:#000;fill-opacity:0.098;color:#000"/>
  <path d="m 11.453 1038.59 c 0 0.245 -0.199 0.444 -0.444 0.444 -0.245 0 -0.444 -0.199 -0.444 -0.444 0 -0.245 0.199 -0.444 0.444 -0.444 0.245 0 0.444 0.199 0.444 0.444 z" style="fill:#fff8e1;fill-opacity:1;color:#000"/>
  <path d="m 10.121 1037.04 c 0 0.123 -0.099 0.222 -0.222 0.222 -0.123 0 -0.222 -0.099 -0.222 -0.222 0 -0.123 0.099 -0.222 0.222 -0.222 0.123 0 0.222 0.099 0.222 0.222 z" style="fill:#fff8e1;fill-opacity:1;color:#000"/>
 </g>
</svg>
