<?xml version="1.0" encoding="UTF-8" standalone="no"?>
<svg
   width="16"
   height="16"
   version="1.1"
   id="svg6"
   sodipodi:docname="org.gnome.Console-symbolic.svg"
   inkscape:version="1.1.2 (0a00cf5339, 2022-02-04)"
   xmlns:inkscape="http://www.inkscape.org/namespaces/inkscape"
   xmlns:sodipodi="http://sodipodi.sourceforge.net/DTD/sodipodi-0.dtd"
   xmlns="http://www.w3.org/2000/svg"
   xmlns:svg="http://www.w3.org/2000/svg">
  <defs
     id="defs10" />
  <sodipodi:namedview
     id="namedview8"
     pagecolor="#ffffff"
     bordercolor="#666666"
     borderopacity="1.0"
     inkscape:pageshadow="2"
     inkscape:pageopacity="0.0"
     inkscape:pagecheckerboard="0"
     showgrid="false"
     inkscape:zoom="9.3331898"
     inkscape:cx="-14.303791"
     inkscape:cy="5.6786588"
     inkscape:window-width="1920"
     inkscape:window-height="1022"
     inkscape:window-x="0"
     inkscape:window-y="0"
     inkscape:window-maximized="1"
     inkscape:current-layer="svg6" />
  <path
     d="M 2,2 C 0.892,2 0,2.892 0,4 v 9 c 0,1.108 0.892,2 2,2 h 12 c 1.108,0 2,-0.892 2,-2 V 4 C 16,2.892 15.108,2 14,2 Z M 1.9788306,3.4950513 H 13.978831 c 0.554,0 0.519978,0.034985 0.519978,0.5889846 v 9.0000001 c 0,0.554 0.05519,0.418805 -0.498809,0.418805 H 2 c -0.554,0 -0.4978922,0.135195 -0.4978922,-0.418805 V 4.0840359 c 0,-0.554 -0.077277,-0.5889846 0.4767228,-0.5889846 z"
     fill="#dedede"
     id="path4"
     sodipodi:nodetypes="ssssssssssssssssss" />
  <g
     id="g7004"
     transform="translate(0.90165281,-0.62421974)">
    <g
       id="g6997">
      <g
         id="g6043"
         transform="rotate(36.307459,4.9923951,5.5297563)"
         style="fill:#dedede;fill-opacity:1;stroke:none">
        <rect
           style="fill:#dedede;fill-opacity:1;fill-rule:evenodd;stroke:none;stroke-width:2.8;stroke-miterlimit:4;stroke-dasharray:none;stroke-opacity:0"
           id="rect4881"
           width="5.6296005"
           height="1.3047627"
           x="3.5624843"
           y="6.0001173"
           ry="0.65238136" />
      </g>
      <rect
         style="fill:#dedede;fill-opacity:1;fill-rule:evenodd;stroke:none;stroke-width:2.8;stroke-miterlimit:4;stroke-dasharray:none;stroke-opacity:0"
         id="rect4881-3"
         width="5.6296005"
         height="1.3047627"
         x="-4.6909428"
         y="10.509681"
         ry="0.65238136"
         inkscape:transform-center-x="0.57502752"
         inkscape:transform-center-y="2.1802798"
         transform="rotate(-38.630575)" />
    </g>
    <rect
       style="fill:#dedede;fill-opacity:1;fill-rule:evenodd;stroke:none;stroke-width:2.02341;stroke-miterlimit:4;stroke-dasharray:none;stroke-opacity:0"
       id="rect4881-3-6"
       width="3.8089345"
       height="1.0070662"
       x="7.3620706"
       y="10.893035"
       ry="0.50353312"
       inkscape:transform-center-x="1.2268917"
       inkscape:transform-center-y="1.034395"
       transform="matrix(0.99999675,0.00254985,-0.00195936,0.99999808,0,0)" />
  </g>
</svg>
