<svg version="1.1" viewBox="0 0 64 64" xmlns="http://www.w3.org/2000/svg">
 <defs>
  <radialGradient id="radialGradient3098" cx="24" cy="40.5" r="24" gradientTransform="matrix(1.6667 0 0 .27778 -8 1030.4)" gradientUnits="userSpaceOnUse">
   <stop offset="0"/>
   <stop style="stop-opacity:.196" offset="1"/>
  </radialGradient>
 </defs>
 <g transform="translate(0 -988.36)">
  <path d="m32 1035c-13.1 0-24.704 1.044-32 2.667v8c7.296 1.622 18.898 2.667 32 2.667 13.1 0 24.704-1.044 32-2.667v-8c-7.296-1.623-18.898-2.667-32-2.667z" style="fill:url(#radialGradient3098);opacity:.1"/>
  <rect x="2" y="1002.4" width="60" height="42" rx="6.522" ry="6.562" style="fill:#5d4037"/>
  <path d="m8.522 1001.7c-3.613 0-6.522 2.973-6.522 6.667v2.667c0-3.693 2.909-6.667 6.522-6.667h46.957c3.613 0 6.522 2.973 6.522 6.667v-2.667c0-3.693-2.909-6.667-6.522-6.667z" style="fill:#fff;opacity:.2"/>
  <path d="m8.522 1012.4h10.435c14.348-1.333 11.739-16 20.87-16h15.652c3.613 0 6.522 2.973 6.522 6.667v34.667c0 3.693-2.909 6.667-6.522 6.667h-46.957c-3.613 0-6.522-2.973-6.522-6.667v-18.667c0-4 2.609-6.667 6.522-6.667z" style="fill:#8d6e63"/>
  <path d="m2 1035v2.667c0 3.693 2.909 6.667 6.522 6.667h46.957c3.613 0 6.522-2.973 6.522-6.667v-2.667c0 3.693-2.909 7.333-6.522 7.333h-46.957c-3.613 0-6.522-3.64-6.522-7.333z" style="opacity:.15"/>
  <path d="m19.864 1038.1h-0.08182l-0.08182-0.083v-2.5714c0-0.5807-0.08182-1.0784-0.32727-1.4931 1.8818-0.3318 3.9273-1.3272 3.9273-5.0599 0-0.9954-0.32727-1.9079-0.9-2.6544 0.16364-0.4977 0.24546-1.4101-0.16364-2.5714l-0.24546-0.2489s-0.16364-0.083-0.32727-0.083c-0.49091 0-1.2273 0.1659-2.4545 0.9954-0.65455-0.083-1.3909-0.2489-2.2091-0.2489s-1.5545 0.083-2.2909 0.2489c-1.1455-0.7466-1.9636-0.9125-2.4545-0.9125-0.16364 0-0.24545 0.083-0.32727 0.083-0.08182 0-0.24546 0.1659-0.24546 0.2488-0.40909 1.1613-0.32727 2.0738-0.16364 2.5715-0.57273 0.7465-0.9 1.6589-0.9 2.6543 0 3.6498 2.1273 4.6452 3.9273 5.0599-0.08182 0.1659-0.16364 0.4148-0.24546 0.6636-0.16364 0.083-0.40909 0.1659-0.73636 0.1659-0.32727 0-0.65454-0.083-0.9-0.3318l-0.08182-0.083c-0.08182-0.083-0.08182-0.1659-0.16364-0.1659l-0.16364-0.166c0-0.083-0.65454-1.0784-1.8-1.1613-0.40909 0-0.73636 0.1659-0.81818 0.4147-0.16364 0.4148 0.32727 0.7466 0.57273 0.9125 0 0 0.49091 0.2488 0.81818 1.1613 0.16364 0.5806 0.9 1.659 2.6182 1.659h0.57273v1.1613l-0.08182 0.083s-0.08182 0 0 0c-3.6818-1.4931-6.1364-4.977-6.1364-8.8756 0-5.0599 4.0091-9.1244 9-9.1244s9 4.0645 9 9.1244c0 3.8986-2.4545 7.3825-6.1364 8.6268z" style="fill-opacity:.098;stroke-width:.82382"/>
  <path d="m19.864 1036.1h-0.08182l-0.08182-0.083v-2.5714c0-0.5807-0.08182-1.0784-0.32727-1.4931 1.8818-0.3318 3.9273-1.3272 3.9273-5.0599 0-0.9954-0.32727-1.9079-0.9-2.6544 0.16364-0.4977 0.24546-1.4101-0.16364-2.5714l-0.24546-0.2489s-0.16364-0.083-0.32727-0.083c-0.49091 0-1.2273 0.1659-2.4545 0.9954-0.65455-0.083-1.3909-0.2489-2.2091-0.2489s-1.5545 0.083-2.2909 0.2489c-1.1455-0.7466-1.9636-0.9125-2.4545-0.9125-0.16364 0-0.24545 0.083-0.32727 0.083-0.08182 0-0.24546 0.1659-0.24546 0.2488-0.40909 1.1613-0.32727 2.0738-0.16364 2.5715-0.57273 0.7465-0.9 1.6589-0.9 2.6543 0 3.6498 2.1273 4.6452 3.9273 5.0599-0.08182 0.1659-0.16364 0.4148-0.24546 0.6636-0.16364 0.083-0.40909 0.1659-0.73636 0.1659-0.32727 0-0.65454-0.083-0.9-0.3318l-0.08182-0.083c-0.08182-0.083-0.08182-0.1659-0.16364-0.1659l-0.16364-0.166c0-0.083-0.65454-1.0784-1.8-1.1613-0.40909 0-0.73636 0.1659-0.81818 0.4147-0.16364 0.4148 0.32727 0.7466 0.57273 0.9125 0 0 0.49091 0.2488 0.81818 1.1613 0.16364 0.5806 0.9 1.659 2.6182 1.659h0.57273v1.1613l-0.08182 0.083s-0.08182 0 0 0c-3.6818-1.4931-6.1364-4.977-6.1364-8.8756 0-5.0599 4.0091-9.1244 9-9.1244s9 4.0645 9 9.1244c0 3.8986-2.4545 7.3825-6.1364 8.6268z" style="fill:#fff8e1;stroke-width:.82382"/>
 </g>
</svg>
