<svg xmlns="http://www.w3.org/2000/svg" viewBox="0 0 64 64">
 <g transform="translate(0,-988.3622)">
  <rect width="36" height="24" x="4" y="1000.36" rx="3.913" ry="4.375" style="fill:#5d4037;fill-opacity:1;stroke:none"/>
  <path d="m 7.913 1000.36 c -2.168 0 -3.913 2.23 -3.913 5 l 0 2 c 0 -2.77 1.745 -5 3.913 -5 l 28.17 0 c 2.168 0 3.913 2.23 3.913 5 l 0 -2 c 0 -2.77 -1.745 -5 -3.913 -5 z" style="fill:#fff;opacity:0.2;fill-opacity:1;stroke:none"/>
  <path d="m 7.913 1006.36 6.261 0 c 8.609 -0.889 7.04 -10 12.522 -10 l 9.391 0 c 2.168 0 3.913 1.982 3.913 4.444 l 0 19.11 c 0 2.462 -1.745 4.444 -3.913 4.444 l -28.17 0 c -2.168 0 -3.913 -1.982 -3.913 -4.444 l 0 -8.444 c 0 -2.667 1.565 -5.112 3.913 -5.112 z" style="fill:#8d6e63;fill-opacity:1;stroke:none"/>
  <path d="m 4 1018.14 0 1.778 c 0 2.462 1.745 4.444 3.913 4.444 l 28.17 0 c 2.168 0 3.913 -1.982 3.913 -4.444 l 0 -1.778 c 0 2.462 -1.745 4.222 -3.913 4.222 l -28.17 0 c -2.168 0 -3.913 -1.76 -3.913 -4.222 z" style="fill:#000;opacity:0.15;fill-opacity:1;stroke:none"/>
  <rect width="36" height="24" x="24" y="1020.36" rx="3.913" ry="4.375" style="fill:#5d4037;fill-opacity:1;stroke:none"/>
  <path d="m 27.913 1020.36 c -2.168 0 -3.913 2.23 -3.913 5 l 0 2 c 0 -2.77 1.745 -5 3.913 -5 l 28.17 0 c 2.168 0 3.913 2.23 3.913 5 l 0 -2 c 0 -2.77 -1.745 -5 -3.913 -5 z" style="fill:#fff;opacity:0.2;fill-opacity:1;stroke:none"/>
  <path d="m 27.913 1026.36 6.261 0 c 8.609 -0.889 7.04 -10 12.522 -10 l 9.391 0 c 2.168 0 3.913 1.982 3.913 4.444 l 0 19.11 c 0 2.462 -1.745 4.444 -3.913 4.444 l -28.17 0 c -2.168 0 -3.913 -1.982 -3.913 -4.444 l 0 -8.444 c 0 -2.667 1.565 -5.111 3.913 -5.111 z" style="fill:#8d6e63;fill-opacity:1;stroke:none"/>
  <path d="m 24 1038.14 0 1.778 c 0 2.462 1.745 4.444 3.913 4.444 l 28.17 0 c 2.168 0 3.913 -1.982 3.913 -4.444 l 0 -1.778 c 0 2.462 -1.745 4.222 -3.913 4.222 l -28.17 0 c -2.168 0 -3.913 -1.76 -3.913 -4.222 z" style="fill:#000;opacity:0.15;fill-opacity:1;stroke:none"/>
 </g>
</svg>
