<svg version="1.1" viewBox="0 0 64 64" xmlns="http://www.w3.org/2000/svg">
 <defs>
  <radialGradient id="radialGradient3098" cx="24" cy="40.5" r="24" gradientTransform="matrix(1.6666667 0 0 .2777777 -8 1030.4456)" gradientUnits="userSpaceOnUse">
   <stop offset="0"/>
   <stop style="stop-opacity:.196" offset="1"/>
  </radialGradient>
 </defs>
 <g transform="translate(0,-988.3622)">
  <path d="m32 1035.03c-13.1 0-24.704 1.044-32 2.667v8c7.296 1.622 18.898 2.667 32 2.667 13.1 0 24.704-1.044 32-2.667v-8c-7.296-1.623-18.898-2.667-32-2.667z" style="fill:url(#radialGradient3098);opacity:.1"/>
  <rect x="2" y="1002.36" width="60" height="42" rx="6.522" ry="6.562" style="fill:#f57c00"/>
  <path d="m8.522 1001.7c-3.613 0-6.522 2.973-6.522 6.667v2.667c0-3.693 2.909-6.667 6.522-6.667h46.957c3.613 0 6.522 2.973 6.522 6.667v-2.667c0-3.693-2.909-6.667-6.522-6.667h-46.957z" style="fill:#fff;opacity:.2"/>
  <path d="m8.522 1012.36h10.435c14.348-1.333 11.739-16 20.87-16h15.652c3.613 0 6.522 2.973 6.522 6.667v34.667c0 3.693-2.909 6.667-6.522 6.667h-46.957c-3.613 0-6.522-2.973-6.522-6.667v-18.667c0-4 2.609-6.667 6.522-6.667z" style="fill:#ffb300"/>
  <path d="m2 1035.03v2.667c0 3.693 2.909 6.667 6.522 6.667h46.957c3.613 0 6.522-2.973 6.522-6.667v-2.667c0 3.693-2.909 7.333-6.522 7.333h-46.957c-3.613 0-6.522-3.64-6.522-7.333z" style="opacity:.15"/>
  <path d="m11.363362 1021.3623c-0.137472 0-0.275108 0.076-0.326445 0.2287l-1.9319171 5.7712h4.5803171l-1.995509-5.7712c-0.05136-0.1524-0.188974-0.2287-0.326446-0.2287zm2.321955 5.9999 3.314684 10 3.314688-10zm6.629372 0h4.58031l-1.93191-5.7712c-0.102674-0.305-0.550172-0.305-0.652893 0zm4.58031 0-7.894998 10 8.716956-6.1117c0.240522-0.1686 0.341292-0.4674 0.249438-0.7402zm-7.894998 10-7.8950011-10-1.0713917 3.1481c-0.09185 0.2728 0.00888 0.5716 0.2494375 0.7402z" style="-inkscape-stroke:none;fill-opacity:.098;font-variation-settings:normal;stop-color:#000000"/>
  <path d="m11.363362 1019.3623c-0.137472 0-0.275108 0.076-0.326445 0.2287l-1.931917 5.7712h4.580317l-1.995509-5.7712c-0.05136-0.1524-0.188974-0.2287-0.326446-0.2287zm2.321955 5.9999 3.314685 10 3.314688-10zm6.629373 0h4.58031l-1.93191-5.7712c-0.102674-0.305-0.550172-0.305-0.652893 0zm4.58031 0-7.894998 10 8.716956-6.1117c0.240522-0.1686 0.341292-0.4674 0.249438-0.7402zm-7.894998 10-7.895002-10-1.0713918 3.1481c-0.09185 0.2728 0.00888 0.5716 0.2494375 0.7402z" style="-inkscape-stroke:none;fill:#fff8e1;font-variation-settings:normal;stop-color:#000000"/>
 </g>
</svg>
