<svg xmlns="http://www.w3.org/2000/svg" viewBox="0 0 64 64">
 <defs>
  <radialGradient r="24" cy="40.5" cx="24" gradientTransform="matrix(1.6666667,0,0,0.2777777,-8,1030.4456)" gradientUnits="userSpaceOnUse" id="radialGradient3098">
   <stop style="stop-color:#000;stop-opacity:1"/>
   <stop offset="1" style="stop-color:#000;stop-opacity:0.196"/>
  </radialGradient>
 </defs>
 <g transform="translate(0,-988.3622)">
  <path d="m 32 1035.03 c -13.1 0 -24.704 1.044 -32 2.667 l 0 8 c 7.296 1.622 18.898 2.667 32 2.667 13.1 0 24.704 -1.044 32 -2.667 l 0 -8 c -7.296 -1.623 -18.898 -2.667 -32 -2.667 z" style="fill:url(#radialGradient3098);opacity:0.1;fill-opacity:1;stroke:none"/>
  <rect width="60" height="42" x="2" y="1002.36" rx="6.522" ry="6.562" style="fill:#f57c00;fill-opacity:1;stroke:none"/>
  <path d="m 8.522 1001.7 c -3.613 0 -6.522 2.973 -6.522 6.667 l 0 2.667 c 0 -3.693 2.909 -6.667 6.522 -6.667 l 46.957 0 c 3.613 0 6.522 2.973 6.522 6.667 l 0 -2.667 c 0 -3.693 -2.909 -6.667 -6.522 -6.667 l -46.957 0 z" style="fill:#fff;opacity:0.2;fill-opacity:1;stroke:none"/>
  <path d="m 8.522 1012.36 10.435 0 c 14.348 -1.333 11.739 -16 20.87 -16 l 15.652 0 c 3.613 0 6.522 2.973 6.522 6.667 l 0 34.667 c 0 3.693 -2.909 6.667 -6.522 6.667 l -46.957 0 c -3.613 0 -6.522 -2.973 -6.522 -6.667 l 0 -18.667 c 0 -4 2.609 -6.667 6.522 -6.667 z" style="fill:#ffb300;fill-opacity:1;stroke:none"/>
  <path d="m 2 1035.03 0 2.667 c 0 3.693 2.909 6.667 6.522 6.667 l 46.957 0 c 3.613 0 6.522 -2.973 6.522 -6.667 l 0 -2.667 c 0 3.693 -2.909 7.333 -6.522 7.333 l -46.957 0 c -3.613 0 -6.522 -3.64 -6.522 -7.333 z" style="fill:#000;opacity:0.15;fill-opacity:1;stroke:none"/>
  <path d="m 15.583 1020.36 c -0.499 0 -0.917 0.397 -0.917 0.896 l 0 1.167 c -0.316 0.106 -0.622 0.229 -0.917 0.375 l -0.813 -0.812 c -0.353 -0.353 -0.918 -0.353 -1.271 0 l -2.042 2.02 c -0.353 0.353 -0.353 0.918 0 1.271 l 0.813 0.813 c -0.15 0.3 -0.267 0.616 -0.375 0.937 l -1.146 0 c -0.499 0 -0.917 0.397 -0.917 0.896 l 0 2.875 c 0 0.499 0.418 0.896 0.917 0.896 l 1.146 0 c 0.108 0.321 0.225 0.637 0.375 0.937 l -0.813 0.813 c -0.353 0.353 -0.353 0.918 0 1.271 l 2.042 2.02 c 0.353 0.353 0.918 0.353 1.271 0 l 0.813 -0.812 c 0.295 0.146 0.601 0.269 0.917 0.375 l 0 1.167 c 0 0.499 0.418 0.896 0.917 0.896 l 2.854 0 c 0.499 0 0.896 -0.397 0.896 -0.896 l 0 -1.167 c 0.322 -0.108 0.638 -0.225 0.937 -0.375 l 0.813 0.812 c 0.353 0.353 0.918 0.353 1.271 0 l 2.042 -2.02 c 0.353 -0.353 0.353 -0.918 0 -1.271 l -0.833 -0.833 c 0.146 -0.295 0.269 -0.601 0.375 -0.917 l 1.167 0 c 0.499 0 0.896 -0.397 0.896 -0.896 l 0 -2.875 c 0 -0.499 -0.397 -0.896 -0.896 -0.896 l -1.167 0 c -0.106 -0.316 -0.229 -0.622 -0.375 -0.917 l 0.833 -0.833 c 0.353 -0.353 0.353 -0.918 0 -1.271 l -2.042 -2.02 c -0.353 -0.353 -0.918 -0.353 -1.271 0 l -0.813 0.812 c -0.3 -0.15 -0.616 -0.267 -0.937 -0.375 l 0 -1.167 c 0 -0.499 -0.397 -0.896 -0.896 -0.896 l -2.854 0 z m 1.417 6.667 c 1.288 0 2.333 1.045 2.333 2.334 0 1.288 -1.045 2.333 -2.333 2.333 -1.288 0 -2.333 -1.045 -2.333 -2.333 0 -1.288 1.045 -2.334 2.333 -2.334 z" style="fill:#000;fill-opacity:0.098;display:block;color:#000"/>
  <path d="m 15.583 1018.36 c -0.499 0 -0.917 0.397 -0.917 0.896 l 0 1.167 c -0.316 0.106 -0.622 0.229 -0.917 0.375 l -0.813 -0.812 c -0.353 -0.353 -0.918 -0.353 -1.271 0 l -2.042 2.02 c -0.353 0.353 -0.353 0.918 0 1.271 l 0.813 0.813 c -0.15 0.3 -0.267 0.616 -0.375 0.937 l -1.146 0 c -0.499 0 -0.917 0.397 -0.917 0.896 l 0 2.875 c 0 0.499 0.418 0.896 0.917 0.896 l 1.146 0 c 0.108 0.321 0.225 0.637 0.375 0.937 l -0.813 0.813 c -0.353 0.353 -0.353 0.918 0 1.271 l 2.042 2.02 c 0.353 0.353 0.918 0.353 1.271 0 l 0.813 -0.812 c 0.295 0.146 0.601 0.269 0.917 0.375 l 0 1.167 c 0 0.499 0.418 0.896 0.917 0.896 l 2.854 0 c 0.499 0 0.896 -0.397 0.896 -0.896 l 0 -1.167 c 0.322 -0.108 0.638 -0.225 0.937 -0.375 l 0.813 0.812 c 0.353 0.353 0.918 0.353 1.271 0 l 2.042 -2.02 c 0.353 -0.353 0.353 -0.918 0 -1.271 l -0.833 -0.833 c 0.146 -0.295 0.269 -0.601 0.375 -0.917 l 1.167 0 c 0.499 0 0.896 -0.397 0.896 -0.896 l 0 -2.875 c 0 -0.499 -0.397 -0.896 -0.896 -0.896 l -1.167 0 c -0.106 -0.316 -0.229 -0.622 -0.375 -0.917 l 0.833 -0.833 c 0.353 -0.353 0.353 -0.918 0 -1.271 l -2.042 -2.02 c -0.353 -0.353 -0.918 -0.353 -1.271 0 l -0.813 0.812 c -0.3 -0.15 -0.616 -0.267 -0.937 -0.375 l 0 -1.167 c 0 -0.499 -0.397 -0.896 -0.896 -0.896 l -2.854 0 z m 1.417 6.667 c 1.288 0 2.333 1.045 2.333 2.334 0 1.288 -1.045 2.333 -2.333 2.333 -1.288 0 -2.333 -1.045 -2.333 -2.333 0 -1.288 1.045 -2.334 2.333 -2.334 z" style="fill:#fff8e1;fill-opacity:1;display:block;color:#000"/>
 </g>
</svg>
