<svg xmlns="http://www.w3.org/2000/svg" viewBox="0 0 64 64">
 <defs>
  <radialGradient r="24" cy="40.5" cx="24" gradientTransform="matrix(1.6666667,0,0,0.2777777,-8,1030.4456)" gradientUnits="userSpaceOnUse" id="radialGradient3098">
   <stop style="stop-color:#000;stop-opacity:1"/>
   <stop offset="1" style="stop-color:#000;stop-opacity:0.196"/>
  </radialGradient>
 </defs>
 <g transform="translate(0,-988.3622)">
  <path d="m 32 1035.03 c -13.1 0 -24.704 1.044 -32 2.667 l 0 8 c 7.296 1.622 18.898 2.667 32 2.667 13.1 0 24.704 -1.044 32 -2.667 l 0 -8 c -7.296 -1.623 -18.898 -2.667 -32 -2.667 z" style="fill:url(#radialGradient3098);opacity:0.1;fill-opacity:1;stroke:none"/>
  <rect width="60" height="42" x="2" y="1002.36" rx="6.522" ry="6.562" style="fill:#e65100;fill-opacity:1;stroke:none"/>
  <path d="m 8.522 1001.7 c -3.613 0 -6.522 2.973 -6.522 6.667 l 0 2.667 c 0 -3.693 2.909 -6.667 6.522 -6.667 l 46.957 0 c 3.613 0 6.522 2.973 6.522 6.667 l 0 -2.667 c 0 -3.693 -2.909 -6.667 -6.522 -6.667 l -46.957 0 z" style="fill:#fff;opacity:0.2;fill-opacity:1;stroke:none"/>
  <path d="m 8.522 1012.36 10.435 0 c 14.348 -1.333 11.739 -16 20.87 -16 l 15.652 0 c 3.613 0 6.522 2.973 6.522 6.667 l 0 34.667 c 0 3.693 -2.909 6.667 -6.522 6.667 l -46.957 0 c -3.613 0 -6.522 -2.973 -6.522 -6.667 l 0 -18.667 c 0 -4 2.609 -6.667 6.522 -6.667 z" style="fill:#f57c00;fill-opacity:1;stroke:none"/>
  <path d="m 15.875 1020.36 c -3.839 0 -7.875 4.04 -7.875 9 0 4.963 4.04 9 7.875 9 6.088 0 10.125 -4.04 10.125 -9 0 -4.963 -4.04 -9 -9 -9 z m 1.856 1.266 c 0.839 0.078 1.652 0.269 2.391 0.59 -0.057 0.07 -0.101 0.134 -0.141 0.253 -0.227 0.682 -0.566 0.357 -0.169 1.209 0.398 0.852 0.73 1.073 0.844 0.675 0.114 -0.398 -0.286 -0.958 0.169 -0.731 0.455 0.227 0.791 -0.062 0.45 0.45 -0.341 0.511 -0.334 0.788 -0.731 0.675 -0.398 -0.114 -0.39 0.674 -0.788 0.788 -0.398 0.112 -0.534 -0.172 -0.534 0.112 0 0.284 0.226 0.024 0.169 0.478 -0.017 0.14 -0.012 0.164 -0.028 0.225 -0.373 -0.106 -0.54 -0.166 -0.816 -0.058 -0.284 0.114 -0.619 0.844 -0.619 0.844 0.355 0.355 0.52 0.61 0.647 0.731 -0.079 0.042 -0.175 0.056 -0.253 0.112 -0.568 0.398 -1.01 0.473 -1.181 1.041 -0.17 0.569 -0.112 0.048 -0.112 0.731 0 0.682 -0.172 0.219 0.169 0.844 0.341 0.625 1.177 0.925 1.575 1.266 0.398 0.341 0.808 -0.742 1.603 0.281 0.795 1.023 0.847 0.613 0.563 1.181 -0.284 0.568 -0.561 0.757 -0.675 0.984 -0.114 0.227 0.221 1.01 0.619 1.181 0.008 0 0.019 0 0.028 0 -0.021 0.048 -0.035 0.094 -0.056 0.14 -0.515 0.234 -1.146 0.557 -1.266 0.59 -0.281 0.082 -1.274 0.249 -1.997 0.45 -0.09 0.026 -0.162 0.026 -0.197 0.03 0.09 -0.098 0.801 -0.47 1.153 -0.675 0.482 -0.282 -0.028 -0.253 -0.028 -0.253 0 0 -0.767 -0.086 -2.334 -0.086 -0.783 0 -1.123 0.034 -1.294 0.086 -0.085 0.026 -0.127 0.05 -0.169 0.086 -0.041 0.036 -0.07 0.072 -0.141 0.112 -0.281 0.162 0.165 0.329 -0.197 0.45 -0.271 0.09 -0.303 0 -0.534 -0.17 0.165 -0.164 0.393 -0.362 0.675 -0.703 0.511 -0.618 0.673 -0.506 0.844 -1.068 0.17 -0.563 -1.434 -0.394 -1.434 -0.731 0 -0.338 -0.276 -0.562 -0.787 -0.787 -0.511 -0.225 -0.163 -0.338 -0.731 -0.506 -0.568 -0.17 -1.208 0.843 -1.378 0.506 -0.17 -0.338 0.534 -0.338 0.534 -0.731 0 -0.384 -0.81 0.29 -0.956 -0.196 -0.004 -0.02 -0.025 -0.02 -0.028 -0.03 -0.014 -0.07 -0.005 -0.112 0 -0.17 0.036 -0.405 0.504 -0.563 0.703 -0.956 0.227 -0.449 0.11 0.338 0.394 0.731 0.284 0.394 0.17 -0.506 0 -1.013 -0.17 -0.506 0.108 -0.506 0.506 -1.181 0.398 -0.675 0.394 -1.069 0.394 -1.575 0 -0.506 0.276 -0.562 0.844 -1.069 0.26 -0.232 0.465 -0.434 0.619 -0.618 0.037 -0.02 0.075 -0.02 0.113 -0.03 0.603 -0.241 0.856 -0.602 1.378 -1.688 0.522 -1.084 -0.205 -0.072 -0.366 -0.11 -0.161 -0.04 -0.394 -0.325 -0.956 -0.647 -0.116 -0.066 -0.22 -0.098 -0.309 -0.112 l 1.041 -1.716 c 0.333 -0.09 0.691 -0.152 1.041 -0.198 0.128 0.728 0.056 1.407 0.056 1.407 0 0 -0.197 0.233 -0.197 0.394 0 0.162 1.077 -1.326 1.237 -1.406 0.161 -0.082 0.567 0.426 0.647 -0.338 0.005 -0.044 -0.005 -0.044 0 -0.086 z m 1.519 3.037 c -0.058 -0.02 -0.126 0 -0.197 0.03 0 0.198 -0.077 0.343 -0.112 0.422 -0.021 -0.034 -0.084 -0.086 -0.084 -0.086 -0.085 0.158 -0.269 0.296 -0.084 0.253 0.185 -0.04 0.325 0.072 0.197 -0.086 -0.025 -0.03 -0.013 -0.02 -0.028 -0.03 0.024 0.02 0.069 0.03 0.169 0.03 0.112 0 0.172 0 0.253 0 -0.137 0.102 -0.287 0.144 -0.084 0.196 0.27 0.07 0.394 0.086 0.394 0.03 0 -0.056 -0.084 -0.253 -0.084 -0.253 0.053 -0.022 0.102 -0.048 0.056 -0.14 -0.085 -0.168 -0.221 -0.339 -0.394 -0.366 z m 4.303 0.478 c 0.141 0.218 0.275 0.443 0.394 0.675 -0.078 0.454 -0.277 0.759 0.056 0.759 0.093 0 0.176 -0.022 0.253 -0.03 0.01 0.028 0.018 0.058 0.028 0.086 -0.568 0 -0.841 0.172 -1.125 0.112 -0.284 -0.058 -1.074 -0.108 -0.563 -0.618 0.299 -0.299 0.672 -0.774 0.956 -0.985 z m -3.544 1.041 c 0.052 0.02 0.098 0.07 0.141 0.168 0.17 0.398 0.452 0.731 0.225 0.787 -0.227 0.056 -0.338 0.112 -0.338 0.112 0 0 0.787 0.512 0.844 -0.056 0.057 -0.568 -0.225 -0.9 -0.225 -0.9 0 0 0.393 0.392 0.506 0.619 0.114 0.227 0.11 0 0.394 0.281 0.284 0.284 0.221 -1.129 0.619 -0.731 0.398 0.398 0.648 0.391 0.534 0.675 -0.114 0.284 0.731 -0.343 0.731 0.225 0 0.548 0.349 0.77 -0.337 1.041 -0.26 -0.02 -0.466 -0.062 -0.506 -0.14 -0.114 -0.227 -0.759 -0.056 -0.759 -0.056 -1.7 -0.425 -2.438 -0.559 -2.925 -0.478 0.009 -0.02 0.018 -0.02 0.028 -0.028 0.249 -0.448 0.716 -1.069 0.563 -1.294 0.217 -0.124 0.386 -0.262 0.506 -0.225 z m 4.781 2.84 c 0.005 0.114 0 0.222 0 0.338 0 0.32 -0.019 0.646 -0.056 0.956 -0.511 -0.455 -1.238 -0.45 -1.238 -0.45 0 0 0.444 -0.504 1.069 -0.731 0.078 -0.028 0.162 -0.066 0.225 -0.112 z" style="fill:#000;fill-opacity:0.098;color:#000"/>
  <path d="m 15.875 1018.36 c -3.839 0 -7.875 4.04 -7.875 9 0 4.963 4.04 9 7.875 9 6.088 0 10.125 -4.04 10.125 -9 0 -4.963 -4.04 -9 -9 -9 z m 1.856 1.266 c 0.839 0.078 1.652 0.269 2.391 0.59 -0.057 0.07 -0.101 0.134 -0.141 0.253 -0.227 0.682 -0.566 0.357 -0.169 1.209 0.398 0.852 0.73 1.073 0.844 0.675 0.114 -0.398 -0.286 -0.958 0.169 -0.731 0.455 0.227 0.791 -0.062 0.45 0.45 -0.341 0.511 -0.334 0.788 -0.731 0.675 -0.398 -0.114 -0.39 0.674 -0.788 0.788 -0.398 0.112 -0.534 -0.172 -0.534 0.112 0 0.284 0.226 0.024 0.169 0.478 -0.017 0.14 -0.012 0.164 -0.028 0.225 -0.373 -0.106 -0.54 -0.166 -0.816 -0.058 -0.284 0.114 -0.619 0.844 -0.619 0.844 0.355 0.355 0.52 0.61 0.647 0.731 -0.079 0.042 -0.175 0.056 -0.253 0.112 -0.568 0.398 -1.01 0.473 -1.181 1.041 -0.17 0.569 -0.112 0.048 -0.112 0.731 0 0.682 -0.172 0.219 0.169 0.844 0.341 0.625 1.177 0.925 1.575 1.266 0.398 0.341 0.808 -0.742 1.603 0.281 0.795 1.023 0.847 0.613 0.563 1.181 -0.284 0.568 -0.561 0.757 -0.675 0.984 -0.114 0.227 0.221 1.01 0.619 1.181 0.008 0 0.019 0 0.028 0 -0.021 0.048 -0.035 0.094 -0.056 0.14 -0.515 0.234 -1.146 0.557 -1.266 0.59 -0.281 0.082 -1.274 0.249 -1.997 0.45 -0.09 0.026 -0.162 0.026 -0.197 0.03 0.09 -0.098 0.801 -0.47 1.153 -0.675 0.482 -0.282 -0.028 -0.253 -0.028 -0.253 0 0 -0.767 -0.086 -2.334 -0.086 -0.783 0 -1.123 0.034 -1.294 0.086 -0.085 0.026 -0.127 0.05 -0.169 0.086 -0.041 0.036 -0.07 0.072 -0.141 0.112 -0.281 0.162 0.165 0.329 -0.197 0.45 -0.271 0.09 -0.303 0 -0.534 -0.17 0.165 -0.164 0.393 -0.362 0.675 -0.703 0.511 -0.618 0.673 -0.506 0.844 -1.068 0.17 -0.563 -1.434 -0.394 -1.434 -0.731 0 -0.338 -0.276 -0.562 -0.787 -0.787 -0.511 -0.225 -0.163 -0.338 -0.731 -0.506 -0.568 -0.17 -1.208 0.843 -1.378 0.506 -0.17 -0.338 0.534 -0.338 0.534 -0.731 0 -0.384 -0.81 0.29 -0.956 -0.196 -0.004 -0.02 -0.025 -0.02 -0.028 -0.03 -0.014 -0.07 -0.005 -0.112 0 -0.17 0.036 -0.405 0.504 -0.563 0.703 -0.956 0.227 -0.449 0.11 0.338 0.394 0.731 0.284 0.394 0.17 -0.506 0 -1.013 -0.17 -0.506 0.108 -0.506 0.506 -1.181 0.398 -0.675 0.394 -1.069 0.394 -1.575 0 -0.506 0.276 -0.562 0.844 -1.069 0.26 -0.232 0.465 -0.434 0.619 -0.618 0.037 -0.02 0.075 -0.02 0.113 -0.03 0.603 -0.241 0.856 -0.602 1.378 -1.688 0.522 -1.084 -0.205 -0.072 -0.366 -0.11 -0.161 -0.04 -0.394 -0.325 -0.956 -0.647 -0.116 -0.066 -0.22 -0.098 -0.309 -0.112 l 1.041 -1.716 c 0.333 -0.09 0.691 -0.152 1.041 -0.198 0.128 0.728 0.056 1.407 0.056 1.407 0 0 -0.197 0.233 -0.197 0.394 0 0.162 1.077 -1.326 1.237 -1.406 0.161 -0.082 0.567 0.426 0.647 -0.338 0.005 -0.044 -0.005 -0.044 0 -0.086 z m 1.519 3.037 c -0.058 -0.02 -0.126 0 -0.197 0.03 0 0.198 -0.077 0.343 -0.112 0.422 -0.021 -0.034 -0.084 -0.086 -0.084 -0.086 -0.085 0.158 -0.269 0.296 -0.084 0.253 0.185 -0.04 0.325 0.072 0.197 -0.086 -0.025 -0.03 -0.013 -0.02 -0.028 -0.03 0.024 0.02 0.069 0.03 0.169 0.03 0.112 0 0.172 0 0.253 0 -0.137 0.102 -0.287 0.144 -0.084 0.196 0.27 0.07 0.394 0.086 0.394 0.03 0 -0.056 -0.084 -0.253 -0.084 -0.253 0.053 -0.022 0.102 -0.048 0.056 -0.14 -0.085 -0.168 -0.221 -0.339 -0.394 -0.366 z m 4.303 0.478 c 0.141 0.218 0.275 0.443 0.394 0.675 -0.078 0.454 -0.277 0.759 0.056 0.759 0.093 0 0.176 -0.022 0.253 -0.03 0.01 0.028 0.018 0.058 0.028 0.086 -0.568 0 -0.841 0.172 -1.125 0.112 -0.284 -0.058 -1.074 -0.108 -0.563 -0.618 0.299 -0.299 0.672 -0.774 0.956 -0.985 z m -3.544 1.041 c 0.052 0.02 0.098 0.07 0.141 0.168 0.17 0.398 0.452 0.731 0.225 0.787 -0.227 0.056 -0.338 0.112 -0.338 0.112 0 0 0.787 0.512 0.844 -0.056 0.057 -0.568 -0.225 -0.9 -0.225 -0.9 0 0 0.393 0.392 0.506 0.619 0.114 0.227 0.11 0 0.394 0.281 0.284 0.284 0.221 -1.129 0.619 -0.731 0.398 0.398 0.648 0.391 0.534 0.675 -0.114 0.284 0.731 -0.343 0.731 0.225 0 0.548 0.349 0.77 -0.337 1.041 -0.26 -0.02 -0.466 -0.062 -0.506 -0.14 -0.114 -0.227 -0.759 -0.056 -0.759 -0.056 -1.7 -0.425 -2.438 -0.559 -2.925 -0.478 0.009 -0.02 0.018 -0.02 0.028 -0.028 0.249 -0.448 0.716 -1.069 0.563 -1.294 0.217 -0.124 0.386 -0.262 0.506 -0.225 z m 4.781 2.84 c 0.005 0.114 0 0.222 0 0.338 0 0.32 -0.019 0.646 -0.056 0.956 -0.511 -0.455 -1.238 -0.45 -1.238 -0.45 0 0 0.444 -0.504 1.069 -0.731 0.078 -0.028 0.162 -0.066 0.225 -0.112 z" style="fill:#fff8e1;fill-opacity:1;color:#000"/>
  <path d="m 2 1035.03 0 2.667 c 0 3.693 2.909 6.667 6.522 6.667 l 46.957 0 c 3.613 0 6.522 -2.973 6.522 -6.667 l 0 -2.667 c 0 3.693 -2.909 7.333 -6.522 7.333 l -46.957 0 c -3.613 0 -6.522 -3.64 -6.522 -7.333 z" style="fill:#000;opacity:0.15;fill-opacity:1;stroke:none"/>
 </g>
</svg>
