<svg xmlns="http://www.w3.org/2000/svg" viewBox="0 0 64 64">
 <defs>
  <radialGradient r="24" cy="40.5" cx="24" gradientTransform="matrix(1.6666667,0,0,0.2777777,-8,1030.4456)" gradientUnits="userSpaceOnUse" id="radialGradient3098">
   <stop style="stop-color:#000;stop-opacity:1"/>
   <stop offset="1" style="stop-color:#000;stop-opacity:0.196"/>
  </radialGradient>
 </defs>
 <g transform="translate(0,-988.3622)">
  <path d="m 32 1035.03 c -13.1 0 -24.704 1.044 -32 2.667 l 0 8 c 7.296 1.622 18.898 2.667 32 2.667 13.1 0 24.704 -1.044 32 -2.667 l 0 -8 c -7.296 -1.623 -18.898 -2.667 -32 -2.667 z" style="fill:url(#radialGradient3098);opacity:0.1;fill-opacity:1;stroke:none"/>
  <rect width="60" height="42" x="2" y="1002.36" rx="6.522" ry="6.562" style="fill:#ec407a;fill-opacity:1;stroke:none"/>
  <path d="m 8.522 1001.7 c -3.613 0 -6.522 2.973 -6.522 6.667 l 0 2.667 c 0 -3.693 2.909 -6.667 6.522 -6.667 l 46.957 0 c 3.613 0 6.522 2.973 6.522 6.667 l 0 -2.667 c 0 -3.693 -2.909 -6.667 -6.522 -6.667 l -46.957 0 z" style="fill:#fff;opacity:0.2;fill-opacity:1;stroke:none"/>
  <path d="m 8.522 1012.36 10.435 0 c 14.348 -1.333 11.739 -16 20.87 -16 l 15.652 0 c 3.613 0 6.522 2.973 6.522 6.667 l 0 34.667 c 0 3.693 -2.909 6.667 -6.522 6.667 l -46.957 0 c -3.613 0 -6.522 -2.973 -6.522 -6.667 l 0 -18.667 c 0 -4 2.609 -6.667 6.522 -6.667 z" style="fill:#f06292;fill-opacity:1;stroke:none"/>
  <path d="m 2 1035.03 0 2.667 c 0 3.693 2.909 6.667 6.522 6.667 l 46.957 0 c 3.613 0 6.522 -2.973 6.522 -6.667 l 0 -2.667 c 0 3.693 -2.909 7.333 -6.522 7.333 l -46.957 0 c -3.613 0 -6.522 -3.64 -6.522 -7.333 z" style="fill:#000;opacity:0.15;fill-opacity:1;stroke:none"/>
  <path d="m 20.668 1020.42 c -1.992 0 -3.636 1.511 -3.636 3.401 0.015 0.649 0.051 1.471 0.43 3.206 l 0.039 0 c 0.077 0.23 0.194 0.458 0.391 0.704 0.176 0.22 0.41 0.471 0.626 0.704 0.066 0.491 0.077 0.919 0 1.447 -0.592 0.449 -1.659 0.868 -2.62 1.251 -0.501 0.2 -0.964 0.384 -1.329 0.626 -0.349 0.231 -0.601 0.545 -0.626 0.938 -0.001 0.02 -0.039 0.02 -0.039 0.04 l -0.43 3.324 0 0.04 c 0 0.412 0.274 0.749 0.665 1.017 0.39 0.268 0.92 0.478 1.564 0.665 1.288 0.374 3.035 0.586 4.966 0.586 1.93 0 3.678 -0.213 4.966 -0.586 0.644 -0.186 1.174 -0.397 1.564 -0.665 0.39 -0.268 0.665 -0.605 0.665 -1.017 l 0 -0.04 -0.469 -3.324 c 0 -0.02 0.001 -0.026 0 -0.04 -0.012 -0.188 -0.08 -0.373 -0.195 -0.508 -0.124 -0.144 -0.287 -0.238 -0.469 -0.352 -0.364 -0.227 -0.828 -0.419 -1.329 -0.626 -0.973 -0.401 -2.038 -0.854 -2.62 -1.329 -0.044 -0.454 -0.046 -0.915 0 -1.369 0.21 -0.248 0.446 -0.504 0.626 -0.743 0.2 -0.266 0.351 -0.506 0.43 -0.743 0.428 -1.807 0.447 -2.545 0.469 -3.206 0 -1.891 -1.644 -3.401 -3.636 -3.401 z m -6.764 0.625 c -1.637 0 -2.972 1.264 -2.972 2.815 0.012 0.532 0.041 1.156 0.352 2.581 l 0 0.04 c 0.063 0.19 0.188 0.343 0.352 0.547 0.144 0.178 0.335 0.399 0.508 0.587 0.053 0.393 0.059 0.79 0 1.212 -0.483 0.371 -1.359 0.704 -2.15 1.017 -0.41 0.162 -0.756 0.311 -1.056 0.508 -0.283 0.186 -0.484 0.464 -0.508 0.782 -0.001 0.02 -0.039 0.02 -0.039 0.04 l -0.391 2.695 l 0 0.04 c 0 0.254 0.121 0.473 0.313 0.665 0.191 0.192 0.457 0.367 0.782 0.508 0.641 0.279 1.554 0.472 2.659 0.587 l 0.039 0 c 0.06 0 0.12 -0.02 0.156 -0.04 0.045 -0.028 0.098 -0.05 0.117 -0.078 0.039 -0.054 0.062 -0.108 0.078 -0.156 0.029 -0.086 0.035 -0.186 0.039 -0.274 0.001 -0.02 0 -0.026 0 -0.04 l 0.43 -3.323 c -0.001 -0.136 0.094 -0.299 0.313 -0.469 0.219 -0.17 0.551 -0.341 0.938 -0.508 0.774 -0.336 1.756 -0.647 2.541 -1.055 l 0.43 -0.235 -0.43 -0.196 c -0.31 -0.15 -0.548 -0.316 -0.743 -0.469 -0.038 -0.386 -0.04 -0.788 0 -1.173 0.001 -0.02 -0.001 -0.026 0 -0.04 0.298 -0.402 0.525 -0.818 0.626 -1.056 l 0.039 -0.078 -0.039 -0.076 c -0.034 -0.194 -0.023 -0.342 -0.078 -0.508 -0.375 -1.715 -0.416 -2.422 -0.43 -3.05 0 -0.264 0.062 -0.571 0.156 -0.86 l 0.078 -0.156 -0.156 -0.076 c -0.522 -0.417 -1.213 -0.704 -1.955 -0.704 z" style="fill:#000;fill-opacity:0.098;color:#000"/>
  <path d="m 20.668 1018.41 c -1.992 0 -3.636 1.511 -3.636 3.402 0.015 0.649 0.051 1.47 0.43 3.206 l 0.039 0 c 0.077 0.23 0.194 0.458 0.391 0.704 0.176 0.22 0.41 0.471 0.626 0.704 0.066 0.491 0.077 0.919 0 1.447 -0.592 0.449 -1.659 0.868 -2.62 1.251 -0.501 0.2 -0.964 0.384 -1.329 0.626 -0.349 0.231 -0.601 0.544 -0.626 0.938 -0.001 0.02 -0.039 0.02 -0.039 0.04 l -0.43 3.323 0 0.04 c 0 0.412 0.274 0.749 0.665 1.017 0.39 0.268 0.92 0.478 1.564 0.665 1.288 0.374 3.035 0.587 4.966 0.587 1.93 0 3.678 -0.213 4.966 -0.587 0.644 -0.186 1.174 -0.397 1.564 -0.665 0.39 -0.268 0.665 -0.605 0.665 -1.017 l 0 -0.04 -0.469 -3.323 c 0 -0.02 0.001 -0.026 0 -0.04 -0.012 -0.188 -0.08 -0.373 -0.195 -0.508 -0.124 -0.144 -0.287 -0.238 -0.469 -0.352 -0.364 -0.227 -0.828 -0.419 -1.329 -0.626 -0.973 -0.401 -2.038 -0.854 -2.62 -1.329 -0.044 -0.454 -0.046 -0.915 0 -1.369 0.21 -0.248 0.446 -0.504 0.626 -0.743 0.2 -0.266 0.351 -0.506 0.43 -0.743 0.428 -1.807 0.447 -2.545 0.469 -3.206 0 -1.891 -1.644 -3.402 -3.636 -3.402 z m -6.764 0.626 c -1.637 0 -2.972 1.264 -2.972 2.815 0.012 0.532 0.041 1.156 0.352 2.581 l 0 0.04 c 0.063 0.19 0.188 0.343 0.352 0.548 0.144 0.178 0.335 0.399 0.508 0.587 0.053 0.393 0.059 0.79 0 1.212 -0.483 0.371 -1.359 0.704 -2.15 1.017 -0.41 0.162 -0.756 0.311 -1.056 0.508 -0.283 0.186 -0.484 0.463 -0.508 0.782 -0.001 0.02 -0.039 0.02 -0.039 0.04 l -0.391 2.695 l 0 0.04 c 0 0.254 0.121 0.473 0.313 0.665 0.191 0.192 0.457 0.367 0.782 0.508 0.641 0.279 1.554 0.473 2.659 0.587 l 0.039 0 c 0.06 0 0.12 -0.02 0.156 -0.04 0.045 -0.028 0.098 -0.05 0.117 -0.078 0.039 -0.054 0.062 -0.108 0.078 -0.156 0.029 -0.086 0.035 -0.186 0.039 -0.274 0.001 -0.02 0 -0.026 0 -0.04 l 0.43 -3.323 c -0.001 -0.136 0.094 -0.299 0.313 -0.469 0.219 -0.17 0.551 -0.341 0.938 -0.508 0.774 -0.336 1.756 -0.647 2.541 -1.056 l 0.43 -0.235 -0.43 -0.196 c -0.31 -0.15 -0.548 -0.316 -0.743 -0.469 -0.038 -0.386 -0.04 -0.788 0 -1.173 0.001 -0.02 -0.001 -0.026 0 -0.04 0.298 -0.402 0.525 -0.818 0.626 -1.056 l 0.039 -0.078 -0.039 -0.076 c -0.034 -0.194 -0.023 -0.342 -0.078 -0.508 -0.375 -1.715 -0.416 -2.422 -0.43 -3.05 0 -0.264 0.062 -0.571 0.156 -0.86 l 0.078 -0.156 -0.156 -0.078 c -0.522 -0.417 -1.213 -0.704 -1.955 -0.704 z" style="fill:#fff8e1;fill-opacity:1;color:#000"/>
 </g>
</svg>
