<svg xmlns="http://www.w3.org/2000/svg" viewBox="0 0 64 64">
 <defs>
  <radialGradient r="24" cy="40.5" cx="24" gradientTransform="matrix(1.6666667,0,0,0.2777777,-8,1030.4456)" gradientUnits="userSpaceOnUse" id="radialGradient3159">
   <stop style="stop-color:#000;stop-opacity:1"/>
   <stop offset="1" style="stop-color:#000;stop-opacity:0.196"/>
  </radialGradient>
 </defs>
 <g transform="translate(0,-988.3622)">
  <path d="m 32 1035.03 c -13.1 0 -24.704 1.044 -32 2.667 l 0 8 c 7.296 1.622 18.898 2.667 32 2.667 13.1 0 24.704 -1.044 32 -2.667 l 0 -8 c -7.296 -1.623 -18.898 -2.667 -32 -2.667 z" style="fill:url(#radialGradient3159);opacity:0.1;fill-opacity:1;stroke:none"/>
  <rect width="60" height="42" x="2" y="1002.36" rx="6.522" ry="6.562" style="fill:#512da8;fill-opacity:1;stroke:none"/>
  <path d="m 8.522 1001.7 c -3.613 0 -6.522 2.973 -6.522 6.667 l 0 2.667 c 0 -3.693 2.909 -6.667 6.522 -6.667 l 46.957 0 c 3.613 0 6.522 2.973 6.522 6.667 l 0 -2.667 c 0 -3.693 -2.909 -6.667 -6.522 -6.667 l -46.957 0 z" style="fill:#fff;opacity:0.2;fill-opacity:1;stroke:none"/>
  <path d="m 8.522 1012.36 10.435 0 c 14.348 -1.333 11.739 -16 20.87 -16 l 15.652 0 c 3.613 0 6.522 2.973 6.522 6.667 l 0 34.667 c 0 3.693 -2.909 6.667 -6.522 6.667 l -46.957 0 c -3.613 0 -6.522 -2.973 -6.522 -6.667 l 0 -18.667 c 0 -4 2.609 -6.667 6.522 -6.667 z" style="fill:#7e57c2;fill-opacity:1;stroke:none"/>
  <path d="m 2 1035.03 0 2.667 c 0 3.693 2.909 6.667 6.522 6.667 l 46.957 0 c 3.613 0 6.522 -2.973 6.522 -6.667 l 0 -2.667 c 0 3.693 -2.909 7.333 -6.522 7.333 l -46.957 0 c -3.613 0 -6.522 -3.64 -6.522 -7.333 z" style="fill:#000;opacity:0.15;fill-opacity:1;stroke:none"/>
  <path d="m 12 1020.36 c -1.5 0 -2 0.571 -2 2 l 0 14 c 0 1.429 0.5 2 2 2 l 10 0 c 1.5 0 2 -0.571 2 -2 l 0 -10 -2 -2 -2 -2 -2 -2 z m 0 2 6 0 0 4 4 0 0 10 -10 0 z m 2.25 6 c -0.139 0 -0.25 0.223 -0.25 0.5 l 0 1 c 0 0.277 0.111 0.5 0.25 0.5 l 5.5 0 c 0.139 0 0.25 -0.223 0.25 -0.5 l 0 -1 c 0 -0.277 -0.111 -0.5 -0.25 -0.5 z m 0 4 c -0.139 0 -0.25 0.223 -0.25 0.5 l 0 1 c 0 0.277 0.111 0.5 0.25 0.5 l 5.5 0 c 0.139 0 0.25 -0.223 0.25 -0.5 l 0 -1 c 0 -0.277 -0.111 -0.5 -0.25 -0.5 z" style="fill:#000;fill-opacity:0.098;stroke:none"/>
  <path d="m 12 1018.36 c -1.5 0 -2 0.571 -2 2 l 0 14 c 0 1.429 0.5 2 2 2 l 10 0 c 1.5 0 2 -0.571 2 -2 l 0 -10 -6 -6 z m 0 2 8 0 0 0 2 2 0 12 -10 0 z" style="fill:#fff8e1;fill-opacity:1;stroke:none"/>
  <path d="m 18 1018.36 0 6 6 0 z" style="fill:#fff8e1;fill-opacity:1;stroke:none"/>
  <rect ry="0.5" rx="0.167" y="1026.36" x="14" height="2" width="4" style="fill:#fff8e1;fill-opacity:1;stroke:none"/>
  <rect width="6" height="2" x="14" y="1030.36" rx="0.25" ry="0.5" style="fill:#fff8e1;fill-opacity:1;stroke:none"/>
 </g>
</svg>
