<svg xmlns="http://www.w3.org/2000/svg" viewBox="0 0 64 64">
 <defs>
  <radialGradient r="24" cy="40.5" cx="24" gradientTransform="matrix(1.6666667,0,0,0.2777777,-8,1030.4456)" gradientUnits="userSpaceOnUse" id="radialGradient3147">
   <stop style="stop-color:#000;stop-opacity:1"/>
   <stop offset="1" style="stop-color:#000;stop-opacity:0.196"/>
  </radialGradient>
 </defs>
 <g transform="translate(0,-988.3622)">
  <path d="m 32 1035.03 c -13.1 0 -24.704 1.044 -32 2.667 l 0 8 c 7.296 1.622 18.898 2.667 32 2.667 13.1 0 24.704 -1.044 32 -2.667 l 0 -8 c -7.296 -1.623 -18.898 -2.667 -32 -2.667 z" style="fill:url(#radialGradient3147);opacity:0.1;fill-opacity:1;stroke:none"/>
  <rect width="60" height="42" x="2" y="1002.36" rx="6.522" ry="6.562" style="fill:#ffb300;fill-opacity:1;stroke:none"/>
  <path d="m 8.522 1001.7 c -3.613 0 -6.522 2.973 -6.522 6.667 l 0 2.667 c 0 -3.693 2.909 -6.667 6.522 -6.667 l 46.957 0 c 3.613 0 6.522 2.973 6.522 6.667 l 0 -2.667 c 0 -3.693 -2.909 -6.667 -6.522 -6.667 l -46.957 0 z" style="fill:#fff;opacity:0.2;fill-opacity:1;stroke:none"/>
  <path d="m 8.522 1012.36 10.435 0 c 14.348 -1.333 11.739 -16 20.87 -16 l 15.652 0 c 3.613 0 6.522 2.973 6.522 6.667 l 0 34.667 c 0 3.693 -2.909 6.667 -6.522 6.667 l -46.957 0 c -3.613 0 -6.522 -2.973 -6.522 -6.667 l 0 -18.667 c 0 -4 2.609 -6.667 6.522 -6.667 z" style="fill:#ffca28;fill-opacity:1;stroke:none"/>
  <path d="m 2 1035.03 0 2.667 c 0 3.693 2.909 6.667 6.522 6.667 l 46.957 0 c 3.613 0 6.522 -2.973 6.522 -6.667 l 0 -2.667 c 0 3.693 -2.909 7.333 -6.522 7.333 l -46.957 0 c -3.613 0 -6.522 -3.64 -6.522 -7.333 z" style="fill:#000;opacity:0.15;fill-opacity:1;stroke:none"/>
  <path d="m 15.875 1021.36 c -4.493 0.112 -7.875 3.478 -7.875 6.906 0 3.429 2.25 3.406 3.375 3.406 1.125 0 2.25 -0.036 2.25 2.25 0 2.285 1.125 3.438 3.375 3.438 7.875 0 9 -5.714 9 -8 0 -3.428 -3.375 -8 -10.125 -8 z m -1.875 2 c 0.552 0 1 0.448 1 1 0 0.552 -0.448 1 -1 1 -0.552 0 -1 -0.448 -1 -1 0 -0.552 0.448 -1 1 -1 z m 5 0 c 0.552 0 1 0.448 1 1 0 0.552 -0.448 1 -1 1 -0.552 0 -1 -0.448 -1 -1 0 -0.552 0.448 -1 1 -1 z m 4 3 c 0.552 0 1 0.448 1 1 0 0.552 -0.448 1 -1 1 -0.552 0 -1 -0.448 -1 -1 0 -0.552 0.448 -1 1 -1 z m -12 1 c 0.552 0 1 0.448 1 1 0 0.552 -0.448 1 -1 1 -0.552 0 -1 -0.448 -1 -1 0 -0.552 0.448 -1 1 -1 z m 6.5 5 c 0.828 0 1.5 0.672 1.5 1.5 0 0.828 -0.672 1.5 -1.5 1.5 -0.828 0 -1.5 -0.672 -1.5 -1.5 0 -0.828 0.672 -1.5 1.5 -1.5 z" style="fill:#000;fill-opacity:0.098;stroke:none"/>
  <path d="m 15.875 31 c -4.493 0.112 -7.875 3.478 -7.875 6.906 c 0 3.429 2.25 3.406 3.375 3.406 c 1.125 0 2.25 -0.036 2.25 2.25 c 0 2.285 1.125 3.438 3.375 3.438 c 7.875 0 9 -5.714 9 -8 c 0 -3.428 -3.375 -8 -10.125 -8 z m -1.875 2 c 0.552 0 1 0.448 1 1 c 0 0.552 -0.448 1 -1 1 c -0.552 0 -1 -0.448 -1 -1 c 0 -0.552 0.448 -1 1 -1 z m 5 0 c 0.552 0 1 0.448 1 1 c 0 0.552 -0.448 1 -1 1 c -0.552 0 -1 -0.448 -1 -1 c 0 -0.552 0.448 -1 1 -1 z m 4 3 c 0.552 0 1 0.448 1 1 c 0 0.552 -0.448 1 -1 1 c -0.552 0 -1 -0.448 -1 -1 c 0 -0.552 0.448 -1 1 -1 z m -12 1 c 0.552 0 1 0.448 1 1 c 0 0.552 -0.448 1 -1 1 c -0.552 0 -1 -0.448 -1 -1 c 0 -0.552 0.448 -1 1 -1 z m 6.5 5 c 0.828 0 1.5 0.672 1.5 1.5 c 0 0.828 -0.672 1.5 -1.5 1.5 c -0.828 0 -1.5 -0.672 -1.5 -1.5 c 0 -0.828 0.672 -1.5 1.5 -1.5 z" transform="translate(0,988.3622)" style="fill:#fff8e1;fill-opacity:1;stroke:none"/>
 </g>
</svg>
