<svg xmlns="http://www.w3.org/2000/svg" viewBox="0 0 64 64">
 <defs>
  <radialGradient r="24" cy="40.5" cx="24" gradientTransform="matrix(1.6666667,0,0,0.2777777,-8,1030.4456)" gradientUnits="userSpaceOnUse" id="radialGradient3098">
   <stop style="stop-color:#000;stop-opacity:1"/>
   <stop offset="1" style="stop-color:#000;stop-opacity:0.196"/>
  </radialGradient>
 </defs>
 <g transform="translate(0,-988.3622)">
  <path d="m 32 1035.03 c -13.1 0 -24.704 1.044 -32 2.667 l 0 8 c 7.296 1.622 18.898 2.667 32 2.667 13.1 0 24.704 -1.044 32 -2.667 l 0 -8 c -7.296 -1.623 -18.898 -2.667 -32 -2.667 z" style="fill:url(#radialGradient3098);opacity:0.1;fill-opacity:1;stroke:none"/>
  <rect width="60" height="42" x="2" y="1002.36" rx="6.522" ry="6.562" style="fill:#ffb300;fill-opacity:1;stroke:none"/>
  <path d="m 8.522 1001.7 c -3.613 0 -6.522 2.973 -6.522 6.667 l 0 2.667 c 0 -3.693 2.909 -6.667 6.522 -6.667 l 46.957 0 c 3.613 0 6.522 2.973 6.522 6.667 l 0 -2.667 c 0 -3.693 -2.909 -6.667 -6.522 -6.667 l -46.957 0 z" style="fill:#fff;opacity:0.2;fill-opacity:1;stroke:none"/>
  <path d="m 8.522 1012.36 10.435 0 c 14.348 -1.333 11.739 -16 20.87 -16 l 15.652 0 c 3.613 0 6.522 2.973 6.522 6.667 l 0 34.667 c 0 3.693 -2.909 6.667 -6.522 6.667 l -46.957 0 c -3.613 0 -6.522 -2.973 -6.522 -6.667 l 0 -18.667 c 0 -4 2.609 -6.667 6.522 -6.667 z" style="fill:#ffca28;fill-opacity:1;stroke:none"/>
  <path d="m 2 1035.03 0 2.667 c 0 3.693 2.909 6.667 6.522 6.667 l 46.957 0 c 3.613 0 6.522 -2.973 6.522 -6.667 l 0 -2.667 c 0 3.693 -2.909 7.333 -6.522 7.333 l -46.957 0 c -3.613 0 -6.522 -3.64 -6.522 -7.333 z" style="fill:#000;opacity:0.15;fill-opacity:1;stroke:none"/>
  <path d="m 9.687 1027.7 c -0.932 0 -1.687 0.744 -1.687 1.663 c 0 0.919 0.755 1.663 1.687 1.663 0.932 0 1.687 -0.745 1.687 -1.663 0 -0.919 -0.755 -1.663 -1.687 -1.663 z m 12.05 7.56 c -0.807 0.459 -1.083 1.476 -0.617 2.271 0.466 0.796 1.497 1.068 2.304 0.609 0.807 -0.459 1.083 -1.476 0.617 -2.272 -0.466 -0.795 -1.497 -1.068 -2.304 -0.608 z m -8.381 -5.897 c 0 -1.644 0.829 -3.096 2.096 -3.975 l -1.233 -2.037 c -1.476 0.972 -2.575 2.459 -3.03 4.201 0.533 0.428 0.873 1.08 0.873 1.811 0 0.731 -0.34 1.383 -0.873 1.811 0.456 1.742 1.554 3.228 3.03 4.201 l 1.233 -2.037 c -1.267 -0.879 -2.096 -2.331 -2.096 -3.975 z m 4.928 -4.859 c 2.575 0 4.686 1.946 4.908 4.428 l 2.404 -0.036 c -0.118 -1.832 -0.93 -3.478 -2.178 -4.687 -0.641 0.239 -1.382 0.203 -2.023 -0.162 -0.641 -0.365 -1.044 -0.981 -1.154 -1.649 -0.623 -0.17 -1.279 -0.263 -1.958 -0.263 -1.167 0 -2.269 0.27 -3.248 0.748 l 1.172 2.071 c 0.631 -0.29 1.334 -0.452 2.076 -0.452 z m 0 9.718 c -0.742 0 -1.445 -0.162 -2.076 -0.452 l -1.172 2.071 c 0.979 0.478 2.082 0.748 3.248 0.748 0.678 0 1.334 -0.092 1.958 -0.263 0.11 -0.668 0.513 -1.284 1.154 -1.649 0.64 -0.364 1.381 -0.401 2.023 -0.162 1.247 -1.209 2.059 -2.855 2.177 -4.687 l -2.404 -0.036 c -0.221 2.482 -2.333 4.428 -4.908 4.428 z m 3.453 -10.756 c 0.807 0.46 1.838 0.188 2.304 -0.608 0.466 -0.796 0.19 -1.812 -0.617 -2.272 -0.807 -0.459 -1.838 -0.186 -2.304 0.609 -0.466 0.795 -0.189 1.812 0.617 2.271 z" style="fill:#000;fill-opacity:0.098;color:#000"/>
  <path d="m 9.687 1025.7 c -0.932 0 -1.687 0.744 -1.687 1.663 c 0 0.919 0.755 1.663 1.687 1.663 0.932 0 1.687 -0.745 1.687 -1.663 0 -0.919 -0.755 -1.663 -1.687 -1.663 z m 12.05 7.56 c -0.807 0.459 -1.083 1.476 -0.617 2.271 0.466 0.796 1.497 1.068 2.304 0.609 0.807 -0.459 1.083 -1.476 0.617 -2.272 -0.466 -0.795 -1.497 -1.068 -2.304 -0.608 z m -8.381 -5.897 c 0 -1.644 0.829 -3.096 2.096 -3.975 l -1.233 -2.037 c -1.476 0.972 -2.575 2.459 -3.03 4.201 0.533 0.428 0.873 1.08 0.873 1.811 0 0.731 -0.34 1.383 -0.873 1.811 0.456 1.742 1.554 3.228 3.03 4.201 l 1.233 -2.037 c -1.267 -0.879 -2.096 -2.331 -2.096 -3.975 z m 4.928 -4.859 c 2.575 0 4.686 1.946 4.908 4.428 l 2.404 -0.036 c -0.118 -1.832 -0.93 -3.478 -2.178 -4.687 -0.641 0.239 -1.382 0.203 -2.023 -0.162 -0.641 -0.365 -1.044 -0.981 -1.154 -1.649 -0.623 -0.17 -1.279 -0.263 -1.958 -0.263 -1.167 0 -2.269 0.27 -3.248 0.748 l 1.172 2.071 c 0.631 -0.29 1.334 -0.452 2.076 -0.452 z m 0 9.718 c -0.742 0 -1.445 -0.162 -2.076 -0.452 l -1.172 2.071 c 0.979 0.478 2.082 0.748 3.248 0.748 0.678 0 1.334 -0.092 1.958 -0.263 0.11 -0.668 0.513 -1.284 1.154 -1.649 0.64 -0.364 1.381 -0.401 2.023 -0.162 1.247 -1.209 2.059 -2.855 2.177 -4.687 l -2.404 -0.036 c -0.221 2.482 -2.333 4.428 -4.908 4.428 z m 3.453 -10.756 c 0.807 0.46 1.838 0.188 2.304 -0.608 0.466 -0.796 0.19 -1.812 -0.617 -2.272 -0.807 -0.459 -1.838 -0.186 -2.304 0.609 -0.466 0.795 -0.189 1.812 0.617 2.271 z" style="fill:#fff8e1;fill-opacity:1;color:#000"/>
 </g>
</svg>
