<svg xmlns="http://www.w3.org/2000/svg" viewBox="0 0 64 64">
 <defs>
  <radialGradient r="24" cy="40.5" cx="24" gradientTransform="matrix(1.6666667,0,0,0.2777777,-8.0000005,1030.4456)" gradientUnits="userSpaceOnUse" id="radialGradient3170">
   <stop style="stop-color:#000;stop-opacity:1"/>
   <stop offset="1" style="stop-color:#000;stop-opacity:0.196"/>
  </radialGradient>
 </defs>
 <g transform="translate(0,-988.3622)">
  <path d="m 32 1035.03 c -13.1 0 -24.704 1.044 -32 2.667 l 0 8 c 7.296 1.622 18.898 2.667 32 2.667 13.1 0 24.704 -1.044 32 -2.667 l 0 -8 c -7.296 -1.623 -18.898 -2.667 -32 -2.667 z" style="fill:url(#radialGradient3170);opacity:0.1;fill-opacity:1;stroke:none"/>
  <rect width="60" height="42" x="2" y="1002.36" rx="6.522" ry="6.562" style="fill:#ffb300;fill-opacity:1;stroke:none"/>
  <path d="m 8.522 1001.7 c -3.613 0 -6.522 2.973 -6.522 6.667 l 0 2.667 c 0 -3.693 2.909 -6.667 6.522 -6.667 l 46.957 0 c 3.613 0 6.522 2.973 6.522 6.667 l 0 -2.667 c 0 -3.693 -2.909 -6.667 -6.522 -6.667 l -46.957 0 z" style="fill:#fff;opacity:0.2;fill-opacity:1;stroke:none"/>
  <path d="m 8.522 1012.36 10.435 0 c 14.348 -1.333 11.739 -16 20.87 -16 l 15.652 0 c 3.613 0 6.522 2.973 6.522 6.667 l 0 34.667 c 0 3.693 -2.909 6.667 -6.522 6.667 l -46.957 0 c -3.613 0 -6.522 -2.973 -6.522 -6.667 l 0 -18.667 c 0 -4 2.609 -6.667 6.522 -6.667 z" style="fill:#ffca28;fill-opacity:1;stroke:none"/>
  <path d="m 2 1035.03 0 2.667 c 0 3.693 2.909 6.667 6.522 6.667 l 46.957 0 c 3.613 0 6.522 -2.973 6.522 -6.667 l 0 -2.667 c 0 3.693 -2.909 7.333 -6.522 7.333 l -46.957 0 c -3.613 0 -6.522 -3.64 -6.522 -7.333 z" style="fill:#000;opacity:0.15;fill-opacity:1;stroke:none"/>
  <path d="m 9.511 1021.49 0 0.024 c -0.588 0.018 -1.157 0.068 -1.717 0.262 -0.176 1.194 0.109 2.432 0.429 3.576 0.814 2.625 2.337 5.1 4.554 6.771 0.081 0.078 0.197 0.099 0.167 0.238 -0.012 0.582 -0.001 1.205 0 1.788 0.024 1.019 0.627 1.975 1.526 2.456 1.067 0.562 2.144 1.091 3.219 1.645 0.495 0.262 1.18 -0.042 1.335 -0.572 0.094 -0.349 0.019 -0.717 0.024 -1.073 -0.004 -0.749 -0.077 -1.502 -0.048 -2.241 0.978 -0.12 1.95 -0.598 2.527 -1.407 0.514 -0.689 0.707 -1.574 0.644 -2.432 1.046 -0.187 2.122 -0.335 3.171 -0.524 0.621 -0.125 0.889 -0.949 0.501 -1.454 -0.763 -0.967 -1.537 -1.9 -2.313 -2.861 -0.626 -0.748 -1.609 -1.176 -2.575 -1.049 -0.655 0.105 -1.309 0.259 -1.955 0.381 -2.085 -1.988 -4.896 -3.089 -7.725 -3.409 -0.581 -0.053 -1.176 -0.128 -1.764 -0.119 z m 3.529 2.193 c 0.683 -0.061 1.363 0.122 1.931 0.596 1.137 0.948 1.328 2.629 0.381 3.767 -0.947 1.138 -2.63 1.329 -3.767 0.381 -1.137 -0.947 -1.328 -2.652 -0.381 -3.791 0.473 -0.569 1.152 -0.891 1.836 -0.954 z m 0.31 1.192 c -0.843 0 -1.526 0.683 -1.526 1.526 0 0.843 0.683 1.526 1.526 1.526 0.843 0 1.526 -0.683 1.526 -1.526 0 -0.843 -0.683 -1.526 -1.526 -1.526 z m 10.61 6.986 c -0.234 -0.021 -0.467 0.16 -0.501 0.405 -0.298 1.356 -1.25 2.535 -2.527 3.075 -0.332 0.105 -0.416 0.545 -0.143 0.763 0.56 0.467 1.202 1.014 1.764 1.478 0.274 0.233 0.639 -0.01 0.644 -0.358 -0.009 -0.285 -0.046 -0.601 -0.072 -0.882 0.698 0.149 1.384 0.348 2.074 0.501 0.325 0.067 0.633 -0.333 0.501 -0.644 -0.273 -0.655 -0.554 -1.28 -0.834 -1.931 0.282 -0.034 0.553 -0.051 0.834 -0.095 0.348 -0.069 0.498 -0.584 0.215 -0.811 -0.564 -0.474 -1.146 -0.936 -1.717 -1.407 -0.067 -0.053 -0.16 -0.088 -0.238 -0.095 z" style="fill:#000;fill-opacity:0.098;stroke:none;fill-rule:nonzero"/>
  <path d="m 9.511 1019.49 0 0.024 c -0.588 0.018 -1.157 0.068 -1.717 0.262 -0.176 1.194 0.109 2.432 0.429 3.576 0.814 2.625 2.337 5.1 4.554 6.771 0.081 0.078 0.197 0.099 0.167 0.238 -0.012 0.582 -0.001 1.205 0 1.788 0.024 1.019 0.627 1.975 1.526 2.456 1.067 0.562 2.144 1.091 3.219 1.645 0.495 0.262 1.18 -0.042 1.335 -0.572 0.094 -0.349 0.019 -0.717 0.024 -1.073 -0.004 -0.749 -0.077 -1.502 -0.048 -2.241 0.978 -0.12 1.95 -0.598 2.527 -1.407 0.514 -0.689 0.707 -1.574 0.644 -2.432 1.046 -0.187 2.122 -0.335 3.171 -0.524 0.621 -0.125 0.889 -0.949 0.501 -1.454 -0.763 -0.967 -1.537 -1.9 -2.313 -2.861 -0.626 -0.748 -1.609 -1.176 -2.575 -1.049 -0.655 0.105 -1.309 0.259 -1.955 0.381 -2.085 -1.988 -4.896 -3.089 -7.725 -3.409 -0.581 -0.053 -1.176 -0.128 -1.764 -0.119 z m 3.529 2.193 c 0.683 -0.061 1.363 0.122 1.931 0.596 1.137 0.948 1.328 2.629 0.381 3.767 -0.947 1.138 -2.63 1.329 -3.767 0.381 -1.137 -0.947 -1.328 -2.652 -0.381 -3.791 0.473 -0.569 1.152 -0.891 1.836 -0.954 z m 0.31 1.192 c -0.843 0 -1.526 0.683 -1.526 1.526 0 0.843 0.683 1.526 1.526 1.526 0.843 0 1.526 -0.683 1.526 -1.526 0 -0.843 -0.683 -1.526 -1.526 -1.526 z m 10.61 6.986 c -0.234 -0.021 -0.467 0.16 -0.501 0.405 -0.298 1.356 -1.25 2.535 -2.527 3.075 -0.332 0.105 -0.416 0.545 -0.143 0.763 0.56 0.467 1.202 1.014 1.764 1.478 0.274 0.233 0.639 -0.01 0.644 -0.358 -0.009 -0.285 -0.046 -0.601 -0.072 -0.882 0.698 0.149 1.384 0.348 2.074 0.501 0.325 0.067 0.633 -0.333 0.501 -0.644 -0.273 -0.655 -0.554 -1.28 -0.834 -1.931 0.282 -0.034 0.553 -0.051 0.834 -0.095 0.348 -0.069 0.498 -0.584 0.215 -0.811 -0.564 -0.474 -1.146 -0.936 -1.717 -1.407 -0.067 -0.053 -0.16 -0.088 -0.238 -0.095 z" style="fill:#fff8e1;opacity:1;fill-opacity:1;stroke:none;fill-rule:nonzero"/>
 </g>
</svg>
