<svg width="16" height="16" version="1.1" xmlns="http://www.w3.org/2000/svg">
 <path d="m10.294 5.347a0.36 0.36 0 0 1 0.264 0.11l0.526 0.526c0.072 0.072 0.11 0.16 0.11 0.262a0.36 0.36 0 0 1-0.11 0.264l-3.328 3.328a0.36 0.36 0 0 1-0.264 0.11 0.357 0.357 0 0 1-0.262-0.11l-0.528-0.526-1.4-1.4a0.36 0.36 0 0 1-0.109-0.264 0.36 0.36 0 0 1 0.11-0.264l0.525-0.526a0.359 0.359 0 0 1 0.264-0.108c0.103 0 0.19 0.036 0.262 0.108l1.139 1.143 2.54-2.543a0.357 0.357 0 0 1 0.262-0.11z" fill="#363636" fill-rule="evenodd"/>
 <path d="m8 1a7 7 0 0 0-7 7 7 7 0 0 0 7 7 7 7 0 0 0 7-7 7 7 0 0 0-7-7zm0 1a6 6 0 0 1 6 6 6 6 0 0 1-6 6 6 6 0 0 1-6-6 6 6 0 0 1 6-6z" fill="#363636"/>
</svg>
