<svg width="16" height="16" version="1.1" xmlns="http://www.w3.org/2000/svg">
 <path d="m7 4h2v2h-2zm0 3h2v5h-2z" fill="#363636" fill-rule="evenodd" paint-order="stroke fill markers"/>
 <circle cx="14" cy="14" r="2" color="#5294e2" fill="currentColor" stroke-width="1.3333"/>
 <path d="m8 0a8 8 0 0 0-8 8 8 8 0 0 0 8 8 8 8 0 0 0 3.293-0.71094 3 3 0 0 1-0.27539-0.97266 7 7 0 0 1-3.0176 0.68359 7 7 0 0 1-7-7 7 7 0 0 1 6.9062-7 7 7 0 0 1 0.09375 0 7 7 0 0 1 7 7 7 7 0 0 1-0.68359 3.0176 3 3 0 0 1 0.97461 0.27344 8 8 0 0 0 0.70898-3.291 8 8 0 0 0-8-8z" fill="#363636" stroke-linecap="round" stroke-linejoin="round" stroke-width="2"/>
</svg>
