<svg width="16" height="16" version="1.1" xmlns="http://www.w3.org/2000/svg">
 <path d="m8-1.65e-7a8 8 0 0 0-8 8 8 8 0 0 0 6.662 7.885 8 8 0 0 0 0.793 0.096 8 8 0 0 0 0.545 0.019 8 8 0 0 0 1.59-0.16 8 8 0 0 0 0.773-0.197 8 8 0 0 0 2.858-1.584 8 8 0 0 0 0.338-0.307 6 6 0 0 0-4e-3 -8e-3 8 8 0 0 0 2.445-5.744 8 8 0 0 0-8-8zm0 1a7 7 0 0 1 7 7 7 7 0 0 1-1.928 4.81 6 6 0 0 0-5.072-2.81 6 6 0 0 0-5.076 2.814 7 7 0 0 1-1.924-4.814 7 7 0 0 1 7-7zm0 3a2 2 0 0 0-2 2 2 2 0 0 0 2 2 2 2 0 0 0 2-2 2 2 0 0 0-2-2z" color="#363636" fill="currentColor"/>
</svg>
