<svg width="16" height="16" version="1.1" xmlns="http://www.w3.org/2000/svg">
 <g id="g10" fill="#363636" fill-rule="evenodd">
  <path id="path4" d="m2 3c-1.108 0-2 0.892-2 2v6c0 1.108 0.892 2 2 2h9c1.108 0 2-0.892 2-2v-6c0-1.108-0.892-2-2-2h-9zm0 1h9c0.554 0 1 0.446 1 1v6c0 0.554-0.446 1-1 1h-9c-0.554 0-1-0.446-1-1v-6c0-0.554 0.446-1 1-1z" style="paint-order:stroke fill markers"/>
  <path id="rect6" d="m2.5 5c-0.277 0-0.5 0.223-0.5 0.5v5c0 0.277 0.223 0.5 0.5 0.5h2.4688l0.25-1h-1.7188a1.0001 1.0001 0 0 1-0.83203-1.5547l2.2969-3.4453h-2.4648zm5.457 0.29883-0.17578 0.70117h0.21875v-0.5c0-0.0718-0.015946-0.13957-0.042969-0.20117zm-2.2891 2.2539-0.29883 0.44727h1.1152a1.0001 1.0001 0 0 1-0.81641-0.44727zm0.84766 0.44727a1.0001 1.0001 0 0 1 0.81641 0.44727l0.29883-0.44727h-1.1152z" style="paint-order:stroke fill markers"/>
  <path id="path8" d="m14 6v4a2 2 0 0 0 2-2 2 2 0 0 0-2-2z" enable-background="new" style="paint-order:stroke fill markers"/>
 </g>
 <path id="path6" d="m6.834 4-3.334 5h3l-0.75 3h0.41602l3.334-5h-3l0.75-3z" enable-background="new" fill="#363636"/>
</svg>
