<svg width="16" height="16" version="1.1" xmlns="http://www.w3.org/2000/svg">
 <g fill="#363636">
  <path d="m6.834 4-3.334 5h3l-0.75 3h0.41602l3.334-5h-3l0.75-3z" enable-background="new"/>
  <g fill-rule="evenodd">
   <path d="m2 3c-1.108 0-2 0.892-2 2v6c0 1.108 0.892 2 2 2h9c1.108 0 2-0.892 2-2v-6c0-1.108-0.892-2-2-2zm0 1h9c0.554 0 1 0.446 1 1v6c0 0.554-0.446 1-1 1h-9c-0.554 0-1-0.446-1-1v-6c0-0.554 0.446-1 1-1z" enable-background="new" style="paint-order:stroke fill markers"/>
   <path d="m2.5176 5c-0.28695 0-0.51758 0.24253-0.51758 0.54492v4.9102c0 0.3024 0.23063 0.54492 0.51758 0.54492h1.9648c0.28695 0 0.51758-0.24253 0.51758-0.54492v-0.45508h-1.5c-0.79859-1.711e-4 -1.2749-0.89013-0.83203-1.5547l2.1855-3.2773c-0.094089-0.10284-0.22421-0.16797-0.37109-0.16797h-1.9648z" enable-background="new" style="paint-order:stroke fill markers"/>
   <path d="m14 6v4a2 2 0 0 0 2-2 2 2 0 0 0-2-2z" enable-background="new" style="paint-order:stroke fill markers"/>
  </g>
 </g>
</svg>
