<svg width="16" height="16" version="1.1" xmlns="http://www.w3.org/2000/svg">
 <path d="m2.5195 5c-0.28791 0-0.51953 0.24253-0.51953 0.54492v4.9102c0 0.3024 0.23162 0.54492 0.51953 0.54492h2.4492l0.25-1h-1.7188c-0.79859-1.712e-4 -1.2749-0.89013-0.83203-1.5547l2.2969-3.4453z" fill="#363636" style="paint-order:stroke fill markers"/>
 <g fill="#363636">
  <path d="m6.834 4-3.334 5h3l-0.75 3h0.41602l3.334-5h-3l0.75-3z" enable-background="new"/>
  <path d="m2 3c-1.108 0-2 0.892-2 2v6c0 1.108 0.892 2 2 2h9c1.108 0 2-0.892 2-2v-6c0-1.108-0.892-2-2-2zm0 1h9c0.554 0 1 0.446 1 1v6c0 0.554-0.446 1-1 1h-9c-0.554 0-1-0.446-1-1v-6c0-0.554 0.446-1 1-1z" enable-background="new" fill-rule="evenodd" style="paint-order:stroke fill markers"/>
  <path d="m14 6v4a2 2 0 0 0 2-2 2 2 0 0 0-2-2z" enable-background="new" fill-rule="evenodd" style="paint-order:stroke fill markers"/>
 </g>
</svg>
