<svg width="16" height="16" version="1.1" xmlns="http://www.w3.org/2000/svg">
 <g id="g10" fill="#363636" fill-rule="evenodd">
  <path id="path4" d="m2 3c-1.108 0-2 0.892-2 2v6c0 1.108 0.892 2 2 2h9c1.108 0 2-0.892 2-2v-6c0-1.108-0.892-2-2-2h-9zm0 1h9c0.554 0 1 0.446 1 1v6c0 0.554-0.446 1-1 1h-9c-0.554 0-1-0.446-1-1v-6c0-0.554 0.446-1 1-1z" style="paint-order:stroke fill markers"/>
  <rect id="rect6" x="2" y="5" width="8" height="6" rx="0" ry=".5" fill="#363636" stroke-width=".94279" style="paint-order:stroke fill markers"/>
  <path id="path8" d="m14 6v4a2 2 0 0 0 2-2 2 2 0 0 0-2-2z" enable-background="new" style="paint-order:stroke fill markers"/>
 </g>
</svg>
