<svg width="16" height="16" xmlns="http://www.w3.org/2000/svg"><path d="M4 1C2.338 1 1 2.338 1 4v1h2V4c0-.554.446-1 1-1h8c.554 0 1 .446 1 1v6c0 .554-.446 1-1 1H9v2h3c1.662 0 3-1.338 3-3V4c0-1.662-1.338-3-3-3H4zM2.281 6C1.571 6 1 6.571 1 7.281v7.438c0 .71.571 1.28 1.281 1.28H6.72c.71 0 1.28-.57 1.28-1.28V7.28C8 6.571 7.43 6 6.72 6H2.28zm.13 1H3c0 .554.446 1 1 1h1c.554 0 1-.446 1-1h.59c.227 0 .41.182.41.41v7.11c0 .266-.214.48-.48.48H2.48a.479.479 0 01-.48-.48V7.41c0-.228.182-.41.41-.41zM9 14v2h4v-1c0-.554-.446-1-1-1H9z" fill="#363636"/></svg>