<svg width="16" height="16" version="1.1" xmlns="http://www.w3.org/2000/svg">
 <path d="m8 3.2c-1.836 0-3.367 1.202-3.938 2.844-1.722 0.218-3.062 1.673-3.062 3.456a3.5 3.5 0 0 0 3.5 3.5h7.7a2.8 2.8 0 1 0 0-5.6 4.2 4.2 0 0 0-4.2-4.2z" fill="#363636"/>
 <path d="m53 4.2a2.5 2.5 0 0 0-2.164 1.254 1.5 1.5 0 0 0-0.836-0.254 1.5 1.5 0 0 0-1.5 1.5 1.5 1.5 0 0 0 0.102 0.543 2 2 0 0 0-1.602 1.957 2 2 0 0 0 2 2h6a2 2 0 0 0 2-2 2 2 0 0 0-1.564-1.951 2.5 2.5 0 0 0 0.064-0.549 2.5 2.5 0 0 0-2.5-2.5z" fill="#fafafa" opacity=".6"/>
 <path d="m11.504 1.7 0.184 0.816 0.828 0.196-0.83 0.168-0.16 0.82-0.19-0.83-0.82-0.182 0.816-0.162zm2.496 1.5 0.277 1.225 1.239 0.29-1.244 0.255-0.24 1.23-0.286-1.244-1.23-0.272 1.224-0.246z" color="#000000" fill="#363636" style="font-feature-settings:normal;font-variant-alternates:normal;font-variant-caps:normal;font-variant-east-asian:normal;font-variant-ligatures:normal;font-variant-numeric:normal;font-variant-position:normal;font-variation-settings:normal;inline-size:0;isolation:auto;mix-blend-mode:normal;shape-margin:0;shape-padding:0;text-decoration-color:#000000;text-decoration-line:none;text-decoration-style:solid;text-indent:0;text-orientation:mixed;text-transform:none;white-space:normal"/>
</svg>
