<svg xmlns="http://www.w3.org/2000/svg" width="16" height="16.001"><path d="M12.266 10.772a.5.5 0 00-.193-.68l-.686-.396.2-.053a.5.5 0 10-.259-.965l-1.166.311-1.67-.964 1.668-.964 1.166.313a.5.5 0 10.26-.964l-.204-.054.69-.398a.496.496 0 00.204-.214c.224-.447-.275-.91-.704-.653l-.687.398.053-.2c.212-.666-.816-.942-.965-.26L9.66 6.195l-1.669.964-.001-1.977.854-.853a.498.498 0 00.091-.12c.282-.51-.392-1.008-.797-.588l-.148.146v-.793c.03-.695-1.028-.695-.999 0v.794l-.146-.148c-.472-.472-1.18.236-.708.708l.855.852-.001 1.978-1.844-1.064-.313-1.166c-.164-.658-1.152-.393-.966.259l.055.2-.511-.295c-.578-.333-1.078.533-.5.866l.51.295-.2.054c-.658.164-.393 1.152.259.966l1.166-.313 1.845 1.065L4.646 9.09l-1.165-.313c-.66-.2-.93.811-.258.966l.2.054-.512.296c-.617.321-.089 1.238.499.865l.514-.296-.055.201c-.163.569.623.899.915.384a.497.497 0 00.051-.124l.313-1.168 1.845-1.066v2.08l-.855.854c-.505.47.234 1.21.706.707l.149-.147v.59c-.008.533.712.705.947.228a.5.5 0 00.051-.228v-.589l.146.146a.5.5 0 10.708-.708l-.854-.853V8.89l1.67.964.313 1.166c.165.659 1.153.394.966-.258l-.054-.201.687.396a.5.5 0 00.692-.187z" fill="#363636" opacity=".6"/></svg>
