<svg width="16" height="16" version="1.1" xmlns="http://www.w3.org/2000/svg">
 <g fill-rule="evenodd">
  <path d="m2 3c-1.108 0-2 0.892-2 2v6c0 1.108 0.892 2 2 2h5.2637a4.5 4.5 0 0 1-0.23047-1h-5.0332c-0.554 0-1-0.446-1-1v-6c0-0.554 0.446-1 1-1h9c0.554 0 1 0.446 1 1v2.0312a4.5 4.5 0 0 1 1 0.23242v-2.2637c0-1.108-0.892-2-2-2h-9z" fill="#dedede" style="paint-order:stroke fill markers"/>
  <rect x="2" y="5" width="1" height="6" rx="0" ry=".54584" fill="#f55" stroke-width=".33333" style="paint-order:stroke fill markers"/>
  <path d="m14 6v1.7598a4.5 4.5 0 0 1 1.457 1.6074 2 2 0 0 0 0.54297-1.3672 2 2 0 0 0-2-2z" enable-background="new" fill="#dedede" style="paint-order:stroke fill markers"/>
 </g>
 <path d="m11.5 8a3.5 3.5 0 0 0-3.5 3.5 3.5 3.5 0 0 0 3.5 3.5 3.5 3.5 0 0 0 3.5-3.5 3.5 3.5 0 0 0-3.5-3.5zm-0.5 1h1v3h-1v-3zm0 4h1v1h-1v-1z" fill="#ff7f2a"/>
</svg>
