<svg width="16" height="16" version="1.1" xmlns="http://www.w3.org/2000/svg">
 <g transform="matrix(.8 0 0 .8 -1.7826 -1.2)" fill="#dedede">
  <path d="m13.594 5.125c-0.25424 0.11867-0.45328 0.33403-0.53125 0.625-3e-3 0.0105 2e-3 0.0208 0 0.0312-1.7851-0.0144-3.4163 1.1714-3.9062 3-6e-3 0.0206-0.0261 0.0419-0.0312 0.0625-0.51898 1.9369-1.5288 5.805-3.25 5.3438-0.11466-0.0307-0.2454 0.0537-0.28125 0.1875l-0.125 0.46875c-0.0358 0.13378 0.0103 0.28177 0.125 0.3125l11.188 2.9688c0.11467 0.0307 0.24541-0.0225 0.28125-0.15625l0.125-0.5c0.0358-0.13378-0.0416-0.25052-0.15625-0.28125-1.728-0.463-0.67515-4.3447-0.15625-6.2812 6e-3 -0.0204-5e-3 -0.0419 0-0.0625 0.12115-0.45213 0.15537-0.90892 0.125-1.3438-1.9395 0-3.5-1.5605-3.5-3.5 0-0.29885 0.0235-0.59799 0.0937-0.875zm-2.5938 12.5c0.0827 0.77146 0.95012 1.375 2 1.375 0.57062 0 1.0731-0.18127 1.4375-0.46875z" color="#dedede"/>
  <path class="info" d="m19 6a2 2 0 0 1-4 0 2 2 0 1 1 4 0z" color="#000000" opacity=".35"/>
 </g>
</svg>
