<svg width="16" height="16" version="1.1" xmlns="http://www.w3.org/2000/svg">
 <g fill="#dedede">
  <path d="m8 3c-2.8405-3e-7 -5.4324 1.0071-7.4863 2.6582a0.5 0.5 0 0 0-0.095703 0.072266 0.5 0.5 0 0 0-0.1543 0.35938 0.5 0.5 0 0 0 0.5 0.5 0.5 0.5 0 0 0 0.31836-0.11328c1.891-1.5388 4.2898-2.4766 6.918-2.4766 1.6262-2e-7 3.1643 0.36175 4.5488 1h1.4512a1.0001 1.0001 0 0 1 1 1v0.5293a0.5 0.5 0 0 0 0.23633 0.060547 0.5 0.5 0 0 0 0.5-0.5 0.5 0.5 0 0 0-0.1543-0.35938 0.5 0.5 0 0 0-0.095703-0.072266c-2.0539-1.6511-4.6459-2.6582-7.4863-2.6582zm0 3c-2.0731 0-3.9681 0.71724-5.4883 1.8965a0.5 0.5 0 0 0-0.10156 0.074219 0.5 0.5 0 0 0-0.15625 0.36133 0.5 0.5 0 0 0 0.5 0.5 0.5 0.5 0 0 0 0.32031-0.11523c1.3588-1.0688 3.0627-1.7168 4.9258-1.7168 1.0644-1e-7 2.0742 0.21699 3 0.59766v-1.0723c-0.93695-0.33797-1.9448-0.52539-3-0.52539zm0 3c-1.3525-2e-7 -2.5832 0.46892-3.5859 1.2246-0.11034 0.09497-0.16795 0.23918-0.16797 0.38477 0 0.27614 0.22386 0.5 0.5 0.5 0.12436-3.26e-4 0.24413-0.046979 0.33594-0.13086 0.82215-0.60306 1.8199-0.97852 2.918-0.97852 1.0981-2e-7 2.0958 0.37546 2.918 0.97852 0.05986 0.05469 0.13378 0.086905 0.21094 0.10742l-0.12109-0.96094a1.0001 1.0001 0 0 1-0.007812-0.125v-0.15234c-0.88317-0.5246-1.8974-0.84766-3-0.84766zm0 3a1 1 0 0 0-1 1 1 1 0 0 0 1 1 1 1 0 0 0 1-1 1 1 0 0 0-1-1z" fill-rule="evenodd" style="paint-order:stroke fill markers"/>
 </g>
 <path class="warning" d="M12 6v4l.25 2h1.5l.25-2V6zm0 7v2h2v-2z" fill="#f55"/>
</svg>
