<svg width="16" height="16" version="1.1" xmlns="http://www.w3.org/2000/svg">
 <path d="m8 0.88514a1 1 0 0 0-0.994 1.1 4.988 4.988 0 0 0-4.006 4.9v4.5l-2 2v0.5h14v-0.5l-2-2v-4.5a4.987 4.987 0 0 0-4.006-4.9 1 1 0 0 0-0.994-1.1zm0 2a4 4 0 0 1 4 4v4.922l1 1.078h-10l1-1.078v-4.922a4 4 0 0 1 4-4zm-1.73 12a2 2 0 0 0 1.73 1 2 2 0 0 0 1.729-1z" fill="#dedede" opacity=".35" stroke-linecap="round" stroke-width="3"/>
 <rect transform="rotate(60)" x="1.9282" y="-3.4282" width="18" height="1" rx=".5" ry=".5" fill="#dedede"/>
</svg>
