<svg xmlns="http://www.w3.org/2000/svg" viewBox="0 0 16 16">
 <path style="fill:#ececec;fill-opacity:1;stroke-width:1.285" d="m 2 6 l 0 6 c 0 1.662 1.338 3 3 3 l 5 0 c 1.501 0 2.728 -1.095 2.953 -2.531 0.575 -0.084 1.041 -0.318 1.389 -0.709 c 0.442 -0.503 0.658 -1.214 0.658 -2.133 0 -0.577 -0.106 -1.086 -0.316 -1.518 -0.211 -0.432 -0.516 -0.769 -0.918 -1 -0.23 -0.132 -0.49 -0.216 -0.766 -0.273 l 0 -0.832 z m 11 1.439 c 0.311 0.098 0.58 0.264 0.795 0.516 0.347 0.406 0.523 0.968 0.523 1.676 0 0.733 -0.171 1.302 -0.508 1.703 c -0.211 0.249 -0.486 0.41 -0.811 0.504 z"/>
</svg>
