
<!-- Generator: Adobe Illustrator 15.1.0, SVG Export Plug-In . SVG Version: 6.00 Build 0)  -->
<svg xmlns="http://www.w3.org/2000/svg" viewBox="0 0 16 16" style="enable-background:new 0 0 24 24">
 <path d="m 15.563 0 l -4.289 5.227 c 0.422 0.261 0.711 0.723 0.723 1.242 l 0.586 0.531 l 3.418 -6.688 l -0.438 -0.313 z m -12.563 4.396 l -3 2.604 l 0 1 l 3 -1 l 1 4 l 0 -4.5 c 0 -0.31 0.1 -0.6 0.268 -0.842 l -0.268 -0.66 l -1 -0.602 z m 5 1.604 l -0.082 0.041 c 0.049 0.146 0.082 0.299 0.082 0.459 c 0 -0.17 0.035 -0.333 0.09 -0.486 c -0.028 -0.002 -0.064 -0.014 -0.09 -0.014 z m 4 2 l 0 4.5 c 0 0.814 -0.686 1.5 -1.5 1.5 l -1 0 c -0.814 0 -1.5 -0.686 -1.5 -1.5 c 0 0.401 -0.169 0.769 -0.436 1.041 l 8.133 2.459 l 0.275 0 l 0.027 -0.227 l -3 -6.773 l -1 -1 z m -7.313 5.752 l 0.313 1.248 l 1.682 -1.02 c -0.06 0.008 -0.12 0.02 -0.182 0.02 l -1 0 c -0.297 0 -0.577 -0.092 -0.813 -0.248 z" style="fill:#ececec;opacity:0.4;fill-opacity:1;stroke-width:0.744"/>
 <rect rx="0.5" width="2" height="7" x="5" y="6" style="fill:#ececec;opacity:1;fill-opacity:1;stroke:none;fill-rule:nonzero"/>
 <rect rx="0.5" width="2" height="7" x="9" y="6" style="fill:#ececec;opacity:1;fill-opacity:1;stroke:none;fill-rule:nonzero"/>
</svg>
