
<!-- Generator: Adobe Illustrator 15.1.0, SVG Export Plug-In . SVG Version: 6.00 Build 0)  -->
<svg viewBox="0 0 16 16" style="enable-background:new 0 0 24 24" xmlns="http://www.w3.org/2000/svg">
 <polygon points="22.172,0.866 22.76,1.286 18.162,10.28 16.033,8.347 " style="fill:#ececec;opacity:0.4;fill-opacity:1" transform="matrix(0.7435 0 0 0.74353 -0.922 -0.644)"/>
 <path style="fill:#ececec;fill-opacity:1;stroke-width:1.158" d="m 3 7 -3 1 l 0 -1 l 3 -2.603 0.999 0.602 3.46 8.512 -2.459 1.489 z"/>
 <polyline points="22.76,22.08 18.725,12.97 17.379,11.625 10.359,17.238 11.273,19.037 22.354,22.385     22.723,22.385   " style="fill:#ececec;opacity:0.4;fill-opacity:1" transform="matrix(0.7435 0 0 0.74353 -0.922 -0.644)"/>
 <path style="fill:#ececec;opacity:1;fill-opacity:1;stroke-width:1.158" d="m 7.583 9.999 -1.562 -2.999 1.979 -1 c 0.999 0 2.999 1 2.999 1 l -3.416 2.999"/>
</svg>
