<svg width="16" height="16" version="1.1" viewBox="0 0 36 36" xmlns="http://www.w3.org/2000/svg">
 <path d="m15.8 0a2.25 2.25 0 00-2.25 2.25 2.25 2.25 0 002.25 2.25c5 0 9 4 9 9a2.25 2.25 0 002.25 2.25 2.25 2.25 0 002.25-2.25c0-7.43-6.07-13.5-13.5-13.5zm-2.25 6.75c-7.43 0-13.5 6.07-13.5 13.5a2.25 2.25 0 002.25 2.25 2.25 2.25 0 002.25-2.25c0-5 4-9 9-9a2.25 2.25 0 002.25-2.25 2.25 2.25 0 00-2.25-2.25zm20.2 6.75a2.25 2.25 0 00-2.25 2.25c0 5-4 9-9 9a2.25 2.25 0 00-2.25 2.25 2.25 2.25 0 002.25 2.25c7.43 0 13.5-6.07 13.5-13.5a2.25 2.25 0 00-2.25-2.25zm-24.8 6.75a2.25 2.25 0 00-2.25 2.25c0 7.43 6.07 13.5 13.5 13.5a2.25 2.25 0 002.25-2.25 2.25 2.25 0 00-2.25-2.25c-5 0-9-4-9-9a2.25 2.25 0 00-2.25-2.25z" style="fill:#ededed"/>
</svg>
