<svg viewBox="0 0 16 16" xmlns="http://www.w3.org/2000/svg">
 <path d="M 8 0 A 8 8 0 0 0 0 8 8 8 0 0 0 0.010286 8.290286 c 0.271 -0.403 0.638 -0.888 1.056 -1.274 0.867 -0.801 2.047 -1.489 3.511 -1.726 0.363 -0.058 0.738 -0.089 1.123 -0.088 2.691 0.005 5.905 1.56 9.568 6.123 A 8 8 0 0 0 16 8 8 8 0 0 0 8 0 M 5.703 7.127 c -0.296 -0.008 -0.575 0.013 -0.833 0.054 C 3.835 7.347 3 7.837 2.365 8.425 1.742 9 0.671 10.403 0.511 10.816 A 8 8 0 0 0 8 16 8 8 0 0 0 14.243429 12.994286 C 11.974 10.629 8.946 7.291 5.709 7.131" style="fill:#ececec;opacity:1;fill-opacity:1;stroke:none;fill-rule:nonzero"/>
</svg>
