<svg xmlns="http://www.w3.org/2000/svg" viewBox="0 0 16 16" style="enable-background:new 0 0 512 512">
 <path d="m 9.763 8 c 0 0.932 -0.756 1.688 -1.688 1.688 -0.933 0 -1.688 -0.756 -1.688 -1.688 0 -0.933 0.756 -1.688 1.688 -1.688 0.932 0 1.688 0.756 1.688 1.688 z m 5.964 -0.275 c 0 0 -2.739 5.275 -7.718 5.275 -4.624 0 -7.736 -5.275 -7.736 -5.275 0 0 2.864 -4.725 7.736 -4.725 4.955 0 7.718 4.725 7.718 4.725 z m -4.651 0.275 c 0 -1.657 -1.344 -3 -3 -3 -1.657 0 -3 1.344 -3 3 0 1.658 1.344 3 3 3 1.658 0 3 -1.344 3 -3 z" style="fill:#ececec;fill-opacity:1;stroke-width:1"/>
</svg>
