<svg viewBox="0 0 16 16" xmlns="http://www.w3.org/2000/svg">
 <rect height="2" style="fill:#ececec;opacity:1;fill-opacity:1;stroke:none;fill-rule:nonzero" x="3" y="11" width="10"/>
 <path style="fill:#ececec;opacity:1;fill-opacity:1;stroke:none;fill-rule:nonzero" d="M 3,1 C 1.892,1 1,1.892 1,3 v 10 c 0,1.108 0.892,2 2,2 h 10 c 1.108,0 2,-0.892 2,-2 V 3 C 15,1.892 14.108,1 13,1 Z m 0,1 h 10 c 0.554,0 1,0.446 1,1 v 10 c 0,0.554 -0.446,1 -1,1 H 3 C 2.446,14 2,13.554 2,13 V 3 C 2,2.446 2.446,2 3,2 Z"/>
</svg>
