<svg xmlns="http://www.w3.org/2000/svg" viewBox="0 0 16 16">
 <g transform="matrix(1.15792 0 0 1.26433 -1.253 -63.07)" style="stroke-width:0.826">
  <path d="m 2.809 56.14 l 0 3.242 l 10.363 0 l 0 -2.01 c 0.037 -1.624 -4.643 -4.595 -5.075 -3.41 -0.491 1.343 -1.453 3.896 -2.431 3.746 -0.731 -0.134 -1.46 -0.268 -2.857 -1.566" style="fill:#ececec;fill-opacity:1;stroke:none"/>
 </g>
 <path d="m 2 2 c -1.108 0 -2 0.892 -2 2 l 0 8 c 0 1.108 0.892 2 2 2 l 12 0 c 1.108 0 2 -0.892 2 -2 l 0 -8 c 0 -1.108 -0.892 -2 -2 -2 l -12 0 z m 0 1 l 12 0 c 0.554 0 1 0.446 1 1 l 0 8 c 0 0.554 -0.446 1 -1 1 l -12 0 c -0.554 0 -1 -0.446 -1 -1 l 0 -8 c 0 -0.554 0.446 -1 1 -1 z" style="fill:#ececec;opacity:1;fill-opacity:1;stroke:none;fill-rule:nonzero"/>
</svg>
