<svg xmlns="http://www.w3.org/2000/svg" viewBox="0 0 32 32">
 <rect style="fill:#fffdf0;fill-opacity:1;stroke:none" height="2.971" width="7.893" y="13.997" x="6.249"/>
 <rect rx="1.957" style="fill:#f57c00;fill-opacity:1;stroke:none" height="12" width="18" y="12.997" x="2.999" ry="2.187"/>
 <path style="fill:#fff;opacity:0.2;fill-opacity:1;stroke:none" d="m 4.956 12.997 c -1.084 0 -1.957 1.115 -1.957 2.5 l 0 1 c 0 -1.385 0.873 -2.5 1.957 -2.5 l 14.09 0 c 1.084 0 1.957 1.115 1.957 2.5 l 0 -1 c 0 -1.385 -0.873 -2.5 -1.957 -2.5 z"/>
 <path style="fill:#ffb300;fill-opacity:1;stroke:none" d="m 4.956 15.997 3.13 0 c 4.304 -0.444 3.522 -5 6.261 -5 l 4.696 0 c 1.084 0 1.957 0.991 1.957 2.222 l 0 9.555 c 0 1.231 -0.873 2.222 -1.957 2.222 l -14.09 0 c -1.084 0 -1.957 -0.991 -1.957 -2.222 l 0 -4.222 c 0 -1.333 0.783 -2.555 1.957 -2.556 z"/>
 <path style="fill:#000;opacity:0.15;fill-opacity:1;stroke:none" d="m 2.999 21.887 0 0.889 c 0 1.231 0.873 2.222 1.957 2.222 l 14.09 0 c 1.084 0 1.957 -0.991 1.957 -2.222 l 0 -0.889 c 0 1.231 -0.873 2.111 -1.957 2.111 l -14.09 0 c -1.084 0 -1.957 -0.88 -1.957 -2.111 z"/>
 <path style="fill:#fff;opacity:0.5;fill-opacity:1;stroke:none" d="m 14.348 10.998 c -1.238 0 -1.759 0.939 -2.354 2 l -7.04 0 c -1.084 0 -1.957 0.976 -1.957 2.188 l 0 0.313 l 0 1 l 0 2 c 0 0.018 -0.004 0.035 -0.004 0.053 l 0 4.221 c 0 0.012 0.004 0.023 0.004 0.035 c 0.002 0.141 0.013 0.281 0.037 0.414 c 0.124 0.724 0.563 1.32 1.154 1.6 c 0.07 0.033 0.145 0.052 0.219 0.076 c 0.051 0.017 0.099 0.041 0.152 0.053 c 0.126 0.029 0.256 0.045 0.391 0.045 c 0.001 0 0.003 0 0.004 0 l 14.09 0 c 0.135 0 0.267 -0.016 0.395 -0.045 c 0 0 0.002 0 0.002 0 c 0.088 -0.02 0.171 -0.055 0.254 -0.088 c 0.036 -0.015 0.076 -0.022 0.111 -0.039 c 0.026 -0.012 0.049 -0.031 0.074 -0.045 c 0.089 -0.047 0.177 -0.095 0.258 -0.156 c 0.001 -0.001 0.002 -0.003 0.004 -0.004 c 0.418 -0.317 0.719 -0.81 0.82 -1.385 c 0.025 -0.137 0.035 -0.28 0.037 -0.426 c 0 -0.011 0.004 -0.022 0.004 -0.033 l 0 -0.889 c 0 0.007 -0.002 0.014 -0.002 0.021 l 0 -5.438 c 0 0.009 0.002 0.017 0.002 0.025 l 0 -1 c 0 -0.009 -0.002 -0.017 -0.002 -0.025 l 0 -2.252 c 0 -1.231 -0.873 -2.223 -1.957 -2.223 l -4.697 0 z"/>
 <rect style="fill:#fffdf0;fill-opacity:1;stroke:none" height="2.971" width="7.893" y="4.998" x="14.25"/>
 <rect rx="1.957" style="fill:#f57c00;fill-opacity:1;stroke:none" height="12" width="18" y="3.998" x="11" ry="2.187"/>
 <path style="fill:#fff;opacity:0.2;fill-opacity:1;stroke:none" d="m 12.957 3.998 c -1.084 0 -1.957 1.115 -1.957 2.5 l 0 1 c 0 -1.385 0.873 -2.5 1.957 -2.5 l 14.09 0 c 1.084 0 1.957 1.115 1.957 2.5 l 0 -1 c 0 -1.385 -0.873 -2.5 -1.957 -2.5 z"/>
 <path style="fill:#ffb300;fill-opacity:1;stroke:none" d="m 12.957 6.998 3.13 0 c 4.304 -0.444 3.522 -5 6.261 -5 l 4.696 0 c 1.084 0 1.957 0.991 1.957 2.222 l 0 9.555 c 0 1.231 -0.873 2.222 -1.957 2.222 l -14.09 0 c -1.084 0 -1.957 -0.991 -1.957 -2.222 l 0 -4.222 c 0 -1.333 0.783 -2.555 1.957 -2.556 z"/>
 <path style="fill:#000;opacity:0.15;fill-opacity:1;stroke:none" d="m 11 12.888 0 0.889 c 0 1.231 0.873 2.222 1.957 2.222 l 14.09 0 c 1.084 0 1.957 -0.991 1.957 -2.222 l 0 -0.889 c 0 1.231 -0.873 2.111 -1.957 2.111 l -14.09 0 c -1.084 0 -1.957 -0.88 -1.957 -2.111 z"/>
 <path style="fill:#4caf50;fill-opacity:1" d="m 28 16.998 -6 0 0 -6 -5 0 0 6 -6 0 0 5 6 0 0 6 5 0 0 -6 6 0 z"/>
</svg>
