<svg xmlns="http://www.w3.org/2000/svg" viewBox="0 0 32 32">
 <defs>
  <radialGradient r="24" cy="40.5" cx="24" gradientTransform="matrix(0.83333334,0,0,0.13888885,-4,1041.4039)" gradientUnits="userSpaceOnUse" id="radialGradient3152">
   <stop style="stop-color:#000;stop-opacity:1"/>
   <stop offset="1" style="stop-color:#000;stop-opacity:0.196"/>
  </radialGradient>
 </defs>
 <g transform="translate(0,-1020.3622)">
  <path d="m 16 1043.7 c -6.551 0 -12.352 0.522 -16 1.333 l 0 4 c 3.648 0.811 9.449 1.333 16 1.333 6.551 0 12.352 -0.522 16 -1.333 l 0 -4 c -3.648 -0.811 -9.449 -1.333 -16 -1.333 z" style="fill:url(#radialGradient3152);opacity:0.1;fill-opacity:1;stroke:none"/>
  <rect width="30" height="21" x="1" y="1027.36" rx="3.261" ry="3.281" style="fill:#ec407a;fill-opacity:1;stroke:none"/>
  <path d="m 4.261 1027.03 c -1.807 0 -3.261 1.487 -3.261 3.333 l 0 1.333 c 0 -1.847 1.454 -3.333 3.261 -3.333 l 23.478 0 c 1.807 0 3.261 1.487 3.261 3.333 l 0 -1.333 c 0 -1.847 -1.454 -3.333 -3.261 -3.333 l -23.478 0 z" style="fill:#fff;opacity:0.2;fill-opacity:1;stroke:none"/>
  <rect width="20" height="17" x="6" y="1023.36" ry="1.36" rx="1.333" style="fill:#eae7d1;fill-opacity:1;stroke:none"/>
  <rect y="1032.36" x="8" height="1" width="16" style="fill:#7a7a68;fill-opacity:1;stroke:none"/>
  <rect y="1028.36" x="8" height="1" width="16" style="fill:#7a7a68;fill-opacity:1;stroke:none"/>
  <rect width="16" height="1" x="8" y="1030.36" style="fill:#7a7a68;fill-opacity:1;stroke:none"/>
  <rect width="16" height="1" x="8" y="1034.36" style="fill:#7a7a68;fill-opacity:1;stroke:none"/>
  <path d="m 4.261 1036.36 5.217 0 c 7.174 -0.5 5.87 -6 10.435 -6 l 7.826 0 c 1.807 0 3.261 1.115 3.261 2.5 l 0 13 c 0 1.385 -1.454 2.5 -3.261 2.5 l -23.478 0 c -1.807 0 -3.261 -1.115 -3.261 -2.5 l 0 -7 c 0 -1.5 1.304 -2.5 3.261 -2.5 z" style="fill:#f06292;fill-opacity:1;stroke:none"/>
  <rect width="16" height="1" x="8" y="1026.36" style="fill:#7a7a68;fill-opacity:1;stroke:none"/>
  <path d="m 1 1043.7 0 1.333 c 0 1.847 1.454 3.333 3.261 3.333 l 23.478 0 c 1.807 0 3.261 -1.487 3.261 -3.333 l 0 -1.333 c 0 1.847 -1.454 3.667 -3.261 3.667 l -23.478 0 c -1.807 0 -3.261 -1.82 -3.261 -3.667 z" style="fill:#000;opacity:0.15;fill-opacity:1;stroke:none"/>
  <path d="m 29.999 1041.36 c 0.044 2.129 -1.09 4.115 -2.963 5.193 -1.875 1.077 -4.197 1.077 -6.071 0 -1.874 -1.078 -3.01 -3.065 -2.963 -5.193 -0.044 -2.129 1.09 -4.115 2.963 -5.192 1.874 -1.078 4.195 -1.078 6.071 0 1.874 1.077 3.01 3.063 2.963 5.192 z" style="fill:#4caf50;fill-opacity:1;fill-rule:evenodd"/>
  <path d="m 27.28 1037.59 c -0.127 0.045 -0.234 0.13 -0.308 0.243 l -3.27 3.166 -2.041 -1.948 c -0.082 -0.271 -0.338 -0.45 -0.623 -0.435 -0.284 0.014 -0.522 0.221 -0.573 0.5 -0.05 0.277 0.098 0.552 0.359 0.665 l 2.458 2.436 c 0.236 0.215 0.601 0.215 0.836 0 l 3.689 -3.653 c 0.144 -0.189 0.164 -0.445 0.05 -0.653 -0.114 -0.21 -0.34 -0.334 -0.579 -0.319 z" style="fill:#fff"/>
 </g>
</svg>
