<svg xmlns="http://www.w3.org/2000/svg" viewBox="0 0 16 16">
 <path d="m 2 6 l 0 6 c 0 1.662 1.338 3 3 3 l 5 0 c 1.501 0 2.728 -1.095 2.953 -2.531 0.575 -0.084 1.041 -0.318 1.389 -0.709 c 0.442 -0.503 0.658 -1.214 0.658 -2.133 0 -0.577 -0.106 -1.086 -0.316 -1.518 -0.211 -0.432 -0.516 -0.769 -0.918 -1 -0.23 -0.132 -0.49 -0.216 -0.766 -0.273 l 0 -0.832 z m 11 1.439 c 0.311 0.098 0.58 0.264 0.795 0.516 0.347 0.406 0.523 0.968 0.523 1.676 0 0.733 -0.171 1.302 -0.508 1.703 c -0.211 0.249 -0.486 0.41 -0.811 0.504 z" style="fill:#ececec;fill-opacity:1;stroke-width:1.285"/>
 <path d="m 4.37 0.054 c 0.015 -0.045 -0.592 0.166 -0.949 0.351 -0.176 0.09 -0.567 0.392 -0.672 0.508 -0.105 0.121 -0.195 0.256 -0.261 0.397 -0.06 0.135 -0.111 0.292 -0.116 0.437 -0.01 0.15 0.01 0.311 0.066 0.452 0.06 0.145 0.171 0.281 0.281 0.402 0.111 0.131 0.261 0.236 0.387 0.351 c 0.126 0.116 0.266 0.221 0.356 0.356 0.095 0.131 0.171 0.281 0.2 0.432 0.035 0.135 0.021 0.287 -0.005 0.427 c -0.03 0.135 -0.081 0.276 -0.156 0.397 -0.081 0.135 -0.181 0.261 -0.301 0.366 -0.131 0.121 -0.467 0.266 -0.452 0.311 0.01 0.04 0.522 -0.116 0.688 -0.176 0.145 -0.055 0.532 -0.242 0.653 -0.332 0.116 -0.085 0.236 -0.176 0.332 -0.281 0.085 -0.1 0.176 -0.216 0.211 -0.337 0.04 -0.135 0.035 -0.287 0.01 -0.422 -0.03 -0.15 -0.095 -0.301 -0.176 -0.442 -0.076 -0.14 -0.181 -0.266 -0.287 -0.392 -0.105 -0.131 -0.226 -0.251 -0.347 -0.366 -0.111 -0.121 -0.256 -0.221 -0.351 -0.347 -0.095 -0.131 -0.206 -0.276 -0.231 -0.427 -0.026 -0.14 0.026 -0.296 0.081 -0.437 0.055 -0.14 0.156 -0.276 0.256 -0.402 0.09 -0.121 0.216 -0.221 0.321 -0.332 0.156 -0.166 0.422 -0.387 0.461 -0.497 z" style="fill:#ececec;fill-opacity:1;stroke-width:1.285"/>
 <path d="m 7.809 0.054 c 0.015 -0.045 -0.592 0.166 -0.949 0.351 -0.176 0.09 -0.572 0.392 -0.672 0.508 -0.105 0.121 -0.195 0.256 -0.261 0.397 -0.06 0.135 -0.111 0.292 -0.116 0.437 c -0.01 0.15 0.01 0.311 0.066 0.452 0.06 0.145 0.171 0.281 0.276 0.402 0.116 0.131 0.266 0.236 0.392 0.351 0.126 0.116 0.266 0.221 0.356 0.356 0.095 0.131 0.166 0.281 0.2 0.432 0.03 0.135 0.021 0.287 -0.005 0.427 c -0.03 0.135 -0.081 0.276 -0.156 0.397 -0.081 0.135 -0.181 0.261 -0.301 0.366 -0.131 0.121 -0.467 0.266 -0.456 0.311 0.015 0.04 0.527 -0.116 0.693 -0.176 0.145 -0.055 0.527 -0.242 0.653 -0.332 0.116 -0.085 0.236 -0.176 0.332 -0.281 0.085 -0.1 0.176 -0.216 0.211 -0.337 0.04 -0.135 0.035 -0.287 0.01 -0.422 -0.03 -0.15 -0.095 -0.301 -0.176 -0.442 -0.076 -0.14 -0.181 -0.266 -0.287 -0.392 -0.105 -0.131 -0.226 -0.251 -0.347 -0.366 -0.116 -0.121 -0.256 -0.221 -0.351 -0.347 -0.1 -0.131 -0.206 -0.276 -0.231 -0.427 -0.026 -0.14 0.026 -0.296 0.081 -0.437 0.055 -0.14 0.156 -0.276 0.256 -0.402 0.09 -0.121 0.216 -0.221 0.321 -0.332 0.156 -0.166 0.422 -0.387 0.461 -0.497 z" style="fill:#ececec;fill-opacity:1;stroke-width:1.285"/>
 <path d="m 11.254 0.054 c 0.015 -0.045 -0.592 0.166 -0.949 0.351 -0.176 0.09 -0.572 0.392 -0.672 0.508 -0.105 0.121 -0.195 0.256 -0.261 0.397 -0.06 0.135 -0.111 0.292 -0.121 0.437 c -0.005 0.15 0.01 0.311 0.071 0.452 0.055 0.145 0.166 0.281 0.276 0.402 0.116 0.131 0.266 0.236 0.392 0.351 0.126 0.116 0.266 0.221 0.356 0.356 0.095 0.131 0.166 0.281 0.2 0.432 0.03 0.135 0.021 0.287 -0.005 0.427 -0.03 0.135 -0.085 0.276 -0.156 0.397 -0.081 0.135 -0.181 0.261 -0.301 0.366 -0.135 0.121 -0.472 0.266 -0.456 0.311 0.015 0.04 0.527 -0.116 0.693 -0.176 0.145 -0.055 0.527 -0.242 0.653 -0.332 0.116 -0.085 0.236 -0.176 0.326 -0.281 0.09 -0.1 0.181 -0.216 0.216 -0.337 0.035 -0.135 0.035 -0.287 0.01 -0.422 c -0.029 -0.15 -0.1 -0.301 -0.176 -0.442 -0.076 -0.14 -0.181 -0.266 -0.287 -0.392 -0.105 -0.131 -0.226 -0.251 -0.347 -0.366 -0.116 -0.121 -0.256 -0.221 -0.351 -0.347 -0.1 -0.131 -0.206 -0.276 -0.231 -0.427 c -0.026 -0.14 0.026 -0.296 0.076 -0.437 0.06 -0.14 0.161 -0.276 0.261 -0.402 0.09 -0.121 0.216 -0.221 0.321 -0.332 0.156 -0.166 0.422 -0.387 0.461 -0.497 z" style="fill:#ececec;fill-opacity:1;stroke-width:1.285"/>
</svg>
