
<!-- Generator: Adobe Illustrator 15.1.0, SVG Export Plug-In . SVG Version: 6.00 Build 0)  -->
<svg style="enable-background:new 0 0 24 24" xmlns="http://www.w3.org/2000/svg" viewBox="0 0 16 16">
 <polygon style="fill:#ececec;opacity:0.4;fill-opacity:1" transform="matrix(0.7435 0 0 0.74364 -0.922 -0.644)" points="16.033,8.347 22.172,0.866 22.76,1.286 18.162,10.28 "/>
 <path style="fill:#ececec;fill-opacity:1;stroke-width:1.158" d="m 3 7 -3 1 l 0 -1 l 3 -2.603 0.999 0.602 3.46 8.513 -2.459 1.489 z"/>
 <path style="fill:#ececec;opacity:1;fill-opacity:1;stroke-width:1.158" d="m 13.75 10.695 -0.75 -1.693 -1 -1 -2.61 2.087 l -2.61 2.087 0.68 1.338 2.06 0.622 2.06 0.622 2.06 0.622"/>
 <path style="fill:#ececec;opacity:1;fill-opacity:1;stroke-width:1.158" d="m 7.583 10 -1.562 -2.999 1.979 -1 c 0.999 0 2.999 1 2.999 1 l -3.416 2.999"/>
 <path style="fill:#ececec;opacity:0.4;fill-opacity:1;stroke-width:1.158" d="m 16 15.775 -3 -6.775 -1 -1 -2.61 2.087 l -2.61 2.087 0.68 1.338 2.06 0.622 2.06 0.622 l 4.12 1.245 l 0.274 0"/>
</svg>
