
<!-- Generator: Adobe Illustrator 15.1.0, SVG Export Plug-In . SVG Version: 6.00 Build 0)  -->
<svg xmlns="http://www.w3.org/2000/svg" viewBox="0 0 16 16" style="enable-background:new 0 0 24 24">
 <path style="fill:#ececec;fill-opacity:1;stroke-width:0.744" d="m 15.563 0 l -4.564 5.563 l 1.584 1.438 l 3.418 -6.688 l -0.438 -0.313 z m -12.563 4.396 l -3 2.604 l 0 1 l 3 -1 l 2 8 l 0 -3 l 1.846 0 l -0.406 -1 l -1.439 0 l 0 -2 l 0 -1 l 0.221 0 l -1.221 -3 l -1 -0.602 z m 7 2.16 l 0 1.318 l 0.998 -0.875 c 0 0 -0.473 -0.224 -0.998 -0.443 z m 2 1.443 l -2 1.6 l 0 2.4 l 2 0 l 0 2.883 l 3.697 1.117 l 0.275 0 l 0.027 -0.227 l -3 -6.773 l -1 -1 z"/>
 <path style="fill:#ececec;opacity:1;fill-opacity:1;stroke:none;fill-rule:evenodd" d="M 6,14 V 13 H 8 V 10 H 6 V 9 l 3,4e-7 V 13 h 2 v 1 z"/>
 <rect x="7" y="6" height="2" width="2" style="fill:#ececec;opacity:1;fill-opacity:1;stroke:none;fill-rule:nonzero"/>
</svg>
