<svg viewBox="0 0 16 16" xmlns="http://www.w3.org/2000/svg">
 <path d="m 15.996 13.12 c 0 0.817 -0.301 1.504 -0.902 2.052 -0.602 0.553 -1.348 0.828 -2.24 0.828 -1.026 0 -1.922 -0.349 -2.685 -1.042 l -8.879 -8.127 c -0.859 -0.806 -1.29 -1.75 -1.29 -2.841 0 -1.107 0.419 -2.052 1.257 -2.826 0.837 -0.774 1.859 -1.161 3.072 -1.161 c 1.203 0 2.245 0.392 3.121 1.181 l 6.916 6.343 c 0.076 0.07 0.113 0.15 0.113 0.231 0 0.113 -0.113 0.274 -0.344 0.488 -0.237 0.209 -0.414 0.316 -0.532 0.316 -0.102 0 -0.188 -0.032 -0.263 -0.102 l -6.93 -6.36 c -0.602 -0.538 -1.29 -0.806 -2.068 -0.806 c -0.806 0 -1.488 0.263 -2.046 0.789 -0.553 0.521 -0.832 1.155 -0.832 1.891 0 0.736 0.29 1.364 0.87 1.896 l 8.868 8.138 c 0.479 0.44 1.031 0.66 1.654 0.66 0.488 0 0.891 -0.144 1.214 -0.44 0.316 -0.296 0.479 -0.66 0.479 -1.112 0 -0.569 -0.237 -1.074 -0.719 -1.515 l -6.639 -6.086 c -0.199 -0.166 -0.43 -0.253 -0.688 -0.253 c -0.22 0 -0.403 0.07 -0.547 0.199 -0.144 0.135 -0.215 0.301 -0.215 0.505 0 0.22 0.091 0.43 0.285 0.617 l 4.683 4.292 c 0.076 0.07 0.118 0.144 0.118 0.231 0 0.113 -0.118 0.274 -0.355 0.494 -0.237 0.215 -0.419 0.322 -0.538 0.322 -0.091 0 -0.177 -0.032 -0.253 -0.102 l -4.689 -4.297 c -0.479 -0.425 -0.719 -0.946 -0.719 -1.558 c 0 -0.575 0.22 -1.059 0.656 -1.456 0.43 -0.397 0.961 -0.597 1.584 -0.597 0.671 0 1.24 0.22 1.702 0.66 l 6.644 6.08 c 0.763 0.688 1.139 1.504 1.139 2.46 z" style="fill:#ececec;fill-opacity:1;stroke-width:1"/>
</svg>
