<svg height="16" width="16" viewBox="0 0 4.5155557 4.5155557" xmlns="http://www.w3.org/2000/svg">
 <path d="m 7.252 5 c -0.675 0 -1.252 0.577 -1.252 1.252 l 0 4.496 c 0 0.675 0.577 1.252 1.252 1.252 l 2.748 0 l 0 2 l -3 0 l 0 2 l 8 0 l 0 -2 l -3 0 l 0 -2 l 2.748 0 c 0.675 0 1.252 -0.577 1.252 -1.252 l 0 -4.496 c 0 -0.675 -0.577 -1.252 -1.252 -1.252 l -7.496 0 z m 1.748 2 l 4 0 c 0.554 0 1 0.446 1 1 l 0 1 c 0 0.554 -0.446 1 -1 1 l -4 0 c -0.554 0 -1 -0.446 -1 -1 l 0 -1 c 0 -0.554 0.446 -1 1 -1 z" style="fill:#ececec;fill-opacity:1;color:#000;stroke-width:3.543" transform="matrix(0.28222 0 0 0.28222 0 0)"/>
 <path d="M 1.2519531,0 C 0.5767505,0 0,0.57675012 0,1.2519531 V 5.7480469 C 0,6.4232499 0.5767505,7 1.2519531,7 H 4 V 9 H 1 v 2 H 5 L 5,6.2519531 C 5,5.7883259 5.1411268,5.3579643 5.3808594,5 H 3 C 2.446,5 2,4.5539999 2,4 V 3 C 2,2.446 2.446,2 3,2 h 4 c 0.5539999,0 1,0.446 1,1 v 1 h 2 V 1.2519531 C 10,0.57675012 9.4232499,0 8.7480469,0 Z" style="fill:#ececec;fill-opacity:1;color:#000;stroke-width:3.543" transform="matrix(0.28222 0 0 0.28222 0 0)"/>
</svg>
