<svg xmlns="http://www.w3.org/2000/svg" viewBox="0 0 16 16">
 <path style="fill:#ececec;fill-opacity:1;stroke:none" d="m 4.089 7.917 c -0.889 0.856 -1.422 2 -1.422 3.274 0 2.661 2.382 4.809 5.334 4.809 c 2.951 0 5.334 -2.148 5.334 -4.809 0 -1.266 -0.537 -2.416 -1.422 -3.274 l -1.067 0.962 c 0.619 0.608 0.965 1.419 0.965 2.312 0 1.9 -1.701 3.435 -3.81 3.435 -2.108 0 -3.81 -1.534 -3.81 -3.435 0 -0.888 0.373 -1.684 0.99 -2.289 l -1.093 -0.985 z"/>
 <path style="fill:#ececec;fill-opacity:1;stroke:none" d="m 7.854 0.002 c -0.038 0.004 -0.07 0.025 -0.107 0.033 c -0.1 0.019 -0.199 0.016 -0.291 0.064 c -0.184 0.095 -0.313 0.259 -0.398 0.424 c -0.033 0.063 -0.092 0.125 -0.109 0.193 l -1.451 2.209 c -0.322 0.499 -0.147 1.135 0.363 1.398 c 0.365 0.189 0.802 0.139 1.141 -0.084 l 0 1.76 l -4 0 l 0 -2.055 l 0.045 0.066 c 0.268 0.399 0.813 0.549 1.238 0.338 c 0.425 -0.211 0.571 -0.718 0.303 -1.117 l -1.209 -1.77 c -0.01 -0.036 -0.045 -0.069 -0.061 -0.104 l -0.031 -0.053 c -0.071 -0.132 -0.179 -0.262 -0.332 -0.338 c -0.076 -0.038 -0.16 -0.035 -0.242 -0.051 c -0.073 -0.013 -0.137 -0.031 -0.211 -0.027 c -0.042 -0.002 -0.079 -0.004 -0.121 0 c -0.032 0.003 -0.058 0.022 -0.09 0.027 c -0.083 0.015 -0.166 0.013 -0.242 0.051 c -0.154 0.076 -0.261 0.206 -0.332 0.338 c -0.028 0.051 -0.078 0.1 -0.092 0.156 l -1.209 1.77 c -0.268 0.399 -0.122 0.906 0.303 1.117 c 0.425 0.211 0.97 0.061 1.238 -0.338 l 0.045 -0.066 l 0 2.555 c 0 0.277 0.223 0.5 0.5 0.5 l 4.5 0 l 0 2.801 c -0.145 -0.022 -0.293 -0.009 -0.428 0.074 c -0.34 0.212 -0.456 0.718 -0.242 1.117 l 0.969 1.768 c 0.012 0.056 0.05 0.106 0.072 0.156 c 0.057 0.132 0.143 0.261 0.266 0.338 c 0.061 0.037 0.127 0.038 0.193 0.053 c 0.025 0.005 0.047 0.022 0.072 0.025 l 0.002 0 c 0.033 0.003 0.063 0.002 0.096 0 c 0.06 0.004 0.111 -0.014 0.17 -0.027 c 0.067 -0.015 0.132 -0.013 0.193 -0.051 c 0.123 -0.076 0.209 -0.206 0.266 -0.338 l 0.023 -0.051 c 0.012 -0.035 0.042 -0.069 0.049 -0.105 l 0.969 -1.768 c 0.214 -0.399 0.098 -0.907 -0.242 -1.117 c -0.134 -0.083 -0.283 -0.096 -0.428 -0.074 l 0 -2.801 l 4.5 0 c 0.277 0 0.5 -0.223 0.5 -0.5 c 0 -0.277 -0.223 -0.5 -0.5 -0.5 l -4.5 0 l 0 -1.76 c 0.339 0.222 0.775 0.273 1.141 0.084 c 0.51 -0.264 0.685 -0.899 0.363 -1.398 l -1.451 -2.209 c -0.012 -0.046 -0.054 -0.085 -0.072 -0.129 l -0.037 -0.064 c -0.085 -0.164 -0.214 -0.329 -0.398 -0.424 c -0.092 -0.048 -0.191 -0.046 -0.291 -0.064 c -0.088 -0.017 -0.164 -0.038 -0.254 -0.033 c -0.051 -0.003 -0.097 -0.004 -0.146 0 z m 5.525 0.889 c -0.032 0.003 -0.058 0.022 -0.09 0.027 c -0.083 0.015 -0.166 0.013 -0.242 0.051 c -0.154 0.076 -0.261 0.206 -0.332 0.338 c -0.028 0.051 -0.078 0.1 -0.092 0.156 l -1.209 1.77 c -0.268 0.399 -0.122 0.906 0.303 1.117 c 0.425 0.211 0.97 0.061 1.238 -0.338 l 0.545 -0.807 l 0.545 0.807 c 0.268 0.399 0.813 0.549 1.238 0.338 c 0.425 -0.211 0.571 -0.718 0.303 -1.117 l -1.209 -1.77 c -0.01 -0.036 -0.045 -0.069 -0.061 -0.104 l -0.031 -0.053 c -0.071 -0.132 -0.179 -0.262 -0.332 -0.338 c -0.076 -0.038 -0.16 -0.035 -0.242 -0.051 c -0.073 -0.013 -0.137 -0.031 -0.211 -0.027 c -0.042 -0.002 -0.079 -0.004 -0.121 0 z m -5.389 10.11 l 0.02 0 l -0.01 0.02 l -0.01 -0.02 z"/>
 <rect style="fill:#ececec;opacity:1;fill-opacity:1;stroke:none;fill-rule:nonzero" y="3" x="13" width="1" height="4" rx="0.5"/>
</svg>
