<svg viewBox="0 0 16 16" xmlns="http://www.w3.org/2000/svg">
 <path d="m 0.5 2 c -0.277 0 -0.5 0.223 -0.5 0.5 l 0 11 c 0 0.277 0.223 0.5 0.5 0.5 l 10 0 c 0.277 0 0.5 -0.223 0.5 -0.5 l 0 -2.5 l 4.391 1.955 c 0.28 0.138 0.608 -0.062 0.609 -0.371 l 0 -9.168 c 0 -0.309 -0.329 -0.509 -0.609 -0.371 l -4.391 1.955 l 0 -2.5 c 0 -0.277 -0.223 -0.5 -0.5 -0.5 l -10 0 z m 5 2 a 0.5 0.5 0 0 1 0.5 0.5 a 0.5 0.5 0 0 1 -0.5 0.5 a 0.5 0.5 0 0 1 -0.5 -0.5 a 0.5 0.5 0 0 1 0.5 -0.5 z m -2.466797 1.025391 a 0.5 0.5 0 0 1 0.345703 0.146484 a 0.5 0.5 0 0 1 0 0.707031 a 0.5 0.5 0 0 1 -0.707031 0 a 0.5 0.5 0 0 1 0 -0.707031 a 0.5 0.5 0 0 1 0.361328 -0.146484 z m 4.949219 0 a 0.5 0.5 0 0 1 0.345703 0.146484 a 0.5 0.5 0 0 1 0 0.707031 a 0.5 0.5 0 0 1 -0.707031 0 a 0.5 0.5 0 0 1 0 -0.707031 a 0.5 0.5 0 0 1 0.361328 -0.146484 z m -6.482422 2.474609 a 0.5 0.5 0 0 1 0.5 0.5 a 0.5 0.5 0 0 1 -0.5 0.5 a 0.5 0.5 0 0 1 -0.5 -0.5 a 0.5 0.5 0 0 1 0.5 -0.5 z m 8 0 a 0.5 0.5 0 0 1 0.5 0.5 a 0.5 0.5 0 0 1 -0.5 0.5 a 0.5 0.5 0 0 1 -0.5 -0.5 a 0.5 0.5 0 0 1 0.5 -0.5 z m -6.466797 2.474609 a 0.5 0.5 0 0 1 0.345703 0.146485 a 0.5 0.5 0 0 1 0 0.707031 a 0.5 0.5 0 0 1 -0.707031 0 a 0.5 0.5 0 0 1 0 -0.707031 a 0.5 0.5 0 0 1 0.361328 -0.146485 z m 4.949219 0 a 0.5 0.5 0 0 1 0.345703 0.146485 a 0.5 0.5 0 0 1 0 0.707031 a 0.5 0.5 0 0 1 -0.707031 0 a 0.5 0.5 0 0 1 0 -0.707031 a 0.5 0.5 0 0 1 0.361328 -0.146485 z m -2.482422 1.025391 a 0.5 0.5 0 0 1 0.5 0.5 a 0.5 0.5 0 0 1 -0.5 0.5 a 0.5 0.5 0 0 1 -0.5 -0.5 a 0.5 0.5 0 0 1 0.5 -0.5 z" style="fill:#ececec;opacity:1;fill-opacity:1;stroke:none;fill-rule:nonzero"/>
</svg>
