<svg width="16" viewBox="-1 -1 16.355555 16.293578" style="enable-background:new 0 0 90 109" height="16" xmlns="http://www.w3.org/2000/svg">
 <path d="m 8 0 c -2.209 0 -4 1.791 -4 4 l 0 2 l -2.5 0 c -0.277 0 -0.5 0.223 -0.5 0.5 l 0 9 c 0 0.277 0.223 0.5 0.5 0.5 l 13 0 c 0.277 0 0.5 -0.223 0.5 -0.5 l 0 -9 c 0 -0.277 -0.223 -0.5 -0.5 -0.5 l -2.5 0 l 0 -2 c 0 -2.209 -1.791 -4 -4 -4 z m 0 2 c 1.105 0 2 0.895 2 2 0 0.471 -0.101 0.842 -0.234 1.107 -0.133 0.265 -0.429 0.619 -0.766 0.893 -0.329 0.267 -1 0.607 -1 0.607 c 0 0 0.306 -0.371 0.43 -0.656 c -0.141 0.032 -0.285 0.049 -0.43 0.049 -1.105 0.001 -2 -0.895 -2 -2 0 -1.105 0.895 -2 2 -2 z m 0 5 c 2.209 0 4 1.791 4 4 0 2.209 -1.791 4 -4 4 -2.209 0 -4 -1.791 -4 -4 0 -2.209 1.791 -4 4 -4 z" style="fill:#54cdee;opacity:1;fill-opacity:1;stroke:none;fill-rule:nonzero" transform="matrix(1.02222 0 0 1.02222 -1 -1.031)"/>
</svg>
