
<!-- Created with Inkscape (http://www.inkscape.org/) -->
<svg viewBox="0 0 16 16" xmlns="http://www.w3.org/2000/svg">
 <path style="visibility:visible;shape-rendering:auto;color-interpolation-filters:linearRGB;fill:#ececec;opacity:1;image-rendering:auto;fill-opacity:1;text-rendering:auto;stroke:none;display:inline;color:#000;fill-rule:evenodd;color-rendering:auto;color-interpolation:sRGB" d="m 2.224 0 c -0.121 -0.003 -0.223 0.055 -0.223 0.129 l 0 2.58 c 0 0.041 0.032 0.08 0.088 0.103 l 5.552 2.477 -5.552 2.477 c -0.199 0.089 -0.031 0.276 0.202 0.225 l 11.57 -2.58 c 0.16 -0.035 0.19 -0.164 0.053 -0.225 l -11.57 -5.16 c -0.035 -0.015 -0.076 -0.025 -0.119 -0.026 z"/>
 <path style="visibility:visible;shape-rendering:auto;color-interpolation-filters:linearRGB;fill:#ececec;opacity:1;image-rendering:auto;fill-opacity:1;text-rendering:auto;stroke:none;display:inline;color:#000;fill-rule:evenodd;color-rendering:auto;color-interpolation:sRGB" d="m 13.776 16 c 0.121 0.003 0.223 -0.055 0.223 -0.129 l 0 -2.58 c 0 -0.041 -0.032 -0.08 -0.088 -0.103 l -5.552 -2.477 5.552 -2.477 c 0.199 -0.089 0.031 -0.276 -0.202 -0.225 l -11.57 2.58 c -0.16 0.035 -0.19 0.164 -0.053 0.225 l 11.57 5.16 c 0.035 0.015 0.076 0.025 0.119 0.026 z"/>
</svg>
