<svg xmlns="http://www.w3.org/2000/svg" viewBox="0 0 16 16">
 <path d="m 11.238 4.182 c -1.53 0.109 -4.219 2.68 -3.841 2.671 3.13 -0.109 5.081 0.072 7.525 0.82 0.36 0.109 -0.393 -3.239 -3.684 -3.49 z" style="fill:#ececec;fill-opacity:1;stroke-width:1"/>
 <path d="m 6.583 2.066 c -0.867 1.25 -0.976 6.141 -0.753 5.838 1.851 -2.482 6.288 -5.55 8.936 -6.786 3.267 -1.525 -6.246 -1.34 -8.183 0.947 z" style="fill:#ececec;fill-opacity:1;stroke-width:1"/>
 <path d="m 2.643 7.384 c 0.502 1.435 3.712 3.343 3.604 2.983 -0.914 -2.959 -1.245 -4.873 -1.141 -7.401 0.015 -0.375 -3.063 1.207 -2.462 4.419 z" style="fill:#ececec;fill-opacity:1;stroke-width:1"/>
 <path d="m 3.065 12.1 c 1.421 0.573 4.986 -0.559 4.641 -0.71 -2.855 -1.274 -4.527 -2.292 -6.379 -4.03 -0.275 -0.256 -1.103 3.078 1.738 4.745 z" style="fill:#ececec;fill-opacity:1;stroke-width:1"/>
 <path d="m 7.176 14.79 c 1.359 -0.706 2.785 -4.129 2.449 -3.968 -2.827 1.336 -4.688 1.946 -7.231 2.226 -0.375 0.038 1.667 2.812 4.787 1.743 z" style="fill:#ececec;fill-opacity:1;stroke-width:1"/>
 <path d="m 11.968 13.336 c 0.331 -1.483 -1.392 -4.769 -1.487 -4.409 -0.79 2.998 -1.525 4.797 -2.951 6.899 -0.209 0.308 3.254 0.554 4.437 -2.491 z" style="fill:#ececec;fill-opacity:1;stroke-width:1"/>
 <path d="m 13.853 8.672 c -0.924 -1.212 -4.57 -2.05 -4.352 -1.743 c 1.791 2.539 2.7 4.262 3.386 6.695 0.104 0.36 2.539 -2.084 0.966 -4.953 z" style="fill:#ececec;fill-opacity:1;stroke-width:1"/>
</svg>
