<svg xmlns="http://www.w3.org/2000/svg" height="16" viewBox="0 0 4.5155556 4.5155556" width="16">
 <path mix-blend-mode="normal" d="m 4.285 0 c -0.057 0.002 -0.112 0.027 -0.152 0.07 l -2.036 2.035 -0.202 0.518 0.518 -0.202 2.035 -2.036 c 0.145 -0.142 0.041 -0.389 -0.163 -0.383" style="visibility:visible;shape-rendering:auto;color-interpolation-filters:linearRGB;fill:#ececec;opacity:1;image-rendering:auto;fill-opacity:1;stroke:none;display:inline;color:#000;fill-rule:evenodd;color-rendering:auto;color-interpolation:sRGB" isolation="auto"/>
 <path d="m 2 1 c -0.554 0 -1 0.446 -1 1 l 0 9 c 0 0.554 0.446 1 1 1 l 12 0 c 0.554 0 1 -0.446 1 -1 l 0 -7.465 l -5.893 5.898 -4.152 1.619 1.619 -4.152 5.906 -5.9 z" style="fill:#ececec;opacity:1;fill-opacity:1;stroke:none;fill-rule:nonzero" transform="matrix(0.28222 0 0 0.28222 0 0)"/>
 <path d="m 2 11 l 0 1 l 12 0 l 0 -1 l -6.156 0 l -2.525 0.984 -0.984 -0.984 z m -1 1.716 l 0 1.284 c 0 0.554 0.446 1 1 1 l 12 0 c 0.554 0 1 -0.446 1 -1 l 0 -1.284 c -0.297 0.175 -0.636 0.283 -1 0.283 l -12 0 c -0.364 0 -0.703 -0.108 -1 -0.283 z" style="fill:#ececec;opacity:1;fill-opacity:1;stroke:none;fill-rule:nonzero" transform="matrix(0.28222 0 0 0.28222 0 0)"/>
</svg>
