<svg viewBox="0 0 4.5155556 4.5155556" width="16" xmlns="http://www.w3.org/2000/svg" height="16">
 <path style="fill:#ececec;fill-opacity:1;stroke:none" d="m 0.997 0 c -0.554 0 -0.997 0.443 -0.997 0.997 l 0 2.522 c 0 0.554 0.443 0.997 0.997 0.997 l 2.522 0 c 0.554 0 0.997 -0.443 0.997 -0.997 l 0 -2.522 c 0 -0.554 -0.443 -0.997 -0.997 -0.997 z m -0.432 0.564 l 1.411 0 l 0 0.133 c -0.037 0.003 -0.059 0 -0.106 0 -0.153 0.01 -0.264 0.029 -0.264 0.114 0 0.076 0.023 0.146 0.08 0.22 l 0.705 1.093 0.749 -1.103 c 0.05 -0.078 0.07 -0.15 0.07 -0.194 0 -0.065 -0.052 -0.109 -0.106 -0.132 l -0.283 0 l 0 -0.131 l 1.129 0 l 0 0.131 c -0.127 0.01 -0.233 0.019 -0.325 0.098 -0.089 0.076 -0.212 0.224 -0.362 0.45 l -0.724 1.147 l 0 1.279 c 0.059 0.055 0.342 0.147 0.564 0.15 l 0 0.133 l -1.693 0 l 0 -0.133 c 0.226 -0.01 0.511 -0.095 0.564 -0.15 l 0 -1.287 l -0.598 -0.917 c -0.259 -0.369 -0.429 -0.589 -0.512 -0.67 -0.083 -0.083 -0.171 -0.098 -0.302 -0.098 z"/>
</svg>
