<svg version="1.1" viewBox="0 0 16 16" xmlns="http://www.w3.org/2000/svg">
 <path d="m2.668 0c-0.344 0-0.668 0.338-0.668 0.697v14.607c0 0.338 0.344 0.697 0.668 0.697h10.664c0.324 0 0.668-0.359 0.668-0.697v-11.304l-4-4z" style="fill:#1f244f"/>
 <path d="m10.583 3.332 0.015 0.02 0.04-0.02zm0.03 0.668 3.387 3.664v-3.664z" style="fill-opacity:.196"/>
 <path d="m10 0 3.996 4h-3.384c-0.299 0-0.613-0.317-0.613-0.616z" style="fill-opacity:.392;fill:#fff"/>
 <path d="m3.9999 4.9997v7.9998h3.9999v-1.9999h-1.9999v-3.9999h1.9999v-1.9999zm4.9999 0v4.9999h1.9999v0.99997h-1.9999v1.9999h2.9999v-4.9999h-1.9999v-0.99997h1.9999v-1.9999z" style="fill:#f6f6f6"/>
</svg>
