<svg version="1.1" viewBox="0 0 16 16" xmlns="http://www.w3.org/2000/svg">
 <path d="m2.668 0c-0.344 0-0.668 0.338-0.668 0.697v14.607c0 0.338 0.344 0.697 0.668 0.697h10.664c0.324 0 0.668-0.359 0.668-0.697v-11.304l-4-4z" style="fill:#dcdcdc"/>
 <path d="M 10.613,4 14,7.664 V 4 Z" style="fill-opacity:.196"/>
 <path d="m10 0 3.996 4h-3.384c-0.299 0-0.613-0.317-0.613-0.616z" style="fill-opacity:.392;fill:#fff"/>
 <path d="m9 5-2 2v-1h-1v3h-2v1h2v3h1v-1l1.5 1.5-0.5 0.5h2v-2l-0.75 0.75-2.25-2.25v-2l3-3v-0.5z" style="fill:#888;stroke-linejoin:round;stroke-opacity:.54328;stroke-width:2.1602"/>
</svg>
