<svg version="1.1" viewBox="0 0 16 16" xmlns="http://www.w3.org/2000/svg">
 <path d="m2.668 0c-0.344 0-0.668 0.338-0.668 0.697v14.607c0 0.338 0.344 0.697 0.668 0.697h10.664c0.324 0 0.668-0.359 0.668-0.697v-11.304l-4-4z" style="fill:#376a94"/>
 <path d="m10.583 3.332 0.015 0.02 0.04-0.02zm0.03 0.668 3.387 3.664v-3.664z" style="fill-opacity:.196"/>
 <path d="m10 0 3.996 4h-3.384c-0.299 0-0.613-0.317-0.613-0.616z" style="fill-opacity:.392;fill:#fff"/>
 <path d="m6 6c-1.108 0-2 0.892-2 2v1c0 1.108 0.892 2 2 2h1l-1 2 3-2h1c1.108 0 2-0.892 2-2v-1c0-1.108-0.892-2-2-2h-4z" style="fill:#fff"/>
</svg>
