<svg version="1.1" viewBox="0 0 16 16" xmlns="http://www.w3.org/2000/svg">
 <path d="m2.668 0c-0.344 0-0.668 0.338-0.668 0.697v14.607c0 0.338 0.344 0.697 0.668 0.697h10.664c0.324 0 0.668-0.359 0.668-0.697v-11.304l-4-4z" style="fill:#a60a3f"/>
 <path d="m10.583 3.332 0.015 0.02 0.04-0.02zm0.03 0.668 3.387 3.664v-3.664z" style="fill-opacity:.196"/>
 <path d="m10 0 3.996 4h-3.384c-0.299 0-0.613-0.317-0.613-0.616z" style="fill-opacity:.392;fill:#fff"/>
 <path d="m5.3613 6c-0.86363 0.75804-1.3595 1.8509-1.3613 3 0 1.2019 0.54164 2.2668 1.3809 3h5.8457c0.3244-0.2711 0.59622-0.59735 0.77344-1l-1.127-0.80079c-0.41403 0.73801-1.1053 1.3022-1.873 1.3008-1.3471-2e-3 -1.9381-0.74378-1.9902-2.5h4.9902c-0.0018-1.1491-0.4977-2.242-1.3613-3zm2.6387 1c0.55228 0 1 0.44772 1 1h-2c0-0.55228 0.44772-1 1-1z" style="fill:#fff"/>
</svg>
