<svg version="1.1" viewBox="0 0 16 16" xmlns="http://www.w3.org/2000/svg">
 <path d="m2.768 0c-0.344 0-0.668 0.338-0.668 0.697v14.607c0 0.338 0.344 0.697 0.668 0.697h10.664c0.324 0 0.668-0.359 0.668-0.697v-11.304l-4-4z" style="fill:#dda06a"/>
 <path d="m7.75 4.293c-0.737 0.233-0.091 1.332-1.142 1.871-1.207 0.612-1.806-0.935-2.53 0.168-0.724 1.108 1 0.935 0.948 2.237-0.047 1.306-1.754 1.026-1.112 2.177 0.638 1.151 1.349-0.358 2.509 0.328 1.155 0.69 0.052 1.965 1.414 2 1.366 0.043 0.353-1.293 1.556-1.905 1.207-0.616 1.806 0.935 2.53-0.172 0.724-1.108-1-0.935-0.948-2.237 0.047-1.302 1.754-1.026 1.112-2.177-0.638-1.147-1.349 0.362-2.509-0.328-1.155-0.69-0.052-1.961-1.414-2-0.172-4e-3 -0.306 4e-3 -0.414 0.039zm0.017 3.315c0.608-0.125 1.207 0.25 1.336 0.836 0.129 0.582-0.259 1.155-0.871 1.28-0.608 0.125-1.207-0.246-1.336-0.832s0.259-1.159 0.871-1.284z" style="fill:#fff"/>
 <path d="m10.683 3.332 0.015 0.02 0.04-0.02zm0.03 0.668 3.387 3.664v-3.664z" style="fill-opacity:.196"/>
 <path d="m10.1 0 3.996 4h-3.384c-0.299 0-0.613-0.317-0.613-0.616z" style="fill-opacity:.392;fill:#fff"/>
</svg>
