<svg version="1.1" viewBox="0 0 16 16" xmlns="http://www.w3.org/2000/svg">
 <path d="m2.668 0c-0.344 0-0.668 0.338-0.668 0.697v14.607c0 0.338 0.344 0.697 0.668 0.697h10.664c0.324 0 0.668-0.359 0.668-0.697v-11.304l-4-4z" style="fill:#efc743"/>
 <path d="m10.583 3.332 0.015 0.02 0.04-0.02zm0.03 0.668 3.387 3.664v-3.664z" style="fill-opacity:.196"/>
 <path d="m10 0 3.996 4h-3.384c-0.299 0-0.613-0.317-0.613-0.616z" style="fill-opacity:.392;fill:#fff"/>
 <path d="m7.7416 11.995c-0.61397-0.052839-1.2237-0.22671-1.7506-0.49924-0.47821-0.24732-0.84339-0.55517-1.0768-0.90776-0.39865-0.85579-0.46854-1.186-0.86253-2.2969-0.012501-0.031147-0.35521-1.4489-0.35168-1.4549 0.20421 0.081708 0.35815 0.14802 0.57711 0.23851l0.1031-0.10046c0.14463-0.14093 0.29437-0.24995 0.50928-0.37079l0.065569-0.036871c0.12094-0.26592 0.26349-0.5303 0.3925-0.78761 0.22632 0.16955 0.40069 0.30822 0.63756 0.49133 0.00545 0.00418 0.073109-0.00845 0.18485-0.034474 0.46996-0.1095 0.72018-0.14645 1.035-0.15283l0.1701-0.00344c0.20723-0.19991 0.41591-0.39837 0.62391-0.59745 0.22072 0.2095 0.3874 0.37068 0.62391 0.59745l0.1701 0.00344c0.31227 0.00632 0.56081 0.042524 1.011 0.14725 0.095687 0.022269 0.1805 0.041756 0.18847 0.043332 0.24602-0.16742 0.39488-0.29417 0.66259-0.49789 0.1417 0.27596 0.24143 0.49035 0.38763 0.79042l0.04756 0.026414c0.21752 0.12077 0.38342 0.24083 0.52769 0.38186l0.10318 0.10086c0.20485-0.085507 0.4002-0.16651 0.5789-0.24086-0.1226 0.51892-0.24993 1.0346-0.35146 1.4495-0.26663 0.75479-0.48045 1.3613-0.77241 2.1519-0.27734 0.51453-0.82912 0.95011-1.5774 1.2452-0.3813 0.15037-0.7803 0.25007-1.201 0.30011-0.14786 0.0176-0.52125 0.0255-0.65603 0.01389zm0.25755-3.0104c0.58345 0.32372 1.0395 0.58283 1.6572 0.92995 0.33086-0.076737 0.50255-0.13755 0.90379-0.2572 0.25545-0.27678 0.4661-0.63784 0.63471-0.88039-0.023857-0.07029-0.10041-0.21881-0.15323-0.29737-0.3028-0.45032-0.89968-0.83789-1.6309-1.059-0.7182-0.21713-1.5357-0.26169-2.3071-0.12573-1.0072 0.1775-1.8522 0.66359-2.1979 1.2644-0.042862 0.074488-0.093058 0.18163-0.10717 0.22877 0.16809 0.30068 0.44864 0.62239 0.63871 0.86876 0.29724 0.093398 0.59932 0.1746 0.89798 0.26088 0.58538-0.32813 1.0429-0.58611 1.6639-0.93314z" style="fill:#fff"/>
</svg>
