<?xml version="1.0" encoding="UTF-8"?>
<svg xmlns="http://www.w3.org/2000/svg" xmlns:xlink="http://www.w3.org/1999/xlink" viewBox="0 0 96 96" width="96px" height="96px">
<g id="surface94463317">
<path style=" stroke:none;fill-rule:nonzero;fill:rgb(224,95,101);fill-opacity:1;" d="M 10.949219 7.96875 C 9.726562 7.96875 8.628906 8.710938 8.167969 9.839844 C 7.710938 10.972656 7.984375 12.269531 8.859375 13.121094 L 27.738281 32 L 19 32 C 14.039062 32 10 36.039062 10 41 L 10 55 C 10 59.960938 14.039062 64 19 64 L 32.238281 64 L 50.679688 80.398438 C 51.738281 81.339844 53.039062 81.820312 54.378906 81.820312 C 55.160156 81.820312 55.9375 81.660156 56.699219 81.320312 C 58.738281 80.398438 60 78.4375 60 76.21875 L 60 64.261719 L 82.859375 87.121094 C 83.613281 87.90625 84.730469 88.21875 85.78125 87.945312 C 86.832031 87.671875 87.652344 86.851562 87.925781 85.800781 C 88.199219 84.75 87.886719 83.632812 87.101562 82.878906 L 13.101562 8.878906 C 12.535156 8.296875 11.761719 7.96875 10.949219 7.96875 Z M 54.339844 14.175781 C 53.019531 14.1875 51.730469 14.675781 50.679688 15.601562 L 38.839844 26.140625 L 60 47.300781 L 60 19.78125 C 60 17.5625 58.738281 15.601562 56.699219 14.679688 C 55.933594 14.335938 55.132812 14.167969 54.339844 14.175781 Z M 77.28125 24.011719 C 76.894531 24.042969 76.503906 24.148438 76.140625 24.339844 C 74.660156 25.101562 74.097656 26.917969 74.859375 28.378906 C 81.121094 40.339844 81.699219 52 76.621094 63.921875 L 81.140625 68.441406 C 87.921875 54.222656 87.601562 39.820312 80.179688 25.621094 C 79.609375 24.511719 78.445312 23.917969 77.28125 24.011719 Z M 68.40625 34.023438 C 68.015625 34.035156 67.617188 34.125 67.238281 34.300781 C 65.738281 35 65.082031 36.761719 65.761719 38.28125 C 68.242188 43.703125 68.660156 48.980469 67.039062 54.339844 L 71.71875 59.019531 C 74.917969 51.300781 74.757812 43.5 71.21875 35.78125 C 70.707031 34.65625 69.578125 33.988281 68.40625 34.023438 Z M 68.40625 34.023438 "/>
</g>
</svg>
