<?xml version="1.0" encoding="UTF-8"?>
<svg xmlns="http://www.w3.org/2000/svg" xmlns:xlink="http://www.w3.org/1999/xlink" viewBox="0 0 96 96" width="96px" height="96px">
<g id="surface94458578">
<path style=" stroke:none;fill-rule:nonzero;fill:rgb(112, 165, 235);fill-opacity:1;" d="M 60.433594 14.203125 C 60.167969 14.203125 59.90625 14.222656 59.640625 14.257812 C 58.582031 14.402344 57.539062 14.835938 56.679688 15.601562 C 56.679688 15.601562 56.679688 15.605469 56.679688 15.605469 L 38.234375 32 L 25 32 C 20.066406 32 16 36.066406 16 41 L 16 55 C 16 59.933594 20.066406 64 25 64 L 38.234375 64 L 56.679688 80.394531 C 58.402344 81.925781 60.84375 82.148438 62.691406 81.320312 C 64.539062 80.492188 66 78.515625 66 76.210938 L 66 19.789062 C 66 17.484375 64.542969 15.511719 62.695312 14.679688 C 62.003906 14.367188 61.226562 14.203125 60.433594 14.203125 Z M 74.34375 33.992188 C 73.339844 34.035156 72.421875 34.578125 71.902344 35.441406 C 71.382812 36.304688 71.328125 37.367188 71.761719 38.277344 C 74.792969 44.914062 74.789062 51.121094 71.746094 57.757812 C 71.292969 58.734375 71.394531 59.875 72.015625 60.753906 C 72.636719 61.632812 73.679688 62.113281 74.75 62.011719 C 75.820312 61.910156 76.753906 61.242188 77.199219 60.261719 C 80.875 52.246094 80.882812 43.796875 77.21875 35.78125 C 76.71875 34.648438 75.578125 33.9375 74.34375 33.992188 Z M 74.34375 33.992188 "/>
</g>
</svg>
