<?xml version="1.0" encoding="UTF-8"?>
<svg xmlns="http://www.w3.org/2000/svg" xmlns:xlink="http://www.w3.org/1999/xlink" viewBox="0 0 96 96" width="96px" height="96px">
<g id="surface94461773">
<path style=" stroke:none;fill-rule:nonzero;fill:rgb(112, 165, 235);fill-opacity:1;" d="M 64.433594 14.203125 C 64.167969 14.203125 63.90625 14.222656 63.640625 14.257812 C 62.582031 14.402344 61.539062 14.835938 60.679688 15.601562 C 60.679688 15.601562 60.679688 15.605469 60.679688 15.605469 L 42.234375 32 L 29 32 C 24.066406 32 20 36.066406 20 41 L 20 55 C 20 59.933594 24.066406 64 29 64 L 42.234375 64 L 60.679688 80.394531 C 62.402344 81.925781 64.84375 82.148438 66.691406 81.320312 C 68.539062 80.492188 70 78.515625 70 76.210938 L 70 19.789062 C 70 17.484375 68.542969 15.511719 66.695312 14.679688 C 66.003906 14.367188 65.226562 14.203125 64.433594 14.203125 Z M 64.433594 14.203125 "/>
</g>
</svg>
