<?xml version="1.0" encoding="UTF-8"?>
<svg xmlns="http://www.w3.org/2000/svg" xmlns:xlink="http://www.w3.org/1999/xlink" viewBox="0 0 96 96" width="96px" height="96px">
<g id="surface94454368">
<path style=" stroke:none;fill-rule:nonzero;fill:rgb(112, 165, 235);fill-opacity:1;" d="M 54.433594 14.203125 C 54.167969 14.203125 53.90625 14.222656 53.640625 14.257812 C 52.582031 14.402344 51.539062 14.835938 50.679688 15.601562 C 50.679688 15.601562 50.679688 15.605469 50.679688 15.605469 L 32.234375 32 L 19 32 C 14.066406 32 10 36.066406 10 41 L 10 55 C 10 59.933594 14.066406 64 19 64 L 32.234375 64 L 50.679688 80.394531 C 52.402344 81.925781 54.84375 82.148438 56.691406 81.320312 C 58.539062 80.492188 60 78.515625 60 76.210938 L 60 19.789062 C 60 17.484375 58.542969 15.511719 56.695312 14.679688 C 56.003906 14.367188 55.226562 14.203125 54.433594 14.203125 Z M 77.511719 23.960938 C 76.453125 23.957031 75.46875 24.511719 74.925781 25.417969 C 74.382812 26.328125 74.355469 27.453125 74.859375 28.386719 C 81.777344 41.636719 81.777344 54.363281 74.859375 67.613281 C 74.34375 68.566406 74.378906 69.722656 74.957031 70.640625 C 75.535156 71.558594 76.558594 72.09375 77.640625 72.039062 C 78.726562 71.988281 79.695312 71.355469 80.179688 70.386719 C 87.859375 55.675781 87.859375 40.324219 80.179688 25.613281 C 79.671875 24.605469 78.640625 23.964844 77.511719 23.960938 Z M 68.34375 33.992188 C 67.339844 34.035156 66.421875 34.578125 65.902344 35.441406 C 65.382812 36.304688 65.328125 37.367188 65.761719 38.277344 C 68.792969 44.914062 68.789062 51.121094 65.746094 57.757812 C 65.292969 58.734375 65.394531 59.875 66.015625 60.753906 C 66.636719 61.632812 67.679688 62.113281 68.75 62.011719 C 69.820312 61.910156 70.753906 61.242188 71.199219 60.261719 C 74.875 52.246094 74.882812 43.796875 71.21875 35.78125 C 70.71875 34.648438 69.578125 33.9375 68.34375 33.992188 Z M 68.34375 33.992188 "/>
</g>
</svg>
