<?xml version="1.0" encoding="UTF-8"?>
<svg xmlns="http://www.w3.org/2000/svg" xmlns:xlink="http://www.w3.org/1999/xlink" viewBox="0 0 96 96" width="96px" height="96px">
<g id="surface94384493">
<path style=" stroke:none;fill-rule:nonzero;fill:rgb(112, 165, 235);fill-opacity:1;" d="M 48.433594 14.203125 C 48.167969 14.203125 47.90625 14.222656 47.640625 14.257812 C 46.582031 14.402344 45.539062 14.835938 44.679688 15.601562 C 44.679688 15.601562 44.679688 15.605469 44.679688 15.605469 L 26.234375 32 L 13 32 C 8.066406 32 4 36.066406 4 41 L 4 55 C 4 59.933594 8.066406 64 13 64 L 26.234375 64 L 44.679688 80.394531 C 46.402344 81.925781 48.84375 82.148438 50.691406 81.320312 C 52.539062 80.492188 54 78.515625 54 76.210938 L 54 19.789062 C 54 17.484375 52.542969 15.511719 50.695312 14.679688 C 50.003906 14.367188 49.226562 14.203125 48.433594 14.203125 Z M 80.4375 15.964844 C 79.378906 16.007812 78.421875 16.605469 77.917969 17.535156 C 77.414062 18.46875 77.441406 19.59375 77.984375 20.503906 C 88.75 39.074219 88.789062 56.929688 77.988281 75.492188 C 77.402344 76.421875 77.371094 77.59375 77.90625 78.550781 C 78.441406 79.507812 79.457031 80.097656 80.550781 80.089844 C 81.648438 80.082031 82.652344 79.472656 83.171875 78.507812 C 94.851562 58.433594 94.808594 37.566406 83.175781 17.496094 C 82.625 16.511719 81.566406 15.917969 80.4375 15.964844 Z M 71.511719 23.960938 C 70.453125 23.957031 69.46875 24.511719 68.925781 25.417969 C 68.382812 26.328125 68.355469 27.453125 68.859375 28.386719 C 75.777344 41.636719 75.777344 54.363281 68.859375 67.613281 C 68.34375 68.566406 68.378906 69.722656 68.957031 70.640625 C 69.535156 71.558594 70.558594 72.09375 71.640625 72.039062 C 72.726562 71.988281 73.695312 71.355469 74.179688 70.386719 C 81.859375 55.675781 81.859375 40.324219 74.179688 25.613281 C 73.671875 24.605469 72.640625 23.964844 71.511719 23.960938 Z M 62.34375 33.992188 C 61.339844 34.035156 60.421875 34.578125 59.902344 35.441406 C 59.382812 36.304688 59.328125 37.367188 59.761719 38.277344 C 62.792969 44.914062 62.789062 51.121094 59.746094 57.757812 C 59.292969 58.734375 59.394531 59.875 60.015625 60.753906 C 60.636719 61.632812 61.679688 62.113281 62.75 62.011719 C 63.820312 61.910156 64.753906 61.242188 65.199219 60.261719 C 68.875 52.246094 68.882812 43.796875 65.21875 35.78125 C 64.71875 34.648438 63.578125 33.9375 62.34375 33.992188 Z M 62.34375 33.992188 "/>
</g>
</svg>
