<svg version="1.1" viewBox="0 0 48 48" xmlns="http://www.w3.org/2000/svg">
 <path d="m8 1c-1.029 0-2 0.971-2 2v42c0 0.971 1.029 2 2 2h32c0.971 0 2-1.029 2-2v-31l-13-13z" style="fill:#0a5c0a"/>
 <path d="m31 14 11 11v-11z" style="fill-opacity:.196"/>
 <path d="m29 1 13 13h-11c-0.971 0-2-1.029-2-2v-11z" style="fill-opacity:.392;fill:#fff"/>
 <path d="m17 19v10.418c-1.822 0.79516-2.9998 2.5941-3 4.582 0 2.7614 2.2386 5 5 5s5-2.2386 5-5c-2.17e-4 -1.9879-1.178-3.7869-3-4.582v-10.418zm1.9492 13h2e-3c0.01628-1.99e-4 0.03255-1.99e-4 0.04883 0 1.1046 0 2 0.89543 2 2s-0.89543 2-2 2-2-0.89543-2-2c-3.5e-4 -1.085 0.86453-1.9724 1.9492-2z" style="fill:#dfbd8a;stroke-linejoin:round;stroke-opacity:.54328;stroke-width:2.1082"/>
 <path d="m27 39v-10.418c-1.822-0.79516-2.9998-2.5941-3-4.582 0-2.7614 2.2386-5 5-5s5 2.2386 5 5c-2.17e-4 1.9879-1.178 3.7869-3 4.582v10.418zm1.9492-13h2e-3c0.01628 1.99e-4 0.03255 1.99e-4 0.04883 0 1.1046 0 2-0.89543 2-2s-0.89543-2-2-2-2 0.89543-2 2c-3.5e-4 1.085 0.86453 1.9724 1.9492 2z" style="fill:#dfbd8a;stroke-linejoin:round;stroke-opacity:.54328;stroke-width:2.1082"/>
</svg>
