<svg width="48" height="48" version="1.1" viewBox="0 0 48 48" xmlns="http://www.w3.org/2000/svg">
 <path d="m8 1c-1.0286 0-2 0.97143-2 2v42c0 0.97143 1.0286 2 2 2h32c0.97143 0 2-1.0286 2-2v-31l-13-13z" style="fill:#dcdcdc"/>
 <path d="m29 12 0.0625 0.0625 0.15625-0.0625h-0.21875zm2 2 11 11v-11h-11z" style="fill-opacity:.196"/>
 <path d="m29 1 13 13h-11c-0.97143 0-2-1.0286-2-2v-11z" style="fill-opacity:.392;fill:#fff"/>
 <path d="m18 18v3h-4v3h4v3h-4v3h4v3h-4v3h4v3h12v-3h4v-3h-4v-3h4v-3h-4v-3h4v-3h-4v-3zm3 3h6v15h-6z" style="fill:#888;stroke-linejoin:round;stroke-opacity:.54328;stroke-width:2"/>
</svg>
