<svg version="1.1" viewBox="0 0 48 48" xmlns="http://www.w3.org/2000/svg">
 <path d="m8 1c-1.03 0-2 .971-2 2v42c0 .971 1.03 2 2 2h32c.971 0 2-1.03 2-2v-31l-13-13z" style="fill:#478cbf"/>
 <path d="m29 12 .063.063.156-.063h-.219zm2 2 11 11v-11h-11z" style="fill-opacity:.196"/>
 <path d="m29 1 13 13h-11c-.971 0-2-1.03-2-2v-11z" style="fill-opacity:.392;fill:#fff"/>
 <path d="m21 15-3 1.25v3.25l-2.75 1.75-2.25-1.25-2.5 3 1.5 2.5v5.5h4.5c.277 0 .5.223.5.5v2.5h4v-1.5c0-.277.223-.5.5-.5h5c.277 0 .5.223.5.5v1.5h4v-2.5c0-.277.223-.5.5-.5h4.5v-5.5l1.5-2.5-2.5-3-2.25 1.25-2.75-1.75v-3.25l-3-1.25-1.5 3h-3zm-3.5 10c1.38 0 2.5 1.12 2.5 2.5s-1.12 2.5-2.5 2.5-2.5-1.12-2.5-2.5 1.12-2.5 2.5-2.5zm13 0c1.38 0 2.5 1.12 2.5 2.5s-1.12 2.5-2.5 2.5-2.5-1.12-2.5-2.5 1.12-2.5 2.5-2.5zm-6.5 1c.554 0 1 .446 1 1v2c0 .554-.446 1-1 1s-1-.446-1-1v-2c0-.554.446-1 1-1zm-6 1c-.552 0-1 .448-1 1s.448 1 1 1 1-.448 1-1-.448-1-1-1zm12 0c-.552 0-1 .448-1 1s.448 1 1 1 1-.448 1-1-.448-1-1-1zm-18 6v1c0 3.32 5.35 6 12 6s12-2.68 12-6v-1h-4v2.5c0 .277-.223.5-.5.5h-5c-.0173 0-.0339 5e-5-.0508-.002-.253-.0254-.449-.238-.449-.498v-1.5h-4v1.5c0 .26-.196.473-.449.498-.0168.0018-.0335.002-.0508.002h-5c-.277 0-.5-.223-.5-.5v-2.5z" style="fill:#ffffff;stroke-dashoffset:6.6;stroke-linecap:round;stroke-linejoin:round;stroke-opacity:.441"/>
</svg>
