<svg version="1.1" viewBox="0 0 48 48" xmlns="http://www.w3.org/2000/svg">
 <path d="m8 1c-1.029 0-2 0.971-2 2v42c0 0.971 1.029 2 2 2h32c0.971 0 2-1.029 2-2v-31l-13-13" style="fill:#376a94"/>
 <path d="m29 12 0.063 0.063 0.156-0.063h-0.219zm2 2 11 11v-11h-11z" style="fill-opacity:.196"/>
 <path d="m29 1 13 13h-11c-0.971 0-2-1.029-2-2v-11z" style="fill-opacity:.392;fill:#fff"/>
 <path d="m19 18c-3.324 0-6 2.676-6 6v4c0 3.324 2.676 6 6 6l-2 5 10-5h2c3.324 0 6-2.676 6-6v-4c0-3.324-2.676-6-6-6z" style="fill:#fff"/>
</svg>
