<svg version="1.1" viewBox="0 0 48 48" xmlns="http://www.w3.org/2000/svg">
 <path d="m8 1c-1.029 0-2 0.971-2 2v42c0 0.971 1.029 2 2 2h32c0.971 0 2-1.029 2-2v-31l-13-13z" style="fill:#a31d23"/>
 <path d="m29 12 0.063 0.063 0.156-0.063h-0.219zm2 2 11 11v-11h-11z" style="fill-opacity:.196"/>
 <path d="m29 1 13 13h-11c-0.971 0-2-1.029-2-2v-11z" style="fill-opacity:.392;fill:#fff"/>
 <path d="m31 20.667c0 5.3333-5.0909 11.333-7 11.333s-7-6.2371-7-11.333c0-3.0735 2.3759-4.6667 7-4.6667s7 1.6102 7 4.6667z" style="fill:#ffffff;paint-order:normal;stroke-width:.65134"/>
 <path d="m6 35v10c0 0.971 1.029 2 2 2h32c0.971 0 2-1.029 2-2v-10z" style="fill-opacity:.196"/>
 <path d="m27 37v1.3148h-2.5397v6.6852h-1.927v-6.6852h-2.5333v-1.3148h7" style="fill:#fff;stroke-width:1.0028"/>
 <path d="m15.44 37c1.1285 0 2.0042 0.21191 2.6234 0.62693 0.61916 0.41282 0.93615 1.083 0.93615 2.0194 0 0.94224-0.31695 1.633-0.94717 2.0539-0.62507 0.41796-1.5059 0.62987-2.655 0.62987h-0.63023v2.6698h-1.7676v-7.8057c0.17543-0.03154 0.36266-0.06306 0.57568-0.09166 0.21892-0.02566 0.43784-0.04327 0.65676-0.04839 0.22482-0.01687 0.43783-0.03153 0.65086-0.03739 0.20418-0.011746 0.39435-0.016884 0.55872-0.016884m0.19902 1.3719c-0.10098 0-0.25356 0-0.44374 0.01173-0.18133 0-0.32506 0.0059-0.42899 0.02566v2.5546h0.7172c0.56461 0 0.98775-0.10339 1.2751-0.2977 0.28526-0.20311 0.42899-0.54701 0.42899-1.031 0-0.46122-0.14374-0.78457-0.42899-0.9738-0.27346-0.19211-0.65086-0.28964-1.1204-0.28964" style="fill:#fff;stroke-width:.73854"/>
 <path d="m34.999 42.538c0 0.47337-0.09099 0.86621-0.27296 1.1891-0.18488 0.31226-0.43528 0.56248-0.75045 0.75995-0.31299 0.18393-0.68495 0.31725-1.1173 0.40136-0.42072 0.07771-0.87855 0.11121-1.3736 0.11121-0.38942 0-0.7992-0.0164-1.2258-0.05846-0.42363-0.03636-0.84435-0.08911-1.2593-0.16682v-7.5908c0.3443-0.04705 0.70824-0.08911 1.1173-0.12547 0.40398-0.04206 0.7992-0.05846 1.1974-0.05846 0.67694 0 1.22 0.05846 1.6465 0.18393 0.42072 0.11977 0.7563 0.2816 0.99503 0.48478 0.24458 0.19249 0.4098 0.41206 0.49496 0.6516 0.08516 0.24524 0.12811 0.49048 0.12811 0.73501 0 0.37071-0.10263 0.69865-0.31882 0.98592-0.19871 0.28659-0.47459 0.51544-0.82178 0.68225 0.60269 0.18964 1.0176 0.45412 1.2258 0.78279 0.22783 0.32865 0.33556 0.6737 0.33556 1.033m-4.2225-1.0579v2.1223c0.12811 0.01925 0.26132 0.03066 0.4098 0.03636 0.15068 0.0114 0.29843 0.0114 0.44329 0.0114 0.20162 0 0.40398-0.0114 0.59396-0.03636 0.19362-0.0335 0.35812-0.08911 0.50588-0.15898 0.15068-0.09197 0.27878-0.20318 0.3785-0.3479 0.09099-0.15043 0.13903-0.34005 0.13903-0.56818 0-0.37571-0.13903-0.6459-0.4149-0.80774-0.27296-0.16682-0.63982-0.25095-1.0976-0.25095h-0.9579m0.69659-1.2896c0.44911 0 0.79343-0.0834 1.0235-0.25095 0.23293-0.18108 0.34939-0.42062 0.34939-0.72431 0-0.18678-0.03712-0.32865-0.10555-0.43701-0.06842-0.11977-0.15941-0.20888-0.27587-0.26734-0.11355-0.06701-0.2504-0.10836-0.40107-0.12547-0.15358-0.02495-0.31299-0.03636-0.4775-0.03636-0.13394 0-0.27296 0-0.42072 0.0114-0.13903 0.0057-0.27296 0.0164-0.38942 0.03636v1.7937h0.6966" style="fill:#fff;stroke-width:.73856"/>
</svg>
