<svg version="1.1" viewBox="0 0 48 48" xmlns="http://www.w3.org/2000/svg">
 <path d="m8 1c-1.029 0-2 0.971-2 2v42c0 0.971 1.029 2 2 2h32c0.971 0 2-1.029 2-2v-31l-13-13z" style="fill:#39a34f"/>
 <path d="m29 12 0.063 0.063 0.156-0.063h-0.219zm2 2 11 11v-11h-11z" style="fill-opacity:.196"/>
 <path d="m29 1 13 13h-11c-0.971 0-2-1.029-2-2v-11z" style="fill-opacity:.392;fill:#fff"/>
 <path d="m6 35v10c0 0.971 1.029 2 2 2h32c0.971 0 2-1.029 2-2v-10z" style="fill-opacity:.196"/>
 <g style="fill:#fff">
  <path d="m17.04 16c-0.563 0.054-1.045 0.648-1.035 1.281v13.469c6e-3 0.663 0.538 1.26 1.129 1.25h13.772c0.583-0.01 1.092-0.597 1.098-1.25v-13.469c8e-3 -0.663-0.506-1.274-1.098-1.281h-13.866zm0.973 2h11.984v8.594l-3.357-4.125-2.384 2.219-3.137-3.938-3.106 3.188z"/>
 </g>
 <path d="m30.5 37.994v7.0059h1.5v-3h2.5v-1h-2.5v-2h3v-1zm-15.25 0.0059c-0.69726 2.2289-1.409 4.5837-1.9922 7.0117h1.457l0.38476-2.0117h1.8008l0.33984 2.0117h1.502c-0.51866-2.228-1.2301-4.6376-1.9922-7.0117zm3.5 0c0.46161 2.1425 1.2146 4.7045 2 7h1.5c0.79758-2.2463 1.4559-4.4537 2-7h-1.5508c-0.32906 1.8575-0.61389 3.7092-1.1992 5.5-0.54585-1.7652-0.92688-3.627-1.1992-5.5zm6.5 0v1h1.2503v5l-1.2503 1e-4v0.99988l4.0003 1.2e-4v-1.0001h-1.25v-5l1.25 1e-4v-1.0001zm-9.25 1.5c0.25009 0.92496 0.54037 1.5098 0.69922 2.5h-1.3984c0.1733-0.91833 0.40864-1.5626 0.69922-2.5z" style="fill:#fff"/>
</svg>
