<svg version="1.1" viewBox="0 0 48 48" xmlns="http://www.w3.org/2000/svg">
 <path d="m8 1c-1.029 0-2 0.971-2 2v42c0 0.971 1.029 2 2 2h32c0.971 0 2-1.029 2-2v-31l-13-13z" style="fill:#39a34f"/>
 <path d="m29 12 0.063 0.063 0.156-0.063h-0.219zm2 2 11 11v-11h-11z" style="fill-opacity:.196"/>
 <path d="m29 1 13 13h-11c-0.971 0-2-1.029-2-2v-11z" style="fill-opacity:.392;fill:#fff"/>
 <path d="m6 35v10c0 0.971 1.029 2 2 2h32c0.971 0 2-1.029 2-2v-10z" style="fill-opacity:.196"/>
 <g style="fill:#fff">
  <path d="m17.04 16c-0.563 0.054-1.045 0.648-1.035 1.281v13.469c6e-3 0.663 0.538 1.26 1.129 1.25h13.772c0.583-0.01 1.092-0.597 1.098-1.25v-13.469c8e-3 -0.663-0.506-1.274-1.098-1.281h-13.866zm0.973 2h11.984v8.594l-3.357-4.125-2.384 2.219-3.137-3.938-3.106 3.188z"/>
 </g>
 <path d="m14 38v7h1.5v-3h2v3h1.5v-7h-1.5v3h-2v-3zm6.5 0v7h4.5v-1h-3v-2h2.5v-1l-2.5-0.005859v-1.9941h3v-1zm5.75 0v1h1.25v5h-1.25v1h4v-0.99986l-1.25-1.4e-4v-5h1.25v-1zm5.25 0v7h1.5v-3h2.5v-1h-2.5v-2h3v-1z" style="fill:#fff"/>
</svg>
