<svg version="1.1" viewBox="0 0 48 48" xmlns="http://www.w3.org/2000/svg">
 <path d="m8 1c-1.03 0-2 .971-2 2v42c0 .971 1.03 2 2 2h32c.971 0 2-1.03 2-2v-31l-13-13z" style="fill:#39a34f"/>
 <path d="m29 12 .063.063.156-.063h-.219zm2 2 11 11v-11h-11z" style="fill-opacity:.196"/>
 <path d="m29 1 13 13h-11c-.971 0-2-1.03-2-2v-11z" style="fill-opacity:.392;fill:#fff"/>
 <g transform="matrix(.534 0 0 .534 11.2 11.2)" style="fill:#fff">
  <g style="fill:#fff">
   <path d="m27.1 9.64-3.61 10.2 14.2-2.36c-2.1-3.99-5.98-6.93-10.6-7.79" style="fill:#fff"/>
   <path d="m38.2 19.4-10.7 1.99 9.2 11c2.46-3.8 3.09-8.59 1.53-13" style="fill:#fff"/>
   <path d="m35.1 33.8-7.12-8.16-5.05 13.3c4.57.195 9.09-1.66 12.2-5.18" style="fill:#fff"/>
   <path d="m20.9 38.4 3.62-10.2-14.2 2.36c2.11 4 6 6.93 10.6 7.79" style="fill:#fff"/>
   <path d="m9.85 28.6 10.7-1.99-9.2-11c-2.45 3.8-3.09 8.59-1.53 13" style="fill:#fff"/>
   <path d="m12.9 14.2 7.12 8.16 5.05-13.3c-4.56-.195-9.09 1.66-12.2 5.18" style="fill:#fff"/>
  </g>
 </g>
 <path d="m6 35v10c0 .971 1.03 2 2 2h32c.971 0 2-1.03 2-2v-10z" style="fill-opacity:.196"/>
 <path d="m22.8 37q.609 0 1.1.153t.851.473q.356.319.54.818.195.486.195 1.15 0 .69-.253 1.25t-.839.856q.195.332.414.741.218.396.425.843.207.435.391.882.195.435.333.831h-1.48q-.264-.767-.621-1.47-.345-.716-.747-1.44h-.736v2.91h-1.41v-7.8q.207-.051.448-.089.253-.051.506-.064.253-.026.483-.038.23-.013.402-.013zm1.25 2.58q0-.626-.345-.92t-.908-.294q-.08 0-.195.013-.115 0-.23.026v2.38h.31q.724 0 1.05-.307.322-.319.322-.895z" style="fill:#fff"/>
 <path d="m29.7 40q.0484.24.145.592.0968.353.206.781.121.428.254.919.145.491.278 1.01 0-.655-.0121-1.4-.0121-.756-.0242-1.54-.0121-.781-.0242-1.58-.0121-.806-.0121-1.55h1.38q-.0363.957-.0726 1.98-.0363 1.01-.0847 2.02-.0484.995-.121 1.97-.0605.97-.145 1.84h-1.24q-.266-.794-.534-1.7-.266-.919-.534-1.75-.266.794-.558 1.73-.29.932-.534 1.73h-1.24q-.0968-.87-.169-1.84-.0726-.985-.133-1.98-.0484-1.01-.0847-2.02-.0363-1.02-.0605-1.97h1.38q-.0121.744-.0242 1.54-.0121.794-.0242 1.59-.0121.781-.0242 1.54-.0121.744-.0121 1.4.109-.404.242-.882.145-.479.266-.945.133-.466.242-.857.109-.391.169-.617h1.09z" style="fill:#ffffff"/>
 <g transform="scale(.986 1.01)" style="fill:#ffffff" aria-label="N">
  <path d="m19.1 44.4q-.522-1.28-1.14-2.55-.609-1.28-1.32-2.56v5.11h-1.38v-7.69h1.23q.348.547.696 1.19.348.634.671 1.27.336.634.609 1.23.286.596.485 1.04v-4.73h1.38v7.69z" style="fill:#ffffff"/>
 </g>
</svg>
