<svg version="1.1" viewBox="0 0 48 48" xmlns="http://www.w3.org/2000/svg">
 <path d="m8 1c-1.03 0-2 .971-2 2v42c0 .971 1.03 2 2 2h32c.971 0 2-1.03 2-2v-31l-13-13z" style="fill:#39a34f"/>
 <path d="m29 12 .063.063.156-.063h-.219zm2 2 11 11v-11h-11z" style="fill-opacity:.196"/>
 <path d="m29 1 13 13h-11c-.971 0-2-1.03-2-2v-11z" style="fill-opacity:.392;fill:#fff"/>
 <path d="m6 35v10c0 .971 1.03 2 2 2h32c.971 0 2-1.03 2-2v-10z" style="fill-opacity:.196"/>
 <g style="fill:#ffffff">
  <path d="m17 16c-.563.054-1.04.648-1.04 1.28v13.5c.006.663.538 1.26 1.13 1.25h13.8c.583-.01 1.09-.597 1.1-1.25v-13.5c.008-.663-.506-1.27-1.1-1.28h-13.9zm.973 2h12v8.59l-3.36-4.12-2.38 2.22-3.14-3.94-3.11 3.19z" style="color:#000000"/>
 </g>
 <path d="m19.7 42.2c0 .38-.0578.739-.172 1.08-.106.338-.288.633-.548.886-.25.253-.576.456-.978.607-.404.144-.892.215-1.47.215-.604 0-1.11-.0671-1.51-.202-.404-.135-.744-.299-1.02-.494l.676-1.24c.24.135.504.266.792.392.298.127.6.19.906.19.46 0 .83-.106 1.11-.317.288-.22.517-.621.517-1.2v-3.84h-3v-1.29h4.7v5.21" style="fill:#ffffff"/>
 <path d="m25.9 45c-.482-.993-1.07-1.92-1.64-2.76-.656.867-1.16 1.79-1.68 2.76h-2.04c.807-1.49 1.77-2.88 2.67-4.14l-2.55-3.86h2.16l1.55 2.49 1.51-2.49h2.04l-2.52 3.88c1.04 1.34 1.85 2.7 2.65 4.12z" style="fill:#ffffff"/>
 <path d="m34 43.5v1.55h-5v-8h1.8v6.45z" style="fill:#ffffff"/>
</svg>
