<svg version="1.1" viewBox="0 0 48 48" xmlns="http://www.w3.org/2000/svg">
 <path d="m8 1c-1.029 0-2 0.971-2 2v42c0 0.971 1.029 2 2 2h32c0.971 0 2-1.029 2-2v-31l-13-13z" style="fill:#3161b3"/>
 <path d="m31 14 11 11v-11z" style="fill-opacity:.196"/>
 <path d="m29 1 13 13h-11c-0.971 0-2-1.029-2-2v-11z" style="fill-opacity:.392;fill:#fff"/>
 <path d="m22.5 13c-2.4853 0-4.5 2.0147-4.5 4.5 0 0.82841 0.67157 1.5 1.5 1.5 0.82841 0 1.5-0.67157 1.5-1.5s0.67157-1.5 1.5-1.5 1.5 0.67157 1.5 1.5v1.5l-10.207 17.643c-0.19443 0.33606-0.29286 0.71918-0.29298 1.1074-3.66e-4 1.2426 1.0074 2.2503 2.25 2.25 0.8105-2.22e-4 1.5746-0.42795 1.957-1.1426l6.293-11.76v8.4023c0 2.4853 2.0147 4.5 4.5 4.5s4.5-2.0147 4.5-4.5c0-0.82841-0.67157-1.5-1.5-1.5s-1.5 0.67157-1.5 1.5-0.67157 1.5-1.5 1.5c-0.82841 0-1.5-0.67157-1.5-1.5v-18c0-2.4853-2.0147-4.5-4.5-4.5z" style="fill:#fff"/>
</svg>
