<svg width="48" height="48" version="1.1" viewBox="0 0 48 48" xmlns="http://www.w3.org/2000/svg">
 <path d="m8 1c-1.0286 0-2 0.97143-2 2v42c0 0.97143 1.0286 2 2 2h32c0.97143 0 2-1.0286 2-2v-31l-13-13z" style="fill:#a60a3f"/>
 <path d="m29 12 0.0625 0.0625 0.15625-0.0625h-0.21875zm2 2 11 11v-11h-11z" style="fill-opacity:.196"/>
 <path d="m29 1 13 13h-11c-0.97143 0-2-1.0286-2-2v-11z" style="fill-opacity:.392;fill:#fff"/>
 <path d="m14.555 19c-1.5952 2.2072-2.5547 4.9795-2.5547 8 0 3.0442 1.1438 5.8068 2.8867 8h11.113c-3.6533-0.0015-6-3.5817-6-8h16c0-3.0205-0.95949-5.7928-2.5547-8h-9.4453a4 4 0 0 1 4 4h-8a4 4 0 0 1 4-4zm11.445 16h7.8984c0.80849-0.89362 1.5352-1.8847 2.1016-3l-3.9453-1.8477c-1.3293 2.9455-3.6627 4.8486-6.0547 4.8477z" style="fill:#fff"/>
</svg>
