<svg width="48" height="48" version="1.1" viewBox="0 0 48 48" xmlns="http://www.w3.org/2000/svg">
 <path d="m8 1c-1.0286 0-2 0.97143-2 2v42c0 0.97143 1.0286 2 2 2h32c0.97143 0 2-1.0286 2-2v-31l-13-13z" style="fill:#efc743"/>
 <path d="m29 12 0.0625 0.0625 0.15625-0.0625h-0.21875zm2 2 11 11v-11h-11z" style="fill-opacity:.196"/>
 <path d="m29 1 13 13h-11c-0.97143 0-2-1.0286-2-2v-11z" style="fill-opacity:.392;fill:#fff"/>
 <path d="m23.287 34.985c-1.6954-0.14591-3.3791-0.62605-4.8343-1.3786-1.3206-0.68295-2.329-1.5331-2.9735-2.5067-1.1026-2.3626-1.291-3.2762-2.3818-6.3426-0.03452-0.08601-0.98088-4.001-0.97116-4.0176 0.56344 0.22677 0.9897 0.40711 1.5936 0.65864l0.28469-0.27741c0.39939-0.38917 0.81289-0.69023 1.4063-1.0239l0.18106-0.10182c0.34405-0.72964 0.71418-1.4706 1.0839-2.1749 0.62434 0.46902 1.1075 0.84984 1.7606 1.3568 0.0151 0.01153 0.20188-0.02332 0.51044-0.0952 1.2978-0.30238 1.9887-0.40441 2.8581-0.42202l0.46974-0.0095c0.57297-0.55129 1.1476-1.101 1.7229-1.6498 0.60926 0.57876 1.0701 1.0233 1.7229 1.6498l0.46973 0.0095c0.8623 0.01747 1.5486 0.11743 2.7918 0.40662 0.26424 0.06149 0.49844 0.11532 0.52046 0.11967 0.67886-0.463 1.0912-0.8113 1.8297-1.3749 0.38993 0.76271 0.66873 1.3531 1.0704 2.1827l0.13133 0.07294c0.60066 0.33351 1.0588 0.66504 1.4572 1.0545l0.28492 0.27853c0.56576-0.23595 1.1051-0.45998 1.5986-0.66512-0.34654 1.4312-0.68233 2.8588-0.97046 4.0026-0.75086 2.0789-1.3021 3.7682-2.133 5.9423-0.76584 1.4209-2.2896 2.6237-4.356 3.4386-1.053 0.41525-2.1548 0.69056-3.3166 0.82873-0.40832 0.0486-1.4394 0.0704-1.8116 0.03834zm0.7112-8.313c1.6121 0.89223 2.8689 1.6122 4.5764 2.568 0.91364-0.21198 1.3878-0.37975 2.4958-0.71025 0.62968-0.78342 1.2456-1.5751 1.7527-2.4312-0.0659-0.1941-0.27728-0.60424-0.42314-0.82116-0.83616-1.2435-2.4844-2.3138-4.5036-2.9242-1.9833-0.5996-4.2406-0.72263-6.3709-0.3472-2.7813 0.49016-5.1146 1.8325-6.0694 3.4916-0.11837 0.2057-0.25698 0.50157-0.29595 0.63173 0.49085 0.88236 1.1358 1.585 1.7637 2.399 0.8231 0.25042 1.652 0.49193 2.4797 0.72041 1.6087-0.89839 2.9558-1.6674 4.5947-2.5768z" style="fill:#fff"/>
</svg>
