<svg version="1.1" viewBox="0 0 48 48" xmlns="http://www.w3.org/2000/svg">
 <path d="m8 1c-1.029 0-2 0.971-2 2v42c0 0.971 1.029 2 2 2h32c0.971 0 2-1.029 2-2v-31l-13-13z" style="fill:#dda06a"/>
 <path d="m29 12 0.063 0.063 0.156-0.063h-0.219zm2 2 11 11v-11h-11z" style="fill-opacity:.196"/>
 <path d="m29 1 13 13h-11c-0.971 0-2-1.029-2-2v-11z" style="fill-opacity:.392;fill:#fff"/>
 <path d="m23.325 14.11c-2 0.641-0.246 3.624-3.115 5.085-3.278 1.67-4.908-2.544-6.877 0.464-1.969 3.01 2.717 2.542 2.585 6.083s-4.769 2.789-3.03 5.914c1.74 3.125 3.672-0.976 6.819 0.895 3.146 1.871 0.139 5.333 3.847 5.449 3.709 0.116 0.955-3.518 4.233-5.188s4.908 2.544 6.877-0.464c1.969-3.01-2.717-2.542-2.585-6.083s4.769-2.789 3.03-5.914c-1.74-3.125-3.672 0.976-6.819-0.895-3.146-1.871-0.138-5.333-3.847-5.449-0.464-0.014-0.832 0.012-1.119 0.103zm0.038 9.02c1.654-0.338 3.281 0.677 3.632 2.266 0.352 1.589-0.704 3.152-2.359 3.49-1.654 0.338-3.281-0.677-3.632-2.266-0.352-1.589 0.704-3.152 2.359-3.49z" style="fill:#fff"/>
</svg>
