<svg width="288" height="288" viewBox="0 0 288 288" fill="none" xmlns="http://www.w3.org/2000/svg">
<path d="M240 104.28V72C240 58.8 229.2 48 216 48H183.72L160.92 25.2C151.56 15.84 136.32 15.84 126.96 25.2L104.28 48H72C58.8 48 48 58.8 48 72V104.28L25.2 127.08C15.84 136.44 15.84 151.68 25.2 161.04L48 183.84V216C48 229.2 58.8 240 72 240H104.28L127.08 262.8C136.44 272.16 151.68 272.16 161.04 262.8L183.84 240H216C229.2 240 240 229.2 240 216V183.72L262.8 160.92C272.16 151.56 272.16 136.32 262.8 126.96L240 104.28ZM144 216C104.28 216 72 183.72 72 144C72 104.28 104.28 72 144 72C183.72 72 216 104.28 216 144C216 183.72 183.72 216 144 216ZM144 96C117.48 96 96 117.48 96 144C96 170.52 117.48 192 144 192C170.52 192 192 170.52 192 144C192 117.48 170.52 96 144 96Z" fill="#E5C76B"/>
</svg>
