<svg width="288" height="288" viewBox="0 0 288 288" fill="none" xmlns="http://www.w3.org/2000/svg">
<path d="M46.455 183.658V211.721C46.455 227.638 59.475 240.622 75.435 240.622H103.575L123.525 260.518C128.985 265.963 136.335 269 144 269C151.665 269 159.015 265.963 164.475 260.518L184.425 240.622H212.565C228.525 240.622 241.545 227.638 241.545 211.721V183.658L261.495 163.762C266.955 158.317 270 150.987 270 143.343C270 135.699 266.955 128.369 261.495 122.924L241.545 103.028V74.9645C241.545 59.048 228.525 46.0634 212.565 46.0634H184.425L164.475 26.1677C153.555 15.2774 134.445 15.2774 123.525 26.1677L103.575 46.0634H75.435C59.475 46.0634 46.455 59.048 46.455 74.9645V103.028L26.505 122.924C21.045 128.369 18 135.699 18 143.343C18 150.987 21.045 158.317 26.505 163.762L46.455 183.658ZM144 80.5144C152.4 80.5144 160.485 82.0851 167.94 85.0171C170.985 86.2737 172.875 89.2057 172.875 92.3471C172.875 95.5932 170.88 98.5252 167.835 99.6771C151.245 106.169 133.5 121.039 133.5 143.343C133.5 165.647 151.245 180.516 167.835 187.009C170.88 188.161 172.875 191.093 172.875 194.339C172.875 197.48 170.985 200.412 167.94 201.669C160.485 204.601 152.4 206.171 144 206.171C107.46 206.171 81 179.783 81 143.343C81 106.902 107.46 80.5144 144 80.5144Z" fill="#E5C76B"/>
</svg>
