<?xml version="1.0" encoding="UTF-8"?>
<svg xmlns="http://www.w3.org/2000/svg" xmlns:xlink="http://www.w3.org/1999/xlink" viewBox="0 0 100 100" width="100px" height="100px">
<g id="surface75392">
<path style=" stroke:none;fill-rule:nonzero;fill:rgb(85.490197%,85.490197%,85.490197%);fill-opacity:1;" d="M 87.8125 91.574219 C 81.789062 88.972656 74.351562 86.527344 65.722656 85.089844 C 63.351562 84.695312 61.667969 82.433594 62.074219 80.066406 C 62.320312 78.652344 62.445312 77.175781 62.445312 75.628906 C 62.445312 65.839844 57.207031 57.890625 50.773438 57.890625 C 44.296875 57.890625 39.058594 65.839844 39.058594 75.628906 C 39.058594 77.101562 39.179688 78.542969 39.414062 79.921875 C 39.808594 82.300781 38.125 84.570312 35.742188 84.945312 C 26.753906 86.359375 19.035156 88.925781 12.773438 91.621094 C 8.960938 92.171875 5.882812 87.808594 8.132812 84.316406 C 8.683594 83.488281 9.238281 82.617188 9.742188 81.742188 C 11.074219 79.628906 12.410156 77.511719 13.691406 75.308594 C 19.574219 65.613281 25.453125 55.085938 31.152344 43.785156 C 31.292969 43.507812 31.429688 43.183594 31.566406 42.910156 C 32.761719 40.566406 33.910156 38.222656 35.011719 35.878906 C 35.5625 34.773438 36.117188 33.625 36.621094 32.519531 C 37.496094 33.070312 38.367188 33.710938 39.378906 34.359375 C 43.976562 37.207031 48.296875 38.816406 51.421875 39.640625 C 49.125 37.894531 46.597656 35.828125 44.019531 33.253906 C 42.085938 31.324219 40.386719 29.394531 38.917969 27.511719 C 41.074219 22.734375 43.144531 18.046875 44.984375 13.496094 C 45.304688 12.761719 45.625 12.023438 45.902344 11.335938 C 47.511719 7.339844 53.074219 7.339844 54.730469 11.292969 C 55.507812 13.175781 56.292969 15.105469 57.121094 17.039062 C 57.808594 18.738281 58.589844 20.4375 59.371094 22.183594 C 59.875 23.375 60.429688 24.617188 60.980469 25.859375 C 62.082031 28.339844 63.230469 30.820312 64.425781 33.351562 C 65.527344 35.789062 66.722656 38.222656 67.960938 40.699219 C 67.960938 40.792969 68.007812 40.835938 68.054688 40.929688 C 70.996094 46.949219 74.027344 52.691406 77.109375 58.253906 C 79.3125 62.339844 81.566406 66.296875 83.863281 70.113281 C 84.644531 71.539062 85.472656 72.917969 86.347656 74.296875 C 86.941406 75.261719 87.496094 76.226562 88.089844 77.144531 L 88.042969 77.144531 C 86.433594 76.273438 84.6875 75.445312 82.804688 74.707031 C 79.542969 73.421875 76.507812 72.640625 73.886719 72.179688 C 77.472656 73.972656 81.609375 76.316406 85.929688 79.441406 C 88.597656 81.417969 90.984375 83.347656 93.003906 85.277344 C 94.199219 88.585938 91.304688 92.171875 87.8125 91.574219 Z M 87.8125 91.574219 "/>
</g>
</svg>
