<svg width="50" height="50" viewBox="0 0 50 50" fill="none" xmlns="http://www.w3.org/2000/svg">
<path d="M25 22.9167C19.8271 22.9167 15.0167 24.4959 11.025 27.1959C8.9271 28.6167 8.73545 31.6521 10.5271 33.4438L10.6063 33.5229C11.9771 34.8938 14.1313 35.1396 15.7438 34.0604C18.3938 32.2875 21.5792 31.25 25 31.25C28.4209 31.25 31.6063 32.2875 34.2542 34.0625C35.8667 35.1417 38.0209 34.8959 39.3917 33.525L39.4709 33.4459C41.2625 31.6542 41.0729 28.6188 38.9729 27.1979C34.9834 24.4959 30.1729 22.9167 25 22.9167Z" fill="#C47FD5"/>
<path d="M19.8479 42.7646L21.4041 44.3208C23.3896 46.3063 26.6104 46.3063 28.5958 44.3208L30.152 42.7646C32.4062 40.5104 31.35 36.6875 28.2729 35.8521C27.2291 35.5688 26.1333 35.4167 25 35.4167C23.8666 35.4167 22.7708 35.5688 21.727 35.8521C18.65 36.6875 17.5937 40.5104 19.8479 42.7646Z" fill="#C47FD5"/>
<path d="M25 18.75C31.7021 18.75 37.8812 21.0208 42.8125 24.8354C44.4917 26.1333 46.8458 26.0729 48.3458 24.5708L48.4021 24.5146C50.1665 22.75 49.9562 19.8479 47.9874 18.3146C41.6333 13.3646 33.6437 10.4166 24.9646 10.4166C16.3041 10.4166 8.3312 13.3521 1.98539 18.2812C0.0124708 19.8125 -0.197946 22.7187 1.56872 24.4833L1.65622 24.5708C3.15622 26.0708 5.5104 26.1333 7.18955 24.8354C12.1187 21.0208 18.2979 18.75 25 18.75Z" fill="#C47FD5"/>
<path d="M43.75 45.8334C43.2167 45.8334 42.6833 45.6292 42.2771 45.2229L4.77709 7.7229C3.96251 6.90835 3.96251 5.59165 4.77709 4.77709C5.59165 3.96251 6.90835 3.96251 7.7229 4.77709L45.2229 42.2771C46.0375 43.0916 46.0375 44.4084 45.2229 45.2229C44.8167 45.6292 44.2833 45.8334 43.75 45.8334Z" fill="#C47FD5"/>
</svg>
