<?xml version="1.0" encoding="UTF-8"?>
<svg xmlns="http://www.w3.org/2000/svg" xmlns:xlink="http://www.w3.org/1999/xlink" viewBox="0 0 100 100" width="100px" height="100px">
<g id="surface78368">
<path style=" stroke:none;fill-rule:nonzero;fill:rgb(40.392157%,69.01961%,90.980393%);fill-opacity:1;" d="M 87.8125 91.574219 C 81.789062 88.972656 74.351562 86.527344 65.722656 85.089844 C 63.351562 84.695312 61.667969 82.433594 62.074219 80.066406 C 62.320312 78.652344 62.445312 77.175781 62.445312 75.628906 C 62.445312 65.839844 57.207031 57.890625 50.773438 57.890625 C 44.296875 57.890625 39.058594 65.839844 39.058594 75.628906 C 39.058594 77.101562 39.179688 78.542969 39.414062 79.921875 C 39.808594 82.300781 38.125 84.570312 35.742188 84.945312 C 26.753906 86.359375 19.035156 88.925781 12.773438 91.621094 C 8.960938 92.171875 5.882812 87.808594 8.132812 84.316406 C 8.683594 83.488281 9.238281 82.617188 9.742188 81.742188 C 11.074219 79.628906 12.410156 77.511719 13.691406 75.308594 C 19.574219 65.613281 25.453125 55.085938 31.152344 43.785156 C 31.292969 43.507812 31.429688 43.183594 31.566406 42.910156 C 32.761719 40.566406 33.910156 38.222656 35.011719 35.878906 C 35.5625 34.773438 36.117188 33.625 36.621094 32.519531 C 37.496094 33.070312 38.367188 33.710938 39.378906 34.359375 C 41.535156 35.695312 43.632812 36.757812 45.570312 37.597656 C 50.136719 47.753906 60.351562 54.84375 72.191406 54.84375 C 73.191406 54.84375 74.183594 54.792969 75.160156 54.695312 C 75.804688 55.890625 76.457031 57.074219 77.109375 58.253906 C 79.3125 62.339844 81.566406 66.296875 83.863281 70.113281 C 84.644531 71.539062 85.472656 72.917969 86.347656 74.296875 C 86.941406 75.261719 87.496094 76.226562 88.089844 77.144531 L 88.042969 77.144531 C 86.433594 76.273438 84.6875 75.445312 82.804688 74.707031 C 79.542969 73.421875 76.507812 72.640625 73.886719 72.179688 C 77.472656 73.972656 81.609375 76.316406 85.929688 79.441406 C 88.597656 81.417969 90.984375 83.347656 93.003906 85.277344 C 94.199219 88.585938 91.304688 92.171875 87.8125 91.574219 Z M 44.019531 33.253906 C 42.085938 31.324219 40.386719 29.394531 38.917969 27.511719 C 41.074219 22.734375 43.144531 18.046875 44.984375 13.496094 C 45.304688 12.761719 45.625 12.023438 45.902344 11.335938 C 46.433594 10.023438 47.390625 9.140625 48.496094 8.691406 C 45.050781 13.476562 43.023438 19.347656 43.023438 25.679688 C 43.023438 28.296875 43.371094 30.835938 44.019531 33.253906 Z M 44.019531 33.253906 "/>
<path style=" stroke:none;fill-rule:nonzero;fill:rgb(87.843138%,43.137255%,43.137255%);fill-opacity:1;" d="M 72.191406 4.84375 C 60.679688 4.84375 51.355469 14.171875 51.355469 25.679688 C 51.355469 37.1875 60.679688 46.511719 72.191406 46.511719 C 83.699219 46.511719 93.023438 37.1875 93.023438 25.679688 C 93.023438 14.171875 83.699219 4.84375 72.191406 4.84375 Z M 72.191406 4.84375 "/>
</g>
</svg>
