<svg width="50" height="50" viewBox="0 0 50 50" fill="none" xmlns="http://www.w3.org/2000/svg">
<path fill-rule="evenodd" clip-rule="evenodd" d="M25 20.8333C19.8271 20.8333 15.0167 22.4125 11.025 25.1125C8.92712 26.5333 8.73547 29.5687 10.5271 31.3604L10.6063 31.4396C11.9771 32.8104 14.1313 33.0562 15.7438 31.9771C18.3938 30.2041 21.5792 29.1666 25 29.1666C28.4209 29.1666 31.6063 30.2041 34.2542 31.9791C35.8667 33.0583 38.0209 32.8125 39.3917 31.4416L39.4709 31.3625C41.2625 29.5708 41.073 26.5354 38.973 25.1146C34.9834 22.4125 30.173 20.8333 25 20.8333Z" fill="#C47FD5"/>
<path fill-rule="evenodd" clip-rule="evenodd" d="M19.8479 40.6812L21.4041 42.2375C23.3896 44.2229 26.6104 44.2229 28.5958 42.2375L30.152 40.6812C32.4062 38.4271 31.35 34.6041 28.2729 33.7687C27.2291 33.4854 26.1333 33.3333 25 33.3333C23.8666 33.3333 22.7708 33.4854 21.727 33.7687C18.65 34.6041 17.5937 38.4271 19.8479 40.6812Z" fill="#C47FD5"/>
<path fill-rule="evenodd" clip-rule="evenodd" d="M25 16.6667C31.7021 16.6667 37.8812 18.9375 42.8125 22.7521C44.4917 24.05 46.8458 23.9896 48.3458 22.4875L48.4021 22.4313C50.1665 20.6667 49.9562 17.7646 47.9874 16.2313C41.6333 11.2813 33.6437 8.33335 24.9646 8.33335C16.3041 8.33335 8.3312 11.2688 1.98539 16.1979C0.0124708 17.7292 -0.197946 20.6354 1.56872 22.4L1.65622 22.4875C3.15622 23.9875 5.5104 24.05 7.18955 22.7521C12.1187 18.9375 18.2979 16.6667 25 16.6667Z" fill="#C47FD5" fill-opacity="0.251"/>
</svg>
