<svg width="50" height="50" viewBox="0 0 50 50" fill="none" xmlns="http://www.w3.org/2000/svg">
<path fill-rule="evenodd" clip-rule="evenodd" d="M25.0002 20.8335C19.8273 20.8335 15.0169 22.4126 11.0252 25.1126C8.92727 26.5335 8.73562 29.5689 10.5273 31.3605L10.6064 31.4397C11.9773 32.8105 14.1314 33.0564 15.7439 31.9772C18.3939 30.2043 21.5794 29.1668 25.0002 29.1668C28.421 29.1668 31.6064 30.2043 34.2544 31.9793C35.8669 33.0585 38.021 32.8126 39.3919 31.4418L39.471 31.3626C41.2627 29.571 41.0731 26.5355 38.9731 25.1147C34.9835 22.4126 30.1731 20.8335 25.0002 20.8335Z" fill="#C47FD5" fill-opacity="0.251"/>
<path fill-rule="evenodd" clip-rule="evenodd" d="M19.848 40.6814L21.4043 42.2376C23.3898 44.223 26.6106 44.223 28.596 42.2376L30.1522 40.6814C32.4064 38.4272 31.3502 34.6043 28.2731 33.7689C27.2293 33.4855 26.1335 33.3335 25.0002 33.3335C23.8668 33.3335 22.7709 33.4855 21.7272 33.7689C18.6501 34.6043 17.5939 38.4272 19.848 40.6814Z" fill="#C47FD5" fill-opacity="0.251"/>
<path fill-rule="evenodd" clip-rule="evenodd" d="M25.0001 16.6668C31.7022 16.6668 37.8814 18.9376 42.8126 22.7522C44.4918 24.0501 46.846 23.9897 48.346 22.4876L48.4022 22.4314C50.1667 20.6668 49.9564 17.7647 47.9876 16.2314C41.6335 11.2814 33.6439 8.3335 24.9647 8.3335C16.3043 8.3335 8.33136 11.2689 1.98553 16.198C0.0126094 17.7293 -0.197809 20.6355 1.56886 22.4001L1.65636 22.4876C3.15636 23.9876 5.51056 24.0501 7.18971 22.7522C12.1189 18.9376 18.2981 16.6668 25.0001 16.6668Z" fill="#C47FD5" fill-opacity="0.251"/>
</svg>
