<?xml version="1.0" encoding="UTF-8" standalone="no"?>
<svg
   xmlns:dc="http://purl.org/dc/elements/1.1/"
   xmlns:cc="http://creativecommons.org/ns#"
   xmlns:rdf="http://www.w3.org/1999/02/22-rdf-syntax-ns#"
   xmlns:svg="http://www.w3.org/2000/svg"
   xmlns="http://www.w3.org/2000/svg"
   xmlns:sodipodi="http://sodipodi.sourceforge.net/DTD/sodipodi-0.dtd"
   xmlns:inkscape="http://www.inkscape.org/namespaces/inkscape"
   viewBox="0 0 16 16"
   style="display:inline;enable-background:new"
   version="1.0"
   id="svg11300"
   height="16"
   width="16"
   sodipodi:docname="org.xfce.workspaces.svg"
   inkscape:version="0.92.4 (5da689c313, 2019-01-14)">
  <sodipodi:namedview
     pagecolor="#ffffff"
     bordercolor="#666666"
     borderopacity="1"
     objecttolerance="10"
     gridtolerance="10"
     guidetolerance="10"
     inkscape:pageopacity="0"
     inkscape:pageshadow="2"
     inkscape:window-width="1920"
     inkscape:window-height="1027"
     id="namedview35"
     showgrid="true"
     inkscape:zoom="64"
     inkscape:cx="8.437402"
     inkscape:cy="4.0693941"
     inkscape:window-x="0"
     inkscape:window-y="29"
     inkscape:window-maximized="1"
     inkscape:current-layer="g3547"
     showguides="false"
     inkscape:lockguides="true"
     inkscape:pagecheckerboard="false">
    <inkscape:grid
       type="xygrid"
       id="grid842"
       empspacing="4" />
  </sodipodi:namedview>
  <title
     id="title4162">Adwaita Icon Template</title>
  <defs
     id="defs3" />
  <metadata
     id="metadata4">
    <rdf:RDF>
      <cc:Work
         rdf:about="">
        <dc:format>image/svg+xml</dc:format>
        <dc:type
           rdf:resource="http://purl.org/dc/dcmitype/StillImage" />
        <dc:creator>
          <cc:Agent>
            <dc:title>GNOME Design Team</dc:title>
          </cc:Agent>
        </dc:creator>
        <dc:source />
        <cc:license
           rdf:resource="http://creativecommons.org/licenses/by-sa/4.0/" />
        <dc:title>Adwaita Icon Template</dc:title>
        <dc:subject>
          <rdf:Bag />
        </dc:subject>
        <dc:date />
        <dc:rights>
          <cc:Agent>
            <dc:title />
          </cc:Agent>
        </dc:rights>
        <dc:publisher>
          <cc:Agent>
            <dc:title />
          </cc:Agent>
        </dc:publisher>
        <dc:identifier />
        <dc:relation />
        <dc:language />
        <dc:coverage />
        <dc:description />
        <dc:contributor>
          <cc:Agent>
            <dc:title />
          </cc:Agent>
        </dc:contributor>
      </cc:Work>
      <cc:License
         rdf:about="http://creativecommons.org/licenses/by-sa/4.0/">
        <cc:permits
           rdf:resource="http://creativecommons.org/ns#Reproduction" />
        <cc:permits
           rdf:resource="http://creativecommons.org/ns#Distribution" />
        <cc:requires
           rdf:resource="http://creativecommons.org/ns#Notice" />
        <cc:requires
           rdf:resource="http://creativecommons.org/ns#Attribution" />
        <cc:permits
           rdf:resource="http://creativecommons.org/ns#DerivativeWorks" />
        <cc:requires
           rdf:resource="http://creativecommons.org/ns#ShareAlike" />
      </cc:License>
    </rdf:RDF>
  </metadata>
  <g
     style="display:inline;enable-background:new"
     id="g3547"
     transform="matrix(5.0000031,0,0,5.0000031,-2535.5554,-1750.0011)"
     inkscape:label="emoji-symbols-alt">
    <g
       transform="translate(70.996976,-48.99999)"
       inkscape:label="emblem-favorite"
       id="use3544"
       style="display:inline;fill:#2e3436;fill-opacity:1;enable-background:new">
      <rect
         style="display:inline;opacity:1;fill:#758087;fill-opacity:1;stroke:none;stroke-width:0.25;stroke-linecap:butt;stroke-linejoin:miter;stroke-miterlimit:4;stroke-dasharray:none;stroke-dashoffset:0;stroke-opacity:1;marker:none;marker-start:none;marker-mid:none;marker-end:none;paint-order:normal;enable-background:new"
         id="rect879-367-1-5"
         width="104"
         height="99.999992"
         x="1.9726574e-05"
         y="4.0020275"
         rx="7.9999995"
         ry="7.9999995" />
      <rect
         style="display:inline;opacity:1;fill:#6acfec;fill-opacity:1;stroke:none;stroke-width:0.25;stroke-linecap:butt;stroke-linejoin:miter;stroke-miterlimit:4;stroke-dasharray:none;stroke-dashoffset:0;stroke-opacity:1;marker:none;marker-start:none;marker-mid:none;marker-end:none;paint-order:normal;enable-background:new"
         id="rect833-8-6"
         width="104"
         height="99.999992"
         x="1.9726574e-05"
         y="0.0016284678"
         rx="7.9999995"
         ry="7.9999995" />
      <path
         inkscape:connector-curvature="0"
         style="display:inline;opacity:1;fill:#00aade;fill-opacity:1;stroke:none;stroke-width:0.25;stroke-linecap:butt;stroke-linejoin:miter;stroke-miterlimit:4;stroke-dasharray:none;stroke-dashoffset:0;stroke-opacity:1;marker:none;marker-start:none;marker-mid:none;marker-end:none;paint-order:normal;enable-background:new"
         d="M 8.000005,0 C 3.5680022,0 0,3.5680022 0,8.000005 V 49.999981 H 51.999982 V 0 Z"
         id="rect4547-7-2" />
      <path
         inkscape:connector-curvature="0"
         style="display:inline;opacity:1;fill:#d2d8dc;fill-opacity:1;stroke:none;stroke-width:0.25;stroke-linecap:butt;stroke-linejoin:miter;stroke-miterlimit:4;stroke-dasharray:none;stroke-dashoffset:0;stroke-opacity:1;marker:none;marker-start:none;marker-mid:none;marker-end:none;paint-order:normal;enable-background:new"
         d="M 51.999982,0 V 49.999981 H 104.00001 V 8.000005 c 0,-4.4320028 -3.568,-8.000005 -8,-8.000005 z"
         id="rect4553-9-9" />
      <path
         id="path4556-2-1"
         d="M 51.999982,99.999962 V 49.999981 H 0 v 42.000026 c 0,4.431953 3.5680022,7.999955 8.000005,7.999955 z"
         style="display:inline;opacity:1;fill:#bcc5ca;fill-opacity:1;stroke:none;stroke-width:0.25;stroke-linecap:butt;stroke-linejoin:miter;stroke-miterlimit:4;stroke-dasharray:none;stroke-dashoffset:0;stroke-opacity:1;marker:none;marker-start:none;marker-mid:none;marker-end:none;paint-order:normal;enable-background:new"
         inkscape:connector-curvature="0" />
      <g
         id="g23429-5-6-2"
         inkscape:label="web-browser"
         transform="matrix(1.5,0,0,1.5,-258.50001,-783.50543)"
         style="display:inline;fill:#2e3436;fill-opacity:1;enable-background:new">
        <rect
           width="16"
           height="16"
           x="183"
           y="529"
           id="rect18110-7-1-3-6-3-7-7"
           style="color:#bebebe;display:inline;overflow:visible;visibility:visible;fill:none;stroke:none;stroke-width:1.78100002;marker:none;enable-background:new" />
        <path
           sodipodi:nodetypes="cccccccc"
           id="path6242-5-5-0"
           d="m 191.0002,533.84553 v 10.38049 l -2.34399,-2.28818 -1.33941,2.73465 c -0.32808,0.73962 -2.03368,0.14492 -1.5487,-0.84412 l 1.32547,-2.83928 h -2.95789 z"
           style="color:#000000;display:block;overflow:visible;visibility:visible;fill:#003445;fill-opacity:1;fill-rule:nonzero;stroke:none;stroke-width:1;marker:none;enable-background:accumulate"
           inkscape:connector-curvature="0" />
        <path
           style="color:#000000;font-style:normal;font-variant:normal;font-weight:normal;font-stretch:normal;font-size:medium;line-height:normal;font-family:Sans;-inkscape-font-specification:Sans;text-indent:0;text-align:start;text-decoration:none;text-decoration-line:none;letter-spacing:normal;word-spacing:normal;text-transform:none;writing-mode:lr-tb;direction:ltr;baseline-shift:baseline;text-anchor:start;display:inline;overflow:visible;visibility:visible;fill:#003445;fill-opacity:1;stroke:none;stroke-width:2;marker:none;enable-background:accumulate"
           d="m 190.15645,530.0625 c -3.82659,0.46006 -6.57883,3.95775 -6.09375,7.78125 0.13127,1.03473 0.29377,1.38184 0.29377,1.38184 l 1.67498,-1.63184 c -0.33104,-2.75343 1.62156,-5.23146 4.375,-5.5625 2.75344,-0.33104 5.23146,1.62156 5.5625,4.375 0.31355,2.60795 -1.39127,5.02493 -3.96875,5.53125 l 0.0312,2 c 0,0 0.52086,-0.1059 0.62354,-0.13097 3.41561,-0.83385 5.70627,-4.1273 5.28271,-7.65028 -0.46006,-3.8266 -3.95466,-6.55381 -7.78125,-6.09375 z"
           id="path23405-6-3-9"
           inkscape:connector-curvature="0"
           sodipodi:nodetypes="csccssccsssc" />
        <path
           id="path11289-2-5-3"
           style="color:#000000;display:inline;overflow:visible;visibility:visible;opacity:0.3;fill:#2e3436;fill-opacity:1;fill-rule:nonzero;stroke:none;stroke-width:1;marker:none;enable-background:accumulate"
           d="m 187.11293,536.81497 v -0.20574 l -0.19826,0.0186 c 0.0165,-0.13095 0.0329,-0.26167 0.0496,-0.3926 h -0.11578 l -0.11556,0.14959 -0.11578,0.0559 -0.1653,-0.0932 -0.0165,-0.20575 0.0331,-0.22438 0.24798,-0.18688 h 0.19826 l 0.0329,-0.11229 0.24786,0.0559 0.18183,0.2246 0.0331,-0.37419 0.31401,-0.26167 0.11567,-0.28055 0.23133,-0.0934 0.1322,-0.18688 0.29738,-0.0564 0.14885,-0.22415 c -0.14874,0 -0.29749,0 -0.44623,0 l 0.28094,-0.13095 h 0.19814 l 0.28106,-0.0937 0.0331,-0.11186 -0.0992,-0.0937 -0.11567,-0.0375 0.0331,-0.11208 -0.0826,-0.16822 -0.19837,0.0746 0.0331,-0.14947 -0.23134,-0.13096 -0.18171,0.3177 0.0165,0.11229 -0.18171,0.075 -0.11578,0.24302 -0.0495,-0.22438 -0.31402,-0.13095 -0.0496,-0.16822 0.41315,-0.24325 0.18182,-0.16822 0.0165,-0.20563 -0.0991,-0.0562 -0.13219,-0.0188 -0.0826,0.20575 c 0,0 -0.1382,0.0271 -0.17373,0.0358 -0.45378,0.41804 -1.37066,1.32044 -1.58368,3.02405 0.008,0.0395 0.15441,0.26854 0.15441,0.26854 l 0.347,0.20552 0.347,0.0937 m 3.96609,-4.30034 -0.4298,-0.16833 -0.49552,0.0561 -0.61161,0.16822 -0.11567,0.11229 0.38008,0.26167 v 0.14959 l -0.14875,0.14959 0.19846,0.39294 0.13188,-0.075 0.16561,-0.26168 c 0.2553,-0.0789 0.4842,-0.16833 0.72686,-0.28053 l 0.19846,-0.5048 m 2.52925,0.34192 -0.375,0.0937 -0.21875,0.15625 v 0.125 l -0.375,0.25 0.0937,0.34375 0.21875,-0.15625 0.125,0.15625 0.15625,0.0937 0.0937,-0.28125 -0.0625,-0.15625 0.0625,-0.0937 0.21875,-0.1875 h 0.0937 l -0.0937,0.21875 v 0.1875 c 0.0892,-0.0242 0.1588,-0.051 0.25,-0.0625 l -0.25,0.1875 v 0.125 l -0.3125,0.21875 -0.28125,-0.0625 v -0.15625 l -0.125,0.0625 0.0625,0.15625 h -0.21875 l -0.125,0.21875 -0.15625,0.15625 -0.0937,0.0312 v 0.1875 l 0.0312,0.15625 h -0.0312 v 0.53125 l 0.0625,-0.0312 0.0937,-0.21875 0.1875,-0.125 0.0312,-0.0937 0.28125,-0.0625 0.15625,0.1875 0.1875,0.0937 -0.0937,0.1875 0.15625,-0.0312 0.0625,-0.21875 -0.1875,-0.21875 h 0.0625 L 193.2501,535 l 0.0312,0.21875 0.15625,0.21875 0.0625,-0.3125 0.0937,-0.0312 c 0.0959,0.0996 0.1692,0.23163 0.25,0.34375 h 0.28125 l 0.1875,0.125 -0.0937,0.0937 -0.15625,0.15625 h -0.25 l -0.34375,-0.0937 h -0.1875 l -0.125,0.15625 -0.34375,-0.375 -0.25,-0.0625 -0.375,0.0625 -0.15625,0.0937 V 538 l 0.0312,0.0312 0.25,-0.15625 0.0937,0.0937 h 0.28125 l 0.125,0.15625 -0.0937,0.3125 0.1875,0.1875 v 0.375 l 0.125,0.25 -0.0937,0.25 c -0.009,0.16159 0,0.30714 0,0.46875 0.0795,0.21894 0.14355,0.43575 0.21875,0.65625 l 0.0625,0.34375 v 0.1875 h 0.125 l 0.21875,-0.125 h 0.25 l 0.375,-0.4375 -0.0312,-0.15625 0.25,-0.21875 -0.1875,-0.1875 0.21875,-0.1875 0.21875,-0.125 0.0937,-0.125 -0.0625,-0.25 v -0.59375 l 0.1875,-0.375 0.1875,-0.25 0.25,-0.5625 v -0.15625 c -0.11654,0.0146 -0.22972,0.0231 -0.34375,0.0312 -0.0722,0.005 -0.14446,0 -0.21875,0 -0.12359,-0.25961 -0.2183,-0.50966 -0.3125,-0.78125 l -0.15625,-0.1875 -0.0937,-0.3125 0.0625,-0.0625 0.21875,0.25 0.25,0.5625 0.15625,0.15625 -0.0625,0.21875 0.15625,0.15625 0.25,-0.25 0.3125,-0.21875 0.15625,-0.1875 v -0.21875 c -0.0389,-0.0732 -0.0547,-0.14545 -0.0937,-0.21875 l -0.15625,0.1875 -0.125,-0.15625 -0.1875,-0.125 v -0.28125 l 0.21875,0.21875 0.21875,-0.0312 c 0.10166,0.0923 0.19205,0.20751 0.28125,0.3125 l 0.15625,-0.1875 c 0,-0.17463 -0.19976,-1.02044 -0.625,-1.75 -0.42526,-0.72932 -1.15625,-1.40625 -1.15625,-1.40625 l -0.0625,0.0937 -0.21875,0.21875 -0.25,-0.25 h 0.25 l 0.125,-0.125 -0.46875,-0.0937 -0.25,-0.0937 z"
           inkscape:connector-curvature="0" />
      </g>
      <g
         transform="matrix(1.5,0,0,1.5,-115.00032,-534.99993)"
         inkscape:label="system-file-manager"
         id="g14600-21-3-9-7-6"
         style="display:inline;fill:#2e3436;fill-opacity:1;enable-background:new">
        <rect
           style="fill:none;stroke:none"
           id="rect3620-8-8-0-1-5-0"
           width="16"
           height="16"
           x="122.0002"
           y="398"
           rx="0"
           ry="0" />
        <path
           style="color:#000000;display:inline;overflow:visible;visibility:visible;fill:#003445;fill-opacity:1;fill-rule:evenodd;stroke:none;stroke-width:1;marker:none;enable-background:accumulate"
           d="M 205.1875,381 C 203.98238,381 203,382.01795 203,383.21875 v 11.5625 c 0,1.2008 0.98238,2.21875 2.1875,2.21875 h 9.625 c 1.20512,0 2.1875,-1.01795 2.1875,-2.21875 v -11.5625 C 217,382.01795 216.01762,381 214.8125,381 Z M 205,384 h 10 v 11 h -10 z m 1,1 v 4 h 8.03125 v -4 z m 2.34375,1.4375 a 0.50004997,0.50004997 0 0 1 0.0625,0 0.50004997,0.50004997 0 0 1 0.59375,0.5 V 387 h 2 v -0.0625 a 0.50004997,0.50004997 0 1 1 1,0 V 387 c 0,0.54535 -0.45465,1 -1,1 h -2 c -0.54535,0 -1,-0.45465 -1,-1 v -0.0625 a 0.50004997,0.50004997 0 0 1 0.34375,-0.5 z M 206.03125,390 v 4 h 8.03125 v -4 z m 2.3125,1.4375 a 0.50004997,0.50004997 0 0 1 0.0625,0 0.50004997,0.50004997 0 0 1 0.59375,0.5 V 392 h 2 v -0.0625 a 0.50004997,0.50004997 0 1 1 1,0 V 392 c 0,0.54535 -0.45465,1 -1,1 h -2 c -0.54535,0 -1,-0.45465 -1,-1 v -0.0625 a 0.50004997,0.50004997 0 0 1 0.34375,-0.5 z"
           transform="translate(-80,17)"
           id="rect11668-7-27-9-6"
           inkscape:connector-curvature="0" />
      </g>
      <g
         transform="matrix(1.4999981,0,0,1.4999981,-168.99976,-534.99913)"
         inkscape:label="utilities-terminal"
         id="g14600-3-2"
         style="display:inline;fill:#2e3436;fill-opacity:1;enable-background:new">
        <path
           style="color:#bebebe;display:inline;overflow:visible;visibility:visible;fill:none;stroke:#003445;stroke-width:2;stroke-miterlimit:4;stroke-opacity:1;marker:none"
           d="m 124.19887,398.99998 h 11.60225 c 0.66417,0 1.19888,0.53934 1.19888,1.20928 v 10.58145 c 0,0.66994 -0.53471,1.20927 -1.19888,1.20927 h -11.60225 c -0.66417,0 -1.19887,-0.53933 -1.19887,-1.20927 v -10.58145 c 0,-0.66994 0.5347,-1.20928 1.19887,-1.20928 z"
           id="rect11749-5-9-6-61"
           sodipodi:nodetypes="ccccccccc"
           inkscape:connector-curvature="0" />
        <rect
           style="fill:none;stroke:none"
           id="rect3620-8-1-8"
           width="16"
           height="16"
           x="122"
           y="398"
           rx="0"
           ry="0" />
        <path
           style="color:#bebebe;display:inline;overflow:visible;visibility:visible;fill:none;stroke:#003445;stroke-width:1.20000005;stroke-linecap:round;stroke-linejoin:round;stroke-miterlimit:4;stroke-dasharray:none;stroke-dashoffset:0;stroke-opacity:1;marker:none"
           d="m 126.5,408.50001 2,-2.00001 -2,-2"
           id="path11751-2-3-2-7"
           inkscape:connector-curvature="0"
           sodipodi:nodetypes="ccc" />
        <rect
           style="color:#bebebe;display:inline;overflow:visible;visibility:visible;fill:#2e3436;fill-opacity:1;fill-rule:nonzero;stroke:#003445;stroke-width:1;marker:none;enable-background:accumulate"
           id="rect4987-9-9"
           width="3"
           height="1.00001"
           x="130"
           y="408" />
      </g>
      <path
         inkscape:connector-curvature="0"
         d="m 54.000733,19.968062 c 2.134352,0 9.015506,17.168761 10.742207,18.421812 1.726801,1.253101 20.200513,2.484401 20.860113,4.511903 0.6595,2.027551 -13.561508,13.869758 -14.221059,15.897259 -0.65955,2.027552 3.876803,19.957263 2.150052,21.210314 -1.726701,1.25315 -17.396961,-8.596756 -19.531313,-8.596756 -2.134351,0 -17.804561,9.849906 -19.531312,8.596756 -1.726701,-1.253051 2.809602,-19.182762 2.150102,-21.210314 -0.659601,-2.027501 -14.88061,-13.869708 -14.221059,-15.897259 0.65955,-2.027502 19.133362,-3.258802 20.860063,-4.511903 1.726751,-1.253051 8.607855,-18.421812 10.742206,-18.421812 z"
         id="path1307-3-2"
         style="display:inline;overflow:visible;visibility:visible;opacity:1;fill:#f9da02;fill-opacity:1;fill-rule:nonzero;stroke:#dcb102;stroke-width:6;stroke-linecap:butt;stroke-linejoin:round;stroke-miterlimit:4;stroke-dasharray:none;stroke-dashoffset:0;stroke-opacity:1;marker:none;enable-background:new" />
      <rect
         style="display:inline;opacity:1;fill:#758087;fill-opacity:1;stroke:none;stroke-width:0.25;stroke-linecap:butt;stroke-linejoin:miter;stroke-miterlimit:4;stroke-dasharray:none;stroke-dashoffset:0;stroke-opacity:1;marker:none;marker-start:none;marker-mid:none;marker-end:none;paint-order:normal;enable-background:new"
         id="rect879-367-1-0"
         width="104"
         height="99.999992"
         x="1.9726574e-05"
         y="4.0020275"
         rx="7.9999995"
         ry="7.9999995" />
      <rect
         style="display:inline;opacity:1;fill:#6acfec;fill-opacity:1;stroke:none;stroke-width:0.25;stroke-linecap:butt;stroke-linejoin:miter;stroke-miterlimit:4;stroke-dasharray:none;stroke-dashoffset:0;stroke-opacity:1;marker:none;marker-start:none;marker-mid:none;marker-end:none;paint-order:normal;enable-background:new"
         id="rect833-8-2"
         width="104"
         height="99.999992"
         x="1.9726574e-05"
         y="0.0016284678"
         rx="7.9999995"
         ry="7.9999995" />
      <path
         inkscape:connector-curvature="0"
         style="display:inline;opacity:1;fill:#00aade;fill-opacity:1;stroke:none;stroke-width:0.25;stroke-linecap:butt;stroke-linejoin:miter;stroke-miterlimit:4;stroke-dasharray:none;stroke-dashoffset:0;stroke-opacity:1;marker:none;marker-start:none;marker-mid:none;marker-end:none;paint-order:normal;enable-background:new"
         d="M 8.000005,0 C 3.5680022,0 0,3.5680022 0,8.000005 V 49.999981 H 51.999982 V 0 Z"
         id="rect4547-7-3" />
      <path
         inkscape:connector-curvature="0"
         style="display:inline;opacity:1;fill:#d2d8dc;fill-opacity:1;stroke:none;stroke-width:0.25;stroke-linecap:butt;stroke-linejoin:miter;stroke-miterlimit:4;stroke-dasharray:none;stroke-dashoffset:0;stroke-opacity:1;marker:none;marker-start:none;marker-mid:none;marker-end:none;paint-order:normal;enable-background:new"
         d="M 51.999982,0 V 49.999981 H 104.00001 V 8.000005 c 0,-4.4320028 -3.568,-8.000005 -8,-8.000005 z"
         id="rect4553-9-7" />
      <path
         id="path4556-2-5"
         d="M 51.999982,99.999962 V 49.999981 H 0 v 42.000026 c 0,4.431953 3.5680022,7.999955 8.000005,7.999955 z"
         style="display:inline;opacity:1;fill:#bcc5ca;fill-opacity:1;stroke:none;stroke-width:0.25;stroke-linecap:butt;stroke-linejoin:miter;stroke-miterlimit:4;stroke-dasharray:none;stroke-dashoffset:0;stroke-opacity:1;marker:none;marker-start:none;marker-mid:none;marker-end:none;paint-order:normal;enable-background:new"
         inkscape:connector-curvature="0" />
      <g
         id="g23429-5-6-9"
         inkscape:label="web-browser"
         transform="matrix(1.5,0,0,1.5,-258.50001,-783.50543)"
         style="display:inline;fill:#2e3436;fill-opacity:1;enable-background:new">
        <rect
           width="16"
           height="16"
           x="183"
           y="529"
           id="rect18110-7-1-3-6-3-7-2"
           style="color:#bebebe;display:inline;overflow:visible;visibility:visible;fill:none;stroke:none;stroke-width:1.78100002;marker:none;enable-background:new" />
        <path
           sodipodi:nodetypes="cccccccc"
           id="path6242-5-5-2"
           d="m 191.0002,533.84553 v 10.38049 l -2.34399,-2.28818 -1.33941,2.73465 c -0.32808,0.73962 -2.03368,0.14492 -1.5487,-0.84412 l 1.32547,-2.83928 h -2.95789 z"
           style="color:#000000;display:block;overflow:visible;visibility:visible;fill:#003445;fill-opacity:1;fill-rule:nonzero;stroke:none;stroke-width:1;marker:none;enable-background:accumulate"
           inkscape:connector-curvature="0" />
        <path
           style="color:#000000;font-style:normal;font-variant:normal;font-weight:normal;font-stretch:normal;font-size:medium;line-height:normal;font-family:Sans;-inkscape-font-specification:Sans;text-indent:0;text-align:start;text-decoration:none;text-decoration-line:none;letter-spacing:normal;word-spacing:normal;text-transform:none;writing-mode:lr-tb;direction:ltr;baseline-shift:baseline;text-anchor:start;display:inline;overflow:visible;visibility:visible;fill:#003445;fill-opacity:1;stroke:none;stroke-width:2;marker:none;enable-background:accumulate"
           d="m 190.15645,530.0625 c -3.82659,0.46006 -6.57883,3.95775 -6.09375,7.78125 0.13127,1.03473 0.29377,1.38184 0.29377,1.38184 l 1.67498,-1.63184 c -0.33104,-2.75343 1.62156,-5.23146 4.375,-5.5625 2.75344,-0.33104 5.23146,1.62156 5.5625,4.375 0.31355,2.60795 -1.39127,5.02493 -3.96875,5.53125 l 0.0312,2 c 0,0 0.52086,-0.1059 0.62354,-0.13097 3.41561,-0.83385 5.70627,-4.1273 5.28271,-7.65028 -0.46006,-3.8266 -3.95466,-6.55381 -7.78125,-6.09375 z"
           id="path23405-6-3-8"
           inkscape:connector-curvature="0"
           sodipodi:nodetypes="csccssccsssc" />
        <path
           id="path11289-2-5-9"
           style="color:#000000;display:inline;overflow:visible;visibility:visible;opacity:0.3;fill:#2e3436;fill-opacity:1;fill-rule:nonzero;stroke:none;stroke-width:1;marker:none;enable-background:accumulate"
           d="m 187.11293,536.81497 v -0.20574 l -0.19826,0.0186 c 0.0165,-0.13095 0.0329,-0.26167 0.0496,-0.3926 h -0.11578 l -0.11556,0.14959 -0.11578,0.0559 -0.1653,-0.0932 -0.0165,-0.20575 0.0331,-0.22438 0.24798,-0.18688 h 0.19826 l 0.0329,-0.11229 0.24786,0.0559 0.18183,0.2246 0.0331,-0.37419 0.31401,-0.26167 0.11567,-0.28055 0.23133,-0.0934 0.1322,-0.18688 0.29738,-0.0564 0.14885,-0.22415 c -0.14874,0 -0.29749,0 -0.44623,0 l 0.28094,-0.13095 h 0.19814 l 0.28106,-0.0937 0.0331,-0.11186 -0.0992,-0.0937 -0.11567,-0.0375 0.0331,-0.11208 -0.0826,-0.16822 -0.19837,0.0746 0.0331,-0.14947 -0.23134,-0.13096 -0.18171,0.3177 0.0165,0.11229 -0.18171,0.075 -0.11578,0.24302 -0.0495,-0.22438 -0.31402,-0.13095 -0.0496,-0.16822 0.41315,-0.24325 0.18182,-0.16822 0.0165,-0.20563 -0.0991,-0.0562 -0.13219,-0.0188 -0.0826,0.20575 c 0,0 -0.1382,0.0271 -0.17373,0.0358 -0.45378,0.41804 -1.37066,1.32044 -1.58368,3.02405 0.008,0.0395 0.15441,0.26854 0.15441,0.26854 l 0.347,0.20552 0.347,0.0937 m 3.96609,-4.30034 -0.4298,-0.16833 -0.49552,0.0561 -0.61161,0.16822 -0.11567,0.11229 0.38008,0.26167 v 0.14959 l -0.14875,0.14959 0.19846,0.39294 0.13188,-0.075 0.16561,-0.26168 c 0.2553,-0.0789 0.4842,-0.16833 0.72686,-0.28053 l 0.19846,-0.5048 m 2.52925,0.34192 -0.375,0.0937 -0.21875,0.15625 v 0.125 l -0.375,0.25 0.0937,0.34375 0.21875,-0.15625 0.125,0.15625 0.15625,0.0937 0.0937,-0.28125 -0.0625,-0.15625 0.0625,-0.0937 0.21875,-0.1875 h 0.0937 l -0.0937,0.21875 v 0.1875 c 0.0892,-0.0242 0.1588,-0.051 0.25,-0.0625 l -0.25,0.1875 v 0.125 l -0.3125,0.21875 -0.28125,-0.0625 v -0.15625 l -0.125,0.0625 0.0625,0.15625 h -0.21875 l -0.125,0.21875 -0.15625,0.15625 -0.0937,0.0312 v 0.1875 l 0.0312,0.15625 h -0.0312 v 0.53125 l 0.0625,-0.0312 0.0937,-0.21875 0.1875,-0.125 0.0312,-0.0937 0.28125,-0.0625 0.15625,0.1875 0.1875,0.0937 -0.0937,0.1875 0.15625,-0.0312 0.0625,-0.21875 -0.1875,-0.21875 h 0.0625 L 193.2501,535 l 0.0312,0.21875 0.15625,0.21875 0.0625,-0.3125 0.0937,-0.0312 c 0.0959,0.0996 0.1692,0.23163 0.25,0.34375 h 0.28125 l 0.1875,0.125 -0.0937,0.0937 -0.15625,0.15625 h -0.25 l -0.34375,-0.0937 h -0.1875 l -0.125,0.15625 -0.34375,-0.375 -0.25,-0.0625 -0.375,0.0625 -0.15625,0.0937 V 538 l 0.0312,0.0312 0.25,-0.15625 0.0937,0.0937 h 0.28125 l 0.125,0.15625 -0.0937,0.3125 0.1875,0.1875 v 0.375 l 0.125,0.25 -0.0937,0.25 c -0.009,0.16159 0,0.30714 0,0.46875 0.0795,0.21894 0.14355,0.43575 0.21875,0.65625 l 0.0625,0.34375 v 0.1875 h 0.125 l 0.21875,-0.125 h 0.25 l 0.375,-0.4375 -0.0312,-0.15625 0.25,-0.21875 -0.1875,-0.1875 0.21875,-0.1875 0.21875,-0.125 0.0937,-0.125 -0.0625,-0.25 v -0.59375 l 0.1875,-0.375 0.1875,-0.25 0.25,-0.5625 v -0.15625 c -0.11654,0.0146 -0.22972,0.0231 -0.34375,0.0312 -0.0722,0.005 -0.14446,0 -0.21875,0 -0.12359,-0.25961 -0.2183,-0.50966 -0.3125,-0.78125 l -0.15625,-0.1875 -0.0937,-0.3125 0.0625,-0.0625 0.21875,0.25 0.25,0.5625 0.15625,0.15625 -0.0625,0.21875 0.15625,0.15625 0.25,-0.25 0.3125,-0.21875 0.15625,-0.1875 v -0.21875 c -0.0389,-0.0732 -0.0547,-0.14545 -0.0937,-0.21875 l -0.15625,0.1875 -0.125,-0.15625 -0.1875,-0.125 v -0.28125 l 0.21875,0.21875 0.21875,-0.0312 c 0.10166,0.0923 0.19205,0.20751 0.28125,0.3125 l 0.15625,-0.1875 c 0,-0.17463 -0.19976,-1.02044 -0.625,-1.75 -0.42526,-0.72932 -1.15625,-1.40625 -1.15625,-1.40625 l -0.0625,0.0937 -0.21875,0.21875 -0.25,-0.25 h 0.25 l 0.125,-0.125 -0.46875,-0.0937 -0.25,-0.0937 z"
           inkscape:connector-curvature="0" />
      </g>
      <g
         transform="matrix(1.5,0,0,1.5,-115.00032,-534.99993)"
         inkscape:label="system-file-manager"
         id="g14600-21-3-9-7-7"
         style="display:inline;fill:#2e3436;fill-opacity:1;enable-background:new">
        <rect
           style="fill:none;stroke:none"
           id="rect3620-8-8-0-1-5-3"
           width="16"
           height="16"
           x="122.0002"
           y="398"
           rx="0"
           ry="0" />
        <path
           style="color:#000000;display:inline;overflow:visible;visibility:visible;fill:#003445;fill-opacity:1;fill-rule:evenodd;stroke:none;stroke-width:1;marker:none;enable-background:accumulate"
           d="M 205.1875,381 C 203.98238,381 203,382.01795 203,383.21875 v 11.5625 c 0,1.2008 0.98238,2.21875 2.1875,2.21875 h 9.625 c 1.20512,0 2.1875,-1.01795 2.1875,-2.21875 v -11.5625 C 217,382.01795 216.01762,381 214.8125,381 Z M 205,384 h 10 v 11 h -10 z m 1,1 v 4 h 8.03125 v -4 z m 2.34375,1.4375 a 0.50004997,0.50004997 0 0 1 0.0625,0 0.50004997,0.50004997 0 0 1 0.59375,0.5 V 387 h 2 v -0.0625 a 0.50004997,0.50004997 0 1 1 1,0 V 387 c 0,0.54535 -0.45465,1 -1,1 h -2 c -0.54535,0 -1,-0.45465 -1,-1 v -0.0625 a 0.50004997,0.50004997 0 0 1 0.34375,-0.5 z M 206.03125,390 v 4 h 8.03125 v -4 z m 2.3125,1.4375 a 0.50004997,0.50004997 0 0 1 0.0625,0 0.50004997,0.50004997 0 0 1 0.59375,0.5 V 392 h 2 v -0.0625 a 0.50004997,0.50004997 0 1 1 1,0 V 392 c 0,0.54535 -0.45465,1 -1,1 h -2 c -0.54535,0 -1,-0.45465 -1,-1 v -0.0625 a 0.50004997,0.50004997 0 0 1 0.34375,-0.5 z"
           transform="translate(-80,17)"
           id="rect11668-7-27-9-61"
           inkscape:connector-curvature="0" />
      </g>
      <g
         transform="matrix(1.4999981,0,0,1.4999981,-168.99976,-534.99913)"
         inkscape:label="utilities-terminal"
         id="g14600-3-29"
         style="display:inline;fill:#2e3436;fill-opacity:1;enable-background:new">
        <path
           style="color:#bebebe;display:inline;overflow:visible;visibility:visible;fill:none;stroke:#003445;stroke-width:2;stroke-miterlimit:4;stroke-opacity:1;marker:none"
           d="m 124.19887,398.99998 h 11.60225 c 0.66417,0 1.19888,0.53934 1.19888,1.20928 v 10.58145 c 0,0.66994 -0.53471,1.20927 -1.19888,1.20927 h -11.60225 c -0.66417,0 -1.19887,-0.53933 -1.19887,-1.20927 v -10.58145 c 0,-0.66994 0.5347,-1.20928 1.19887,-1.20928 z"
           id="rect11749-5-9-6-3"
           sodipodi:nodetypes="ccccccccc"
           inkscape:connector-curvature="0" />
        <rect
           style="fill:none;stroke:none"
           id="rect3620-8-1-1"
           width="16"
           height="16"
           x="122"
           y="398"
           rx="0"
           ry="0" />
        <path
           style="color:#bebebe;display:inline;overflow:visible;visibility:visible;fill:none;stroke:#003445;stroke-width:1.20000005;stroke-linecap:round;stroke-linejoin:round;stroke-miterlimit:4;stroke-dasharray:none;stroke-dashoffset:0;stroke-opacity:1;marker:none"
           d="m 126.5,408.50001 2,-2.00001 -2,-2"
           id="path11751-2-3-2-9"
           inkscape:connector-curvature="0"
           sodipodi:nodetypes="ccc" />
        <rect
           style="color:#bebebe;display:inline;overflow:visible;visibility:visible;fill:#2e3436;fill-opacity:1;fill-rule:nonzero;stroke:#003445;stroke-width:1;marker:none;enable-background:accumulate"
           id="rect4987-9-4"
           width="3"
           height="1.00001"
           x="130"
           y="408" />
      </g>
      <path
         inkscape:connector-curvature="0"
         d="m 54.000733,19.968062 c 2.134352,0 9.015506,17.168761 10.742207,18.421812 1.726801,1.253101 20.200513,2.484401 20.860113,4.511903 0.6595,2.027551 -13.561508,13.869758 -14.221059,15.897259 -0.65955,2.027552 3.876803,19.957263 2.150052,21.210314 -1.726701,1.25315 -17.396961,-8.596756 -19.531313,-8.596756 -2.134351,0 -17.804561,9.849906 -19.531312,8.596756 -1.726701,-1.253051 2.809602,-19.182762 2.150102,-21.210314 -0.659601,-2.027501 -14.88061,-13.869708 -14.221059,-15.897259 0.65955,-2.027502 19.133362,-3.258802 20.860063,-4.511903 1.726751,-1.253051 8.607855,-18.421812 10.742206,-18.421812 z"
         id="path1307-3-7"
         style="display:inline;overflow:visible;visibility:visible;opacity:1;fill:#f9da02;fill-opacity:1;fill-rule:nonzero;stroke:#dcb102;stroke-width:6;stroke-linecap:butt;stroke-linejoin:round;stroke-miterlimit:4;stroke-dasharray:none;stroke-dashoffset:0;stroke-opacity:1;marker:none;enable-background:new" />
    </g>
    <rect
       style="display:inline;opacity:1;fill:#f1f3f5;fill-opacity:1;stroke:none;stroke-width:0.00773838;stroke-linecap:butt;stroke-linejoin:miter;stroke-miterlimit:4;stroke-dasharray:none;stroke-dashoffset:0;stroke-opacity:1;marker:none;marker-start:none;marker-mid:none;marker-end:none;paint-order:normal;enable-background:new"
       id="rect833-4-7"
       width="3.1960969"
       height="3.1176901"
       x="507.11462"
       y="350.00388"
       rx="0.23970813"
       ry="0.32817897" />
    <path
       inkscape:connector-curvature="0"
       style="display:inline;opacity:1;fill:#d2d8dc;fill-opacity:1;stroke:none;stroke-width:0.0078446;stroke-linecap:butt;stroke-linejoin:miter;stroke-miterlimit:4;stroke-dasharray:none;stroke-dashoffset:0;stroke-opacity:1;marker:none;marker-start:none;marker-mid:none;marker-end:none;paint-order:normal;enable-background:new"
       d="m 510.31076,350.24603 c 0,0.20731 -0.24857,-0.24266 -0.39038,-0.24303 L 508.71076,350 v 1.6 h 1.6 z"
       id="rect4547-78-5-5"
       sodipodi:nodetypes="sscccs" />
    <path
       inkscape:connector-curvature="0"
       style="display:inline;opacity:1;fill:#00aade;fill-opacity:1;stroke:none;stroke-width:0.0078446;stroke-linecap:butt;stroke-linejoin:miter;stroke-miterlimit:4;stroke-dasharray:none;stroke-dashoffset:0;stroke-opacity:1;marker:none;marker-start:none;marker-mid:none;marker-end:none;paint-order:normal;enable-background:new"
       d="m 507.35692,350 c 0.20731,0 -0.24266,0.24857 -0.24303,0.39038 l -0.003,1.20962 h 1.6 V 350 Z"
       id="rect4547-78-5"
       sodipodi:nodetypes="sscccs" />
    <g
       id="g23429-5-03-5"
       inkscape:label="web-browser"
       transform="matrix(0.05992695,0,0,0.05844316,496.50318,319.3671)"
       style="display:inline;fill:#2e3436;fill-opacity:1;enable-background:new">
      <rect
         width="16"
         height="16"
         x="183"
         y="529"
         id="rect18110-7-1-3-6-3-6-6"
         style="color:#bebebe;display:inline;overflow:visible;visibility:visible;fill:none;stroke:none;stroke-width:1.78100002;marker:none;enable-background:new" />
    </g>
    <path
       style="display:inline;opacity:1;fill:#d2d8dc;fill-opacity:1;stroke:none;stroke-width:0.00516231;stroke-linecap:butt;stroke-linejoin:miter;stroke-miterlimit:4;stroke-dasharray:none;stroke-dashoffset:0;stroke-opacity:1;paint-order:normal;enable-background:new"
       d="m 507.30041,353.12179 c -0.0377,-0.0131 -0.051,-0.0214 -0.0815,-0.0509 l -0.0244,-0.0234 V 352.32373 351.6 h 0.75908 0.75907 v 0.7664 0.76641 l -0.69111,-1.7e-4 c -0.67933,-1.8e-4 -0.69164,-3.6e-4 -0.72118,-0.0107 z"
       id="path1054-7"
       inkscape:connector-curvature="0" />
    <path
       style="display:inline;fill:none;fill-opacity:1;stroke:#bcc5ca;stroke-width:0.19996496;stroke-linecap:butt;stroke-linejoin:miter;stroke-miterlimit:4;stroke-dasharray:none;stroke-opacity:1;enable-background:new"
       d="m 508.71078,353.10002 h -1.30759 c -0.15383,-7.2e-4 -0.19516,-0.10975 -0.19229,-0.2195 l -1.1e-4,-1.28051"
       id="path1068-5-3-2"
       inkscape:connector-curvature="0"
       sodipodi:nodetypes="cccc" />
    <path
       style="display:inline;fill:#344958;fill-opacity:1;fill-rule:evenodd;stroke:none;stroke-width:0.03945814px;stroke-linecap:butt;stroke-linejoin:miter;stroke-opacity:1;enable-background:new"
       d="m 509.11076,352 v -0.4 l 0.6,0 v 0.4 h 0.4 v 0.6 h -0.4 v 0.4 h -0.6 v -0.4 h -0.4 l 0,-0.6 z"
       id="path832-0"
       inkscape:connector-curvature="0"
       sodipodi:nodetypes="ccccccccccccc" />
    <rect
       style="display:inline;opacity:1;fill:#d2d8dc;fill-opacity:1;stroke:none;stroke-width:0.09420051;stroke-linecap:butt;stroke-linejoin:miter;stroke-miterlimit:4;stroke-dasharray:none;stroke-dashoffset:0;stroke-opacity:1;marker:none;marker-start:none;marker-mid:none;marker-end:none;paint-order:normal;enable-background:new"
       id="rect879-367-19-3-9"
       width="37.952911"
       height="38.905857"
       x="1.0491778"
       y="2.0961397"
       rx="2.9194553"
       ry="3.112469" />
    <path
       style="display:inline;opacity:1;fill:#bcc5ca;fill-opacity:1;stroke:#bcc5ca;stroke-width:0.00022305;stroke-linecap:butt;stroke-linejoin:miter;stroke-miterlimit:4;stroke-dasharray:none;stroke-dashoffset:0;stroke-opacity:1;paint-order:normal;enable-background:new"
       d="m 2.4374013,40.024325 c -0.4905003,-0.054 -0.9178506,-0.212501 -1.1106507,-0.412001 -0.1750001,-0.181 -0.2430002,-0.3645 -0.2625002,-0.70575 l -0.015,-0.309 0.1690001,0.077 c 0.3430002,0.1565 0.7683005,0.2795 1.1752007,0.341 l 0.2225002,0.035 h 8.7164056 8.716455 v 0.5 0.500001 l -8.704105,-0.0013 c -7.3188548,-0.001 -8.7362056,-0.0048 -8.9056557,-0.02 z"
       id="path1204-6-3"
       inkscape:connector-curvature="0" />
    <rect
       style="display:inline;opacity:1;fill:#f1f3f5;fill-opacity:1;stroke:none;stroke-width:0.09682436;stroke-linecap:butt;stroke-linejoin:miter;stroke-miterlimit:4;stroke-dasharray:none;stroke-dashoffset:0;stroke-opacity:1;marker:none;marker-start:none;marker-mid:none;marker-end:none;paint-order:normal;enable-background:new"
       id="rect833-4-7-6"
       width="39.999859"
       height="38.999954"
       x="0.04911609"
       y="0.049019262"
       rx="3"
       ry="4.1052718" />
    <path
       inkscape:connector-curvature="0"
       style="display:inline;opacity:1;fill:#00aade;fill-opacity:1;stroke:#6acfec;stroke-width:0.09819956;stroke-linecap:butt;stroke-linejoin:miter;stroke-miterlimit:4;stroke-dasharray:none;stroke-dashoffset:0;stroke-opacity:1;marker:none;marker-start:none;marker-mid:none;marker-end:none;paint-order:normal;enable-background:new"
       d="m 3.1259517,0.04909978 c -1.7045511,0 -3.07685192,1.43135092 -3.07685192,3.20930202 V 20.106962 H 20.049062 V 0.04909978 Z"
       id="rect4547-78-5-0" />
    <path
       inkscape:connector-curvature="0"
       style="display:inline;opacity:1;fill:#d2d8dc;fill-opacity:1;stroke:none;stroke-width:0.09805881;stroke-linecap:butt;stroke-linejoin:miter;stroke-miterlimit:4;stroke-dasharray:none;stroke-dashoffset:0;stroke-opacity:1;marker:none;marker-start:none;marker-mid:none;marker-end:none;paint-order:normal;enable-background:new"
       d="M 20.049112,0.04914978 V 20.049112 H 40.049325 V 3.2492018 c 0,-1.7728511 -1.372301,-3.20005202 -3.077002,-3.20005202 z"
       id="rect4553-4-3-6" />
    <g
       id="g23429-5-03-5-2"
       inkscape:label="web-browser"
       transform="matrix(0.74999906,0,0,0.74982751,-132.75548,-393.0217)"
       style="display:inline;fill:#2e3436;fill-opacity:1;enable-background:new">
      <rect
         width="16"
         height="16"
         x="183"
         y="529"
         id="rect18110-7-1-3-6-3-6-6-6"
         style="color:#bebebe;display:inline;overflow:visible;visibility:visible;fill:none;stroke:none;stroke-width:1.78100002;marker:none;enable-background:new" />
    </g>
    <path
       style="display:inline;fill:none;fill-opacity:1;stroke:#00a1d1;stroke-width:0.99995387px;stroke-linecap:butt;stroke-linejoin:miter;stroke-opacity:1;enable-background:new"
       d="M 20.049062,0.54910009 H 3.0506516 C 1.0509004,0.5591001 0.51370007,2.049101 0.55095009,3.549102 l -0.00185,16.50001"
       id="path1068-2-1"
       inkscape:connector-curvature="0"
       sodipodi:nodetypes="cccc" />
    <path
       style="display:inline;fill:none;fill-opacity:1;stroke:#bcc5ca;stroke-width:0.99995375px;stroke-linecap:butt;stroke-linejoin:miter;stroke-opacity:1;enable-background:new"
       d="m 20.049112,0.54910009 h 16.998411 c 1.999751,0.01 2.536951,1.50000091 2.499701,3.00000191 v 16.50001"
       id="path1068-6-9-8"
       inkscape:connector-curvature="0"
       sodipodi:nodetypes="cccc" />
    <path
       style="display:inline;fill:none;fill-opacity:1;stroke:#d2d8dc;stroke-width:0.99995387px;stroke-linecap:butt;stroke-linejoin:miter;stroke-opacity:1;enable-background:new"
       d="m 20.050662,40.549175 h 16.998411 c 1.999751,-0.01 2.536951,-1.500001 2.499701,-3.000002 l -0.0016,-17.500061"
       id="path1068-5-1-7"
       inkscape:connector-curvature="0"
       sodipodi:nodetypes="cccc" />
    <path
       style="display:inline;fill:none;fill-opacity:1;stroke:#bcc5ca;stroke-width:0.99995387px;stroke-linecap:butt;stroke-linejoin:miter;stroke-opacity:1;enable-background:new"
       d="M 20.049062,40.549175 H 3.0506516 c -1.9997512,-0.01 -2.53695153,-1.500001 -2.49970151,-3.000002 l -0.0016,-17.500061"
       id="path1068-5-3-2-9"
       inkscape:connector-curvature="0"
       sodipodi:nodetypes="cccc" />
    <path
       style="display:inline;opacity:1;fill:#d2d8dc;fill-opacity:1;stroke:none;stroke-width:0.06429789;stroke-linecap:butt;stroke-linejoin:miter;stroke-miterlimit:4;stroke-dasharray:none;stroke-dashoffset:0;stroke-opacity:1;paint-order:normal;enable-background:new"
       d="m 2.3740512,38.972724 c -0.4720003,-0.163 -0.6384504,-0.266 -1.0199506,-0.6316 L 1.0491004,38.049123 v -8.971105 -8.971056 h 9.5000056 9.499956 v 9.500006 9.500006 l -8.649455,-0.0022 c -8.5019055,-0.0022 -8.6559055,-0.0043 -9.0256558,-0.132 z"
       id="path1054-7-2"
       inkscape:connector-curvature="0" />
    <path
       style="display:inline;fill:#344958;fill-opacity:1;fill-rule:evenodd;stroke:none;stroke-width:0.49999964px;stroke-linecap:butt;stroke-linejoin:miter;stroke-opacity:1;enable-background:new"
       d="m 28.049117,27.049117 v -3.000002 h 3.000002 v 3.000002 h 2.999952 v 3.000001 h -2.999952 v 3.000002 h -3.000002 v -3.000002 h -3.000002 v -3.000001 z"
       id="path832-0-0"
       inkscape:connector-curvature="0"
       sodipodi:nodetypes="ccccccccccccc" />
    <path
       style="display:inline;fill:none;fill-opacity:1;stroke:#d2d8dc;stroke-width:0.19996496;stroke-linecap:butt;stroke-linejoin:miter;stroke-miterlimit:4;stroke-dasharray:none;stroke-opacity:1;enable-background:new"
       d="m 508.71078,353.10002 h 1.30759 c 0.15383,-7.2e-4 0.19516,-0.10975 0.19229,-0.2195 l 1.1e-4,-1.28051"
       id="path1068-5-3-2-3"
       inkscape:connector-curvature="0"
       sodipodi:nodetypes="cccc" />
    <path
       style="display:inline;fill:none;fill-opacity:1;stroke:#bcc5ca;stroke-width:0.19996496;stroke-linecap:butt;stroke-linejoin:miter;stroke-miterlimit:4;stroke-dasharray:none;stroke-opacity:1;enable-background:new"
       d="m 510.21077,351.60001 v -1.30759 c -7.2e-4,-0.15383 -0.10975,-0.19516 -0.2195,-0.19229 l -1.28051,-1.1e-4"
       id="path1068-5-3-2-6"
       inkscape:connector-curvature="0"
       sodipodi:nodetypes="cccc" />
    <path
       style="display:inline;fill:none;fill-opacity:1;stroke:#00a1d1;stroke-width:0.19996496;stroke-linecap:butt;stroke-linejoin:miter;stroke-miterlimit:4;stroke-dasharray:none;stroke-opacity:1;enable-background:new"
       d="m 507.21079,351.60001 v -1.30759 c 7.2e-4,-0.15383 0.10975,-0.19516 0.2195,-0.19229 l 1.28051,-1.1e-4"
       id="path1068-5-3-2-7"
       inkscape:connector-curvature="0"
       sodipodi:nodetypes="cccc" />
  </g>
</svg>
