<svg xmlns="http://www.w3.org/2000/svg" viewBox="0 0 24 24">
 <defs>
  <radialGradient r="24" cy="40.5" cx="24" gradientTransform="matrix(0.625,0,0,0.10416663,-3,1044.1435)" gradientUnits="userSpaceOnUse" id="radialGradient3311">
   <stop style="stop-color:#000;stop-opacity:1"/>
   <stop offset="1" style="stop-color:#000;stop-opacity:0.196"/>
  </radialGradient>
 </defs>
 <g transform="translate(0,-1028.3622)">
  <path d="m 12 1045.86 c -4.913 0 -9.264 0.391 -12 1 l 0 3 c 2.736 0.609 7.087 1 12 1 4.913 0 9.264 -0.391 12 -1 l 0 -3 c -2.736 -0.609 -7.087 -1 -12 -1 z" style="fill:url(#radialGradient3311);opacity:0.1;fill-opacity:1;stroke:none"/>
  <rect width="22" height="16" x="1" y="1033.36" rx="2.391" ry="2.5" style="fill:#5d4037;fill-opacity:1;stroke:none"/>
  <path d="m 3.391 1033.36 c -1.325 0 -2.391 1.115 -2.391 2.5 l 0 1 c 0 -1.385 1.067 -2.5 2.391 -2.5 l 17.217 0 c 1.325 0 2.391 1.115 2.391 2.5 l 0 -1 c 0 -1.385 -1.067 -2.5 -2.391 -2.5 l -17.217 0 z" style="fill:#fff;opacity:0.2;fill-opacity:1;stroke:none"/>
  <path d="m 3.391 1037.36 3.826 0 c 5.261 -0.5 4.304 -6 7.652 -6 l 5.739 0 c 1.325 0 2.391 1.115 2.391 2.5 l 0 13 c 0 1.385 -1.067 2.5 -2.391 2.5 l -17.217 0 c -1.325 0 -2.391 -1.115 -2.391 -2.5 l 0 -7 c 0 -1.5 0.957 -2.5 2.391 -2.5 z" style="fill:#8d6e63;fill-opacity:1;stroke:none"/>
  <path d="m 1 1045.86 0 1 c 0 1.385 1.067 2.5 2.391 2.5 l 17.217 0 c 1.325 0 2.391 -1.115 2.391 -2.5 l 0 -1 c 0 1.385 -1.067 2.5 -2.391 2.5 l -17.217 0 c -1.325 0 -2.391 -1.115 -2.391 -2.5 z" style="fill:#000;opacity:0.15;fill-opacity:1;stroke:none"/>
  <path d="m 3.668 1040.76 c -0.224 0.01 -0.435 0.028 -0.647 0.102 -0.067 0.454 0.043 0.925 0.165 1.359 0.309 0.998 0.884 1.944 1.727 2.579 0.031 0.029 0.075 0.036 0.063 0.089 -0.004 0.221 0 0.452 0 0.673 0.009 0.388 0.242 0.758 0.584 0.94 0.406 0.214 0.81 0.412 1.219 0.622 0.188 0.1 0.449 -0.015 0.508 -0.216 0.036 -0.132 0.011 -0.272 0.013 -0.407 -0.001 -0.285 -0.036 -0.57 -0.025 -0.851 0.372 -0.046 0.745 -0.226 0.965 -0.534 0.196 -0.262 0.265 -0.601 0.241 -0.928 0.398 -0.071 0.808 -0.131 1.206 -0.203 0.236 -0.047 0.338 -0.354 0.19 -0.546 -0.29 -0.368 -0.581 -0.728 -0.876 -1.093 -0.238 -0.284 -0.611 -0.442 -0.978 -0.394 -0.249 0.04 -0.504 0.094 -0.749 0.14 -0.792 -0.755 -1.858 -1.174 -2.933 -1.296 -0.221 -0.02 -0.449 -0.042 -0.673 -0.038 z m 1.346 0.826 c 0.26 -0.024 0.52 0.049 0.736 0.229 0.432 0.36 0.5 1 0.14 1.436 -0.36 0.433 -1 0.5 -1.435 0.14 -0.432 -0.36 -0.5 -1 -0.14 -1.436 0.18 -0.216 0.439 -0.345 0.698 -0.369 z m 4.152 3.113 c -0.089 -0.01 -0.178 0.059 -0.19 0.152 -0.113 0.515 -0.48 0.963 -0.965 1.169 -0.126 0.04 -0.155 0.209 -0.051 0.292 0.213 0.178 0.459 0.383 0.673 0.559 0.104 0.089 0.239 -0.01 0.241 -0.14 -0.003 -0.108 -0.016 -0.224 -0.025 -0.33 0.265 0.057 0.525 0.132 0.787 0.19 0.124 0.026 0.241 -0.123 0.19 -0.241 -0.104 -0.249 -0.211 -0.489 -0.317 -0.737 0.107 -0.013 0.211 -0.022 0.317 -0.038 0.132 -0.026 0.184 -0.219 0.076 -0.305 -0.214 -0.18 -0.431 -0.355 -0.647 -0.534 -0.025 -0.02 -0.059 -0.035 -0.089 -0.038 z" style="fill:#000;fill-opacity:0.098;stroke:none;fill-rule:nonzero"/>
  <path d="m 3.668 1039.76 c -0.224 0.01 -0.435 0.028 -0.647 0.102 -0.067 0.454 0.043 0.925 0.165 1.359 0.309 0.998 0.884 1.944 1.727 2.579 0.031 0.029 0.075 0.036 0.063 0.089 -0.004 0.221 0 0.452 0 0.673 0.009 0.388 0.242 0.758 0.584 0.94 0.406 0.214 0.81 0.412 1.219 0.622 0.188 0.1 0.449 -0.015 0.508 -0.216 0.036 -0.132 0.011 -0.272 0.013 -0.407 -0.001 -0.285 -0.036 -0.57 -0.025 -0.851 0.372 -0.046 0.745 -0.226 0.965 -0.534 0.196 -0.262 0.265 -0.601 0.241 -0.928 0.398 -0.071 0.808 -0.131 1.206 -0.203 0.236 -0.047 0.338 -0.354 0.19 -0.546 -0.29 -0.368 -0.581 -0.728 -0.876 -1.093 -0.238 -0.284 -0.611 -0.442 -0.978 -0.394 -0.249 0.04 -0.504 0.094 -0.749 0.14 -0.792 -0.755 -1.858 -1.174 -2.933 -1.296 -0.221 -0.02 -0.449 -0.042 -0.673 -0.038 z m 1.346 0.826 c 0.26 -0.024 0.52 0.049 0.736 0.229 0.432 0.36 0.5 1 0.14 1.436 -0.36 0.433 -1 0.5 -1.435 0.14 -0.432 -0.36 -0.5 -1 -0.14 -1.436 0.18 -0.216 0.439 -0.345 0.698 -0.369 z m 4.152 3.113 c -0.089 -0.01 -0.178 0.059 -0.19 0.152 -0.113 0.515 -0.48 0.963 -0.965 1.169 -0.126 0.04 -0.155 0.209 -0.051 0.292 0.213 0.178 0.459 0.383 0.673 0.559 0.104 0.089 0.239 -0.01 0.241 -0.14 -0.003 -0.108 -0.016 -0.224 -0.025 -0.33 0.265 0.057 0.525 0.132 0.787 0.19 0.124 0.026 0.241 -0.123 0.19 -0.241 -0.104 -0.249 -0.211 -0.489 -0.317 -0.737 0.107 -0.013 0.211 -0.022 0.317 -0.038 0.132 -0.026 0.184 -0.219 0.076 -0.305 -0.214 -0.18 -0.431 -0.355 -0.647 -0.534 -0.025 -0.02 -0.059 -0.035 -0.089 -0.038 z" style="fill:#fff8e1;opacity:0.94;fill-opacity:1;stroke:none;fill-rule:nonzero"/>
 </g>
</svg>
