<svg xmlns="http://www.w3.org/2000/svg" viewBox="0 0 24 24">
 <defs>
  <radialGradient r="24" cy="40.5" cx="24" gradientTransform="matrix(0.625,0,0,0.10416663,-3,1044.1435)" gradientUnits="userSpaceOnUse" id="radialGradient3053">
   <stop style="stop-color:#000;stop-opacity:1"/>
   <stop offset="1" style="stop-color:#000;stop-opacity:0.196"/>
  </radialGradient>
 </defs>
 <g transform="translate(0,-1028.3622)">
  <path d="m 12 1045.86 c -4.913 0 -9.264 0.391 -12 1 l 0 3 c 2.736 0.609 7.087 1 12 1 4.913 0 9.264 -0.391 12 -1 l 0 -3 c -2.736 -0.609 -7.087 -1 -12 -1 z" style="fill:url(#radialGradient3053);opacity:0.1;fill-opacity:1;stroke:none"/>
  <rect width="22" height="16" x="1" y="1033.36" rx="2.391" ry="2.5" style="fill:#ffb300;fill-opacity:1;stroke:none"/>
  <path d="m 3.391 1033.36 c -1.325 0 -2.391 1.115 -2.391 2.5 l 0 1 c 0 -1.385 1.067 -2.5 2.391 -2.5 l 17.217 0 c 1.325 0 2.391 1.115 2.391 2.5 l 0 -1 c 0 -1.385 -1.067 -2.5 -2.391 -2.5 l -17.217 0 z" style="fill:#fff;opacity:0.2;fill-opacity:1;stroke:none"/>
  <path d="m 3.391 1037.36 3.826 0 c 5.261 -0.5 4.304 -6 7.652 -6 l 5.739 0 c 1.325 0 2.391 1.115 2.391 2.5 l 0 13 c 0 1.385 -1.067 2.5 -2.391 2.5 l -17.217 0 c -1.325 0 -2.391 -1.115 -2.391 -2.5 l 0 -7 c 0 -1.5 0.957 -2.5 2.391 -2.5 z" style="fill:#ffca28;fill-opacity:1;stroke:none"/>
  <path d="m 1 1045.86 0 1 c 0 1.385 1.067 2.5 2.391 2.5 l 17.217 0 c 1.325 0 2.391 -1.115 2.391 -2.5 l 0 -1 c 0 1.385 -1.067 2.5 -2.391 2.5 l -17.217 0 c -1.325 0 -2.391 -1.115 -2.391 -2.5 z" style="fill:#000;opacity:0.15;fill-opacity:1;stroke:none"/>
  <g transform="matrix(0.4375,0,0,0.4375,3,1040.3622)" style="fill:#000;fill-opacity:0.098;enable-background:new">
   <path d="m 6.857 14.857 -2.286 1.143 l 6.857 0 -2.286 -1.143 0 -3.429 -2.286 0 z" style="fill:#000;fill-opacity:0.098;stroke:none"/>
   <path d="m 2.286 0 c -1.108 0 -2.286 1.178 -2.286 2.286 l 0 9.143 c 0 1.108 1.178 2.286 2.286 2.286 l 11.429 0 c 1.108 0 2.286 -1.178 2.286 -2.286 l 0 -9.143 c 0 -1.108 -1.178 -2.286 -2.286 -2.286 z m 0 2.286 11.429 0 0 9.143 -11.429 0 z" style="fill:#000;fill-opacity:0.098;stroke:none"/>
  </g>
  <g transform="matrix(0.4375,0,0,0.4375,3,1039.3622)" style="fill:#fff8e1;fill-opacity:1;enable-background:new">
   <path d="m 6.857 14.857 -2.286 1.143 l 6.857 0 -2.286 -1.143 0 -3.429 -2.286 0 z" style="stroke:none"/>
   <path d="m 2.286 0 c -1.108 0 -2.286 1.178 -2.286 2.286 l 0 9.143 c 0 1.108 1.178 2.286 2.286 2.286 l 11.429 0 c 1.108 0 2.286 -1.178 2.286 -2.286 l 0 -9.143 c 0 -1.108 -1.178 -2.286 -2.286 -2.286 z m 0 2.286 11.429 0 0 9.143 -11.429 0 z" style="stroke:none"/>
  </g>
  <rect y="1042.36" x="5" height="2" width="2" style="fill:#000;fill-opacity:0.098;stroke:none;fill-rule:evenodd"/>
  <rect width="2" height="2" x="5" y="13" transform="translate(0,1028.3622)" style="fill:#fff8e1;fill-opacity:1;stroke:none;fill-rule:evenodd"/>
 </g>
</svg>
