<svg xmlns="http://www.w3.org/2000/svg" viewBox="0 0 24 24">
 <defs>
  <radialGradient r="24" cy="40.5" cx="24" gradientTransform="matrix(0.625,0,0,0.10416663,-3,1044.1435)" gradientUnits="userSpaceOnUse" id="radialGradient3053">
   <stop style="stop-color:#000;stop-opacity:1"/>
   <stop offset="1" style="stop-color:#000;stop-opacity:0.196"/>
  </radialGradient>
 </defs>
 <g transform="translate(0,-1028.3622)">
  <path d="m 12 1045.86 c -4.913 0 -9.264 0.391 -12 1 l 0 3 c 2.736 0.609 7.087 1 12 1 4.913 0 9.264 -0.391 12 -1 l 0 -3 c -2.736 -0.609 -7.087 -1 -12 -1 z" style="fill:url(#radialGradient3053);opacity:0.1;fill-opacity:1;stroke:none"/>
  <rect width="22" height="16" x="1" y="1033.36" rx="2.391" ry="2.5" style="fill:#ffb300;fill-opacity:1;stroke:none"/>
  <path d="m 3.391 1033.36 c -1.325 0 -2.391 1.115 -2.391 2.5 l 0 1 c 0 -1.385 1.067 -2.5 2.391 -2.5 l 17.217 0 c 1.325 0 2.391 1.115 2.391 2.5 l 0 -1 c 0 -1.385 -1.067 -2.5 -2.391 -2.5 l -17.217 0 z" style="fill:#fff;opacity:0.2;fill-opacity:1;stroke:none"/>
  <path d="m 3.391 1037.36 3.826 0 c 5.261 -0.5 4.304 -6 7.652 -6 l 5.739 0 c 1.325 0 2.391 1.115 2.391 2.5 l 0 13 c 0 1.385 -1.067 2.5 -2.391 2.5 l -17.217 0 c -1.325 0 -2.391 -1.115 -2.391 -2.5 l 0 -7 c 0 -1.5 0.957 -2.5 2.391 -2.5 z" style="fill:#ffca28;fill-opacity:1;stroke:none"/>
  <path d="m 1 1045.86 0 1 c 0 1.385 1.067 2.5 2.391 2.5 l 17.217 0 c 1.325 0 2.391 -1.115 2.391 -2.5 l 0 -1 c 0 1.385 -1.067 2.5 -2.391 2.5 l -17.217 0 c -1.325 0 -2.391 -1.115 -2.391 -2.5 z" style="fill:#000;opacity:0.15;fill-opacity:1;stroke:none"/>
  <path d="m 3.875 1040.36 c -0.485 0 -0.875 0.39 -0.875 0.875 l 0 3.5 0 1.75 c 0 0.485 0.39 0.875 0.875 0.875 l 5.25 0 c 0.485 0 0.875 -0.39 0.875 -0.875 l 0 -0.438 0 -4.813 c 0 -0.485 -0.39 -0.875 -0.875 -0.875 l -5.25 0 z m 0.125 1 5 0 0 3.5 -1.406 -1.656 -0.969 0.953 -1.438 -1.609 -1.188 1.188 0 -2.375 z" style="fill:#000;fill-opacity:0.098;fill-rule:evenodd"/>
  <g transform="matrix(0.43750002,0,0,0.43750002,12.809304,590.71613)" style="fill:#fff8e1;fill-opacity:1">
   <g transform="translate(-22.421265,1025.4767)">
    <g transform="translate(0,-1036.3622)" style="fill-rule:evenodd">
     <path d="m 0.045 1046.8 c 0.229 -0.168 0.76 -0.668 1.63 -1.533 0.867 -0.87 2.027 -2.06 3.529 -3.624 0.983 1.398 1.706 2.406 2.241 3.069 0.522 0.655 0.812 0.942 0.882 0.862 0.555 -0.497 1.023 -0.92 1.426 -1.29 0.397 -0.37 0.705 -0.674 0.949 -0.922 1.221 1.536 2.235 2.801 3.123 3.87 0.873 1.061 1.566 1.864 2.103 2.455 l -3.324 -2.762 c -0.275 0.707 -0.723 1.072 -1.358 1.105 -0.653 0.019 -1.645 -0.773 -2.445 -0.92 -0.8 -0.146 -1.597 0.304 -2.308 0.061 -0.727 -0.257 -1.288 -1.273 -1.969 -1.536 -0.684 -0.26 -1.377 -0.26 -2.103 0 -0.791 0.387 -1.581 0.776 -2.375 1.166 z"/>
     <path d="m 0 1046.36 5 -5 3.282 3.678 2.218 -2.178 5.5 6.5 -2.286 1.857 l -11.714 0.143 z"/>
    </g>
   </g>
   <path d="m -20.421 1025.48 c -1.108 0 -2 0.892 -2 2 l 0 12 c 0 1.108 0.892 2 2 2 l 12 0 c 1.108 0 2 -0.892 2 -2 l 0 -12 c 0 -1.108 -0.892 -2 -2 -2 z m 0.286 2.286 11.429 0 0 11.429 -11.429 0 z"/>
  </g>
 </g>
</svg>
