<svg version="1.1" viewBox="0 0 24 24" xmlns="http://www.w3.org/2000/svg">
 <path d="m5 1c-0.473 0-1 0.527-1 1v20c0 0.445 0.555 1 1 1h14c0.445 0 0.992-0.555 1-1v-15l-6-6z" style="fill:#dcdcdc"/>
 <path d="m15 7 5 5v-5z" style="fill-opacity:.196"/>
 <path d="m14 1 6 6h-5c-0.445 0-1-0.555-1-1z" style="fill-opacity:.392;fill:#fff"/>
 <path d="m9 9v1h-2v2h2v1h-2v2h2v1h-2v2h2v1h6v-1h2v-2h-2v-1h2v-2h-2v-1h2v-2h-2v-1zm2 2h2v6h-2z" style="fill:#888;stroke-linejoin:round;stroke-opacity:.54328;stroke-width:1.9069"/>
</svg>
