<svg version="1.1" viewBox="0 0 24 24" xmlns="http://www.w3.org/2000/svg">
 <path d="m4.889 1c-0.457 0-0.889 0.465-0.889 0.957v20.09c0 0.465 0.457 0.957 0.889 0.957h14.222c0.432 0 0.889-0.492 0.889-0.957v-15.04l-6-6" style="fill:#376a94"/>
 <path d="m14 1 6 6h-5.077c-0.448 0-0.923-0.475-0.923-0.923v-5.077" style="fill-opacity:.392;fill:#fff"/>
 <g transform="matrix(.41653 0 0 .36419 2.006 4.6293)" style="fill:#fff">
  <g style="fill:#fff">
   <path transform="matrix(2.4008 0 0 2.7458 -4.8159 -12.711)" d="m10 9c-1.662 0-3 1.338-3 3v1c0 1.662 1.338 3 3 3l-1 3 5-3c1.662 0 3-1.338 3-3v-1c0-1.662-1.338-3-3-3h-4z" style="fill:#fff"/>
  </g>
 </g>
 <path d="m15 7 5 5v-5" style="fill-opacity:.196"/>
</svg>
