<svg version="1.1" viewBox="0 0 24 24" xmlns="http://www.w3.org/2000/svg">
 <path d="m5 1c-0.473 0-1 0.527-1 1v20c0 0.445 0.555 1 1 1h14c0.445 0 0.992-0.555 1-1v-15l-6-6z" style="fill:#f68712"/>
 <path d="m15 7 5 5v-5z" style="fill-opacity:.196"/>
 <path d="m14 1 6 6h-5c-0.445 0-1-0.555-1-1z" style="fill-opacity:.392;fill:#fff"/>
 <g transform="matrix(.0071926 0 0 -.0071927 7.5 21.265)">
  <path d="m1094.9 1079.6 156.43-625.63v312.81l-156.43 312.82 156.43 625.64v-312.81l-156.43-312.83m-938.45 0-156.41 625.64v-312.81l156.41-312.83-156.41-625.63v312.81l156.41 312.82m469.24-469.22-625.64-156.41h312.81l312.83 156.41 625.64-156.41h-312.83l-312.81 156.41m0 938.45 625.64 156.41h-312.83l-312.81-156.41-625.64 156.41h312.81l312.83-156.41m-625.64-1094.9 156.41 625.63 469.24-469.22-625.64-156.41m1251.3 0-625.64 156.41 469.22 469.22 156.43-625.63m0 1251.3-156.43-625.64-469.22 469.23 625.64 156.41m-1251.3 0 625.64-156.41-469.24-469.23-156.41 625.64m625.64-156.41-469.24-469.23 469.24-469.22 469.22 469.22-469.22 469.23" style="fill:#fff"/>
 </g>
</svg>
