<svg version="1.1" viewBox="0 0 24 24" xmlns="http://www.w3.org/2000/svg">
 <path d="m5 1c-0.473 0-1 0.527-1 1v20c0 0.445 0.555 1 1 1h14c0.445 0 0.992-0.555 1-1v-15l-6-6z" style="fill:#37314a"/>
 <path d="m15 7 5 5v-5z" style="fill-opacity:.196"/>
 <path d="m14 1 6 6h-5c-0.445 0-1-0.555-1-1z" style="fill-opacity:.392;fill:#fff"/>
 <path d="m7 12.462c0 1.1428 1.2262 1.5385 2 1.5385-1.25-1.7308 0.47321-3.3935 2-4v9h2.0833l4.1667-10h-1.25l-3 8v-8h-1c-2.0833 0-5 1.6758-5 3.4615z" style="fill:#fff"/>
</svg>
