<svg version="1.1" viewBox="0 0 24 24" xmlns="http://www.w3.org/2000/svg">
 <path d="m5 1c-0.473 0-1 0.527-1 1v20c0 0.445 0.555 1 1 1h14c0.445 0 0.992-0.555 1-1v-15l-6-6z" style="fill:#efc743"/>
 <path d="m15 7 5 5v-5z" style="fill-opacity:.196"/>
 <path d="m14 1 6 6h-5c-0.445 0-1-0.555-1-1z" style="fill-opacity:.392;fill:#fff"/>
 <path d="m11.675 17.993c-0.77237-0.06647-1.5394-0.2852-2.2023-0.62804-0.60159-0.31112-1.061-0.69839-1.3546-1.142-0.50171-1.0765-0.58908-1.4921-1.0851-2.8894-0.015726-0.03918-0.44685-1.8227-0.44242-1.8302 7.861e-4 -0.0012 0.16419 0.06606 0.36354 0.14909l0.36245 0.15096 0.12969-0.12638c0.18194-0.17729 0.37032-0.31444 0.64067-0.46646l0.082485-0.04638c0.1529-0.33419 0.33046-0.66756 0.49376-0.99081 0.28443 0.21366 0.50453 0.38713 0.80204 0.61809 0.00686 0.0053 0.09197-0.0106 0.23254-0.04337 0.5912-0.13775 0.90598-0.18423 1.302-0.19225l0.21399-0.0043c0.26076-0.25142 0.52314-0.50123 0.78487-0.75158 0.27757 0.26364 0.48749 0.46615 0.78487 0.75158l0.21399 0.0043c0.39283 0.0079 0.70549 0.05349 1.2718 0.18524 0.12037 0.02801 0.22707 0.05253 0.2371 0.05452 0.30852-0.21184 0.49836-0.36802 0.83353-0.62634 0.17767 0.34744 0.30461 0.61641 0.48763 0.99435l0.05983 0.03322c0.27363 0.15193 0.48234 0.30296 0.66382 0.48038l0.1298 0.12688c0.2577-0.10757 0.50345-0.20946 0.72826-0.303-0.08547 0.34941-0.15015 0.62811-0.21736 0.91152-0.11088 0.46895-0.21202 0.87931-0.22474 0.9119-0.33541 0.94952-0.6044 1.7125-0.97168 2.7071-0.34888 0.64728-1.043 1.1952-1.9844 1.5665-0.47968 0.18917-0.98161 0.31459-1.5109 0.37753-0.18601 0.02213-0.65572 0.03208-0.82528 0.01747zm-0.72053-3.2024c0.5692-0.32154 1.0392-0.58463 1.0445-0.58463 0.73406 0.40707 1.3075 0.73344 2.0848 1.1699 0.41622-0.09651 0.63221-0.17304 1.137-0.32356 0.31886-0.35105 0.5891-0.79923 0.79846-1.1075-0.03002-0.08842-0.12632-0.27526-0.19276-0.37408-0.38092-0.56651-1.1318-1.0541-2.0516-1.3322-0.90348-0.27315-1.9318-0.3292-2.9023-0.15817-1.2671 0.22329-2.33 0.83479-2.7649 1.5906-0.053921 0.0937-0.11707 0.22849-0.13482 0.28779 0.21147 0.37823 0.56438 0.78296 0.80348 1.0929 0.3742 0.11664 0.75359 0.22076 1.1296 0.32818 0.41644-0.23193 0.70926-0.39818 1.0486-0.58924z" style="fill:#fff"/>
</svg>
