<svg width="48" height="48" version="1.1" viewBox="0 0 48 48" xmlns="http://www.w3.org/2000/svg">
 <path d="m8.0571 6c-1.0286 0-2.0571 1.0286-2.0571 2.0571v31.943c0 0.97143 1.0286 2 2 2h32c0.97143 0 2-1.0286 2-2v-32c0-0.97143-1.0286-2-2-2z" style="fill:#c19553"/>
 <g style="fill:#fff">
  <path d="m8.0571 6c-1.0286 0-2.0571 1.0286-2.0571 2.0571v9.9429h36v-10c0-0.97143-1.0286-2-2-2z" style="fill-opacity:.196"/>
  <path d="m21 10v16h6v-16z" style="fill-opacity:.392"/>
 </g>
 <path d="m17.051 30-3.1504 8h1.9491l0.58203-1.7324h3.0801l0.58203 1.7324h2.0068l-3.1504-8zm5.9491 0v8h5v-1.5h-3v-6.5zm-5.0393 1.9005 1.1289 2.9374h-2.248z" style="fill:#fff;stroke-width:.86085"/>
 <path d="m28.981 29.98v8h1.8425v-2.68h0.6265c2.398 0.0152 3.5384-0.88744 3.531-2.7544-0.0085-2.1475-1.8064-2.5656-3.5227-2.5656zm1.8425 1.6h0.7503c1.2074 0 1.5976 0.32239 1.6062 0.95937 0.01284 0.94939-0.79444 1.1362-1.7538 1.1606h-0.60271z" style="fill:#fff"/>
</svg>
