<svg version="1.1" viewBox="0 0 48 48" xmlns="http://www.w3.org/2000/svg">
 <path d="m8 1c-1.029 0-2 0.971-2 2v42c0 0.971 1.029 2 2 2h32c0.971 0 2-1.029 2-2v-31l-13-13z" style="fill:#a31d23"/>
 <path d="m29 12 0.063 0.063 0.156-0.063h-0.219zm2 2 11 11v-11h-11z" style="fill-opacity:.196"/>
 <path d="m29 1 13 13h-11c-0.971 0-2-1.029-2-2v-11z" style="fill-opacity:.392;fill:#fff"/>
 <path d="m31 20.667c0 5.3333-5.0909 11.333-7 11.333s-7-6.2371-7-11.333c0-3.0735 2.3759-4.6667 7-4.6667s7 1.6102 7 4.6667z" style="fill:#ffffff;paint-order:normal;stroke-width:.65134"/>
 <path d="m6 35v10c0 0.971 1.029 2 2 2h32c0.971 0 2-1.029 2-2v-10z" style="fill-opacity:.196"/>
 <path d="m29.569 38.327c-0.46911 0-0.86273 0.0644-1.189 0.19535-0.31734 0.13452-0.58354 0.32129-0.79538 0.55599-0.20615 0.23184-0.35224 0.51449-0.45369 0.8415-0.08522 0.32129-0.12336 0.67907-0.12336 1.079 0 0.9109 0.18424 1.5936 0.55838 2.0322 0.37739 0.4279 0.92279 0.64257 1.6516 0.64257 0.11444 0 0.24754-0.0057 0.38713-0.01646 0.13959-0.0057 0.2662-0.01931 0.38388-0.0365v-2.7979h1.9657v3.8297c-0.23131 0.0644-0.60221 0.13954-1.0998 0.22397-0.49102 0.080867-1.0908 0.12309-1.7945 0.12309-0.62493 0-1.1825-0.08372-1.6865-0.25402-0.49102-0.16744-0.90981-0.41932-1.2621-0.74919-0.35223-0.33846-0.62493-0.75492-0.81971-1.2522-0.19317-0.50303-0.29136-1.0848-0.29136-1.7445 0-0.65116 0.11444-1.2243 0.33925-1.7216 0.22482-0.50304 0.52916-0.92522 0.90981-1.2609 0.38388-0.33846 0.84326-0.58963 1.3667-0.75492 0.52023-0.17602 1.0843-0.2626 1.68-0.2626 0.38713 0 0.72638 0.02791 1.0242 0.07513 0.31085 0.04222 0.57705 0.09517 0.80511 0.14526 0.22482 0.05868 0.40255 0.12308 0.54215 0.19034 0.14609 0.0644 0.25971 0.11449 0.33276 0.15099l-0.5105 1.2129c-0.23455-0.11735-0.52023-0.22396-0.86517-0.31054-0.336-0.09517-0.68824-0.13668-1.0559-0.13668" style="fill:#fff;stroke-width:1.0028"/>
 <path d="m23 37v1.3148h-2.5397v6.6852h-1.927v-6.6852h-2.5333v-1.3148h7" style="fill:#fff;stroke-width:1.0028"/>
</svg>
