<svg version="1.1" viewBox="0 0 48 48" xmlns="http://www.w3.org/2000/svg">
 <path d="m8 1c-1.03 0-2 .971-2 2v42c0 .971 1.03 2 2 2h32c.971 0 2-1.03 2-2v-31l-13-13z" style="fill:#39a34f"/>
 <path d="m29 12 .063.063.156-.063h-.219zm2 2 11 11v-11h-11z" style="fill-opacity:.196"/>
 <path d="m29 1 13 13h-11c-.971 0-2-1.03-2-2v-11z" style="fill-opacity:.392;fill:#fff"/>
 <g transform="matrix(.534 0 0 .534 11.2 11.2)" style="fill:#fff">
  <g style="fill:#fff">
   <path d="m27.1 9.64-3.61 10.2 14.2-2.36c-2.1-3.99-5.98-6.93-10.6-7.79" style="fill:#fff"/>
   <path d="m38.2 19.4-10.7 1.99 9.2 11c2.46-3.8 3.09-8.59 1.53-13" style="fill:#fff"/>
   <path d="m35.1 33.8-7.12-8.16-5.05 13.3c4.57.195 9.09-1.66 12.2-5.18" style="fill:#fff"/>
   <path d="m20.9 38.4 3.62-10.2-14.2 2.36c2.11 4 6 6.93 10.6 7.79" style="fill:#fff"/>
   <path d="m9.85 28.6 10.7-1.99-9.2-11c-2.45 3.8-3.09 8.59-1.53 13" style="fill:#fff"/>
   <path d="m12.9 14.2 7.12 8.16 5.05-13.3c-4.56-.195-9.09 1.66-12.2 5.18" style="fill:#fff"/>
  </g>
 </g>
 <path d="m6 35v10c0 .971 1.03 2 2 2h32c.971 0 2-1.03 2-2v-10z" style="fill-opacity:.196"/>
 <path d="m17.6 45q-1.48 0-2.26-1.04-.781-1.04-.781-2.96 0-.954.238-1.7t.656-1.25q.43-.52 1.01-.78.588-.272 1.28-.272.373 0 .667.074.305.062.532.149.226.087.373.186.158.099.238.149l-.362 1.21q-.26-.186-.633-.31-.362-.136-.837-.136-.328 0-.645.136-.305.124-.554.433-.238.297-.396.805-.147.508-.147 1.26 0 1.31.407 2.02.419.693 1.36.693.543 0 .894-.136.362-.136.577-.272l.351 1.2q-.294.198-.803.372-.498.161-1.15.161z" style="fill:#ffffff"/>
 <path d="m22.8 36.9q.609 0 1.1.153t.851.473q.356.319.54.818.195.486.195 1.15 0 .69-.253 1.25t-.839.856q.195.332.414.741.218.396.425.843.207.435.391.882.195.435.333.831h-1.48q-.264-.767-.621-1.47-.345-.716-.747-1.44h-.736v2.91h-1.41v-7.8q.207-.051.448-.089.253-.051.506-.064.253-.026.483-.038.23-.013.402-.013zm1.25 2.58q0-.626-.345-.92t-.908-.294q-.08 0-.195.013-.115 0-.23.026v2.38h.31q.724 0 1.05-.307.322-.319.322-.895z" style="fill:#ffffff"/>
 <g transform="matrix(.986 0 0 1.01 -.1 0)" style="fill:#ff00ff" aria-label="3">
  <path d="m29.5 44.4q-.284 0-.606-.0495-.309-.0371-.606-.0989-.284-.0618-.532-.136-.247-.0742-.383-.136l.297-1.27q.284.124.73.26.458.136 1.09.136.779 0 1.09-.334.322-.334.322-.829 0-.606-.482-.841-.482-.247-1.22-.247h-.47v-1.26h.569q.235 0 .47-.0495.235-.0495.42-.161.185-.111.297-.297.124-.185.124-.47 0-.42-.26-.655-.247-.247-.692-.247-.433 0-.866.148-.42.136-.73.346l-.544-1.11q.334-.223.878-.445.556-.235 1.25-.235.643 0 1.11.161.482.161.791.458.309.284.458.68.148.396.148.853t-.26.878q-.26.42-.692.643.594.247.915.73.334.482.334 1.15 0 .532-.173.977-.173.445-.532.779-.359.322-.915.507-.556.173-1.32.173z" style="fill:#ffffff"/>
 </g>
</svg>
