<svg width="48" height="48" version="1.1" viewBox="0 0 48 48" xmlns="http://www.w3.org/2000/svg">
 <path d="m8 1c-1.0286 0-2 0.97143-2 2v42c0 0.97143 1.0286 2 2 2h32c0.97143 0 2-1.0286 2-2v-31l-13-13z" style="fill:#f68712"/>
 <path d="m29 12 0.0625 0.0625 0.15625-0.0625h-0.21875zm2 2 11 11v-11h-11z" style="fill-opacity:.196"/>
 <path d="m29 1 13 13h-11c-0.97143 0-2-1.0286-2-2v-11z" style="fill-opacity:.392;fill:#fff"/>
 <g transform="matrix(.014385 0 0 -.014385 15 42.53)">
  <path d="m1094.9 1079.6 156.43-625.63v312.81l-156.43 312.82 156.43 625.64v-312.81l-156.43-312.83m-938.45 0-156.41 625.64v-312.81l156.41-312.83-156.41-625.63v312.81l156.41 312.82m469.24-469.22-625.64-156.41h312.81l312.83 156.41 625.64-156.41h-312.83l-312.81 156.41m0 938.45 625.64 156.41h-312.83l-312.81-156.41-625.64 156.41h312.81l312.83-156.41m-625.64-1094.9 156.41 625.63 469.24-469.22-625.64-156.41m1251.3 0-625.64 156.41 469.22 469.22 156.43-625.63m0 1251.3-156.43-625.64-469.22 469.23 625.64 156.41m-1251.3 0 625.64-156.41-469.24-469.23-156.41 625.64m625.64-156.41-469.24-469.23 469.24-469.22 469.22 469.22-469.22 469.23" style="fill:#fff"/>
 </g>
</svg>
