<svg version="1.1" viewBox="0 0 48 48" xmlns="http://www.w3.org/2000/svg">
 <path d="m8 1c-1.029 0-2 0.971-2 2v42c0 0.971 1.029 2 2 2h32c0.971 0 2-1.029 2-2v-31l-13-13" style="fill:#bd75a9"/>
 <path d="m29 12 0.063 0.063 0.156-0.063h-0.219zm2 2 11 11v-11h-11z" style="fill-opacity:.196"/>
 <path d="m29 1 13 13h-11c-0.971 0-2-1.029-2-2v-11z" style="fill-opacity:.392;fill:#fff"/>
 <path d="m22 16c-3.878 0-7 3.122-7 7v6c0 3.878 3.122 7 7 7v6l4-6c3.878 0 7-3.122 7-7v-6c0-3.878-3.122-7-7-7zm1 3h4l3 3h-4v8.5c0 1.3807-1.567 2.5-3.5 2.5s-3.5-1.1193-3.5-2.5 1.567-2.5 3.5-2.5c0.1673-8.3e-5 0.5 0 0.5 0z" style="fill:#fff"/>
</svg>
