<svg version="1.1" viewBox="0 0 48 48" xmlns="http://www.w3.org/2000/svg">
 <path d="m8 1c-1.029 0-2 0.971-2 2v42c0 0.971 1.029 2 2 2h32c0.971 0 2-1.029 2-2v-31l-13-13z" style="fill:#37314a"/>
 <path d="m29 12 0.063 0.063 0.156-0.063h-0.219zm2 2 11 11v-11h-11z" style="fill-opacity:.196"/>
 <path d="m29 1 13 13h-11c-0.971 0-2-1.029-2-2v-11z" style="fill-opacity:.392;fill:#fff"/>
 <g transform="matrix(1 0 0 1.05 7 19.099)">
  <path d="m6 4.6672c0 2.2856 2.4524 3.8095 4 3.8095-2.729-3.6715 0.64015-7.3814 4-8.5714v18.095h4l9-20h-3l-6 16.19v-16.19h-2c-4.1666 0-10 3.0953-10 6.6667z" style="fill:#fff"/>
 </g>
</svg>
