<svg version="1.1" viewBox="0 0 22 22" xmlns="http://www.w3.org/2000/svg">
 <path d="m4 0c-0.473 0-1 0.527-1 1v20c0 0.445 0.555 1 1 1h14c0.445 0 0.992-0.555 1-1v-15l-6-6z" style="fill:#0a5c0a"/>
 <path d="m14 6 5 5v-5z" style="fill-opacity:.196"/>
 <path d="m13 0 6 6h-5c-0.445 0-1-0.555-1-1z" style="fill-opacity:.392;fill:#fff"/>
 <path d="m8 9v5.2773c-0.5956 0.34636-0.99989 0.984-1 1.7227-1.604e-4 1.0858 0.90491 1.9868 2 2 1.0951 0.013255 2-0.89543 2-2 0-0.73866-0.40437-1.3763-1-1.7227v-5.2773h-2zm5 0c-1.0951 0.013255-2.0002 0.91422-2 2 1.09e-4 0.73866 0.4044 1.3763 1 1.7227v5.2773h2v-5.2773c0.59563-0.34636 1-0.984 1-1.7227 0-1.1046-0.90491-2.0133-2-2zm0 1c0.55228 0 1 0.44772 1 1s-0.44772 1-1 1-1-0.44772-1-1 0.44772-1 1-1zm-4 5c0.55228 0 1 0.44772 1 1s-0.44772 1-1 1-1-0.44772-1-1 0.44772-1 1-1z" style="fill:#dfbd8a;stroke-linejoin:round;stroke-opacity:.54328;stroke-width:2.0817"/>
</svg>
