<svg version="1.1" viewBox="0 0 22 22" xmlns="http://www.w3.org/2000/svg">
 <path d="m4 0c-0.473 0-1 0.527-1 1v20c0 0.445 0.555 1 1 1h14c0.445 0 0.992-0.555 1-1v-15l-6-6z" style="fill:#453a62"/>
 <path d="m14 6 5 5v-5z" style="fill-opacity:.196"/>
 <path d="m13 0 6 6h-5c-0.445 0-1-0.555-1-1z" style="fill-opacity:.392;fill:#fff"/>
 <path d="m5 8 2.5 5-2.5 5h2l2.5-5-2.5-5zm3 0 2.5 5-2.5 5h2.25l1.5-3 1.75 3h2.25l-5.75-10zm4.5 2 1.25 2h3.25v-2zm2.25 4 1.25 2h1v-2z" style="fill:#fff;stroke-linecap:round;stroke-linejoin:round;stroke-opacity:.50172;stroke-width:4.3916"/>
</svg>
