<svg xmlns="http://www.w3.org/2000/svg" viewBox="0 0 16 16">
 <g transform="translate(0,-1036.3622)">
  <rect width="9" height="6" x="1.022" y="1039.36" rx="0.978" ry="1.094" style="fill:#1976d2;fill-opacity:1;stroke:none"/>
  <path d="m 2 1039.36 c -0.542 0 -0.978 0.557 -0.978 1.25 l 0 1 c 0 -0.693 0.436 -1.25 0.978 -1.25 l 7.04 0 c 0.542 0 0.978 0.557 0.978 1.25 l 0 -1 c 0 -0.693 -0.436 -1.25 -0.978 -1.25 z" style="fill:#fff;opacity:0.2;fill-opacity:1;stroke:none"/>
  <path d="m 2 1040.86 1.565 0 c 2.152 -0.222 1.761 -2.5 3.13 -2.5 l 2.348 0 c 0.542 0 0.978 0.496 0.978 1.111 l 0 4.778 c 0 0.616 -0.436 1.111 -0.978 1.111 l -7.04 0 c -0.542 0 -0.978 -0.496 -0.978 -1.111 l 0 -2.111 c 0 -0.667 0.391 -1.278 0.978 -1.278 z" style="fill:#42a5f5;fill-opacity:1;stroke:none"/>
  <path d="m 1.022 1043.31 0 0.945 c 0 0.616 0.436 1.111 0.978 1.111 l 7.04 0 c 0.542 0 0.978 -0.496 0.978 -1.111 l 0 -0.945 c 0 0.616 -0.436 1.056 -0.978 1.056 l -7.04 0 c -0.542 0 -0.978 -0.44 -0.978 -1.056 z" style="fill:#000;opacity:0.15;fill-opacity:1;stroke:none"/>
  <rect width="9" height="6" x="6" y="1044.36" rx="0.978" ry="1.094" style="fill:#1976d2;fill-opacity:1;stroke:none"/>
  <path d="m 6.978 1044.36 c -0.542 0 -0.978 0.557 -0.978 1.25 l 0 1 c 0 -0.693 0.436 -1.25 0.978 -1.25 l 7.04 0 c 0.542 0 0.978 0.557 0.978 1.25 l 0 -1 c 0 -0.693 -0.436 -1.25 -0.978 -1.25 z" style="fill:#fff;opacity:0.2;fill-opacity:1;stroke:none"/>
  <path d="m 6.978 1045.86 1.565 0 c 2.152 -0.222 1.761 -2.5 3.13 -2.5 l 2.348 0 c 0.542 0 0.978 0.496 0.978 1.111 l 0 4.778 c 0 0.616 -0.436 1.111 -0.978 1.111 l -7.04 0 c -0.542 0 -0.978 -0.496 -0.978 -1.111 l 0 -2.111 c 0 -0.667 0.391 -1.278 0.978 -1.278 z" style="fill:#42a5f5;fill-opacity:1;stroke:none"/>
  <path d="m 6 1048.31 0 0.945 c 0 0.616 0.436 1.111 0.978 1.111 l 7.04 0 c 0.542 0 0.978 -0.496 0.978 -1.111 l 0 -0.945 c 0 0.616 -0.436 1.056 -0.978 1.056 l -7.04 0 c -0.542 0 -0.978 -0.44 -0.978 -1.056 z" style="fill:#000;opacity:0.15;fill-opacity:1;stroke:none"/>
 </g>
</svg>
