<svg xmlns="http://www.w3.org/2000/svg" viewBox="0 0 16 16">
 <defs>
  <radialGradient r="24" cy="40.5" cx="24" gradientTransform="matrix(0.41666667,0,0,0.06944442,-2,1046.8831)" gradientUnits="userSpaceOnUse" id="radialGradient3016">
   <stop style="stop-color:#000;stop-opacity:1"/>
   <stop offset="1" style="stop-color:#000;stop-opacity:0.196"/>
  </radialGradient>
 </defs>
 <g transform="translate(0,-1036.3622)">
  <rect width="8" height="1" x="4" y="1041.36" style="fill:#7a7a68;fill-opacity:1;stroke:none"/>
  <path d="m 8 1048.03 c -3.276 0 -6.176 0.261 -8 0.667 l 0 2 c 1.824 0.406 4.724 0.667 8 0.667 3.276 0 6.176 -0.261 8 -0.667 l 0 -2 c -1.824 -0.406 -4.724 -0.667 -8 -0.667 z" style="fill:url(#radialGradient3016);opacity:0.1;fill-opacity:1;stroke:none"/>
  <rect width="14" height="10" x="1" y="1040.36" rx="1.522" ry="1.562" style="fill:#5d4037;fill-opacity:1;stroke:none"/>
  <rect width="12" height="9" x="2" y="1038.36" style="fill:#eae7d1;fill-opacity:1;stroke:none"/>
  <path d="m 2.522 1040.36 c -0.843 0 -1.522 0.69 -1.522 1.546 l 0 0.619 c 0 -0.857 0.679 -1.165 1.522 -1.165 l 10.957 0 c 0.843 0 1.522 0.308 1.522 1.165 l 0 -0.619 c 0 -0.857 -0.679 -1.546 -1.522 -1.546 z" style="fill:#fff;opacity:0.2;fill-opacity:1;stroke:none"/>
  <rect width="8" height="1" x="4" y="1039.36" style="fill:#7a7a68;fill-opacity:1;stroke:none"/>
  <rect y="1041.36" x="4" height="1" width="8" style="fill:#7a7a68;fill-opacity:1;stroke:none"/>
  <rect y="1043.36" x="4" height="1" width="8" style="fill:#7a7a68;fill-opacity:1;stroke:none"/>
  <path d="m 2.522 1045.36 2.435 0 c 3.348 -0.333 2.739 -4 4.87 -4 l 3.652 0 c 0.843 0 1.522 0.743 1.522 1.667 l 0 5.667 c 0 0.923 -0.679 1.667 -1.522 1.667 l -10.957 0 c -0.843 0 -1.522 -0.743 -1.522 -1.667 l 0 -1.667 c 0 -1 0.609 -1.667 1.522 -1.667 z" style="fill:#8d6e63;fill-opacity:1;stroke:none"/>
  <path d="m 1 1048.03 0 0.667 c 0 0.923 0.679 1.667 1.522 1.667 l 10.957 0 c 0.843 0 1.522 -0.743 1.522 -1.667 l 0 -0.667 c 0 0.923 -0.679 1.333 -1.522 1.333 l -10.957 0 c -0.843 0 -1.522 -0.41 -1.522 -1.333 z" style="fill:#000;opacity:0.15;fill-opacity:1;stroke:none"/>
 </g>
</svg>
