<svg version="1.1" viewBox="0 0 16 16" xmlns="http://www.w3.org/2000/svg">
 <g transform="translate(0,-1036.3622)">
  <path d="m2.9896558 1037.3623c-0.1221969 0-0.2445426 0.069-0.2901731 0.2078l-1.628206 4.7921h3.928829l-1.7202759-4.7921c-0.045648-0.1386-0.1679772-0.2078-0.290174-0.2078zm2.0104499 4.9999 2.9998959 9 2.9998974-9zm5.9997933 0h3.928828l-1.628205-4.7921c-0.09126-0.2772-0.489042-0.2772-0.580348 0zm3.928828 0-6.9287254 9 7.7484034-5.0104c0.213799-0.1533 0.303372-0.4249 0.221724-0.6729zm-6.9287254 9-6.9287249-9-1.0414023 3.3167c-0.08164719 0.248 0.0078997 0.5196 0.22172438 0.6729z" style="-inkscape-stroke:none;fill:#8d6e63;font-variation-settings:normal;stop-color:#000000;stroke-width:.727274"/>
 </g>
</svg>
