<svg xmlns="http://www.w3.org/2000/svg" viewBox="0 0 16 16">
 <rect x="1" y="2.998" height="6" rx="0.978" ry="1.094" style="fill:#512da8;fill-opacity:1;stroke:none" width="9"/>
 <path d="M 1.978,2.9978 C 1.436,2.9978 1,3.5548 1,4.2478 l 0,1 c 0,-0.693 0.436,-1.25 0.978,-1.25 l 7.04,0 c 0.542,0 0.978,0.557 0.978,1.25 l 0,-1 c 0,-0.693 -0.436,-1.25 -0.978,-1.25 z" style="fill:#fff;opacity:0.1;fill-opacity:1;stroke:none"/>
 <path d="m 1.978 4.498 1.565 0 c 2.152 -0.222 1.761 -2.5 3.13 -2.5 l 2.348 0 c 0.542 0 0.978 0.496 0.978 1.111 l 0 4.778 c 0 0.616 -0.436 1.111 -0.978 1.111 l -7.04 0 c -0.542 0 -0.978 -0.496 -0.978 -1.111 l 0 -2.111 c 0 -0.667 0.391 -1.278 0.978 -1.278 z" style="fill:#7e57c2;fill-opacity:1;stroke:none"/>
 <path d="m 1,6.9478 0,0.945 c 0,0.616 0.436,1.111 0.978,1.111 l 7.04,0 c 0.542,0 0.978,-0.496 0.978,-1.111 l 0,-0.945 c 0,0.616 -0.436,1.056 -0.978,1.056 l -7.04,0 C 1.436,8.0038 1,7.5638 1,6.9478 Z" style="fill:#000;opacity:0.075;fill-opacity:1;stroke:none"/>
 <path d="m 6.674 1.998 c -0.619 0 -0.881 0.469 -1.178 1 l -3.518 0 c -0.11 0 -0.214 0.028 -0.313 0.07 c -0.386 0.146 -0.666 0.541 -0.666 1.023 l 0 0.156 l 0 1 l 0 1.699 l 0 0.945 l 0 0.012 c 0 0.15 0.028 0.292 0.076 0.422 c 0.033 0.089 0.087 0.161 0.139 0.236 c 0.025 0.037 0.041 0.082 0.07 0.115 c 0.177 0.201 0.422 0.326 0.693 0.326 l 7.04 0 c 0.137 0 0.268 -0.034 0.387 -0.092 c 0.056 -0.026 0.099 -0.074 0.148 -0.111 c 0.053 -0.04 0.113 -0.07 0.158 -0.121 c 0.178 -0.198 0.289 -0.471 0.289 -0.775 l 0 -3.813 c 0 -0.004 -0.002 -0.008 -0.002 -0.012 l 0 -0.971 c 0 -0.615 -0.435 -1.111 -0.977 -1.111 l -2.348 0 z" style="fill:#fff;opacity:0.5;fill-opacity:1;stroke:none"/>
 <rect x="5.978" y="7.998" height="6" rx="0.978" ry="1.094" style="fill:#512da8;fill-opacity:1;stroke:none" width="9"/>
 <path d="m 6.957 7.998 c -0.542 0 -0.978 0.557 -0.978 1.25 l 0 1 c 0 -0.693 0.436 -1.25 0.978 -1.25 l 7.04 0 c 0.542 0 0.978 0.557 0.978 1.25 l 0 -1 c 0 -0.693 -0.436 -1.25 -0.978 -1.25 z" style="fill:#fff;opacity:0.2;fill-opacity:1;stroke:none"/>
 <path d="m 6.957 9.498 1.565 0 c 2.152 -0.222 1.761 -2.5 3.13 -2.5 l 2.348 0 c 0.542 0 0.978 0.496 0.978 1.111 l 0 4.778 c 0 0.616 -0.436 1.111 -0.978 1.111 l -7.04 0 c -0.542 0 -0.978 -0.496 -0.978 -1.111 l 0 -2.111 c 0 -0.667 0.391 -1.278 0.978 -1.278 z" style="fill:#7e57c2;fill-opacity:1;stroke:none"/>
 <path d="m 5.978 11.948 0 0.945 c 0 0.616 0.436 1.111 0.978 1.111 l 7.04 0 c 0.542 0 0.978 -0.496 0.978 -1.111 l 0 -0.945 c 0 0.616 -0.436 1.056 -0.978 1.056 l -7.04 0 c -0.542 0 -0.978 -0.44 -0.978 -1.056 z" style="fill:#000;opacity:0.15;fill-opacity:1;stroke:none"/>
</svg>
