<svg version="1.1" viewBox="0 0 64 64" xmlns="http://www.w3.org/2000/svg">
 <path d="m10.7 0c-1.38 0-2.67 1.36-2.67 2.79v58.4c0 1.36 1.38 2.79 2.67 2.79h42.7c1.3 0 2.67-1.43 2.67-2.79v-43.2l-18-18" style="fill:#478cbf"/>
 <path d="m42 18 14 14v-14" style="fill-opacity:.196;fill:#000000"/>
 <path d="m38 0 18 18h-15.2c-1.35 0-2.76-1.43-2.76-2.77" style="fill-opacity:.392;fill:#ffffff"/>
 <path d="m28.5 20-4.5 1.5v3.5l-3 2.5-3-1.5-3 4 2 3v9.04l5.54.459c.18.015.43.151.459.484.000261.003 1.3e-5.007 0 .01-8e-6.002 0 .004 0 .006v2.54l5 .416v-2.46c0-.277.223-.5.5-.5h7c.277 0 .5.223.5.5v2.46l5-.416v-2.54c0-.002 9e-6-.004 0-.006-1.3e-5-.003-.00026-.007 0-.01.029-.333.279-.469.459-.484l5.54-.459v-9.04l2-3-3-4-3 1.5-3-2.5v-3.5l-4.5-1.5-1.5 3h-4zm-4 13c1.93 0 3.5 1.57 3.5 3.5s-1.57 3.5-3.5 3.5c-1.93 0-3.5-1.57-3.5-3.5s1.57-3.5 3.5-3.5zm15 0c1.93 0 3.5 1.57 3.5 3.5s-1.57 3.5-3.5 3.5-3.5-1.57-3.5-3.5 1.57-3.5 3.5-3.5zm-14.5 2c-1.1 0-2 .895-2 2s.895 2 2 2c1.1 0 2-.895 2-2s-.895-2-2-2zm7 0c.554 0 1 .446 1 1v3c0 .554-.446 1-1 1-.554 0-1-.446-1-1v-3c0-.554.446-1 1-1zm7 0c-1.1 0-2 .895-2 2s.895 2 2 2 2-.895 2-2-.895-2-2-2zm-22 8.04v1.46c0 4.16 6.69 7.5 15 7.5s15-3.34 15-7.5v-1.46l-5 .416v2.54c-.0118.362-.272.486-.441.494 0 0-4.19.336-6.06.506-.326.0299-.487-.229-.498-.459-.0017-.0189-.0024-.0376-.002-.0566v-2.48h-6l-.002 2.54c-.000182.23-.172.489-.498.459-1.82-.167-4.03-.334-6.04-.502-.0059-.001-.0118-.003-.0176-.004-.166-.034-.43-.132-.441-.494v-2.54z" style="fill:#ffffff;stroke-dashoffset:6.6;stroke-linecap:round;stroke-linejoin:round;stroke-opacity:.441"/>
</svg>
