<svg version="1.1" viewBox="0 0 64 64" xmlns="http://www.w3.org/2000/svg">
 <path d="m10.742 8c-1.367 0-2.742 1.375-2.742 2.742v42.594c0 1.289 1.375 2.664 2.664 2.664h42.672c1.289 0 2.664-1.375 2.664-2.664v-42.672c0-1.289-1.375-2.664-2.664-2.664" style="fill:#c19553"/>
 <path d="m10.742 8c-1.367 0-2.742 1.375-2.742 2.742v13.258h48v-13.336c0-1.289-1.375-2.664-2.664-2.664" style="fill-opacity:.196;fill:#fff"/>
 <path d="m28 14v20h8v-20" style="fill-opacity:.392;fill:#fff"/>
 <path d="m21.894 40-4.1938 11h2.4621l0.77344-2.1h4.0992l0.77774 2.1h2.5352l-4.1938-11zm8.1061 0v11h7v-2h-5v-9zm9 0v11h2v-3.951h1.0152c2.9849-0.049 4.7302-0.9542 4.7202-3.5213-0.01145-2.9528-2.3789-3.5277-4.6773-3.5277zm2 2h1.4132c1.6169 0 2.0661 0.64329 2.0776 1.5191 0.01716 1.3054-0.99053 1.4472-2.2753 1.4809h-1.2155zm-18.028 0.49219 1.5039 4.2078h-2.9949z" style="fill:#fff"/>
</svg>
