<svg version="1.1" viewBox="0 0 64 64" xmlns="http://www.w3.org/2000/svg">
 <path d="m10.672 0c-1.375 0-2.672 1.355-2.672 2.789v58.42c0 1.355 1.375 2.789 2.672 2.789h42.656c1.297 0 2.672-1.434 2.672-2.789v-43.21l-18-18" style="fill:#a31d23"/>
 <path d="m42 18 14 14v-14" style="fill-opacity:.196"/>
 <path d="m38 0 17.984 18h-15.227c-1.348 0-2.758-1.426-2.758-2.773" style="fill-opacity:.392;fill:#fff"/>
 <path d="m8.0003 48.037v13.336c0 1.297 1.375 2.664 2.664 2.664h42.672c1.289 0 2.664-1.367 2.664-2.664v-13.336" style="fill-opacity:.196"/>
 <path d="m37 50v1.8078h-3.2654v9.1922h-2.4775v-9.1922h-3.2571v-1.8078h9" style="fill:#fff"/>
 <path d="m21.254 50c1.5047 0 2.6722 0.29138 3.4978 0.86205 0.82555 0.56764 1.2482 1.4892 1.2482 2.7767 0 1.2956-0.4226 2.2454-1.2629 2.8241-0.83342 0.5747-2.0079 0.86609-3.54 0.86609h-0.8403v3.671h-2.3568v-10.733c0.23391-0.04336 0.48354-0.08671 0.76757-0.12603 0.29189-0.03529 0.58378-0.05949 0.87568-0.06654 0.29976-0.02319 0.58378-0.04335 0.86781-0.05142 0.27224-0.016137 0.5258-0.023195 0.74496-0.023195m0.26536 1.8864c-0.13464 0-0.33808 0-0.59165 0.01613-0.24177 0-0.43342 0.0081-0.57199 0.03529v3.5127h0.95626c0.75282 0 1.317-0.14216 1.7002-0.40935 0.38034-0.27928 0.57199-0.75215 0.57199-1.4176 0-0.63419-0.19165-1.0788-0.57199-1.339-0.36462-0.26416-0.86781-0.39826-1.4939-0.39826" style="fill:#fff"/>
 <path d="m47.999 57.615c0 0.65086-0.12132 1.191-0.36394 1.635-0.24651 0.42934-0.58037 0.77339-1.0006 1.0449-0.41732 0.2529-0.91326 0.4362-1.4897 0.55186-0.56096 0.10684-1.1714 0.15291-1.8314 0.15291-0.51923 0-1.0656-0.022545-1.6344-0.080378-0.56484-0.049991-1.1258-0.12253-1.679-0.22937v-10.437c0.45906-0.06469 0.94432-0.12253 1.4897-0.17252 0.53864-0.057833 1.0656-0.080378 1.5965-0.080378 0.90258 0 1.6266 0.08038 2.1953 0.2529 0.56096 0.16468 1.0084 0.38719 1.3267 0.66655 0.3261 0.26466 0.5464 0.56657 0.65995 0.89592 0.11355 0.33719 0.17081 0.67439 0.17081 1.0106 0 0.50971-0.13684 0.96061-0.42509 1.3556-0.26495 0.39405-0.63278 0.7087-1.0957 0.93807 0.80359 0.26074 1.3568 0.6244 1.6344 1.0763 0.30377 0.45188 0.44741 0.92631 0.44741 1.4203m-5.63-1.4546v2.9181c0.17081 0.02647 0.34842 0.04215 0.5464 0.04999 0.2009 0.01568 0.39791 0.01568 0.59105 0.01568 0.26883 0 0.53864-0.01568 0.79194-0.04999 0.25816-0.04607 0.4775-0.12253 0.67451-0.21859 0.2009-0.12645 0.37171-0.27936 0.50467-0.47835 0.12132-0.20683 0.18537-0.46756 0.18537-0.78123 0-0.51658-0.18537-0.88808-0.5532-1.1106-0.36395-0.22937-0.85309-0.34504-1.4635-0.34504h-1.2772m0.92879-1.7732c0.59881 0 1.0579-0.11468 1.3646-0.34504 0.31057-0.24898 0.46585-0.57833 0.46585-0.9959 0-0.25682-0.0495-0.45188-0.14073-0.60087-0.09123-0.16468-0.21254-0.2872-0.36783-0.36758-0.1514-0.09214-0.33386-0.14899-0.53476-0.17252-0.20478-0.03431-0.41732-0.04999-0.63666-0.04999-0.17858 0-0.36395 0-0.56096 0.01568-0.18537 0.0078-0.36394 0.02255-0.51923 0.04999v2.4662h0.92879" style="fill:#fff"/>
 <path d="m42 26.417c0 7.3333-7.2727 15.583-10 15.583-2.7273 0-10-8.576-10-15.583 0-4.226 3.3941-6.4167 10-6.4167 6.6059 0 10 2.214 10 6.4167z" style="fill:#ffffff;paint-order:normal;stroke-width:.91287"/>
</svg>
