<svg version="1.1" viewBox="0 0 64 64" xmlns="http://www.w3.org/2000/svg">
 <path d="m10.7 0c-1.38 0-2.67 1.36-2.67 2.79v58.4c0 1.36 1.38 2.79 2.67 2.79h42.7c1.3 0 2.67-1.43 2.67-2.79v-43.2l-18-18" style="fill:#35a14c"/>
 <path d="m42 18 14 14v-14z" style="fill-opacity:.196"/>
 <path d="m38 0 18 18h-15.2c-1.35 0-2.76-1.43-2.76-2.77" style="fill-opacity:.392;fill:#fff"/>
 <path d="m8 48v13.3c0 1.3 1.38 2.66 2.66 2.66h42.7c1.29 0 2.66-1.37 2.66-2.66v-13.3" style="fill-opacity:.196"/>
 <path d="m22.9 62q-2.37 0-3.62-1.43t-1.25-4.07q0-1.31.38-2.33t1.05-1.72q.688-.715 1.61-1.07.941-.375 2.04-.375.597 0 1.07.102.489.085.851.204t.597.255q.253.136.38.204l-.579 1.67q-.416-.255-1.01-.426-.579-.187-1.34-.187-.525 0-1.03.187-.489.17-.887.596-.38.409-.633 1.11-.235.698-.235 1.74 0 1.8.652 2.78.67.954 2.17.954.869 0 1.43-.187.579-.187.923-.375l.561 1.65q-.471.272-1.28.511-.796.221-1.85.221" style="fill:#fff"/>
 <path d="m30.9 51q.975 0 1.77.211t1.36.65.864 1.12q.313.668.313 1.58 0 .949-.405 1.72t-1.34 1.18q.313.457.662 1.02.349.545.68 1.16.331.597.625 1.21.313.597.533 1.14h-2.37q-.423-1.05-.993-2.02-.552-.984-1.2-1.99h-1.18v4.01h-2.26v-10.7q.331-.07.717-.123.405-.07.809-.088.405-.035.772-.053.368-.018.644-.018zm2 3.55q0-.861-.552-1.26t-1.45-.404q-.129 0-.313.018-.184 0-.368.035v3.27h.497q1.16 0 1.67-.422.515-.439.515-1.23z" style="fill:#fff"/>
 <g transform="matrix(.801 0 0 .8 12.8 12.8)" style="fill:#fff">
  <g style="fill:#fff">
   <path d="m27.1 9.64-3.61 10.2 14.2-2.36c-2.1-3.99-5.98-6.93-10.6-7.79" style="fill:#fff"/>
   <path d="m38.2 19.4-10.7 1.99 9.2 11c2.46-3.8 3.09-8.59 1.53-13" style="fill:#fff"/>
   <path d="m35.1 33.8-7.12-8.16-5.05 13.3c4.57.195 9.09-1.66 12.2-5.18" style="fill:#fff"/>
   <path d="m20.9 38.4 3.62-10.2-14.2 2.36c2.11 4 6 6.93 10.6 7.79" style="fill:#fff"/>
   <path d="m9.85 28.6 10.7-1.99-9.2-11c-2.45 3.8-3.09 8.59-1.53 13" style="fill:#fff"/>
   <path d="m12.9 14.2 7.12 8.16 5.05-13.3c-4.56-.195-9.09 1.66-12.2 5.18" style="fill:#fff"/>
  </g>
 </g>
 <g transform="matrix(1.01 0 0 .994 -.542 0)" style="fill:#ffffff" aria-label="3">
  <path d="m41 62.6q-.42 0-.887-.0622-.467-.0467-.903-.14-.436-.0934-.794-.202t-.56-.202l.451-1.93q.405.171 1.03.374.638.187 1.57.187 1.07 0 1.57-.405.498-.405.498-1.09 0-.42-.187-.7-.171-.296-.482-.467-.311-.187-.747-.249-.42-.0778-.903-.0778h-.903v-1.87h1.03q.342 0 .654-.0622.327-.0622.576-.202.249-.156.389-.405.156-.265.156-.654 0-.296-.125-.514-.125-.218-.327-.358-.187-.14-.451-.202-.249-.0778-.514-.0778-.669 0-1.25.202-.56.202-1.03.498l-.825-1.7q.249-.156.576-.327.342-.171.747-.311.405-.14.856-.233.467-.0934.98-.0934.949 0 1.63.233.7.218 1.15.638.451.405.669.965.218.545.218 1.2 0 .638-.358 1.25-.358.591-.965.903.84.342 1.29 1.03.467.669.467 1.62 0 .747-.249 1.39-.249.623-.778 1.09-.529.451-1.35.716-.809.249-1.93.249z" style="fill:#ffffff"/>
 </g>
</svg>
