<svg version="1.1" viewBox="0 0 64 64" xmlns="http://www.w3.org/2000/svg">
 <path d="m10.7 0c-1.38 0-2.67 1.36-2.67 2.79v58.4c0 1.36 1.38 2.79 2.67 2.79h42.7c1.3 0 2.67-1.43 2.67-2.79v-43.2l-18-18" style="fill:#35a14c"/>
 <path d="m42 18 14 14v-14z" style="fill-opacity:.196"/>
 <path d="m38 0 18 18h-15.2c-1.35 0-2.76-1.43-2.76-2.77" style="fill-opacity:.392;fill:#fff"/>
 <path d="m8 48v13.3c0 1.3 1.38 2.66 2.66 2.66h42.7c1.29 0 2.66-1.37 2.66-2.66v-13.3" style="fill-opacity:.196"/>
 <path d="m31.9 51q.975 0 1.77.211t1.36.65.864 1.12q.313.668.313 1.58 0 .949-.405 1.72t-1.34 1.18q.313.457.662 1.02.349.545.68 1.16.331.597.625 1.21.313.597.533 1.14h-2.37q-.423-1.05-.993-2.02-.552-.984-1.2-1.99h-1.18v4.01h-2.26v-10.7q.331-.07.717-.123.405-.07.809-.088.405-.035.772-.053.368-.018.644-.018m2 3.55q0-.861-.552-1.26t-1.45-.404q-.129 0-.313.018-.184 0-.368.035v3.27h.497q1.16 0 1.67-.422.515-.439.515-1.23z" style="fill:#ffffff"/>
 <path d="m43.2 54.9q.0834.338.251.835.168.498.356 1.1.209.604.439 1.3.251.693.482 1.42 0-.924-.0211-1.97-.0211-1.07-.0422-2.17t-.0422-2.22q-.0211-1.14-.0211-2.19h2.39q-.0623 1.35-.126 2.79-.0623 1.42-.147 2.84-.0834 1.4-.209 2.77-.105 1.37-.251 2.6h-2.13q-.46-1.12-.921-2.4-.46-1.3-.921-2.47-.46 1.12-.963 2.44t-.921 2.44h-2.13q-.168-1.23-.294-2.6-.126-1.39-.23-2.79-.0834-1.42-.147-2.84-.0623-1.44-.105-2.77h2.39q-.0211 1.05-.0422 2.17t-.0422 2.24q-.0211 1.1-.0422 2.17-.0211 1.05-.0211 1.97.188-.569.418-1.24.251-.675.46-1.33.23-.658.418-1.21.188-.551.294-.871h1.88z" style="fill:#ffffff"/>
 <g transform="matrix(.801 0 0 .8 12.8 12.8)" style="fill:#fff">
  <g style="fill:#fff">
   <path d="m27.1 9.64-3.61 10.2 14.2-2.36c-2.1-3.99-5.98-6.93-10.6-7.79" style="fill:#fff"/>
   <path d="m38.2 19.4-10.7 1.99 9.2 11c2.46-3.8 3.09-8.59 1.53-13" style="fill:#fff"/>
   <path d="m35.1 33.8-7.12-8.16-5.05 13.3c4.57.195 9.09-1.66 12.2-5.18" style="fill:#fff"/>
   <path d="m20.9 38.4 3.62-10.2-14.2 2.36c2.11 4 6 6.93 10.6 7.79" style="fill:#fff"/>
   <path d="m9.85 28.6 10.7-1.99-9.2-11c-2.45 3.8-3.09 8.59-1.53 13" style="fill:#fff"/>
   <path d="m12.9 14.2 7.12 8.16 5.05-13.3c-4.56-.195-9.09 1.66-12.2 5.18" style="fill:#fff"/>
  </g>
 </g>
 <g transform="matrix(.958 0 0 1.01 1.6 0)" style="fill:#ffffff;stroke-width:1.02" aria-label="N">
  <path d="m24.4 61.6q-1.06-1.88-2.29-3.7-1.23-1.83-2.62-3.45v7.16h-2.43v-10.9h2q.52.52 1.15 1.28.631.757 1.28 1.62.662.851 1.31 1.78.646.914 1.21 1.77v-6.45h2.44v10.9z" style="fill:#ffffff;stroke-width:1.02"/>
 </g>
</svg>
