<svg version="1.1" viewBox="0 0 64 64" xmlns="http://www.w3.org/2000/svg">
 <path d="m10.672 0c-1.375 0-2.672 1.355-2.672 2.789v58.42c0 1.355 1.375 2.789 2.672 2.789h42.656c1.297 0 2.672-1.434 2.672-2.789v-43.21l-18-18" style="fill:#37a34d"/>
 <path d="m42 18 14 14v-14" style="fill-opacity:.196"/>
 <path d="m38 0 17.984 18h-15.227c-1.348 0-2.758-1.426-2.758-2.773" style="fill-opacity:.392;fill:#fff"/>
 <path d="m23.289 22c-0.703 0.066-1.305 0.813-1.289 1.605v16.828c8e-3 0.828 0.668 1.574 1.406 1.566h17.223c0.727-0.016 1.363-0.746 1.371-1.566v-16.828c0.016-0.836-0.629-1.598-1.371-1.605m-16.629 2h16v11.402l-4.703-5.316-1.18 1.133-1.801 1.641-1.102-1.098-2.828-3.824-4.387 5.66" style="fill:#fff"/>
 <path d="m8 48v13.336c0 1.297 1.375 2.664 2.664 2.664h42.672c1.289 0 2.664-1.367 2.664-2.664v-13.336" style="fill-opacity:.196"/>
 <path d="m34 52v1.5h2v6h-2v1.5h6v-1.5h-2v-6h2v-1.5zm8 0v9h2v-4h3l2e-3 -1.5h-3.002v-2h4v-1.5z" style="fill:#fff;stroke-width:.68154"/>
 <path d="m26 52v9h6v-1.5h-4v-2h3v-2h-3v-2h4v-1.5z" style="fill:#fff"/>
 <path d="m17 52v9h2v-3.5h3v3.5h2v-9h-2v3.5h-3v-3.5z" style="fill:#fff"/>
</svg>
