<svg version="1.1" viewBox="0 0 64 64" xmlns="http://www.w3.org/2000/svg">
 <path d="m10.672 0c-1.375 0-2.672 1.355-2.672 2.789v58.42c0 1.355 1.375 2.789 2.672 2.789h42.656c1.297 0 2.672-1.434 2.672-2.789v-43.21l-18-18" style="fill:#a60a3f"/>
 <path d="m42 18 14 14v-14" style="fill-opacity:.196"/>
 <path d="m38 0 17.984 18h-15.227c-1.348 0-2.758-1.426-2.758-2.773" style="fill-opacity:.392;fill:#fff"/>
 <path d="m20 26c-2 2.496-4 6.0277-4 10 0 4.5345 1.5984 8.7696 4.1953 12h24.762c1.0888-1.1786 2.1095-2.5054 3.043-4l-4.9258-2.7578c-2.0122 3.1058-5.256 5.7714-8.0742 5.7578-4.9999-0.0242-7-3.9572-7-11h20c-6e-6 -3.9723-1.2926-7.2705-3.4414-10zm13 1c2.7614 0 5 2.2386 5 5h-10c0-2.7614 2.2386-5 5-5z" style="fill:#fff"/>
</svg>
