<svg version="1.1" viewBox="0 0 64 64" xmlns="http://www.w3.org/2000/svg">
 <path d="m10.672 2e-3c-1.375 0-2.672 1.353-2.672 2.787v58.42c0 1.353 1.375 2.787 2.672 2.787h42.654c1.297 0 2.672-1.434 2.672-2.787l2e-3 -43.21-18-18z" style="fill:#37314a"/>
 <path d="m41.999 18 14 14v-14z" style="fill-opacity:.196"/>
 <path d="m38 2e-3 17.983 17.999h-15.226c-1.346 0-2.757-1.427-2.757-2.773z" style="fill-opacity:.392;fill:#fff"/>
 <path d="m18 33c0 3.6571 2.8334 5 5 5-3.5-5.5385 0.72499-11.059 5-13v27h6l12-30h-4l-8 23v-23h-3.2c-5.8333 0-12.8 5.2857-12.8 11z" style="fill:#fff"/>
</svg>
