<svg version="1.1" viewBox="0 0 64 64" xmlns="http://www.w3.org/2000/svg">
 <path d="m10.667 0c-1.371 0-2.667 1.352-2.667 2.783v58.43c0 1.352 1.371 2.783 2.667 2.783h42.667c1.295 0 2.667-1.431 2.667-2.783v-43.22l-17-18" style="fill:#bd75a9"/>
 <path d="m39-0.087 17 18.09h-14.385c-1.27 0-2.615-1.431-2.615-2.783v-15.304z" style="fill-opacity:.392;fill:#fff"/>
 <path d="m42 18 14 14v-14z" style="fill-opacity:.196"/>
 <path d="m28 21c-4.432 0-8 3.568-8 8v12c0 4.432 3.568 8 8 8v9l8-9c4.432 0 8-3.568 8-8v-12c0-4.432-3.568-8-8-8zm4 4h4l4 4h-4v12c0 2.2091-2.2386 4-5 4s-5-1.7909-5-4 2.2386-4 5-4h1z" style="fill:#fff"/>
</svg>
