<svg version="1.1" viewBox="0 0 64 64" xmlns="http://www.w3.org/2000/svg">
 <path d="m10.672 0c-1.375 0-2.672 1.355-2.672 2.789v58.42c0 1.355 1.375 2.789 2.672 2.789h42.656c1.297 0 2.672-1.434 2.672-2.789v-43.21l-18-18" style="fill:#dda06a"/>
 <path d="m42 18 14 14v-14z" style="fill-opacity:.196"/>
 <path d="m38 0 17.984 18h-15.227c-1.348 0-2.758-1.426-2.758-2.773" style="fill-opacity:.392;fill:#fff"/>
 <path d="m31.1 18.813c-2.672 0.852-0.328 4.828-4.156 6.773-4.367 2.227-6.539-3.391-9.164 0.625-2.625 4.01 3.617 3.391 3.445 8.109-0.18 4.719-6.359 3.719-4.04 7.883 2.32 4.164 4.898-1.297 9.09 1.195 4.195 2.492 0.18 7.109 5.125 7.266 4.945 0.156 1.273-4.695 5.648-6.922 4.367-2.227 6.539 3.398 9.164-0.617 2.625-4.01-3.617-3.391-3.445-8.109 0.18-4.719 6.359-3.719 4.04-7.883-2.32-4.172-4.898 1.297-9.09-1.195-4.195-2.492-0.18-7.109-5.125-7.266-0.617-0.016-1.109 0.016-1.492 0.141zm0.047 12.02c2.211-0.445 4.375 0.906 4.844 3.02 0.469 2.117-0.938 4.203-3.141 4.656-2.211 0.445-4.375-0.906-4.844-3.02-0.469-2.117 0.938-4.203 3.141-4.656z" style="fill:#fff"/>
</svg>
