<svg version="1.1" viewBox="0 0 64 64" xmlns="http://www.w3.org/2000/svg">
 <path d="m10.672 0c-1.375 0-2.672 1.355-2.672 2.789v58.42c0 1.355 1.375 2.789 2.672 2.789h42.656c1.297 0 2.672-1.434 2.672-2.789v-43.21l-18-18" style="fill:#efc743"/>
 <path d="m42 18 14 14v-14" style="fill-opacity:.196"/>
 <path d="m38 0 17.984 18h-15.227c-1.348 0-2.758-1.426-2.758-2.773" style="fill-opacity:.392;fill:#fff"/>
 <path d="m31.049 47.98c-2.2606-0.19454-4.5055-0.83474-6.4457-1.8382-1.7608-0.9106-3.1053-2.0441-3.9646-3.3423-1.4722-3.1493-1.7183-4.3693-3.1758-8.4569-0.04603-0.11468-1.3078-5.3346-1.2949-5.3568 0.75125 0.30234 1.3196 0.54282 2.1249 0.87819l0.37959-0.36988c0.53252-0.51889 1.0839-0.92031 1.8751-1.3652l0.24142-0.13575c0.46263-0.97093 0.94704-1.9634 1.4451-2.8999 0.83247 0.62535 1.4766 1.1331 2.3474 1.809 0.02013 0.01538 0.26918-0.03109 0.6806-0.12693 1.7304-0.40318 2.6516-0.53921 3.8108-0.56269l0.62631-0.01266c0.76418-0.73484 1.5298-1.4684 2.2972-2.1998 0.81236 0.77167 1.4268 1.3643 2.2972 2.1998l0.6263 0.01266c1.1497 0.0233 2.0648 0.15657 3.7224 0.54215 0.35231 0.08199 0.66458 0.15375 0.69394 0.15956 0.90568-0.61665 1.4541-1.0829 2.4396-1.8332 0.51991 1.0169 0.89164 1.8041 1.4272 2.9103l0.1751 0.09725c0.80088 0.44468 1.4117 0.88672 1.9429 1.406l0.3799 0.37137c0.75438-0.31453 1.4734-0.61338 2.1315-0.88683-0.46529 1.9075-0.90674 3.8124-1.2939 5.3368-1.0011 2.7719-1.7361 5.0243-2.844 7.9231-1.0211 1.8945-3.0528 3.4982-5.808 4.5848-1.4039 0.55367-2.873 0.92075-4.4222 1.105-0.54443 0.0648-1.9192 0.09386-2.4155 0.05112zm0.94826-11.084c2.1495 1.1896 3.8253 2.1496 6.1018 3.424 1.2182-0.28263 1.8504-0.50633 3.3277-0.947 0.83188-1.0456 1.6729-2.11 2.337-3.2416-0.08787-0.2588-0.36971-0.80565-0.56419-1.0949-1.1149-1.6581-3.3126-3.0851-6.0048-3.899-2.6444-0.79947-5.6542-0.96351-8.4946-0.46294-3.7084 0.65354-6.8195 2.4433-8.0925 4.6555-0.15782 0.27426-0.34263 0.66876-0.3946 0.84231 0.65416 1.1768 1.5143 2.1133 2.3517 3.1987 1.0981 0.33176 2.2019 0.65871 3.3063 0.96054 2.145-1.1979 3.9411-2.2231 6.1262-3.4357z" style="fill:#fff"/>
</svg>
