<svg xmlns="http://www.w3.org/2000/svg" viewBox="0 0 48 48">
 <rect width="10" height="4" y="23.998" x="8" style="fill:#fffdf0;fill-opacity:1;stroke:none"/>
 <path d="m 17 22.998 -1 2 -10 0 0 1 11 0 1 -2 8 0 c 0.5 0 1 0.5 1 1 l 0 -1 c 0 -0.5 -0.5 -1 -1 -1 z" style="fill:#000;opacity:0.015;fill-opacity:1;stroke:none"/>
 <rect width="21" ry="2.344" rx="2.283" height="15" y="22.998" x="6" style="fill:#5d4037;fill-opacity:1;stroke:none"/>
 <path d="M 8.283,22.998 C 7.018,22.998 6,24.113 6,25.498 l 0,1 c 0,-1.385 1.018,-2.5 2.283,-2.5 l 16.435,0 c 1.265,0 2.283,1.115 2.283,2.5 l 0,-1 c 0,-1.385 -1.018,-2.5 -2.283,-2.5 l -16.435,0 z" style="fill:#fff;opacity:0.1;fill-opacity:1;stroke:none"/>
 <path d="m 8.283 26.668 3.652 0 c 5.02 -0.472 4.109 -5.667 7.304 -5.667 l 5.478 0 c 1.265 0 2.283 1.053 2.283 2.361 l 0 12.278 c 0 1.308 -1.018 2.361 -2.283 2.361 l -16.435 0 c -1.265 0 -2.283 -1.053 -2.283 -2.361 l 0 -6.611 c 0 -1.417 0.913 -2.361 2.283 -2.361 z" style="fill:#8d6e63;fill-opacity:1;stroke:none"/>
 <path d="m 6 34.498 0 1 c 0 1.385 1.018 2.5 2.283 2.5 l 16.435 0 c 1.265 0 2.283 -1.115 2.283 -2.5 l 0 -1 c 0 1.385 -1.018 2.5 -2.283 2.5 l -16.435 0 c -1.265 0 -2.283 -1.115 -2.283 -2.5 z" style="fill:#000;opacity:0.075;fill-opacity:1;stroke:none"/>
 <rect width="10" height="4" y="10.998" x="23" style="fill:#fffdf0;fill-opacity:1;stroke:none"/>
 <path d="m 32 9.998 -1 2 -10 0 0 1 11 0 1 -2 8 0 c 0.5 0 1 0.5 1 1 l 0 -1 c 0 -0.5 -0.5 -1 -1 -1 z" style="fill:#000;opacity:0.03;fill-opacity:1;stroke:none"/>
 <rect width="21" ry="2.344" rx="2.283" height="15" y="9.998" x="21" style="fill:#5d4037;fill-opacity:1;stroke:none"/>
 <path d="m 23.283 9.998 c -1.265 0 -2.283 1.115 -2.283 2.5 l 0 1 c 0 -1.385 1.018 -2.5 2.283 -2.5 l 16.435 0 c 1.265 0 2.283 1.115 2.283 2.5 l 0 -1 c 0 -1.385 -1.018 -2.5 -2.283 -2.5 l -16.435 0 z" style="fill:#fff;opacity:0.2;fill-opacity:1;stroke:none"/>
 <path d="m 19.238 21 c -1.331 0 -1.951 0.91 -2.582 1.996 l -8.373 0 c -1.15 0 -2.088 0.867 -2.25 2 l -0.033 0 0 1 0 0.5 0 2.508 c 0 0.008 -0.002 0.015 -0.002 0.023 l 0 6.611 c 0 0.166 0.018 0.327 0.049 0.482 0 0.001 0 0.003 0 0.004 0.03 0.15 0.074 0.295 0.131 0.434 0.111 0.273 0.272 0.516 0.469 0.725 0.007 0.008 0.014 0.02 0.021 0.027 0.103 0.106 0.215 0.203 0.336 0.287 0.364 0.254 0.803 0.402 1.277 0.402 l 16.436 0 c 0.474 0 0.915 -0.148 1.279 -0.402 0.121 -0.084 0.233 -0.183 0.336 -0.289 c 0.412 -0.424 0.668 -1.01 0.668 -1.656 l 0 -0.014 0 -0.121 c 0 -0.007 0.002 -0.014 0.002 -0.021 l 0 -1 c 0 0.007 -0.002 0.014 -0.002 0.021 l 0 -8.04 c 0 0.007 0.002 0.014 0.002 0.021 l 0 -1 c 0 -0.007 -0.002 -0.014 -0.002 -0.021 l 0 -0.135 0 -0.344 0 -1 0 -0.637 c 0 -1.308 -1.018 -2.359 -2.283 -2.359 l -5.479 0 z" style="fill:#fff;opacity:0.5;fill-opacity:1;stroke:none"/>
 <path d="m 23.283 13.668 3.652 0 c 5.02 -0.472 4.109 -5.667 7.304 -5.667 l 5.478 0 c 1.265 0 2.283 1.053 2.283 2.361 l 0 12.278 c 0 1.308 -1.018 2.361 -2.283 2.361 l -16.435 0 c -1.265 0 -2.283 -1.053 -2.283 -2.361 l 0 -6.611 c 0 -1.417 0.913 -2.361 2.283 -2.361 z" style="fill:#8d6e63;fill-opacity:1;stroke:none"/>
 <path d="m 21 21.498 0 1 c 0 1.385 1.018 2.5 2.283 2.5 l 16.435 0 c 1.265 0 2.283 -1.115 2.283 -2.5 l 0 -1 c 0 1.385 -1.018 2.5 -2.283 2.5 l -16.435 0 c -1.265 0 -2.283 -1.115 -2.283 -2.5 z" style="fill:#000;opacity:0.15;fill-opacity:1;stroke:none"/>
 <path d="m 42 25.998 -8 0 0 -8 -4 0 0 8 -8 0 0 4 8 0 0 8 4 0 0 -8 8 0 z" style="fill:#4caf50;fill-opacity:1"/>
</svg>
