/* XPM */
static char * right_active_xpm[] = {
"6 24 3 1",
" 	c None",
"#	c #C0C0C0 s active_color_2",
"@	c #C0C0FF s active_color_1",
"####@@",
"####@@",
"####@@",
"####@@",
"####@@",
"####@@",
"####@@",
"####@@",
"####@@",
"####@@",
"####@@",
"####@@",
"####@@",
"####@@",
"####@@",
"####@@",
"####@@",
"####@@",
"####@@",
"####@@",
"####@@",
"####@@",
"####@@",
"####@@"};
