/* XPM */
static char * maximize_inactive_xpm[] = {
"24 19 2 1",
" 	c None",
".	c #C0C0FF s inactive_color_1",
"........................",
"........................",
"........................",
"........................",
"........................",
"........................",
"........................",
"........................",
"........................",
"........................",
"........................",
"........................",
"........................",
"........................",
"........................",
"........................",
"........................",
"........................",
"                        "};
