/* XPM */
static char * maximize_toggled_active_xpm[] = {
"24 19 2 1",
" 	c None",
".	c #C0C0FF s active_color_1",
"........................",
"........................",
"........................",
"........................",
"........................",
"........................",
"........................",
"........................",
"........................",
"........................",
"........................",
"........................",
"........................",
"........................",
"........................",
"........................",
"........................",
"........................",
"                        "};
