/* XPM */
static char * right_inactive_xpm[] = {
"5 24 5 1",
" 	c None",
"+	c #E0E0FF s inactive_hilight_1",
"@	c #A0A0FF s inactive_shadow_1",
"$	c #B0B0B0 s inactive_mid_2",
"#	c #C0C0C0 s inactive_color_2",
"###+@",
"###+@",
"###+@",
"###+@",
"###+@",
"###+@",
"###+@",
"###+@",
"###+@",
"###+@",
"###+@",
"###+@",
"###+@",
"###+@",
"###+@",
"###+@",
"###+@",
"###+@",
"###+@",
"###+@",
"###+@",
"###+@",
"###+@",
"###+@"};
