/* XPM */
static char * right_active_xpm[] = {
"5 24 5 1",
" 	c None",
"+	c #E0E0FF s active_hilight_1",
"@	c #A0A0FF s active_shadow_1",
"$	c #B0B0B0 s active_mid_2",
"#	c #C0C0C0 s active_color_2",
"###+@",
"###+@",
"###+@",
"###+@",
"###+@",
"###+@",
"###+@",
"###+@",
"###+@",
"###+@",
"###+@",
"###+@",
"###+@",
"###+@",
"###+@",
"###+@",
"###+@",
"###+@",
"###+@",
"###+@",
"###+@",
"###+@",
"###+@",
"###+@"};
