/* XPM */
static char * shade_toggled_pressed_xpm[] = {
"24 19 2 1",
" 	c None",
".	c #C0C0FF s active_color_1",
"........................",
"........................",
"........................",
"........................",
"........................",
"........................",
"........................",
"........................",
"........................",
"........................",
"........................",
"........................",
"........................",
"........................",
"........................",
"........................",
"........................",
"........................",
"                        "};
