/* XPM */
static char * title_3_inactive_xpm[] = {
"4 20 4 1",
" 	c None",
".	c #A0A0FF s inactive_shadow_1",
"+	c #D0D0FF s inactive_hilight_1",
"@	c #C0C0FF s inactive_color_1",
"....",
"++++",
"@@@@",
"@@@@",
"@@@@",
"@@@@",
"@@@@",
"@@@@",
"@@@@",
"@@@@",
"@@@@",
"@@@@",
"@@@@",
"@@@@",
"@@@@",
"@@@@",
"@@@@",
"@@@@",
"@@@@",
"@@@@"};
