/* XPM */
static char * title_5_active_xpm[] = {
"4 19 4 1",
" 	c None",
".	c #A0A0FF s active_shadow_1",
"+	c #D0D0FF s active_hilight_1",
"@	c #C0C0FF s active_color_1",
"....",
"++++",
"@@@@",
"@@@@",
"@@@@",
"@@@@",
"@@@@",
"@@@@",
"@@@@",
"@@@@",
"@@@@",
"@@@@",
"@@@@",
"@@@@",
"@@@@",
"@@@@",
"@@@@",
"@@@@",
"@@@@"};
