/* XPM */
static char * top_right_inactive_xpm[] = {
"8 19 5 1",
" 	c None",
".	c #A0A0FF s inactive_shadow_1",
"+	c #D0D0FF s inactive_hilight_1",
"@	c #C0C0FF s inactive_color_1",
"#	c #B0B0FF s inactive_mid_1",
"......  ",
"++++++. ",
"@@@@@@+.",
"@@@@@@+.",
"@@@@@@+.",
"@@@@@@+.",
"@@@@@@+.",
"@@@@@@+.",
"@@@@@@+.",
"@@@@@@+.",
"@@@@@@+.",
"@@@@@@+.",
"@@@@@@+.",
"@@@@@@+.",
"@@@@@@+.",
"@@@@@@+.",
"@@@@@@+.",
"@@@@@@+.",
"@@@@@@+."};
