<?xml version="1.0" encoding="UTF-8" standalone="no"?>
<!-- Created with Inkscape (http://www.inkscape.org/) -->

<svg
   xmlns:dc="http://purl.org/dc/elements/1.1/"
   xmlns:cc="http://creativecommons.org/ns#"
   xmlns:rdf="http://www.w3.org/1999/02/22-rdf-syntax-ns#"
   xmlns:svg="http://www.w3.org/2000/svg"
   xmlns="http://www.w3.org/2000/svg"
   xmlns:xlink="http://www.w3.org/1999/xlink"
   xmlns:sodipodi="http://sodipodi.sourceforge.net/DTD/sodipodi-0.dtd"
   xmlns:inkscape="http://www.inkscape.org/namespaces/inkscape"
   width="16"
   height="16"
   id="svg2"
   sodipodi:version="0.32"
   inkscape:version="0.47 r22583"
   version="1.0"
   sodipodi:docname="xfce-wm-unstick.svg"
   inkscape:output_extension="org.inkscape.output.svg.inkscape">
  <metadata
     id="metadata7">
    <rdf:RDF>
      <cc:Work
         rdf:about="">
        <dc:format>image/svg+xml</dc:format>
        <dc:type
           rdf:resource="http://purl.org/dc/dcmitype/StillImage" />
        <dc:title>Title</dc:title>
        <dc:creator>
          <cc:Agent>
            <dc:title>Olivier Fourdan</dc:title>
          </cc:Agent>
        </dc:creator>
      </cc:Work>
    </rdf:RDF>
  </metadata>
  <g
     inkscape:groupmode="layer"
     id="g20"
     inkscape:label="Button">
    <g
       style="display:inline"
       id="g1625"
       transform="translate(2,3)">
      <path
         id="path1412"
         d="M 6,2 C 3.792,2 2,3.792 2,6 C 2,8.208 3.792,10 6,10 C 8.208,10 10,8.208 10,6 C 10,3.792 8.208,2 6,2 z M 6,4 C 7.104,4 8,4.896 8,6 C 8,7.104 7.104,8 6,8 C 4.896,8 4,7.104 4,6 C 4,4.896 4.896,4 6,4 z "
         style="opacity:0.33;fill:#ffffff;fill-opacity:1;stroke:#ffffff;stroke-width:2;stroke-linecap:round;stroke-linejoin:round;stroke-miterlimit:4;stroke-dasharray:none;stroke-opacity:1" />
      <path
         id="path2247"
         d="M 6,2 C 3.792,2 2,3.792 2,6 C 2,8.208 3.792,10 6,10 C 8.208,10 10,8.208 10,6 C 10,3.792 8.208,2 6,2 z M 6,4 C 7.104,4 8,4.896 8,6 C 8,7.104 7.104,8 6,8 C 4.896,8 4,7.104 4,6 C 4,4.896 4.896,4 6,4 z "
         style="opacity:1;fill:#000000;fill-opacity:1;stroke:#000000;stroke-width:0;stroke-linecap:round;stroke-linejoin:round;stroke-miterlimit:4;stroke-dasharray:none;stroke-opacity:1" />
      <path
         d="M 7 6 A 1 1 0 1 1  5,6 A 1 1 0 1 1  7 6 z"
         id="path2282"
         style="opacity:1;fill:#000000;fill-opacity:1;stroke:#000000;stroke-width:0;stroke-linecap:round;stroke-linejoin:round;stroke-miterlimit:4;stroke-dasharray:none;stroke-opacity:1"
         sodipodi:type="arc" />
    </g>
  </g>
</svg>
