<svg xmlns="http://www.w3.org/2000/svg" viewBox="0 0 22 22">
 <defs>
  <radialGradient r="24" cy="40.5" cx="24" gradientTransform="matrix(0.625,0,0,0.10416663,-4,1045.1435)" gradientUnits="userSpaceOnUse" id="radialGradient3265">
   <stop style="stop-color:#000;stop-opacity:1"/>
   <stop offset="1" style="stop-color:#000;stop-opacity:0.196"/>
  </radialGradient>
 </defs>
 <g transform="translate(0,-1030.3622)">
  <path d="m 11 1046.86 c -4.913 0 -9.264 0.391 -12 1 l 0 3 c 2.736 0.609 7.087 1 12 1 4.913 0 9.264 -0.391 12 -1 l 0 -3 c -2.736 -0.609 -7.087 -1 -12 -1 z" style="fill:url(#radialGradient3265);opacity:0.1;fill-opacity:1;stroke:none"/>
  <rect width="22" height="16" y="1034.36" rx="2.391" ry="2.5" style="fill:#5d4037;fill-opacity:1;stroke:none"/>
  <path d="m 2.391 1034.36 c -1.325 0 -2.391 1.115 -2.391 2.5 l 0 1 c 0 -1.385 1.067 -2.5 2.391 -2.5 l 17.217 0 c 1.325 0 2.391 1.115 2.391 2.5 l 0 -1 c 0 -1.385 -1.067 -2.5 -2.391 -2.5 l -17.217 0 z" style="fill:#fff;opacity:0.2;fill-opacity:1;stroke:none"/>
  <path d="m 2.391 1038.36 3.826 0 c 5.261 -0.5 4.304 -6 7.652 -6 l 5.739 0 c 1.325 0 2.391 1.115 2.391 2.5 l 0 13 c 0 1.385 -1.067 2.5 -2.391 2.5 l -17.217 0 c -1.325 0 -2.391 -1.115 -2.391 -2.5 l 0 -7 c 0 -1.5 0.957 -2.5 2.391 -2.5 z" style="fill:#8d6e63;fill-opacity:1;stroke:none"/>
  <path d="m 0 1046.86 0 1 c 0 1.385 1.067 2.5 2.391 2.5 l 17.217 0 c 1.325 0 2.391 -1.115 2.391 -2.5 l 0 -1 c 0 1.385 -1.067 2.5 -2.391 2.5 l -17.217 0 c -1.325 0 -2.391 -1.115 -2.391 -2.5 z" style="fill:#000;opacity:0.15;fill-opacity:1;stroke:none"/>
  <path d="M 4.344 11.594 A 1.896 1.896 0 0 0 2.594 13.469 A 1.896 1.896 0 0 0 2.75 14.281 L 2.594 14.281 L 2.594 14.313 A 1.354 1.354 0 0 0 1.5 15.656 A 1.354 1.354 0 0 0 2.594 16.969 L 2.594 17 L 2.719 17 L 2.938 17 L 7.594 17 L 7.813 17 L 8 17 L 8 16.969 A 1.354 1.354 0 0 0 9.09 15.656 A 1.354 1.354 0 0 0 8 14.313 L 8 14.281 L 7.719 14.281 A 1.354 1.354 0 0 0 8 13.469 A 1.354 1.354 0 0 0 6.656 12.13 A 1.354 1.354 0 0 0 5.969 12.313 A 1.896 1.896 0 0 0 4.469 11.594 A 1.896 1.896 0 0 0 4.344 11.594 z" transform="translate(0,1030.3622)" style="fill:#000;fill-opacity:0.098;stroke:none"/>
  <g transform="matrix(0.54166667,0,0,0.54166667,-0.66666667,478.49934)" style="fill:#fff8e1;opacity:1;fill-opacity:1">
   <path d="m 9 1045.86 a 2.5 2.5 0 0 1 -2.5 2.5 2.5 2.5 0 0 1 -2.5 -2.5 2.5 2.5 0 0 1 2.5 -2.5 2.5 2.5 0 0 1 2.5 2.5 z" style="stroke:none"/>
   <path d="m 13 1041.86 a 3.5 3.5 0 0 1 -3.5 3.5 3.5 3.5 0 0 1 -3.5 -3.5 3.5 3.5 0 0 1 3.5 -3.5 3.5 3.5 0 0 1 3.5 3.5 z" style="stroke:none"/>
   <path d="m 16 1041.86 a 2.5 2.5 0 0 1 -2.5 2.5 2.5 2.5 0 0 1 -2.5 -2.5 2.5 2.5 0 0 1 2.5 -2.5 2.5 2.5 0 0 1 2.5 2.5 z" style="stroke:none"/>
   <path d="m 18 1045.86 a 2.5 2.5 0 0 1 -2.5 2.5 2.5 2.5 0 0 1 -2.5 -2.5 2.5 2.5 0 0 1 2.5 -2.5 2.5 2.5 0 0 1 2.5 2.5 z" style="stroke:none"/>
   <path d="m 6 1043.36 10 0 0 5 -10 0 z" style="stroke:none"/>
  </g>
 </g>
</svg>
