<svg version="1.1" viewBox="0 0 22 22" xmlns="http://www.w3.org/2000/svg">
 <defs>
  <radialGradient id="radialGradient3053" cx="24" cy="40.5" r="24" gradientTransform="matrix(.625 0 0 .10417 -4 1045.1)" gradientUnits="userSpaceOnUse">
   <stop offset="0"/>
   <stop style="stop-opacity:.196" offset="1"/>
  </radialGradient>
 </defs>
 <g transform="translate(0 -1030.4)">
  <path d="m11 1046.9c-4.913 0-9.264 0.391-12 1v3c2.736 0.609 7.087 1 12 1s9.264-0.391 12-1v-3c-2.736-0.609-7.087-1-12-1z" style="fill:url(#radialGradient3053);opacity:.1"/>
  <rect y="1034.4" width="22" height="16" rx="2.391" ry="2.5" style="fill:#f57c00"/>
  <path d="m2.391 1034.4c-1.325 0-2.391 1.115-2.391 2.5v1c0-1.385 1.067-2.5 2.391-2.5h17.217c1.325 0 2.391 1.115 2.391 2.5v-1c0-1.385-1.067-2.5-2.391-2.5z" style="fill:#fff;opacity:.2"/>
  <path d="m2.391 1038.4h3.826c5.261-0.5 4.304-6 7.652-6h5.739c1.325 0 2.391 1.115 2.391 2.5v13c0 1.385-1.067 2.5-2.391 2.5h-17.217c-1.325 0-2.391-1.115-2.391-2.5v-7c0-1.5 0.957-2.5 2.391-2.5z" style="fill:#ffb300"/>
  <path d="m0 1046.9v1c0 1.385 1.067 2.5 2.391 2.5h17.217c1.325 0 2.391-1.115 2.391-2.5v-1c0 1.385-1.067 2.5-2.391 2.5h-17.217c-1.325 0-2.391-1.115-2.391-2.5z" style="opacity:.15"/>
  <path d="m6.6136 1048.3h-0.03182l-0.03182-0.032v-1c0-0.2258-0.03182-0.4194-0.12727-0.5807 0.73182-0.129 1.5273-0.5161 1.5273-1.9677 0-0.3871-0.12727-0.742-0.35-1.0323 0.06364-0.1935 0.09546-0.5484-0.06364-1l-0.09545-0.097s-0.06364-0.032-0.12727-0.032c-0.19091 0-0.47727 0.064-0.95455 0.3871-0.25454-0.032-0.54091-0.097-0.85909-0.097-0.31818 0-0.60455 0.032-0.89091 0.097-0.44545-0.2903-0.76364-0.3549-0.95454-0.3549-0.063636 0-0.095455 0.032-0.12727 0.032-0.031818 0-0.095455 0.064-0.095455 0.097-0.15909 0.4516-0.12727 0.8064-0.063636 1-0.22273 0.2903-0.35 0.6451-0.35 1.0322 0 1.4194 0.82727 1.8065 1.5273 1.9678-0.03182 0.064-0.063636 0.1613-0.095454 0.258-0.063636 0.032-0.15909 0.065-0.28636 0.065-0.12727 0-0.25455-0.032-0.35-0.1291l-0.031818-0.032c-0.031818-0.032-0.031818-0.064-0.063636-0.064l-0.063636-0.064c0-0.032-0.25455-0.4193-0.7-0.4516-0.15909 0-0.28636 0.064-0.31818 0.1613-0.063636 0.1613 0.12727 0.2903 0.22273 0.3549 0 0 0.19091 0.097 0.31818 0.4516 0.063636 0.2258 0.35 0.6451 1.0182 0.6451h0.22273v0.4516l-0.031818 0.032s-0.031818 0 0 0c-1.4318-0.5806-2.3864-1.9355-2.3864-3.4516 0-1.9678 1.5591-3.5484 3.5-3.5484 1.9409 0 3.5 1.5806 3.5 3.5484 0 1.5161-0.95454 2.871-2.3864 3.3548z" style="fill-opacity:.098;stroke-width:.32"/>
  <path d="m6.6136 1047.3h-0.03182l-0.03182-0.032v-1c0-0.2258-0.03182-0.4194-0.12727-0.5807 0.73182-0.129 1.5273-0.5161 1.5273-1.9677 0-0.3871-0.12727-0.742-0.35-1.0323 0.06364-0.1935 0.09546-0.5484-0.06364-1l-0.09545-0.097s-0.06364-0.032-0.12727-0.032c-0.19091 0-0.47727 0.064-0.95455 0.3871-0.25454-0.032-0.54091-0.097-0.85909-0.097-0.31818 0-0.60455 0.032-0.89091 0.097-0.44545-0.2903-0.76364-0.3549-0.95454-0.3549-0.063636 0-0.095455 0.032-0.12727 0.032-0.031818 0-0.095455 0.064-0.095455 0.097-0.15909 0.4516-0.12727 0.8064-0.063636 1-0.22273 0.2903-0.35 0.6451-0.35 1.0322 0 1.4194 0.82727 1.8065 1.5273 1.9678-0.03182 0.064-0.063636 0.1613-0.095454 0.258-0.063636 0.032-0.15909 0.065-0.28636 0.065-0.12727 0-0.25455-0.032-0.35-0.1291l-0.031818-0.032c-0.031818-0.032-0.031818-0.064-0.063636-0.064l-0.063636-0.064c0-0.032-0.25455-0.4193-0.7-0.4516-0.15909 0-0.28636 0.064-0.31818 0.1613-0.063636 0.1613 0.12727 0.2903 0.22273 0.3549 0 0 0.19091 0.097 0.31818 0.4516 0.063636 0.2258 0.35 0.6451 1.0182 0.6451h0.22273v0.4516l-0.031818 0.032s-0.031818 0 0 0c-1.4318-0.5806-2.3864-1.9355-2.3864-3.4516 0-1.9678 1.5591-3.5484 3.5-3.5484 1.9409 0 3.5 1.5806 3.5 3.5484 0 1.5161-0.95454 2.871-2.3864 3.3548z" style="fill:#fff8e1;stroke-width:.32037"/>
 </g>
</svg>
