<svg xmlns="http://www.w3.org/2000/svg" viewBox="0 0 22 22">
 <defs>
  <radialGradient r="24" cy="40.5" cx="24" gradientTransform="matrix(0.625,0,0,0.10416663,-4,1045.1435)" gradientUnits="userSpaceOnUse" id="radialGradient3053">
   <stop style="stop-color:#000;stop-opacity:1"/>
   <stop offset="1" style="stop-color:#000;stop-opacity:0.196"/>
  </radialGradient>
 </defs>
 <g transform="translate(0,-1030.3622)">
  <path d="m 11 1046.86 c -4.913 0 -9.264 0.391 -12 1 l 0 3 c 2.736 0.609 7.087 1 12 1 4.913 0 9.264 -0.391 12 -1 l 0 -3 c -2.736 -0.609 -7.087 -1 -12 -1 z" style="fill:url(#radialGradient3053);opacity:0.1;fill-opacity:1;stroke:none"/>
  <rect width="22" height="16" y="1034.36" rx="2.391" ry="2.5" style="fill:#388e3c;fill-opacity:1;stroke:none"/>
  <path d="m 2.391 1034.36 c -1.325 0 -2.391 1.115 -2.391 2.5 l 0 1 c 0 -1.385 1.067 -2.5 2.391 -2.5 l 17.217 0 c 1.325 0 2.391 1.115 2.391 2.5 l 0 -1 c 0 -1.385 -1.067 -2.5 -2.391 -2.5 l -17.217 0 z" style="fill:#fff;opacity:0.2;fill-opacity:1;stroke:none"/>
  <path d="m 2.391 1038.36 3.826 0 c 5.261 -0.5 4.304 -6 7.652 -6 l 5.739 0 c 1.325 0 2.391 1.115 2.391 2.5 l 0 13 c 0 1.385 -1.067 2.5 -2.391 2.5 l -17.217 0 c -1.325 0 -2.391 -1.115 -2.391 -2.5 l 0 -7 c 0 -1.5 0.957 -2.5 2.391 -2.5 z" style="fill:#66bb6a;fill-opacity:1;stroke:none"/>
  <path d="m 0 1046.86 0 1 c 0 1.385 1.067 2.5 2.391 2.5 l 17.217 0 c 1.325 0 2.391 -1.115 2.391 -2.5 l 0 -1 c 0 1.385 -1.067 2.5 -2.391 2.5 l -17.217 0 c -1.325 0 -2.391 -1.115 -2.391 -2.5 z" style="fill:#000;opacity:0.15;fill-opacity:1;stroke:none"/>
  <path d="m 2.656 1044.22 c -0.362 0 -0.656 0.29 -0.656 0.647 c 0 0.357 0.294 0.647 0.656 0.647 0.362 0 0.656 -0.29 0.656 -0.647 0 -0.357 -0.294 -0.647 -0.656 -0.647 z m 4.684 2.94 c -0.314 0.179 -0.421 0.574 -0.24 0.883 0.181 0.309 0.582 0.415 0.896 0.237 0.314 -0.179 0.421 -0.574 0.24 -0.883 -0.181 -0.309 -0.582 -0.415 -0.896 -0.237 z m -3.259 -2.293 c 0 -0.639 0.322 -1.204 0.815 -1.546 l -0.48 -0.792 c -0.574 0.378 -1 0.956 -1.179 1.634 0.207 0.167 0.34 0.42 0.34 0.705 0 0.284 -0.132 0.538 -0.34 0.704 0.177 0.677 0.604 1.255 1.179 1.634 l 0.48 -0.792 c -0.493 -0.342 -0.815 -0.907 -0.815 -1.546 z m 1.916 -1.889 c 1 0 1.822 0.757 1.909 1.722 l 0.935 -0.014 c -0.046 -0.713 -0.362 -1.352 -0.847 -1.823 -0.249 0.093 -0.538 0.079 -0.787 -0.063 -0.249 -0.142 -0.406 -0.381 -0.449 -0.641 -0.242 -0.066 -0.498 -0.102 -0.761 -0.102 -0.454 0 -0.882 0.105 -1.263 0.291 l 0.456 0.805 c 0.245 -0.112 0.519 -0.176 0.807 -0.176 z m 0 3.779 c -0.289 0 -0.562 -0.063 -0.807 -0.176 l -0.456 0.805 c 0.381 0.186 0.809 0.291 1.263 0.291 0.264 0 0.519 -0.036 0.761 -0.102 0.043 -0.26 0.199 -0.499 0.449 -0.641 0.249 -0.142 0.537 -0.156 0.787 -0.063 0.485 -0.47 0.801 -1.11 0.847 -1.823 l -0.935 -0.014 c -0.086 0.965 -0.907 1.722 -1.909 1.722 z m 1.343 -4.183 c 0.314 0.179 0.715 0.073 0.896 -0.237 0.181 -0.309 0.074 -0.705 -0.24 -0.883 -0.314 -0.179 -0.715 -0.073 -0.896 0.237 -0.181 0.309 -0.074 0.705 0.24 0.883 z" style="fill:#000;fill-opacity:0.098;color:#000"/>
  <path d="m 2.656 1043.22 c -0.362 0 -0.656 0.29 -0.656 0.647 c 0 0.357 0.294 0.647 0.656 0.647 0.362 0 0.656 -0.29 0.656 -0.647 0 -0.357 -0.294 -0.647 -0.656 -0.647 z m 4.684 2.94 c -0.314 0.179 -0.421 0.574 -0.24 0.883 0.181 0.309 0.582 0.415 0.896 0.237 0.314 -0.179 0.421 -0.574 0.24 -0.883 -0.181 -0.309 -0.582 -0.415 -0.896 -0.237 z m -3.259 -2.293 c 0 -0.639 0.322 -1.204 0.815 -1.546 l -0.48 -0.792 c -0.574 0.378 -1 0.956 -1.179 1.634 0.207 0.167 0.34 0.42 0.34 0.705 0 0.284 -0.132 0.538 -0.34 0.704 0.177 0.677 0.604 1.255 1.179 1.634 l 0.48 -0.792 c -0.493 -0.342 -0.815 -0.907 -0.815 -1.546 z m 1.916 -1.889 c 1 0 1.822 0.757 1.909 1.722 l 0.935 -0.014 c -0.046 -0.713 -0.362 -1.352 -0.847 -1.823 -0.249 0.093 -0.538 0.079 -0.787 -0.063 -0.249 -0.142 -0.406 -0.381 -0.449 -0.641 -0.242 -0.066 -0.498 -0.102 -0.761 -0.102 -0.454 0 -0.882 0.105 -1.263 0.291 l 0.456 0.805 c 0.245 -0.112 0.519 -0.176 0.807 -0.176 z m 0 3.779 c -0.289 0 -0.562 -0.063 -0.807 -0.176 l -0.456 0.805 c 0.381 0.186 0.809 0.291 1.263 0.291 0.264 0 0.519 -0.036 0.761 -0.102 0.043 -0.26 0.199 -0.499 0.449 -0.641 0.249 -0.142 0.537 -0.156 0.787 -0.063 0.485 -0.47 0.801 -1.11 0.847 -1.823 l -0.935 -0.014 c -0.086 0.965 -0.907 1.722 -1.909 1.722 z m 1.343 -4.183 c 0.314 0.179 0.715 0.073 0.896 -0.237 0.181 -0.309 0.074 -0.705 -0.24 -0.883 -0.314 -0.179 -0.715 -0.073 -0.896 0.237 -0.181 0.309 -0.074 0.705 0.24 0.883 z" style="fill:#fff8e1;fill-opacity:1;color:#000"/>
 </g>
</svg>
