<svg xmlns="http://www.w3.org/2000/svg" viewBox="0 0 22 22">
 <defs>
  <radialGradient r="24" cy="40.5" cx="24" gradientTransform="matrix(0.625,0,0,0.10416663,-4,1045.1435)" gradientUnits="userSpaceOnUse" id="radialGradient3053">
   <stop style="stop-color:#000;stop-opacity:1"/>
   <stop offset="1" style="stop-color:#000;stop-opacity:0.196"/>
  </radialGradient>
 </defs>
 <g transform="translate(0,-1030.3622)">
  <path d="m 11 1046.86 c -4.913 0 -9.264 0.391 -12 1 l 0 3 c 2.736 0.609 7.087 1 12 1 4.913 0 9.264 -0.391 12 -1 l 0 -3 c -2.736 -0.609 -7.087 -1 -12 -1 z" style="fill:url(#radialGradient3053);opacity:0.1;fill-opacity:1;stroke:none"/>
  <rect width="22" height="16" y="1034.36" rx="2.391" ry="2.5" style="fill:#388e3c;fill-opacity:1;stroke:none"/>
  <path d="m 2.391 1034.36 c -1.325 0 -2.391 1.115 -2.391 2.5 l 0 1 c 0 -1.385 1.067 -2.5 2.391 -2.5 l 17.217 0 c 1.325 0 2.391 1.115 2.391 2.5 l 0 -1 c 0 -1.385 -1.067 -2.5 -2.391 -2.5 l -17.217 0 z" style="fill:#fff;opacity:0.2;fill-opacity:1;stroke:none"/>
  <path d="m 2.391 1038.36 3.826 0 c 5.261 -0.5 4.304 -6 7.652 -6 l 5.739 0 c 1.325 0 2.391 1.115 2.391 2.5 l 0 13 c 0 1.385 -1.067 2.5 -2.391 2.5 l -17.217 0 c -1.325 0 -2.391 -1.115 -2.391 -2.5 l 0 -7 c 0 -1.5 0.957 -2.5 2.391 -2.5 z" style="fill:#66bb6a;fill-opacity:1;stroke:none"/>
  <path d="m 0 1046.86 0 1 c 0 1.385 1.067 2.5 2.391 2.5 l 17.217 0 c 1.325 0 2.391 -1.115 2.391 -2.5 l 0 -1 c 0 1.385 -1.067 2.5 -2.391 2.5 l -17.217 0 c -1.325 0 -2.391 -1.115 -2.391 -2.5 z" style="fill:#000;opacity:0.15;fill-opacity:1;stroke:none"/>
  <g transform="matrix(0.53846154,0,0,0.53846154,2,481.70563)" style="fill:#000;fill-opacity:0.098">
   <path d="m 1 1039.36 c 0 0 -1 0.038 -1 1 l 0 2.714 1.857 0 0 -1.857 1.857 0 0 -1.857 -2.621 0 z m 8.286 0 0 1.857 1.857 0 0 1.857 1.857 0 0 -2.714 c 0 -1 -1 -1 -1 -1 z m -9.286 9.286 l 0 2.714 c 0 1 1 1 1 1 l 2.714 0 0 -1.857 -1.857 0 0 -1.857 z m 11.143 0 0 1.857 -1.857 0 0 1.857 2.714 0 c 0 0 1 0 1 -1 l 0 -2.714 z" style="fill:#000;fill-opacity:0.098;color:#000"/>
  </g>
  <g transform="matrix(0.53846154,0,0,0.53846154,2,480.70563)" style="fill:#fff8e1;fill-opacity:1">
   <path d="m 1 1039.36 c 0 0 -1 0.038 -1 1 l 0 2.714 1.857 0 0 -1.857 1.857 0 0 -1.857 -2.621 0 z m 8.286 0 0 1.857 1.857 0 0 1.857 1.857 0 0 -2.714 c 0 -1 -1 -1 -1 -1 z m -9.286 9.286 l 0 2.714 c 0 1 1 1 1 1 l 2.714 0 0 -1.857 -1.857 0 0 -1.857 z m 11.143 0 0 1.857 -1.857 0 0 1.857 2.714 0 c 0 0 1 0 1 -1 l 0 -2.714 z" style="color:#000"/>
  </g>
  <rect y="1044.36" x="2" height="1" width="1" style="fill:#000;fill-opacity:0.098;stroke:none;fill-rule:evenodd"/>
  <rect width="1" height="1" x="2" y="1043.36" style="fill:#fff8e1;fill-opacity:1;stroke:none;fill-rule:evenodd"/>
  <rect y="1041.36" x="5" height="1" width="1" style="fill:#000;fill-opacity:0.098;stroke:none;fill-rule:evenodd"/>
  <rect width="1" height="1" x="5" y="1040.36" style="fill:#fff8e1;fill-opacity:1;stroke:none;fill-rule:evenodd"/>
  <rect y="1044.36" x="8" height="1" width="1" style="fill:#000;fill-opacity:0.098;stroke:none;fill-rule:evenodd"/>
  <rect width="1" height="1" x="8" y="1043.36" style="fill:#fff8e1;fill-opacity:1;stroke:none;fill-rule:evenodd"/>
  <rect y="1047.36" x="5" height="1" width="1" style="fill:#000;fill-opacity:0.098;stroke:none;fill-rule:evenodd"/>
  <rect width="1" height="1" x="5" y="1046.36" style="fill:#fff8e1;fill-opacity:1;stroke:none;fill-rule:evenodd"/>
 </g>
</svg>
