<svg viewBox="0 0 22 22" xmlns="http://www.w3.org/2000/svg">
 <rect height="7.5" y="3.998" x="2" width="11" style="fill:#757575;fill-opacity:1;stroke:none" ry="1.172" rx="1.196"/>
 <path style="fill:#fff;opacity:0.1;fill-opacity:1;stroke:none" d="m 3.196 3.998 c -0.662 0 -1.196 0.5 -1.196 1.25 l 0 0.75 c 0 -0.693 0.533 -1 1.196 -1 l 8.609 0 c 0.662 0 1.196 0.307 1.196 1 l 0 -0.75 c 0 -0.693 -0.533 -1.25 -1.196 -1.25 z"/>
 <path style="fill:#bdbdbd;fill-opacity:1;stroke:none" d="m 3.196,5.9978 1.913,0 c 2.63,-0.236 2.152,-3 3.826,-3 l 2.87,0 c 0.662,0 1.196,0.526 1.196,1.18 l 0,6.639 c 0,0.654 -0.533,1.181 -1.196,1.181 l -8.609,0 C 2.534,11.9978 2,11.4718 2,10.8168 l 0,-3.806 c 0,-0.708 0.478,-1.014 1.196,-1.014 z"/>
 <path style="fill:#000;opacity:0.075;fill-opacity:1;stroke:none" d="m 2,9.8978 0,0.957 c 0,0.632 0.524,1.141 1.196,1.141 l 8.609,0 c 0.662,0 1.196,-0.509 1.196,-1.141 l 0,-0.957 c 0,0.632 -0.533,1.098 -1.196,1.098 l -8.609,0 C 2.534,10.9958 2,10.5298 2,9.8978 Z"/>
 <path style="fill:#fff;opacity:0.5;fill-opacity:1;stroke:none" d="m 8.936 2.998 c -0.673 0 -0.999 0.451 -1.318 1 l -4.422 0 c -0.249 0 -0.465 0.089 -0.656 0.217 c -0.064 0.042 -0.135 0.074 -0.189 0.127 -0.126 0.124 -0.212 0.281 -0.271 0.451 -0.034 0.099 -0.056 0.207 -0.066 0.32 -0.001 0.02 -0.012 0.037 -0.012 0.057 l 0 0.078 0 0.75 0 1.014 0 2.887 0 0.428 0 0.49 0 0.039 c 0 0.519 0.361 0.937 0.859 1.076 0.109 0.032 0.216 0.066 0.336 0.066 l 8.609 0 c 0.083 0 0.156 -0.031 0.234 -0.047 0.545 -0.106 0.963 -0.543 0.963 -1.096 l 0 -0.039 0 -4.818 0 -0.75 0 -1.07 c 0 -0.654 -0.535 -1.18 -1.197 -1.18 l -2.869 0 z"/>
 <rect height="7.5" y="10.998" x="9" width="11" style="fill:#757575;fill-opacity:1;stroke:none" ry="1.172" rx="1.196"/>
 <path style="fill:#fff;opacity:0.2;fill-opacity:1;stroke:none" d="m 10.196 10.998 c -0.662 0 -1.196 0.5 -1.196 1.25 l 0 0.75 c 0 -0.693 0.533 -1 1.196 -1 l 8.609 0 c 0.662 0 1.196 0.307 1.196 1 l 0 -0.75 c 0 -0.693 -0.533 -1.25 -1.196 -1.25 z"/>
 <path style="fill:#bdbdbd;fill-opacity:1;stroke:none" d="m 10.196,12.9978 1.913,0 c 2.63,-0.236 2.152,-3 3.826,-3 l 2.87,0 c 0.662,0 1.196,0.526 1.196,1.18 l 0,6.639 c 0,0.654 -0.533,1.181 -1.196,1.181 l -8.609,0 C 9.534,18.9978 9,18.4718 9,17.8168 l 0,-3.806 c 0,-0.708 0.478,-1.014 1.196,-1.014 z"/>
 <path style="fill:#000;opacity:0.15;fill-opacity:1;stroke:none" d="m 9,16.8978 0,0.957 c 0,0.632 0.524,1.141 1.196,1.141 l 8.609,0 c 0.662,0 1.196,-0.509 1.196,-1.141 l 0,-0.957 c 0,0.632 -0.533,1.098 -1.196,1.098 l -8.609,0 C 9.534,17.9958 9,17.5298 9,16.8978 Z"/>
</svg>
