<svg xmlns="http://www.w3.org/2000/svg" viewBox="0 0 22 22">
 <defs>
  <radialGradient r="24" cy="40.5" cx="24" gradientTransform="matrix(0.625,0,0,0.10416663,-4,1045.1435)" gradientUnits="userSpaceOnUse" id="radialGradient3053">
   <stop style="stop-color:#000;stop-opacity:1"/>
   <stop offset="1" style="stop-color:#000;stop-opacity:0.196"/>
  </radialGradient>
 </defs>
 <g transform="translate(0,-1030.3622)">
  <path d="m 11 1046.86 c -4.913 0 -9.264 0.391 -12 1 l 0 3 c 2.736 0.609 7.087 1 12 1 4.913 0 9.264 -0.391 12 -1 l 0 -3 c -2.736 -0.609 -7.087 -1 -12 -1 z" style="fill:url(#radialGradient3053);opacity:0.1;fill-opacity:1;stroke:none"/>
  <rect width="22" height="16" y="1034.36" rx="2.391" ry="2.5" style="fill:#e65100;fill-opacity:1;stroke:none"/>
  <path d="m 2.391 1034.36 c -1.325 0 -2.391 1.115 -2.391 2.5 l 0 1 c 0 -1.385 1.067 -2.5 2.391 -2.5 l 17.217 0 c 1.325 0 2.391 1.115 2.391 2.5 l 0 -1 c 0 -1.385 -1.067 -2.5 -2.391 -2.5 l -17.217 0 z" style="fill:#fff;opacity:0.2;fill-opacity:1;stroke:none"/>
  <path d="m 2.391 1038.36 3.826 0 c 5.261 -0.5 4.304 -6 7.652 -6 l 5.739 0 c 1.325 0 2.391 1.115 2.391 2.5 l 0 13 c 0 1.385 -1.067 2.5 -2.391 2.5 l -17.217 0 c -1.325 0 -2.391 -1.115 -2.391 -2.5 l 0 -7 c 0 -1.5 0.957 -2.5 2.391 -2.5 z" style="fill:#f57c00;fill-opacity:1;stroke:none"/>
  <path d="m 0 1046.86 0 1 c 0 1.385 1.067 2.5 2.391 2.5 l 17.217 0 c 1.325 0 2.391 -1.115 2.391 -2.5 l 0 -1 c 0 1.385 -1.067 2.5 -2.391 2.5 l -17.217 0 c -1.325 0 -2.391 -1.115 -2.391 -2.5 z" style="fill:#000;opacity:0.15;fill-opacity:1;stroke:none"/>
  <path d="m 5.063 1041.36 c -1.493 0 -3.063 1.57 -3.063 3.5 c 0 1.93 1.57 3.5 3.063 3.5 c 2.368 0 3.937 -1.57 3.937 -3.5 c 0 -1.93 -1.57 -3.5 -3.5 -3.5 z m 0.722 0.492 c 0.326 0.03 0.642 0.105 0.93 0.23 -0.022 0.027 -0.039 0.052 -0.055 0.098 -0.088 0.265 -0.22 0.139 -0.066 0.47 0.155 0.331 0.284 0.417 0.328 0.263 0.044 -0.155 -0.111 -0.373 0.066 -0.284 0.177 0.088 0.308 -0.024 0.175 0.175 -0.133 0.199 -0.13 0.307 -0.284 0.262 -0.155 -0.045 -0.152 0.262 -0.306 0.306 -0.155 0.044 -0.208 -0.067 -0.208 0.044 0 0.11 0.088 0.01 0.066 0.186 -0.007 0.054 -0.005 0.064 -0.011 0.087 -0.145 -0.042 -0.21 -0.065 -0.317 -0.023 -0.11 0.044 -0.241 0.328 -0.241 0.328 0.138 0.138 0.202 0.237 0.252 0.284 -0.031 0.015 -0.068 0.022 -0.098 0.044 -0.221 0.155 -0.393 0.184 -0.459 0.405 -0.066 0.221 -0.044 0.019 -0.044 0.284 0 0.265 -0.067 0.085 0.066 0.328 0.133 0.243 0.458 0.36 0.612 0.492 0.155 0.133 0.314 -0.288 0.623 0.109 0.309 0.398 0.329 0.238 0.219 0.459 -0.11 0.221 -0.218 0.294 -0.262 0.383 -0.044 0.088 0.086 0.393 0.241 0.459 0.003 0 0.007 0 0.011 0 -0.008 0.019 -0.014 0.036 -0.022 0.055 -0.2 0.091 -0.446 0.216 -0.492 0.23 -0.109 0.032 -0.495 0.097 -0.777 0.175 -0.035 0.01 -0.063 0.01 -0.077 0.012 0.035 -0.038 0.311 -0.183 0.448 -0.262 0.188 -0.11 -0.011 -0.098 -0.011 -0.098 0 0 -0.298 -0.034 -0.908 -0.034 -0.305 0 -0.437 0.014 -0.503 0.034 -0.033 0.01 -0.05 0.019 -0.066 0.033 -0.016 0.014 -0.027 0.028 -0.055 0.044 -0.109 0.062 0.064 0.128 -0.077 0.175 -0.105 0.035 -0.118 0 -0.208 -0.066 0.064 -0.064 0.153 -0.141 0.262 -0.274 0.199 -0.241 0.262 -0.197 0.328 -0.416 0.066 -0.219 -0.558 -0.153 -0.558 -0.284 0 -0.131 -0.107 -0.219 -0.306 -0.306 -0.199 -0.087 -0.063 -0.131 -0.284 -0.197 -0.221 -0.065 -0.47 0.328 -0.536 0.197 -0.066 -0.131 0.208 -0.131 0.208 -0.284 0 -0.149 -0.315 0.113 -0.372 -0.076 -0.002 -0.01 -0.01 -0.01 -0.011 -0.012 -0.006 -0.027 -0.002 -0.044 0 -0.065 0.014 -0.157 0.196 -0.219 0.273 -0.372 0.088 -0.175 0.043 0.131 0.153 0.284 0.11 0.153 0.066 -0.197 0 -0.394 -0.066 -0.197 0.042 -0.197 0.197 -0.459 0.155 -0.263 0.153 -0.416 0.153 -0.613 0 -0.197 0.107 -0.219 0.328 -0.416 0.101 -0.09 0.181 -0.169 0.241 -0.241 0.014 -0.01 0.029 -0.01 0.044 -0.012 0.234 -0.094 0.333 -0.234 0.536 -0.656 0.203 -0.422 -0.08 -0.028 -0.142 -0.043 -0.063 -0.016 -0.153 -0.127 -0.372 -0.252 -0.045 -0.026 -0.085 -0.038 -0.12 -0.043 l 0.405 -0.667 c 0.13 -0.035 0.269 -0.059 0.405 -0.077 0.05 0.283 0.022 0.547 0.022 0.547 0 0 -0.077 0.091 -0.077 0.153 0 0.062 0.419 -0.516 0.481 -0.547 0.063 -0.032 0.22 0.166 0.252 -0.131 0.002 -0.017 -0.002 -0.017 0 -0.033 z m 0.591 1.181 c -0.022 -0.01 -0.049 0 -0.077 0.012 0 0.077 -0.03 0.134 -0.044 0.164 -0.008 -0.014 -0.033 -0.033 -0.033 -0.033 -0.033 0.061 -0.105 0.115 -0.033 0.098 0.072 -0.016 0.126 0.028 0.077 -0.033 -0.01 -0.012 -0.005 -0.01 -0.011 -0.012 0.009 0.01 0.027 0.012 0.066 0.012 0.044 0 0.067 0 0.098 0 -0.053 0.04 -0.112 0.056 -0.033 0.077 0.105 0.028 0.153 0.033 0.153 0.011 0 -0.022 -0.033 -0.098 -0.033 -0.098 0.021 -0.01 0.04 -0.019 0.022 -0.055 -0.033 -0.066 -0.086 -0.132 -0.153 -0.142 z m 1.673 0.186 c 0.055 0.085 0.107 0.172 0.153 0.263 -0.03 0.177 -0.108 0.295 0.022 0.295 0.036 0 0.069 -0.01 0.098 -0.012 0.004 0.01 0.007 0.023 0.011 0.033 -0.221 0 -0.327 0.066 -0.438 0.044 -0.11 -0.023 -0.418 -0.042 -0.219 -0.241 0.116 -0.116 0.261 -0.301 0.372 -0.383 z m -1.378 0.405 c 0.02 0.01 0.038 0.027 0.055 0.065 0.066 0.155 0.176 0.284 0.088 0.306 -0.088 0.022 -0.131 0.044 -0.131 0.044 0 0 0.306 0.199 0.328 -0.022 0.022 -0.221 -0.088 -0.35 -0.088 -0.35 0 0 0.153 0.152 0.197 0.241 0.044 0.089 0.043 0 0.153 0.11 0.11 0.11 0.086 -0.439 0.241 -0.284 0.155 0.155 0.252 0.152 0.208 0.263 -0.044 0.11 0.284 -0.133 0.284 0.087 0 0.213 0.136 0.299 -0.131 0.405 -0.101 -0.01 -0.181 -0.024 -0.197 -0.055 -0.044 -0.088 -0.295 -0.022 -0.295 -0.022 -0.661 -0.165 -0.948 -0.217 -1.138 -0.186 0.004 -0.01 0.007 -0.01 0.011 -0.011 0.097 -0.174 0.279 -0.416 0.219 -0.503 0.084 -0.049 0.15 -0.102 0.197 -0.088 z m 1.859 1.105 c 0.002 0.044 0 0.086 0 0.131 0 0.124 -0.007 0.251 -0.022 0.372 -0.199 -0.177 -0.481 -0.175 -0.481 -0.175 0 0 0.173 -0.196 0.416 -0.284 0.03 -0.011 0.063 -0.026 0.088 -0.044 z" style="fill:#000;fill-opacity:0.098;color:#000"/>
  <path d="m 5.063 1040.36 c -1.493 0 -3.063 1.57 -3.063 3.5 c 0 1.93 1.57 3.5 3.063 3.5 c 2.368 0 3.937 -1.57 3.937 -3.5 c 0 -1.93 -1.57 -3.5 -3.5 -3.5 z m 0.722 0.492 c 0.326 0.03 0.642 0.105 0.93 0.23 -0.022 0.027 -0.039 0.052 -0.055 0.098 -0.088 0.265 -0.22 0.139 -0.066 0.47 0.155 0.331 0.284 0.417 0.328 0.263 0.044 -0.155 -0.111 -0.373 0.066 -0.284 0.177 0.088 0.308 -0.024 0.175 0.175 -0.133 0.199 -0.13 0.307 -0.284 0.262 -0.155 -0.045 -0.152 0.262 -0.306 0.306 -0.155 0.044 -0.208 -0.067 -0.208 0.044 0 0.11 0.088 0.01 0.066 0.186 -0.007 0.054 -0.005 0.064 -0.011 0.087 -0.145 -0.042 -0.21 -0.065 -0.317 -0.023 -0.11 0.044 -0.241 0.328 -0.241 0.328 0.138 0.138 0.202 0.237 0.252 0.284 -0.031 0.015 -0.068 0.022 -0.098 0.044 -0.221 0.155 -0.393 0.184 -0.459 0.405 -0.066 0.221 -0.044 0.019 -0.044 0.284 0 0.265 -0.067 0.085 0.066 0.328 0.133 0.243 0.458 0.36 0.612 0.492 0.155 0.133 0.314 -0.288 0.623 0.109 0.309 0.398 0.329 0.238 0.219 0.459 -0.11 0.221 -0.218 0.294 -0.262 0.383 -0.044 0.088 0.086 0.393 0.241 0.459 0.003 0 0.007 0 0.011 0 -0.008 0.019 -0.014 0.036 -0.022 0.055 -0.2 0.091 -0.446 0.216 -0.492 0.23 -0.109 0.032 -0.495 0.097 -0.777 0.175 -0.035 0.01 -0.063 0.01 -0.077 0.012 0.035 -0.038 0.311 -0.183 0.448 -0.262 0.188 -0.11 -0.011 -0.098 -0.011 -0.098 0 0 -0.298 -0.034 -0.908 -0.034 -0.305 0 -0.437 0.014 -0.503 0.034 -0.033 0.01 -0.05 0.019 -0.066 0.033 -0.016 0.014 -0.027 0.028 -0.055 0.044 -0.109 0.062 0.064 0.128 -0.077 0.175 -0.105 0.035 -0.118 0 -0.208 -0.066 0.064 -0.064 0.153 -0.141 0.262 -0.274 0.199 -0.241 0.262 -0.197 0.328 -0.416 0.066 -0.219 -0.558 -0.153 -0.558 -0.284 0 -0.131 -0.107 -0.219 -0.306 -0.306 -0.199 -0.087 -0.063 -0.131 -0.284 -0.197 -0.221 -0.065 -0.47 0.328 -0.536 0.197 -0.066 -0.131 0.208 -0.131 0.208 -0.284 0 -0.149 -0.315 0.113 -0.372 -0.076 -0.002 -0.01 -0.01 -0.01 -0.011 -0.012 -0.006 -0.027 -0.002 -0.044 0 -0.065 0.014 -0.157 0.196 -0.219 0.273 -0.372 0.088 -0.175 0.043 0.131 0.153 0.284 0.11 0.153 0.066 -0.197 0 -0.394 -0.066 -0.197 0.042 -0.197 0.197 -0.459 0.155 -0.263 0.153 -0.416 0.153 -0.613 0 -0.197 0.107 -0.219 0.328 -0.416 0.101 -0.09 0.181 -0.169 0.241 -0.241 0.014 -0.01 0.029 -0.01 0.044 -0.012 0.234 -0.094 0.333 -0.234 0.536 -0.656 0.203 -0.422 -0.08 -0.028 -0.142 -0.043 -0.063 -0.016 -0.153 -0.127 -0.372 -0.252 -0.045 -0.026 -0.085 -0.038 -0.12 -0.043 l 0.405 -0.667 c 0.13 -0.035 0.269 -0.059 0.405 -0.077 0.05 0.283 0.022 0.547 0.022 0.547 0 0 -0.077 0.091 -0.077 0.153 0 0.062 0.419 -0.516 0.481 -0.547 0.063 -0.032 0.22 0.166 0.252 -0.131 0.002 -0.017 -0.002 -0.017 0 -0.033 z m 0.591 1.181 c -0.022 -0.01 -0.049 0 -0.077 0.012 0 0.077 -0.03 0.134 -0.044 0.164 -0.008 -0.014 -0.033 -0.033 -0.033 -0.033 -0.033 0.061 -0.105 0.115 -0.033 0.098 0.072 -0.016 0.126 0.028 0.077 -0.033 -0.01 -0.012 -0.005 -0.01 -0.011 -0.012 0.009 0.01 0.027 0.012 0.066 0.012 0.044 0 0.067 0 0.098 0 -0.053 0.04 -0.112 0.056 -0.033 0.077 0.105 0.028 0.153 0.033 0.153 0.011 0 -0.022 -0.033 -0.098 -0.033 -0.098 0.021 -0.01 0.04 -0.019 0.022 -0.055 -0.033 -0.066 -0.086 -0.132 -0.153 -0.142 z m 1.673 0.186 c 0.055 0.085 0.107 0.172 0.153 0.263 -0.03 0.177 -0.108 0.295 0.022 0.295 0.036 0 0.069 -0.01 0.098 -0.012 0.004 0.01 0.007 0.023 0.011 0.033 -0.221 0 -0.327 0.066 -0.438 0.044 -0.11 -0.023 -0.418 -0.042 -0.219 -0.241 0.116 -0.116 0.261 -0.301 0.372 -0.383 z m -1.378 0.405 c 0.02 0.01 0.038 0.027 0.055 0.065 0.066 0.155 0.176 0.284 0.088 0.306 -0.088 0.022 -0.131 0.044 -0.131 0.044 0 0 0.306 0.199 0.328 -0.022 0.022 -0.221 -0.088 -0.35 -0.088 -0.35 0 0 0.153 0.152 0.197 0.241 0.044 0.089 0.043 0 0.153 0.11 0.11 0.11 0.086 -0.439 0.241 -0.284 0.155 0.155 0.252 0.152 0.208 0.263 -0.044 0.11 0.284 -0.133 0.284 0.087 0 0.213 0.136 0.299 -0.131 0.405 -0.101 -0.01 -0.181 -0.024 -0.197 -0.055 -0.044 -0.088 -0.295 -0.022 -0.295 -0.022 -0.661 -0.165 -0.948 -0.217 -1.138 -0.186 0.004 -0.01 0.007 -0.01 0.011 -0.011 0.097 -0.174 0.279 -0.416 0.219 -0.503 0.084 -0.049 0.15 -0.102 0.197 -0.088 z m 1.859 1.105 c 0.002 0.044 0 0.086 0 0.131 0 0.124 -0.007 0.251 -0.022 0.372 -0.199 -0.177 -0.481 -0.175 -0.481 -0.175 0 0 0.173 -0.196 0.416 -0.284 0.03 -0.011 0.063 -0.026 0.088 -0.044 z" style="fill:#fff8e1;fill-opacity:1;color:#000"/>
 </g>
</svg>
