<svg xmlns="http://www.w3.org/2000/svg" viewBox="0 0 22 22">
 <defs>
  <radialGradient r="24" cy="40.5" cx="24" gradientTransform="matrix(0.625,0,0,0.10416663,-4,1045.1435)" gradientUnits="userSpaceOnUse" id="radialGradient3053">
   <stop style="stop-color:#000;stop-opacity:1"/>
   <stop offset="1" style="stop-color:#000;stop-opacity:0.196"/>
  </radialGradient>
 </defs>
 <g transform="translate(0,-1030.3622)">
  <path d="m 11 1046.86 c -4.913 0 -9.264 0.391 -12 1 l 0 3 c 2.736 0.609 7.087 1 12 1 4.913 0 9.264 -0.391 12 -1 l 0 -3 c -2.736 -0.609 -7.087 -1 -12 -1 z" style="fill:url(#radialGradient3053);opacity:0.1;fill-opacity:1;stroke:none"/>
  <rect width="22" height="16" y="1034.36" rx="2.391" ry="2.5" style="fill:#512da8;fill-opacity:1;stroke:none"/>
  <path d="m 2.391 1034.36 c -1.325 0 -2.391 1.115 -2.391 2.5 l 0 1 c 0 -1.385 1.067 -2.5 2.391 -2.5 l 17.217 0 c 1.325 0 2.391 1.115 2.391 2.5 l 0 -1 c 0 -1.385 -1.067 -2.5 -2.391 -2.5 l -17.217 0 z" style="fill:#fff;opacity:0.2;fill-opacity:1;stroke:none"/>
  <path d="m 2.391 1038.36 3.826 0 c 5.261 -0.5 4.304 -6 7.652 -6 l 5.739 0 c 1.325 0 2.391 1.115 2.391 2.5 l 0 13 c 0 1.385 -1.067 2.5 -2.391 2.5 l -17.217 0 c -1.325 0 -2.391 -1.115 -2.391 -2.5 l 0 -7 c 0 -1.5 0.957 -2.5 2.391 -2.5 z" style="fill:#7e57c2;fill-opacity:1;stroke:none"/>
  <path d="m 0 1046.86 0 1 c 0 1.385 1.067 2.5 2.391 2.5 l 17.217 0 c 1.325 0 2.391 -1.115 2.391 -2.5 l 0 -1 c 0 1.385 -1.067 2.5 -2.391 2.5 l -17.217 0 c -1.325 0 -2.391 -1.115 -2.391 -2.5 z" style="fill:#000;opacity:0.15;fill-opacity:1;stroke:none"/>
  <path d="m 6.355 1041.7 c -0.685 0 -1.25 0.52 -1.25 1.169 0.005 0.223 0.017 0.505 0.148 1.102 l 0.013 0 c 0.026 0.079 0.067 0.157 0.134 0.242 0.061 0.076 0.141 0.162 0.215 0.242 0.023 0.169 0.026 0.316 0 0.497 -0.203 0.154 -0.57 0.299 -0.901 0.43 -0.172 0.069 -0.331 0.132 -0.457 0.215 -0.12 0.079 -0.207 0.187 -0.215 0.323 0 0.01 -0.013 0.01 -0.013 0.014 l -0.148 1.142 0 0.014 c 0 0.142 0.094 0.257 0.229 0.35 0.134 0.092 0.316 0.164 0.538 0.228 0.443 0.129 1.043 0.202 1.707 0.202 0.664 0 1.264 -0.073 1.707 -0.202 0.221 -0.064 0.403 -0.136 0.538 -0.228 0.134 -0.092 0.229 -0.208 0.229 -0.35 l 0 -0.014 -0.161 -1.142 c 0 -0.01 0 -0.01 0 -0.014 -0.004 -0.065 -0.027 -0.128 -0.067 -0.175 -0.043 -0.05 -0.099 -0.082 -0.161 -0.121 -0.125 -0.078 -0.285 -0.144 -0.457 -0.215 -0.335 -0.138 -0.701 -0.294 -0.901 -0.457 -0.015 -0.156 -0.016 -0.315 0 -0.47 0.072 -0.085 0.153 -0.173 0.215 -0.255 0.069 -0.091 0.121 -0.174 0.148 -0.255 0.147 -0.621 0.154 -0.875 0.161 -1.102 0 -0.65 -0.565 -1.169 -1.25 -1.169 z m -2.325 0.215 c -0.563 0 -1.022 0.434 -1.022 0.968 0.004 0.183 0.014 0.398 0.121 0.887 l 0 0.014 c 0.022 0.066 0.065 0.118 0.121 0.188 0.049 0.062 0.115 0.137 0.175 0.202 0.018 0.135 0.02 0.272 0 0.417 -0.166 0.128 -0.467 0.242 -0.739 0.35 -0.141 0.056 -0.26 0.107 -0.363 0.175 -0.097 0.064 -0.167 0.159 -0.175 0.269 0 0.01 -0.013 0.01 -0.013 0.014 l -0.134 0.926 l 0 0.014 c 0 0.087 0.042 0.163 0.108 0.228 0.066 0.066 0.157 0.126 0.269 0.175 0.22 0.096 0.534 0.162 0.914 0.202 l 0.013 0 c 0.021 0 0.041 -0.01 0.054 -0.014 0.016 -0.01 0.034 -0.017 0.04 -0.026 0.013 -0.018 0.021 -0.037 0.027 -0.054 0.01 -0.03 0.012 -0.064 0.013 -0.094 0 -0.01 0 -0.01 0 -0.014 l 0.148 -1.142 c 0 -0.047 0.032 -0.103 0.108 -0.161 0.075 -0.058 0.189 -0.117 0.323 -0.175 0.266 -0.116 0.604 -0.223 0.874 -0.363 l 0.148 -0.081 -0.148 -0.067 c -0.107 -0.052 -0.188 -0.109 -0.255 -0.161 -0.013 -0.133 -0.014 -0.271 0 -0.403 0 -0.01 0 -0.01 0 -0.014 0.102 -0.138 0.18 -0.281 0.215 -0.363 l 0.013 -0.026 -0.013 -0.027 c -0.012 -0.067 -0.008 -0.117 -0.027 -0.175 -0.129 -0.59 -0.143 -0.833 -0.148 -1.049 0 -0.091 0.021 -0.196 0.054 -0.296 l 0.027 -0.054 -0.054 -0.026 c -0.179 -0.143 -0.417 -0.242 -0.672 -0.242 z" style="fill:#000;fill-opacity:0.098;color:#000"/>
  <path d="m 6.355 1040.7 c -0.685 0 -1.25 0.52 -1.25 1.169 0.005 0.223 0.017 0.505 0.148 1.102 l 0.013 0 c 0.026 0.079 0.067 0.157 0.134 0.242 0.061 0.076 0.141 0.162 0.215 0.242 0.023 0.169 0.026 0.316 0 0.497 -0.203 0.154 -0.57 0.299 -0.901 0.43 -0.172 0.069 -0.331 0.132 -0.457 0.215 -0.12 0.079 -0.207 0.187 -0.215 0.323 0 0.01 -0.013 0.01 -0.013 0.014 l -0.148 1.142 0 0.014 c 0 0.142 0.094 0.257 0.229 0.35 0.134 0.092 0.316 0.164 0.538 0.228 0.443 0.129 1.043 0.202 1.707 0.202 0.664 0 1.264 -0.073 1.707 -0.202 0.221 -0.064 0.403 -0.136 0.538 -0.228 0.134 -0.092 0.229 -0.208 0.229 -0.35 l 0 -0.014 -0.161 -1.142 c 0 -0.01 0 -0.01 0 -0.014 -0.004 -0.065 -0.027 -0.128 -0.067 -0.175 -0.043 -0.05 -0.099 -0.082 -0.161 -0.121 -0.125 -0.078 -0.285 -0.144 -0.457 -0.215 -0.335 -0.138 -0.701 -0.294 -0.901 -0.457 -0.015 -0.156 -0.016 -0.315 0 -0.47 0.072 -0.085 0.153 -0.173 0.215 -0.255 0.069 -0.091 0.121 -0.174 0.148 -0.255 0.147 -0.621 0.154 -0.875 0.161 -1.102 0 -0.65 -0.565 -1.169 -1.25 -1.169 z m -2.325 0.215 c -0.563 0 -1.022 0.434 -1.022 0.968 0.004 0.183 0.014 0.398 0.121 0.887 l 0 0.014 c 0.022 0.066 0.065 0.118 0.121 0.188 0.049 0.062 0.115 0.137 0.175 0.202 0.018 0.135 0.02 0.272 0 0.417 -0.166 0.128 -0.467 0.242 -0.739 0.35 -0.141 0.056 -0.26 0.107 -0.363 0.175 -0.097 0.064 -0.167 0.159 -0.175 0.269 0 0.01 -0.013 0.01 -0.013 0.014 l -0.134 0.926 l 0 0.014 c 0 0.087 0.042 0.163 0.108 0.228 0.066 0.066 0.157 0.126 0.269 0.175 0.22 0.096 0.534 0.162 0.914 0.202 l 0.013 0 c 0.021 0 0.041 -0.01 0.054 -0.014 0.016 -0.01 0.034 -0.017 0.04 -0.026 0.013 -0.018 0.021 -0.037 0.027 -0.054 0.01 -0.03 0.012 -0.064 0.013 -0.094 0 -0.01 0 -0.01 0 -0.014 l 0.148 -1.142 c 0 -0.047 0.032 -0.103 0.108 -0.161 0.075 -0.058 0.189 -0.117 0.323 -0.175 0.266 -0.116 0.604 -0.223 0.874 -0.363 l 0.148 -0.081 -0.148 -0.067 c -0.107 -0.052 -0.188 -0.109 -0.255 -0.161 -0.013 -0.133 -0.014 -0.271 0 -0.403 0 -0.01 0 -0.01 0 -0.014 0.102 -0.138 0.18 -0.281 0.215 -0.363 l 0.013 -0.026 -0.013 -0.027 c -0.012 -0.067 -0.008 -0.117 -0.027 -0.175 -0.129 -0.59 -0.143 -0.833 -0.148 -1.049 0 -0.091 0.021 -0.196 0.054 -0.296 l 0.027 -0.054 -0.054 -0.026 c -0.179 -0.143 -0.417 -0.242 -0.672 -0.242 z" style="fill:#fff8e1;fill-opacity:1;color:#000"/>
 </g>
</svg>
