<svg xmlns="http://www.w3.org/2000/svg" viewBox="0 0 22 22">
 <defs>
  <radialGradient r="24" cy="40.5" cx="24" gradientTransform="matrix(0.625,0,0,0.10416663,-4,1045.1435)" gradientUnits="userSpaceOnUse" id="radialGradient3053">
   <stop style="stop-color:#000;stop-opacity:1"/>
   <stop offset="1" style="stop-color:#000;stop-opacity:0.196"/>
  </radialGradient>
 </defs>
 <g transform="translate(0,-1030.3622)">
  <path d="m 11 1046.86 c -4.913 0 -9.264 0.391 -12 1 l 0 3 c 2.736 0.609 7.087 1 12 1 4.913 0 9.264 -0.391 12 -1 l 0 -3 c -2.736 -0.609 -7.087 -1 -12 -1 z" style="fill:url(#radialGradient3053);opacity:0.1;fill-opacity:1;stroke:none"/>
  <rect width="22" height="16" y="1034.36" rx="2.391" ry="2.5" style="fill:#512da8;fill-opacity:1;stroke:none"/>
  <path d="m 2.391 1034.36 c -1.325 0 -2.391 1.115 -2.391 2.5 l 0 1 c 0 -1.385 1.067 -2.5 2.391 -2.5 l 17.217 0 c 1.325 0 2.391 1.115 2.391 2.5 l 0 -1 c 0 -1.385 -1.067 -2.5 -2.391 -2.5 l -17.217 0 z" style="fill:#fff;opacity:0.2;fill-opacity:1;stroke:none"/>
  <path d="m 2.391 1038.36 3.826 0 c 5.261 -0.5 4.304 -6 7.652 -6 l 5.739 0 c 1.325 0 2.391 1.115 2.391 2.5 l 0 13 c 0 1.385 -1.067 2.5 -2.391 2.5 l -17.217 0 c -1.325 0 -2.391 -1.115 -2.391 -2.5 l 0 -7 c 0 -1.5 0.957 -2.5 2.391 -2.5 z" style="fill:#7e57c2;fill-opacity:1;stroke:none"/>
  <path d="m 0 1046.86 0 1 c 0 1.385 1.067 2.5 2.391 2.5 l 17.217 0 c 1.325 0 2.391 -1.115 2.391 -2.5 l 0 -1 c 0 1.385 -1.067 2.5 -2.391 2.5 l -17.217 0 c -1.325 0 -2.391 -1.115 -2.391 -2.5 z" style="fill:#000;opacity:0.15;fill-opacity:1;stroke:none"/>
  <path d="m 8.29 1042.07 c -0.947 -0.948 -2.479 -0.942 -3.426 0.01 -0.805 0.806 -0.926 2.032 -0.363 2.964 l -2.337 2.338 c -0.218 0.218 -0.218 0.567 0 0.785 l 0.035 0.035 c 0.218 0.218 0.567 0.218 0.785 0 l 2.337 -2.338 c 0.933 0.564 2.164 0.448 2.969 -0.357 0.947 -0.947 0.947 -2.486 0 -3.433 z m -0.533 0.533 c 0.652 0.652 0.652 1.715 0 2.367 -0.645 0.646 -1.69 0.646 -2.343 0.012 l -0.018 -0.018 c -0.006 -0.01 -0.012 -0.012 -0.018 -0.018 -0.634 -0.653 -0.628 -1.692 0.018 -2.337 0.652 -0.652 1.709 -0.658 2.36 -0.01 z" style="fill:#000;fill-opacity:0.098;color:#000"/>
  <path d="m 8.29 1041.07 c -0.947 -0.948 -2.479 -0.942 -3.426 0.01 -0.805 0.806 -0.926 2.032 -0.363 2.964 l -2.337 2.338 c -0.218 0.218 -0.218 0.567 0 0.785 l 0.035 0.035 c 0.218 0.218 0.567 0.218 0.785 0 l 2.337 -2.338 c 0.933 0.565 2.164 0.448 2.969 -0.357 0.947 -0.947 0.947 -2.486 0 -3.433 z m -0.533 0.533 c 0.652 0.652 0.652 1.715 0 2.367 -0.645 0.646 -1.69 0.645 -2.343 0.012 l -0.018 -0.018 c -0.006 -0.01 -0.012 -0.012 -0.018 -0.018 -0.634 -0.653 -0.628 -1.692 0.018 -2.337 0.652 -0.652 1.709 -0.658 2.36 -0.01 z" style="fill:#fff8e1;fill-opacity:1;color:#000"/>
 </g>
</svg>
