<svg xmlns="http://www.w3.org/2000/svg" viewBox="0 0 22 22">
 <defs>
  <radialGradient r="24" cy="40.5" cx="24" gradientTransform="matrix(0.625,0,0,0.10416663,-4,1045.1435)" gradientUnits="userSpaceOnUse" id="radialGradient3053">
   <stop style="stop-color:#000;stop-opacity:1"/>
   <stop offset="1" style="stop-color:#000;stop-opacity:0.196"/>
  </radialGradient>
 </defs>
 <g transform="translate(0,-1030.3622)">
  <path d="m 11 1046.86 c -4.913 0 -9.264 0.391 -12 1 l 0 3 c 2.736 0.609 7.087 1 12 1 4.913 0 9.264 -0.391 12 -1 l 0 -3 c -2.736 -0.609 -7.087 -1 -12 -1 z" style="fill:url(#radialGradient3053);opacity:0.1;fill-opacity:1;stroke:none"/>
  <rect width="22" height="16" y="1034.36" rx="2.391" ry="2.5" style="fill:#ffb300;fill-opacity:1;stroke:none"/>
  <path d="m 2.391 1034.36 c -1.325 0 -2.391 1.115 -2.391 2.5 l 0 1 c 0 -1.385 1.067 -2.5 2.391 -2.5 l 17.217 0 c 1.325 0 2.391 1.115 2.391 2.5 l 0 -1 c 0 -1.385 -1.067 -2.5 -2.391 -2.5 l -17.217 0 z" style="fill:#fff;opacity:0.2;fill-opacity:1;stroke:none"/>
  <path d="m 2.391 1038.36 3.826 0 c 5.261 -0.5 4.304 -6 7.652 -6 l 5.739 0 c 1.325 0 2.391 1.115 2.391 2.5 l 0 13 c 0 1.385 -1.067 2.5 -2.391 2.5 l -17.217 0 c -1.325 0 -2.391 -1.115 -2.391 -2.5 l 0 -7 c 0 -1.5 0.957 -2.5 2.391 -2.5 z" style="fill:#ffca28;fill-opacity:1;stroke:none"/>
  <path d="m 8.31 1041.36 c -0.284 0.01 -0.563 0.19 -0.608 0.537 -0.072 0.554 0.465 0.347 0.894 0.347 0.429 0 0.572 0.901 0.465 1.386 -0.107 0.485 -1.248 1.631 -3.826 0.485 -2.122 -0.943 -3.182 0.313 -3.236 0.338 0.201 1.874 1.839 3.907 3.826 3.907 2.123 0 3.843 -2.239 3.843 -4.297 0 -0.236 -0.028 -0.469 -0.072 -0.693 -0.039 -0.113 -0.078 -0.226 -0.107 -0.329 -0.052 -0.185 -0.111 -0.34 -0.161 -0.485 -0.002 0 0.002 -0.013 0 -0.017 -0.203 -0.437 -0.488 -0.833 -0.84 -1.161 -0.002 0 -0.007 0.01 -0.009 0 -0.055 -0.014 -0.113 -0.018 -0.17 -0.017 z" style="fill:#000;fill-opacity:0.098;color:#000"/>
  <path d="m 0 1046.86 0 1 c 0 1.385 1.067 2.5 2.391 2.5 l 17.217 0 c 1.325 0 2.391 -1.115 2.391 -2.5 l 0 -1 c 0 1.385 -1.067 2.5 -2.391 2.5 l -17.217 0 c -1.325 0 -2.391 -1.115 -2.391 -2.5 z" style="fill:#000;opacity:0.15;fill-opacity:1;stroke:none"/>
  <path d="m 8.201 1043.32 c 0 0.214 -0.174 0.388 -0.388 0.388 -0.214 0 -0.388 -0.174 -0.388 -0.388 0 -0.214 0.174 -0.388 0.388 -0.388 0.214 0 0.388 0.174 0.388 0.388 z" style="fill:#000;fill-opacity:0.098;color:#000"/>
  <path d="m 8.31 1040.36 c -0.284 0.01 -0.563 0.19 -0.608 0.537 -0.072 0.554 0.465 0.347 0.894 0.347 0.429 0 0.572 0.901 0.465 1.386 -0.107 0.485 -1.248 1.631 -3.826 0.485 -2.122 -0.943 -3.182 0.313 -3.236 0.338 0.201 1.874 1.839 3.907 3.826 3.907 2.123 0 3.843 -2.239 3.843 -4.297 0 -0.236 -0.028 -0.469 -0.072 -0.693 -0.039 -0.113 -0.078 -0.226 -0.107 -0.329 -0.052 -0.185 -0.111 -0.34 -0.161 -0.485 -0.002 0 0.002 -0.013 0 -0.017 -0.203 -0.437 -0.488 -0.833 -0.84 -1.161 -0.002 0 -0.007 0.01 -0.009 0 -0.055 -0.014 -0.113 -0.018 -0.17 -0.017 z" style="fill:#fff8e1;fill-opacity:1;color:#000"/>
  <path d="m 7.04 1041.97 c 0 0.107 -0.087 0.194 -0.194 0.194 -0.107 0 -0.194 -0.087 -0.194 -0.194 0 -0.107 0.087 -0.194 0.194 -0.194 0.107 0 0.194 0.087 0.194 0.194 z" style="fill:#000;fill-opacity:0.098;color:#000"/>
  <path d="m 8.201 1042.32 c 0 0.214 -0.174 0.388 -0.388 0.388 -0.214 0 -0.388 -0.174 -0.388 -0.388 0 -0.214 0.174 -0.388 0.388 -0.388 0.214 0 0.388 0.174 0.388 0.388 z" style="fill:#fff8e1;fill-opacity:1;color:#000"/>
  <path d="m 7.04 1040.97 c 0 0.107 -0.087 0.194 -0.194 0.194 -0.107 0 -0.194 -0.087 -0.194 -0.194 0 -0.107 0.087 -0.194 0.194 -0.194 0.107 0 0.194 0.087 0.194 0.194 z" style="fill:#fff8e1;fill-opacity:1;color:#000"/>
 </g>
</svg>
